<svg width="60" height="60" viewBox="0 0 60 60" fill="none" xmlns="http://www.w3.org/2000/svg">
<g clip-path="url(#clip0_4592_45)">
<path d="M57.709 0.0962239C57.6806 0.105247 57.6506 0.0928255 57.6225 0.103255L1.37235 21.197C0.756062 21.4288 0.320123 21.9867 0.244537 22.6424C0.168951 23.2982 0.466022 23.9402 1.01528 24.3058L13.3473 32.5261L17.8588 51.3769C17.8706 51.4264 17.9011 51.4659 17.9169 51.5135C18.3224 52.7502 19.8797 53.1428 20.8113 52.2111L29.6363 43.3862L43.2029 52.4309C44.1858 53.09 45.541 52.598 45.8688 51.4507L59.9313 2.23185C60.3089 0.907163 59.0654 -0.339246 57.709 0.0962239ZM22.1349 35.8518C21.8438 36.1467 21.7561 36.3856 21.654 36.7574C21.6527 36.7643 21.6497 36.7707 21.6484 36.7775L19.6869 43.9097L16.8922 32.2316L44.1179 13.5633L22.1349 35.8518Z" fill="#FFD79F"/>
<path d="M11.7897 48.202C11.1031 47.5154 9.99063 47.5153 9.30403 48.202L0.514952 56.9911C-0.171651 57.6777 -0.171651 58.7902 0.514952 59.4768C1.20167 60.1635 2.3139 60.1635 3.00062 59.4768L11.7897 50.6877C12.4763 50.0011 12.4763 48.8886 11.7897 48.202Z" fill="#FFD79F"/>
<path d="M11.7897 37.6551C11.1031 36.9685 9.99063 36.9684 9.30403 37.6551L0.514952 46.4442C-0.171651 47.1308 -0.171651 48.2433 0.514952 48.9299C1.20167 49.6166 2.3139 49.6166 3.00062 48.9299L11.7897 40.1408C12.4763 39.4542 12.4763 38.3417 11.7897 37.6551Z" fill="#FFD79F"/>
</g>
<defs>
<clipPath id="clip0_4592_45">
<rect width="60" height="60" fill="white"/>
</clipPath>
</defs>
</svg>
