<svg width="60" height="60" viewBox="0 0 60 60" fill="none" xmlns="http://www.w3.org/2000/svg">
<g clip-path="url(#clip0_4592_23)">
<path d="M25.9097 59.9847C12.355 58.2902 1.70693 47.6421 0.0141386 34.0908C-0.118538 33.0438 0.699437 32.1147 1.7585 32.1147H8.86465C9.72306 32.1147 10.4544 32.7345 10.5987 33.5792C11.9653 41.6726 18.3229 48.0319 26.4214 49.4002C27.2661 49.5443 27.8859 50.2758 27.8859 51.1342V58.2404C27.8858 59.2859 26.9793 60.112 25.9097 59.9847Z" fill="#FFD79F"/>
<path d="M8.86512 28.1297H1.75898C0.699326 28.1297 -0.117945 27.2 0.0146136 26.1536C1.87571 11.2442 14.615 0.000488281 29.6444 0.000488281C36.3214 0.000488281 42.6515 2.17746 47.9514 6.29628C48.7943 6.95392 48.8575 8.18703 48.1162 8.92824L43.0927 13.9535C42.4848 14.563 41.5303 14.6386 40.8298 14.1423C37.5316 11.7919 33.6635 10.549 29.6443 10.549C20.1861 10.549 12.1751 17.3272 10.5991 26.6652C10.4549 27.5098 9.72353 28.1297 8.86512 28.1297Z" fill="#FFD79F"/>
<path d="M31.8706 58.2418V51.1357C31.8706 50.2773 32.4904 49.5459 33.3351 49.4016C42.6732 47.8256 49.4514 39.8146 49.4514 30.3564C49.4514 26.3372 48.2084 22.4691 45.858 19.1709C45.3601 18.4721 45.4391 17.5141 46.0468 16.908L51.0721 11.8845C51.8038 11.1528 53.0408 11.1992 53.704 12.0493C57.8229 17.3493 59.9998 23.6795 59.9998 30.3563C59.9998 45.3857 48.756 58.125 33.8467 59.9861C32.7655 60.115 31.8706 59.2752 31.8706 58.2418Z" fill="#FFD79F"/>
<path d="M22.963 22.9724C22.963 22.0015 22.1758 21.2144 21.2049 21.2144H17.6887C16.7178 21.2144 15.9307 22.0015 15.9307 22.9724V37.037C15.9307 38.008 16.7178 38.7951 17.6887 38.7951H21.2049C22.1758 38.7951 22.963 38.008 22.963 37.037V22.9724Z" fill="#FFD79F"/>
<path d="M33.5118 37.0371V19.4563C33.5118 18.4854 32.7247 17.6982 31.7537 17.6982H28.2376C27.2666 17.6982 26.4795 18.4854 26.4795 19.4563V37.0371C26.4795 38.008 27.2666 38.7952 28.2376 38.7952H31.7537C32.7248 38.7952 33.5118 38.008 33.5118 37.0371Z" fill="#FFD79F"/>
<path d="M44.0601 37.0375V30.0051C44.0601 29.0342 43.273 28.2471 42.3021 28.2471H38.7859C37.815 28.2471 37.0278 29.0342 37.0278 30.0051V37.0375C37.0278 38.0084 37.815 38.7955 38.7859 38.7955H42.3021C43.2731 38.7955 44.0601 38.0084 44.0601 37.0375Z" fill="#FFD79F"/>
</g>
<defs>
<clipPath id="clip0_4592_23">
<rect width="60" height="60" fill="white"/>
</clipPath>
</defs>
</svg>
