<svg width="66" height="66" viewBox="0 0 66 66" fill="none" xmlns="http://www.w3.org/2000/svg">
<path d="M63.8748 55.3875L55.4748 46.9875C53.1998 50.3125 50.3123 53.1782 46.9873 55.4751L55.3873 63.8751C56.5467 65.0344 58.0998 65.625 59.6311 65.625C61.1623 65.625 62.6936 65.0344 63.8748 63.8751C65.0123 62.7376 65.6248 61.2282 65.6248 59.6313C65.6248 58.0344 64.9904 56.525 63.8748 55.3875Z" fill="#FFD79F"/>
<path d="M28.4375 10.9375C18.7906 10.9375 10.9375 18.7906 10.9375 28.4375C10.9375 38.0844 18.7906 45.9375 28.4375 45.9375C38.0844 45.9375 45.9375 38.0844 45.9375 28.4375C45.9375 18.7906 38.0844 10.9375 28.4375 10.9375ZM36.5313 25.9L28.1969 34.1031C27.7813 34.5188 27.2125 34.7375 26.6656 34.7375C26.1187 34.7375 25.55 34.5188 25.1344 34.1031L20.3438 29.4C19.4906 28.5469 19.4687 27.1687 20.3219 26.3156C21.175 25.4625 22.5531 25.4406 23.4062 26.2938L26.6656 29.4875L33.4687 22.7938C34.3219 21.9406 35.7219 21.9625 36.5531 22.8156C37.4062 23.6688 37.3844 25.0688 36.5313 25.9Z" fill="#FFD79F"/>
<path d="M56.875 28.4375C56.875 12.7531 44.1219 0 28.4375 0C12.7531 0 0 12.7531 0 28.4375C0 44.1219 12.7531 56.875 28.4375 56.875C44.1219 56.875 56.875 44.1219 56.875 28.4375ZM28.4375 50.3125C16.3844 50.3125 6.5625 40.4906 6.5625 28.4375C6.5625 16.3844 16.3844 6.5625 28.4375 6.5625C40.4906 6.5625 50.3125 16.3844 50.3125 28.4375C50.3125 40.4906 40.4906 50.3125 28.4375 50.3125Z" fill="#FFD79F"/>
</svg>
