<svg width="60" height="60" viewBox="0 0 60 60" fill="none" xmlns="http://www.w3.org/2000/svg">
<path d="M42.0262 24.2381C42.9056 22.44 44.43 21.0881 46.3256 20.4356C47.1188 20.1619 47.9362 20.0569 48.75 20.0531V9.375C48.75 6.27375 46.2262 3.75 43.125 3.75H13.125C10.0237 3.75 7.5 6.27375 7.5 9.375V46.875C7.5 49.9762 10.0237 52.5 13.125 52.5H31.7794L31.5769 51.9113C30.7612 49.5319 30.9206 46.9894 32.0212 44.7412L42.0262 24.2381ZM15 15H37.5C38.5369 15 39.375 15.84 39.375 16.875C39.375 17.91 38.5369 18.75 37.5 18.75H15C13.9631 18.75 13.125 17.91 13.125 16.875C13.125 15.84 13.9631 15 15 15ZM15 22.5H35.625C36.6619 22.5 37.5 23.34 37.5 24.375C37.5 25.41 36.6619 26.25 35.625 26.25H15C13.9631 26.25 13.125 25.41 13.125 24.375C13.125 23.34 13.9631 22.5 15 22.5ZM28.125 41.25H15C13.9631 41.25 13.125 40.41 13.125 39.375C13.125 38.34 13.9631 37.5 15 37.5H28.125C29.1619 37.5 30 38.34 30 39.375C30 40.41 29.1619 41.25 28.125 41.25ZM15 33.75C13.9631 33.75 13.125 32.91 13.125 31.875C13.125 30.84 13.9631 30 15 30H31.875C32.9119 30 33.75 30.84 33.75 31.875C33.75 32.91 32.9119 33.75 31.875 33.75H15ZM55.5075 30.8156L45.4988 51.3263C44.8369 52.6781 43.6912 53.6906 42.2719 54.1781L38.7262 55.3969C38.5256 55.4663 38.3175 55.5 38.1169 55.5C37.3388 55.5 36.6113 55.0125 36.345 54.2344L35.1244 50.6888C34.635 49.2638 34.7306 47.7375 35.3906 46.3894L45.3994 25.8825C45.8363 24.9825 46.6012 24.3075 47.5481 23.9813C48.4931 23.655 49.5112 23.715 50.4113 24.1575L53.7825 25.8019C54.6825 26.2406 55.3575 27.0056 55.6838 27.9525C56.01 28.8994 55.9481 29.9156 55.5075 30.8156Z" fill="#FFD79F"/>
</svg>
