<svg width="50" height="50" viewBox="0 0 50 50" fill="none" xmlns="http://www.w3.org/2000/svg">
<path d="M12.0684 27.5582L12.0685 27.5586C12.0994 27.5273 12.0974 27.5292 12.0684 27.5582Z" fill="black"/>
<path d="M48.8912 20.6472L46.4048 20.0494C45.8642 17.6893 44.9331 15.4466 43.6315 13.3612L44.8916 11.2458C45.2349 10.6694 45.1418 9.93417 44.6684 9.46073L40.539 5.33134C40.0656 4.85937 39.3319 4.76494 38.754 5.1082L36.6385 6.36826C34.5532 5.06669 32.3104 4.13554 29.9504 3.59492L29.3525 1.10859C29.1894 0.457812 28.6045 0 27.9322 0H22.0736C21.4013 0 20.8164 0.457714 20.6533 1.10859L20.0554 3.59492C17.6954 4.13554 15.4526 5.06669 13.3673 6.36826L11.2518 5.1082C10.6755 4.76484 9.94022 4.85791 9.46679 5.33134L5.3372 9.46064C4.86376 9.93407 4.7708 10.6692 5.11406 11.2457L6.37411 13.3611C5.07255 15.4465 4.1414 17.6892 3.60078 20.0493L1.11445 20.6471C0.463671 20.8102 0.00585938 21.3952 0.00585938 22.0675V27.926C0.00585938 28.5983 0.463574 29.1847 1.11582 29.3464L3.60214 29.9442C3.96259 31.5081 4.50507 33.0105 5.20175 34.4515C6.27744 33.3715 11.68 27.9458 12.0682 27.558C12.0491 27.4593 11.8398 25.5833 11.8343 25.2178C11.7097 17.7543 17.7213 11.8162 25.0085 11.8162C32.3456 11.8162 38.1963 17.7324 38.1686 25.0425C38.1372 31.8029 33.0914 37.5582 26.0441 38.0845C25.7392 38.108 24.3609 38.3113 22.4397 37.9326L15.5656 44.8067C17.0012 45.4992 18.4979 46.0381 20.0554 46.3972L20.6532 48.885C20.8163 49.5358 21.4012 49.9936 22.0735 49.9936H27.9321C28.6044 49.9936 29.1893 49.5359 29.3524 48.885L29.9503 46.3987C32.3103 45.8581 34.5531 44.9269 36.6384 43.6253L38.7539 44.8854C39.3274 45.2288 40.064 45.1343 40.5389 44.6623L44.6683 40.5329C45.1418 40.0594 45.2347 39.3243 44.8915 38.7478L43.6314 36.6324C44.9344 34.547 45.8641 32.3043 46.4047 29.9427L48.8896 29.3464C49.5418 29.1847 49.9996 28.5983 49.9996 27.926V22.0675C49.9996 21.3953 49.5419 20.8102 48.8912 20.6472Z" fill="black"/>
<path d="M34.9139 22.3192C34.7853 21.8149 34.3959 21.4183 33.8939 21.2808C33.392 21.1431 32.8558 21.2865 32.4877 21.6545L29.1455 24.997C28.003 26.1394 26.1457 26.1394 25.0032 24.997C23.8618 23.8556 23.8618 21.9962 25.0032 20.8547L28.3469 17.5109C28.7149 17.143 28.857 16.6059 28.7194 16.1042C28.5817 15.6025 28.1855 15.2126 27.6813 15.0845C21.501 13.5139 15.9393 17.5396 14.9193 23.0988C14.5918 24.9297 14.7377 26.7533 15.3369 28.4325C14.5035 29.266 1.63102 42.1383 1.28503 42.4844C-0.432841 44.2023 -0.432841 46.9971 1.31218 48.7422C3.04089 50.3808 5.68844 50.4498 7.51549 48.715L21.5674 34.6631C23.8177 35.4662 26.3274 35.4499 28.7833 34.5833C33.2086 33.0218 36.3058 27.7812 34.9139 22.3192Z" fill="black"/>
</svg>
