<svg width="50" height="51" viewBox="0 0 50 51" fill="none" xmlns="http://www.w3.org/2000/svg">
<path d="M49.2479 25.0434C48.8627 24.6304 48.3663 24.3375 47.8184 24.2C47.2705 24.0625 46.6946 24.0864 46.16 24.2687C45.6254 24.451 45.1549 24.784 44.8051 25.2275C44.4554 25.6711 44.2413 26.2063 44.1887 26.7686C41.4356 50.3039 7.92485 49.7587 5.79745 26.2144C5.45614 21.2089 7.08991 16.269 10.3484 12.4542C13.6068 8.63926 18.2305 6.25316 23.2277 5.80759C23.9903 5.73857 24.695 5.37171 25.1889 4.78657C25.6829 4.20142 25.9262 3.44515 25.8662 2.68176C25.8062 1.91837 25.4477 1.20941 24.8685 0.708594C24.2892 0.207781 23.5359 -0.0445006 22.7718 0.00645461C-0.888606 1.66007 -8.85296 35.0369 12.1439 46.8179C20.1886 50.9385 29.2881 51.2514 37.1183 46.943C40.7158 44.9632 43.7713 42.1292 46.0159 38.6907C48.2604 35.2521 49.6251 31.3145 49.9899 27.2244C50.0231 26.8294 49.9744 26.4318 49.8467 26.0564C49.719 25.6811 49.5152 25.3363 49.2479 25.0434Z" fill="black"/>
<path d="M9.32812 25.0256C9.33268 29.1729 10.9822 33.149 13.9147 36.0815C16.8473 39.0141 20.8234 40.6636 24.9707 40.6681C45.7261 39.81 45.7172 10.2411 24.9707 9.38306C20.8234 9.3876 16.8473 11.0371 13.9147 13.9697C10.9822 16.9022 9.33267 20.8783 9.32812 25.0256ZM25.8645 14.2993V22.5049C26.2383 22.6403 26.5778 22.8562 26.859 23.1373C27.1401 23.4184 27.356 23.7579 27.4914 24.1317H33.1316C33.3687 24.1317 33.596 24.2259 33.7637 24.3935C33.9313 24.5612 34.0255 24.7885 34.0255 25.0256C34.0255 25.2627 33.9313 25.49 33.7637 25.6576C33.596 25.8253 33.3687 25.9195 33.1316 25.9195H27.4914C27.341 26.3463 27.085 26.728 26.7471 27.029C26.4092 27.33 26.0005 27.5405 25.5593 27.6407C25.118 27.7409 24.6585 27.7277 24.2238 27.6022C23.789 27.4767 23.3932 27.243 23.0732 26.9231C22.7532 26.6031 22.5196 26.2072 22.3941 25.7725C22.2686 25.3377 22.2553 24.8783 22.3556 24.437C22.4558 23.9957 22.6663 23.5871 22.9673 23.2492C23.2683 22.9113 23.65 22.6552 24.0768 22.5049V14.2993C24.0819 14.0656 24.1783 13.8432 24.3454 13.6797C24.5124 13.5162 24.7369 13.4246 24.9707 13.4246C25.2044 13.4246 25.4289 13.5162 25.596 13.6796C25.7631 13.8431 25.8595 14.0656 25.8645 14.2993Z" fill="black"/>
</svg>
