<svg width="55" height="50" viewBox="0 0 55 50" fill="none" xmlns="http://www.w3.org/2000/svg">
<path fill-rule="evenodd" clip-rule="evenodd" d="M27.5797 0.189891L28.9688 3.93423C29.0105 4.04681 29.1078 4.11905 29.2253 4.12492L33.1339 4.31994C33.3998 4.33319 33.5086 4.67597 33.3011 4.8466L30.2509 7.35573C30.1592 7.43113 30.1221 7.54817 30.1529 7.66427L31.1796 11.529C31.2494 11.7919 30.9646 12.0038 30.7419 11.8545L27.4677 9.66092C27.3692 9.59502 27.2492 9.59502 27.1507 9.66092L23.8765 11.8546C23.6539 12.0038 23.369 11.792 23.4388 11.5292L24.4655 7.66427C24.4963 7.54805 24.4593 7.43113 24.3675 7.35573L21.3173 4.8466C21.1098 4.67597 21.2186 4.33319 21.4845 4.31994L25.3931 4.12492C25.5107 4.11905 25.6079 4.04681 25.6496 3.93423L27.0386 0.189891C27.1326 -0.063297 27.4859 -0.063297 27.5797 0.189891ZM45.7177 31C50.8442 31 55 35.2533 55 40.5C55 45.7467 50.8442 50 45.7177 50C40.5912 50 36.4355 45.7467 36.4355 40.5C36.4355 35.2532 40.5912 31 45.7177 31ZM44.4985 41.3379L42.4245 39.2152C41.887 38.6651 41.015 38.6651 40.4774 39.2152C39.9398 39.7653 39.9398 40.6577 40.4774 41.2079L43.5279 44.33C44.0654 44.8801 44.9374 44.8801 45.4749 44.33C47.3136 42.4481 49.1315 40.545 50.9617 38.6545C51.4955 38.1033 51.4937 37.2137 50.9558 36.6662C50.4177 36.1185 49.5462 36.1202 49.0119 36.6724L44.4985 41.3379ZM27.3093 15.2734C31.1165 15.2734 34.2028 18.4321 34.2028 22.3285C34.2028 26.225 31.1165 29.3837 27.3093 29.3837C23.5022 29.3837 20.4159 26.225 20.4159 22.3285C20.4159 18.4321 23.5022 15.2734 27.3093 15.2734ZM15.0953 43.0089L34.874 43.0088C34.6965 42.2015 34.6022 41.3621 34.6022 40.4999C34.6022 38.1615 35.292 35.9881 36.474 34.1805C34.0531 31.929 30.8381 30.5564 27.3093 30.5564C20.7574 30.5564 15.2854 35.2865 13.9744 41.592C13.8218 42.3257 14.3624 43.0089 15.0953 43.0089ZM54.553 16.448L52.0792 19.5513C52.0048 19.6445 51.9922 19.7669 52.046 19.8739L53.8354 23.4359C53.9571 23.6782 53.7215 23.9459 53.4734 23.8474L49.8251 22.3984C49.7154 22.3549 49.5979 22.3804 49.515 22.4658L46.758 25.3083C46.5706 25.5015 46.2489 25.3551 46.2638 25.083L46.4829 21.0842C46.4895 20.964 46.4294 20.8575 46.3244 20.8032L42.8311 18.998C42.5936 18.8752 42.6304 18.5169 42.8876 18.4473L46.6713 17.4248C46.7849 17.3941 46.8654 17.3028 46.8834 17.1837L47.4814 13.2257C47.5221 12.9565 47.8665 12.8815 48.0106 13.1106L50.13 16.4775C50.1937 16.5787 50.3035 16.6288 50.4195 16.6095L54.2824 15.9685C54.5437 15.9251 54.7203 16.2382 54.553 16.448ZM43.1947 4.62039C43.2371 4.35313 42.9312 4.17229 42.7261 4.34351L39.6938 6.87539C39.6027 6.9515 39.4832 6.9644 39.3786 6.90928L35.8983 5.07798C35.6616 4.95343 35.3999 5.19454 35.4962 5.44855L36.912 9.18234C36.9545 9.29457 36.9295 9.41477 36.8461 9.49967L34.0688 12.3214C33.8799 12.5133 34.0231 12.8425 34.2888 12.8272L38.196 12.603C38.3134 12.5962 38.4175 12.6578 38.4705 12.7652L40.2344 16.3404C40.3544 16.5837 40.7046 16.5459 40.7725 16.2826L41.7716 12.4102C41.8016 12.2939 41.8909 12.2116 42.0072 12.1932L45.8745 11.5811C46.1375 11.5395 46.2108 11.187 45.987 11.0394L42.6973 8.8704C42.5984 8.8052 42.5496 8.69285 42.5684 8.57406L43.1947 4.62039ZM0.335918 15.9683L4.19887 16.6093C4.31494 16.6286 4.42471 16.5786 4.48842 16.4774L6.60776 13.1106C6.7519 12.8815 7.09634 12.9565 7.13702 13.2257L7.73503 17.1839C7.75302 17.3028 7.83334 17.3942 7.94712 17.425L11.7308 18.4474C11.9881 18.517 12.0249 18.8754 11.7874 18.9981L8.29408 20.8034C8.18912 20.8577 8.12908 20.9642 8.13561 21.0844L8.35469 25.0832C8.36959 25.3552 8.04795 25.5018 7.8605 25.3085L5.10328 22.4657C5.02043 22.3804 4.90287 22.3548 4.79321 22.3983L1.14499 23.8473C0.896919 23.9458 0.661221 23.6781 0.783023 23.4358L2.57236 19.8738C2.62621 19.7667 2.61361 19.6444 2.53924 19.5512L0.065387 16.4479C-0.101905 16.2381 0.0747828 15.9249 0.335918 15.9683ZM11.8923 4.34351C11.6874 4.17229 11.3814 4.35313 11.4238 4.62039L12.0501 8.57382C12.0689 8.69262 12.0201 8.80496 11.9212 8.87017L8.63141 11.0392C8.40763 11.1867 8.48085 11.5393 8.74393 11.5809L12.6114 12.1929C12.7275 12.2113 12.8168 12.2935 12.8469 12.41L13.846 16.2824C13.9139 16.5458 14.2641 16.5834 14.3841 16.3402L16.1479 12.765C16.2009 12.6575 16.3049 12.5961 16.4224 12.6028L20.3296 12.827C20.5953 12.8422 20.7385 12.5131 20.5496 12.3211L17.7723 9.49944C17.6888 9.41465 17.6639 9.29433 17.7064 9.18211L19.1222 5.4482C19.2185 5.19431 18.9569 4.95308 18.7201 5.07774L15.2399 6.90904C15.1353 6.96404 15.0158 6.95126 14.9247 6.87515L11.8923 4.34351Z" fill="black"/>
</svg>
