<svg width="49" height="49" viewBox="0 0 49 49" fill="none" xmlns="http://www.w3.org/2000/svg">
<path d="M37.0049 32.5251C35.4147 30.9552 33.4295 30.9552 31.8494 32.5251C30.6441 33.7203 29.4388 34.9154 28.2537 36.1308C27.9296 36.4651 27.6561 36.536 27.2611 36.3132C26.4812 35.8878 25.6506 35.5434 24.9011 35.0775C21.4067 32.8796 18.4796 30.0538 15.8866 26.8735C14.6003 25.2935 13.4557 23.602 12.6556 21.6979C12.4935 21.313 12.5239 21.0598 12.8379 20.7458C14.0432 19.5811 15.2181 18.3859 16.4032 17.1908C18.0542 15.5297 18.0542 13.5851 16.3931 11.9139C15.4511 10.9618 14.5091 10.03 13.5672 9.07794C12.5948 8.10562 11.6326 7.12316 10.6501 6.16097C9.05991 4.61133 7.07469 4.61133 5.49462 6.1711C4.27918 7.36625 3.11439 8.59178 1.87869 9.76667C0.734152 10.8504 0.156818 12.1772 0.0352743 13.7269C-0.15717 16.2488 0.460678 18.629 1.33174 20.9484C3.11439 25.7493 5.82887 30.0133 9.12068 33.9229C13.5672 39.2099 18.8746 43.3929 25.0834 46.4112C27.879 47.7684 30.7757 48.8116 33.9258 48.9838C36.0933 49.1053 37.9772 48.5584 39.4864 46.8669C40.5195 45.7123 41.6843 44.6589 42.7782 43.555C44.3988 41.9142 44.4089 39.929 42.7985 38.3085C40.874 36.3739 38.9394 34.4495 37.0049 32.5251Z" fill="black"/>
<path d="M35.1906 24L39 23.3797C38.4012 20.0422 36.7495 17.0197 34.2409 14.6174C31.5877 12.0872 28.2326 10.4923 24.5368 10L24 13.6526C26.8596 14.0366 29.4611 15.2672 31.5155 17.2264C33.4563 19.0774 34.7261 21.4205 35.1906 24Z" fill="black"/>
<path d="M41.2691 8.05522C36.9697 3.64452 31.5299 0.859362 25.5248 0L25 3.84124C30.1876 4.58671 34.8907 6.99914 38.6047 10.799C42.127 14.4124 44.4382 18.9784 45.2759 24L49 23.3477C48.021 17.5289 45.3465 12.2485 41.2691 8.05522Z" fill="black"/>
</svg>
