<svg width="210" height="45" viewBox="0 0 210 45" fill="none" xmlns="http://www.w3.org/2000/svg">
<g clip-path="url(#clip0_2363_99)">
<path d="M8.82204 29.9251L17.6714 24.9598L17.8202 24.5286L17.6714 24.2887H17.2402L15.7612 24.1976L10.7049 24.0609L6.31968 23.8787L2.07113 23.651L1.00216 23.4232L0 22.1022L0.103254 21.4432L1.00216 20.8388L2.28978 20.9512L5.13531 21.1456L9.40512 21.4401L12.5027 21.6224L17.0914 22.0991H17.8202L17.9235 21.8046L17.6745 21.6224L17.4801 21.4401L13.0615 18.4458L8.27845 15.2814L5.77305 13.4593L4.41861 12.5361L3.73532 11.6706L3.44075 9.78169L4.67067 8.42725L6.32272 8.53961L6.74484 8.65198L8.41814 9.9396L11.9925 12.7062L16.6601 16.1439L17.3434 16.7118L17.6168 16.5174L17.6502 16.3808L17.3434 15.8675L14.8046 11.2789L12.0958 6.61122L10.8901 4.67674L10.5713 3.51667C10.4589 3.03988 10.3769 2.63902 10.3769 2.15009L11.7769 0.249024L12.5513 0L14.419 0.249024L15.2055 0.932314L16.3656 3.58652L18.2454 7.76522L21.1608 13.4472L22.0141 15.1326L22.4696 16.6935L22.6397 17.1703H22.9343V16.897L23.1742 13.6962L23.6176 9.7665L24.0488 4.71015L24.1976 3.28587L24.9021 1.57916L26.3021 0.65596L27.3954 1.1783L28.2943 2.46592L28.1698 3.29802L27.6353 6.77217L26.5876 12.2142L25.9043 15.8584H26.3021L26.7577 15.4029L28.601 12.9552L31.6986 9.08321L33.0652 7.54657L34.6595 5.84897L35.683 5.04117H37.6174L39.0417 7.15785L38.404 9.34438L36.4118 11.871L34.7598 14.012L32.391 17.2007L30.9121 19.7517L31.0487 19.9551L31.401 19.9217L36.7519 18.7829L39.643 18.2606L43.0929 17.6684L44.6538 18.3972L44.8239 19.1382L44.2104 20.6536L40.5206 21.5647L36.1931 22.4302L29.749 23.9547L29.67 24.0124L29.7611 24.1247L32.6643 24.398L33.9064 24.4648H36.9463L42.607 24.887L44.0859 25.8648L44.9727 27.0613L44.8239 27.9724L42.5462 29.1325L39.4729 28.4036L32.2999 26.6969L29.8401 26.0835H29.4999V26.2869L31.5498 28.2913L35.3064 31.6834L40.0105 36.0565L40.2504 37.1376L39.646 37.991L39.0083 37.8998L34.8752 34.7901L33.2808 33.3901L29.67 30.3503H29.4301V30.6691L30.2622 31.8869L34.6565 38.492L34.8843 40.5176L34.5654 41.1766L33.4266 41.5744L32.1754 41.3467L29.6032 37.7359L26.949 33.6695L24.808 30.0253L24.5468 30.1741L23.2835 43.7822L22.6913 44.4777L21.3247 45L20.1859 44.1345L19.5816 42.7345L20.1859 39.9679L20.9148 36.3571L21.507 33.4873L22.0414 29.9221L22.3603 28.7377L22.339 28.6587L22.0779 28.6921L19.3903 32.3819L15.3027 37.9059L12.0684 41.3679L11.294 41.6747L9.95175 40.9792L10.0763 39.7371L10.8264 38.6317L15.3027 32.9376L18.0024 29.4088L19.7456 27.3711L19.7334 27.0765H19.6302L7.74092 34.7962L5.62424 35.0695L4.71319 34.2162L4.82555 32.8162L5.25678 32.3606L8.83115 29.9008L8.819 29.9129L8.82204 29.9251Z" fill="#D97757"/>
<path d="M73.4215 38.2035C67.7062 38.2035 63.7977 35.0149 61.9544 30.1073C60.9917 27.5503 60.5149 24.8354 60.5544 22.1022C60.5544 13.8693 64.2442 8.15091 72.3981 8.15091C77.8766 8.15091 81.2566 10.5409 83.1819 16.2471H85.5264L85.2075 8.37867C81.9277 6.26199 77.828 5.18998 72.8415 5.18998C65.8142 5.18998 59.8377 8.33313 56.5123 14.0029C54.7935 16.9973 53.9219 20.4016 53.9857 23.8544C53.9857 30.1529 56.9588 35.7316 62.5375 38.8291C65.5925 40.4599 69.0181 41.2708 72.4801 41.1736C77.9221 41.1736 82.2405 40.138 86.0669 38.3281L87.057 29.6518H84.667C83.2336 33.6149 81.5238 35.9958 78.6874 37.2591C77.2996 37.8847 75.5443 38.2035 73.4276 38.2035H73.4215ZM98.0746 8.15091L98.3024 4.27893H96.6868L89.4895 6.44117V7.61339L92.6782 9.09234V36.1719C92.6782 38.0153 91.7337 38.4252 89.2617 38.735V40.715H101.503V38.735C99.0221 38.4283 98.0868 38.0183 98.0868 36.1719V8.16002L98.0746 8.14788V8.15091ZM146.758 41.1766H147.703L155.981 39.6066V37.581L154.821 37.4899C152.887 37.3077 152.386 36.9099 152.386 35.3277V20.8874L152.613 16.2532H151.304L143.482 17.3799V19.3599L144.244 19.4966C146.361 19.8033 146.989 20.3955 146.989 21.8775V34.7446C144.964 36.3146 143.026 37.3077 140.727 37.3077C138.176 37.3077 136.594 36.0109 136.594 32.9802V20.8966L136.822 16.2623H135.479L127.644 17.389V19.369L128.452 19.5057C130.569 19.8124 131.198 20.4046 131.198 21.8866V33.7637C131.198 38.7957 134.043 41.1888 138.577 41.1888C142.039 41.1888 144.875 39.3454 147.004 36.7823L146.777 41.1888L146.764 41.1766H146.758ZM124.006 25.1542C124.006 18.7191 120.59 16.2502 114.419 16.2502C108.977 16.2502 105.023 18.5035 105.023 22.2388C105.023 23.3534 105.421 24.2098 106.229 24.8019L110.374 24.2553C110.192 23.0041 110.101 22.2388 110.101 21.92C110.101 19.8033 111.227 18.7313 113.517 18.7313C116.9 18.7313 118.607 21.1122 118.607 24.9386V26.1898L110.067 28.7529C107.222 29.5273 105.603 30.1984 104.522 31.7715C103.948 32.7342 103.672 33.8426 103.726 34.9602C103.726 38.6044 106.232 41.1766 110.514 41.1766C113.611 41.1766 116.356 39.7766 118.746 37.1224C119.6 39.7766 120.909 41.1766 123.244 41.1766C125.133 41.1766 126.843 40.4144 128.367 38.9233L127.912 37.3532C127.253 37.5354 126.615 37.6265 125.941 37.6265C124.632 37.6265 124.006 36.591 124.006 34.5624V25.1573V25.1542ZM113.074 37.5324C110.738 37.5324 109.293 36.178 109.293 33.7971C109.293 32.1815 110.055 31.234 111.683 30.6874L118.607 28.4887V35.1394C116.399 36.8127 115.099 37.5294 113.074 37.5294V37.5324ZM185.156 39.6035V37.578L183.984 37.4869C182.05 37.3046 181.558 36.9068 181.558 35.3246V8.15395L181.785 4.28197H180.158L172.96 6.4442V7.61643L176.149 9.09537V17.9994C174.354 16.7695 172.207 16.153 170.033 16.2471C162.881 16.2471 157.302 21.6892 157.302 29.834C157.302 36.5424 161.311 41.1766 167.916 41.1766C171.333 41.1766 174.306 39.5155 176.149 36.9402L175.921 41.1766H176.878L185.156 39.6066V39.6035ZM170.169 18.9469C173.586 18.9469 176.149 20.9269 176.149 24.5711V34.8205C174.576 36.3875 172.435 37.25 170.215 37.2105C165.32 37.2105 162.835 33.3385 162.835 28.1698C162.835 22.3634 165.672 18.9469 170.169 18.9469ZM202.661 24.0731C202.023 21.0666 200.18 19.3599 197.616 19.3599C193.79 19.3599 191.136 22.2419 191.136 26.375C191.136 32.4912 194.37 36.4543 199.596 36.4543C203.083 36.4179 206.29 34.532 208.012 31.5012L209.536 31.9112C208.853 37.2166 204.048 41.1797 198.148 41.1797C191.224 41.1797 186.453 36.0565 186.453 28.7681C186.453 21.4796 191.634 16.2532 198.558 16.2532C203.727 16.2532 207.371 19.363 208.546 24.7594L190.507 30.2926V27.857L202.658 24.0883V24.0761L202.661 24.0731Z" fill="#0F0F0D"/>
</g>
<defs>
<clipPath id="clip0_2363_99">
<rect width="209.536" height="45" fill="white"/>
</clipPath>
</defs>
</svg>
