<svg width="122" height="45" viewBox="0 0 122 45" fill="none" xmlns="http://www.w3.org/2000/svg">
<g clip-path="url(#clip0_2363_97)">
<mask id="mask0_2363_97" style="mask-type:alpha" maskUnits="userSpaceOnUse" x="0" y="0" width="122" height="45">
<path fill-rule="evenodd" clip-rule="evenodd" d="M82.957 14.6057C83.441 15.7094 83.683 16.8887 83.683 18.1437C83.683 16.8887 83.9172 15.7094 84.386 14.6057C84.8697 13.5019 85.5198 12.5418 86.3362 11.7254C87.153 10.9089 88.1128 10.2663 89.2166 9.7976C90.3203 9.31376 91.4999 9.07186 92.7546 9.07186C91.4999 9.07186 90.3203 8.8375 89.2166 8.36876C88.1128 7.88496 87.153 7.2348 86.3362 6.41835C85.5198 5.60186 84.8697 4.64177 84.386 3.53802C83.9172 2.43428 83.683 1.25494 83.683 0C83.683 1.25494 83.441 2.43428 82.957 3.53802C82.4885 4.64177 81.8458 5.60186 81.0294 6.41835C80.213 7.2348 79.2528 7.88496 78.1491 8.36876C77.0453 8.8375 75.8661 9.07186 74.6111 9.07186C75.8661 9.07186 77.0453 9.31376 78.1491 9.7976C79.2528 10.2663 80.213 10.9089 81.0294 11.7254C81.8458 12.5418 82.4885 13.5019 82.957 14.6057ZM9.26688 43.6323C11.1176 44.3944 13.0907 44.7754 15.1863 44.7754C17.3091 44.7754 19.2414 44.4352 20.9832 43.7549C22.725 43.0746 24.2354 42.1083 25.5146 40.8565C26.7937 39.6046 27.7871 38.1214 28.4947 36.4068C29.2023 34.6649 29.5561 32.7598 29.5561 30.6915V30.6506C29.5561 30.2696 29.5289 29.9158 29.4744 29.5892C29.4472 29.2626 29.4064 28.9224 29.3519 28.5686H15.2679V31.957H25.882C25.7731 33.5899 25.3921 35.0051 24.7389 36.2027C24.113 37.373 23.3101 38.3389 22.3303 39.1011C21.3778 39.8629 20.2756 40.4344 19.0237 40.8157C17.799 41.1693 16.5198 41.3465 15.1863 41.3465C13.7166 41.3465 12.2878 41.074 10.8998 40.5298C9.51183 39.9855 8.27352 39.1964 7.18491 38.1621C6.12351 37.1278 5.27981 35.8894 4.65385 34.4472C4.02789 32.9776 3.71491 31.331 3.71491 29.5076C3.71491 27.6841 4.01428 26.0512 4.61303 24.6088C5.23899 23.1391 6.08269 21.9008 7.14409 20.8939C8.20548 19.8597 9.43019 19.0704 10.8182 18.5261C12.2334 17.9818 13.6894 17.7096 15.1863 17.7096C16.3021 17.7096 17.3635 17.8593 18.3705 18.1587C19.3775 18.4308 20.3028 18.8255 21.1465 19.3426C22.0174 19.8597 22.7658 20.4856 23.3917 21.2204L25.9228 18.6077C24.6981 17.2198 23.1332 16.1447 21.2281 15.3827C19.3502 14.6207 17.3363 14.2397 15.1863 14.2397C13.1179 14.2397 11.1584 14.6207 9.3077 15.3827C7.48428 16.1447 5.86495 17.2198 4.44976 18.6077C3.06175 19.9957 1.97313 21.6151 1.18388 23.4657C0.394625 25.3164 0 27.3303 0 29.5076C0 31.6848 0.394625 33.6988 1.18388 35.5493C1.97313 37.4 3.06175 39.0192 4.44976 40.4075C5.83774 41.7954 7.44346 42.8705 9.26688 43.6323ZM36.8709 43.3467C38.4491 44.2991 40.2456 44.7754 42.2596 44.7754C44.5454 44.7754 46.4641 44.2584 48.0157 43.2241C49.567 42.1902 50.7508 40.8837 51.5672 39.3052L48.4646 37.8354C47.8931 38.8697 47.1037 39.7407 46.097 40.4483C45.1169 41.1559 43.8924 41.5095 42.4226 41.5095C41.2795 41.5095 40.1776 41.2239 39.116 40.6524C38.0548 40.0808 37.1838 39.2233 36.5035 38.0806C35.9157 37.0928 35.5815 35.8816 35.5018 34.4472H51.8939C51.9211 34.3111 51.9346 34.1342 51.9346 33.9165C51.9619 33.6988 51.9754 33.4946 51.9754 33.3041C51.9754 31.2357 51.5672 29.3987 50.7508 27.793C49.9613 26.1873 48.8183 24.9353 47.3216 24.0373C45.8245 23.1119 44.0422 22.6492 41.9737 22.6492C39.9324 22.6492 38.1501 23.1664 36.6257 24.2005C35.1018 25.2075 33.9179 26.5547 33.0742 28.242C32.2577 29.9294 31.8495 31.7665 31.8495 33.7532C31.8495 35.876 32.285 37.7674 33.1559 39.4278C34.054 41.0878 35.2923 42.3942 36.8709 43.3467ZM35.7098 31.4671C35.8381 30.8612 36.0213 30.2896 36.2583 29.7525C36.7756 28.5822 37.524 27.6569 38.5037 26.9765C39.5107 26.2689 40.6811 25.9151 42.0144 25.9151C43.1302 25.9151 44.0692 26.1056 44.8313 26.4866C45.5935 26.8404 46.2193 27.3031 46.7093 27.8746C47.199 28.4462 47.553 29.0585 47.7705 29.7117C47.9884 30.3377 48.1107 30.9228 48.138 31.4671H35.7098ZM55.0974 23.3024V44.1223H58.7714V32.5285C58.7714 31.3854 59.0028 30.3104 59.4656 29.3035C59.9283 28.2965 60.5679 27.4936 61.3843 26.8949C62.2006 26.2689 63.1261 25.9559 64.1601 25.9559C65.6026 25.9559 66.7184 26.3778 67.5078 27.2215C68.3242 28.0379 68.7324 29.4395 68.7324 31.4263V44.1223H72.3657V32.4468C72.3657 31.3038 72.597 30.2424 73.0598 29.2626C73.5222 28.2556 74.1618 27.4528 74.9785 26.854C75.7949 26.2553 76.72 25.9559 77.7543 25.9559C79.2241 25.9559 80.3533 26.3642 81.1428 27.1806C81.9592 27.9971 82.3674 29.3987 82.3674 31.3854V44.1223H86.0007V30.7731C86.0007 28.3509 85.4019 26.3914 84.2046 24.8945C83.0342 23.3977 81.197 22.6492 78.6933 22.6492C77.0333 22.6492 75.6043 23.0303 74.407 23.7923C73.2093 24.5543 72.2569 25.5205 71.5493 26.6908C71.0592 25.4933 70.2563 24.5271 69.1406 23.7923C68.052 23.0303 66.7322 22.6492 65.1809 22.6492C64.31 22.6492 63.439 22.8262 62.5681 23.18C61.7244 23.5065 60.9761 23.9556 60.3227 24.5271C59.6696 25.0714 59.1527 25.6838 58.7714 26.3642H58.6081V23.3024H55.0974ZM89.3073 23.3024V44.1223H92.9406V23.3024H89.3073ZM89.2665 18.8935C89.7835 19.3834 90.3961 19.6283 91.1037 19.6283C91.8383 19.6283 92.4509 19.3834 92.9406 18.8935C93.4306 18.3764 93.6755 17.764 93.6755 17.0565C93.6755 16.3216 93.4306 15.7093 92.9406 15.2194C92.4509 14.7023 91.8383 14.4438 91.1037 14.4438C90.3961 14.4438 89.7835 14.7023 89.2665 15.2194C88.7765 15.7093 88.5317 16.3216 88.5317 17.0565C88.5317 17.764 88.7765 18.3764 89.2665 18.8935ZM96.3528 23.3024V44.1223H100.027V32.5285C100.027 31.4127 100.258 30.3649 100.721 29.3851C101.211 28.3781 101.878 27.5616 102.721 26.9357C103.565 26.2825 104.558 25.9559 105.701 25.9559C107.225 25.9559 108.45 26.3778 109.376 27.2215C110.301 28.0379 110.763 29.4395 110.763 31.4263V44.1223H114.437V30.7731C114.437 28.3237 113.784 26.3642 112.478 24.8945C111.172 23.3977 109.253 22.6492 106.722 22.6492C105.225 22.6492 103.864 23.0166 102.64 23.7515C101.415 24.4863 100.53 25.3572 99.9861 26.3642H99.8228V23.3024H96.3528ZM117.522 23.3024V44.1223H121.155V23.3024H117.522ZM117.481 18.8935C117.998 19.3834 118.61 19.6283 119.318 19.6283C120.053 19.6283 120.665 19.3834 121.155 18.8935C121.645 18.3764 121.89 17.764 121.89 17.0565C121.89 16.3216 121.645 15.7093 121.155 15.2194C120.665 14.7023 120.053 14.4438 119.318 14.4438C118.61 14.4438 117.998 14.7023 117.481 15.2194C116.991 15.7093 116.746 16.3216 116.746 17.0565C116.746 17.764 116.991 18.3764 117.481 18.8935Z" fill="white"/>
</mask>
<g mask="url(#mask0_2363_97)">
<path d="M238.763 -161.377H-56.0723V81.4539H238.763V-161.377Z" fill="url(#paint0_linear_2363_97)"/>
</g>
</g>
<defs>
<linearGradient id="paint0_linear_2363_97" x1="-20.3397" y1="46.2192" x2="125.777" y2="10.7606" gradientUnits="userSpaceOnUse">
<stop stop-color="#439DDF"/>
<stop offset="0.524208" stop-color="#4F87ED"/>
<stop offset="0.781452" stop-color="#9476C5"/>
<stop offset="0.888252" stop-color="#BC688E"/>
<stop offset="1" stop-color="#D6645D"/>
</linearGradient>
<clipPath id="clip0_2363_97">
<rect width="121.89" height="45" fill="white"/>
</clipPath>
</defs>
</svg>
