<svg width="120" height="45" viewBox="0 0 120 45" fill="none" xmlns="http://www.w3.org/2000/svg">
<g clip-path="url(#clip0_2363_100)">
<path d="M104.244 33.6923V11.4761H107.756V26.138L115.184 17.6058H119.441L112.76 24.9179L119.504 33.6923H115.308L109.846 26.1529L107.756 26.138V33.6923H104.244Z" fill="black"/>
<path d="M93.5941 34.0657C88.373 34.0657 85.5449 30.363 85.5449 25.6335C85.5449 20.8729 88.373 17.2013 93.5941 17.2013C98.8462 17.2013 101.643 20.8729 101.643 25.6335C101.643 30.363 98.8462 34.0657 93.5941 34.0657ZM89.2121 25.6335C89.2121 29.3051 91.201 31.1408 93.5941 31.1408C96.0182 31.1408 97.9761 29.3051 97.9761 25.6335C97.9761 21.9619 96.0182 20.0949 93.5941 20.0949C91.201 20.0949 89.2121 21.9619 89.2121 25.6335Z" fill="black"/>
<path d="M75.7715 33.6923V20.1573L78.7239 17.6058H85.0017V20.5928H79.2834V33.6923H75.7715Z" fill="black"/>
<path d="M62.3447 34.1032C55.6511 34.1032 51.6602 29.2429 51.6602 22.6154C51.6602 15.9256 55.7936 10.9472 62.4753 10.9472C67.6964 10.9472 71.5191 13.6231 72.4203 18.6015H68.4112C67.8207 15.77 65.4588 14.1832 62.4753 14.1832C57.6582 14.1832 55.5449 18.3526 55.5449 22.6154C55.5449 26.8781 57.6582 31.0165 62.4753 31.0165C67.0748 31.0165 69.0949 27.6871 69.2502 24.9179H62.32V21.6961H72.7932L72.7761 23.3805C72.7761 29.6399 70.2252 34.1032 62.3447 34.1032Z" fill="black"/>
<path d="M18.051 28.6919L33.1621 17.5236C33.903 16.9761 34.9618 17.1896 35.3149 18.0401C37.1727 22.5252 36.3427 27.9153 32.6462 31.6161C28.95 35.3167 23.8069 36.1283 19.106 34.2799L13.9707 36.6604C21.3362 41.7008 30.2803 40.4543 35.8695 34.8547C40.3028 30.4161 41.6758 24.3659 40.392 18.91L40.4036 18.9216C38.5418 10.9065 40.8613 7.70279 45.6127 1.1517C45.725 0.99637 45.8375 0.841038 45.95 0.681824L39.6976 6.94166V6.92225L18.0472 28.6958" fill="black"/>
<path d="M14.9324 31.4063C9.64581 26.3503 10.5573 18.5254 15.0681 14.0132C18.4037 10.6735 23.8688 9.31048 28.6394 11.3143L33.7632 8.94545C32.8401 8.27753 31.657 7.55913 30.2995 7.05429C24.1636 4.52629 16.8174 5.78446 11.8295 10.7745C7.03161 15.5781 5.52281 22.9641 8.11375 29.2667C10.0492 33.9771 6.87645 37.3088 3.68046 40.6718C2.54789 41.8639 1.41145 43.0562 0.496094 44.3182L14.9285 31.4102" fill="black"/>
</g>
<defs>
<clipPath id="clip0_2363_100">
<rect width="120" height="45" fill="white"/>
</clipPath>
</defs>
</svg>
