<svg width="187" height="45" viewBox="0 0 187 45" fill="none" xmlns="http://www.w3.org/2000/svg">
<g clip-path="url(#clip0_2363_101)">
<path d="M29.4152 1.7475L17.5638 13.6275H29.4152V1.7475ZM29.4152 1.7475V5M17.5364 0V45M29.4152 25.505L17.5638 13.625M29.4152 25.505V42.5362L17.5638 30.6562M29.4152 25.505L17.5626 13.625M29.4152 25.505L29.4139 30.5875H34.5002V13.625H17.5626M17.5638 13.625V30.6562M17.5638 13.625L5.71127 25.505M17.5638 30.6562L5.71127 42.5362V25.505M5.71127 25.505L5.71002 30.5875H0.625V13.625H17.5626M5.71127 25.505L17.5626 13.625M17.5626 13.6275L5.71002 1.7475V13.6275H17.5626Z" stroke="#20808D" stroke-miterlimit="10"/>
<path d="M69.2241 16.285C69.9642 14.8987 70.999 13.8312 72.3332 13.08C73.665 12.3312 75.2277 11.9562 77.0201 11.9562C78.8125 11.9562 80.2965 12.325 81.5384 13.0637C82.7816 13.8025 83.7115 14.7812 84.3268 16C84.9422 17.22 85.2505 18.5562 85.2505 20.0087V22.0212H71.3073C71.4196 23.7662 72.0075 25.1537 73.0709 26.1825C74.1343 27.2125 75.5622 27.7262 77.3559 27.7262C78.8112 27.7262 79.9271 27.43 80.6984 26.8375C81.4723 26.245 82.0365 25.4237 82.3959 24.3712H85.5887C85.1631 26.0037 84.2956 27.42 82.9851 28.6162C81.6758 29.8137 79.7985 30.4112 77.3571 30.4112C75.5198 30.4112 73.9009 30.0362 72.5005 29.2875C71.1013 28.5387 70.0191 27.47 69.2578 26.0825C68.4964 24.695 68.1157 23.0625 68.1157 21.1825C68.1157 19.3025 68.4851 17.6712 69.2253 16.2837L69.2241 16.285ZM81.8917 19.505C81.8917 17.9837 81.4998 16.7937 80.7159 15.9312C79.9321 15.07 78.7001 14.64 77.0189 14.64C75.4512 14.64 74.168 15.0587 73.172 15.8975C72.1747 16.7362 71.5644 17.94 71.3409 19.505H81.8917ZM89.4393 12.4587V15.2437C89.4393 15.4012 89.518 15.4787 89.6752 15.4787C89.7651 15.4787 89.8313 15.4562 89.8774 15.4112C89.9236 15.3662 89.9673 15.2775 90.011 15.1437C90.5926 13.31 92.038 12.3925 94.3459 12.3925H95.8237V15.4112H93.9078C92.4062 15.4112 91.2866 15.7687 90.5465 16.485C89.8063 17.2012 89.4368 18.375 89.4368 20.0087V29.9075H86.4125V12.4575H89.4393V12.4587ZM113.581 26.2325C112.786 27.63 111.755 28.6762 110.49 29.3687C109.224 30.0612 107.862 30.4087 106.407 30.4087C103.54 30.4087 101.523 29.2687 100.358 26.9862C100.268 26.8087 100.156 26.7187 100.023 26.7187C99.889 26.7187 99.8203 26.7862 99.8203 26.92V36.2812H96.796V12.46H99.8203V15.4462C99.8203 15.58 99.8877 15.6475 100.023 15.6475C100.157 15.6475 100.268 15.5575 100.358 15.38C101.523 13.0975 103.54 11.9575 106.407 11.9575C107.862 11.9575 109.224 12.305 110.49 12.9975C111.755 13.69 112.785 14.7362 113.581 16.135C114.376 17.5325 114.775 19.2175 114.775 21.1837C114.775 23.15 114.376 24.8337 113.581 26.2325ZM110.086 16.3675C108.977 15.215 107.515 14.6387 105.702 14.6387C103.888 14.6387 102.425 15.215 101.317 16.3675C100.207 17.52 99.8003 19.125 99.8003 21.1825C99.8003 23.24 100.207 24.8462 101.317 25.9975C102.426 27.15 103.888 27.7262 105.702 27.7262C107.515 27.7262 108.978 27.1512 110.086 25.9975C111.196 24.845 111.75 23.24 111.75 21.1825C111.75 19.125 111.196 17.52 110.086 16.3675ZM119.163 5.7475V29.9062H116.139V5.75H119.163V5.7475ZM121.653 16.2837C122.392 14.8975 123.428 13.83 124.762 13.0787C126.094 12.33 127.657 11.955 129.448 11.955C131.239 11.955 132.726 12.3237 133.968 13.0625C135.211 13.8012 136.141 14.78 136.756 15.9987C137.373 17.2187 137.68 18.555 137.68 20.0075V22.02H123.736C123.849 23.765 124.437 25.1525 125.5 26.1812C126.563 27.2112 127.991 27.725 129.785 27.725C131.24 27.725 132.355 27.4287 133.128 26.8362C133.901 26.2437 134.466 25.4225 134.825 24.37H138.018C137.592 26.0025 136.724 27.4187 135.414 28.615C134.105 29.8125 132.228 30.41 129.786 30.41C127.949 30.41 126.33 30.035 124.93 29.2862C123.53 28.5375 122.448 27.4687 121.687 26.0812C120.926 24.6937 120.545 23.0612 120.545 21.1812C120.545 19.3012 120.914 17.67 121.654 16.2825H121.653V16.2837ZM134.321 19.5037C134.321 17.9825 133.929 16.7925 133.145 15.93C132.361 15.0687 131.129 14.6387 129.448 14.6387C127.882 14.6387 126.597 15.0575 125.601 15.8962C124.604 16.735 123.995 17.9387 123.77 19.5037H134.321ZM136.334 29.235L143.255 20.6775L137.577 13.1287V12.4575H140.904L145.643 18.9662L150.75 12.4575H154.143V13.1625L147.625 21.1825L153.64 29.235V29.9062H150.381L145.24 22.8937L139.73 29.9062H136.337V29.235H136.334ZM158.534 6.77875V10.555H155.002V6.77875H158.534ZM158.35 29.9075H155.325V12.4587H158.35V29.9075ZM159.304 12.4587H162.594V7.76125H165.62V12.4587H169.082L169.932 15.0162H165.62V23.3637C165.62 24.5037 165.591 25.3487 165.535 25.8975C165.479 26.4462 165.451 26.7762 165.451 26.8875C165.451 27.045 165.495 27.1675 165.585 27.2562C165.675 27.3462 165.797 27.39 165.956 27.39C166.067 27.39 166.397 27.3625 166.947 27.3062C167.495 27.25 168.341 27.2225 169.484 27.2225H170.66V29.9062H168.308C166.381 29.9062 164.947 29.4375 164.007 28.4963C163.067 27.5562 162.595 26.1262 162.595 24.2012V15.015H159.307V12.4575H159.304V12.4587ZM169.993 12.4587H173.076L178.083 27.0975C178.151 27.2775 178.257 27.5137 178.601 27.5137C178.944 27.5137 179.05 27.2762 179.117 27.0975L184.124 12.4587H187V13.13L180.736 31.9537C180.198 33.565 179.443 34.6887 178.47 35.3262C177.495 35.9637 176.363 36.2825 174.479 36.2825H171.254V33.5987H173.708C174.492 33.5987 175.13 33.6262 175.623 33.6825C176.114 33.7387 176.429 33.7662 176.564 33.7662C176.944 33.7662 177.202 33.5987 177.338 33.2637L178.279 30.7137C178.391 30.4462 178.401 30.245 178.312 30.1087C178.267 30.0187 178.213 29.9625 178.145 29.9412C178.078 29.9187 177.977 29.9075 177.843 29.9075H175.794L169.996 12.46H169.993V12.4587ZM66.1935 26.2612C65.3984 27.6587 64.3675 28.705 63.1018 29.3975C61.8362 30.09 60.4744 30.4375 59.0191 30.4375C56.152 30.4375 54.135 29.2975 52.9705 27.015C52.8806 26.8375 52.7683 26.7475 52.6347 26.7475C52.5012 26.7475 52.4325 26.815 52.4325 26.9487V36.31H49.4082V12.4887H52.4325V15.475C52.4325 15.6087 52.4999 15.6762 52.6347 15.6762C52.7695 15.6762 52.8806 15.5862 52.9705 15.4087C54.1338 13.1262 56.152 11.9862 59.0191 11.9862C60.4744 11.9862 61.8362 12.3337 63.1018 13.0262C64.3675 13.7187 65.3972 14.765 66.1935 16.1625C66.9886 17.56 67.3868 19.245 67.3868 21.2125C67.3868 23.18 66.9886 24.8637 66.1935 26.2612ZM62.6987 16.3962C61.589 15.2437 60.1274 14.6675 58.3139 14.6675C56.5003 14.6675 55.0374 15.2437 53.9291 16.3962C52.8194 17.5487 52.4125 19.1537 52.4125 21.2112C52.4125 23.2687 52.8194 24.875 53.9291 26.0262C55.0387 27.1787 56.5003 27.755 58.3139 27.755C60.1274 27.755 61.5903 27.18 62.6987 26.0262C63.8083 24.8737 64.3625 23.2687 64.3625 21.2112C64.3625 19.1537 63.8083 17.5487 62.6987 16.3962Z" fill="#13343B"/>
</g>
<defs>
<clipPath id="clip0_2363_101">
<rect width="187" height="45" fill="white"/>
</clipPath>
</defs>
</svg>
