<svg width="136" height="45" viewBox="0 0 136 45" fill="none" xmlns="http://www.w3.org/2000/svg">
<g clip-path="url(#clip0_2363_98)">
<path d="M17.2613 25.1489H9.27344L9.27718 17.1927H17.2652L17.2613 25.1489Z" fill="black"/>
<path d="M25.2456 33.1051H17.2578L17.2616 25.1489H25.2496L25.2456 33.1051Z" fill="black"/>
<path d="M25.2496 25.1489H17.2617L17.2655 17.1927H25.2535L25.2496 25.1489Z" fill="black"/>
<path d="M33.2359 25.1489H25.248L25.2518 17.1927H33.2398L33.2359 25.1489Z" fill="black"/>
<path d="M17.2652 17.1925H9.27734L9.28108 9.23633H17.2691L17.2652 17.1925Z" fill="black"/>
<path d="M33.2398 17.1925H25.252L25.2557 9.23633H33.2437L33.2398 17.1925Z" fill="black"/>
<path d="M9.27299 25.1489H1.28516L1.2889 17.1927H9.27694L9.27299 25.1489Z" fill="black"/>
<path d="M9.2769 17.1925H1.28906L1.2928 9.23633H9.28085L9.2769 17.1925Z" fill="black"/>
<path d="M9.2808 9.23628H1.29297L1.29671 1.28009H9.28476L9.2808 9.23628Z" fill="black"/>
<path d="M41.232 9.23628H33.2441L33.2479 1.28009H41.2359L41.232 9.23628Z" fill="black"/>
<path d="M9.26909 33.1051H1.28125L1.28499 25.1489H9.27304L9.26909 33.1051Z" fill="black"/>
<path d="M9.26518 41.0615H1.27734L1.28108 33.1053H9.26913L9.26518 41.0615Z" fill="black"/>
<path d="M41.2242 25.1489H33.2363L33.2401 17.1927H41.2281L41.2242 25.1489Z" fill="black"/>
<path d="M41.2281 17.1925H33.2402L33.244 9.23633H41.232L41.2281 17.1925Z" fill="black"/>
<path d="M41.2203 33.1051H33.2324L33.2362 25.1489H41.2242L41.2203 33.1051Z" fill="black"/>
<path d="M41.2164 41.0615H33.2285L33.2323 33.1053H41.2203L41.2164 41.0615Z" fill="black"/>
<path d="M20.5833 25.1483H12.5957L12.5994 17.1921H20.5875L20.5833 25.1483Z" fill="#FF7000"/>
<path d="M28.5679 33.1044H20.5801L20.5838 25.1483H28.5719L28.5679 33.1044Z" fill="#FF4900"/>
<path d="M28.5718 25.1483H20.584L20.5877 17.1921H28.5758L28.5718 25.1483Z" fill="#FF7000"/>
<path d="M36.5581 25.1483H28.5703L28.5741 17.1921H36.5621L36.5581 25.1483Z" fill="#FF7000"/>
<path d="M20.5872 17.1919H12.5996L12.6034 9.23566H20.5914L20.5872 17.1919Z" fill="#FFA300"/>
<path d="M36.5621 17.1919H28.5742L28.578 9.23566H36.566L36.5621 17.1919Z" fill="#FFA300"/>
<path d="M12.595 25.1483H4.60742L4.61116 17.1921H12.5992L12.595 25.1483Z" fill="#FF7000"/>
<path d="M12.599 17.1919H4.61133L4.61507 9.23566H12.6031L12.599 17.1919Z" fill="#FFA300"/>
<path d="M12.6029 9.23567H4.61523L4.61898 1.27948H12.607L12.6029 9.23567Z" fill="#FFCE00"/>
<path d="M44.5542 9.23567H36.5664L36.5701 1.27948H44.5582L44.5542 9.23567Z" fill="#FFCE00"/>
<path d="M12.5911 33.1044H4.60352L4.60726 25.1483H12.5953L12.5911 33.1044Z" fill="#FF4900"/>
<path d="M12.5872 41.0609H4.59961L4.60335 33.1047H12.5914L12.5872 41.0609Z" fill="#FF0107"/>
<path d="M44.5464 25.1483H36.5586L36.5623 17.1921H44.5504L44.5464 25.1483Z" fill="#FF7000"/>
<path d="M44.5503 17.1919H36.5625L36.5662 9.23566H44.5543L44.5503 17.1919Z" fill="#FFA300"/>
<path d="M44.5425 33.1044H36.5547L36.5584 25.1483H44.5465L44.5425 33.1044Z" fill="#FF4900"/>
<path d="M44.5386 41.0609H36.5508L36.5545 33.1047H44.5426L44.5386 41.0609Z" fill="#FF0107"/>
<mask id="mask0_2363_98" style="mask-type:luminance" maskUnits="userSpaceOnUse" x="-1" y="-4" width="137" height="53">
<path d="M-0.324219 -3.56873H135.47V48.1475H-0.324219V-3.56873Z" fill="white"/>
</mask>
<g mask="url(#mask0_2363_98)">
<path d="M57.7969 8.81299H60.7092L61.9108 13.1433L62.3231 14.8331H62.3986L62.8058 13.1433L64.013 8.81299H66.9253V21.0325H64.5769V17.2497C64.5769 15.8738 64.8192 12.8941 64.9488 11.5735H64.8925L63.9513 14.8533L62.9966 17.7968H61.6496L60.6782 14.8533L59.8004 11.5735H59.7353C59.876 12.8941 60.1073 15.8738 60.1073 17.2497V21.0325H57.7969V8.81299Z" fill="black"/>
</g>
<mask id="mask1_2363_98" style="mask-type:luminance" maskUnits="userSpaceOnUse" x="-1" y="-4" width="137" height="53">
<path d="M-0.324219 -3.56885H135.47V48.1473H-0.324219V-3.56885Z" fill="white"/>
</mask>
<g mask="url(#mask1_2363_98)">
<path d="M69.4023 18.7137H72.2674V11.1319H69.4023V8.81289H77.9083V11.1319H75.0442V18.7137H77.9083V21.0327H69.4023V18.7137Z" fill="black"/>
</g>
<mask id="mask2_2363_98" style="mask-type:luminance" maskUnits="userSpaceOnUse" x="-1" y="-4" width="137" height="53">
<path d="M-0.324219 -3.56873H135.47V48.1475H-0.324219V-3.56873Z" fill="white"/>
</mask>
<g mask="url(#mask2_2363_98)">
<path d="M80.252 19.493L81.8455 17.5936C82.7729 18.35 83.9173 18.8687 85.1067 18.8687C86.2849 18.8687 86.829 18.4143 86.829 17.817C86.829 16.9371 86.0998 16.7243 84.9391 16.2401L83.3407 15.5606C81.9816 15.0461 80.7403 14.0079 80.7403 12.2292C80.7403 10.2055 82.5706 8.58791 85.2366 8.58791C86.7121 8.58791 88.2031 9.13917 89.3108 10.1878L87.912 11.9311C87.0477 11.313 86.2832 10.9765 85.0845 10.9765C84.1703 10.9765 83.5495 11.3543 83.5495 12.0678C83.5495 12.8029 84.3718 13.0721 85.5486 13.5113L87.0494 14.1448C88.6562 14.7447 89.6701 15.7428 89.6701 17.4673C89.6701 19.4986 87.9593 21.2573 84.9224 21.2573C83.2646 21.2573 81.5527 20.6533 80.252 19.493Z" fill="black"/>
</g>
<mask id="mask3_2363_98" style="mask-type:luminance" maskUnits="userSpaceOnUse" x="-1" y="-4" width="137" height="53">
<path d="M-0.324219 -3.56885H135.47V48.1473H-0.324219V-3.56885Z" fill="white"/>
</mask>
<g mask="url(#mask3_2363_98)">
<path d="M94.8577 11.1319H91.1797V8.81289H101.312V11.1319H97.6345V21.0327H94.8577V11.1319Z" fill="black"/>
</g>
<mask id="mask4_2363_98" style="mask-type:luminance" maskUnits="userSpaceOnUse" x="-1" y="-4" width="137" height="53">
<path d="M-0.324219 -3.56885H135.47V48.1473H-0.324219V-3.56885Z" fill="white"/>
</mask>
<g mask="url(#mask4_2363_98)">
<path d="M105.981 11.0078H107.335C108.793 11.0078 109.576 11.4134 109.576 12.6201C109.576 13.8163 108.793 14.4417 107.335 14.4417H105.981V11.0078ZM112.887 21.0327L110.112 16.144C111.422 15.554 112.298 14.4156 112.298 12.6201C112.298 9.71276 110.16 8.81289 107.561 8.81289H103.199V21.0327H105.981V16.6366H107.439L109.781 21.0327H112.887Z" fill="black"/>
</g>
<mask id="mask5_2363_98" style="mask-type:luminance" maskUnits="userSpaceOnUse" x="-1" y="-4" width="137" height="53">
<path d="M-0.324219 -3.56873H135.47V48.1475H-0.324219V-3.56873Z" fill="white"/>
</mask>
<g mask="url(#mask5_2363_98)">
<path d="M117.497 15.9718L117.787 14.846L118.739 10.9052H118.814C119.109 12.1946 119.483 13.6258 119.794 14.846L120.082 15.9718H117.497ZM121.378 21.0325H124.322L120.501 8.81299H117.173L113.352 21.0325H116.193L116.942 18.1266H120.634L121.378 21.0325Z" fill="black"/>
</g>
<mask id="mask6_2363_98" style="mask-type:luminance" maskUnits="userSpaceOnUse" x="-1" y="-4" width="137" height="53">
<path d="M-0.324219 -3.56873H135.47V48.1475H-0.324219V-3.56873Z" fill="white"/>
</mask>
<g mask="url(#mask6_2363_98)">
<path d="M126.49 8.81299H129.261V18.7138H134.722V21.0325H126.49V8.81299Z" fill="black"/>
</g>
<mask id="mask7_2363_98" style="mask-type:luminance" maskUnits="userSpaceOnUse" x="-1" y="-4" width="137" height="53">
<path d="M-0.324219 -3.56873H135.47V48.1475H-0.324219V-3.56873Z" fill="white"/>
</mask>
<g mask="url(#mask7_2363_98)">
<path d="M61.0208 35.5745L61.3111 34.4487L62.263 30.5077H62.3382C62.6332 31.7971 63.0069 33.2286 63.3177 34.4487L63.606 35.5745H61.0208ZM64.9006 40.64H67.8456L64.0231 28.4155H60.6936L56.8711 40.64H59.7133L60.4629 37.7324H64.1563L64.9006 40.64Z" fill="black"/>
</g>
<mask id="mask8_2363_98" style="mask-type:luminance" maskUnits="userSpaceOnUse" x="-1" y="-4" width="137" height="53">
<path d="M-0.324219 -3.56873H135.47V48.1475H-0.324219V-3.56873Z" fill="white"/>
</mask>
<g mask="url(#mask8_2363_98)">
<path d="M69.4023 38.3166H72.2674V30.7346H69.4023V28.4156H77.9083V30.7346H75.0442V38.3166H77.9083V40.6356H69.4023V38.3166Z" fill="black"/>
</g>
<mask id="mask9_2363_98" style="mask-type:luminance" maskUnits="userSpaceOnUse" x="-1" y="-4" width="137" height="53">
<path d="M-0.324219 -3.56873H135.47V48.1475H-0.324219V-3.56873Z" fill="white"/>
</mask>
<g mask="url(#mask9_2363_98)">
<path d="M80.4316 41.6452H89.468V43.7206H80.4316V41.6452Z" fill="black"/>
</g>
</g>
<defs>
<clipPath id="clip0_2363_98">
<rect width="136" height="45" fill="white"/>
</clipPath>
</defs>
</svg>
