<svg width="60" height="60" viewBox="0 0 60 60" fill="none" xmlns="http://www.w3.org/2000/svg">
<path fill-rule="evenodd" clip-rule="evenodd" d="M51.603 8.39696C48.4071 5.201 43.2255 5.201 40.0293 8.39696L24.2133 24.2133C21.0172 27.4092 21.0172 32.5908 24.2133 35.7867C25.3848 36.9585 25.3848 38.8578 24.2133 40.0293C23.0416 41.2011 21.1421 41.2011 19.9705 40.0293C14.4315 34.4904 14.4315 25.5096 19.9705 19.9705L35.7867 4.15433C41.3259 -1.38478 50.3067 -1.38478 55.8456 4.15433C61.3848 9.69341 61.3848 18.6741 55.8456 24.2133L53.2095 26.8491C52.038 28.0209 50.1387 28.0209 48.9669 26.8491C47.7954 25.6776 47.7954 23.7782 48.9669 22.6066L51.603 19.9705C54.7989 16.7746 54.7989 11.5929 51.603 8.39696ZM35.7867 35.7867C38.9829 32.5908 38.9829 27.4092 35.7867 24.2133C34.6152 23.0416 34.6152 21.1421 35.7867 19.9705C36.9585 18.799 38.8578 18.799 40.0293 19.9705C45.5685 25.5096 45.5685 34.4904 40.0293 40.0293L24.2133 55.8456C18.6741 61.3848 9.69341 61.3848 4.15433 55.8456C-1.38478 50.3067 -1.38478 41.3259 4.15433 35.7867L6.79037 33.1509C7.96193 31.9791 9.86144 31.9791 11.033 33.1509C12.2046 34.3224 12.2046 36.2217 11.033 37.3935L8.39696 40.0293C5.201 43.2255 5.201 48.4071 8.39696 51.603C11.5929 54.7989 16.7746 54.7989 19.9705 51.603L35.7867 35.7867Z" fill="#FED090"/>
</svg>
