<svg width="46" height="58" viewBox="0 0 46 58" fill="none" xmlns="http://www.w3.org/2000/svg">
<path d="M45.12 7.44C45.12 3.36 41.76 0 37.68 0H18.72C16.8 0 14.88 0.72 13.68 2.16L2.4 12.72C0.96 13.92 0 16.08 0 18.24V50.4C0 54.48 3.36 57.84 7.44 57.84H37.68C41.76 57.84 45.12 54.48 45.12 50.4V7.44ZM4.8 18C4.8 17.28 5.28 16.56 5.76 16.08L16.8 5.52C17.04 5.28 17.76 4.8 18.72 4.8H18.96V13.92C18.96 16.32 17.04 18.48 14.4 18.48L4.8 18ZM37.2 37.68L28.08 48C27.6 48.48 26.88 48.72 26.4 48.72H26.16C25.44 48.72 24.72 48.24 24.24 47.76L19.2 40.08L11.52 48.24C10.56 49.2 9.12 49.2 8.16 48.24C7.2 47.28 7.2 45.84 8.16 44.88L18 34.56C18.48 34.08 19.2 33.84 19.92 33.84C20.64 33.84 21.36 34.32 21.84 34.8L26.88 42.48L33.84 34.56C34.8 33.6 36.24 33.6 37.2 34.32C38.16 35.04 38.16 36.72 37.2 37.68ZM36.48 23.04H26.16C24.72 23.04 23.76 22.08 23.76 20.64C23.76 19.2 24.72 18.24 26.16 18.24H36.48C37.68 18.24 38.88 19.2 38.88 20.64C38.88 22.08 37.92 23.04 36.48 23.04ZM36.48 13.44H26.16C24.72 13.44 23.76 12.48 23.76 11.04C23.76 9.6 24.72 8.64 26.16 8.64H36.48C37.68 8.64 38.88 9.6 38.88 11.04C38.88 12.48 37.92 13.44 36.48 13.44Z" fill="#FEDBA9"/>
</svg>
