<svg width="70" height="70" viewBox="0 0 70 70" fill="none" xmlns="http://www.w3.org/2000/svg">
<g clip-path="url(#clip0_3749_691)">
<path d="M32.8125 70C14.7197 70 0 55.2803 0 37.1875C0 19.0947 14.7197 4.375 32.8125 4.375C34.02 4.375 35 5.35281 35 6.5625C35 7.77219 34.02 8.75 32.8125 8.75C17.1325 8.75 4.375 21.5075 4.375 37.1875C4.375 52.8675 17.1325 65.625 32.8125 65.625C40.3878 65.625 47.53 62.6653 52.9244 57.2928C53.7841 56.4397 55.1666 56.4463 56.0175 57.2994C56.8706 58.1569 56.8684 59.5416 56.0109 60.3947C49.7919 66.5875 41.5537 70 32.8125 70Z" fill="#FED090"/>
<path d="M57.575 64.1375C56.9953 64.1375 56.4375 63.9078 56.0284 63.4966L31.2659 38.7341C30.8547 38.325 30.625 37.7694 30.625 37.1875V2.1875C30.625 0.977813 31.605 0 32.8125 0C53.3181 0 70 16.6819 70 37.1875C70 47.1144 66.1369 56.4572 59.1237 63.4944C58.7147 63.9056 58.1569 64.1375 57.575 64.1375ZM35 36.2819L57.5203 58.8044C62.7616 52.8106 65.625 45.2156 65.625 37.1875C65.625 19.8297 52.0756 5.57813 35 4.44719V36.2819Z" fill="#FED090"/>
<path d="M57.575 64.1375C56.9953 64.1375 56.4375 63.9078 56.0284 63.4966L31.2659 38.7341C30.8547 38.325 30.625 37.7694 30.625 37.1875V2.1875C30.625 0.977813 31.605 0 32.8125 0C53.3181 0 70 16.6819 70 37.1875C70 47.1144 66.1369 56.4572 59.1237 63.4944C58.7147 63.9056 58.1569 64.1375 57.575 64.1375Z" fill="#FED090"/>
<path d="M32.8125 39.375H2.1875C0.98 39.375 0 38.3972 0 37.1875C0 35.9778 0.98 35 2.1875 35H32.8125C34.02 35 35 35.9778 35 37.1875C35 38.3972 34.02 39.375 32.8125 39.375Z" fill="#FED090"/>
</g>
<defs>
<clipPath id="clip0_3749_691">
<rect width="70" height="70" fill="white"/>
</clipPath>
</defs>
</svg>
