<svg width="60" height="60" viewBox="0 0 60 60" fill="none" xmlns="http://www.w3.org/2000/svg">
<path fill-rule="evenodd" clip-rule="evenodd" d="M46.2476 19.5424H52.0101V10.9409C52.0101 10.8522 52.0276 10.7645 52.0615 10.6826C52.0954 10.6007 52.1451 10.5263 52.2078 10.4636C52.2704 10.4009 52.3448 10.3512 52.4267 10.3172C52.5086 10.2833 52.5964 10.2659 52.685 10.2659H54.935L49.1278 2.11816L43.3208 10.2653H45.5708C45.6645 10.265 45.7573 10.2843 45.8431 10.3219C45.9289 10.3595 46.0059 10.4147 46.0692 10.4838C46.1325 10.5529 46.1807 10.6344 46.2106 10.7233C46.2406 10.8121 46.2516 10.9061 46.2431 10.9995L46.2476 19.5424Z" fill="#FED090"/>
<path fill-rule="evenodd" clip-rule="evenodd" d="M33.4717 25.8052H39.234V17.2298C39.234 17.0508 39.3051 16.8791 39.4317 16.7525C39.5583 16.6259 39.73 16.5548 39.909 16.5548H42.159L36.3519 8.40723L30.5449 16.5548H32.7949C32.8886 16.5545 32.9814 16.5738 33.0672 16.6114C33.1531 16.649 33.2301 16.7041 33.2934 16.7733C33.3567 16.8424 33.4049 16.9239 33.4348 17.0128C33.4648 17.1016 33.4759 17.1956 33.4673 17.289L33.4717 25.8052Z" fill="#FED090"/>
<path fill-rule="evenodd" clip-rule="evenodd" d="M26.4585 32.4769V23.518C26.4585 23.339 26.5296 23.1673 26.6562 23.0407C26.7828 22.9141 26.9545 22.843 27.1335 22.843H29.3835L23.5765 14.6953L17.7695 22.843H20.0195C20.1132 22.8427 20.206 22.862 20.2918 22.8996C20.3776 22.9373 20.4547 22.9924 20.518 23.0615C20.5812 23.1306 20.6294 23.2122 20.6593 23.301C20.6893 23.3898 20.7004 23.4839 20.6918 23.5772L20.6969 32.4769H26.4585Z" fill="#FED090"/>
<path d="M19.4429 36.4072H27.7104V54.1702H19.4429V36.4072Z" fill="#FED090"/>
<path d="M6.66699 41.4854H14.9345V54.1693H6.66699V41.4854Z" fill="#FED090"/>
<path d="M44.9941 23.4717H53.2616V54.1695H44.9941V23.4717Z" fill="#FED090"/>
<path d="M32.2188 29.7354H40.4863V54.1706H32.2188V29.7354Z" fill="#FED090"/>
<path d="M3.84229 55.5186H56.1575V57.8806H3.84229V55.5186Z" fill="#FED090"/>
<path fill-rule="evenodd" clip-rule="evenodd" d="M7.91994 37.5571H13.683V29.808C13.683 29.629 13.7541 29.4573 13.8807 29.3307C14.0073 29.2042 14.179 29.133 14.358 29.133H16.608L10.8006 20.9854L4.99365 29.1332H7.24365C7.33738 29.1329 7.43013 29.1521 7.51597 29.1897C7.60182 29.2274 7.67885 29.2825 7.74216 29.3516C7.80546 29.4207 7.85363 29.5023 7.88358 29.5911C7.91352 29.6799 7.92459 29.774 7.91607 29.8673L7.91994 37.5571Z" fill="#FED090"/>
</svg>
