<svg width="60" height="60" viewBox="0 0 60 60" fill="none" xmlns="http://www.w3.org/2000/svg">
<g clip-path="url(#clip0_4048_147)">
<path d="M47.9431 52.9688H8.0993C7.12852 52.9688 6.34149 53.7558 6.34149 54.7266V58.2422C6.34149 59.213 7.12852 60 8.0993 60H47.9431C48.9138 60 49.7009 59.213 49.7009 58.2422V54.7266C49.7009 53.7558 48.9138 52.9688 47.9431 52.9688Z" fill="#FED090"/>
<path d="M11.029 45.9375V49.4531H45.0134V45.9375C45.0134 44.9667 44.2263 44.1797 43.2556 44.1797H12.7868C11.816 44.1797 11.029 44.9667 11.029 45.9375Z" fill="#FED090"/>
<path d="M7.40686 32.9048L10.3936 34.1849C9.86405 27.3509 11.0084 21.0798 13.7267 15.9851C16.5692 10.6577 21.0012 6.615 26.9439 3.91406C26.6041 3.93305 26.2653 3.95824 25.9282 3.99258C22.487 4.34355 19.3767 5.48543 16.6839 7.38645C13.6998 9.49301 11.3105 12.4846 9.58245 16.2782C7.72456 20.3569 6.63483 25.3777 6.34362 31.2014C6.30706 31.9356 6.73116 32.6152 7.40686 32.9048Z" fill="#FED090"/>
<path d="M52.5859 20.424L42.5777 9.4151L41.4806 1.51608C41.3878 0.84776 40.9206 0.291471 40.2783 0.0846347C39.636 -0.122201 38.932 0.0570956 38.4667 0.54565L34.1267 5.10225C25.9365 7.25698 20.1181 11.4733 16.828 17.6398C14.2842 22.4074 13.3053 28.4133 13.9972 35.0083C14.2319 37.2457 14.6182 39.1913 14.975 40.664H40.3254V37.1483C40.3254 36.782 40.2109 36.4247 39.998 36.1266L35.8024 30.2527C35.2546 29.4858 35.2665 28.4638 35.8319 27.7099C36.4148 26.9329 37.4518 26.6423 38.3536 27.0028L45.6753 29.9315C47.3651 30.6075 49.2646 30.1067 50.4014 28.6855L52.7537 25.7452C54.0201 24.1621 53.9496 21.9242 52.5859 20.424ZM36.8097 18.8671C35.839 18.8671 35.0519 18.0801 35.0519 17.1093C35.0519 16.1385 35.839 15.3515 36.8097 15.3515C37.7805 15.3515 38.5676 16.1385 38.5676 17.1093C38.5676 18.0802 37.7805 18.8671 36.8097 18.8671Z" fill="#FED090"/>
</g>
<defs>
<clipPath id="clip0_4048_147">
<rect width="60" height="60" fill="white"/>
</clipPath>
</defs>
</svg>
