<svg width="60" height="60" viewBox="0 0 60 60" fill="none" xmlns="http://www.w3.org/2000/svg">
<rect width="60" height="60" rx="10" fill="white"/>
<rect x="0.5" y="0.5" width="59" height="59" rx="9.5" stroke="#1A5A96" stroke-opacity="0.3"/>
<path fill-rule="evenodd" clip-rule="evenodd" d="M39.7284 25.0896C40.0662 25.8053 40.3289 26.555 40.5123 27.3294L42.7368 28.1856V31.8185L40.5123 32.6746C40.2306 33.86 39.7587 34.9905 39.1221 36.0296L40.0879 38.21L37.5196 40.7784L35.3391 39.8125C34.3038 40.4527 33.1696 40.921 31.9842 41.2027L31.1281 43.4271H27.4951L26.639 41.2027C25.45 40.921 24.3195 40.4491 23.2805 39.8125L21.0999 40.7784L18.5316 38.21L19.5012 36.0296C18.8609 34.9941 18.3926 33.86 18.1072 32.6746L15.8828 31.8185V28.1856L18.1072 27.3294C18.3926 26.1404 18.8609 25.0099 19.5012 23.9708L18.5316 21.7904L21.0999 19.222L23.2805 20.1916C24.3195 19.5513 25.45 19.083 26.6353 18.8013L27.4951 16.5733H31.1281L31.9842 18.8013C33.1696 19.083 34.3 19.5513 35.3391 20.1916L37.5196 19.222L38.1316 19.8341L34.1096 24.3502C32.8158 23.2504 31.1392 22.587 29.3076 22.587C25.2128 22.587 21.8966 25.9031 21.8966 29.9981C21.8966 34.093 25.2128 37.4134 29.3076 37.4134C33.4026 37.4134 36.723 34.093 36.723 29.9981C36.723 29.5236 36.6784 29.0596 36.5932 28.61L39.7284 25.0896ZM42.1979 20.8994C42.1843 20.916 42.1705 20.9324 42.1561 20.9486L34.4775 29.5704C33.9943 30.113 33.1769 30.1968 32.5937 29.7636L30.4705 28.1868L27.2319 31.4254C26.6845 31.9728 25.7956 31.9728 25.2482 31.4254C24.7008 30.8779 24.7008 29.9891 25.2482 29.4417L29.3429 25.3469C29.8348 24.8551 30.6128 24.798 31.1711 25.2127L33.236 26.7463L40.0611 19.0827C40.0706 19.0721 40.0802 19.0616 40.09 19.0512L39.0738 18.1601C38.9921 18.0885 38.9572 17.9773 38.9835 17.8718C39.0097 17.7664 39.0926 17.6845 39.1983 17.6596L43.7612 16.581C43.8525 16.5594 43.9486 16.5834 44.0192 16.6453C44.0898 16.7071 44.1261 16.7993 44.1166 16.8927L43.6436 21.5574C43.6326 21.6654 43.5623 21.7583 43.4612 21.7981C43.3601 21.8379 43.2453 21.8179 43.1636 21.7463L42.1979 20.8994Z" fill="#1A5A96"/>
</svg>
