<svg width="60" height="60" viewBox="0 0 60 60" fill="none" xmlns="http://www.w3.org/2000/svg">
<rect width="60" height="60" rx="10" fill="white"/>
<rect x="0.5" y="0.5" width="59" height="59" rx="9.5" stroke="#1A5A96" stroke-opacity="0.3"/>
<path fill-rule="evenodd" clip-rule="evenodd" d="M42.9299 32.0699C40.2045 32.0699 38.8371 35.3716 40.764 37.2986C41.1191 37.6536 41.1191 38.2294 40.764 38.5843L38.8069 40.5415C38.4519 40.8965 37.8762 40.8965 37.5212 40.5415C36.4501 39.4704 34.9546 39.4175 33.8371 40.0495V36.3921C36.0977 35.0648 37.6156 32.6089 37.6156 29.798C37.6156 25.5777 34.1944 22.1565 29.974 22.1565C25.7538 22.1565 22.3325 25.5778 22.3325 29.798C22.3325 32.63 23.8732 35.1022 26.162 36.4222V40.0468C25.045 39.4153 23.55 39.4693 22.4779 40.5415C22.1229 40.8965 21.5471 40.8965 21.1922 40.5415L19.235 38.5843C18.88 38.2294 18.88 37.6536 19.235 37.2986C21.1621 35.3716 19.7946 32.0699 17.0692 32.0699C16.567 32.0699 16.1602 31.6628 16.1602 31.1607V28.3931C16.1602 27.891 16.567 27.4839 17.0692 27.4839C19.7946 27.4839 21.1621 24.1822 19.235 22.2553C18.88 21.9003 18.88 21.3246 19.235 20.9696L21.1922 19.0124C21.5472 18.6574 22.1229 18.6574 22.4779 19.0124C24.4049 20.9394 27.7066 19.572 27.7066 16.8466C27.7066 16.3444 28.1138 15.9375 28.6157 15.9375H31.3835C31.8854 15.9375 32.2925 16.3444 32.2925 16.8466C32.2925 19.572 35.5942 20.9394 37.5213 19.0124C37.8762 18.6574 38.4519 18.6574 38.8069 19.0124L40.7641 20.9696C41.1192 21.3246 41.1192 21.9003 40.7641 22.2553C38.8371 24.1822 40.2045 27.4839 42.9299 27.4839C43.4322 27.4839 43.839 27.891 43.839 28.3931V31.1607C43.839 31.6628 43.4321 32.0699 42.9299 32.0699ZM27.0673 24.7763C25.3432 25.7852 24.185 27.6562 24.185 29.798C24.185 32.2863 25.7481 34.4092 27.9459 35.2392V44.0625H32.0532V35.2391C34.251 34.4092 35.8141 32.2863 35.8141 29.798C35.8141 27.6562 34.6559 25.7852 32.9319 24.7763V30.3652L29.9995 32.0582L27.0673 30.3653V24.7763Z" fill="#1A5A96"/>
</svg>
