<svg width="60" height="60" viewBox="0 0 60 60" fill="none" xmlns="http://www.w3.org/2000/svg">
<rect width="60" height="60" rx="10" fill="white"/>
<rect x="0.5" y="0.5" width="59" height="59" rx="9.5" stroke="#1A5A96" stroke-opacity="0.3"/>
<g clip-path="url(#clip0_3992_1083)">
<path d="M43.5221 40.029L38.7401 35.247C38.3855 34.8924 37.8107 34.8924 37.4561 35.247L35.3201 33.111C36.7541 31.191 37.4711 28.902 37.4711 26.613C37.4711 23.829 36.4091 21.045 34.2941 18.927C29.8761 14.5122 22.5743 14.6985 18.4032 19.4861C14.8626 23.5501 14.8737 29.7144 18.4272 33.7672C20.5951 36.2398 23.6034 37.476 26.6081 37.476C28.8971 37.476 31.1861 36.759 33.1061 35.325L35.2421 37.461C34.8875 37.8156 34.8875 38.3904 35.2421 38.745L39.9638 43.4667C40.4089 43.9119 40.9942 44.2097 41.6226 44.2458C42.3406 44.287 43.0196 44.0263 43.5221 43.527C44.4851 42.561 44.4851 40.992 43.5221 40.029ZM32.7161 32.721C29.3501 36.087 23.8691 36.09 20.5001 32.721C17.1311 29.355 17.1311 23.874 20.5001 20.505C22.1831 18.819 24.3971 17.979 26.6081 17.979C28.8221 17.979 31.0331 18.819 32.7161 20.505C36.0851 23.874 36.0851 29.355 32.7161 32.721Z" fill="#1A5A96"/>
<path d="M30.1562 23.9336H31.8229C32.0634 23.9336 32.2583 24.1286 32.2583 24.3691V31.0632C32.2583 31.3037 32.0634 31.4987 31.8229 31.4987H30.1562C29.9157 31.4987 29.7207 31.3037 29.7207 31.0632V24.3691C29.7207 24.1286 29.9157 23.9336 30.1562 23.9336Z" fill="#1A5A96"/>
<path d="M21.3935 27.2153H23.0602C23.3007 27.2153 23.4957 27.4103 23.4957 27.6508V31.0635C23.4957 31.304 23.3007 31.499 23.0602 31.499H21.3935C21.153 31.499 20.958 31.304 20.958 31.0635V27.6508C20.958 27.4103 21.153 27.2153 21.3935 27.2153Z" fill="#1A5A96"/>
<path d="M25.7763 21.7266H27.44C27.6805 21.7266 27.8755 21.9215 27.8755 22.1621V31.0631C27.8755 31.3036 27.6805 31.4986 27.44 31.4986H25.7763C25.5358 31.4986 25.3408 31.3036 25.3408 31.0631V22.1621C25.3408 21.9215 25.5358 21.7266 25.7763 21.7266Z" fill="#1A5A96"/>
</g>
<defs>
<clipPath id="clip0_3992_1083">
<rect width="30" height="30" fill="white" transform="translate(15 15)"/>
</clipPath>
</defs>
</svg>
