<svg width="60" height="60" viewBox="0 0 60 60" fill="none" xmlns="http://www.w3.org/2000/svg">
<rect width="60" height="60" rx="10" fill="white"/>
<rect x="0.5" y="0.5" width="59" height="59" rx="9.5" stroke="#1A5A96" stroke-opacity="0.3"/>
<g clip-path="url(#clip0_3992_1099)">
<path d="M21.7418 33.8515L23.298 35.4077L25.9556 32.7242C23.4019 29.6803 22.8586 25.6593 24.0457 22.2545L27.5819 25.7908C27.5518 29.3462 30.4465 32.4535 34.2234 32.4535C36.4407 32.4534 38.4073 31.3611 39.6143 29.6866L35.5993 25.6716L32.8152 28.456L22.4609 18.1017V20.4495H20.6451L20.6451 15.002H26.0926V16.8177L23.7449 16.8178L32.8152 25.8881L35.5993 23.1037L40.4947 27.999C41.2976 25.7037 40.809 23.0046 38.9199 21.1154C36.4995 18.6951 32.6977 18.5401 30.101 20.6037L27.1652 17.6678C31.3942 13.9916 37.811 14.1589 41.8437 18.1915C43.879 20.2269 44.9999 22.9332 44.9999 25.8117C44.9999 31.754 40.1656 36.5884 34.2234 36.5885C31.6325 36.5885 29.1816 35.68 27.2335 34.0144L24.5819 36.6917L26.1443 38.2542L19.4027 44.996L15 40.5933L21.7418 33.8515Z" fill="#1A5A96"/>
<path d="M30.4414 39.5508H44.968V41.3666H30.4414V39.5508Z" fill="#1A5A96"/>
<path d="M24.9941 43.1826H35.8892V44.9984H24.9941V43.1826Z" fill="#1A5A96"/>
</g>
<defs>
<clipPath id="clip0_3992_1099">
<rect width="30" height="30" fill="white" transform="translate(15 15)"/>
</clipPath>
</defs>
</svg>
