<svg width="60" height="60" viewBox="0 0 60 60" fill="none" xmlns="http://www.w3.org/2000/svg">
<rect width="60" height="60" rx="10" fill="white"/>
<rect x="0.5" y="0.5" width="59" height="59" rx="9.5" stroke="#1A5A96" stroke-opacity="0.3"/>
<path d="M33.75 15V22.5H41.25L33.75 15Z" fill="#1A5A96"/>
<path d="M33.75 24.375C32.7169 24.375 31.875 23.5331 31.875 22.5V15H20.625C19.5919 15 18.75 15.8419 18.75 16.875V43.125C18.75 44.16 19.5919 45 20.625 45H39.375C40.41 45 41.25 44.16 41.25 43.125V24.375H33.75ZM26.25 41.25H22.5V35.625H26.25V41.25ZM31.875 41.25H28.125V31.875H31.875V41.25ZM37.5 41.25H33.75V28.125H37.5V41.25Z" fill="#1A5A96"/>
</svg>
