<svg width="60" height="60" viewBox="0 0 60 60" fill="none" xmlns="http://www.w3.org/2000/svg">
<rect width="60" height="60" rx="10" fill="white"/>
<rect x="0.5" y="0.5" width="59" height="59" rx="9.5" stroke="#1A5A96" stroke-opacity="0.3"/>
<path d="M19.6875 25.3125C20.9081 25.3125 21.939 24.5264 22.3273 23.4375H26.25V21.5625H22.3273C21.939 20.4736 20.9081 19.6875 19.6875 19.6875C18.1366 19.6875 16.875 20.9491 16.875 22.5C16.875 24.0509 18.1366 25.3125 19.6875 25.3125Z" fill="#1A5A96"/>
<path d="M18.75 33.75V37.6727C17.6611 38.061 16.875 39.0919 16.875 40.3125C16.875 41.8634 18.1366 43.125 19.6875 43.125C21.2384 43.125 22.5 41.8634 22.5 40.3125C22.5 39.0919 21.7139 38.061 20.625 37.6727V34.6875H22.5V32.8125H19.6875C19.1693 32.8125 18.75 33.2318 18.75 33.75Z" fill="#1A5A96"/>
<path d="M41.25 26.25V22.3273C42.3389 21.939 43.125 20.9081 43.125 19.6875C43.125 18.1366 41.8634 16.875 40.3125 16.875C38.7616 16.875 37.5 18.1366 37.5 19.6875C37.5 20.9081 38.2861 21.939 39.375 22.3272V25.3125H37.5V27.1875H40.3125C40.8307 27.1875 41.25 26.7682 41.25 26.25Z" fill="#1A5A96"/>
<path d="M29.0625 24.4597V21.5625C29.0625 20.0116 30.3241 18.75 31.875 18.75C33.4259 18.75 34.6875 20.0116 34.6875 21.5625V30C34.6875 31.5509 33.4259 32.8125 31.875 32.8125C30.3241 32.8125 29.0625 31.5509 29.0625 30V28.3859C28.7856 28.2243 28.468 28.125 28.125 28.125C27.782 28.125 27.4644 28.2243 27.1875 28.3859V30C27.1875 32.5845 29.2905 34.6875 31.875 34.6875C34.4595 34.6875 36.5625 32.5845 36.5625 30V21.5625C36.5625 18.978 34.4595 16.875 31.875 16.875C29.2905 16.875 27.1875 18.978 27.1875 21.5625V24.4597C27.4931 24.4081 27.805 24.375 28.125 24.375C28.445 24.375 28.7569 24.4081 29.0625 24.4597Z" fill="#1A5A96"/>
<path d="M30.9375 35.5403V38.4375C30.9375 39.9884 29.6759 41.25 28.125 41.25C26.5741 41.25 25.3125 39.9884 25.3125 38.4375V30C25.3125 28.4491 26.5741 27.1875 28.125 27.1875C29.6759 27.1875 30.9375 28.4491 30.9375 30V31.6141C31.2144 31.7757 31.532 31.875 31.875 31.875C32.218 31.875 32.5356 31.7757 32.8125 31.6141V30C32.8125 27.4155 30.7095 25.3125 28.125 25.3125C25.5405 25.3125 23.4375 27.4155 23.4375 30V38.4375C23.4375 41.022 25.5405 43.125 28.125 43.125C30.7095 43.125 32.8125 41.022 32.8125 38.4375V35.5403C32.5069 35.5919 32.195 35.625 31.875 35.625C31.555 35.625 31.2431 35.5919 30.9375 35.5403Z" fill="#1A5A96"/>
<path d="M40.3125 34.6875C39.0919 34.6875 38.061 35.4736 37.6727 36.5625H33.75V38.4375H37.6728C38.061 39.5264 39.0919 40.3125 40.3125 40.3125C41.8634 40.3125 43.125 39.0509 43.125 37.5C43.125 35.9491 41.8634 34.6875 40.3125 34.6875Z" fill="#1A5A96"/>
</svg>
