<svg width="60" height="60" viewBox="0 0 60 60" fill="none" xmlns="http://www.w3.org/2000/svg">
<path d="M19.2308 33.0769C19.2308 22.0615 28.2154 13.0769 39.2308 13.0769C42.2462 13.0769 45.1077 13.7538 47.6923 14.9846V8.46154C47.6923 3.78462 43.9077 0 39.2308 0H8.46154C3.78462 0 0 3.78462 0 8.46154V51.5385C0 56.2154 3.78462 60 8.46154 60H39.2308C43.9077 60 47.6923 56.2154 47.6923 51.5385V51.1692C45.1077 52.4 42.2462 53.0769 39.2308 53.0769C28.2154 53.0769 19.2308 44.0923 19.2308 33.0769ZM11.5385 9.23077H26.9231C28.1846 9.23077 29.2308 10.2769 29.2308 11.5385C29.2308 12.8 28.1846 13.8462 26.9231 13.8462H11.5385C10.2769 13.8462 9.23077 12.8 9.23077 11.5385C9.23077 10.2769 10.2769 9.23077 11.5385 9.23077ZM14.6154 32.3077H11.5385C10.2769 32.3077 9.23077 31.2615 9.23077 30C9.23077 28.7385 10.2769 27.6923 11.5385 27.6923H14.6154C15.8769 27.6923 16.9231 28.7385 16.9231 30C16.9231 31.2615 15.8769 32.3077 14.6154 32.3077ZM11.5385 23.0769C10.2769 23.0769 9.23077 22.0308 9.23077 20.7692C9.23077 19.5077 10.2769 18.4615 11.5385 18.4615H17.6923C18.9538 18.4615 20 19.5077 20 20.7692C20 22.0308 18.9538 23.0769 17.6923 23.0769H11.5385ZM59.3231 46.8308L52.7569 40.2646C53.9046 38.1108 54.6154 35.6892 54.6154 33.08C54.6154 24.5846 47.7262 17.6954 39.2308 17.6954C30.7354 17.6954 23.8462 24.5846 23.8462 33.08C23.8462 41.5754 30.7354 48.4646 39.2308 48.4646C43.4308 48.4646 47.2308 46.7723 50.0062 44.0431L56.0585 50.0954C56.5077 50.5446 57.0985 50.7723 57.6892 50.7723C58.28 50.7723 58.8708 50.5477 59.32 50.0954C60.2215 49.1939 60.2215 47.7323 59.32 46.8308H59.3231ZM46.7723 31.8431L38.5662 38.0246C38.1539 38.3354 37.6646 38.4892 37.1754 38.4892C36.6831 38.4892 36.1938 38.3323 35.7815 38.0215L31.68 34.9138C30.6615 34.1446 30.4615 32.6985 31.2308 31.6831C32.0031 30.6677 33.4523 30.4677 34.4646 31.2338L37.1785 33.2862L43.9908 28.1538C45.0092 27.3877 46.4554 27.5908 47.2246 28.6062C47.9908 29.6246 47.7877 31.0708 46.7723 31.84V31.8431Z" fill="#FB9100"/>
</svg>
