<svg width="60" height="60" viewBox="0 0 60 60" fill="none" xmlns="http://www.w3.org/2000/svg">
<path d="M39.091 28.6361L35.7274 27.4542C35.4546 26.5451 35.091 25.6361 34.5455 24.727L36.091 21.5451C36.2728 21.1815 36.1819 20.727 35.9092 20.5451L32.0001 16.6361C31.7274 16.3633 31.2728 16.2724 31.0001 16.4542L27.8183 17.9997C26.9092 17.5451 26.0001 17.1815 25.091 16.8179L23.9092 13.4542C23.8183 13.0906 23.4546 12.8179 23.091 12.8179H17.5455C17.1819 12.8179 16.8183 13.0906 16.6365 13.4542L15.4546 16.8179C14.5455 17.0906 13.6365 17.4542 12.7274 17.9997L9.63645 16.3633C9.27282 16.1815 8.90918 16.2724 8.54554 16.5451L4.63645 20.4542C4.36373 20.727 4.27282 21.1815 4.45463 21.4542L6.00009 24.6361C5.54554 25.5451 5.18191 26.4542 4.90918 27.3633L1.54554 28.5451C1.18191 28.727 0.90918 29.0906 0.90918 29.4542V34.9997C0.90918 35.3633 1.18191 35.727 1.54554 35.9088L4.90918 37.0906C5.18191 37.9997 5.54554 38.9088 6.091 39.8179L4.54554 42.9997C4.36373 43.3633 4.45463 43.8179 4.72736 44.0906L8.63645 47.9997C8.90918 48.2724 9.36373 48.3633 9.72736 48.1815L12.9092 46.636C13.8183 47.0906 14.7274 47.4542 15.6365 47.8179L16.8183 51.1815C16.9092 51.5451 17.2728 51.8179 17.6365 51.8179H23.1819C23.5455 51.8179 23.9092 51.5451 24.0001 51.1815L25.1819 47.8179C26.091 47.5451 27.0001 47.1815 27.9092 46.636L31.091 48.1815C31.4546 48.3633 31.8183 48.2724 32.091 47.9997L36.0001 44.0906C36.2728 43.8179 36.3637 43.3633 36.1819 42.9997L34.5455 39.727C35.0001 38.8179 35.3637 37.9088 35.7274 36.9997L39.091 35.8179C39.4546 35.727 39.7274 35.3633 39.7274 34.9088V29.3633C39.7274 29.0906 39.4546 28.727 39.091 28.6361ZM20.2728 39.9997C16.0001 39.9997 12.5455 36.5451 12.5455 32.2724C12.5455 27.9997 16.0001 24.5451 20.2728 24.5451C24.5455 24.5451 28.0001 27.9997 28.0001 32.2724C28.0001 36.4542 24.5455 39.9997 20.2728 39.9997Z" fill="#FB9100"/>
<path d="M58.455 10.5453L56.6368 9.90891C56.455 9.45437 56.2732 8.99982 56.0914 8.63619L56.9095 6.90891C57.0914 6.54528 57.0004 6.18164 56.7277 5.818L54.5459 3.54528C54.2732 3.27255 53.8186 3.18164 53.5459 3.36346L51.8186 4.18164C51.3641 3.99982 51.0004 3.818 50.5459 3.63619L49.9095 1.818C49.8186 1.45437 49.455 1.18164 49.0914 1.18164H45.8186C45.455 1.18164 45.0914 1.45437 44.9095 1.818L44.2732 3.63619C43.8186 3.818 43.3641 3.99982 43.0004 4.18164L41.2732 3.36346C40.9095 3.18164 40.455 3.27255 40.1823 3.54528L37.9095 5.818C37.6368 6.09073 37.5459 6.54528 37.7277 6.90891L38.5459 8.63619C38.3641 9.09073 38.1823 9.45437 38.0004 9.90891L36.1823 10.5453C35.8186 10.6362 35.5459 10.9998 35.5459 11.3635V14.6362C35.5459 14.9998 35.8186 15.3635 36.1823 15.4544L38.0004 16.0907C38.1823 16.5453 38.3641 16.9998 38.5459 17.4544L37.7277 19.0907C37.5459 19.4544 37.6368 19.9089 37.9095 20.1816L40.1823 22.4544C40.455 22.7271 40.9095 22.818 41.2732 22.6362L43.0004 21.818C43.455 21.9998 43.9095 22.1816 44.2732 22.3635L44.9095 24.1816C45.0004 24.5453 45.3641 24.818 45.8186 24.818H49.0914C49.455 24.818 49.8186 24.5453 49.9095 24.1816L50.5459 22.3635C51.0004 22.1816 51.455 21.9998 51.8186 21.818L53.5459 22.6362C53.9095 22.818 54.2732 22.7271 54.6368 22.4544L56.9095 20.1816C57.1823 19.9089 57.2732 19.4544 57.0914 19.0907L56.2732 17.3635C56.455 16.9089 56.6368 16.4544 56.8186 15.9998L58.6368 15.3635C59.0004 15.2725 59.2732 14.9089 59.2732 14.5453V11.2725C59.0914 10.9998 58.8186 10.6362 58.455 10.5453ZM47.3641 17.5453C44.8186 17.5453 42.8186 15.5453 42.8186 12.9998C42.8186 10.5453 44.8186 8.45437 47.3641 8.45437C49.8186 8.45437 51.9095 10.4544 51.9095 12.9998C51.9095 15.5453 49.8186 17.5453 47.3641 17.5453Z" fill="#FB9100"/>
<path d="M58.4545 40.1815L55.909 39.2724C55.7272 38.5451 55.4545 37.9088 55.0909 37.2724L56.2727 34.8179C56.4545 34.4542 56.3636 34.0906 56.0909 33.8179L53 30.727C52.7272 30.4542 52.2727 30.3633 51.909 30.5451L49.5454 31.8179C48.909 31.4542 48.1818 31.1815 47.5454 30.9997L46.7272 28.4542C46.6363 28.0906 46.2727 27.8179 45.8181 27.8179H41.4545C41.2727 27.8179 41.1818 27.8179 41 27.9088C41.2727 28.3633 41.4545 28.9088 41.4545 29.4542V34.9997C41.4545 36.1815 40.7272 37.1815 39.6363 37.5451L37.0909 38.4542C36.909 38.9088 36.7272 39.3633 36.5454 39.727L37.7272 42.0906C38.2727 43.1815 38.0909 44.3633 37.1818 45.2724L33.2727 49.1815C32.8181 49.6361 32.2727 49.9088 31.7272 49.9997L30.909 51.6361C30.7272 51.9997 30.8181 52.3633 31.0909 52.6361L34.1818 55.727C34.4545 55.9997 34.909 56.0906 35.2727 55.9088L37.7272 54.727C38.3636 55.0906 39.0909 55.3633 39.7272 55.5451L40.6363 58.0906C40.7272 58.4542 41.0909 58.727 41.5454 58.727H45.909C46.2727 58.727 46.6363 58.4542 46.8181 58.0906L47.6363 55.5451C48.3636 55.2724 49 54.9997 49.6363 54.727L52.0909 55.9088C52.4545 56.0906 52.8181 55.9997 53.1818 55.727L56.2727 52.6361C56.5454 52.3633 56.6363 51.9088 56.4545 51.6361L55.2727 49.1815C55.6363 48.5451 55.909 47.8179 56.0909 47.1815L58.6363 46.2724C59 46.1815 59.2727 45.8179 59.2727 45.3633V40.9997C59.0909 40.6361 58.8181 40.3633 58.4545 40.1815ZM44.5454 49.3633C41.1818 49.3633 38.4545 46.6361 38.4545 43.2724C38.4545 39.9088 41.1818 37.1815 44.5454 37.1815C47.909 37.1815 50.6363 39.9088 50.6363 43.2724C50.6363 46.6361 47.909 49.3633 44.5454 49.3633Z" fill="#FB9100"/>
</svg>
