<svg width="60" height="60" viewBox="0 0 60 60" fill="none" xmlns="http://www.w3.org/2000/svg">
<path d="M39.09 28.6361L35.7264 27.4542C35.4537 26.5451 35.09 25.6361 34.5446 24.727L36.09 21.5451C36.2718 21.1815 36.1809 20.727 35.9082 20.5451L31.9991 16.6361C31.7264 16.3633 31.2718 16.2724 30.9991 16.4542L27.8173 17.9997C26.9082 17.5451 25.9991 17.1815 25.09 16.8179L23.9082 13.4542C23.8173 13.0906 23.4537 12.8179 23.09 12.8179H17.5446C17.1809 12.8179 16.8173 13.0906 16.6355 13.4542L15.4537 16.8179C14.5446 17.0906 13.6355 17.4542 12.7264 17.9997L9.63548 16.3633C9.27184 16.1815 8.9082 16.2724 8.54457 16.5451L4.63548 20.4542C4.36275 20.727 4.27184 21.1815 4.45366 21.4542L5.99911 24.6361C5.54457 25.5451 5.18093 26.4542 4.9082 27.3633L1.54457 28.5451C1.18093 28.727 0.908203 29.0906 0.908203 29.4542V34.9997C0.908203 35.3633 1.18093 35.727 1.54457 35.9088L4.9082 37.0906C5.18093 37.9997 5.54457 38.9088 6.09002 39.8179L4.54457 42.9997C4.36275 43.3633 4.45366 43.8179 4.72638 44.0906L8.63548 47.9997C8.9082 48.2724 9.36275 48.3633 9.72639 48.1815L12.9082 46.636C13.8173 47.0906 14.7264 47.4542 15.6355 47.8179L16.8173 51.1815C16.9082 51.5451 17.2718 51.8179 17.6355 51.8179H23.1809C23.5446 51.8179 23.9082 51.5451 23.9991 51.1815L25.1809 47.8179C26.09 47.5451 26.9991 47.1815 27.9082 46.636L31.09 48.1815C31.4537 48.3633 31.8173 48.2724 32.09 47.9997L35.9991 44.0906C36.2718 43.8179 36.3627 43.3633 36.1809 42.9997L34.5446 39.727C34.9991 38.8179 35.3627 37.9088 35.7264 36.9997L39.09 35.8179C39.4537 35.727 39.7264 35.3633 39.7264 34.9088V29.3633C39.7264 29.0906 39.4537 28.727 39.09 28.6361ZM20.2718 39.9997C15.9991 39.9997 12.5446 36.5451 12.5446 32.2724C12.5446 27.9997 15.9991 24.5451 20.2718 24.5451C24.5446 24.5451 27.9991 27.9997 27.9991 32.2724C27.9991 36.4542 24.5446 39.9997 20.2718 39.9997Z" fill="#FB9100"/>
<path d="M58.454 10.5453L56.6358 9.90891C56.454 9.45437 56.2722 8.99982 56.0904 8.63619L56.9086 6.90891C57.0904 6.54528 56.9995 6.18164 56.7267 5.818L54.5449 3.54528C54.2722 3.27255 53.8177 3.18164 53.5449 3.36346L51.8177 4.18164C51.3631 3.99982 50.9995 3.818 50.5449 3.63619L49.9086 1.818C49.8177 1.45437 49.454 1.18164 49.0904 1.18164H45.8177C45.454 1.18164 45.0904 1.45437 44.9086 1.818L44.2722 3.63619C43.8177 3.818 43.3631 3.99982 42.9995 4.18164L41.2722 3.36346C40.9086 3.18164 40.454 3.27255 40.1813 3.54528L37.9086 5.818C37.6358 6.09073 37.5449 6.54528 37.7267 6.90891L38.5449 8.63619C38.3631 9.09073 38.1813 9.45437 37.9995 9.90891L36.1813 10.5453C35.8176 10.6362 35.5449 10.9998 35.5449 11.3635V14.6362C35.5449 14.9998 35.8176 15.3635 36.1813 15.4544L37.9995 16.0907C38.1813 16.5453 38.3631 16.9998 38.5449 17.4544L37.7267 19.0907C37.5449 19.4544 37.6358 19.9089 37.9086 20.1816L40.1813 22.4544C40.454 22.7271 40.9086 22.818 41.2722 22.6362L42.9995 21.818C43.454 21.9998 43.9086 22.1816 44.2722 22.3635L44.9086 24.1816C44.9995 24.5453 45.3631 24.818 45.8177 24.818H49.0904C49.454 24.818 49.8177 24.5453 49.9086 24.1816L50.5449 22.3635C50.9995 22.1816 51.454 21.9998 51.8177 21.818L53.5449 22.6362C53.9086 22.818 54.2722 22.7271 54.6358 22.4544L56.9086 20.1816C57.1813 19.9089 57.2722 19.4544 57.0904 19.0907L56.2722 17.3635C56.454 16.9089 56.6358 16.4544 56.8177 15.9998L58.6358 15.3635C58.9995 15.2725 59.2722 14.9089 59.2722 14.5453V11.2725C59.0904 10.9998 58.8177 10.6362 58.454 10.5453ZM47.3631 17.5453C44.8176 17.5453 42.8176 15.5453 42.8176 12.9998C42.8176 10.5453 44.8176 8.45437 47.3631 8.45437C49.8176 8.45437 51.9086 10.4544 51.9086 12.9998C51.9086 15.5453 49.8176 17.5453 47.3631 17.5453Z" fill="#FB9100"/>
<path d="M58.4545 40.1815L55.909 39.2724C55.7272 38.5451 55.4545 37.9088 55.0909 37.2724L56.2727 34.8179C56.4545 34.4542 56.3636 34.0906 56.0909 33.8179L53 30.727C52.7272 30.4542 52.2727 30.3633 51.909 30.5451L49.5454 31.8179C48.909 31.4542 48.1818 31.1815 47.5454 30.9997L46.7272 28.4542C46.6363 28.0906 46.2727 27.8179 45.8181 27.8179H41.4545C41.2727 27.8179 41.1818 27.8179 41 27.9088C41.2727 28.3633 41.4545 28.9088 41.4545 29.4542V34.9997C41.4545 36.1815 40.7272 37.1815 39.6363 37.5451L37.0909 38.4542C36.909 38.9088 36.7272 39.3633 36.5454 39.727L37.7272 42.0906C38.2727 43.1815 38.0909 44.3633 37.1818 45.2724L33.2727 49.1815C32.8181 49.6361 32.2727 49.9088 31.7272 49.9997L30.909 51.6361C30.7272 51.9997 30.8181 52.3633 31.0909 52.6361L34.1818 55.727C34.4545 55.9997 34.909 56.0906 35.2727 55.9088L37.7272 54.727C38.3636 55.0906 39.0909 55.3633 39.7272 55.5451L40.6363 58.0906C40.7272 58.4542 41.0909 58.727 41.5454 58.727H45.909C46.2727 58.727 46.6363 58.4542 46.8181 58.0906L47.6363 55.5451C48.3636 55.2724 49 54.9997 49.6363 54.727L52.0909 55.9088C52.4545 56.0906 52.8181 55.9997 53.1818 55.727L56.2727 52.6361C56.5454 52.3633 56.6363 51.9088 56.4545 51.6361L55.2727 49.1815C55.6363 48.5451 55.909 47.8179 56.0909 47.1815L58.6363 46.2724C59 46.1815 59.2727 45.8179 59.2727 45.3633V40.9997C59.0909 40.6361 58.8181 40.3633 58.4545 40.1815ZM44.5454 49.3633C41.1818 49.3633 38.4545 46.6361 38.4545 43.2724C38.4545 39.9088 41.1818 37.1815 44.5454 37.1815C47.909 37.1815 50.6363 39.9088 50.6363 43.2724C50.6363 46.6361 47.909 49.3633 44.5454 49.3633Z" fill="#FB9100"/>
</svg>
