<svg width="60" height="60" viewBox="0 0 60 60" fill="none" xmlns="http://www.w3.org/2000/svg">
<path d="M1.66687 38.3857H8.33313C9.25354 38.3857 10 39.1316 10 40.052V56.7189C10 57.6393 9.25354 58.3857 8.33313 58.3857H1.66687C0.74646 58.3857 0 57.6393 0 56.7189V40.052C0 39.1316 0.74646 38.3857 1.66687 38.3857Z" fill="#FB9100"/>
<path d="M18.3323 25.0518H24.9991C25.9196 25.0518 26.666 25.7982 26.666 26.7186V56.7186C26.666 57.639 25.9196 58.3855 24.9991 58.3855H18.3323C17.4119 58.3855 16.666 57.639 16.666 56.7186V26.7186C16.666 25.7982 17.4119 25.0518 18.3323 25.0518Z" fill="#FB9100"/>
<path d="M35.0009 31.7188H41.6677C42.5881 31.7188 43.334 32.4652 43.334 33.3856V56.7188C43.334 57.6392 42.5881 58.3856 41.6677 58.3856H35.0009C34.0804 58.3856 33.334 57.6392 33.334 56.7188V33.3856C33.334 32.4652 34.0804 31.7188 35.0009 31.7188Z" fill="#FB9100"/>
<path d="M51.6669 21.7188H58.3331C59.2535 21.7188 60 22.4652 60 23.3856V56.7188C60 57.6392 59.2535 58.3856 58.3331 58.3856H51.6669C50.7465 58.3856 50 57.6392 50 56.7188V23.3856C50 22.4652 50.7465 21.7188 51.6669 21.7188Z" fill="#FB9100"/>
<path d="M55 1.71875C52.24 1.7218 50.0031 3.95874 50 6.71875C50.0067 7.26318 50.1031 7.80273 50.2856 8.31543L41.9421 13.2751C40.8472 12.1136 39.2596 11.5509 37.6776 11.7627C36.095 11.9745 34.7119 12.9352 33.9606 14.3439L26.6016 10.6989C26.6376 10.4846 26.6589 10.2686 26.6669 10.0519C26.6705 8.02795 25.4541 6.20178 23.5852 5.4248C21.7163 4.64844 19.5636 5.07507 18.1323 6.50574C16.7004 7.9364 16.2726 10.0885 17.0483 11.958L7.50244 19.082C6.74561 18.631 5.88135 18.3905 5 18.3856C2.23877 18.3856 0 20.6238 0 23.3856C0 26.1469 2.23877 28.3856 5 28.3856C7.76123 28.3856 10 26.1469 10 23.3856C9.99573 22.7838 9.8822 22.1887 9.66492 21.6278L19.306 14.4324C21.192 15.484 23.5443 15.1758 25.0952 13.6731L33.4637 17.818C34.0216 20.3027 36.3599 21.9702 38.891 21.6882C41.4221 21.4062 43.3362 19.2657 43.3331 16.7188C43.3331 16.5918 43.3051 16.4722 43.2959 16.3477L52.3706 10.9528C53.1573 11.4502 54.0686 11.7157 55 11.7188C57.7612 11.7188 60 9.47998 60 6.71875C60 3.95752 57.7612 1.71875 55 1.71875Z" fill="#FB9100"/>
</svg>
