<svg width="60" height="60" viewBox="0 0 60 60" fill="none" xmlns="http://www.w3.org/2000/svg">
<path d="M52.5 3.75H48.75C47.7136 3.75 46.875 4.58954 46.875 5.625C46.875 6.43147 47.3895 7.10484 48.1041 7.36954L43.125 12.3486L40.7007 9.92432C39.9683 9.19189 38.7817 9.19189 38.0493 9.92432L30 17.9736V23.2764L39.375 13.9014L41.7993 16.3257C42.5317 17.0581 43.7183 17.0581 44.4507 16.3257L50.7553 10.021C51.0199 10.7352 51.693 11.25 52.5 11.25C53.5364 11.25 54.375 10.4105 54.375 9.375V5.625C54.375 4.58954 53.5364 3.75 52.5 3.75Z" fill="#FB9100"/>
<path d="M28.4399 52.305C27.6196 51.4856 27.3871 50.2689 27.8467 49.205L29.2639 46.5967C29.1705 46.3834 29.0808 46.1673 28.9984 45.9485L26.3123 45.1602C25.069 44.6722 24.375 43.6469 24.375 42.4905V40.0095C24.375 38.8531 25.069 37.8278 26.1438 37.3984L28.9966 36.5543C29.0808 36.3345 29.1705 36.1185 29.2639 35.9061L27.9218 33.4515C27.3871 32.2311 27.6196 31.0144 28.4399 30.195L28.6349 30H5.625C4.58942 30 3.75 30.8394 3.75 31.875V50.625C3.75 51.6605 4.58942 52.5 5.625 52.5H28.6349L28.4399 52.305ZM21.9818 42.0882L12.6068 46.7757C12.475 46.8416 12.3303 46.8745 12.1875 46.8745C12.0154 46.8745 11.8451 46.8279 11.6949 46.7345C11.4185 46.5633 11.25 46.2621 11.25 45.937V36.562C11.25 36.237 11.4185 35.9358 11.6949 35.7646C11.9696 35.5943 12.3175 35.5788 12.6068 35.7234L21.9818 40.4109C22.2986 40.5702 22.5 40.8943 22.5 41.2495C22.5 41.6048 22.2986 41.9289 21.9818 42.0882Z" fill="#FB9100"/>
<path d="M55.6606 39.1393L52.0385 38.0769C51.8104 37.3003 51.5064 36.5567 51.1252 35.8597L52.9324 32.5526C53.0834 32.2002 53.0047 31.7915 52.7336 31.5203L50.9795 29.7663C50.7085 29.4953 50.2998 29.4166 49.9474 29.5675L46.6403 31.3747C45.9433 30.9935 45.1997 30.6896 44.4231 30.4615L43.3607 26.8393C43.2184 26.4833 42.8736 26.25 42.4903 26.25H40.0097C39.6264 26.25 39.2816 26.4833 39.1393 26.8393L38.0769 30.4615C37.3003 30.6896 36.5567 30.9935 35.8597 31.3747L32.5526 29.5675C32.2002 29.4166 31.7915 29.4953 31.5205 29.7663L29.7664 31.5203C29.4953 31.7915 29.4166 32.2002 29.5676 32.5526L31.3748 35.8597C30.9936 36.5567 30.6896 37.3003 30.4615 38.0769L26.8394 39.1393C26.4833 39.2816 26.25 39.6263 26.25 40.0097V42.4902C26.25 42.8736 26.4833 43.2184 26.8394 43.3607L30.4615 44.4231C30.6896 45.1997 30.9936 45.9433 31.3748 46.6403L29.5676 49.9474C29.4166 50.2998 29.4953 50.7085 29.7664 50.9795L31.5205 52.7336C31.7915 53.0047 32.2002 53.0834 32.5526 52.9324L35.8597 51.1252C36.5567 51.5064 37.3003 51.8104 38.0769 52.0385L39.1393 55.6606C39.2816 56.0165 39.6264 56.25 40.0097 56.25H42.4903C42.8736 56.25 43.2184 56.0165 43.3607 55.6606L44.4231 52.0385C45.1997 51.8104 45.9433 51.5064 46.6403 51.1252L49.9474 52.9324C50.2998 53.0834 50.7085 53.0047 50.9795 52.7336L52.7336 50.9795C53.0047 50.7085 53.0834 50.2998 52.9324 49.9474L51.1252 46.6403C51.5064 45.9433 51.8104 45.1997 52.0385 44.4231L55.6606 43.3607C56.0167 43.2184 56.25 42.8736 56.25 42.4902V40.0097C56.25 39.6263 56.0167 39.2816 55.6606 39.1393ZM41.25 46.875C38.1434 46.875 35.625 44.3566 35.625 41.25C35.625 38.1434 38.1434 35.625 41.25 35.625C44.3566 35.625 46.875 38.1434 46.875 41.25C46.875 44.3566 44.3566 46.875 41.25 46.875Z" fill="#FB9100"/>
<path d="M41.25 45C43.3211 45 45 43.3211 45 41.25C45 39.1789 43.3211 37.5 41.25 37.5C39.1789 37.5 37.5 39.1789 37.5 41.25C37.5 43.3211 39.1789 45 41.25 45Z" fill="#FB9100"/>
<path d="M13.125 44.42L19.4659 41.2496L13.125 38.0791V44.42Z" fill="#FB9100"/>
<path d="M22.5 3.75V9.375H28.125L22.5 3.75Z" fill="#FB9100"/>
<path d="M22.5 11.25C21.4644 11.25 20.625 10.4105 20.625 9.375V3.75H7.5C6.46442 3.75 5.625 4.58942 5.625 5.625V28.125H28.125V11.25H22.5ZM23.4375 26.25H10.3125C9.79477 26.25 9.375 25.8302 9.375 25.3125C9.375 24.7947 9.79477 24.375 10.3125 24.375H23.4375C23.9552 24.375 24.375 24.7947 24.375 25.3125C24.375 25.8302 23.9552 26.25 23.4375 26.25ZM23.4375 22.5H10.3125C9.79477 22.5 9.375 22.0802 9.375 21.5625C9.375 21.0447 9.79477 20.625 10.3125 20.625H23.4375C23.9552 20.625 24.375 21.0447 24.375 21.5625C24.375 22.0802 23.9552 22.5 23.4375 22.5ZM23.4375 18.75H10.3125C9.79477 18.75 9.375 18.3302 9.375 17.8125C9.375 17.2947 9.79477 16.875 10.3125 16.875H23.4375C23.9552 16.875 24.375 17.2947 24.375 17.8125C24.375 18.3302 23.9552 18.75 23.4375 18.75Z" fill="#FB9100"/>
</svg>
