<svg width="60" height="60" viewBox="0 0 60 60" fill="none" xmlns="http://www.w3.org/2000/svg">
<path d="M11.5664 21.8643H17.3583V27.6561H11.5664V21.8643Z" fill="#FB9100"/>
<path d="M7.49852 58.1171H37.4904C40.5833 58.1171 43.1138 55.5865 43.1138 52.4936V46.8702C45.1368 46.6267 47.0657 45.8776 48.7144 44.6609L54.9099 50.8571C56.6372 52.576 59.2949 49.9538 57.5606 48.2065L51.3649 42.01C54.8688 37.4308 54.3131 30.4472 50.1619 26.4194C48.2499 24.5262 45.757 23.3079 43.1138 22.9891V7.50584C43.1138 4.41284 40.5833 1.88232 37.4904 1.88232H7.49852C4.40563 1.88234 1.875 4.41286 1.875 7.50584V52.4936C1.875 55.5865 4.40563 58.1171 7.49852 58.1171ZM25.0625 27.6566H32.0544C31.1816 28.7788 30.5458 30.0674 30.1423 31.4056H25.0624C22.6016 31.3589 22.5991 27.7038 25.0625 27.6566ZM25.0626 19.0153C25.0625 19.0153 35.2972 19.0153 35.2972 19.0153C36.3281 19.0153 37.1717 19.8587 37.1717 20.8897C37.1717 21.9207 36.3281 22.7643 35.2972 22.7643H25.0625C22.6107 22.7565 22.6058 19.0233 25.0626 19.0153ZM29.6737 36.298C29.825 37.5628 30.1649 38.8799 30.7423 40.047H9.69178C7.23542 40.0018 7.22454 36.3454 9.69178 36.298H29.6737ZM21.1074 29.5312C21.1074 30.562 20.2826 31.4056 19.2328 31.4056H9.69178C8.66066 31.4056 7.81723 30.562 7.81723 29.5312V19.99C7.81723 18.959 8.66066 18.1154 9.69178 18.1154H19.2328C20.2826 18.1154 21.1074 18.959 21.1074 19.99L21.1074 29.5312ZM35.2972 48.7071H9.69178C7.23874 48.6642 7.21997 44.9931 9.69189 44.9581C9.69178 44.9581 34.9786 44.9581 34.9786 44.9581C35.6104 45.3749 36.2812 45.7525 36.9843 46.0267C37.0964 46.2647 37.1801 46.5406 37.1717 46.8327C37.1717 47.8635 36.3281 48.7071 35.2972 48.7071ZM47.5002 29.0813C55.0603 36.9984 43.6749 48.319 35.7844 40.7967C28.2444 32.8319 39.5602 21.5459 47.5002 29.0813ZM5.62397 7.50584C5.62397 6.47497 6.46751 5.63142 7.49852 5.63142H37.4904C38.5213 5.63142 39.3648 6.47497 39.3648 7.50584V8.70552H5.62397V7.50584Z" fill="#FB9100"/>
</svg>
