<svg width="60" height="60" viewBox="0 0 60 60" fill="none" xmlns="http://www.w3.org/2000/svg">
<g clip-path="url(#clip0_5731_1798)">
<path d="M23.4 2.03418C21 2.03418 18.7969 3.4498 17.7656 5.56855C20.4281 6.60918 21.8344 9.34668 21.2156 12.6186C21.1312 13.0686 20.7375 13.3779 20.2969 13.3779C20.2406 13.3779 20.1844 13.3779 20.1281 13.3592C19.6125 13.2654 19.275 12.7779 19.3781 12.2717C19.7906 10.0686 19.0031 7.63106 16.3312 7.09668H16.3219C16.2656 7.08731 16.2094 7.06855 16.1625 7.0498C16.1531 7.0498 16.1344 7.04981 16.125 7.04043C15.3 6.66543 14.4375 6.47793 13.5469 6.47793C10.0875 6.47793 7.26562 9.2998 7.26562 12.7592C7.26562 13.6123 7.44375 14.4467 7.78125 15.2436C7.79063 15.2717 7.8 15.2998 7.80937 15.3279C8.29688 16.5654 9.55313 17.1654 10.7531 16.7248C11.2312 16.5467 11.775 16.7998 11.9531 17.2779C12.1313 17.7654 11.8781 18.3092 11.3906 18.4873C10.9219 18.6561 10.4438 18.7404 9.96562 18.7404C8.54063 18.7404 7.2 17.9904 6.42188 16.7248C3.73125 17.4748 1.85625 19.9217 1.85625 22.7717C1.85625 23.8123 2.10938 24.8248 2.59687 25.7248C4.89375 24.7123 7.6125 25.4811 9.13125 27.6842C9.42188 28.1154 9.30937 28.6967 8.8875 28.9873C8.71875 29.0998 8.54062 29.1561 8.35312 29.1561C8.05312 29.1561 7.7625 29.0154 7.58438 28.7529C6.46875 27.1217 4.37813 26.6811 2.80312 27.7404H2.79375C2.775 27.7592 2.76562 27.7686 2.74688 27.7779C1.05 28.7811 0 30.6092 0 32.5592C0 35.2311 1.90312 37.5373 4.52812 38.0342C4.85625 38.0904 5.12813 38.3342 5.24063 38.6529C5.34375 38.9811 5.26875 39.3373 5.03437 39.5904C3.96562 40.7436 3.38437 42.2623 3.38437 43.8467C3.38437 47.2967 6.17813 50.1092 9.61875 50.1279C10.7719 49.8654 13.7063 48.8342 13.9781 47.4373C14.0719 46.9311 14.5594 46.6029 15.075 46.6967C15.5813 46.7998 15.9188 47.2967 15.8156 47.8029C15.3656 50.1373 12.2625 51.3186 10.6219 51.7967C10.6969 54.8061 13.1531 57.2154 16.1812 57.2154C17.1 57.2154 18 56.9811 18.8156 56.5498H18.825C18.8906 56.4561 18.9844 56.3904 19.0969 56.3342C20.85 55.4436 21.5625 53.4186 20.7281 51.7217C20.4938 51.2529 20.6812 50.6904 21.15 50.4654C21.6094 50.2311 22.1719 50.4186 22.4062 50.8873C23.4844 53.0623 22.9313 55.5654 21.1969 57.1404C22.0688 57.6748 23.0719 57.9654 24.1219 57.9654C26.3625 57.9654 28.4156 56.5873 29.2687 54.5154V31.8654C28.0781 30.7779 26.4 30.6279 25.0688 31.5279C24.6375 31.8186 24.0562 31.7154 23.7656 31.2842C23.475 30.8529 23.5875 30.2717 24.0188 29.9811C25.6219 28.8936 27.6094 28.7998 29.2687 29.6248V20.6623C28.0781 19.5748 26.4 19.4248 25.0594 20.3154C24.6281 20.6061 24.0469 20.4842 23.7656 20.0623C23.475 19.6311 23.5875 19.0498 24.0188 18.7592C25.6219 17.6811 27.6094 17.5967 29.2687 18.4123V6.09355C28.3594 3.65605 26.025 2.03418 23.4 2.03418ZM14.0531 41.0904C13.9969 41.0904 13.9313 41.0811 13.875 41.0717C10.9875 40.5092 9.15937 37.7529 9.7125 34.7904C9.80625 34.2842 10.2937 33.9467 10.8094 34.0404C11.3156 34.1342 11.6531 34.6217 11.55 35.1373C11.1937 37.0686 12.3656 38.8686 14.2313 39.2342C14.7375 39.3279 15.075 39.8248 14.9719 40.3311C14.8875 40.7811 14.4937 41.0904 14.0531 41.0904ZM13.4906 24.5248C13.0594 24.8154 12.4781 24.7029 12.1875 24.2717C11.8969 23.8404 12.0094 23.2592 12.4406 22.9686C14.8781 21.3279 18.1219 21.9842 19.8281 24.4686C20.1187 24.8998 20.0062 25.4811 19.5844 25.7717C19.4156 25.8842 19.2375 25.9404 19.05 25.9404C18.75 25.9404 18.4594 25.7904 18.2812 25.5279C17.1656 23.9061 15.0656 23.4654 13.4906 24.5248ZM24.3 38.9998C24.375 39.5061 24.0187 39.9842 23.5031 40.0592C23.2406 40.0967 22.9875 40.1154 22.7344 40.1154C20.1375 40.1154 17.9156 38.2123 17.5031 35.5029C17.4281 34.9873 17.775 34.5092 18.2906 34.4342C18.7969 34.3498 19.2844 34.7061 19.3594 35.2217C19.65 37.1623 21.3656 38.4654 23.2406 38.2029C23.7469 38.1186 24.225 38.4842 24.3 38.9998Z" fill="#FB9100"/>
<path d="M36.4504 14.6435L37.6879 12.6278C37.9129 12.6747 38.1473 12.7122 38.391 12.7122C40.341 12.7122 41.9254 11.1278 41.9254 9.17783C41.9254 7.23721 40.341 5.65283 38.391 5.65283C36.441 5.65283 34.8566 7.23721 34.8566 9.17783C34.8566 10.0028 35.1473 10.7341 35.616 11.3435L34.7254 12.7778H30.8535V15.2153H35.4098C35.841 15.2153 36.2348 14.9997 36.4504 14.6435Z" fill="#FB9100"/>
<path d="M44.3258 21.131L47.7477 17.1278C47.9352 16.9028 48.0383 16.6216 48.0383 16.3403V12.4778C49.3789 11.981 50.3539 10.6966 50.3539 9.17783C50.3539 7.23721 48.7602 5.65283 46.8195 5.65283C44.8695 5.65283 43.2852 7.23721 43.2852 9.17783C43.2852 10.6966 44.2508 11.9903 45.6008 12.4778V15.8903L42.8352 19.1247H30.8633V21.5622H43.3977C43.7539 21.5622 44.0914 21.4028 44.3258 21.131Z" fill="#FB9100"/>
<path d="M45.1414 26.5311L49.9695 20.9904H53.1664C53.6633 22.3311 54.9477 23.2967 56.4664 23.2967C58.4164 23.2967 60.0008 21.7123 60.0008 19.7623C60.0008 17.8217 58.4164 16.2373 56.4664 16.2373C54.9383 16.2373 53.6539 17.2123 53.1664 18.5529H49.4164C49.0602 18.5529 48.7227 18.7029 48.4883 18.9654L43.6602 24.5061H30.8633V26.9436H44.2227C44.5789 26.9436 44.9164 26.7936 45.1414 26.5311Z" fill="#FB9100"/>
<path d="M38.3992 47.2873C38.1555 47.2873 37.9211 47.3248 37.6961 47.3717L36.4586 45.3561C36.2336 44.9998 35.8492 44.7842 35.4273 44.7842H30.8711V47.2217H34.743L35.6242 48.6561C35.1555 49.2561 34.8648 49.9967 34.8648 50.8217C34.8648 52.7623 36.4492 54.3467 38.3992 54.3467C40.3492 54.3467 41.9336 52.7623 41.9336 50.8217C41.9336 48.8717 40.3492 47.2873 38.3992 47.2873Z" fill="#FB9100"/>
<path d="M48.0383 47.5219V43.6594C48.0383 43.3781 47.9352 43.0969 47.7477 42.8625L44.3258 38.8594C44.0914 38.5969 43.7539 38.4375 43.3977 38.4375H30.8633V40.875H42.8352L45.6008 44.1094V47.5219C44.2508 48.0187 43.2852 49.3031 43.2852 50.8219C43.2852 52.7625 44.8695 54.3469 46.8195 54.3469C48.7602 54.3469 50.3539 52.7625 50.3539 50.8219C50.3539 49.3031 49.3789 48.0094 48.0383 47.5219Z" fill="#FB9100"/>
<path d="M56.4664 36.703C54.9477 36.703 53.6633 37.6687 53.1664 39.0093H49.9695L45.1414 33.4687C44.9164 33.2062 44.5789 33.0562 44.2227 33.0562H30.8633V35.4937H43.6602L48.4883 41.0343C48.7133 41.2968 49.0508 41.4468 49.4164 41.4468H53.1664C53.6539 42.7874 54.9383 43.7624 56.4664 43.7624C58.4164 43.7624 60.0008 42.178 60.0008 40.2374C60.0008 38.2874 58.4164 36.703 56.4664 36.703Z" fill="#FB9100"/>
</g>
<defs>
<clipPath id="clip0_5731_1798">
<rect width="60" height="60" fill="white"/>
</clipPath>
</defs>
</svg>
