<svg width="60" height="60" viewBox="0 0 60 60" fill="none" xmlns="http://www.w3.org/2000/svg">
<path d="M20.7264 19.0693C16.9947 19.0693 13.959 22.1051 13.959 25.8368C13.959 29.5697 16.9947 32.6054 20.7264 32.6054C24.4582 32.6054 27.4951 29.5697 27.4951 25.8368C27.4951 22.1051 24.4582 19.0693 20.7264 19.0693Z" fill="#FB9100"/>
<path d="M57.8466 4.125H2.15227C0.963633 4.125 0 5.08863 0 6.27738V40.7766C0 41.9652 0.963516 42.9288 2.15227 42.9288H3.17391L12.7921 33.3107C13.032 33.0708 13.0555 32.6852 12.8378 32.425C11.2738 30.5551 10.3603 28.1236 10.45 25.481C10.6343 20.0484 15.0905 15.6606 20.5253 15.5564C26.3652 15.4444 31.1368 20.2267 31.0073 26.0692C30.8866 31.5084 26.4826 35.9504 21.0445 36.1154C19.4136 36.165 17.865 35.8322 16.4794 35.2011C16.2293 35.0872 15.9354 35.1387 15.741 35.3331L8.14418 42.9288H57.8466C59.0346 42.9288 60 41.9634 60 40.7766V6.27855C60 5.09168 59.0346 4.125 57.8466 4.125ZM37.2912 34.6393C37.2912 35.6106 36.505 36.3968 35.5337 36.3968C34.5636 36.3968 33.7762 35.6106 33.7762 34.6393V27.8568C33.7762 26.8867 34.5636 26.0993 35.5337 26.0993C36.505 26.0993 37.2912 26.8867 37.2912 27.8568V34.6393ZM42.7979 34.6393C42.7979 35.6106 42.0117 36.3968 41.0405 36.3968C40.0704 36.3968 39.283 35.6106 39.283 34.6393V16.1402C39.283 15.1702 40.0704 14.3828 41.0405 14.3828C42.0117 14.3828 42.7979 15.1702 42.7979 16.1402V34.6393ZM48.396 34.6393C48.396 35.6106 47.6086 36.3968 46.6385 36.3968C45.6673 36.3968 44.8811 35.6106 44.8811 34.6393V20.8268C44.8811 19.8567 45.6673 19.0693 46.6385 19.0693C47.6086 19.0693 48.396 19.8567 48.396 20.8268V34.6393ZM53.9977 34.6393C53.9977 35.6106 53.2103 36.3968 52.2402 36.3968C51.2689 36.3968 50.4827 35.6106 50.4827 34.6393V25.5134C50.4827 24.5433 51.2689 23.7559 52.2402 23.7559C53.2103 23.7559 53.9977 24.5433 53.9977 25.5134V34.6393Z" fill="#FB9100"/>
<path d="M44.0713 52.4979L44.0596 52.4928C41.3271 51.3212 38.4961 50.5048 35.5975 50.0465V46.7111C35.5975 46.3481 35.3032 46.0537 34.94 46.0537H33.7758H32.0826H25.0602C24.6971 46.0537 24.4028 46.3481 24.4028 46.7111V50.0507C21.5201 50.5087 18.7045 51.3207 15.9867 52.4843C15.1157 52.8571 14.6573 53.8525 14.9933 54.7385C15.3504 55.6802 16.4157 56.1257 17.3312 55.7321C21.3571 54.0025 25.6202 53.1247 30.002 53.123H30.0387C34.383 53.123 38.6819 54.0076 42.6735 55.7227L42.6955 55.7322C42.9218 55.8295 43.1569 55.8754 43.3885 55.8754C44.2007 55.8753 44.9661 55.3091 45.1263 54.399C45.2664 53.6018 44.8152 52.8167 44.0713 52.4979Z" fill="#FB9100"/>
<path d="M3.17444 42.9287L0.536436 45.572C-0.150166 46.2586 -0.150166 47.3705 0.536436 48.0571C0.879678 48.4003 1.32968 48.5714 1.77956 48.5714C2.22944 48.5714 2.67944 48.4003 3.02151 48.0571L8.14448 42.9287H3.17444Z" fill="#FB9100"/>
</svg>
