<svg width="50" height="50" viewBox="0 0 50 50" fill="none" xmlns="http://www.w3.org/2000/svg">
<path d="M4.6875 12.5H45.3125V46.875H4.6875V12.5Z" fill="#F2F2F2"/>
<path fill-rule="evenodd" clip-rule="evenodd" d="M40.625 12.5H34.375C34.375 14.2266 35.7734 15.625 37.5 15.625C39.2266 15.625 40.625 14.2266 40.625 12.5ZM28.125 12.5H21.875C21.875 14.2266 23.2734 15.625 25 15.625C26.7266 15.625 28.125 14.2266 28.125 12.5ZM34.375 12.5H28.125C28.125 14.2266 29.5234 15.625 31.25 15.625C32.9766 15.625 34.375 14.2266 34.375 12.5ZM21.875 12.5H15.625C15.625 14.2266 17.0234 15.625 18.75 15.625C20.4766 15.625 21.875 14.2266 21.875 12.5ZM46.875 12.5H40.625C40.625 14.2266 42.0234 15.625 43.75 15.625C45.4766 15.625 46.875 14.2266 46.875 12.5ZM9.375 12.5H3.125C3.125 14.2266 4.52344 15.625 6.25 15.625C7.97656 15.625 9.375 14.2266 9.375 12.5ZM15.625 12.5H9.375C9.375 14.2266 10.7734 15.625 12.5 15.625C14.2266 15.625 15.625 14.2266 15.625 12.5Z" fill="#F9C44A"/>
<path fill-rule="evenodd" clip-rule="evenodd" d="M3.125 12.5L7.5 3.125H42.5L46.875 12.5H3.125Z" fill="#824AFF"/>
<path fill-rule="evenodd" clip-rule="evenodd" d="M40.625 39.0625C40.625 38.2031 39.9219 37.5 39.0625 37.5H10.9375C10.0781 37.5 9.375 38.2031 9.375 39.0625C9.375 39.9219 10.0781 40.625 10.9375 40.625H39.0625C39.9219 40.625 40.625 39.9219 40.625 39.0625Z" fill="#F9C44A"/>
<path fill-rule="evenodd" clip-rule="evenodd" d="M35.9375 23.4375C35.9375 23.0234 35.7734 22.625 35.4766 22.3359C35.1797 22.0469 34.7891 21.875 34.375 21.875H15.625C15.2109 21.875 14.8125 22.0391 14.5234 22.3359C14.2344 22.6328 14.0625 23.0234 14.0625 23.4375C14.0625 23.8516 14.2266 24.25 14.5234 24.5391C14.8203 24.8281 15.2109 25 15.625 25H34.375C34.7891 25 35.1875 24.8359 35.4766 24.5391C35.7656 24.2422 35.9375 23.8516 35.9375 23.4375Z" fill="#FE6B49"/>
<path fill-rule="evenodd" clip-rule="evenodd" d="M15.625 25L17.7109 34.375H32.2891L34.375 25" fill="#824AFF"/>
<path d="M47.4609 12.5C47.4609 12.4531 47.4453 12.4141 47.4375 12.375C47.4297 12.3359 47.4297 12.2969 47.4141 12.2656L43.0391 2.88281C42.9453 2.67969 42.7344 2.54688 42.5078 2.54688H7.5C7.27344 2.54688 7.0625 2.67969 6.96875 2.88281L2.59375 12.25C2.57812 12.2969 2.57812 12.3359 2.57031 12.375C2.5625 12.4141 2.54688 12.4531 2.54688 12.4922C2.54688 13.7578 3.17188 14.8594 4.125 15.5312C4.125 15.5625 4.10938 15.5938 4.10938 15.625V46.875C4.10938 47.1953 4.375 47.4609 4.69531 47.4609H21.875C22.1953 47.4609 22.4609 47.1953 22.4609 46.875C22.4609 46.5547 22.1953 46.2891 21.875 46.2891H5.27344V16.0625C5.58594 16.1484 5.90625 16.2109 6.25 16.2109C7.5625 16.2109 8.71875 15.5156 9.375 14.4844C10.0312 15.5156 11.1875 16.2109 12.5 16.2109C13.8125 16.2109 14.9688 15.5156 15.625 14.4844C16.2812 15.5156 17.4375 16.2109 18.75 16.2109C20.0625 16.2109 21.2188 15.5156 21.875 14.4844C22.5312 15.5156 23.6875 16.2109 25 16.2109C26.3125 16.2109 27.4688 15.5156 28.125 14.4844C28.7813 15.5156 29.9375 16.2109 31.25 16.2109C32.5625 16.2109 33.7188 15.5156 34.375 14.4844C35.0312 15.5156 36.1875 16.2109 37.5 16.2109C38.8125 16.2109 39.9688 15.5156 40.625 14.4844C41.2812 15.5156 42.4375 16.2109 43.75 16.2109C44.0938 16.2109 44.4141 16.1484 44.7266 16.0625V46.2891H28.125C27.8047 46.2891 27.5391 46.5547 27.5391 46.875C27.5391 47.1953 27.8047 47.4609 28.125 47.4609H45.3125C45.6328 47.4609 45.8984 47.1953 45.8984 46.875V15.625C45.8984 15.625 45.8828 15.5625 45.8828 15.5312C46.8359 14.8594 47.4609 13.7578 47.4609 12.5ZM45.9531 11.9141H41.0469L38.3125 3.71094H42.125L45.9531 11.9141ZM39.8125 11.9141H34.8594L33.2188 3.71094H37.0781L39.8125 11.9141ZM33.6641 11.9141H28.6797L28.1328 3.71094H32.0234L33.6641 11.9141ZM26.9531 3.71094L27.5 11.9141H22.5L23.0469 3.71094H26.9531ZM21.875 3.71094L21.3281 11.9141H16.3438L17.9844 3.71094H21.875ZM16.7891 3.71094L15.1484 11.9141H10.1953L12.9297 3.71094H16.7891ZM7.875 3.71094H11.6875L8.95312 11.9141H4.04687L7.875 3.71094ZM6.25 15.0391C5.05469 15.0391 4.04688 14.2031 3.78125 13.0859H8.72656C8.46094 14.2031 7.45312 15.0391 6.25781 15.0391H6.25ZM12.5 15.0391C11.3047 15.0391 10.2969 14.2031 10.0312 13.0859H14.9766C14.7109 14.2031 13.7031 15.0391 12.5078 15.0391H12.5ZM18.75 15.0391C17.5547 15.0391 16.5469 14.2031 16.2812 13.0859H21.2266C20.9609 14.2031 19.9531 15.0391 18.7578 15.0391H18.75ZM25 15.0391C23.8047 15.0391 22.7969 14.2031 22.5312 13.0859H27.4766C27.2109 14.2031 26.2031 15.0391 25.0078 15.0391H25ZM31.25 15.0391C30.0547 15.0391 29.0469 14.2031 28.7813 13.0859H33.7266C33.4609 14.2031 32.4531 15.0391 31.2578 15.0391H31.25ZM37.5 15.0391C36.3047 15.0391 35.2969 14.2031 35.0312 13.0859H39.9766C39.7109 14.2031 38.7031 15.0391 37.5078 15.0391H37.5ZM43.75 15.0391C42.5547 15.0391 41.5469 14.2031 41.2812 13.0859H46.2266C45.9609 14.2031 44.9531 15.0391 43.7578 15.0391H43.75ZM26.3594 46.875C26.3594 47.1953 26.0938 47.4609 25.7734 47.4609H24.2266C23.9062 47.4609 23.6406 47.1953 23.6406 46.875C23.6406 46.5547 23.9062 46.2891 24.2266 46.2891H25.7734C26.0938 46.2891 26.3594 46.5547 26.3594 46.875ZM8.78906 39.0625C8.78906 40.25 9.75 41.2109 10.9375 41.2109H39.0625C40.25 41.2109 41.2109 40.25 41.2109 39.0625C41.2109 37.875 40.25 36.9141 39.0625 36.9141H10.9375C9.75 36.9141 8.78906 37.875 8.78906 39.0625ZM40.0391 39.0625C40.0391 39.6016 39.6016 40.0391 39.0625 40.0391H10.9375C10.3984 40.0391 9.96094 39.6016 9.96094 39.0625C9.96094 38.5234 10.3984 38.0859 10.9375 38.0859H39.0625C39.6016 38.0859 40.0391 38.5234 40.0391 39.0625ZM11.9141 43.75C11.9141 43.4297 12.1797 43.1641 12.5 43.1641H37.5C37.8203 43.1641 38.0859 43.4297 38.0859 43.75C38.0859 44.0703 37.8203 44.3359 37.5 44.3359H12.5C12.1797 44.3359 11.9141 44.0703 11.9141 43.75ZM22.3594 18.4219C22.1797 18.1484 21.8125 18.0781 21.5469 18.2578L17.0078 21.2812H15.625C15.0547 21.2812 14.5078 21.5078 14.1094 21.9141C13.7109 22.3203 13.4766 22.8594 13.4766 23.4297C13.4766 24 13.7031 24.5469 14.1094 24.9453C14.3984 25.2344 14.7578 25.4297 15.1484 25.5156L17.1406 34.4922C17.2031 34.7578 17.4375 34.9531 17.7109 34.9531H32.2969C32.5703 34.9531 32.8125 34.7656 32.8672 34.4922L34.8594 25.5156C35.25 25.4219 35.6094 25.2344 35.8984 24.9453C36.2969 24.5469 36.5312 23.9922 36.5312 23.4297C36.5312 22.8672 36.3047 22.3203 35.8984 21.9141C35.5 21.5156 34.9453 21.2812 34.3828 21.2812H33L28.4609 18.2578C28.1953 18.0781 27.8281 18.1484 27.6484 18.4219C27.4688 18.6953 27.5391 19.0547 27.8125 19.2344L30.8906 21.2891H19.1406L22.2188 19.2422C22.4844 19.0625 22.5625 18.6953 22.3828 18.4297L22.3594 18.4219ZM31.8203 33.7891H18.1797L16.3594 25.5859H33.6484L31.8281 33.7891H31.8203ZM35.0625 22.75C35.25 22.9375 35.3516 23.1797 35.3516 23.4375C35.3516 23.6953 35.25 23.9453 35.0625 24.125C34.875 24.3047 34.6328 24.4141 34.375 24.4141H15.625C15.3672 24.4141 15.1172 24.3125 14.9375 24.125C14.7578 23.9375 14.6484 23.6953 14.6484 23.4375C14.6484 23.1797 14.75 22.9297 14.9375 22.75C15.125 22.5703 15.3672 22.4609 15.625 22.4609H34.375C34.6328 22.4609 34.8828 22.5625 35.0625 22.75ZM25.5859 28.125V31.25C25.5859 31.5703 25.3203 31.8359 25 31.8359C24.6797 31.8359 24.4141 31.5703 24.4141 31.25V28.125C24.4141 27.8047 24.6797 27.5391 25 27.5391C25.3203 27.5391 25.5859 27.8047 25.5859 28.125ZM22.4375 31.0469C22.5234 31.3594 22.3359 31.6797 22.0234 31.7656C21.9766 31.7813 21.9219 31.7891 21.875 31.7891C21.6172 31.7891 21.3828 31.6172 21.3125 31.3516L20.5 28.3359C20.4141 28.0234 20.6016 27.7031 20.9141 27.6172C21.2266 27.5391 21.5469 27.7188 21.6328 28.0313L22.4453 31.0469H22.4375ZM29.5 28.3828L28.6875 31.3984C28.6172 31.6641 28.3828 31.8359 28.125 31.8359C28.0781 31.8359 28.0234 31.8359 27.9766 31.8125C27.6641 31.7266 27.4766 31.4062 27.5625 31.0938L28.375 28.0781C28.4609 27.7656 28.7813 27.5859 29.0938 27.6641C29.4063 27.75 29.5938 28.0703 29.5078 28.3828H29.5Z" fill="black"/>
</svg>
