<svg width="50" height="50" viewBox="0 0 50 50" fill="none" xmlns="http://www.w3.org/2000/svg">
<path d="M16.6481 15.5411L11.7084 15.548L11.6948 7.2238C11.6945 6.99089 11.883 6.80183 12.1159 6.80154L16.2123 6.79578C16.4452 6.79548 16.6343 6.98396 16.6346 7.21687L16.6481 15.5411Z" fill="#FFB125"/>
<path d="M16.6347 7.21687C16.6344 6.98396 16.4453 6.79548 16.2124 6.79578L13.77 6.7992C13.9866 6.81658 14.1576 6.99578 14.158 7.21687L14.1716 15.5411L11.7085 15.5445V15.5479L16.6482 15.541L16.6347 7.21687Z" fill="#FF901D"/>
<path d="M24.817 6.6449L11.585 19.1099L11.6114 38.0597C11.6121 38.5596 12.018 38.9643 12.5178 38.9636L37.2063 38.9292C37.7063 38.9285 38.1109 38.5226 38.1103 38.0228L38.0838 19.073L24.817 6.6449Z" fill="#E1EFFB"/>
<path d="M38.0834 19.0729L24.8167 6.6449L22.6348 8.70037L33.7074 19.0729L33.7339 38.0227C33.7346 38.5226 33.3299 38.9284 32.8301 38.9291H37.2062C37.7061 38.9284 38.1107 38.5225 38.1101 38.0227L38.0834 19.0729Z" fill="#CCDFED"/>
<path d="M42.7513 23.2485C42.3046 23.2491 41.8568 23.0863 41.5051 22.7568L24.8171 7.12401L8.17284 22.8034C7.44129 23.4926 6.28963 23.4581 5.60067 22.7266C4.91151 21.9952 4.94588 20.8435 5.67743 20.1545L23.5659 3.30302C24.2652 2.64413 25.3564 2.64267 26.0576 3.2995L43.9931 20.101C44.7265 20.788 44.764 21.9395 44.0769 22.6728C43.7194 23.0546 43.2359 23.2478 42.7513 23.2485Z" fill="#FF4C4C"/>
<path d="M44.0769 20.4844C43.7194 20.866 43.2359 21.0593 42.7512 21.06C42.3045 21.0606 41.8568 20.8978 41.505 20.5683L24.817 4.93536L8.17279 20.6148C7.44125 21.3039 6.28959 21.2694 5.60062 20.538C5.55453 20.4891 5.51224 20.4381 5.47269 20.3857C4.94838 21.0807 4.98353 22.0716 5.60062 22.7266C6.28949 23.458 7.44125 23.4925 8.17279 22.8033L24.817 7.12404L41.505 22.7568C41.8568 23.0863 42.3045 23.2491 42.7512 23.2485C43.236 23.2479 43.7194 23.0546 44.0769 22.673C44.691 22.0176 44.7245 21.0291 44.2016 20.3358C44.1629 20.3869 44.1216 20.4366 44.0769 20.4844Z" fill="#F33939"/>
<path d="M28.2396 22.267L21.4374 22.2764C21.1183 22.2769 20.8599 22.536 20.8604 22.8552L20.8828 38.9518L28.8408 38.9407L28.8184 22.844C28.818 22.5249 28.5588 22.2666 28.2396 22.267Z" fill="#2D5871"/>
<path d="M28.8184 22.8441C28.8179 22.525 28.5588 22.2666 28.2396 22.2671L24.3965 22.2725C24.631 22.3458 24.8013 22.5646 24.8017 22.8232L24.8241 38.9465L28.8408 38.9408L28.8184 22.8441Z" fill="#1D4859"/>
<path d="M45.5966 30.8157L35.5706 37.5256L32.5826 37.3579L32.4656 36.1819C32.2915 34.4312 30.9436 33.0261 29.2016 32.7796L21.1958 31.8578C19.349 31.5965 17.5709 30.9777 15.9609 30.0359C13.7629 28.75 11.2623 28.0724 8.71582 28.0724H2.94385V41.2478L18.199 47.0246C18.7756 47.1874 19.3811 47.2362 19.9728 47.1426C19.9763 47.142 19.9799 47.1415 19.9834 47.1409L35.3418 44.9271C36.525 44.7382 37.6372 44.2399 38.5657 43.4825L48.4921 34.5549C49.3829 33.7639 49.548 32.4345 48.8778 31.4494C48.1446 30.3719 46.6786 30.0887 45.5966 30.8157Z" fill="#FED9A8"/>
<path d="M49.0089 31.6685L39.1975 39.9273C38.2689 40.6847 36.7254 41.1829 35.5422 41.3719L19.9835 42.4841C19.98 42.4847 19.9764 42.4853 19.9729 42.4857C19.3812 42.5792 18.7756 42.5305 18.1991 42.3678L2.94385 36.5909V41.2479L18.199 47.0248C18.4873 47.1062 18.7828 47.1591 19.0802 47.1799C19.1545 47.1851 19.229 47.1883 19.3035 47.1895C19.5271 47.1929 19.7509 47.1778 19.9728 47.1428C19.9763 47.1422 19.9799 47.1416 19.9834 47.1411L35.3418 44.9272C35.7115 44.8682 36.0744 44.7789 36.4269 44.661C36.4974 44.6374 36.5674 44.6127 36.637 44.5868C36.9852 44.4575 37.3223 44.2998 37.6449 44.1152C37.7095 44.0783 37.7733 44.0403 37.8367 44.0014C38.09 43.8452 38.3337 43.6721 38.5658 43.4827L48.4922 34.5551C49.3187 33.8211 49.5192 32.6242 49.0089 31.6685Z" fill="#F4C892"/>
<path d="M4.88945 45.7231H2.60566C1.56084 45.7231 0.713867 44.8762 0.713867 43.8313V26.9309C0.713867 25.886 1.56084 25.0391 2.60566 25.0391H4.88945C5.93428 25.0391 6.78125 25.886 6.78125 26.9309V43.8313C6.78125 44.8762 5.93428 45.7231 4.88945 45.7231Z" fill="#2D5871"/>
<path d="M4.88916 25.0391H2.60537C2.47695 25.0391 2.35166 25.0521 2.23047 25.0766C3.09561 25.2506 3.74727 26.0145 3.74727 26.9309V43.8313C3.74727 44.7478 3.09561 45.5116 2.23047 45.6856C2.35166 45.7101 2.47705 45.7231 2.60537 45.7231H4.88916C5.93398 45.7231 6.78096 44.8762 6.78096 43.8313V26.9309C6.78096 25.886 5.93398 25.0391 4.88916 25.0391Z" fill="#1D4859"/>
<path d="M49.468 31.0482C48.5169 29.6505 46.6017 29.2806 45.1997 30.2228L38.8188 34.4931L38.8003 21.2011L41.0171 23.2778C41.4885 23.7193 42.1031 23.9622 42.7484 23.9622C42.7496 23.9622 42.751 23.9622 42.7522 23.9622C43.4489 23.9613 44.1216 23.6693 44.5978 23.161C45.0604 22.6671 45.303 22.0228 45.281 21.3464C45.2589 20.67 44.9747 20.0428 44.4809 19.5802L40.2782 15.6433C39.9905 15.3738 39.5389 15.3885 39.2694 15.6762C39 15.9639 39.0147 16.4155 39.3023 16.685L43.505 20.6219C43.7206 20.8239 43.8446 21.0977 43.8543 21.3929C43.8639 21.6881 43.758 21.9695 43.556 22.185C43.345 22.4102 43.0589 22.5344 42.7501 22.5348C42.7495 22.5348 42.749 22.5348 42.7484 22.5348C42.4669 22.5348 42.1986 22.4287 41.9929 22.236L38.5724 19.0318L38.5722 19.0316L25.3051 6.60315C25.0301 6.34563 24.6021 6.34602 24.3278 6.60452L11.0961 19.0692L11.0959 19.0694L7.6835 22.2839C7.46855 22.4865 7.1875 22.5925 6.89219 22.5843C6.59687 22.5755 6.32275 22.4522 6.12021 22.237C5.91768 22.0221 5.81094 21.741 5.81982 21.4458C5.82861 21.1505 5.95195 20.8764 6.16689 20.6739L24.0553 3.82259C24.4793 3.42307 25.1445 3.4221 25.5696 3.82053L36.0352 13.6244C36.3228 13.8939 36.7744 13.8792 37.0439 13.5915C37.3134 13.3038 37.2986 12.8523 37.011 12.5827L26.5456 2.77884C25.5717 1.86634 24.0479 1.86839 23.0766 2.78362L17.3501 8.17815L17.3485 7.21594C17.3481 6.91262 17.2296 6.62766 17.0148 6.4136C16.8005 6.19983 16.5159 6.08216 16.2132 6.08216C16.2126 6.08216 16.2121 6.08216 16.2115 6.08216L12.1151 6.08792C11.8118 6.08831 11.527 6.20686 11.3128 6.42161C11.0987 6.63636 10.981 6.92161 10.9814 7.22503L10.9928 14.1671L5.18818 19.6352C4.69561 20.0991 4.41328 20.7272 4.39307 21.4035C4.37285 22.0799 4.61729 22.7237 5.08125 23.216C5.54512 23.7086 6.17314 23.991 6.84961 24.0113C6.87549 24.012 6.90137 24.0124 6.92725 24.0124C7.5752 24.0124 8.18877 23.7693 8.6623 23.323L10.8741 21.2394L10.8829 27.5178C10.1673 27.4136 9.44326 27.3589 8.71592 27.3589H7.49473V26.931C7.49473 25.4944 6.32588 24.3255 4.88926 24.3255H2.60547C1.16885 24.3254 0 25.4942 0 26.9309V38.1143C0 38.5084 0.319531 38.828 0.713672 38.828C1.10781 38.828 1.42734 38.5084 1.42734 38.1143V26.9309C1.42734 26.2813 1.95586 25.7528 2.60547 25.7528H4.88916C5.53877 25.7528 6.06729 26.2813 6.06729 26.9309V28.0725V42.701V43.8314C6.06729 44.481 5.53877 45.0095 4.88916 45.0095H2.60547C1.95586 45.0095 1.42734 44.481 1.42734 43.8314V42.5826C1.42734 42.1884 1.10781 41.8689 0.713672 41.8689C0.319531 41.8689 0 42.1884 0 42.5826V43.8314C0 45.268 1.16885 46.4368 2.60547 46.4368H4.88916C6.32578 46.4368 7.49463 45.2681 7.49463 43.8314V43.7344L17.9462 47.6922C17.9655 47.6995 17.9852 47.706 18.0051 47.7116C18.4595 47.8399 18.9137 47.9042 19.3621 47.9042C19.6047 47.9042 19.8456 47.8854 20.0841 47.8477L35.4436 45.6336C35.4472 45.6331 35.4507 45.6325 35.4543 45.632C36.7602 45.4235 37.9921 44.8714 39.0168 44.0357C39.0257 44.0284 39.0345 44.0209 39.043 44.0132L48.9659 35.0886C50.1215 34.0627 50.3372 32.3257 49.468 31.0482ZM15.9216 7.50999L15.9249 9.52073L12.4179 12.8244L12.4092 7.51477L15.9216 7.50999ZM12.3106 27.7947L12.2996 19.8964L24.8185 8.10315L37.371 19.8621L37.3928 35.4474L35.3722 36.7997L33.2324 36.6797L33.1759 36.1114C32.9768 34.1096 31.499 32.4993 29.545 32.1151L29.5321 22.8431C29.5312 22.1316 28.9519 21.5533 28.2404 21.5533C28.2398 21.5533 28.2394 21.5533 28.2387 21.5533L21.4365 21.5629C21.0915 21.5634 20.7673 21.6982 20.5237 21.9425C20.2801 22.1867 20.1462 22.5114 20.1467 22.8563L20.158 30.9404C18.8106 30.6324 17.5241 30.1237 16.3213 29.42C16.1712 29.3323 16.0196 29.2475 15.8668 29.1651C15.8072 29.1329 15.7467 29.1028 15.6866 29.0714C15.5937 29.0229 15.5009 28.9741 15.4069 28.9275C15.3321 28.8904 15.2564 28.8552 15.1811 28.8194C15.1011 28.7814 15.0212 28.743 14.9406 28.7064C14.8586 28.6692 14.7759 28.6337 14.6933 28.598C14.6178 28.5654 14.5423 28.5325 14.4663 28.5012C14.3813 28.4661 14.2959 28.4324 14.2104 28.399C14.1345 28.3693 14.0585 28.3398 13.9822 28.3113C13.8976 28.2796 13.8125 28.2491 13.7272 28.2191C13.6473 28.1908 13.5672 28.1633 13.4867 28.1365C13.4051 28.1092 13.3232 28.0825 13.241 28.0567C13.1534 28.029 13.0654 28.0027 12.9773 27.9766C12.9017 27.9543 12.8261 27.9321 12.75 27.911C12.6507 27.8833 12.5509 27.8574 12.451 27.8319C12.4042 27.8199 12.3577 27.8063 12.3106 27.7947ZM21.5743 22.9901L28.105 22.9809L28.1175 31.9365L22.1482 31.2492L21.5858 31.1845L21.5743 22.9901ZM48.0149 34.0244L38.1018 42.9403C37.2757 43.6101 36.2848 44.0532 35.2345 44.2217L19.8816 46.4348C19.8784 46.4353 19.8753 46.4358 19.8721 46.4363L19.8614 46.4379C19.3963 46.5116 18.9119 46.4805 18.4216 46.3459L7.49473 42.208V28.7862H8.71592C9.75547 28.7862 10.788 28.9062 11.7935 29.1393C11.8309 29.148 11.8682 29.1569 11.9055 29.1658C12.029 29.1956 12.1522 29.2263 12.2749 29.2595C12.2856 29.2624 12.2963 29.2656 12.307 29.2685C12.43 29.3021 12.5524 29.3375 12.6745 29.3745C12.6964 29.3812 12.7184 29.3877 12.7401 29.3945C12.87 29.4346 12.9993 29.4765 13.1279 29.5204C13.1412 29.525 13.1544 29.5297 13.1677 29.5343C13.4355 29.6268 13.7008 29.7277 13.9627 29.8368C13.977 29.8428 13.9912 29.8488 14.0055 29.8548C14.136 29.9097 14.2658 29.9664 14.3947 30.0254C14.3981 30.027 14.4017 30.0286 14.4051 30.0303C14.5297 30.0875 14.6534 30.1469 14.7764 30.2079C14.7908 30.2151 14.8054 30.2221 14.8198 30.2293C14.9399 30.2894 15.0591 30.3516 15.1775 30.4153C15.1999 30.4273 15.2222 30.4396 15.2445 30.4517C15.3641 30.5168 15.4829 30.5832 15.6006 30.6521C17.2989 31.6455 19.1478 32.289 21.0958 32.5647C21.102 32.5656 21.108 32.5663 21.1142 32.567L29.1104 33.4876C29.1546 33.494 29.1985 33.5013 29.2422 33.5095C30.4193 33.7306 31.3484 34.6004 31.6593 35.7331C31.7054 35.9009 31.7378 36.0745 31.7556 36.2526L31.7873 36.5719L16.801 35.2589C16.4086 35.2246 16.0621 35.515 16.0277 35.9075C15.9933 36.3002 16.2838 36.6464 16.6764 36.6808L32.5203 38.069C32.5241 38.0693 32.5278 38.0692 32.5315 38.0695C32.5353 38.0698 32.5389 38.0703 32.5427 38.0706L35.5307 38.2383C35.544 38.2391 35.5573 38.2394 35.5706 38.2394C35.5848 38.2394 35.5987 38.2371 35.6128 38.2363C35.6287 38.2353 35.6446 38.2347 35.6604 38.2327C35.6817 38.23 35.7025 38.2254 35.7234 38.2208C35.7384 38.2175 35.7534 38.2151 35.7681 38.2108C35.7909 38.2042 35.8129 38.1953 35.8351 38.1865C35.847 38.1817 35.8593 38.1781 35.871 38.1726C35.9043 38.1572 35.9367 38.1394 35.9676 38.1187L38.5039 36.4213L38.5042 36.421L45.9946 31.4081C46.7482 30.9016 47.777 31.1003 48.2878 31.8511C48.7548 32.5372 48.6389 33.4703 48.0149 34.0244Z" fill="black"/>
</svg>
