<svg width="50" height="50" viewBox="0 0 50 50" fill="none" xmlns="http://www.w3.org/2000/svg">
<path fill-rule="evenodd" clip-rule="evenodd" d="M2.88477 7.55457H28.181C29.3657 7.55457 30.3347 8.52332 30.3347 9.70818V44.9064C30.3347 46.0912 29.3657 47.0601 28.181 47.0601H2.88477C1.70273 47.0601 0.733887 46.0912 0.733887 44.9064V9.70818C0.733887 8.52332 1.70273 7.55457 2.88477 7.55457Z" fill="#F9F7F8"/>
<path fill-rule="evenodd" clip-rule="evenodd" d="M25.8115 7.55457H28.1812C29.3659 7.55457 30.3349 8.52332 30.3349 9.70818V44.9064C30.3349 46.0912 29.3659 47.0601 28.1812 47.0601H25.8115C26.9964 47.0601 27.9652 46.0912 27.9652 44.9064V9.70818C27.9652 8.52332 26.9964 7.55457 25.8115 7.55457Z" fill="#EBE8FA"/>
<path fill-rule="evenodd" clip-rule="evenodd" d="M9.02471 5.24862H10.8795C11.4857 5.24862 11.5965 4.97743 11.7625 4.50399C12.078 3.59862 12.9363 2.94257 13.9438 2.94257H17.1218C18.135 2.94257 18.9986 3.60136 19.3087 4.50956C19.4721 4.99403 19.5855 5.24862 20.1862 5.24862H22.0437C23.3115 5.24862 24.3496 6.28661 24.3496 7.55458C24.3496 8.82235 23.3115 9.86034 22.0437 9.86034H9.02471C7.75684 9.86034 6.71875 8.82235 6.71875 7.55458C6.71875 6.28661 7.75684 5.24862 9.02471 5.24862Z" fill="#407093"/>
<path fill-rule="evenodd" clip-rule="evenodd" d="M20.189 5.2486H22.0437C23.3115 5.2486 24.3496 6.28658 24.3496 7.55455C24.3496 8.82233 23.3115 9.86032 22.0437 9.86032H20.5543C21.3875 9.49215 21.98 8.62301 21.98 7.61539C21.98 6.46666 21.2104 5.49772 20.189 5.2486Z" fill="#365E7D"/>
<path fill-rule="evenodd" clip-rule="evenodd" d="M22.2706 16.7756C25.2824 13.7637 30.2127 13.7637 33.2245 16.7756L34.1048 17.6529C34.4592 18.0073 34.8245 18.0047 35.1761 17.6529L36.0564 16.7756C39.0682 13.7637 43.9958 13.7637 47.0103 16.7756C50.0221 19.7873 50.0221 24.7149 47.0103 27.7294C42.8856 31.8513 39.3146 35.4527 35.1761 39.5609C34.8384 39.8986 34.4454 39.9013 34.1048 39.5609C30.1545 35.6521 26.2014 31.6576 22.2706 27.7294C19.2588 24.7175 19.2588 19.7873 22.2706 16.7756Z" fill="#F37C7C"/>
<path fill-rule="evenodd" clip-rule="evenodd" d="M40.3476 14.6053C42.706 14.2453 45.203 14.9679 47.0106 16.7757C50.0225 19.7874 50.0225 24.7149 47.0106 27.7295C42.8859 31.8514 39.3149 35.4528 35.1765 39.5609C34.8387 39.8987 34.4457 39.9014 34.1051 39.5609C33.8864 39.3478 33.6705 39.1319 33.4546 38.9187C37.3218 35.0736 40.7322 31.6354 44.641 27.7295C47.6528 24.7149 47.6528 19.7874 44.641 16.7757C43.4342 15.5686 41.9227 14.8461 40.3476 14.6053Z" fill="#EE6161"/>
<path fill-rule="evenodd" clip-rule="evenodd" d="M5.25996 34.5808H8.69268C9.11064 34.5808 9.45117 34.9213 9.45117 35.3392V38.7747C9.45117 39.1928 9.11074 39.5333 8.69268 39.5333H5.25996C4.84199 39.5333 4.50146 39.1929 4.50146 38.7747V35.3392C4.50146 34.9214 4.84199 34.5808 5.25996 34.5808ZM5.25996 14.9899H8.69268C9.11064 14.9899 9.45117 15.3306 9.45117 15.7485V19.1839C9.45117 19.6019 9.11074 19.9425 8.69268 19.9425H5.25996C4.84199 19.9425 4.50146 19.602 4.50146 19.1839V15.7485C4.50146 15.3306 4.84199 14.9899 5.25996 14.9899ZM5.25996 24.7867H8.69268C9.11064 24.7867 9.45117 25.1271 9.45117 25.5453V28.9779C9.45117 29.3959 9.11074 29.7364 8.69268 29.7364H5.25996C4.84199 29.7364 4.50146 29.396 4.50146 28.9779V25.5453C4.50146 25.1272 4.84199 24.7867 5.25996 24.7867Z" fill="#95D6A4"/>
<path fill-rule="evenodd" clip-rule="evenodd" d="M6.32275 34.5808H8.69238C9.11035 34.5808 9.45088 34.9213 9.45088 35.3392V38.7747C9.45088 39.1928 9.11045 39.5333 8.69238 39.5333H6.32275C6.74072 39.5333 7.08125 39.1929 7.08125 38.7747V35.3392C7.08125 34.9214 6.74072 34.5808 6.32275 34.5808ZM6.32275 14.9899H8.69238C9.11035 14.9899 9.45088 15.3306 9.45088 15.7485V19.1839C9.45088 19.6019 9.11045 19.9425 8.69238 19.9425H6.32275C6.74072 19.9425 7.08125 19.602 7.08125 19.1839V15.7485C7.08125 15.3306 6.74072 14.9899 6.32275 14.9899ZM6.32275 24.7867H8.69238C9.11035 24.7867 9.45088 25.1271 9.45088 25.5453V28.9779C9.45088 29.3959 9.11045 29.7364 8.69238 29.7364H6.32275C6.74072 29.7364 7.08125 29.396 7.08125 28.9779V25.5453C7.08125 25.1272 6.74072 24.7867 6.32275 24.7867Z" fill="#78C2A4"/>
<path d="M24.9917 6.8209H28.1808C28.9753 6.8209 29.6978 7.14766 30.221 7.66816C30.7414 8.19131 31.0681 8.91387 31.0681 9.7083V14.4531C32.0397 14.8655 32.9532 15.4663 33.7422 16.258L34.6391 17.1549L35.5388 16.258C37.1859 14.6081 39.359 13.7832 41.532 13.7832C43.7051 13.7832 45.8781 14.6081 47.528 16.258C49.1751 17.905 50 20.078 50 22.2512C50 24.4242 49.1751 26.5973 47.5279 28.2471L44.4275 31.3449C44.1424 31.6299 43.6773 31.6299 43.3922 31.3449C43.107 31.0598 43.107 30.5945 43.3922 30.3096L46.4927 27.2117C47.8547 25.847 48.5356 24.0505 48.5356 22.2511C48.5356 20.4545 47.8546 18.6551 46.4927 17.2932C45.1279 15.9284 43.3313 15.2474 41.532 15.2474C39.7355 15.2474 37.936 15.9285 36.5741 17.2932L35.1567 18.7076C34.8717 18.9928 34.4094 18.9928 34.1214 18.7076L32.7069 17.2932C31.345 15.9284 29.5455 15.2474 27.749 15.2474C25.9496 15.2474 24.153 15.9285 22.7883 17.2932C21.4264 18.655 20.7453 20.4544 20.7453 22.2511C20.7453 24.0505 21.4264 25.847 22.7883 27.2117C26.7386 31.1621 30.6888 35.1122 34.6391 39.0627L41.0476 32.6541C41.3327 32.3689 41.795 32.3689 42.0829 32.6541C42.3681 32.9421 42.3681 33.4045 42.0829 33.6923L35.1567 40.6157C34.8717 40.9009 34.4094 40.9009 34.1214 40.6157L31.0681 37.5596V44.9064C31.0681 45.7009 30.7414 46.4206 30.221 46.9438C29.6979 47.4671 28.9753 47.791 28.1808 47.791H2.88457C2.09014 47.791 1.37041 47.4672 0.847168 46.9438C0.323926 46.4206 0 45.7009 0 44.9064V28.9669C0 28.5599 0.329492 28.2331 0.733691 28.2331C1.13779 28.2331 1.46445 28.5599 1.46445 28.9669V44.9064C1.46445 45.2967 1.625 45.6511 1.88242 45.9084C2.13984 46.166 2.49697 46.3266 2.88447 46.3266H28.1807C28.571 46.3266 28.9253 46.1659 29.1828 45.9084C29.443 45.6511 29.6008 45.2967 29.6008 44.9064V36.0951L21.7528 28.2471C20.1029 26.5972 19.278 24.4242 19.278 22.2512C19.278 20.078 20.1029 17.905 21.7528 16.258C23.4027 14.6081 25.5758 13.7832 27.7488 13.7832C28.3689 13.7832 28.9918 13.8496 29.6008 13.9852V9.7082C29.6008 9.31797 29.443 8.96357 29.1828 8.70342C28.9253 8.4459 28.571 8.28535 28.1807 8.28535H24.9916C24.856 8.83066 24.5736 9.31514 24.1888 9.6998C23.6379 10.2509 22.8795 10.5939 22.0435 10.5939H17.1935C16.7865 10.5939 16.4599 10.2646 16.4599 9.86035C16.4599 9.45615 16.7865 9.12676 17.1935 9.12676H22.0435C22.4753 9.12676 22.8685 8.94961 23.1535 8.66445C23.4387 8.3793 23.6158 7.98643 23.6158 7.55459C23.6158 7.12256 23.4387 6.72969 23.1535 6.44453C22.8574 6.14834 22.4614 5.97666 22.0435 5.97666H19.4939C19.0648 5.97666 18.6966 5.67764 18.6966 5.24863C18.6966 4.8168 18.5194 4.42373 18.2344 4.13555C17.9492 3.85059 17.5533 3.67344 17.1216 3.67344H13.9437C13.5118 3.67344 13.1188 3.85059 12.8337 4.13555C12.5485 4.42363 12.3714 4.8168 12.3714 5.24863C12.3714 5.65283 12.042 5.9793 11.6378 5.9793H9.02451C8.59268 5.9793 8.19961 6.15644 7.91445 6.44453C7.6293 6.72969 7.45225 7.12256 7.45225 7.55459C7.45225 7.98643 7.6293 8.3793 7.91445 8.66445C8.19961 8.94961 8.59268 9.12676 9.02451 9.12676H13.8745C14.2787 9.12676 14.6081 9.45615 14.6081 9.86035C14.6081 10.2646 14.2786 10.5939 13.8745 10.5939H9.02451C8.18848 10.5939 7.42998 10.2508 6.8791 9.6998C6.49434 9.31514 6.21191 8.83066 6.07627 8.28535H2.88457C2.49707 8.28535 2.13994 8.446 1.88252 8.70342C1.625 8.96357 1.46455 9.31797 1.46455 9.7082V25.6478C1.46455 26.052 1.13779 26.3813 0.733789 26.3813C0.32959 26.3813 9.76563e-05 26.052 9.76563e-05 25.6478V9.7082C9.76563e-05 8.91377 0.324023 8.19131 0.847266 7.66807C1.37041 7.14492 2.09014 6.8208 2.88467 6.8208H6.07646C6.21221 6.27832 6.49453 5.79102 6.8793 5.40635C7.42734 4.8582 8.18867 4.51504 9.02471 4.51504H10.9957C11.1313 3.97227 11.4137 3.48516 11.7985 3.10029C12.3494 2.55234 13.1078 2.20898 13.9438 2.20898H17.1218C17.9605 2.20898 18.719 2.55234 19.27 3.10029C19.6548 3.48516 19.9371 3.9752 20.0729 4.51777H22.0438C22.8799 4.51777 23.6384 4.8582 24.1892 5.40645C24.5737 5.79111 24.8561 6.27842 24.9917 6.8209ZM25.7031 26.9987C25.2989 26.9987 24.9724 26.6691 24.9724 26.2649C24.9724 25.8609 25.299 25.5313 25.7031 25.5313H30.2817L32.275 21.2629C32.4466 20.8975 32.8812 20.7396 33.2466 20.9113C33.4376 20.9998 33.5732 21.1631 33.6313 21.3514L36.2031 28.7591L37.2605 26.0047C37.3685 25.7195 37.6397 25.5312 37.9442 25.5312H43.5749C43.9791 25.5312 44.3085 25.8608 44.3085 26.2648C44.3085 26.669 43.9791 26.9986 43.5749 26.9986H38.4453L36.8536 31.1481C36.7788 31.3448 36.6211 31.5052 36.408 31.58C36.026 31.7101 35.6107 31.5081 35.4806 31.1261L32.8369 23.5078L31.4361 26.5142C31.3338 26.7965 31.0624 26.9986 30.7469 26.9986H25.7031V26.9987ZM12.6813 36.1753C12.2771 36.1753 11.9478 35.8459 11.9478 35.4417C11.9478 35.0375 12.2771 34.7109 12.6813 34.7109H20.1086C20.5128 34.7109 20.8422 35.0375 20.8422 35.4417C20.8422 35.8459 20.5128 36.1753 20.1086 36.1753H12.6813ZM12.6813 39.4031C12.2771 39.4031 11.9478 39.0764 11.9478 38.6723C11.9478 38.2683 12.2771 37.9387 12.6813 37.9387H17.4178C17.822 37.9387 18.1485 38.2683 18.1485 38.6723C18.1485 39.0765 17.8219 39.4031 17.4178 39.4031H12.6813ZM12.6813 26.3786C12.2771 26.3786 11.9478 26.0519 11.9478 25.6478C11.9478 25.2437 12.2771 24.9142 12.6813 24.9142H17.4178C17.822 24.9142 18.1485 25.2436 18.1485 25.6478C18.1485 26.052 17.8219 26.3786 17.4178 26.3786H12.6813ZM12.6813 29.6092C12.2771 29.6092 11.9478 29.2797 11.9478 28.8755C11.9478 28.4713 12.2771 28.1446 12.6813 28.1446H17.4178C17.822 28.1446 18.1485 28.4714 18.1485 28.8755C18.1485 29.2797 17.8219 29.6092 17.4178 29.6092H12.6813ZM12.6813 16.5845C12.2771 16.5845 11.9478 16.2551 11.9478 15.8509C11.9478 15.4467 12.2771 15.1202 12.6813 15.1202H19.0317C19.4358 15.1202 19.7653 15.4468 19.7653 15.8509C19.7653 16.2551 19.4358 16.5845 19.0317 16.5845H12.6813ZM12.6813 19.8123C12.2771 19.8123 11.9478 19.4855 11.9478 19.0814C11.9478 18.6772 12.2771 18.3479 12.6813 18.3479H17.4178C17.822 18.3479 18.1485 18.6772 18.1485 19.0814C18.1485 19.4856 17.8219 19.8123 17.4178 19.8123H12.6813ZM4.50117 33.85H9.45078C9.85498 33.85 10.1844 34.1768 10.1844 34.5809V39.5332C10.1844 39.9374 9.85498 40.2641 9.45078 40.2641H4.50117C4.09697 40.2641 3.76758 39.9373 3.76758 39.5332V34.5809C3.76768 34.1768 4.09707 33.85 4.50117 33.85ZM8.72002 35.3145H5.23203V38.7997H8.72002V35.3145ZM4.50117 24.0532H9.45078C9.85498 24.0532 10.1844 24.3826 10.1844 24.7868V29.7365C10.1844 30.1407 9.85498 30.4701 9.45078 30.4701H4.50117C4.09697 30.4701 3.76758 30.1407 3.76758 29.7365V24.7868C3.76768 24.3826 4.09707 24.0532 4.50117 24.0532ZM8.72002 25.5177H5.23203V29.0057H8.72002V25.5177ZM4.50117 14.2593H9.45078C9.85498 14.2593 10.1844 14.586 10.1844 14.9899V19.9424C10.1844 20.3466 9.85498 20.673 9.45078 20.673H4.50117C4.09697 20.673 3.76758 20.3465 3.76758 19.9424V14.9899C3.76768 14.5859 4.09707 14.2593 4.50117 14.2593ZM8.72002 15.7237H5.23203V19.2089H8.72002V15.7237Z" fill="black"/>
</svg>
