<svg width="50" height="50" viewBox="0 0 50 50" fill="none" xmlns="http://www.w3.org/2000/svg">
<path d="M46.0001 18.9872C46.5046 18.9872 46.9134 19.396 46.9134 19.9005V45.4891C46.9134 47.5754 45.2222 49.2666 43.1359 49.2666H6.86442C4.77817 49.2666 3.08691 47.5754 3.08691 45.4891V19.9005C3.08691 19.396 3.49579 18.9872 4.00022 18.9872H46.0001Z" fill="#B3E5EE"/>
<path d="M5.85596 18.9872V44.8057C5.85596 46.5146 7.24571 47.9047 8.95408 47.9047H41.1441C42.8523 47.9047 44.2422 46.5145 44.2422 44.8057V18.9872H5.85596Z" fill="#86D7E5"/>
<path d="M41.51 17.1417H8.5885C8.15918 17.1417 7.81201 17.4898 7.81201 17.9192V41.2793L18.4211 45.1544L25.0492 45.9167L40.9351 43.0491L42.2864 41.2793V17.9192C42.2865 17.4898 41.9393 17.1417 41.51 17.1417Z" fill="#F9F7F7"/>
<path d="M24.3154 17.1417H25.7823V45.949H24.3154V17.1417Z" fill="#F8F3F2"/>
<path d="M15.9966 17.1417L20.2985 23.8388V24.3584C20.2985 25.2187 20.7271 25.9803 21.3816 26.4424V27.2594C21.3816 28.9689 22.7725 30.3598 24.482 30.3598H25.6168C27.3263 30.3598 28.7172 28.9689 28.7172 27.2594V26.4424C29.3717 25.9803 29.8004 25.2187 29.8004 24.3584V23.8388L34.1022 17.1417H15.9966Z" fill="#F8F3F2"/>
<path d="M11.8835 42.1034V17.1417H8.5885C8.15918 17.1417 7.81201 17.4898 7.81201 17.9192V41.2793L12.0156 42.8147C11.9315 42.5934 11.8835 42.3542 11.8835 42.1034Z" fill="#F8F3F2"/>
<path d="M25.0492 45.9167V45.949H8.95425C8.32348 45.949 7.81201 45.4375 7.81201 44.8058V41.2793H20.4118C22.9731 41.2793 25.0492 43.3555 25.0492 45.9167Z" fill="#F2EAE7"/>
<path d="M42.2865 41.2793V44.8058C42.2865 45.4375 41.7751 45.949 41.1443 45.949H25.0493V45.9167C25.0493 43.3555 27.1255 41.2793 29.6867 41.2793H42.2865Z" fill="#F2EAE7"/>
<path d="M27.2502 24.2681H22.8486V27.2594C22.8486 28.1615 23.5799 28.8928 24.482 28.8928H25.6168C26.519 28.8928 27.2502 28.1615 27.2502 27.2594V24.2681Z" fill="#A59CA6"/>
<path d="M27.2502 24.2681H24.1077H23.7358H22.8486V27.2594C22.8486 28.1615 23.5799 28.8928 24.482 28.8928H25.6168C26.2489 28.8928 26.7962 28.533 27.0677 28.0075C27.0047 28.0149 26.9409 28.0198 26.8759 28.0198H25.7411C25.0235 28.0198 24.4147 27.5567 24.1958 26.9131C24.1135 26.6711 24.293 26.4194 24.5487 26.4194H27.2503V24.2681H27.2502Z" fill="#8F8390"/>
<path d="M34.8035 10.4877C34.8035 5.10055 30.4364 0.733353 25.0492 0.733353C19.662 0.733353 15.2949 5.10046 15.2949 10.4877C15.2949 12.5776 15.9525 14.5137 17.0716 16.1012L21.7653 23.4082V24.3584C21.7653 24.9566 22.2503 25.4416 22.8485 25.4416H27.25C27.8482 25.4416 28.3332 24.9566 28.3332 24.3584V23.4082L33.0268 16.1012C34.146 14.5138 34.8035 12.5776 34.8035 10.4877Z" fill="#FBE88C"/>
<path d="M21.1851 17.346C20.015 15.63 19.3275 13.537 19.3275 11.2777C19.3275 6.25178 22.7279 2.04751 27.2803 0.990154C26.5635 0.822339 25.8172 0.733444 25.0492 0.733444C19.6621 0.733444 15.2949 5.10055 15.2949 10.4877C15.2949 12.5777 15.9525 14.5138 17.0716 16.1013L21.7653 23.4083V24.3585C21.7653 24.9567 22.2503 25.4417 22.8485 25.4417H25.6361L21.1851 17.346Z" fill="#FBE372"/>
<path d="M25.4146 44.1097C25.1795 44.665 25.0493 45.2756 25.0493 45.9167V45.949H41.1443C41.7751 45.949 42.2865 45.4375 42.2865 44.8057V44.1098H25.4146V44.1097Z" fill="#EDE2DD"/>
<path d="M13.8898 44.1097C12.7817 44.1097 11.8835 43.2115 11.8835 42.1034V41.2793H7.81201V44.8057C7.81201 45.4375 8.32348 45.9489 8.95425 45.9489H25.0492V45.9167C25.0492 45.2756 24.9192 44.6651 24.684 44.1097H13.8898Z" fill="#EDE2DD"/>
<path d="M46.0002 18.2537H43.0203V17.919C43.0203 17.086 42.3426 16.4084 41.5096 16.4084H35.6324C35.2274 16.4084 34.899 16.7367 34.899 17.1419C34.899 17.547 35.2274 17.8753 35.6324 17.8753H41.5096C41.5337 17.8753 41.5534 17.8949 41.5534 17.919V26.862C41.5534 27.2672 41.8818 27.5955 42.2869 27.5955C42.6919 27.5955 43.0203 27.2672 43.0203 26.862V19.7206H46.0002C46.0994 19.7206 46.18 19.8013 46.18 19.9005V45.4891C46.18 47.1676 44.8145 48.5331 43.1361 48.5331H6.86438C5.18593 48.5331 3.82043 47.1676 3.82043 45.4891V19.9005C3.82043 19.8013 3.90111 19.7206 4.00027 19.7206H7.07796V44.8061C7.07796 45.8404 7.91938 46.6819 8.95375 46.6819H41.1444C42.1788 46.6819 43.0202 45.8405 43.0202 44.8061V29.9904C43.0202 29.5852 42.6918 29.2569 42.2868 29.2569C41.8817 29.2569 41.5533 29.5852 41.5533 29.9904V40.5454H29.6865C28.1496 40.5454 26.7625 41.1954 25.7826 42.2336V32.746C25.7826 32.3409 25.4542 32.0126 25.0491 32.0126C24.6441 32.0126 24.3157 32.3409 24.3157 32.746V42.2337C23.3358 41.1955 21.9486 40.5455 20.4117 40.5455H17.0789C16.6738 40.5455 16.3454 40.8738 16.3454 41.279C16.3454 41.6841 16.6738 42.0124 17.0789 42.0124H20.4117C22.3249 42.0124 23.9199 43.3961 24.2514 45.215H8.95375C8.72824 45.215 8.54488 45.0316 8.54488 44.8061V42.0124H13.9505C14.3555 42.0124 14.6839 41.6841 14.6839 41.279C14.6839 40.8738 14.3555 40.5455 13.9505 40.5455H8.54488V17.919C8.54488 17.8949 8.56453 17.8753 8.58869 17.8753H14.4658C14.8709 17.8753 15.1993 17.547 15.1993 17.1419C15.1993 16.7367 14.8709 16.4084 14.4658 16.4084H8.58869C7.75567 16.4084 7.07796 17.0861 7.07796 17.919V18.2537H4.00027C3.09225 18.2537 2.35352 18.9924 2.35352 19.9005V45.4891C2.35352 47.9764 4.37708 50 6.86438 50H43.1359C45.6232 50 47.6468 47.9764 47.6468 45.4891V19.9005C47.6469 18.9924 46.9082 18.2537 46.0002 18.2537ZM29.6865 42.0123H41.5533V44.8061C41.5533 45.0316 41.3699 45.215 41.1444 45.215H25.8469C26.1784 43.396 27.7734 42.0123 29.6865 42.0123Z" fill="black"/>
<path d="M15.2701 10.291C15.6727 10.3284 16.0311 10.0329 16.0691 9.62961C16.2789 7.40538 17.3059 5.34603 18.9614 3.831C20.6271 2.30658 22.7891 1.46692 25.0491 1.46692C30.0232 1.46692 34.0699 5.51364 34.0699 10.4877C34.0699 12.3593 33.5019 14.1543 32.4272 15.6787C32.4211 15.6873 32.4153 15.6961 32.4095 15.7049L27.716 23.0119C27.64 23.1302 27.5996 23.2677 27.5996 23.4083V24.3585C27.5996 24.5514 27.4427 24.7082 27.2499 24.7082H27.202L27.6692 16.7796H28.5048C29.7004 16.7796 30.6731 15.8069 30.6731 14.6114V14.5224C30.6731 13.3268 29.7004 12.3542 28.5048 12.3542C27.3585 12.3542 26.4078 13.2505 26.3403 14.3948L26.2862 15.3126H23.7141L23.66 14.3948C23.5927 13.2505 22.6418 12.3542 21.4956 12.3542C20.2999 12.3542 19.3273 13.3268 19.3273 14.5224V14.6114C19.3273 15.8069 20.2999 16.7796 21.4956 16.7796H22.3311L22.7981 24.7031C22.6292 24.6785 22.4986 24.5342 22.4986 24.3585V23.4083C22.4986 23.2677 22.4582 23.1302 22.3824 23.0119L17.6887 15.7049C17.683 15.6961 17.6772 15.6873 17.6711 15.6787C16.9962 14.7213 16.5209 13.6574 16.2588 12.5164C16.1679 12.1216 15.7738 11.8753 15.3796 11.9659C14.9848 12.0568 14.7384 12.4503 14.8291 12.8451C15.1331 14.1672 15.6828 15.4004 16.463 16.5106L21.0319 23.6234V24.3583C21.0319 25.0989 21.4779 25.7364 22.1151 26.019V27.2593C22.1151 28.5645 23.1768 29.6262 24.482 29.6262H25.6168C26.9219 29.6262 27.9837 28.5645 27.9837 27.2593V26.019C28.6207 25.7364 29.0669 25.099 29.0669 24.3583V23.6234L33.6357 16.5106C34.8797 14.7404 35.5372 12.658 35.5372 10.4876C35.5368 4.70469 30.832 0 25.0491 0C22.4216 0 19.9079 0.976281 17.971 2.7489C16.0467 4.51018 14.8527 6.90477 14.6088 9.49192C14.5706 9.89532 14.8668 10.2531 15.2701 10.291ZM27.8047 14.4811C27.8265 14.1109 28.134 13.821 28.5048 13.821C28.8915 13.821 29.2061 14.1356 29.2061 14.5223V14.6113C29.2061 14.9979 28.8915 15.3125 28.5048 15.3125H27.7557L27.8047 14.4811ZM21.4956 15.3125C21.1088 15.3125 20.7942 14.9979 20.7942 14.6113V14.5223C20.7942 14.1356 21.1088 13.821 21.4956 13.821C21.8664 13.821 22.1739 14.1109 22.1957 14.4811L22.2447 15.3125H21.4956ZM26.1998 16.7795L25.7326 24.7081H24.2678L23.8007 16.7795H26.1998ZM26.5164 27.2594C26.5164 27.7556 26.1127 28.1594 25.6164 28.1594H24.4816C23.9854 28.1594 23.5816 27.7556 23.5816 27.2594V26.175H26.5163V27.2594H26.5164Z" fill="black"/>
<path d="M37.8968 5.56949C38.0686 5.56949 38.2411 5.50944 38.3804 5.3872L39.9807 3.98209C40.2851 3.71492 40.3152 3.25137 40.048 2.94704C39.7808 2.6427 39.3174 2.61258 39.0129 2.87975L37.4126 4.28486C37.1082 4.55204 37.0782 5.01558 37.3453 5.31992C37.4904 5.48509 37.6931 5.56949 37.8968 5.56949Z" fill="black"/>
<path d="M37.4126 9.99302L39.0129 11.3982C39.1522 11.5206 39.3247 11.5805 39.4966 11.5805C39.7003 11.5805 39.903 11.4961 40.0481 11.3309C40.3153 11.0266 40.2852 10.5632 39.9809 10.2959L38.3806 8.89069C38.0761 8.62332 37.6128 8.65353 37.3455 8.95797C37.0781 9.2623 37.1082 9.72565 37.4126 9.99302Z" fill="black"/>
<path d="M10.1177 3.98208L11.7181 5.38719C11.8573 5.50953 12.0298 5.56948 12.2016 5.56948C12.4054 5.56948 12.6081 5.48508 12.7531 5.31991C13.0204 5.01557 12.9903 4.55203 12.6858 4.28485L11.0855 2.87974C10.7812 2.61238 10.3176 2.64259 10.0505 2.94703C9.78319 3.25136 9.81332 3.71481 10.1177 3.98208Z" fill="black"/>
<path d="M10.6018 11.5805C10.7737 11.5805 10.9462 11.5205 11.0855 11.3982L12.6858 9.99302C12.9902 9.72575 13.0203 9.2623 12.753 8.95796C12.4858 8.65363 12.0224 8.62351 11.718 8.89068L10.1177 10.2959C9.81332 10.5632 9.7832 11.0266 10.0505 11.3309C10.1954 11.4961 10.398 11.5805 10.6018 11.5805Z" fill="black"/>
<path d="M18.56 25.4416C18.56 25.0364 18.2316 24.7081 17.8266 24.7081H10.6016C10.1966 24.7081 9.86816 25.0364 9.86816 25.4416C9.86816 25.8467 10.1966 26.175 10.6016 26.175H17.8266C18.2316 26.175 18.56 25.8467 18.56 25.4416Z" fill="black"/>
<path d="M20.0608 28.4391H11.9263C11.5213 28.4391 11.1929 28.7674 11.1929 29.1725C11.1929 29.5777 11.5213 29.906 11.9263 29.906H20.0608C20.4658 29.906 20.7942 29.5777 20.7942 29.1725C20.7942 28.7674 20.4658 28.4391 20.0608 28.4391Z" fill="black"/>
<path d="M20.0608 32.0126H11.9263C11.5213 32.0126 11.1929 32.3409 11.1929 32.746C11.1929 33.1512 11.5213 33.4795 11.9263 33.4795H20.0608C20.4658 33.4795 20.7942 33.1512 20.7942 32.746C20.7942 32.3409 20.4658 32.0126 20.0608 32.0126Z" fill="black"/>
<path d="M20.0608 35.5861H11.9263C11.5213 35.5861 11.1929 35.9144 11.1929 36.3195C11.1929 36.7247 11.5213 37.053 11.9263 37.053H20.0608C20.4658 37.053 20.7942 36.7247 20.7942 36.3195C20.7942 35.9144 20.4658 35.5861 20.0608 35.5861Z" fill="black"/>
<path d="M40.2304 25.4416C40.2304 25.0364 39.902 24.7081 39.497 24.7081H32.272C31.867 24.7081 31.5386 25.0364 31.5386 25.4416C31.5386 25.8467 31.867 26.175 32.272 26.175H39.497C39.902 26.175 40.2304 25.8467 40.2304 25.4416Z" fill="black"/>
<path d="M38.1721 28.4391H30.0377C29.6326 28.4391 29.3042 28.7674 29.3042 29.1725C29.3042 29.5777 29.6326 29.906 30.0377 29.906H38.1721C38.5772 29.906 38.9055 29.5777 38.9055 29.1725C38.9055 28.7674 38.5772 28.4391 38.1721 28.4391Z" fill="black"/>
<path d="M38.1721 32.0126H30.0377C29.6326 32.0126 29.3042 32.3409 29.3042 32.746C29.3042 33.1512 29.6326 33.4795 30.0377 33.4795H38.1721C38.5772 33.4795 38.9055 33.1512 38.9055 32.746C38.9055 32.3409 38.5772 32.0126 38.1721 32.0126Z" fill="black"/>
<path d="M38.1721 35.5861H30.0377C29.6326 35.5861 29.3042 35.9144 29.3042 36.3195C29.3042 36.7247 29.6326 37.053 30.0377 37.053H38.1721C38.5772 37.053 38.9055 36.7247 38.9055 36.3195C38.9055 35.9144 38.5772 35.5861 38.1721 35.5861Z" fill="black"/>
</svg>
