<svg width="50" height="50" viewBox="0 0 50 50" fill="none" xmlns="http://www.w3.org/2000/svg">
<g clip-path="url(#clip0_6032_2745)">
<path d="M9.16683 25C9.1657 33.4323 15.7692 40.3881 24.1902 40.825C24.6401 40.8402 24.9977 41.2081 25.0002 41.6583V48.3333C24.9988 48.5621 24.9042 48.7805 24.738 48.9378C24.5719 49.0951 24.3487 49.1778 24.1202 49.1666C23.6535 49.1466 23.1902 49.1116 22.7335 49.06C22.0743 48.9773 21.5501 48.4668 21.4502 47.81L20.9252 44.5991C18.4698 44.092 16.1336 43.1213 14.0418 41.7391L11.3918 43.64C10.8548 44.0351 10.1215 44.0283 9.59183 43.6233C9.01683 43.14 8.45849 42.64 7.91683 42.0975C7.37989 41.5638 6.87088 41.0028 6.39183 40.4166C5.98604 39.8867 5.97924 39.1524 6.37516 38.615L8.27516 35.9666C6.89379 33.8728 5.92374 31.535 5.41683 29.0783L2.20849 28.5525C1.54233 28.4414 1.03147 27.9006 0.958494 27.2291C0.794434 25.7336 0.794434 24.2247 0.958494 22.7291C1.04108 22.0697 1.55152 21.5453 2.20849 21.445L5.41683 20.92C5.92374 18.4633 6.89379 16.1255 8.27516 14.0316L6.37516 11.3816C5.98091 10.845 5.9877 10.1126 6.39183 9.58331C6.86647 8.99416 7.3757 8.43373 7.91683 7.90498C8.44856 7.36765 9.00764 6.85809 9.59183 6.37831C10.1215 5.97335 10.8548 5.96656 11.3918 6.36165L14.0418 8.26331C16.1338 6.88121 18.4699 5.9103 20.9252 5.40248L21.4502 2.19248C21.5521 1.53483 22.0741 1.02233 22.7335 0.932481C23.1891 0.886925 23.6521 0.85387 24.1227 0.833314C24.3508 0.82264 24.5735 0.905538 24.7391 1.06284C24.9048 1.22014 24.999 1.43822 25.0002 1.66665V8.34331C24.9977 8.79353 24.6401 9.16144 24.1902 9.17665C15.7698 9.61346 9.16659 16.5683 9.16683 25Z" fill="#02A9F4"/>
<path d="M24.19 9.17581C24.64 9.16061 24.9976 8.7927 25 8.34248V1.66665C24.9989 1.43822 24.9046 1.22014 24.739 1.06284C24.5734 0.905538 24.3507 0.82264 24.1225 0.833314C23.6542 0.852759 23.1911 0.885537 22.7334 0.931648C22.5645 0.953054 22.4008 1.00441 22.25 1.08331C22.408 1.23654 22.498 1.44661 22.5 1.66665V8.34332C22.4976 8.79353 22.14 9.16144 21.69 9.17665C13.2687 9.61322 6.66455 16.5686 6.66455 25.0012C6.66455 33.4338 13.2687 40.3892 21.69 40.8258C22.14 40.841 22.4976 41.2089 22.5 41.6591V48.3333C22.4979 48.5533 22.4079 48.7634 22.25 48.9166C22.3999 48.9928 22.5622 49.0416 22.7292 49.0608C23.1859 49.1125 23.6459 49.1441 24.1159 49.1675C24.3452 49.1798 24.5696 49.0976 24.7367 48.9399C24.9038 48.7823 24.999 48.563 25 48.3333V41.655C24.9976 41.2048 24.64 40.8369 24.19 40.8216C15.7687 40.3851 9.16455 33.4297 9.16455 24.9971C9.16455 16.5645 15.7687 9.60905 24.19 9.17248V9.17581Z" fill="#0377BC"/>
<path d="M25.0001 36.7033C25.0022 36.913 24.918 37.1143 24.7674 37.2602C24.6168 37.406 24.413 37.4837 24.2035 37.475C17.6199 37.058 12.4937 31.5968 12.4937 25C12.4937 18.4033 17.6199 12.942 24.2035 12.525C24.413 12.5163 24.6168 12.594 24.7674 12.7399C24.918 12.8857 25.0022 13.087 25.0001 13.2967V36.7033Z" fill="#A4C400"/>
<path d="M24.2035 12.525C23.5665 12.5696 22.9338 12.6629 22.311 12.8042C22.4296 12.9412 22.4965 13.1155 22.5002 13.2967V36.7033C22.4965 36.8846 22.4296 37.0588 22.311 37.1958C22.9338 37.3371 23.5665 37.4304 24.2035 37.475C24.413 37.4837 24.6169 37.406 24.7675 37.2602C24.9181 37.1143 25.0022 36.913 25.0002 36.7033V13.2967C25.0022 13.087 24.9181 12.8857 24.7675 12.7399C24.6169 12.594 24.413 12.5163 24.2035 12.525Z" fill="#90AC00"/>
<path d="M32.5002 5.83333C33.4206 5.83333 34.1668 5.08714 34.1668 4.16667C34.1668 3.24619 33.4206 2.5 32.5002 2.5C31.5797 2.5 30.8335 3.24619 30.8335 4.16667C30.8335 5.08714 31.5797 5.83333 32.5002 5.83333Z" fill="#60A917"/>
<path d="M32.5002 47.5C33.4206 47.5 34.1668 46.7538 34.1668 45.8334C34.1668 44.9129 33.4206 44.1667 32.5002 44.1667C31.5797 44.1667 30.8335 44.9129 30.8335 45.8334C30.8335 46.7538 31.5797 47.5 32.5002 47.5Z" fill="#60A917"/>
<path d="M40.8337 39.1666C41.7541 39.1666 42.5003 38.4205 42.5003 37.5C42.5003 36.5795 41.7541 35.8333 40.8337 35.8333C39.9132 35.8333 39.167 36.5795 39.167 37.5C39.167 38.4205 39.9132 39.1666 40.8337 39.1666Z" fill="#60A917"/>
<path d="M47.5002 26.6666C48.4206 26.6666 49.1668 25.9205 49.1668 25C49.1668 24.0795 48.4206 23.3333 47.5002 23.3333C46.5797 23.3333 45.8335 24.0795 45.8335 25C45.8335 25.9205 46.5797 26.6666 47.5002 26.6666Z" fill="#60A917"/>
<path d="M40.8337 14.1666C41.7541 14.1666 42.5003 13.4205 42.5003 12.5C42.5003 11.5795 41.7541 10.8333 40.8337 10.8333C39.9132 10.8333 39.167 11.5795 39.167 12.5C39.167 13.4205 39.9132 14.1666 40.8337 14.1666Z" fill="#60A917"/>
<path d="M2.07167 20.6258C1.04961 20.7915 0.259018 21.611 0.13 22.6383C-0.0416454 24.1943 -0.043322 25.7644 0.125 27.3208C0.24228 28.3641 1.03774 29.2027 2.07333 29.375L4.725 29.8092C5.23408 31.9775 6.09341 34.0483 7.26917 35.94L5.70833 38.12C5.08642 38.9633 5.10141 40.1173 5.745 40.9442C6.24177 41.5519 6.77029 42.133 7.32833 42.685C7.84 43.1975 8.40583 43.7125 9.085 44.2833C9.90529 44.9141 11.0436 44.9274 11.8783 44.3158L14.0692 42.7442C15.959 43.9197 18.0278 44.7793 20.1942 45.2892L20.6292 47.945C20.7946 48.9674 21.6141 49.7584 22.6417 49.8875C23.1167 49.9408 23.5992 49.9783 24.085 49.9983H24.1558C24.5901 49.998 25.0078 49.8309 25.3225 49.5317C25.6497 49.219 25.8343 48.7859 25.8333 48.3333V41.655C25.8284 40.7626 25.1241 40.0311 24.2325 39.9925C16.2564 39.5761 10.0027 32.9874 10.0027 25.0004C10.0027 17.0134 16.2564 10.4247 24.2325 10.0083C25.1255 9.96917 25.8302 9.23547 25.8333 8.34165V1.66665C25.8346 1.21364 25.6496 0.780017 25.3217 0.467484C24.9942 0.146222 24.5473 -0.0233125 24.0892 -1.62313e-05C23.6042 0.0191504 23.1233 0.0541504 22.63 0.10415C21.603 0.236535 20.7875 1.03237 20.63 2.05582L20.1958 4.70915C18.0294 5.21937 15.9606 6.07926 14.0708 7.25498L11.88 5.68665C11.0375 5.07053 9.88824 5.0889 9.06583 5.73165C8.46163 6.22621 7.88336 6.75163 7.33333 7.30582C6.76644 7.85998 6.23273 8.44711 5.735 9.06415C5.09918 9.88553 5.08288 11.0283 5.695 11.8675L7.26583 14.0608C6.09112 15.9524 5.2329 18.0229 4.725 20.1908L2.07167 20.6258ZM6.2325 21.0908C6.71701 18.7371 7.64642 16.4976 8.97083 14.4925C9.1606 14.2042 9.15298 13.8287 8.95167 13.5483L7.05083 10.8942C6.87508 10.6623 6.87002 10.3432 7.03833 10.1058C7.49511 9.53971 7.98514 9.00126 8.50583 8.49332C9.0116 7.9824 9.54283 7.49734 10.0975 7.03998C10.3362 6.85801 10.6671 6.85801 10.9058 7.03998L13.5558 8.94165C13.8366 9.14245 14.212 9.14941 14.5 8.95915C16.5034 7.63419 18.7416 6.70444 21.0942 6.21998C21.4324 6.15026 21.6926 5.87914 21.7483 5.53832L22.2725 2.32915C22.3102 2.04131 22.5313 1.81175 22.8175 1.76332C23.2583 1.71748 23.705 1.68498 24.1667 1.66665L24.1483 8.34248C15.2763 8.79565 8.31669 16.1238 8.32158 25.0075C8.32647 33.8911 15.2941 41.2116 24.1667 41.655L24.155 48.3333C23.7075 48.315 23.2642 48.28 22.8267 48.2308C22.539 48.1888 22.3136 47.962 22.2733 47.6742L21.7483 44.4633C21.6926 44.1225 21.4324 43.8514 21.0942 43.7817C18.7416 43.2968 16.5034 42.3668 14.5 41.0417C14.2119 40.8516 13.8364 40.8589 13.5558 41.06L10.9033 42.9633C10.6771 43.1392 10.3628 43.1477 10.1275 42.9842C9.515 42.4683 8.98417 41.9841 8.50583 41.5067C7.99483 41.0018 7.51003 40.4711 7.05333 39.9167C6.87361 39.6766 6.87361 39.3467 7.05333 39.1067L8.9525 36.455C9.15355 36.1744 9.16084 35.799 8.97083 35.5108C7.64628 33.5061 6.71685 31.2668 6.2325 28.9133C6.16289 28.5753 5.89217 28.3152 5.55167 28.2592L2.34333 27.7333C2.04468 27.6839 1.81544 27.4417 1.7825 27.1408C1.6264 25.7075 1.62808 24.2613 1.7875 22.8283C1.82899 22.5404 2.05538 22.3144 2.34333 22.2733L5.55083 21.7483C5.89262 21.6921 6.16401 21.4304 6.2325 21.0908Z" fill="black"/>
<path d="M47.4998 22.5C46.4441 22.5044 45.505 23.1714 45.1531 24.1667H25.8331V21.6667H39.1665C40.5472 21.6667 41.6665 20.5474 41.6665 19.1667V14.8467C42.8144 14.4408 43.503 13.2669 43.2971 12.0669C43.0912 10.8668 42.0507 9.98965 40.8331 9.98965C39.6155 9.98965 38.575 10.8668 38.3691 12.0669C38.1632 13.2669 38.8518 14.4408 39.9998 14.8467V19.1667C39.9998 19.6269 39.6267 20 39.1665 20H25.8331V17.5H34.9998C35.46 17.5 35.8331 17.1269 35.8331 16.6667C35.8331 16.2064 35.46 15.8333 34.9998 15.8333H25.8331V14.1667H30.8331C32.2138 14.1667 33.3331 13.0474 33.3331 11.6667V6.51333C34.4811 6.10747 35.1697 4.93361 34.9638 3.73356C34.7579 2.5335 33.7174 1.65631 32.4998 1.65631C31.2822 1.65631 30.2417 2.5335 30.0358 3.73356C29.8299 4.93361 30.5185 6.10747 31.6665 6.51333V11.6667C31.6665 12.1269 31.2934 12.5 30.8331 12.5H25.6131C25.3264 11.9671 24.7543 11.6516 24.1506 11.6933C17.1282 12.1381 11.6602 17.9635 11.6602 25C11.6602 32.0365 17.1282 37.8619 24.1506 38.3067H24.2481C24.8174 38.3114 25.3427 38.001 25.6131 37.5H30.8331C31.2934 37.5 31.6665 37.8731 31.6665 38.3333V43.4867C30.5185 43.8925 29.8299 45.0664 30.0358 46.2664C30.2417 47.4665 31.2822 48.3437 32.4998 48.3437C33.7174 48.3437 34.7579 47.4665 34.9638 46.2664C35.1697 45.0664 34.4811 43.8925 33.3331 43.4867V38.3333C33.3331 36.9526 32.2138 35.8333 30.8331 35.8333H25.8331V34.1667H34.9998C35.46 34.1667 35.8331 33.7936 35.8331 33.3333C35.8331 32.8731 35.46 32.5 34.9998 32.5H25.8331V30H39.1665C39.6267 30 39.9998 30.3731 39.9998 30.8333V35.1533C38.8518 35.5592 38.1632 36.7331 38.3691 37.9331C38.575 39.1332 39.6155 40.0104 40.8331 40.0104C42.0507 40.0104 43.0912 39.1332 43.2971 37.9331C43.503 36.7331 42.8144 35.5592 41.6665 35.1533V30.8333C41.6665 29.4526 40.5472 28.3333 39.1665 28.3333H25.8331V25.8333H45.1531C45.579 27.0288 46.8341 27.7144 48.0702 27.4267C49.3062 27.1389 50.1295 25.9695 49.9835 24.7088C49.8376 23.4482 48.7689 22.4977 47.4998 22.5ZM40.8331 11.6667C41.2934 11.6667 41.6665 12.0398 41.6665 12.5C41.6665 12.9602 41.2934 13.3333 40.8331 13.3333C40.3729 13.3333 39.9998 12.9602 39.9998 12.5C39.9998 12.0398 40.3729 11.6667 40.8331 11.6667ZM32.4998 3.33333C32.96 3.33333 33.3331 3.70643 33.3331 4.16667C33.3331 4.6269 32.96 5 32.4998 5C32.0396 5 31.6665 4.6269 31.6665 4.16667C31.6665 3.70643 32.0396 3.33333 32.4998 3.33333ZM32.4998 46.6667C32.0396 46.6667 31.6665 46.2936 31.6665 45.8333C31.6665 45.3731 32.0396 45 32.4998 45C32.96 45 33.3331 45.3731 33.3331 45.8333C33.3331 46.2936 32.96 46.6667 32.4998 46.6667ZM40.8331 38.3333C40.3729 38.3333 39.9998 37.9602 39.9998 37.5C39.9998 37.0398 40.3729 36.6667 40.8331 36.6667C41.2934 36.6667 41.6665 37.0398 41.6665 37.5C41.6665 37.9602 41.2934 38.3333 40.8331 38.3333ZM13.3331 25C13.3401 18.8828 18.0654 13.8072 24.1665 13.3633V36.6367C18.0654 36.1928 13.3401 31.1172 13.3331 25ZM47.4998 25.8333C47.0396 25.8333 46.6665 25.4602 46.6665 25C46.6665 24.5398 47.0396 24.1667 47.4998 24.1667C47.96 24.1667 48.3331 24.5398 48.3331 25C48.3331 25.4602 47.96 25.8333 47.4998 25.8333Z" fill="black"/>
</g>
<defs>
<clipPath id="clip0_6032_2745">
<rect width="50" height="50" fill="white"/>
</clipPath>
</defs>
</svg>
