<svg width="50" height="50" viewBox="0 0 50 50" fill="none" xmlns="http://www.w3.org/2000/svg">
<path d="M42.946 0.732422H11.8472C11.5775 0.732422 11.3589 0.951074 11.3589 1.2207V14.7586H14.5613C15.8831 14.7586 16.9547 15.8302 16.9547 17.152C16.9547 18.4176 15.9721 19.453 14.7283 19.5389V22.5077C15.197 22.5794 15.5563 22.9831 15.5563 23.4718V29.5336C15.5563 30.0223 15.1969 30.426 14.7282 30.4977L14.7283 33.4665C15.9722 33.5523 16.9547 34.5878 16.9547 35.8534C16.9547 37.1752 15.8831 38.2468 14.5613 38.2468H11.3589V42.2543H18.0982C18.6376 42.2543 19.0748 42.6915 19.0748 43.2309V45.1739C19.0748 45.1748 19.0747 45.1756 19.0747 45.1765H19.8187C20.3581 45.1765 20.7953 45.6137 20.7953 46.153V49.2676H43.4344V1.2207C43.4343 0.951074 43.2157 0.732422 42.946 0.732422Z" fill="#FFF3DE"/>
<path d="M14.5613 14.7586C14.5905 14.7586 14.6194 14.7598 14.6484 14.7608V1.2207C14.6484 0.951074 14.8671 0.732422 15.1367 0.732422H11.8472C11.5775 0.732422 11.3589 0.951074 11.3589 1.2207V14.7586H14.5613Z" fill="#FFE5C2"/>
<path d="M14.5613 38.247H11.3589V42.2545H14.6484V38.2448C14.6194 38.2458 14.5905 38.247 14.5613 38.247Z" fill="#FFE5C2"/>
<path d="M15.5566 24.833H20.0771V28.1726H15.5566V24.833Z" fill="#883F2E"/>
<path d="M23.1938 24.833H29.6504V28.1726H23.1938V24.833Z" fill="#883F2E"/>
<path d="M15.5566 26.5625H20.0771V28.1726H15.5566V26.5625Z" fill="#6D3326"/>
<path d="M23.1938 26.5625H29.6504V28.1726H23.1938V26.5625Z" fill="#6D3326"/>
<path d="M47.7955 26.5028C47.7955 27.8554 46.699 28.9519 45.3465 28.9519H30.207C29.8996 28.9519 29.6504 28.7026 29.6504 28.3952V24.6104C29.6504 24.3029 29.8996 24.0537 30.207 24.0537H45.3465C46.699 24.0538 47.7955 25.1503 47.7955 26.5028Z" fill="#CA6E59"/>
<path d="M32.9788 26.8555C32.6714 26.8555 32.4223 26.6062 32.4223 26.2988V24.0537H30.207C29.8996 24.0537 29.6504 24.3029 29.6504 24.6104V28.3952C29.6504 28.7026 29.8996 28.9519 30.207 28.9519H45.3465C46.5792 28.9519 47.5988 28.0409 47.7698 26.8555H32.9788Z" fill="#BB5D4C"/>
<path d="M23.1936 24.5421V28.4636C23.1936 28.7332 22.9749 28.9518 22.7053 28.9518H20.5649C20.2953 28.9518 20.0767 28.7332 20.0767 28.4636V24.5421C20.0767 24.2725 20.2953 24.0538 20.5649 24.0538H22.7053C22.975 24.0538 23.1936 24.2724 23.1936 24.5421Z" fill="#CA6E59"/>
<path d="M21.4925 28.4636V24.5421C21.4925 24.2725 21.7111 24.0538 21.9808 24.0538H20.5649C20.2953 24.0538 20.0767 24.2725 20.0767 24.5421V28.4636C20.0767 28.7332 20.2953 28.9518 20.5649 28.9518H21.9808C21.711 28.9518 21.4925 28.7332 21.4925 28.4636Z" fill="#BB5D4C"/>
<path d="M14.5799 30.5103H8.42061C8.36992 30.5103 8.32061 30.5052 8.27197 30.4978V33.4666C8.32725 33.4628 8.38271 33.4602 8.43896 33.4602H14.5615C14.6177 33.4602 14.6732 33.4628 14.7285 33.4666V30.4978C14.6799 30.5053 14.6306 30.5103 14.5799 30.5103Z" fill="#883F2E"/>
<path d="M8.42061 30.5103C8.36992 30.5103 8.32061 30.5052 8.27197 30.4978V33.4666C8.32725 33.4628 8.38271 33.4602 8.43896 33.4602H10.7312V30.5102L8.42061 30.5103Z" fill="#6D3326"/>
<path d="M8.42061 22.4953H14.5799C14.6306 22.4953 14.6799 22.5004 14.7285 22.5078V19.539C14.6732 19.5428 14.6177 19.5454 14.5615 19.5454H8.43896C8.38281 19.5454 8.32725 19.5428 8.27197 19.539V22.5078C8.32061 22.5004 8.36992 22.4953 8.42061 22.4953Z" fill="#883F2E"/>
<path d="M8.42061 22.4953H10.7312V19.5453H8.43896C8.38281 19.5453 8.32725 19.5427 8.27197 19.5389V22.5077C8.32061 22.5004 8.36992 22.4953 8.42061 22.4953Z" fill="#6D3326"/>
<path d="M15.5563 23.4719V29.5337C15.5563 30.073 15.119 30.5103 14.5797 30.5103H8.42041C7.88105 30.5103 7.44385 30.073 7.44385 29.5337V23.4719C7.44385 22.9325 7.88105 22.4953 8.42041 22.4953H14.5797C15.119 22.4953 15.5563 22.9325 15.5563 23.4719Z" fill="#CA6E59"/>
<path d="M10.7422 29.5337V23.4719C10.7422 22.9325 11.1794 22.4953 11.7188 22.4953H8.42041C7.88105 22.4953 7.44385 22.9325 7.44385 23.4719V29.5337C7.44385 30.073 7.88105 30.5103 8.42041 30.5103H11.7188C11.1794 30.5103 10.7422 30.073 10.7422 29.5337Z" fill="#BB5D4C"/>
<path d="M19.0696 45.2742C19.0729 45.2413 19.0747 45.2078 19.0747 45.174V43.231C19.0747 42.6916 18.6375 42.2544 18.0981 42.2544H4.90186C4.3625 42.2544 3.92529 42.6916 3.92529 43.231V45.174C3.92529 45.2078 3.92705 45.2413 3.93037 45.2742H19.0696Z" fill="#CA6E59"/>
<path d="M7.23164 45.2742C7.22832 45.2413 7.22656 45.2078 7.22656 45.174V43.231C7.22656 42.6916 7.66377 42.2544 8.20312 42.2544H4.90186C4.3625 42.2544 3.92529 42.6916 3.92529 43.231V45.174C3.92529 45.2078 3.92705 45.2413 3.93037 45.2742H7.23164Z" fill="#BB5D4C"/>
<path d="M20.7954 49.2676H2.69336C2.42373 49.2676 2.20508 49.0489 2.20508 48.7793V46.1531C2.20508 45.6138 2.64229 45.1766 3.18164 45.1766H19.8188C20.3582 45.1766 20.7954 45.6138 20.7954 46.1531V49.2676Z" fill="#883F2E"/>
<path d="M5.46895 48.7793V46.1531C5.46895 45.6138 5.90615 45.1766 6.44551 45.1766H3.18164C2.64229 45.1766 2.20508 45.6138 2.20508 46.1531V48.7793C2.20508 49.0489 2.42373 49.2676 2.69336 49.2676H5.95723C5.6876 49.2676 5.46895 49.0489 5.46895 48.7793Z" fill="#6D3326"/>
<path d="M16.9547 35.8536C16.9547 37.1754 15.8831 38.247 14.5613 38.247H8.43877C7.11699 38.247 6.04541 37.1754 6.04541 35.8536C6.04541 34.5318 7.11699 33.4603 8.43877 33.4603H14.5613C15.8831 33.4603 16.9547 34.5318 16.9547 35.8536Z" fill="#CA6E59"/>
<path d="M9.30557 35.8536C9.30557 34.5318 10.3771 33.4603 11.6989 33.4603H8.43877C7.11699 33.4603 6.04541 34.5318 6.04541 35.8536C6.04541 37.1754 7.11699 38.247 8.43877 38.247H11.6989C10.3771 38.247 9.30557 37.1754 9.30557 35.8536Z" fill="#BB5D4C"/>
<path d="M16.9547 17.1519C16.9547 18.4737 15.8831 19.5453 14.5613 19.5453H8.43877C7.11699 19.5453 6.04541 18.4737 6.04541 17.1519C6.04541 15.8302 7.11699 14.7586 8.43877 14.7586H14.5613C15.8831 14.7586 16.9547 15.8302 16.9547 17.1519Z" fill="#CA6E59"/>
<path d="M9.30557 17.1519C9.30557 15.8302 10.3771 14.7586 11.6989 14.7586H8.43877C7.11699 14.7586 6.04541 15.8302 6.04541 17.1519C6.04541 18.4737 7.11699 19.5453 8.43877 19.5453H11.6989C10.3771 19.5453 9.30557 18.4738 9.30557 17.1519Z" fill="#BB5D4C"/>
<path d="M27.3969 18.9888C31.1814 18.9888 34.2493 15.9208 34.2493 12.1363C34.2493 8.35183 31.1814 5.28389 27.3969 5.28389C23.6124 5.28389 20.5444 8.35183 20.5444 12.1363C20.5444 15.9208 23.6124 18.9888 27.3969 18.9888Z" fill="#4FC123"/>
<path d="M23.8284 12.1363C23.8284 8.91797 26.0477 6.21914 29.0389 5.4833C28.5126 5.35381 27.963 5.28389 27.3969 5.28389C23.6124 5.28389 20.5444 8.35186 20.5444 12.1363C20.5444 15.9208 23.6124 18.9888 27.3969 18.9888C27.9631 18.9888 28.5127 18.9188 29.0389 18.7894C26.0477 18.0534 23.8284 15.3547 23.8284 12.1363Z" fill="#47A920"/>
<path d="M45.3463 23.3214H44.167V10.6445C44.167 10.2326 43.827 9.9001 43.4121 9.9124C43.0112 9.92441 42.7021 10.2741 42.7021 10.6752V23.3213H37.7932C37.3886 23.3213 37.0607 23.6492 37.0607 24.0537C37.0607 24.4582 37.3886 24.7861 37.7932 24.7861H45.3463C46.2928 24.7861 47.0629 25.5562 47.0629 26.5027C47.0629 27.4492 46.2928 28.2193 45.3463 28.2193H30.3827V24.7861H34.3752C34.7798 24.7861 35.1076 24.4582 35.1076 24.0537C35.1076 23.6492 34.7798 23.3213 34.3752 23.3213H30.2068C29.6771 23.3213 29.2214 23.6427 29.0234 24.1005H23.8423C23.6648 23.6452 23.2228 23.3213 22.7055 23.3213H20.5651C20.0479 23.3213 19.6058 23.6453 19.4283 24.1005H16.2889V23.4718C16.2889 22.852 15.9561 22.3098 15.4608 22.0102V20.1452C16.7474 19.758 17.6873 18.5629 17.6873 17.1519C17.6873 15.4283 16.2852 14.0261 14.5615 14.0261H12.0914V1.46484H42.702V7.22656C42.702 7.63848 43.0421 7.971 43.4569 7.95869C43.8578 7.94668 44.1669 7.59697 44.1669 7.1959V1.2207C44.1669 0.546484 43.6204 0 42.9462 0H11.8473C11.173 0 10.6266 0.546484 10.6266 1.2207V14.0262H8.43896C6.71543 14.0262 5.31318 15.4284 5.31318 17.152C5.31318 18.5629 6.25313 19.7579 7.53955 20.1452V22.0102C7.04434 22.3098 6.71152 22.852 6.71152 23.4718V29.5336C6.71152 30.1534 7.04434 30.6956 7.53955 30.9952V32.8602C6.25313 33.2475 5.31318 34.4425 5.31318 35.8535C5.31318 37.5771 6.71533 38.9793 8.43896 38.9793H10.6266V41.522H4.90205C3.95977 41.522 3.19307 42.2887 3.19307 43.231V44.4441H3.18164C2.23936 44.4441 1.47266 45.2108 1.47266 46.1531V48.7793C1.47266 49.4524 2.02021 50 2.69336 50H42.9462C43.6204 50 44.1669 49.4535 44.1669 48.7793V29.6843H45.3462C47.1005 29.6843 48.5276 28.2571 48.5276 26.5028C48.5276 24.7485 47.1006 23.3214 45.3463 23.3214ZM23.9262 25.5654H28.9179V27.4401H23.9262V25.5654ZM20.8093 24.7862H22.4613V28.2194H20.8093V24.7862ZM16.2889 25.5654H19.3444V27.4401H16.2889V25.5654ZM6.77803 17.152C6.77803 16.2361 7.52314 15.491 8.43896 15.491H14.5615C15.4773 15.491 16.2225 16.2361 16.2225 17.152C16.2225 18.0678 15.4773 18.8129 14.5615 18.8129H8.43896C7.52314 18.813 6.77803 18.0679 6.77803 17.152ZM8.42061 29.7778C8.28594 29.7778 8.17646 29.6683 8.17646 29.5337V23.4719C8.17646 23.3373 8.28594 23.2277 8.42061 23.2277H14.5799C14.7146 23.2277 14.824 23.3373 14.824 23.4719V29.5337C14.824 29.6683 14.7146 29.7778 14.5799 29.7778H8.42061ZM13.996 31.2427V32.7278H9.00439V31.2427H13.996ZM9.00439 21.7629V20.2777H13.996V21.7629H9.00439ZM8.43896 37.5145C7.52314 37.5145 6.77803 36.7694 6.77803 35.8536C6.77803 34.9378 7.52314 34.1927 8.43896 34.1927H14.5615C15.4773 34.1927 16.2225 34.9378 16.2225 35.8536C16.2225 36.7694 15.4773 37.5145 14.5615 37.5145H8.43896ZM20.063 48.5352H2.9375V46.1531C2.9375 46.0186 3.04697 45.909 3.18164 45.909H7.71504C8.11963 45.909 8.44746 45.5811 8.44746 45.1766C8.44746 44.7721 8.11963 44.4441 7.71504 44.4441H4.65791V43.231C4.65791 43.0964 4.76738 42.9868 4.90205 42.9868H18.0983C18.233 42.9868 18.3425 43.0964 18.3425 43.231V44.4441H11.133C10.7284 44.4441 10.4006 44.7721 10.4006 45.1766C10.4006 45.5811 10.7284 45.909 11.133 45.909H19.8188C19.9535 45.909 20.063 46.0186 20.063 46.1531V48.5352ZM42.7021 48.5352H21.5278V46.1531C21.5278 45.2108 20.7611 44.4441 19.8188 44.4441H19.8073V43.231C19.8073 42.2887 19.0406 41.522 18.0983 41.522H12.0914V38.9793H14.5615C16.2851 38.9793 17.6873 37.5771 17.6873 35.8535C17.6873 34.4425 16.7474 33.2475 15.4608 32.8602V30.9952C15.9561 30.6956 16.2889 30.1534 16.2889 29.5336V28.9049H19.4283C19.6058 29.3602 20.0479 29.6841 20.5651 29.6841H22.7055C23.2228 29.6841 23.6648 29.3601 23.8423 28.9049H29.0234C29.2214 29.3627 29.6771 29.6841 30.2068 29.6841H42.702V48.5352H42.7021Z" fill="black"/>
<path d="M19.812 12.1363C19.812 16.3187 23.2146 19.7212 27.3969 19.7212C31.5792 19.7212 34.9817 16.3187 34.9817 12.1363C34.9817 7.95401 31.5792 4.55147 27.3969 4.55147C23.2146 4.55147 19.812 7.95401 19.812 12.1363ZM33.5169 12.1363C33.5169 15.5109 30.7715 18.2564 27.3969 18.2564C24.0223 18.2564 21.2769 15.5109 21.2769 12.1363C21.2769 8.76172 24.0223 6.01631 27.3969 6.01631C30.7715 6.01631 33.5169 8.76172 33.5169 12.1363Z" fill="black"/>
<path d="M25.3075 11.3325C25.0214 11.0465 24.5577 11.0465 24.2717 11.3325C23.9856 11.6186 23.9856 12.0823 24.2717 12.3683L26.5245 14.6211C26.6676 14.7641 26.8551 14.8356 27.0425 14.8356C27.2299 14.8356 27.4174 14.7642 27.5604 14.6211L31.0524 11.1291C31.3385 10.8431 31.3385 10.3793 31.0524 10.0934C30.7663 9.80732 30.3026 9.80732 30.0166 10.0934L27.0426 13.0675L25.3075 11.3325Z" fill="black"/>
<path d="M23.7974 32.6728C23.7974 33.0773 24.1252 33.4052 24.5298 33.4052H37.9995C38.4041 33.4052 38.7319 33.0773 38.7319 32.6728C38.7319 32.2683 38.4041 31.9403 37.9995 31.9403H24.5298C24.1252 31.9403 23.7974 32.2683 23.7974 32.6728Z" fill="black"/>
<path d="M37.999 35.5025H31.0547C30.6501 35.5025 30.3223 35.8305 30.3223 36.235C30.3223 36.6394 30.6501 36.9674 31.0547 36.9674H37.999C38.4036 36.9674 38.7314 36.6394 38.7314 36.235C38.7314 35.8305 38.4036 35.5025 37.999 35.5025Z" fill="black"/>
<path d="M24.5298 36.9674H28.516C28.9206 36.9674 29.2484 36.6394 29.2484 36.235C29.2484 35.8305 28.9206 35.5025 28.516 35.5025H24.5298C24.1252 35.5025 23.7974 35.8305 23.7974 36.235C23.7974 36.6394 24.1252 36.9674 24.5298 36.9674Z" fill="black"/>
<path d="M37.999 39.0647H24.5293C24.1247 39.0647 23.7969 39.3927 23.7969 39.7972C23.7969 40.2017 24.1247 40.5296 24.5293 40.5296H37.999C38.4036 40.5296 38.7314 40.2017 38.7314 39.7972C38.7314 39.3927 38.4036 39.0647 37.999 39.0647Z" fill="black"/>
<path d="M37.999 42.627H34.4727C34.0681 42.627 33.7402 42.9549 33.7402 43.3594C33.7402 43.7639 34.0681 44.0918 34.4727 44.0918H37.999C38.4036 44.0918 38.7314 43.7639 38.7314 43.3594C38.7314 42.9549 38.4036 42.627 37.999 42.627Z" fill="black"/>
<path d="M32.227 42.627H24.5298C24.1252 42.627 23.7974 42.9549 23.7974 43.3594C23.7974 43.7639 24.1252 44.0918 24.5298 44.0918H32.227C32.6315 44.0918 32.9594 43.7639 32.9594 43.3594C32.9594 42.9549 32.6315 42.627 32.227 42.627Z" fill="black"/>
</svg>
