<svg width="50" height="50" viewBox="0 0 50 50" fill="none" xmlns="http://www.w3.org/2000/svg">
<g clip-path="url(#clip0_5992_3445)">
<path d="M25.3461 26.7236L19.4346 43.9019C21.2004 44.4195 23.0673 44.7052 25.0017 44.7052C27.2955 44.7052 29.497 44.3082 31.5438 43.5879C31.4912 43.5034 31.4432 43.4137 31.404 43.3162L25.3461 26.7236Z" fill="black"/>
<path d="M5.29688 24.9991C5.29688 32.7992 9.82977 39.5392 16.4028 42.7327L7.00393 16.9805C5.91092 19.431 5.29688 22.1429 5.29688 24.9991Z" fill="black"/>
<path d="M38.3019 24.0049C38.3019 21.5699 37.428 19.884 36.6784 18.5703C35.6792 16.9473 34.7429 15.5733 34.7429 13.9497C34.7429 12.1385 36.1164 10.4526 38.0518 10.4526C38.1395 10.4526 38.222 10.4635 38.3076 10.4676C34.8027 7.25713 30.1327 5.2959 25.0023 5.2959C18.1173 5.2959 12.0609 8.82756 8.53906 14.1776C9.00101 14.1915 9.43564 14.2013 9.80685 14.2013C11.8681 14.2013 15.059 13.9513 15.059 13.9513C16.1221 13.8874 16.2458 15.448 15.1853 15.5733C15.1853 15.5733 14.1175 15.6986 12.9302 15.7615L20.1043 37.1045L24.416 24.1714L21.3453 15.7609C20.2843 15.698 19.2794 15.5728 19.2794 15.5728C18.2184 15.5109 18.3421 13.8879 19.4037 13.9508C19.4037 13.9508 22.6585 14.2008 24.5934 14.2008C26.6541 14.2008 29.846 13.9508 29.846 13.9508C30.9091 13.8879 31.0334 15.4475 29.9713 15.5728C29.9713 15.5728 28.9025 15.698 27.7162 15.7609L34.8378 36.9421L36.8031 30.3748C37.6543 27.6495 38.3019 25.6913 38.3019 24.0049Z" fill="black"/>
<path d="M42.2902 15.5459C42.3748 16.1728 42.4233 16.8477 42.4233 17.5721C42.4233 19.5715 42.0505 21.8194 40.9255 24.6297L34.9062 42.0307C40.7636 38.6146 44.7052 32.2679 44.7052 24.9999C44.7057 21.5734 43.8297 18.3521 42.2902 15.5459Z" fill="black"/>
<path d="M25.0005 0C11.1935 0 0.000976562 11.193 0.000976562 25C0.000976562 38.807 11.1935 50 25.0005 50C38.8074 50 49.9999 38.807 49.9999 25C49.9999 11.193 38.8074 0 25.0005 0ZM25.0015 46.9153C12.9165 46.9153 3.08615 37.085 3.08615 24.999C3.08615 12.915 12.916 3.08466 25.0015 3.08466C37.0849 3.08466 46.9148 12.9155 46.9148 24.999C46.9153 37.0839 37.0844 46.9153 25.0015 46.9153Z" fill="black"/>
</g>
<defs>
<clipPath id="clip0_5992_3445">
<rect width="50" height="50" fill="white"/>
</clipPath>
</defs>
</svg>
