<svg width="60" height="60" viewBox="0 0 60 60" fill="none" xmlns="http://www.w3.org/2000/svg">
<path fill-rule="evenodd" clip-rule="evenodd" d="M30.6829 8.08776C26.4189 7.94576 22.1109 9.10909 18.3916 11.5918C14.2142 14.3831 11.2949 18.5051 9.95023 23.1131C9.57889 23.0678 9.13423 23.0878 8.60623 23.2371C6.63489 23.7964 5.15223 25.4118 4.48556 26.8344C3.62089 28.6884 3.25623 31.1404 3.64089 33.6718C4.02289 36.1951 5.08889 38.2751 6.42223 39.5664C7.75956 40.8584 9.26956 41.2784 10.7696 40.9631C13.0029 40.4864 14.1102 40.1298 13.7976 38.0491L12.2836 27.9631C12.5889 22.5044 15.4149 17.3658 20.1416 14.2058C26.4682 9.97976 34.7629 10.2504 40.7976 14.8831C44.9956 18.1018 47.4329 22.9244 47.7142 27.9871L46.6556 35.0424C44.2942 41.5044 38.4402 45.9804 31.6662 46.6158H27.1556C25.9916 46.6158 25.0542 47.5531 25.0542 48.7158V49.8238C25.0542 50.9871 25.9916 51.9244 27.1556 51.9244H32.8429C34.0062 51.9244 34.9396 50.9871 34.9396 49.8238V49.2444C40.0476 47.9978 44.5062 44.8584 47.4096 40.4804L49.2316 40.9638C50.7142 41.3484 52.2422 40.8584 53.5789 39.5671C54.9122 38.2751 55.9776 36.1958 56.3602 33.6724C56.7462 31.1411 56.3709 28.6931 55.5162 26.8351C54.6582 24.9771 53.3802 23.7971 51.9049 23.3738C51.2869 23.1958 50.6162 23.1304 50.0409 23.1131C48.8249 18.9464 46.3216 15.1571 42.7136 12.3904C39.1662 9.66842 34.9469 8.22776 30.6829 8.08776Z" fill="#FED090"/>
<path fill-rule="evenodd" clip-rule="evenodd" d="M37.3396 26.2334C38.8429 26.2334 40.0616 27.4521 40.0649 28.9594C40.0616 30.4627 38.8429 31.6847 37.3396 31.6847C35.8323 31.6847 34.6103 30.4627 34.6103 28.9594C34.6103 27.4527 35.8329 26.2334 37.3396 26.2334ZM29.9996 26.2334C31.5063 26.2334 32.7249 27.4521 32.7249 28.9594C32.7249 30.4627 31.5063 31.6847 29.9996 31.6847C28.4916 31.6847 27.2729 30.4627 27.2729 28.9594C27.2729 27.4527 28.4916 26.2334 29.9996 26.2334ZM22.6623 26.2334C24.1656 26.2334 25.3876 27.4521 25.3876 28.9594C25.3876 30.4627 24.1656 31.6847 22.6623 31.6847C21.1556 31.6847 19.9363 30.4627 19.9363 28.9594C19.9363 27.4527 21.1556 26.2334 22.6623 26.2334ZM29.9996 14.5254C22.0063 14.5254 15.5649 20.7547 15.5649 28.9594C15.5649 32.9001 17.0549 36.3827 19.4823 38.9381L18.6209 42.7994C18.3369 44.0701 19.2183 44.9247 20.3603 44.2887L24.1309 42.1854C25.9229 42.9634 27.9049 43.3934 29.9996 43.3934C37.9956 43.3934 44.4329 37.1681 44.4329 28.9594C44.4329 20.7547 37.9956 14.5254 29.9996 14.5254Z" fill="#FED090"/>
</svg>
