<svg width="60" height="60" viewBox="0 0 60 60" fill="none" xmlns="http://www.w3.org/2000/svg">
<path d="M47.5 3.125H12.5C10.6766 3.125 8.92795 3.84933 7.63864 5.13864C6.34933 6.42795 5.625 8.17664 5.625 10V50C5.625 51.8234 6.34933 53.5721 7.63864 54.8614C8.92795 56.1507 10.6766 56.875 12.5 56.875H47.5C49.3234 56.875 51.072 56.1507 52.3614 54.8614C53.6507 53.5721 54.375 51.8234 54.375 50V10C54.375 8.17664 53.6507 6.42795 52.3614 5.13864C51.072 3.84933 49.3234 3.125 47.5 3.125ZM26.325 41.95L20 48.2C19.6484 48.5511 19.1719 48.7484 18.675 48.7484C18.1781 48.7484 17.7016 48.5511 17.35 48.2L13.6 44.45C13.2688 44.0946 13.0885 43.6245 13.0971 43.1387C13.1056 42.6529 13.3024 42.1895 13.6459 41.846C13.9895 41.5024 14.4529 41.3056 14.9387 41.2971C15.4244 41.2885 15.8946 41.4688 16.25 41.8L18.75 44.3L23.75 39.3C23.9217 39.1158 24.1287 38.968 24.3587 38.8656C24.5887 38.7631 24.8369 38.708 25.0887 38.7035C25.3405 38.6991 25.5905 38.7454 25.824 38.8397C26.0575 38.934 26.2695 39.0744 26.4476 39.2524C26.6256 39.4305 26.766 39.6425 26.8603 39.876C26.9546 40.1095 27.0009 40.3596 26.9965 40.6113C26.992 40.8631 26.9369 41.1114 26.8345 41.3414C26.732 41.5713 26.5842 41.7784 26.4 41.95H26.325ZM26.325 28.2L20 34.45C19.6484 34.8011 19.1719 34.9984 18.675 34.9984C18.1781 34.9984 17.7016 34.8011 17.35 34.45L13.6 30.7C13.2688 30.3446 13.0885 29.8745 13.0971 29.3887C13.1056 28.9029 13.3024 28.4395 13.6459 28.0959C13.9895 27.7524 14.4529 27.5556 14.9387 27.5471C15.4244 27.5385 15.8946 27.7188 16.25 28.05L18.75 30.55L23.75 25.55C24.1054 25.2188 24.5756 25.0385 25.0613 25.0471C25.5471 25.0556 26.0105 25.2524 26.3541 25.5959C26.6976 25.9395 26.8944 26.4029 26.9029 26.8887C26.9115 27.3744 26.7312 27.8446 26.4 28.2H26.325ZM26.325 14.45L20 20.7C19.6562 21.0075 19.2112 21.1775 18.75 21.1775C18.2888 21.1775 17.8438 21.0075 17.5 20.7L13.75 16.95C13.4903 16.5926 13.3652 16.1549 13.3967 15.7142C13.4282 15.2735 13.6143 14.8581 13.9222 14.5413C14.2301 14.2244 14.64 14.0265 15.0796 13.9823C15.5192 13.9382 15.9603 14.0507 16.325 14.3L18.825 16.8L23.825 11.8C24.1804 11.4688 24.6506 11.2885 25.1363 11.2971C25.6221 11.3056 26.0855 11.5024 26.4291 11.8459C26.7726 12.1895 26.9694 12.6529 26.9779 13.1387C26.9865 13.6244 26.8062 14.0946 26.475 14.45H26.325ZM45 46.25H32.5C32.0027 46.25 31.5258 46.0525 31.1742 45.7008C30.8225 45.3492 30.625 44.8723 30.625 44.375C30.625 43.8777 30.8225 43.4008 31.1742 43.0492C31.5258 42.6975 32.0027 42.5 32.5 42.5H45C45.4973 42.5 45.9742 42.6975 46.3258 43.0492C46.6775 43.4008 46.875 43.8777 46.875 44.375C46.875 44.8723 46.6775 45.3492 46.3258 45.7008C45.9742 46.0525 45.4973 46.25 45 46.25ZM45 32.5H32.5C32.0027 32.5 31.5258 32.3025 31.1742 31.9508C30.8225 31.5992 30.625 31.1223 30.625 30.625C30.625 30.1277 30.8225 29.6508 31.1742 29.2992C31.5258 28.9475 32.0027 28.75 32.5 28.75H45C45.4973 28.75 45.9742 28.9475 46.3258 29.2992C46.6775 29.6508 46.875 30.1277 46.875 30.625C46.875 31.1223 46.6775 31.5992 46.3258 31.9508C45.9742 32.3025 45.4973 32.5 45 32.5ZM45 18.75H32.5C32.0027 18.75 31.5258 18.5525 31.1742 18.2008C30.8225 17.8492 30.625 17.3723 30.625 16.875C30.625 16.3777 30.8225 15.9008 31.1742 15.5492C31.5258 15.1975 32.0027 15 32.5 15H45C45.4973 15 45.9742 15.1975 46.3258 15.5492C46.6775 15.9008 46.875 16.3777 46.875 16.875C46.875 17.3723 46.6775 17.8492 46.3258 18.2008C45.9742 18.5525 45.4973 18.75 45 18.75Z" fill="#FED090"/>
</svg>
