<svg width="60" height="60" viewBox="0 0 60 60" fill="none" xmlns="http://www.w3.org/2000/svg">
<path fill-rule="evenodd" clip-rule="evenodd" d="M32.6797 36.4948C29.4485 38.9306 25.4277 40.3749 21.0698 40.3749C10.4084 40.3749 1.76465 31.7311 1.76465 21.0698C1.76465 10.4084 10.4084 1.76465 21.0698 1.76465C27.7471 1.76465 33.6331 5.15535 37.0996 10.3088C35.8162 11.2938 34.7374 12.579 33.9499 14.077C33.9499 14.077 33.7325 14.077 33.3522 14.077C30.9128 9.81394 26.3183 6.9303 21.0698 6.9303C13.283 6.9303 6.9303 13.283 6.9303 21.0698C6.9303 28.8598 13.283 35.2094 21.0698 35.2094C27.0354 35.2094 32.1562 31.4857 34.2276 26.243C35.1946 27.8874 36.5245 29.2448 38.0899 30.1878C37.6212 31.0609 37.0874 31.8937 36.4948 32.6797L41.1242 37.3091C42.0709 36.7617 43.3083 36.8922 44.1165 37.7004L57.5124 51.0963C58.4762 52.0566 58.4762 53.6341 57.5124 54.5978L54.5978 57.5124C53.6341 58.4762 52.0601 58.4762 51.0963 57.5124L37.7004 44.1165C36.8924 43.3085 36.7618 42.0691 37.3086 41.1237L32.6797 36.4948ZM43.2971 9.82112C48.3352 9.82112 52.4191 14.3381 52.4191 19.9105C52.4191 25.483 48.3352 29.9999 43.2971 29.9999C39.6101 29.9999 36.4331 27.5808 34.9959 24.097H31.3608L29.0036 26.6808L26.5919 23.5014L24.3469 26.3685L22.1751 24.097H20.0658L16.2028 19.9105L20.0658 15.7241H34.9959C36.4331 12.2403 39.6101 9.82112 43.2971 9.82112ZM46.8885 17.7983C45.6744 17.7983 44.6895 18.7441 44.6906 19.9105C44.6895 21.077 45.6744 22.0228 46.8885 22.0228C48.1025 22.0228 49.0875 21.077 49.0863 19.9105C49.0875 18.7441 48.1025 17.7983 46.8885 17.7983Z" fill="#FFD79F"/>
</svg>
