<svg width="60" height="60" viewBox="0 0 60 60" fill="none" xmlns="http://www.w3.org/2000/svg">
<path d="M21.2798 14.6015H38.7198L44.2433 4.40433C44.421 4.07627 44.4897 3.70017 44.4395 3.33048C44.3892 2.96078 44.2227 2.61665 43.9639 2.3479C43.7051 2.07914 43.3675 1.8997 43 1.83553C42.6324 1.77136 42.254 1.8258 41.9195 1.99097C37.9667 3.94261 34.5102 3.10976 30.5079 2.14589C26.55 1.19257 22.0646 0.112103 16.7395 1.90074C16.4965 1.98238 16.2743 2.11621 16.0884 2.29282C15.9026 2.46944 15.7576 2.68457 15.6637 2.92314C15.5698 3.1617 15.5292 3.41792 15.5448 3.67384C15.5603 3.92975 15.6317 4.17915 15.7539 4.40456L21.2798 14.6015Z" fill="#FFD79F"/>
<path d="M40.5585 18.8311C40.3299 18.5944 40.0999 18.3561 39.8684 18.1162H20.131C19.8998 18.3558 19.6698 18.5941 19.4409 18.8311C15.8771 22.5182 12.5108 26.0012 10.0049 29.8998C7.12377 34.3828 5.78174 38.7773 5.78174 43.7304C5.78174 49.4772 8.88029 53.8647 14.7421 56.4185C19.7558 58.6026 25.8058 59.0611 29.9983 59.0611C34.2214 59.0611 40.3049 58.6024 45.304 56.4175C51.1356 53.8688 54.2181 49.4817 54.2181 43.7304C54.2181 38.7774 52.8761 34.3827 49.9949 29.8998C47.4891 26.0012 44.1228 22.5182 40.5585 18.8311ZM30.3597 35.1125C31.6187 35.3773 32.9204 35.6516 34.0369 36.3874C35.4877 37.3438 36.2234 38.8218 36.2234 40.7806C36.2234 43.3665 34.3349 45.5547 31.7556 46.2516V47.1584C31.7556 47.6246 31.5704 48.0717 31.2408 48.4014C30.9111 48.7311 30.464 48.9163 29.9978 48.9163C29.5316 48.9163 29.0845 48.7311 28.7549 48.4014C28.4252 48.0717 28.24 47.6246 28.24 47.1584V46.2516C25.6607 45.5547 23.7722 43.3665 23.7722 40.7806C23.7722 40.3144 23.9574 39.8673 24.2871 39.5377C24.6168 39.208 25.0639 39.0228 25.5301 39.0228C25.9963 39.0228 26.4434 39.208 26.773 39.5377C27.1027 39.8673 27.2879 40.3144 27.2879 40.7806C27.2879 41.9877 28.5036 42.9691 29.9978 42.9691C31.4921 42.9691 32.7078 41.9873 32.7078 40.7806C32.7078 39.4212 32.2771 39.1085 29.6358 38.5528C28.377 38.2879 27.0752 38.0137 25.9587 37.278C24.5078 36.3215 23.7722 34.8434 23.7722 32.8846C23.7722 30.2971 25.6607 28.1077 28.24 27.4105V26.5068C28.24 26.0406 28.4252 25.5935 28.7549 25.2639C29.0845 24.9342 29.5316 24.749 29.9978 24.749C30.464 24.749 30.9111 24.9342 31.2408 25.2639C31.5704 25.5935 31.7556 26.0406 31.7556 26.5068V27.4101C34.3349 28.1074 36.2234 30.2968 36.2234 32.8843C36.2234 33.3505 36.0382 33.7976 35.7086 34.1273C35.3789 34.4569 34.9318 34.6421 34.4656 34.6421C33.9994 34.6421 33.5523 34.4569 33.2226 34.1273C32.893 33.7976 32.7078 33.3505 32.7078 32.8843C32.7078 31.6757 31.4921 30.6929 29.9978 30.6929C28.5036 30.6929 27.2879 31.6761 27.2879 32.8843C27.2883 34.2444 27.719 34.5567 30.3602 35.1125H30.3597Z" fill="#FFD79F"/>
</svg>
