<svg width="60" height="60" viewBox="0 0 60 60" fill="none" xmlns="http://www.w3.org/2000/svg">
<path fill-rule="evenodd" clip-rule="evenodd" d="M45.0014 34.3311C44.6761 35.4598 44.2268 36.5361 43.6692 37.544L44.7967 39.7568C45.1569 40.4639 45.0266 41.287 44.4654 41.8482L41.8479 44.4658C41.2867 45.027 40.4637 45.1573 39.7564 44.7971L37.5436 43.6695C36.5357 44.2271 35.4594 44.6764 34.3308 45.0018L33.5639 47.3621C33.3186 48.1169 32.6444 48.6068 31.8509 48.6068H28.149C27.3553 48.6068 26.6811 48.117 26.4359 47.3622L25.669 45.0018C24.5402 44.6765 23.464 44.2271 22.456 43.6697L20.2433 44.7971C19.5361 45.1575 18.7131 45.027 18.1519 44.4658L15.5343 41.8482C14.973 41.287 14.8427 40.464 15.203 39.7568L16.3305 37.5439C15.773 36.5359 15.3237 35.4597 14.9982 34.3311L12.638 33.5642C11.8832 33.3189 11.3933 32.6448 11.3933 31.8511V28.1492C11.3933 27.3556 11.8832 26.6813 12.6378 26.4361L14.9982 25.6692C15.3235 24.5404 15.773 23.4643 16.3304 22.4563L15.203 20.2435C14.8426 19.5363 14.973 18.7133 15.5343 18.1521L18.1518 15.5345C18.713 14.9732 19.5361 14.8429 20.2432 15.2032L22.456 16.3307C23.464 15.7732 24.5402 15.3239 25.6689 14.9984L26.4357 12.6382C26.681 11.8834 27.3552 11.3935 28.1488 11.3935H31.8506C32.6443 11.3935 33.3185 11.8832 33.5637 12.6382L34.3307 14.9988C35.4593 15.3241 36.5354 15.7734 37.5432 16.3307L39.7562 15.2032C40.4634 14.8428 41.2864 14.9732 41.8477 15.5345L44.4653 18.152C45.0265 18.7132 45.1568 19.5362 44.7966 20.2434L43.6691 22.4561C44.2266 23.4642 44.676 24.5403 45.0013 25.6691L47.3617 26.4359C48.1165 26.6812 48.6063 27.3554 48.6063 28.149V31.8508C48.6063 32.6445 48.1166 33.3186 47.3617 33.564L45.0013 34.3309L45.0014 34.3311ZM9.65097 15.8698L12.0135 18.2323L14.3875 8.16981L4.32503 10.5438L6.74636 12.9651C-1.53692 24.2427 -0.580435 40.1824 9.61851 50.3813C18.7962 59.559 32.6224 61.2525 43.5171 55.4643L40.4978 52.445C31.3223 56.7358 20.0593 55.0937 12.4828 47.5172C3.86976 38.9041 2.92757 25.5281 9.65097 15.8698ZM45.6117 51.8306L55.6743 49.4566L53.2537 47.0361C61.5371 35.7587 60.5798 19.8182 50.3808 9.61918C41.2031 0.441407 27.3768 -1.25207 16.4821 4.53606L19.5014 7.55539C28.6768 3.26457 39.9398 4.90672 47.5165 12.4832C56.1295 21.0963 57.0725 34.4729 50.3488 44.1311L47.9856 41.7679L45.6116 51.8305L45.6117 51.8306ZM33.6175 26.3826C31.6195 24.3847 28.3802 24.3847 26.3823 26.3826C24.3844 28.3805 24.3844 31.6198 26.3823 33.6178C28.3802 35.6157 31.6195 35.6157 33.6175 33.6178C35.6154 31.6198 35.6154 28.3805 33.6175 26.3826ZM37.3568 22.6433C33.2937 18.5802 26.7061 18.5802 22.643 22.6433C18.5798 26.7064 18.5798 33.294 22.643 37.3571C26.7061 41.4202 33.2937 41.4202 37.3568 37.3571C41.4199 33.294 41.4199 26.7064 37.3568 22.6433Z" fill="#FFD79F"/>
</svg>
