<svg width="60" height="60" viewBox="0 0 60 60" fill="none" xmlns="http://www.w3.org/2000/svg">
<g clip-path="url(#clip0_5068_186)">
<path d="M59.9051 1.28719C59.6958 0.549961 59.0467 0 58.2421 0H51.2109C50.2393 0 49.453 0.786211 49.453 1.75781C49.453 2.72941 50.2393 3.51563 51.2109 3.51563H55.3219L46.9274 12.9935C35.6098 25.796 18.9546 32.5629 1.90867 31.0815C0.973164 30.9837 0.0907422 31.7133 0.00671874 32.6814C-0.0774219 33.6478 0.638477 34.4993 1.60656 34.5833C3.25105 34.7258 4.63867 34.7961 6.27812 34.7961C22.7044 34.7961 38.6002 27.7185 49.5609 15.3211L56.4843 7.50703V8.78906C56.4843 9.76066 57.2705 10.5469 58.2421 10.5469C59.2137 10.5469 59.9999 9.76066 59.9999 8.78906V3.49242L59.9051 1.28719Z" fill="#FFD79F"/>
<path d="M58.2422 56.4846H56.3672V16.9643C56.3672 16.2261 55.9055 15.567 55.212 15.3129C54.5202 15.064 53.7425 15.2665 53.2654 15.8313L52.1856 17.1136C50.4003 19.2319 48.4554 21.2455 46.4023 23.0943C46.0315 23.4273 45.8203 23.9027 45.8203 24.4005V56.4846H42.3047V29.8853C42.3047 29.2364 41.9459 28.639 41.3743 28.3335C40.8027 28.0314 40.104 28.0623 39.5667 28.4262C37.3849 29.8922 35.0846 31.2312 32.7294 32.4087C32.1337 32.7056 31.7578 33.315 31.7578 33.9811V56.4846H28.2422V36.9783C28.2422 36.4066 27.9641 35.8711 27.4972 35.5414C27.032 35.2136 26.4312 35.1346 25.8939 35.3235C23.664 36.1182 21.3638 36.7929 19.0566 37.325C18.26 37.5104 17.6953 38.2194 17.6953 39.0382V56.4846H14.1797V40.2502C14.1797 39.7489 13.9651 39.2716 13.5926 38.9387C13.2166 38.6057 12.7068 38.4357 12.2228 38.5044C9.96715 38.7619 7.66863 38.8941 5.38898 38.8975C4.41914 38.8992 3.63293 39.6854 3.63293 40.6553V56.4846H1.75781C0.786211 56.4846 0 57.2708 0 58.2424C0 59.214 0.786211 60.0002 1.75781 60.0002H58.2422C59.2138 60.0002 60 59.214 60 58.2424C60 57.2708 59.2138 56.4846 58.2422 56.4846Z" fill="#FFD79F"/>
</g>
<defs>
<clipPath id="clip0_5068_186">
<rect width="60" height="60" fill="white"/>
</clipPath>
</defs>
</svg>
