<svg width="60" height="60" viewBox="0 0 60 60" fill="none" xmlns="http://www.w3.org/2000/svg">
<path d="M30 46.4655C39.0935 46.4655 46.4655 39.0935 46.4655 30C46.4655 20.9059 39.094 13.5345 30 13.5345C20.9065 13.5345 13.5345 20.9065 13.5345 30C13.5345 33.2405 14.4854 36.4811 16.3868 39.2673L2.66789 52.9889C1.50211 54.2174 1.52695 56.1355 2.69578 57.3043C3.88863 58.4972 5.8473 58.4934 7.04074 57.3034L20.7327 43.6131C23.5188 45.5147 26.7595 46.4655 30 46.4655ZM30 17.5781C36.8604 17.5781 42.4219 23.1397 42.4219 30C42.4219 36.8604 36.8603 42.4219 30 42.4219C23.1397 42.4219 17.5781 36.8604 17.5781 30C17.5781 23.1397 23.1397 17.5781 30 17.5781ZM23.2052 30.9107C22.53 30.1604 22.5908 29.0048 23.3411 28.3296C24.0913 27.6544 25.2469 27.7152 25.9221 28.4654L28.4544 31.2855L34.0494 24.7582C34.705 23.9921 35.8573 23.9025 36.6232 24.558C37.3893 25.2135 37.4789 26.3659 36.8234 27.1318L29.9316 35.1722C29.2378 36.0682 27.8913 36.1275 27.1264 35.2775L23.2052 30.9107ZM59.0039 33.4276C59.0039 34.4043 58.2048 35.2034 57.2282 35.2034H53.9941C52.038 35.2034 50.3678 36.3193 49.6192 38.1266C48.8707 39.9337 49.2626 41.9039 50.6457 43.2872L52.9325 45.574C53.6232 46.2646 53.6232 47.3946 52.9325 48.0853L48.0852 52.9328C47.3945 53.6234 46.2645 53.6234 45.5739 52.9328L43.2871 50.646C41.9039 49.2628 39.9337 48.8709 38.1266 49.6194C36.3195 50.368 35.2034 52.0383 35.2034 53.9944V57.2284C35.2034 58.205 34.4044 59.0041 33.4276 59.0041H26.5724C25.5957 59.0041 24.7966 58.205 24.7966 57.2284V53.9941C24.7966 52.038 23.6807 50.3678 21.8734 49.6192C20.0662 48.8707 18.0961 49.2626 16.7129 50.6457L14.4261 52.9325C14.1375 53.2212 13.7721 53.3891 13.3942 53.4364L20.9882 45.8434C23.7268 47.4028 26.8317 48.2234 30 48.2234C40.0637 48.2234 48.2234 40.0637 48.2234 30C48.2234 19.9358 40.0642 11.7766 30 11.7766C19.9364 11.7766 11.7766 19.9363 11.7766 30C11.7766 33.1684 12.5972 36.273 14.1566 39.0118L6.56344 46.6065C6.61066 46.2284 6.77859 45.8627 7.06746 45.5739L9.35426 43.2871C10.7374 41.9039 11.1293 39.9338 10.3808 38.1265C9.63234 36.3193 7.96207 35.2032 6.00598 35.2032H2.77184C1.7952 35.2032 0.996094 34.4043 0.996094 33.4275V26.5723C0.996094 25.5956 1.7952 24.7965 2.77184 24.7965H6.00586C7.96195 24.7965 9.63223 23.6805 10.3807 21.8734C11.1293 20.0661 10.7374 18.096 9.35414 16.7128L7.06734 14.426C6.37676 13.7354 6.37676 12.6054 7.06734 11.9148L11.9148 7.06734C12.6054 6.37676 13.7354 6.37676 14.426 7.06734L16.7128 9.35414C18.096 10.7373 20.0661 11.1292 21.8733 10.3807C23.6804 9.63211 24.7965 7.96195 24.7965 6.00586V2.77184C24.7965 1.79508 25.5956 0.996094 26.5723 0.996094H33.4275C34.4041 0.996094 35.2032 1.7952 35.2032 2.77184V6.00586C35.2032 7.96195 36.3192 9.63223 38.1265 10.3808C39.9338 11.1293 41.9039 10.7374 43.287 9.35426L45.5737 7.06746C46.2643 6.37687 47.3944 6.37687 48.0851 7.06746L52.9324 11.9149C53.6231 12.6055 53.6231 13.7355 52.9324 14.4261L50.6456 16.7129C49.2625 18.0961 48.8706 20.0663 49.6191 21.8735C50.3677 23.6807 52.0378 24.7966 53.994 24.7966H57.228C58.2047 24.7966 59.0038 25.5957 59.0038 26.5724L59.0039 33.4276Z" fill="#FFD79F"/>
</svg>
