<svg width="60" height="60" viewBox="0 0 60 60" fill="none" xmlns="http://www.w3.org/2000/svg">
<g clip-path="url(#clip0_5061_151)">
<path d="M31.2656 28.791C31.2558 28.7807 31.2529 28.767 31.2429 28.7569L21.2112 18.7251V12.4217C21.2112 11.9547 21.0258 11.5085 20.6962 11.1788L10.1494 0.514871C9.64814 0.0137772 8.89111 -0.139035 8.23357 0.133894C7.57615 0.405066 7.14865 1.04714 7.14865 1.75776V7.0312H1.75803C1.04752 7.03108 0.405448 7.45847 0.134276 8.116C-0.138653 8.77343 0.0124014 9.52882 0.51537 10.0318L11.1794 20.6957C11.5091 21.0254 11.9553 21.2108 12.4222 21.2108H18.7256L28.7573 31.2425C28.7674 31.2526 28.7811 31.2554 28.7914 31.2652C29.4758 31.9184 30.5154 31.9271 31.2089 31.2652C31.9392 30.5682 31.9228 29.4795 31.2656 28.791Z" fill="#FFD79F"/>
<path d="M30 0C25.5022 0 21.2496 1.14434 17.4202 2.9318L22.8124 8.32406C25.0756 7.57148 27.4876 7.14844 30.0001 7.14844C42.6 7.14832 52.8515 17.3999 52.8515 29.9998C52.8515 42.5996 42.6 52.8512 30 52.8512C17.4 52.8512 7.14856 42.5998 7.14856 29.9998C7.14856 27.4873 7.57173 25.0752 8.32419 22.8121L2.93192 17.4198C1.1447 21.2494 0.000244141 25.502 0.000244141 29.9998C0.000244141 46.4774 13.5224 59.9996 30 59.9996C46.4776 59.9996 59.9999 46.4774 59.9999 29.9998C59.9999 13.5221 46.4779 0 30 0Z" fill="#FFD79F"/>
<path d="M30.0001 14.1797C28.1421 14.1797 26.3843 14.5605 24.7267 15.1515V17.2696L28.7904 21.3333C29.1895 21.2775 29.5859 21.2109 30.0001 21.2109C34.8462 21.2109 38.7892 25.1539 38.7892 30C38.7892 34.8461 34.8462 38.7891 30.0001 38.7891C25.1541 38.7891 21.2111 34.8461 21.2111 30C21.2111 29.5856 21.2776 29.1893 21.3334 28.7903L17.2698 24.7264H15.1518C14.5608 26.3841 14.1799 28.1419 14.1799 29.9999C14.1799 38.7237 21.2765 45.8201 30.0001 45.8201C38.7238 45.8201 45.8204 38.7237 45.8204 29.9999C45.8204 21.2761 38.7239 14.1797 30.0001 14.1797Z" fill="#FFD79F"/>
</g>
<defs>
<clipPath id="clip0_5061_151">
<rect width="60" height="60" fill="white"/>
</clipPath>
</defs>
</svg>
