<svg width="60" height="60" viewBox="0 0 60 60" fill="none" xmlns="http://www.w3.org/2000/svg">
<g clip-path="url(#clip0_5061_156)">
<path fill-rule="evenodd" clip-rule="evenodd" d="M7.99988 0C3.56981 0 0 3.56978 0 7.99988V14.0002H60V7.99988C60 3.56978 56.4302 0 52.0001 0H7.99988ZM6.00038 4.00086C7.64541 4.00086 8.99963 5.35512 8.99963 7.00013C8.99963 8.64514 7.64541 9.99939 6.00038 9.99939C4.35534 9.99939 2.99925 8.64514 2.99925 7.00013C2.99925 5.35512 4.35534 4.00086 6.00038 4.00086ZM14.0003 4.00086C15.6453 4.00086 16.9995 5.35512 16.9995 7.00013C16.9995 8.64514 15.6453 9.99939 14.0003 9.99939C12.3553 9.99939 10.9991 8.64514 10.9991 7.00013C10.9991 5.35512 12.3553 4.00086 14.0003 4.00086ZM22.0001 4.00086C23.6451 4.00086 24.9994 5.35512 24.9994 7.00013C24.9994 8.64514 23.6451 9.99939 22.0001 9.99939C20.3551 9.99939 19.0009 8.64514 19.0009 7.00013C19.0009 5.35512 20.3551 4.00086 22.0001 4.00086ZM6.00038 6.00037C5.43628 6.00037 5.00063 6.43599 5.00063 7.00013C5.00063 7.56426 5.43628 7.99988 6.00038 7.99988C6.56447 7.99988 7.00013 7.56426 7.00013 7.00013C7.00013 6.43599 6.56447 6.00037 6.00038 6.00037ZM14.0003 6.00037C13.4362 6.00037 13.0005 6.43599 13.0005 7.00013C13.0005 7.56426 13.4362 7.99988 14.0003 7.99988C14.5643 7.99988 15 7.56426 15 7.00013C15 6.43599 14.5643 6.00037 14.0003 6.00037ZM22.0001 6.00037C21.436 6.00037 21.0004 6.43599 21.0004 7.00013C21.0004 7.56426 21.436 7.99988 22.0001 7.99988C22.5642 7.99988 22.9999 7.56426 22.9999 7.00013C22.9999 6.43599 22.5642 6.00037 22.0001 6.00037ZM0 15.9998V52.0001C0 56.4302 3.56981 60 7.99988 60H52.0001C56.4302 60 60 56.4302 60 52.0001V15.9998H0ZM45.9997 29.0002V41.001C45.9997 44.0861 42.8551 46.2645 39.9665 45.1813L28.8208 40.9991H25.9991V46.9995C25.9991 48.6445 24.6449 50.0006 22.9999 50.0006H21.0004C19.3553 50.0006 17.9993 48.6445 17.9993 46.9995V40.9991C15.8019 40.9991 14.0003 39.1974 14.0003 37.0001V32.9993C14.0003 30.802 15.8019 29.0002 17.9993 29.0002H28.8208L39.9665 24.8181C42.7303 23.7816 45.9997 25.796 45.9997 29.0002ZM40.6696 26.6913L30 30.694V39.3072L40.6696 43.3081C42.3114 43.9238 44.0003 42.7526 44.0003 40.9991V29.0002C44.0003 27.1767 42.2384 26.1031 40.6696 26.6913ZM17.9993 30.9998C16.8829 30.9998 15.9998 31.8829 15.9998 32.9993V37.0001C15.9998 38.1165 16.8829 38.9996 17.9993 38.9996H24.9994H28.0005V30.9998H17.9993ZM20.0006 40.9991V46.9995C20.0006 47.5636 20.4363 47.9993 21.0004 47.9993H22.9999C23.564 47.9993 23.9996 47.5636 23.9996 46.9995V40.9991H20.0006Z" fill="#FFD79F"/>
</g>
<defs>
<clipPath id="clip0_5061_156">
<rect width="60" height="60" fill="white"/>
</clipPath>
</defs>
</svg>
