<svg width="40" height="40" viewBox="0 0 40 40" fill="none" xmlns="http://www.w3.org/2000/svg">
<g clip-path="url(#clip0_3595_60)">
<path d="M32.8571 0H7.14286C3.19857 0 0 3.19857 0 7.14286V32.8571C0 36.8014 3.19857 40 7.14286 40H32.8571C36.8014 40 40 36.8014 40 32.8571V7.14286C40 3.19857 36.8014 0 32.8571 0ZM10.8814 21.24C10.9229 20.9914 11.0414 20.7614 11.22 20.5829L18.6314 13.1714L23.4529 17.9929L16.0414 25.4043C15.8629 25.5829 15.6329 25.7014 15.3843 25.7429L11.6529 26.3729C10.8286 26.5114 10.1129 25.7971 10.2514 24.9714L10.8814 21.24ZM23.2757 32.3629H10.5229C9.81286 32.3629 9.23714 31.7871 9.23714 31.0771C9.23714 30.3671 9.81286 29.7914 10.5229 29.7914H23.2757C23.9857 29.7914 24.5614 30.3671 24.5614 31.0771C24.5614 31.7871 23.9857 32.3629 23.2757 32.3629ZM25.2729 16.1743L20.4514 11.3543L21.8843 9.92143C23.2157 8.59 25.3743 8.59 26.7057 9.92143C28.0371 11.2529 28.0371 13.4114 26.7057 14.7429L25.2729 16.1743ZM29.7657 32.3629H28.4257C27.7157 32.3629 27.14 31.7871 27.14 31.0771C27.14 30.3671 27.7157 29.7914 28.4257 29.7914H29.7657C30.4757 29.7914 31.0514 30.3671 31.0514 31.0771C31.0514 31.7871 30.4757 32.3629 29.7657 32.3629Z" fill="#FB9100"/>
</g>
<defs>
<clipPath id="clip0_3595_60">
<rect width="40" height="40" fill="white"/>
</clipPath>
</defs>
</svg>
