<svg width="40" height="40" viewBox="0 0 40 40" fill="none" xmlns="http://www.w3.org/2000/svg">
<path d="M2.49989 4.96694H5.88711C6.30166 4.96769 6.70224 5.11684 7.01634 5.38738C7.33043 5.65793 7.53729 6.03199 7.59945 6.44185L8.11195 9.84151V9.87901L10.3617 25.2151C10.5133 26.218 11.0188 27.1335 11.7868 27.7961C12.5548 28.4586 13.5345 28.8244 14.5488 28.8273H31.6597C32.6115 28.8297 33.536 28.5099 34.2827 27.9198C35.0294 27.3297 35.5543 26.5041 35.7718 25.5776L38.6341 13.6537C38.782 13.0307 38.787 12.3823 38.6487 11.7571C38.5105 11.1319 38.2326 10.5461 37.8358 10.0435C37.439 9.54094 36.9337 9.13465 36.3577 8.85508C35.7816 8.57552 35.1498 8.42991 34.5095 8.42916H10.4242L10.0742 6.07939C9.92269 5.07647 9.41719 4.16092 8.64919 3.49837C7.88119 2.83581 6.90141 2.47002 5.88711 2.46716H2.49989C2.1684 2.46716 1.85048 2.59885 1.61608 2.83325C1.38168 3.06765 1.25 3.38556 1.25 3.71705C1.25 4.04854 1.38168 4.36646 1.61608 4.60085C1.85048 4.83525 2.1684 4.96694 2.49989 4.96694ZM28.935 14.6911C28.958 14.5278 29.013 14.3707 29.0969 14.2288C29.1807 14.0869 29.2918 13.963 29.4238 13.8642C29.5557 13.7654 29.7059 13.6936 29.8656 13.6531C30.0254 13.6125 30.1916 13.6039 30.3547 13.6278C30.5178 13.6517 30.6746 13.7076 30.816 13.7923C30.9574 13.877 31.0807 13.9888 31.1787 14.1213C31.2768 14.2538 31.3477 14.4044 31.3873 14.5644C31.427 14.7243 31.4346 14.8906 31.4098 15.0536L30.3098 22.5778C30.2648 22.8737 30.1152 23.1436 29.8882 23.3386C29.6611 23.5336 29.3717 23.6406 29.0724 23.6403C29.0096 23.6424 28.9468 23.6382 28.8849 23.6278C28.5573 23.5769 28.263 23.3986 28.0664 23.1317C27.8697 22.8648 27.7865 22.5309 27.835 22.203L28.935 14.6911ZM22.2981 14.8661C22.2981 14.5346 22.4298 14.2167 22.6642 13.9823C22.8986 13.7479 23.2165 13.6162 23.548 13.6162C23.8795 13.6162 24.1974 13.7479 24.4318 13.9823C24.6662 14.2167 24.7979 14.5346 24.7979 14.8661V22.0655C24.7979 22.397 24.6662 22.7149 24.4318 22.9493C24.1974 23.1837 23.8795 23.3154 23.548 23.3154C23.2165 23.3154 22.8986 23.1837 22.6642 22.9493C22.4298 22.7149 22.2981 22.397 22.2981 22.0655V14.8661ZM16.7361 13.6287C17.0638 13.5851 17.3956 13.672 17.6599 13.8707C17.9241 14.0695 18.0996 14.3641 18.1486 14.6911L19.2484 22.203C19.2969 22.5309 19.2137 22.8648 19.017 23.1317C18.8204 23.3986 18.5262 23.5769 18.1986 23.6278C18.1366 23.6382 18.0738 23.6424 18.0111 23.6403C17.7123 23.6386 17.4239 23.5309 17.1973 23.3363C16.9706 23.1416 16.8205 22.8728 16.7737 22.5778L15.6738 15.0536C15.6499 14.8902 15.6585 14.7238 15.6989 14.5638C15.7394 14.4038 15.811 14.2533 15.9097 14.121C16.0083 13.9887 16.1321 13.8771 16.2739 13.7926C16.4157 13.7081 16.5728 13.6525 16.7361 13.6287Z" fill="#FB9100"/>
<path d="M19.2924 34.4129C19.2933 33.7949 19.111 33.1905 18.7685 32.6761C18.4259 32.1617 17.9385 31.7604 17.3679 31.5231C16.7974 31.2857 16.1692 31.2228 15.5629 31.3424C14.9565 31.462 14.3993 31.7588 13.9616 32.1951C13.5239 32.6314 13.2255 33.1877 13.104 33.7937C12.9825 34.3996 13.0434 35.028 13.279 35.5993C13.5146 36.1706 13.9143 36.6593 14.4276 37.0034C14.941 37.3476 15.5448 37.5318 16.1628 37.5327C16.9908 37.5318 17.7849 37.2031 18.3713 36.6185C18.9577 36.0339 19.2889 35.2409 19.2924 34.4129Z" fill="#FB9100"/>
<path d="M29.3464 31.2833C28.7284 31.2824 28.124 31.4647 27.6096 31.8072C27.0952 32.1498 26.6939 32.6371 26.4565 33.2077C26.2191 33.7783 26.1563 34.4065 26.2759 35.0128C26.3955 35.6192 26.6922 36.1764 27.1286 36.6141C27.5649 37.0517 28.1212 37.3502 28.7271 37.4717C29.3331 37.5932 29.9614 37.5323 30.5328 37.2967C31.1041 37.0611 31.5927 36.6614 31.9369 36.1481C32.281 35.6348 32.4652 35.0309 32.4662 34.4129C32.4653 33.5849 32.1366 32.7908 31.552 32.2044C30.9674 31.618 30.1744 31.2868 29.3464 31.2833Z" fill="#FB9100"/>
</svg>
