<svg width="40" height="40" viewBox="0 0 40 40" fill="none" xmlns="http://www.w3.org/2000/svg">
<g clip-path="url(#clip0_3595_4)">
<path d="M36.087 0H3.91305C1.75531 0 0 1.75531 0 3.91305V9.56523H40V3.91305C40 1.75531 38.2447 0 36.087 0ZM6.52172 6.08695C5.80141 6.08695 5.21734 5.50297 5.21734 4.78258C5.21734 4.06219 5.80133 3.4782 6.52172 3.4782C7.24211 3.4782 7.82609 4.06219 7.82609 4.78258C7.82609 5.50297 7.24211 6.08695 6.52172 6.08695ZM11.7391 6.08695C11.0188 6.08695 10.4348 5.50297 10.4348 4.78258C10.4348 4.06219 11.0188 3.4782 11.7391 3.4782C12.4595 3.4782 13.0435 4.06219 13.0435 4.78258C13.0435 5.50297 12.4595 6.08695 11.7391 6.08695ZM16.9565 6.08695C16.2362 6.08695 15.6521 5.50297 15.6521 4.78258C15.6521 4.06219 16.2361 3.4782 16.9565 3.4782C17.6768 3.4782 18.2609 4.06219 18.2609 4.78258C18.2609 5.50297 17.6769 6.08695 16.9565 6.08695ZM33.4783 6.08695H22.1739C21.4538 6.08695 20.8695 5.50312 20.8695 4.78258C20.8695 4.06203 21.4538 3.4782 22.1739 3.4782H33.4783C34.1984 3.4782 34.7827 4.06203 34.7827 4.78258C34.7827 5.50312 34.1984 6.08695 33.4783 6.08695Z" fill="#FB9100"/>
<path d="M0 12.174V36.087C0 38.2447 1.75531 40 3.91305 40H36.087C38.2447 40 40 38.2447 40 36.087V12.174H0ZM18.243 35.2175C17.5227 35.2175 16.9387 34.6335 16.9387 33.9131C16.9387 33.1928 17.5227 32.6087 18.243 32.6087C18.9634 32.6087 19.5474 33.1927 19.5474 33.9131C19.5474 34.6334 18.9634 35.2175 18.243 35.2175ZM26.0691 35.2175C25.3488 35.2175 24.7648 34.6335 24.7648 33.9131C24.7648 33.1928 25.3487 32.6087 26.0691 32.6087C26.7895 32.6087 27.3735 33.1927 27.3735 33.9131C27.3735 34.6334 26.7895 35.2175 26.0691 35.2175ZM31.2024 22.5807L28.5938 30.4068C28.4188 30.9321 27.9271 31.2866 27.3735 31.2866H16.9412C16.9404 31.2866 16.9395 31.2871 16.9387 31.2871C16.6827 31.2871 16.4159 31.2074 16.1895 31.0453C15.8979 30.8366 15.7804 30.593 15.7185 30.4069L12.5332 20.8518H9.11266C8.40187 20.8518 7.82617 20.2757 7.82617 19.5654C7.82617 18.855 8.40187 18.2788 9.11266 18.2788H13.4605C14.0141 18.2788 14.5058 18.6333 14.6807 19.1586L15.257 20.8875H29.9821C30.3957 20.8875 30.7838 21.0862 31.0258 21.4217C31.2677 21.7571 31.3332 22.1884 31.2024 22.5807Z" fill="#FB9100"/>
</g>
<defs>
<clipPath id="clip0_3595_4">
<rect width="40" height="40" fill="white"/>
</clipPath>
</defs>
</svg>
