<svg width="40" height="40" viewBox="0 0 40 40" fill="none" xmlns="http://www.w3.org/2000/svg">
<path d="M38 0H36C35 0 34 0.8 34 2V4H40V2C40 0.8 39.2 0 38 0Z" fill="#FB9100"/>
<path d="M34 34L37 40L40 34V8H34V34Z" fill="#FB9100"/>
<path d="M24 0H2C0.8 0 0 0.8 0 2V38C0 39.2 0.8 40 2 40H28C29.2 40 30 39.2 30 38V6L24 0ZM4 4H12V12H4V4ZM18 36H6C4.8 36 4 35.2 4 34C4 32.8 4.8 32 6 32H18C19.2 32 20 32.8 20 34C20 35.2 19.2 36 18 36ZM24 28H6C4.8 28 4 27.2 4 26C4 24.8 4.8 24 6 24H24C25.2 24 26 24.8 26 26C26 27.2 25.2 28 24 28ZM24 20H6C4.8 20 4 19.2 4 18C4 16.8 4.8 16 6 16H24C25.2 16 26 16.8 26 18C26 19.2 25.2 20 24 20Z" fill="#FB9100"/>
</svg>
