<svg width="570" height="324" viewBox="0 0 570 324" fill="none" xmlns="http://www.w3.org/2000/svg">
<g clip-path="url(#clip0_76_2769)">
<rect width="570" height="324" fill="#FFF6EB"/>
<g clip-path="url(#clip1_76_2769)">
<path d="M311.16 186.75C311.102 186.748 311.046 186.727 311.002 186.688C310.958 186.65 310.929 186.598 310.92 186.54L309.53 177.54H300.82C300.754 177.54 300.69 177.514 300.643 177.467C300.596 177.42 300.57 177.356 300.57 177.29C300.57 177.224 300.596 177.16 300.643 177.113C300.69 177.066 300.754 177.04 300.82 177.04H309.74C309.8 177.039 309.858 177.06 309.904 177.099C309.95 177.137 309.98 177.191 309.99 177.25L311.41 186.51C311.416 186.543 311.415 186.577 311.407 186.609C311.4 186.642 311.386 186.672 311.366 186.699C311.347 186.726 311.322 186.749 311.293 186.767C311.265 186.784 311.233 186.795 311.2 186.8L311.16 186.75Z" fill="black"/>
<path d="M283.31 188.09C283.278 188.091 283.247 188.085 283.218 188.073C283.188 188.061 283.162 188.043 283.14 188.02C283.116 187.998 283.097 187.97 283.084 187.94C283.071 187.91 283.064 187.878 283.064 187.845C283.064 187.812 283.071 187.78 283.084 187.75C283.097 187.72 283.116 187.692 283.14 187.67L289.44 181.36C289.486 181.32 289.544 181.298 289.605 181.298C289.666 181.298 289.724 181.32 289.77 181.36L297.32 186.9C297.346 186.92 297.368 186.944 297.385 186.973C297.402 187.001 297.413 187.032 297.417 187.065C297.422 187.097 297.42 187.13 297.412 187.162C297.404 187.194 297.39 187.224 297.37 187.25C297.35 187.276 297.326 187.298 297.297 187.315C297.269 187.332 297.238 187.343 297.205 187.348C297.173 187.352 297.14 187.35 297.108 187.342C297.076 187.334 297.046 187.32 297.02 187.3L289.64 181.88L283.52 188.03C283.492 188.056 283.459 188.075 283.422 188.085C283.386 188.096 283.347 188.097 283.31 188.09Z" fill="black"/>
<path d="M278.48 207.95C278.414 207.95 278.35 207.924 278.303 207.877C278.256 207.83 278.23 207.766 278.23 207.7V198.78C278.232 198.722 278.253 198.666 278.292 198.622C278.33 198.578 278.382 198.549 278.44 198.54L287.7 197.12C287.734 197.11 287.77 197.108 287.805 197.113C287.84 197.118 287.873 197.13 287.903 197.149C287.933 197.168 287.958 197.193 287.978 197.222C287.997 197.252 288.01 197.285 288.016 197.32C288.022 197.355 288.02 197.391 288.011 197.425C288.002 197.459 287.985 197.491 287.963 197.518C287.941 197.546 287.913 197.568 287.881 197.584C287.85 197.6 287.815 197.609 287.78 197.61L278.73 199.03V207.73C278.723 207.791 278.693 207.847 278.647 207.888C278.601 207.928 278.541 207.951 278.48 207.95Z" fill="black"/>
<path d="M289.08 225.43C289.048 225.431 289.017 225.426 288.987 225.414C288.958 225.402 288.932 225.383 288.91 225.36L282.6 219.03C282.558 218.987 282.535 218.93 282.535 218.87C282.535 218.81 282.558 218.753 282.6 218.71L288.14 211.16C288.156 211.128 288.18 211.1 288.208 211.077C288.236 211.055 288.269 211.039 288.304 211.031C288.339 211.022 288.376 211.022 288.411 211.029C288.447 211.036 288.48 211.05 288.509 211.072C288.538 211.093 288.563 211.12 288.58 211.151C288.598 211.183 288.609 211.218 288.612 211.254C288.615 211.29 288.61 211.326 288.597 211.36C288.585 211.394 288.565 211.424 288.54 211.45L283.12 218.83L289.31 225.03C289.343 225.065 289.365 225.11 289.373 225.157C289.381 225.205 289.375 225.254 289.356 225.299C289.337 225.343 289.306 225.381 289.266 225.408C289.225 225.435 289.178 225.449 289.13 225.45L289.08 225.43Z" fill="black"/>
<path d="M308.94 230.29H300.02C299.961 230.29 299.904 230.269 299.86 230.231C299.816 230.192 299.787 230.138 299.78 230.08L298.36 220.82C298.354 220.788 298.355 220.756 298.362 220.725C298.369 220.693 298.382 220.664 298.401 220.638C298.42 220.612 298.443 220.59 298.471 220.573C298.498 220.556 298.528 220.545 298.56 220.54C298.593 220.534 298.627 220.535 298.659 220.543C298.692 220.55 298.722 220.564 298.749 220.584C298.776 220.603 298.799 220.628 298.816 220.657C298.834 220.685 298.845 220.717 298.85 220.75L300.24 229.8H308.94C308.976 229.793 309.014 229.793 309.05 229.802C309.086 229.811 309.119 229.828 309.148 229.851C309.177 229.875 309.2 229.904 309.216 229.938C309.232 229.971 309.24 230.008 309.24 230.045C309.24 230.082 309.232 230.119 309.216 230.152C309.2 230.186 309.177 230.215 309.148 230.239C309.119 230.262 309.086 230.279 309.05 230.288C309.014 230.297 308.976 230.297 308.94 230.29Z" fill="black"/>
<path d="M320.12 226.03C320.066 226.03 320.013 226.012 319.97 225.98L312.42 220.44C312.393 220.421 312.37 220.397 312.352 220.369C312.335 220.341 312.323 220.31 312.317 220.277C312.311 220.245 312.312 220.212 312.32 220.179C312.327 220.147 312.341 220.117 312.36 220.09C312.379 220.063 312.403 220.04 312.431 220.022C312.459 220.005 312.49 219.993 312.523 219.987C312.555 219.981 312.588 219.982 312.621 219.99C312.653 219.997 312.683 220.011 312.71 220.03L320.09 225.45L326.24 219.3C326.263 219.276 326.291 219.256 326.322 219.243C326.353 219.23 326.386 219.223 326.42 219.223C326.454 219.223 326.487 219.23 326.518 219.243C326.549 219.256 326.577 219.276 326.6 219.3C326.644 219.348 326.668 219.41 326.668 219.475C326.668 219.54 326.644 219.602 326.6 219.65L320.29 225.95C320.246 225.998 320.185 226.026 320.12 226.03Z" fill="black"/>
<path d="M322.02 210.17C321.962 210.168 321.906 210.147 321.862 210.108C321.818 210.07 321.789 210.017 321.78 209.96C321.774 209.928 321.775 209.895 321.783 209.863C321.791 209.831 321.805 209.801 321.824 209.775C321.844 209.748 321.869 209.726 321.897 209.71C321.926 209.694 321.957 209.684 321.99 209.68L331.04 208.29V199.59C331.033 199.554 331.033 199.516 331.042 199.48C331.051 199.444 331.068 199.411 331.091 199.382C331.115 199.353 331.144 199.33 331.178 199.314C331.211 199.299 331.248 199.29 331.285 199.29C331.322 199.29 331.359 199.299 331.392 199.314C331.426 199.33 331.455 199.353 331.479 199.382C331.502 199.411 331.519 199.444 331.528 199.48C331.537 199.516 331.537 199.554 331.53 199.59V208.5C331.531 208.56 331.51 208.618 331.471 208.664C331.433 208.71 331.379 208.74 331.32 208.75L322.06 210.17H322.02Z" fill="black"/>
<path d="M321.44 196.21C321.414 196.212 321.389 196.208 321.365 196.199C321.341 196.191 321.319 196.177 321.3 196.16C321.273 196.141 321.25 196.117 321.232 196.089C321.215 196.061 321.203 196.03 321.197 195.998C321.191 195.965 321.192 195.932 321.2 195.9C321.207 195.867 321.221 195.837 321.24 195.81L326.66 188.43L320.51 182.28C320.481 182.259 320.458 182.231 320.44 182.2C320.423 182.168 320.413 182.134 320.411 182.098C320.408 182.062 320.413 182.026 320.426 181.993C320.438 181.959 320.458 181.929 320.483 181.903C320.508 181.878 320.539 181.858 320.572 181.846C320.606 181.833 320.642 181.828 320.678 181.831C320.713 181.833 320.748 181.843 320.78 181.861C320.811 181.878 320.838 181.901 320.86 181.93L327.16 188.23C327.198 188.277 327.219 188.335 327.219 188.395C327.219 188.455 327.198 188.514 327.16 188.56L321.62 196.11C321.599 196.139 321.572 196.162 321.541 196.179C321.51 196.197 321.475 196.207 321.44 196.21Z" fill="black"/>
<path d="M304.88 215.29C304.814 215.29 304.75 215.264 304.703 215.217C304.656 215.17 304.63 215.106 304.63 215.04C304.63 214.974 304.656 214.91 304.703 214.863C304.75 214.816 304.814 214.79 304.88 214.79C306.372 214.835 307.857 214.58 309.248 214.04C310.64 213.5 311.908 212.686 312.979 211.647C314.05 210.607 314.902 209.363 315.483 207.989C316.064 206.615 316.364 205.137 316.364 203.645C316.364 202.153 316.064 200.676 315.483 199.301C314.902 197.927 314.05 196.683 312.979 195.644C311.908 194.604 310.64 193.791 309.248 193.251C307.857 192.711 306.372 192.455 304.88 192.5C304.814 192.5 304.75 192.474 304.703 192.427C304.656 192.38 304.63 192.316 304.63 192.25C304.63 192.184 304.656 192.12 304.703 192.073C304.75 192.026 304.814 192 304.88 192C306.438 191.954 307.989 192.222 309.442 192.787C310.895 193.351 312.219 194.202 313.338 195.288C314.456 196.373 315.345 197.673 315.952 199.108C316.559 200.544 316.871 202.086 316.871 203.645C316.871 205.204 316.559 206.747 315.952 208.182C315.345 209.618 314.456 210.917 313.338 212.003C312.219 213.089 310.895 213.939 309.442 214.504C307.989 215.068 306.438 215.336 304.88 215.29Z" fill="black"/>
<path d="M331.31 208.5V199.59L324.46 198.54C324.075 197.024 323.508 195.56 322.77 194.18L327.01 188.41L320.7 182.11L315.13 186.2C313.783 185.406 312.346 184.775 310.85 184.32L309.76 177.24H300.84L299.84 184.07C298.323 184.469 296.857 185.039 295.47 185.77L289.71 181.53L283.31 187.84L287.4 193.42C286.608 194.768 285.977 196.205 285.52 197.7L278.45 198.78V207.7L285.29 208.75C285.676 210.266 286.244 211.73 286.98 213.11L282.75 218.87L289.05 225.18L294.62 221.09C295.971 221.884 297.411 222.515 298.91 222.97L299.99 230.04H308.91L309.96 223.21C311.473 222.815 312.936 222.248 314.32 221.52L320.09 225.75L326.39 219.45L322.31 213.86C323.102 212.515 323.733 211.082 324.19 209.59L331.31 208.5ZM304.88 215.03C302.625 215.03 300.421 214.361 298.546 213.109C296.672 211.856 295.211 210.076 294.348 207.993C293.485 205.909 293.259 203.617 293.699 201.406C294.139 199.195 295.225 197.163 296.819 195.569C298.413 193.975 300.445 192.889 302.656 192.449C304.867 192.009 307.159 192.235 309.243 193.098C311.326 193.961 313.106 195.422 314.359 197.296C315.611 199.171 316.28 201.375 316.28 203.63C316.281 205.127 315.987 206.61 315.415 207.994C314.842 209.378 314.003 210.635 312.944 211.694C311.885 212.753 310.628 213.592 309.244 214.165C307.86 214.737 306.377 215.031 304.88 215.03Z" fill="#1B5A96"/>
<path d="M341.94 197.03H162.83C162.764 197.03 162.7 197.004 162.653 196.957C162.606 196.91 162.58 196.846 162.58 196.78V31.25C162.58 31.1837 162.606 31.1201 162.653 31.0732C162.7 31.0263 162.764 31 162.83 31H341.94C342.006 31 342.07 31.0263 342.117 31.0732C342.164 31.1201 342.19 31.1837 342.19 31.25V196.8C342.185 196.863 342.156 196.921 342.11 196.964C342.064 197.007 342.003 197.03 341.94 197.03ZM163.08 196.53H341.69V31.53H163.08V196.53Z" fill="black"/>
<path d="M263.51 144.07H229.25V154.12H263.51V144.07Z" fill="#FB9100"/>
<path d="M341.95 31.25H162.84V47.38H341.95V31.25Z" fill="#FB9100"/>
<path d="M172.85 38.8501C172.852 39.3505 172.706 39.8402 172.429 40.2574C172.153 40.6745 171.759 41.0003 171.297 41.1937C170.836 41.387 170.327 41.4391 169.836 41.3434C169.345 41.2477 168.893 41.0085 168.538 40.6561C168.183 40.3037 167.94 39.8538 167.841 39.3635C167.741 38.8731 167.789 38.3642 167.979 37.9011C168.168 37.4381 168.491 37.0417 168.906 36.762C169.321 36.4824 169.81 36.3321 170.31 36.3301C170.642 36.3288 170.972 36.3929 171.279 36.5189C171.586 36.6448 171.866 36.83 172.102 37.064C172.338 37.298 172.525 37.5762 172.654 37.8827C172.782 38.1891 172.849 38.5179 172.85 38.8501Z" fill="white"/>
<path d="M179.74 38.8501C179.742 39.3513 179.595 39.8419 179.318 40.2594C179.041 40.677 178.646 41.0029 178.183 41.1956C177.72 41.3883 177.211 41.4393 176.719 41.3419C176.227 41.2446 175.775 41.0035 175.421 40.6491C175.067 40.2946 174.825 39.8429 174.728 39.3512C174.631 38.8595 174.682 38.35 174.875 37.8873C175.067 37.4246 175.393 37.0296 175.811 36.7523C176.228 36.4751 176.719 36.3281 177.22 36.3301C177.888 36.3301 178.529 36.5956 179.002 37.0682C179.475 37.5408 179.74 38.1818 179.74 38.8501Z" fill="white"/>
<path d="M186.64 38.8501C186.642 39.3509 186.495 39.841 186.218 40.2584C185.942 40.6758 185.547 41.0016 185.085 41.1946C184.623 41.3876 184.114 41.4392 183.623 41.3427C183.131 41.2462 182.679 41.006 182.325 40.6526C181.97 40.2992 181.728 39.8484 181.629 39.3573C181.531 38.8663 181.58 38.3571 181.772 37.8942C181.963 37.4313 182.287 37.0356 182.703 36.7572C183.12 36.4787 183.609 36.3301 184.11 36.3301C184.779 36.3301 185.421 36.5953 185.895 37.0676C186.37 37.5399 186.637 38.1808 186.64 38.8501Z" fill="white"/>
<path d="M321.4 160.87H309.9C309.834 160.87 309.77 160.844 309.723 160.797C309.676 160.75 309.65 160.686 309.65 160.62C309.65 160.554 309.676 160.49 309.723 160.443C309.77 160.396 309.834 160.37 309.9 160.37H321.4C321.466 160.37 321.53 160.396 321.577 160.443C321.624 160.49 321.65 160.554 321.65 160.62C321.65 160.686 321.624 160.75 321.577 160.797C321.53 160.844 321.466 160.87 321.4 160.87Z" fill="black"/>
<path d="M301.75 160.87H229.25C229.184 160.87 229.12 160.844 229.073 160.797C229.026 160.75 229 160.686 229 160.62C229 160.554 229.026 160.49 229.073 160.443C229.12 160.396 229.184 160.37 229.25 160.37H301.75C301.816 160.37 301.88 160.396 301.927 160.443C301.974 160.49 302 160.554 302 160.62C302 160.686 301.974 160.75 301.927 160.797C301.88 160.844 301.816 160.87 301.75 160.87Z" fill="black"/>
<path d="M307.14 168.13H229.25C229.184 168.13 229.12 168.104 229.073 168.057C229.026 168.01 229 167.946 229 167.88C229 167.814 229.026 167.75 229.073 167.703C229.12 167.656 229.184 167.63 229.25 167.63H307.14C307.206 167.63 307.27 167.656 307.317 167.703C307.364 167.75 307.39 167.814 307.39 167.88C307.39 167.946 307.364 168.01 307.317 168.057C307.27 168.104 307.206 168.13 307.14 168.13Z" fill="black"/>
<path d="M292.16 175.39H276.31C276.244 175.39 276.18 175.364 276.133 175.317C276.086 175.27 276.06 175.206 276.06 175.14C276.06 175.074 276.086 175.01 276.133 174.963C276.18 174.916 276.244 174.89 276.31 174.89H292.18C292.246 174.89 292.31 174.916 292.357 174.963C292.404 175.01 292.43 175.074 292.43 175.14C292.43 175.206 292.404 175.27 292.357 175.317C292.31 175.364 292.246 175.39 292.18 175.39H292.16Z" fill="black"/>
<path d="M264.01 175.39H229.25C229.184 175.39 229.12 175.364 229.073 175.317C229.026 175.27 229 175.206 229 175.14C229 175.074 229.026 175.01 229.073 174.963C229.12 174.916 229.184 174.89 229.25 174.89H264.01C264.076 174.89 264.14 174.916 264.187 174.963C264.234 175.01 264.26 175.074 264.26 175.14C264.26 175.206 264.234 175.27 264.187 175.317C264.14 175.364 264.076 175.39 264.01 175.39Z" fill="black"/>
<path d="M326.23 128.63H178.54C178.475 128.627 178.414 128.6 178.37 128.553C178.325 128.507 178.3 128.445 178.3 128.38V63.8301C178.3 63.7655 178.325 63.7034 178.37 63.6567C178.414 63.6101 178.475 63.5827 178.54 63.5801H326.23C326.296 63.5801 326.36 63.6064 326.407 63.6533C326.454 63.7002 326.48 63.7638 326.48 63.8301V128.38C326.48 128.446 326.454 128.51 326.407 128.557C326.36 128.604 326.296 128.63 326.23 128.63ZM178.79 128.13H325.98V64.1301H178.79V128.13Z" fill="black"/>
<path d="M221.21 181.19H178.55C178.484 181.19 178.42 181.164 178.373 181.117C178.326 181.07 178.3 181.006 178.3 180.94V138.28C178.3 138.214 178.326 138.15 178.373 138.103C178.42 138.056 178.484 138.03 178.55 138.03H221.21C221.275 138.033 221.336 138.06 221.38 138.107C221.425 138.153 221.45 138.215 221.45 138.28V180.94C221.45 181.005 221.425 181.067 221.38 181.113C221.336 181.16 221.275 181.187 221.21 181.19ZM178.8 180.69H220.96V138.53H178.8V180.69Z" fill="black"/>
<path d="M361.37 123.27C361.37 123.27 353.1 137.5 341.94 139.13C330.78 140.76 318.15 130.44 318.15 130.44L308.95 145.62C308.95 145.62 336.31 164.75 350.13 159.03C363.95 153.31 374.51 134.76 374.51 134.76" fill="#FFCFC5"/>
<path d="M344.09 160.36C329.79 160.36 309.78 146.5 308.81 145.82C308.757 145.785 308.72 145.731 308.707 145.669C308.694 145.608 308.706 145.543 308.74 145.49L317.93 130.31C317.971 130.251 318.031 130.209 318.1 130.19C318.136 130.184 318.172 130.186 318.207 130.196C318.242 130.206 318.274 130.225 318.3 130.25C318.43 130.35 330.99 140.48 341.91 138.88C352.83 137.28 361.07 123.28 361.15 123.14C361.186 123.09 361.24 123.055 361.301 123.042C361.361 123.03 361.424 123.04 361.478 123.071C361.531 123.102 361.571 123.152 361.59 123.211C361.609 123.27 361.605 123.334 361.58 123.39C361.5 123.53 353.12 137.74 341.98 139.39C331.66 140.9 319.98 132.19 318.21 130.82L309.31 145.55C311.78 147.23 337.12 164.15 350.05 158.81C363.64 153.2 374.21 134.81 374.32 134.65C374.334 134.618 374.355 134.59 374.381 134.566C374.408 134.543 374.438 134.526 374.472 134.515C374.505 134.504 374.54 134.501 374.575 134.504C374.61 134.508 374.643 134.519 374.673 134.537C374.704 134.554 374.73 134.578 374.75 134.607C374.771 134.635 374.785 134.667 374.792 134.701C374.8 134.736 374.8 134.771 374.792 134.805C374.785 134.839 374.771 134.872 374.75 134.9C374.64 135.08 363.99 153.59 350.24 159.27C348.282 160.034 346.192 160.404 344.09 160.36Z" fill="black"/>
<path d="M350.13 75.26H202.45V139.81H350.13V75.26Z" fill="#1B5A96"/>
<path d="M350.13 140.03C350.064 140.03 350 140.004 349.953 139.957C349.906 139.91 349.88 139.846 349.88 139.78V75.51H202.44C202.374 75.51 202.31 75.4837 202.263 75.4368C202.216 75.3899 202.19 75.3263 202.19 75.26C202.19 75.1937 202.216 75.1301 202.263 75.0832C202.31 75.0363 202.374 75.01 202.44 75.01H350.13C350.196 75.01 350.26 75.0363 350.307 75.0832C350.354 75.1301 350.38 75.1937 350.38 75.26V139.81C350.373 139.871 350.343 139.927 350.297 139.968C350.251 140.008 350.191 140.03 350.13 140.03Z" fill="black"/>
<path d="M252.96 93.8601L257.49 118.59H250.92L250.26 113.12H242.7L240.21 118.59H233.75L246.31 93.8601H252.96ZM248.65 100.18L244.31 109.64H249.79L248.65 100.18Z" fill="white"/>
<path d="M264.21 93.8601H273.31C282.19 93.8601 285.95 99.6701 285.95 105.99C285.95 114.17 281.2 118.59 272.07 118.59H260.67L264.21 93.8601ZM267.65 114.17H270.97C277.73 114.17 279.52 109.72 279.52 106.07C279.52 103 278.17 98.2801 270.97 98.2801H269.97L267.65 114.17Z" fill="white"/>
<path d="M288.62 111.76C291.39 113.52 293.29 114.17 294.86 114.17C295.223 114.202 295.588 114.156 295.932 114.035C296.275 113.914 296.589 113.721 296.852 113.469C297.115 113.218 297.322 112.913 297.458 112.575C297.593 112.237 297.656 111.874 297.64 111.51C297.64 109.97 296.76 109.24 293.69 106.51C290.37 103.51 290.08 102.12 290.08 100.3C290.08 97.3001 292.34 93.5801 298.15 93.5801C300.729 93.5919 303.269 94.2048 305.57 95.3701L304.76 100.26C303.123 99.1163 301.203 98.4452 299.21 98.3201C298.897 98.2822 298.579 98.3106 298.278 98.4034C297.976 98.4962 297.698 98.6514 297.46 98.8588C297.222 99.0663 297.031 99.3214 296.898 99.6076C296.766 99.8938 296.695 100.205 296.69 100.52C296.69 101.52 296.83 101.94 299.43 104.02C303.15 107.02 304.25 108.88 304.25 111.55C304.25 114.55 302.46 118.96 295.74 118.96C292.965 118.964 290.24 118.221 287.85 116.81L288.62 111.76Z" fill="white"/>
<path d="M307.79 115.2C307.788 114.462 308.005 113.74 308.414 113.125C308.822 112.51 309.404 112.031 310.086 111.747C310.767 111.463 311.517 111.388 312.242 111.53C312.966 111.673 313.631 112.028 314.154 112.549C314.677 113.07 315.033 113.735 315.178 114.459C315.322 115.182 315.249 115.933 314.967 116.615C314.685 117.297 314.207 117.88 313.593 118.291C312.98 118.701 312.258 118.92 311.52 118.92C310.533 118.917 309.588 118.525 308.889 117.828C308.19 117.131 307.795 116.187 307.79 115.2Z" fill="white"/>
<path d="M361.61 267.82C361.72 268.66 363.61 276.82 362.13 279.5C360.8 281.88 352.31 284.79 350.28 285.67C347.04 287.08 346.28 292.47 350.72 292.61C354.01 293.42 370.01 293.27 379.44 291.18C379.725 291.171 380.005 291.103 380.263 290.98C380.52 290.858 380.75 290.684 380.937 290.469C381.125 290.255 381.266 290.004 381.353 289.732C381.439 289.46 381.469 289.174 381.44 288.89L379.62 269.97L361.61 267.82Z" fill="black"/>
<path d="M358.05 289.86C352.18 289.86 347.73 289.48 347.63 289.47V288.97C347.86 288.97 370.54 290.91 381.02 286.02L381.23 286.47C375.31 289.24 365.54 289.86 358.05 289.86Z" fill="white"/>
<path d="M376.72 287.77C376.72 287.6 375.88 283.55 377.54 281.04C377.845 280.575 378.241 280.176 378.706 279.87C379.17 279.564 379.692 279.356 380.24 279.26L380.34 279.75C379.855 279.834 379.393 280.017 378.982 280.287C378.571 280.557 378.22 280.909 377.95 281.32C376.41 283.65 377.2 287.63 377.21 287.67L376.72 287.77Z" fill="white"/>
<path d="M356.51 286.77C354.62 284.64 353.19 284.66 353.2 284.66V284.16C353.28 284.16 354.86 284.16 356.89 286.44L356.51 286.77Z" fill="white"/>
<path d="M359.6 285.43C357.74 283.34 356.31 283.32 356.29 283.32V282.82C356.36 282.82 357.95 282.82 359.99 285.1L359.6 285.43Z" fill="white"/>
<path d="M362.7 284.09C360.81 281.97 359.38 281.98 359.39 281.98V281.48C359.47 281.48 361.06 281.48 363.09 283.76L362.7 284.09Z" fill="white"/>
<path d="M407.23 266.88C407.33 267.72 409.23 275.88 407.75 278.56C406.42 280.94 397.93 283.85 395.9 284.73C392.66 286.14 391.9 291.53 396.34 291.67C399.63 292.48 415.63 292.33 425.06 290.24C425.345 290.229 425.624 290.16 425.881 290.037C426.138 289.915 426.367 289.741 426.554 289.526C426.741 289.312 426.883 289.061 426.97 288.79C427.057 288.519 427.087 288.233 427.06 287.95L425.22 269.03L407.23 266.88Z" fill="black"/>
<path d="M403.67 288.92C397.8 288.92 393.34 288.54 393.24 288.53L393.29 288.03C393.51 288.03 416.2 289.97 426.68 285.08L426.89 285.53C420.94 288.3 411.16 288.92 403.67 288.92Z" fill="white"/>
<path d="M422.31 286.83C422.31 286.66 421.46 282.61 423.12 280.1C423.428 279.636 423.827 279.238 424.293 278.932C424.758 278.626 425.281 278.418 425.83 278.32L425.93 278.81C425.445 278.894 424.983 279.077 424.572 279.347C424.161 279.617 423.81 279.969 423.54 280.38C421.99 282.71 422.79 286.69 422.8 286.73L422.31 286.83Z" fill="white"/>
<path d="M402.13 285.83C400.27 283.74 398.83 283.72 398.81 283.72V283.22C398.88 283.22 400.48 283.22 402.51 285.49L402.13 285.83Z" fill="white"/>
<path d="M405.22 284.49C403.36 282.4 401.93 282.38 401.91 282.38V281.88C401.98 281.88 403.57 281.88 405.6 284.16L405.22 284.49Z" fill="white"/>
<path d="M408.31 283.15C406.45 281.06 405.02 281.04 405 281.04V280.54C405.08 280.54 406.66 280.54 408.7 282.82L408.31 283.15Z" fill="white"/>
<path d="M370.71 152.17C360.57 192.134 355.901 233.29 356.83 274.51C370.29 276.37 383.93 277.51 389.01 270.22C387.632 253.324 387.251 236.361 387.87 219.42C388.46 194.05 392.49 168.89 392.3 168.52C391.84 167.77 385.69 151.42 385.78 151.35C380.76 151.59 375.737 151.863 370.71 152.17Z" fill="#1B5A96"/>
<path d="M372.62 276.14C367.319 276.031 362.03 275.57 356.79 274.76C356.731 274.75 356.677 274.72 356.639 274.674C356.6 274.628 356.579 274.57 356.58 274.51C355.651 233.266 360.324 192.087 370.47 152.1C370.481 152.05 370.509 152.005 370.549 151.972C370.589 151.939 370.638 151.921 370.69 151.92C375.69 151.61 380.75 151.34 385.77 151.1C385.822 151.097 385.873 151.111 385.917 151.14C385.96 151.169 385.993 151.211 386.01 151.26C386.014 151.283 386.014 151.307 386.01 151.33C386.24 152.33 392.12 167.77 392.49 168.39C392.57 168.54 392.57 168.68 392.09 172.39C389.952 187.978 388.617 203.665 388.09 219.39C387.486 236.333 387.894 253.296 389.31 270.19C389.314 270.251 389.296 270.311 389.26 270.36C386.13 274.78 379.89 276.14 372.62 276.14ZM357.07 274.29C369.78 276.04 383.7 277.29 388.76 270.14C388.69 269.73 388.62 268.69 388.42 265.85C388.24 263.31 387.98 259.25 387.76 254.31C387.37 245.61 387.02 232.48 387.62 219.41C388.147 203.665 389.482 187.958 391.62 172.35C391.88 170.35 392.07 168.88 392.07 168.6C391.68 167.86 389.13 161.13 388.61 159.77C386.51 154.21 385.8 152.3 385.61 151.6C380.71 151.84 375.77 152.11 370.9 152.4C360.823 192.222 356.171 233.223 357.07 274.29Z" fill="black"/>
<path d="M385.31 145.15C393.463 147.563 401.63 149.897 409.81 152.15C410.48 155.15 412.51 186.02 418.6 214.5C424 243.24 433.46 269.58 433.35 269.5C432.47 272.04 415.98 276.04 401.35 273.87C396.772 258.981 393.016 243.852 390.1 228.55C385.33 204.74 383.18 178.32 383.5 171.64" fill="#1B5A96"/>
<path d="M410.31 274.81C407.319 274.824 404.331 274.616 401.37 274.19C401.325 274.184 401.283 274.166 401.248 274.137C401.213 274.109 401.186 274.072 401.17 274.03C401.17 274.03 401.17 273.98 401.17 273.96C401.17 273.94 400.98 273.3 400.76 272.56C396.326 258.145 392.707 243.492 389.92 228.67C386.886 213.124 384.792 197.408 383.65 181.61C383.647 181.545 383.67 181.482 383.713 181.433C383.755 181.385 383.815 181.355 383.88 181.35C383.913 181.347 383.946 181.351 383.977 181.361C384.009 181.371 384.038 181.387 384.063 181.409C384.088 181.43 384.109 181.456 384.124 181.486C384.138 181.515 384.147 181.547 384.15 181.58C385.289 197.358 387.379 213.054 390.41 228.58C393.195 243.384 396.807 258.02 401.23 272.42C401.44 273.11 401.56 273.49 401.62 273.72C416.22 275.84 432.09 271.87 433.16 269.56C433.11 269.39 432.96 268.96 432.77 268.39C426.774 250.799 421.98 232.821 418.42 214.58C413.89 193.37 411.57 170.46 410.42 159.45C410.05 155.78 409.79 153.29 409.62 152.39C401.55 150.14 393.36 147.78 385.27 145.39C385.238 145.382 385.207 145.367 385.181 145.347C385.155 145.327 385.133 145.301 385.117 145.272C385.101 145.243 385.091 145.211 385.088 145.178C385.085 145.145 385.089 145.111 385.1 145.08C385.109 145.048 385.125 145.019 385.145 144.993C385.166 144.968 385.191 144.946 385.22 144.931C385.249 144.915 385.28 144.905 385.313 144.901C385.345 144.898 385.379 144.901 385.41 144.91C393.55 147.32 401.79 149.69 409.9 151.91C409.944 151.924 409.983 151.948 410.015 151.982C410.046 152.015 410.069 152.056 410.08 152.1C410.26 152.87 410.52 155.46 410.91 159.36C412.03 170.36 414.34 193.25 418.91 214.44C422.451 232.674 427.229 250.645 433.21 268.23C433.61 269.45 433.67 269.61 433.6 269.71C432.67 271.93 421.92 274.81 410.31 274.81Z" fill="black"/>
<path d="M385.15 129.82L372.68 143.03C365.01 137.28 361.6 131.79 357.89 125.33C358.89 124.33 370.16 114.13 379.89 112.39C379.92 112.38 388.53 125.9 385.15 129.82Z" fill="#FB9100"/>
<path d="M429.98 102.64C429.435 103.661 428.617 104.51 427.618 105.093C426.618 105.675 425.477 105.969 424.32 105.94C423.739 105.84 423.143 105.878 422.58 106.05C421.46 106.55 421.43 108.05 420.99 109.24C420.734 109.895 420.297 110.463 419.731 110.88C419.165 111.297 418.493 111.545 417.792 111.595C417.09 111.645 416.389 111.496 415.77 111.164C415.15 110.832 414.637 110.331 414.29 109.72C413.809 108.624 413.518 107.454 413.43 106.26C413.382 105.664 413.204 105.086 412.906 104.567C412.609 104.049 412.2 103.602 411.71 103.26C410.56 102.65 409.16 103.07 407.91 103.42C406.66 103.77 405.14 104 404.19 103.1C403.24 102.2 403.42 100.41 403.92 99.1C404.42 97.79 405.11 96.33 404.66 94.98C404.576 94.7286 404.458 94.4898 404.31 94.27C403.466 93.3195 402.37 92.6263 401.15 92.27L398.08 91.03L396.47 90.4L399.21 81.03C400.063 81.1957 400.841 81.6302 401.43 82.27C402.54 83.27 403.53 84.58 404.98 84.64C405.554 84.6534 406.119 84.493 406.6 84.18C407.215 83.8054 407.788 83.3662 408.31 82.87C409.31 81.99 410.51 81.11 411.77 81.43C413.03 81.75 413.65 83.02 414.05 84.21C414.287 85.4399 414.874 86.5753 415.74 87.48C416.718 88.1257 417.903 88.3793 419.06 88.19C420.204 87.9971 421.369 87.9735 422.52 88.12C423.097 88.2032 423.631 88.4715 424.042 88.8845C424.453 89.2975 424.719 89.8329 424.8 90.41C424.8 91.76 423.44 92.84 423.5 94.2C423.56 95.56 424.91 96.37 426.18 96.76C427.45 97.15 428.86 97.36 429.74 98.34C430.197 98.9546 430.463 99.6896 430.505 100.454C430.548 101.218 430.365 101.979 429.98 102.64Z" fill="#06000C"/>
<path d="M406.08 90.0301C405.706 91.4278 405.155 92.772 404.44 94.0301L404.31 94.2501C403.466 93.2995 402.37 92.6063 401.15 92.2501L398.08 91.0301C397.955 89.5972 398.073 88.1535 398.43 86.7601C398.869 84.9752 399.933 83.407 401.43 82.3401C402.54 83.3401 403.53 84.6501 404.98 84.7101C405.554 84.7234 406.119 84.5631 406.6 84.2501C406.745 86.1922 406.569 88.145 406.08 90.0301Z" fill="#FB9100"/>
<path d="M394.62 106.33C390.687 106.844 386.709 106.915 382.76 106.54L383.76 96.25L395.76 93.01C395.76 93.01 394.54 106.03 394.62 106.33Z" fill="#FFCFC5"/>
<path d="M387.31 107.03C385.793 107.036 384.278 106.956 382.77 106.79C382.705 106.78 382.645 106.746 382.605 106.694C382.564 106.642 382.544 106.576 382.55 106.51L383.55 96.23C383.554 96.1793 383.574 96.1312 383.606 96.0919C383.638 96.0526 383.681 96.024 383.73 96.01L395.73 92.77C395.769 92.7557 395.811 92.7528 395.852 92.7616C395.893 92.7705 395.93 92.7907 395.96 92.82C395.989 92.8458 396.012 92.8784 396.026 92.915C396.04 92.9516 396.045 92.9911 396.04 93.03C395.56 98.13 394.84 105.87 394.87 106.3C394.887 106.329 394.895 106.362 394.895 106.395C394.895 106.428 394.887 106.461 394.87 106.49C394.848 106.517 394.821 106.539 394.79 106.555C394.759 106.57 394.725 106.579 394.69 106.58C392.24 106.864 389.776 107.014 387.31 107.03ZM383.07 106.32C386.85 106.656 390.655 106.585 394.42 106.11C394.48 104.7 395.04 98.62 395.54 93.34L384.06 96.45L383.07 106.32Z" fill="black"/>
<path d="M390.63 100.71C390.63 100.71 378.63 102.05 376.74 98.45C374.85 94.85 379.83 76.45 379.83 76.45L394.5 76.86L395.27 89.86L395.46 93.77" fill="#FFCFC5"/>
<path d="M385.8 101.21C382.18 101.21 377.68 100.74 376.52 98.57C374.58 94.92 379.38 77.18 379.59 76.43C379.603 76.3762 379.634 76.3284 379.678 76.294C379.721 76.2596 379.775 76.2406 379.83 76.24L394.51 76.65C394.572 76.6546 394.631 76.6814 394.675 76.7254C394.719 76.7695 394.745 76.8279 394.75 76.89L395.52 89.89L395.71 93.81C395.713 93.8747 395.69 93.9379 395.648 93.9864C395.605 94.0349 395.545 94.0649 395.48 94.07C395.447 94.0744 395.412 94.0715 395.38 94.0613C395.348 94.0511 395.319 94.0339 395.294 94.011C395.269 93.9881 395.249 93.96 395.237 93.9287C395.224 93.8974 395.218 93.8637 395.22 93.83L395.02 89.92L394.31 77.15L380.07 76.75C379.55 78.75 375.26 95.05 377.01 98.33C378.76 101.61 390.53 100.47 390.65 100.46C390.683 100.456 390.716 100.458 390.748 100.467C390.78 100.476 390.81 100.491 390.836 100.511C390.862 100.532 390.884 100.557 390.9 100.586C390.916 100.615 390.926 100.647 390.93 100.68C390.936 100.746 390.916 100.812 390.875 100.864C390.835 100.916 390.775 100.95 390.71 100.96C390.45 101.03 388.31 101.21 385.8 101.21Z" fill="black"/>
<path d="M395.31 89.8699L395.37 88.6099C394.934 88.9684 394.526 89.3595 394.15 89.7799H393.59C393.738 88.7593 393.588 87.7178 393.16 86.7799C392.659 86.0578 392.032 85.4313 391.31 84.9299C389.556 83.4051 388.478 81.2478 388.31 78.9299C388.31 78.3499 388.23 77.6599 387.73 77.3499C387.456 77.2499 387.159 77.2278 386.873 77.2861C386.588 77.3443 386.323 77.4806 386.11 77.6799C385.05 78.4299 384.2 79.4399 383.16 80.2299C382.219 80.8777 381.214 81.4273 380.16 81.8699L378.39 82.6999C377.544 82.3654 376.858 81.7207 376.472 80.8974C376.085 80.0741 376.027 79.1343 376.31 78.2699C376.75 76.7099 380.6 71.3199 383.26 70.8899C385.92 70.4599 388.35 72.2199 390.11 71.8899C392.359 71.4879 394.672 71.6422 396.847 72.3394C399.022 73.0366 400.994 74.2556 402.59 75.8899C403.348 76.9015 403.93 78.0341 404.31 79.2399C405.31 81.9199 404.69 83.6899 404.83 86.5299C405.15 92.7499 397.83 97.6499 395.34 96.2599" fill="#06000C"/>
<path d="M393.2 91.03C393.2 91.03 394.09 87.96 396.9 88.03C399.71 88.1 401.14 93.51 394.73 93.74" fill="#FFCFC5"/>
<path d="M394.73 94.0299C394.665 94.03 394.603 94.005 394.557 93.9603C394.51 93.9155 394.483 93.8545 394.48 93.7899C394.477 93.7568 394.481 93.7234 394.492 93.6919C394.503 93.6605 394.52 93.6316 394.543 93.6071C394.565 93.5827 394.593 93.5632 394.623 93.5499C394.654 93.5366 394.687 93.5298 394.72 93.5299C397.9 93.4099 399.03 91.9799 399.03 90.6799C399.037 90.089 398.821 89.5173 398.424 89.0795C398.027 88.6418 397.479 88.3704 396.89 88.3199C394.32 88.2499 393.48 91.0199 393.44 91.1399C393.419 91.2021 393.376 91.2542 393.318 91.2857C393.261 91.3173 393.194 91.3259 393.13 91.3099C393.098 91.3007 393.069 91.2854 393.043 91.2649C393.018 91.2443 392.997 91.2189 392.981 91.1901C392.965 91.1614 392.955 91.1297 392.951 91.0971C392.948 91.0645 392.951 91.0315 392.96 90.9999C392.96 90.9999 393.96 87.7299 396.9 87.8199C397.618 87.8779 398.288 88.2046 398.775 88.7348C399.263 89.265 399.532 89.9596 399.53 90.6799C399.53 92.2099 398.28 93.8999 394.74 94.0299H394.73Z" fill="black"/>
<path d="M396.54 89.1101C396.536 89.6337 396.397 90.1475 396.138 90.6026C395.879 91.0577 395.508 91.4389 395.06 91.7101" fill="white"/>
<path d="M395.06 91.96C395.018 91.9577 394.977 91.9456 394.941 91.9248C394.904 91.904 394.873 91.8749 394.85 91.84C394.832 91.8127 394.82 91.782 394.814 91.7498C394.808 91.7176 394.809 91.6845 394.817 91.6527C394.824 91.6209 394.838 91.5909 394.858 91.5646C394.877 91.5384 394.902 91.5164 394.93 91.5C395.344 91.2534 395.687 90.9054 395.929 90.4889C396.17 90.0725 396.301 89.6013 396.31 89.12C396.31 89.0543 396.334 88.9911 396.379 88.9428C396.424 88.8946 396.485 88.865 396.55 88.86C396.583 88.8572 396.617 88.8613 396.648 88.8722C396.68 88.883 396.708 88.9002 396.733 88.9228C396.757 88.9453 396.777 88.9728 396.79 89.0033C396.803 89.0338 396.81 89.0667 396.81 89.1C396.809 89.6668 396.662 90.2238 396.383 90.7176C396.105 91.2114 395.704 91.6254 395.22 91.92C395.171 91.9466 395.116 91.9604 395.06 91.96Z" fill="black"/>
<path d="M396.31 90.3301C396.528 90.5519 396.79 90.7246 397.08 90.8367C397.37 90.9488 397.68 90.9977 397.99 90.9801" fill="white"/>
<path d="M397.88 91.2301C397.552 91.235 397.227 91.1728 396.924 91.0472C396.622 90.9217 396.348 90.7355 396.12 90.5001C396.096 90.4776 396.077 90.4505 396.064 90.4204C396.051 90.3903 396.044 90.3579 396.044 90.3251C396.044 90.2923 396.051 90.2598 396.064 90.2297C396.077 90.1996 396.096 90.1725 396.12 90.1501C396.167 90.1043 396.229 90.0786 396.295 90.0786C396.36 90.0786 396.423 90.1043 396.47 90.1501C396.663 90.3469 396.895 90.4997 397.153 90.5981C397.41 90.6965 397.685 90.7381 397.96 90.7201C398.026 90.7201 398.09 90.7464 398.137 90.7933C398.184 90.8402 398.21 90.9038 398.21 90.9701C398.21 91.0364 398.184 91.1 398.137 91.1469C398.09 91.1937 398.026 91.2201 397.96 91.2201L397.88 91.2301Z" fill="black"/>
<path d="M383.46 87.46C383.56 87.7928 383.565 88.1468 383.475 88.4824C383.385 88.8181 383.203 89.1219 382.95 89.36C382.06 90.42 381.28 90.63 381.45 90.94C381.79 91.57 383.88 91.58 383.88 91.58" fill="#FFCFC5"/>
<path d="M383.88 91.83C383.5 91.83 381.62 91.83 381.23 91.06C381.04 90.71 381.34 90.48 381.69 90.2C382.081 89.905 382.439 89.5699 382.76 89.2C382.981 88.9961 383.142 88.7352 383.225 88.446C383.308 88.1567 383.31 87.8502 383.23 87.56C383.206 87.4988 383.206 87.4307 383.23 87.3694C383.254 87.3082 383.301 87.2584 383.36 87.23C383.39 87.2168 383.423 87.2097 383.456 87.209C383.489 87.2084 383.521 87.2143 383.552 87.2264C383.583 87.2385 383.611 87.2565 383.634 87.2794C383.658 87.3024 383.677 87.3298 383.69 87.36C383.81 87.7354 383.822 88.137 383.725 88.519C383.628 88.901 383.425 89.2479 383.14 89.52C382.802 89.9186 382.419 90.2776 382 90.59C381.889 90.6709 381.785 90.7612 381.69 90.86C381.93 91.18 383.12 91.33 383.88 91.33C383.946 91.33 384.01 91.3564 384.057 91.4033C384.104 91.4501 384.13 91.5137 384.13 91.58C384.13 91.6463 384.104 91.7099 384.057 91.7568C384.01 91.8037 383.946 91.83 383.88 91.83Z" fill="black"/>
<path d="M381.06 87.2999C380.96 87.9099 380.51 88.2999 380.06 88.2999C379.61 88.2999 379.43 87.7299 379.54 87.1099C379.65 86.4899 379.97 86.0199 380.42 86.1099C380.656 86.1923 380.853 86.3602 380.971 86.5805C381.09 86.8008 381.121 87.0575 381.06 87.2999Z" fill="#06000C"/>
<path d="M388.4 88.0299C388.3 88.6399 387.86 89.0799 387.4 89.0299C386.94 88.9799 386.77 88.4599 386.88 87.8399C386.99 87.2199 387.31 86.7499 387.76 86.8399C387.996 86.9223 388.193 87.0902 388.311 87.3105C388.43 87.5308 388.461 87.7875 388.4 88.0299Z" fill="#06000C"/>
<path d="M382.76 94.18C382.73 94.1722 382.698 94.1715 382.668 94.178C382.638 94.1845 382.609 94.198 382.585 94.2174C382.561 94.2368 382.541 94.2616 382.528 94.2898C382.515 94.318 382.509 94.3489 382.51 94.38C382.529 95.1009 382.654 95.8151 382.88 96.5C383.11 96.71 385.74 96.84 387.8 94.33C386.125 94.5854 384.417 94.5346 382.76 94.18Z" fill="#FFCFC5"/>
<path d="M383.49 96.8501C383.219 96.8746 382.947 96.8153 382.71 96.6801C382.64 96.6201 382.42 96.4201 382.26 94.4001C382.254 94.3276 382.266 94.2546 382.296 94.1882C382.326 94.1217 382.372 94.0639 382.43 94.0201C382.487 93.9754 382.554 93.9448 382.625 93.9309C382.697 93.917 382.77 93.9201 382.84 93.9401C384.462 94.2788 386.131 94.3295 387.77 94.0901C387.819 94.0802 387.87 94.0865 387.915 94.1082C387.96 94.1298 387.997 94.1656 388.02 94.2101C388.047 94.2519 388.061 94.3005 388.061 94.3501C388.061 94.3997 388.047 94.4483 388.02 94.4901C387.511 95.1549 386.869 95.7069 386.136 96.1114C385.403 96.5158 384.594 96.764 383.76 96.8401L383.49 96.8501ZM383.05 96.3101C383.817 96.3708 384.589 96.2535 385.303 95.9673C386.018 95.6811 386.657 95.2337 387.17 94.6601C385.692 94.8437 384.193 94.7693 382.74 94.4401C382.784 95.0718 382.888 95.6979 383.05 96.3101Z" fill="black"/>
<path d="M391.43 86.53C390.039 86.0172 388.572 85.7368 387.09 85.7C387.041 85.6966 386.993 85.6829 386.95 85.6598C386.907 85.6368 386.869 85.6049 386.839 85.5662C386.809 85.5276 386.787 85.483 386.775 85.4354C386.763 85.3879 386.761 85.3383 386.77 85.29L386.99 84.29C387.009 84.2184 387.05 84.1546 387.108 84.1079C387.165 84.0612 387.236 84.0339 387.31 84.03C388.15 84.074 388.966 84.3253 389.685 84.7615C390.404 85.1978 391.003 85.8054 391.43 86.53Z" fill="#06000C"/>
<path d="M378.38 85.03C379.863 84.9255 381.352 85.064 382.79 85.44C382.838 85.4485 382.888 85.4468 382.935 85.435C382.983 85.4231 383.028 85.4014 383.066 85.3712C383.105 85.3411 383.137 85.3031 383.16 85.2598C383.183 85.2165 383.197 85.1689 383.2 85.12L383.26 84.12C383.266 84.0386 383.242 83.9577 383.192 83.8931C383.142 83.8285 383.07 83.7846 382.99 83.77C382.177 83.5857 381.332 83.6043 380.528 83.824C379.724 84.0438 378.986 84.4579 378.38 85.03Z" fill="#06000C"/>
<path d="M381.01 105.18L380.07 112.18C374.854 115.995 370.505 120.872 367.31 126.49C361.7 136.15 364.52 169.49 364.52 169.49C378.86 173.4 395.04 172.38 411.52 165.36C411.52 165.36 411.89 154.36 412.63 145.23C413.37 136.1 412.1 122.46 409.63 118.94C405.63 113.3 397.63 111.5 397.15 109.56C396.67 107.62 396.27 103.34 396.27 103.34C391.121 103.209 385.98 103.828 381.01 105.18Z" fill="#FB9100"/>
<path d="M364.5 169.74C364.437 169.74 364.376 169.717 364.33 169.674C364.284 169.631 364.255 169.573 364.25 169.51C364.14 168.14 361.49 135.98 367.08 126.36C367.49 125.64 367.94 124.93 368.39 124.23C368.427 124.177 368.482 124.14 368.546 124.126C368.609 124.113 368.675 124.125 368.73 124.16C368.786 124.197 368.825 124.254 368.84 124.319C368.855 124.384 368.844 124.453 368.81 124.51C368.36 125.19 367.92 125.9 367.51 126.61C362 136.1 364.72 169.13 364.75 169.47C364.753 169.536 364.731 169.6 364.688 169.65C364.646 169.701 364.585 169.733 364.52 169.74H364.5Z" fill="black"/>
<path d="M393.38 148.32C393.38 148.32 377.89 161.59 364.31 160.88C350.55 160.15 336.85 127.88 335.39 124.71C335.39 124.71 330.93 122.97 330.12 121.93C328.12 119.28 330.79 118.01 330.79 118.01C328.88 115.53 332.39 113.93 332.39 113.93C330.39 111.75 333.74 110.69 333.74 110.69C333.02 105.75 337.23 106.29 342.33 109.37C344.59 110.74 346.74 113.57 346.51 116.37C347.43 119.37 359.71 138.95 366.57 139.22C373.2 139.48 383 130.22 383 130.22L393.38 148.32Z" fill="#FFCFC5"/>
<path d="M365.36 161.16C365 161.16 364.65 161.16 364.29 161.16C352.79 160.55 341.29 138.58 335.47 125.54C335.35 125.29 335.26 125.09 335.19 124.93C334.52 124.67 330.7 123.12 329.91 122.11C329.6 121.773 329.372 121.37 329.242 120.932C329.112 120.493 329.084 120.031 329.16 119.58C329.361 118.901 329.811 118.322 330.42 117.96C330.221 117.692 330.084 117.385 330.016 117.058C329.949 116.732 329.954 116.394 330.03 116.07C330.386 115.107 331.104 114.322 332.03 113.88C331.829 113.665 331.683 113.404 331.604 113.12C331.526 112.837 331.517 112.538 331.58 112.25C331.83 111.25 333.02 110.74 333.49 110.56C333.29 108.92 333.63 107.8 334.49 107.22C336.49 105.92 340.34 107.9 342.49 109.22C344.64 110.54 347.01 113.4 346.79 116.45C347.79 119.64 360.01 138.82 366.61 139.08H366.88C373.33 139.08 382.76 130.26 382.88 130.17C382.905 130.142 382.936 130.122 382.971 130.109C383.006 130.097 383.043 130.094 383.08 130.1C383.117 130.105 383.153 130.118 383.184 130.139C383.216 130.159 383.241 130.187 383.26 130.22L393.65 148.22C393.686 148.266 393.705 148.322 393.705 148.38C393.705 148.438 393.686 148.494 393.65 148.54C393.39 148.64 378.62 161.16 365.36 161.16ZM336.09 107.26C335.615 107.242 335.146 107.363 334.74 107.61C334.01 108.09 333.74 109.12 333.97 110.61C333.98 110.668 333.968 110.728 333.936 110.777C333.905 110.827 333.856 110.864 333.8 110.88C333.8 110.88 332.26 111.38 332.02 112.3C331.983 112.563 332.013 112.83 332.11 113.077C332.206 113.324 332.365 113.542 332.57 113.71C332.594 113.741 332.612 113.776 332.623 113.814C332.633 113.852 332.635 113.891 332.63 113.93C332.621 113.968 332.603 114.004 332.579 114.035C332.555 114.066 332.525 114.092 332.49 114.11C332.49 114.11 330.81 114.88 330.49 116.11C330.428 116.41 330.439 116.721 330.521 117.017C330.602 117.312 330.753 117.584 330.96 117.81C330.982 117.84 330.998 117.874 331.007 117.91C331.015 117.946 331.017 117.983 331.01 118.02C330.988 118.093 330.937 118.154 330.87 118.19C330.578 118.333 330.317 118.533 330.104 118.779C329.891 119.024 329.73 119.311 329.63 119.62C329.574 119.997 329.604 120.382 329.719 120.746C329.833 121.11 330.028 121.443 330.29 121.72C330.91 122.53 334.22 123.95 335.45 124.42C335.479 124.432 335.506 124.45 335.528 124.472C335.55 124.494 335.568 124.521 335.58 124.55L335.9 125.26C345.9 147.6 355.97 160.14 364.3 160.58C376.9 161.24 391.37 149.58 393.04 148.21L382.91 130.64C381.35 132.07 372.7 139.71 366.53 139.47C359.53 139.19 347.21 119.62 346.24 116.47C346.23 116.441 346.23 116.409 346.24 116.38C346.46 113.65 344.36 110.88 342.18 109.56C339.67 108.03 337.55 107.26 336.09 107.26Z" fill="black"/>
<path d="M333.96 110.6C334.712 110.628 335.459 110.731 336.19 110.91C338.114 111.768 339.958 112.795 341.7 113.98" fill="#FFCFC5"/>
<path d="M341.7 114.23C341.654 114.242 341.606 114.242 341.56 114.23C339.836 113.076 338.016 112.072 336.12 111.23C335.409 111.056 334.682 110.955 333.95 110.93C333.917 110.929 333.885 110.921 333.855 110.907C333.825 110.893 333.798 110.874 333.776 110.85C333.754 110.826 333.736 110.797 333.725 110.766C333.714 110.736 333.709 110.703 333.71 110.67C333.715 110.604 333.745 110.543 333.793 110.499C333.841 110.454 333.904 110.43 333.97 110.43C334.743 110.454 335.51 110.562 336.26 110.75C338.21 111.612 340.078 112.649 341.84 113.85C341.893 113.887 341.931 113.942 341.944 114.006C341.957 114.069 341.945 114.135 341.91 114.19C341.88 114.212 341.846 114.227 341.809 114.234C341.773 114.24 341.736 114.239 341.7 114.23Z" fill="black"/>
<path d="M332.31 113.87C333.067 113.817 333.826 113.923 334.54 114.18C335.44 114.6 339.36 117.3 339.36 117.3" fill="#FFCFC5"/>
<path d="M339.36 117.55C339.311 117.563 339.259 117.563 339.21 117.55C339.21 117.55 335.31 114.86 334.44 114.46C333.764 114.22 333.046 114.121 332.33 114.17C332.297 114.173 332.264 114.169 332.233 114.159C332.201 114.149 332.172 114.133 332.147 114.111C332.122 114.09 332.101 114.064 332.086 114.034C332.071 114.005 332.062 113.973 332.06 113.94C332.057 113.874 332.079 113.81 332.122 113.76C332.164 113.71 332.225 113.678 332.29 113.67C333.089 113.614 333.89 113.73 334.64 114.01C335.55 114.43 339.34 117.01 339.5 117.14C339.527 117.159 339.55 117.183 339.568 117.211C339.585 117.239 339.597 117.27 339.603 117.303C339.608 117.335 339.608 117.368 339.6 117.401C339.593 117.433 339.579 117.463 339.56 117.49C339.533 117.513 339.501 117.531 339.466 117.541C339.432 117.551 339.396 117.554 339.36 117.55Z" fill="black"/>
<path d="M330.78 118.03C331.455 117.935 332.144 118.014 332.78 118.26C334.042 118.985 335.267 119.772 336.45 120.62" fill="#FFCFC5"/>
<path d="M336.49 120.85C336.444 120.864 336.396 120.864 336.35 120.85C336.35 120.85 333.58 118.92 332.71 118.51C332.11 118.286 331.463 118.218 330.83 118.31C330.797 118.316 330.763 118.315 330.731 118.307C330.698 118.3 330.668 118.286 330.641 118.266C330.614 118.247 330.591 118.222 330.574 118.193C330.556 118.165 330.545 118.133 330.54 118.1C330.531 118.037 330.547 117.972 330.584 117.92C330.621 117.868 330.677 117.832 330.74 117.82C331.475 117.706 332.227 117.788 332.92 118.06C334.197 118.793 335.435 119.591 336.63 120.45C336.658 120.467 336.682 120.49 336.7 120.517C336.719 120.544 336.731 120.574 336.737 120.606C336.742 120.639 336.741 120.672 336.733 120.703C336.725 120.735 336.71 120.765 336.69 120.79C336.663 120.814 336.631 120.833 336.597 120.843C336.562 120.853 336.526 120.856 336.49 120.85Z" fill="black"/>
<path d="M407.52 116.55C407.52 116.55 415.36 123.86 412.18 134.04C409.55 142.46 394.48 150.63 394.48 150.63C389.48 147.95 382.13 140.89 377.02 132.63C377.02 132.63 390.02 123.69 395.25 120.01C400.48 116.33 407.52 116.55 407.52 116.55Z" fill="#FB9100"/>
<path d="M394.48 150.88C394.44 150.889 394.399 150.889 394.36 150.88C389.77 148.42 382.31 141.7 376.81 132.75C376.776 132.697 376.764 132.632 376.777 132.571C376.79 132.509 376.827 132.455 376.88 132.42C377.01 132.33 389.88 123.42 395.11 119.8C395.164 119.762 395.232 119.746 395.297 119.758C395.363 119.769 395.421 119.806 395.46 119.86C395.498 119.914 395.514 119.982 395.502 120.047C395.491 120.113 395.454 120.172 395.4 120.21C390.56 123.59 379 131.56 377.4 132.69C382.85 141.46 390.14 148.03 394.65 150.44C394.699 150.466 394.738 150.509 394.76 150.56C394.783 150.611 394.787 150.668 394.773 150.722C394.76 150.776 394.728 150.824 394.684 150.858C394.64 150.892 394.586 150.91 394.53 150.91L394.48 150.88Z" fill="black"/>
<path d="M369.14 141.03C366.505 140.784 364.045 139.607 362.2 137.71C362.176 137.688 362.157 137.66 362.144 137.63C362.131 137.6 362.124 137.568 362.124 137.535C362.124 137.502 362.131 137.47 362.144 137.44C362.157 137.41 362.176 137.382 362.2 137.36C362.247 137.314 362.31 137.289 362.375 137.289C362.44 137.289 362.503 137.314 362.55 137.36C364.322 139.145 366.658 140.262 369.16 140.52C369.227 140.525 369.29 140.556 369.335 140.607C369.379 140.657 369.403 140.723 369.4 140.79C369.399 140.823 369.391 140.855 369.377 140.885C369.363 140.915 369.344 140.942 369.32 140.964C369.296 140.986 369.267 141.004 369.236 141.015C369.206 141.026 369.173 141.031 369.14 141.03Z" fill="black"/>
<path d="M302.83 136.35C302.83 136.35 298.73 141.61 299.58 143.9C300.43 146.19 303.17 145.07 303.17 145.07C303.504 145.558 303.933 145.975 304.431 146.294C304.929 146.614 305.487 146.83 306.07 146.93C307.18 146.915 308.247 146.495 309.07 145.75C309.07 145.75 310.76 147.75 312.66 147.33C313.193 147.229 313.69 146.991 314.103 146.641C314.517 146.29 314.833 145.839 315.02 145.33C315.02 145.33 317.21 148.78 319.15 147.16C321.09 145.54 322.15 140.16 320.38 139.02C317.87 137.38 316.38 140.11 316.38 140.11C316.38 140.11 317.04 137.51 315.66 136.91C313.48 135.91 312.42 139.02 312.42 139.02C312.42 139.02 312.52 136.18 311.02 135.6C309.02 134.81 308.17 137.88 308.17 137.88C308.17 137.88 308.1 135.23 306.47 134.64C304.84 134.05 302.83 136.35 302.83 136.35Z" fill="#FFCFC5"/>
<path d="M317.99 147.83H317.68C316.589 147.496 315.651 146.788 315.03 145.83C314.789 146.276 314.453 146.663 314.045 146.964C313.637 147.265 313.167 147.472 312.67 147.57C310.99 147.94 309.5 146.57 309.01 146.1C308.18 146.788 307.138 147.169 306.06 147.18C305.463 147.098 304.889 146.895 304.373 146.584C303.858 146.273 303.411 145.86 303.06 145.37C302.252 145.658 301.368 145.658 300.56 145.37C300.273 145.242 300.014 145.057 299.799 144.827C299.584 144.597 299.418 144.326 299.31 144.03C298.43 141.64 302.44 136.46 302.61 136.24C302.7 136.14 304.73 133.79 306.51 134.44C306.983 134.675 307.39 135.025 307.692 135.459C307.994 135.892 308.183 136.395 308.24 136.92C308.503 136.305 308.955 135.791 309.53 135.45C309.769 135.336 310.03 135.277 310.295 135.277C310.56 135.277 310.821 135.336 311.06 135.45C312.11 135.86 312.46 137.17 312.57 138.11C312.896 137.516 313.395 137.035 314 136.73C314.267 136.603 314.559 136.538 314.855 136.538C315.151 136.538 315.443 136.603 315.71 136.73C316.71 137.16 316.79 138.36 316.71 139.24C317.097 138.828 317.587 138.527 318.13 138.37C318.528 138.282 318.941 138.282 319.339 138.368C319.738 138.454 320.113 138.626 320.44 138.87C320.774 139.144 321.039 139.494 321.213 139.89C321.387 140.286 321.464 140.718 321.44 141.15C321.56 143.15 320.71 146.15 319.25 147.4C318.891 147.683 318.447 147.835 317.99 147.83ZM314.99 145.07C315.031 145.07 315.072 145.08 315.108 145.1C315.145 145.119 315.176 145.146 315.2 145.18C315.2 145.18 316.43 147.1 317.77 147.31C317.983 147.344 318.2 147.329 318.407 147.267C318.613 147.205 318.802 147.096 318.96 146.95C320.15 145.95 321.1 143.23 320.96 141.11C320.982 140.759 320.926 140.408 320.796 140.081C320.666 139.754 320.466 139.46 320.21 139.22C319.94 139.018 319.63 138.876 319.3 138.804C318.971 138.731 318.63 138.73 318.3 138.8C317.574 139.05 316.963 139.554 316.58 140.22C316.55 140.273 316.503 140.314 316.447 140.336C316.39 140.358 316.328 140.359 316.27 140.34C316.215 140.314 316.17 140.27 316.143 140.216C316.116 140.162 316.108 140.099 316.12 140.04C316.12 140.04 316.71 137.64 315.54 137.13C315.333 137.034 315.108 136.984 314.88 136.984C314.652 136.984 314.427 137.034 314.22 137.13C313.477 137.593 312.919 138.3 312.64 139.13C312.621 139.189 312.581 139.238 312.527 139.268C312.473 139.298 312.41 139.306 312.35 139.29C312.293 139.278 312.241 139.247 312.205 139.201C312.168 139.155 312.149 139.098 312.15 139.04C312.15 139.04 312.23 136.38 310.91 135.86C310.735 135.778 310.544 135.735 310.35 135.735C310.156 135.735 309.965 135.778 309.79 135.86C309.098 136.376 308.604 137.114 308.39 137.95C308.376 138.008 308.34 138.059 308.29 138.092C308.24 138.126 308.179 138.139 308.12 138.13C308.09 138.129 308.06 138.121 308.033 138.109C308.005 138.096 307.981 138.078 307.96 138.056C307.94 138.033 307.924 138.007 307.914 137.979C307.903 137.95 307.899 137.92 307.9 137.89C307.9 137.89 307.82 135.41 306.37 134.89C304.92 134.37 303.11 136.44 303.03 136.54C301.91 137.98 299.16 142.08 299.81 143.85C299.891 144.093 300.022 144.316 300.194 144.505C300.366 144.695 300.576 144.846 300.81 144.95C301.563 145.186 302.375 145.158 303.11 144.87C303.163 144.848 303.221 144.846 303.276 144.862C303.33 144.878 303.378 144.913 303.41 144.96C303.721 145.416 304.12 145.806 304.584 146.106C305.048 146.407 305.566 146.612 306.11 146.71C307.14 146.685 308.126 146.291 308.89 145.6C308.939 145.554 309.003 145.529 309.07 145.53C309.105 145.531 309.139 145.54 309.17 145.555C309.201 145.571 309.228 145.593 309.25 145.62C309.25 145.62 310.87 147.49 312.6 147.11C313.09 147.021 313.548 146.805 313.929 146.484C314.31 146.163 314.6 145.748 314.77 145.28C314.779 145.232 314.803 145.188 314.839 145.156C314.875 145.123 314.921 145.104 314.97 145.1L314.99 145.07Z" fill="black"/>
<path d="M308.15 137.87C307.525 139.779 306.563 141.56 305.31 143.13L308.15 137.87Z" fill="white"/>
<path d="M305.31 143.38C305.264 143.394 305.216 143.394 305.17 143.38C305.116 143.342 305.078 143.284 305.065 143.219C305.052 143.154 305.065 143.086 305.1 143.03C305.26 142.81 305.42 142.58 305.58 142.34C306.634 141.002 307.431 139.479 307.93 137.85C307.936 137.817 307.948 137.786 307.967 137.758C307.986 137.731 308.01 137.708 308.038 137.691C308.067 137.674 308.099 137.663 308.132 137.659C308.165 137.656 308.198 137.659 308.23 137.67C308.293 137.686 308.348 137.727 308.381 137.783C308.415 137.839 308.425 137.906 308.41 137.97C307.899 139.66 307.078 141.24 305.99 142.63L305.52 143.31C305.492 143.336 305.459 143.356 305.423 143.368C305.387 143.38 305.348 143.384 305.31 143.38Z" fill="black"/>
<path d="M312.44 138.61C311.816 140.524 310.85 142.31 309.59 143.88L312.44 138.61Z" fill="white"/>
<path d="M309.59 144.13C309.544 144.144 309.496 144.144 309.45 144.13C309.423 144.113 309.399 144.09 309.38 144.064C309.362 144.037 309.349 144.007 309.342 143.975C309.336 143.943 309.336 143.911 309.342 143.879C309.349 143.847 309.362 143.817 309.38 143.79C309.53 143.56 309.69 143.33 309.86 143.09C310.911 141.751 311.705 140.229 312.2 138.6C312.219 138.538 312.26 138.485 312.315 138.452C312.371 138.419 312.437 138.407 312.5 138.42C312.532 138.427 312.563 138.441 312.59 138.46C312.617 138.478 312.64 138.503 312.658 138.531C312.675 138.558 312.687 138.59 312.693 138.622C312.698 138.655 312.697 138.688 312.69 138.72C312.185 140.389 311.378 141.952 310.31 143.33C310.143 143.557 309.983 143.787 309.83 144.02C309.806 144.061 309.77 144.093 309.727 144.113C309.684 144.133 309.637 144.139 309.59 144.13Z" fill="black"/>
<path d="M316.59 139.5C316.214 140.838 315.608 142.1 314.8 143.23L316.59 139.5Z" fill="white"/>
<path d="M314.8 143.48C314.754 143.494 314.706 143.494 314.66 143.48C314.607 143.444 314.569 143.388 314.556 143.324C314.543 143.261 314.555 143.195 314.59 143.14C315.388 142.037 315.984 140.801 316.35 139.49C316.369 139.426 316.411 139.372 316.469 139.338C316.527 139.305 316.595 139.295 316.66 139.31C316.722 139.329 316.775 139.37 316.808 139.425C316.841 139.481 316.853 139.547 316.84 139.61C316.453 140.976 315.834 142.264 315.01 143.42C314.981 143.445 314.948 143.463 314.912 143.473C314.875 143.484 314.837 143.486 314.8 143.48Z" fill="black"/>
<path d="M221.21 175.59V180.94H192.97L201.97 169.2L206.36 163.5C206.682 163.077 207.097 162.735 207.573 162.499C208.049 162.263 208.574 162.14 209.105 162.14C209.636 162.14 210.161 162.263 210.637 162.499C211.113 162.735 211.528 163.077 211.85 163.5L221.21 175.59Z" fill="#1B5A96"/>
<path d="M211.05 180.94H178.55V166.54L186.55 156.2C186.874 155.781 187.29 155.441 187.766 155.208C188.242 154.974 188.765 154.853 189.295 154.853C189.825 154.853 190.348 154.974 190.824 155.208C191.3 155.441 191.716 155.781 192.04 156.2L202.04 169.2L211.05 180.94Z" fill="#1B5A96"/>
<path d="M205.93 174.54C205.891 174.54 205.853 174.531 205.818 174.514C205.783 174.496 205.753 174.471 205.73 174.44L201.81 169.35C201.79 169.324 201.776 169.294 201.768 169.262C201.76 169.23 201.758 169.197 201.763 169.165C201.767 169.132 201.778 169.101 201.795 169.073C201.812 169.044 201.834 169.02 201.86 169C201.886 168.98 201.916 168.966 201.948 168.958C201.98 168.95 202.013 168.948 202.045 168.952C202.078 168.957 202.109 168.968 202.137 168.985C202.166 169.002 202.19 169.024 202.21 169.05L206.13 174.14C206.176 174.187 206.201 174.25 206.201 174.315C206.201 174.38 206.176 174.443 206.13 174.49C206.102 174.512 206.07 174.528 206.035 174.537C206.001 174.545 205.965 174.546 205.93 174.54Z" fill="white"/>
<path d="M203.27 159.61C205.38 159.61 207.09 157.9 207.09 155.79C207.09 153.68 205.38 151.97 203.27 151.97C201.16 151.97 199.45 153.68 199.45 155.79C199.45 157.9 201.16 159.61 203.27 159.61Z" fill="#FB9100"/>
<path d="M379.93 65.5601C379.93 65.5601 388.18 67.0701 393.02 65.1801C400.6 62.1801 398.82 43.4801 396.02 41.2701C392.87 38.7701 374.15 39.0401 360.53 39.2701C358.8 39.2983 357.148 39.9968 355.922 41.2185C354.697 42.4403 353.993 44.09 353.96 45.8201C353.81 53.2401 353.18 58.5201 355.91 62.3801C357.91 65.2001 367.58 65.8801 367.58 65.8801L368.15 73.1201L379.93 65.5601Z" fill="#1B5A96"/>
<path d="M375.11 47.2601C375.112 48.0049 374.893 48.7336 374.482 49.3542C374.07 49.9748 373.484 50.4596 372.797 50.7473C372.11 51.035 371.353 51.1128 370.622 50.9709C369.891 50.829 369.218 50.4737 368.688 49.9499C368.159 49.426 367.797 48.7571 367.647 48.0275C367.497 47.2979 367.567 46.5404 367.848 45.8504C368.128 45.1604 368.607 44.569 369.223 44.1507C369.839 43.7324 370.565 43.506 371.31 43.5001C371.807 43.4962 372.299 43.5904 372.76 43.7775C373.22 43.9646 373.639 44.2407 373.992 44.5901C374.345 44.9395 374.625 45.3553 374.817 45.8135C375.009 46.2717 375.109 46.7633 375.11 47.2601ZM368.84 59.3401L379.84 43.5001H382.07L371.07 59.3401H368.84ZM372.84 47.2801C372.837 47.0818 372.796 46.886 372.717 46.7038C372.639 46.5216 372.526 46.3566 372.384 46.2182C372.242 46.0798 372.074 45.9708 371.889 45.8974C371.705 45.8239 371.508 45.7875 371.31 45.7901C370.919 45.7954 370.546 45.955 370.273 46.2342C369.999 46.5133 369.847 46.8893 369.85 47.2801C369.85 47.6673 370.004 48.0387 370.278 48.3125C370.551 48.5863 370.923 48.7401 371.31 48.7401C371.505 48.7441 371.699 48.7094 371.881 48.6381C372.063 48.5667 372.229 48.4601 372.369 48.3244C372.509 48.1887 372.621 48.0266 372.699 47.8473C372.776 47.6681 372.817 47.4753 372.82 47.2801H372.84ZM383.31 55.5601C383.31 56.56 382.913 57.5189 382.206 58.2259C381.499 58.9329 380.54 59.3301 379.54 59.3301C378.54 59.3301 377.581 58.9329 376.874 58.2259C376.167 57.5189 375.77 56.56 375.77 55.5601C375.77 54.5603 376.167 53.6013 376.874 52.8943C377.581 52.1873 378.54 51.7901 379.54 51.7901C380.54 51.7901 381.499 52.1873 382.206 52.8943C382.913 53.6013 383.31 54.5603 383.31 55.5601ZM381.01 55.5601C381.01 55.1623 380.852 54.7808 380.571 54.4995C380.289 54.2182 379.908 54.0601 379.51 54.0601C379.112 54.0601 378.731 54.2182 378.449 54.4995C378.168 54.7808 378.01 55.1623 378.01 55.5601C378.01 55.9579 378.168 56.3395 378.449 56.6208C378.731 56.9021 379.112 57.0601 379.51 57.0601C379.908 57.0601 380.289 56.9021 380.571 56.6208C380.852 56.3395 381.01 55.9579 381.01 55.5601Z" fill="white"/>
<path d="M172.43 115.11C173.182 118.546 172.899 122.129 171.616 125.404C170.333 128.68 168.107 131.501 165.221 133.512C162.334 135.523 158.916 136.633 155.399 136.701C151.882 136.77 148.424 135.795 145.461 133.898C142.498 132.002 140.164 129.269 138.754 126.047C137.343 122.824 136.92 119.255 137.538 115.792C138.155 112.329 139.786 109.127 142.223 106.59C144.66 104.053 147.794 102.296 151.23 101.54C153.514 101.023 155.878 100.964 158.185 101.368C160.491 101.772 162.695 102.63 164.667 103.893C166.64 105.155 168.341 106.797 169.674 108.722C171.007 110.648 171.943 112.819 172.43 115.11Z" fill="#FFF6EB"/>
<path d="M154.955 118.503C157.743 117.891 159.445 114.849 158.755 111.71C158.066 108.57 155.246 106.522 152.457 107.135C149.668 107.747 147.967 110.789 148.656 113.928C149.346 117.068 152.166 119.116 154.955 118.503Z" fill="#FB9100"/>
<path d="M170.79 127.22C169.583 129.511 167.89 131.51 165.829 133.078C163.768 134.646 161.39 135.746 158.861 136.299C156.331 136.852 153.711 136.847 151.184 136.282C148.657 135.717 146.284 134.607 144.23 133.03C144.1 127.32 148.95 122.98 155.62 121.51C162.29 120.04 168.51 122.03 170.79 127.22Z" fill="#FB9100"/>
<path d="M155.04 137.03C151.64 137.027 148.31 136.063 145.434 134.251C142.558 132.438 140.252 129.85 138.782 126.784C137.312 123.719 136.738 120.3 137.125 116.923C137.513 113.545 138.846 110.346 140.972 107.692C143.098 105.039 145.93 103.041 149.142 101.927C152.354 100.813 155.816 100.628 159.128 101.395C162.44 102.162 165.469 103.848 167.864 106.26C170.26 108.673 171.926 111.713 172.67 115.03C173.694 119.703 172.82 124.591 170.242 128.62C167.664 132.65 163.592 135.491 158.92 136.52C157.65 136.834 156.348 137.005 155.04 137.03ZM155.04 101.42C152.416 101.422 149.825 102.012 147.459 103.147C145.093 104.281 143.011 105.932 141.367 107.977C139.723 110.023 138.558 112.41 137.958 114.965C137.358 117.52 137.338 120.177 137.9 122.74C138.611 125.972 140.221 128.937 142.545 131.294C144.869 133.65 147.812 135.301 151.034 136.056C154.256 136.812 157.626 136.641 160.755 135.563C163.884 134.486 166.645 132.545 168.718 129.966C170.792 127.387 172.094 124.274 172.474 120.986C172.854 117.699 172.297 114.371 170.867 111.386C169.437 108.402 167.192 105.882 164.392 104.119C161.591 102.356 158.349 101.42 155.04 101.42Z" fill="black"/>
<path d="M250.47 218.03L227.79 202.09C226.23 200.99 223.87 201.64 222.53 203.55L209.8 221.66C208.46 223.57 208.64 226 210.2 227.1L232.88 243.03C234.44 244.13 236.79 243.48 238.14 241.57L250.87 223.46C252.21 221.59 252.03 219.16 250.47 218.03ZM233.2 227.12L224.55 226.56C224.12 226.532 223.705 226.39 223.348 226.148C222.991 225.906 222.704 225.574 222.518 225.185C222.332 224.796 222.252 224.365 222.288 223.935C222.323 223.506 222.472 223.093 222.72 222.74L227.92 215.34C228.168 214.986 228.506 214.705 228.899 214.525C229.292 214.345 229.726 214.274 230.156 214.317C230.586 214.361 230.997 214.519 231.345 214.774C231.694 215.03 231.968 215.373 232.14 215.77L235.59 223.77C235.753 224.152 235.816 224.569 235.772 224.982C235.728 225.394 235.579 225.789 235.34 226.128C235.1 226.467 234.777 226.739 234.403 226.918C234.028 227.097 233.614 227.177 233.2 227.15V227.12Z" fill="#FB9100"/>
<path d="M233.37 227.4H233.19C233.157 227.398 233.125 227.389 233.096 227.374C233.066 227.359 233.04 227.338 233.019 227.313C232.997 227.288 232.981 227.259 232.971 227.227C232.961 227.196 232.957 227.163 232.96 227.13C232.965 227.066 232.995 227.006 233.044 226.963C233.092 226.92 233.155 226.897 233.22 226.9C233.587 226.921 233.954 226.848 234.285 226.689C234.617 226.529 234.903 226.289 235.116 225.989C235.33 225.69 235.464 225.341 235.507 224.976C235.549 224.611 235.499 224.241 235.36 223.9L231.91 215.9C231.756 215.544 231.509 215.235 231.196 215.006C230.882 214.776 230.513 214.635 230.127 214.596C229.74 214.558 229.35 214.623 228.998 214.785C228.645 214.948 228.342 215.201 228.12 215.52L222.92 222.91C222.904 222.942 222.88 222.97 222.852 222.993C222.824 223.015 222.791 223.031 222.756 223.039C222.721 223.048 222.684 223.048 222.649 223.041C222.613 223.034 222.58 223.02 222.551 222.999C222.522 222.977 222.497 222.95 222.48 222.919C222.462 222.887 222.451 222.852 222.448 222.816C222.445 222.78 222.45 222.744 222.463 222.71C222.475 222.676 222.495 222.646 222.52 222.62L227.71 215.23C227.983 214.839 228.357 214.529 228.792 214.332C229.226 214.135 229.706 214.058 230.18 214.11C230.654 214.154 231.107 214.327 231.491 214.608C231.875 214.89 232.176 215.271 232.36 215.71L235.82 223.66C236.003 224.08 236.074 224.54 236.026 224.996C235.979 225.451 235.815 225.887 235.55 226.26C235.308 226.614 234.982 226.903 234.602 227.102C234.222 227.301 233.799 227.403 233.37 227.4Z" fill="black"/>
</g>
<path d="M471.134 292.996H98.6618C98.4786 292.979 98.3105 292.92 98.1888 292.829C98.0671 292.738 98 292.621 98 292.5C98 292.379 98.0671 292.262 98.1888 292.171C98.3105 292.08 98.4786 292.021 98.6618 292.004H471.134C471.242 291.995 471.352 292.001 471.457 292.021C471.561 292.042 471.657 292.077 471.739 292.124C471.821 292.171 471.887 292.228 471.932 292.293C471.977 292.358 472 292.429 472 292.5C472 292.571 471.977 292.642 471.932 292.707C471.887 292.772 471.821 292.829 471.739 292.876C471.657 292.923 471.561 292.958 471.457 292.979C471.352 292.999 471.242 293.005 471.134 292.996Z" fill="#030047"/>
</g>
<defs>
<clipPath id="clip0_76_2769">
<rect width="570" height="324" fill="white"/>
</clipPath>
<clipPath id="clip1_76_2769">
<rect width="296.63" height="262.07" fill="white" transform="translate(137 31)"/>
</clipPath>
</defs>
</svg>
