<svg width="40" height="40" viewBox="0 0 40 40" fill="none" xmlns="http://www.w3.org/2000/svg">
<path d="M21.25 32.5L20 37.5L25 36.25L30.9875 30.2625L27.2375 26.5125L21.25 32.5Z" fill="#FB9100"/>
<path d="M32.3492 22.5C32.0011 22.4997 31.6563 22.568 31.3346 22.701C31.0129 22.8339 30.7205 23.029 30.4742 23.275L29.0117 24.7375L32.7617 28.4875L34.2242 27.025C34.5953 26.6544 34.8481 26.182 34.9505 25.6676C35.053 25.1533 35.0005 24.6201 34.7997 24.1356C34.5989 23.6511 34.2589 23.237 33.8227 22.9459C33.3865 22.6547 32.8737 22.4995 32.3492 22.5Z" fill="#FB9100"/>
<path d="M23.75 10H30L22.5 2.5V8.75C22.5 9.08152 22.6317 9.39946 22.8661 9.63388C23.1005 9.8683 23.4185 10 23.75 10Z" fill="#FB9100"/>
<path d="M28.75 21.5125C29.1206 21.1464 29.5415 20.8349 30 20.5875V12.5H23.75C22.7554 12.5 21.8016 12.1049 21.0983 11.4017C20.3951 10.6984 20 9.74456 20 8.75V2.5H7.5C6.83696 2.5 6.20107 2.76339 5.73223 3.23223C5.26339 3.70107 5 4.33696 5 5V35C5 35.663 5.26339 36.2989 5.73223 36.7678C6.20107 37.2366 6.83696 37.5 7.5 37.5H17.425L18.9875 31.25L28.75 21.5125ZM11.25 11.25H16.25C16.5815 11.25 16.8995 11.3817 17.1339 11.6161C17.3683 11.8505 17.5 12.1685 17.5 12.5C17.5 12.8315 17.3683 13.1495 17.1339 13.3839C16.8995 13.6183 16.5815 13.75 16.25 13.75H11.25C10.9185 13.75 10.6005 13.6183 10.3661 13.3839C10.1317 13.1495 10 12.8315 10 12.5C10 12.1685 10.1317 11.8505 10.3661 11.6161C10.6005 11.3817 10.9185 11.25 11.25 11.25ZM17.5 28.75H11.25C10.9185 28.75 10.6005 28.6183 10.3661 28.3839C10.1317 28.1495 10 27.8315 10 27.5C10 27.1685 10.1317 26.8505 10.3661 26.6161C10.6005 26.3817 10.9185 26.25 11.25 26.25H17.5C17.8315 26.25 18.1495 26.3817 18.3839 26.6161C18.6183 26.8505 18.75 27.1685 18.75 27.5C18.75 27.8315 18.6183 28.1495 18.3839 28.3839C18.1495 28.6183 17.8315 28.75 17.5 28.75ZM22.5 23.75H11.25C10.9185 23.75 10.6005 23.6183 10.3661 23.3839C10.1317 23.1495 10 22.8315 10 22.5C10 22.1685 10.1317 21.8505 10.3661 21.6161C10.6005 21.3817 10.9185 21.25 11.25 21.25H22.5C22.8315 21.25 23.1495 21.3817 23.3839 21.6161C23.6183 21.8505 23.75 22.1685 23.75 22.5C23.75 22.8315 23.6183 23.1495 23.3839 23.3839C23.1495 23.6183 22.8315 23.75 22.5 23.75ZM23.75 18.75H11.25C10.9185 18.75 10.6005 18.6183 10.3661 18.3839C10.1317 18.1495 10 17.8315 10 17.5C10 17.1685 10.1317 16.8505 10.3661 16.6161C10.6005 16.3817 10.9185 16.25 11.25 16.25H23.75C24.0815 16.25 24.3995 16.3817 24.6339 16.6161C24.8683 16.8505 25 17.1685 25 17.5C25 17.8315 24.8683 18.1495 24.6339 18.3839C24.3995 18.6183 24.0815 18.75 23.75 18.75Z" fill="#FB9100"/>
</svg>
