<svg width="40" height="40" viewBox="0 0 40 40" fill="none" xmlns="http://www.w3.org/2000/svg">
<path d="M32.4791 13.7455C32.4791 6.86672 26.8791 1.26672 20.0003 1.26672C13.1215 1.26672 7.52148 6.86672 7.52148 13.7455C7.52148 19.9152 17.7336 31.5273 20.0003 34.0304C22.2669 31.5273 32.4791 19.9152 32.4791 13.7455ZM10.2366 13.4364C10.2366 8.04854 14.6185 3.67278 20.0003 3.67278C25.3821 3.67278 29.7639 8.0546 29.7639 13.4364C29.7639 18.8182 25.3882 23.2001 20.0003 23.2001C14.6124 23.2001 10.2366 18.8243 10.2366 13.4364Z" fill="#FB9100"/>
<path d="M28.5585 13.4364C28.5585 8.72121 24.7221 4.87878 20.0009 4.87878C15.2797 4.87878 11.4434 8.71515 11.4434 13.4364C11.4434 18.1576 15.2858 21.9939 20.0009 21.9939C24.7161 21.9939 28.5585 18.1576 28.5585 13.4364ZM22.4252 12.6848C22.4252 11.3758 23.4858 10.3151 24.7949 10.3151C26.104 10.3151 27.1646 11.3758 27.1646 12.6848V14.1879C27.1646 15.497 26.0979 16.5576 24.7949 16.5576C23.4918 16.5576 22.4252 15.497 22.4252 14.1879V12.6848ZM14.6979 16.5636C13.9464 16.5636 13.2737 16.1151 12.9828 15.4242C12.8494 15.1151 12.9949 14.7636 13.304 14.6303C13.6131 14.503 13.9646 14.6424 14.0979 14.9515C14.2009 15.1939 14.4373 15.3515 14.704 15.3515C15.0676 15.3515 15.3585 15.0606 15.3585 14.697C15.3585 14.3333 15.0676 14.0424 14.704 14.0424C13.6737 14.0424 12.8373 13.2061 12.8373 12.1758C12.8373 11.1455 13.6737 10.3091 14.704 10.3091C15.504 10.3091 16.2131 10.8182 16.4676 11.5697C16.5767 11.8848 16.407 12.2303 16.0918 12.3394C15.7767 12.4485 15.4312 12.2788 15.3221 11.9636C15.2312 11.697 14.9828 11.5212 14.704 11.5212C14.3403 11.5212 14.0494 11.8121 14.0494 12.1758C14.0494 12.5394 14.3403 12.8303 14.704 12.8303C15.7343 12.8303 16.5706 13.6667 16.5706 14.697C16.5646 15.7273 15.7282 16.5636 14.6979 16.5636ZM17.8191 15.9576V10.9151C17.8191 10.5818 18.0918 10.3091 18.4252 10.3091H20.5706C20.904 10.3091 21.1767 10.5818 21.1767 10.9151C21.1767 11.2485 20.904 11.5212 20.5706 11.5212H19.0312V12.8303H20.5706C20.904 12.8303 21.1767 13.103 21.1767 13.4364C21.1767 13.7697 20.904 14.0424 20.5706 14.0424H19.0312V15.3515H20.5706C20.904 15.3515 21.1767 15.6242 21.1767 15.9576C21.1767 16.2909 20.904 16.5636 20.5706 16.5636H18.4252C18.0858 16.5636 17.8191 16.2909 17.8191 15.9576Z" fill="#FB9100"/>
<path d="M24.7945 15.3515C25.4369 15.3515 25.9581 14.8303 25.9581 14.1879V12.6849C25.9581 12.0425 25.4369 11.5212 24.7945 11.5212C24.1521 11.5212 23.6309 12.0425 23.6309 12.6849V14.1879C23.6309 14.8303 24.1521 15.3515 24.7945 15.3515Z" fill="#FB9100"/>
<path d="M13.8125 33.8788C13.8125 34.9818 16.461 36.2122 20.0004 36.2122C23.5398 36.2122 26.1883 34.9818 26.1883 33.8788C26.1883 33.1758 25.061 32.4122 23.4125 31.9697C21.8004 33.8849 20.6004 35.1697 20.4428 35.3394C20.3277 35.4606 20.1701 35.5334 20.0004 35.5334C19.8307 35.5334 19.6731 35.4667 19.558 35.3394C19.4004 35.1697 18.2004 33.8849 16.5883 31.9697C14.9398 32.4122 13.8125 33.1697 13.8125 33.8788Z" fill="#FB9100"/>
<path d="M27.3943 33.8788C27.3943 35.897 24.2125 37.4243 20.0004 37.4243C15.7883 37.4243 12.6065 35.9031 12.6065 33.8788C12.6065 32.6546 13.764 31.594 15.7459 30.9516C15.3822 30.5091 15.0065 30.0425 14.6246 29.5576C10.6428 30.394 7.98828 32.1091 7.98828 33.8788C7.98828 36.2243 12.8186 38.7334 20.0065 38.7334C27.1943 38.7334 32.0246 36.2243 32.0246 33.8788C32.0246 32.1091 29.3701 30.394 25.3883 29.5576C25.0065 30.0425 24.6307 30.5091 24.2671 30.9516C26.2428 31.594 27.3943 32.6546 27.3943 33.8788Z" fill="#FB9100"/>
</svg>
