<svg width="40" height="40" viewBox="0 0 40 40" fill="none" xmlns="http://www.w3.org/2000/svg">
<path d="M33.334 14.3333L19.3673 28.3C18.884 28.7833 18.2507 29.0833 17.5673 29.15L12.684 29.6C12.684 29.6 12.5507 29.6 12.5007 29.6C11.9507 29.6 11.4173 29.3833 11.034 28.9833C10.6007 28.55 10.384 27.9333 10.434 27.3167L10.884 22.4333C10.9507 21.75 11.2507 21.1167 11.734 20.6333L25.6673 6.66666L33.334 14.3333ZM36.5673 4.61666L35.384 3.43333C33.6006 1.64999 30.684 1.64999 28.9007 3.43333L27.434 4.89999L35.1007 12.5667L36.5673 11.1C37.434 10.2333 37.9173 9.08333 37.9173 7.86666C37.9173 6.64999 37.434 5.48333 36.5673 4.63333V4.61666ZM34.584 31.6833V22C34.584 21.3167 34.0173 20.75 33.334 20.75C32.6507 20.75 32.084 21.3167 32.084 22V31.6833C32.084 33.75 30.4007 35.4333 28.334 35.4333H8.33398C6.26732 35.4333 4.58398 33.75 4.58398 31.6833V11.6667C4.58398 9.59999 6.26732 7.91666 8.33398 7.91666H18.0173C18.7007 7.91666 19.2673 7.34999 19.2673 6.66666C19.2673 5.98333 18.7007 5.41666 18.0173 5.41666H8.33398C4.88398 5.41666 2.08398 8.21666 2.08398 11.6667V31.6667C2.08398 35.1167 4.88398 37.9167 8.33398 37.9167H28.334C31.784 37.9167 34.584 35.1167 34.584 31.6667V31.6833Z" fill="#FB9100"/>
</svg>
