<svg width="40" height="40" viewBox="0 0 40 40" fill="none" xmlns="http://www.w3.org/2000/svg">
<path fill-rule="evenodd" clip-rule="evenodd" d="M7.32942 4.81246H29.9868V21.792L23.5305 25.5884H9.67785C9.16608 25.5884 9.16608 26.3659 9.67785 26.3659H22.2633L20.6457 26.8636C19.3179 27.2722 18.5323 28.6249 18.7982 29.9593H9.67785C9.16608 29.9593 9.16608 30.7368 9.67785 30.7368H19.0228L19.3435 31.7791C19.7793 33.1955 21.2895 33.995 22.7059 33.5592L22.8253 33.5224L23.3377 35.1876H7.32942V4.81246ZM32.2612 25.4935C32.8926 25.4813 33.4817 25.8851 33.6766 26.5186C33.8716 27.1523 33.6114 27.8174 33.0824 28.1622L32.2612 25.4935ZM35.7183 26.0896C35.2305 26.2395 35.0027 25.4986 35.4905 25.3485L37.5057 24.7284C37.9934 24.5784 38.2214 25.3194 37.7335 25.4695L35.7183 26.0896ZM35.5838 28.0014C35.4035 27.8856 35.3511 27.6456 35.4669 27.4654C35.5826 27.2851 35.8226 27.2327 36.0029 27.3484L38.1093 28.7019C38.2897 28.8176 38.342 29.0576 38.2263 29.2379C38.1105 29.4181 37.8706 29.4705 37.6903 29.3548L35.5838 28.0014ZM34.8735 24.2883C34.7896 24.4854 34.5619 24.5772 34.3648 24.4933C34.1678 24.4094 34.076 24.1817 34.1599 23.9847L35.141 21.6811C35.2249 21.4841 35.4526 21.3923 35.6497 21.4762C35.8467 21.56 35.9385 21.7878 35.8546 21.9848L34.8735 24.2883ZM26.037 32.977L25.0476 33.0418L24.9904 32.8562L23.5683 33.2938L24.9795 37.8801L28.3725 36.8361L26.037 32.977ZM23.7968 26.3336L25.6099 32.2258L33.363 31.7176L30.4946 22.3954L23.7968 26.3336ZM20.8744 27.6066C19.8674 27.9165 19.2989 28.9904 19.6087 29.9974L20.0865 31.5505C20.3964 32.5574 21.4703 33.1259 22.4773 32.8161L24.7618 32.1132L23.1589 26.9038L20.8744 27.6066ZM29.9868 32.718L26.911 32.9196L28.2835 35.1875H29.9868V32.718ZM15.367 1.3407L20.7201 4.03499H14.011L15.367 1.3407ZM30.7643 9.09045L35.6055 11.5271L30.7643 21.1456V9.09045ZM23.3054 35.9649L21.9493 38.6592L16.5962 35.9649H23.3054ZM6.55202 30.9095L1.71094 28.4729L6.55202 18.8545V30.9095ZM28.225 21.2174H9.67785C9.16608 21.2174 9.16608 21.9949 9.67785 21.9949H28.225C28.7367 21.9949 28.7367 21.2174 28.225 21.2174ZM28.225 15.7752H17.5268C17.015 15.7752 17.015 16.5527 17.5268 16.5527H28.225C28.7368 16.5527 28.7368 15.7752 28.225 15.7752ZM28.225 13.054H17.5268C17.015 13.054 17.015 13.8315 17.5268 13.8315H28.225C28.7368 13.8315 28.7368 13.054 28.225 13.054ZM10.0698 8.54194V11.1495H28.1235V8.54194H10.0698ZM10.0698 13.4427V19.2486H15.8758V13.4427H10.0698Z" fill="#FB9100"/>
</svg>
