<svg width="40" height="40" viewBox="0 0 40 40" fill="none" xmlns="http://www.w3.org/2000/svg">
<g clip-path="url(#clip0_3590_72)">
<path fill-rule="evenodd" clip-rule="evenodd" d="M10.093 25.7406C14.4945 25.7406 18.0633 22.1719 18.0633 17.7703C18.0633 17.5859 18.0563 17.4039 18.0445 17.2227C15.9781 15.7492 14.5148 13.4867 14.0922 10.875C12.9164 10.1914 11.5508 9.8 10.093 9.8C5.69141 9.8 2.12266 13.3688 2.12266 17.7703C2.12266 22.1719 5.69141 25.7406 10.093 25.7406ZM5.18516 16.1711C5.23281 16.0242 5.35391 15.9242 5.50703 15.9055L8.47031 15.5328L9.74063 12.8297C9.80625 12.6898 9.93828 12.6062 10.093 12.6062C10.2477 12.6062 10.3797 12.6898 10.4453 12.8297L11.7156 15.5328L14.6789 15.9055C14.832 15.925 14.9531 16.0242 15.0008 16.1711C15.0484 16.318 15.0094 16.4695 14.8969 16.575L12.718 18.618L13.2797 21.5516C13.3086 21.7031 13.2508 21.8492 13.1266 21.9398C13.0016 22.0305 12.8453 22.0406 12.7102 21.9656L10.0938 20.525L7.47734 21.9656C7.34219 22.0398 7.18594 22.0305 7.06094 21.9398C6.93594 21.8492 6.87813 21.7031 6.90703 21.5516L7.46875 18.618L5.28984 16.575C5.17734 16.4695 5.13828 16.318 5.18594 16.1711H5.18516ZM23.6719 17.7703C28.3289 17.7703 32.1273 13.9719 32.1273 9.31484C32.1273 4.65781 28.3289 0.859375 23.6719 0.859375C19.0148 0.859375 15.2164 4.65781 15.2164 9.31484C15.2164 13.9719 19.0148 17.7703 23.6719 17.7703ZM23.843 4.60781C24.4195 3.92109 26.5297 3.2375 25.8383 8.32031H26.7313C28.7625 8.26875 28.8383 8.70547 28.9594 9.51953C29.0703 10.2633 28.5414 13.2859 27.9836 13.8672C27.2344 14.6164 24.2883 14.5641 23.2445 14.3742C22.5469 14.2469 22.1961 14.0281 21.3875 13.9797L21.3789 8.75078C23.7898 8.38906 22.2555 6.49844 23.843 4.60859V4.60781ZM18.3695 8.83516C18.3695 8.60234 18.5602 8.4125 18.7922 8.4125H20.0367C20.2695 8.4125 20.4594 8.60312 20.4594 8.83516V13.9789C20.4594 14.2117 20.2688 14.4016 20.0367 14.4016H18.7922C18.5594 14.4016 18.3695 14.2109 18.3695 13.9789V8.83516ZM28.5734 25.5477H35.9719V16.4031H30.3C28.5648 18.0258 26.2344 19.0203 23.6719 19.0203V25.5477H26.2352V28.4188L28.5734 25.5477ZM33.093 20.0195C33.6211 20.0195 34.0484 20.4477 34.0484 20.975C34.0484 21.5023 33.6203 21.9305 33.093 21.9305C32.5656 21.9305 32.1375 21.5023 32.1375 20.975C32.1375 20.4477 32.5656 20.0195 33.093 20.0195ZM29.8227 20.0195C30.3508 20.0195 30.7781 20.4477 30.7781 20.975C30.7781 21.5023 30.35 21.9305 29.8227 21.9305C29.2953 21.9305 28.8672 21.5023 28.8672 20.975C28.8672 20.4477 29.2953 20.0195 29.8227 20.0195ZM25.5961 20.975C25.5961 20.4469 26.0242 20.0195 26.5516 20.0195C27.0789 20.0195 27.507 20.4477 27.507 20.975C27.507 21.5023 27.0789 21.9305 26.5516 21.9305C26.0242 21.9305 25.5961 21.5023 25.5961 20.975ZM39.1398 29.382C38.0758 30.8328 34.5773 32.8328 32.9195 33.7367C24.4875 38.3336 20.0563 40.7078 9.19844 37.9914C8.74063 37.8773 8.12109 37.7555 7.17266 37.6656V27.9844C11.3109 26.8766 12.8219 27.5766 15.1625 28.032C17.4477 28.4766 20.0242 28.532 22.3445 28.5539C24.15 28.5711 24.9672 29.2641 25.0422 30.2812C25.0828 30.8328 24.9305 31.2898 24.6344 31.668C24.3898 31.957 24.0266 32.1922 23.5859 32.382C22.675 32.775 21.4625 32.9742 20.2438 33.0641C18.5727 33.1875 16.8969 33.1039 15.9344 33.0305C15.6281 33.0078 15.3609 33.2375 15.3383 33.5437C15.3156 33.85 15.5453 34.1172 15.8516 34.1398C16.8469 34.2164 18.5813 34.3023 20.3219 34.1734C21.6508 34.075 22.9875 33.8516 24.025 33.4039C25.1391 32.9234 25.9242 32.1898 26.0648 31.093L35.0602 27.4805C37.0734 26.6758 39.1953 27.2078 39.1391 29.3828L39.1398 29.382ZM5.92266 27.5844V37.9281C5.92266 38.4453 5.49922 38.8687 4.98203 38.8687H1.8C1.28281 38.8687 0.859375 38.4453 0.859375 37.9281V27.5844C0.859375 27.0672 1.28281 26.6438 1.8 26.6438H4.98281C5.5 26.6438 5.92344 27.0672 5.92344 27.5844H5.92266Z" fill="#FB9100"/>
</g>
<defs>
<clipPath id="clip0_3590_72">
<rect width="40" height="40" fill="white"/>
</clipPath>
</defs>
</svg>
