<svg width="40" height="40" viewBox="0 0 40 40" fill="none" xmlns="http://www.w3.org/2000/svg">
<path d="M30.6164 38.1156C29.5865 37.6567 28.6779 36.9638 27.9629 36.092C27.2479 35.2202 26.7462 34.1935 26.4977 33.0938C26.4744 32.9938 26.4196 32.904 26.3414 32.8375C25.5702 32.1704 24.9236 31.3715 24.432 30.4781C24.2379 30.1356 24.1449 29.7451 24.1638 29.3519C24.1827 28.9587 24.3127 28.5788 24.5388 28.2566C24.7649 27.9343 25.0778 27.6827 25.4411 27.5311C25.8044 27.3795 26.2033 27.334 26.5914 27.4C26.8428 27.4456 27.0988 27.4614 27.3539 27.4469C27.4227 27.4428 27.4897 27.4236 27.5502 27.3906C27.6107 27.3577 27.6632 27.3118 27.7039 27.2563C28.6912 25.9057 30.1287 24.9525 31.757 24.5688C31.8587 24.5443 31.9492 24.4863 32.0138 24.404C32.0785 24.3218 32.1135 24.2202 32.1133 24.1156V20.6969C32.1132 20.5838 32.0724 20.4745 31.9984 20.389C31.9244 20.3035 31.8221 20.2475 31.7102 20.2313C31.4383 20.1906 31.1977 20.1469 30.9758 20.0938C30.0472 19.8693 29.1665 19.4798 28.3758 18.9438C28.2897 18.8821 28.1844 18.8533 28.0789 18.8625C26.9317 18.9287 25.7819 18.7869 24.6852 18.4438C22.9605 17.9978 22.5767 15.5206 24.0852 14.5719C24.3749 14.3759 24.6375 14.1426 24.8664 13.8781C24.9112 13.8276 24.9442 13.7677 24.9631 13.7029C24.982 13.6381 24.9864 13.5698 24.9758 13.5031C24.7641 12.0209 24.9742 10.509 25.582 9.14063C26.1225 7.91014 26.9687 6.83835 28.0402 6.02719C29.1117 5.21602 30.3729 4.69245 31.7039 4.50625C31.8193 4.4893 31.9242 4.42996 31.9981 4.33982C32.0721 4.24968 32.1098 4.1352 32.1039 4.01875C32.0549 2.9357 31.5898 1.91333 30.8057 1.16467C30.0215 0.416013 28.9787 -0.00118672 27.8945 2.53557e-06H11.957C10.8387 0.00165572 9.76656 0.446661 8.97575 1.23747C8.18494 2.02828 7.73993 3.10038 7.73828 4.21875V11.1875C7.73897 11.253 7.75328 11.3177 7.7803 11.3775C7.80732 11.4372 7.84646 11.4906 7.89524 11.5344C7.94402 11.5782 8.00138 11.6114 8.06366 11.6318C8.12594 11.6522 8.19179 11.6595 8.25703 11.6531C8.61517 11.6151 8.97501 11.5953 9.33516 11.5938C11.3113 11.5956 13.2452 12.1661 14.906 13.2373C16.5667 14.3084 17.8841 15.8349 18.7008 17.6344C18.7276 17.6946 18.7667 17.7486 18.8157 17.7927C18.8647 17.8369 18.9224 17.8702 18.9852 17.8906C19.5874 18.0881 20.217 18.1893 20.8508 18.1906C21.3117 18.1928 21.7626 18.3252 22.1515 18.5725C22.5404 18.8199 22.8514 19.1722 23.0487 19.5887C23.246 20.0052 23.3216 20.469 23.2667 20.9266C23.2117 21.3842 23.0286 21.817 22.7383 22.175C21.7636 23.4123 20.5566 24.4473 19.1852 25.2219C19.0849 25.2743 19.008 25.3624 18.9695 25.4688C18.2368 27.4358 16.9192 29.1312 15.1939 30.3268C13.4687 31.5224 11.4186 32.1608 9.31953 32.1563C8.96453 32.1534 8.60991 32.1326 8.25703 32.0938C8.19181 32.0875 8.126 32.0948 8.06376 32.1153C8.00152 32.1358 7.9442 32.1689 7.89544 32.2127C7.84668 32.2565 7.80754 32.3099 7.78048 32.3695C7.75343 32.4292 7.73906 32.4939 7.73828 32.5594V35.7813C7.73993 36.8996 8.18494 37.9717 8.97575 38.7625C9.76656 39.5533 10.8387 39.9984 11.957 40H27.8945C28.9496 40.0002 29.966 39.603 30.7414 38.8875C30.7983 38.835 30.8414 38.7692 30.8667 38.696C30.892 38.6228 30.8987 38.5444 30.8864 38.468C30.874 38.3915 30.8428 38.3193 30.7957 38.2578C30.7486 38.1963 30.687 38.1475 30.6164 38.1156ZM16.9883 3.4375C16.6296 3.42629 16.2807 3.31809 15.9786 3.1244C15.6765 2.93071 15.4325 2.65877 15.2727 2.3375L14.5227 0.937503H25.332L24.5789 2.3375C24.419 2.65877 24.1751 2.93071 23.873 3.1244C23.5709 3.31809 23.222 3.42629 22.8633 3.4375H16.9883ZM23.207 35.9375H16.6445C16.5202 35.9375 16.401 35.8881 16.3131 35.8002C16.2252 35.7123 16.1758 35.5931 16.1758 35.4688C16.1758 35.3444 16.2252 35.2252 16.3131 35.1373C16.401 35.0494 16.5202 35 16.6445 35H23.207C23.3314 35 23.4506 35.0494 23.5385 35.1373C23.6264 35.2252 23.6758 35.3444 23.6758 35.4688C23.6758 35.5931 23.6264 35.7123 23.5385 35.8002C23.4506 35.8881 23.3314 35.9375 23.207 35.9375Z" fill="#FB9100"/>
<path d="M32.8887 32.1875H34.1268L34.4618 30.9375H33.2237L32.8887 32.1875Z" fill="#FB9100"/>
<path d="M31.1177 25.7501C29.8945 26.2415 28.8621 27.1137 28.1733 28.2376C28.1629 28.2539 28.1492 28.268 28.133 28.2787C28.1169 28.2895 28.0987 28.2968 28.0795 28.3001C27.5345 28.4106 26.9737 28.4192 26.4255 28.3254C26.2129 28.2893 25.9945 28.3142 25.7956 28.3973C25.5967 28.4804 25.4255 28.6183 25.3018 28.7949C25.1781 28.9714 25.1071 29.1795 25.097 29.3948C25.0868 29.6101 25.138 29.8239 25.2445 30.0113C25.7447 30.9371 26.4373 31.7451 27.2758 32.381C27.2904 32.3911 27.3028 32.404 27.3123 32.419C27.3219 32.434 27.3284 32.4507 27.3314 32.4682C27.7711 35.4819 30.608 37.8666 33.5692 37.8341C34.7029 37.8212 35.8118 37.5 36.7767 36.9047C37.7417 36.3095 38.5265 35.4629 39.0468 34.4555C39.5671 33.4482 39.8034 32.3182 39.7303 31.1868C39.6571 30.0553 39.2774 28.9652 38.6317 28.0332C37.8213 26.8598 36.6374 25.9955 35.273 25.5809C33.9085 25.1663 32.4439 25.2259 31.1177 25.7501ZM36.3308 30.9376H35.4317L35.097 32.1876H36.0183C36.1426 32.1876 36.2618 32.2369 36.3497 32.3249C36.4377 32.4128 36.487 32.532 36.487 32.6563C36.487 32.7806 36.4377 32.8999 36.3497 32.9878C36.2618 33.0757 36.1426 33.1251 36.0183 33.1251H34.8458L34.5461 34.2429C34.5302 34.3024 34.5027 34.3582 34.4651 34.407C34.4276 34.4559 34.3809 34.4969 34.3275 34.5277C34.2742 34.5585 34.2153 34.5785 34.1542 34.5866C34.0931 34.5946 34.0311 34.5905 33.9716 34.5746C33.9121 34.5586 33.8563 34.5311 33.8074 34.4936C33.7585 34.4561 33.7175 34.4094 33.6867 34.356C33.6559 34.3027 33.6359 34.2438 33.6279 34.1827C33.6198 34.1216 33.6239 34.0596 33.6399 34.0001L33.8742 33.1251H32.6361L32.333 34.2566C32.317 34.3161 32.2895 34.3719 32.252 34.4208C32.2145 34.4697 32.1678 34.5107 32.1144 34.5415C32.0611 34.5723 32.0022 34.5923 31.9411 34.6003C31.88 34.6083 31.818 34.6043 31.7584 34.5883C31.6989 34.5724 31.6432 34.5449 31.5943 34.5074C31.5454 34.4699 31.5044 34.4231 31.4736 34.3698C31.4428 34.3164 31.4228 34.2575 31.4148 34.1965C31.4067 34.1354 31.4108 34.0733 31.4267 34.0138L31.6649 33.1251H31.0183C30.894 33.1251 30.7747 33.0757 30.6868 32.9878C30.5989 32.8999 30.5495 32.7806 30.5495 32.6563C30.5495 32.532 30.5989 32.4128 30.6868 32.3249C30.7747 32.2369 30.894 32.1876 31.0183 32.1876H31.9174L32.252 30.9376H31.3308C31.2065 30.9376 31.0872 30.8882 30.9993 30.8003C30.9114 30.7124 30.862 30.5931 30.862 30.4688C30.862 30.3445 30.9114 30.2253 30.9993 30.1374C31.0872 30.0494 31.2065 30.0001 31.3308 30.0001H32.5033L32.803 28.8822C32.8352 28.7621 32.9138 28.6596 33.0215 28.5974C33.1293 28.5352 33.2573 28.5183 33.3775 28.5505C33.4977 28.5827 33.6001 28.6613 33.6624 28.7691C33.7246 28.8768 33.7414 29.0049 33.7092 29.1251L33.4749 30.0001H34.713L35.0161 28.8685C35.032 28.809 35.0596 28.7532 35.0971 28.7043C35.1346 28.6555 35.1813 28.6145 35.2347 28.5836C35.288 28.5528 35.3469 28.5329 35.408 28.5248C35.4691 28.5168 35.5311 28.5208 35.5906 28.5368C35.6501 28.5527 35.7059 28.5802 35.7548 28.6177C35.8037 28.6552 35.8447 28.702 35.8755 28.7553C35.9063 28.8087 35.9263 28.8676 35.9343 28.9287C35.9424 28.9897 35.9383 29.0518 35.9224 29.1113L35.683 30.0001H36.3308C36.4551 30.0001 36.5743 30.0494 36.6622 30.1374C36.7502 30.2253 36.7995 30.3445 36.7995 30.4688C36.7995 30.5931 36.7502 30.7124 36.6622 30.8003C36.5743 30.8882 36.4551 30.9376 36.3308 30.9376Z" fill="#FB9100"/>
<path d="M26.4413 9.51937C25.8368 10.8725 25.6781 12.3827 25.9882 13.8319C25.9945 13.8627 25.9944 13.8946 25.9878 13.9254C25.9813 13.9562 25.9684 13.9853 25.9501 14.0109C25.5913 14.5359 25.1382 14.9898 24.6138 15.3494C24.4229 15.4809 24.2729 15.6636 24.1811 15.8765C24.0892 16.0893 24.0592 16.3238 24.0944 16.5529C24.1297 16.7821 24.2288 16.9967 24.3804 17.1721C24.532 17.3475 24.73 17.4766 24.9516 17.5447C26.0683 17.9064 27.25 18.0221 28.4157 17.8841C28.4422 17.8802 28.4692 17.8815 28.4951 17.8881C28.5211 17.8946 28.5455 17.9062 28.5669 17.9222C29.8005 18.8618 31.3066 19.374 32.8572 19.3816C37.9938 19.405 41.4457 13.7847 39.0719 9.17281C36.4054 3.99406 28.8047 4.16937 26.4413 9.51937ZM33.3241 15.5119C33.1933 15.5861 33.0455 15.6251 32.8951 15.6251C32.7447 15.6251 32.5968 15.5861 32.466 15.5119C30.6326 14.4697 29.591 13.1756 29.6354 11.5353C29.6343 11.2938 29.6807 11.0544 29.7722 10.8308C29.8636 10.6072 29.9981 10.4038 30.1681 10.2322C30.3382 10.0606 30.5403 9.9242 30.7631 9.83074C30.9858 9.73728 31.2248 9.6886 31.4663 9.6875C31.7414 9.68737 32.0128 9.74965 32.2603 9.86966C32.5078 9.98966 32.7248 10.1643 32.8951 10.3803C33.0653 10.1643 33.2823 9.98966 33.5298 9.86966C33.7773 9.74965 34.0488 9.68737 34.3238 9.6875C34.5654 9.6886 34.8043 9.73728 35.0271 9.83074C35.2498 9.9242 35.452 10.0606 35.622 10.2322C35.792 10.4038 35.9266 10.6072 36.018 10.8308C36.1094 11.0544 36.1559 11.2938 36.1547 11.5353C36.2007 13.1756 35.1576 14.4687 33.3241 15.5119Z" fill="#FB9100"/>
<path d="M18.2067 24.81C18.2257 24.7544 18.2556 24.7032 18.2945 24.6593C18.3335 24.6154 18.3807 24.5796 18.4336 24.554C19.8275 23.8321 21.0487 22.8171 22.0133 21.5787C22.1907 21.3581 22.3024 21.092 22.3355 20.8108C22.3686 20.5297 22.3219 20.2449 22.2006 19.9891C22.0792 19.7333 21.8883 19.5169 21.6496 19.3647C21.4109 19.2124 21.1342 19.1306 20.8511 19.1284C19.9671 19.1238 19.0916 18.9551 18.2692 18.6309C18.2076 18.6077 18.1514 18.5721 18.1041 18.5264C18.0567 18.4807 18.0192 18.4257 17.9939 18.365C17.2519 16.5328 15.9469 14.9838 14.2673 13.9415C7.6614 9.8009 -0.810478 15.2972 0.0623345 23.0062C0.578272 27.5625 4.79327 31.3262 9.33796 31.2312C13.1723 31.315 17.0414 28.5722 18.2067 24.81ZM7.11296 25.8503C6.97078 25.9336 6.80898 25.9775 6.64421 25.9775H5.39421C5.14557 25.9775 4.90711 25.8787 4.7313 25.7029C4.55548 25.5271 4.45671 25.2886 4.45671 25.04V20.3525C4.45671 20.1038 4.55548 19.8654 4.7313 19.6896C4.90711 19.5137 5.14557 19.415 5.39421 19.415H6.64421C6.80874 19.4147 6.97043 19.4578 7.11296 19.54V25.8503ZM8.05046 25.4303V19.8159C8.96859 18.964 9.55921 17.2297 9.95265 16.4122C10.6451 14.9722 12.0401 16.9037 11.6992 17.9434C11.5814 18.3034 11.3317 19.4122 11.3317 19.4122C12.0776 19.4122 12.793 19.7085 13.3204 20.2359C13.8479 20.7634 14.1442 21.4787 14.1442 22.2247V23.1622C14.1442 23.9081 13.8479 24.6234 13.3204 25.1509C12.793 25.6783 12.0776 25.9747 11.3317 25.9747H9.58671C9.29564 25.9746 9.00858 25.9068 8.74827 25.7765L8.05046 25.4303Z" fill="#FB9100"/>
</svg>
