<svg width="40" height="40" viewBox="0 0 40 40" fill="none" xmlns="http://www.w3.org/2000/svg">
<path d="M8.29224 7.23767C8.87756 7.23767 9.35205 6.70237 9.35205 6.04205C9.35205 5.38173 8.87756 4.84644 8.29224 4.84644C7.70692 4.84644 7.23242 5.38173 7.23242 6.04205C7.23242 6.70237 7.70692 7.23767 8.29224 7.23767Z" fill="#FB9100"/>
<path d="M12.0247 7.23767C12.61 7.23767 13.0845 6.70237 13.0845 6.04205C13.0845 5.38173 12.61 4.84644 12.0247 4.84644C11.4393 4.84644 10.9648 5.38173 10.9648 6.04205C10.9648 6.70237 11.4393 7.23767 12.0247 7.23767Z" fill="#FB9100"/>
<path d="M15.7571 7.23767C16.3424 7.23767 16.8169 6.70237 16.8169 6.04205C16.8169 5.38173 16.3424 4.84644 15.7571 4.84644C15.1718 4.84644 14.6973 5.38173 14.6973 6.04205C14.6973 6.70237 15.1718 7.23767 15.7571 7.23767Z" fill="#FB9100"/>
<path d="M25.7675 26.6712L29.364 39.084C29.7123 40.2862 31.3248 40.3121 31.7074 39.12L33.3912 33.8739C33.5146 33.4909 33.7998 33.1915 34.1645 33.0619L39.161 31.294C40.295 30.8923 40.2717 29.1992 39.1267 28.8336L27.3045 25.0573C26.3625 24.7578 25.4823 25.6821 25.7675 26.6712Z" fill="#FB9100"/>
<path d="M24.1236 27.7515C23.8324 26.6247 24.0066 25.4348 24.5996 24.4906C25.1873 23.5556 26.121 22.9968 27.1002 22.9968C27.4084 22.9968 27.7153 23.0505 28.0143 23.158L38.0948 26.7766V5.7112C38.0948 2.5639 35.9232 0 33.2574 0H6.74166C4.07591 0 1.9043 2.5639 1.9043 5.7112V31.2734C1.9043 34.4361 4.07591 37 6.75466 37H26.5046L24.1236 27.7515ZM4.24495 9.73361V5.71274C4.24495 4.08689 5.36457 2.76502 6.74166 2.76502H33.2561C34.6332 2.76502 35.7528 4.08689 35.7528 5.71274V9.73361H4.24495Z" fill="#FB9100"/>
</svg>
