<svg width="240" height="163" viewBox="0 0 240 163" fill="none" xmlns="http://www.w3.org/2000/svg">
<g filter="url(#filter0_d_4008_2708)">
<rect x="10" y="6" width="220" height="143" rx="10" fill="white"/>
<path d="M29.515 32L24.925 21.5H27.04L31.135 30.995H29.92L34.06 21.5H36.01L31.435 32H29.515ZM39.9374 32.105C39.1174 32.105 38.3874 31.93 37.7474 31.58C37.1074 31.22 36.6024 30.73 36.2324 30.11C35.8624 29.49 35.6774 28.785 35.6774 27.995C35.6774 27.195 35.8624 26.49 36.2324 25.88C36.6024 25.26 37.1074 24.775 37.7474 24.425C38.3874 24.075 39.1174 23.9 39.9374 23.9C40.7674 23.9 41.5024 24.075 42.1424 24.425C42.7924 24.775 43.2974 25.255 43.6574 25.865C44.0274 26.475 44.2124 27.185 44.2124 27.995C44.2124 28.785 44.0274 29.49 43.6574 30.11C43.2974 30.73 42.7924 31.22 42.1424 31.58C41.5024 31.93 40.7674 32.105 39.9374 32.105ZM39.9374 30.5C40.3974 30.5 40.8074 30.4 41.1674 30.2C41.5274 30 41.8074 29.71 42.0074 29.33C42.2174 28.95 42.3224 28.505 42.3224 27.995C42.3224 27.475 42.2174 27.03 42.0074 26.66C41.8074 26.28 41.5274 25.99 41.1674 25.79C40.8074 25.59 40.4024 25.49 39.9524 25.49C39.4924 25.49 39.0824 25.59 38.7224 25.79C38.3724 25.99 38.0924 26.28 37.8824 26.66C37.6724 27.03 37.5674 27.475 37.5674 27.995C37.5674 28.505 37.6724 28.95 37.8824 29.33C38.0924 29.71 38.3724 30 38.7224 30.2C39.0824 30.4 39.4874 30.5 39.9374 30.5ZM46.0054 32V20.87H47.8804V32H46.0054ZM53.7313 32.105C53.0513 32.105 52.4513 31.98 51.9313 31.73C51.4113 31.47 51.0063 31.08 50.7163 30.56C50.4263 30.03 50.2813 29.365 50.2813 28.565V23.99H52.1563V28.31C52.1563 29.03 52.3163 29.57 52.6363 29.93C52.9663 30.28 53.4313 30.455 54.0313 30.455C54.4713 30.455 54.8513 30.365 55.1713 30.185C55.5013 30.005 55.7563 29.735 55.9363 29.375C56.1263 29.015 56.2213 28.57 56.2213 28.04V23.99H58.0963V32H56.3113V29.84L56.6263 30.5C56.3563 31.02 55.9613 31.42 55.4413 31.7C54.9213 31.97 54.3513 32.105 53.7313 32.105ZM70.6613 23.9C71.3013 23.9 71.8663 24.025 72.3563 24.275C72.8563 24.525 73.2463 24.91 73.5263 25.43C73.8063 25.94 73.9463 26.6 73.9463 27.41V32H72.0713V27.65C72.0713 26.94 71.9163 26.41 71.6063 26.06C71.2963 25.71 70.8513 25.535 70.2713 25.535C69.8613 25.535 69.4963 25.625 69.1763 25.805C68.8663 25.985 68.6213 26.25 68.4413 26.6C68.2713 26.95 68.1863 27.395 68.1863 27.935V32H66.3113V27.65C66.3113 26.94 66.1563 26.41 65.8463 26.06C65.5363 25.71 65.0913 25.535 64.5113 25.535C64.1013 25.535 63.7363 25.625 63.4163 25.805C63.1063 25.985 62.8613 26.25 62.6813 26.6C62.5113 26.95 62.4263 27.395 62.4263 27.935V32H60.5513V23.99H62.3363V26.12L62.0213 25.49C62.2913 24.97 62.6813 24.575 63.1913 24.305C63.7113 24.035 64.3013 23.9 64.9613 23.9C65.7113 23.9 66.3613 24.085 66.9113 24.455C67.4713 24.825 67.8413 25.385 68.0213 26.135L67.2863 25.88C67.5463 25.28 67.9763 24.8 68.5763 24.44C69.1763 24.08 69.8713 23.9 70.6613 23.9ZM80.122 32.105C79.232 32.105 78.452 31.93 77.782 31.58C77.122 31.22 76.607 30.73 76.237 30.11C75.877 29.49 75.697 28.785 75.697 27.995C75.697 27.195 75.872 26.49 76.222 25.88C76.582 25.26 77.072 24.775 77.692 24.425C78.322 24.075 79.037 23.9 79.837 23.9C80.617 23.9 81.312 24.07 81.922 24.41C82.532 24.75 83.012 25.23 83.362 25.85C83.712 26.47 83.887 27.2 83.887 28.04C83.887 28.12 83.882 28.21 83.872 28.31C83.872 28.41 83.867 28.505 83.857 28.595H77.182V27.35H82.867L82.132 27.74C82.142 27.28 82.047 26.875 81.847 26.525C81.647 26.175 81.372 25.9 81.022 25.7C80.682 25.5 80.287 25.4 79.837 25.4C79.377 25.4 78.972 25.5 78.622 25.7C78.282 25.9 78.012 26.18 77.812 26.54C77.622 26.89 77.527 27.305 77.527 27.785V28.085C77.527 28.565 77.637 28.99 77.857 29.36C78.077 29.73 78.387 30.015 78.787 30.215C79.187 30.415 79.647 30.515 80.167 30.515C80.617 30.515 81.022 30.445 81.382 30.305C81.742 30.165 82.062 29.945 82.342 29.645L83.347 30.8C82.987 31.22 82.532 31.545 81.982 31.775C81.442 31.995 80.822 32.105 80.122 32.105Z" fill="black"/>
<path d="M72.44 82L84 56.08L85.36 58.4H69.48L71.96 55.88V63.16H67.12V54H88.88V57.48L78 82H72.44ZM90.3038 88.04L92.6238 79.2L93.3038 82.16C92.3704 82.16 91.5838 81.88 90.9438 81.32C90.3304 80.7333 90.0238 79.9467 90.0238 78.96C90.0238 77.9467 90.3304 77.1467 90.9438 76.56C91.5838 75.9467 92.3571 75.64 93.2638 75.64C94.1971 75.64 94.9704 75.9467 95.5838 76.56C96.1971 77.1733 96.5038 77.9733 96.5038 78.96C96.5038 79.2267 96.4771 79.52 96.4238 79.84C96.3704 80.1333 96.2771 80.48 96.1438 80.88C96.0371 81.28 95.8504 81.7867 95.5838 82.4L93.5438 88.04H90.3038ZM111.5 82.4C109.18 82.4 107.167 82.0533 105.46 81.36C103.753 80.6667 102.433 79.6933 101.5 78.44C100.567 77.16 100.1 75.6667 100.1 73.96C100.1 72.2533 100.553 70.8133 101.46 69.64C102.367 68.4667 103.673 67.5733 105.38 66.96C107.087 66.3467 109.127 66.04 111.5 66.04C113.873 66.04 115.913 66.3467 117.62 66.96C119.353 67.5733 120.673 68.48 121.58 69.68C122.513 70.8533 122.98 72.28 122.98 73.96C122.98 75.6667 122.5 77.16 121.54 78.44C120.607 79.6933 119.273 80.6667 117.54 81.36C115.833 82.0533 113.82 82.4 111.5 82.4ZM111.5 78.32C113.42 78.32 114.94 77.92 116.06 77.12C117.18 76.32 117.74 75.2133 117.74 73.8C117.74 72.4133 117.18 71.32 116.06 70.52C114.94 69.72 113.42 69.32 111.5 69.32C109.58 69.32 108.073 69.72 106.98 70.52C105.887 71.32 105.34 72.4133 105.34 73.8C105.34 75.2133 105.887 76.32 106.98 77.12C108.073 77.92 109.58 78.32 111.5 78.32ZM111.5 68.76C109.34 68.76 107.487 68.48 105.94 67.92C104.393 67.3333 103.193 66.4933 102.34 65.4C101.513 64.28 101.1 62.9467 101.1 61.4C101.1 59.8 101.527 58.4267 102.38 57.28C103.26 56.1067 104.487 55.2 106.06 54.56C107.633 53.92 109.447 53.6 111.5 53.6C113.58 53.6 115.407 53.92 116.98 54.56C118.553 55.2 119.78 56.1067 120.66 57.28C121.54 58.4267 121.98 59.8 121.98 61.4C121.98 62.9467 121.553 64.28 120.7 65.4C119.873 66.4933 118.673 67.3333 117.1 67.92C115.527 68.48 113.66 68.76 111.5 68.76ZM111.5 65.56C113.153 65.56 114.46 65.2133 115.42 64.52C116.38 63.8 116.86 62.84 116.86 61.64C116.86 60.3867 116.367 59.4133 115.38 58.72C114.393 58.0267 113.1 57.68 111.5 57.68C109.9 57.68 108.62 58.0267 107.66 58.72C106.7 59.4133 106.22 60.3867 106.22 61.64C106.22 62.84 106.687 63.8 107.62 64.52C108.58 65.2133 109.873 65.56 111.5 65.56ZM125.994 82V78.52L137.114 67.96C138.047 67.08 138.74 66.3067 139.194 65.64C139.647 64.9733 139.94 64.36 140.074 63.8C140.234 63.2133 140.314 62.6667 140.314 62.16C140.314 60.88 139.874 59.8933 138.994 59.2C138.114 58.48 136.82 58.12 135.114 58.12C133.754 58.12 132.514 58.36 131.394 58.84C130.3 59.32 129.354 60.0533 128.554 61.04L124.914 58.24C126.007 56.7733 127.474 55.64 129.314 54.84C131.18 54.0133 133.26 53.6 135.554 53.6C137.58 53.6 139.34 53.9333 140.834 54.6C142.354 55.24 143.514 56.16 144.314 57.36C145.14 58.56 145.554 59.9867 145.554 61.64C145.554 62.5467 145.434 63.4533 145.194 64.36C144.954 65.24 144.5 66.1733 143.834 67.16C143.167 68.1467 142.194 69.2533 140.914 70.48L131.354 79.56L130.274 77.6H146.634V82H125.994ZM161.315 82.4C159.102 82.4 157.102 81.84 155.315 80.72C153.555 79.6 152.168 77.9733 151.155 75.84C150.142 73.68 149.635 71.0667 149.635 68C149.635 64.9333 150.142 62.3333 151.155 60.2C152.168 58.04 153.555 56.4 155.315 55.28C157.102 54.16 159.102 53.6 161.315 53.6C163.555 53.6 165.555 54.16 167.315 55.28C169.075 56.4 170.462 58.04 171.475 60.2C172.515 62.3333 173.035 64.9333 173.035 68C173.035 71.0667 172.515 73.68 171.475 75.84C170.462 77.9733 169.075 79.6 167.315 80.72C165.555 81.84 163.555 82.4 161.315 82.4ZM161.315 77.88C162.622 77.88 163.755 77.5333 164.715 76.84C165.675 76.12 166.422 75.0267 166.955 73.56C167.515 72.0933 167.795 70.24 167.795 68C167.795 65.7333 167.515 63.88 166.955 62.44C166.422 60.9733 165.675 59.8933 164.715 59.2C163.755 58.48 162.622 58.12 161.315 58.12C160.062 58.12 158.942 58.48 157.955 59.2C156.995 59.8933 156.235 60.9733 155.675 62.44C155.142 63.88 154.875 65.7333 154.875 68C154.875 70.24 155.142 72.0933 155.675 73.56C156.235 75.0267 156.995 76.12 157.955 76.84C158.942 77.5333 160.062 77.88 161.315 77.88Z" fill="black"/>
<path d="M33 117.941C34.5453 122.191 40.5331 128.719 52.1225 120.838C63.7119 112.958 75.1082 115.623 79.3576 117.941C80.7097 111.567 86.3113 102.295 97.9007 116.203C112.387 133.587 117.023 124.315 121.659 117.941C126.295 111.567 132.089 126.633 137.884 132.428C143.679 138.222 159.325 99.398 170.334 108.67C179.142 116.087 199.115 111.76 208 108.67" stroke="#8DB8FF" stroke-width="3" stroke-linecap="round"/>
</g>
<defs>
<filter id="filter0_d_4008_2708" x="0" y="0" width="240" height="163" filterUnits="userSpaceOnUse" color-interpolation-filters="sRGB">
<feFlood flood-opacity="0" result="BackgroundImageFix"/>
<feColorMatrix in="SourceAlpha" type="matrix" values="0 0 0 0 0 0 0 0 0 0 0 0 0 0 0 0 0 0 127 0" result="hardAlpha"/>
<feOffset dy="4"/>
<feGaussianBlur stdDeviation="5"/>
<feComposite in2="hardAlpha" operator="out"/>
<feColorMatrix type="matrix" values="0 0 0 0 0 0 0 0 0 0 0 0 0 0 0 0 0 0 0.1 0"/>
<feBlend mode="normal" in2="BackgroundImageFix" result="effect1_dropShadow_4008_2708"/>
<feBlend mode="normal" in="SourceGraphic" in2="effect1_dropShadow_4008_2708" result="shape"/>
</filter>
</defs>
</svg>
