<svg width="240" height="163" viewBox="0 0 240 163" fill="none" xmlns="http://www.w3.org/2000/svg">
<g filter="url(#filter0_d_4008_2707)">
<rect x="10" y="6" width="220" height="143" rx="10" fill="white"/>
<path d="M26.41 32V21.5H30.73C31.66 21.5 32.455 21.65 33.115 21.95C33.785 22.25 34.3 22.68 34.66 23.24C35.02 23.8 35.2 24.465 35.2 25.235C35.2 26.005 35.02 26.67 34.66 27.23C34.3 27.78 33.785 28.205 33.115 28.505C32.455 28.795 31.66 28.94 30.73 28.94H27.49L28.36 28.055V32H26.41ZM33.28 32L30.625 28.19H32.71L35.38 32H33.28ZM28.36 28.265L27.49 27.335H30.64C31.5 27.335 32.145 27.15 32.575 26.78C33.015 26.41 33.235 25.895 33.235 25.235C33.235 24.565 33.015 24.05 32.575 23.69C32.145 23.33 31.5 23.15 30.64 23.15H27.49L28.36 22.19V28.265ZM40.9667 32.105C40.0767 32.105 39.2967 31.93 38.6267 31.58C37.9667 31.22 37.4517 30.73 37.0817 30.11C36.7217 29.49 36.5417 28.785 36.5417 27.995C36.5417 27.195 36.7167 26.49 37.0667 25.88C37.4267 25.26 37.9167 24.775 38.5367 24.425C39.1667 24.075 39.8817 23.9 40.6817 23.9C41.4617 23.9 42.1567 24.07 42.7667 24.41C43.3767 24.75 43.8567 25.23 44.2067 25.85C44.5567 26.47 44.7317 27.2 44.7317 28.04C44.7317 28.12 44.7267 28.21 44.7167 28.31C44.7167 28.41 44.7117 28.505 44.7017 28.595H38.0267V27.35H43.7117L42.9767 27.74C42.9867 27.28 42.8917 26.875 42.6917 26.525C42.4917 26.175 42.2167 25.9 41.8667 25.7C41.5267 25.5 41.1317 25.4 40.6817 25.4C40.2217 25.4 39.8167 25.5 39.4667 25.7C39.1267 25.9 38.8567 26.18 38.6567 26.54C38.4667 26.89 38.3717 27.305 38.3717 27.785V28.085C38.3717 28.565 38.4817 28.99 38.7017 29.36C38.9217 29.73 39.2317 30.015 39.6317 30.215C40.0317 30.415 40.4917 30.515 41.0117 30.515C41.4617 30.515 41.8667 30.445 42.2267 30.305C42.5867 30.165 42.9067 29.945 43.1867 29.645L44.1917 30.8C43.8317 31.22 43.3767 31.545 42.8267 31.775C42.2867 31.995 41.6667 32.105 40.9667 32.105ZM49.0077 32.105C48.3377 32.105 47.6927 32.02 47.0727 31.85C46.4627 31.67 45.9777 31.455 45.6177 31.205L46.3377 29.78C46.6977 30.01 47.1277 30.2 47.6277 30.35C48.1277 30.5 48.6277 30.575 49.1277 30.575C49.7177 30.575 50.1427 30.495 50.4027 30.335C50.6727 30.175 50.8077 29.96 50.8077 29.69C50.8077 29.47 50.7177 29.305 50.5377 29.195C50.3577 29.075 50.1227 28.985 49.8327 28.925C49.5427 28.865 49.2177 28.81 48.8577 28.76C48.5077 28.71 48.1527 28.645 47.7927 28.565C47.4427 28.475 47.1227 28.35 46.8327 28.19C46.5427 28.02 46.3077 27.795 46.1277 27.515C45.9477 27.235 45.8577 26.865 45.8577 26.405C45.8577 25.895 46.0027 25.455 46.2927 25.085C46.5827 24.705 46.9877 24.415 47.5077 24.215C48.0377 24.005 48.6627 23.9 49.3827 23.9C49.9227 23.9 50.4677 23.96 51.0177 24.08C51.5677 24.2 52.0227 24.37 52.3827 24.59L51.6627 26.015C51.2827 25.785 50.8977 25.63 50.5077 25.55C50.1277 25.46 49.7477 25.415 49.3677 25.415C48.7977 25.415 48.3727 25.5 48.0927 25.67C47.8227 25.84 47.6877 26.055 47.6877 26.315C47.6877 26.555 47.7777 26.735 47.9577 26.855C48.1377 26.975 48.3727 27.07 48.6627 27.14C48.9527 27.21 49.2727 27.27 49.6227 27.32C49.9827 27.36 50.3377 27.425 50.6877 27.515C51.0377 27.605 51.3577 27.73 51.6477 27.89C51.9477 28.04 52.1877 28.255 52.3677 28.535C52.5477 28.815 52.6377 29.18 52.6377 29.63C52.6377 30.13 52.4877 30.565 52.1877 30.935C51.8977 31.305 51.4827 31.595 50.9427 31.805C50.4027 32.005 49.7577 32.105 49.0077 32.105ZM57.6425 32.105C56.9625 32.105 56.3625 31.98 55.8425 31.73C55.3225 31.47 54.9175 31.08 54.6275 30.56C54.3375 30.03 54.1925 29.365 54.1925 28.565V23.99H56.0675V28.31C56.0675 29.03 56.2275 29.57 56.5475 29.93C56.8775 30.28 57.3425 30.455 57.9425 30.455C58.3825 30.455 58.7625 30.365 59.0825 30.185C59.4125 30.005 59.6675 29.735 59.8475 29.375C60.0375 29.015 60.1325 28.57 60.1325 28.04V23.99H62.0075V32H60.2225V29.84L60.5375 30.5C60.2675 31.02 59.8725 31.42 59.3525 31.7C58.8325 31.97 58.2625 32.105 57.6425 32.105ZM64.4624 32V20.87H66.3374V32H64.4624ZM72.2089 32.105C71.3289 32.105 70.6489 31.88 70.1689 31.43C69.6889 30.97 69.4489 30.295 69.4489 29.405V22.22H71.3239V29.36C71.3239 29.74 71.4189 30.035 71.6089 30.245C71.8089 30.455 72.0839 30.56 72.4339 30.56C72.8539 30.56 73.2039 30.45 73.4839 30.23L74.0089 31.565C73.7889 31.745 73.5189 31.88 73.1989 31.97C72.8789 32.06 72.5489 32.105 72.2089 32.105ZM68.1289 25.55V24.05H73.4689V25.55H68.1289ZM78.0263 32.105C77.3563 32.105 76.7113 32.02 76.0913 31.85C75.4813 31.67 74.9963 31.455 74.6363 31.205L75.3563 29.78C75.7163 30.01 76.1463 30.2 76.6463 30.35C77.1463 30.5 77.6463 30.575 78.1463 30.575C78.7363 30.575 79.1613 30.495 79.4213 30.335C79.6913 30.175 79.8263 29.96 79.8263 29.69C79.8263 29.47 79.7363 29.305 79.5563 29.195C79.3763 29.075 79.1413 28.985 78.8513 28.925C78.5613 28.865 78.2363 28.81 77.8763 28.76C77.5263 28.71 77.1713 28.645 76.8113 28.565C76.4613 28.475 76.1413 28.35 75.8513 28.19C75.5613 28.02 75.3263 27.795 75.1463 27.515C74.9663 27.235 74.8763 26.865 74.8763 26.405C74.8763 25.895 75.0213 25.455 75.3113 25.085C75.6013 24.705 76.0063 24.415 76.5263 24.215C77.0563 24.005 77.6813 23.9 78.4013 23.9C78.9413 23.9 79.4863 23.96 80.0363 24.08C80.5863 24.2 81.0413 24.37 81.4013 24.59L80.6813 26.015C80.3013 25.785 79.9163 25.63 79.5263 25.55C79.1463 25.46 78.7663 25.415 78.3863 25.415C77.8163 25.415 77.3913 25.5 77.1113 25.67C76.8413 25.84 76.7063 26.055 76.7063 26.315C76.7063 26.555 76.7963 26.735 76.9763 26.855C77.1563 26.975 77.3913 27.07 77.6813 27.14C77.9713 27.21 78.2913 27.27 78.6413 27.32C79.0013 27.36 79.3563 27.425 79.7063 27.515C80.0563 27.605 80.3763 27.73 80.6663 27.89C80.9663 28.04 81.2063 28.255 81.3863 28.535C81.5663 28.815 81.6563 29.18 81.6563 29.63C81.6563 30.13 81.5063 30.565 81.2063 30.935C80.9163 31.305 80.5013 31.595 79.9613 31.805C79.4213 32.005 78.7763 32.105 78.0263 32.105Z" fill="black"/>
<path d="M56.24 82V56L58.52 58.36H50.32V54H61.44V82H56.24ZM71.4744 82V56L73.7544 58.36H65.5544V54H76.6744V82H71.4744ZM85.3488 82.28C84.4421 82.28 83.6688 81.9733 83.0288 81.36C82.3888 80.72 82.0688 79.92 82.0688 78.96C82.0688 77.9467 82.3888 77.1467 83.0288 76.56C83.6688 75.9467 84.4421 75.64 85.3488 75.64C86.2554 75.64 87.0288 75.9467 87.6688 76.56C88.3088 77.1467 88.6288 77.9467 88.6288 78.96C88.6288 79.92 88.3088 80.72 87.6688 81.36C87.0288 81.9733 86.2554 82.28 85.3488 82.28ZM103.206 82.4C100.992 82.4 98.9923 81.84 97.2056 80.72C95.4456 79.6 94.059 77.9733 93.0456 75.84C92.0323 73.68 91.5256 71.0667 91.5256 68C91.5256 64.9333 92.0323 62.3333 93.0456 60.2C94.059 58.04 95.4456 56.4 97.2056 55.28C98.9923 54.16 100.992 53.6 103.206 53.6C105.446 53.6 107.446 54.16 109.206 55.28C110.966 56.4 112.352 58.04 113.366 60.2C114.406 62.3333 114.926 64.9333 114.926 68C114.926 71.0667 114.406 73.68 113.366 75.84C112.352 77.9733 110.966 79.6 109.206 80.72C107.446 81.84 105.446 82.4 103.206 82.4ZM103.206 77.88C104.512 77.88 105.646 77.5333 106.606 76.84C107.566 76.12 108.312 75.0267 108.846 73.56C109.406 72.0933 109.686 70.24 109.686 68C109.686 65.7333 109.406 63.88 108.846 62.44C108.312 60.9733 107.566 59.8933 106.606 59.2C105.646 58.48 104.512 58.12 103.206 58.12C101.952 58.12 100.832 58.48 99.8456 59.2C98.8856 59.8933 98.1256 60.9733 97.5656 62.44C97.0323 63.88 96.7656 65.7333 96.7656 68C96.7656 70.24 97.0323 72.0933 97.5656 73.56C98.1256 75.0267 98.8856 76.12 99.8456 76.84C100.832 77.5333 101.952 77.88 103.206 77.88ZM118.041 82V78.52L129.161 67.96C130.094 67.08 130.787 66.3067 131.241 65.64C131.694 64.9733 131.987 64.36 132.121 63.8C132.281 63.2133 132.361 62.6667 132.361 62.16C132.361 60.88 131.921 59.8933 131.041 59.2C130.161 58.48 128.867 58.12 127.161 58.12C125.801 58.12 124.561 58.36 123.441 58.84C122.347 59.32 121.401 60.0533 120.601 61.04L116.961 58.24C118.054 56.7733 119.521 55.64 121.361 54.84C123.227 54.0133 125.307 53.6 127.601 53.6C129.627 53.6 131.387 53.9333 132.881 54.6C134.401 55.24 135.561 56.16 136.361 57.36C137.187 58.56 137.601 59.9867 137.601 61.64C137.601 62.5467 137.481 63.4533 137.241 64.36C137.001 65.24 136.547 66.1733 135.881 67.16C135.214 68.1467 134.241 69.2533 132.961 70.48L123.401 79.56L122.321 77.6H138.681V82H118.041ZM154.737 82V54H159.017L171.257 74.44H169.017L181.057 54H185.337L185.377 82H180.457L180.417 61.72H181.457L171.217 78.8H168.897L158.497 61.72H159.697V82H154.737Z" fill="black"/>
<path d="M40 127.84C41 127.34 66.5 90.8399 76 111.34C83.6 127.74 91.1667 123.173 94 118.84L105 121.34L115 111.34L127.5 107.34C128.167 119.34 131.4 137.24 139 112.84C138.833 110.34 142.1 106.54 156.5 111.34C158.5 107.173 164.1 100.84 170.5 108.84C178.5 118.84 192 117.34 200 108.84" stroke="#8DB8FF" stroke-width="3" stroke-linecap="round"/>
</g>
<defs>
<filter id="filter0_d_4008_2707" x="0" y="0" width="240" height="163" filterUnits="userSpaceOnUse" color-interpolation-filters="sRGB">
<feFlood flood-opacity="0" result="BackgroundImageFix"/>
<feColorMatrix in="SourceAlpha" type="matrix" values="0 0 0 0 0 0 0 0 0 0 0 0 0 0 0 0 0 0 127 0" result="hardAlpha"/>
<feOffset dy="4"/>
<feGaussianBlur stdDeviation="5"/>
<feComposite in2="hardAlpha" operator="out"/>
<feColorMatrix type="matrix" values="0 0 0 0 0 0 0 0 0 0 0 0 0 0 0 0 0 0 0.1 0"/>
<feBlend mode="normal" in2="BackgroundImageFix" result="effect1_dropShadow_4008_2707"/>
<feBlend mode="normal" in="SourceGraphic" in2="effect1_dropShadow_4008_2707" result="shape"/>
</filter>
</defs>
</svg>
