<svg width="588" height="408" viewBox="0 0 588 408" fill="none" xmlns="http://www.w3.org/2000/svg">
<g filter="url(#filter0_d_4008_2710)">
<rect x="10" y="10" width="568" height="388" rx="10" fill="white"/>
</g>
<path d="M41.692 53V40.4H46.876C47.992 40.4 48.946 40.58 49.738 40.94C50.542 41.3 51.16 41.816 51.592 42.488C52.024 43.16 52.24 43.958 52.24 44.882C52.24 45.806 52.024 46.604 51.592 47.276C51.16 47.936 50.542 48.446 49.738 48.806C48.946 49.154 47.992 49.328 46.876 49.328H42.988L44.032 48.266V53H41.692ZM49.936 53L46.75 48.428H49.252L52.456 53H49.936ZM44.032 48.518L42.988 47.402H46.768C47.8 47.402 48.574 47.18 49.09 46.736C49.618 46.292 49.882 45.674 49.882 44.882C49.882 44.078 49.618 43.46 49.09 43.028C48.574 42.596 47.8 42.38 46.768 42.38H42.988L44.032 41.228V48.518ZM60.4761 53V51.056L60.3501 50.642V47.24C60.3501 46.58 60.1521 46.07 59.7561 45.71C59.3601 45.338 58.7601 45.152 57.9561 45.152C57.4161 45.152 56.8821 45.236 56.3541 45.404C55.8381 45.572 55.4001 45.806 55.0401 46.106L54.1581 44.468C54.6741 44.072 55.2861 43.778 55.9941 43.586C56.7141 43.382 57.4581 43.28 58.2261 43.28C59.6181 43.28 60.6921 43.616 61.4481 44.288C62.2161 44.948 62.6001 45.974 62.6001 47.366V53H60.4761ZM57.4521 53.126C56.7321 53.126 56.1021 53.006 55.5621 52.766C55.0221 52.514 54.6021 52.172 54.3021 51.74C54.0141 51.296 53.8701 50.798 53.8701 50.246C53.8701 49.706 53.9961 49.22 54.2481 48.788C54.5121 48.356 54.9381 48.014 55.5261 47.762C56.1141 47.51 56.8941 47.384 57.8661 47.384H60.6561V48.878H58.0281C57.2601 48.878 56.7441 49.004 56.4801 49.256C56.2161 49.496 56.0841 49.796 56.0841 50.156C56.0841 50.564 56.2461 50.888 56.5701 51.128C56.8941 51.368 57.3441 51.488 57.9201 51.488C58.4721 51.488 58.9641 51.362 59.3961 51.11C59.8401 50.858 60.1581 50.486 60.3501 49.994L60.7281 51.344C60.5121 51.908 60.1221 52.346 59.5581 52.658C59.0061 52.97 58.3041 53.126 57.4521 53.126ZM70.9417 43.28C71.7097 43.28 72.3937 43.43 72.9937 43.73C73.6057 44.03 74.0857 44.492 74.4337 45.116C74.7817 45.728 74.9557 46.52 74.9557 47.492V53H72.7057V47.78C72.7057 46.928 72.5017 46.292 72.0937 45.872C71.6977 45.452 71.1397 45.242 70.4197 45.242C69.8917 45.242 69.4237 45.35 69.0157 45.566C68.6077 45.782 68.2897 46.106 68.0617 46.538C67.8457 46.958 67.7377 47.492 67.7377 48.14V53H65.4877V43.388H67.6297V45.98L67.2517 45.188C67.5877 44.576 68.0737 44.108 68.7097 43.784C69.3577 43.448 70.1017 43.28 70.9417 43.28ZM79.646 50.858L79.7 48.032L84.722 43.388H87.422L83.156 47.672L81.968 48.662L79.646 50.858ZM77.81 53V39.644H80.06V53H77.81ZM85.064 53L81.554 48.662L82.976 46.862L87.8 53H85.064ZM89.2533 53V43.388H91.5033V53H89.2533ZM90.3873 41.804C89.9673 41.804 89.6193 41.672 89.3433 41.408C89.0793 41.144 88.9473 40.826 88.9473 40.454C88.9473 40.07 89.0793 39.752 89.3433 39.5C89.6193 39.236 89.9673 39.104 90.3873 39.104C90.8073 39.104 91.1493 39.23 91.4133 39.482C91.6893 39.722 91.8273 40.028 91.8273 40.4C91.8273 40.796 91.6953 41.132 91.4313 41.408C91.1673 41.672 90.8193 41.804 90.3873 41.804ZM99.9105 43.28C100.678 43.28 101.362 43.43 101.962 43.73C102.574 44.03 103.054 44.492 103.402 45.116C103.75 45.728 103.924 46.52 103.924 47.492V53H101.674V47.78C101.674 46.928 101.47 46.292 101.062 45.872C100.666 45.452 100.108 45.242 99.3885 45.242C98.8605 45.242 98.3925 45.35 97.9845 45.566C97.5765 45.782 97.2585 46.106 97.0305 46.538C96.8145 46.958 96.7065 47.492 96.7065 48.14V53H94.4565V43.388H96.5985V45.98L96.2205 45.188C96.5565 44.576 97.0425 44.108 97.6785 43.784C98.3265 43.448 99.0705 43.28 99.9105 43.28ZM111.152 56.618C110.264 56.618 109.394 56.498 108.542 56.258C107.702 56.03 107.012 55.694 106.472 55.25L107.48 53.558C107.9 53.906 108.428 54.182 109.064 54.386C109.712 54.602 110.366 54.71 111.026 54.71C112.082 54.71 112.856 54.464 113.348 53.972C113.84 53.492 114.086 52.766 114.086 51.794V50.084L114.266 47.906L114.194 45.728V43.388H116.336V51.542C116.336 53.282 115.892 54.56 115.004 55.376C114.116 56.204 112.832 56.618 111.152 56.618ZM110.864 52.568C109.952 52.568 109.124 52.376 108.38 51.992C107.648 51.596 107.066 51.05 106.634 50.354C106.214 49.658 106.004 48.842 106.004 47.906C106.004 46.982 106.214 46.172 106.634 45.476C107.066 44.78 107.648 44.24 108.38 43.856C109.124 43.472 109.952 43.28 110.864 43.28C111.68 43.28 112.412 43.442 113.06 43.766C113.708 44.09 114.224 44.594 114.608 45.278C115.004 45.962 115.202 46.838 115.202 47.906C115.202 48.974 115.004 49.856 114.608 50.552C114.224 51.236 113.708 51.746 113.06 52.082C112.412 52.406 111.68 52.568 110.864 52.568ZM111.206 50.66C111.77 50.66 112.274 50.546 112.718 50.318C113.162 50.078 113.504 49.754 113.744 49.346C113.996 48.926 114.122 48.446 114.122 47.906C114.122 47.366 113.996 46.892 113.744 46.484C113.504 46.064 113.162 45.746 112.718 45.53C112.274 45.302 111.77 45.188 111.206 45.188C110.642 45.188 110.132 45.302 109.676 45.53C109.232 45.746 108.884 46.064 108.632 46.484C108.392 46.892 108.272 47.366 108.272 47.906C108.272 48.446 108.392 48.926 108.632 49.346C108.884 49.754 109.232 50.078 109.676 50.318C110.132 50.546 110.642 50.66 111.206 50.66ZM122.703 53L128.373 40.4H130.677L136.365 53H133.917L129.039 41.642H129.975L125.115 53H122.703ZM125.313 50.084L125.943 48.248H132.747L133.377 50.084H125.313ZM139.815 53L135.693 43.388H138.033L141.579 51.866H140.427L144.099 43.388H146.259L142.137 53H139.815ZM151.92 53.126C150.852 53.126 149.916 52.916 149.112 52.496C148.32 52.064 147.702 51.476 147.258 50.732C146.826 49.988 146.61 49.142 146.61 48.194C146.61 47.234 146.82 46.388 147.24 45.656C147.672 44.912 148.26 44.33 149.004 43.91C149.76 43.49 150.618 43.28 151.578 43.28C152.514 43.28 153.348 43.484 154.08 43.892C154.812 44.3 155.388 44.876 155.808 45.62C156.228 46.364 156.438 47.24 156.438 48.248C156.438 48.344 156.432 48.452 156.42 48.572C156.42 48.692 156.414 48.806 156.402 48.914H148.392V47.42H155.214L154.332 47.888C154.344 47.336 154.23 46.85 153.99 46.43C153.75 46.01 153.42 45.68 153 45.44C152.592 45.2 152.118 45.08 151.578 45.08C151.026 45.08 150.54 45.2 150.12 45.44C149.712 45.68 149.388 46.016 149.148 46.448C148.92 46.868 148.806 47.366 148.806 47.942V48.302C148.806 48.878 148.938 49.388 149.202 49.832C149.466 50.276 149.838 50.618 150.318 50.858C150.798 51.098 151.35 51.218 151.974 51.218C152.514 51.218 153 51.134 153.432 50.966C153.864 50.798 154.248 50.534 154.584 50.174L155.79 51.56C155.358 52.064 154.812 52.454 154.152 52.73C153.504 52.994 152.76 53.126 151.92 53.126ZM158.599 53V43.388H160.741V46.034L160.489 45.26C160.777 44.612 161.227 44.12 161.839 43.784C162.463 43.448 163.237 43.28 164.161 43.28V45.422C164.065 45.398 163.975 45.386 163.891 45.386C163.807 45.374 163.723 45.368 163.639 45.368C162.787 45.368 162.109 45.62 161.605 46.124C161.101 46.616 160.849 47.354 160.849 48.338V53H158.599ZM171.306 53V51.056L171.18 50.642V47.24C171.18 46.58 170.982 46.07 170.586 45.71C170.19 45.338 169.59 45.152 168.786 45.152C168.246 45.152 167.712 45.236 167.184 45.404C166.668 45.572 166.23 45.806 165.87 46.106L164.988 44.468C165.504 44.072 166.116 43.778 166.824 43.586C167.544 43.382 168.288 43.28 169.056 43.28C170.448 43.28 171.522 43.616 172.278 44.288C173.046 44.948 173.43 45.974 173.43 47.366V53H171.306ZM168.282 53.126C167.562 53.126 166.932 53.006 166.392 52.766C165.852 52.514 165.432 52.172 165.132 51.74C164.844 51.296 164.7 50.798 164.7 50.246C164.7 49.706 164.826 49.22 165.078 48.788C165.342 48.356 165.768 48.014 166.356 47.762C166.944 47.51 167.724 47.384 168.696 47.384H171.486V48.878H168.858C168.09 48.878 167.574 49.004 167.31 49.256C167.046 49.496 166.914 49.796 166.914 50.156C166.914 50.564 167.076 50.888 167.4 51.128C167.724 51.368 168.174 51.488 168.75 51.488C169.302 51.488 169.794 51.362 170.226 51.11C170.67 50.858 170.988 50.486 171.18 49.994L171.558 51.344C171.342 51.908 170.952 52.346 170.388 52.658C169.836 52.97 169.134 53.126 168.282 53.126ZM180.691 56.618C179.803 56.618 178.933 56.498 178.081 56.258C177.241 56.03 176.551 55.694 176.011 55.25L177.019 53.558C177.439 53.906 177.967 54.182 178.603 54.386C179.251 54.602 179.905 54.71 180.565 54.71C181.621 54.71 182.395 54.464 182.887 53.972C183.379 53.492 183.625 52.766 183.625 51.794V50.084L183.805 47.906L183.733 45.728V43.388H185.875V51.542C185.875 53.282 185.431 54.56 184.543 55.376C183.655 56.204 182.371 56.618 180.691 56.618ZM180.403 52.568C179.491 52.568 178.663 52.376 177.919 51.992C177.187 51.596 176.605 51.05 176.173 50.354C175.753 49.658 175.543 48.842 175.543 47.906C175.543 46.982 175.753 46.172 176.173 45.476C176.605 44.78 177.187 44.24 177.919 43.856C178.663 43.472 179.491 43.28 180.403 43.28C181.219 43.28 181.951 43.442 182.599 43.766C183.247 44.09 183.763 44.594 184.147 45.278C184.543 45.962 184.741 46.838 184.741 47.906C184.741 48.974 184.543 49.856 184.147 50.552C183.763 51.236 183.247 51.746 182.599 52.082C181.951 52.406 181.219 52.568 180.403 52.568ZM180.745 50.66C181.309 50.66 181.813 50.546 182.257 50.318C182.701 50.078 183.043 49.754 183.283 49.346C183.535 48.926 183.661 48.446 183.661 47.906C183.661 47.366 183.535 46.892 183.283 46.484C183.043 46.064 182.701 45.746 182.257 45.53C181.813 45.302 181.309 45.188 180.745 45.188C180.181 45.188 179.671 45.302 179.215 45.53C178.771 45.746 178.423 46.064 178.171 46.484C177.931 46.892 177.811 47.366 177.811 47.906C177.811 48.446 177.931 48.926 178.171 49.346C178.423 49.754 178.771 50.078 179.215 50.318C179.671 50.546 180.181 50.66 180.745 50.66ZM193.351 53.126C192.283 53.126 191.347 52.916 190.543 52.496C189.751 52.064 189.133 51.476 188.689 50.732C188.257 49.988 188.041 49.142 188.041 48.194C188.041 47.234 188.251 46.388 188.671 45.656C189.103 44.912 189.691 44.33 190.435 43.91C191.191 43.49 192.049 43.28 193.009 43.28C193.945 43.28 194.779 43.484 195.511 43.892C196.243 44.3 196.819 44.876 197.239 45.62C197.659 46.364 197.869 47.24 197.869 48.248C197.869 48.344 197.863 48.452 197.851 48.572C197.851 48.692 197.845 48.806 197.833 48.914H189.823V47.42H196.645L195.763 47.888C195.775 47.336 195.661 46.85 195.421 46.43C195.181 46.01 194.851 45.68 194.431 45.44C194.023 45.2 193.549 45.08 193.009 45.08C192.457 45.08 191.971 45.2 191.551 45.44C191.143 45.68 190.819 46.016 190.579 46.448C190.351 46.868 190.237 47.366 190.237 47.942V48.302C190.237 48.878 190.369 49.388 190.633 49.832C190.897 50.276 191.269 50.618 191.749 50.858C192.229 51.098 192.781 51.218 193.405 51.218C193.945 51.218 194.431 51.134 194.863 50.966C195.295 50.798 195.679 50.534 196.015 50.174L197.221 51.56C196.789 52.064 196.243 52.454 195.583 52.73C194.935 52.994 194.191 53.126 193.351 53.126Z" fill="black"/>
<line x1="78" y1="114.5" x2="542" y2="114.5" stroke="#898989" stroke-opacity="0.3"/>
<line x1="78" y1="183.5" x2="542" y2="183.5" stroke="#898989" stroke-opacity="0.3"/>
<line x1="78" y1="252.5" x2="542" y2="252.5" stroke="#898989" stroke-opacity="0.3"/>
<line x1="78" y1="321.5" x2="542" y2="321.5" stroke="#898989" stroke-opacity="0.3"/>
<path d="M29.324 120V110.76L29.926 111.418H27.112V110.2H30.71V120H29.324ZM35.5836 120.084C34.9676 120.084 34.3796 120 33.8196 119.832C33.269 119.664 32.835 119.459 32.5176 119.216L33.0776 118.152C33.395 118.367 33.787 118.549 34.2536 118.698C34.7203 118.847 35.1963 118.922 35.6816 118.922C36.307 118.922 36.755 118.833 37.0256 118.656C37.3056 118.479 37.4456 118.231 37.4456 117.914C37.4456 117.681 37.3616 117.499 37.1936 117.368C37.0256 117.237 36.8016 117.139 36.5216 117.074C36.251 117.009 35.9476 116.953 35.6116 116.906C35.2756 116.85 34.9396 116.785 34.6036 116.71C34.2676 116.626 33.9596 116.514 33.6796 116.374C33.3996 116.225 33.1756 116.024 33.0076 115.772C32.8396 115.511 32.7556 115.165 32.7556 114.736C32.7556 114.288 32.8816 113.896 33.1336 113.56C33.3856 113.224 33.7403 112.967 34.1976 112.79C34.6643 112.603 35.215 112.51 35.8496 112.51C36.335 112.51 36.825 112.571 37.3196 112.692C37.8236 112.804 38.2343 112.967 38.5516 113.182L37.9776 114.246C37.6416 114.022 37.2916 113.868 36.9276 113.784C36.5636 113.7 36.1996 113.658 35.8356 113.658C35.2476 113.658 34.809 113.756 34.5196 113.952C34.2303 114.139 34.0856 114.381 34.0856 114.68C34.0856 114.932 34.1696 115.128 34.3376 115.268C34.515 115.399 34.739 115.501 35.0096 115.576C35.2896 115.651 35.5976 115.716 35.9336 115.772C36.2696 115.819 36.6056 115.884 36.9416 115.968C37.2776 116.043 37.581 116.15 37.8516 116.29C38.1316 116.43 38.3556 116.626 38.5236 116.878C38.701 117.13 38.7896 117.466 38.7896 117.886C38.7896 118.334 38.659 118.721 38.3976 119.048C38.1363 119.375 37.7676 119.631 37.2916 119.818C36.8156 119.995 36.2463 120.084 35.5836 120.084ZM43.0173 120.084C42.2706 120.084 41.692 119.883 41.2813 119.482C40.8706 119.081 40.6653 118.507 40.6653 117.76V110.956H42.0093V117.704C42.0093 118.105 42.1073 118.413 42.3033 118.628C42.5086 118.843 42.798 118.95 43.1713 118.95C43.5913 118.95 43.9413 118.833 44.2213 118.6L44.6413 119.566C44.436 119.743 44.1886 119.874 43.8993 119.958C43.6193 120.042 43.3253 120.084 43.0173 120.084ZM39.4053 113.686V112.58H44.1373V113.686H39.4053Z" fill="#898989" fill-opacity="0.7"/>
<path d="M27.518 189V188.048L31.508 184.198C31.8627 183.862 32.124 183.568 32.292 183.316C32.4693 183.055 32.586 182.817 32.642 182.602C32.7073 182.378 32.74 182.163 32.74 181.958C32.74 181.454 32.5627 181.057 32.208 180.768C31.8533 180.479 31.3353 180.334 30.654 180.334C30.1313 180.334 29.66 180.423 29.24 180.6C28.82 180.768 28.456 181.034 28.148 181.398L27.196 180.572C27.5693 180.096 28.0687 179.732 28.694 179.48C29.3287 179.219 30.024 179.088 30.78 179.088C31.4613 179.088 32.054 179.2 32.558 179.424C33.062 179.639 33.4493 179.951 33.72 180.362C34 180.773 34.14 181.258 34.14 181.818C34.14 182.135 34.098 182.448 34.014 182.756C33.93 183.064 33.7713 183.391 33.538 183.736C33.3047 184.081 32.9687 184.469 32.53 184.898L28.974 188.328L28.638 187.782H34.56V189H27.518ZM38.8751 189.112C38.1844 189.112 37.5124 189.005 36.8591 188.79C36.2151 188.575 35.6877 188.286 35.2771 187.922L35.9211 186.816C36.2477 187.124 36.6724 187.376 37.1951 187.572C37.7177 187.768 38.2731 187.866 38.8611 187.866C39.6077 187.866 40.1817 187.707 40.5831 187.39C40.9844 187.073 41.1851 186.648 41.1851 186.116C41.1851 185.752 41.0964 185.435 40.9191 185.164C40.7417 184.893 40.4337 184.688 39.9951 184.548C39.5657 184.399 38.9731 184.324 38.2171 184.324H35.9911L36.5091 179.2H42.0391V180.418H37.0271L37.7551 179.732L37.3491 183.778L36.6211 183.106H38.5111C39.4911 183.106 40.2797 183.232 40.8771 183.484C41.4744 183.736 41.9084 184.086 42.1791 184.534C42.4497 184.973 42.5851 185.481 42.5851 186.06C42.5851 186.62 42.4497 187.133 42.1791 187.6C41.9084 188.057 41.4977 188.426 40.9471 188.706C40.4057 188.977 39.7151 189.112 38.8751 189.112ZM46.9001 189.084C46.1535 189.084 45.5748 188.883 45.1641 188.482C44.7535 188.081 44.5481 187.507 44.5481 186.76V179.956H45.8921V186.704C45.8921 187.105 45.9901 187.413 46.1861 187.628C46.3915 187.843 46.6808 187.95 47.0541 187.95C47.4741 187.95 47.8241 187.833 48.1041 187.6L48.5241 188.566C48.3188 188.743 48.0715 188.874 47.7821 188.958C47.5021 189.042 47.2081 189.084 46.9001 189.084ZM43.2881 182.686V181.58H48.0201V182.686H43.2881ZM54.111 181.51C54.7177 181.51 55.2497 181.627 55.707 181.86C56.1737 182.093 56.5377 182.448 56.799 182.924C57.0603 183.4 57.191 184.002 57.191 184.73V189H55.847V184.884C55.847 184.165 55.6697 183.624 55.315 183.26C54.9697 182.896 54.4797 182.714 53.845 182.714C53.369 182.714 52.9537 182.807 52.599 182.994C52.2443 183.181 51.969 183.456 51.773 183.82C51.5863 184.184 51.493 184.637 51.493 185.178V189H50.149V178.612H51.493V183.582L51.227 183.05C51.4697 182.565 51.843 182.187 52.347 181.916C52.851 181.645 53.439 181.51 54.111 181.51Z" fill="#898989" fill-opacity="0.7"/>
<path d="M29.366 258L33.524 248.788L33.888 249.418H28.064L28.764 248.732V251.168H27.42V248.2H34.812V249.152L30.85 258H29.366ZM38.9571 258.112C38.2664 258.112 37.5944 258.005 36.9411 257.79C36.2971 257.575 35.7698 257.286 35.3591 256.922L36.0031 255.816C36.3298 256.124 36.7544 256.376 37.2771 256.572C37.7998 256.768 38.3551 256.866 38.9431 256.866C39.6898 256.866 40.2638 256.707 40.6651 256.39C41.0664 256.073 41.2671 255.648 41.2671 255.116C41.2671 254.752 41.1784 254.435 41.0011 254.164C40.8238 253.893 40.5158 253.688 40.0771 253.548C39.6478 253.399 39.0551 253.324 38.2991 253.324H36.0731L36.5911 248.2H42.1211V249.418H37.1091L37.8371 248.732L37.4311 252.778L36.7031 252.106H38.5931C39.5731 252.106 40.3618 252.232 40.9591 252.484C41.5564 252.736 41.9904 253.086 42.2611 253.534C42.5318 253.973 42.6671 254.481 42.6671 255.06C42.6671 255.62 42.5318 256.133 42.2611 256.6C41.9904 257.057 41.5798 257.426 41.0291 257.706C40.4878 257.977 39.7971 258.112 38.9571 258.112ZM46.9822 258.084C46.2355 258.084 45.6568 257.883 45.2462 257.482C44.8355 257.081 44.6302 256.507 44.6302 255.76V248.956H45.9742V255.704C45.9742 256.105 46.0722 256.413 46.2682 256.628C46.4735 256.843 46.7628 256.95 47.1362 256.95C47.5562 256.95 47.9062 256.833 48.1862 256.6L48.6062 257.566C48.4008 257.743 48.1535 257.874 47.8642 257.958C47.5842 258.042 47.2902 258.084 46.9822 258.084ZM43.3702 251.686V250.58H48.1022V251.686H43.3702ZM54.193 250.51C54.7997 250.51 55.3317 250.627 55.789 250.86C56.2557 251.093 56.6197 251.448 56.881 251.924C57.1424 252.4 57.273 253.002 57.273 253.73V258H55.929V253.884C55.929 253.165 55.7517 252.624 55.397 252.26C55.0517 251.896 54.5617 251.714 53.927 251.714C53.451 251.714 53.0357 251.807 52.681 251.994C52.3264 252.181 52.051 252.456 51.855 252.82C51.6684 253.184 51.575 253.637 51.575 254.178V258H50.231V247.612H51.575V252.582L51.309 252.05C51.5517 251.565 51.925 251.187 52.429 250.916C52.933 250.645 53.521 250.51 54.193 250.51Z" fill="#898989" fill-opacity="0.7"/>
<path d="M29.324 327V317.76L29.926 318.418H27.112V317.2H30.71V327H29.324ZM36.8576 327.112C36.0923 327.112 35.4063 326.916 34.7996 326.524C34.2023 326.132 33.7263 325.563 33.3716 324.816C33.0263 324.069 32.8536 323.164 32.8536 322.1C32.8536 321.036 33.0263 320.131 33.3716 319.384C33.7263 318.637 34.2023 318.068 34.7996 317.676C35.4063 317.284 36.0923 317.088 36.8576 317.088C37.6136 317.088 38.295 317.284 38.9016 317.676C39.5083 318.068 39.9843 318.637 40.3296 319.384C40.675 320.131 40.8476 321.036 40.8476 322.1C40.8476 323.164 40.675 324.069 40.3296 324.816C39.9843 325.563 39.5083 326.132 38.9016 326.524C38.295 326.916 37.6136 327.112 36.8576 327.112ZM36.8576 325.866C37.371 325.866 37.819 325.726 38.2016 325.446C38.5936 325.166 38.897 324.746 39.1116 324.186C39.3356 323.626 39.4476 322.931 39.4476 322.1C39.4476 321.269 39.3356 320.574 39.1116 320.014C38.897 319.454 38.5936 319.034 38.2016 318.754C37.819 318.474 37.371 318.334 36.8576 318.334C36.3443 318.334 35.8916 318.474 35.4996 318.754C35.1076 319.034 34.7996 319.454 34.5756 320.014C34.361 320.574 34.2536 321.269 34.2536 322.1C34.2536 322.931 34.361 323.626 34.5756 324.186C34.7996 324.746 35.1076 325.166 35.4996 325.446C35.8916 325.726 36.3443 325.866 36.8576 325.866ZM46.1955 327.112C45.4302 327.112 44.7442 326.916 44.1375 326.524C43.5402 326.132 43.0642 325.563 42.7095 324.816C42.3642 324.069 42.1915 323.164 42.1915 322.1C42.1915 321.036 42.3642 320.131 42.7095 319.384C43.0642 318.637 43.5402 318.068 44.1375 317.676C44.7442 317.284 45.4302 317.088 46.1955 317.088C46.9515 317.088 47.6329 317.284 48.2395 317.676C48.8462 318.068 49.3222 318.637 49.6675 319.384C50.0129 320.131 50.1855 321.036 50.1855 322.1C50.1855 323.164 50.0129 324.069 49.6675 324.816C49.3222 325.563 48.8462 326.132 48.2395 326.524C47.6329 326.916 46.9515 327.112 46.1955 327.112ZM46.1955 325.866C46.7089 325.866 47.1569 325.726 47.5395 325.446C47.9315 325.166 48.2349 324.746 48.4495 324.186C48.6735 323.626 48.7855 322.931 48.7855 322.1C48.7855 321.269 48.6735 320.574 48.4495 320.014C48.2349 319.454 47.9315 319.034 47.5395 318.754C47.1569 318.474 46.7089 318.334 46.1955 318.334C45.6822 318.334 45.2295 318.474 44.8375 318.754C44.4455 319.034 44.1375 319.454 43.9135 320.014C43.6989 320.574 43.5915 321.269 43.5915 322.1C43.5915 322.931 43.6989 323.626 43.9135 324.186C44.1375 324.746 44.4455 325.166 44.8375 325.446C45.2295 325.726 45.6822 325.866 46.1955 325.866ZM54.8161 327.084C54.0695 327.084 53.4908 326.883 53.0801 326.482C52.6695 326.081 52.4641 325.507 52.4641 324.76V317.956H53.8081V324.704C53.8081 325.105 53.9061 325.413 54.1021 325.628C54.3075 325.843 54.5968 325.95 54.9701 325.95C55.3901 325.95 55.7401 325.833 56.0201 325.6L56.4401 326.566C56.2348 326.743 55.9875 326.874 55.6981 326.958C55.4181 327.042 55.1241 327.084 54.8161 327.084ZM51.2041 320.686V319.58H55.9361V320.686H51.2041ZM62.027 319.51C62.6337 319.51 63.1657 319.627 63.623 319.86C64.0897 320.093 64.4537 320.448 64.715 320.924C64.9763 321.4 65.107 322.002 65.107 322.73V327H63.763V322.884C63.763 322.165 63.5857 321.624 63.231 321.26C62.8857 320.896 62.3957 320.714 61.761 320.714C61.285 320.714 60.8697 320.807 60.515 320.994C60.1603 321.181 59.885 321.456 59.689 321.82C59.5023 322.184 59.409 322.637 59.409 323.178V327H58.065V316.612H59.409V321.582L59.143 321.05C59.3857 320.565 59.759 320.187 60.263 319.916C60.767 319.645 61.355 319.51 62.027 319.51Z" fill="#898989" fill-opacity="0.7"/>
<path d="M80.324 356V346.76L80.926 347.418H78.112V346.2H81.71V356H80.324ZM87.9696 356.112C87.1016 356.112 86.3596 355.921 85.7436 355.538C85.1276 355.155 84.6563 354.605 84.3296 353.886C84.0123 353.158 83.8536 352.271 83.8536 351.226C83.8536 350.115 84.0496 349.177 84.4416 348.412C84.8336 347.647 85.3796 347.068 86.0796 346.676C86.7796 346.284 87.5823 346.088 88.4876 346.088C88.9543 346.088 89.3976 346.135 89.8176 346.228C90.247 346.321 90.6156 346.466 90.9236 346.662L90.3916 347.754C90.1396 347.577 89.8503 347.455 89.5236 347.39C89.2063 347.325 88.8703 347.292 88.5156 347.292C87.517 347.292 86.7236 347.605 86.1356 348.23C85.5476 348.846 85.2536 349.765 85.2536 350.988C85.2536 351.184 85.263 351.417 85.2816 351.688C85.3003 351.959 85.347 352.225 85.4216 352.486L84.9456 352.01C85.0856 351.581 85.305 351.221 85.6036 350.932C85.9116 350.633 86.2756 350.414 86.6956 350.274C87.125 350.125 87.587 350.05 88.0816 350.05C88.735 350.05 89.3136 350.171 89.8176 350.414C90.3216 350.657 90.7183 351.002 91.0076 351.45C91.297 351.889 91.4416 352.411 91.4416 353.018C91.4416 353.643 91.2876 354.189 90.9796 354.656C90.6716 355.123 90.2563 355.482 89.7336 355.734C89.211 355.986 88.623 356.112 87.9696 356.112ZM87.9136 354.978C88.343 354.978 88.7163 354.899 89.0336 354.74C89.3603 354.581 89.617 354.362 89.8036 354.082C89.9903 353.793 90.0836 353.457 90.0836 353.074C90.0836 352.495 89.883 352.038 89.4816 351.702C89.0803 351.357 88.5343 351.184 87.8436 351.184C87.3956 351.184 87.0036 351.268 86.6676 351.436C86.3316 351.604 86.0656 351.833 85.8696 352.122C85.683 352.402 85.5896 352.724 85.5896 353.088C85.5896 353.424 85.6783 353.737 85.8556 354.026C86.033 354.306 86.2943 354.535 86.6396 354.712C86.985 354.889 87.4096 354.978 87.9136 354.978ZM95.568 356L100.006 346.2H101.392L105.844 356H104.374L100.412 346.984H100.972L97.01 356H95.568ZM97.458 353.55L97.836 352.43H103.352L103.758 353.55H97.458ZM110.095 356.084C109.461 356.084 108.901 355.967 108.415 355.734C107.939 355.501 107.566 355.146 107.295 354.67C107.034 354.185 106.903 353.578 106.903 352.85V348.58H108.247V352.696C108.247 353.424 108.42 353.97 108.765 354.334C109.12 354.698 109.615 354.88 110.249 354.88C110.716 354.88 111.122 354.787 111.467 354.6C111.813 354.404 112.079 354.124 112.265 353.76C112.452 353.387 112.545 352.939 112.545 352.416V348.58H113.889V356H112.615V353.998L112.825 354.53C112.583 355.025 112.219 355.407 111.733 355.678C111.248 355.949 110.702 356.084 110.095 356.084ZM119.696 358.8C119.014 358.8 118.352 358.702 117.708 358.506C117.073 358.319 116.555 358.049 116.154 357.694L116.798 356.658C117.143 356.957 117.568 357.19 118.072 357.358C118.576 357.535 119.103 357.624 119.654 357.624C120.531 357.624 121.175 357.419 121.586 357.008C121.996 356.597 122.202 355.972 122.202 355.132V353.564L122.342 352.094L122.272 350.61V348.58H123.546V354.992C123.546 356.299 123.219 357.26 122.566 357.876C121.912 358.492 120.956 358.8 119.696 358.8ZM119.528 355.692C118.809 355.692 118.165 355.543 117.596 355.244C117.036 354.936 116.588 354.511 116.252 353.97C115.925 353.429 115.762 352.803 115.762 352.094C115.762 351.375 115.925 350.75 116.252 350.218C116.588 349.677 117.036 349.257 117.596 348.958C118.165 348.659 118.809 348.51 119.528 348.51C120.162 348.51 120.741 348.641 121.264 348.902C121.786 349.154 122.202 349.546 122.51 350.078C122.827 350.61 122.986 351.282 122.986 352.094C122.986 352.897 122.827 353.564 122.51 354.096C122.202 354.628 121.786 355.029 121.264 355.3C120.741 355.561 120.162 355.692 119.528 355.692ZM119.682 354.516C120.176 354.516 120.615 354.413 120.998 354.208C121.38 354.003 121.679 353.718 121.894 353.354C122.118 352.99 122.23 352.57 122.23 352.094C122.23 351.618 122.118 351.198 121.894 350.834C121.679 350.47 121.38 350.19 120.998 349.994C120.615 349.789 120.176 349.686 119.682 349.686C119.187 349.686 118.744 349.789 118.352 349.994C117.969 350.19 117.666 350.47 117.442 350.834C117.227 351.198 117.12 351.618 117.12 352.094C117.12 352.57 117.227 352.99 117.442 353.354C117.666 353.718 117.969 354.003 118.352 354.208C118.744 354.413 119.187 354.516 119.682 354.516Z" fill="#898989" fill-opacity="0.7"/>
<path d="M220.518 356V355.048L224.508 351.198C224.863 350.862 225.124 350.568 225.292 350.316C225.469 350.055 225.586 349.817 225.642 349.602C225.707 349.378 225.74 349.163 225.74 348.958C225.74 348.454 225.563 348.057 225.208 347.768C224.853 347.479 224.335 347.334 223.654 347.334C223.131 347.334 222.66 347.423 222.24 347.6C221.82 347.768 221.456 348.034 221.148 348.398L220.196 347.572C220.569 347.096 221.069 346.732 221.694 346.48C222.329 346.219 223.024 346.088 223.78 346.088C224.461 346.088 225.054 346.2 225.558 346.424C226.062 346.639 226.449 346.951 226.72 347.362C227 347.773 227.14 348.258 227.14 348.818C227.14 349.135 227.098 349.448 227.014 349.756C226.93 350.064 226.771 350.391 226.538 350.736C226.305 351.081 225.969 351.469 225.53 351.898L221.974 355.328L221.638 354.782H227.56V356H220.518ZM231.707 356.112C231.016 356.112 230.344 356.005 229.691 355.79C229.047 355.575 228.52 355.286 228.109 354.922L228.753 353.816C229.08 354.124 229.504 354.376 230.027 354.572C230.55 354.768 231.11 354.866 231.707 354.866C232.435 354.866 233 354.712 233.401 354.404C233.812 354.087 234.017 353.662 234.017 353.13C234.017 352.617 233.821 352.206 233.429 351.898C233.046 351.581 232.435 351.422 231.595 351.422H230.811V350.442L233.723 346.858L233.919 347.418H228.557V346.2H235.025V347.152L232.127 350.722L231.399 350.288H231.861C233.046 350.288 233.933 350.554 234.521 351.086C235.118 351.618 235.417 352.295 235.417 353.116C235.417 353.667 235.282 354.171 235.011 354.628C234.74 355.085 234.33 355.449 233.779 355.72C233.238 355.981 232.547 356.112 231.707 356.112ZM239.797 356L244.235 346.2H245.621L250.073 356H248.603L244.641 346.984H245.201L241.239 356H239.797ZM241.687 353.55L242.065 352.43H247.581L247.987 353.55H241.687ZM254.324 356.084C253.689 356.084 253.129 355.967 252.644 355.734C252.168 355.501 251.794 355.146 251.524 354.67C251.262 354.185 251.132 353.578 251.132 352.85V348.58H252.476V352.696C252.476 353.424 252.648 353.97 252.994 354.334C253.348 354.698 253.843 354.88 254.478 354.88C254.944 354.88 255.35 354.787 255.696 354.6C256.041 354.404 256.307 354.124 256.494 353.76C256.68 353.387 256.774 352.939 256.774 352.416V348.58H258.118V356H256.844V353.998L257.054 354.53C256.811 355.025 256.447 355.407 255.962 355.678C255.476 355.949 254.93 356.084 254.324 356.084ZM263.924 358.8C263.243 358.8 262.58 358.702 261.936 358.506C261.302 358.319 260.784 358.049 260.382 357.694L261.026 356.658C261.372 356.957 261.796 357.19 262.3 357.358C262.804 357.535 263.332 357.624 263.882 357.624C264.76 357.624 265.404 357.419 265.814 357.008C266.225 356.597 266.43 355.972 266.43 355.132V353.564L266.57 352.094L266.5 350.61V348.58H267.774V354.992C267.774 356.299 267.448 357.26 266.794 357.876C266.141 358.492 265.184 358.8 263.924 358.8ZM263.756 355.692C263.038 355.692 262.394 355.543 261.824 355.244C261.264 354.936 260.816 354.511 260.48 353.97C260.154 353.429 259.99 352.803 259.99 352.094C259.99 351.375 260.154 350.75 260.48 350.218C260.816 349.677 261.264 349.257 261.824 348.958C262.394 348.659 263.038 348.51 263.756 348.51C264.391 348.51 264.97 348.641 265.492 348.902C266.015 349.154 266.43 349.546 266.738 350.078C267.056 350.61 267.214 351.282 267.214 352.094C267.214 352.897 267.056 353.564 266.738 354.096C266.43 354.628 266.015 355.029 265.492 355.3C264.97 355.561 264.391 355.692 263.756 355.692ZM263.91 354.516C264.405 354.516 264.844 354.413 265.226 354.208C265.609 354.003 265.908 353.718 266.122 353.354C266.346 352.99 266.458 352.57 266.458 352.094C266.458 351.618 266.346 351.198 266.122 350.834C265.908 350.47 265.609 350.19 265.226 349.994C264.844 349.789 264.405 349.686 263.91 349.686C263.416 349.686 262.972 349.789 262.58 349.994C262.198 350.19 261.894 350.47 261.67 350.834C261.456 351.198 261.348 351.618 261.348 352.094C261.348 352.57 261.456 352.99 261.67 353.354C261.894 353.718 262.198 354.003 262.58 354.208C262.972 354.413 263.416 354.516 263.91 354.516Z" fill="#898989" fill-opacity="0.7"/>
<path d="M361.668 356.112C360.977 356.112 360.305 356.005 359.652 355.79C359.008 355.575 358.481 355.286 358.07 354.922L358.714 353.816C359.041 354.124 359.465 354.376 359.988 354.572C360.511 354.768 361.071 354.866 361.668 354.866C362.396 354.866 362.961 354.712 363.362 354.404C363.773 354.087 363.978 353.662 363.978 353.13C363.978 352.617 363.782 352.206 363.39 351.898C363.007 351.581 362.396 351.422 361.556 351.422H360.772V350.442L363.684 346.858L363.88 347.418H358.518V346.2H364.986V347.152L362.088 350.722L361.36 350.288H361.822C363.007 350.288 363.894 350.554 364.482 351.086C365.079 351.618 365.378 352.295 365.378 353.116C365.378 353.667 365.243 354.171 364.972 354.628C364.701 355.085 364.291 355.449 363.74 355.72C363.199 355.981 362.508 356.112 361.668 356.112ZM370.688 356.112C369.922 356.112 369.236 355.916 368.63 355.524C368.032 355.132 367.556 354.563 367.202 353.816C366.856 353.069 366.684 352.164 366.684 351.1C366.684 350.036 366.856 349.131 367.202 348.384C367.556 347.637 368.032 347.068 368.63 346.676C369.236 346.284 369.922 346.088 370.688 346.088C371.444 346.088 372.125 346.284 372.732 346.676C373.338 347.068 373.814 347.637 374.16 348.384C374.505 349.131 374.678 350.036 374.678 351.1C374.678 352.164 374.505 353.069 374.16 353.816C373.814 354.563 373.338 355.132 372.732 355.524C372.125 355.916 371.444 356.112 370.688 356.112ZM370.688 354.866C371.201 354.866 371.649 354.726 372.032 354.446C372.424 354.166 372.727 353.746 372.942 353.186C373.166 352.626 373.278 351.931 373.278 351.1C373.278 350.269 373.166 349.574 372.942 349.014C372.727 348.454 372.424 348.034 372.032 347.754C371.649 347.474 371.201 347.334 370.688 347.334C370.174 347.334 369.722 347.474 369.33 347.754C368.938 348.034 368.63 348.454 368.406 349.014C368.191 349.574 368.084 350.269 368.084 351.1C368.084 351.931 368.191 352.626 368.406 353.186C368.63 353.746 368.938 354.166 369.33 354.446C369.722 354.726 370.174 354.866 370.688 354.866ZM379.095 356L383.533 346.2H384.919L389.371 356H387.901L383.939 346.984H384.499L380.537 356H379.095ZM380.985 353.55L381.363 352.43H386.879L387.285 353.55H380.985ZM393.623 356.084C392.988 356.084 392.428 355.967 391.943 355.734C391.467 355.501 391.093 355.146 390.823 354.67C390.561 354.185 390.431 353.578 390.431 352.85V348.58H391.775V352.696C391.775 353.424 391.947 353.97 392.293 354.334C392.647 354.698 393.142 354.88 393.777 354.88C394.243 354.88 394.649 354.787 394.995 354.6C395.34 354.404 395.606 354.124 395.793 353.76C395.979 353.387 396.073 352.939 396.073 352.416V348.58H397.417V356H396.143V353.998L396.353 354.53C396.11 355.025 395.746 355.407 395.261 355.678C394.775 355.949 394.229 356.084 393.623 356.084ZM403.223 358.8C402.542 358.8 401.879 358.702 401.235 358.506C400.601 358.319 400.083 358.049 399.681 357.694L400.325 356.658C400.671 356.957 401.095 357.19 401.599 357.358C402.103 357.535 402.631 357.624 403.181 357.624C404.059 357.624 404.703 357.419 405.113 357.008C405.524 356.597 405.729 355.972 405.729 355.132V353.564L405.869 352.094L405.799 350.61V348.58H407.073V354.992C407.073 356.299 406.747 357.26 406.093 357.876C405.44 358.492 404.483 358.8 403.223 358.8ZM403.055 355.692C402.337 355.692 401.693 355.543 401.123 355.244C400.563 354.936 400.115 354.511 399.779 353.97C399.453 353.429 399.289 352.803 399.289 352.094C399.289 351.375 399.453 350.75 399.779 350.218C400.115 349.677 400.563 349.257 401.123 348.958C401.693 348.659 402.337 348.51 403.055 348.51C403.69 348.51 404.269 348.641 404.791 348.902C405.314 349.154 405.729 349.546 406.037 350.078C406.355 350.61 406.513 351.282 406.513 352.094C406.513 352.897 406.355 353.564 406.037 354.096C405.729 354.628 405.314 355.029 404.791 355.3C404.269 355.561 403.69 355.692 403.055 355.692ZM403.209 354.516C403.704 354.516 404.143 354.413 404.525 354.208C404.908 354.003 405.207 353.718 405.421 353.354C405.645 352.99 405.757 352.57 405.757 352.094C405.757 351.618 405.645 351.198 405.421 350.834C405.207 350.47 404.908 350.19 404.525 349.994C404.143 349.789 403.704 349.686 403.209 349.686C402.715 349.686 402.271 349.789 401.879 349.994C401.497 350.19 401.193 350.47 400.969 350.834C400.755 351.198 400.647 351.618 400.647 352.094C400.647 352.57 400.755 352.99 400.969 353.354C401.193 353.718 401.497 354.003 401.879 354.208C402.271 354.413 402.715 354.516 403.209 354.516Z" fill="#898989" fill-opacity="0.7"/>
<path d="M501.676 356.112C500.911 356.112 500.225 355.916 499.618 355.524C499.021 355.132 498.545 354.563 498.19 353.816C497.845 353.069 497.672 352.164 497.672 351.1C497.672 350.036 497.845 349.131 498.19 348.384C498.545 347.637 499.021 347.068 499.618 346.676C500.225 346.284 500.911 346.088 501.676 346.088C502.432 346.088 503.113 346.284 503.72 346.676C504.327 347.068 504.803 347.637 505.148 348.384C505.493 349.131 505.666 350.036 505.666 351.1C505.666 352.164 505.493 353.069 505.148 353.816C504.803 354.563 504.327 355.132 503.72 355.524C503.113 355.916 502.432 356.112 501.676 356.112ZM501.676 354.866C502.189 354.866 502.637 354.726 503.02 354.446C503.412 354.166 503.715 353.746 503.93 353.186C504.154 352.626 504.266 351.931 504.266 351.1C504.266 350.269 504.154 349.574 503.93 349.014C503.715 348.454 503.412 348.034 503.02 347.754C502.637 347.474 502.189 347.334 501.676 347.334C501.163 347.334 500.71 347.474 500.318 347.754C499.926 348.034 499.618 348.454 499.394 349.014C499.179 349.574 499.072 350.269 499.072 351.1C499.072 351.931 499.179 352.626 499.394 353.186C499.618 353.746 499.926 354.166 500.318 354.446C500.71 354.726 501.163 354.866 501.676 354.866ZM508.662 356V346.76L509.264 347.418H506.45V346.2H510.048V356H508.662ZM519.605 356.112C518.859 356.112 518.145 356 517.463 355.776C516.782 355.543 516.245 355.244 515.853 354.88L516.371 353.788C516.745 354.115 517.221 354.385 517.799 354.6C518.378 354.815 518.98 354.922 519.605 354.922C520.175 354.922 520.637 354.857 520.991 354.726C521.346 354.595 521.607 354.418 521.775 354.194C521.943 353.961 522.027 353.699 522.027 353.41C522.027 353.074 521.915 352.803 521.691 352.598C521.477 352.393 521.192 352.229 520.837 352.108C520.492 351.977 520.109 351.865 519.689 351.772C519.269 351.679 518.845 351.571 518.415 351.45C517.995 351.319 517.608 351.156 517.253 350.96C516.908 350.764 516.628 350.503 516.413 350.176C516.199 349.84 516.091 349.411 516.091 348.888C516.091 348.384 516.222 347.922 516.483 347.502C516.754 347.073 517.165 346.732 517.715 346.48C518.275 346.219 518.985 346.088 519.843 346.088C520.413 346.088 520.977 346.163 521.537 346.312C522.097 346.461 522.583 346.676 522.993 346.956L522.531 348.076C522.111 347.796 521.668 347.595 521.201 347.474C520.735 347.343 520.282 347.278 519.843 347.278C519.293 347.278 518.84 347.348 518.485 347.488C518.131 347.628 517.869 347.815 517.701 348.048C517.543 348.281 517.463 348.543 517.463 348.832C517.463 349.177 517.571 349.453 517.785 349.658C518.009 349.863 518.294 350.027 518.639 350.148C518.994 350.269 519.381 350.381 519.801 350.484C520.221 350.577 520.641 350.685 521.061 350.806C521.491 350.927 521.878 351.086 522.223 351.282C522.578 351.478 522.863 351.739 523.077 352.066C523.292 352.393 523.399 352.813 523.399 353.326C523.399 353.821 523.264 354.283 522.993 354.712C522.723 355.132 522.303 355.473 521.733 355.734C521.173 355.986 520.464 356.112 519.605 356.112ZM528.553 356.084C527.759 356.084 527.059 355.921 526.453 355.594C525.855 355.267 525.389 354.819 525.053 354.25C524.726 353.681 524.563 353.027 524.563 352.29C524.563 351.553 524.721 350.899 525.039 350.33C525.365 349.761 525.809 349.317 526.369 349C526.938 348.673 527.577 348.51 528.287 348.51C529.005 348.51 529.64 348.669 530.191 348.986C530.741 349.303 531.171 349.751 531.479 350.33C531.796 350.899 531.955 351.567 531.955 352.332C531.955 352.388 531.95 352.453 531.941 352.528C531.941 352.603 531.936 352.673 531.927 352.738H525.613V351.772H531.227L530.681 352.108C530.69 351.632 530.592 351.207 530.387 350.834C530.181 350.461 529.897 350.171 529.533 349.966C529.178 349.751 528.763 349.644 528.287 349.644C527.82 349.644 527.405 349.751 527.041 349.966C526.677 350.171 526.392 350.465 526.187 350.848C525.981 351.221 525.879 351.651 525.879 352.136V352.36C525.879 352.855 525.991 353.298 526.215 353.69C526.448 354.073 526.77 354.371 527.181 354.586C527.591 354.801 528.063 354.908 528.595 354.908C529.033 354.908 529.43 354.833 529.785 354.684C530.149 354.535 530.466 354.311 530.737 354.012L531.479 354.88C531.143 355.272 530.723 355.571 530.219 355.776C529.724 355.981 529.169 356.084 528.553 356.084ZM537.755 356.084C537.139 356.084 536.574 355.944 536.061 355.664C535.557 355.375 535.151 354.95 534.843 354.39C534.544 353.83 534.395 353.13 534.395 352.29C534.395 351.45 534.54 350.75 534.829 350.19C535.128 349.63 535.529 349.21 536.033 348.93C536.546 348.65 537.12 348.51 537.755 348.51C538.483 348.51 539.127 348.669 539.687 348.986C540.247 349.303 540.69 349.747 541.017 350.316C541.344 350.876 541.507 351.534 541.507 352.29C541.507 353.046 541.344 353.709 541.017 354.278C540.69 354.847 540.247 355.291 539.687 355.608C539.127 355.925 538.483 356.084 537.755 356.084ZM533.821 358.716V348.58H535.109V350.582L535.025 352.304L535.165 354.026V358.716H533.821ZM537.643 354.908C538.119 354.908 538.544 354.801 538.917 354.586C539.3 354.371 539.598 354.068 539.813 353.676C540.037 353.275 540.149 352.813 540.149 352.29C540.149 351.758 540.037 351.301 539.813 350.918C539.598 350.526 539.3 350.223 538.917 350.008C538.544 349.793 538.119 349.686 537.643 349.686C537.176 349.686 536.752 349.793 536.369 350.008C535.996 350.223 535.697 350.526 535.473 350.918C535.258 351.301 535.151 351.758 535.151 352.29C535.151 352.813 535.258 353.275 535.473 353.676C535.697 354.068 535.996 354.371 536.369 354.586C536.752 354.801 537.176 354.908 537.643 354.908Z" fill="#898989" fill-opacity="0.7"/>
<rect x="88" y="141" width="10" height="181" fill="#8DB8FF"/>
<rect x="103" y="186" width="10" height="136" fill="#8DB8FF"/>
<rect x="118" y="159" width="10" height="163" fill="#8DB8FF"/>
<rect x="133" y="174" width="10" height="148" fill="#8DB8FF"/>
<rect x="148" y="149" width="10" height="173" fill="#8DB8FF"/>
<rect x="163" y="182" width="10" height="140" fill="#8DB8FF"/>
<rect x="178" y="172" width="10" height="150" fill="#8DB8FF"/>
<rect x="193" y="198" width="10" height="124" fill="#8DB8FF"/>
<rect x="253" y="203" width="10" height="119" fill="#8DB8FF"/>
<rect x="298" y="180" width="10" height="142" fill="#8DB8FF"/>
<rect x="313" y="166" width="10" height="156" fill="#8DB8FF"/>
<rect x="328" y="186" width="10" height="136" fill="#8DB8FF"/>
<rect x="343" y="186" width="10" height="136" fill="#8DB8FF"/>
<rect x="358" y="246" width="10" height="76" fill="#8DB8FF"/>
<rect x="373" y="148" width="10" height="174" fill="#8DB8FF"/>
<rect x="388" y="132" width="10" height="190" fill="#8DB8FF"/>
<rect x="403" y="184" width="10" height="138" fill="#8DB8FF"/>
<rect x="418" y="182" width="10" height="140" fill="#8DB8FF"/>
<rect x="433" y="111" width="10" height="211" fill="#8DB8FF"/>
<rect x="448" y="153" width="10" height="169" fill="#8DB8FF"/>
<rect x="463" y="125" width="10" height="197" fill="#8DB8FF"/>
<rect x="478" y="137" width="10" height="185" fill="#8DB8FF"/>
<rect x="493" y="102" width="10" height="220" fill="#8DB8FF"/>
<rect x="508" y="180" width="10" height="142" fill="#8DB8FF"/>
<rect x="523" y="142" width="10" height="180" fill="#8DB8FF"/>
<rect x="268" y="160" width="10" height="162" fill="#8DB8FF"/>
<rect x="283" y="100" width="10" height="222" fill="#8DB8FF"/>
<rect x="208" y="121" width="10" height="201" fill="#8DB8FF"/>
<rect x="223" y="149" width="10" height="173" fill="#8DB8FF"/>
<rect x="238" y="117" width="10" height="205" fill="#8DB8FF"/>
<defs>
<filter id="filter0_d_4008_2710" x="0" y="0" width="588" height="408" filterUnits="userSpaceOnUse" color-interpolation-filters="sRGB">
<feFlood flood-opacity="0" result="BackgroundImageFix"/>
<feColorMatrix in="SourceAlpha" type="matrix" values="0 0 0 0 0 0 0 0 0 0 0 0 0 0 0 0 0 0 127 0" result="hardAlpha"/>
<feOffset/>
<feGaussianBlur stdDeviation="5"/>
<feComposite in2="hardAlpha" operator="out"/>
<feColorMatrix type="matrix" values="0 0 0 0 0 0 0 0 0 0 0 0 0 0 0 0 0 0 0.1 0"/>
<feBlend mode="normal" in2="BackgroundImageFix" result="effect1_dropShadow_4008_2710"/>
<feBlend mode="normal" in="SourceGraphic" in2="effect1_dropShadow_4008_2710" result="shape"/>
</filter>
</defs>
</svg>
