<svg width="240" height="163" viewBox="0 0 240 163" fill="none" xmlns="http://www.w3.org/2000/svg">
<g filter="url(#filter0_d_4008_2709)">
<rect x="10" y="6" width="220" height="143" rx="10" fill="white"/>
<path d="M31.315 32.15C30.495 32.15 29.74 32.02 29.05 31.76C28.37 31.49 27.775 31.115 27.265 30.635C26.755 30.145 26.36 29.57 26.08 28.91C25.8 28.25 25.66 27.53 25.66 26.75C25.66 25.97 25.8 25.25 26.08 24.59C26.36 23.93 26.755 23.36 27.265 22.88C27.785 22.39 28.39 22.015 29.08 21.755C29.77 21.485 30.525 21.35 31.345 21.35C32.235 21.35 33.035 21.495 33.745 21.785C34.465 22.075 35.07 22.5 35.56 23.06L34.33 24.26C33.92 23.85 33.475 23.55 32.995 23.36C32.525 23.16 32.005 23.06 31.435 23.06C30.885 23.06 30.375 23.15 29.905 23.33C29.435 23.51 29.03 23.765 28.69 24.095C28.35 24.425 28.085 24.815 27.895 25.265C27.715 25.715 27.625 26.21 27.625 26.75C27.625 27.28 27.715 27.77 27.895 28.22C28.085 28.67 28.35 29.065 28.69 29.405C29.03 29.735 29.43 29.99 29.89 30.17C30.35 30.35 30.86 30.44 31.42 30.44C31.94 30.44 32.44 30.36 32.92 30.2C33.41 30.03 33.875 29.75 34.315 29.36L35.425 30.815C34.875 31.255 34.235 31.59 33.505 31.82C32.785 32.04 32.055 32.15 31.315 32.15ZM33.58 30.56V26.63H35.425V30.815L33.58 30.56ZM41.4169 32.105C40.5969 32.105 39.8669 31.93 39.2269 31.58C38.5869 31.22 38.0819 30.73 37.7119 30.11C37.3419 29.49 37.1569 28.785 37.1569 27.995C37.1569 27.195 37.3419 26.49 37.7119 25.88C38.0819 25.26 38.5869 24.775 39.2269 24.425C39.8669 24.075 40.5969 23.9 41.4169 23.9C42.2469 23.9 42.9819 24.075 43.6219 24.425C44.2719 24.775 44.7769 25.255 45.1369 25.865C45.5069 26.475 45.6919 27.185 45.6919 27.995C45.6919 28.785 45.5069 29.49 45.1369 30.11C44.7769 30.73 44.2719 31.22 43.6219 31.58C42.9819 31.93 42.2469 32.105 41.4169 32.105ZM41.4169 30.5C41.8769 30.5 42.2869 30.4 42.6469 30.2C43.0069 30 43.2869 29.71 43.4869 29.33C43.6969 28.95 43.8019 28.505 43.8019 27.995C43.8019 27.475 43.6969 27.03 43.4869 26.66C43.2869 26.28 43.0069 25.99 42.6469 25.79C42.2869 25.59 41.8819 25.49 41.4319 25.49C40.9719 25.49 40.5619 25.59 40.2019 25.79C39.8519 25.99 39.5719 26.28 39.3619 26.66C39.1519 27.03 39.0469 27.475 39.0469 27.995C39.0469 28.505 39.1519 28.95 39.3619 29.33C39.5719 29.71 39.8519 30 40.2019 30.2C40.5619 30.4 40.9669 30.5 41.4169 30.5ZM51.0849 32.105C50.2649 32.105 49.5349 31.93 48.8949 31.58C48.2549 31.22 47.7499 30.73 47.3799 30.11C47.0099 29.49 46.8249 28.785 46.8249 27.995C46.8249 27.195 47.0099 26.49 47.3799 25.88C47.7499 25.26 48.2549 24.775 48.8949 24.425C49.5349 24.075 50.2649 23.9 51.0849 23.9C51.9149 23.9 52.6499 24.075 53.2899 24.425C53.9399 24.775 54.4449 25.255 54.8049 25.865C55.1749 26.475 55.3599 27.185 55.3599 27.995C55.3599 28.785 55.1749 29.49 54.8049 30.11C54.4449 30.73 53.9399 31.22 53.2899 31.58C52.6499 31.93 51.9149 32.105 51.0849 32.105ZM51.0849 30.5C51.5449 30.5 51.9549 30.4 52.3149 30.2C52.6749 30 52.9549 29.71 53.1549 29.33C53.3649 28.95 53.4699 28.505 53.4699 27.995C53.4699 27.475 53.3649 27.03 53.1549 26.66C52.9549 26.28 52.6749 25.99 52.3149 25.79C51.9549 25.59 51.5499 25.49 51.0999 25.49C50.6399 25.49 50.2299 25.59 49.8699 25.79C49.5199 25.99 49.2399 26.28 49.0299 26.66C48.8199 27.03 48.7149 27.475 48.7149 27.995C48.7149 28.505 48.8199 28.95 49.0299 29.33C49.2399 29.71 49.5199 30 49.8699 30.2C50.2299 30.4 50.6349 30.5 51.0849 30.5ZM60.7829 35.015C60.0429 35.015 59.3179 34.915 58.6079 34.715C57.9079 34.525 57.3329 34.245 56.8829 33.875L57.7229 32.465C58.0729 32.755 58.5129 32.985 59.0429 33.155C59.5829 33.335 60.1279 33.425 60.6779 33.425C61.5579 33.425 62.2029 33.22 62.6129 32.81C63.0229 32.41 63.2279 31.805 63.2279 30.995V29.57L63.3779 27.755L63.3179 25.94V23.99H65.1029V30.785C65.1029 32.235 64.7329 33.3 63.9929 33.98C63.2529 34.67 62.1829 35.015 60.7829 35.015ZM60.5429 31.64C59.7829 31.64 59.0929 31.48 58.4729 31.16C57.8629 30.83 57.3779 30.375 57.0179 29.795C56.6679 29.215 56.4929 28.535 56.4929 27.755C56.4929 26.985 56.6679 26.31 57.0179 25.73C57.3779 25.15 57.8629 24.7 58.4729 24.38C59.0929 24.06 59.7829 23.9 60.5429 23.9C61.2229 23.9 61.8329 24.035 62.3729 24.305C62.9129 24.575 63.3429 24.995 63.6629 25.565C63.9929 26.135 64.1579 26.865 64.1579 27.755C64.1579 28.645 63.9929 29.38 63.6629 29.96C63.3429 30.53 62.9129 30.955 62.3729 31.235C61.8329 31.505 61.2229 31.64 60.5429 31.64ZM60.8279 30.05C61.2979 30.05 61.7179 29.955 62.0879 29.765C62.4579 29.565 62.7429 29.295 62.9429 28.955C63.1529 28.605 63.2579 28.205 63.2579 27.755C63.2579 27.305 63.1529 26.91 62.9429 26.57C62.7429 26.22 62.4579 25.955 62.0879 25.775C61.7179 25.585 61.2979 25.49 60.8279 25.49C60.3579 25.49 59.9329 25.585 59.5529 25.775C59.1829 25.955 58.8929 26.22 58.6829 26.57C58.4829 26.91 58.3829 27.305 58.3829 27.755C58.3829 28.205 58.4829 28.605 58.6829 28.955C58.8929 29.295 59.1829 29.565 59.5529 29.765C59.9329 29.955 60.3579 30.05 60.8279 30.05ZM67.5679 32V20.87H69.4429V32H67.5679ZM75.6688 32.105C74.7788 32.105 73.9988 31.93 73.3288 31.58C72.6688 31.22 72.1538 30.73 71.7838 30.11C71.4238 29.49 71.2438 28.785 71.2438 27.995C71.2438 27.195 71.4188 26.49 71.7688 25.88C72.1288 25.26 72.6188 24.775 73.2388 24.425C73.8688 24.075 74.5838 23.9 75.3838 23.9C76.1638 23.9 76.8588 24.07 77.4688 24.41C78.0788 24.75 78.5588 25.23 78.9088 25.85C79.2588 26.47 79.4338 27.2 79.4338 28.04C79.4338 28.12 79.4288 28.21 79.4188 28.31C79.4188 28.41 79.4138 28.505 79.4038 28.595H72.7288V27.35H78.4138L77.6788 27.74C77.6888 27.28 77.5938 26.875 77.3938 26.525C77.1938 26.175 76.9188 25.9 76.5688 25.7C76.2288 25.5 75.8338 25.4 75.3838 25.4C74.9238 25.4 74.5188 25.5 74.1688 25.7C73.8288 25.9 73.5588 26.18 73.3588 26.54C73.1688 26.89 73.0738 27.305 73.0738 27.785V28.085C73.0738 28.565 73.1838 28.99 73.4038 29.36C73.6238 29.73 73.9338 30.015 74.3338 30.215C74.7338 30.415 75.1938 30.515 75.7138 30.515C76.1638 30.515 76.5688 30.445 76.9288 30.305C77.2888 30.165 77.6088 29.945 77.8888 29.645L78.8938 30.8C78.5338 31.22 78.0788 31.545 77.5288 31.775C76.9888 31.995 76.3688 32.105 75.6688 32.105ZM85.5604 32V21.5H89.8804C90.8104 21.5 91.6054 21.65 92.2654 21.95C92.9354 22.25 93.4504 22.68 93.8104 23.24C94.1704 23.8 94.3504 24.465 94.3504 25.235C94.3504 26.005 94.1704 26.67 93.8104 27.23C93.4504 27.78 92.9354 28.205 92.2654 28.505C91.6054 28.795 90.8104 28.94 89.8804 28.94H86.6404L87.5104 28.055V32H85.5604ZM92.4304 32L89.7754 28.19H91.8604L94.5304 32H92.4304ZM87.5104 28.265L86.6404 27.335H89.7904C90.6504 27.335 91.2954 27.15 91.7254 26.78C92.1654 26.41 92.3854 25.895 92.3854 25.235C92.3854 24.565 92.1654 24.05 91.7254 23.69C91.2954 23.33 90.6504 23.15 89.7904 23.15H86.6404L87.5104 22.19V28.265ZM101.214 32V30.38L101.109 30.035V27.2C101.109 26.65 100.944 26.225 100.614 25.925C100.284 25.615 99.7838 25.46 99.1138 25.46C98.6638 25.46 98.2188 25.53 97.7788 25.67C97.3488 25.81 96.9838 26.005 96.6838 26.255L95.9488 24.89C96.3788 24.56 96.8888 24.315 97.4788 24.155C98.0788 23.985 98.6988 23.9 99.3388 23.9C100.499 23.9 101.394 24.18 102.024 24.74C102.664 25.29 102.984 26.145 102.984 27.305V32H101.214ZM98.6938 32.105C98.0938 32.105 97.5688 32.005 97.1188 31.805C96.6688 31.595 96.3188 31.31 96.0688 30.95C95.8288 30.58 95.7088 30.165 95.7088 29.705C95.7088 29.255 95.8138 28.85 96.0238 28.49C96.2438 28.13 96.5988 27.845 97.0888 27.635C97.5788 27.425 98.2288 27.32 99.0388 27.32H101.364V28.565H99.1738C98.5338 28.565 98.1038 28.67 97.8838 28.88C97.6638 29.08 97.5538 29.33 97.5538 29.63C97.5538 29.97 97.6888 30.24 97.9588 30.44C98.2288 30.64 98.6038 30.74 99.0838 30.74C99.5438 30.74 99.9538 30.635 100.314 30.425C100.684 30.215 100.949 29.905 101.109 29.495L101.424 30.62C101.244 31.09 100.919 31.455 100.449 31.715C99.9888 31.975 99.4038 32.105 98.6938 32.105ZM109.935 23.9C110.575 23.9 111.145 24.025 111.645 24.275C112.155 24.525 112.555 24.91 112.845 25.43C113.135 25.94 113.28 26.6 113.28 27.41V32H111.405V27.65C111.405 26.94 111.235 26.41 110.895 26.06C110.565 25.71 110.1 25.535 109.5 25.535C109.06 25.535 108.67 25.625 108.33 25.805C107.99 25.985 107.725 26.255 107.535 26.615C107.355 26.965 107.265 27.41 107.265 27.95V32H105.39V23.99H107.175V26.15L106.86 25.49C107.14 24.98 107.545 24.59 108.075 24.32C108.615 24.04 109.235 23.9 109.935 23.9ZM117.189 30.215L117.234 27.86L121.419 23.99H123.669L120.114 27.56L119.124 28.385L117.189 30.215ZM115.659 32V20.87H117.534V32H115.659ZM121.704 32L118.779 28.385L119.964 26.885L123.984 32H121.704ZM125.195 32V23.99H127.07V32H125.195ZM126.14 22.67C125.79 22.67 125.5 22.56 125.27 22.34C125.05 22.12 124.94 21.855 124.94 21.545C124.94 21.225 125.05 20.96 125.27 20.75C125.5 20.53 125.79 20.42 126.14 20.42C126.49 20.42 126.775 20.525 126.995 20.735C127.225 20.935 127.34 21.19 127.34 21.5C127.34 21.83 127.23 22.11 127.01 22.34C126.79 22.56 126.5 22.67 126.14 22.67ZM134.076 23.9C134.716 23.9 135.286 24.025 135.786 24.275C136.296 24.525 136.696 24.91 136.986 25.43C137.276 25.94 137.421 26.6 137.421 27.41V32H135.546V27.65C135.546 26.94 135.376 26.41 135.036 26.06C134.706 25.71 134.241 25.535 133.641 25.535C133.201 25.535 132.811 25.625 132.471 25.805C132.131 25.985 131.866 26.255 131.676 26.615C131.496 26.965 131.406 27.41 131.406 27.95V32H129.531V23.99H131.316V26.15L131.001 25.49C131.281 24.98 131.686 24.59 132.216 24.32C132.756 24.04 133.376 23.9 134.076 23.9ZM143.444 35.015C142.704 35.015 141.979 34.915 141.269 34.715C140.569 34.525 139.994 34.245 139.544 33.875L140.384 32.465C140.734 32.755 141.174 32.985 141.704 33.155C142.244 33.335 142.789 33.425 143.339 33.425C144.219 33.425 144.864 33.22 145.274 32.81C145.684 32.41 145.889 31.805 145.889 30.995V29.57L146.039 27.755L145.979 25.94V23.99H147.764V30.785C147.764 32.235 147.394 33.3 146.654 33.98C145.914 34.67 144.844 35.015 143.444 35.015ZM143.204 31.64C142.444 31.64 141.754 31.48 141.134 31.16C140.524 30.83 140.039 30.375 139.679 29.795C139.329 29.215 139.154 28.535 139.154 27.755C139.154 26.985 139.329 26.31 139.679 25.73C140.039 25.15 140.524 24.7 141.134 24.38C141.754 24.06 142.444 23.9 143.204 23.9C143.884 23.9 144.494 24.035 145.034 24.305C145.574 24.575 146.004 24.995 146.324 25.565C146.654 26.135 146.819 26.865 146.819 27.755C146.819 28.645 146.654 29.38 146.324 29.96C146.004 30.53 145.574 30.955 145.034 31.235C144.494 31.505 143.884 31.64 143.204 31.64ZM143.489 30.05C143.959 30.05 144.379 29.955 144.749 29.765C145.119 29.565 145.404 29.295 145.604 28.955C145.814 28.605 145.919 28.205 145.919 27.755C145.919 27.305 145.814 26.91 145.604 26.57C145.404 26.22 145.119 25.955 144.749 25.775C144.379 25.585 143.959 25.49 143.489 25.49C143.019 25.49 142.594 25.585 142.214 25.775C141.844 25.955 141.554 26.22 141.344 26.57C141.144 26.91 141.044 27.305 141.044 27.755C141.044 28.205 141.144 28.605 141.344 28.955C141.554 29.295 141.844 29.565 142.214 29.765C142.594 29.955 143.019 30.05 143.489 30.05ZM152.704 32.105C152.034 32.105 151.389 32.02 150.769 31.85C150.159 31.67 149.674 31.455 149.314 31.205L150.034 29.78C150.394 30.01 150.824 30.2 151.324 30.35C151.824 30.5 152.324 30.575 152.824 30.575C153.414 30.575 153.839 30.495 154.099 30.335C154.369 30.175 154.504 29.96 154.504 29.69C154.504 29.47 154.414 29.305 154.234 29.195C154.054 29.075 153.819 28.985 153.529 28.925C153.239 28.865 152.914 28.81 152.554 28.76C152.204 28.71 151.849 28.645 151.489 28.565C151.139 28.475 150.819 28.35 150.529 28.19C150.239 28.02 150.004 27.795 149.824 27.515C149.644 27.235 149.554 26.865 149.554 26.405C149.554 25.895 149.699 25.455 149.989 25.085C150.279 24.705 150.684 24.415 151.204 24.215C151.734 24.005 152.359 23.9 153.079 23.9C153.619 23.9 154.164 23.96 154.714 24.08C155.264 24.2 155.719 24.37 156.079 24.59L155.359 26.015C154.979 25.785 154.594 25.63 154.204 25.55C153.824 25.46 153.444 25.415 153.064 25.415C152.494 25.415 152.069 25.5 151.789 25.67C151.519 25.84 151.384 26.055 151.384 26.315C151.384 26.555 151.474 26.735 151.654 26.855C151.834 26.975 152.069 27.07 152.359 27.14C152.649 27.21 152.969 27.27 153.319 27.32C153.679 27.36 154.034 27.425 154.384 27.515C154.734 27.605 155.054 27.73 155.344 27.89C155.644 28.04 155.884 28.255 156.064 28.535C156.244 28.815 156.334 29.18 156.334 29.63C156.334 30.13 156.184 30.565 155.884 30.935C155.594 31.305 155.179 31.595 154.639 31.805C154.099 32.005 153.454 32.105 152.704 32.105Z" fill="black"/>
<path d="M63.24 90V64L65.52 66.36H57.32V62H68.44V90H63.24ZM85.6744 90.4C83.461 90.4 81.461 89.84 79.6744 88.72C77.9144 87.6 76.5277 85.9733 75.5144 83.84C74.501 81.68 73.9944 79.0667 73.9944 76C73.9944 72.9333 74.501 70.3333 75.5144 68.2C76.5277 66.04 77.9144 64.4 79.6744 63.28C81.461 62.16 83.461 61.6 85.6744 61.6C87.9144 61.6 89.9144 62.16 91.6744 63.28C93.4344 64.4 94.821 66.04 95.8344 68.2C96.8744 70.3333 97.3944 72.9333 97.3944 76C97.3944 79.0667 96.8744 81.68 95.8344 83.84C94.821 85.9733 93.4344 87.6 91.6744 88.72C89.9144 89.84 87.9144 90.4 85.6744 90.4ZM85.6744 85.88C86.981 85.88 88.1144 85.5333 89.0744 84.84C90.0344 84.12 90.781 83.0267 91.3144 81.56C91.8744 80.0933 92.1544 78.24 92.1544 76C92.1544 73.7333 91.8744 71.88 91.3144 70.44C90.781 68.9733 90.0344 67.8933 89.0744 67.2C88.1144 66.48 86.981 66.12 85.6744 66.12C84.421 66.12 83.301 66.48 82.3144 67.2C81.3544 67.8933 80.5944 68.9733 80.0344 70.44C79.501 71.88 79.2344 73.7333 79.2344 76C79.2344 78.24 79.501 80.0933 80.0344 81.56C80.5944 83.0267 81.3544 84.12 82.3144 84.84C83.301 85.5333 84.421 85.88 85.6744 85.88ZM100.64 96.04L102.96 87.2L103.64 90.16C102.706 90.16 101.92 89.88 101.28 89.32C100.666 88.7333 100.36 87.9467 100.36 86.96C100.36 85.9467 100.666 85.1467 101.28 84.56C101.92 83.9467 102.693 83.64 103.6 83.64C104.533 83.64 105.306 83.9467 105.92 84.56C106.533 85.1733 106.84 85.9733 106.84 86.96C106.84 87.2267 106.813 87.52 106.76 87.84C106.706 88.1333 106.613 88.48 106.48 88.88C106.373 89.28 106.186 89.7867 105.92 90.4L103.88 96.04H100.64ZM110.236 90V86.52L121.356 75.96C122.289 75.08 122.983 74.3067 123.436 73.64C123.889 72.9733 124.183 72.36 124.316 71.8C124.476 71.2133 124.556 70.6667 124.556 70.16C124.556 68.88 124.116 67.8933 123.236 67.2C122.356 66.48 121.063 66.12 119.356 66.12C117.996 66.12 116.756 66.36 115.636 66.84C114.543 67.32 113.596 68.0533 112.796 69.04L109.156 66.24C110.249 64.7733 111.716 63.64 113.556 62.84C115.423 62.0133 117.503 61.6 119.796 61.6C121.823 61.6 123.583 61.9333 125.076 62.6C126.596 63.24 127.756 64.16 128.556 65.36C129.383 66.56 129.796 67.9867 129.796 69.64C129.796 70.5467 129.676 71.4533 129.436 72.36C129.196 73.24 128.743 74.1733 128.076 75.16C127.409 76.1467 126.436 77.2533 125.156 78.48L115.596 87.56L114.516 85.6H130.876V90H110.236ZM143.157 90.4C141.184 90.4 139.251 90.12 137.357 89.56C135.491 88.9733 133.917 88.1733 132.637 87.16L134.837 83.12C135.851 83.9467 137.077 84.6133 138.517 85.12C139.984 85.6267 141.504 85.88 143.077 85.88C144.917 85.88 146.357 85.4933 147.397 84.72C148.464 83.9467 148.997 82.9067 148.997 81.6C148.997 80.72 148.771 79.9467 148.317 79.28C147.891 78.6133 147.117 78.1067 145.997 77.76C144.904 77.4133 143.397 77.24 141.477 77.24H134.717L136.157 62H152.597V66.36H138.077L140.797 63.88L139.717 75.28L136.997 72.84H142.637C145.411 72.84 147.637 73.2133 149.317 73.96C151.024 74.68 152.264 75.6933 153.037 77C153.837 78.28 154.237 79.7467 154.237 81.4C154.237 83.0267 153.837 84.52 153.037 85.88C152.237 87.24 151.011 88.3333 149.357 89.16C147.731 89.9867 145.664 90.4 143.157 90.4ZM168.917 90.4C166.703 90.4 164.703 89.84 162.917 88.72C161.157 87.6 159.77 85.9733 158.757 83.84C157.743 81.68 157.237 79.0667 157.237 76C157.237 72.9333 157.743 70.3333 158.757 68.2C159.77 66.04 161.157 64.4 162.917 63.28C164.703 62.16 166.703 61.6 168.917 61.6C171.157 61.6 173.157 62.16 174.917 63.28C176.677 64.4 178.063 66.04 179.077 68.2C180.117 70.3333 180.637 72.9333 180.637 76C180.637 79.0667 180.117 81.68 179.077 83.84C178.063 85.9733 176.677 87.6 174.917 88.72C173.157 89.84 171.157 90.4 168.917 90.4ZM168.917 85.88C170.223 85.88 171.357 85.5333 172.317 84.84C173.277 84.12 174.023 83.0267 174.557 81.56C175.117 80.0933 175.397 78.24 175.397 76C175.397 73.7333 175.117 71.88 174.557 70.44C174.023 68.9733 173.277 67.8933 172.317 67.2C171.357 66.48 170.223 66.12 168.917 66.12C167.663 66.12 166.543 66.48 165.557 67.2C164.597 67.8933 163.837 68.9733 163.277 70.44C162.743 71.88 162.477 73.7333 162.477 76C162.477 78.24 162.743 80.0933 163.277 81.56C163.837 83.0267 164.597 84.12 165.557 84.84C166.543 85.5333 167.663 85.88 168.917 85.88Z" fill="black"/>
<line x1="34.5" y1="125.5" x2="206.5" y2="125.5" stroke="#8DB8FF" stroke-width="3" stroke-linecap="round"/>
</g>
<defs>
<filter id="filter0_d_4008_2709" x="0" y="0" width="240" height="163" filterUnits="userSpaceOnUse" color-interpolation-filters="sRGB">
<feFlood flood-opacity="0" result="BackgroundImageFix"/>
<feColorMatrix in="SourceAlpha" type="matrix" values="0 0 0 0 0 0 0 0 0 0 0 0 0 0 0 0 0 0 127 0" result="hardAlpha"/>
<feOffset dy="4"/>
<feGaussianBlur stdDeviation="5"/>
<feComposite in2="hardAlpha" operator="out"/>
<feColorMatrix type="matrix" values="0 0 0 0 0 0 0 0 0 0 0 0 0 0 0 0 0 0 0.1 0"/>
<feBlend mode="normal" in2="BackgroundImageFix" result="effect1_dropShadow_4008_2709"/>
<feBlend mode="normal" in="SourceGraphic" in2="effect1_dropShadow_4008_2709" result="shape"/>
</filter>
</defs>
</svg>
