<svg width="570" height="324" viewBox="0 0 570 324" fill="none" xmlns="http://www.w3.org/2000/svg">
<g clip-path="url(#clip0_41_32)">
<rect width="570" height="324" fill="#FFF6EB"/>
<g clip-path="url(#clip1_41_32)">
<path d="M385.91 222.47H430.82C430.8 222.264 430.8 222.056 430.82 221.85H385.91V222.47Z" fill="black"/>
<path d="M470.35 32H231.18C228.471 32.0026 225.874 33.0785 223.956 34.9921C222.039 36.9057 220.958 39.5011 220.95 42.21V212.21C220.953 214.922 222.031 217.523 223.949 219.441C225.867 221.359 228.468 222.437 231.18 222.44H350.42V221.82H231.18C228.632 221.817 226.189 220.804 224.388 219.002C222.586 217.201 221.573 214.758 221.57 212.21V42.21C221.573 39.6621 222.586 37.2193 224.388 35.4176C226.189 33.616 228.632 32.6026 231.18 32.6H470.35C472.898 32.6026 475.341 33.616 477.142 35.4176C478.944 37.2193 479.957 39.6621 479.96 42.21V212.21C479.957 214.758 478.944 217.201 477.142 219.002C475.341 220.804 472.898 221.817 470.35 221.82H457.54V222.44H470.35C473.062 222.437 475.663 221.359 477.581 219.441C479.499 217.523 480.577 214.922 480.58 212.21V42.21C480.572 39.5011 479.491 36.9057 477.574 34.9921C475.656 33.0785 473.059 32.0026 470.35 32Z" fill="black"/>
<path d="M480.16 54.49H221.55C221.504 54.4982 221.457 54.4963 221.411 54.4842C221.366 54.4722 221.324 54.4504 221.288 54.4204C221.252 54.3903 221.223 54.3528 221.204 54.3104C221.184 54.268 221.174 54.2218 221.174 54.175C221.174 54.1282 221.184 54.082 221.204 54.0396C221.223 53.9972 221.252 53.9596 221.288 53.9296C221.324 53.8996 221.366 53.8778 221.411 53.8657C221.457 53.8537 221.504 53.8517 221.55 53.86H480.16C480.234 53.8732 480.301 53.912 480.349 53.9696C480.397 54.0272 480.424 54.0999 480.424 54.175C480.424 54.2501 480.397 54.3228 480.349 54.3804C480.301 54.438 480.234 54.4768 480.16 54.49Z" fill="black"/>
<path d="M460.59 47.2399C462.749 47.2399 464.5 45.4894 464.5 43.3299C464.5 41.1705 462.749 39.4199 460.59 39.4199C458.431 39.4199 456.68 41.1705 456.68 43.3299C456.68 45.4894 458.431 47.2399 460.59 47.2399Z" fill="#1B5A96"/>
<path d="M447.68 47.2399C449.839 47.2399 451.59 45.4894 451.59 43.3299C451.59 41.1705 449.839 39.4199 447.68 39.4199C445.52 39.4199 443.77 41.1705 443.77 43.3299C443.77 45.4894 445.52 47.2399 447.68 47.2399Z" fill="#FB9100"/>
<path d="M434.76 47.2399C436.919 47.2399 438.67 45.4894 438.67 43.3299C438.67 41.1705 436.919 39.4199 434.76 39.4199C432.601 39.4199 430.85 41.1705 430.85 43.3299C430.85 45.4894 432.601 47.2399 434.76 47.2399Z" fill="#1B5A96"/>
<path d="M361.5 133.78H233.5C233.418 133.78 233.339 133.747 233.281 133.689C233.223 133.631 233.19 133.552 233.19 133.47V64.65C233.19 64.5678 233.223 64.4889 233.281 64.4308C233.339 64.3727 233.418 64.34 233.5 64.34H361.5C361.541 64.3387 361.583 64.3457 361.622 64.3607C361.66 64.3757 361.696 64.3983 361.726 64.4272C361.755 64.4561 361.779 64.4907 361.795 64.529C361.812 64.5673 361.82 64.6084 361.82 64.65V133.47C361.82 133.512 361.812 133.553 361.795 133.591C361.779 133.629 361.755 133.664 361.726 133.693C361.696 133.722 361.66 133.744 361.622 133.759C361.583 133.774 361.541 133.781 361.5 133.78ZM233.86 133.15H361.19V64.96H233.86V133.15Z" fill="black"/>
<path d="M255.66 88.8799H247.3V125.04H255.66V88.8799Z" fill="#FB9100"/>
<path d="M255.66 125.36H247.29C247.205 125.36 247.124 125.326 247.064 125.266C247.004 125.206 246.97 125.125 246.97 125.04V88.88C246.97 88.8384 246.978 88.7973 246.994 88.759C247.011 88.7207 247.034 88.6861 247.064 88.6572C247.094 88.6282 247.13 88.6056 247.168 88.5906C247.207 88.5757 247.248 88.5686 247.29 88.57H255.65C255.732 88.57 255.811 88.6026 255.869 88.6608C255.927 88.7189 255.96 88.7978 255.96 88.88V125.04C255.96 125.122 255.929 125.2 255.873 125.259C255.818 125.319 255.741 125.355 255.66 125.36ZM247.61 124.73H255.34V89.21H247.61V124.73Z" fill="black"/>
<path d="M268.82 93.46H260.46V125.04H268.82V93.46Z" fill="#FB9100"/>
<path d="M268.81 125.36H260.45C260.367 125.357 260.288 125.323 260.23 125.263C260.172 125.203 260.14 125.123 260.14 125.04V93.4601C260.14 93.3778 260.173 93.299 260.231 93.2409C260.289 93.1827 260.368 93.1501 260.45 93.1501H268.81C268.851 93.1487 268.893 93.1557 268.932 93.1707C268.97 93.1857 269.006 93.2083 269.036 93.2372C269.065 93.2662 269.089 93.3008 269.105 93.3391C269.122 93.3774 269.13 93.4185 269.13 93.4601V125.04C269.13 125.125 269.096 125.206 269.036 125.266C268.976 125.326 268.895 125.36 268.81 125.36ZM260.81 124.73H268.54V93.7801H260.81V124.73Z" fill="black"/>
<path d="M281.97 103.62H273.61V125.04H281.97V103.62Z" fill="#FB9100"/>
<path d="M281.97 125.36H273.61C273.527 125.357 273.448 125.323 273.39 125.263C273.332 125.203 273.3 125.123 273.3 125.04V103.62C273.3 103.538 273.333 103.459 273.391 103.401C273.449 103.343 273.528 103.31 273.61 103.31H281.97C282.052 103.31 282.131 103.343 282.189 103.401C282.247 103.459 282.28 103.538 282.28 103.62V125.04C282.28 125.123 282.248 125.203 282.19 125.263C282.132 125.323 282.053 125.357 281.97 125.36ZM273.92 124.73H281.66V103.94H273.92V124.73Z" fill="black"/>
<path d="M295.13 73.0701H286.77V125.04H295.13V73.0701Z" fill="#FB9100"/>
<path d="M295.12 125.36H286.77C286.685 125.36 286.604 125.326 286.544 125.266C286.484 125.206 286.45 125.125 286.45 125.04V73.0399C286.45 72.9983 286.458 72.9572 286.474 72.9189C286.491 72.8806 286.514 72.846 286.544 72.8171C286.574 72.7882 286.609 72.7655 286.648 72.7506C286.687 72.7356 286.728 72.7286 286.77 72.7299H295.12C295.161 72.7286 295.203 72.7356 295.242 72.7506C295.28 72.7655 295.316 72.7882 295.346 72.8171C295.375 72.846 295.399 72.8806 295.415 72.9189C295.432 72.9572 295.44 72.9983 295.44 73.0399V125.04C295.44 125.125 295.406 125.206 295.346 125.266C295.286 125.326 295.205 125.36 295.12 125.36ZM287.12 124.73H294.85V73.3899H287.12V124.73Z" fill="black"/>
<path d="M308.29 85.8401H299.93V125.03H308.29V85.8401Z" fill="#FB9100"/>
<path d="M308.29 125.36H299.93C299.847 125.357 299.768 125.323 299.71 125.263C299.652 125.203 299.62 125.123 299.62 125.04V85.85C299.619 85.8085 299.626 85.7671 299.641 85.7283C299.656 85.6896 299.678 85.6542 299.707 85.6243C299.736 85.5945 299.771 85.5707 299.809 85.5545C299.847 85.5383 299.888 85.53 299.93 85.53H308.29C308.331 85.53 308.373 85.5383 308.411 85.5545C308.449 85.5707 308.484 85.5945 308.513 85.6243C308.542 85.6542 308.564 85.6896 308.579 85.7283C308.594 85.7671 308.601 85.8085 308.6 85.85V125.04C308.6 125.123 308.568 125.203 308.51 125.263C308.452 125.323 308.373 125.357 308.29 125.36ZM300.29 124.73H308.02V86.21H300.29V124.73Z" fill="black"/>
<path d="M321.44 91H313.08V125.04H321.44V91Z" fill="#FB9100"/>
<path d="M321.44 125.36H313.08C312.997 125.357 312.918 125.323 312.86 125.263C312.802 125.203 312.77 125.123 312.77 125.04V91.04C312.77 90.9578 312.803 90.8789 312.861 90.8208C312.919 90.7626 312.998 90.73 313.08 90.73H321.44C321.522 90.73 321.601 90.7626 321.659 90.8208C321.717 90.8789 321.75 90.9578 321.75 91.04V125.04C321.75 125.123 321.718 125.203 321.66 125.263C321.602 125.323 321.523 125.357 321.44 125.36ZM313.44 124.73H321.17V91.31H313.39L313.44 124.73Z" fill="black"/>
<path d="M334.6 109.55H326.24V125.03H334.6V109.55Z" fill="#FB9100"/>
<path d="M334.59 125.36H326.29C326.205 125.36 326.124 125.326 326.064 125.266C326.004 125.206 325.97 125.125 325.97 125.04V109.56C325.966 109.515 325.971 109.471 325.985 109.428C325.999 109.386 326.022 109.347 326.052 109.314C326.082 109.281 326.119 109.255 326.16 109.237C326.201 109.219 326.245 109.21 326.29 109.21H334.64C334.725 109.21 334.806 109.244 334.866 109.304C334.926 109.364 334.96 109.445 334.96 109.53V125.01C334.965 125.059 334.959 125.109 334.942 125.155C334.925 125.201 334.897 125.243 334.862 125.277C334.826 125.311 334.783 125.336 334.736 125.35C334.688 125.365 334.639 125.368 334.59 125.36ZM326.59 124.73H334.29V109.87H326.56L326.59 124.73Z" fill="black"/>
<path d="M347.76 90.7H339.4V125.04H347.76V90.7Z" fill="#FB9100"/>
<path d="M347.75 125.36H339.39C339.307 125.357 339.228 125.322 339.17 125.263C339.112 125.203 339.08 125.123 339.08 125.04V90.6999C339.08 90.6592 339.088 90.6189 339.104 90.5813C339.119 90.5436 339.142 90.5095 339.171 90.4807C339.2 90.4519 339.234 90.4291 339.271 90.4135C339.309 90.3979 339.349 90.3899 339.39 90.3899H347.75C347.791 90.3899 347.831 90.3979 347.869 90.4135C347.906 90.4291 347.94 90.4519 347.969 90.4807C347.998 90.5095 348.021 90.5436 348.036 90.5813C348.052 90.6189 348.06 90.6592 348.06 90.6999V125.04C348.06 125.123 348.028 125.203 347.97 125.263C347.912 125.322 347.833 125.357 347.75 125.36ZM339.75 124.73H347.49V91.0199H339.75V124.73Z" fill="black"/>
<path d="M436.75 106.95C448.414 106.95 457.87 97.4807 457.87 85.7999C457.87 74.1191 448.414 64.6499 436.75 64.6499C425.086 64.6499 415.63 74.1191 415.63 85.7999C415.63 97.4807 425.086 106.95 436.75 106.95Z" fill="#1B5A96"/>
<mask id="mask0_41_32" style="mask-type:luminance" maskUnits="userSpaceOnUse" x="418" y="67" width="38" height="38">
<path d="M436.74 104.32C446.957 104.32 455.24 96.0283 455.24 85.8C455.24 75.5717 446.957 67.28 436.74 67.28C426.523 67.28 418.24 75.5717 418.24 85.8C418.24 96.0283 426.523 104.32 436.74 104.32Z" fill="white"/>
</mask>
<g mask="url(#mask0_41_32)">
<path d="M448.29 106.14H425.18C425.093 106.138 425.01 106.102 424.95 106.04C424.92 106.011 424.896 105.974 424.883 105.935C424.869 105.895 424.864 105.852 424.87 105.81L426.02 82.81C426.38 75.47 431.09 69.72 436.74 69.72C442.39 69.72 447.1 75.47 447.47 82.81L448.62 105.81C448.621 105.852 448.613 105.895 448.598 105.934C448.583 105.973 448.559 106.01 448.53 106.04C448.499 106.072 448.461 106.097 448.42 106.115C448.379 106.132 448.335 106.14 448.29 106.14ZM425.5 105.51H447.96L446.83 82.82C446.48 75.82 442.04 70.33 436.73 70.33C431.42 70.33 426.98 75.81 426.63 82.82L425.5 105.51Z" fill="#FFF6EB"/>
<path d="M447.2 94.7301L436.74 92.3201L426.29 94.7301C424.909 95.0527 423.638 95.7367 422.609 96.7119C421.579 97.6871 420.827 98.9186 420.43 100.28L418.16 112.28H455.29L453.02 100.28C452.626 98.9235 451.88 97.6954 450.858 96.7206C449.836 95.7458 448.574 95.059 447.2 94.7301Z" fill="#FFF6EB"/>
<path d="M436.74 98.8101C435.543 98.8074 434.396 98.33 433.55 97.4827C432.705 96.6353 432.23 95.4871 432.23 94.2901V85.8301H441.23V94.2901C441.23 95.4837 440.758 96.6288 439.917 97.4756C439.076 98.3224 437.934 98.8022 436.74 98.8101Z" fill="#FFF6EB"/>
<path d="M444.29 79.97C443.958 79.8864 443.607 79.9109 443.29 80.04C443.03 75.86 440.18 73.04 436.7 73.04C433.22 73.04 430.38 75.88 430.12 80.04C429.803 79.9109 429.452 79.8864 429.12 79.97C428.654 80.1766 428.275 80.5399 428.049 80.997C427.823 81.454 427.764 81.9758 427.883 82.4715C428.002 82.9673 428.291 83.4058 428.7 83.7106C429.108 84.0154 429.611 84.1674 430.12 84.14C430.274 84.1009 430.422 84.0403 430.56 83.96C431.56 87.05 433.91 89.41 436.64 89.41C439.37 89.41 441.72 87.05 442.72 83.96C442.857 84.0403 443.006 84.1009 443.16 84.14C443.681 84.224 444.214 84.0987 444.643 83.7915C445.072 83.4844 445.362 83.0202 445.45 82.5C445.623 82.0103 445.599 81.4724 445.382 81.0002C445.166 80.528 444.774 80.1585 444.29 79.97Z" fill="#FFF6EB"/>
<path d="M436.74 89.72C434.12 89.72 431.64 87.6 430.48 84.39L430.3 84.45C430.014 84.5169 429.718 84.5202 429.431 84.4597C429.144 84.3992 428.874 84.2764 428.64 84.1C428.14 83.7206 427.787 83.1801 427.64 82.57C427.456 81.9891 427.509 81.3594 427.786 80.8168C428.063 80.2742 428.542 79.8623 429.12 79.67C429.371 79.6214 429.629 79.6214 429.88 79.67C430.3 75.67 433.13 72.74 436.75 72.74C440.37 72.74 443.21 75.63 443.62 79.67C443.871 79.6214 444.129 79.6214 444.38 79.67C444.958 79.8623 445.437 80.2742 445.714 80.8168C445.991 81.3594 446.043 81.9891 445.86 82.57C445.717 83.1818 445.363 83.7235 444.86 84.1C444.627 84.275 444.359 84.397 444.074 84.4574C443.789 84.5179 443.494 84.5154 443.21 84.45L443.03 84.39C441.85 87.6 439.36 89.72 436.74 89.72ZM430.66 83.65C430.696 83.6407 430.734 83.6407 430.77 83.65C430.814 83.6647 430.854 83.6895 430.887 83.7225C430.92 83.7555 430.945 83.7957 430.96 83.84C431.96 86.97 434.3 89.08 436.74 89.08C439.18 89.08 441.51 86.97 442.53 83.84C442.545 83.7957 442.569 83.7555 442.602 83.7225C442.635 83.6895 442.676 83.6647 442.72 83.65C442.762 83.6281 442.808 83.6167 442.855 83.6167C442.902 83.6167 442.948 83.6281 442.99 83.65C443.098 83.7185 443.216 83.7691 443.34 83.8C443.537 83.8441 443.741 83.8446 443.938 83.8014C444.135 83.7582 444.32 83.6724 444.48 83.55C444.865 83.2639 445.135 82.8486 445.24 82.38C445.386 81.9633 445.363 81.5062 445.176 81.1063C444.989 80.7064 444.653 80.3954 444.24 80.24C443.981 80.1721 443.708 80.1897 443.46 80.29C443.417 80.3146 443.369 80.3275 443.32 80.3275C443.271 80.3275 443.222 80.3146 443.18 80.29C443.137 80.2654 443.101 80.2307 443.075 80.1888C443.049 80.1469 443.033 80.0992 443.03 80.05C442.79 76.15 440.15 73.33 436.76 73.33C433.37 73.33 430.76 76.15 430.49 80.05C430.486 80.0979 430.472 80.1444 430.447 80.186C430.423 80.2275 430.39 80.2631 430.35 80.29C430.306 80.3145 430.256 80.3274 430.205 80.3274C430.154 80.3274 430.104 80.3145 430.06 80.29C429.812 80.189 429.538 80.1714 429.28 80.24C428.868 80.3975 428.534 80.7087 428.348 81.1079C428.161 81.5072 428.137 81.9632 428.28 82.38C428.385 82.8486 428.654 83.2639 429.04 83.55C429.202 83.6732 429.388 83.7595 429.587 83.8027C429.786 83.8459 429.992 83.845 430.19 83.8C430.313 83.7672 430.431 83.7166 430.54 83.65C430.579 83.6416 430.62 83.6416 430.66 83.65Z" fill="#1B5A96"/>
<path d="M430.05 81.0899C433.34 80.4699 436.77 77.5299 438.83 74.8799C439.121 76.1688 439.688 77.3792 440.492 78.4273C441.297 79.4754 442.32 80.3361 443.49 80.9499C443.49 80.9499 444.49 71.5899 436.74 71.8899C428.99 72.1899 430.05 81.0899 430.05 81.0899Z" fill="#1B5A96"/>
</g>
<path d="M409.64 93.5001H373.75C373.676 93.4869 373.609 93.4481 373.561 93.3905C373.513 93.3329 373.486 93.2602 373.486 93.1851C373.486 93.11 373.513 93.0373 373.561 92.9797C373.609 92.9221 373.676 92.8833 373.75 92.8701H409.64C409.714 92.8833 409.781 92.9221 409.829 92.9797C409.877 93.0373 409.904 93.11 409.904 93.1851C409.904 93.2602 409.877 93.3329 409.829 93.3905C409.781 93.4481 409.714 93.4869 409.64 93.5001Z" fill="black"/>
<path d="M409.64 86.11H373.75C373.668 86.11 373.589 86.0773 373.531 86.0192C373.473 85.9611 373.44 85.8822 373.44 85.8C373.44 85.7178 373.473 85.6389 373.531 85.5808C373.589 85.5227 373.668 85.49 373.75 85.49H409.64C409.722 85.49 409.801 85.5227 409.859 85.5808C409.917 85.6389 409.95 85.7178 409.95 85.8C409.95 85.8822 409.917 85.9611 409.859 86.0192C409.801 86.0773 409.722 86.11 409.64 86.11Z" fill="black"/>
<path d="M409.64 78.7301H373.75C373.676 78.7169 373.609 78.6781 373.561 78.6205C373.513 78.5629 373.486 78.4902 373.486 78.4151C373.486 78.34 373.513 78.2673 373.561 78.2097C373.609 78.1521 373.676 78.1133 373.75 78.1001H409.64C409.714 78.1133 409.781 78.1521 409.829 78.2097C409.877 78.2673 409.904 78.34 409.904 78.4151C409.904 78.4902 409.877 78.5629 409.829 78.6205C409.781 78.6781 409.714 78.7169 409.64 78.7301Z" fill="black"/>
<path d="M436.75 159.77C448.414 159.77 457.87 150.301 457.87 138.62C457.87 126.939 448.414 117.47 436.75 117.47C425.086 117.47 415.63 126.939 415.63 138.62C415.63 150.301 425.086 159.77 436.75 159.77Z" fill="#1B5A96"/>
<mask id="mask1_41_32" style="mask-type:luminance" maskUnits="userSpaceOnUse" x="418" y="120" width="38" height="38">
<path d="M436.74 157.14C446.957 157.14 455.24 148.848 455.24 138.62C455.24 128.392 446.957 120.1 436.74 120.1C426.523 120.1 418.24 128.392 418.24 138.62C418.24 148.848 426.523 157.14 436.74 157.14Z" fill="white"/>
</mask>
<g mask="url(#mask1_41_32)">
<path d="M447.2 147.55L436.74 145.14L426.29 147.55C424.909 147.873 423.638 148.557 422.609 149.532C421.579 150.507 420.827 151.738 420.43 153.1L418.16 165.1H455.29L453.02 153.1C452.626 151.743 451.88 150.515 450.858 149.54C449.836 148.566 448.574 147.879 447.2 147.55Z" fill="#FFF6EB"/>
<path d="M436.74 151.63C436.147 151.63 435.56 151.513 435.012 151.286C434.464 151.058 433.966 150.725 433.547 150.305C433.128 149.886 432.796 149.387 432.57 148.839C432.344 148.291 432.229 147.703 432.23 147.11V138.65H441.23V147.11C441.233 148.304 440.761 149.451 439.92 150.298C439.078 151.146 437.934 151.625 436.74 151.63Z" fill="#FFF6EB"/>
<path d="M444.22 132.93C443.888 132.844 443.537 132.869 443.22 133C442.96 128.86 440.14 126.05 436.7 126.05C433.26 126.05 430.44 128.86 430.18 133C429.863 132.869 429.512 132.844 429.18 132.93C428.718 133.136 428.343 133.496 428.12 133.95C427.897 134.403 427.84 134.921 427.959 135.412C428.078 135.903 428.365 136.337 428.771 136.638C429.177 136.939 429.675 137.089 430.18 137.06C430.334 137.021 430.482 136.96 430.62 136.88C431.62 139.94 433.94 142.28 436.62 142.28C439.3 142.28 441.62 139.94 442.62 136.88C442.753 136.962 442.898 137.023 443.05 137.06C443.555 137.089 444.053 136.939 444.459 136.638C444.865 136.337 445.152 135.903 445.271 135.412C445.39 134.921 445.333 134.403 445.11 133.95C444.887 133.496 444.512 133.136 444.05 132.93H444.22Z" fill="#FFF6EB"/>
<path d="M436.74 142.59C434.05 142.59 431.51 140.33 430.42 136.98C430.394 136.901 430.401 136.814 430.438 136.739C430.476 136.665 430.541 136.607 430.62 136.58C430.698 136.555 430.783 136.562 430.856 136.599C430.929 136.637 430.985 136.702 431.01 136.78C432.01 139.88 434.33 141.96 436.74 141.96C439.15 141.96 441.46 139.88 442.47 136.78C442.495 136.702 442.55 136.637 442.624 136.599C442.697 136.562 442.782 136.555 442.86 136.58C442.9 136.592 442.937 136.613 442.969 136.64C443 136.667 443.026 136.7 443.045 136.737C443.064 136.775 443.075 136.816 443.077 136.857C443.08 136.899 443.074 136.941 443.06 136.98C441.97 140.33 439.43 142.59 436.74 142.59Z" fill="#1B5A96"/>
<path d="M438.95 122.88C433.36 121.94 426.86 123.1 429.61 131.88L430.32 134L431.47 134.77C431.47 134.77 431.14 128.96 432.96 128.66C434.78 128.36 434.79 129.51 436.86 129.46C438.93 129.41 439.03 128.37 440.75 128.66C442.47 128.95 442.25 134.77 442.25 134.77L443.39 134L444.11 131.88C445.92 125.07 443.01 122.37 438.95 122.88Z" fill="#1B5A96"/>
<path d="M442.29 135.13C442.24 135.14 442.189 135.14 442.14 135.13C442.089 135.102 442.046 135.059 442.018 135.008C441.99 134.957 441.976 134.899 441.98 134.84C442.1 132.54 441.8 129.22 440.74 129.04C440.172 128.936 439.585 129.043 439.09 129.34C438.417 129.708 437.656 129.884 436.89 129.85C436.13 129.883 435.376 129.707 434.71 129.34C434.215 129.043 433.628 128.936 433.06 129.04C431.99 129.22 431.69 132.54 431.82 134.84C431.823 134.898 431.81 134.957 431.782 135.008C431.754 135.059 431.711 135.101 431.66 135.129C431.609 135.158 431.551 135.171 431.492 135.167C431.434 135.164 431.378 135.144 431.33 135.11L430.19 134.34C430.133 134.301 430.091 134.245 430.07 134.18L429.35 132.06C428.35 128.67 428.5 126.06 429.95 124.43C432.16 121.9 436.55 122.19 439 122.6C439.847 122.438 440.721 122.49 441.543 122.75C442.365 123.01 443.11 123.471 443.71 124.09C444.71 125.23 445.64 127.53 444.45 132.04L443.73 134.18C443.705 134.243 443.664 134.298 443.61 134.34L442.47 135.11C442.413 135.134 442.351 135.141 442.29 135.13ZM440.29 128.34C440.481 128.338 440.672 128.354 440.86 128.39C442.58 128.67 442.68 132.6 442.65 134.21L443.19 133.84L443.87 131.84C444.75 128.5 444.55 125.95 443.26 124.49C442.718 123.927 442.041 123.514 441.293 123.29C440.545 123.066 439.752 123.038 438.99 123.21H438.9C434.97 122.55 431.9 123.14 430.39 124.84C429.08 126.33 428.92 128.69 429.91 131.84L430.59 133.84L431.13 134.21C431.13 132.6 431.2 128.67 432.91 128.39C433.597 128.265 434.306 128.389 434.91 128.74C435.494 129.061 436.154 129.216 436.82 129.19C437.492 129.217 438.159 129.062 438.75 128.74C439.2 128.481 439.71 128.343 440.23 128.34H440.29Z" fill="#FFF6EB"/>
</g>
<path d="M409.64 146.32H373.75C373.676 146.307 373.609 146.268 373.561 146.21C373.513 146.153 373.486 146.08 373.486 146.005C373.486 145.93 373.513 145.857 373.561 145.8C373.609 145.742 373.676 145.703 373.75 145.69H409.64C409.714 145.703 409.781 145.742 409.829 145.8C409.877 145.857 409.904 145.93 409.904 146.005C409.904 146.08 409.877 146.153 409.829 146.21C409.781 146.268 409.714 146.307 409.64 146.32Z" fill="black"/>
<path d="M409.64 138.93H373.75C373.668 138.93 373.589 138.897 373.531 138.839C373.473 138.781 373.44 138.702 373.44 138.62C373.44 138.538 373.473 138.459 373.531 138.401C373.589 138.343 373.668 138.31 373.75 138.31H409.64C409.722 138.31 409.801 138.343 409.859 138.401C409.917 138.459 409.95 138.538 409.95 138.62C409.95 138.702 409.917 138.781 409.859 138.839C409.801 138.897 409.722 138.93 409.64 138.93Z" fill="black"/>
<path d="M409.64 131.55H373.75C373.676 131.537 373.609 131.498 373.561 131.44C373.513 131.383 373.486 131.31 373.486 131.235C373.486 131.16 373.513 131.087 373.561 131.03C373.609 130.972 373.676 130.933 373.75 130.92H409.64C409.714 130.933 409.781 130.972 409.829 131.03C409.877 131.087 409.904 131.16 409.904 131.235C409.904 131.31 409.877 131.383 409.829 131.44C409.781 131.498 409.714 131.537 409.64 131.55Z" fill="black"/>
<path d="M224.63 234.38L211 281.07L113 271.72L115.43 243.21L96.12 242.85L114.01 197.21C116.898 189.845 121.562 183.308 127.586 178.181C133.61 173.053 140.808 169.494 148.54 167.82L196.75 157.4C207.107 155.157 217.885 155.846 227.873 159.39C237.86 162.933 246.662 169.191 253.29 177.46C260.18 186.04 267.1 195.19 271.68 202.77L228.53 239.77L224.63 234.38Z" fill="#FB9100"/>
<path d="M147.12 244.11C147.084 244.12 147.046 244.12 147.01 244.11C146.972 244.096 146.937 244.074 146.907 244.046C146.878 244.018 146.854 243.984 146.837 243.947C146.82 243.91 146.811 243.87 146.81 243.829C146.809 243.789 146.815 243.748 146.83 243.71L155.03 223.26C155.068 223.193 155.129 223.142 155.201 223.117C155.273 223.091 155.353 223.092 155.424 223.12C155.496 223.148 155.555 223.201 155.591 223.269C155.627 223.336 155.637 223.415 155.62 223.49L147.41 243.94C147.383 243.993 147.341 244.038 147.29 244.068C147.239 244.098 147.179 244.112 147.12 244.11Z" fill="black"/>
<path d="M225.12 232.54H225.02C224.98 232.527 224.943 232.507 224.911 232.48C224.879 232.453 224.853 232.42 224.835 232.383C224.816 232.345 224.805 232.304 224.803 232.263C224.8 232.221 224.806 232.179 224.82 232.14C226.74 226.48 233.01 206.78 233.01 191.19C233.01 191.108 233.043 191.029 233.101 190.971C233.159 190.913 233.238 190.88 233.32 190.88C233.402 190.88 233.481 190.913 233.539 190.971C233.597 191.029 233.63 191.108 233.63 191.19C233.63 206.88 227.34 226.66 225.42 232.35C225.394 232.408 225.352 232.456 225.299 232.49C225.245 232.524 225.183 232.541 225.12 232.54Z" fill="black"/>
<path d="M326.29 178.81C328.17 169.6 320.65 171.67 320.65 171.67C321.95 164.12 314.56 163.48 314.56 163.48C322.47 154.06 324.62 144.67 319.8 145.19C316.08 145.59 299.34 163.25 291.89 171.29C289.54 173.841 287.561 176.709 286.01 179.81L271.29 209.37L268.14 205.81L230.44 238.13C238.291 248.954 248.276 258.054 259.78 264.87C262.857 266.709 266.277 267.899 269.831 268.366C273.384 268.834 276.996 268.57 280.444 267.59C283.892 266.611 287.103 264.936 289.88 262.669C292.656 260.403 294.94 257.592 296.59 254.41C309.4 229.74 320.52 196.92 320.52 196.92C326.36 197.57 326.96 188.45 326.96 188.45C331.59 179.9 326.29 178.81 326.29 178.81Z" fill="#FFCFC5"/>
<path d="M273.15 268.93C268.366 268.924 263.674 267.614 259.58 265.14C248.031 258.317 238.013 249.187 230.15 238.32C230.116 238.288 230.09 238.248 230.073 238.204C230.057 238.161 230.05 238.114 230.053 238.067C230.056 238.021 230.069 237.975 230.092 237.934C230.115 237.893 230.146 237.858 230.184 237.831C230.222 237.803 230.265 237.784 230.311 237.775C230.357 237.766 230.405 237.768 230.45 237.779C230.495 237.791 230.538 237.812 230.574 237.841C230.61 237.871 230.64 237.908 230.66 237.95C238.475 248.751 248.432 257.827 259.91 264.61C262.95 266.432 266.332 267.611 269.845 268.075C273.359 268.539 276.931 268.278 280.34 267.308C283.749 266.338 286.923 264.68 289.666 262.436C292.409 260.192 294.664 257.409 296.29 254.26C308.94 229.9 320.09 197.14 320.2 196.82C320.224 196.753 320.269 196.695 320.328 196.655C320.388 196.615 320.459 196.596 320.53 196.6C321.093 196.679 321.665 196.638 322.212 196.481C322.758 196.325 323.265 196.055 323.7 195.69C326.26 193.55 326.62 188.48 326.63 188.43C326.621 188.387 326.621 188.343 326.63 188.3C328.4 185.06 328.93 182.47 328.17 180.8C327.981 180.39 327.704 180.026 327.358 179.736C327.012 179.445 326.607 179.235 326.17 179.12C326.088 179.103 326.016 179.055 325.97 178.986C325.923 178.917 325.905 178.832 325.92 178.75C326.51 175.85 326.22 173.82 325.05 172.75C323.46 171.26 320.71 171.98 320.68 171.99C320.63 172.004 320.577 172.005 320.526 171.994C320.475 171.982 320.427 171.957 320.389 171.922C320.35 171.887 320.32 171.843 320.303 171.794C320.286 171.744 320.281 171.692 320.29 171.64C320.509 170.735 320.534 169.793 320.361 168.877C320.189 167.962 319.824 167.094 319.29 166.33C318.052 164.926 316.339 164.029 314.48 163.81C314.423 163.808 314.367 163.788 314.321 163.754C314.275 163.721 314.24 163.674 314.22 163.62C314.196 163.568 314.187 163.509 314.196 163.452C314.205 163.395 314.231 163.342 314.27 163.3C320.47 155.91 322.94 148.75 321.66 146.35C321.479 146.027 321.198 145.771 320.859 145.621C320.519 145.471 320.141 145.436 319.78 145.52C317.26 145.79 306.9 155.52 292.07 171.52C289.735 174.041 287.772 176.883 286.24 179.96L271.52 209.51C271.499 209.558 271.466 209.601 271.424 209.632C271.382 209.664 271.332 209.684 271.28 209.69C271.229 209.694 271.179 209.687 271.132 209.668C271.085 209.648 271.043 209.618 271.01 209.58L267.86 206.02C267.831 205.991 267.808 205.957 267.792 205.919C267.776 205.881 267.768 205.841 267.768 205.8C267.768 205.759 267.776 205.719 267.792 205.681C267.808 205.643 267.831 205.609 267.86 205.58C267.921 205.523 268.001 205.491 268.085 205.491C268.168 205.491 268.249 205.523 268.31 205.58L271.15 208.79L285.66 179.65C287.218 176.519 289.215 173.627 291.59 171.06C300.5 161.44 315.99 145.25 319.69 144.85C320.177 144.75 320.684 144.81 321.134 145.021C321.584 145.231 321.955 145.582 322.19 146.02C323.76 148.96 320.65 156.45 315.08 163.23C316.909 163.539 318.57 164.485 319.77 165.9C320.318 166.666 320.706 167.534 320.91 168.454C321.115 169.373 321.132 170.324 320.96 171.25C321.739 171.069 322.548 171.065 323.328 171.238C324.109 171.411 324.841 171.757 325.47 172.25C326.77 173.46 327.14 175.59 326.58 178.57C327.046 178.735 327.475 178.992 327.84 179.325C328.206 179.659 328.502 180.061 328.71 180.51C329.58 182.38 329.07 185.07 327.2 188.51C327.14 189.17 326.68 193.94 324.05 196.14C323.586 196.534 323.048 196.832 322.468 197.017C321.888 197.203 321.277 197.272 320.67 197.22C319.67 200.22 308.9 231.22 296.79 254.52C295.129 257.754 292.817 260.611 290 262.91C287.183 265.209 283.922 266.901 280.42 267.88C278.056 268.56 275.61 268.913 273.15 268.93Z" fill="black"/>
<path d="M264.17 225.75C264.13 225.759 264.089 225.759 264.05 225.75C263.974 225.717 263.914 225.656 263.882 225.579C263.851 225.503 263.85 225.417 263.88 225.34L270.29 210.12C270.304 210.08 270.326 210.043 270.354 210.011C270.383 209.98 270.418 209.955 270.456 209.937C270.495 209.92 270.537 209.91 270.58 209.91C270.622 209.909 270.664 209.918 270.704 209.934C270.743 209.951 270.778 209.975 270.808 210.006C270.837 210.037 270.86 210.073 270.874 210.113C270.889 210.153 270.895 210.196 270.893 210.238C270.89 210.281 270.879 210.322 270.86 210.36L264.45 225.56C264.427 225.615 264.388 225.663 264.338 225.697C264.288 225.73 264.23 225.749 264.17 225.75Z" fill="black"/>
<path d="M303.08 177.67C302.077 177.668 301.075 177.601 300.08 177.47C300.039 177.465 300 177.452 299.964 177.431C299.929 177.411 299.898 177.384 299.872 177.351C299.822 177.285 299.799 177.202 299.81 177.12C299.821 177.038 299.863 176.963 299.929 176.913C299.995 176.862 300.078 176.839 300.16 176.85C304.082 177.365 308.071 176.845 311.73 175.34C313.12 174.76 315.49 173.48 315.68 171.34C315.688 170.566 315.471 169.806 315.056 169.153C314.64 168.5 314.044 167.981 313.34 167.66C311.853 167.008 310.229 166.73 308.61 166.85C303.8 166.945 299.069 168.091 294.75 170.21C294.676 170.247 294.59 170.253 294.511 170.227C294.432 170.201 294.367 170.144 294.33 170.07C294.293 169.996 294.287 169.91 294.313 169.831C294.339 169.752 294.396 169.687 294.47 169.65C298.864 167.483 303.681 166.309 308.58 166.21C310.293 166.078 312.012 166.377 313.58 167.08C314.395 167.46 315.083 168.069 315.559 168.832C316.034 169.595 316.278 170.481 316.26 171.38C316.04 173.83 313.45 175.26 311.92 175.89C309.118 177.055 306.115 177.659 303.08 177.67Z" fill="black"/>
<path d="M306.8 188.28C306.371 188.294 305.944 188.211 305.551 188.038C305.158 187.865 304.809 187.606 304.53 187.28C304.035 186.52 303.826 185.609 303.94 184.71C304.093 181.845 305.226 179.119 307.15 176.99C307.206 176.929 307.283 176.893 307.366 176.889C307.448 176.885 307.529 176.914 307.59 176.97C307.651 177.026 307.687 177.103 307.691 177.186C307.695 177.268 307.666 177.349 307.61 177.41C305.787 179.434 304.711 182.02 304.56 184.74C304.462 185.493 304.628 186.256 305.03 186.9C305.274 187.169 305.577 187.377 305.916 187.507C306.254 187.637 306.619 187.686 306.98 187.65C307.762 187.557 308.518 187.316 309.21 186.94C311.987 185.533 314.413 183.52 316.308 181.05C318.203 178.581 319.52 175.717 320.16 172.67C320.161 172.624 320.173 172.578 320.193 172.536C320.214 172.495 320.243 172.458 320.28 172.429C320.316 172.4 320.358 172.379 320.403 172.368C320.448 172.357 320.495 172.356 320.541 172.365C320.586 172.374 320.629 172.392 320.667 172.419C320.705 172.446 320.736 172.481 320.759 172.522C320.781 172.562 320.795 172.607 320.799 172.654C320.802 172.7 320.796 172.746 320.78 172.79C320.12 175.932 318.762 178.886 316.806 181.432C314.85 183.979 312.346 186.052 309.48 187.5C308.719 187.918 307.883 188.18 307.02 188.27L306.8 188.28Z" fill="black"/>
<path d="M314.29 190.68C314.025 190.68 313.761 190.66 313.5 190.62C312.427 190.437 311.469 189.841 310.83 188.96C310.586 188.64 310.409 188.274 310.309 187.884C310.21 187.494 310.189 187.088 310.25 186.69C310.257 186.649 310.272 186.61 310.295 186.575C310.318 186.54 310.347 186.51 310.382 186.486C310.416 186.463 310.455 186.447 310.496 186.439C310.537 186.431 310.579 186.431 310.62 186.44C310.661 186.446 310.7 186.46 310.735 186.482C310.77 186.504 310.8 186.532 310.823 186.566C310.847 186.6 310.863 186.638 310.871 186.678C310.879 186.718 310.879 186.76 310.87 186.8C310.824 187.116 310.842 187.439 310.923 187.748C311.003 188.057 311.145 188.347 311.34 188.6C311.886 189.34 312.695 189.841 313.6 190C315.26 190.141 316.915 189.667 318.25 188.67C321.681 186.517 324.28 183.263 325.62 179.44C325.655 179.372 325.713 179.319 325.784 179.29C325.855 179.261 325.933 179.259 326.006 179.283C326.078 179.307 326.14 179.356 326.179 179.422C326.218 179.487 326.233 179.565 326.22 179.64C324.831 183.598 322.142 186.968 318.59 189.2C317.324 190.088 315.834 190.601 314.29 190.68Z" fill="black"/>
<path d="M318.73 193.91C318.027 193.926 317.333 193.742 316.73 193.38C316.259 193.096 315.906 192.65 315.739 192.126C315.572 191.602 315.6 191.035 315.82 190.53C315.839 190.492 315.865 190.459 315.897 190.432C315.93 190.405 315.967 190.385 316.007 190.373C316.047 190.361 316.09 190.357 316.131 190.361C316.173 190.366 316.213 190.379 316.25 190.4C316.286 190.419 316.318 190.445 316.344 190.476C316.37 190.508 316.389 190.545 316.401 190.584C316.412 190.623 316.415 190.665 316.41 190.705C316.404 190.746 316.391 190.785 316.37 190.82C316.235 191.183 316.232 191.581 316.359 191.946C316.487 192.311 316.738 192.62 317.07 192.82C317.838 193.244 318.733 193.375 319.59 193.19C320.931 192.977 322.201 192.446 323.295 191.643C324.389 190.839 325.275 189.785 325.88 188.57C325.919 188.497 325.983 188.441 326.061 188.413C326.139 188.385 326.224 188.388 326.3 188.42C326.375 188.457 326.432 188.521 326.46 188.6C326.488 188.678 326.485 188.764 326.45 188.84C325.814 190.162 324.865 191.309 323.685 192.18C322.505 193.052 321.13 193.621 319.68 193.84C319.365 193.883 319.048 193.907 318.73 193.91Z" fill="black"/>
<path d="M321.07 197.21C320.638 197.21 320.212 197.102 319.833 196.895C319.454 196.689 319.132 196.39 318.898 196.027C318.664 195.663 318.525 195.247 318.494 194.816C318.463 194.385 318.541 193.953 318.72 193.56C318.736 193.522 318.76 193.488 318.789 193.46C318.819 193.432 318.854 193.41 318.893 193.396C318.931 193.382 318.972 193.376 319.013 193.379C319.053 193.381 319.093 193.392 319.13 193.41C319.167 193.426 319.201 193.45 319.23 193.479C319.258 193.509 319.28 193.543 319.295 193.582C319.31 193.62 319.317 193.66 319.316 193.701C319.315 193.742 319.306 193.783 319.29 193.82C319.162 194.126 319.113 194.458 319.146 194.788C319.178 195.118 319.293 195.434 319.478 195.709C319.663 195.984 319.914 196.208 320.208 196.362C320.501 196.516 320.829 196.594 321.16 196.59C321.242 196.59 321.321 196.623 321.379 196.681C321.437 196.739 321.47 196.818 321.47 196.9C321.47 196.982 321.437 197.061 321.379 197.119C321.321 197.177 321.242 197.21 321.16 197.21H321.07Z" fill="#281D57"/>
<path d="M224.45 283.36C224.991 284.205 225.295 285.18 225.328 286.182C225.362 287.185 225.125 288.178 224.642 289.057C224.159 289.936 223.448 290.669 222.583 291.178C221.719 291.687 220.733 291.954 219.73 291.95H113.29C100.37 292.47 87.3899 277.42 90.6899 263.02C91.6899 259.11 92.45 256.02 92.95 253.87C93.7279 250.132 94.7774 246.455 96.09 242.87C96.32 242.27 96.5099 241.79 96.6399 241.46C101.312 241.376 105.985 241.537 110.64 241.94C118.64 242.6 137.34 244.26 145.64 247.61L141.37 260.07L188.17 260.75C198.42 260.75 207.17 267.25 215.26 273.56C218.844 276.296 221.95 279.608 224.45 283.36Z" fill="#FFCFC5"/>
<path d="M219.59 292.42L114.86 292.27C111.126 292.269 107.441 291.427 104.077 289.807C100.713 288.186 97.7583 285.828 95.4313 282.908C93.1042 279.988 91.465 276.581 90.6355 272.941C89.806 269.3 89.8075 265.52 90.6399 261.88L90.9199 260.76C92.3199 255.22 94.2399 247.64 96.3899 241.31C96.4165 241.232 96.473 241.167 96.547 241.131C96.6211 241.094 96.7067 241.089 96.7849 241.115C96.8632 241.142 96.9277 241.198 96.9642 241.272C97.0008 241.346 97.0065 241.432 96.9799 241.51C94.8399 247.82 92.9299 255.39 91.5299 260.91L91.2899 262.02C90.4785 265.568 90.477 269.253 91.2857 272.802C92.0944 276.35 93.6923 279.671 95.9608 282.517C98.2294 285.363 101.11 287.661 104.389 289.24C107.668 290.82 111.26 291.64 114.9 291.64L219.63 291.79C220.578 291.797 221.509 291.545 222.325 291.063C223.141 290.58 223.81 289.884 224.26 289.05C224.722 288.234 224.953 287.308 224.929 286.371C224.904 285.433 224.624 284.52 224.12 283.73C221.514 279.595 218.184 275.964 214.29 273.01L213.12 272.12C213.054 272.07 213.01 271.995 212.999 271.913C212.988 271.83 213.01 271.746 213.06 271.68C213.11 271.614 213.185 271.57 213.268 271.559C213.35 271.548 213.434 271.57 213.5 271.62L214.67 272.52C218.601 275.521 221.959 279.206 224.58 283.4C225.151 284.291 225.468 285.32 225.496 286.378C225.525 287.435 225.263 288.481 224.74 289.4C224.231 290.319 223.484 291.084 222.578 291.615C221.672 292.146 220.64 292.424 219.59 292.42Z" fill="black"/>
<path d="M215.62 287.86C215.558 287.862 215.497 287.845 215.445 287.811C215.393 287.777 215.353 287.728 215.33 287.67C214.148 284.792 212.382 282.191 210.145 280.029C207.907 277.867 205.247 276.192 202.33 275.11C202.252 275.079 202.19 275.018 202.156 274.942C202.123 274.865 202.12 274.778 202.15 274.7C202.165 274.662 202.188 274.627 202.217 274.597C202.246 274.568 202.281 274.544 202.319 274.529C202.357 274.513 202.398 274.505 202.44 274.505C202.481 274.505 202.522 274.514 202.56 274.53C205.549 275.645 208.274 277.367 210.565 279.587C212.856 281.807 214.662 284.478 215.87 287.43C215.9 287.507 215.899 287.593 215.868 287.669C215.836 287.746 215.776 287.807 215.7 287.84L215.62 287.86Z" fill="black"/>
<path d="M201.73 287.86C201.668 287.861 201.608 287.843 201.556 287.809C201.504 287.776 201.464 287.727 201.44 287.67C200.322 285.233 198.72 283.048 196.731 281.25C194.742 279.452 192.407 278.077 189.87 277.21C189.791 277.183 189.726 277.126 189.688 277.051C189.651 276.976 189.644 276.89 189.67 276.81C189.699 276.733 189.757 276.669 189.831 276.632C189.905 276.595 189.99 276.587 190.07 276.61C192.694 277.513 195.107 278.942 197.16 280.809C199.213 282.676 200.863 284.943 202.01 287.47C202.026 287.508 202.036 287.548 202.036 287.589C202.037 287.63 202.03 287.67 202.015 287.708C202 287.747 201.978 287.781 201.95 287.811C201.921 287.84 201.887 287.864 201.85 287.88L201.73 287.86Z" fill="black"/>
<path d="M216.17 112.21C215.29 105.32 210.74 98.8099 204.23 96.4099C197.72 94.0099 189.52 96.4099 185.96 102.34C185.38 103.34 184.83 104.44 183.79 104.88C182.75 105.32 181.47 104.88 180.32 104.63C178.061 104.124 175.698 104.373 173.593 105.338C171.488 106.302 169.758 107.931 168.666 109.972C167.575 112.014 167.183 114.358 167.55 116.644C167.918 118.93 169.024 121.033 170.7 122.63C169.87 123.003 169.182 123.63 168.734 124.422C168.286 125.213 168.102 126.127 168.21 127.03C168.474 128.835 169.259 130.525 170.47 131.89C172.929 134.961 176.073 137.412 179.65 139.048C183.228 140.684 187.139 141.459 191.07 141.31C205.44 140.66 218.02 126.69 216.17 112.21Z" fill="black"/>
<path d="M199.05 156.83L197.95 157.08C197.721 157.136 197.482 157.133 197.254 157.073C197.026 157.012 196.817 156.896 196.646 156.734C196.475 156.572 196.347 156.369 196.274 156.145C196.202 155.921 196.186 155.682 196.23 155.45L197.67 147.63C197.67 147.63 194.83 135.09 179.27 137.8L174.88 159.13C174.663 160.174 174.152 161.134 173.408 161.897C172.664 162.661 171.718 163.196 170.68 163.44C170.68 163.44 189.47 173.6 199.05 156.83Z" fill="#FFCFC5"/>
<path d="M170.68 163.75C170.609 163.748 170.541 163.724 170.485 163.681C170.43 163.638 170.389 163.578 170.37 163.51C170.352 163.428 170.367 163.342 170.412 163.271C170.457 163.2 170.528 163.149 170.61 163.13C171.596 162.908 172.497 162.407 173.206 161.687C173.915 160.968 174.403 160.059 174.61 159.07L179 137.74C179.014 137.678 179.047 137.621 179.093 137.576C179.139 137.532 179.197 137.502 179.26 137.49C194.93 134.76 197.99 147.43 198.02 147.56C198.03 147.599 198.03 147.641 198.02 147.68L196.58 155.51C196.543 155.691 196.554 155.878 196.612 156.054C196.67 156.229 196.773 156.386 196.91 156.51C197.04 156.636 197.2 156.728 197.374 156.777C197.549 156.826 197.733 156.83 197.91 156.79L199.02 156.53C199.101 156.511 199.186 156.526 199.256 156.57C199.326 156.614 199.376 156.684 199.395 156.765C199.413 156.846 199.399 156.931 199.355 157.001C199.311 157.071 199.241 157.121 199.16 157.14L198.06 157.4C197.78 157.464 197.488 157.459 197.211 157.384C196.934 157.309 196.679 157.167 196.47 156.97C196.263 156.77 196.108 156.522 196.021 156.248C195.934 155.974 195.916 155.683 195.97 155.4L197.39 147.65C196.774 145.496 195.645 143.523 194.1 141.9C190.69 138.33 185.81 137.05 179.57 138.09L175.18 159.21C174.952 160.312 174.414 161.326 173.629 162.132C172.844 162.938 171.845 163.503 170.75 163.76L170.68 163.75Z" fill="black"/>
<path d="M184.21 141.15C185.194 144.055 186.917 146.653 189.21 148.69C191.526 150.737 194.542 151.812 197.63 151.69C202.73 151.33 206.89 147.1 208.72 142.34C210.55 137.58 210.51 132.34 210.4 127.22C210.4 127.22 209.04 121.47 205.11 118.11C204.001 117.164 202.564 116.693 201.11 116.8C178.32 118.4 191.94 132.33 187.02 134.58C187.02 134.58 183.71 130.18 181.49 130.32C180.291 130.436 179.167 130.956 178.304 131.796C177.44 132.636 176.889 133.745 176.74 134.94C176.661 136.146 176.953 137.347 177.577 138.382C178.201 139.417 179.127 140.237 180.23 140.73C181.451 141.385 182.879 141.536 184.21 141.15Z" fill="#FFCFC5"/>
<path d="M196.94 151.98C194.024 151.924 191.22 150.844 189.02 148.93C186.754 146.926 185.034 144.38 184.02 141.53C182.694 141.807 181.314 141.608 180.12 140.97C178.954 140.452 177.975 139.588 177.317 138.495C176.659 137.402 176.353 136.133 176.44 134.86C176.596 133.598 177.176 132.426 178.084 131.536C178.992 130.646 180.175 130.091 181.44 129.96H181.56C183.64 129.96 186.37 133.24 187.08 134.13C188.14 133.46 187.92 131.91 187.49 129.52C187.01 126.87 186.41 123.52 188.49 120.93C190.57 118.34 194.61 116.93 201.09 116.44C202.627 116.323 204.148 116.819 205.32 117.82C209.32 121.21 210.65 126.82 210.71 127.1C210.71 127.1 210.71 127.1 210.71 127.16C210.81 131.72 210.93 137.4 209.01 142.4C206.91 147.86 202.45 151.61 197.65 151.95C197.43 151.97 197.18 151.98 196.94 151.98ZM184.21 140.84C184.274 140.841 184.336 140.86 184.39 140.895C184.443 140.931 184.485 140.981 184.51 141.04C185.474 143.895 187.166 146.449 189.42 148.45C191.68 150.43 194.618 151.459 197.62 151.32C202.81 150.96 206.79 146.46 208.44 142.17C210.32 137.3 210.2 131.71 210.1 127.17C209.99 126.71 208.58 121.39 204.92 118.26C203.874 117.363 202.514 116.917 201.14 117.02C194.85 117.46 190.88 118.85 189 121.28C187.12 123.71 187.66 126.71 188.15 129.37C188.59 131.82 188.98 133.94 187.15 134.78C187.085 134.81 187.011 134.816 186.942 134.798C186.873 134.78 186.812 134.738 186.77 134.68C185.88 133.49 183.18 130.44 181.51 130.55C180.387 130.662 179.335 131.152 178.525 131.938C177.715 132.724 177.196 133.761 177.05 134.88C176.975 136.022 177.253 137.16 177.845 138.14C178.436 139.119 179.314 139.894 180.36 140.36C181.503 140.995 182.849 141.156 184.11 140.81L184.21 140.84Z" fill="black"/>
<path d="M183.87 138.21C183.793 138.21 183.718 138.181 183.66 138.13C182.758 137.304 181.995 136.339 181.4 135.27C181.379 135.235 181.365 135.196 181.36 135.155C181.355 135.115 181.358 135.073 181.369 135.034C181.38 134.995 181.4 134.958 181.426 134.926C181.451 134.895 181.484 134.869 181.52 134.85C181.556 134.829 181.596 134.815 181.637 134.81C181.678 134.804 181.72 134.807 181.76 134.819C181.801 134.83 181.838 134.849 181.871 134.875C181.903 134.901 181.93 134.933 181.95 134.97C182.51 135.976 183.229 136.884 184.08 137.66C184.139 137.72 184.172 137.801 184.172 137.885C184.172 137.969 184.139 138.05 184.08 138.11C184.024 138.167 183.949 138.202 183.87 138.21Z" fill="black"/>
<path d="M312.36 292.37H184.86C184.014 292.37 183.202 292.034 182.604 291.436C182.006 290.837 181.67 290.026 181.67 289.18V288.43C181.67 286.766 182.33 285.17 183.506 283.993C184.681 282.815 186.276 282.153 187.94 282.15H321.55L320.48 286.15C319.997 287.934 318.94 289.51 317.473 290.634C316.005 291.758 314.208 292.368 312.36 292.37Z" fill="#1B5A96"/>
<path d="M316.09 287.74H237.29C236.506 287.736 235.732 287.554 235.029 287.207C234.325 286.861 233.709 286.359 233.228 285.74C232.746 285.121 232.412 284.4 232.249 283.633C232.087 282.865 232.101 282.071 232.29 281.31L247.19 221.14C247.466 220.02 248.108 219.025 249.013 218.311C249.919 217.598 251.037 217.206 252.19 217.2H330.99C331.774 217.206 332.546 217.389 333.249 217.736C333.951 218.083 334.566 218.585 335.047 219.204C335.528 219.823 335.863 220.542 336.026 221.309C336.19 222.075 336.177 222.869 335.99 223.63L321.09 283.8C320.814 284.919 320.172 285.915 319.267 286.629C318.361 287.342 317.243 287.733 316.09 287.74Z" fill="#1B5A96"/>
<path d="M316.09 287.9H237.29C236.48 287.898 235.681 287.712 234.953 287.355C234.225 286.999 233.588 286.482 233.089 285.844C232.59 285.205 232.243 284.462 232.073 283.67C231.903 282.877 231.916 282.057 232.11 281.27L247.01 221.1C247.294 219.941 247.959 218.911 248.898 218.175C249.838 217.439 250.997 217.039 252.19 217.04H330.99C331.8 217.042 332.599 217.228 333.327 217.585C334.055 217.941 334.692 218.458 335.191 219.096C335.69 219.735 336.037 220.478 336.207 221.27C336.376 222.063 336.364 222.883 336.17 223.67L321.29 283.84C321.005 285.002 320.337 286.035 319.394 286.771C318.45 287.508 317.287 287.905 316.09 287.9ZM252.09 217.36C250.975 217.375 249.897 217.762 249.028 218.459C248.158 219.157 247.546 220.125 247.29 221.21L232.39 281.38C232.2 282.121 232.183 282.896 232.34 283.645C232.497 284.395 232.824 285.098 233.295 285.7C233.767 286.303 234.37 286.79 235.059 287.123C235.748 287.455 236.505 287.626 237.27 287.62H316.09C317.213 287.623 318.304 287.247 319.187 286.554C320.071 285.861 320.695 284.891 320.96 283.8L335.87 223.63C336.056 222.887 336.069 222.111 335.908 221.362C335.747 220.613 335.416 219.911 334.94 219.31C334.471 218.71 333.872 218.226 333.187 217.893C332.503 217.56 331.751 217.388 330.99 217.39L252.09 217.36Z" fill="black"/>
<path d="M291.92 240.42C291.918 240.934 291.764 241.436 291.477 241.862C291.19 242.288 290.783 242.62 290.308 242.815C289.833 243.01 289.31 243.06 288.807 242.959C288.303 242.857 287.841 242.609 287.478 242.245C287.115 241.881 286.869 241.418 286.769 240.914C286.67 240.41 286.722 239.887 286.919 239.413C287.116 238.938 287.449 238.533 287.877 238.248C288.304 237.962 288.806 237.81 289.32 237.81C289.663 237.809 290.002 237.875 290.319 238.006C290.636 238.137 290.923 238.329 291.165 238.572C291.407 238.815 291.598 239.103 291.728 239.42C291.857 239.738 291.923 240.077 291.92 240.42Z" fill="white"/>
<path d="M157.47 97.3701C157.468 97.1227 157.451 96.8755 157.42 96.6301C159.83 96.0523 162.137 95.108 164.26 93.8301C164.416 94.026 164.583 94.213 164.76 94.3901C165.307 95.0151 165.977 95.5209 166.728 95.8761C167.479 96.2312 168.295 96.4282 169.126 96.4547C169.956 96.4812 170.783 96.3367 171.555 96.0302C172.327 95.7237 173.028 95.2616 173.614 94.6728C174.2 94.084 174.659 93.381 174.962 92.6074C175.265 91.8338 175.405 91.0063 175.375 90.1761C175.344 89.3458 175.144 88.5308 174.785 87.7814C174.426 87.0321 173.917 86.3645 173.29 85.8201C173.113 85.6459 172.926 85.4823 172.73 85.3301C174.006 83.2025 174.95 80.8925 175.53 78.4801C175.77 78.4801 176.02 78.4801 176.27 78.5401C177.07 78.5495 177.863 78.3989 178.604 78.0972C179.345 77.7954 180.017 77.3487 180.583 76.7831C181.148 76.2176 181.595 75.5447 181.897 74.804C182.199 74.0634 182.349 73.2698 182.34 72.4701C182.325 70.8628 181.685 69.3244 180.556 68.1804C179.427 67.0363 177.897 66.3764 176.29 66.3401C176.044 66.3199 175.796 66.3199 175.55 66.3401C174.935 63.9172 173.964 61.5987 172.67 59.4601C172.86 59.3101 173.04 59.1501 173.22 58.9801C174.319 57.8186 174.922 56.2741 174.9 54.675C174.878 53.0759 174.233 51.5485 173.102 50.4176C171.972 49.2868 170.444 48.6418 168.845 48.6198C167.246 48.5979 165.701 49.2007 164.54 50.3001C164.367 50.4715 164.206 50.6553 164.06 50.8501C161.921 49.5557 159.603 48.5852 157.18 47.9701C157.2 47.7238 157.2 47.4763 157.18 47.2301C157.169 45.6066 156.521 44.0525 155.373 42.9035C154.226 41.7546 152.673 41.1032 151.05 41.0901C150.189 41.0822 149.336 41.2597 148.55 41.6106C147.764 41.9614 147.062 42.4774 146.493 43.1234C145.924 43.7694 145.5 44.5304 145.251 45.3546C145.002 46.1788 144.934 47.047 145.05 47.9001C142.637 48.4796 140.328 49.4238 138.2 50.7001C138.05 50.5019 137.886 50.3147 137.71 50.1401C137.148 49.5722 136.48 49.1209 135.743 48.8122C135.007 48.5035 134.217 48.3434 133.418 48.3411C132.619 48.3389 131.828 48.4946 131.09 48.7992C130.351 49.1038 129.681 49.5513 129.116 50.116C128.551 50.6808 128.104 51.3516 127.799 52.0899C127.494 52.8282 127.339 53.6194 127.341 54.4181C127.343 55.2167 127.503 56.0071 127.812 56.7437C128.121 57.4802 128.572 58.1485 129.14 58.7101C129.312 58.8891 129.5 59.053 129.7 59.2001C128.424 61.3277 127.479 63.6376 126.9 66.0501C126.65 66.0501 126.41 66.0501 126.16 65.9901C125.36 65.9807 124.567 66.1313 123.826 66.433C123.085 66.7347 122.412 67.1815 121.847 67.747C121.281 68.3126 120.835 68.9855 120.533 69.7261C120.231 70.4668 120.081 71.2604 120.09 72.0601C120.1 73.6828 120.747 75.2365 121.892 76.3868C123.037 77.537 124.587 78.1918 126.21 78.2101C126.456 78.2253 126.703 78.2253 126.95 78.2101C127.563 80.6336 128.534 82.9524 129.83 85.0901C129.637 85.2393 129.454 85.3996 129.28 85.5701C128.269 86.7462 127.741 88.2612 127.801 89.8107C127.862 91.3602 128.506 92.8295 129.605 93.9235C130.704 95.0175 132.176 95.6551 133.726 95.7083C135.276 95.7614 136.788 95.2262 137.96 94.2101C138.13 94.0362 138.291 93.8525 138.44 93.6601C140.567 94.9604 142.876 95.9377 145.29 96.5601C145.258 96.8055 145.241 97.0526 145.24 97.3001C145.253 98.9245 145.904 100.479 147.053 101.627C148.201 102.776 149.755 103.427 151.38 103.44C152.181 103.452 152.977 103.304 153.72 103.003C154.463 102.703 155.138 102.256 155.706 101.69C156.274 101.125 156.722 100.451 157.025 99.7088C157.328 98.9667 157.479 98.1715 157.47 97.3701ZM139.89 72.2101C139.878 70.7272 140.161 69.2568 140.723 67.8846C141.286 66.5124 142.116 65.2659 143.165 64.2178C144.214 63.1696 145.461 62.3409 146.834 61.7799C148.206 61.2188 149.677 60.9368 151.16 60.9501C154.173 60.9736 157.057 62.1812 159.188 64.3122C161.319 66.4431 162.526 69.3266 162.55 72.3401C162.565 73.8233 162.283 75.2946 161.723 76.6679C161.162 78.0412 160.334 79.289 159.285 80.3384C158.237 81.3877 156.99 82.2175 155.617 82.7792C154.244 83.341 152.773 83.6235 151.29 83.6101C148.274 83.5866 145.388 82.3779 143.255 80.2451C141.122 78.1123 139.913 75.2263 139.89 72.2101Z" fill="#FB9100"/>
<path d="M127.53 137.99C127.54 137.82 127.54 137.65 127.53 137.48C129.171 137.084 130.743 136.44 132.19 135.57C132.295 135.707 132.409 135.837 132.53 135.96C132.908 136.37 133.365 136.7 133.874 136.929C134.382 137.158 134.932 137.282 135.49 137.293C136.048 137.305 136.602 137.203 137.119 136.995C137.637 136.787 138.107 136.476 138.501 136.082C138.896 135.687 139.207 135.217 139.415 134.699C139.623 134.182 139.724 133.628 139.713 133.07C139.702 132.512 139.578 131.963 139.349 131.454C139.12 130.945 138.79 130.488 138.38 130.11L137.99 129.77C138.864 128.325 139.508 126.753 139.9 125.11H140.41C140.954 125.114 141.494 125.01 141.997 124.803C142.501 124.596 142.958 124.291 143.343 123.906C143.727 123.52 144.031 123.062 144.237 122.558C144.442 122.054 144.545 121.514 144.54 120.97C144.532 119.864 144.089 118.805 143.307 118.023C142.525 117.241 141.466 116.798 140.36 116.79C140.19 116.78 140.02 116.78 139.85 116.79C139.422 115.135 138.748 113.554 137.85 112.1C137.984 111.998 138.111 111.888 138.23 111.77C138.96 110.974 139.354 109.927 139.331 108.848C139.307 107.768 138.868 106.739 138.104 105.976C137.341 105.212 136.312 104.773 135.232 104.749C134.153 104.726 133.106 105.12 132.31 105.85C132.192 105.97 132.082 106.096 131.98 106.23C130.525 105.334 128.944 104.66 127.29 104.23C127.3 104.064 127.3 103.897 127.29 103.73C127.28 102.622 126.835 101.562 126.051 100.779C125.268 99.9953 124.208 99.5505 123.1 99.5401C122.556 99.5374 122.017 99.6428 121.514 99.85C121.011 100.057 120.554 100.362 120.17 100.747C119.786 101.132 119.482 101.59 119.276 102.093C119.07 102.597 118.966 103.136 118.97 103.68C118.955 103.846 118.955 104.014 118.97 104.18C117.328 104.583 115.754 105.226 114.3 106.09C114.198 105.954 114.084 105.827 113.96 105.71C113.184 104.936 112.133 104.501 111.036 104.502C109.94 104.503 108.889 104.939 108.115 105.715C107.341 106.491 106.906 107.542 106.907 108.639C106.908 109.735 107.344 110.786 108.12 111.56C108.239 111.678 108.366 111.788 108.5 111.89C107.628 113.34 106.984 114.915 106.59 116.56C106.423 116.55 106.256 116.55 106.09 116.56C105.545 116.556 105.005 116.66 104.501 116.867C103.997 117.074 103.539 117.379 103.154 117.764C102.768 118.149 102.464 118.607 102.257 119.111C102.05 119.615 101.946 120.155 101.95 120.7C101.951 121.292 102.078 121.876 102.322 122.415C102.565 122.954 102.92 123.436 103.363 123.828C103.806 124.22 104.327 124.514 104.892 124.69C105.457 124.866 106.053 124.921 106.64 124.85C107.066 126.506 107.74 128.087 108.64 129.54C108.504 129.639 108.377 129.75 108.26 129.87C107.53 130.666 107.136 131.713 107.159 132.793C107.183 133.872 107.622 134.901 108.385 135.665C109.149 136.428 110.178 136.867 111.257 136.891C112.337 136.914 113.384 136.52 114.18 135.79C114.3 135.67 114.4 135.54 114.51 135.41C115.964 136.308 117.545 136.982 119.2 137.41C119.19 137.58 119.19 137.75 119.2 137.92C119.21 139.027 119.656 140.086 120.439 140.868C121.223 141.65 122.283 142.092 123.39 142.1C123.933 142.108 124.473 142.007 124.977 141.804C125.481 141.601 125.939 141.299 126.325 140.916C126.71 140.533 127.015 140.077 127.222 139.575C127.429 139.072 127.534 138.533 127.53 137.99ZM115.53 120.84C115.521 119.829 115.713 118.826 116.096 117.89C116.478 116.954 117.044 116.104 117.759 115.389C118.474 114.674 119.324 114.108 120.26 113.726C121.196 113.343 122.199 113.151 123.21 113.16C125.265 113.178 127.231 114.003 128.684 115.456C130.137 116.909 130.962 118.875 130.98 120.93C130.987 121.941 130.792 122.944 130.408 123.879C130.024 124.815 129.457 125.664 128.742 126.379C128.026 127.094 127.176 127.659 126.24 128.042C125.304 128.425 124.301 128.618 123.29 128.61C121.24 128.584 119.282 127.756 117.835 126.304C116.388 124.851 115.568 122.89 115.55 120.84H115.53Z" fill="#1B5A96"/>
<path d="M457.86 271.46H350.17C350.088 271.46 350.009 271.427 349.951 271.369C349.893 271.311 349.86 271.232 349.86 271.15V171.92C349.86 171.838 349.893 171.759 349.951 171.701C350.009 171.643 350.088 171.61 350.17 171.61H457.86C457.942 171.61 458.021 171.643 458.079 171.701C458.137 171.759 458.17 171.838 458.17 171.92V271.15C458.17 271.232 458.137 271.311 458.079 271.369C458.021 271.427 457.942 271.46 457.86 271.46ZM350.49 270.83H457.55V172.21H350.49V270.83Z" fill="black"/>
<path d="M394.08 251.21C394.038 251.211 393.997 251.204 393.958 251.189C393.92 251.174 393.884 251.152 393.854 251.123C393.824 251.094 393.801 251.059 393.785 251.021C393.768 250.983 393.76 250.941 393.76 250.9V186.66C393.773 186.586 393.812 186.519 393.87 186.471C393.927 186.423 394 186.396 394.075 186.396C394.15 186.396 394.223 186.423 394.28 186.471C394.338 186.519 394.377 186.586 394.39 186.66V250.93C394.383 251.007 394.347 251.078 394.289 251.13C394.232 251.182 394.157 251.21 394.08 251.21Z" fill="#281D57"/>
<path d="M401.94 251.21C401.858 251.21 401.779 251.177 401.721 251.119C401.663 251.061 401.63 250.982 401.63 250.9V186.46C401.643 186.386 401.682 186.319 401.74 186.271C401.797 186.223 401.87 186.196 401.945 186.196C402.02 186.196 402.093 186.223 402.15 186.271C402.208 186.319 402.247 186.386 402.26 186.46V250.93C402.252 251.009 402.215 251.081 402.155 251.133C402.096 251.186 402.019 251.213 401.94 251.21Z" fill="#281D57"/>
<path d="M417.68 251.21C417.598 251.21 417.519 251.177 417.461 251.119C417.403 251.061 417.37 250.982 417.37 250.9V186.66C417.383 186.586 417.422 186.519 417.479 186.471C417.537 186.423 417.61 186.396 417.685 186.396C417.76 186.396 417.833 186.423 417.89 186.471C417.948 186.519 417.987 186.586 418 186.66V250.93C417.992 251.009 417.955 251.081 417.895 251.133C417.836 251.185 417.759 251.213 417.68 251.21Z" fill="#281D57"/>
<path d="M425.55 251.63C425.468 251.63 425.389 251.597 425.331 251.539C425.273 251.481 425.24 251.402 425.24 251.32V186.66C425.24 186.578 425.273 186.499 425.331 186.441C425.389 186.383 425.468 186.35 425.55 186.35C425.632 186.35 425.711 186.383 425.769 186.441C425.827 186.499 425.86 186.578 425.86 186.66V251.32C425.86 251.402 425.827 251.481 425.769 251.539C425.711 251.597 425.632 251.63 425.55 251.63Z" fill="#281D57"/>
<path d="M425.55 260.21C424.957 260.21 424.377 260.034 423.883 259.704C423.39 259.375 423.005 258.906 422.778 258.358C422.551 257.81 422.492 257.207 422.608 256.625C422.723 256.043 423.009 255.508 423.429 255.089C423.848 254.669 424.383 254.383 424.965 254.268C425.547 254.152 426.15 254.211 426.698 254.438C427.246 254.665 427.715 255.05 428.044 255.543C428.374 256.037 428.55 256.617 428.55 257.21C428.55 258.006 428.234 258.769 427.671 259.331C427.109 259.894 426.346 260.21 425.55 260.21ZM425.55 254.76C425.073 254.76 424.607 254.901 424.211 255.166C423.815 255.431 423.506 255.807 423.323 256.248C423.141 256.688 423.093 257.173 423.186 257.64C423.279 258.108 423.509 258.537 423.846 258.874C424.183 259.211 424.612 259.441 425.08 259.534C425.547 259.627 426.032 259.579 426.472 259.397C426.913 259.214 427.289 258.905 427.554 258.509C427.819 258.113 427.96 257.647 427.96 257.17C427.967 256.849 427.909 256.531 427.791 256.232C427.673 255.934 427.496 255.663 427.272 255.433C427.048 255.204 426.78 255.022 426.484 254.898C426.188 254.774 425.871 254.71 425.55 254.71V254.76Z" fill="#281D57"/>
<path d="M446.61 248.8C446.565 248.798 446.52 248.788 446.479 248.769C446.438 248.75 446.401 248.723 446.37 248.69L437.87 238.78H373.75C373.676 238.767 373.609 238.728 373.561 238.67C373.513 238.613 373.486 238.54 373.486 238.465C373.486 238.39 373.513 238.317 373.561 238.26C373.609 238.202 373.676 238.163 373.75 238.15H438.01C438.056 238.15 438.1 238.16 438.142 238.179C438.183 238.198 438.22 238.226 438.25 238.26L446.85 248.26C446.907 248.321 446.939 248.401 446.939 248.485C446.939 248.568 446.907 248.649 446.85 248.71C446.818 248.74 446.78 248.764 446.739 248.779C446.698 248.795 446.654 248.802 446.61 248.8Z" fill="#281D57"/>
<path d="M438.01 230.91H373.75C373.676 230.897 373.609 230.858 373.561 230.8C373.513 230.743 373.486 230.67 373.486 230.595C373.486 230.52 373.513 230.447 373.561 230.39C373.609 230.332 373.676 230.293 373.75 230.28H438.01C438.084 230.293 438.151 230.332 438.199 230.39C438.247 230.447 438.274 230.52 438.274 230.595C438.274 230.67 438.247 230.743 438.199 230.8C438.151 230.858 438.084 230.897 438.01 230.91Z" fill="#281D57"/>
<path d="M438.01 223.04H373.75C373.668 223.04 373.589 223.007 373.531 222.949C373.473 222.891 373.44 222.812 373.44 222.73C373.44 222.648 373.473 222.569 373.531 222.511C373.589 222.453 373.668 222.42 373.75 222.42H438.01C438.092 222.42 438.171 222.453 438.229 222.511C438.287 222.569 438.32 222.648 438.32 222.73C438.32 222.812 438.287 222.891 438.229 222.949C438.171 223.007 438.092 223.04 438.01 223.04Z" fill="#281D57"/>
<path d="M409.64 186.61H409.5V250.95C409.513 251.024 409.552 251.091 409.61 251.139C409.667 251.187 409.74 251.214 409.815 251.214C409.89 251.214 409.963 251.187 410.02 251.139C410.078 251.091 410.117 251.024 410.13 250.95V186.56C409.969 186.592 409.805 186.609 409.64 186.61Z" fill="#281D57"/>
<path d="M409.64 186.92C409.047 186.92 408.467 186.744 407.973 186.414C407.48 186.085 407.095 185.616 406.868 185.068C406.641 184.52 406.582 183.917 406.698 183.335C406.813 182.753 407.099 182.218 407.519 181.799C407.938 181.379 408.473 181.093 409.055 180.978C409.637 180.862 410.24 180.921 410.788 181.148C411.336 181.375 411.805 181.76 412.134 182.253C412.464 182.747 412.64 183.327 412.64 183.92C412.64 184.716 412.324 185.479 411.761 186.041C411.199 186.604 410.436 186.92 409.64 186.92ZM409.64 181.47C409.163 181.47 408.697 181.611 408.301 181.876C407.905 182.141 407.596 182.517 407.413 182.958C407.231 183.398 407.183 183.883 407.276 184.35C407.369 184.818 407.599 185.247 407.936 185.584C408.273 185.921 408.702 186.151 409.17 186.244C409.637 186.337 410.122 186.289 410.562 186.106C411.003 185.924 411.379 185.615 411.644 185.219C411.909 184.823 412.05 184.357 412.05 183.88C412.05 183.241 411.796 182.628 411.344 182.176C410.892 181.724 410.279 181.47 409.64 181.47Z" fill="#281D57"/>
<path d="M438.01 214.55H370.92C370.864 214.549 370.81 214.563 370.761 214.589C370.712 214.615 370.67 214.654 370.64 214.7L365.49 223.7C365.67 223.809 365.841 223.932 366 224.07L371.1 215.2H438.01C438.092 215.2 438.171 215.167 438.229 215.109C438.287 215.051 438.32 214.972 438.32 214.89C438.32 214.808 438.287 214.729 438.229 214.671C438.171 214.613 438.092 214.58 438.01 214.58V214.55Z" fill="#281D57"/>
<path d="M364.15 229.07C363.557 229.07 362.977 228.894 362.483 228.564C361.99 228.235 361.605 227.766 361.378 227.218C361.151 226.67 361.092 226.067 361.208 225.485C361.323 224.903 361.609 224.368 362.029 223.949C362.448 223.529 362.983 223.243 363.565 223.128C364.147 223.012 364.75 223.071 365.298 223.298C365.846 223.525 366.315 223.91 366.644 224.403C366.974 224.897 367.15 225.477 367.15 226.07C367.15 226.866 366.834 227.629 366.271 228.191C365.709 228.754 364.946 229.07 364.15 229.07ZM364.15 223.62C363.673 223.62 363.207 223.761 362.811 224.026C362.415 224.291 362.106 224.667 361.923 225.108C361.741 225.548 361.693 226.033 361.786 226.5C361.879 226.968 362.109 227.397 362.446 227.734C362.783 228.071 363.212 228.301 363.68 228.394C364.147 228.487 364.632 228.439 365.072 228.257C365.513 228.074 365.889 227.765 366.154 227.369C366.419 226.973 366.56 226.507 366.56 226.03C366.557 225.392 366.303 224.78 365.851 224.329C365.4 223.877 364.788 223.623 364.15 223.62Z" fill="#281D57"/>
<path d="M386.22 256.46H386.52V186.66C386.507 186.586 386.468 186.519 386.41 186.471C386.353 186.423 386.28 186.396 386.205 186.396C386.13 186.396 386.057 186.423 386 186.471C385.942 186.519 385.903 186.586 385.89 186.66V256.5C385.998 256.477 386.109 256.463 386.22 256.46Z" fill="#281D57"/>
<path d="M386.22 261.92C386.11 261.93 386 261.93 385.89 261.92C385.903 261.994 385.942 262.061 386 262.109C386.057 262.157 386.13 262.184 386.205 262.184C386.28 262.184 386.353 262.157 386.41 262.109C386.468 262.061 386.507 261.994 386.52 261.92H386.22Z" fill="#281D57"/>
<path d="M386.22 262.21C385.627 262.21 385.047 262.034 384.553 261.704C384.06 261.375 383.675 260.906 383.448 260.358C383.221 259.81 383.162 259.207 383.278 258.625C383.393 258.043 383.679 257.508 384.099 257.089C384.518 256.669 385.053 256.383 385.635 256.268C386.217 256.152 386.82 256.211 387.368 256.438C387.916 256.665 388.385 257.05 388.714 257.543C389.044 258.037 389.22 258.617 389.22 259.21C389.22 260.006 388.904 260.769 388.341 261.331C387.779 261.894 387.016 262.21 386.22 262.21ZM386.22 256.76C385.743 256.76 385.277 256.901 384.881 257.166C384.485 257.431 384.176 257.807 383.993 258.248C383.811 258.688 383.763 259.173 383.856 259.64C383.949 260.108 384.179 260.537 384.516 260.874C384.853 261.211 385.282 261.441 385.75 261.534C386.217 261.627 386.702 261.579 387.142 261.397C387.583 261.214 387.959 260.905 388.224 260.509C388.489 260.113 388.63 259.647 388.63 259.17C388.622 258.535 388.365 257.929 387.914 257.482C387.463 257.035 386.855 256.783 386.22 256.78V256.76Z" fill="#281D57"/>
<path d="M438.01 207.3H373.75C373.668 207.3 373.589 207.267 373.531 207.209C373.473 207.151 373.44 207.072 373.44 206.99C373.44 206.908 373.473 206.829 373.531 206.771C373.589 206.713 373.668 206.68 373.75 206.68H438.01C438.092 206.68 438.171 206.713 438.229 206.771C438.287 206.829 438.32 206.908 438.32 206.99C438.32 207.072 438.287 207.151 438.229 207.209C438.171 207.267 438.092 207.3 438.01 207.3Z" fill="#281D57"/>
<path d="M438.01 199.44H373.75C373.676 199.427 373.609 199.388 373.561 199.33C373.513 199.273 373.486 199.2 373.486 199.125C373.486 199.05 373.513 198.977 373.561 198.92C373.609 198.862 373.676 198.823 373.75 198.81H438.01C438.084 198.823 438.151 198.862 438.199 198.92C438.247 198.977 438.274 199.05 438.274 199.125C438.274 199.2 438.247 199.273 438.199 199.33C438.151 199.388 438.084 199.427 438.01 199.44Z" fill="#281D57"/>
<path d="M430.83 218.79C430.83 205.011 419.659 193.84 405.88 193.84C392.1 193.84 380.93 205.011 380.93 218.79C380.93 232.57 392.1 243.74 405.88 243.74C419.659 243.74 430.83 232.57 430.83 218.79Z" fill="#FFF6EB"/>
<path d="M426.42 244.06H385.34C384.085 244.06 382.882 243.562 381.995 242.675C381.108 241.788 380.61 240.584 380.61 239.33V198.26C380.61 197.006 381.108 195.802 381.995 194.915C382.882 194.028 384.085 193.53 385.34 193.53H426.42C427.673 193.533 428.873 194.032 429.758 194.919C430.643 195.806 431.14 197.007 431.14 198.26V239.33C431.14 240.583 430.643 241.784 429.758 242.671C428.873 243.558 427.673 244.057 426.42 244.06ZM385.34 194.21C384.253 194.213 383.212 194.645 382.444 195.414C381.675 196.182 381.243 197.223 381.24 198.31V239.38C381.243 240.467 381.675 241.508 382.444 242.276C383.212 243.045 384.253 243.477 385.34 243.48H426.42C427.507 243.477 428.548 243.045 429.316 242.276C430.085 241.508 430.517 240.467 430.52 239.38V198.26C430.517 197.173 430.085 196.132 429.316 195.364C428.548 194.595 427.507 194.163 426.42 194.16L385.34 194.21Z" fill="#281D57"/>
<path d="M420.26 199.17H391.5C388.606 199.17 386.26 201.516 386.26 204.41V233.17C386.26 236.064 388.606 238.41 391.5 238.41H420.26C423.154 238.41 425.5 236.064 425.5 233.17V204.41C425.5 201.516 423.154 199.17 420.26 199.17Z" fill="#FFF6EB"/>
<path d="M420.82 238.73H390.93C389.604 238.73 388.332 238.203 387.394 237.266C386.457 236.328 385.93 235.056 385.93 233.73V203.85C385.93 202.524 386.457 201.252 387.394 200.315C388.332 199.377 389.604 198.85 390.93 198.85H420.82C422.146 198.85 423.418 199.377 424.355 200.315C425.293 201.252 425.82 202.524 425.82 203.85V233.74C425.817 235.064 425.289 236.334 424.352 237.269C423.415 238.205 422.144 238.73 420.82 238.73ZM390.93 199.49C390.357 199.49 389.79 199.603 389.261 199.822C388.732 200.041 388.252 200.362 387.847 200.767C387.442 201.172 387.121 201.653 386.902 202.182C386.683 202.711 386.57 203.278 386.57 203.85V233.74C386.57 234.313 386.683 234.88 386.902 235.409C387.121 235.938 387.442 236.418 387.847 236.823C388.252 237.228 388.732 237.549 389.261 237.768C389.79 237.987 390.357 238.1 390.93 238.1H420.82C421.977 238.1 423.087 237.641 423.906 236.824C424.726 236.006 425.187 234.897 425.19 233.74V203.85C425.187 202.693 424.726 201.584 423.906 200.767C423.087 199.949 421.977 199.49 420.82 199.49H390.93Z" fill="#281D57"/>
<path d="M407.81 222.94H399.22L397.22 228.26H395.59L402.75 209.33H404.29L411.46 228.26H409.79L407.81 222.94ZM399.71 221.59H407.29L403.5 211.28L399.71 221.59Z" fill="#FB9100"/>
<path d="M416.17 228.26H414.57V209.33H416.17V228.26Z" fill="#FB9100"/>
</g>
</g>
<defs>
<clipPath id="clip0_41_32">
<rect width="570" height="324" fill="white"/>
</clipPath>
<clipPath id="clip1_41_32">
<rect width="390.59" height="260.41" fill="white" transform="translate(90 32)"/>
</clipPath>
</defs>
</svg>
