<svg width="570" height="324" viewBox="0 0 570 324" fill="none" xmlns="http://www.w3.org/2000/svg">
<rect width="570" height="324" fill="#FFF6EB"/>
<path d="M486.065 292.996H83.7149C83.517 292.979 83.3354 292.92 83.2039 292.829C83.0725 292.738 83 292.621 83 292.5C83 292.379 83.0725 292.262 83.2039 292.171C83.3354 292.08 83.517 292.021 83.7149 292.004H486.065C486.182 291.995 486.3 292.001 486.413 292.021C486.526 292.042 486.63 292.077 486.718 292.124C486.807 292.171 486.878 292.228 486.926 292.293C486.975 292.358 487 292.429 487 292.5C487 292.571 486.975 292.642 486.926 292.707C486.878 292.772 486.807 292.829 486.718 292.876C486.63 292.923 486.526 292.958 486.413 292.979C486.3 292.999 486.182 293.005 486.065 292.996Z" fill="#1E1E1E"/>
<path d="M281.567 200.861C281.1 203.164 280.185 205.352 278.874 207.3C277.563 209.249 275.881 210.919 273.925 212.217C271.968 213.514 269.776 214.413 267.472 214.861C265.169 215.31 262.8 215.299 260.501 214.831L195.532 201.644C193.232 201.176 191.046 200.259 189.1 198.945C187.154 197.631 185.486 195.946 184.19 193.986C182.895 192.027 181.997 189.831 181.549 187.524C181.102 185.217 181.112 182.844 181.58 180.541L208.613 47.2371C209.557 42.5875 212.306 38.5035 216.256 35.8823C220.206 33.2611 225.034 32.3171 229.679 33.2578L294.637 46.4544C296.938 46.9214 299.125 47.8378 301.072 49.1512C303.019 50.4647 304.689 52.1494 305.985 54.1092C307.282 56.069 308.18 58.2653 308.629 60.5728C309.077 62.8803 309.067 65.2536 308.599 67.5572L281.567 200.861Z" fill="#FFF6EB"/>
<path d="M351.977 80.8628C351.977 80.8628 346.041 83.835 349.781 90.3046C353.521 96.7741 359.29 89.3138 359.29 89.3138L358.36 82.656" fill="#060606"/>
<path d="M335.147 121.602L319.978 128.646L306.669 112.032L298.239 120.295C298.181 120.514 298.109 120.729 298.021 120.939C298.022 121.239 297.972 121.537 297.873 121.82C297.917 122.319 297.821 122.82 297.596 123.267C297.631 123.599 297.604 123.935 297.517 124.257C297.546 124.544 297.546 124.833 297.517 125.119C297.476 125.602 297.355 126.074 297.161 126.516L297.23 126.348L297.151 126.586C297.132 127.019 296.976 127.436 296.705 127.775L311.548 144.984C313.295 146.534 315.453 147.545 317.761 147.897C320.07 148.248 322.43 147.925 324.559 146.965L349.068 135.869L335.147 121.602Z" fill="#FFC1A4"/>
<path d="M300.367 109C300.378 109.32 300.306 109.637 300.159 109.921C300.159 109.981 300.109 110.03 300.089 110.08C300.085 110.126 300.085 110.172 300.089 110.219C300.089 110.645 300.02 111.081 299.951 111.507L299.743 112.686C299.733 112.874 299.733 113.062 299.743 113.25C299.737 113.642 299.636 114.027 299.446 114.37C299.446 116.044 299.446 117.699 299.248 119.324L306.749 111.982L300.367 109Z" fill="#FFC1A4"/>
<path d="M264.221 216.912C262.988 216.908 261.758 216.782 260.55 216.535L194.988 203.229C190.192 202.248 185.982 199.402 183.281 195.315C180.58 191.229 179.609 186.236 180.581 181.433L207.9 46.9203C208.875 42.1159 211.717 37.8961 215.799 35.189C219.881 32.482 224.87 31.5094 229.669 32.4852L295.221 45.8007C300.018 46.7796 304.231 49.625 306.934 53.7119C309.637 57.7987 310.61 62.7927 309.638 67.597L282.338 202.13C281.481 206.306 279.21 210.058 275.909 212.752C272.608 215.445 268.479 216.914 264.221 216.912ZM225.978 32.9409C221.915 32.9494 217.979 34.3602 214.834 36.9356C211.689 39.5109 209.526 43.0933 208.712 47.0788L181.432 181.611C180.507 186.197 181.436 190.964 184.016 194.864C186.597 198.765 190.617 201.481 195.195 202.417L260.748 215.723C265.328 216.649 270.088 215.718 273.984 213.135C277.879 210.551 280.592 206.526 281.527 201.941L308.807 67.389C309.729 62.8032 308.799 58.0384 306.219 54.1385C303.639 50.2386 299.62 47.5218 295.043 46.5834L229.491 33.2976C228.334 33.0625 227.158 32.943 225.978 32.9409Z" fill="#060F11"/>
<path d="M279.004 91.6919C279.767 92.1503 280.372 92.832 280.736 93.6451C281.101 94.4582 281.207 95.3636 281.042 96.2394L280.28 100.202C280.111 101.076 279.679 101.878 279.043 102.499C278.406 103.121 277.595 103.533 276.718 103.68L274.927 103.977C274.322 104.083 273.746 104.314 273.235 104.656C272.724 104.997 272.289 105.44 271.959 105.959V106.008C271.619 106.518 271.388 107.093 271.28 107.696C271.173 108.3 271.192 108.919 271.335 109.515L271.781 111.299C271.997 112.163 271.942 113.072 271.624 113.904C271.305 114.735 270.738 115.448 270 115.945L266.625 118.254C265.892 118.746 265.026 119.004 264.143 118.994C263.259 118.983 262.4 118.704 261.678 118.194L260.194 117.124C259.691 116.774 259.121 116.532 258.52 116.413C257.919 116.293 257.3 116.299 256.701 116.431H256.652C256.042 116.544 255.462 116.784 254.951 117.136C254.44 117.487 254.008 117.942 253.683 118.472L252.694 120.037C252.236 120.801 251.555 121.406 250.743 121.77C249.93 122.133 249.026 122.237 248.152 122.068L244.135 121.305C243.261 121.14 242.46 120.711 241.839 120.074C241.217 119.438 240.807 118.626 240.662 117.748L240.365 115.945C240.259 115.34 240.028 114.763 239.687 114.251C239.347 113.739 238.903 113.304 238.386 112.973C237.875 112.628 237.298 112.393 236.691 112.284C236.085 112.175 235.462 112.194 234.863 112.339L233.102 112.785C232.239 112.999 231.331 112.944 230.5 112.627C229.668 112.31 228.954 111.746 228.452 111.011L226.156 107.633C225.664 106.898 225.406 106.031 225.417 105.147C225.427 104.262 225.706 103.402 226.215 102.679L227.274 101.193C227.627 100.689 227.872 100.117 227.995 99.5136C228.117 98.9103 228.114 98.2881 227.987 97.6859C227.878 97.0737 227.639 96.492 227.288 95.9794C226.936 95.4668 226.48 95.0353 225.948 94.7136L224.395 93.7229C223.621 93.2748 223.003 92.5989 222.626 91.7871C222.249 90.9752 222.131 90.0668 222.287 89.1853L223.049 85.2223C223.214 84.3466 223.645 83.543 224.282 82.9208C224.919 82.2987 225.733 81.8881 226.611 81.7448L228.402 81.4476C229.006 81.3373 229.58 81.1046 230.091 80.7638C230.601 80.4231 231.037 79.9815 231.371 79.4661C231.718 78.9561 231.956 78.3786 232.066 77.771C232.177 77.1634 232.159 76.5393 232.014 75.9391L231.568 74.0864C231.353 73.222 231.407 72.3123 231.724 71.4798C232.041 70.6473 232.605 69.9319 233.34 69.4299L236.714 67.1413C237.44 66.6372 238.303 66.3672 239.187 66.3672C240.071 66.3672 240.934 66.6372 241.661 67.1413L243.165 68.2113C243.666 68.5652 244.236 68.8105 244.837 68.9317C245.439 69.0528 246.059 69.047 246.658 68.9147C247.261 68.8044 247.836 68.5717 248.346 68.231C248.857 67.8902 249.292 67.4486 249.626 66.9333L250.616 65.3481C251.072 64.5846 251.751 63.9796 252.561 63.6147C253.372 63.2498 254.274 63.1424 255.148 63.3071L259.165 64.07C260.04 64.2396 260.843 64.673 261.466 65.3123C262.088 65.9515 262.501 66.766 262.648 67.6466L262.945 69.4497C263.051 70.0554 263.282 70.6323 263.622 71.144C263.963 71.6556 264.406 72.0908 264.924 72.422C265.431 72.7665 266.005 73.0009 266.608 73.1101C267.211 73.2193 267.831 73.2009 268.426 73.056L270.207 72.6201C271.07 72.402 271.978 72.4542 272.81 72.7696C273.641 73.085 274.356 73.6484 274.858 74.3836L277.153 77.7621C277.651 78.4942 277.913 79.3612 277.904 80.2467C277.895 81.1322 277.616 81.9937 277.104 82.7158L276.095 84.2316C275.743 84.74 275.499 85.3154 275.378 85.9221C275.257 86.5288 275.262 87.1539 275.392 87.7586C275.51 88.3676 275.752 88.9458 276.102 89.4572C276.453 89.9685 276.905 90.4021 277.431 90.7308L279.004 91.6919Z" fill="#1B5A96"/>
<path d="M248.953 122.633C248.658 122.632 248.363 122.602 248.073 122.544L244.065 121.781C243.11 121.598 242.232 121.128 241.551 120.432C240.87 119.736 240.418 118.848 240.256 117.887L239.959 116.084C239.86 115.535 239.649 115.012 239.339 114.549C239.029 114.085 238.627 113.69 238.158 113.389C237.694 113.079 237.17 112.867 236.62 112.769C236.07 112.67 235.506 112.685 234.962 112.815L233.201 113.26C232.251 113.487 231.255 113.419 230.345 113.065C229.434 112.711 228.653 112.088 228.105 111.279L225.81 107.9C225.265 107.094 224.979 106.139 224.992 105.165C225.004 104.191 225.314 103.244 225.879 102.451L226.938 100.965C227.258 100.506 227.481 99.9862 227.591 99.4373C227.702 98.8884 227.698 98.3225 227.581 97.7751C227.469 97.2078 227.238 96.671 226.901 96.201C226.565 95.731 226.132 95.3387 225.632 95.0506L224.068 94.0598C223.238 93.5584 222.581 92.8158 222.183 91.9308C221.785 91.0458 221.666 90.0605 221.842 89.1061L222.604 85.1431C222.776 84.1665 223.248 83.2678 223.954 82.5718C224.659 81.8758 225.564 81.4172 226.542 81.2594L228.343 80.9721C228.891 80.8699 229.413 80.6563 229.876 80.3444C230.339 80.0326 230.733 79.6292 231.034 79.1591C231.349 78.6979 231.563 78.1752 231.662 77.6254C231.761 77.0756 231.742 76.5111 231.608 75.9689L231.173 74.1955C230.94 73.2444 231.006 72.2449 231.36 71.3322C231.713 70.4196 232.339 69.6379 233.152 69.0932L236.516 66.7946C237.321 66.2476 238.273 65.9602 239.246 65.9708C240.219 65.9814 241.165 66.2896 241.958 66.8541L243.442 67.9241C243.898 68.2452 244.416 68.4675 244.963 68.5767C245.51 68.6859 246.074 68.6796 246.618 68.5582H246.688C247.239 68.4507 247.763 68.2307 248.226 67.912C248.689 67.5933 249.081 67.1826 249.379 66.7055L250.368 65.1302C250.867 64.2965 251.608 63.6352 252.492 63.235C253.376 62.8348 254.361 62.7148 255.316 62.8911L259.333 63.654C260.297 63.8434 261.18 64.3252 261.862 65.0342C262.543 65.7431 262.99 66.6448 263.142 67.6169L263.439 69.4201C263.54 69.9595 263.749 70.4729 264.053 70.9292C264.358 71.3856 264.751 71.7755 265.21 72.0753H265.26C265.719 72.3861 266.238 72.5969 266.783 72.6942C267.329 72.7915 267.888 72.773 268.426 72.64L270.207 72.2041C271.157 71.9744 272.154 72.0411 273.065 72.3953C273.976 72.7495 274.757 73.3742 275.303 74.1856L277.599 77.564C278.149 78.3724 278.438 79.3309 278.426 80.3094C278.413 81.2878 278.1 82.2387 277.529 83.0329L276.471 84.5091C276.15 84.9697 275.928 85.4919 275.819 86.0427C275.71 86.5935 275.716 87.1609 275.837 87.7092C275.946 88.2648 276.167 88.7922 276.487 89.259C276.807 89.7259 277.219 90.1222 277.698 90.4238L279.261 91.3551C280.087 91.8612 280.742 92.6041 281.14 93.4874C281.539 94.3708 281.663 95.3538 281.497 96.3088L280.725 100.272C280.54 101.23 280.066 102.108 279.368 102.788C278.669 103.468 277.779 103.918 276.817 104.076L275.036 104.383C274.484 104.476 273.958 104.684 273.492 104.995C273.027 105.306 272.632 105.712 272.335 106.186L272.285 106.256C271.981 106.716 271.774 107.234 271.677 107.778C271.58 108.321 271.595 108.879 271.721 109.416L272.176 111.2C272.408 112.149 272.342 113.147 271.988 114.058C271.634 114.969 271.009 115.749 270.197 116.292L266.813 118.591C266.008 119.136 265.056 119.423 264.083 119.412C263.111 119.402 262.165 119.094 261.371 118.531L259.887 117.471C259.43 117.152 258.912 116.931 258.365 116.822C257.819 116.713 257.255 116.718 256.711 116.837C256.158 116.941 255.633 117.16 255.17 117.479C254.706 117.798 254.315 118.21 254.02 118.69L253.08 120.255C252.659 120.977 252.056 121.577 251.332 121.994C250.609 122.411 249.789 122.631 248.953 122.633ZM238.643 112.725C239.199 113.085 239.675 113.556 240.041 114.109C240.407 114.661 240.655 115.283 240.77 115.935L241.067 117.739C241.203 118.532 241.577 119.264 242.139 119.84C242.701 120.415 243.425 120.805 244.214 120.958L248.231 121.721C249.021 121.872 249.838 121.778 250.573 121.453C251.309 121.127 251.927 120.585 252.347 119.898L253.287 118.333C253.638 117.758 254.104 117.262 254.656 116.877C255.208 116.492 255.833 116.225 256.493 116.094C257.151 115.953 257.831 115.948 258.491 116.079C259.151 116.21 259.778 116.475 260.332 116.857L261.817 117.927C262.478 118.385 263.263 118.63 264.068 118.63C264.872 118.63 265.657 118.385 266.319 117.927L269.703 115.628C270.365 115.172 270.874 114.525 271.16 113.773C271.446 113.021 271.497 112.199 271.306 111.418L270.86 109.644C270.708 108.991 270.69 108.313 270.808 107.652C270.925 106.991 271.175 106.361 271.543 105.8C271.906 105.233 272.383 104.747 272.944 104.374C273.504 104 274.136 103.747 274.798 103.63L276.589 103.333C277.383 103.199 278.117 102.825 278.694 102.262C279.27 101.699 279.661 100.974 279.815 100.183L280.577 96.2196C280.724 95.4282 280.626 94.6109 280.297 93.8765C279.968 93.142 279.424 92.5252 278.737 92.1081L277.233 91.1669C276.662 90.8045 276.17 90.3311 275.785 89.7746C275.4 89.2182 275.131 88.59 274.994 87.9275C274.856 87.2649 274.853 86.5815 274.984 85.9177C275.116 85.2539 275.379 84.6233 275.758 84.0632L276.827 82.5771C277.292 81.9198 277.545 81.1363 277.554 80.3309C277.563 79.5256 277.327 78.7367 276.876 78.0693L274.581 74.6908C274.125 74.0255 273.477 73.5152 272.724 73.2284C271.971 72.9416 271.148 72.8919 270.366 73.0858L268.585 73.5317C267.934 73.6874 267.258 73.7071 266.599 73.5894C265.94 73.4718 265.312 73.2194 264.755 72.8481H264.706C264.145 72.4808 263.665 72.0034 263.294 71.4449C262.924 70.8863 262.67 70.2581 262.549 69.5984L262.252 67.7854C262.116 66.9923 261.742 66.2594 261.18 65.6842C260.618 65.109 259.894 64.7188 259.105 64.5655L255.088 63.8026C254.299 63.6494 253.482 63.7442 252.748 64.0741C252.015 64.404 251.401 64.9528 250.992 65.6454L250.002 67.2207C249.645 67.7705 249.181 68.2436 248.639 68.6127C248.098 68.9818 247.488 69.2394 246.846 69.3706H246.767C246.114 69.5098 245.44 69.5131 244.787 69.3801C244.133 69.2472 243.514 68.9809 242.967 68.5978L241.463 67.5278C240.803 67.0719 240.019 66.8278 239.217 66.8278C238.415 66.8278 237.631 67.0719 236.971 67.5278L233.587 69.8164C232.926 70.2735 232.42 70.9211 232.135 71.6732C231.851 72.4253 231.801 73.2462 231.994 74.027L232.429 75.8005C232.591 76.4555 232.613 77.1374 232.494 77.8015C232.374 78.4656 232.116 79.097 231.737 79.6544C231.369 80.2168 230.89 80.6983 230.331 81.0696C229.771 81.4409 229.142 81.6943 228.481 81.8143L226.68 82.1115C225.89 82.2494 225.16 82.6246 224.588 83.1873C224.015 83.7499 223.627 84.4735 223.474 85.262L222.703 89.225C222.556 90.0164 222.654 90.8337 222.983 91.5682C223.311 92.3026 223.856 92.9195 224.543 93.3366L226.106 94.3273C226.679 94.6792 227.173 95.1461 227.556 95.6986C227.939 96.2511 228.204 96.8772 228.333 97.5373C228.478 98.1982 228.484 98.882 228.351 99.5455C228.218 100.209 227.949 100.837 227.561 101.391L226.502 102.887C226.047 103.549 225.803 104.333 225.803 105.136C225.803 105.94 226.047 106.724 226.502 107.385L228.798 110.764C229.252 111.429 229.897 111.94 230.649 112.228C231.4 112.517 232.221 112.569 233.003 112.379L234.764 111.933C235.418 111.773 236.098 111.751 236.761 111.869C237.423 111.987 238.054 112.241 238.613 112.616C238.627 112.648 238.637 112.681 238.643 112.715V112.725Z" fill="black"/>
<path d="M251.665 110.753C261.61 110.753 269.673 102.68 269.673 92.7219C269.673 82.7634 261.61 74.6904 251.665 74.6904C241.719 74.6904 233.656 82.7634 233.656 92.7219C233.656 102.68 241.719 110.753 251.665 110.753Z" fill="#FB9100"/>
<path d="M256.891 104.412C263.122 100.784 265.237 92.7848 261.614 86.5451C257.991 80.3053 250.002 78.1879 243.77 81.8157C237.539 85.4434 235.424 93.4426 239.047 99.6823C242.67 105.922 250.659 108.039 256.891 104.412Z" fill="#FFF6EB"/>
<path d="M251.694 106.285C250.834 106.286 249.976 106.203 249.132 106.038C245.759 105.379 242.768 103.446 240.78 100.639C238.792 97.8327 237.959 94.3677 238.454 90.9627C238.948 87.5577 240.733 84.4739 243.437 82.3505C246.141 80.2271 249.557 79.227 252.978 79.5576C256.398 79.8882 259.56 81.5241 261.809 84.1261C264.057 86.7282 265.22 90.0968 265.055 93.5337C264.89 96.9705 263.41 100.212 260.923 102.586C258.435 104.96 255.131 106.285 251.694 106.285ZM251.694 80.0009C249.283 79.9957 246.921 80.6774 244.882 81.9666C242.844 83.2558 241.214 85.0991 240.182 87.2813C239.151 89.4635 238.762 91.8945 239.059 94.2902C239.356 96.6859 240.328 98.9475 241.861 100.811C243.394 102.674 245.425 104.062 247.716 104.813C250.008 105.563 252.465 105.645 254.802 105.05C257.138 104.454 259.257 103.205 260.911 101.448C262.565 99.6916 263.686 97.5 264.142 95.1295C264.768 91.8177 264.056 88.3926 262.161 85.6062C260.267 82.8198 257.346 80.9 254.039 80.2684C253.254 80.1061 252.456 80.0165 251.655 80.0009H251.694Z" fill="#060F11"/>
<path d="M237.159 165.046C236.631 165.048 236.103 164.995 235.586 164.888L201.261 157.804C199.251 157.385 197.489 156.184 196.362 154.467C195.234 152.749 194.832 150.653 195.245 148.64L199.589 127.577C199.793 126.579 200.191 125.632 200.761 124.789C201.332 123.946 202.062 123.225 202.912 122.665C203.761 122.105 204.712 121.719 205.711 121.528C206.709 121.337 207.736 121.346 208.731 121.553L243.046 128.637C244.042 128.841 244.988 129.24 245.83 129.811C246.672 130.382 247.393 131.113 247.952 131.964C248.511 132.814 248.896 133.767 249.087 134.767C249.278 135.767 249.269 136.794 249.062 137.791L244.728 158.864C244.367 160.608 243.418 162.174 242.039 163.3C240.661 164.426 238.938 165.043 237.159 165.046ZM235.754 164.056C237.548 164.422 239.415 164.061 240.945 163.053C242.474 162.045 243.543 160.471 243.917 158.676L248.251 137.603C248.617 135.806 248.257 133.937 247.25 132.406C246.243 130.874 244.671 129.804 242.878 129.429L208.563 122.345C206.769 121.979 204.902 122.34 203.372 123.348C201.843 124.356 200.774 125.93 200.4 127.725L196.056 148.788C195.691 150.585 196.051 152.454 197.058 153.986C198.064 155.517 199.636 156.588 201.429 156.962L235.754 164.056Z" fill="#060F11"/>
<path d="M285.574 144.072L280.735 167.553C280.407 169.138 279.464 170.527 278.114 171.417C276.763 172.306 275.116 172.623 273.532 172.298L254.801 168.444C253.219 168.115 251.831 167.171 250.942 165.819C250.054 164.467 249.737 162.817 250.062 161.232L254.9 137.751C255.227 136.167 256.167 134.778 257.516 133.888C258.865 132.998 260.511 132.681 262.094 133.006L280.834 136.87C282.415 137.199 283.801 138.141 284.689 139.491C285.577 140.841 285.896 142.488 285.574 144.072Z" fill="#1B5A96"/>
<path d="M274.769 172.843C274.323 172.841 273.879 172.795 273.443 172.705L254.712 168.841C253.022 168.488 251.54 167.479 250.593 166.034C249.645 164.589 249.308 162.826 249.656 161.133L254.495 137.652C254.847 135.962 255.854 134.48 257.295 133.532C258.736 132.583 260.493 132.244 262.183 132.59L280.913 136.454C282.606 136.804 284.09 137.813 285.039 139.258C285.989 140.703 286.327 142.467 285.98 144.162L281.141 167.642C280.835 169.109 280.035 170.426 278.875 171.373C277.715 172.32 276.265 172.839 274.769 172.843ZM260.857 133.283C259.553 133.29 258.29 133.743 257.28 134.569C256.27 135.395 255.573 136.543 255.306 137.821L250.467 161.301C250.166 162.779 250.461 164.316 251.288 165.577C252.115 166.837 253.406 167.719 254.88 168.028L273.611 171.892C275.087 172.197 276.624 171.903 277.883 171.074C279.143 170.246 280.023 168.951 280.33 167.474L285.168 143.993C285.472 142.514 285.177 140.974 284.348 139.713C283.518 138.451 282.223 137.571 280.745 137.266L262.015 133.402C261.634 133.323 261.246 133.284 260.857 133.283Z" fill="#060F11"/>
<path d="M243.106 129.073L208.474 121.929C207.55 121.738 206.598 121.731 205.671 121.908C204.744 122.085 203.862 122.444 203.073 122.963C202.285 123.481 201.606 124.151 201.076 124.932C200.546 125.714 200.175 126.592 199.984 127.517L195.591 148.868C195.4 149.793 195.393 150.746 195.57 151.674C195.747 152.602 196.105 153.486 196.623 154.275C197.141 155.065 197.81 155.744 198.59 156.275C199.371 156.805 200.248 157.177 201.172 157.368L235.803 164.511C236.727 164.703 237.68 164.71 238.606 164.533C239.533 164.355 240.416 163.997 241.204 163.478C241.992 162.959 242.671 162.29 243.201 161.508C243.731 160.727 244.102 159.849 244.293 158.924L248.686 137.563C248.877 136.639 248.884 135.686 248.707 134.759C248.53 133.831 248.172 132.948 247.654 132.16C247.135 131.371 246.467 130.693 245.687 130.163C244.906 129.633 244.029 129.263 243.106 129.073ZM227.076 147.253L219.032 150.611C218.427 150.871 217.762 150.96 217.111 150.868C216.459 150.777 215.845 150.508 215.335 150.091C214.825 149.674 214.439 149.126 214.218 148.505C213.998 147.884 213.952 147.214 214.084 146.569L216.063 136.88C216.196 136.239 216.501 135.646 216.945 135.166C217.39 134.686 217.957 134.336 218.585 134.154C219.213 133.973 219.879 133.967 220.51 134.136C221.142 134.306 221.715 134.644 222.168 135.116L228.214 141.417C228.628 141.833 228.934 142.344 229.105 142.905C229.276 143.467 229.306 144.062 229.194 144.638C229.082 145.214 228.83 145.754 228.461 146.209C228.091 146.665 227.616 147.024 227.076 147.253Z" fill="#FB9100"/>
<path d="M217.617 151.354C217.02 151.356 216.43 151.224 215.891 150.97C215.351 150.715 214.874 150.343 214.495 149.881C214.117 149.42 213.845 148.879 213.7 148.3C213.556 147.72 213.542 147.115 213.659 146.53L215.638 136.83C215.768 136.104 216.099 135.429 216.592 134.881C217.085 134.332 217.721 133.933 218.428 133.727C219.136 133.521 219.887 133.517 220.596 133.715C221.306 133.913 221.946 134.306 222.445 134.849L228.501 141.15C228.961 141.614 229.299 142.185 229.486 142.812C229.672 143.44 229.7 144.103 229.568 144.744C229.435 145.384 229.147 145.982 228.727 146.484C228.308 146.986 227.772 147.376 227.165 147.619L219.121 151.008C218.646 151.219 218.136 151.337 217.617 151.354ZM219.695 134.462C218.961 134.462 218.249 134.713 217.678 135.175C217.107 135.637 216.712 136.28 216.558 136.999L214.579 146.698C214.461 147.264 214.5 147.852 214.692 148.398C214.884 148.944 215.222 149.427 215.668 149.794C216.115 150.162 216.653 150.4 217.225 150.483C217.797 150.566 218.381 150.49 218.913 150.265L226.957 146.876C227.432 146.676 227.851 146.363 228.178 145.965C228.505 145.566 228.73 145.094 228.834 144.589C228.939 144.084 228.919 143.561 228.776 143.065C228.633 142.57 228.373 142.116 228.016 141.744L221.97 135.443C221.679 135.132 221.326 134.884 220.934 134.716C220.543 134.547 220.121 134.461 219.695 134.462Z" fill="black"/>
<path d="M262.46 206.093C262.055 206.092 261.65 206.052 261.253 205.974L198.095 192.926C197.324 192.772 196.591 192.467 195.938 192.028C195.286 191.589 194.727 191.024 194.295 190.367C193.862 189.71 193.564 188.973 193.418 188.2C193.272 187.427 193.281 186.632 193.444 185.862L196.818 169.475C197.144 167.923 198.07 166.564 199.394 165.693C200.717 164.823 202.331 164.512 203.883 164.828L267.041 177.867C268.593 178.191 269.953 179.117 270.824 180.443C271.696 181.768 272.008 183.385 271.692 184.94L268.318 201.317C268.036 202.665 267.301 203.875 266.234 204.745C265.168 205.614 263.835 206.09 262.46 206.093ZM202.676 165.571C201.491 165.574 200.344 165.983 199.425 166.732C198.506 167.48 197.872 168.522 197.63 169.683L194.255 186.07C193.984 187.408 194.253 188.8 195.004 189.94C195.755 191.081 196.927 191.876 198.263 192.153L261.421 205.201C262.752 205.475 264.137 205.212 265.276 204.471C266.415 203.729 267.216 202.567 267.506 201.238L270.88 184.861C271.152 183.521 270.883 182.128 270.132 180.987C269.381 179.845 268.21 179.047 266.873 178.768L203.715 165.73C203.374 165.643 203.026 165.59 202.676 165.571Z" fill="#060F11"/>
<path d="M247.588 48.1683C247.706 48.5668 247.926 48.9275 248.226 49.2143C248.526 49.5011 248.897 49.7041 249.3 49.8031L251.853 50.3182C252.271 50.4104 252.708 50.3769 253.107 50.2218C253.507 50.0667 253.852 49.7969 254.099 49.4464C254.317 49.1398 254.456 48.7836 254.502 48.4099C254.549 48.0362 254.502 47.6568 254.365 47.3058C254.229 46.9549 254.007 46.6435 253.721 46.3997C253.434 46.156 253.091 45.9875 252.723 45.9094L250.22 45.4042C249.932 45.3453 249.635 45.3438 249.346 45.3999C249.058 45.456 248.783 45.5686 248.538 45.7311C248.148 45.9895 247.847 46.3624 247.677 46.7988C247.507 47.2352 247.476 47.7136 247.588 48.1683Z" fill="#060606"/>
<path d="M252.347 50.6059C252.178 50.6041 252.009 50.5876 251.843 50.5564L249.29 50.0313C248.843 49.9222 248.434 49.6972 248.102 49.3789C247.77 49.0605 247.528 48.6602 247.4 48.2182C247.272 47.7231 247.298 47.2004 247.474 46.7205C247.651 46.2405 247.971 45.8263 248.389 45.5333C248.659 45.3514 248.963 45.226 249.283 45.1647C249.603 45.1034 249.932 45.1075 250.25 45.1767L252.753 45.6819C253.15 45.7653 253.52 45.9441 253.832 46.2031C254.144 46.462 254.389 46.7932 254.544 47.168C254.707 47.5531 254.773 47.9727 254.735 48.3893C254.697 48.8059 254.556 49.2066 254.326 49.5557C254.107 49.879 253.812 50.1437 253.467 50.3268C253.122 50.5098 252.738 50.6056 252.347 50.6059ZM249.775 45.5928C249.465 45.591 249.159 45.6601 248.881 45.7949C248.602 45.9297 248.358 46.1265 248.167 46.3703C247.976 46.6142 247.843 46.8985 247.779 47.2017C247.714 47.5048 247.72 47.8186 247.796 48.1192C247.912 48.4757 248.12 48.7956 248.397 49.0475C248.675 49.2994 249.013 49.4746 249.379 49.5557L251.932 50.0808C252.302 50.1526 252.685 50.1171 253.035 49.9784C253.386 49.8398 253.69 49.6038 253.911 49.2981C254.114 49.0145 254.241 48.6837 254.281 48.337C254.321 47.9902 254.272 47.639 254.138 47.3167C254.014 47.0115 253.817 46.7422 253.563 46.5328C253.309 46.3235 253.007 46.1809 252.684 46.1179L250.17 45.5928C250.039 45.583 249.906 45.583 249.775 45.5928Z" fill="#060F11"/>
<path d="M259.195 47.901C258.83 48.1427 258.544 48.4842 258.368 48.8848C258.193 49.2853 258.136 49.728 258.205 50.1599C258.298 50.5961 258.511 50.9975 258.821 51.3181C259.131 51.6387 259.524 51.8656 259.956 51.9729L268.367 53.677C268.655 53.7376 268.952 53.7398 269.241 53.6837C269.53 53.6275 269.805 53.5141 270.049 53.3501C270.416 53.111 270.705 52.7699 270.881 52.3686C271.056 51.9672 271.111 51.5233 271.039 51.0912C270.947 50.6552 270.734 50.2543 270.424 49.935C270.114 49.6157 269.72 49.3913 269.287 49.288L260.877 47.574C260.589 47.5135 260.291 47.5112 260.003 47.5673C259.714 47.6235 259.439 47.7369 259.195 47.901Z" fill="#060606"/>
<path d="M268.822 53.9642C268.656 53.962 268.491 53.9454 268.327 53.9147L259.917 52.2007C259.433 52.0924 258.99 51.8486 258.64 51.4977C258.29 51.1469 258.046 50.7034 257.938 50.2192C257.863 49.7439 257.926 49.257 258.118 48.8163C258.311 48.3755 258.626 47.9994 259.026 47.7325C259.297 47.5514 259.601 47.4258 259.92 47.3628C260.239 47.2999 260.568 47.301 260.887 47.3659L269.297 49.0799C269.782 49.1848 270.227 49.4275 270.578 49.7789C270.929 50.1303 271.171 50.5756 271.276 51.0613C271.346 51.5352 271.277 52.0192 271.079 52.455C270.881 52.8909 270.561 53.2602 270.158 53.5184C269.767 53.7966 269.302 53.9518 268.822 53.9642ZM260.431 47.7622C260.04 47.7633 259.658 47.8805 259.333 48.099C259.018 48.3151 258.769 48.6152 258.615 48.9654C258.461 49.3155 258.408 49.7018 258.462 50.0805C258.545 50.4686 258.736 50.8253 259.012 51.1093C259.289 51.3934 259.64 51.5932 260.026 51.6855L268.436 53.3995C268.694 53.4526 268.96 53.4537 269.218 53.4026C269.476 53.3516 269.722 53.2495 269.94 53.1023C270.263 52.8934 270.519 52.5948 270.675 52.2429C270.832 51.891 270.882 51.501 270.821 51.1208C270.728 50.7402 270.532 50.3927 270.254 50.1166C269.977 49.8404 269.628 49.6462 269.248 49.5554L260.837 47.8414C260.704 47.8056 260.568 47.7791 260.431 47.7622Z" fill="#060F11"/>
<path d="M275.649 142.536C275.639 142.674 275.595 142.807 275.521 142.923L262.242 163.243C262.176 163.334 262.096 163.414 262.005 163.481C261.899 163.534 261.785 163.567 261.668 163.58C261.501 163.599 261.331 163.599 261.164 163.58C260.92 163.549 260.679 163.503 260.441 163.441C260.075 163.352 261.065 163.53 260.847 163.441C260.668 163.379 260.503 163.281 260.362 163.154C260.315 163.116 260.278 163.067 260.254 163.012C260.23 162.957 260.22 162.897 260.224 162.837C260.24 162.701 260.291 162.571 260.372 162.46L273.631 142.15C273.685 142.05 273.764 141.965 273.859 141.902C273.959 141.837 274.075 141.799 274.195 141.793C274.362 141.77 274.532 141.77 274.7 141.793C274.897 141.793 273.859 141.595 274.145 141.665C274.445 141.733 274.739 141.822 275.026 141.932C275.199 141.996 275.357 142.094 275.491 142.219C275.542 142.255 275.583 142.302 275.611 142.358C275.639 142.413 275.652 142.475 275.649 142.536Z" fill="#FFF6EB"/>
<path d="M276.599 162.421C276.491 162.559 276.382 162.668 276.293 162.767L276.035 162.985C275.972 163.03 275.902 163.064 275.828 163.084C275.773 163.104 275.714 163.104 275.659 163.084L267.081 161.053C266.996 161.04 266.917 161.002 266.853 160.944C266.828 160.918 266.81 160.887 266.8 160.852C266.789 160.818 266.787 160.782 266.794 160.746C266.812 160.643 266.853 160.545 266.912 160.459C267.011 160.315 267.117 160.176 267.229 160.043C267.407 159.825 267.546 159.656 267.664 159.537C267.753 159.437 267.852 159.347 267.961 159.27C268.027 159.225 268.101 159.195 268.179 159.181C268.254 159.168 268.331 159.168 268.407 159.181L274.749 160.825L271.988 155.03C271.946 154.94 271.91 154.847 271.88 154.752C271.851 154.665 271.851 154.572 271.88 154.485C271.927 154.356 271.994 154.236 272.077 154.128C272.176 153.989 272.325 153.811 272.503 153.593C272.629 153.437 272.765 153.288 272.909 153.147C272.982 153.067 273.074 153.006 273.176 152.969C273.207 152.956 273.241 152.953 273.274 152.962C273.306 152.971 273.334 152.991 273.354 153.018C273.415 153.081 273.462 153.155 273.492 153.236L277.064 161.331C277.084 161.395 277.09 161.463 277.081 161.529C277.073 161.596 277.05 161.66 277.015 161.717C276.909 161.97 276.77 162.206 276.599 162.421Z" fill="#FFF6EB"/>
<path d="M258.927 142.903C259.023 142.782 259.129 142.669 259.244 142.566L259.501 142.348C259.566 142.307 259.636 142.274 259.709 142.249C259.764 142.234 259.822 142.234 259.877 142.249L268.406 144.468C268.492 144.487 268.57 144.528 268.634 144.587C268.659 144.613 268.677 144.645 268.687 144.679C268.698 144.714 268.7 144.75 268.693 144.785C268.67 144.889 268.627 144.987 268.565 145.073C268.486 145.182 268.387 145.32 268.248 145.479C268.11 145.638 267.912 145.855 267.793 145.974C267.708 146.075 267.608 146.162 267.496 146.232C267.426 146.275 267.349 146.306 267.269 146.321C267.196 146.329 267.123 146.329 267.051 146.321L260.748 144.528L263.37 150.383C263.414 150.476 263.451 150.572 263.479 150.67C263.502 150.758 263.502 150.85 263.479 150.938C263.421 151.06 263.351 151.176 263.271 151.285L262.836 151.81C262.668 151.998 262.529 152.147 262.42 152.246C262.346 152.327 262.25 152.386 262.143 152.414C262.116 152.431 262.086 152.44 262.054 152.44C262.023 152.44 261.992 152.431 261.965 152.414C261.908 152.351 261.864 152.277 261.836 152.196L258.442 144.023C258.425 143.956 258.421 143.886 258.431 143.818C258.441 143.75 258.465 143.685 258.502 143.626C258.609 143.366 258.752 143.123 258.927 142.903Z" fill="#FFF6EB"/>
<path d="M254.652 181.299L254.365 182.696L264.928 184.876L265.215 183.479L254.652 181.299Z" fill="#FB9100"/>
<path d="M219.017 173.94L218.73 175.337L243.529 180.457L243.816 179.06L219.017 173.94Z" fill="#FB9100"/>
<path d="M203.349 170.709L203.061 172.106L214.729 174.515L215.016 173.118L203.349 170.709Z" fill="#1B5A96"/>
<path d="M252.833 186.234L252.545 187.631L263.874 189.97L264.162 188.572L252.833 186.234Z" fill="#FB9100"/>
<path d="M230.364 181.596L230.076 182.993L244.932 186.06L245.22 184.663L230.364 181.596Z" fill="#28355F"/>
<path d="M202.292 175.789L202.004 177.187L225.718 182.082L226.006 180.685L202.292 175.789Z" fill="#FB9100"/>
<path d="M247.52 190.431L247.232 191.828L262.825 195.047L263.113 193.65L247.52 190.431Z" fill="#1B5A96"/>
<path d="M225.193 185.826L224.905 187.224L238.472 190.025L238.76 188.627L225.193 185.826Z" fill="#FB9100"/>
<path d="M201.245 180.883L200.958 182.28L216.637 185.517L216.925 184.12L201.245 180.883Z" fill="#FB9100"/>
<path d="M253.2 196.919L252.912 198.316L261.77 200.144L262.058 198.747L253.2 196.919Z" fill="#FB9100"/>
<path d="M233.454 192.841L233.166 194.239L246.181 196.926L246.469 195.528L233.454 192.841Z" fill="#FB9100"/>
<path d="M213.201 188.65L212.914 190.047L227.266 193.01L227.554 191.613L213.201 188.65Z" fill="#28355F"/>
<path d="M200.192 185.964L199.905 187.361L209.198 189.28L209.486 187.883L200.192 185.964Z" fill="#1B5A96"/>
<path d="M302.435 102.441C302.336 101.922 302.045 101.46 301.619 101.148C301.192 100.836 300.664 100.699 300.14 100.763C299.616 100.827 299.136 101.089 298.798 101.494C298.46 101.9 298.288 102.419 298.318 102.947L299.842 115.658L306.669 112.032L302.435 102.441Z" fill="#FFC1A4"/>
<path d="M322.293 126.734L329.239 144.32L338.382 140.525L322.293 126.734Z" fill="#FFB49F"/>
<path d="M335.325 264.16C328.665 270.57 321.957 276.366 314.674 272.224L308.322 245.93L328.952 240.679L335.325 264.16Z" fill="#FFC1A4"/>
<path d="M314.674 263.893L334.226 260.108L333.276 256.621L314.674 263.893Z" fill="black"/>
<path d="M314.595 271.779C314.595 271.779 313.715 275.652 310.924 277.267C308.134 278.882 305.878 280.765 305.205 283.687C304.532 286.61 306.026 292.881 306.026 292.881L340.658 286.62L336.453 263.139C336.453 263.139 334.731 262.059 330.813 264.774C326.894 267.489 322.036 271.878 314.595 271.779Z" fill="black"/>
<path d="M305.393 289.553C305.68 291.405 306.026 292.882 306.026 292.882L340.658 286.62L340.054 283.281L305.393 289.553Z" fill="#060606"/>
<path d="M314.803 274.751H313.625C313.494 274.751 313.368 274.699 313.276 274.606C313.183 274.513 313.131 274.387 313.131 274.256C313.131 274.124 313.183 273.998 313.276 273.905C313.368 273.812 313.494 273.76 313.625 273.76C323.045 274.087 328.171 270.362 331.208 267.538C334.246 264.715 336.928 265.507 337.046 265.557C337.168 265.587 337.273 265.665 337.338 265.773C337.403 265.88 337.423 266.009 337.393 266.131C337.362 266.254 337.285 266.359 337.177 266.424C337.07 266.489 336.941 266.508 336.819 266.478C336.72 266.478 334.355 265.914 331.871 268.252C328.853 271.065 323.827 274.751 314.803 274.751Z" fill="#FB9100"/>
<path d="M315.377 278.565C315.268 278.564 315.164 278.525 315.08 278.456L312.3 276.187C312.201 276.107 312.139 275.991 312.126 275.865C312.113 275.739 312.15 275.612 312.23 275.514C312.31 275.415 312.426 275.352 312.552 275.339C312.679 275.326 312.805 275.364 312.903 275.444L315.674 277.723C315.722 277.762 315.763 277.809 315.793 277.864C315.823 277.918 315.842 277.978 315.848 278.04C315.855 278.102 315.849 278.165 315.831 278.224C315.813 278.284 315.783 278.339 315.743 278.387C315.7 278.443 315.644 278.488 315.581 278.519C315.517 278.55 315.447 278.566 315.377 278.565Z" fill="black"/>
<path d="M313.586 280.062C313.478 280.059 313.373 280.02 313.289 279.953L310.518 277.684C310.461 277.648 310.412 277.601 310.375 277.545C310.338 277.489 310.313 277.425 310.301 277.359C310.29 277.292 310.293 277.224 310.311 277.159C310.328 277.094 310.359 277.033 310.401 276.981C310.443 276.928 310.496 276.886 310.556 276.855C310.617 276.825 310.683 276.808 310.75 276.805C310.817 276.802 310.884 276.814 310.947 276.839C311.009 276.864 311.066 276.902 311.112 276.951L313.893 279.219C313.987 279.3 314.047 279.415 314.058 279.539C314.069 279.663 314.031 279.787 313.952 279.883C313.909 279.939 313.853 279.985 313.79 280.016C313.726 280.047 313.657 280.062 313.586 280.062Z" fill="black"/>
<path d="M311.795 281.557C311.687 281.554 311.582 281.516 311.498 281.448L308.728 279.179C308.678 279.14 308.638 279.091 308.608 279.036C308.577 278.98 308.559 278.92 308.552 278.857C308.546 278.794 308.552 278.731 308.57 278.671C308.588 278.61 308.618 278.554 308.658 278.506C308.741 278.41 308.857 278.35 308.983 278.339C309.108 278.328 309.233 278.367 309.331 278.446L312.102 280.715C312.196 280.796 312.255 280.91 312.268 281.033C312.281 281.157 312.246 281.28 312.171 281.379C312.125 281.435 312.068 281.48 312.003 281.51C311.938 281.541 311.867 281.557 311.795 281.557Z" fill="black"/>
<path d="M330.387 285.5H330.328C330.265 285.493 330.205 285.473 330.151 285.442C330.097 285.411 330.049 285.369 330.011 285.32C329.973 285.27 329.946 285.212 329.93 285.152C329.915 285.091 329.912 285.027 329.922 284.965C330.213 282.665 331.212 280.512 332.779 278.804C334.346 277.097 336.404 275.919 338.669 275.435C338.73 275.423 338.793 275.424 338.854 275.438C338.914 275.451 338.972 275.477 339.023 275.513C339.073 275.549 339.116 275.594 339.149 275.647C339.182 275.7 339.204 275.759 339.213 275.821C339.233 275.944 339.204 276.071 339.132 276.173C339.06 276.275 338.95 276.344 338.827 276.366C336.76 276.804 334.882 277.883 333.461 279.45C332.04 281.016 331.148 282.991 330.912 285.094C330.894 285.217 330.83 285.328 330.732 285.404C330.634 285.48 330.51 285.515 330.387 285.5Z" fill="#FB9100"/>
<path d="M394.248 251.667C391.616 260.534 388.647 268.886 380.266 268.886L361.773 249.17L377.12 234.398L394.248 251.667Z" fill="#FFC1A4"/>
<path d="M376.16 261.594L391.289 248.635L388.746 246.069L376.16 261.594Z" fill="black"/>
<path d="M379.989 268.509C379.989 268.509 381.137 272.314 379.495 275.098C377.852 277.882 376.843 280.636 377.704 283.509C378.565 286.382 382.948 291.098 382.948 291.098L409.98 268.509L394.713 250.181C394.713 250.181 392.684 250.101 390.616 254.401C388.548 258.701 386.49 264.893 379.989 268.509Z" fill="black"/>
<path d="M380.741 288.493C381.909 289.969 382.938 291.079 382.938 291.079L409.98 268.509L407.804 265.904L380.741 288.493Z" fill="#060606"/>
<path d="M380.365 271.591C380.279 271.589 380.195 271.565 380.122 271.52C380.049 271.474 379.989 271.41 379.95 271.333C379.919 271.279 379.9 271.219 379.894 271.157C379.887 271.095 379.893 271.033 379.912 270.973C379.93 270.914 379.961 270.859 380.001 270.812C380.042 270.765 380.092 270.726 380.148 270.699C388.499 266.32 391.121 260.544 392.368 256.591C393.555 252.806 396.326 251.994 396.454 251.964C396.514 251.946 396.577 251.94 396.639 251.947C396.701 251.954 396.761 251.973 396.815 252.004C396.87 252.034 396.918 252.075 396.956 252.125C396.994 252.174 397.022 252.231 397.038 252.291C397.072 252.412 397.056 252.541 396.995 252.651C396.934 252.76 396.832 252.841 396.712 252.876C396.603 252.876 394.297 253.609 393.268 256.839C391.972 260.96 389.251 266.964 380.583 271.502C380.52 271.55 380.445 271.581 380.365 271.591Z" fill="#FB9100"/>
<path d="M383.769 274.068H383.69L380.158 273.463C380.046 273.43 379.95 273.358 379.888 273.259C379.827 273.16 379.803 273.042 379.823 272.927C379.842 272.812 379.903 272.708 379.994 272.636C380.085 272.563 380.2 272.526 380.316 272.532L383.848 273.136C383.962 273.16 384.064 273.224 384.133 273.317C384.203 273.41 384.236 273.526 384.227 273.642C384.217 273.758 384.165 273.867 384.081 273.947C383.996 274.027 383.885 274.074 383.769 274.077V274.068Z" fill="black"/>
<path d="M382.958 276.247H382.879L379.346 275.643C379.222 275.622 379.11 275.552 379.037 275.449C378.964 275.346 378.934 275.218 378.955 275.093C378.976 274.968 379.046 274.857 379.149 274.783C379.252 274.71 379.38 274.68 379.505 274.701L383.037 275.306C383.161 275.328 383.271 275.397 383.345 275.498C383.419 275.6 383.45 275.726 383.433 275.851C383.414 275.963 383.356 276.064 383.269 276.137C383.181 276.21 383.071 276.249 382.958 276.247Z" fill="black"/>
<path d="M382.137 278.417H382.057L378.525 277.812C378.458 277.809 378.393 277.791 378.333 277.76C378.273 277.73 378.221 277.687 378.179 277.635C378.137 277.582 378.107 277.521 378.09 277.456C378.073 277.392 378.07 277.324 378.082 277.258C378.093 277.191 378.118 277.128 378.155 277.073C378.193 277.017 378.241 276.97 378.298 276.934C378.355 276.899 378.419 276.875 378.485 276.866C378.551 276.857 378.619 276.862 378.683 276.881L382.216 277.485C382.277 277.495 382.336 277.517 382.389 277.549C382.442 277.582 382.488 277.625 382.524 277.676C382.56 277.727 382.585 277.784 382.599 277.845C382.612 277.906 382.613 277.969 382.602 278.03C382.581 278.139 382.523 278.237 382.438 278.307C382.354 278.378 382.247 278.416 382.137 278.417Z" fill="black"/>
<path d="M400.244 272.681C400.15 272.68 400.059 272.651 399.981 272.598C399.904 272.545 399.844 272.47 399.809 272.383C398.934 270.234 398.746 267.865 399.273 265.604C399.799 263.343 401.013 261.302 402.747 259.761C402.845 259.688 402.967 259.655 403.089 259.669C403.21 259.684 403.321 259.745 403.399 259.839C403.477 259.934 403.515 260.054 403.506 260.176C403.497 260.298 403.442 260.412 403.351 260.494C401.757 261.895 400.645 263.765 400.174 265.835C399.704 267.906 399.898 270.073 400.729 272.027C400.774 272.144 400.772 272.274 400.722 272.389C400.672 272.504 400.578 272.595 400.462 272.641C400.395 272.675 400.319 272.689 400.244 272.681Z" fill="#FB9100"/>
<path d="M328.102 158.22L362.733 176.39V215.188L393.219 244.484L371.312 266.409L340.51 236.063C336.281 231.924 333.801 226.316 333.583 220.399L332.683 195.71L320.928 211.74L336.967 255.63L307.916 266.459L292.916 222.123C290.994 216.429 290.637 210.322 291.884 204.442C293.13 198.562 295.934 193.127 300 188.705L328.102 158.22Z" fill="#1B5A96"/>
<path d="M359.488 193.064C358.29 193.066 357.109 192.786 356.039 192.247C354.969 191.708 354.041 190.925 353.329 189.961C352.616 188.997 352.14 187.88 351.938 186.698C351.736 185.516 351.814 184.303 352.165 183.157C352.182 183.105 352.209 183.056 352.245 183.015C352.28 182.973 352.324 182.939 352.372 182.914C352.421 182.889 352.474 182.874 352.529 182.87C352.583 182.866 352.638 182.872 352.69 182.889C352.742 182.905 352.79 182.931 352.831 182.965C352.873 183 352.907 183.043 352.932 183.091C352.957 183.139 352.972 183.191 352.976 183.245C352.98 183.299 352.974 183.353 352.957 183.404C352.632 184.464 352.571 185.587 352.777 186.676C352.984 187.765 353.452 188.787 354.142 189.653C354.832 190.52 355.723 191.205 356.737 191.649C357.751 192.093 358.859 192.283 359.963 192.202C360.073 192.193 360.182 192.228 360.267 192.3C360.351 192.371 360.404 192.473 360.413 192.584C360.422 192.694 360.387 192.803 360.316 192.888C360.244 192.973 360.142 193.025 360.032 193.034L359.488 193.064Z" fill="white"/>
<path d="M325.786 160.736L362.743 187.318V176.39L325.786 160.736Z" fill="#060606"/>
<path d="M375.616 249.953C375.51 249.953 375.408 249.914 375.329 249.844L352.027 227.691C351.222 226.929 350.586 226.006 350.16 224.982C349.734 223.958 349.527 222.855 349.553 221.746L350.375 189.587C350.373 189.532 350.383 189.476 350.404 189.425C350.425 189.374 350.457 189.327 350.497 189.289C350.537 189.251 350.585 189.221 350.637 189.203C350.689 189.184 350.745 189.177 350.8 189.181C350.909 189.186 351.013 189.233 351.088 189.312C351.164 189.392 351.206 189.497 351.206 189.607L350.384 221.766C350.358 222.763 350.54 223.754 350.92 224.676C351.301 225.597 351.87 226.429 352.591 227.116L375.893 249.269C375.932 249.307 375.963 249.353 375.985 249.403C376.006 249.453 376.017 249.507 376.017 249.562C376.017 249.616 376.006 249.67 375.985 249.72C375.963 249.77 375.932 249.816 375.893 249.854C375.817 249.922 375.718 249.958 375.616 249.953Z" fill="white"/>
<path d="M316.822 247.595C316.734 247.595 316.648 247.567 316.577 247.515C316.506 247.464 316.453 247.391 316.426 247.307L306.432 216.921C305.668 214.855 305.419 212.633 305.709 210.448C305.999 208.264 306.818 206.183 308.094 204.388L321.68 185.505C322.286 184.661 323.068 183.958 323.972 183.445C324.875 182.931 325.879 182.62 326.914 182.533L331.238 182.166C331.293 182.162 331.348 182.169 331.4 182.186C331.452 182.203 331.5 182.231 331.541 182.267C331.582 182.303 331.616 182.346 331.641 182.395C331.665 182.444 331.68 182.498 331.683 182.553C331.692 182.661 331.657 182.769 331.587 182.853C331.516 182.936 331.416 182.988 331.307 182.998L326.983 183.365C326.068 183.442 325.18 183.716 324.381 184.17C323.581 184.623 322.889 185.244 322.353 185.99L308.747 204.874C307.551 206.565 306.784 208.522 306.515 210.577C306.246 212.632 306.483 214.721 307.204 216.664L317.188 247.05C317.206 247.101 317.214 247.156 317.211 247.21C317.208 247.265 317.194 247.318 317.17 247.367C317.146 247.416 317.113 247.46 317.072 247.495C317.03 247.531 316.982 247.558 316.93 247.575L316.822 247.595Z" fill="white"/>
<path d="M321.611 167.582C320.862 167.586 320.116 167.51 319.384 167.355C319.327 167.347 319.273 167.328 319.223 167.299C319.174 167.27 319.132 167.23 319.098 167.184C319.065 167.137 319.042 167.084 319.03 167.028C319.018 166.971 319.018 166.913 319.03 166.857C319.041 166.801 319.064 166.748 319.098 166.701C319.131 166.654 319.173 166.615 319.222 166.585C319.271 166.556 319.326 166.537 319.383 166.529C319.44 166.522 319.497 166.526 319.552 166.542C321.329 166.903 323.169 166.795 324.892 166.228C326.614 165.662 328.16 164.657 329.378 163.312C329.459 163.237 329.565 163.195 329.675 163.195C329.785 163.195 329.891 163.237 329.972 163.312C330.048 163.39 330.091 163.495 330.091 163.605C330.091 163.714 330.048 163.819 329.972 163.897C328.909 165.057 327.617 165.984 326.177 166.618C324.738 167.253 323.183 167.581 321.611 167.582Z" fill="white"/>
<path d="M332.722 195.71V184.812L326.815 203.745L332.722 195.71Z" fill="#060606"/>
<path d="M372.242 257.472C372.135 257.471 372.032 257.429 371.955 257.353C371.916 257.315 371.885 257.27 371.863 257.22C371.842 257.17 371.831 257.116 371.831 257.061C371.831 257.006 371.842 256.952 371.863 256.902C371.885 256.852 371.916 256.807 371.955 256.769L385.58 242.274C385.658 242.197 385.763 242.154 385.872 242.154C385.981 242.154 386.086 242.197 386.164 242.274C386.203 242.312 386.234 242.358 386.256 242.408C386.277 242.458 386.288 242.512 386.288 242.566C386.288 242.621 386.277 242.675 386.256 242.725C386.234 242.775 386.203 242.821 386.164 242.859L372.539 257.353C372.457 257.426 372.352 257.468 372.242 257.472Z" fill="white"/>
<path d="M310.093 259.94C309.996 259.941 309.902 259.908 309.827 259.846C309.751 259.785 309.7 259.699 309.681 259.604C309.662 259.509 309.677 259.41 309.724 259.325C309.77 259.239 309.845 259.173 309.935 259.137L330.219 250.29C330.32 250.246 330.435 250.243 330.538 250.282C330.641 250.32 330.726 250.398 330.773 250.498C330.816 250.6 330.818 250.716 330.777 250.82C330.737 250.923 330.657 251.007 330.555 251.053L310.261 259.9C310.21 259.928 310.152 259.942 310.093 259.94Z" fill="white"/>
<path d="M353.363 126.933L334.998 144.518L320.987 124.912L333.207 117.6C334.654 116.581 336.332 115.939 338.089 115.731C339.845 115.524 341.626 115.757 343.27 116.411L349.444 118.868L353.363 126.933Z" fill="#FB9100"/>
<path d="M373.38 126.09L342.904 116.272L322.293 158.596L367.047 186.06L373.38 126.09Z" fill="#FB9100"/>
<path d="M366.938 110.268L363.317 122.87C363.317 122.87 360.774 133.481 351.977 130.549C344.843 128.171 346.723 120.532 351.621 119.383L352.344 116.53L353.333 112.666L354.322 108.802L366.938 110.268Z" fill="#FFC1A4"/>
<path d="M360.774 114.172C359.052 116.262 353.768 116.48 352.344 116.5L353.333 112.636L354.105 110.427L360.774 114.172Z" fill="#060606"/>
<path d="M382.958 170.426L362.258 188.012L353.541 175.38L370.777 159.32L367.581 136.364L385.105 145.37L387.084 158.349C387.427 160.546 387.23 162.794 386.511 164.898C385.792 167.002 384.573 168.899 382.958 170.426Z" fill="#FFC1A4"/>
<path d="M369.204 148.045L386.283 153.038L385.699 149.254L369.204 148.045Z" fill="#FFB49F"/>
<path d="M373.38 126.09L377.14 127.339C378.771 127.879 380.235 128.836 381.385 130.114C382.535 131.393 383.333 132.949 383.7 134.631L386.916 149.343L367.126 147.887L365.533 123.554L373.38 126.09Z" fill="#FB9100"/>
<path d="M353.541 175.379L340.935 178.183C340.399 178.124 339.86 178.262 339.418 178.571C338.975 178.881 338.66 179.34 338.531 179.864C338.402 180.389 338.467 180.942 338.714 181.422C338.961 181.902 339.374 182.275 339.876 182.473C340.026 182.536 340.182 182.582 340.341 182.612L345.457 182.701L340.322 187.219C339.778 187.696 339.437 188.363 339.369 189.083C339.301 189.803 339.511 190.522 339.955 191.093C340.187 191.301 340.475 191.435 340.784 191.48C341.092 191.524 341.406 191.475 341.687 191.34C341.515 191.58 341.398 191.855 341.346 192.146C341.293 192.437 341.306 192.735 341.384 193.02C341.462 193.305 341.602 193.569 341.795 193.793C341.988 194.016 342.228 194.194 342.498 194.312C342.744 194.417 343.008 194.471 343.275 194.471C343.542 194.471 343.806 194.417 344.052 194.312C343.772 194.773 343.665 195.318 343.751 195.85C343.837 196.382 344.11 196.865 344.521 197.213C344.932 197.561 345.453 197.751 345.991 197.748C346.53 197.744 347.049 197.549 347.456 197.196L347.614 197.067C345.872 199.345 349.355 200.941 350.414 199.633L362.228 188.001L353.541 175.379Z" fill="#FFC1A4"/>
<path d="M340.321 187.615C340.262 187.615 340.203 187.602 340.149 187.578C340.095 187.554 340.046 187.52 340.005 187.477C339.928 187.399 339.885 187.294 339.885 187.184C339.885 187.075 339.928 186.97 340.005 186.892L344.339 183.078L340.292 182.999H340.242C340.049 182.968 339.86 182.914 339.678 182.84C339.249 182.669 338.872 182.389 338.585 182.027C338.298 181.665 338.111 181.234 338.041 180.777C337.972 180.32 338.024 179.853 338.192 179.423C338.359 178.992 338.636 178.612 338.996 178.322C339.271 178.1 339.588 177.936 339.928 177.839C340.268 177.742 340.624 177.714 340.974 177.758C341.033 177.756 341.092 177.767 341.146 177.79C341.2 177.813 341.249 177.847 341.289 177.89C341.329 177.933 341.36 177.984 341.378 178.04C341.397 178.096 341.404 178.155 341.398 178.213C341.393 178.272 341.375 178.329 341.346 178.38C341.317 178.431 341.277 178.475 341.229 178.51C341.182 178.545 341.127 178.569 341.07 178.581C341.012 178.593 340.953 178.593 340.895 178.58C340.658 178.554 340.417 178.576 340.188 178.644C339.959 178.712 339.745 178.825 339.56 178.976C339.373 179.124 339.218 179.308 339.104 179.518C338.99 179.727 338.92 179.957 338.897 180.195C338.854 180.588 338.941 180.984 339.145 181.322C339.348 181.66 339.658 181.922 340.025 182.067C340.14 182.114 340.259 182.151 340.381 182.176L345.467 182.265C345.551 182.268 345.633 182.296 345.702 182.345C345.771 182.395 345.823 182.463 345.853 182.543C345.878 182.622 345.881 182.707 345.86 182.788C345.839 182.869 345.795 182.942 345.734 182.999L340.589 187.506C340.517 187.576 340.421 187.615 340.321 187.615Z" fill="#060606"/>
<path d="M349.316 200.505C348.683 200.496 348.069 200.284 347.564 199.901C347.283 199.688 347.059 199.408 346.916 199.086C346.772 198.763 346.713 198.41 346.743 198.058C346.164 198.23 345.543 198.202 344.982 197.979C344.607 197.829 344.269 197.599 343.992 197.305C343.696 196.985 343.483 196.598 343.373 196.176C343.262 195.754 343.258 195.311 343.359 194.887C343.022 194.904 342.685 194.85 342.37 194.729C342.006 194.576 341.683 194.338 341.43 194.035C341.188 193.739 341.021 193.39 340.942 193.016C340.862 192.642 340.874 192.254 340.975 191.886C340.507 191.875 340.058 191.7 339.708 191.39L339.659 191.331C339.15 190.677 338.909 189.854 338.986 189.029C339.064 188.204 339.453 187.439 340.074 186.892C340.112 186.853 340.157 186.822 340.207 186.8C340.258 186.779 340.312 186.768 340.366 186.768C340.42 186.768 340.474 186.779 340.525 186.8C340.575 186.822 340.62 186.853 340.658 186.892C340.697 186.93 340.728 186.975 340.75 187.026C340.771 187.076 340.782 187.13 340.782 187.184C340.782 187.239 340.771 187.293 340.75 187.343C340.728 187.393 340.697 187.439 340.658 187.477C340.202 187.882 339.914 188.444 339.852 189.051C339.79 189.658 339.957 190.267 340.321 190.756C340.494 190.901 340.704 190.993 340.926 191.021C341.149 191.049 341.376 191.012 341.578 190.915C341.664 190.876 341.759 190.867 341.851 190.888C341.942 190.91 342.023 190.961 342.083 191.033C342.141 191.107 342.172 191.198 342.172 191.291C342.172 191.385 342.141 191.475 342.083 191.549C341.849 191.826 341.721 192.177 341.721 192.539C341.721 192.902 341.849 193.253 342.083 193.53C342.249 193.725 342.459 193.878 342.696 193.976C342.888 194.059 343.095 194.102 343.305 194.102C343.514 194.102 343.721 194.059 343.913 193.976C343.996 193.937 344.088 193.926 344.177 193.944C344.266 193.962 344.347 194.008 344.408 194.075C344.458 194.148 344.485 194.234 344.485 194.323C344.485 194.411 344.458 194.498 344.408 194.57C344.173 194.946 344.08 195.394 344.148 195.832C344.216 196.271 344.439 196.67 344.777 196.956C345.115 197.243 345.545 197.398 345.988 197.393C346.431 197.388 346.857 197.223 347.188 196.928L347.337 196.8C347.411 196.727 347.51 196.686 347.614 196.686C347.717 196.686 347.817 196.727 347.891 196.8C347.966 196.87 348.013 196.965 348.022 197.067C348.031 197.17 348.002 197.272 347.94 197.354C347.796 197.481 347.682 197.638 347.608 197.816C347.534 197.993 347.502 198.185 347.515 198.377C347.527 198.569 347.584 198.755 347.68 198.921C347.776 199.088 347.909 199.23 348.069 199.336C348.663 199.802 349.682 199.96 350.097 199.445L355.045 194.174C355.121 194.094 355.226 194.047 355.336 194.045C355.447 194.042 355.554 194.083 355.634 194.159C355.714 194.235 355.76 194.34 355.763 194.451C355.766 194.561 355.725 194.669 355.648 194.749L350.701 199.99C350.522 200.172 350.305 200.313 350.066 200.402C349.826 200.491 349.57 200.526 349.316 200.505Z" fill="#060606"/>
<path d="M347.614 197.473C347.511 197.472 347.413 197.433 347.337 197.364C347.298 197.327 347.266 197.281 347.245 197.231C347.224 197.181 347.213 197.127 347.213 197.072C347.213 197.018 347.224 196.964 347.245 196.913C347.266 196.863 347.298 196.818 347.337 196.78L351.413 192.173C351.451 192.134 351.497 192.102 351.547 192.081C351.597 192.06 351.651 192.049 351.705 192.049C351.76 192.049 351.814 192.06 351.864 192.081C351.914 192.102 351.959 192.134 351.997 192.173C352.074 192.251 352.117 192.356 352.117 192.465C352.117 192.575 352.074 192.68 351.997 192.757L347.921 197.364C347.837 197.44 347.727 197.479 347.614 197.473Z" fill="#060606"/>
<path d="M344.052 194.719C343.995 194.717 343.94 194.705 343.889 194.681C343.838 194.657 343.792 194.622 343.755 194.58C343.678 194.502 343.635 194.397 343.635 194.288C343.635 194.178 343.678 194.073 343.755 193.995L347.268 190.686C347.345 190.609 347.45 190.566 347.559 190.566C347.669 190.566 347.774 190.609 347.851 190.686C347.891 190.724 347.922 190.77 347.943 190.82C347.964 190.87 347.975 190.924 347.975 190.979C347.975 191.033 347.964 191.087 347.943 191.137C347.922 191.188 347.891 191.233 347.851 191.271L344.368 194.6C344.327 194.641 344.277 194.672 344.223 194.693C344.168 194.713 344.11 194.722 344.052 194.719Z" fill="#060606"/>
<path d="M341.687 191.737C341.629 191.738 341.571 191.726 341.518 191.702C341.465 191.678 341.418 191.643 341.38 191.598C341.341 191.56 341.31 191.515 341.289 191.464C341.267 191.414 341.256 191.36 341.256 191.306C341.256 191.251 341.267 191.197 341.289 191.147C341.31 191.097 341.341 191.051 341.38 191.013L344.418 188.259C344.496 188.182 344.6 188.139 344.71 188.139C344.819 188.139 344.924 188.182 345.002 188.259C345.077 188.34 345.119 188.446 345.119 188.556C345.119 188.667 345.077 188.773 345.002 188.854L341.964 191.598C341.93 191.639 341.888 191.673 341.84 191.697C341.793 191.721 341.74 191.734 341.687 191.737Z" fill="#060606"/>
<path d="M367.126 148.303C367.021 148.303 366.92 148.263 366.842 148.192C366.765 148.12 366.718 148.021 366.711 147.916L365.988 136.84C365.983 136.731 366.02 136.625 366.092 136.543C366.165 136.462 366.266 136.412 366.374 136.404C366.429 136.4 366.484 136.407 366.536 136.424C366.588 136.441 366.636 136.469 366.677 136.504C366.719 136.54 366.752 136.584 366.777 136.633C366.801 136.682 366.816 136.736 366.82 136.79L367.532 147.857C367.536 147.912 367.529 147.967 367.512 148.019C367.495 148.071 367.467 148.119 367.432 148.16C367.396 148.202 367.352 148.236 367.303 148.26C367.254 148.284 367.201 148.299 367.146 148.303H367.126Z" fill="white"/>
<path d="M383.097 146.361L371.223 145.965C371.113 145.959 371.01 145.912 370.935 145.833C370.859 145.754 370.817 145.648 370.817 145.539C370.827 145.429 370.877 145.327 370.957 145.252C371.037 145.177 371.143 145.134 371.253 145.132L383.126 145.529C383.237 145.534 383.342 145.582 383.418 145.664C383.494 145.745 383.535 145.853 383.532 145.965C383.529 146.019 383.516 146.073 383.493 146.122C383.47 146.172 383.437 146.216 383.396 146.253C383.356 146.29 383.309 146.318 383.257 146.337C383.206 146.355 383.151 146.364 383.097 146.361Z" fill="white"/>
<path d="M331.624 139.842C331.565 139.856 331.504 139.856 331.446 139.842C331.396 139.818 331.352 139.785 331.315 139.745C331.279 139.704 331.25 139.657 331.232 139.605C331.214 139.554 331.206 139.499 331.208 139.445C331.211 139.39 331.225 139.336 331.248 139.287L335.8 129.944C335.848 129.846 335.934 129.771 336.038 129.736C336.142 129.701 336.255 129.708 336.354 129.756C336.403 129.779 336.447 129.812 336.484 129.853C336.52 129.894 336.548 129.942 336.566 129.993C336.583 130.045 336.59 130.1 336.586 130.155C336.582 130.209 336.567 130.262 336.542 130.311L332 139.654C331.959 139.715 331.903 139.764 331.837 139.797C331.771 139.83 331.698 139.846 331.624 139.842Z" fill="white"/>
<path d="M331.268 135.592C331.199 135.593 331.13 135.577 331.069 135.544C331.009 135.511 330.958 135.462 330.921 135.403L325.568 127.21C325.508 127.118 325.487 127.006 325.509 126.898C325.532 126.791 325.595 126.696 325.687 126.635C325.78 126.578 325.891 126.558 325.998 126.58C326.105 126.602 326.199 126.665 326.261 126.754L331.654 134.948C331.685 134.992 331.707 135.043 331.719 135.096C331.731 135.149 331.731 135.205 331.721 135.258C331.711 135.312 331.69 135.363 331.66 135.408C331.63 135.454 331.59 135.492 331.545 135.522C331.463 135.577 331.365 135.601 331.268 135.592Z" fill="white"/>
<path d="M370.87 103.135C372.102 95.6795 367.064 88.6365 359.618 87.4036C352.173 86.1708 345.139 91.2149 343.907 98.6701C342.676 106.125 347.714 113.168 355.16 114.401C362.605 115.634 369.639 110.59 370.87 103.135Z" fill="#FFC1A4"/>
<path d="M351.196 105.394C350.778 105.376 350.367 105.275 349.989 105.096C349.754 104.97 349.554 104.789 349.406 104.568C349.258 104.347 349.166 104.093 349.138 103.828C349.151 103.427 349.251 103.034 349.433 102.676C349.614 102.319 349.871 102.005 350.187 101.758L352.601 99.3599C352.639 99.3207 352.684 99.2895 352.734 99.2682C352.784 99.2468 352.838 99.2358 352.893 99.2358C352.947 99.2358 353.001 99.2468 353.051 99.2682C353.101 99.2895 353.147 99.3207 353.185 99.3599C353.224 99.3978 353.255 99.4432 353.276 99.4934C353.298 99.5437 353.309 99.5977 353.309 99.6522C353.309 99.7068 353.298 99.7608 353.276 99.811C353.255 99.8612 353.224 99.9066 353.185 99.9445L350.77 102.342C350.548 102.509 350.362 102.721 350.224 102.962C350.086 103.204 349.999 103.472 349.969 103.749C349.981 103.878 350.026 104.002 350.098 104.109C350.171 104.217 350.269 104.304 350.384 104.363C350.668 104.49 350.974 104.561 351.285 104.571C351.395 104.571 351.501 104.615 351.579 104.693C351.657 104.771 351.7 104.877 351.7 104.987C351.7 105.098 351.657 105.204 351.579 105.282C351.501 105.36 351.395 105.403 351.285 105.403L351.196 105.394Z" fill="#060606"/>
<path d="M353.274 109H352.868C352.758 108.992 352.655 108.941 352.583 108.857C352.51 108.774 352.474 108.665 352.482 108.554C352.49 108.444 352.541 108.341 352.625 108.269C352.708 108.196 352.817 108.16 352.927 108.168C353.744 108.217 354.561 108.07 355.31 107.739C356.059 107.408 356.717 106.903 357.232 106.266C357.262 106.215 357.303 106.171 357.352 106.137C357.401 106.103 357.456 106.081 357.514 106.07C357.573 106.06 357.633 106.062 357.69 106.076C357.748 106.091 357.801 106.118 357.848 106.155C357.894 106.192 357.932 106.238 357.959 106.291C357.985 106.344 358.001 106.402 358.003 106.462C358.006 106.521 357.996 106.58 357.973 106.635C357.951 106.69 357.918 106.74 357.875 106.781C357.321 107.47 356.621 108.027 355.825 108.411C355.029 108.795 354.157 108.996 353.274 109Z" fill="#060606"/>
<path d="M357.034 100.341C356.727 101.005 356.103 101.332 355.648 101.153C355.193 100.975 355.065 100.232 355.371 99.578C355.678 98.9242 356.292 98.5873 356.747 98.7656C357.202 98.944 357.33 99.687 357.034 100.341Z" fill="#060606"/>
<path d="M350.127 97.0517C349.82 97.7056 349.197 98.0424 348.742 97.8641C348.505 97.6859 348.344 97.4239 348.292 97.1313C348.241 96.8387 348.303 96.5375 348.465 96.2888C348.772 95.625 349.385 95.2981 349.84 95.4764C350.295 95.6547 350.424 96.3879 350.127 97.0517Z" fill="#060606"/>
<path d="M376.576 97.448C378.396 102.055 374.933 111.992 366.79 110.853C367.453 110.952 372.281 100.945 370.253 101.134C366.622 101.54 365.632 102.669 365.603 102.699C364.346 103.828 363.99 100.46 364.039 99.7267L366.76 96.1204C366.76 96.1204 349.504 93.921 350.305 83.9046C350.998 75.186 355.777 75.3148 359.854 81.1602C359.765 79.1787 360.032 74.661 364.732 75.3941C371.638 76.4839 378.782 89.1852 376.576 97.448Z" fill="#060606"/>
<path d="M358.33 91.3646H358.271C357.177 91.2025 356.14 90.7752 355.249 90.1198C354.359 89.4644 353.642 88.6009 353.161 87.6044C352.68 86.608 352.449 85.5089 352.49 84.4029C352.53 83.2969 352.84 82.2176 353.392 81.259C353.447 81.1634 353.536 81.093 353.642 81.0633C353.748 81.0336 353.861 81.047 353.956 81.1005C354.004 81.1272 354.046 81.1631 354.079 81.2062C354.112 81.2493 354.136 81.2987 354.15 81.3514C354.164 81.404 354.167 81.459 354.159 81.5129C354.152 81.5668 354.133 81.6186 354.105 81.6652C353.622 82.5055 353.351 83.4514 353.317 84.4204C353.283 85.3894 353.486 86.352 353.908 87.2245C354.331 88.0969 354.96 88.8526 355.741 89.4257C356.522 89.9988 357.431 90.3719 358.389 90.5125C358.443 90.5184 358.496 90.5355 358.543 90.5625C358.59 90.5896 358.631 90.6261 358.664 90.6698C358.696 90.7135 358.719 90.7634 358.732 90.8165C358.744 90.8696 358.745 90.9246 358.736 90.9782C358.728 91.0816 358.683 91.1786 358.608 91.2501C358.533 91.3215 358.433 91.3624 358.33 91.3646Z" fill="white"/>
<path d="M359.577 89.393H359.458C358.613 89.1369 357.851 88.6622 357.248 88.0168C356.645 87.3715 356.223 86.5783 356.024 85.7174C356.001 85.6097 356.021 85.497 356.08 85.4041C356.14 85.3112 356.233 85.2457 356.341 85.222C356.449 85.1984 356.561 85.2186 356.654 85.278C356.747 85.3375 356.812 85.4314 356.836 85.5391C357.008 86.2533 357.361 86.9107 357.862 87.4473C358.364 87.9838 358.995 88.3811 359.695 88.6005C359.748 88.6152 359.797 88.6403 359.84 88.6745C359.882 88.7086 359.917 88.751 359.943 88.7991C359.969 88.8472 359.985 88.9 359.99 88.9544C359.995 89.0088 359.989 89.0636 359.972 89.1156C359.944 89.1974 359.89 89.2681 359.819 89.3178C359.748 89.3676 359.663 89.3939 359.577 89.393Z" fill="white"/>
<path d="M372.974 87.055C372.883 87.0555 372.795 87.0256 372.723 86.9699C372.651 86.9142 372.6 86.836 372.578 86.7479C372.163 85.1368 371.495 83.6019 370.599 82.2004C369.727 80.8397 368.367 79.8648 366.8 79.4758C366.692 79.452 366.597 79.3869 366.536 79.2945C366.475 79.202 366.453 79.0893 366.473 78.9805C366.497 78.8728 366.562 78.7789 366.655 78.7194C366.748 78.66 366.86 78.6399 366.968 78.6634C368.744 79.0939 370.288 80.1894 371.282 81.7248C372.226 83.202 372.927 84.8209 373.36 86.52C373.391 86.6251 373.379 86.7381 373.327 86.8346C373.275 86.931 373.188 87.0031 373.083 87.0352L372.974 87.055Z" fill="white"/>
<path d="M370.936 88.1942C370.847 88.1922 370.761 88.1624 370.69 88.1091C370.619 88.0558 370.567 87.9817 370.54 87.897C370.203 86.7661 369.688 85.696 369.016 84.7266C368.955 84.6342 368.932 84.5214 368.952 84.4122C368.972 84.303 369.034 84.2061 369.125 84.1421C369.216 84.081 369.327 84.0582 369.434 84.0786C369.542 84.099 369.637 84.1609 369.699 84.2511C370.422 85.2934 370.977 86.4436 371.341 87.6592C371.36 87.7112 371.368 87.7664 371.366 87.8216C371.363 87.8768 371.349 87.9309 371.325 87.9807C371.301 88.0305 371.267 88.0751 371.226 88.1117C371.185 88.1484 371.136 88.1764 371.084 88.1942C371.036 88.2094 370.984 88.2094 370.936 88.1942Z" fill="white"/>
<path d="M370.263 105.532C372.334 105.532 374.013 103.851 374.013 101.777C374.013 99.7036 372.334 98.0225 370.263 98.0225C368.192 98.0225 366.513 99.7036 366.513 101.777C366.513 103.851 368.192 105.532 370.263 105.532Z" fill="#FFC1A4"/>
<path d="M237.367 262.892C237.367 262.892 244.402 260.375 248.775 255.669C253.149 250.963 264.28 240.808 257.681 236.974C251.081 233.14 237.941 247.704 236.387 254.639C234.755 261.911 237.367 262.892 237.367 262.892Z" fill="#04AD8C"/>
<path d="M233.547 274.018L233.082 273.919C233.082 273.72 237.644 254.748 252.05 242.928L252.357 243.305C238.049 255.015 233.547 273.829 233.547 274.018Z" fill="#141323"/>
<path d="M248.251 249.21C247.599 249.213 246.95 249.109 246.331 248.903L246.48 248.447C247.616 248.828 248.846 248.828 249.982 248.447L250.131 248.903C249.524 249.103 248.89 249.207 248.251 249.21Z" fill="#141323"/>
<path d="M246.787 253.421C245.656 253.42 244.534 253.222 243.472 252.836L243.64 252.39C244.783 252.808 245.997 252.993 247.212 252.935V253.411L246.787 253.421Z" fill="#141323"/>
<path d="M240.949 256.204C240.208 255.304 239.809 254.171 239.821 253.004H240.296C240.269 254.053 240.62 255.077 241.285 255.887L240.949 256.204Z" fill="#141323"/>
<path d="M244.699 250.844C244.235 250.433 243.882 249.912 243.672 249.328C243.463 248.745 243.404 248.118 243.501 247.505L243.966 247.585C243.882 248.118 243.933 248.664 244.117 249.172C244.3 249.679 244.609 250.132 245.015 250.487L244.699 250.844Z" fill="#141323"/>
<path d="M233.696 253.648C233.696 253.648 240.335 250.22 244.046 244.969C247.756 239.719 257.433 228.127 250.349 225.264C243.264 222.4 232.251 238.53 231.628 245.604C230.985 253.014 233.696 253.648 233.696 253.648Z" fill="#00C09A"/>
<path d="M231.371 265.18L230.896 265.131C230.896 264.943 232.875 245.534 245.579 231.901L245.926 232.228C233.33 245.722 231.39 264.982 231.371 265.18Z" fill="#141323"/>
<path d="M241.859 238.688C241.477 238.687 241.096 238.65 240.721 238.579L240.81 238.113C241.987 238.332 243.203 238.173 244.283 237.658L244.491 238.084C243.67 238.481 242.77 238.687 241.859 238.688Z" fill="#141323"/>
<path d="M240.474 243.077C239.779 243.074 239.086 243.001 238.406 242.859L238.505 242.394C239.696 242.651 240.927 242.671 242.126 242.453L242.215 242.919C241.641 243.026 241.058 243.079 240.474 243.077Z" fill="#141323"/>
<path d="M236.357 246.534C235.514 245.753 234.968 244.702 234.814 243.562L235.289 243.513C235.413 244.554 235.904 245.517 236.674 246.227L236.357 246.534Z" fill="#141323"/>
<path d="M239.365 240.769C238.851 240.423 238.432 239.953 238.147 239.403C237.861 238.852 237.719 238.238 237.733 237.618H238.208C238.193 238.157 238.315 238.69 238.563 239.168C238.81 239.647 239.175 240.054 239.623 240.353L239.365 240.769Z" fill="#141323"/>
<path d="M229.204 257.611C229.204 257.611 221.723 253.5 217.637 247.397C213.55 241.294 202.795 227.78 210.997 224.689C219.2 221.598 231.291 240.372 231.776 248.467C232.33 256.928 229.204 257.611 229.204 257.611Z" fill="#00C09A"/>
<path d="M231.568 270.818C231.568 270.6 229.896 248.536 215.885 232.724L216.241 232.407C230.361 248.348 232.073 270.56 232.073 270.788L231.568 270.818Z" fill="#141323"/>
<path d="M220.486 240.204C219.392 240.205 218.313 239.944 217.34 239.441L217.558 239.025C218.777 239.65 220.163 239.869 221.515 239.649L221.585 240.115C221.221 240.173 220.854 240.203 220.486 240.204Z" fill="#141323"/>
<path d="M222.04 245.266C221.282 245.266 220.526 245.189 219.784 245.038L219.883 244.573C221.251 244.85 222.661 244.85 224.029 244.573L224.118 245.038C223.434 245.184 222.738 245.26 222.04 245.266Z" fill="#141323"/>
<path d="M226.344 249.338L226.037 248.982C226.946 248.185 227.54 247.088 227.709 245.891L228.184 245.96C227.995 247.27 227.342 248.469 226.344 249.338Z" fill="#141323"/>
<path d="M223.079 242.611L222.831 242.205C223.358 241.875 223.792 241.416 224.093 240.872C224.394 240.328 224.552 239.716 224.553 239.094H225.028C225.025 239.797 224.846 240.489 224.505 241.104C224.164 241.719 223.673 242.237 223.079 242.611Z" fill="#141323"/>
<path d="M220.091 266.399V283.469C220.091 285.966 221.081 288.36 222.844 290.125C224.607 291.89 226.998 292.881 229.491 292.881H239.148C240.383 292.883 241.607 292.64 242.748 292.168C243.89 291.695 244.927 291.002 245.801 290.128C246.675 289.254 247.368 288.216 247.841 287.074C248.314 285.931 248.558 284.706 248.558 283.469V266.399H220.091Z" fill="#FB9100"/>
<path d="M243.68 266.399V269.807C243.682 274.866 241.678 279.719 238.108 283.299C234.538 286.879 229.695 288.893 224.642 288.899C223.563 288.898 222.491 288.711 221.476 288.344C222.312 289.731 223.492 290.877 224.902 291.672C226.311 292.467 227.902 292.884 229.52 292.881H239.178C240.413 292.883 241.636 292.64 242.778 292.168C243.919 291.695 244.957 291.002 245.831 290.128C246.705 289.254 247.398 288.216 247.871 287.074C248.344 285.931 248.587 284.706 248.587 283.469V266.399H243.68Z" fill="#C66A05"/>
<path d="M188.952 97.7453C189.923 100.483 190.062 103.448 189.352 106.266C188.641 109.083 187.113 111.626 184.96 113.574C182.807 115.522 180.125 116.788 177.254 117.212C174.383 117.635 171.452 117.197 168.829 115.953C166.206 114.709 164.011 112.715 162.519 110.223C161.027 107.73 160.307 104.851 160.449 101.949C160.59 99.0465 161.587 96.2514 163.314 93.9162C165.041 91.5811 167.421 89.8107 170.152 88.8286C171.97 88.1622 173.902 87.8647 175.836 87.9533C177.77 88.0419 179.667 88.5149 181.417 89.3447C183.166 90.1746 184.734 91.3447 186.027 92.7869C187.321 94.2291 188.315 95.9146 188.952 97.7453Z" fill="#1B5A96"/>
<path d="M175.109 117.817C172.344 117.815 169.632 117.053 167.27 115.613C164.908 114.174 162.986 112.112 161.714 109.654C160.442 107.195 159.868 104.434 160.056 101.672C160.244 98.9091 161.186 96.2513 162.779 93.9882C164.372 91.7251 166.556 89.9435 169.091 88.8378C171.626 87.7321 174.416 87.3448 177.156 87.7181C179.896 88.0914 182.481 89.211 184.63 90.9547C186.778 92.6984 188.406 94.9993 189.338 97.6064C190.007 99.4746 190.302 101.457 190.206 103.439C190.11 105.422 189.624 107.366 188.777 109.16C187.929 110.954 186.737 112.564 185.268 113.896C183.799 115.229 182.082 116.258 180.215 116.926C178.576 117.513 176.849 117.814 175.109 117.817ZM175.109 88.3925C173.467 88.3977 171.837 88.6824 170.29 89.2346C167.634 90.1865 165.319 91.9057 163.638 94.1747C161.957 96.4437 160.986 99.1608 160.847 101.982C160.708 104.804 161.408 107.604 162.858 110.027C164.308 112.451 166.443 114.389 168.993 115.598C171.543 116.807 174.394 117.232 177.185 116.819C179.976 116.405 182.582 115.173 184.674 113.277C186.765 111.381 188.249 108.907 188.936 106.167C189.624 103.427 189.484 100.544 188.536 97.8838C187.546 95.1221 185.733 92.7311 183.343 91.0338C180.952 89.3365 178.099 88.4146 175.168 88.3925H175.109Z" fill="#060F11"/>
<path d="M177.549 100.462C178.564 98.3159 177.648 95.7524 175.504 94.7368C173.36 93.7212 170.8 94.6381 169.786 96.7846C168.772 98.9312 169.687 101.495 171.831 102.51C173.975 103.526 176.535 102.609 177.549 100.462Z" fill="#FFF6EB"/>
<path d="M173.684 103.363C172.661 103.365 171.665 103.035 170.846 102.422C170.027 101.808 169.429 100.945 169.142 99.9615C168.855 98.9782 168.895 97.9283 169.256 96.9699C169.617 96.0114 170.279 95.1963 171.143 94.6473C172.006 94.0983 173.025 93.8451 174.045 93.9258C175.064 94.0066 176.03 94.4169 176.797 95.095C177.564 95.7732 178.09 96.6823 178.296 97.6857C178.502 98.689 178.376 99.7322 177.939 100.658C177.557 101.465 176.955 102.148 176.202 102.627C175.449 103.105 174.576 103.361 173.684 103.363ZM173.684 94.7533C173.239 94.7518 172.797 94.8289 172.378 94.9811C171.461 95.3098 170.701 95.9709 170.248 96.8337C169.794 97.6965 169.681 98.6982 169.929 99.6409C170.178 100.584 170.77 101.399 171.59 101.925C172.41 102.451 173.397 102.65 174.356 102.483C175.316 102.315 176.177 101.794 176.771 101.021C177.365 100.248 177.647 99.2804 177.563 98.3091C177.478 97.3378 177.033 96.4336 176.315 95.7751C175.597 95.1167 174.658 94.7521 173.684 94.7533Z" fill="#060F11"/>
<path d="M189.021 107.444C188.308 109.536 187.133 111.44 185.583 113.014C184.033 114.589 182.149 115.793 180.071 116.537C177.992 117.282 175.773 117.548 173.577 117.315C171.382 117.082 169.268 116.356 167.391 115.192C167.818 112.905 168.836 110.769 170.343 108.998C171.851 107.227 173.796 105.883 175.984 105.099C178.172 104.316 180.528 104.12 182.815 104.531C185.102 104.943 187.242 105.947 189.021 107.444Z" fill="#FFF6EB"/>
<path d="M175.109 117.818C172.31 117.808 169.57 117.019 167.193 115.539C167.124 115.494 167.069 115.43 167.036 115.354C167.003 115.278 166.992 115.195 167.005 115.113C167.443 112.753 168.492 110.55 170.047 108.723C171.601 106.896 173.607 105.509 175.864 104.701C178.121 103.893 180.55 103.692 182.91 104.118C185.269 104.543 187.475 105.581 189.308 107.128C189.371 107.183 189.417 107.256 189.439 107.336C189.462 107.417 189.461 107.503 189.437 107.583C188.706 109.734 187.498 111.692 185.904 113.31C184.311 114.928 182.373 116.164 180.234 116.926C178.59 117.515 176.856 117.817 175.109 117.818ZM167.856 114.944C169.66 116.013 171.678 116.671 173.764 116.87C175.851 117.07 177.956 116.808 179.93 116.101C181.904 115.395 183.698 114.262 185.186 112.783C186.673 111.304 187.817 109.515 188.536 107.544C186.821 106.156 184.779 105.233 182.605 104.863C180.431 104.494 178.198 104.69 176.122 105.433C174.045 106.176 172.195 107.441 170.747 109.107C169.3 110.772 168.304 112.783 167.856 114.944Z" fill="#060F11"/>
<path d="M283.076 64.82L282.445 67.8762C281.734 71.3216 283.947 74.6922 287.388 75.4044L328.55 83.9247C331.991 84.6369 335.358 82.4212 336.069 78.9758L336.7 75.9196C337.411 72.4741 335.199 69.1036 331.757 68.3913L290.595 59.8711C287.154 59.1588 283.788 61.3745 283.076 64.82Z" fill="#FB9100"/>
<path d="M329.853 84.4691C329.387 84.4681 328.923 84.4183 328.468 84.3205L287.305 75.8001C286.434 75.6206 285.606 75.2709 284.869 74.771C284.132 74.271 283.5 73.6306 283.011 72.8863C282.521 72.1421 282.182 71.3085 282.014 70.4332C281.846 69.5579 281.852 68.6581 282.032 67.785L282.665 64.7237C283.031 62.962 284.081 61.4182 285.584 60.4317C287.087 59.4452 288.92 59.0967 290.68 59.4628L331.842 67.9733C333.6 68.3406 335.142 69.3898 336.13 70.8916C337.118 72.3934 337.472 74.2258 337.116 75.9884L336.482 79.0597C336.163 80.5851 335.33 81.9545 334.124 82.939C332.917 83.9236 331.409 84.4637 329.853 84.4691ZM289.284 60.1464C287.917 60.1457 286.592 60.6175 285.532 61.4821C284.472 62.3467 283.742 63.5512 283.466 64.8921L282.833 67.9535C282.674 68.7192 282.667 69.5089 282.814 70.2772C282.96 71.0456 283.256 71.7774 283.685 72.4309C284.115 73.0844 284.669 73.6466 285.315 74.0853C285.962 74.5241 286.689 74.8307 287.454 74.9877L328.616 83.5081C329.381 83.669 330.17 83.6771 330.938 83.532C331.706 83.3868 332.437 83.0913 333.091 82.6624C333.745 82.2335 334.307 81.6795 334.747 81.0324C335.186 80.3852 335.493 79.6576 335.651 78.8912L336.284 75.8299C336.444 75.0641 336.45 74.2744 336.304 73.5061C336.158 72.7378 335.861 72.0059 335.432 71.3524C335.003 70.699 334.449 70.1367 333.802 69.698C333.156 69.2592 332.429 68.9526 331.664 68.7956L290.492 60.2752C290.102 60.1893 289.704 60.1461 289.304 60.1464H289.284Z" fill="#060F11"/>
<path d="M336.71 75.9093L336.077 78.9707C335.909 79.7912 335.582 80.5704 335.113 81.2638C334.644 81.9572 334.043 82.5511 333.344 83.0114C332.645 83.4716 331.863 83.7892 331.041 83.9459C330.22 84.1026 329.375 84.0953 328.557 83.9244L318.365 81.824L321.61 66.2793L331.762 68.3797C332.581 68.5485 333.359 68.8772 334.051 69.347C334.742 69.8169 335.335 70.4187 335.795 71.1179C336.254 71.8172 336.571 72.6003 336.728 73.4224C336.885 74.2445 336.879 75.0896 336.71 75.9093Z" fill="#1B5A96"/>
<path d="M329.853 84.4695C329.387 84.4685 328.923 84.4187 328.468 84.3209L318.286 82.2502C318.178 82.2264 318.083 82.1613 318.022 82.0689C317.961 81.9764 317.939 81.8637 317.959 81.7549L321.175 66.2201C321.186 66.1671 321.207 66.1168 321.237 66.0721C321.267 66.0274 321.306 65.9892 321.351 65.9597C321.396 65.9301 321.447 65.9099 321.5 65.9002C321.553 65.8905 321.607 65.8914 321.66 65.903L331.842 68.0034C333.6 68.3707 335.142 69.4199 336.13 70.9217C337.118 72.4235 337.472 74.2559 337.116 76.0185L336.482 79.0898C336.163 80.6152 335.33 81.9846 334.124 82.9691C332.917 83.9537 331.409 84.4938 329.853 84.4992V84.4695ZM318.86 81.4973L328.636 83.4788C329.401 83.6396 330.19 83.6478 330.958 83.5026C331.725 83.3575 332.457 83.062 333.111 82.6331C333.764 82.2041 334.327 81.6502 334.766 81.003C335.206 80.3559 335.513 79.6283 335.671 78.8619L336.304 75.8005C336.463 75.0348 336.47 74.2451 336.324 73.4768C336.177 72.7084 335.881 71.9766 335.452 71.3231C335.023 70.6696 334.469 70.1074 333.822 69.6686C333.175 69.2299 332.449 68.9232 331.683 68.7663L321.897 66.7848L318.86 81.4973Z" fill="#060F11"/>
<path d="M328.28 78.7527C327.409 78.7546 326.568 78.4428 325.909 77.8744C325.249 77.3059 324.816 76.5189 324.689 75.6571C324.562 74.7953 324.749 73.9164 325.215 73.1813C325.682 72.4461 326.398 71.9037 327.231 71.6534C328.064 71.4031 328.96 71.4615 329.754 71.818C330.548 72.1746 331.187 72.8053 331.554 73.5949C331.922 74.3845 331.993 75.2802 331.755 76.1182C331.517 76.9561 330.986 77.6803 330.258 78.1583C329.672 78.5478 328.983 78.7547 328.28 78.7527ZM328.27 73.4027C327.92 73.3946 327.575 73.4912 327.28 73.6801C326.927 73.907 326.667 74.2533 326.548 74.6559C326.428 75.0584 326.457 75.4906 326.629 75.8738C326.8 76.257 327.104 76.5658 327.484 76.7439C327.863 76.922 328.295 76.9577 328.699 76.8444C329.103 76.7312 329.452 76.4765 329.685 76.1268C329.917 75.777 330.016 75.3554 329.964 74.9386C329.912 74.5218 329.713 74.1376 329.402 73.8557C329.091 73.5738 328.689 73.4131 328.27 73.4027Z" fill="#FFF6EB"/>
<path d="M323.669 79.1095C323.479 79.0843 323.301 79.0049 323.156 78.8806C323.011 78.7564 322.905 78.5928 322.85 78.4095C322.796 78.2262 322.796 78.031 322.849 77.8476C322.903 77.6641 323.009 77.5002 323.154 77.3757L325.568 75.8103C325.667 75.6866 325.794 75.5884 325.938 75.5239C326.083 75.4594 326.241 75.4305 326.399 75.4396C326.556 75.4488 326.71 75.4957 326.846 75.5764C326.982 75.6571 327.097 75.7694 327.18 75.9036C327.264 76.0379 327.315 76.1904 327.328 76.3482C327.34 76.506 327.315 76.6646 327.254 76.8107C327.193 76.9568 327.098 77.0862 326.977 77.1879C326.856 77.2897 326.712 77.3608 326.558 77.3955L324.193 78.9509C324.038 79.0553 323.855 79.1105 323.669 79.1095Z" fill="#FFF6EB"/>
<path fill-rule="evenodd" clip-rule="evenodd" d="M287.088 66.1503L286.544 68.647C286.498 68.8464 286.525 69.0555 286.619 69.237C286.713 69.4186 286.869 69.5606 287.058 69.6377L286.999 69.9151C286.975 70.0319 286.998 70.1533 287.063 70.2533C287.128 70.3533 287.229 70.424 287.345 70.4501C287.403 70.4632 287.463 70.4645 287.521 70.4541C287.58 70.4436 287.635 70.4216 287.685 70.3893C287.735 70.357 287.778 70.3151 287.811 70.266C287.844 70.2169 287.868 70.1616 287.879 70.1034L287.939 69.8458L288.641 69.9944L288.463 70.787C288.44 70.8483 288.431 70.9139 288.436 70.9792C288.44 71.0446 288.459 71.1081 288.49 71.1655C288.522 71.223 288.565 71.2729 288.618 71.312C288.67 71.3511 288.73 71.3785 288.794 71.3921C288.858 71.4058 288.925 71.4055 288.988 71.3913C289.052 71.377 289.112 71.3492 289.164 71.3096C289.217 71.2701 289.26 71.2197 289.291 71.162C289.321 71.1043 289.34 71.0406 289.344 70.9752L289.522 70.1826C289.724 70.1921 289.924 70.1298 290.085 70.0065C290.246 69.8833 290.358 69.7071 290.402 69.5089L290.937 66.9924L287.088 66.1503ZM286.593 65.4865C286.535 65.4735 286.475 65.4721 286.417 65.4826C286.358 65.493 286.303 65.515 286.253 65.5473C286.203 65.5796 286.16 65.6216 286.127 65.6707C286.094 65.7198 286.07 65.775 286.059 65.8333L285.633 67.7652C285.626 67.8743 285.659 67.9822 285.725 68.0693C285.791 68.1564 285.886 68.2169 285.992 68.2397C286.099 68.2625 286.211 68.2461 286.306 68.1936C286.402 68.1411 286.476 68.0558 286.514 67.9534L286.929 66.0215C286.944 65.9642 286.947 65.9045 286.938 65.8461C286.928 65.7877 286.907 65.7317 286.876 65.6817C286.844 65.6316 286.803 65.5885 286.755 65.555C286.706 65.5214 286.651 65.4981 286.593 65.4865ZM291.986 65.1992C291.928 65.1846 291.869 65.1818 291.81 65.191C291.752 65.2002 291.696 65.2212 291.646 65.2527C291.596 65.2843 291.553 65.3256 291.52 65.3743C291.486 65.423 291.463 65.478 291.451 65.536L291.026 67.5175C291.016 67.6277 291.046 67.7377 291.111 67.8271C291.176 67.9165 291.272 67.9792 291.379 68.0034C291.487 68.0277 291.6 68.0119 291.697 67.9589C291.794 67.906 291.868 67.8195 291.906 67.7157L292.322 65.7342C292.337 65.6769 292.339 65.6172 292.33 65.5588C292.321 65.5003 292.3 65.4444 292.269 65.3944C292.237 65.3443 292.196 65.3012 292.147 65.2676C292.099 65.2341 292.044 65.2108 291.986 65.1992ZM288.958 64.4165C288.869 64.4068 288.779 64.4068 288.691 64.4165L288.443 63.8022H288.305L288.364 64.5453C288.065 64.6625 287.798 64.8509 287.588 65.0943C287.378 65.3377 287.23 65.6287 287.157 65.9422L291.026 66.7943V66.7348C291.096 66.4166 291.084 66.0858 290.99 65.7737C290.897 65.4615 290.725 65.1785 290.492 64.9515L290.848 64.3174H290.699L290.234 64.7633L290.017 64.6345V64.4859L288.958 64.258V64.4165ZM289.779 65.4568C289.783 65.4107 289.798 65.3661 289.82 65.3258C289.843 65.2856 289.874 65.2507 289.912 65.2234C289.949 65.1961 289.992 65.177 290.037 65.1675C290.082 65.158 290.129 65.1581 290.174 65.168C290.219 65.1779 290.262 65.1973 290.299 65.2249C290.336 65.2525 290.367 65.2876 290.389 65.328C290.412 65.3684 290.426 65.4132 290.43 65.4593C290.434 65.5054 290.428 65.5518 290.412 65.5955C290.391 65.678 290.34 65.7494 290.268 65.7953C290.196 65.8413 290.11 65.8584 290.026 65.8432C289.978 65.8372 289.931 65.8203 289.89 65.7937C289.848 65.7671 289.814 65.7316 289.788 65.6897C289.762 65.6478 289.746 65.6006 289.741 65.5517C289.736 65.5028 289.743 65.4535 289.759 65.4072L289.779 65.4568ZM288.206 65.11C288.214 65.0679 288.231 65.0279 288.255 64.9924C288.279 64.9568 288.31 64.9266 288.346 64.9034C288.382 64.8803 288.422 64.8647 288.465 64.8576C288.507 64.8506 288.55 64.8522 288.592 64.8623C288.633 64.8716 288.672 64.8891 288.706 64.9137C288.741 64.9382 288.77 64.9695 288.792 65.0055C288.814 65.0415 288.829 65.0815 288.835 65.1233C288.841 65.1651 288.839 65.2077 288.829 65.2487C288.821 65.2898 288.805 65.3289 288.781 65.3636C288.758 65.3983 288.728 65.4281 288.693 65.4511C288.658 65.4741 288.619 65.49 288.578 65.4978C288.536 65.5056 288.494 65.5051 288.453 65.4964C288.409 65.4894 288.367 65.4734 288.329 65.4493C288.291 65.4252 288.259 65.3936 288.234 65.3564C288.209 65.3192 288.191 65.2773 288.183 65.2332C288.175 65.1891 288.176 65.1438 288.186 65.1001L288.206 65.11Z" fill="#FFF6EB"/>
<path fill-rule="evenodd" clip-rule="evenodd" d="M297.467 71.1832L298.16 68.0525L296.399 67.6661C296.188 67.607 295.968 67.5916 295.752 67.6208C295.535 67.65 295.327 67.7231 295.14 67.8358C294.953 67.9484 294.791 68.0982 294.663 68.2759C294.536 68.4536 294.446 68.6554 294.4 68.8691C294.353 69.0827 294.351 69.3036 294.392 69.5183C294.434 69.7329 294.519 69.9367 294.643 70.1173C294.766 70.2978 294.925 70.4512 295.109 70.568C295.294 70.6849 295.5 70.7628 295.716 70.7968L296.25 70.9157L296.399 70.2321L295.864 70.1132C295.738 70.0999 295.615 70.0601 295.504 69.9962C295.394 69.9324 295.298 69.846 295.223 69.7427C295.148 69.6394 295.095 69.5214 295.069 69.3965C295.042 69.2715 295.042 69.1424 295.069 69.0174C295.095 68.8925 295.148 68.7745 295.223 68.6711C295.298 68.5677 295.393 68.4813 295.504 68.4174C295.614 68.3535 295.737 68.3136 295.864 68.3002C295.991 68.2869 296.119 68.3003 296.24 68.3398L297.329 68.5776L296.795 71.0346L297.467 71.1832Z" fill="#FFF6EB"/>
<path fill-rule="evenodd" clip-rule="evenodd" d="M300.396 68.5382C300.192 68.4725 299.975 68.4503 299.762 68.473C299.548 68.4957 299.342 68.5628 299.155 68.6701C298.969 68.7773 298.807 68.9223 298.68 69.0958C298.553 69.2693 298.463 69.4674 298.417 69.6776L298.081 71.3519L298.744 71.5005L299.11 69.8262C299.177 69.5815 299.336 69.3721 299.553 69.2412C299.771 69.1103 300.03 69.0679 300.277 69.1228C300.523 69.1798 300.737 69.3284 300.877 69.5383C301.017 69.7481 301.071 70.0035 301.029 70.2522L300.663 71.9166L301.336 72.0653L301.692 70.4305C301.741 70.2203 301.746 70.0022 301.706 69.7901C301.666 69.5781 301.582 69.3766 301.46 69.1987C301.338 69.0207 301.181 68.87 300.998 68.7563C300.814 68.6426 300.61 68.5684 300.396 68.5382Z" fill="#FFF6EB"/>
<path fill-rule="evenodd" clip-rule="evenodd" d="M305.344 71.2429C305.401 71.0436 305.416 70.8344 305.388 70.6289C305.359 70.4234 305.288 70.2261 305.179 70.0497C305.07 69.8734 304.925 69.7218 304.754 69.6048C304.583 69.4878 304.39 69.408 304.186 69.3704L302.692 69.0435L302.543 69.7271L304.067 70.054C304.176 70.0723 304.28 70.1132 304.373 70.1743C304.465 70.2354 304.544 70.3152 304.604 70.4085C304.663 70.5019 304.703 70.6068 304.719 70.7164C304.736 70.826 304.73 70.9378 304.7 71.0448C304.686 71.1591 304.649 71.2693 304.591 71.3687C304.532 71.4681 304.455 71.5547 304.362 71.6233C304.27 71.6918 304.164 71.7408 304.052 71.7674C303.94 71.794 303.824 71.7976 303.711 71.7779L302.187 71.441L302.039 72.1148L303.533 72.4417C303.731 72.485 303.935 72.4881 304.134 72.4509C304.333 72.4138 304.522 72.337 304.691 72.2253C304.86 72.1135 305.005 71.969 305.117 71.8002C305.229 71.6315 305.306 71.442 305.344 71.2429Z" fill="#FFF6EB"/>
<path fill-rule="evenodd" clip-rule="evenodd" d="M317.653 73.9476C317.712 73.7477 317.728 73.5375 317.7 73.3308C317.673 73.1241 317.602 72.9256 317.493 72.7481C317.384 72.5705 317.238 72.418 317.066 72.3003C316.895 72.1827 316.7 72.1026 316.495 72.0652L315.001 71.7383L314.852 72.4219L316.376 72.7587C316.485 72.777 316.59 72.818 316.682 72.879C316.774 72.9401 316.853 73.0199 316.913 73.1133C316.972 73.2066 317.012 73.3115 317.028 73.4211C317.045 73.5307 317.039 73.6426 317.009 73.7495C316.996 73.8644 316.96 73.9754 316.902 74.0755C316.845 74.1757 316.767 74.2629 316.674 74.3316C316.581 74.4004 316.475 74.4493 316.363 74.4753C316.25 74.5013 316.134 74.5038 316.02 74.4826L314.496 74.1557L314.348 74.8294L315.842 75.1563C316.04 75.1995 316.245 75.2023 316.445 75.1645C316.644 75.1267 316.834 75.0491 317.003 74.9363C317.172 74.8236 317.317 74.6779 317.428 74.5081C317.54 74.3382 317.616 74.1476 317.653 73.9476Z" fill="#FFF6EB"/>
<path fill-rule="evenodd" clip-rule="evenodd" d="M308.945 71.5993C309.143 70.7374 308.737 70.3708 307.837 70.1726L306.353 69.8457L306.204 70.5194L307.728 70.8563C308.302 70.9851 308.371 71.1931 308.312 71.4507C308.253 71.7083 308.124 71.9163 307.54 71.7975L306.016 71.4606L305.878 72.0848L307.372 72.4117C308.263 72.6099 308.747 72.4712 308.945 71.5993Z" fill="#FFF6EB"/>
<path fill-rule="evenodd" clip-rule="evenodd" d="M307.105 72.3426C307.154 72.4317 307.105 72.3426 307.154 72.3426C307.204 72.3426 307.224 72.402 307.313 72.4912C307.467 72.5289 307.601 72.6255 307.686 72.7605C307.771 72.8955 307.801 73.0583 307.768 73.2144C307.764 73.3088 307.737 73.4008 307.689 73.4819L308.302 73.6206C308.302 73.6206 308.767 72.4615 307.679 72.0949C307.154 71.9165 307.095 72.1543 307.085 72.3029C307.095 72.2237 307.065 72.2435 307.105 72.3426Z" fill="#FFF6EB"/>
<path fill-rule="evenodd" clip-rule="evenodd" d="M309.47 72.184C309.404 72.4905 309.431 72.8097 309.547 73.101C309.662 73.3923 309.862 73.6427 310.119 73.8206C310.377 73.9985 310.682 74.0958 310.995 74.1004C311.308 74.1049 311.615 74.0164 311.878 73.846C312.141 73.6757 312.347 73.4311 312.471 73.1433C312.596 72.8555 312.632 72.5373 312.575 72.2289C312.518 71.9206 312.372 71.636 312.154 71.4111C311.936 71.1862 311.656 71.0311 311.35 70.9654C311.146 70.9217 310.936 70.9186 310.732 70.9563C310.527 70.9939 310.332 71.0715 310.158 71.1847C309.983 71.2978 309.832 71.4443 309.714 71.6158C309.596 71.7873 309.513 71.9803 309.47 72.184ZM310.093 72.3227C310.154 72.0807 310.304 71.8707 310.514 71.7348C310.723 71.5988 310.975 71.547 311.221 71.5895C311.411 71.6917 311.563 71.8535 311.653 72.0502C311.743 72.2469 311.766 72.4676 311.719 72.6788C311.672 72.8899 311.557 73.0798 311.392 73.2194C311.227 73.3591 311.021 73.4408 310.805 73.4521C310.571 73.387 310.369 73.2379 310.238 73.0333C310.107 72.8287 310.055 72.5828 310.093 72.3425V72.3227Z" fill="#FFF6EB"/>
<path d="M313.639 71.4311L312.954 74.5669L313.631 74.7151L314.316 71.5793L313.639 71.4311Z" fill="#FFF6EB"/>
<path fill-rule="evenodd" clip-rule="evenodd" d="M293.905 65.8633C293.918 65.8656 293.931 65.8706 293.942 65.8779C293.953 65.8852 293.963 65.8947 293.97 65.9058C293.977 65.9169 293.983 65.9294 293.985 65.9425C293.987 65.9556 293.987 65.9691 293.984 65.9821L292.837 71.352C292.834 71.3651 292.829 71.3776 292.822 71.3888C292.815 71.3999 292.805 71.4095 292.794 71.4169C292.783 71.4243 292.771 71.4294 292.757 71.4319C292.744 71.4343 292.731 71.4341 292.718 71.4312C292.704 71.4305 292.691 71.4265 292.678 71.4196C292.666 71.4128 292.656 71.4032 292.649 71.3916C292.641 71.3801 292.636 71.3669 292.634 71.3531C292.633 71.3394 292.634 71.3254 292.639 71.3123L293.816 65.9029C293.826 65.8891 293.84 65.8783 293.855 65.8713C293.871 65.8644 293.888 65.8616 293.905 65.8633Z" fill="#FFF6EB"/>
</svg>
