<svg width="570" height="324" viewBox="0 0 570 324" fill="none" xmlns="http://www.w3.org/2000/svg">
<rect width="570" height="324" fill="#FFF6EB"/>
<path d="M486.065 292.996H83.7149C83.517 292.979 83.3354 292.92 83.2039 292.829C83.0725 292.738 83 292.621 83 292.5C83 292.379 83.0725 292.262 83.2039 292.171C83.3354 292.08 83.517 292.021 83.7149 292.004H486.065C486.182 291.995 486.3 292.001 486.413 292.021C486.526 292.042 486.63 292.077 486.718 292.124C486.807 292.171 486.878 292.228 486.926 292.293C486.975 292.358 487 292.429 487 292.5C487 292.571 486.975 292.642 486.926 292.707C486.878 292.772 486.807 292.829 486.718 292.876C486.63 292.923 486.526 292.958 486.413 292.979C486.3 292.999 486.182 293.005 486.065 292.996Z" fill="#1E1E1E"/>
<g clip-path="url(#clip0_141_156)">
<path d="M363.72 223.76H248.03V223.46L266.72 50.4499C267.72 41.5799 275.96 34.3599 285.19 34.3599H415.66V34.9099C411.345 34.939 407.187 36.5265 403.95 39.3799C400.723 42.1161 398.648 45.9696 398.14 50.1699L381.04 208.66C380.14 216.99 372.37 223.76 363.72 223.76ZM248.66 223.21H363.72C372.1 223.21 379.63 216.66 380.49 208.6L397.59 50.0899C398.112 45.7495 400.255 41.7667 403.59 38.9399C405.802 37.03 408.428 35.6606 411.26 34.9399H285.26C276.26 34.9399 268.26 41.9399 267.34 50.5399L248.66 223.21Z" fill="#161C1C"/>
<path d="M349.36 205.38L349.08 207.99C348.832 209.97 349.019 211.98 349.629 213.88C350.239 215.78 351.256 217.524 352.61 218.99C354.017 220.458 355.713 221.619 357.591 222.4C359.468 223.181 361.487 223.566 363.52 223.53H238.52C229.42 223.53 222.81 216.43 223.75 207.68L223.99 205.42L349.36 205.38Z" fill="black"/>
<path d="M363.52 223.76H238.52C236.359 223.807 234.212 223.393 232.224 222.545C230.235 221.696 228.451 220.433 226.99 218.84C225.64 217.325 224.628 215.54 224.021 213.604C223.414 211.668 223.226 209.624 223.47 207.61L223.72 205.09H349.72L349.4 208C349.165 209.935 349.354 211.897 349.953 213.752C350.552 215.606 351.547 217.308 352.87 218.74C354.247 220.183 355.91 221.324 357.752 222.09C359.594 222.857 361.575 223.231 363.57 223.19L363.52 223.76ZM224.19 205.66L223.98 207.66C223.742 209.596 223.92 211.561 224.501 213.423C225.082 215.285 226.053 217.002 227.35 218.46C228.761 219.994 230.483 221.209 232.4 222.027C234.317 222.844 236.386 223.244 238.47 223.2H359.23C356.62 222.509 354.257 221.099 352.41 219.13C351.031 217.641 349.993 215.87 349.37 213.939C348.746 212.008 348.552 209.964 348.8 207.95L349.05 205.65L224.19 205.66Z" fill="black"/>
<path d="M393.72 89.0201L397.92 50.1401C398.432 45.8616 400.539 41.9336 403.82 39.1401C407.194 36.1718 411.547 34.558 416.04 34.6101C418.044 34.5935 420.028 35.005 421.859 35.817C423.691 36.6291 425.328 37.823 426.661 39.3188C427.994 40.8147 428.992 42.578 429.589 44.4908C430.185 46.4036 430.366 48.4217 430.12 50.4101L425.96 88.9901L393.72 89.0201Z" fill="#EDD8C0"/>
<path d="M426.16 89.2998H393.36L397.59 50.0898C398.112 45.7494 400.255 41.7667 403.59 38.9398C406.93 36 411.22 34.3663 415.67 34.3398H416C418.06 34.3439 420.096 34.7814 421.975 35.6239C423.855 36.4663 425.536 37.695 426.91 39.2298C428.24 40.7536 429.234 42.5399 429.828 44.4729C430.423 46.4059 430.604 48.4423 430.36 50.4498L426.16 89.2998ZM393.98 88.7398H425.66L429.8 50.4098C430.035 48.479 429.861 46.5203 429.289 44.6612C428.717 42.8021 427.76 41.0844 426.48 39.6198C425.157 38.1443 423.538 36.9635 421.73 36.1538C419.921 35.3441 417.962 34.9237 415.98 34.9198C411.565 34.863 407.286 36.4531 403.98 39.3798C400.753 42.116 398.678 45.9696 398.17 50.1698L393.98 88.7398Z" fill="black"/>
<path d="M379.11 55.0998H287L288.2 44.0098H380.31L379.11 55.0998Z" fill="#1B5A96"/>
<path d="M377.51 139.2H334.92L337.92 111.45C338.102 110.171 338.737 109 339.71 108.15C340.683 107.301 341.928 106.828 343.22 106.82H376.13C376.756 106.807 377.379 106.927 377.955 107.174C378.531 107.421 379.047 107.787 379.47 108.25C379.86 108.69 380.151 109.209 380.323 109.772C380.496 110.334 380.546 110.927 380.47 111.51L377.51 139.2ZM335.51 138.65H376.98L379.91 111.45C379.97 110.943 379.923 110.429 379.771 109.941C379.619 109.454 379.367 109.003 379.03 108.62C378.657 108.217 378.204 107.899 377.698 107.685C377.193 107.471 376.648 107.367 376.1 107.38H343.22C342.065 107.387 340.951 107.807 340.08 108.565C339.208 109.322 338.637 110.367 338.47 111.51L335.51 138.65Z" fill="black"/>
<path d="M377.26 138.93L376.72 143.59C376.548 144.797 375.949 145.903 375.032 146.707C374.114 147.51 372.939 147.958 371.72 147.97H338.81C338.241 147.995 337.673 147.897 337.146 147.682C336.618 147.467 336.144 147.139 335.755 146.723C335.366 146.307 335.073 145.811 334.894 145.27C334.715 144.729 334.656 144.156 334.72 143.59L335.22 138.93H377.26Z" fill="#1B5A96"/>
<path d="M371.72 148.25H338.81C338.184 148.261 337.562 148.14 336.987 147.893C336.411 147.647 335.894 147.281 335.47 146.82C335.082 146.378 334.792 145.859 334.62 145.297C334.447 144.735 334.396 144.143 334.47 143.56L335 138.65H377.59L377.05 143.65C376.857 144.927 376.213 146.092 375.236 146.936C374.258 147.779 373.011 148.245 371.72 148.25ZM335.48 139.25L335 143.67C334.939 144.178 334.987 144.693 335.141 145.181C335.294 145.668 335.55 146.118 335.89 146.5C336.261 146.902 336.713 147.22 337.217 147.434C337.72 147.648 338.263 147.752 338.81 147.74H371.72C372.876 147.735 373.993 147.316 374.866 146.558C375.74 145.8 376.312 144.754 376.48 143.61L376.95 139.25H335.48Z" fill="black"/>
<path d="M343.47 134.71L343.1 134.29L355.46 123.53L360.57 129.02L360.16 129.4L355.42 124.31L343.47 134.71Z" fill="black"/>
<path d="M354.48 134.71L354.11 134.29L370.53 120L378.56 128.61L378.15 128.99L370.49 120.77L354.48 134.71Z" fill="black"/>
<path d="M363.49 117.52C363.363 118.414 362.918 119.233 362.236 119.826C361.555 120.419 360.683 120.747 359.78 120.75C359.362 120.766 358.945 120.691 358.559 120.531C358.172 120.371 357.825 120.129 357.54 119.822C357.255 119.516 357.04 119.151 356.909 118.754C356.778 118.357 356.734 117.936 356.78 117.52C356.905 116.625 357.35 115.805 358.031 115.212C358.713 114.618 359.586 114.291 360.49 114.29C360.909 114.273 361.326 114.347 361.713 114.506C362.101 114.666 362.449 114.907 362.734 115.214C363.019 115.521 363.234 115.886 363.365 116.284C363.495 116.682 363.538 117.104 363.49 117.52Z" fill="#FB9100"/>
<path d="M359.78 121.03C359.307 121.04 358.838 120.949 358.403 120.762C357.969 120.576 357.579 120.299 357.26 119.95C356.965 119.617 356.745 119.226 356.612 118.802C356.479 118.378 356.438 117.931 356.49 117.49C356.629 116.527 357.109 115.646 357.844 115.007C358.578 114.368 359.517 114.014 360.49 114.01C360.963 114 361.432 114.091 361.867 114.278C362.301 114.464 362.691 114.741 363.01 115.09C363.305 115.423 363.525 115.814 363.658 116.238C363.791 116.662 363.832 117.109 363.78 117.55C363.641 118.513 363.161 119.394 362.426 120.033C361.692 120.672 360.753 121.026 359.78 121.03ZM360.48 114.57C359.643 114.572 358.834 114.877 358.204 115.428C357.573 115.979 357.163 116.74 357.05 117.57C357.008 117.929 357.042 118.293 357.151 118.637C357.259 118.982 357.44 119.3 357.68 119.57C357.948 119.858 358.273 120.086 358.635 120.239C358.997 120.393 359.387 120.468 359.78 120.46C360.618 120.458 361.426 120.153 362.056 119.602C362.687 119.051 363.097 118.29 363.21 117.46C363.253 117.101 363.219 116.737 363.11 116.392C363.001 116.047 362.821 115.73 362.58 115.46C362.314 115.17 361.989 114.941 361.627 114.787C361.264 114.633 360.873 114.559 360.48 114.57Z" fill="black"/>
<path d="M284.5 112.92H273.34V113.48H284.5V112.92Z" fill="black"/>
<path d="M330.35 112.92H293.08V113.48H330.35V112.92Z" fill="black"/>
<path d="M312.04 120.09H272.57V120.65H312.04V120.09Z" fill="black"/>
<path d="M329.58 120.09H316.96V120.65H329.58V120.09Z" fill="black"/>
<path d="M285.57 127.26H271.8V127.82H285.57V127.26Z" fill="black"/>
<path d="M328.81 127.26H293.11V127.82H328.81V127.26Z" fill="black"/>
<path d="M308.79 134.43H271.02V134.99H308.79V134.43Z" fill="black"/>
<path d="M328.03 134.43H316.49V134.99H328.03V134.43Z" fill="black"/>
<path d="M303.4 141.6H294.4V142.16H303.4V141.6Z" fill="black"/>
<path d="M327.25 141.6H308.02V142.16H327.25V141.6Z" fill="black"/>
<path d="M384.96 67.2402H371.16V67.8002H384.96V67.2402Z" fill="black"/>
<path d="M360.55 67.2402H314.44V67.8002H360.55V67.2402Z" fill="black"/>
<path d="M384.19 74.4102H335.36V74.9702H384.19V74.4102Z" fill="black"/>
<path d="M329.27 74.4102H313.66V74.9702H329.27V74.4102Z" fill="black"/>
<path d="M383.42 81.5801H366.38V82.1401H383.42V81.5801Z" fill="black"/>
<path d="M357.05 81.5801H312.89V82.1401H357.05V81.5801Z" fill="black"/>
<path d="M382.64 88.75H335.91V89.31H382.64V88.75Z" fill="black"/>
<path d="M326.4 88.75H312.12V89.31H326.4V88.75Z" fill="black"/>
<path d="M351.99 95.9102H340.85V96.4702H351.99V95.9102Z" fill="black"/>
<path d="M335.13 95.9102H311.34V96.4702H335.13V95.9102Z" fill="black"/>
<path d="M291.78 64.7898C291.89 64.7898 291.94 64.8498 291.93 64.9498L291.37 70.0898C291.37 70.2098 291.31 70.2698 291.19 70.2698H289.19C289.08 70.2698 289.02 70.2198 289.03 70.1398L288.61 67.7398C288.61 67.6598 288.56 67.6198 288.46 67.6198H283.72C283.63 67.6198 283.58 67.6198 283.56 67.7798L281.82 83.9298C281.82 84.0298 281.82 84.0798 281.97 84.0898L285.17 84.3498C285.29 84.3498 285.35 84.4198 285.34 84.5198L285.1 86.6898C285.1 86.7998 285.02 86.8498 284.9 86.8498H275.13C275.01 86.8498 274.95 86.7998 274.96 86.6898L275.2 84.5198C275.205 84.4712 275.229 84.4264 275.266 84.3947C275.303 84.3631 275.351 84.347 275.4 84.3498L278.66 84.0898C278.77 84.0898 278.83 84.0298 278.84 83.9298L280.58 67.7798C280.58 67.6698 280.58 67.6198 280.47 67.6198H275.63C275.517 67.6198 275.457 67.6598 275.45 67.7398L274.51 70.1398C274.51 70.2198 274.44 70.2698 274.33 70.2698H272.33C272.22 70.2698 272.17 70.2098 272.19 70.0898L272.74 64.9498C272.74 64.927 272.745 64.9044 272.754 64.8836C272.763 64.8628 272.777 64.8441 272.794 64.829C272.811 64.8138 272.831 64.8025 272.853 64.7958C272.874 64.789 272.897 64.787 272.92 64.7898H291.78Z" fill="#1B5A96"/>
<path d="M306.17 73.0301C306.28 73.0301 306.33 73.0301 306.31 73.1901L305.72 78.3301C305.72 78.3542 305.715 78.378 305.705 78.4001C305.696 78.4221 305.681 78.4419 305.663 78.4579C305.645 78.474 305.624 78.4861 305.601 78.4933C305.578 78.5006 305.554 78.5029 305.53 78.5001H303.53C303.42 78.5001 303.37 78.5001 303.38 78.3701L302.96 75.9801C302.96 75.8901 302.91 75.8501 302.8 75.8501H297.96C297.87 75.8501 297.82 75.8501 297.81 76.0101L296.07 92.1701C296.07 92.2601 296.07 92.3101 296.22 92.3301L299.42 92.5801C299.54 92.5801 299.6 92.6501 299.58 92.7601L299.35 94.9301C299.347 94.9538 299.34 94.9767 299.329 94.9976C299.317 95.0185 299.302 95.037 299.283 95.0518C299.265 95.0667 299.243 95.0778 299.221 95.0843C299.198 95.0909 299.174 95.0928 299.15 95.0901H289.38C289.25 95.0901 289.2 95.0301 289.21 94.9301L289.44 92.7601C289.445 92.7088 289.47 92.6614 289.509 92.6279C289.548 92.5944 289.599 92.5772 289.65 92.5801L292.9 92.3301C293.02 92.3301 293.08 92.2601 293.09 92.1701L294.83 76.0101C294.83 75.9001 294.83 75.8501 294.72 75.8501H289.87C289.76 75.8501 289.7 75.8501 289.69 75.9801L288.75 78.3701C288.75 78.4601 288.68 78.5001 288.57 78.5001H286.72C286.61 78.5001 286.56 78.4401 286.57 78.3301L287.13 73.1901C287.13 73.1673 287.134 73.1447 287.144 73.1238C287.153 73.103 287.167 73.0844 287.184 73.0692C287.201 73.0541 287.221 73.0427 287.243 73.036C287.264 73.0292 287.287 73.0272 287.31 73.0301H306.17Z" fill="#FB9100"/>
<path d="M369.28 168.96H267.84C267.512 168.974 267.185 168.916 266.882 168.791C266.578 168.667 266.305 168.477 266.082 168.237C265.858 167.996 265.69 167.71 265.588 167.398C265.485 167.087 265.452 166.756 265.49 166.43L266.36 158.38C266.459 157.68 266.806 157.039 267.339 156.575C267.871 156.11 268.553 155.853 269.26 155.85H370.72C371.048 155.837 371.376 155.894 371.68 156.019C371.984 156.144 372.257 156.333 372.481 156.573C372.705 156.813 372.875 157.099 372.978 157.411C373.082 157.723 373.116 158.054 373.08 158.38L372.21 166.43C372.111 167.135 371.759 167.78 371.22 168.245C370.681 168.711 369.992 168.965 369.28 168.96Z" fill="#FB9100"/>
<path d="M369.28 169.24H267.84C267.464 169.246 267.091 169.171 266.746 169.021C266.401 168.871 266.092 168.649 265.84 168.37C265.598 168.102 265.417 167.784 265.31 167.438C265.202 167.093 265.172 166.728 265.22 166.37L266.09 158.32C266.198 157.552 266.579 156.849 267.163 156.338C267.746 155.828 268.494 155.544 269.27 155.54H370.72C371.095 155.533 371.468 155.607 371.812 155.755C372.157 155.903 372.467 156.123 372.72 156.4C372.96 156.67 373.14 156.988 373.247 157.333C373.354 157.678 373.385 158.042 373.34 158.4L372.47 166.45C372.364 167.221 371.983 167.929 371.397 168.441C370.81 168.954 370.059 169.238 369.28 169.24ZM269.26 156.09C268.621 156.091 268.003 156.321 267.52 156.74C267.037 157.159 266.721 157.737 266.63 158.37L265.76 166.42C265.729 166.696 265.755 166.975 265.838 167.24C265.92 167.506 266.057 167.751 266.24 167.96C266.443 168.181 266.69 168.356 266.966 168.473C267.242 168.591 267.54 168.647 267.84 168.64H369.28C369.918 168.639 370.534 168.408 371.016 167.989C371.497 167.57 371.811 166.992 371.9 166.36L372.77 158.31C372.801 158.034 372.775 157.755 372.692 157.489C372.609 157.224 372.473 156.979 372.29 156.77C372.091 156.553 371.848 156.38 371.577 156.263C371.307 156.146 371.015 156.087 370.72 156.09H269.26Z" fill="black"/>
<path d="M296.33 178.19H266.69V178.75H296.33V178.19Z" fill="black"/>
<path d="M330.97 178.19H305.28V178.75H330.97V178.19Z" fill="black"/>
<path d="M368.38 178.19H338.54V178.75H368.38V178.19Z" fill="black"/>
<path d="M288.21 184.62H265.99V185.18H288.21V184.62Z" fill="black"/>
<path d="M367.69 184.62H295.63V185.18H367.69V184.62Z" fill="black"/>
<path d="M333.9 191.04H276.77V191.6H333.9V191.04Z" fill="black"/>
<path d="M355.52 191.04H343.45V191.6H355.52V191.04Z" fill="black"/>
<path d="M255.79 287.71L241.06 280.17L237.06 276.79L221.26 279.53L221.55 291.96C221.517 292.108 221.517 292.262 221.552 292.41C221.587 292.559 221.656 292.697 221.752 292.814C221.848 292.932 221.97 293.026 222.109 293.089C222.247 293.153 222.398 293.184 222.55 293.18L256.49 292.42C256.627 292.42 256.762 292.393 256.887 292.339C257.012 292.285 257.126 292.206 257.219 292.106C257.313 292.007 257.385 291.89 257.432 291.761C257.478 291.633 257.498 291.496 257.49 291.36V290.13C257.478 289.604 257.31 289.093 257.007 288.662C256.705 288.231 256.281 287.9 255.79 287.71Z" fill="black"/>
<path d="M237.05 276.79L236.32 261.65L218.88 265.75L221.25 279.53C227.72 282.09 233.54 281.03 237.05 276.79Z" fill="#FFCFC5"/>
<path d="M242.05 285.02L241.55 284.76C241.871 284.112 242.342 283.55 242.922 283.119C243.503 282.688 244.177 282.4 244.89 282.28L244.95 282.83C244.328 282.94 243.741 283.196 243.237 283.576C242.733 283.957 242.326 284.452 242.05 285.02Z" fill="white"/>
<path d="M245.26 286.71L244.76 286.46C245.079 285.811 245.549 285.247 246.13 284.816C246.711 284.385 247.386 284.098 248.1 283.98L248.17 284.53C247.547 284.638 246.959 284.891 246.453 285.27C245.947 285.649 245.538 286.143 245.26 286.71Z" fill="white"/>
<path d="M189.19 287.71L174.46 280.17L170.46 276.79L154.66 279.53L154.95 291.96C154.916 292.108 154.917 292.262 154.952 292.41C154.987 292.559 155.056 292.697 155.152 292.814C155.248 292.932 155.37 293.026 155.509 293.089C155.647 293.153 155.798 293.184 155.95 293.18L189.89 292.42C190.026 292.42 190.162 292.393 190.287 292.339C190.412 292.285 190.525 292.206 190.619 292.106C190.713 292.007 190.785 291.89 190.832 291.761C190.878 291.633 190.898 291.496 190.89 291.36V290.13C190.881 289.603 190.714 289.091 190.411 288.66C190.108 288.228 189.683 287.898 189.19 287.71Z" fill="black"/>
<path d="M170.45 276.79L172.79 260.93L156.79 262.42L154.64 279.53C161.15 282.09 166.94 281.03 170.45 276.79Z" fill="#FFCFC5"/>
<path d="M175.45 285.02L174.95 284.76C175.271 284.112 175.742 283.55 176.322 283.119C176.903 282.688 177.577 282.4 178.29 282.28L178.35 282.83C177.728 282.94 177.141 283.196 176.637 283.576C176.133 283.957 175.726 284.452 175.45 285.02Z" fill="white"/>
<path d="M178.66 286.71L178.17 286.46C178.486 285.811 178.954 285.246 179.533 284.815C180.113 284.383 180.787 284.097 181.5 283.98L181.57 284.53C180.947 284.638 180.359 284.891 179.853 285.27C179.347 285.649 178.938 286.143 178.66 286.71Z" fill="white"/>
<path d="M195.72 125.09C195.72 125.09 224.72 180.82 232.43 196.3C235.02 201.5 240.16 262.01 240.12 263.51L214.64 265.75L205.77 208.09L186.15 175.46L177.49 161.09L168 145.33L195.72 125.09Z" fill="#1B5A96"/>
<path d="M185.61 148.28L187.72 178.07L177.49 161.06L185.61 148.28Z" fill="black"/>
<path d="M178.72 137.52C178.72 137.52 190.43 184.4 190.79 200.44C191.21 219.18 176.06 269.35 176.06 269.35L151.91 268.47L162.34 204.47C156.57 179.4 144.87 143.9 153.34 139.12L178.72 137.52Z" fill="#1B5A96"/>
<path d="M176.38 267.52L178.59 260.7L161.23 266.61L176.38 267.52Z" fill="black"/>
<path d="M253.14 121.88L248.83 129.66C248.83 129.66 216.89 132.35 209.07 127.75C203.64 124.55 195.45 106.54 195.45 106.54L209.45 99.3198L215.67 112.66L253.14 121.88Z" fill="#FFCFC5"/>
<path d="M207.97 110.24C204.02 112.02 199.62 113.37 197.8 113.01C197.63 113 197.466 112.947 197.323 112.856C197.179 112.765 197.061 112.639 196.98 112.49L185.23 81.3501C185.23 81.3501 194.51 81.4401 201.23 86.3501C205.75 89.6701 215.5 104.64 215.5 104.64C216 105.93 212.25 108.33 207.97 110.24Z" fill="#FB9100"/>
<path d="M207.97 110.24C204.02 112.02 199.62 113.37 197.8 113.01C198.5 107.37 200.06 95.27 200.06 95.27C200.06 95.27 203.97 105.22 207.97 110.24Z" fill="black"/>
<path d="M207.16 140.09C207.99 149.57 152.82 152.19 148.02 144.84C146.31 142.22 149.6 137.84 149.6 137.84C149.6 137.74 149.32 136.42 148.94 134.27C146.94 123.12 141.46 89.4399 147.88 85.2699C155.14 80.5699 185.23 78.2698 195.08 84.3298C202.08 88.6398 202.67 119.74 202.66 130.19C202.66 132.34 202.66 133.62 202.66 133.62C202.66 133.62 206.82 136.27 207.16 140.09Z" fill="#FB9100"/>
<path d="M156.47 94.4702L165.28 120.3L194.91 128.28L163.59 122.99L157.05 103.25L156.47 94.4702Z" fill="black"/>
<path d="M286.55 101.97L265.47 101.01L272.96 118.11L286.55 101.97Z" fill="#FFCFC5"/>
<path d="M281.6 107.85L286.55 101.97L278.87 101.62L281.6 107.85Z" fill="#161C1C"/>
<path d="M194.9 127.51C194.9 127.51 204.37 124.9 206.18 126.51C207.99 128.12 201.18 129.57 201.18 129.57L194.9 127.51Z" fill="#FFCFC5"/>
<path d="M184.31 156.45L176.82 139.35L265.47 101.01L272.96 118.11L184.31 156.45Z" fill="#FF4148"/>
<path d="M176.807 139.365L173.418 140.85L180.906 157.941L184.295 156.456L176.807 139.365Z" fill="#FB9100"/>
<path d="M168.27 158.75L164.27 149.57C164.041 149.051 163.917 148.491 163.904 147.924C163.892 147.357 163.992 146.792 164.198 146.264C164.404 145.735 164.713 145.252 165.106 144.843C165.5 144.434 165.97 144.107 166.49 143.88L173.44 140.88L180.93 157.97L173.98 160.97C173.46 161.201 172.899 161.326 172.329 161.34C171.76 161.353 171.194 161.253 170.663 161.047C170.133 160.841 169.648 160.532 169.237 160.137C168.827 159.743 168.498 159.272 168.27 158.75Z" fill="#FFD24F"/>
<path d="M270.65 112.83L181.99 151.17L179.13 144.63L267.79 106.29L270.65 112.83Z" fill="black"/>
<path d="M194.9 127.51L193.55 138.97C193.55 138.97 159.87 141.36 151.55 135.73C146.11 132.04 142.95 109.73 142.95 109.73L157.04 103.25L163.58 123L194.9 127.51Z" fill="#FFCFC5"/>
<path d="M152.21 83.5801C151.86 83.6801 144.57 84.3701 140.42 92.6801C136.27 100.99 142.55 117.96 142.55 117.96C143.31 119.79 162.27 112.7 161.55 110.88L152.21 83.5801Z" fill="#FB9100"/>
<path d="M202.66 130.19C202.66 132.34 202.66 133.62 202.66 133.62C200.12 135.687 196.935 136.798 193.66 136.76C193.66 136.76 200.6 133.87 202.66 130.19Z" fill="black"/>
<path d="M213.43 136.51C212.98 138.37 209.25 136.77 208.14 136.41C209.21 136.79 212.14 138.74 211.79 139.33C211.23 140.44 208.05 139.33 206.6 138.89C207.86 139.28 209.27 141.38 208.78 141.67C207.07 142.67 193.55 138.97 193.55 138.97L194.91 127.51L201.22 129.58C201.22 129.58 212.49 131.29 212.6 133.13C212.69 134.54 210.75 133.93 209.37 133.79C211 134.18 213.6 135.81 213.43 136.51Z" fill="#FFCFC5"/>
<path d="M189.2 45.6998C189.2 45.6998 189.2 53.1798 184.42 54.6198C179.64 56.0598 178.05 51.4798 178.05 51.4798L179.94 45.6198L184.29 45.3398L189.2 45.6998Z" fill="black"/>
<path d="M164 76.8198L167.25 82.5998L175.55 82.9298L180.16 83.6698L178.38 76.5798V70.0898L163.87 62.0298C163.96 62.6398 164.04 63.2498 164.11 63.8498C164.587 68.1622 164.55 72.5161 164 76.8198Z" fill="#FFCFC5"/>
<path d="M163.88 62.0098C163.97 62.6198 164.05 63.2298 164.12 63.8298H164.38C164.564 64.2293 164.702 64.6487 164.79 65.0798C167.07 71.3098 173.52 75.0098 178.38 74.7798V70.0898L163.88 62.0098Z" fill="#FC9B88"/>
<path d="M164 76.8198C165.63 80.0798 171.11 81.6498 175.55 82.9198C175.55 82.9198 174.75 90.6898 173.44 90.7498C172.13 90.8098 161.02 87.5498 160.78 81.5598C162.43 80.2098 162.78 78.6498 164 76.8198Z" fill="#C66A05"/>
<path d="M175.55 82.9298C175.55 82.9298 178.41 88.5998 180.15 88.9298C182.15 89.3598 183.3 83.7898 182.83 80.9298L178.38 76.5498C178.88 78.5498 179.72 80.2798 175.55 82.9298Z" fill="#C66A05"/>
<path d="M177.72 73.0301C172.81 73.5801 165.96 69.8301 163.59 63.3701C163.526 62.9284 163.402 62.4976 163.22 62.0901C162.555 62.0473 161.906 61.8659 161.316 61.5577C160.725 61.2494 160.205 60.8211 159.79 60.3001C158.24 58.4901 158.07 56.0801 159.43 54.9301C159.84 54.6078 160.329 54.4008 160.846 54.3305C161.362 54.2601 161.889 54.3291 162.37 54.5301C162.7 47.5801 166.2 42.0601 171.13 41.4001C174.42 40.9501 177.66 42.7601 180.13 45.9601C180.43 46.3501 180.71 46.7601 180.98 47.1801C182.636 49.8939 183.686 52.9331 184.06 56.0901C185.26 64.9501 182.92 72.4601 177.72 73.0301Z" fill="#FFCFC5"/>
<path d="M154.01 63.7999C154.504 64.7101 155.183 65.5075 156.003 66.141C156.822 66.7746 157.765 67.2306 158.77 67.4799C160.9 68.0699 162.77 69.2099 164.85 68.3399L164.6 67.9899C164.404 66.4234 164.069 64.8774 163.6 63.3699C163.531 62.9281 163.403 62.4976 163.22 62.0899C162.555 62.047 161.906 61.8657 161.316 61.5574C160.725 61.2492 160.205 60.8208 159.79 60.2999C158.24 58.4899 158.07 56.0799 159.43 54.9299C159.839 54.6084 160.326 54.4019 160.841 54.3315C161.356 54.2612 161.88 54.3297 162.36 54.5299C162.36 54.5299 164.83 55.6399 164.81 57.8199L166.49 58.3399L167.16 54.3399C167.16 54.3399 169.83 52.2799 168.48 50.1199C168.48 50.1199 189.21 55.0499 189.21 46.0299C189.21 37.0099 179.95 40.2899 179.95 40.2899C180.471 39.3313 180.902 38.3272 181.24 37.2899C182.24 34.0299 182.42 29.5099 173.81 31.6699C170.422 32.4849 167.331 34.2365 164.891 36.7244C162.451 39.2124 160.759 42.3365 160.01 45.7399C159.331 45.6078 158.63 45.6396 157.966 45.8326C157.301 46.0257 156.693 46.3744 156.19 46.8499C155.599 47.4807 155.256 48.3042 155.225 49.168C155.194 50.0319 155.476 50.878 156.02 51.5499C155.634 51.1523 155.117 50.9087 154.565 50.8646C154.013 50.8204 153.464 50.9787 153.02 51.3099C152.592 51.6628 152.248 52.1057 152.011 52.6069C151.774 53.1082 151.651 53.6555 151.65 54.2099C151.619 55.2251 151.859 56.2303 152.344 57.1227C152.829 58.0152 153.542 58.763 154.41 59.2899C152.9 60.7699 153.1 61.9499 154.01 63.7999Z" fill="black"/>
<path d="M180.25 57.5498L182.01 62.9998L179.28 63.5098L180.25 57.5498Z" fill="#FC9B88"/>
<path d="M210.09 266.94C210.171 267.429 210.356 267.896 210.632 268.308C210.907 268.72 211.268 269.069 211.69 269.33C212.609 269.9 213.702 270.12 214.77 269.95L239.92 266.09C240.955 265.983 241.907 265.478 242.576 264.681C243.244 263.884 243.576 262.857 243.5 261.82C243.418 261.331 243.233 260.865 242.957 260.453C242.681 260.041 242.321 259.692 241.9 259.43C240.981 258.86 239.888 258.64 238.82 258.81L213.72 262.67C212.676 262.764 211.711 263.264 211.032 264.063C210.353 264.861 210.015 265.895 210.09 266.94Z" fill="#1B5A96"/>
<path d="M146.24 268.39C146.244 268.92 146.356 269.443 146.569 269.928C146.782 270.413 147.092 270.849 147.48 271.21C148.297 271.964 149.368 272.382 150.48 272.38H176.36C177.454 272.412 178.516 272.009 179.313 271.259C180.109 270.509 180.576 269.474 180.61 268.38C180.607 267.849 180.494 267.325 180.279 266.84C180.064 266.355 179.751 265.919 179.36 265.56C178.544 264.804 177.472 264.386 176.36 264.39H150.49C149.396 264.358 148.334 264.761 147.537 265.511C146.741 266.261 146.274 267.296 146.24 268.39Z" fill="#1B5A96"/>
<path d="M239.15 251.23L227.15 260.63L239.79 258.8L239.15 251.23Z" fill="black"/>
<path d="M250.72 127.34C250.72 127.34 253.78 130.67 252.66 131.88C251.54 133.09 249.85 131.95 249.85 131.95C249.85 131.95 249.76 133.61 248.57 133.87C247.38 134.13 247.03 133.33 247.03 133.33C247.03 133.33 247.03 134.91 246.03 135.05C245.03 135.19 243.86 133.93 243.86 133.93C243.86 133.93 242.86 135.68 241.79 134.85C240.72 134.02 236.9 130.72 239.42 129.76C239 129.35 239.3 126.81 241 128.12C241 128.12 240.12 126.31 242.26 126.12C242.26 126.12 241.07 123.55 242.48 123.52C243.89 123.49 245.3 126.85 248.12 127.9C248.8 128.17 250.72 127.34 250.72 127.34Z" fill="#FFCFC5"/>
<path d="M241.03 128.09C242.55 129.68 244.03 131.38 246.12 132.21C243.91 131.76 242.23 129.91 241.03 128.09Z" fill="#F58DA3"/>
<path d="M239.45 129.76C240.428 131.076 241.68 132.165 243.12 132.95C242.309 132.725 241.559 132.323 240.924 131.771C240.288 131.219 239.785 130.532 239.45 129.76Z" fill="#F58DA3"/>
<path d="M242.33 125.93C243.98 127.67 245.66 129.79 248.14 130.21C245.58 130.21 243.65 127.9 242.33 125.93Z" fill="#F58DA3"/>
<path d="M220.77 66.4902L234.77 79.1802C235.141 79.5319 235.634 79.7278 236.145 79.7278C236.657 79.7278 237.149 79.5319 237.52 79.1802L239.05 77.6602C239.402 77.2888 239.598 76.7967 239.598 76.2852C239.598 75.7737 239.402 75.2817 239.05 74.9102L225.05 62.2202L220.77 66.4902Z" fill="#FB9100"/>
<path d="M236.16 80.0899C235.573 80.0847 235.012 79.8474 234.6 79.4299L220.37 66.4999L225.06 61.8599L239.26 74.7299C239.469 74.9347 239.634 75.179 239.747 75.4485C239.861 75.7181 239.919 76.0075 239.919 76.2999C239.919 76.5922 239.861 76.8816 239.747 77.1512C239.634 77.4208 239.469 77.6651 239.26 77.8699L237.72 79.3999C237.518 79.612 237.277 79.7823 237.009 79.9007C236.741 80.0191 236.453 80.0834 236.16 80.0899ZM221.16 66.5299L234.95 79.0299C235.104 79.1868 235.288 79.3118 235.49 79.3976C235.693 79.4834 235.91 79.5283 236.13 79.5299C236.347 79.5307 236.562 79.4888 236.763 79.4064C236.964 79.324 237.146 79.2029 237.3 79.0499L238.84 77.5299C239.15 77.2172 239.323 76.7949 239.323 76.3549C239.323 75.9148 239.15 75.4926 238.84 75.1799L225.04 62.6699L221.16 66.5299Z" fill="#161C1C"/>
<path d="M211.72 69.5002C212.474 70.322 213.383 70.9871 214.394 71.4575C215.406 71.9279 216.5 72.1944 217.614 72.2417C218.729 72.2891 219.842 72.1164 220.889 71.7335C221.937 71.3506 222.899 70.765 223.72 70.0102L228.95 65.2202C222.537 63.1736 218.717 59.0136 217.49 52.7402L212.27 57.5402C210.612 59.0539 209.623 61.1638 209.52 63.4064C209.417 65.649 210.208 67.8408 211.72 69.5002Z" fill="#1B5A96"/>
<path d="M218 72.51H217.58C215.853 72.4366 214.186 71.8526 212.791 70.832C211.396 69.8113 210.334 68.3998 209.741 66.776C209.148 65.1521 209.05 63.3889 209.459 61.7093C209.869 60.0297 210.767 58.5091 212.04 57.34L217.63 52.21L217.72 52.7C218.93 58.83 222.72 62.96 228.99 64.96L229.45 65.11L223.87 70.23C222.271 71.7039 220.174 72.5184 218 72.51ZM217.28 53.28L212.42 57.74C210.821 59.2095 209.871 61.2538 209.779 63.4235C209.687 65.5932 210.461 67.7105 211.93 69.31C213.4 70.9079 215.443 71.8579 217.612 71.9516C219.781 72.0453 221.898 71.2752 223.5 69.81L228.37 65.33C222.32 63.27 218.59 59.22 217.28 53.28Z" fill="#161C1C"/>
<path d="M225.21 35.77C225.21 35.77 221.3 40.5 217.45 52.77C218.62 59.12 222.52 63.21 228.91 65.25C228.91 65.25 242.37 61.77 246.83 59.35L225.21 35.77Z" fill="#FB9100"/>
<path d="M228.9 65.5101H228.82C222.25 63.4101 218.34 59.1501 217.18 52.8201V52.7601V52.6901C221 40.5401 224.82 35.8101 224.98 35.6201L225.18 35.3701L247.27 59.4301L246.96 59.6001C242.51 62.0001 229.52 65.3801 228.96 65.5201L228.9 65.5101ZM217.72 52.7601C218.85 58.7601 222.61 62.9001 228.89 64.9301C229.98 64.6501 241.89 61.5101 246.36 59.2401L225.21 36.2401C224.39 37.3301 221.03 42.3101 217.72 52.7601Z" fill="#161C1C"/>
<path d="M230.42 52.6898C231.315 53.6713 232.27 54.5964 233.28 55.4598C238.57 59.9698 244.22 61.7198 246.83 59.3198C249.93 56.4798 247.6 48.8998 241.62 42.3998C235.64 35.8998 228.3 32.9198 225.21 35.7698C222.6 38.1598 223.85 43.9498 227.9 49.5998C228.68 50.6775 229.521 51.7093 230.42 52.6898Z" fill="#161C1C"/>
<path d="M243.72 60.6702C240.79 60.6702 236.91 58.9102 233.12 55.6702C232.101 54.7994 231.136 53.8677 230.23 52.8802C229.333 51.8907 228.494 50.8489 227.72 49.7602C223.49 43.8502 222.4 38.0102 225.07 35.5602C226.65 34.1102 229.28 34.0202 232.49 35.3202C236.079 36.9145 239.282 39.2646 241.88 42.2102C247.95 48.8202 250.28 56.5802 247.07 59.5302C246.141 60.3257 244.942 60.7338 243.72 60.6702ZM228.35 34.9602C227.259 34.8973 226.185 35.2552 225.35 35.9602C222.9 38.2102 224.02 43.7502 228.08 49.4302C228.853 50.4978 229.688 51.5196 230.58 52.4902C231.472 53.4618 232.42 54.3801 233.42 55.2402C238.73 59.7702 244.15 61.3602 246.61 59.1102C249.61 56.3702 247.24 48.9602 241.38 42.5802C238.843 39.6903 235.707 37.387 232.19 35.8302C230.977 35.2993 229.674 35.0041 228.35 34.9602Z" fill="#161C1C"/>
<path d="M230.42 52.6901C231.315 53.6715 232.27 54.5966 233.28 55.4601C233.914 55.2639 234.493 54.9213 234.97 54.4601C235.832 53.6644 236.343 52.5589 236.389 51.3868C236.436 50.2147 236.016 49.072 235.22 48.2101C234.424 47.3481 233.319 46.8375 232.147 46.7906C230.975 46.7438 229.832 47.1644 228.97 47.9601C228.481 48.3979 228.104 48.9465 227.87 49.5601C228.658 50.6523 229.51 51.6974 230.42 52.6901Z" fill="#C66A05"/>
<path d="M233.21 55.7701L233.1 55.6701C232.081 54.7993 231.116 53.8676 230.21 52.8801C229.319 51.89 228.488 50.8482 227.72 49.7601L227.63 49.6401L227.69 49.5001C227.939 48.8482 228.34 48.2653 228.86 47.8001C229.311 47.3804 229.842 47.0546 230.42 46.8417C230.999 46.6288 231.614 46.5331 232.23 46.5601C233.459 46.6322 234.61 47.1812 235.44 48.0901C235.857 48.5443 236.18 49.0762 236.391 49.6553C236.601 50.2345 236.696 50.8495 236.669 51.4652C236.642 52.081 236.494 52.6854 236.234 53.2439C235.973 53.8024 235.605 54.304 235.15 54.7201C234.64 55.1895 234.027 55.5321 233.36 55.7201L233.21 55.7701ZM228.21 49.5601C228.962 50.5812 229.766 51.5625 230.62 52.5001C231.478 53.4358 232.389 54.3206 233.35 55.1501C233.881 54.9701 234.368 54.6805 234.78 54.3001C235.205 53.9394 235.553 53.4965 235.803 52.998C236.053 52.4995 236.2 51.9556 236.234 51.399C236.269 50.8425 236.191 50.2846 236.004 49.7591C235.818 49.2335 235.527 48.751 235.15 48.3405C234.772 47.93 234.316 47.6 233.808 47.3703C233.299 47.1406 232.75 47.0159 232.193 47.0037C231.635 46.9915 231.081 47.0921 230.563 47.2994C230.045 47.5067 229.575 47.8165 229.18 48.2101C228.766 48.5872 228.435 49.0472 228.21 49.5601Z" fill="#161C1C"/>
<path d="M243.691 31.1312L242.625 40.0879L243.181 40.1541L244.247 31.1974L243.691 31.1312Z" fill="#242B2B"/>
<path d="M254.898 40.1215L246.146 42.3052L246.282 42.8485L255.034 40.6649L254.898 40.1215Z" fill="#242B2B"/>
<path d="M251.968 30.9947L244.748 40.7417L245.198 41.075L252.418 31.328L251.968 30.9947Z" fill="#242B2B"/>
<path d="M411.9 160.54C408.391 160.536 404.974 159.421 402.139 157.353C399.304 155.285 397.198 152.372 396.123 149.032C395.049 145.692 395.06 142.097 396.157 138.764C397.254 135.431 399.38 132.531 402.228 130.482C405.076 128.433 408.501 127.34 412.01 127.36C415.518 127.38 418.93 128.512 421.756 130.593C424.581 132.674 426.673 135.597 427.732 138.942C428.791 142.287 428.762 145.882 427.65 149.21C426.565 152.524 424.454 155.408 421.623 157.444C418.792 159.481 415.387 160.565 411.9 160.54ZM411.9 127.92C408.53 127.924 405.246 128.989 402.515 130.963C399.783 132.938 397.742 135.721 396.68 138.92C395.624 142.131 395.611 145.594 396.645 148.813C397.679 152.031 399.706 154.84 402.434 156.835C405.163 158.83 408.454 159.91 411.834 159.92C415.215 159.929 418.511 158.868 421.251 156.888C423.991 154.907 426.033 152.11 427.085 148.898C428.136 145.685 428.143 142.222 427.105 139.005C426.067 135.788 424.036 132.982 421.304 130.991C418.573 128.999 415.28 127.924 411.9 127.92Z" fill="black"/>
<path d="M417.08 128.49C414.019 127.467 410.723 127.374 407.61 128.225C404.496 129.076 401.705 130.831 399.59 133.269C397.474 135.707 396.13 138.717 395.726 141.92C395.323 145.122 395.878 148.372 397.323 151.258C398.768 154.144 401.036 156.537 403.841 158.134C406.646 159.73 409.862 160.458 413.081 160.226C416.301 159.994 419.379 158.812 421.926 156.83C424.473 154.847 426.374 152.154 427.39 149.09C428.754 144.991 428.434 140.518 426.501 136.655C424.567 132.792 421.179 129.855 417.08 128.49ZM417.43 146.36L411.24 150.36C410.807 150.643 410.306 150.804 409.789 150.825C409.273 150.847 408.76 150.728 408.305 150.482C407.85 150.236 407.47 149.872 407.205 149.428C406.941 148.984 406.8 148.477 406.8 147.96V139.9C406.802 139.384 406.943 138.877 407.208 138.434C407.473 137.99 407.852 137.626 408.306 137.38C408.76 137.133 409.272 137.014 409.788 137.033C410.304 137.052 410.806 137.21 411.24 137.49L417.43 141.49C417.841 141.75 418.18 142.109 418.414 142.535C418.649 142.961 418.772 143.439 418.772 143.925C418.772 144.411 418.649 144.89 418.414 145.315C418.18 145.741 417.841 146.1 417.43 146.36Z" fill="#1B5A96"/>
<path d="M409.72 151.14C409.197 151.136 408.682 151.006 408.22 150.76C407.719 150.492 407.3 150.093 407.009 149.605C406.719 149.116 406.567 148.558 406.57 147.99V139.93C406.57 139.362 406.723 138.805 407.013 138.318C407.303 137.83 407.72 137.43 408.219 137.16C408.718 136.889 409.28 136.758 409.847 136.781C410.414 136.804 410.965 136.98 411.44 137.29L417.63 141.29C418.07 141.575 418.431 141.965 418.681 142.425C418.931 142.886 419.062 143.401 419.062 143.925C419.062 144.449 418.931 144.964 418.681 145.424C418.431 145.885 418.07 146.275 417.63 146.56L411.44 150.56C410.937 150.92 410.338 151.122 409.72 151.14ZM409.72 137.33C409.032 137.333 408.373 137.608 407.888 138.095C407.403 138.582 407.13 139.242 407.13 139.93V147.99C407.13 148.456 407.257 148.913 407.495 149.313C407.733 149.713 408.075 150.042 408.485 150.264C408.894 150.486 409.356 150.594 409.822 150.575C410.287 150.557 410.739 150.413 411.13 150.16L417.32 146.16C417.681 145.925 417.978 145.603 418.183 145.224C418.388 144.845 418.496 144.421 418.496 143.99C418.496 143.559 418.388 143.135 418.183 142.756C417.978 142.377 417.681 142.055 417.32 141.82L411.13 137.82C410.719 137.521 410.228 137.351 409.72 137.33Z" fill="black"/>
<path d="M312.86 268.41C312.135 268.404 311.415 268.296 310.72 268.09L292.61 262.74C290.66 262.165 289.018 260.84 288.044 259.054C287.071 257.269 286.847 255.171 287.42 253.22L292.72 235.09C293.295 233.14 294.621 231.498 296.406 230.525C298.191 229.551 300.289 229.327 302.24 229.9L320.36 235.24C322.311 235.817 323.953 237.145 324.926 238.932C325.899 240.718 326.124 242.818 325.55 244.77L320.21 262.88C319.746 264.472 318.779 265.87 317.454 266.867C316.13 267.864 314.518 268.405 312.86 268.41ZM300.07 230.17C298.539 230.178 297.052 230.678 295.827 231.596C294.602 232.515 293.706 233.803 293.27 235.27L287.93 253.39C287.664 254.285 287.578 255.224 287.676 256.152C287.773 257.08 288.053 257.98 288.499 258.801C288.945 259.621 289.548 260.345 290.274 260.932C291 261.519 291.835 261.956 292.73 262.22L310.85 267.56C312.66 268.091 314.607 267.883 316.263 266.981C317.92 266.08 319.152 264.558 319.69 262.75L325.03 244.64C325.56 242.83 325.35 240.884 324.446 239.228C323.543 237.573 322.019 236.343 320.21 235.81L302.1 230.47C301.441 230.272 300.758 230.171 300.07 230.17Z" fill="black"/>
<path d="M320.29 235.54L302.18 230.2C301.249 229.924 300.273 229.834 299.307 229.936C298.341 230.038 297.405 230.33 296.552 230.794C295.699 231.259 294.947 231.887 294.337 232.643C293.728 233.399 293.273 234.268 293 235.2L287.66 253.31C287.384 254.241 287.294 255.217 287.396 256.183C287.498 257.149 287.79 258.085 288.255 258.938C288.719 259.791 289.347 260.543 290.103 261.153C290.859 261.763 291.728 262.217 292.66 262.49L310.77 267.83C311.701 268.105 312.677 268.193 313.642 268.091C314.608 267.988 315.543 267.696 316.396 267.232C317.248 266.767 318.001 266.14 318.611 265.384C319.221 264.629 319.676 263.761 319.95 262.83L325.29 244.72C325.566 243.789 325.656 242.813 325.554 241.847C325.452 240.881 325.16 239.945 324.696 239.092C324.231 238.239 323.603 237.487 322.847 236.877C322.091 236.267 321.222 235.813 320.29 235.54ZM321.47 243.54L316.42 260.66C316.337 260.938 316.147 261.171 315.892 261.31C315.638 261.448 315.338 261.481 315.06 261.4L292.53 254.76C292.252 254.677 292.019 254.487 291.88 254.232C291.742 253.978 291.709 253.678 291.79 253.4L296.84 236.28C296.881 236.143 296.949 236.015 297.04 235.904C297.131 235.793 297.242 235.701 297.369 235.633C297.495 235.565 297.633 235.523 297.776 235.509C297.919 235.494 298.063 235.508 298.2 235.55L320.72 242.21C320.858 242.249 320.987 242.315 321.099 242.404C321.212 242.493 321.306 242.604 321.375 242.729C321.445 242.855 321.489 242.993 321.506 243.135C321.522 243.278 321.51 243.422 321.47 243.56V243.54Z" fill="#FB9100"/>
<path d="M306.72 249.91C306.558 249.909 306.397 249.889 306.24 249.85C305.811 249.714 305.453 249.416 305.24 249.02L299.72 239.09L300.2 238.82L305.71 248.82C305.783 248.955 305.883 249.075 306.003 249.171C306.123 249.267 306.262 249.338 306.41 249.38C306.556 249.423 306.709 249.437 306.86 249.42C307.011 249.402 307.158 249.355 307.29 249.28L317.14 243.84L317.41 244.32L307.56 249.77C307.296 249.886 307.007 249.934 306.72 249.91Z" fill="black"/>
<path d="M307.968 249.106L307.507 249.424L313.079 257.51L313.54 257.192L307.968 249.106Z" fill="black"/>
<path d="M305.01 248.056L295.878 251.981L296.099 252.495L305.231 248.57L305.01 248.056Z" fill="black"/>
</g>
<defs>
<clipPath id="clip0_141_156">
<rect width="291.44" height="262.19" fill="white" transform="translate(139 31)"/>
</clipPath>
</defs>
</svg>
