<svg width="570" height="324" viewBox="0 0 570 324" fill="none" xmlns="http://www.w3.org/2000/svg">
<rect width="570" height="324" fill="#FFF6EB"/>
<path d="M486.065 292.996H83.7149C83.517 292.979 83.3354 292.92 83.2039 292.829C83.0725 292.738 83 292.621 83 292.5C83 292.379 83.0725 292.262 83.2039 292.171C83.3354 292.08 83.517 292.021 83.7149 292.004H486.065C486.182 291.995 486.3 292.001 486.413 292.021C486.526 292.042 486.63 292.077 486.718 292.124C486.807 292.171 486.878 292.228 486.926 292.293C486.975 292.358 487 292.429 487 292.5C487 292.571 486.975 292.642 486.926 292.707C486.878 292.772 486.807 292.829 486.718 292.876C486.63 292.923 486.526 292.958 486.413 292.979C486.3 292.999 486.182 293.005 486.065 292.996Z" fill="#1E1E1E"/>
<g clip-path="url(#clip0_141_284)">
<path d="M196.07 126.14C191.5 122.01 188.47 114.32 187.07 108.32C185.664 102.273 186.195 95.9376 188.59 90.21C189.076 88.6833 190.113 87.3927 191.5 86.59C193.21 85.82 195.21 86.49 196.89 87.3L197.22 87.46C197.75 87.7366 198.334 87.891 198.932 87.912C199.529 87.9329 200.123 87.8198 200.671 87.581C201.218 87.3421 201.706 86.9836 202.097 86.5318C202.488 86.08 202.772 85.5463 202.93 84.97C203.387 83.1133 204.184 81.3571 205.28 79.79C206.209 78.4712 207.423 77.3789 208.832 76.5946C210.242 75.8102 211.81 75.354 213.42 75.26C214.736 75.2426 216.036 75.5502 217.205 76.1555C218.373 76.7608 219.375 77.6451 220.12 78.73C220.343 79.0876 220.684 79.3562 221.083 79.4894C221.483 79.6227 221.917 79.6123 222.31 79.46C223.603 78.9835 224.999 78.8556 226.358 79.089C227.716 79.3224 228.99 79.9091 230.05 80.79C231.307 81.8938 232.265 83.298 232.833 84.8717C233.401 86.4454 233.562 88.1374 233.3 89.79C232.71 93.1215 230.934 96.1268 228.3 98.25" fill="black"/>
<path d="M401.22 178.43H284.49C280.607 178.427 276.884 176.884 274.137 174.14C271.391 171.395 269.845 167.673 269.84 163.79V58.2298C269.84 58.0946 269.894 57.9648 269.989 57.8692C270.085 57.7736 270.215 57.7198 270.35 57.7198H415.35C415.417 57.7185 415.484 57.7307 415.547 57.7559C415.609 57.781 415.666 57.8185 415.714 57.8662C415.761 57.9138 415.799 57.9706 415.824 58.0331C415.849 58.0956 415.861 58.1625 415.86 58.2298V163.79C415.855 167.671 414.311 171.392 411.566 174.136C408.822 176.88 405.101 178.425 401.22 178.43ZM270.86 58.7898V163.79C270.865 167.402 272.303 170.865 274.859 173.418C277.414 175.972 280.878 177.407 284.49 177.41H401.22C404.831 177.405 408.292 175.968 410.845 173.415C413.398 170.862 414.835 167.4 414.84 163.79V58.7898H270.86Z" fill="#231F20"/>
<path d="M415.35 58.79H270.35C270.215 58.79 270.085 58.7363 269.989 58.6406C269.894 58.545 269.84 58.4153 269.84 58.28V45.65C269.843 41.7654 271.387 38.0406 274.134 35.2938C276.881 32.547 280.605 31.0026 284.49 31H401.22C405.103 31.0053 408.825 32.5508 411.57 35.2973C414.314 38.0439 415.857 41.7671 415.86 45.65V58.23C415.867 58.3011 415.859 58.3728 415.836 58.4406C415.814 58.5083 415.778 58.5706 415.729 58.6234C415.681 58.6762 415.623 58.7183 415.557 58.747C415.492 58.7757 415.421 58.7903 415.35 58.79ZM270.86 57.79H414.86V45.65C414.857 42.0376 413.422 38.5738 410.868 36.0186C408.315 33.4633 404.852 32.0253 401.24 32.02H284.49C280.877 32.0253 277.413 33.463 274.858 36.018C272.303 38.573 270.865 42.0367 270.86 45.65V57.79Z" fill="#231F20"/>
<path d="M287.93 51.1298C286.689 51.1318 285.475 50.7655 284.443 50.0773C283.41 49.3891 282.605 48.41 282.129 47.2639C281.653 46.1178 281.528 44.8563 281.77 43.6391C282.012 42.4219 282.609 41.3038 283.486 40.4263C284.364 39.5488 285.482 38.9514 286.699 38.7098C287.916 38.4682 289.178 38.5932 290.324 39.069C291.47 39.5448 292.449 40.35 293.138 41.3827C293.826 42.4153 294.192 43.6289 294.19 44.8698C294.187 46.5293 293.527 48.12 292.354 49.2934C291.18 50.4668 289.589 51.1272 287.93 51.1298ZM287.93 39.6198C286.891 39.6179 285.875 39.9241 285.011 40.4998C284.146 41.0754 283.471 41.8947 283.073 42.8538C282.674 43.8129 282.568 44.8689 282.77 45.8879C282.971 46.907 283.47 47.8434 284.204 48.5786C284.938 49.3138 285.873 49.8148 286.892 50.0182C287.911 50.2216 288.967 50.1182 289.927 49.7212C290.887 49.3241 291.707 48.6512 292.285 47.7876C292.862 46.924 293.17 45.9086 293.17 44.8698C293.167 43.48 292.615 42.1477 291.633 41.164C290.651 40.1803 289.32 39.6251 287.93 39.6198Z" fill="#231F20"/>
<path d="M304.46 51.1298C303.219 51.1298 302.007 50.7619 300.975 50.0725C299.944 49.3831 299.141 48.4032 298.666 47.257C298.192 46.1107 298.068 44.8495 298.311 43.6329C298.554 42.4164 299.152 41.2992 300.03 40.4228C300.908 39.5463 302.026 38.9499 303.243 38.7091C304.46 38.4683 305.721 38.5939 306.866 39.07C308.012 39.5461 308.99 40.3513 309.678 41.3837C310.366 42.4161 310.732 43.6293 310.73 44.8698C310.727 46.531 310.066 48.1233 308.89 49.2969C307.714 50.4706 306.121 51.1298 304.46 51.1298ZM304.46 39.6198C303.422 39.6198 302.407 39.9278 301.543 40.5046C300.68 41.0815 300.007 41.9014 299.61 42.8608C299.212 43.8201 299.108 44.8757 299.311 45.8941C299.513 46.9125 300.013 47.8479 300.748 48.5822C301.482 49.3164 302.417 49.8164 303.436 50.019C304.454 50.2215 305.51 50.1176 306.469 49.7202C307.428 49.3229 308.248 48.6499 308.825 47.7866C309.402 46.9232 309.71 45.9082 309.71 44.8698C309.707 43.4783 309.153 42.1445 308.169 41.1605C307.185 40.1765 305.852 39.6225 304.46 39.6198Z" fill="#231F20"/>
<path d="M320.93 51.1298C319.69 51.1298 318.477 50.7619 317.446 50.0725C316.414 49.3831 315.611 48.4032 315.136 47.257C314.662 46.1107 314.539 44.8495 314.781 43.6329C315.024 42.4164 315.622 41.2992 316.5 40.4228C317.378 39.5463 318.496 38.9499 319.713 38.7091C320.93 38.4683 322.191 38.5939 323.336 39.07C324.482 39.5461 325.46 40.3513 326.148 41.3837C326.836 42.4161 327.202 43.6293 327.2 44.8698C327.197 46.531 326.536 48.1233 325.36 49.2969C324.184 50.4706 322.591 51.1298 320.93 51.1298ZM320.93 39.6198C319.892 39.6198 318.877 39.9278 318.013 40.5046C317.15 41.0815 316.477 41.9014 316.08 42.8608C315.682 43.8201 315.578 44.8757 315.781 45.8941C315.983 46.9125 316.483 47.8479 317.218 48.5822C317.952 49.3164 318.887 49.8164 319.906 50.019C320.924 50.2215 321.98 50.1176 322.939 49.7202C323.898 49.3229 324.718 48.6499 325.295 47.7866C325.872 46.9232 326.18 45.9082 326.18 44.8698C326.18 44.1804 326.044 43.4977 325.78 42.8608C325.517 42.2238 325.13 41.645 324.642 41.1575C324.155 40.67 323.576 40.2833 322.939 40.0195C322.302 39.7556 321.619 39.6198 320.93 39.6198Z" fill="#231F20"/>
<path d="M401.22 31.5098H284.49C280.74 31.5098 277.143 32.9995 274.491 35.6513C271.84 38.303 270.35 41.8996 270.35 45.6498V58.2298H415.35V45.6498C415.351 43.7933 414.987 41.9549 414.277 40.2394C413.568 38.5239 412.527 36.965 411.215 35.6519C409.903 34.3387 408.345 33.297 406.63 32.5863C404.915 31.8756 403.076 31.5098 401.22 31.5098ZM287.93 50.6198C286.79 50.6217 285.675 50.2854 284.726 49.6532C283.777 49.021 283.038 48.1216 282.6 47.0686C282.163 46.0157 282.048 44.8568 282.27 43.7385C282.492 42.6202 283.041 41.593 283.847 40.7868C284.653 39.9807 285.68 39.4319 286.799 39.21C287.917 38.988 289.076 39.1029 290.129 39.5401C291.182 39.9773 292.081 40.7172 292.713 41.6659C293.346 42.6147 293.682 43.7297 293.68 44.8698C293.68 46.3948 293.074 47.8573 291.996 48.9356C290.917 50.014 289.455 50.6198 287.93 50.6198ZM304.43 50.6198C303.29 50.6198 302.176 50.2817 301.229 49.6483C300.281 49.015 299.543 48.1148 299.107 47.0617C298.672 46.0086 298.558 44.85 298.781 43.7324C299.004 42.6148 299.554 41.5884 300.361 40.7833C301.167 39.9781 302.194 39.4303 303.312 39.2092C304.43 38.9881 305.589 39.1036 306.641 39.5411C307.693 39.9786 308.592 40.7184 309.224 41.667C309.856 42.6155 310.192 43.7301 310.19 44.8698C310.19 46.3913 309.587 47.8508 308.513 48.9286C307.439 50.0063 305.981 50.6145 304.46 50.6198H304.43ZM320.93 50.6198C319.79 50.6198 318.676 50.2817 317.729 49.6483C316.781 49.015 316.043 48.1148 315.607 47.0617C315.172 46.0086 315.058 44.85 315.281 43.7324C315.504 42.6148 316.054 41.5884 316.861 40.7833C317.667 39.9781 318.694 39.4303 319.812 39.2092C320.93 38.9881 322.089 39.1036 323.141 39.5411C324.193 39.9786 325.092 40.7184 325.724 41.667C326.356 42.6155 326.692 43.7301 326.69 44.8698C326.691 45.6261 326.543 46.3752 326.254 47.0741C325.965 47.7729 325.541 48.4078 325.005 48.9421C324.47 49.4764 323.834 49.8997 323.135 50.1876C322.436 50.4755 321.686 50.6224 320.93 50.6198ZM397.72 50.6198H351.02C350.244 50.6521 349.47 50.5272 348.743 50.2526C348.017 49.978 347.353 49.5593 346.793 49.0217C346.232 48.4841 345.786 47.8387 345.482 47.1243C345.177 46.41 345.02 45.6414 345.02 44.8648C345.02 44.0882 345.177 43.3196 345.482 42.6052C345.786 41.8908 346.232 41.2455 346.793 40.7079C347.353 40.1703 348.017 39.7516 348.743 39.4769C349.47 39.2023 350.244 39.0774 351.02 39.1098H397.75C398.526 39.0774 399.3 39.2023 400.027 39.4769C400.753 39.7516 401.417 40.1703 401.977 40.7079C402.538 41.2455 402.984 41.8908 403.288 42.6052C403.593 43.3196 403.75 44.0882 403.75 44.8648C403.75 45.6414 403.593 46.41 403.288 47.1243C402.984 47.8387 402.538 48.4841 401.977 49.0217C401.417 49.5593 400.753 49.978 400.027 50.2526C399.3 50.5272 398.526 50.6521 397.75 50.6198H397.72Z" fill="#FB9100"/>
<path d="M397.75 51.1302H351.02C350.176 51.1639 349.334 51.0269 348.545 50.7272C347.755 50.4276 347.034 49.9715 346.426 49.3864C345.817 48.8013 345.332 48.0993 345.001 47.3224C344.67 46.5454 344.5 45.7097 344.5 44.8652C344.5 44.0208 344.67 43.185 345.001 42.4081C345.332 41.6312 345.817 40.9291 346.426 40.344C347.034 39.7589 347.755 39.3029 348.545 39.0032C349.334 38.7036 350.176 38.5665 351.02 38.6002H397.75C398.594 38.5665 399.436 38.7036 400.225 39.0032C401.015 39.3029 401.736 39.7589 402.344 40.344C402.953 40.9291 403.438 41.6312 403.769 42.4081C404.1 43.185 404.27 44.0208 404.27 44.8652C404.27 45.7097 404.1 46.5454 403.769 47.3224C403.438 48.0993 402.953 48.8013 402.344 49.3864C401.736 49.9715 401.015 50.4276 400.225 50.7272C399.436 51.0269 398.594 51.1639 397.75 51.1302ZM351.02 39.6202C350.312 39.5893 349.605 39.702 348.942 39.9517C348.278 40.2013 347.672 40.5827 347.16 41.0728C346.649 41.5629 346.241 42.1515 345.963 42.8033C345.684 43.4551 345.541 44.1565 345.541 44.8652C345.541 45.5739 345.684 46.2753 345.963 46.9271C346.241 47.5789 346.649 48.1676 347.16 48.6576C347.672 49.1477 348.278 49.5291 348.942 49.7787C349.605 50.0284 350.312 50.1411 351.02 50.1102H397.75C398.458 50.1411 399.165 50.0284 399.828 49.7787C400.492 49.5291 401.098 49.1477 401.609 48.6576C402.121 48.1676 402.529 47.5789 402.807 46.9271C403.086 46.2753 403.229 45.5739 403.229 44.8652C403.229 44.1565 403.086 43.4551 402.807 42.8033C402.529 42.1515 402.121 41.5629 401.609 41.0728C401.098 40.5827 400.492 40.2013 399.828 39.9517C399.165 39.702 398.458 39.5893 397.75 39.6202H351.02Z" fill="#231F20"/>
<path d="M399.71 114.71H363.93C363.182 114.712 362.441 114.565 361.749 114.28C361.058 113.995 360.43 113.576 359.9 113.047C359.371 112.519 358.951 111.891 358.664 111.2C358.377 110.509 358.23 109.768 358.23 109.02V73.9202C358.23 72.4085 358.831 70.9587 359.899 69.8897C360.968 68.8208 362.418 68.2202 363.93 68.2202H399.74C401.252 68.2202 402.702 68.8208 403.771 69.8897C404.839 70.9587 405.44 72.4085 405.44 73.9202V109.02C405.441 109.769 405.295 110.51 405.009 111.202C404.722 111.893 404.303 112.521 403.773 113.05C403.243 113.579 402.614 113.998 401.922 114.283C401.23 114.568 400.488 114.713 399.74 114.71H399.71ZM363.93 69.2402C362.69 69.2429 361.501 69.7368 360.624 70.6139C359.747 71.491 359.253 72.6798 359.25 73.9202V109.02C359.249 109.635 359.369 110.243 359.604 110.811C359.839 111.379 360.183 111.895 360.618 112.329C361.053 112.763 361.57 113.107 362.138 113.34C362.707 113.574 363.316 113.693 363.93 113.69H399.74C400.495 113.692 401.24 113.51 401.91 113.162C402.58 112.814 403.157 112.309 403.59 111.69C404.133 110.91 404.423 109.981 404.42 109.03V73.9202C404.417 72.6798 403.923 71.491 403.046 70.6139C402.169 69.7368 400.98 69.2429 399.74 69.2402H363.93Z" fill="#231F20"/>
<path d="M403.98 111.97C403.501 112.659 402.863 113.222 402.119 113.61C401.376 113.999 400.549 114.201 399.71 114.2H363.93C363.166 114.202 362.411 114.034 361.719 113.709C361.027 113.384 360.416 112.91 359.93 112.32L372.25 96.52C372.479 96.2251 372.772 95.9864 373.108 95.8223C373.443 95.6581 373.812 95.5728 374.185 95.5728C374.558 95.5728 374.927 95.6581 375.262 95.8223C375.598 95.9864 375.891 96.2251 376.12 96.52L384.12 106.76L390.12 99.09C390.349 98.7951 390.642 98.5564 390.978 98.3923C391.313 98.2281 391.682 98.1428 392.055 98.1428C392.428 98.1428 392.797 98.2281 393.132 98.3923C393.468 98.5564 393.761 98.7951 393.99 99.09L403.98 111.97Z" fill="#1B5A96"/>
<path d="M399.71 114.71H363.93C363.092 114.71 362.264 114.526 361.505 114.17C360.746 113.814 360.075 113.295 359.54 112.65C359.465 112.56 359.424 112.447 359.424 112.33C359.424 112.213 359.465 112.1 359.54 112.01L371.86 96.2099C372.136 95.853 372.491 95.5645 372.897 95.3668C373.303 95.1691 373.749 95.0675 374.2 95.0699C374.649 95.0671 375.093 95.1676 375.497 95.3635C375.901 95.5594 376.254 95.8456 376.53 96.1999L384.12 105.93L389.66 98.7899C389.941 98.4413 390.297 98.1601 390.701 97.9669C391.105 97.7737 391.547 97.6734 391.995 97.6734C392.443 97.6734 392.885 97.7737 393.289 97.9669C393.693 98.1601 394.049 98.4413 394.33 98.7899L404.38 111.68C404.443 111.767 404.478 111.872 404.478 111.98C404.478 112.088 404.443 112.193 404.38 112.28C403.854 113.031 403.155 113.643 402.342 114.066C401.529 114.489 400.626 114.71 399.71 114.71ZM360.56 112.3C361.001 112.745 361.526 113.097 362.104 113.336C362.683 113.574 363.304 113.695 363.93 113.69H399.74C400.434 113.69 401.119 113.537 401.747 113.242C402.374 112.946 402.929 112.515 403.37 111.98L393.53 99.3999C393.348 99.167 393.115 98.9788 392.849 98.8493C392.583 98.7198 392.291 98.6525 391.995 98.6525C391.699 98.6525 391.407 98.7198 391.141 98.8493C390.875 98.9788 390.642 99.167 390.46 99.3999L384.46 107.07C384.411 107.129 384.35 107.176 384.281 107.208C384.212 107.241 384.136 107.258 384.06 107.258C383.984 107.258 383.908 107.241 383.839 107.208C383.77 107.176 383.709 107.129 383.66 107.07L375.66 96.8299C375.476 96.5999 375.243 96.4134 374.979 96.2838C374.714 96.1541 374.425 96.0845 374.13 96.0799C373.835 96.0795 373.543 96.1469 373.278 96.2769C373.012 96.4069 372.781 96.5961 372.6 96.8299L360.56 112.3Z" fill="#231F20"/>
<path d="M382.21 109.67C382.095 109.667 381.983 109.629 381.89 109.56C381.785 109.477 381.716 109.356 381.7 109.223C381.683 109.09 381.719 108.956 381.8 108.85L389.09 99.4998C389.174 99.3924 389.296 99.3226 389.431 99.3057C389.566 99.2888 389.703 99.3263 389.81 99.4098C389.917 99.4934 389.987 99.6162 390.004 99.7512C390.021 99.8862 389.984 100.022 389.9 100.13L382.61 109.47C382.563 109.531 382.502 109.581 382.433 109.616C382.364 109.651 382.288 109.669 382.21 109.67Z" fill="#231F20"/>
<path d="M388.949 87.7891C389.538 85.2951 387.993 82.796 385.499 82.2074C383.005 81.6187 380.506 83.1634 379.917 85.6574C379.329 88.1515 380.873 90.6505 383.367 91.2392C385.861 91.8278 388.36 90.2832 388.949 87.7891Z" fill="#FB9100"/>
<path d="M384.45 91.8801C383.431 91.882 382.434 91.5817 381.586 91.017C380.738 90.4523 380.076 89.6487 379.685 88.7078C379.294 87.767 379.19 86.7312 379.388 85.7315C379.585 84.7318 380.075 83.8133 380.795 83.092C381.515 82.3708 382.432 81.8793 383.432 81.6798C384.431 81.4802 385.467 81.5816 386.409 81.9711C387.35 82.3606 388.155 83.0207 388.721 83.8678C389.288 84.715 389.59 85.7111 389.59 86.7301C389.587 88.0934 389.045 89.4003 388.082 90.3652C387.119 91.3302 385.813 91.8748 384.45 91.8801ZM384.45 82.6101C383.632 82.6081 382.832 82.8489 382.152 83.3019C381.471 83.755 380.94 84.3999 380.626 85.155C380.313 85.91 380.23 86.7413 380.389 87.5433C380.548 88.3454 380.942 89.0822 381.52 89.6604C382.098 90.2386 382.835 90.6321 383.637 90.7912C384.439 90.9502 385.27 90.8676 386.025 90.5538C386.78 90.2399 387.425 89.709 387.878 89.0283C388.331 88.3476 388.572 87.5478 388.57 86.7301C388.567 85.6382 388.132 84.5918 387.36 83.8197C386.588 83.0476 385.542 82.6127 384.45 82.6101Z" fill="black"/>
<path d="M384.45 79.7199C384.315 79.7199 384.185 79.6661 384.089 79.5705C383.994 79.4748 383.94 79.3451 383.94 79.2099V78.1199C383.94 77.9846 383.994 77.8549 384.089 77.7592C384.185 77.6636 384.315 77.6099 384.45 77.6099C384.585 77.6099 384.715 77.6636 384.811 77.7592C384.906 77.8549 384.96 77.9846 384.96 78.1199V79.2099C384.96 79.3451 384.906 79.4748 384.811 79.5705C384.715 79.6661 384.585 79.7199 384.45 79.7199Z" fill="black"/>
<path d="M384.45 95.8502C384.315 95.8502 384.185 95.7965 384.089 95.7009C383.994 95.6052 383.94 95.4755 383.94 95.3402V94.2502C383.94 94.115 383.994 93.9853 384.089 93.8896C384.185 93.794 384.315 93.7402 384.45 93.7402C384.585 93.7402 384.715 93.794 384.811 93.8896C384.906 93.9853 384.96 94.115 384.96 94.2502V95.3402C384.96 95.4755 384.906 95.6052 384.811 95.7009C384.715 95.7965 384.585 95.8502 384.45 95.8502Z" fill="black"/>
<path d="M379.13 81.9202C378.995 81.9199 378.865 81.8659 378.77 81.7702L378 81.0102C377.904 80.9129 377.85 80.7818 377.85 80.6452C377.85 80.5086 377.904 80.3775 378 80.2802C378.098 80.1895 378.226 80.1392 378.36 80.1392C378.493 80.1392 378.622 80.1895 378.72 80.2802L379.49 81.0502C379.561 81.1215 379.609 81.2123 379.629 81.311C379.649 81.4098 379.638 81.5121 379.6 81.6052C379.561 81.6982 379.496 81.7778 379.413 81.8338C379.329 81.8899 379.231 81.9199 379.13 81.9202Z" fill="black"/>
<path d="M390.53 93.3302C390.395 93.3298 390.265 93.2759 390.17 93.1802L389.4 92.4102C389.309 92.3122 389.259 92.1836 389.259 92.0502C389.259 91.9167 389.309 91.7881 389.4 91.6902C389.497 91.5943 389.628 91.5405 389.765 91.5405C389.902 91.5405 390.033 91.5943 390.13 91.6902L390.89 92.4602C390.961 92.5315 391.01 92.6222 391.029 92.721C391.049 92.8198 391.039 92.9221 391 93.0152C390.962 93.1082 390.896 93.1877 390.813 93.2438C390.729 93.2999 390.631 93.3299 390.53 93.3302Z" fill="black"/>
<path d="M379.13 81.9202C378.995 81.9199 378.865 81.8659 378.77 81.7702L378 81.0102C377.904 80.9129 377.85 80.7818 377.85 80.6452C377.85 80.5086 377.904 80.3775 378 80.2802C378.098 80.1895 378.226 80.1392 378.36 80.1392C378.493 80.1392 378.622 80.1895 378.72 80.2802L379.49 81.0502C379.561 81.1215 379.609 81.2123 379.629 81.311C379.649 81.4098 379.638 81.5121 379.6 81.6052C379.561 81.6982 379.496 81.7778 379.413 81.8338C379.329 81.8899 379.231 81.9199 379.13 81.9202Z" fill="black"/>
<path d="M390.53 93.3302C390.395 93.3298 390.265 93.2759 390.17 93.1802L389.4 92.4102C389.309 92.3122 389.259 92.1836 389.259 92.0502C389.259 91.9167 389.309 91.7881 389.4 91.6902C389.497 91.5943 389.628 91.5405 389.765 91.5405C389.902 91.5405 390.033 91.5943 390.13 91.6902L390.89 92.4602C390.961 92.5315 391.01 92.6222 391.029 92.721C391.049 92.8198 391.039 92.9221 391 93.0152C390.962 93.1082 390.896 93.1877 390.813 93.2438C390.729 93.2999 390.631 93.3299 390.53 93.3302Z" fill="black"/>
<path d="M376.93 87.2402H375.85C375.734 87.217 375.631 87.1545 375.556 87.0634C375.481 86.9722 375.44 86.858 375.44 86.7402C375.44 86.6224 375.481 86.5082 375.556 86.4171C375.631 86.3259 375.734 86.2635 375.85 86.2402H376.93C377.045 86.2635 377.149 86.3259 377.224 86.4171C377.299 86.5082 377.339 86.6224 377.339 86.7402C377.339 86.858 377.299 86.9722 377.224 87.0634C377.149 87.1545 377.045 87.217 376.93 87.2402Z" fill="black"/>
<path d="M393.06 87.2402H391.93C391.815 87.217 391.711 87.1545 391.636 87.0634C391.561 86.9722 391.521 86.858 391.521 86.7402C391.521 86.6224 391.561 86.5082 391.636 86.4171C391.711 86.3259 391.815 86.2635 391.93 86.2402H393.02C393.136 86.2635 393.239 86.3259 393.314 86.4171C393.389 86.5082 393.43 86.6224 393.43 86.7402C393.43 86.858 393.389 86.9722 393.314 87.0634C393.239 87.1545 393.136 87.217 393.02 87.2402H393.06Z" fill="black"/>
<path d="M376.93 87.2402H375.85C375.734 87.217 375.631 87.1545 375.556 87.0634C375.481 86.9722 375.44 86.858 375.44 86.7402C375.44 86.6224 375.481 86.5082 375.556 86.4171C375.631 86.3259 375.734 86.2635 375.85 86.2402H376.93C377.045 86.2635 377.149 86.3259 377.224 86.4171C377.299 86.5082 377.339 86.6224 377.339 86.7402C377.339 86.858 377.299 86.9722 377.224 87.0634C377.149 87.1545 377.045 87.217 376.93 87.2402Z" fill="black"/>
<path d="M393.06 87.2402H391.93C391.815 87.217 391.711 87.1545 391.636 87.0634C391.561 86.9722 391.521 86.858 391.521 86.7402C391.521 86.6224 391.561 86.5082 391.636 86.4171C391.711 86.3259 391.815 86.2635 391.93 86.2402H393.02C393.136 86.2635 393.239 86.3259 393.314 86.4171C393.389 86.5082 393.43 86.6224 393.43 86.7402C393.43 86.858 393.389 86.9722 393.314 87.0634C393.239 87.1545 393.136 87.217 393.02 87.2402H393.06Z" fill="black"/>
<path d="M378.36 93.3298C378.259 93.3295 378.161 93.2995 378.077 93.2434C377.994 93.1874 377.928 93.1078 377.89 93.0148C377.851 92.9217 377.841 92.8194 377.861 92.7206C377.881 92.6219 377.929 92.5311 378 92.4598L378.77 91.6898C378.816 91.6378 378.872 91.5959 378.935 91.5665C378.998 91.537 379.067 91.5208 379.136 91.5188C379.206 91.5167 379.275 91.5289 379.339 91.5546C379.404 91.5802 379.463 91.6188 379.512 91.6679C379.561 91.7171 379.6 91.7758 379.625 91.8403C379.651 91.9049 379.663 91.9741 379.661 92.0436C379.659 92.113 379.643 92.1814 379.613 92.2443C379.584 92.3073 379.542 92.3636 379.49 92.4098L378.72 93.1798C378.625 93.2755 378.495 93.3294 378.36 93.3298Z" fill="black"/>
<path d="M389.77 81.9202C389.701 81.9213 389.633 81.9087 389.57 81.8829C389.506 81.8571 389.448 81.8188 389.4 81.7702C389.309 81.6722 389.259 81.5437 389.259 81.4102C389.259 81.2767 389.309 81.1481 389.4 81.0502L390.17 80.2802C390.268 80.1895 390.397 80.1392 390.53 80.1392C390.664 80.1392 390.792 80.1895 390.89 80.2802C390.986 80.3775 391.04 80.5086 391.04 80.6452C391.04 80.7818 390.986 80.9129 390.89 81.0102L390.13 81.7702C390.035 81.8659 389.905 81.9199 389.77 81.9202Z" fill="black"/>
<path d="M366.04 91.2102C365.905 91.2102 365.775 91.1564 365.679 91.0608C365.584 90.9652 365.53 90.8354 365.53 90.7002C365.517 90.1652 365.295 89.6565 364.912 89.2828C364.529 88.9091 364.015 88.7 363.48 88.7002C363.345 88.7002 363.215 88.6464 363.119 88.5508C363.024 88.4552 362.97 88.3254 362.97 88.1902C362.97 88.0549 363.024 87.9252 363.119 87.8296C363.215 87.7339 363.345 87.6802 363.48 87.6802C363.987 87.6807 364.487 87.807 364.934 88.0478C365.381 88.2886 365.761 88.6365 366.04 89.0602C366.319 88.6365 366.699 88.2886 367.146 88.0478C367.593 87.807 368.092 87.6807 368.6 87.6802C368.735 87.6802 368.865 87.7339 368.961 87.8296C369.056 87.9252 369.11 88.0549 369.11 88.1902C369.11 88.3254 369.056 88.4552 368.961 88.5508C368.865 88.6464 368.735 88.7002 368.6 88.7002C368.065 88.7 367.551 88.9091 367.168 89.2828C366.785 89.6565 366.563 90.1652 366.55 90.7002C366.55 90.8354 366.496 90.9652 366.401 91.0608C366.305 91.1564 366.175 91.2102 366.04 91.2102Z" fill="black"/>
<path d="M371.15 78.7202C371.015 78.7202 370.885 78.6665 370.789 78.5708C370.694 78.4752 370.64 78.3455 370.64 78.2102C370.64 77.6798 370.429 77.1711 370.054 76.796C369.679 76.4209 369.17 76.2102 368.64 76.2102C368.566 76.2251 368.49 76.2233 368.416 76.2051C368.343 76.1869 368.275 76.1526 368.216 76.1048C368.158 76.0569 368.111 75.9967 368.079 75.9285C368.046 75.8602 368.03 75.7857 368.03 75.7102C368.03 75.6347 368.046 75.5601 368.079 75.4919C368.111 75.4237 368.158 75.3635 368.216 75.3156C368.275 75.2678 368.343 75.2335 368.416 75.2153C368.49 75.1971 368.566 75.1953 368.64 75.2102C369.145 75.2121 369.641 75.3381 370.086 75.577C370.531 75.8159 370.91 76.1604 371.19 76.5802C371.471 76.159 371.852 75.8136 372.298 75.5746C372.745 75.3356 373.244 75.2105 373.75 75.2102C373.824 75.1953 373.9 75.1971 373.974 75.2153C374.047 75.2335 374.115 75.2678 374.174 75.3156C374.232 75.3635 374.279 75.4237 374.311 75.4919C374.344 75.5601 374.361 75.6347 374.361 75.7102C374.361 75.7857 374.344 75.8602 374.311 75.9285C374.279 75.9967 374.232 76.0569 374.174 76.1048C374.115 76.1526 374.047 76.1869 373.974 76.2051C373.9 76.2233 373.824 76.2251 373.75 76.2102C373.224 76.2229 372.722 76.4377 372.35 76.81C371.978 77.1824 371.763 77.6838 371.75 78.2102C371.753 78.286 371.739 78.3615 371.708 78.431C371.678 78.5005 371.632 78.5622 371.574 78.6113C371.516 78.6605 371.448 78.6958 371.375 78.7147C371.301 78.7336 371.224 78.7354 371.15 78.7202Z" fill="black"/>
<path d="M397.78 77.4498C397.645 77.4498 397.515 77.3961 397.419 77.3004C397.324 77.2048 397.27 77.075 397.27 76.9398C397.274 76.6597 397.222 76.3816 397.118 76.1216C397.014 75.8616 396.86 75.6248 396.663 75.4248C396.467 75.2249 396.233 75.0659 395.975 74.9569C395.717 74.8479 395.44 74.7911 395.16 74.7898C395.086 74.8047 395.01 74.8029 394.936 74.7847C394.863 74.7665 394.795 74.7322 394.736 74.6843C394.678 74.6365 394.631 74.5763 394.599 74.5081C394.566 74.4398 394.55 74.3653 394.55 74.2898C394.55 74.2143 394.566 74.1397 394.599 74.0715C394.631 74.0033 394.678 73.9431 394.736 73.8952C394.795 73.8474 394.863 73.8131 394.936 73.7949C395.01 73.7766 395.086 73.7749 395.16 73.7898C395.68 73.7918 396.191 73.9226 396.649 74.1704C397.106 74.4181 397.494 74.7752 397.78 75.2098C398.063 74.7754 398.45 74.4182 398.906 74.1703C399.361 73.9225 399.871 73.7917 400.39 73.7898C400.464 73.7749 400.54 73.7766 400.614 73.7949C400.687 73.8131 400.755 73.8474 400.814 73.8952C400.872 73.9431 400.919 74.0033 400.951 74.0715C400.984 74.1397 401.001 74.2143 401.001 74.2898C401.001 74.3653 400.984 74.4398 400.951 74.5081C400.919 74.5763 400.872 74.6365 400.814 74.6843C400.755 74.7322 400.687 74.7665 400.614 74.7847C400.54 74.8029 400.464 74.8047 400.39 74.7898C399.832 74.7924 399.298 75.0159 398.905 75.4113C398.511 75.8067 398.29 76.3419 398.29 76.8998C398.296 76.97 398.286 77.0407 398.263 77.1073C398.24 77.1738 398.203 77.2349 398.156 77.2866C398.108 77.3382 398.05 77.3794 397.985 77.4075C397.92 77.4356 397.851 77.45 397.78 77.4498Z" fill="black"/>
<path d="M345.26 75.6001H300.63C300.495 75.6001 300.365 75.5463 300.269 75.4507C300.174 75.3551 300.12 75.2253 300.12 75.0901C300.12 74.9548 300.174 74.8251 300.269 74.7295C300.365 74.6338 300.495 74.5801 300.63 74.5801H345.26C345.395 74.5801 345.525 74.6338 345.621 74.7295C345.716 74.8251 345.77 74.9548 345.77 75.0901C345.77 75.2253 345.716 75.3551 345.621 75.4507C345.525 75.5463 345.395 75.6001 345.26 75.6001Z" fill="#231F20"/>
<path d="M292.15 75.6001H282.15C282.015 75.6001 281.885 75.5463 281.789 75.4507C281.694 75.3551 281.64 75.2253 281.64 75.0901C281.64 74.9548 281.694 74.8251 281.789 74.7295C281.885 74.6338 282.015 74.5801 282.15 74.5801H292.15C292.285 74.5801 292.415 74.6338 292.511 74.7295C292.606 74.8251 292.66 74.9548 292.66 75.0901C292.66 75.2253 292.606 75.3551 292.511 75.4507C292.415 75.5463 292.285 75.6001 292.15 75.6001Z" fill="#231F20"/>
<path d="M345.26 86.8801H282.2C282.126 86.895 282.05 86.8933 281.976 86.875C281.903 86.8568 281.835 86.8225 281.776 86.7747C281.718 86.7268 281.671 86.6666 281.639 86.5984C281.606 86.5302 281.589 86.4556 281.589 86.3801C281.589 86.3046 281.606 86.2301 281.639 86.1618C281.671 86.0936 281.718 86.0334 281.776 85.9856C281.835 85.9377 281.903 85.9035 281.976 85.8852C282.05 85.867 282.126 85.8652 282.2 85.8801H345.26C345.375 85.9033 345.479 85.9658 345.554 86.057C345.629 86.1481 345.669 86.2623 345.669 86.3801C345.669 86.4979 345.629 86.6121 345.554 86.7033C345.479 86.7944 345.375 86.8569 345.26 86.8801Z" fill="#231F20"/>
<path d="M345.26 98.17H337.93C337.795 98.17 337.665 98.1163 337.569 98.0206C337.474 97.925 337.42 97.7953 337.42 97.66C337.419 97.5927 337.431 97.5257 337.456 97.4632C337.481 97.4007 337.519 97.344 337.566 97.2964C337.614 97.2487 337.671 97.2112 337.733 97.1861C337.796 97.1609 337.863 97.1486 337.93 97.15H345.27C345.405 97.15 345.535 97.2037 345.631 97.2994C345.726 97.395 345.78 97.5247 345.78 97.66C345.78 97.7278 345.767 97.795 345.74 97.8575C345.714 97.92 345.676 97.9767 345.627 98.0242C345.579 98.0717 345.521 98.1091 345.458 98.1341C345.395 98.1591 345.328 98.1713 345.26 98.17Z" fill="#231F20"/>
<path d="M328.68 98.1699H282.2C282.065 98.1699 281.935 98.1162 281.839 98.0205C281.744 97.9249 281.69 97.7952 281.69 97.6599C281.69 97.5246 281.744 97.3949 281.839 97.2993C281.935 97.2036 282.065 97.1499 282.2 97.1499H328.68C328.815 97.1499 328.945 97.2036 329.041 97.2993C329.136 97.3949 329.19 97.5246 329.19 97.6599C329.19 97.7952 329.136 97.9249 329.041 98.0205C328.945 98.1162 328.815 98.1699 328.68 98.1699Z" fill="#231F20"/>
<path d="M345.26 109.45H282.2C282.085 109.427 281.981 109.364 281.906 109.273C281.831 109.182 281.791 109.068 281.791 108.95C281.791 108.832 281.831 108.718 281.906 108.627C281.981 108.536 282.085 108.473 282.2 108.45H345.26C345.376 108.473 345.479 108.536 345.554 108.627C345.629 108.718 345.67 108.832 345.67 108.95C345.67 109.068 345.629 109.182 345.554 109.273C345.479 109.364 345.376 109.427 345.26 109.45Z" fill="#231F20"/>
<path d="M345.26 120.79H322.36C322.293 120.79 322.227 120.777 322.165 120.751C322.103 120.726 322.047 120.688 321.999 120.641C321.952 120.593 321.914 120.537 321.889 120.475C321.863 120.413 321.85 120.347 321.85 120.28C321.85 120.145 321.904 120.015 321.999 119.919C322.095 119.824 322.225 119.77 322.36 119.77H345.26C345.395 119.77 345.525 119.824 345.621 119.919C345.716 120.015 345.77 120.145 345.77 120.28C345.77 120.347 345.757 120.413 345.731 120.475C345.706 120.537 345.668 120.593 345.621 120.641C345.573 120.688 345.517 120.726 345.455 120.751C345.393 120.777 345.327 120.79 345.26 120.79Z" fill="#231F20"/>
<path d="M308.93 120.79H282.2C282.133 120.79 282.067 120.777 282.005 120.751C281.943 120.726 281.887 120.688 281.839 120.641C281.792 120.593 281.755 120.537 281.729 120.475C281.703 120.413 281.69 120.347 281.69 120.28C281.69 120.145 281.744 120.015 281.839 119.919C281.935 119.824 282.065 119.77 282.2 119.77H308.93C309.065 119.77 309.195 119.824 309.291 119.919C309.386 120.015 309.44 120.145 309.44 120.28C309.44 120.347 309.427 120.413 309.401 120.475C309.376 120.537 309.338 120.593 309.291 120.641C309.243 120.688 309.187 120.726 309.125 120.751C309.063 120.777 308.997 120.79 308.93 120.79Z" fill="#231F20"/>
<path d="M404.93 132.02H282.2C282.085 131.997 281.981 131.934 281.906 131.843C281.831 131.752 281.791 131.638 281.791 131.52C281.791 131.402 281.831 131.288 281.906 131.197C281.981 131.106 282.085 131.043 282.2 131.02H404.93C405.046 131.043 405.149 131.106 405.224 131.197C405.299 131.288 405.34 131.402 405.34 131.52C405.34 131.638 405.299 131.752 405.224 131.843C405.149 131.934 405.046 131.997 404.93 132.02Z" fill="#231F20"/>
<path d="M404.93 143.31H387.93C387.856 143.325 387.78 143.323 387.706 143.305C387.633 143.286 387.565 143.252 387.506 143.204C387.448 143.157 387.401 143.096 387.369 143.028C387.336 142.96 387.319 142.885 387.319 142.81C387.319 142.734 387.336 142.66 387.369 142.592C387.401 142.523 387.448 142.463 387.506 142.415C387.565 142.367 387.633 142.333 387.706 142.315C387.78 142.297 387.856 142.295 387.93 142.31H404.93C405.004 142.295 405.08 142.297 405.154 142.315C405.227 142.333 405.295 142.367 405.354 142.415C405.412 142.463 405.459 142.523 405.491 142.592C405.524 142.66 405.54 142.734 405.54 142.81C405.54 142.885 405.524 142.96 405.491 143.028C405.459 143.096 405.412 143.157 405.354 143.204C405.295 143.252 405.227 143.286 405.154 143.305C405.08 143.323 405.004 143.325 404.93 143.31Z" fill="#231F20"/>
<path d="M379.13 143.31H352.18C352.065 143.287 351.961 143.224 351.886 143.133C351.811 143.042 351.771 142.928 351.771 142.81C351.771 142.692 351.811 142.578 351.886 142.487C351.961 142.396 352.065 142.333 352.18 142.31H379.13C379.204 142.295 379.28 142.297 379.354 142.315C379.427 142.333 379.495 142.367 379.554 142.415C379.612 142.463 379.659 142.523 379.691 142.592C379.724 142.66 379.741 142.734 379.741 142.81C379.741 142.885 379.724 142.96 379.691 143.028C379.659 143.096 379.612 143.157 379.554 143.204C379.495 143.252 379.427 143.286 379.354 143.305C379.28 143.323 379.204 143.325 379.13 143.31Z" fill="#231F20"/>
<path d="M333.78 143.31H282.2C282.085 143.287 281.981 143.224 281.906 143.133C281.831 143.042 281.791 142.928 281.791 142.81C281.791 142.692 281.831 142.578 281.906 142.487C281.981 142.396 282.085 142.333 282.2 142.31H333.78C333.854 142.295 333.93 142.297 334.004 142.315C334.077 142.333 334.145 142.367 334.204 142.415C334.262 142.463 334.309 142.523 334.341 142.592C334.374 142.66 334.391 142.734 334.391 142.81C334.391 142.885 334.374 142.96 334.341 143.028C334.309 143.096 334.262 143.157 334.204 143.204C334.145 143.252 334.077 143.286 334.004 143.305C333.93 143.323 333.854 143.325 333.78 143.31Z" fill="#231F20"/>
<path d="M404.93 154.59H300.63C300.514 154.567 300.411 154.504 300.336 154.413C300.261 154.322 300.22 154.208 300.22 154.09C300.22 153.972 300.261 153.858 300.336 153.767C300.411 153.676 300.514 153.613 300.63 153.59H404.93C405.004 153.575 405.08 153.577 405.154 153.595C405.227 153.613 405.295 153.648 405.354 153.696C405.412 153.743 405.459 153.804 405.491 153.872C405.524 153.94 405.54 154.015 405.54 154.09C405.54 154.166 405.524 154.24 405.491 154.308C405.459 154.377 405.412 154.437 405.354 154.485C405.295 154.532 405.227 154.567 405.154 154.585C405.08 154.603 405.004 154.605 404.93 154.59Z" fill="#231F20"/>
<path d="M290.17 154.59H282.17C282.054 154.567 281.951 154.504 281.876 154.413C281.801 154.322 281.76 154.208 281.76 154.09C281.76 153.972 281.801 153.858 281.876 153.767C281.951 153.676 282.054 153.613 282.17 153.59H290.17C290.244 153.575 290.32 153.577 290.394 153.595C290.467 153.613 290.535 153.648 290.594 153.696C290.652 153.743 290.699 153.804 290.731 153.872C290.764 153.94 290.78 154.015 290.78 154.09C290.78 154.166 290.764 154.24 290.731 154.308C290.699 154.377 290.652 154.437 290.594 154.485C290.535 154.532 290.467 154.567 290.394 154.585C290.32 154.603 290.244 154.605 290.17 154.59Z" fill="#231F20"/>
<path d="M404.93 165.88H397.25C397.176 165.895 397.1 165.893 397.026 165.875C396.953 165.857 396.885 165.823 396.826 165.775C396.768 165.727 396.721 165.667 396.689 165.598C396.656 165.53 396.64 165.456 396.64 165.38C396.64 165.305 396.656 165.23 396.689 165.162C396.721 165.094 396.768 165.033 396.826 164.986C396.885 164.938 396.953 164.903 397.026 164.885C397.1 164.867 397.176 164.865 397.25 164.88H404.93C405.046 164.903 405.149 164.966 405.224 165.057C405.299 165.148 405.34 165.262 405.34 165.38C405.34 165.498 405.299 165.612 405.224 165.703C405.149 165.794 405.046 165.857 404.93 165.88Z" fill="#231F20"/>
<path d="M386.43 165.88H348.08C347.965 165.857 347.861 165.794 347.786 165.703C347.711 165.612 347.671 165.498 347.671 165.38C347.671 165.262 347.711 165.148 347.786 165.057C347.861 164.966 347.965 164.903 348.08 164.88H386.43C386.546 164.903 386.649 164.966 386.724 165.057C386.799 165.148 386.84 165.262 386.84 165.38C386.84 165.498 386.799 165.612 386.724 165.703C386.649 165.794 386.546 165.857 386.43 165.88Z" fill="#231F20"/>
<path d="M336.18 165.88H282.18C282.065 165.857 281.961 165.794 281.886 165.703C281.811 165.612 281.771 165.498 281.771 165.38C281.771 165.262 281.811 165.148 281.886 165.057C281.961 164.966 282.065 164.903 282.18 164.88H336.18C336.254 164.865 336.33 164.867 336.404 164.885C336.477 164.903 336.545 164.938 336.604 164.986C336.662 165.033 336.709 165.094 336.741 165.162C336.774 165.23 336.791 165.305 336.791 165.38C336.791 165.456 336.774 165.53 336.741 165.598C336.709 165.667 336.662 165.727 336.604 165.775C336.545 165.823 336.477 165.857 336.404 165.875C336.33 165.893 336.254 165.895 336.18 165.88Z" fill="#231F20"/>
<path d="M252.42 292.07C252.25 290.8 252.07 289.53 251.9 288.24C248.31 261.99 244.57 235.24 232.9 211.55L179.21 215.18C177.31 217.72 176.36 220.3 174.96 223.18C166.96 239.58 164.35 258.18 161.88 276.34C161.173 281.593 160.47 286.84 159.77 292.08" fill="#1B5A96"/>
<path d="M159.81 292.58H159.74C159.606 292.562 159.485 292.493 159.402 292.386C159.32 292.279 159.283 292.144 159.3 292.01C159.967 286.763 160.67 281.517 161.41 276.27C163.86 258.27 166.41 239.6 174.54 222.96C174.89 222.24 175.21 221.54 175.54 220.86C176.417 218.741 177.531 216.729 178.86 214.86C178.903 214.801 178.958 214.753 179.022 214.718C179.086 214.684 179.157 214.664 179.23 214.66L232.93 211.04C233.031 211.037 233.13 211.062 233.217 211.113C233.304 211.165 233.374 211.24 233.42 211.33C245.2 235.33 248.87 262.17 252.42 288.17L252.94 292C252.95 292.066 252.946 292.133 252.93 292.197C252.914 292.262 252.885 292.322 252.845 292.375C252.805 292.428 252.754 292.473 252.697 292.506C252.639 292.54 252.576 292.561 252.51 292.57C252.444 292.58 252.376 292.576 252.311 292.56C252.246 292.544 252.185 292.515 252.131 292.475C252.077 292.435 252.031 292.385 251.997 292.327C251.963 292.27 251.94 292.206 251.93 292.14L251.41 288.3C247.89 262.5 244.25 235.82 232.66 212.08L179.54 215.67C178.33 217.428 177.301 219.304 176.47 221.27C176.15 221.97 175.83 222.67 175.47 223.4C167.4 239.89 164.88 258.45 162.47 276.4C161.763 281.64 161.06 286.883 160.36 292.13C160.342 292.261 160.276 292.38 160.174 292.463C160.072 292.547 159.942 292.589 159.81 292.58Z" fill="black"/>
<path d="M198.36 292.07C199.36 288.81 200.36 285.53 201.36 282.23C203.245 275.48 205.583 268.865 208.36 262.43C210.94 272.6 213.64 282.43 216.36 292.07" fill="#FFF6EB"/>
<path d="M198.36 292.58H198.21C198.081 292.539 197.974 292.449 197.91 292.329C197.847 292.21 197.832 292.07 197.87 291.94C198.87 288.68 199.87 285.4 200.87 282.1C202.76 275.332 205.099 268.698 207.87 262.24C207.912 262.142 207.984 262.06 208.076 262.007C208.168 261.953 208.274 261.929 208.38 261.94C208.485 261.949 208.585 261.99 208.665 262.059C208.746 262.127 208.803 262.218 208.83 262.32C211.61 273.23 214.43 283.42 216.83 291.95C216.867 292.08 216.851 292.219 216.785 292.337C216.72 292.456 216.61 292.543 216.48 292.58C216.35 292.614 216.212 292.597 216.095 292.532C215.977 292.467 215.889 292.359 215.85 292.23C213.55 284.06 210.85 274.38 208.21 263.99C205.724 269.997 203.59 276.144 201.82 282.4C200.82 285.7 199.82 288.98 198.82 292.24C198.786 292.336 198.724 292.42 198.642 292.481C198.56 292.541 198.462 292.576 198.36 292.58Z" fill="black"/>
<path d="M250.34 189.89L238.99 203.32L239.61 220.81C239.643 221.858 239.302 222.883 238.648 223.703C237.994 224.522 237.069 225.081 236.04 225.28C216.31 229.19 196.51 230.34 176.61 227.45C175.588 227.299 174.651 226.796 173.96 226.027C173.27 225.259 172.87 224.273 172.83 223.24L172.62 217.11C174.51 195.88 178.27 174.93 182.22 153.98C182.736 151.236 183.596 148.569 184.78 146.04C186.26 142.89 188.22 138.81 191.31 137.52C195.8 135.63 229 138.71 233.78 143.52C235.37 145.12 257.66 173.19 257.97 175.43C258.99 182.79 249.78 182.51 250.34 189.89Z" fill="#FB9100"/>
<path d="M238.99 203.79C238.86 203.787 238.736 203.735 238.643 203.644C238.55 203.553 238.495 203.43 238.49 203.3L237.6 178.13C237.597 178.063 237.608 177.997 237.631 177.935C237.655 177.872 237.69 177.815 237.736 177.767C237.781 177.718 237.836 177.68 237.897 177.653C237.958 177.626 238.023 177.611 238.09 177.61C238.222 177.61 238.349 177.661 238.444 177.752C238.539 177.843 238.595 177.968 238.6 178.1L239.48 203.26C239.483 203.327 239.472 203.394 239.449 203.457C239.426 203.52 239.39 203.577 239.345 203.626C239.299 203.676 239.245 203.715 239.184 203.743C239.123 203.772 239.057 203.787 238.99 203.79Z" fill="black"/>
<path d="M242.41 185.69C241.905 186.448 241.152 187.007 240.28 187.27C240.14 187.34 239.99 187.39 239.85 187.45L240.19 187.73C240.629 188.108 240.935 188.618 241.061 189.184C241.187 189.749 241.127 190.341 240.89 190.87C240.397 191.61 239.661 192.154 238.81 192.41L238.62 192.49C238.892 193.257 239.08 194.052 239.18 194.86C239.311 195.813 239.125 196.783 238.65 197.62C237.978 198.51 237.061 199.185 236.01 199.56C230.18 202.18 221.36 203.27 215.01 203.27L211.38 192.69C214.879 188.088 218.907 183.912 223.38 180.25C224.61 179.25 226.21 178.25 227.62 178.92C228.061 179.179 228.431 179.542 228.698 179.978C228.965 180.414 229.12 180.909 229.15 181.42C229.197 182.367 229.092 183.316 228.84 184.23C231.12 183.51 237.36 181.71 238.5 181.58C239.074 181.499 239.658 181.536 240.217 181.689C240.776 181.842 241.298 182.108 241.75 182.47C242.189 182.866 242.49 183.392 242.609 183.971C242.728 184.551 242.658 185.153 242.41 185.69Z" fill="#FFCFC5"/>
<path d="M228.73 184.47C228.735 184.39 228.735 184.31 228.73 184.23V184.47Z" fill="white"/>
<path d="M235.38 189.3C235.262 189.3 235.148 189.259 235.057 189.184C234.966 189.109 234.903 189.005 234.88 188.89C234.853 188.757 234.881 188.62 234.956 188.507C235.031 188.394 235.147 188.316 235.28 188.29C236.921 187.943 238.528 187.447 240.08 186.81C240.84 186.578 241.502 186.099 241.96 185.45C242.149 185.009 242.192 184.519 242.085 184.052C241.977 183.584 241.723 183.163 241.36 182.85C240.961 182.534 240.501 182.304 240.009 182.173C239.517 182.042 239.003 182.014 238.5 182.09C237.5 182.2 231.5 183.92 228.94 184.72C228.876 184.74 228.808 184.747 228.741 184.741C228.674 184.734 228.609 184.715 228.549 184.683C228.49 184.652 228.437 184.609 228.394 184.556C228.351 184.504 228.319 184.444 228.3 184.38C228.278 184.316 228.27 184.249 228.275 184.182C228.28 184.115 228.298 184.049 228.329 183.99C228.36 183.93 228.402 183.877 228.454 183.834C228.506 183.791 228.566 183.759 228.63 183.74C230.86 183.04 237.17 181.21 238.4 181.08C239.043 180.984 239.699 181.023 240.325 181.196C240.952 181.368 241.536 181.669 242.04 182.08C242.577 182.543 242.947 183.169 243.095 183.862C243.243 184.555 243.161 185.278 242.86 185.92C242.303 186.79 241.457 187.435 240.47 187.74C238.854 188.404 237.181 188.916 235.47 189.27L235.38 189.3Z" fill="black"/>
<path d="M234.03 194.4C233.912 194.4 233.798 194.359 233.707 194.285C233.616 194.21 233.553 194.106 233.53 193.99C233.515 193.925 233.514 193.858 233.526 193.792C233.537 193.727 233.562 193.664 233.599 193.608C233.635 193.552 233.682 193.504 233.737 193.467C233.792 193.429 233.855 193.403 233.92 193.39C235.525 193.053 237.095 192.568 238.61 191.94C239.351 191.719 239.996 191.254 240.44 190.62C240.623 190.194 240.664 189.72 240.558 189.268C240.452 188.816 240.204 188.41 239.85 188.11C239.787 188.05 239.72 187.993 239.65 187.94L239.53 187.85C239.426 187.764 239.359 187.641 239.344 187.506C239.329 187.372 239.367 187.237 239.45 187.13C239.492 187.077 239.544 187.033 239.603 187.001C239.662 186.968 239.726 186.948 239.793 186.94C239.86 186.933 239.928 186.939 239.993 186.957C240.057 186.976 240.118 187.008 240.17 187.05L240.27 187.13C240.362 187.197 240.449 187.271 240.53 187.35C241.058 187.8 241.423 188.411 241.569 189.088C241.716 189.766 241.635 190.473 241.34 191.1C240.795 191.952 239.966 192.583 239 192.88C237.428 193.537 235.797 194.042 234.13 194.39L234.03 194.4Z" fill="black"/>
<path d="M215.03 203.79C214.914 203.767 214.811 203.704 214.736 203.613C214.661 203.522 214.62 203.408 214.62 203.29C214.62 203.172 214.661 203.058 214.736 202.967C214.811 202.876 214.914 202.813 215.03 202.79H215.08C220.91 202.79 229.83 201.79 235.84 199.12C236.797 198.789 237.635 198.184 238.25 197.38C238.669 196.64 238.83 195.782 238.71 194.94C238.636 194.164 238.461 193.401 238.19 192.67C238.149 192.541 238.161 192.402 238.223 192.282C238.285 192.162 238.391 192.071 238.52 192.03C238.583 192.008 238.65 191.999 238.716 192.003C238.783 192.008 238.848 192.025 238.907 192.055C238.967 192.085 239.02 192.126 239.063 192.177C239.107 192.228 239.14 192.287 239.16 192.35C239.457 193.149 239.648 193.982 239.73 194.83C239.871 195.899 239.657 196.985 239.12 197.92C238.398 198.896 237.402 199.638 236.26 200.05C230.06 202.79 220.93 203.79 215.03 203.79Z" fill="black"/>
<path d="M211.36 193.2C211.248 193.202 211.139 193.167 211.05 193.1C210.943 193.019 210.873 192.898 210.854 192.766C210.836 192.633 210.87 192.498 210.95 192.39C214.465 187.752 218.512 183.543 223.01 179.85C223.71 179.28 225.85 177.52 227.79 178.47C228.313 178.763 228.753 179.183 229.069 179.692C229.386 180.201 229.568 180.782 229.6 181.38C229.679 182.391 229.57 183.408 229.28 184.38C229.25 184.513 229.168 184.628 229.052 184.7C228.937 184.772 228.798 184.796 228.665 184.765C228.532 184.735 228.417 184.653 228.345 184.537C228.273 184.422 228.25 184.283 228.28 184.15C228.543 183.3 228.648 182.408 228.59 181.52C228.568 181.096 228.444 180.683 228.228 180.318C228.012 179.952 227.711 179.644 227.35 179.42C226.44 178.98 225.23 179.42 223.66 180.68C219.224 184.318 215.233 188.466 211.77 193.04C211.718 193.096 211.655 193.14 211.584 193.168C211.513 193.195 211.436 193.206 211.36 193.2Z" fill="black"/>
<path d="M183.79 172.16C181.43 178.83 182.79 185.91 183.61 189.05C183.724 189.521 184.004 189.934 184.4 190.214C184.795 190.493 185.278 190.62 185.76 190.57L210.58 188.21C211.306 188.14 212.034 188.324 212.639 188.731C213.245 189.137 213.69 189.742 213.9 190.44L217.43 202.16C217.65 202.903 217.591 203.701 217.263 204.403C216.935 205.105 216.361 205.662 215.65 205.97C203.42 211.27 193.18 214.78 179.59 216.56C174.67 217.21 169.46 217.56 164.94 215.56C160 213.36 155.3 208.72 155.11 203.31C154.26 178.71 149.11 138.12 195.19 136.97L183.79 172.16Z" fill="#FB9100"/>
<path d="M173.06 217.59C170.204 217.662 167.364 217.126 164.73 216.02C159.83 213.83 154.8 209.02 154.6 203.32C154.54 201.65 154.46 199.91 154.38 198.11C153.64 181.41 152.71 160.63 164.67 147.81C171.39 140.61 181.67 136.81 195.18 136.45C195.314 136.447 195.443 136.497 195.54 136.589C195.637 136.68 195.695 136.806 195.7 136.94C195.703 137.076 195.652 137.208 195.558 137.307C195.465 137.406 195.336 137.465 195.2 137.47C181.97 137.8 171.94 141.47 165.42 148.47C153.75 160.97 154.67 181.47 155.42 198.02C155.5 199.82 155.58 201.57 155.64 203.25C155.82 208.54 160.55 212.99 165.16 215.04C169.77 217.09 174.98 216.61 179.54 216.04C193.36 214.22 203.54 210.65 215.47 205.48C216.067 205.225 216.55 204.758 216.824 204.169C217.099 203.581 217.148 202.912 216.96 202.29L213.43 190.57C213.253 189.986 212.88 189.48 212.373 189.14C211.866 188.799 211.258 188.644 210.65 188.7L185.83 191.06C185.227 191.119 184.623 190.96 184.127 190.611C183.632 190.262 183.278 189.747 183.13 189.16C182.2 185.6 180.98 178.63 183.33 171.97C183.375 171.843 183.469 171.739 183.591 171.68C183.713 171.622 183.853 171.615 183.98 171.66C184.107 171.705 184.211 171.799 184.269 171.921C184.327 172.043 184.335 172.183 184.29 172.31C181.94 178.95 183.39 186.13 184.12 188.9C184.209 189.25 184.42 189.558 184.715 189.766C185.01 189.975 185.37 190.072 185.73 190.04L210.55 187.68C211.395 187.6 212.241 187.816 212.945 188.29C213.649 188.764 214.166 189.467 214.41 190.28L217.93 202.01C218.188 202.872 218.121 203.8 217.741 204.616C217.362 205.432 216.696 206.081 215.87 206.44C203.87 211.64 193.6 215.24 179.66 217.07C177.473 217.384 175.269 217.558 173.06 217.59Z" fill="black"/>
<path d="M219.93 139.1C232.15 139.1 238.14 143.1 242.98 148.23C247.82 153.36 250.83 159.87 253.76 166.23C255.473 169.97 257.187 173.707 258.9 177.44L219.93 139.1Z" fill="#FB9100"/>
<path d="M258.93 177.99C258.831 177.991 258.734 177.963 258.65 177.91C258.567 177.857 258.501 177.78 258.46 177.69L253.33 166.49C250.44 160.19 247.46 153.69 242.64 148.58C238.23 143.92 232.43 139.58 219.96 139.58C219.845 139.557 219.741 139.494 219.666 139.403C219.591 139.312 219.551 139.198 219.551 139.08C219.551 138.962 219.591 138.848 219.666 138.757C219.741 138.666 219.845 138.603 219.96 138.58C232.82 138.58 238.82 143.05 243.38 147.87C248.32 153.1 251.38 159.69 254.25 166.05L259.39 177.25C259.445 177.374 259.45 177.514 259.403 177.641C259.356 177.768 259.262 177.872 259.14 177.93C259.075 177.964 259.003 177.985 258.93 177.99Z" fill="black"/>
<path d="M289.01 161.34C291.53 159.34 295.06 155.82 297.58 153.84C298.668 153.082 299.612 152.138 300.37 151.05C300.742 150.503 300.965 149.868 301.016 149.209C301.067 148.549 300.944 147.888 300.66 147.29L296.16 133.96C297.282 132.912 298.254 131.714 299.05 130.4C299.851 129.11 300.203 127.591 300.05 126.08C300.031 125.607 299.873 125.149 299.596 124.765C299.318 124.381 298.934 124.087 298.49 123.92C297.993 123.893 297.497 123.995 297.05 124.216C296.603 124.437 296.221 124.769 295.94 125.18C292.62 128.8 290.54 133.48 286.89 136.76C284.99 138.47 282.7 139.76 280.98 141.65C278.85 143.98 277.76 147.05 276.72 150.03C276.22 151.44 276.33 153.48 275.91 154.92L289.01 161.34Z" fill="#FFCFC5"/>
<path d="M275.93 155.43H275.79C275.659 155.391 275.549 155.302 275.484 155.182C275.418 155.062 275.403 154.921 275.44 154.79C275.616 154.068 275.729 153.332 275.78 152.59C275.834 151.672 275.991 150.763 276.25 149.88C277.25 147.02 278.4 143.77 280.62 141.32C281.696 140.208 282.878 139.203 284.15 138.32C284.96 137.71 285.81 137.08 286.57 136.39C288.52 134.487 290.233 132.355 291.67 130.04C292.849 128.217 294.156 126.479 295.58 124.84C296.66 123.67 297.65 123.21 298.58 123.43C299.128 123.622 299.609 123.969 299.964 124.429C300.319 124.888 300.533 125.441 300.58 126.02C300.745 127.644 300.373 129.278 299.52 130.67C298.691 132.024 297.681 133.258 296.52 134.34C296.423 134.433 296.294 134.485 296.16 134.485C296.026 134.485 295.897 134.433 295.8 134.34C295.705 134.245 295.651 134.115 295.651 133.98C295.651 133.845 295.705 133.716 295.8 133.62C296.888 132.608 297.828 131.446 298.59 130.17C299.339 128.979 299.67 127.571 299.53 126.17C299.42 125.42 299.02 124.59 298.35 124.44C297.68 124.29 297.1 124.67 296.29 125.54C294.898 127.145 293.622 128.846 292.47 130.63C290.988 133.012 289.222 135.205 287.21 137.16C286.412 137.869 285.577 138.537 284.71 139.16C283.497 140.007 282.369 140.968 281.34 142.03C279.25 144.32 278.15 147.46 277.18 150.23C276.944 151.042 276.8 151.877 276.75 152.72C276.697 153.523 276.573 154.319 276.38 155.1C276.344 155.192 276.283 155.272 276.203 155.331C276.123 155.389 276.029 155.424 275.93 155.43Z" fill="black"/>
<path d="M289.01 161.85C288.909 161.85 288.811 161.82 288.727 161.764C288.644 161.707 288.578 161.628 288.54 161.535C288.501 161.442 288.491 161.339 288.511 161.241C288.531 161.142 288.579 161.051 288.65 160.98C289.13 160.49 290.52 159.31 292.13 157.98C294.04 156.36 296.2 154.51 297.22 153.51C297.53 153.21 297.87 152.93 298.22 152.65C298.884 152.123 299.461 151.495 299.93 150.79C300.254 150.318 300.449 149.771 300.496 149.201C300.543 148.631 300.441 148.058 300.2 147.54C300.166 147.481 300.145 147.417 300.136 147.35C300.128 147.283 300.132 147.216 300.15 147.151C300.168 147.086 300.198 147.025 300.239 146.971C300.28 146.918 300.332 146.873 300.39 146.84C300.448 146.806 300.513 146.785 300.58 146.776C300.647 146.768 300.714 146.772 300.779 146.79C300.844 146.808 300.905 146.838 300.959 146.879C301.012 146.92 301.057 146.971 301.09 147.03C301.422 147.708 301.569 148.462 301.516 149.215C301.464 149.968 301.213 150.694 300.79 151.32C300.255 152.109 299.596 152.808 298.84 153.39C298.53 153.65 298.21 153.92 297.92 154.2C296.92 155.2 294.7 157.08 292.78 158.72C291.26 160.02 289.78 161.24 289.36 161.72C289.264 161.806 289.139 161.852 289.01 161.85Z" fill="black"/>
<path d="M307.976 132.098L304.343 124.847L274.429 139.84L278.063 147.09L307.976 132.098Z" fill="#FF4148"/>
<path d="M278.06 147.61C278.007 147.62 277.953 147.62 277.9 147.61C277.837 147.59 277.779 147.558 277.729 147.515C277.679 147.472 277.639 147.419 277.61 147.36L273.93 140.07C273.899 140.01 273.881 139.945 273.876 139.879C273.871 139.812 273.88 139.745 273.901 139.681C273.923 139.618 273.957 139.559 274.001 139.509C274.045 139.459 274.1 139.419 274.16 139.39L304.07 124.39C304.131 124.363 304.198 124.349 304.265 124.349C304.332 124.349 304.399 124.363 304.46 124.39C304.524 124.409 304.584 124.442 304.635 124.485C304.687 124.527 304.729 124.58 304.76 124.64L308.39 131.9C308.421 131.959 308.44 132.023 308.445 132.09C308.451 132.156 308.443 132.223 308.423 132.286C308.402 132.35 308.37 132.408 308.326 132.459C308.283 132.509 308.23 132.55 308.17 132.58L278.25 147.58C278.189 147.603 278.125 147.614 278.06 147.61ZM275.11 140.07L278.29 146.41L307.29 131.88L304.11 125.53L275.11 140.07Z" fill="black"/>
<path d="M307.98 132.1L304.34 124.85L312.67 125.21L307.98 132.1Z" fill="#FFCFC5"/>
<path d="M307.98 132.61C307.891 132.605 307.806 132.576 307.732 132.527C307.658 132.478 307.599 132.41 307.56 132.33L303.93 125.08C303.883 125.003 303.858 124.915 303.858 124.825C303.858 124.735 303.883 124.647 303.93 124.57C303.979 124.496 304.046 124.436 304.125 124.395C304.203 124.355 304.291 124.336 304.38 124.34L312.71 124.71C312.801 124.711 312.889 124.738 312.966 124.788C313.042 124.837 313.102 124.907 313.14 124.99C313.187 125.067 313.212 125.155 313.212 125.245C313.212 125.335 313.187 125.423 313.14 125.5L308.45 132.39C308.398 132.465 308.327 132.524 308.244 132.563C308.162 132.601 308.071 132.618 307.98 132.61ZM305.19 125.4L308.04 131.1L311.73 125.68L305.19 125.4Z" fill="black"/>
<path d="M310.19 128.86L312.67 125.21L308.27 125.02L310.19 128.86Z" fill="black"/>
<path d="M310.19 129.37C310.102 129.362 310.018 129.332 309.945 129.283C309.871 129.234 309.811 129.168 309.77 129.09L307.85 125.25C307.806 125.172 307.783 125.084 307.783 124.995C307.783 124.906 307.806 124.818 307.85 124.74C307.896 124.664 307.963 124.602 308.042 124.561C308.122 124.52 308.211 124.503 308.3 124.51L312.7 124.71C312.791 124.711 312.879 124.738 312.956 124.788C313.032 124.837 313.092 124.907 313.13 124.99C313.177 125.067 313.202 125.155 313.202 125.245C313.202 125.335 313.177 125.423 313.13 125.5L310.65 129.14C310.599 129.214 310.53 129.274 310.45 129.314C310.369 129.355 310.28 129.374 310.19 129.37ZM309.11 125.57L310.25 127.85L311.73 125.68L309.11 125.57Z" fill="black"/>
<path d="M274.427 139.84L278.048 147.063L275.026 148.578C274.063 149.06 272.948 149.14 271.927 148.801C270.905 148.461 270.06 147.73 269.577 146.767C269.095 145.805 269.014 144.69 269.354 143.668C269.693 142.646 270.425 141.801 271.388 141.318L274.427 139.795L274.427 139.84Z" fill="black"/>
<path d="M272.71 149.95C272.069 149.947 271.441 149.767 270.896 149.43C270.351 149.093 269.909 148.612 269.62 148.04L268.62 146.04C268.21 145.22 268.141 144.271 268.43 143.401C268.719 142.531 269.341 141.812 270.16 141.4L274.16 139.4C274.219 139.368 274.284 139.348 274.352 139.343C274.419 139.337 274.486 139.345 274.55 139.367C274.614 139.388 274.673 139.423 274.722 139.468C274.772 139.513 274.812 139.568 274.84 139.63L278.48 146.88C278.511 146.939 278.529 147.004 278.534 147.071C278.539 147.138 278.53 147.205 278.509 147.269C278.487 147.332 278.453 147.39 278.409 147.44C278.364 147.49 278.31 147.531 278.25 147.56L274.25 149.56C273.774 149.808 273.247 149.941 272.71 149.95ZM270.53 147.58C270.82 148.157 271.327 148.597 271.94 148.801C272.553 149.005 273.222 148.958 273.8 148.67L277.38 146.87L274.2 140.53L270.62 142.32C270.042 142.609 269.603 143.116 269.399 143.729C269.194 144.342 269.242 145.012 269.53 145.59L270.53 147.58Z" fill="black"/>
<path d="M276.25 143.98C276.155 143.981 276.061 143.955 275.98 143.906C275.899 143.856 275.833 143.785 275.79 143.7C275.759 143.64 275.741 143.575 275.736 143.509C275.731 143.442 275.74 143.375 275.761 143.311C275.783 143.248 275.817 143.189 275.861 143.139C275.905 143.089 275.96 143.049 276.02 143.02L305.93 128.02C306.051 127.961 306.19 127.952 306.317 127.995C306.445 128.038 306.55 128.13 306.61 128.25C306.641 128.309 306.66 128.374 306.665 128.44C306.671 128.506 306.663 128.573 306.643 128.636C306.622 128.7 306.59 128.758 306.546 128.809C306.503 128.859 306.45 128.9 306.39 128.93L276.47 143.93C276.401 143.961 276.326 143.978 276.25 143.98Z" fill="black"/>
<path d="M275.83 154.59C276.25 153.15 276.14 151.11 276.64 149.7C277.64 146.7 278.78 143.7 280.9 141.32C282.62 139.42 284.9 138.14 286.81 136.43C287.375 135.819 288.135 135.423 288.96 135.31C289.559 135.376 290.109 135.671 290.495 136.133C290.88 136.595 291.072 137.189 291.03 137.79C290.925 138.977 290.417 140.092 289.59 140.95C288.74 141.95 287.71 142.95 287.54 144.26C287.539 145.11 287.623 145.957 287.79 146.79C287.856 147.709 287.68 148.629 287.28 149.459C286.88 150.288 286.27 150.999 285.51 151.52" fill="#FFCFC5"/>
<path d="M275.83 155.1H275.69C275.559 155.061 275.449 154.971 275.384 154.852C275.318 154.732 275.303 154.591 275.34 154.46C275.521 153.739 275.634 153.002 275.68 152.26C275.737 151.341 275.898 150.432 276.16 149.55C277.16 146.68 278.3 143.44 280.52 140.99C281.599 139.881 282.781 138.876 284.05 137.99C284.86 137.39 285.69 136.77 286.44 136.1C287.084 135.376 287.969 134.911 288.93 134.79C289.241 134.795 289.549 134.862 289.834 134.987C290.119 135.112 290.376 135.294 290.59 135.52C290.88 135.81 291.11 136.155 291.266 136.534C291.422 136.913 291.502 137.32 291.5 137.73C291.413 139.042 290.86 140.28 289.94 141.22L289.55 141.68C288.794 142.37 288.258 143.267 288.01 144.26C287.972 144.76 288.013 145.263 288.13 145.75C288.18 146.06 288.23 146.37 288.26 146.69C288.338 147.7 288.146 148.712 287.705 149.624C287.264 150.535 286.59 151.314 285.75 151.88C285.637 151.944 285.505 151.963 285.379 151.933C285.253 151.903 285.143 151.826 285.072 151.718C285 151.609 284.973 151.478 284.995 151.35C285.017 151.223 285.087 151.108 285.19 151.03C285.871 150.56 286.418 149.921 286.777 149.176C287.137 148.431 287.296 147.605 287.24 146.78C287.24 146.5 287.17 146.22 287.12 145.93C286.99 145.34 286.949 144.733 287 144.13C287.261 142.933 287.882 141.844 288.78 141.01L289.16 140.56C289.924 139.8 290.392 138.794 290.48 137.72C290.478 137.166 290.259 136.635 289.87 136.24C289.752 136.105 289.608 135.995 289.447 135.918C289.285 135.84 289.109 135.797 288.93 135.79C288.238 135.914 287.608 136.266 287.14 136.79C286.35 137.51 285.48 138.15 284.65 138.79C283.434 139.636 282.302 140.597 281.27 141.66C279.18 143.95 278.08 147.09 277.11 149.86C276.874 150.667 276.733 151.5 276.69 152.34C276.63 153.146 276.503 153.945 276.31 154.73C276.279 154.834 276.216 154.926 276.129 154.992C276.043 155.059 275.939 155.096 275.83 155.1Z" fill="black"/>
<path d="M304.93 141.08C304.439 140.809 303.881 140.681 303.321 140.711C302.76 140.741 302.22 140.928 301.76 141.25C301.02 141.728 300.347 142.303 299.76 142.96C298.76 143.96 297.81 145.02 296.76 145.96C296.616 146.11 296.509 146.29 296.447 146.488C296.385 146.686 296.368 146.895 296.4 147.1C296.47 147.756 296.792 148.359 297.3 148.78C297.641 149.112 298.066 149.343 298.53 149.45C299.11 149.444 299.673 149.247 300.13 148.89C302.023 147.675 303.682 146.131 305.03 144.33C305.369 144.013 305.604 143.6 305.702 143.146C305.801 142.692 305.758 142.219 305.58 141.79C305.427 141.502 305.203 141.258 304.93 141.08Z" fill="#FFCFC5"/>
<path d="M298.66 150.01H298.51C297.934 149.909 297.404 149.633 296.99 149.22C296.382 148.719 295.991 148.002 295.9 147.22C295.862 146.94 295.888 146.655 295.976 146.386C296.064 146.117 296.213 145.873 296.41 145.67C297.13 144.99 297.83 144.25 298.5 143.55L299.37 142.64C299.989 141.955 300.695 141.353 301.47 140.85C302.012 140.484 302.644 140.276 303.297 140.247C303.951 140.219 304.599 140.372 305.17 140.69C305.541 140.922 305.842 141.25 306.04 141.64C306.258 142.154 306.318 142.721 306.213 143.269C306.108 143.818 305.842 144.323 305.45 144.72C304.072 146.562 302.379 148.147 300.45 149.4C299.927 149.776 299.304 149.988 298.66 150.01ZM303.56 141.22C303.004 141.234 302.462 141.396 301.99 141.69C301.295 142.145 300.663 142.69 300.11 143.31L299.24 144.21C298.56 144.93 297.85 145.67 297.12 146.36C297.03 146.459 296.965 146.577 296.931 146.706C296.896 146.834 296.892 146.97 296.92 147.1C296.977 147.62 297.235 148.098 297.64 148.43C297.897 148.698 298.222 148.891 298.58 148.99C299.047 148.964 299.495 148.792 299.86 148.5C301.705 147.32 303.321 145.815 304.63 144.06C305.21 143.3 305.48 142.72 305.13 142.06C305.017 141.832 304.844 141.638 304.63 141.5C304.307 141.308 303.936 141.211 303.56 141.22Z" fill="black"/>
<path d="M302.18 137.12C301.641 136.861 301.043 136.749 300.447 136.792C299.85 136.836 299.276 137.035 298.78 137.37C297.961 137.896 297.214 138.528 296.56 139.25C295.46 140.37 294.38 141.53 293.24 142.61C293.074 142.783 292.951 142.992 292.882 143.222C292.812 143.451 292.798 143.694 292.84 143.93C292.93 144.639 293.288 145.286 293.84 145.74C294.218 146.116 294.692 146.383 295.21 146.51C295.855 146.5 296.479 146.282 296.99 145.89C299.093 144.558 300.945 142.865 302.46 140.89C302.826 140.545 303.083 140.102 303.2 139.613C303.318 139.125 303.29 138.613 303.12 138.14C302.923 137.708 302.594 137.351 302.18 137.12Z" fill="#FFCFC5"/>
<path d="M295.32 147.02H295.16C294.522 146.897 293.936 146.583 293.48 146.12C292.838 145.58 292.43 144.813 292.34 143.98C292.287 143.667 292.309 143.346 292.405 143.043C292.501 142.741 292.667 142.465 292.89 142.24C293.65 141.52 294.4 140.75 295.12 140L296.2 138.89C296.882 138.12 297.666 137.447 298.53 136.89C299.1 136.507 299.761 136.282 300.446 136.238C301.131 136.194 301.816 136.333 302.43 136.64C302.925 136.914 303.32 137.338 303.56 137.85C303.771 138.406 303.815 139.011 303.687 139.592C303.559 140.173 303.265 140.704 302.84 141.12C301.3 143.164 299.403 144.912 297.24 146.28C296.685 146.707 296.018 146.964 295.32 147.02ZM300.81 137.28C300.184 137.299 299.574 137.482 299.04 137.81C298.256 138.312 297.543 138.917 296.92 139.61L295.85 140.71C295.12 141.47 294.37 142.24 293.59 142.98C293.48 143.099 293.401 143.243 293.359 143.4C293.317 143.557 293.314 143.722 293.35 143.88C293.419 144.454 293.705 144.98 294.15 145.35C294.44 145.666 294.815 145.892 295.23 146C295.765 145.982 296.28 145.793 296.7 145.46C298.753 144.151 300.557 142.488 302.03 140.55C302.68 139.69 302.98 139.06 302.64 138.32C302.486 138.003 302.238 137.741 301.93 137.57C301.589 137.376 301.202 137.276 300.81 137.28Z" fill="black"/>
<path d="M239.19 203.11C241.69 206.11 241.85 206.21 245.45 207.73C252.36 210.65 259.74 208.4 262.76 207.01C268.2 204.51 284.71 186.19 289.53 164.35C289.686 163.649 289.625 162.917 289.353 162.252C289.081 161.587 288.613 161.021 288.01 160.63L277.23 153.63C276.463 153.135 275.533 152.957 274.638 153.134C273.742 153.312 272.951 153.83 272.43 154.58L257.93 175.44L239.19 203.11Z" fill="#FB9100"/>
<path d="M252.8 209.67C250.211 209.687 247.644 209.188 245.25 208.2C241.51 206.62 241.33 206.49 238.8 203.44C238.715 203.336 238.673 203.202 238.685 203.068C238.696 202.934 238.759 202.809 238.86 202.72C238.912 202.677 238.972 202.645 239.036 202.625C239.1 202.606 239.168 202.599 239.235 202.605C239.301 202.612 239.366 202.632 239.426 202.663C239.485 202.695 239.537 202.738 239.58 202.79C242.03 205.73 242.1 205.79 245.65 207.26C253.26 210.47 261.06 207.26 262.55 206.54C267.45 204.29 284.17 186.25 289.04 164.24C289.174 163.64 289.12 163.013 288.886 162.444C288.652 161.875 288.248 161.392 287.73 161.06L276.96 154.06C276.305 153.632 275.508 153.478 274.74 153.629C273.972 153.78 273.294 154.226 272.85 154.87L258.39 175.73C258.313 175.842 258.195 175.918 258.062 175.942C257.929 175.967 257.791 175.937 257.68 175.86C257.569 175.783 257.492 175.665 257.468 175.532C257.444 175.399 257.473 175.262 257.55 175.15L272.01 154.29C272.602 153.425 273.511 152.828 274.539 152.626C275.568 152.424 276.635 152.634 277.51 153.21L288.29 160.21C288.977 160.661 289.511 161.309 289.822 162.07C290.132 162.83 290.205 163.667 290.03 164.47C285.15 186.58 268.65 204.87 262.98 207.47C259.77 208.884 256.307 209.633 252.8 209.67Z" fill="black"/>
<path d="M199.36 229.59C191.724 229.596 184.097 229.048 176.54 227.95C175.399 227.785 174.353 227.225 173.582 226.368C172.811 225.512 172.364 224.412 172.32 223.26L172.11 217.12C172.107 217.053 172.118 216.987 172.141 216.925C172.165 216.862 172.2 216.805 172.246 216.757C172.291 216.709 172.346 216.67 172.407 216.643C172.468 216.616 172.533 216.601 172.6 216.6C172.667 216.597 172.734 216.608 172.797 216.631C172.86 216.654 172.917 216.69 172.967 216.735C173.016 216.781 173.056 216.835 173.084 216.896C173.112 216.957 173.127 217.023 173.13 217.09L173.34 223.22C173.373 224.133 173.725 225.006 174.336 225.686C174.946 226.365 175.776 226.809 176.68 226.94C195.44 229.67 214.83 228.94 235.94 224.78C236.861 224.607 237.688 224.107 238.269 223.372C238.85 222.636 239.145 221.716 239.1 220.78L238.49 203.3C238.475 203.226 238.477 203.15 238.495 203.076C238.513 203.003 238.548 202.935 238.595 202.876C238.643 202.818 238.704 202.771 238.772 202.739C238.84 202.706 238.915 202.689 238.99 202.689C239.066 202.689 239.14 202.706 239.208 202.739C239.277 202.771 239.337 202.818 239.385 202.876C239.432 202.935 239.467 203.003 239.485 203.076C239.503 203.15 239.505 203.226 239.49 203.3L240.11 220.79C240.152 221.964 239.771 223.114 239.037 224.032C238.303 224.949 237.265 225.573 236.11 225.79C224.014 228.257 211.705 229.529 199.36 229.59Z" fill="black"/>
<path d="M218.42 130.68C218.489 132.282 218.659 133.879 218.93 135.46C219.3 138.14 219.88 141.1 218.25 143.27C215.53 146.91 202.72 148.55 196.71 140.27C195.43 138.49 195.5 136.11 195.71 133.92C196.49 125.32 196.03 109.92 195.2 105.29C199.554 104.142 203.621 102.099 207.14 99.29C211.88 95.55 213.14 93.52 213.23 87.48C213.96 89.32 219 90.94 222.96 89.63C225.64 92.17 227.76 97.82 227.76 97.82" fill="#FFCFC5"/>
<path d="M209.48 146.79H209.3C203.86 146.74 199.12 144.47 196.3 140.56C194.9 138.62 194.99 136.08 195.2 133.86C195.96 125.45 195.54 110.19 194.69 105.37C194.668 105.247 194.693 105.121 194.76 105.015C194.826 104.91 194.93 104.833 195.05 104.8C199.341 103.667 203.347 101.647 206.81 98.8702C211.36 95.2902 212.6 93.4602 212.71 87.4502C212.711 87.3321 212.754 87.2181 212.83 87.1284C212.907 87.0387 213.013 86.9791 213.13 86.9602C213.245 86.9402 213.363 86.9601 213.465 87.0164C213.567 87.0728 213.646 87.1624 213.69 87.2702C214.32 88.8502 219.05 90.3602 222.79 89.1302C222.877 89.0998 222.971 89.094 223.061 89.1134C223.15 89.1328 223.233 89.1767 223.3 89.2402C226.04 91.8402 228.14 97.3902 228.23 97.6202C228.254 97.6832 228.265 97.7504 228.263 97.8178C228.261 97.8851 228.246 97.9514 228.218 98.0128C228.19 98.0742 228.15 98.1294 228.101 98.1753C228.051 98.2212 227.993 98.2569 227.93 98.2802C227.868 98.3041 227.801 98.3152 227.735 98.313C227.668 98.3107 227.602 98.2952 227.542 98.2672C227.481 98.2393 227.427 98.1995 227.382 98.1502C227.337 98.1009 227.302 98.0431 227.28 97.9802C227.28 97.9802 225.28 92.7102 222.81 90.1902C219.52 91.1902 215.54 90.2902 213.68 88.8102C213.38 94.1302 211.79 96.2402 207.44 99.6702C203.991 102.431 200.022 104.472 195.77 105.67C196.58 110.98 196.96 125.74 196.21 133.97C196.03 135.97 195.93 138.33 197.13 139.97C199.76 143.61 204.2 145.72 209.31 145.77C213.03 145.77 216.62 144.64 217.84 143C219.22 141.16 218.84 138.61 218.51 136.15L218.43 135.56C218.143 133.951 217.97 132.324 217.91 130.69C217.911 130.623 217.926 130.556 217.954 130.495C217.981 130.433 218.021 130.378 218.071 130.332C218.12 130.286 218.178 130.251 218.242 130.228C218.305 130.206 218.373 130.196 218.44 130.2C218.507 130.203 218.573 130.219 218.634 130.247C218.695 130.275 218.749 130.314 218.795 130.364C218.84 130.413 218.876 130.471 218.899 130.533C218.922 130.596 218.933 130.663 218.93 130.73C219.005 132.302 219.176 133.869 219.44 135.42L219.52 136.01C219.88 138.55 220.29 141.43 218.66 143.61C217.23 145.49 213.55 146.79 209.48 146.79Z" fill="black"/>
<path d="M227.75 97.79C229.32 100.69 233.07 118.72 226.9 126.56C223.96 130.3 217.12 132.67 210.04 130.51" fill="#FFCFC5"/>
<path d="M215.53 131.79C213.622 131.787 211.724 131.501 209.9 130.94C209.836 130.921 209.775 130.889 209.723 130.846C209.671 130.803 209.628 130.75 209.597 130.691C209.565 130.631 209.545 130.566 209.539 130.499C209.533 130.432 209.54 130.364 209.56 130.3C209.578 130.236 209.609 130.176 209.651 130.124C209.693 130.072 209.745 130.029 209.803 129.997C209.862 129.966 209.927 129.946 209.993 129.94C210.059 129.933 210.126 129.94 210.19 129.96C217.25 132.12 223.74 129.69 226.5 126.18C232.6 118.44 228.68 100.5 227.31 97.98C227.259 97.8634 227.253 97.7317 227.294 97.611C227.335 97.4904 227.419 97.3893 227.531 97.3279C227.643 97.2664 227.773 97.249 227.897 97.279C228.021 97.309 228.129 97.3843 228.2 97.49C229.68 100.21 233.79 118.58 227.3 126.81C225.09 129.66 220.71 131.79 215.53 131.79Z" fill="black"/>
<path d="M217.28 122.14C215.629 122.152 214.016 121.652 212.66 120.71C212.596 120.676 212.541 120.629 212.496 120.572C212.452 120.515 212.421 120.449 212.404 120.379C212.387 120.309 212.385 120.236 212.399 120.165C212.412 120.094 212.44 120.027 212.482 119.968C212.523 119.909 212.576 119.859 212.638 119.822C212.7 119.785 212.769 119.762 212.841 119.753C212.913 119.745 212.985 119.752 213.054 119.774C213.123 119.796 213.186 119.832 213.24 119.88C214.27 120.586 215.468 121.007 216.713 121.102C217.957 121.197 219.205 120.961 220.33 120.42C220.39 120.39 220.456 120.372 220.524 120.367C220.591 120.362 220.659 120.371 220.723 120.392C220.787 120.414 220.846 120.447 220.897 120.492C220.948 120.536 220.99 120.59 221.02 120.65C221.05 120.711 221.068 120.776 221.073 120.844C221.078 120.911 221.069 120.979 221.048 121.043C221.027 121.107 220.993 121.166 220.949 121.217C220.904 121.268 220.85 121.31 220.79 121.34C219.697 121.874 218.496 122.148 217.28 122.14Z" fill="black"/>
<path d="M221 117.9C220.887 117.903 220.777 117.867 220.687 117.798C220.598 117.728 220.535 117.63 220.51 117.52C220.492 117.456 220.487 117.389 220.495 117.322C220.504 117.256 220.526 117.192 220.559 117.134C220.593 117.076 220.637 117.026 220.691 116.986C220.744 116.946 220.805 116.916 220.87 116.9C221.364 116.801 221.84 116.626 222.28 116.38C222.451 116.283 222.597 116.148 222.707 115.985C222.816 115.822 222.886 115.635 222.91 115.44C222.873 115.084 222.753 114.742 222.56 114.44C221.61 112.69 220.56 110.96 219.46 109.31C219.422 109.254 219.396 109.192 219.383 109.126C219.369 109.06 219.369 108.992 219.382 108.926C219.395 108.86 219.421 108.797 219.459 108.741C219.496 108.685 219.544 108.637 219.6 108.6C219.713 108.527 219.851 108.5 219.983 108.526C220.116 108.553 220.233 108.629 220.31 108.74C221.43 110.42 222.49 112.17 223.46 113.95C223.741 114.395 223.902 114.905 223.93 115.43C223.902 115.792 223.789 116.142 223.6 116.452C223.41 116.761 223.15 117.021 222.84 117.21C222.308 117.513 221.73 117.729 221.13 117.85L221 117.9Z" fill="black"/>
<path d="M224.04 104.66C224.088 104.91 224.064 105.17 223.97 105.407C223.876 105.644 223.716 105.85 223.509 105.999C223.302 106.149 223.057 106.236 222.802 106.251C222.547 106.266 222.293 106.207 222.071 106.083C221.848 105.958 221.665 105.773 221.544 105.548C221.423 105.323 221.369 105.069 221.388 104.814C221.407 104.56 221.498 104.316 221.651 104.111C221.803 103.907 222.011 103.75 222.25 103.66C222.62 103.555 223.016 103.602 223.352 103.789C223.688 103.977 223.935 104.29 224.04 104.66Z" fill="black"/>
<path d="M218.61 104.26C218.551 104.274 218.489 104.274 218.43 104.26C218.343 104.21 218.278 104.127 218.25 104.03C218.222 103.934 218.233 103.829 218.28 103.74C218.762 102.85 219.471 102.104 220.335 101.577C221.2 101.05 222.188 100.761 223.2 100.74C223.301 100.74 223.397 100.78 223.469 100.852C223.54 100.923 223.58 101.019 223.58 101.12C223.578 101.221 223.537 101.318 223.467 101.39C223.396 101.462 223.301 101.505 223.2 101.51C222.325 101.532 221.472 101.782 220.724 102.236C219.977 102.691 219.361 103.334 218.94 104.1C218.903 104.153 218.853 104.195 218.796 104.223C218.738 104.251 218.674 104.264 218.61 104.26Z" fill="black"/>
<path d="M210.23 106.09C210.174 106.105 210.116 106.105 210.06 106.09C210.015 106.067 209.975 106.035 209.942 105.996C209.91 105.957 209.885 105.912 209.87 105.864C209.856 105.815 209.85 105.764 209.856 105.714C209.861 105.663 209.876 105.614 209.9 105.57C210.394 104.673 211.117 103.923 211.996 103.396C212.874 102.869 213.876 102.584 214.9 102.57C215 102.572 215.095 102.613 215.166 102.684C215.237 102.755 215.278 102.85 215.28 102.95C215.278 103.051 215.237 103.147 215.167 103.219C215.096 103.292 215.001 103.335 214.9 103.34C214.016 103.363 213.153 103.618 212.397 104.077C211.641 104.537 211.018 105.186 210.59 105.96C210.547 106.011 210.491 106.051 210.428 106.073C210.364 106.096 210.296 106.102 210.23 106.09Z" fill="black"/>
<path d="M215.38 106.34C215.458 106.504 215.501 106.682 215.508 106.863C215.515 107.044 215.485 107.224 215.419 107.393C215.353 107.562 215.254 107.716 215.127 107.845C215 107.974 214.848 108.076 214.68 108.144C214.512 108.212 214.332 108.246 214.151 108.242C213.97 108.238 213.791 108.197 213.627 108.122C213.462 108.047 213.314 107.938 213.193 107.804C213.071 107.67 212.978 107.512 212.92 107.34C212.842 107.177 212.798 106.999 212.792 106.818C212.785 106.637 212.815 106.456 212.881 106.287C212.946 106.118 213.046 105.965 213.173 105.836C213.3 105.706 213.452 105.605 213.62 105.536C213.788 105.468 213.968 105.435 214.149 105.439C214.33 105.443 214.509 105.483 214.673 105.559C214.838 105.634 214.986 105.742 215.107 105.877C215.229 106.011 215.322 106.169 215.38 106.34Z" fill="black"/>
<path d="M197.98 114.79C197.056 115.091 196.075 115.171 195.115 115.025C194.154 114.878 193.241 114.51 192.449 113.948C191.657 113.386 191.007 112.646 190.551 111.788C190.095 110.93 189.846 109.978 189.824 109.007C189.802 108.036 190.008 107.073 190.424 106.195C190.841 105.317 191.457 104.549 192.223 103.952C192.989 103.355 193.884 102.945 194.837 102.756C195.79 102.566 196.774 102.602 197.71 102.86C198.428 103.05 199.106 103.368 199.71 103.8" fill="#FFCFC5"/>
<path d="M196.05 115.58C195.445 115.579 194.843 115.499 194.26 115.34C192.539 114.861 191.078 113.72 190.197 112.166C189.316 110.612 189.087 108.772 189.56 107.05C189.848 106.005 190.383 105.046 191.121 104.253C191.859 103.459 192.777 102.856 193.798 102.494C194.819 102.132 195.912 102.021 196.985 102.172C198.058 102.323 199.079 102.73 199.96 103.36C200.019 103.397 200.069 103.445 200.109 103.502C200.148 103.56 200.176 103.624 200.189 103.692C200.203 103.76 200.202 103.831 200.188 103.899C200.173 103.966 200.145 104.031 200.104 104.087C200.064 104.144 200.013 104.192 199.954 104.228C199.894 104.264 199.828 104.287 199.759 104.297C199.691 104.306 199.621 104.302 199.554 104.283C199.487 104.265 199.424 104.233 199.37 104.19C198.828 103.798 198.217 103.51 197.57 103.34C196.709 103.099 195.804 103.063 194.927 103.235C194.05 103.407 193.225 103.782 192.519 104.33C191.813 104.878 191.246 105.585 190.862 106.392C190.478 107.199 190.289 108.085 190.309 108.979C190.33 109.872 190.559 110.749 190.979 111.537C191.4 112.326 191.999 113.006 192.729 113.521C193.46 114.037 194.3 114.374 195.184 114.505C196.069 114.637 196.971 114.56 197.82 114.28C197.953 114.237 198.097 114.249 198.22 114.313C198.344 114.377 198.438 114.487 198.48 114.62C198.522 114.752 198.511 114.896 198.447 115.02C198.383 115.144 198.273 115.237 198.14 115.28C197.463 115.489 196.758 115.59 196.05 115.58Z" fill="black"/>
<path d="M196.84 105.98C196.08 105.78 195.273 105.885 194.59 106.274C193.908 106.663 193.405 107.304 193.19 108.06" fill="white"/>
<path d="M193.19 108.57H193.05C192.92 108.533 192.81 108.445 192.745 108.327C192.679 108.209 192.663 108.07 192.7 107.94C192.942 107.057 193.521 106.306 194.312 105.847C195.104 105.389 196.044 105.26 196.93 105.49C197.06 105.527 197.171 105.614 197.238 105.732C197.305 105.849 197.324 105.989 197.29 106.12C197.253 106.25 197.166 106.361 197.048 106.428C196.931 106.495 196.791 106.514 196.66 106.48C196.351 106.39 196.026 106.364 195.706 106.404C195.387 106.444 195.078 106.548 194.8 106.71C194.518 106.867 194.27 107.078 194.07 107.333C193.871 107.587 193.725 107.878 193.64 108.19C193.614 108.292 193.556 108.383 193.475 108.451C193.395 108.519 193.295 108.561 193.19 108.57Z" fill="black"/>
<path d="M333.37 226.93L323.21 266.14C322.78 267.792 321.711 269.206 320.24 270.072C318.768 270.938 317.014 271.186 315.36 270.76L276.15 260.6C274.504 260.174 273.093 259.113 272.227 257.649C271.361 256.185 271.111 254.438 271.53 252.79L281.69 213.58C281.902 212.761 282.273 211.992 282.783 211.317C283.292 210.641 283.929 210.073 284.658 209.644C285.387 209.215 286.193 208.934 287.031 208.816C287.869 208.699 288.721 208.748 289.54 208.96L328.75 219.12C330.394 219.551 331.801 220.613 332.666 222.075C333.531 223.537 333.784 225.282 333.37 226.93Z" fill="#FB9100"/>
<path d="M316.93 271.47C316.343 271.47 315.758 271.396 315.19 271.25L276.02 261.09C274.24 260.619 272.718 259.466 271.782 257.881C270.846 256.296 270.572 254.406 271.02 252.62L281.18 213.41C281.651 211.63 282.803 210.108 284.389 209.172C285.974 208.236 287.864 207.962 289.65 208.41L328.93 218.59C330.71 219.061 332.232 220.214 333.168 221.799C334.104 223.384 334.378 225.274 333.93 227.06L323.77 266.27C323.37 267.774 322.48 269.101 321.242 270.043C320.003 270.985 318.486 271.487 316.93 271.47ZM315.44 270.26C316.194 270.456 316.979 270.501 317.75 270.393C318.521 270.286 319.264 270.027 319.935 269.632C320.607 269.238 321.194 268.715 321.663 268.093C322.132 267.472 322.474 266.764 322.67 266.01L332.87 226.79C333.262 225.268 333.035 223.652 332.239 222.297C331.442 220.942 330.141 219.957 328.62 219.56L289.41 209.4C287.886 209.008 286.269 209.236 284.914 210.035C283.559 210.833 282.575 212.137 282.18 213.66L272.02 252.86C271.627 254.382 271.854 255.998 272.651 257.353C273.448 258.708 274.749 259.692 276.27 260.09L315.44 270.26Z" fill="#231F20"/>
<path d="M286.93 227.31H286.8C286.67 227.275 286.56 227.19 286.493 227.074C286.425 226.958 286.406 226.82 286.44 226.69L288.17 219.99C288.382 219.185 288.903 218.497 289.621 218.075C290.339 217.654 291.194 217.533 292 217.74L298.7 219.48C298.833 219.515 298.946 219.6 299.015 219.719C299.085 219.837 299.104 219.978 299.07 220.11C299.036 220.243 298.95 220.356 298.832 220.426C298.713 220.495 298.573 220.515 298.44 220.48L291.74 218.75C291.196 218.61 290.619 218.692 290.136 218.977C289.652 219.262 289.301 219.727 289.16 220.27L287.42 226.97C287.386 227.072 287.319 227.16 287.231 227.221C287.143 227.282 287.037 227.314 286.93 227.31Z" fill="#231F20"/>
<path d="M322.31 236.47H322.18C322.115 236.454 322.054 236.425 322.001 236.384C321.947 236.344 321.903 236.294 321.869 236.236C321.836 236.178 321.814 236.114 321.805 236.048C321.797 235.982 321.802 235.914 321.82 235.85L323.55 229.15C323.69 228.606 323.608 228.029 323.323 227.546C323.038 227.062 322.573 226.711 322.03 226.57L315.33 224.79C315.2 224.755 315.09 224.67 315.023 224.554C314.955 224.438 314.936 224.3 314.97 224.17C314.986 224.105 315.015 224.044 315.055 223.99C315.095 223.936 315.146 223.891 315.203 223.856C315.261 223.822 315.325 223.799 315.391 223.79C315.457 223.78 315.525 223.783 315.59 223.8L322.29 225.54C322.689 225.643 323.064 225.825 323.393 226.073C323.723 226.322 324 226.633 324.209 226.989C324.418 227.344 324.554 227.738 324.611 228.146C324.668 228.555 324.644 228.971 324.54 229.37L322.8 236.07C322.777 236.183 322.716 236.284 322.626 236.357C322.537 236.43 322.425 236.47 322.31 236.47Z" fill="#231F20"/>
<path d="M289.44 255.87H289.31L282.61 254.14C282.211 254.036 281.836 253.855 281.507 253.606C281.177 253.358 280.9 253.047 280.691 252.691C280.482 252.335 280.346 251.942 280.289 251.533C280.232 251.125 280.256 250.709 280.36 250.31L282.09 243.61C282.107 243.544 282.137 243.482 282.178 243.428C282.219 243.374 282.27 243.329 282.328 243.294C282.387 243.26 282.452 243.237 282.519 243.228C282.586 243.219 282.654 243.223 282.72 243.24C282.786 243.257 282.847 243.287 282.901 243.328C282.956 243.368 283.001 243.42 283.035 243.478C283.07 243.537 283.092 243.601 283.102 243.669C283.111 243.736 283.107 243.804 283.09 243.87L281.35 250.57C281.213 251.113 281.296 251.689 281.58 252.172C281.865 252.655 282.328 253.006 282.87 253.15L289.57 254.89C289.636 254.905 289.698 254.933 289.752 254.973C289.807 255.013 289.853 255.063 289.887 255.121C289.922 255.179 289.944 255.243 289.953 255.31C289.962 255.377 289.958 255.445 289.94 255.51C289.907 255.616 289.841 255.709 289.75 255.774C289.66 255.839 289.551 255.872 289.44 255.87Z" fill="#231F20"/>
<path d="M313.65 262.06C313.383 262.058 313.117 262.021 312.86 261.95L306.16 260.22C306.094 260.204 306.032 260.174 305.978 260.134C305.924 260.094 305.878 260.043 305.843 259.985C305.808 259.927 305.785 259.863 305.775 259.796C305.765 259.729 305.769 259.661 305.785 259.595C305.801 259.529 305.831 259.468 305.871 259.413C305.911 259.359 305.962 259.313 306.02 259.278C306.078 259.243 306.142 259.22 306.209 259.21C306.276 259.2 306.344 259.204 306.41 259.22L313.11 260.96C313.38 261.03 313.662 261.046 313.938 261.006C314.214 260.967 314.48 260.873 314.72 260.73C314.968 260.597 315.185 260.414 315.358 260.192C315.53 259.969 315.653 259.713 315.72 259.44L317.46 252.74C317.476 252.674 317.506 252.613 317.546 252.558C317.586 252.504 317.637 252.458 317.695 252.423C317.753 252.388 317.817 252.365 317.884 252.355C317.951 252.345 318.019 252.349 318.085 252.365C318.151 252.381 318.212 252.411 318.267 252.451C318.321 252.491 318.367 252.542 318.402 252.6C318.437 252.658 318.46 252.722 318.47 252.789C318.48 252.856 318.476 252.924 318.46 252.99L316.72 259.69C316.621 260.09 316.442 260.466 316.195 260.796C315.947 261.126 315.636 261.403 315.28 261.61C314.788 261.907 314.224 262.062 313.65 262.06Z" fill="#231F20"/>
<path d="M315.29 234.54L314.39 238.04C314.289 238.42 314.042 238.744 313.703 238.942C313.364 239.141 312.961 239.198 312.58 239.1L312.12 238.98C311.932 238.932 311.754 238.848 311.599 238.731C311.443 238.615 311.311 238.469 311.212 238.302C311.113 238.135 311.047 237.949 311.019 237.757C310.992 237.565 311.002 237.368 311.05 237.18L311.1 237.01C311.197 236.631 311.14 236.228 310.942 235.891C310.743 235.554 310.419 235.309 310.04 235.21L307.15 234.46C306.77 234.362 306.366 234.419 306.027 234.618C305.688 234.816 305.441 235.14 305.34 235.52L302.45 246.7C302.352 247.081 302.409 247.484 302.608 247.823C302.806 248.162 303.13 248.409 303.51 248.51L303.75 248.57C304.129 248.669 304.453 248.914 304.652 249.251C304.85 249.588 304.907 249.991 304.81 250.37L304.69 250.84C304.591 251.219 304.346 251.543 304.009 251.742C303.672 251.94 303.269 251.997 302.89 251.9L296.45 250.23C296.262 250.182 296.085 250.098 295.929 249.981C295.774 249.865 295.643 249.718 295.545 249.551C295.446 249.384 295.382 249.198 295.355 249.006C295.329 248.814 295.34 248.618 295.39 248.43L295.51 247.96C295.609 247.581 295.854 247.257 296.191 247.058C296.528 246.86 296.931 246.803 297.31 246.9C297.498 246.95 297.694 246.961 297.886 246.935C298.078 246.908 298.264 246.844 298.431 246.745C298.598 246.647 298.745 246.516 298.861 246.361C298.978 246.205 299.062 246.028 299.11 245.84L302.01 234.66C302.108 234.279 302.051 233.876 301.852 233.537C301.654 233.198 301.33 232.951 300.95 232.85L298.06 232.1C297.681 232.003 297.278 232.06 296.941 232.258C296.604 232.457 296.359 232.781 296.26 233.16V233.33C296.159 233.71 295.912 234.034 295.573 234.232C295.234 234.431 294.831 234.488 294.45 234.39L293.99 234.27C293.802 234.222 293.625 234.138 293.469 234.021C293.314 233.905 293.183 233.758 293.085 233.591C292.986 233.424 292.922 233.238 292.895 233.046C292.869 232.854 292.88 232.658 292.93 232.47L293.83 228.97C293.878 228.782 293.962 228.605 294.079 228.449C294.195 228.294 294.342 228.163 294.509 228.065C294.676 227.966 294.862 227.902 295.054 227.875C295.246 227.849 295.442 227.86 295.63 227.91L314.23 232.79C314.599 232.887 314.917 233.124 315.114 233.45C315.312 233.777 315.375 234.168 315.29 234.54Z" fill="#FFF6EB"/>
<path d="M303.26 252.46C303.091 252.462 302.922 252.439 302.76 252.39L296.32 250.72C295.809 250.59 295.371 250.263 295.1 249.81C294.833 249.354 294.758 248.812 294.89 248.3L295.01 247.83C295.145 247.322 295.476 246.887 295.93 246.62C296.386 246.354 296.929 246.278 297.44 246.41C297.689 246.466 297.95 246.425 298.169 246.295C298.388 246.164 298.55 245.955 298.62 245.71L301.52 234.53C301.583 234.28 301.548 234.015 301.42 233.79C301.284 233.572 301.069 233.414 300.82 233.35L297.93 232.6C297.683 232.544 297.423 232.584 297.204 232.712C296.985 232.84 296.822 233.047 296.75 233.29V233.46C296.616 233.971 296.285 234.408 295.83 234.676C295.375 234.944 294.832 235.021 294.32 234.89L293.86 234.77C293.349 234.636 292.912 234.305 292.644 233.85C292.376 233.395 292.299 232.852 292.43 232.34L293.34 228.84C293.476 228.332 293.806 227.897 294.26 227.63C294.483 227.495 294.731 227.407 294.988 227.371C295.246 227.335 295.509 227.352 295.76 227.42L314.4 232.25C314.909 232.384 315.344 232.714 315.612 233.167C315.88 233.62 315.958 234.16 315.83 234.67L314.92 238.17C314.786 238.681 314.455 239.118 314 239.386C313.545 239.654 313.002 239.731 312.49 239.6L312.03 239.47C311.521 239.336 311.086 239.007 310.818 238.554C310.551 238.101 310.472 237.561 310.6 237.05V236.88C310.656 236.633 310.616 236.373 310.488 236.154C310.36 235.935 310.153 235.773 309.91 235.7L307.02 234.95C306.771 234.894 306.51 234.936 306.291 235.066C306.072 235.196 305.91 235.405 305.84 235.65L302.93 246.79C302.867 247.041 302.902 247.306 303.03 247.53C303.094 247.64 303.179 247.735 303.28 247.81C303.382 247.886 303.497 247.94 303.62 247.97L303.87 248.04C304.377 248.177 304.81 248.507 305.076 248.959C305.341 249.412 305.418 249.951 305.29 250.46L305.17 250.93C305.037 251.437 304.71 251.872 304.26 252.14C303.961 252.334 303.616 252.445 303.26 252.46ZM296.94 247.36C296.767 247.364 296.599 247.412 296.45 247.5C296.23 247.632 296.069 247.843 296 248.09L295.88 248.56C295.819 248.807 295.855 249.069 295.98 249.29C296.114 249.512 296.329 249.674 296.58 249.74L303.01 251.41C303.262 251.471 303.527 251.431 303.75 251.3C303.859 251.237 303.955 251.151 304.03 251.05C304.106 250.949 304.16 250.833 304.19 250.71L304.32 250.24C304.378 249.992 304.338 249.731 304.21 249.51C304.078 249.29 303.867 249.129 303.62 249.06L303.38 249C302.868 248.867 302.429 248.536 302.16 248.08C301.893 247.624 301.818 247.082 301.95 246.57L304.85 235.39C304.984 234.879 305.315 234.442 305.77 234.174C306.225 233.906 306.768 233.829 307.28 233.96L310.16 234.71C310.671 234.844 311.108 235.175 311.376 235.63C311.644 236.086 311.721 236.628 311.59 237.14V237.31C311.534 237.558 311.574 237.817 311.702 238.037C311.83 238.256 312.037 238.418 312.28 238.49L312.75 238.61C312.999 238.666 313.26 238.625 313.479 238.495C313.698 238.364 313.86 238.155 313.93 237.91L314.84 234.41C314.896 234.161 314.854 233.901 314.724 233.681C314.594 233.462 314.385 233.301 314.14 233.23L295.51 228.4C295.258 228.34 294.993 228.379 294.77 228.51C294.55 228.642 294.389 228.853 294.32 229.1L293.42 232.6C293.364 232.848 293.404 233.107 293.532 233.327C293.66 233.546 293.867 233.708 294.11 233.78L294.58 233.9C294.83 233.964 295.096 233.928 295.32 233.8C295.538 233.664 295.696 233.449 295.76 233.2V233.04C295.894 232.531 296.223 232.096 296.676 231.828C297.129 231.561 297.67 231.482 298.18 231.61L301.07 232.36C301.582 232.493 302.021 232.824 302.29 233.28C302.554 233.733 302.629 234.272 302.5 234.78L299.6 245.97C299.465 246.479 299.134 246.914 298.68 247.18C298.224 247.447 297.681 247.522 297.17 247.39L296.94 247.36Z" fill="black"/>
<path d="M369.19 242.85C367.743 242.845 366.342 242.346 365.216 241.437C364.091 240.528 363.309 239.263 363 237.85L358 215.72C357.633 214.078 357.932 212.358 358.832 210.937C359.732 209.516 361.159 208.51 362.8 208.14L391.17 201.79C392.813 201.423 394.534 201.724 395.956 202.626C397.377 203.528 398.382 204.957 398.75 206.6L403.75 228.73C404.117 230.373 403.816 232.094 402.914 233.515C402.012 234.937 400.583 235.942 398.94 236.31L370.62 242.65C370.153 242.773 369.673 242.84 369.19 242.85ZM392.57 202.7C392.173 202.699 391.777 202.742 391.39 202.83L363.07 209.18C361.697 209.494 360.505 210.341 359.755 211.533C359.005 212.725 358.759 214.166 359.07 215.54L364.02 237.67C364.342 239.041 365.191 240.229 366.383 240.978C367.576 241.727 369.015 241.975 370.39 241.67L398.71 235.32C400.083 235.005 401.275 234.159 402.025 232.967C402.774 231.774 403.021 230.333 402.71 228.96L397.71 206.83C397.447 205.651 396.79 204.598 395.849 203.842C394.908 203.086 393.737 202.672 392.53 202.67L392.57 202.7Z" fill="black"/>
<path d="M403.21 228.88L398.21 206.75C398.043 205.998 397.73 205.287 397.287 204.658C396.844 204.028 396.281 203.493 395.631 203.082C394.98 202.671 394.254 202.393 393.496 202.264C392.737 202.135 391.96 202.157 391.21 202.33L362.93 208.68C362.179 208.846 361.468 209.16 360.838 209.603C360.208 210.045 359.673 210.608 359.262 211.259C358.851 211.91 358.573 212.636 358.444 213.394C358.315 214.153 358.337 214.93 358.51 215.68L363.51 237.81C363.678 238.561 363.992 239.271 364.435 239.9C364.878 240.529 365.441 241.064 366.091 241.474C366.742 241.885 367.467 242.163 368.225 242.293C368.984 242.423 369.76 242.401 370.51 242.23L398.83 235.88C399.578 235.71 400.286 235.394 400.912 234.95C401.538 234.505 402.069 233.942 402.476 233.291C402.883 232.64 403.158 231.916 403.284 231.159C403.41 230.402 403.385 229.627 403.21 228.88ZM387.79 222.16L380.31 231.34C380.098 231.602 379.816 231.799 379.498 231.908C379.179 232.017 378.835 232.034 378.507 231.957C378.179 231.879 377.88 231.711 377.643 231.471C377.407 231.231 377.243 230.929 377.17 230.6L373.93 216.31C373.858 215.982 373.879 215.641 373.991 215.325C374.104 215.009 374.303 214.731 374.565 214.523C374.828 214.314 375.144 214.184 375.477 214.146C375.81 214.108 376.147 214.165 376.45 214.31L387.14 219.42C387.386 219.534 387.603 219.702 387.775 219.912C387.947 220.122 388.069 220.368 388.131 220.632C388.194 220.896 388.196 221.17 388.137 221.435C388.077 221.7 387.959 221.948 387.79 222.16Z" fill="#1B5A96"/>
<path d="M378.93 232.51C378.748 232.511 378.566 232.488 378.39 232.44C377.969 232.343 377.585 232.129 377.28 231.823C376.976 231.517 376.764 231.131 376.67 230.71L373.47 216.42C373.375 215.998 373.4 215.558 373.543 215.15C373.687 214.742 373.942 214.383 374.281 214.114C374.619 213.844 375.026 213.676 375.456 213.627C375.886 213.579 376.32 213.653 376.71 213.84L387.4 218.95C387.714 219.1 387.99 219.32 388.207 219.592C388.424 219.865 388.577 220.183 388.653 220.523C388.729 220.863 388.727 221.216 388.647 221.555C388.566 221.894 388.41 222.21 388.19 222.48L380.7 231.66C380.488 231.926 380.219 232.14 379.912 232.287C379.606 232.434 379.27 232.511 378.93 232.51ZM375.71 214.63C375.423 214.633 375.145 214.731 374.92 214.91C374.731 215.06 374.588 215.262 374.508 215.49C374.429 215.718 374.415 215.964 374.47 216.2L377.67 230.49C377.713 230.731 377.826 230.955 377.995 231.133C378.163 231.311 378.381 231.435 378.62 231.49C378.854 231.548 379.099 231.538 379.327 231.462C379.556 231.386 379.758 231.247 379.91 231.06L387.4 221.87C387.523 221.722 387.609 221.547 387.652 221.359C387.696 221.172 387.695 220.977 387.65 220.79C387.61 220.6 387.528 220.422 387.408 220.269C387.288 220.117 387.135 219.994 386.96 219.91L376.27 214.79C376.099 214.693 375.907 214.638 375.71 214.63Z" fill="black"/>
</g>
<defs>
<clipPath id="clip0_141_284">
<rect width="261.87" height="261.58" fill="white" transform="translate(154 31)"/>
</clipPath>
</defs>
</svg>
