<svg width="570" height="324" viewBox="0 0 570 324" fill="none" xmlns="http://www.w3.org/2000/svg">
<rect width="570" height="324" fill="#FFF6EB"/>
<path d="M471.134 292.996H98.6618C98.4786 292.979 98.3105 292.92 98.1888 292.829C98.0671 292.738 98 292.621 98 292.5C98 292.379 98.0671 292.262 98.1888 292.171C98.3105 292.08 98.4786 292.021 98.6618 292.004H471.134C471.242 291.995 471.352 292.001 471.457 292.021C471.561 292.042 471.657 292.077 471.739 292.124C471.821 292.171 471.887 292.228 471.932 292.293C471.977 292.358 472 292.429 472 292.5C472 292.571 471.977 292.642 471.932 292.707C471.887 292.772 471.821 292.829 471.739 292.876C471.657 292.923 471.561 292.958 471.457 292.979C471.352 292.999 471.242 293.005 471.134 292.996Z" fill="#030047"/>
<g clip-path="url(#clip0_137_155)">
<path d="M364.763 203.85C364.653 205.112 364.523 206.375 364.373 207.617C363.562 214.424 362.008 221.123 359.74 227.596C359.2 229.206 358.6 230.787 357.96 232.347C357.319 233.908 356.519 235.747 355.719 237.397C355.528 237.784 355.348 238.172 355.158 238.55C345.186 258.71 328.446 274.781 307.825 283.994C287.204 293.206 263.994 294.981 242.197 289.013C220.4 283.045 201.382 269.708 188.421 251.302C175.461 232.896 169.371 210.574 171.201 188.185C171.291 187.012 171.411 185.839 171.561 184.676C173.343 169.591 178.69 155.139 187.167 142.499C195.643 129.859 207.008 119.39 220.334 111.946C223.696 110.058 227.171 108.375 230.739 106.907C232.627 106.111 234.547 105.383 236.502 104.72C248.589 100.616 261.373 98.927 274.12 99.75L275.86 99.8693C296.592 101.526 316.236 109.768 331.887 123.377C346.394 135.989 356.808 152.593 361.811 171.088C361.941 171.555 362.062 172.032 362.182 172.5C364.769 182.738 365.641 193.33 364.763 203.85Z" stroke="#231F20" stroke-width="0.5" stroke-miterlimit="10"/>
<path opacity="0.4" d="M218.183 180.948L220.674 180.133L215.222 178.046L213.031 179.766L213.651 182.27L216.392 182.698L218.183 180.948ZM256.581 219.396L242.054 213.313L231.629 203.373L218.343 197.071L214.211 199.804C213.03 200.043 211.988 200.725 211.3 201.708C210.613 202.691 210.333 203.9 210.519 205.082L210.769 206.593L207.768 215.539L211.99 219.366L214.741 225.926L219.474 228.56L224.476 233.361L224.926 241.691L228.658 255.607C230.719 263.299 234.661 270.367 240.133 276.182C240.524 276.353 240.96 276.396 241.377 276.304C241.794 276.212 242.17 275.99 242.45 275.67C242.731 275.35 242.901 274.949 242.936 274.526C242.971 274.103 242.869 273.68 242.645 273.319L239.473 268.568L239.823 258.052C241.102 257.476 242.246 256.641 243.182 255.6C244.117 254.559 244.824 253.336 245.256 252.008L248.157 243.062L252.219 239.981C253.079 239.32 253.789 238.488 254.306 237.538C254.823 236.588 255.135 235.541 255.221 234.465L255.331 233.013L257.812 227.527C258.327 226.394 258.546 225.149 258.446 223.91C258.346 222.671 257.932 221.477 257.242 220.439L256.581 219.396ZM186.618 194.367L187.698 194.009L185.327 193.105L184.377 193.85L184.647 194.934L185.838 195.123L186.618 194.367ZM188.359 196.127C188.359 196.127 186.608 196.375 186.018 196.534L185.187 198.005L185.647 198.999C186.563 199.098 187.434 199.441 188.169 199.993C188.297 200.102 188.447 200.182 188.609 200.229C188.771 200.276 188.941 200.289 189.108 200.266C189.275 200.244 189.435 200.187 189.578 200.099C189.722 200.01 189.845 199.893 189.94 199.755C190.01 199.665 190.8 195.779 190.8 195.779L189.129 194.636L188.359 196.127ZM282.173 136.07H277.331L273.829 135.384C273.242 136.089 272.607 136.753 271.929 137.372L274.05 140.305L275.83 141.786L279.012 140.046L282.604 138.953L282.173 136.07ZM360.971 196.216L357.529 192.866L357.429 188.97L360.611 192.946L363.612 193.701L364.693 194.278C364.587 188.173 363.897 182.092 362.632 176.118C362.472 178.464 362.232 180.859 361.901 180.78H361.701C359.93 180.49 358.321 179.584 357.159 178.225L356.979 178.016L357.409 174.676L356.949 174.209C356.489 173.747 356.173 173.162 356.04 172.525C355.907 171.889 355.962 171.227 356.199 170.621C356.252 170.495 356.295 170.366 356.329 170.233C356.329 170.025 356.329 168.603 356.329 168.603L358.18 167.977L360.371 167.599C355.97 153.488 348.371 140.567 338.16 129.828L332.808 126.846L328.395 129.152L327.795 129.202C325.702 129.373 323.727 130.233 322.182 131.647L313.308 139.808L313.208 140.464C312.983 141.979 313.249 143.526 313.969 144.881C314.688 146.236 315.824 147.328 317.21 147.998C317.21 147.998 319.491 151.179 319.851 151.546L319.911 151.596C320.011 151.596 322.693 149.877 322.693 149.877L324.694 143.913V140.026C324.694 140.026 329.306 136.13 329.386 136.05C330.292 136.303 331.18 136.612 332.047 136.975L330.336 139.639L329.396 141.239C329.005 141.902 328.759 142.639 328.674 143.403C328.59 144.167 328.669 144.94 328.906 145.672V145.801L334.478 146.487L331.477 146.656L329.576 148.485L329.936 149.598C329.936 149.598 322.333 153.932 321.932 153.972C321.752 153.972 320.642 153.872 319.571 153.753L317.51 153.554L317.24 152.968C317.097 152.659 316.88 152.391 316.607 152.186C316.334 151.981 316.015 151.847 315.677 151.795C315.339 151.742 314.993 151.774 314.671 151.887C314.348 152 314.059 152.19 313.828 152.441L312.828 153.515L312.138 155.204L307.996 156.715L299.602 159.409L299.061 162.232C299.061 162.232 302.173 164.975 302.013 165.164L300.882 166.476L298.291 166.238L292.358 168.593C292.358 168.593 291.978 174.12 292.278 174.249C292.578 174.378 294.679 175.104 296.03 175.561L297.091 175.939C298.86 175.476 300.601 174.908 302.303 174.239C302.673 173.891 305.915 168.325 305.915 168.325H306.605C308.954 168.422 311.243 169.095 313.266 170.285C315.29 171.475 316.985 173.144 318.201 175.144C319.251 176.873 320.091 178.235 320.041 178.126C319.984 177.156 319.984 176.183 320.041 175.213C320.053 174.821 320.185 174.442 320.421 174.127C320.658 173.813 320.985 173.578 321.361 173.455C321.736 173.332 322.14 173.327 322.518 173.441C322.896 173.555 323.229 173.781 323.473 174.09C324.604 175.501 325.784 176.744 326.595 176.983C328.596 177.549 332.027 173.533 332.027 173.533L333.408 179.259C333.408 179.259 336.409 179.756 336.599 179.766C336.789 179.776 341.091 179.378 341.091 179.378C341.091 179.378 341.562 182.827 341.552 182.956C341.542 183.086 338.63 186.306 338.63 186.306C338.63 186.306 328.926 185.014 328.465 184.726C328.005 184.437 325.464 182.35 325.464 182.35L321.272 183.642C321.272 183.642 313.929 181.445 313.768 180.919C313.658 180.262 313.611 179.596 313.628 178.931L311.948 175.521L307.055 175.74C307.055 175.74 303.904 175.661 303.794 175.74C303.684 175.82 298.441 178.513 298.441 178.513L295.44 177.42L289.737 181.217L289.407 183.921L281.153 192.161C281.153 192.161 277.521 201.275 282.874 207.647C288.226 214.018 300.882 213.402 301.323 213.74L304.434 215.947C306.621 217.491 308.106 219.831 308.566 222.457L309.186 225.936L312.698 233.292C310.736 238.463 310.387 244.102 311.697 249.474L314.239 259.811C315.465 260.711 316.938 261.22 318.462 261.27C319.986 261.319 321.489 260.908 322.773 260.089C326.695 257.594 332.007 253.897 333.468 251.342C335 248.583 336.209 245.658 337.07 242.625C337.07 242.625 341.212 238.56 341.692 236.443C341.912 235.498 342.192 233.461 342.452 231.473C342.828 228.412 344.302 225.589 346.604 223.521C350.826 219.724 357.229 213.67 356.879 212.13C356.339 209.834 350.486 210.897 350.486 210.897C350.486 210.897 343.713 201.753 343.483 201.116C343.373 200.848 342.772 198.84 342.132 196.634C342.045 196.349 342.063 196.044 342.181 195.772C342.3 195.499 342.512 195.277 342.78 195.146C343.048 195.015 343.355 194.982 343.645 195.054C343.934 195.127 344.189 195.299 344.363 195.54C345.036 196.323 345.582 197.205 345.984 198.154C346.355 199.924 346.833 201.67 347.414 203.383L350.806 208.472L359.11 206.484L364.503 202.786C364.676 200.487 364.759 198.194 364.753 195.908L360.971 196.216ZM345.814 172.977C344.607 173.207 343.371 173.244 342.152 173.086C339.471 172.728 334.849 172.092 334.999 171.595C335.209 170.959 335.519 168.842 335.519 168.842L338.23 166.963L341.542 167.679L341.602 167.629C342.213 167.138 342.945 166.819 343.723 166.703C344.5 166.588 345.295 166.681 346.024 166.973H346.084C346.564 167.057 347.01 167.278 347.366 167.61C347.721 167.942 347.971 168.37 348.085 168.842V169.031L348.145 169.766C348.219 170.492 348.022 171.22 347.593 171.811C347.163 172.403 346.53 172.818 345.814 172.977ZM354.208 225.33C352.207 224.833 350.106 229.365 350.106 229.365C348.882 229.874 347.686 230.448 346.524 231.085C346.702 232.118 346.939 233.14 347.234 234.146L345.424 236.134L345.624 239.564L349.205 239.375L351.787 236.393L353.137 231.652L355.528 229.097C355.528 229.097 356.229 225.847 354.208 225.33ZM275.57 131.051L281.513 127.502L284.174 127.452L287.526 126.458C288.083 125.307 288.574 124.126 288.997 122.92C288.952 122.115 288.952 121.309 288.997 120.504L295.33 109.918L297.661 108.139L300.412 108.259L301.413 106.092L301.152 105.416C300.222 105.058 299.262 104.73 298.301 104.422C297.002 104.309 295.713 104.113 294.439 103.835L292.238 102.99L291.678 102.493C290.537 102.205 289.397 101.937 288.236 101.698L277.711 102.692C277.711 102.692 276.581 102.692 276.101 102.613C275.62 102.533 273.359 105.595 273.359 105.595C273.359 105.595 270.508 104.601 269.888 104.382C269.267 104.163 262.734 105.277 262.734 105.277L260.433 103.627L240.774 108.109L239.103 107.563L237.152 108.825C236.37 108.538 235.544 108.39 234.711 108.388C233.54 108.388 232.64 110.266 232.64 110.266C232.64 110.266 232.64 114.401 232.64 114.63C232.201 115.239 231.706 115.804 231.159 116.32L228.278 116.668C227.985 116.219 227.544 115.886 227.032 115.725C226.519 115.563 225.966 115.584 225.466 115.783L224.966 115.554C224.393 115.292 223.765 115.17 223.135 115.199C222.504 115.229 221.89 115.408 221.344 115.723L218.433 115.664L216.182 116.29L213.481 116.479L210.739 117.86C200.352 125.31 191.555 134.732 184.858 145.581C178.16 156.431 173.695 168.492 171.721 181.068L174.822 179.08L177.063 181.485L182.066 189.805C182.126 189.914 185.687 190.063 186.118 190.232C186.548 190.401 195.802 196.027 195.802 196.027L199.714 195.6L202.195 198.393C202.673 198.53 203.18 198.53 203.658 198.394C204.136 198.258 204.566 197.992 204.899 197.625C205.231 197.258 205.454 196.806 205.54 196.319C205.626 195.833 205.573 195.332 205.387 194.874L204.286 192.22L200.885 192.618L198.454 191.057L200.855 188.523C200.811 188.221 200.697 187.933 200.523 187.682C200.349 187.43 200.119 187.222 199.852 187.073C199.584 186.924 199.285 186.838 198.978 186.823C198.672 186.807 198.365 186.861 198.083 186.982C196.644 187.552 195.243 188.217 193.891 188.97C193.511 189.387 190.14 187.886 190.14 187.886L189.909 187.529C189.148 186.324 188.798 184.907 188.911 183.489C189.025 182.07 189.596 180.726 190.54 179.656L191.21 178.901C191.21 178.901 192.511 176.913 192.591 176.754C193.58 177.019 194.549 177.351 195.492 177.748L200.965 177.241C200.965 177.241 204.576 180.909 204.697 181.117C204.817 181.326 207.298 177.887 207.298 177.887L209.299 175.273L212.37 174.13C212.37 174.13 217.603 167.798 218.373 167.897C219.143 167.997 229.959 161.397 229.959 161.397L232.96 161.705L234.441 159.538L232.65 155.781L236.552 153.882L240.063 156.715C241.094 156.501 242.006 155.911 242.62 155.06C243.233 154.21 243.503 153.161 243.375 152.123L243.285 151.358L239.473 142.799C239.473 142.799 238.473 140.096 238.413 139.877C238.353 139.658 234.711 140.165 234.711 140.165L232 141.06C232.047 140.634 232.005 140.202 231.877 139.792C231.749 139.383 231.538 139.004 231.257 138.678C230.975 138.353 230.63 138.089 230.241 137.902C229.853 137.715 229.429 137.609 228.998 137.591H227.347C226.569 137.849 225.81 138.161 225.076 138.525C225.076 138.664 219.394 149.121 219.394 149.121L217.062 150.364L215.722 147.084C215.722 147.084 212.98 146.219 212.33 146.09C211.68 145.96 209.459 143.505 209.209 143.485C208.959 143.465 210.429 141.269 210.429 141.269C210.429 141.269 217.823 138.138 217.933 138.118L220.644 137.621L227.057 131.011L229.969 130.255L230.879 128.019L233.17 125.633L235.311 130.037L231.229 132.094L230.989 133.893C230.961 134.113 230.977 134.336 231.037 134.549C231.097 134.762 231.198 134.962 231.336 135.135C231.474 135.309 231.645 135.454 231.84 135.562C232.034 135.669 232.248 135.737 232.47 135.762L234.691 135.901L236.242 137.044L241.614 136.428L242.895 134.172L244.716 134.221C245.239 133.798 245.616 133.222 245.795 132.576C245.975 131.929 245.947 131.243 245.716 130.613C245.538 130.162 245.397 129.696 245.296 129.222C245.296 128.844 240.754 123.089 240.754 123.089L238.443 123.546L234.621 121.558L238.783 118.139L240.684 117.93L241.864 115.763L247.187 114.053L248.778 115.912L248.908 118.109L251.479 118.974L252.589 117.244L255.991 116.33L256.861 118.318L259.102 120.713L256.481 128.705L254.89 130.186L255.601 136.15C255.601 136.15 254.79 138.058 254.77 138.307C254.765 138.363 254.765 138.419 254.77 138.476C254.856 138.808 255.01 139.119 255.224 139.389C255.438 139.659 255.706 139.881 256.011 140.042C256.316 140.203 256.652 140.299 256.996 140.324C257.341 140.348 257.687 140.301 258.012 140.185L258.762 139.917L262.034 139.847L272.039 131.379L275.57 131.051ZM257.081 111.171C256.641 111.006 256.185 110.886 255.721 110.813L254.72 111.489L251.319 112.612C251.319 112.553 252.95 110.396 252.95 110.396L254.2 110.634L256.131 109.441C256.131 109.441 259.643 109.253 259.843 109.262C258.966 109.946 258.043 110.571 257.081 111.131V111.171ZM290.267 215.976L286.776 215.291C286.187 215.997 285.548 216.662 284.865 217.279L286.996 220.151L288.777 221.632L291.958 219.893L295.55 218.799L295.12 215.957L290.267 215.976Z" fill="#1B5A96"/>
<path d="M384.072 140.006L380.8 143.237C379.777 142.238 378.966 141.045 378.416 139.728C377.866 138.412 377.588 136.999 377.599 135.573H382.201C382.196 136.399 382.359 137.218 382.68 137.98C383.002 138.742 383.475 139.431 384.072 140.006Z" fill="#2E344D"/>
<path d="M388.474 124.828V129.4C386.824 129.403 385.242 130.053 384.073 131.209C382.904 132.366 382.242 133.934 382.231 135.573H377.629C377.647 132.724 378.797 129.997 380.828 127.985C382.858 125.973 385.606 124.839 388.474 124.828Z" fill="#C66A05"/>
<path d="M396.178 128.049L392.906 131.279C392.329 130.683 391.636 130.209 390.869 129.886C390.102 129.563 389.277 129.398 388.444 129.401V124.828C389.885 124.821 391.312 125.103 392.641 125.656C393.969 126.21 395.172 127.023 396.178 128.049Z" fill="#1B5A96"/>
<path d="M399.229 135.573C399.211 138.427 398.057 141.159 396.02 143.171C393.983 145.184 391.227 146.315 388.354 146.318C385.525 146.325 382.808 145.217 380.8 143.236L384.072 140.006C385.225 141.123 386.773 141.748 388.384 141.745C390.034 141.743 391.616 141.093 392.785 139.936C393.954 138.78 394.616 137.212 394.627 135.573C394.638 133.973 394.021 132.433 392.906 131.279L396.178 128.048C398.155 130.058 399.251 132.763 399.229 135.573Z" fill="#FB9100"/>
<path d="M416.207 128.595H402.671L402.681 127.313H416.217L416.207 128.595Z" fill="#FB9100"/>
<path d="M416.197 131.209H408.754L408.764 129.937H416.197V131.209Z" fill="#1B5A96"/>
<path d="M416.147 140.175H402.611V138.903H416.147V140.175Z" fill="#FB9100"/>
<path d="M416.127 142.789H408.694L408.704 141.517H416.137L416.127 142.789Z" fill="#1B5A96"/>
<path d="M233.79 245.08H195.132V292.503H233.79V245.08Z" fill="#1B5A96"/>
<path d="M290.257 205.191H251.599V292.503H290.257V205.191Z" fill="#1B5A96"/>
<path d="M346.724 180.71H308.066V292.493H346.724V180.71Z" fill="#1B5A96"/>
<path d="M403.191 153.176H364.533V292.493H403.191V153.176Z" fill="#1B5A96"/>
<path d="M218.223 245.08H183.847C182.664 245.08 181.706 246.032 181.706 247.207V290.376C181.706 291.551 182.664 292.503 183.847 292.503H218.223C219.405 292.503 220.364 291.551 220.364 290.376V247.207C220.364 246.032 219.405 245.08 218.223 245.08Z" fill="#FB9100"/>
<path d="M274.69 205.191H240.314C239.131 205.191 238.172 206.144 238.172 207.319V290.376C238.172 291.551 239.131 292.503 240.314 292.503H274.69C275.872 292.503 276.831 291.551 276.831 290.376V207.319C276.831 206.144 275.872 205.191 274.69 205.191Z" fill="#FB9100"/>
<path d="M331.157 180.71H296.78C295.598 180.71 294.639 181.662 294.639 182.837V290.366C294.639 291.541 295.598 292.493 296.78 292.493H331.157C332.339 292.493 333.298 291.541 333.298 290.366V182.837C333.298 181.662 332.339 180.71 331.157 180.71Z" fill="#FB9100"/>
<path d="M384.402 153.176H353.157C352.024 153.176 351.106 154.089 351.106 155.214V290.515C351.106 291.64 352.024 292.553 353.157 292.553H384.402C385.535 292.553 386.453 291.64 386.453 290.515V155.214C386.453 154.089 385.535 153.176 384.402 153.176Z" fill="#FB9100"/>
<path d="M358.57 164.369V224.286" stroke="#231F20" stroke-width="0.23" stroke-miterlimit="10"/>
<path d="M271.929 247.525V280.754" stroke="black" stroke-width="0.23" stroke-miterlimit="10"/>
<path d="M268.727 240.816V259.92" stroke="black" stroke-width="0.23" stroke-miterlimit="10"/>
<path d="M340.671 57.963L341.422 53.679C341.422 53.679 344.663 54.6729 345.584 53.5299C346.504 52.3868 345.944 48.9178 346.024 48.7886C346.104 48.6594 346.914 49.0967 347.114 48.8979C347.314 48.6991 346.114 45.916 345.854 44.3952C345.594 42.8744 345.924 38.2126 340.951 38.4313C335.979 38.6499 331.717 39.0674 331.257 42.278C330.797 45.4885 332.838 48.391 332.958 50.5082C333.078 52.6253 331.697 57.2971 331.697 57.2971L340.671 57.963Z" fill="#EFA695"/>
<path d="M332.818 50.866C332.737 51.5618 335.909 50.7865 335.939 49.6434C335.969 48.5004 335.869 45.4389 337.16 44.3853C338.45 43.3316 339.041 43.8386 339.161 44.9021C339.22 45.8482 339.149 46.7979 338.95 47.725L339.711 47.7946C339.711 47.7946 340.051 45.4985 341.412 45.1805C342.092 45.0214 341.942 44.6338 342.012 44.1865C342.082 43.7392 342.602 40.6678 343.012 40.3696C343.423 40.0714 345.013 40.787 345.013 40.787C345.013 40.787 346.524 38.2524 346.294 37.0497C346.064 35.847 342.062 33.849 337.82 34.7734C333.578 35.6979 331.387 37.5665 331.207 40.1509C330.528 41.6779 330.397 43.3903 330.837 45.0015C331.617 47.4964 333.118 48.5401 332.818 50.866Z" fill="black"/>
<path d="M344.553 41.0155C346.255 41.0155 347.635 39.6448 347.635 37.954C347.635 36.2632 346.255 34.8926 344.553 34.8926C342.851 34.8926 341.472 36.2632 341.472 37.954C341.472 39.6448 342.851 41.0155 344.553 41.0155Z" fill="black"/>
<path d="M343.432 41.8888C343.9 40.5044 343.379 39.0821 342.268 38.7118C341.158 38.3416 339.878 39.1637 339.411 40.5481C338.943 41.9324 339.464 43.3548 340.575 43.7251C341.686 44.0953 342.965 43.2732 343.432 41.8888Z" fill="black"/>
<path d="M341.662 38.1229C343.364 38.1229 344.743 36.7523 344.743 35.0615C344.743 33.3707 343.364 32 341.662 32C339.96 32 338.58 33.3707 338.58 35.0615C338.58 36.7523 339.96 38.1229 341.662 38.1229Z" fill="black"/>
<path d="M337.53 38.1723C339.232 38.1723 340.611 36.8016 340.611 35.1108C340.611 33.42 339.232 32.0493 337.53 32.0493C335.828 32.0493 334.448 33.42 334.448 35.1108C334.448 36.8016 335.828 38.1723 337.53 38.1723Z" fill="black"/>
<path d="M334.308 40.558C336.01 40.558 337.39 39.1873 337.39 37.4965C337.39 35.8057 336.01 34.4351 334.308 34.4351C332.606 34.4351 331.227 35.8057 331.227 37.4965C331.227 39.1873 332.606 40.558 334.308 40.558Z" fill="black"/>
<path d="M332.307 43.9774C334.009 43.9774 335.389 42.6068 335.389 40.916C335.389 39.2252 334.009 37.8545 332.307 37.8545C330.605 37.8545 329.226 39.2252 329.226 40.916C329.226 42.6068 330.605 43.9774 332.307 43.9774Z" fill="black"/>
<path d="M332.7 47.9555C333.876 47.7888 334.635 46.2967 334.395 44.6229C334.154 42.949 333.006 41.7272 331.83 41.8939C330.654 42.0607 329.895 43.5527 330.136 45.2266C330.376 46.9004 331.524 48.1222 332.7 47.9555Z" fill="black"/>
<path d="M345.313 43.7391C344.947 43.5811 344.547 43.513 344.148 43.5407C343.75 43.5684 343.363 43.691 343.022 43.8982L345.313 43.7391Z" fill="black"/>
<path d="M344.446 45.7795C344.68 45.7435 344.835 45.4855 344.791 45.2034C344.747 44.9213 344.521 44.7219 344.287 44.7579C344.052 44.794 343.897 45.0519 343.941 45.334C343.985 45.6162 344.211 45.8156 344.446 45.7795Z" fill="black"/>
<path d="M345.784 50.7964C345.784 50.7964 345.193 51.5717 344.683 50.6274L345.784 50.7964Z" fill="white"/>
<path d="M338.68 43.888C338.68 43.888 336.679 42.9735 336.319 44.0669C335.959 45.1603 337.59 47.2675 338.64 47.9931L338.68 43.888Z" fill="#EFA695"/>
<path d="M338.3 44.6135C338.3 44.6135 337.14 44.0668 337.039 44.7726C336.939 45.4783 338.39 46.5916 338.39 46.5916L338.3 44.6135Z" fill="black"/>
<path d="M341.362 53.6788C340.229 53.3672 339.128 52.9547 338.07 52.4463" stroke="#2E2C3F" stroke-width="0.23" stroke-miterlimit="10"/>
<path d="M356.029 146.328C356.029 146.328 360.151 147.62 363.202 146.716C363.202 146.716 364.202 149.638 366.203 150.294C368.204 150.95 373.567 151.547 373.837 153.197C374.107 154.847 373.037 154.976 370.976 154.896C368.915 154.817 361.131 153.952 361.131 153.952L359.25 152.839L359.15 153.833L354.628 153.405C354.628 153.405 354.438 147.849 356.029 146.328Z" fill="black"/>
<path d="M320.512 172.509C320.512 172.509 324.634 173.792 327.685 172.887C327.685 172.887 328.686 175.809 330.686 176.465C332.687 177.121 338.05 177.718 338.32 179.368C338.59 181.018 337.52 181.157 335.459 181.067C333.398 180.978 325.604 180.073 325.604 180.073L323.723 178.96L323.633 179.954L319.111 179.517C319.111 179.517 318.951 174.02 320.512 172.509Z" fill="black"/>
<path d="M367.304 72.6243C367.304 72.6243 367.874 72.2466 366.844 70.7059C365.813 69.1652 362.122 69.7119 362.102 69.8312C362.082 69.9505 362.102 72.3659 362.522 72.5348C363.487 72.857 364.469 73.129 365.463 73.3499C365.633 73.33 367.304 72.6243 367.304 72.6243Z" fill="#2E2C3F"/>
<path d="M370.646 62.6645C370.926 63.4994 370.065 64.3443 370.065 64.3443C370.065 64.3443 371.216 65.1196 369.835 66.1335C369.98 66.231 370.098 66.3621 370.18 66.5154C370.261 66.6688 370.304 66.8396 370.304 67.0131C370.304 67.1866 370.261 67.3575 370.18 67.5108C370.098 67.6641 369.98 67.7953 369.835 67.8928C369.998 68.1304 370.075 68.4153 370.055 68.7019C370.035 68.9885 369.919 69.2601 369.725 69.4732C369.443 69.8269 369.106 70.1325 368.725 70.3778C367.724 71.0437 365.953 71.3717 363.892 73.141L360.891 69.4832C361.897 67.7722 363.021 66.1316 364.252 64.5729C365.103 63.7876 366.163 63.2608 366.604 62.4756C367.044 61.6903 367.254 60.6268 368.004 60.6765C368.595 60.6765 368.605 61.6705 368.505 62.406C368.483 62.5641 368.45 62.7202 368.404 62.8732C368.404 62.8732 370.375 61.8295 370.646 62.6645Z" fill="#EFA695"/>
<path d="M369.635 69.791C369.625 69.7558 369.604 69.7246 369.575 69.7016C369.071 69.4859 368.52 69.4004 367.974 69.4531C367.274 69.4531 366.824 69.1549 366.784 68.6877C366.744 68.2205 367.374 68.1012 367.424 68.0913" stroke="#2E2C3F" stroke-width="0.23" stroke-miterlimit="10"/>
<path d="M367.424 68.0717C367.424 68.0717 366.534 67.6542 366.654 67.1672C366.774 66.6801 367.654 66.5807 367.704 66.5708" stroke="#2E2C3F" stroke-width="0.23" stroke-miterlimit="10"/>
<path d="M367.714 66.5907C367.484 66.5907 366.804 66.4515 366.764 65.8949C366.767 65.7082 366.823 65.5262 366.926 65.3697C367.028 65.2132 367.173 65.0887 367.344 65.0102C367.538 64.9059 367.739 64.813 367.944 64.7319" stroke="#2E2C3F" stroke-width="0.23" stroke-miterlimit="10"/>
<path d="M367.944 64.7317C367.773 64.7231 367.609 64.6594 367.477 64.55C367.345 64.4406 367.253 64.2915 367.214 64.1253C367.084 63.5786 368.214 62.9325 368.404 62.853" stroke="#2E2C3F" stroke-width="0.23" stroke-miterlimit="10"/>
<path d="M370.065 64.3442C369.37 64.5326 368.661 64.6623 367.944 64.7319" stroke="#2E2C3F" stroke-width="0.23" stroke-miterlimit="10"/>
<path d="M369.835 66.1333C369.167 66.4288 368.445 66.5845 367.714 66.5905" stroke="#2E2C3F" stroke-width="0.23" stroke-miterlimit="10"/>
<path d="M369.865 67.8926C369.071 68.1055 368.243 68.1726 367.424 68.0906" stroke="#2E2C3F" stroke-width="0.23" stroke-miterlimit="10"/>
<path d="M349.245 74.4433L362.692 66.6206C362.692 66.6206 362.772 71.68 367.304 72.5845L345.704 89.0449L349.245 74.4433Z" fill="#FB9100"/>
<path d="M310.997 106.916C311.317 106.36 311.417 105.694 310.997 103.497C310.795 102.614 310.795 101.697 310.997 100.813L315.299 99.4019C315.847 100.508 316.461 101.58 317.14 102.612C317.83 103.885 318.981 105.256 318.671 106.38C318.141 108.288 317.16 110.574 316.44 110.356C315.719 110.137 316.29 107.871 316.29 107.871C316.29 107.871 315.729 109.034 314.959 108.934C314.189 108.835 313.879 107.861 313.879 107.861C313.128 108.437 312.338 107.523 312.338 107.523C311.647 107.99 310.737 107.354 310.997 106.916Z" fill="#EFA695"/>
<path d="M317.86 99.0739C317.86 99.0739 317.18 100.237 313.228 100.356C309.276 100.475 308.666 100.962 308.706 99.6603C308.746 98.3582 313.488 96.2709 313.608 96.3106C313.729 96.3504 315.539 96.6883 315.92 96.7678C316.655 97.4589 317.306 98.2328 317.86 99.0739Z" fill="#2E2C3F"/>
<path d="M315.869 100.973L315.95 96.1916L310.677 96.1221L310.997 100.814L313.989 100.843L315.869 100.973Z" fill="#EFA695"/>
<path d="M312.338 107.503C312.745 106.878 312.964 106.15 312.968 105.406" stroke="#2E2C3F" stroke-width="0.23" stroke-miterlimit="10"/>
<path d="M313.879 107.831C314.396 107.169 314.739 106.391 314.879 105.564" stroke="#2E2C3F" stroke-width="0.23" stroke-miterlimit="10"/>
<path d="M316.29 107.831C316.614 107.106 316.765 106.317 316.73 105.525" stroke="#2E2C3F" stroke-width="0.23" stroke-miterlimit="10"/>
<path d="M324.774 56.5516C319.561 59.4441 310.157 71.1333 308.056 77.0475C305.955 82.9617 308.706 99.6606 308.706 99.6606C308.706 99.6606 314.269 96.6091 317.86 99.0742C317.86 99.0742 316.74 82.9219 317.1 81.9777C317.46 81.0334 329.996 69.6423 331.017 67.0679C332.037 64.4935 329.426 53.9672 324.774 56.5516Z" fill="#FB9100"/>
<path d="M317.1 81.9875C317.1 81.9875 316.21 80.1983 314.699 79.9995" stroke="#2E2C3F" stroke-width="0.23" stroke-miterlimit="10"/>
<path d="M343.393 113.059C343.393 113.059 342.662 136.805 341.081 142.402C339.501 147.998 329.646 174.139 329.646 174.139C329.646 174.139 322.383 174.756 318.221 171.038C317.87 170.72 325.994 139.38 325.994 139.38C325.994 139.38 325.094 105.922 325.994 102.344C326.895 98.7657 343.393 113.059 343.393 113.059Z" fill="#1B5A96"/>
<path d="M338.32 96.2711C338.32 96.2711 370.696 104.223 371.796 108.984C373.797 117.622 369.795 123.894 366.173 147.66C366.173 147.66 359.93 147.541 357.869 147.243C353.617 146.636 353.948 145.722 353.948 145.722L357.329 116.896C357.329 116.896 339 116.31 332.407 113.914C325.814 111.519 320.582 103.974 324.303 94.0347L338.32 96.2711Z" fill="#1B5A96"/>
<path d="M343.062 115.922C339.451 115.627 335.88 114.96 332.407 113.934C329.971 113.057 327.824 111.53 326.204 109.521" stroke="black" stroke-width="0.5" stroke-miterlimit="10"/>
<path d="M348.335 98.8852C348.335 98.8852 337.33 99.0244 332.447 97.6129C327.565 96.2015 329.166 86.5698 329.236 86.1225C329.306 85.6752 331.237 53.8081 331.237 53.8081L339.891 57.5157L342.942 57.0385L347.424 63.7181L349.215 86.7885L348.335 98.8852Z" fill="white"/>
<path d="M339.371 59.0562L340.521 60.2589C340.521 60.2589 341.922 64.3044 341.922 73.1807C341.922 82.057 341.592 91.6091 341.592 91.6091L344.523 95.3167L347.044 91.4799C347.044 91.4799 344.823 73.0415 344.233 69.2644C343.621 66.1713 342.823 63.1176 341.842 60.1198C341.842 60.0303 342.322 58.6785 342.322 58.6785L340.581 57.4658L339.371 59.0562Z" fill="black"/>
<path d="M331.327 53.818L332.968 51.333L340.651 57.2373L341.222 54.8418C341.222 54.8418 342.762 56.283 342.862 57.0981C342.872 57.8658 342.798 58.6323 342.642 59.3843L340.641 57.7939L339.231 59.4538L331.327 53.818Z" fill="white"/>
<path d="M331.327 53.8179L339.241 59.4538L340.651 57.7938L342.652 59.3842C342.739 58.6021 342.766 57.8146 342.732 57.0284" stroke="#2E2C3F" stroke-width="0.23" stroke-miterlimit="10"/>
<path d="M331.947 53.1621C331.947 53.1621 324.414 54.1561 321.452 61.114C319.941 64.6426 320.842 83.8165 320.612 88.7069C320.382 93.5973 317.18 102.961 318.351 104.541C319.891 106.619 337.36 106.032 339.491 104.541C341.622 103.05 338.71 71.5806 338.15 66.3622C337.59 61.1438 331.947 53.1621 331.947 53.1621Z" fill="#FB9100"/>
<path d="M320.782 78.1804C320.782 78.1804 326.484 72.5545 328.085 70.4771" stroke="#2E2C3F" stroke-width="0.23" stroke-miterlimit="10"/>
<path d="M325.064 73.7868C326.453 72.3588 327.449 70.5993 327.955 68.6777" stroke="#2E2C3F" stroke-width="0.23" stroke-miterlimit="10"/>
<path d="M341.852 55.478C342.304 56.112 342.712 56.7762 343.072 57.466C344.483 60.5175 346.644 66.3124 346.924 69.5131C347.364 74.6221 348.925 90.8141 347.925 98.8952L350.066 99.5015C349.673 93.8774 349.609 88.2353 349.876 82.6038C350.396 75.7056 350.256 67.1772 348.995 63.5989C347.174 58.3009 341.852 55.478 341.852 55.478Z" fill="#FB9100"/>
<path d="M350.206 74.1152C350.206 74.1152 350.286 80.5065 349.896 84.1147" stroke="#2E2C3F" stroke-width="0.23" stroke-miterlimit="10"/>
<path d="M328.816 54.7026L331.877 62.5352L335.429 62.8235L333.808 64.5729C333.808 64.5729 337.9 70.9344 338.74 76.9778" stroke="#2E2C3F" stroke-width="0.23" stroke-miterlimit="10"/>
<path d="M344.823 57.7837L346.824 62.8928L346.024 63.3898L347.024 63.9265C347.558 68.1293 347.796 72.3641 347.735 76.5998" stroke="#2E2C3F" stroke-width="0.23" stroke-miterlimit="10"/>
<path d="M209.149 207.836L206.327 223.799L213.781 227L217.623 205.957L215.582 205.182L209.149 207.836Z" fill="#EFA695"/>
<path d="M184.147 230.319C184.147 230.319 184.687 234.057 191.98 230.319C199.274 226.582 187.038 222.854 187.038 222.854L184.147 230.319Z" fill="#2E2C3F"/>
<path d="M196.533 224.316L200.685 235.975L193.631 238.162L185.397 225.34L193.241 220.956L196.533 224.316Z" fill="#FFCFC5"/>
<path d="M210.719 225.021C210.719 225.021 198.253 202.398 186.448 199.566C183.446 198.85 176.333 204.019 178.334 211.762C180.335 219.505 184.177 230.319 184.177 230.319C184.177 230.319 186.448 222.308 196.563 224.355L199.854 233.629L213.731 235.508L226.077 226.473L213.731 223.54L210.719 225.021Z" fill="#2E344D"/>
<path d="M185.447 225.787C185.447 225.787 188.849 221.354 194.061 222.05" stroke="#2E2C3F" stroke-width="0.23" stroke-miterlimit="10"/>
<path d="M193.081 290.724C193.081 290.724 193.821 293.895 197.453 292.771C200.168 292.013 202.744 290.832 205.087 289.272C206.718 288.129 207.488 287.135 209.449 286.489C211.41 285.843 213.681 285.813 214.221 284.452C214.671 283.338 213.041 281.47 213.041 281.47L202.636 285.933L193.081 290.724Z" fill="#1B5A96"/>
<path d="M209.429 275.715L206.758 267.484L197.833 271.858L201.415 279.7L204.536 281.45L208.949 279.273L209.429 275.715Z" fill="#FFCFC5"/>
<path d="M201.455 279.701C200.075 281.964 198.572 284.151 196.953 286.251C195.342 288.12 192.411 288.537 193.121 290.714C193.831 292.891 199.374 289.998 202.606 288.269C205.837 286.539 207.608 284.223 209.609 284.005C211.61 283.786 213.191 282.116 213.071 281.48C212.95 280.844 210.069 276.013 209.449 275.715C209.449 275.715 209.449 276.927 206.197 278.409C202.946 279.89 201.455 279.701 201.455 279.701Z" fill="black"/>
<path d="M199.364 285.585V285.644C199.323 285.682 199.27 285.703 199.214 285.703C199.158 285.703 199.105 285.682 199.064 285.644L197.973 284.849C197.932 284.808 197.909 284.753 197.909 284.695C197.909 284.637 197.932 284.582 197.973 284.541V284.481C197.993 284.46 198.017 284.443 198.044 284.431C198.07 284.42 198.099 284.414 198.128 284.414C198.158 284.414 198.186 284.42 198.213 284.431C198.24 284.443 198.264 284.46 198.283 284.481L199.364 285.277C199.405 285.318 199.428 285.373 199.428 285.431C199.428 285.488 199.405 285.544 199.364 285.585Z" fill="#1B5A96"/>
<path d="M200.024 284.521V284.581C200.005 284.602 199.981 284.619 199.954 284.631C199.927 284.643 199.898 284.649 199.869 284.649C199.84 284.649 199.811 284.643 199.784 284.631C199.758 284.619 199.734 284.602 199.714 284.581L198.634 283.786C198.593 283.745 198.57 283.689 198.57 283.632C198.57 283.574 198.593 283.518 198.634 283.477V283.428C198.651 283.404 198.672 283.384 198.697 283.369C198.722 283.353 198.749 283.343 198.778 283.338C198.807 283.334 198.837 283.335 198.865 283.342C198.893 283.348 198.92 283.361 198.944 283.378L200.024 284.173C200.05 284.195 200.07 284.221 200.084 284.251C200.098 284.281 200.105 284.314 200.105 284.347C200.105 284.38 200.098 284.413 200.084 284.443C200.07 284.473 200.05 284.5 200.024 284.521Z" fill="#1B5A96"/>
<path d="M200.815 283.358V283.418C200.795 283.438 200.772 283.453 200.746 283.464C200.72 283.475 200.693 283.481 200.665 283.481C200.637 283.481 200.609 283.475 200.583 283.464C200.557 283.453 200.534 283.438 200.515 283.418L199.424 282.623C199.383 282.582 199.36 282.526 199.36 282.469C199.36 282.411 199.383 282.356 199.424 282.315V282.255C199.444 282.234 199.468 282.216 199.494 282.205C199.521 282.193 199.55 282.187 199.579 282.187C199.608 282.187 199.637 282.193 199.664 282.205C199.691 282.216 199.714 282.234 199.734 282.255L200.825 283.05C200.864 283.092 200.886 283.149 200.884 283.206C200.882 283.264 200.857 283.319 200.815 283.358Z" fill="#1B5A96"/>
<path d="M201.605 282.205V282.265C201.564 282.306 201.508 282.329 201.45 282.329C201.392 282.329 201.336 282.306 201.295 282.265L200.214 281.47C200.168 281.434 200.137 281.383 200.128 281.326C200.119 281.268 200.132 281.21 200.164 281.162V281.102C200.184 281.081 200.208 281.064 200.235 281.052C200.261 281.04 200.29 281.034 200.319 281.034C200.349 281.034 200.377 281.04 200.404 281.052C200.431 281.064 200.455 281.081 200.474 281.102L201.555 281.897C201.579 281.914 201.599 281.935 201.615 281.96C201.63 281.985 201.64 282.012 201.645 282.041C201.65 282.07 201.649 282.099 201.642 282.127C201.635 282.155 201.622 282.182 201.605 282.205Z" fill="#1B5A96"/>
<path d="M236.822 231.284C236.822 231.284 239.563 245.796 226.987 248.022C214.411 250.249 202.876 251.889 202.876 251.889C202.876 251.889 206.638 264.214 207.818 269.144C207.818 269.144 196.373 277.732 192.961 276.102C192.961 276.102 177.594 246.034 183.957 238.997C190.32 231.96 214.291 231.482 214.291 231.482L222.145 220.31L236.822 231.284Z" fill="#2E344D"/>
<path d="M235.831 186.634C233.1 190.61 218.953 191.604 217.893 188.711C215.101 181.197 213.091 174.994 216.722 169.17C218.183 166.824 221.525 166.108 224.126 166.039C230.559 165.84 232.13 168.235 233.82 174.458C234.561 177.271 237.322 184.437 235.831 186.634Z" fill="black"/>
<path d="M232.6 190.719L231.819 192.946C231.819 192.946 229.698 196.624 229.628 196.614C229.558 196.604 220.624 195.093 220.624 195.093L222.625 190.58L222.485 183.414L229.959 180.819H230.029C230.21 182.921 230.592 185.002 231.169 187.032C231.369 187.678 232.01 189.517 232.01 189.517L232.6 190.719Z" fill="#FFCFC5"/>
<path d="M222.685 190.58L220.904 191.455L221.214 195.57L224.846 199.039L231.039 196.962L235.011 193.671L233.13 189.069L230.899 189.546L222.685 190.58Z" fill="#FFCFC5"/>
<path d="M229.878 173.881C229.878 173.881 230.509 187.797 224.036 189C221.144 189.527 218.733 185.869 217.673 181.962C216.915 178.821 216.628 175.585 216.822 172.361L225.736 167.391L229.878 173.881Z" fill="#FFCFC5"/>
<path d="M222.675 185.193C222.675 185.193 224.026 186.624 224.596 184.835L222.675 185.193Z" fill="white"/>
<path d="M227.527 186.355C227.164 187.01 226.665 187.581 226.063 188.03C225.461 188.479 224.77 188.796 224.036 188.96C223.704 189.01 223.367 189.01 223.035 188.96" stroke="#2E2C3F" stroke-width="0.23" stroke-miterlimit="10"/>
<path d="M219.571 180.547C219.832 180.415 219.914 180.054 219.754 179.741C219.593 179.428 219.251 179.281 218.99 179.413C218.73 179.545 218.648 179.906 218.808 180.219C218.969 180.532 219.31 180.679 219.571 180.547Z" fill="#2E2C3F"/>
<path d="M230.879 177.41C230.099 175.591 227.878 175.223 226.077 175.014C225.039 174.907 224.044 174.546 223.182 173.963C222.319 173.38 221.616 172.594 221.134 171.674C221.134 171.674 220.484 177.589 216.552 177.141C216.552 177.141 214.871 167.032 222.965 166.794C232.83 166.476 230.879 177.41 230.879 177.41Z" fill="black"/>
<path d="M221.785 181.833V182.598C221.782 182.677 221.797 182.754 221.828 182.826C221.86 182.898 221.907 182.962 221.966 183.013C222.026 183.065 222.096 183.102 222.172 183.123C222.248 183.144 222.327 183.148 222.405 183.135H222.555" stroke="#2E2C3F" stroke-width="0.23" stroke-miterlimit="10"/>
<path d="M223.265 177.34C223.665 177.154 224.1 177.058 224.541 177.058C224.982 177.058 225.417 177.154 225.817 177.34H223.265Z" fill="#2E2C3F"/>
<path d="M219.904 177.977C219.499 177.914 219.085 177.952 218.698 178.085C218.31 178.218 217.962 178.444 217.683 178.742L219.904 177.977Z" fill="#2E2C3F"/>
<path d="M229.999 176.774C229.999 176.774 232.47 176.356 232.29 178.384C232.11 180.412 229.498 181.803 229.498 181.803L229.999 176.774Z" fill="#FFCFC5"/>
<path d="M230.759 177.817C230.759 177.817 232.86 177.469 230.389 179.805L230.759 177.817Z" fill="#2E2C3F"/>
<path d="M231.139 176.187C230.842 176.411 230.603 176.7 230.439 177.032C230.029 177.708 229.558 180.919 229.348 180.909C229.138 180.899 229.348 176.306 226.167 174.179C222.985 172.052 227.938 171.774 227.938 171.774C228.862 172.373 229.741 173.037 230.569 173.762C230.589 174.03 231.139 176.187 231.139 176.187Z" fill="black"/>
<path d="M219.203 179.397C218.944 179.403 218.691 179.478 218.471 179.614C218.251 179.751 218.072 179.944 217.953 180.173C218.271 179.957 218.633 179.815 219.013 179.755L219.203 179.397Z" fill="#2E2C3F"/>
<path d="M224.82 179.389C224.849 179.039 224.636 178.736 224.344 178.712C224.052 178.688 223.792 178.953 223.763 179.303C223.734 179.653 223.948 179.956 224.239 179.98C224.531 180.004 224.791 179.739 224.82 179.389Z" fill="#2E2C3F"/>
<path d="M224.126 178.751C224.367 178.658 224.629 178.631 224.884 178.673C225.139 178.715 225.378 178.824 225.576 178.99C225.201 178.907 224.812 178.907 224.436 178.99L224.126 178.751Z" fill="#2E2C3F"/>
<path d="M231.919 188.831C231.919 188.831 239.923 189.904 242.074 191.077C239.693 196.977 238.418 203.259 238.312 209.615C238.072 220.409 236.822 231.284 236.822 231.284C236.822 231.284 226.397 225.727 219.494 225.419L210.719 225.021C211.848 222.082 212.559 219.001 212.83 215.867C212.99 211.722 212.36 207.428 212.91 202.726C213.315 199.66 213.984 196.634 214.911 193.681L222.615 190.53C222.615 190.53 221.885 194.596 225.336 194.755C228.788 194.914 231.919 188.831 231.919 188.831Z" fill="#FB9100"/>
<path d="M221.464 191.325C221.464 191.325 220.464 196.812 224.796 196.574C229.128 196.335 231.069 192.488 232.52 190.113" stroke="#2E2C3F" stroke-width="0.23" stroke-miterlimit="10"/>
<path d="M214.871 193.681C214.871 193.681 210.249 195.669 208.448 208.283L215.582 209.615L214.871 193.681Z" fill="#FB9100"/>
<path d="M212.59 208.74L213.531 201.037" stroke="#2E2C3F" stroke-width="0.23" stroke-miterlimit="10"/>
<path d="M196.533 224.316L194.141 214.485" stroke="#2E2C3F" stroke-width="0.23" stroke-miterlimit="10"/>
<path d="M199.774 232.854L212.53 230.399L213.531 228.123" stroke="black" stroke-width="0.23" stroke-miterlimit="10"/>
<path d="M232.81 229.534C232.81 229.534 233.72 241.283 222.805 243.092C211.89 244.901 200.184 247.356 198.894 248.002C197.603 248.648 204.456 267.962 204.456 267.962C201.124 270.71 197.213 272.681 193.011 273.727" stroke="black" stroke-width="0.23" stroke-miterlimit="10"/>
<path d="M234.031 229.475H213.341V227.805H232.45C232.869 227.805 233.271 227.97 233.568 228.265C233.864 228.559 234.031 228.959 234.031 229.375V229.475Z" fill="black"/>
<path d="M225.586 222.139C225.136 221.677 224.59 221.317 223.986 221.085C222.754 220.932 221.506 220.965 220.284 221.185C219.854 221.254 219.974 222.626 219.974 222.626L224.976 223.431L225.586 222.139Z" fill="#EFA695"/>
<path d="M190.67 229.475H224.346L221.004 208.223C220.964 207.963 220.83 207.725 220.628 207.554C220.426 207.382 220.169 207.288 219.904 207.289H187.528C187.367 207.288 187.207 207.323 187.06 207.39C186.914 207.457 186.783 207.554 186.679 207.676C186.574 207.799 186.497 207.942 186.454 208.096C186.41 208.251 186.402 208.413 186.428 208.571L189.569 228.57C189.616 228.826 189.752 229.056 189.954 229.222C190.155 229.387 190.409 229.477 190.67 229.475Z" fill="black"/>
<path d="M190.67 229.475H221.685C221.846 229.475 222.006 229.441 222.152 229.374C222.299 229.307 222.43 229.209 222.534 229.087C222.639 228.965 222.716 228.822 222.759 228.667C222.802 228.513 222.811 228.351 222.785 228.193L219.634 208.223C219.593 207.963 219.46 207.725 219.258 207.554C219.056 207.382 218.799 207.288 218.533 207.289H187.518C187.357 207.288 187.197 207.323 187.05 207.39C186.904 207.457 186.773 207.554 186.669 207.676C186.564 207.799 186.487 207.942 186.444 208.096C186.4 208.251 186.392 208.413 186.418 208.571L189.559 228.57C189.607 228.827 189.744 229.059 189.948 229.225C190.151 229.39 190.407 229.479 190.67 229.475Z" fill="black"/>
<path d="M205.252 221.81C206.567 221.571 207.421 220.226 207.159 218.806C206.897 217.386 205.619 216.428 204.304 216.668C202.988 216.907 202.134 218.252 202.396 219.672C202.658 221.093 203.936 222.05 205.252 221.81Z" fill="white"/>
<path d="M228.348 223.63L228.538 227.994C228.538 227.994 227.297 228.272 227.277 228.262C226.494 228.506 225.69 228.683 224.876 228.789C223.904 229.052 222.874 229.014 221.925 228.68C220.604 228.183 220.864 227.248 220.864 227.248C220.58 227.103 220.362 226.856 220.254 226.557C220.147 226.258 220.157 225.929 220.284 225.638C219.284 225.33 219.153 223.938 219.153 223.938C216.972 223.62 218.073 222.477 218.533 222.368C219.635 222.154 220.753 222.027 221.875 221.99C222.91 222.024 223.946 221.991 224.976 221.891C225.827 221.781 226.247 222.239 227.237 222.885C227.632 223.095 228.004 223.345 228.348 223.63Z" fill="#FFCFC5"/>
<path d="M219.153 223.938C219.153 223.938 220.354 223.938 221.875 223.987C222.787 224.03 223.701 223.99 224.606 223.869" stroke="#2E2C3F" stroke-width="0.23" stroke-miterlimit="10"/>
<path d="M220.284 225.638C221.494 225.894 222.729 226.017 223.966 226.005" stroke="#2E2C3F" stroke-width="0.23" stroke-miterlimit="10"/>
<path d="M220.864 227.248C221.859 227.595 222.895 227.812 223.946 227.894" stroke="#2E2C3F" stroke-width="0.23" stroke-miterlimit="10"/>
<path d="M245.756 207.656C245.756 207.656 245.386 226.721 240.994 228.361C236.602 230.001 227.557 227.944 227.557 227.944L227.828 223.381C230.582 222.625 233.397 222.11 236.242 221.841C236.402 221.841 236.902 206.722 236.902 206.722L245.756 207.656Z" fill="#FFCFC5"/>
<path d="M236.242 221.841C238.118 221.787 239.991 222.042 241.784 222.596" stroke="black" stroke-width="0.23" stroke-miterlimit="10"/>
<path d="M242.074 191.077C242.074 191.077 247.487 193.731 246.697 208.054C243.371 208.758 239.917 208.566 236.692 207.498L236.772 197.409L242.074 191.077Z" fill="#FB9100"/>
<path d="M236.862 207.547L237.382 201.265" stroke="black" stroke-width="0.23" stroke-miterlimit="10"/>
<path d="M237.562 206.315C237.562 206.315 242.965 207.806 245.876 206.315" stroke="black" stroke-width="0.23" stroke-miterlimit="10"/>
<path d="M193.681 131.07H249.428C250.804 131.07 251.919 129.962 251.919 128.595V92.7722C251.919 91.4052 250.804 90.2971 249.428 90.2971H193.681C192.305 90.2971 191.19 91.4052 191.19 92.7722V128.595C191.19 129.962 192.305 131.07 193.681 131.07Z" fill="white" stroke="#2E2C3F" stroke-width="0.62" stroke-miterlimit="10"/>
<path d="M234.351 123.367H239.813V110.674H234.351V123.367Z" fill="#C66A05"/>
<path d="M223.996 123.357H229.458V100.595H223.996V123.357Z" fill="#2E344D"/>
<path d="M213.651 123.367H219.113V98.0201H213.651V123.367Z" fill="#FB9100"/>
<path d="M203.296 123.357H208.758V106.986H203.296V123.357Z" fill="#1B5A96"/>
<path d="M370.696 291.479C370.352 291.862 369.935 292.172 369.469 292.394C369.004 292.615 368.498 292.742 367.983 292.768C367.467 292.794 366.952 292.718 366.466 292.544C365.98 292.371 365.534 292.103 365.153 291.757L342.072 269.343L338.52 265.874L340.521 263.608L342.472 261.441L343.072 261.978L346.074 264.612L370.365 286.022C370.749 286.358 371.062 286.766 371.286 287.223C371.51 287.679 371.641 288.175 371.672 288.682C371.702 289.19 371.632 289.698 371.465 290.178C371.297 290.657 371.036 291.1 370.696 291.479Z" fill="black"/>
<path d="M346.034 264.582C345.19 266.519 343.801 268.173 342.032 269.343L338.52 265.874L340.521 263.608C341.782 262.822 342.852 262.137 342.912 262.097L343.072 261.978L346.034 264.582Z" fill="#2E2C3F"/>
<path d="M342.522 265.427C346.149 261.381 348.488 256.358 349.241 250.991C349.994 245.625 349.129 240.158 346.755 235.28C344.381 230.402 340.604 226.334 335.902 223.589C331.2 220.844 325.785 219.545 320.34 219.858C314.896 220.171 309.667 222.081 305.315 225.346C300.963 228.611 297.684 233.085 295.891 238.202C294.099 243.319 293.874 248.849 295.245 254.094C296.616 259.338 299.521 264.06 303.594 267.664C309.054 272.496 316.224 274.975 323.524 274.555C330.825 274.136 337.658 270.852 342.522 265.427ZM307.335 263.439C304.1 260.569 301.794 256.811 300.708 252.639C299.622 248.467 299.805 244.069 301.233 240.001C302.662 235.932 305.272 232.376 308.734 229.78C312.196 227.185 316.355 225.667 320.685 225.419C325.015 225.17 329.322 226.202 333.061 228.385C336.801 230.567 339.806 233.802 341.696 237.68C343.587 241.558 344.278 245.906 343.682 250.174C343.087 254.442 341.231 258.439 338.35 261.66C336.436 263.811 334.113 265.566 331.515 266.822C328.916 268.079 326.093 268.813 323.208 268.982C320.323 269.151 317.433 268.752 314.704 267.807C311.975 266.863 309.46 265.392 307.305 263.479L307.335 263.439Z" fill="black"/>
<path d="M325.124 222.735C325.124 222.735 339.341 224.803 344.533 237.884" stroke="white" stroke-width="0.67" stroke-linecap="round" stroke-linejoin="round"/>
<path opacity="0.7" d="M321.902 269.005C334.02 269.005 343.843 259.246 343.843 247.207C343.843 235.168 334.02 225.409 321.902 225.409C309.785 225.409 299.962 235.168 299.962 247.207C299.962 259.246 309.785 269.005 321.902 269.005Z" fill="white"/>
<path d="M284.645 97.7219C284.645 102.592 276.841 112.84 275.77 112.84C274.7 112.84 266.896 102.592 266.896 97.7219C266.896 95.3836 267.831 93.141 269.495 91.4876C271.16 89.8342 273.417 88.9053 275.77 88.9053C278.124 88.9053 280.381 89.8342 282.045 91.4876C283.71 93.141 284.645 95.3836 284.645 97.7219Z" fill="#2E344D"/>
<path d="M275.77 101.211C277.71 101.211 279.282 99.6491 279.282 97.7223C279.282 95.7954 277.71 94.2334 275.77 94.2334C273.831 94.2334 272.259 95.7954 272.259 97.7223C272.259 99.6491 273.831 101.211 275.77 101.211Z" fill="white"/>
<path d="M208.298 154.439C208.298 157.908 202.726 165.214 201.965 165.214C201.205 165.214 195.642 157.908 195.642 154.439C195.608 153.592 195.747 152.748 196.05 151.955C196.352 151.163 196.813 150.44 197.404 149.829C197.995 149.218 198.704 148.732 199.489 148.4C200.273 148.068 201.117 147.897 201.97 147.897C202.823 147.897 203.667 148.068 204.452 148.4C205.236 148.732 205.945 149.218 206.536 149.829C207.127 150.44 207.588 151.163 207.891 151.955C208.194 152.748 208.332 153.592 208.298 154.439Z" fill="#1B5A96"/>
<path d="M201.975 156.924C203.357 156.924 204.476 155.811 204.476 154.439C204.476 153.066 203.357 151.954 201.975 151.954C200.594 151.954 199.474 153.066 199.474 154.439C199.474 155.811 200.594 156.924 201.975 156.924Z" fill="white"/>
<path d="M294.749 146.517C294.749 149.996 289.187 157.302 288.426 157.302C287.666 157.302 282.103 149.996 282.103 146.517C282.103 144.851 282.77 143.253 283.955 142.075C285.141 140.897 286.749 140.235 288.426 140.235C290.103 140.235 291.712 140.897 292.897 142.075C294.083 143.253 294.749 144.851 294.749 146.517Z" fill="#FB9100"/>
<path d="M288.426 149.002C289.808 149.002 290.928 147.889 290.928 146.517C290.928 145.144 289.808 144.032 288.426 144.032C287.045 144.032 285.925 145.144 285.925 146.517C285.925 147.889 287.045 149.002 288.426 149.002Z" fill="white"/>
<path d="M203.656 165.233C203.656 165.233 265.175 172.807 287.696 157.659C287.696 157.659 269.507 143.743 275.57 114.62" stroke="#2E2C3F" stroke-width="0.5" stroke-miterlimit="10" stroke-dasharray="4.01 3.34"/>
<path d="M174.942 237.049H173.522C173.272 235.967 172.853 234.931 172.281 233.977L173.282 232.983C173.447 232.801 173.539 232.563 173.539 232.317C173.539 232.071 173.447 231.834 173.282 231.651L170.99 229.375C170.903 229.288 170.799 229.22 170.685 229.172C170.571 229.125 170.449 229.101 170.325 229.101C170.202 229.101 170.079 229.125 169.965 229.172C169.851 229.22 169.747 229.288 169.66 229.375L168.659 230.369C167.711 229.774 166.675 229.331 165.588 229.057V227.596C165.596 227.468 165.578 227.34 165.534 227.22C165.491 227.1 165.423 226.99 165.335 226.896C165.246 226.803 165.14 226.729 165.022 226.678C164.904 226.628 164.776 226.602 164.647 226.602H161.436C161.179 226.615 160.938 226.725 160.761 226.91C160.584 227.095 160.485 227.341 160.485 227.596V229.007C159.395 229.251 158.351 229.667 157.394 230.24L156.343 229.196C156.16 229.032 155.921 228.94 155.673 228.94C155.426 228.94 155.187 229.032 155.003 229.196L152.712 231.473C152.546 231.655 152.454 231.892 152.454 232.139C152.454 232.385 152.546 232.622 152.712 232.804L153.712 233.798C153.112 234.735 152.67 235.762 152.402 236.84H150.931C150.683 236.852 150.448 236.955 150.272 237.13C150.097 237.305 149.993 237.538 149.98 237.784V241.025C149.98 241.148 150.005 241.271 150.053 241.385C150.101 241.499 150.171 241.602 150.259 241.689C150.348 241.776 150.453 241.844 150.568 241.891C150.683 241.937 150.807 241.96 150.931 241.959H152.352C152.597 243.045 153.016 244.086 153.592 245.04L152.592 246.084C152.504 246.171 152.435 246.274 152.388 246.387C152.34 246.501 152.316 246.622 152.316 246.745C152.316 246.868 152.34 246.989 152.388 247.103C152.435 247.216 152.504 247.319 152.592 247.406L154.883 249.682C155.067 249.847 155.305 249.938 155.553 249.938C155.801 249.938 156.04 249.847 156.223 249.682L157.224 248.688C158.169 249.28 159.202 249.72 160.285 249.99V251.462C160.298 251.708 160.402 251.941 160.577 252.116C160.753 252.29 160.988 252.394 161.236 252.406H164.437C164.686 252.394 164.92 252.29 165.096 252.116C165.272 251.941 165.376 251.708 165.388 251.462V249.971C166.461 249.731 167.49 249.329 168.439 248.778L169.49 249.772C169.674 249.937 169.912 250.028 170.16 250.028C170.408 250.028 170.647 249.937 170.83 249.772L173.121 247.496C173.287 247.313 173.379 247.076 173.379 246.83C173.379 246.584 173.287 246.346 173.121 246.164L172.121 245.17C172.718 244.227 173.164 243.197 173.442 242.118H174.912C175.159 242.106 175.392 242.004 175.568 241.832C175.743 241.659 175.848 241.429 175.863 241.184V238.043C175.864 237.792 175.769 237.551 175.599 237.367C175.428 237.182 175.194 237.069 174.942 237.049ZM162.937 245.468C161.749 245.468 160.589 245.118 159.602 244.463C158.614 243.807 157.845 242.876 157.391 241.786C156.936 240.696 156.818 239.497 157.049 238.34C157.281 237.184 157.852 236.121 158.692 235.287C159.531 234.453 160.601 233.885 161.766 233.655C162.93 233.425 164.137 233.543 165.234 233.994C166.331 234.445 167.268 235.21 167.928 236.191C168.587 237.171 168.939 238.324 168.939 239.504C168.941 240.288 168.787 241.065 168.485 241.789C168.184 242.514 167.742 243.173 167.185 243.727C166.627 244.282 165.965 244.723 165.236 245.023C164.507 245.323 163.726 245.478 162.937 245.478V245.468Z" fill="#1B5A96"/>
<path d="M162.897 205.708H162.106C161.965 205.105 161.729 204.528 161.406 203.999L161.996 203.422C162.093 203.322 162.148 203.188 162.148 203.049C162.148 202.91 162.093 202.777 161.996 202.677L160.716 201.414C160.668 201.364 160.61 201.325 160.547 201.297C160.483 201.27 160.415 201.256 160.345 201.256C160.276 201.256 160.208 201.27 160.144 201.297C160.08 201.325 160.023 201.364 159.975 201.414L159.415 201.971C158.888 201.639 158.31 201.394 157.704 201.245V200.42C157.704 200.352 157.69 200.284 157.664 200.22C157.637 200.157 157.598 200.099 157.548 200.051C157.499 200.003 157.44 199.965 157.376 199.94C157.312 199.914 157.243 199.902 157.174 199.903H155.373C155.304 199.902 155.235 199.914 155.171 199.94C155.107 199.965 155.048 200.003 154.999 200.051C154.949 200.099 154.91 200.157 154.883 200.22C154.857 200.284 154.843 200.352 154.843 200.42V201.206C154.238 201.346 153.657 201.578 153.122 201.891L152.542 201.315C152.441 201.218 152.306 201.164 152.166 201.164C152.027 201.164 151.892 201.218 151.791 201.315L150.521 202.587C150.47 202.635 150.43 202.692 150.403 202.755C150.376 202.818 150.362 202.886 150.362 202.955C150.362 203.024 150.376 203.092 150.403 203.155C150.43 203.218 150.47 203.275 150.521 203.323L151.081 203.879C150.747 204.403 150.5 204.977 150.351 205.579H149.52C149.451 205.579 149.383 205.593 149.319 205.619C149.255 205.646 149.197 205.685 149.149 205.734C149.1 205.783 149.062 205.841 149.037 205.905C149.011 205.969 148.999 206.037 149 206.106V207.895C148.999 207.964 149.011 208.032 149.037 208.096C149.062 208.16 149.1 208.218 149.149 208.267C149.197 208.316 149.255 208.355 149.319 208.382C149.383 208.408 149.451 208.422 149.52 208.422H150.321C150.453 209.026 150.687 209.604 151.011 210.131L150.421 210.708C150.323 210.808 150.269 210.942 150.269 211.081C150.269 211.22 150.323 211.353 150.421 211.453L151.701 212.716C151.749 212.766 151.806 212.806 151.87 212.833C151.934 212.86 152.002 212.874 152.071 212.874C152.141 212.874 152.209 212.86 152.273 212.833C152.337 212.806 152.394 212.766 152.442 212.716L153.002 212.159C153.529 212.491 154.107 212.736 154.713 212.885V213.7C154.713 213.84 154.769 213.974 154.868 214.072C154.967 214.171 155.102 214.227 155.243 214.227H157.044C157.184 214.227 157.319 214.171 157.419 214.072C157.518 213.974 157.574 213.84 157.574 213.7V212.915C158.181 212.778 158.762 212.547 159.295 212.229L159.875 212.805C159.924 212.854 159.983 212.893 160.047 212.92C160.112 212.946 160.181 212.96 160.25 212.96C160.32 212.96 160.389 212.946 160.453 212.92C160.518 212.893 160.576 212.854 160.626 212.805L161.896 211.543C161.946 211.496 161.986 211.439 162.014 211.375C162.041 211.312 162.055 211.244 162.055 211.175C162.055 211.106 162.041 211.038 162.014 210.975C161.986 210.912 161.946 210.855 161.896 210.807L161.336 210.241C161.669 209.719 161.919 209.149 162.076 208.551H162.897C162.966 208.551 163.034 208.537 163.098 208.511C163.162 208.484 163.22 208.445 163.268 208.396C163.316 208.347 163.355 208.289 163.38 208.225C163.406 208.161 163.418 208.093 163.417 208.024V206.235C163.418 206.166 163.406 206.098 163.38 206.034C163.355 205.97 163.316 205.912 163.268 205.863C163.22 205.814 163.162 205.775 163.098 205.749C163.034 205.722 162.966 205.708 162.897 205.708ZM156.203 210.4C155.539 210.4 154.889 210.204 154.336 209.837C153.783 209.47 153.352 208.948 153.098 208.338C152.843 207.728 152.777 207.056 152.906 206.409C153.036 205.761 153.356 205.166 153.826 204.699C154.297 204.231 154.896 203.913 155.548 203.784C156.2 203.656 156.876 203.722 157.49 203.975C158.104 204.227 158.629 204.655 158.998 205.205C159.368 205.754 159.565 206.4 159.565 207.06C159.566 207.499 159.48 207.934 159.312 208.34C159.143 208.746 158.896 209.114 158.583 209.425C158.271 209.735 157.9 209.981 157.491 210.148C157.083 210.316 156.645 210.401 156.203 210.4Z" fill="#FB9100"/>
</g>
<defs>
<clipPath id="clip0_137_155">
<rect width="273" height="261" fill="white" transform="translate(149 32)"/>
</clipPath>
</defs>
</svg>
