<svg width="570" height="324" viewBox="0 0 570 324" fill="none" xmlns="http://www.w3.org/2000/svg">
<g clip-path="url(#clip0_47_3)">
<rect width="570" height="324" fill="#FFF6EB"/>
<g clip-path="url(#clip1_47_3)">
<path d="M252.87 286.53H249.07C248.902 286.527 248.742 286.459 248.624 286.339C248.506 286.219 248.44 286.058 248.44 285.89C248.44 285.723 248.506 285.563 248.624 285.445C248.743 285.326 248.903 285.26 249.07 285.26H252.87C253.038 285.26 253.199 285.326 253.319 285.444C253.439 285.562 253.507 285.722 253.51 285.89C253.51 286.06 253.443 286.223 253.322 286.343C253.202 286.463 253.04 286.53 252.87 286.53Z" fill="#030047"/>
<path d="M241.2 286.53H233.33C233.162 286.527 233.002 286.459 232.884 286.339C232.766 286.219 232.7 286.058 232.7 285.89C232.7 285.723 232.766 285.563 232.885 285.444C233.003 285.326 233.163 285.26 233.33 285.26H241.2C241.368 285.26 241.529 285.326 241.649 285.444C241.769 285.562 241.837 285.722 241.84 285.89C241.84 286.06 241.773 286.222 241.653 286.342C241.533 286.462 241.37 286.53 241.2 286.53ZM225.46 286.53H217.56C217.392 286.522 217.234 286.449 217.12 286.325C217.005 286.201 216.945 286.038 216.95 285.87C216.96 285.703 217.035 285.546 217.158 285.432C217.281 285.319 217.443 285.257 217.61 285.26H225.45C225.534 285.259 225.617 285.274 225.694 285.305C225.772 285.336 225.842 285.382 225.902 285.441C225.961 285.5 226.009 285.569 226.041 285.646C226.073 285.724 226.09 285.806 226.09 285.89C226.09 286.058 226.024 286.219 225.906 286.339C225.788 286.459 225.628 286.527 225.46 286.53ZM210.24 284.06C210.112 284.059 209.987 284.021 209.88 283.95C207.611 282.37 205.847 280.169 204.8 277.61C204.737 277.453 204.739 277.278 204.804 277.123C204.87 276.967 204.994 276.844 205.15 276.78C205.227 276.749 205.309 276.734 205.392 276.734C205.475 276.735 205.556 276.752 205.633 276.785C205.709 276.817 205.778 276.865 205.836 276.924C205.894 276.983 205.939 277.053 205.97 277.13C206.929 279.46 208.536 281.466 210.6 282.91C210.669 282.957 210.727 283.017 210.772 283.087C210.817 283.157 210.848 283.235 210.863 283.317C210.878 283.398 210.877 283.482 210.859 283.564C210.841 283.645 210.808 283.722 210.76 283.79C210.702 283.874 210.625 283.943 210.534 283.99C210.443 284.037 210.342 284.061 210.24 284.06ZM204.37 270.27C204.202 270.27 204.041 270.204 203.921 270.086C203.801 269.968 203.733 269.808 203.73 269.64V261.77C203.73 261.6 203.797 261.437 203.917 261.317C204.037 261.197 204.2 261.13 204.37 261.13C204.538 261.133 204.698 261.201 204.816 261.321C204.934 261.441 205 261.602 205 261.77V269.64C205 269.807 204.934 269.967 204.815 270.085C204.697 270.204 204.537 270.27 204.37 270.27ZM204.37 254.53C204.202 254.53 204.041 254.464 203.921 254.346C203.801 254.228 203.733 254.068 203.73 253.9V246.03C203.733 245.862 203.801 245.702 203.921 245.584C204.041 245.466 204.202 245.4 204.37 245.4C204.537 245.4 204.697 245.466 204.815 245.584C204.934 245.703 205 245.863 205 246.03V253.9C205 254.067 204.934 254.227 204.815 254.345C204.697 254.464 204.537 254.53 204.37 254.53ZM204.37 238.8C204.2 238.8 204.037 238.732 203.917 238.612C203.797 238.492 203.73 238.33 203.73 238.16V230.29C203.733 230.122 203.801 229.962 203.921 229.844C204.041 229.726 204.202 229.66 204.37 229.66C204.537 229.66 204.697 229.726 204.815 229.844C204.934 229.963 205 230.123 205 230.29V238.16C205 238.328 204.934 238.489 204.816 238.609C204.698 238.729 204.538 238.797 204.37 238.8ZM204.37 223.06C204.202 223.06 204.041 222.994 203.921 222.876C203.801 222.758 203.733 222.598 203.73 222.43V214.56C203.73 214.39 203.797 214.227 203.917 214.107C204.037 213.987 204.2 213.92 204.37 213.92C204.538 213.923 204.698 213.991 204.816 214.111C204.934 214.231 205 214.392 205 214.56V222.43C205 222.597 204.934 222.757 204.815 222.875C204.697 222.994 204.537 223.06 204.37 223.06Z" fill="black"/>
<path d="M204.37 207.31C204.202 207.31 204.041 207.244 203.921 207.126C203.801 207.008 203.733 206.848 203.73 206.68V202.87C203.733 202.702 203.801 202.542 203.921 202.424C204.041 202.306 204.202 202.24 204.37 202.24C204.537 202.24 204.697 202.306 204.815 202.425C204.934 202.543 205 202.703 205 202.87V206.68C205 206.847 204.934 207.007 204.815 207.125C204.697 207.244 204.537 207.31 204.37 207.31Z" fill="black"/>
<path d="M278.38 230.34H133.01C130.358 230.34 127.814 229.286 125.939 227.411C124.064 225.536 123.01 222.992 123.01 220.34V64.6499C123.01 61.9977 124.064 59.4542 125.939 57.5788C127.814 55.7035 130.358 54.6499 133.01 54.6499H278.38C281.032 54.6499 283.576 55.7035 285.451 57.5788C287.326 59.4542 288.38 61.9977 288.38 64.6499V220.33C288.381 221.644 288.124 222.945 287.622 224.16C287.12 225.374 286.383 226.478 285.455 227.407C284.526 228.337 283.423 229.075 282.209 229.578C280.995 230.081 279.694 230.34 278.38 230.34ZM133.01 55.9099C130.693 55.9125 128.471 56.8342 126.833 58.4727C125.194 60.1112 124.273 62.3327 124.27 64.6499V220.33C124.273 222.647 125.194 224.869 126.833 226.507C128.471 228.146 130.693 229.067 133.01 229.07H278.38C280.697 229.067 282.919 228.146 284.557 226.507C286.196 224.869 287.117 222.647 287.12 220.33V64.6499C287.117 62.3327 286.196 60.1112 284.557 58.4727C282.919 56.8342 280.697 55.9125 278.38 55.9099H133.01Z" fill="black"/>
<path d="M240.01 88.8501H199V106.64H240.01V88.8501Z" fill="#FB9100"/>
<path d="M270.89 116.08H199C198.832 116.077 198.672 116.009 198.554 115.889C198.436 115.769 198.37 115.608 198.37 115.44C198.37 115.273 198.436 115.113 198.555 114.995C198.673 114.876 198.833 114.81 199 114.81H270.89C271.057 114.81 271.217 114.876 271.336 114.995C271.454 115.113 271.52 115.273 271.52 115.44C271.52 115.608 271.454 115.769 271.336 115.889C271.218 116.009 271.058 116.077 270.89 116.08Z" fill="black"/>
<path d="M270.89 127.06H199C198.832 127.057 198.672 126.989 198.554 126.869C198.436 126.749 198.37 126.588 198.37 126.42C198.37 126.253 198.436 126.093 198.555 125.975C198.673 125.856 198.833 125.79 199 125.79H270.89C271.057 125.79 271.217 125.856 271.336 125.975C271.454 126.093 271.52 126.253 271.52 126.42C271.52 126.588 271.454 126.749 271.336 126.869C271.218 126.989 271.058 127.057 270.89 127.06Z" fill="black"/>
<path d="M270.89 138.03H199C198.833 138.03 198.673 137.964 198.555 137.846C198.436 137.727 198.37 137.567 198.37 137.4C198.37 137.233 198.436 137.073 198.555 136.955C198.673 136.836 198.833 136.77 199 136.77H270.89C271.057 136.77 271.217 136.836 271.336 136.955C271.454 137.073 271.52 137.233 271.52 137.4C271.52 137.567 271.454 137.727 271.336 137.846C271.217 137.964 271.057 138.03 270.89 138.03Z" fill="black"/>
<path d="M270.89 149.01H138.89C138.723 149.01 138.563 148.944 138.445 148.825C138.326 148.707 138.26 148.547 138.26 148.38C138.26 148.213 138.326 148.053 138.445 147.935C138.563 147.816 138.723 147.75 138.89 147.75H270.89C271.057 147.75 271.217 147.816 271.335 147.935C271.454 148.053 271.52 148.213 271.52 148.38C271.52 148.547 271.454 148.707 271.335 148.825C271.217 148.944 271.057 149.01 270.89 149.01Z" fill="black"/>
<path d="M270.89 159.99H138.89C138.723 159.99 138.563 159.924 138.445 159.805C138.326 159.687 138.26 159.527 138.26 159.36C138.26 159.193 138.326 159.033 138.445 158.915C138.563 158.796 138.723 158.73 138.89 158.73H270.89C271.057 158.73 271.217 158.796 271.335 158.915C271.454 159.033 271.52 159.193 271.52 159.36C271.52 159.527 271.454 159.687 271.335 159.805C271.217 159.924 271.057 159.99 270.89 159.99Z" fill="black"/>
<path d="M270.89 170.97H138.89C138.807 170.97 138.725 170.954 138.649 170.922C138.572 170.89 138.503 170.844 138.445 170.785C138.386 170.727 138.34 170.657 138.308 170.581C138.276 170.505 138.26 170.423 138.26 170.34C138.26 170.257 138.276 170.175 138.308 170.099C138.34 170.022 138.386 169.953 138.445 169.894C138.503 169.836 138.572 169.79 138.649 169.758C138.725 169.726 138.807 169.71 138.89 169.71H270.89C271.057 169.71 271.217 169.776 271.335 169.894C271.454 170.013 271.52 170.173 271.52 170.34C271.52 170.507 271.454 170.667 271.335 170.785C271.217 170.904 271.057 170.97 270.89 170.97Z" fill="black"/>
<path d="M270.89 181.95H138.89C138.722 181.95 138.561 181.884 138.441 181.766C138.321 181.648 138.253 181.488 138.25 181.32C138.25 181.15 138.317 180.987 138.437 180.867C138.557 180.747 138.72 180.68 138.89 180.68H270.89C271.058 180.683 271.218 180.751 271.336 180.871C271.454 180.991 271.52 181.152 271.52 181.32C271.52 181.487 271.454 181.647 271.335 181.765C271.217 181.884 271.057 181.95 270.89 181.95Z" fill="black"/>
<path d="M270.89 192.93H138.89C138.722 192.93 138.561 192.864 138.441 192.746C138.321 192.628 138.253 192.468 138.25 192.3C138.25 192.13 138.317 191.967 138.437 191.847C138.557 191.727 138.72 191.66 138.89 191.66H270.89C271.058 191.663 271.218 191.731 271.336 191.851C271.454 191.971 271.52 192.132 271.52 192.3C271.52 192.467 271.454 192.627 271.335 192.745C271.217 192.864 271.057 192.93 270.89 192.93Z" fill="black"/>
<path d="M270.89 203.91H138.89C138.722 203.91 138.561 203.844 138.441 203.726C138.321 203.608 138.253 203.448 138.25 203.28C138.25 203.11 138.317 202.947 138.437 202.827C138.557 202.707 138.72 202.64 138.89 202.64H270.89C271.058 202.643 271.218 202.711 271.336 202.831C271.454 202.951 271.52 203.112 271.52 203.28C271.52 203.447 271.454 203.607 271.335 203.725C271.217 203.844 271.057 203.91 270.89 203.91Z" fill="black"/>
<path d="M270.89 214.89H138.89C138.722 214.89 138.561 214.824 138.441 214.706C138.321 214.588 138.253 214.428 138.25 214.26C138.25 214.09 138.317 213.928 138.437 213.808C138.557 213.688 138.72 213.62 138.89 213.62H270.89C271.058 213.623 271.218 213.691 271.336 213.811C271.454 213.931 271.52 214.092 271.52 214.26C271.52 214.427 271.454 214.587 271.335 214.706C271.217 214.824 271.057 214.89 270.89 214.89Z" fill="black"/>
<path d="M287.75 72.43V64.65C287.75 62.164 286.763 59.7797 285.006 58.0209C283.249 56.2621 280.866 55.2727 278.38 55.27H133.01C130.522 55.27 128.136 56.2583 126.377 58.0174C124.618 59.7764 123.63 62.1623 123.63 64.65V72.43H287.75Z" fill="#E6F3FC"/>
<path d="M287.75 73.0399H123.63C123.462 73.0373 123.302 72.9687 123.184 72.849C123.066 72.7292 123 72.5679 123 72.3999V64.6499C123 61.9977 124.054 59.4542 125.929 57.5788C127.804 55.7035 130.348 54.6499 133 54.6499H278.38C281.032 54.6499 283.576 55.7035 285.451 57.5788C287.326 59.4542 288.38 61.9977 288.38 64.6499V72.4299C288.372 72.5927 288.303 72.7464 288.186 72.8598C288.069 72.9731 287.913 73.0375 287.75 73.0399ZM124.27 71.7699H287.12V64.6499C287.117 62.3327 286.196 60.1112 284.557 58.4727C282.919 56.8342 280.697 55.9125 278.38 55.9099H133.01C130.693 55.9125 128.471 56.8342 126.833 58.4727C125.194 60.1112 124.273 62.3327 124.27 64.6499V71.7699Z" fill="black"/>
<path d="M131.76 64.2899C131.758 64.7611 131.896 65.2222 132.156 65.6149C132.417 66.0076 132.788 66.3142 133.222 66.4959C133.657 66.6775 134.136 66.7261 134.598 66.6354C135.061 66.5447 135.486 66.3188 135.819 65.9864C136.153 65.6539 136.381 65.2299 136.474 64.7679C136.566 64.306 136.52 63.8269 136.34 63.3915C136.16 62.956 135.855 62.5837 135.463 62.3217C135.072 62.0598 134.611 61.9199 134.14 61.9199C133.511 61.9199 132.907 62.1693 132.461 62.6135C132.015 63.0576 131.763 63.6604 131.76 64.2899Z" fill="#1B5A96"/>
<path d="M138.82 64.2899C138.818 64.7615 138.956 65.223 139.217 65.6159C139.478 66.0089 139.849 66.3155 140.285 66.4968C140.72 66.6782 141.199 66.7262 141.662 66.6347C142.125 66.5432 142.55 66.3163 142.883 65.9828C143.216 65.6494 143.443 65.2244 143.535 64.7618C143.626 64.2992 143.578 63.8198 143.397 63.3845C143.216 62.9492 142.909 62.5776 142.516 62.3169C142.123 62.0561 141.662 61.918 141.19 61.9199C140.562 61.9199 139.959 62.1696 139.514 62.6141C139.07 63.0586 138.82 63.6614 138.82 64.2899Z" fill="#FB9100"/>
<path d="M145.87 64.2899C145.868 64.7611 146.006 65.2222 146.266 65.6149C146.526 66.0076 146.897 66.3142 147.332 66.4959C147.767 66.6775 148.246 66.7261 148.708 66.6354C149.17 66.5447 149.595 66.3188 149.929 65.9864C150.263 65.6539 150.491 65.2299 150.583 64.7679C150.676 64.306 150.63 63.8269 150.45 63.3915C150.27 62.956 149.965 62.5837 149.573 62.3217C149.182 62.0598 148.721 61.9199 148.25 61.9199C147.62 61.9199 147.017 62.1693 146.571 62.6135C146.124 63.0576 145.873 63.6604 145.87 64.2899Z" fill="#1B5A96"/>
<path d="M329.15 212.43L305.33 260.55C303.752 263.742 301.363 266.463 298.403 268.441C295.442 270.419 292.014 271.584 288.461 271.82C284.908 272.056 281.356 271.354 278.16 269.785C274.964 268.216 272.236 265.835 270.25 262.88L237.5 196.94L218.14 167.94C217.611 167.114 217.365 166.139 217.439 165.161C217.513 164.184 217.903 163.257 218.55 162.52C218.96 162.102 219.461 161.785 220.014 161.593C220.567 161.401 221.157 161.339 221.738 161.413C222.319 161.487 222.875 161.693 223.363 162.017C223.85 162.341 224.257 162.773 224.55 163.28C223.35 161.33 220.84 157.28 224.31 155.28C224.753 154.995 225.249 154.8 225.768 154.707C226.287 154.614 226.819 154.625 227.334 154.738C227.848 154.851 228.336 155.065 228.768 155.368C229.199 155.67 229.567 156.055 229.85 156.5L227.61 152.91C227.254 152.339 227.034 151.694 226.966 151.024C226.898 150.355 226.985 149.678 227.22 149.048C227.455 148.417 227.831 147.849 228.32 147.386C228.809 146.924 229.397 146.579 230.04 146.38C230.862 146.163 231.732 146.222 232.518 146.547C233.304 146.872 233.961 147.446 234.39 148.18L236.31 151.25C236.053 150.648 235.931 149.997 235.952 149.343C235.973 148.689 236.136 148.047 236.43 147.463C236.724 146.878 237.142 146.365 237.655 145.959C238.168 145.552 238.764 145.263 239.4 145.11C240.207 144.952 241.044 145.047 241.795 145.381C242.547 145.716 243.177 146.274 243.6 146.98L257.56 169.25L261.32 163.09C261.917 162.117 262.785 161.34 263.819 160.855C264.852 160.369 266.004 160.197 267.134 160.358C268.264 160.52 269.322 161.009 270.178 161.764C271.034 162.519 271.65 163.509 271.95 164.61C272.343 166.023 272.204 167.532 271.56 168.85L268.26 175.52C266.916 178.242 266.62 181.364 267.43 184.29L284.25 222.86L295.77 209.11L329.15 212.43Z" fill="#FFCFC5"/>
<path d="M287.11 272.5C283.675 272.505 280.292 271.662 277.26 270.047C274.229 268.431 271.642 266.094 269.73 263.24L236.93 197.24L217.62 168.33C217.004 167.387 216.718 166.267 216.805 165.144C216.891 164.02 217.347 162.958 218.1 162.12C218.564 161.63 219.135 161.254 219.768 161.022C220.401 160.789 221.079 160.707 221.75 160.78C222.042 160.81 222.33 160.871 222.61 160.96C222.034 159.793 221.848 158.471 222.08 157.19C222.225 156.664 222.477 156.174 222.822 155.75C223.166 155.327 223.594 154.979 224.08 154.73C225.179 154.07 226.492 153.865 227.74 154.16L227.17 153.25C226.758 152.577 226.507 151.819 226.435 151.033C226.364 150.247 226.475 149.456 226.76 148.72C227.025 148.015 227.452 147.382 228.006 146.871C228.56 146.36 229.226 145.987 229.95 145.78C230.905 145.516 231.921 145.576 232.838 145.95C233.756 146.325 234.523 146.993 235.02 147.85C235.016 147.877 235.016 147.904 235.02 147.93L235.45 148.62C235.539 148.105 235.704 147.606 235.94 147.14C236.274 146.482 236.749 145.905 237.331 145.452C237.914 144.999 238.59 144.681 239.31 144.52C240.23 144.334 241.185 144.432 242.048 144.802C242.911 145.171 243.641 145.795 244.14 146.59L244.2 146.67L257.56 168.05L260.79 162.76C261.263 161.985 261.894 161.319 262.641 160.804C263.389 160.289 264.237 159.938 265.129 159.773C266.022 159.608 266.939 159.633 267.821 159.846C268.704 160.059 269.531 160.456 270.25 161.01C271.367 161.872 272.177 163.072 272.56 164.43C272.989 165.995 272.832 167.662 272.12 169.12L268.82 175.79C267.538 178.374 267.257 181.341 268.03 184.12L284.41 221.68L295.27 208.68C295.336 208.599 295.42 208.536 295.516 208.496C295.612 208.456 295.716 208.44 295.82 208.45L329.22 211.77C329.323 211.781 329.421 211.815 329.508 211.871C329.595 211.926 329.667 212.001 329.72 212.09C329.767 212.181 329.791 212.283 329.791 212.385C329.791 212.488 329.767 212.589 329.72 212.68L305.9 260.81C304.169 264.313 301.491 267.261 298.17 269.32C294.849 271.379 291.017 272.467 287.11 272.46V272.5ZM221.26 162.01C220.835 162.015 220.416 162.107 220.027 162.278C219.639 162.45 219.289 162.699 219 163.01C218.453 163.647 218.127 164.444 218.069 165.282C218.011 166.12 218.226 166.954 218.68 167.66L238.03 196.66L270.82 262.66C272.755 265.508 275.402 267.799 278.497 269.305C281.593 270.811 285.029 271.479 288.464 271.243C291.899 271.008 295.211 269.876 298.072 267.961C300.933 266.046 303.243 263.415 304.77 260.33L328.18 213.03L296.02 209.84L284.72 223.34C284.649 223.422 284.559 223.485 284.458 223.524C284.357 223.562 284.247 223.575 284.14 223.56C284.032 223.545 283.93 223.502 283.844 223.436C283.758 223.369 283.691 223.281 283.65 223.18L266.83 184.61C266.824 184.557 266.824 184.503 266.83 184.45C266 181.39 266.316 178.133 267.72 175.29L271.02 168.62C271.597 167.442 271.722 166.094 271.37 164.83C271.063 163.729 270.407 162.757 269.5 162.06C268.927 161.612 268.265 161.29 267.558 161.118C266.851 160.946 266.115 160.926 265.4 161.06C264.679 161.193 263.993 161.477 263.389 161.892C262.784 162.307 262.273 162.845 261.89 163.47L258.13 169.63C258.074 169.723 257.995 169.801 257.9 169.855C257.806 169.909 257.699 169.939 257.59 169.94C257.484 169.938 257.38 169.91 257.287 169.857C257.194 169.805 257.116 169.73 257.06 169.64L243.17 147.43L243.12 147.36C242.766 146.764 242.238 146.292 241.606 146.008C240.974 145.723 240.27 145.64 239.59 145.77C239.046 145.89 238.536 146.133 238.099 146.479C237.663 146.826 237.311 147.267 237.07 147.77C236.808 148.281 236.66 148.842 236.638 149.416C236.615 149.989 236.719 150.561 236.94 151.09C237.001 151.237 237.005 151.401 236.951 151.551C236.898 151.701 236.79 151.825 236.65 151.9C236.509 151.977 236.343 151.996 236.189 151.953C236.034 151.91 235.902 151.809 235.82 151.67L233.91 148.61V148.53C233.551 147.927 233.006 147.456 232.357 147.189C231.708 146.922 230.989 146.874 230.31 147.05C229.77 147.202 229.274 147.48 228.862 147.86C228.45 148.241 228.134 148.714 227.94 149.24C227.728 149.792 227.644 150.386 227.696 150.975C227.748 151.564 227.934 152.134 228.24 152.64L230.47 156.23C230.559 156.372 230.588 156.543 230.55 156.707C230.513 156.87 230.412 157.011 230.27 157.1C230.128 157.189 229.957 157.218 229.794 157.18C229.63 157.143 229.489 157.042 229.4 156.9C229.161 156.524 228.85 156.199 228.485 155.944C228.119 155.689 227.706 155.51 227.27 155.417C226.834 155.324 226.384 155.319 225.946 155.401C225.508 155.484 225.092 155.654 224.72 155.9C224.388 156.068 224.095 156.303 223.859 156.59C223.623 156.878 223.449 157.212 223.35 157.57C222.9 159.35 224.35 161.75 225.17 163.04C225.215 163.111 225.245 163.189 225.259 163.272C225.273 163.354 225.27 163.439 225.251 163.52C225.231 163.601 225.195 163.678 225.145 163.745C225.095 163.812 225.032 163.868 224.96 163.91C224.816 163.996 224.645 164.022 224.482 163.982C224.32 163.943 224.179 163.842 224.09 163.7C223.83 163.263 223.473 162.891 223.046 162.614C222.62 162.336 222.135 162.16 221.63 162.1C221.51 162.058 221.386 162.028 221.26 162.01Z" fill="black"/>
<path d="M235.36 165.93C235.252 165.929 235.146 165.901 235.052 165.848C234.958 165.796 234.878 165.721 234.82 165.63L229.35 156.82C229.264 156.675 229.238 156.502 229.277 156.338C229.316 156.173 229.418 156.031 229.56 155.94C229.704 155.854 229.875 155.828 230.038 155.868C230.2 155.907 230.341 156.008 230.43 156.15L235.9 164.96C235.987 165.103 236.014 165.273 235.977 165.436C235.939 165.598 235.84 165.74 235.7 165.83C235.599 165.896 235.481 165.931 235.36 165.93Z" fill="black"/>
<path d="M242.23 161.31C242.124 161.309 242.019 161.281 241.926 161.228C241.834 161.176 241.756 161.101 241.7 161.01L235.83 151.62C235.786 151.55 235.756 151.472 235.742 151.39C235.728 151.308 235.731 151.224 235.749 151.143C235.768 151.063 235.802 150.986 235.851 150.919C235.899 150.851 235.96 150.794 236.03 150.75C236.173 150.663 236.343 150.636 236.506 150.673C236.668 150.711 236.81 150.81 236.9 150.95L242.77 160.34C242.814 160.41 242.844 160.488 242.858 160.57C242.872 160.652 242.869 160.736 242.851 160.817C242.832 160.897 242.798 160.974 242.75 161.041C242.702 161.109 242.64 161.166 242.57 161.21C242.469 161.276 242.351 161.311 242.23 161.31Z" fill="black"/>
<path d="M228.62 170.43C228.512 170.429 228.406 170.401 228.312 170.348C228.218 170.296 228.138 170.221 228.08 170.13L222.7 161.43C222.614 161.285 222.587 161.112 222.627 160.947C222.666 160.783 222.767 160.641 222.91 160.55C222.981 160.506 223.059 160.477 223.142 160.464C223.224 160.451 223.308 160.454 223.389 160.474C223.47 160.493 223.546 160.529 223.613 160.578C223.68 160.627 223.737 160.689 223.78 160.76L229.16 169.48C229.246 169.625 229.272 169.798 229.233 169.963C229.194 170.127 229.092 170.269 228.95 170.36C228.848 170.413 228.734 170.437 228.62 170.43Z" fill="black"/>
<path d="M257.56 169.26C257.56 169.26 251.26 171.86 250.9 178.38L257.56 169.26Z" fill="white"/>
<path d="M250.87 179.02C250.787 179.015 250.706 178.994 250.632 178.957C250.557 178.921 250.491 178.87 250.436 178.808C250.381 178.745 250.339 178.673 250.312 178.594C250.285 178.516 250.274 178.433 250.28 178.35C250.66 171.5 257.05 168.78 257.28 168.67C257.435 168.605 257.61 168.604 257.765 168.668C257.921 168.732 258.045 168.855 258.11 169.01C258.175 169.165 258.176 169.34 258.112 169.495C258.048 169.651 257.925 169.775 257.77 169.84C257.71 169.84 251.84 172.38 251.5 178.42C251.492 178.582 251.422 178.735 251.305 178.846C251.188 178.958 251.032 179.02 250.87 179.02Z" fill="black"/>
<path d="M288.35 230.34C288.239 230.34 288.131 230.312 288.034 230.257C287.938 230.203 287.857 230.125 287.8 230.03L283.69 223.21C283.621 223.066 283.608 222.902 283.653 222.75C283.698 222.597 283.799 222.467 283.935 222.384C284.071 222.302 284.233 222.273 284.39 222.304C284.546 222.334 284.685 222.422 284.78 222.55L288.89 229.38C288.934 229.451 288.963 229.529 288.976 229.612C288.989 229.694 288.986 229.778 288.966 229.859C288.947 229.94 288.912 230.016 288.862 230.083C288.813 230.15 288.751 230.207 288.68 230.25C288.58 230.308 288.466 230.339 288.35 230.34Z" fill="black"/>
<path d="M336.9 189.01H319.24C314.305 189.153 309.552 190.91 305.71 194.01L288.09 216.13L320 232.43L336.9 189.01Z" fill="#FB9100"/>
<path d="M320 233.04C319.899 233.037 319.801 233.013 319.71 232.97L287.8 216.7C287.717 216.656 287.645 216.595 287.588 216.521C287.531 216.447 287.491 216.361 287.47 216.27C287.451 216.178 287.452 216.084 287.473 215.992C287.494 215.901 287.533 215.815 287.59 215.74L305.21 193.63C305.258 193.555 305.322 193.491 305.396 193.443C305.471 193.394 305.555 193.361 305.643 193.347C305.731 193.332 305.821 193.336 305.907 193.358C305.993 193.381 306.074 193.421 306.144 193.476C306.214 193.531 306.271 193.6 306.313 193.679C306.354 193.758 306.379 193.844 306.385 193.933C306.392 194.022 306.379 194.111 306.349 194.195C306.319 194.279 306.271 194.356 306.21 194.42L289.07 215.92L319.67 231.52L331.04 203.78C331.104 203.625 331.226 203.501 331.381 203.437C331.536 203.372 331.71 203.371 331.865 203.435C332.02 203.499 332.144 203.621 332.208 203.776C332.273 203.931 332.274 204.105 332.21 204.26L320.56 232.64C320.526 232.722 320.476 232.796 320.412 232.858C320.349 232.92 320.273 232.969 320.19 233C320.128 233.021 320.065 233.035 320 233.04Z" fill="black"/>
<path d="M391.45 292.11L397.33 209.11C397.719 205.203 396.62 201.293 394.253 198.16C391.886 195.028 388.425 192.903 384.56 192.21C384.56 192.21 363.56 187.47 356.36 187.21C350.66 187 333.66 189.54 333.66 189.54C330.385 189.876 327.3 191.24 324.848 193.437C322.396 195.634 320.702 198.551 320.01 201.77L300.56 292.11H391.45Z" fill="#FB9100"/>
<path d="M300.56 292.74H300.43C300.266 292.704 300.124 292.605 300.032 292.465C299.94 292.325 299.907 292.154 299.94 291.99L318.06 207.72C318.098 207.556 318.199 207.413 318.341 207.321C318.483 207.23 318.655 207.197 318.82 207.23C318.984 207.268 319.126 207.369 319.216 207.512C319.306 207.654 319.336 207.826 319.3 207.99L301.18 292.25C301.148 292.39 301.069 292.515 300.956 292.604C300.844 292.693 300.704 292.741 300.56 292.74Z" fill="black"/>
<path d="M445.49 292.71H132.66C132.492 292.71 132.331 292.644 132.211 292.526C132.091 292.408 132.023 292.248 132.02 292.08C132.02 291.91 132.087 291.747 132.207 291.627C132.327 291.507 132.49 291.44 132.66 291.44H445.49C445.658 291.443 445.818 291.511 445.936 291.631C446.054 291.751 446.12 291.912 446.12 292.08C446.12 292.247 446.054 292.407 445.935 292.525C445.817 292.644 445.657 292.71 445.49 292.71Z" fill="black"/>
<path d="M425.22 286.48C422.284 289.58 418.494 291.739 414.331 292.684C410.167 293.629 405.817 293.318 401.83 291.79L362.52 276.79C357.77 278.53 347.45 278.05 347.45 278.05C343.89 279.73 339.64 277.94 339.64 277.94C335.4 280.16 332.88 277.67 332.88 277.67C328.63 277.57 326.95 275.51 326.95 275.51C322.56 278.85 319.75 275.72 319.75 275.72C316.1 278.6 313.59 277 313.18 274.18C312.77 271.36 322.63 256.72 329.11 253.31C335.59 249.9 354.84 251.93 354.84 251.93L362.33 252.61L392.74 258.61L379.67 225.79L408.61 216.43L429.28 262.82C431.021 266.723 431.564 271.054 430.841 275.266C430.119 279.478 428.162 283.381 425.22 286.48Z" fill="#FFCFC5"/>
<path d="M409.56 293.86C406.826 293.864 404.114 293.366 401.56 292.39L362.56 277.43C357.94 279 348.96 278.71 347.62 278.65C344.38 280.09 340.76 278.97 339.73 278.59C335.91 280.46 333.39 278.83 332.68 278.26C330.595 278.266 328.57 277.56 326.94 276.26C323.39 278.69 320.77 277.26 319.77 276.47C317.55 278.06 315.94 277.95 314.95 277.56C314.292 277.264 313.726 276.795 313.312 276.204C312.898 275.612 312.652 274.92 312.6 274.2C312.13 271.06 322.2 256.2 328.86 252.68C335.52 249.16 354.17 251.14 354.96 251.23L362.44 251.91L391.77 257.64L379.13 225.9C379.096 225.819 379.078 225.733 379.078 225.645C379.078 225.557 379.096 225.471 379.13 225.39C379.211 225.233 379.352 225.114 379.52 225.06L408.46 215.79C408.608 215.742 408.768 215.75 408.91 215.812C409.052 215.875 409.166 215.988 409.23 216.13L429.9 262.52C431.418 265.91 432.062 269.627 431.775 273.331C431.488 277.034 430.278 280.607 428.255 283.723C426.233 286.839 423.463 289.399 420.197 291.17C416.932 292.94 413.275 293.865 409.56 293.86ZM362.56 276.13C362.636 276.115 362.714 276.115 362.79 276.13L402.1 291.13C405.968 292.618 410.191 292.923 414.233 292.006C418.275 291.089 421.953 288.991 424.8 285.98C427.669 282.972 429.577 279.178 430.28 275.082C430.984 270.985 430.451 266.772 428.75 262.98L408.26 217.21L380.56 226.1L393.38 258.29C393.424 258.395 393.438 258.511 393.42 258.624C393.403 258.737 393.354 258.843 393.28 258.93C393.207 259.018 393.112 259.084 393.005 259.123C392.898 259.162 392.782 259.171 392.67 259.15L362.26 253.21L354.84 252.53C354.64 252.53 335.7 250.53 329.45 253.84C322.99 257.25 313.5 271.69 313.86 274.06C313.888 274.556 314.047 275.036 314.321 275.451C314.596 275.865 314.975 276.2 315.42 276.42C316.42 276.84 317.88 276.42 319.42 275.19C319.548 275.093 319.706 275.048 319.866 275.063C320.025 275.078 320.173 275.152 320.28 275.27C320.38 275.37 322.78 277.9 326.63 274.97C326.761 274.872 326.925 274.828 327.087 274.849C327.25 274.869 327.398 274.952 327.5 275.08C327.56 275.15 329.09 276.92 332.95 277.01C333.03 277.01 333.109 277.026 333.183 277.056C333.257 277.087 333.324 277.133 333.38 277.19C333.47 277.28 335.66 279.31 339.38 277.34C339.465 277.303 339.557 277.284 339.65 277.284C339.743 277.284 339.835 277.303 339.92 277.34C339.92 277.34 343.92 279 347.21 277.47C347.305 277.43 347.407 277.41 347.51 277.41C347.61 277.41 357.76 277.86 362.33 276.19C362.402 276.154 362.48 276.134 362.56 276.13Z" fill="black"/>
<path d="M319.75 276.32C319.614 276.319 319.482 276.277 319.37 276.2C319.236 276.098 319.147 275.948 319.122 275.782C319.098 275.615 319.14 275.446 319.24 275.31L323.48 269.5C323.587 269.395 323.728 269.332 323.877 269.322C324.027 269.312 324.175 269.355 324.295 269.444C324.416 269.533 324.5 269.662 324.534 269.808C324.568 269.954 324.549 270.107 324.48 270.24L320.23 276.06C320.175 276.136 320.103 276.2 320.02 276.245C319.936 276.29 319.844 276.315 319.75 276.32Z" fill="black"/>
<path d="M326.95 275.48C326.95 275.48 324.21 271.81 323.95 270C323.49 267.05 329.18 261.86 329.18 261.86" fill="#FFCFC5"/>
<path d="M326.95 276.11C326.852 276.109 326.755 276.086 326.667 276.043C326.579 275.999 326.501 275.937 326.44 275.86C326.15 275.47 323.6 272.01 323.3 270.1C322.79 266.9 328.11 261.94 328.72 261.39C328.779 261.33 328.849 261.283 328.926 261.25C329.003 261.218 329.086 261.201 329.17 261.201C329.254 261.201 329.337 261.218 329.414 261.25C329.491 261.283 329.561 261.33 329.62 261.39C329.739 261.51 329.805 261.672 329.805 261.84C329.805 262.009 329.739 262.17 329.62 262.29C328.1 263.67 324.25 267.72 324.62 269.86C324.83 271.22 326.79 274.07 327.53 275.06C327.63 275.196 327.672 275.365 327.648 275.532C327.623 275.698 327.534 275.849 327.4 275.95C327.275 276.058 327.115 276.115 326.95 276.11Z" fill="black"/>
<path d="M332.88 277.64C332.034 277.083 331.335 276.33 330.84 275.446C330.346 274.562 330.072 273.572 330.04 272.56C329.97 269.12 334.22 261.5 334.22 261.5" fill="#FFCFC5"/>
<path d="M332.87 278.27C332.757 278.268 332.647 278.237 332.55 278.18C331.611 277.57 330.834 276.74 330.287 275.763C329.74 274.786 329.439 273.69 329.41 272.57C329.33 269 333.49 261.51 333.67 261.19C333.762 261.063 333.897 260.974 334.051 260.94C334.204 260.906 334.364 260.929 334.501 261.006C334.638 261.082 334.742 261.207 334.794 261.355C334.845 261.503 334.84 261.665 334.78 261.81C334.78 261.88 330.61 269.32 330.67 272.55C330.696 273.454 330.939 274.339 331.38 275.129C331.82 275.92 332.445 276.592 333.2 277.09C333.324 277.159 333.421 277.267 333.475 277.398C333.53 277.529 333.538 277.674 333.5 277.81C333.462 277.946 333.379 278.066 333.265 278.149C333.151 278.233 333.012 278.275 332.87 278.27Z" fill="black"/>
<path d="M339.65 277.91C338.961 277.497 338.392 276.91 338 276.208C337.609 275.506 337.409 274.714 337.42 273.91C337.42 271.1 341.34 265.48 341.34 265.48" fill="#FFCFC5"/>
<path d="M339.65 278.54C339.546 278.541 339.443 278.517 339.35 278.47C338.56 278.003 337.907 277.338 337.456 276.539C337.005 275.74 336.772 274.837 336.78 273.92C336.78 270.92 340.66 265.36 340.78 265.13C340.818 265.044 340.874 264.967 340.945 264.906C341.016 264.845 341.1 264.8 341.191 264.775C341.281 264.751 341.376 264.747 341.469 264.763C341.561 264.78 341.649 264.817 341.725 264.872C341.801 264.927 341.864 264.998 341.909 265.08C341.954 265.163 341.981 265.254 341.986 265.348C341.991 265.442 341.975 265.535 341.94 265.622C341.904 265.709 341.85 265.787 341.78 265.85C340.72 267.37 337.97 271.78 337.97 273.92C337.965 274.606 338.136 275.281 338.467 275.882C338.797 276.483 339.277 276.988 339.86 277.35C339.934 277.388 339.999 277.44 340.052 277.503C340.106 277.567 340.146 277.64 340.171 277.719C340.196 277.798 340.206 277.881 340.199 277.964C340.191 278.046 340.168 278.126 340.13 278.2C340.083 278.291 340.015 278.369 339.931 278.428C339.848 278.487 339.751 278.526 339.65 278.54Z" fill="#030047"/>
<path d="M347.56 277.91C347.56 277.91 352.32 274.7 353 272.35C353.68 270 353.44 268.15 351.32 268.87C349.96 269.405 348.805 270.357 348.02 271.59" fill="#FFCFC5"/>
<path d="M347.56 278.54C347.456 278.538 347.354 278.512 347.261 278.464C347.169 278.415 347.09 278.345 347.03 278.26C346.983 278.191 346.951 278.113 346.935 278.031C346.919 277.949 346.919 277.864 346.936 277.782C346.952 277.7 346.985 277.623 347.032 277.554C347.079 277.485 347.14 277.426 347.21 277.38C348.48 276.52 351.89 273.92 352.39 272.18C352.83 270.65 352.75 269.7 352.48 269.44C352.21 269.18 351.8 269.38 351.53 269.44C350.297 269.915 349.246 270.77 348.53 271.88C348.444 272.025 348.304 272.129 348.141 272.17C347.977 272.211 347.805 272.186 347.66 272.1C347.515 272.014 347.411 271.874 347.37 271.711C347.329 271.547 347.354 271.375 347.44 271.23C348.295 269.861 349.573 268.808 351.08 268.23C351.435 268.045 351.837 267.971 352.235 268.018C352.632 268.064 353.007 268.229 353.31 268.49C354.22 269.35 353.95 271.14 353.57 272.49C352.85 274.98 348.38 278.05 347.87 278.39C347.785 278.471 347.677 278.524 347.56 278.54Z" fill="black"/>
<path d="M381.23 191.74L391.03 193.74C394.931 194.525 398.575 196.268 401.635 198.811C404.695 201.354 407.075 204.619 408.56 208.31L416.56 228.43L382.22 242.96L375.12 223.96C373.845 220.546 373.267 216.911 373.42 213.27C373.573 209.629 374.454 206.055 376.01 202.76L381.23 191.74Z" fill="#FB9100"/>
<path d="M382.21 243.64C382.123 243.64 382.037 243.62 381.96 243.58C381.88 243.549 381.808 243.5 381.75 243.438C381.691 243.376 381.647 243.301 381.62 243.22L374.51 224.22C374.452 224.061 374.459 223.885 374.531 223.731C374.602 223.578 374.731 223.459 374.89 223.4C375.046 223.342 375.22 223.348 375.372 223.417C375.523 223.487 375.642 223.614 375.7 223.77L382.57 242.17L415.73 228.17L407.92 208.59C407.876 208.51 407.85 208.423 407.843 208.332C407.835 208.242 407.848 208.151 407.878 208.065C407.909 207.98 407.957 207.902 408.02 207.837C408.083 207.771 408.16 207.72 408.244 207.687C408.328 207.653 408.419 207.638 408.509 207.642C408.6 207.646 408.689 207.669 408.77 207.71C408.851 207.751 408.922 207.809 408.979 207.88C409.036 207.95 409.077 208.032 409.1 208.12L417.1 228.27C417.163 228.424 417.163 228.596 417.099 228.75C417.035 228.904 416.913 229.026 416.76 229.09L382.46 243.59C382.38 243.621 382.296 243.638 382.21 243.64Z" fill="black"/>
<path d="M341.07 190.23L341.62 161.38H367.16C367.16 161.38 367.45 190.03 367.44 190.21C355.34 199.43 346.22 200.33 341.07 190.23Z" fill="#FFCFC5"/>
<path d="M351.36 198.1C350.492 198.101 349.626 198.003 348.78 197.81C345.36 197.03 342.58 194.58 340.51 190.52C340.462 190.427 340.438 190.324 340.44 190.22L340.99 161.37C340.993 161.205 341.06 161.047 341.178 160.931C341.296 160.815 341.455 160.75 341.62 160.75H367.16C367.325 160.75 367.484 160.815 367.602 160.931C367.72 161.047 367.787 161.205 367.79 161.37C367.86 168.1 368.08 190.05 368.07 190.24C368.065 190.333 368.041 190.424 367.997 190.507C367.954 190.59 367.894 190.663 367.82 190.72C361.31 195.66 355.89 198.1 351.36 198.1ZM341.71 190.1C343.59 193.73 346.06 195.91 349.06 196.6C353.57 197.6 359.54 195.38 366.8 189.92C366.8 187.54 366.62 171.33 366.53 162.04H342.24L341.71 190.1Z" fill="black"/>
<path d="M366.89 167.48C371.26 155.41 368.96 138.15 368.96 138.15L338.34 130.62C337.84 131.19 326.49 140.24 326.26 160.05C326.03 179.53 341.26 186.05 359.55 177.47" fill="#FFCFC5"/>
<path d="M344.69 181.81C340.937 181.902 337.238 180.905 334.04 178.94C328.43 175.34 325.52 168.8 325.62 160.05C325.81 143.77 333.24 134.48 337.62 130.39C337.694 130.328 337.764 130.261 337.83 130.19C337.91 130.107 338.01 130.046 338.12 130.012C338.23 129.979 338.347 129.975 338.46 130L369.07 137.53C369.193 137.565 369.304 137.634 369.389 137.73C369.474 137.826 369.53 137.944 369.55 138.07C369.64 138.78 371.82 155.62 367.45 167.7C367.424 167.783 367.382 167.86 367.326 167.927C367.27 167.993 367.201 168.047 367.123 168.086C367.045 168.124 366.96 168.147 366.873 168.152C366.786 168.156 366.699 168.143 366.618 168.113C366.536 168.084 366.461 168.037 366.398 167.978C366.335 167.918 366.285 167.846 366.25 167.766C366.216 167.686 366.198 167.6 366.198 167.513C366.198 167.426 366.216 167.34 366.25 167.26C370.15 156.52 368.65 141.39 368.34 138.66L338.56 131.31C334.3 135.31 327.11 144.25 326.93 160.05C326.83 168.35 329.54 174.51 334.77 177.87C340.77 181.75 349.77 181.39 359.32 176.87C359.474 176.799 359.65 176.791 359.809 176.849C359.968 176.907 360.098 177.026 360.17 177.18C360.205 177.256 360.225 177.337 360.229 177.42C360.232 177.504 360.219 177.587 360.19 177.665C360.161 177.743 360.117 177.814 360.061 177.875C360.004 177.936 359.936 177.986 359.86 178.02C355.141 180.378 349.963 181.672 344.69 181.81Z" fill="black"/>
<path d="M371.81 154.69L363.56 152.03C363.56 152.03 363.63 157.28 361.2 155.94C360.97 153.81 360.64 151.69 360.41 149.56C360.377 148.118 359.989 146.706 359.28 145.45C358.1 143.72 355.85 143.05 353.76 142.98C351.67 142.91 349.57 143.33 347.48 143.2C346.471 143.172 345.483 142.901 344.6 142.41C344.167 142.153 343.8 141.797 343.531 141.371C343.261 140.945 343.097 140.462 343.05 139.96C343.028 139.355 343.106 138.75 343.28 138.17C340.579 140.409 337.24 141.736 333.739 141.962C330.239 142.189 326.756 141.302 323.79 139.43C321.635 138.164 319.948 136.234 318.98 133.93C318.11 131.62 318.41 129.64 318.98 127.23C324.34 104.8 357.74 119.38 358.98 128.78C358.98 128.78 370.29 127.57 375.66 134.26C381.03 140.95 371.81 154.69 371.81 154.69Z" fill="black"/>
<path d="M345.72 161.03C342.24 161.03 339.4 157.47 339.39 153.13C339.328 150.85 340.173 148.638 341.74 146.98C342.249 146.452 342.857 146.029 343.53 145.738C344.203 145.446 344.927 145.29 345.66 145.28C349.14 145.28 351.98 148.84 351.99 153.18C352.049 155.46 351.204 157.671 349.64 159.33C349.131 159.858 348.523 160.281 347.85 160.572C347.177 160.864 346.453 161.02 345.72 161.03ZM345.63 146.97C345.119 146.979 344.614 147.091 344.147 147.299C343.68 147.507 343.259 147.807 342.91 148.18C341.673 149.522 341.009 151.295 341.06 153.12C341.06 156.54 343.16 159.33 345.71 159.34C346.223 159.33 346.728 159.217 347.197 159.01C347.665 158.802 348.088 158.503 348.44 158.13C349.677 156.788 350.341 155.015 350.29 153.19C350.29 149.77 348.19 146.98 345.64 146.97H345.63Z" fill="#1B5A96"/>
<path d="M330.9 160.43C327.42 160.43 324.58 156.87 324.57 152.53C324.508 150.25 325.353 148.038 326.92 146.38C327.427 145.852 328.034 145.431 328.705 145.139C329.376 144.847 330.098 144.691 330.83 144.68C334.31 144.68 337.14 148.24 337.16 152.58C337.219 154.86 336.374 157.07 334.81 158.73C334.303 159.257 333.696 159.679 333.025 159.97C332.354 160.262 331.632 160.418 330.9 160.43ZM330.81 146.43C330.299 146.438 329.794 146.55 329.327 146.757C328.859 146.965 328.439 147.266 328.09 147.64C326.844 148.977 326.179 150.753 326.24 152.58C326.24 156 328.33 158.79 330.89 158.8C331.403 158.79 331.908 158.677 332.377 158.47C332.846 158.262 333.268 157.963 333.62 157.59C334.857 156.248 335.521 154.475 335.47 152.65C335.47 149.23 333.37 146.44 330.82 146.43H330.81Z" fill="#1B5A96"/>
<path d="M347.03 154.5C347.09 155.7 346.49 156.71 345.69 156.77C344.89 156.83 344.2 155.91 344.14 154.72C344.08 153.53 344.69 152.52 345.48 152.46C346.27 152.4 346.98 153.31 347.03 154.5Z" fill="black"/>
<path d="M343.76 150.57C344.449 150.19 345.235 150.021 346.019 150.085C346.804 150.149 347.552 150.443 348.17 150.93" fill="white"/>
<path d="M348.17 151.56C348.032 151.562 347.898 151.516 347.79 151.43C347.273 151.013 346.644 150.761 345.982 150.706C345.321 150.651 344.658 150.795 344.08 151.12C344.008 151.163 343.929 151.191 343.847 151.203C343.764 151.215 343.68 151.211 343.599 151.19C343.519 151.17 343.443 151.134 343.376 151.084C343.309 151.034 343.253 150.972 343.21 150.9C343.167 150.828 343.139 150.749 343.127 150.667C343.115 150.584 343.119 150.5 343.14 150.419C343.16 150.339 343.196 150.263 343.246 150.196C343.296 150.129 343.358 150.073 343.43 150.03C344.227 149.577 345.142 149.372 346.056 149.444C346.971 149.515 347.843 149.858 348.56 150.43C348.662 150.512 348.737 150.623 348.774 150.749C348.812 150.874 348.809 151.008 348.768 151.133C348.726 151.257 348.648 151.366 348.543 151.444C348.438 151.522 348.311 151.566 348.18 151.57L348.17 151.56Z" fill="black"/>
<path d="M332.67 154.21C332.72 155.41 332.12 156.42 331.32 156.48C330.52 156.54 329.83 155.62 329.77 154.43C329.71 153.24 330.32 152.23 331.12 152.17C331.92 152.11 332.61 153.02 332.67 154.21Z" fill="black"/>
<path d="M329.39 150.28C330.079 149.9 330.865 149.731 331.649 149.795C332.434 149.859 333.182 150.153 333.8 150.64" fill="white"/>
<path d="M333.8 151.27C333.662 151.272 333.528 151.226 333.42 151.14C332.904 150.726 332.277 150.475 331.617 150.42C330.958 150.364 330.297 150.507 329.72 150.83C329.649 150.873 329.569 150.902 329.487 150.914C329.404 150.927 329.32 150.923 329.239 150.902C329.158 150.882 329.082 150.845 329.015 150.795C328.948 150.745 328.892 150.682 328.85 150.61C328.807 150.539 328.778 150.459 328.766 150.377C328.753 150.294 328.758 150.21 328.778 150.129C328.798 150.048 328.835 149.972 328.885 149.905C328.935 149.838 328.998 149.782 329.07 149.74C329.865 149.287 330.777 149.083 331.69 149.152C332.602 149.222 333.473 149.562 334.19 150.13C334.323 150.233 334.41 150.384 334.432 150.551C334.455 150.717 334.411 150.886 334.31 151.02C334.249 151.097 334.172 151.16 334.083 151.203C333.995 151.246 333.898 151.269 333.8 151.27Z" fill="black"/>
<path d="M351.14 152.09C350.924 152.103 350.71 152.032 350.545 151.892C350.38 151.751 350.275 151.552 350.253 151.337C350.231 151.121 350.294 150.905 350.427 150.734C350.561 150.563 350.755 150.451 350.97 150.42C351.41 150.32 361.97 148.06 367.87 149.3C367.985 149.317 368.095 149.357 368.194 149.418C368.293 149.479 368.379 149.559 368.445 149.654C368.512 149.75 368.558 149.858 368.581 149.971C368.605 150.085 368.604 150.203 368.58 150.317C368.556 150.43 368.509 150.538 368.442 150.633C368.375 150.727 368.289 150.807 368.189 150.868C368.09 150.928 367.979 150.967 367.864 150.983C367.749 150.999 367.632 150.991 367.52 150.96C362.02 149.79 351.43 152.05 351.32 152.07L351.14 152.09Z" fill="#1B5A96"/>
<path d="M363.26 152.25C363.26 152.25 369.43 145.17 373.26 146.25C377.09 147.33 376.57 160.48 372.26 162.01C369.67 162.915 366.85 162.915 364.26 162.01" fill="#FFCFC5"/>
<path d="M368.17 163.32C366.742 163.333 365.324 163.093 363.98 162.61C363.839 162.536 363.731 162.412 363.677 162.263C363.622 162.114 363.625 161.95 363.685 161.802C363.745 161.655 363.857 161.535 364.001 161.467C364.144 161.398 364.308 161.385 364.46 161.43C366.902 162.274 369.558 162.274 372 161.43C374.14 160.68 375.29 156.22 375.15 152.35C375.05 149.4 374.21 147.2 373.06 146.88C370.26 146.1 365.38 150.82 363.74 152.71C363.686 152.772 363.619 152.824 363.545 152.86C363.471 152.897 363.39 152.919 363.307 152.925C363.225 152.93 363.142 152.919 363.063 152.893C362.985 152.866 362.912 152.825 362.85 152.77C362.786 152.717 362.733 152.652 362.694 152.578C362.656 152.504 362.632 152.423 362.626 152.34C362.619 152.257 362.63 152.173 362.656 152.094C362.683 152.015 362.725 151.942 362.78 151.88C363.44 151.12 369.33 144.53 373.4 145.66C375.17 146.15 376.29 148.66 376.4 152.31C376.55 156.68 375.23 161.63 372.4 162.63C371.039 163.099 369.609 163.332 368.17 163.32Z" fill="black"/>
<path d="M371.25 156.49C371.177 156.504 371.103 156.504 371.03 156.49C370.952 156.462 370.88 156.419 370.819 156.363C370.757 156.307 370.708 156.239 370.674 156.163C370.639 156.088 370.62 156.006 370.618 155.923C370.615 155.84 370.63 155.757 370.66 155.68C370.942 154.926 371.068 154.124 371.03 153.32C371.044 153.171 371.028 153.021 370.983 152.879C370.938 152.736 370.866 152.604 370.77 152.49C370.632 152.416 370.471 152.398 370.32 152.44C370.086 152.51 369.873 152.637 369.7 152.81C369.354 153.116 369.075 153.491 368.88 153.91C368.853 153.996 368.808 154.076 368.748 154.143C368.688 154.211 368.614 154.265 368.532 154.302C368.449 154.339 368.36 154.358 368.27 154.358C368.179 154.358 368.09 154.339 368.008 154.302C367.925 154.265 367.851 154.211 367.791 154.144C367.731 154.076 367.686 153.997 367.659 153.911C367.632 153.824 367.623 153.733 367.634 153.644C367.644 153.554 367.674 153.467 367.72 153.39C367.992 152.811 368.376 152.291 368.85 151.86C369.18 151.56 369.573 151.338 370 151.21C370.26 151.127 370.535 151.104 370.805 151.142C371.075 151.18 371.333 151.279 371.56 151.43C371.818 151.649 372.023 151.924 372.158 152.234C372.294 152.544 372.356 152.882 372.34 153.22C372.379 154.194 372.223 155.167 371.88 156.08C371.836 156.209 371.75 156.319 371.636 156.393C371.521 156.468 371.386 156.502 371.25 156.49Z" fill="black"/>
<path d="M339.93 151.2C339.766 151.198 339.607 151.149 339.47 151.06C338.16 150.21 337.38 150.84 337.3 150.91C337.133 151.037 336.925 151.098 336.715 151.081C336.506 151.064 336.31 150.97 336.166 150.817C336.022 150.664 335.94 150.464 335.935 150.254C335.93 150.044 336.003 149.839 336.14 149.68C336.743 149.197 337.492 148.934 338.265 148.934C339.037 148.934 339.787 149.197 340.39 149.68C340.577 149.803 340.709 149.994 340.756 150.214C340.803 150.433 340.761 150.661 340.64 150.85C340.558 150.96 340.451 151.05 340.327 151.11C340.204 151.171 340.068 151.202 339.93 151.2Z" fill="#1B5A96"/>
<path d="M338.04 157.22C337.7 158.81 337.35 160.4 337.04 161.99C336.749 162.919 336.704 163.908 336.91 164.86C337.069 165.356 337.387 165.785 337.816 166.08C338.245 166.375 338.76 166.519 339.28 166.49" fill="#FFCFC5"/>
<path d="M339.08 167.13C338.451 167.122 337.841 166.918 337.335 166.544C336.829 166.171 336.453 165.648 336.26 165.05C336.018 163.995 336.059 162.894 336.38 161.86L337.43 157.08C337.445 156.997 337.477 156.918 337.524 156.847C337.57 156.777 337.631 156.716 337.701 156.669C337.772 156.623 337.851 156.591 337.934 156.575C338.017 156.559 338.102 156.561 338.185 156.579C338.267 156.597 338.345 156.632 338.414 156.68C338.483 156.729 338.542 156.792 338.586 156.864C338.63 156.936 338.66 157.016 338.672 157.099C338.685 157.183 338.681 157.268 338.66 157.35L337.66 162.13C337.399 162.951 337.348 163.824 337.51 164.67C337.628 165.03 337.862 165.34 338.175 165.554C338.488 165.767 338.862 165.871 339.24 165.85C339.323 165.843 339.407 165.853 339.486 165.879C339.565 165.906 339.638 165.947 339.7 166.003C339.763 166.058 339.814 166.125 339.85 166.2C339.886 166.275 339.906 166.357 339.91 166.44C339.921 166.607 339.867 166.771 339.758 166.898C339.65 167.025 339.496 167.105 339.33 167.12L339.08 167.13Z" fill="black"/>
<path d="M344.93 172.71H344.79C344.635 172.69 344.493 172.615 344.39 172.498C344.287 172.381 344.23 172.231 344.23 172.075C344.23 171.919 344.287 171.768 344.39 171.652C344.493 171.535 344.635 171.459 344.79 171.44C345.462 171.456 346.131 171.339 346.759 171.096C347.386 170.854 347.959 170.49 348.446 170.026C348.932 169.561 349.323 169.006 349.595 168.39C349.866 167.775 350.014 167.112 350.03 166.44C350.038 166.272 350.111 166.114 350.235 166C350.358 165.885 350.522 165.824 350.69 165.83C350.773 165.833 350.854 165.851 350.93 165.885C351.005 165.92 351.073 165.968 351.13 166.029C351.186 166.089 351.23 166.16 351.26 166.237C351.289 166.315 351.303 166.397 351.3 166.48C351.253 168.144 350.557 169.724 349.362 170.882C348.166 172.041 346.565 172.686 344.9 172.68L344.93 172.71Z" fill="black"/>
<path d="M337.42 291.51V291.19C337.42 288.53 334.35 286.37 330.56 286.37L255.72 281.43C251.94 281.43 248.87 283.59 248.87 286.25V291.5L337.42 291.51Z" fill="#1B5A96"/>
<path d="M263.09 286.93L257.95 286.57C257.709 286.56 257.472 286.502 257.253 286.4C257.034 286.297 256.838 286.153 256.675 285.974C256.513 285.796 256.387 285.587 256.305 285.36C256.224 285.132 256.188 284.891 256.2 284.65L256.63 279.08C256.686 278.599 256.924 278.158 257.297 277.849C257.67 277.539 258.147 277.386 258.63 277.42L263.77 277.78C264.012 277.789 264.25 277.846 264.47 277.948C264.69 278.049 264.888 278.194 265.051 278.372C265.215 278.551 265.342 278.76 265.424 278.988C265.506 279.216 265.542 279.458 265.53 279.7L265.09 285.27C265.037 285.752 264.799 286.195 264.426 286.504C264.052 286.814 263.574 286.967 263.09 286.93Z" fill="#1B5A96"/>
<path d="M273.81 287.67L268.67 287.32C268.429 287.31 268.192 287.252 267.973 287.15C267.754 287.047 267.558 286.903 267.395 286.724C267.233 286.546 267.107 286.337 267.025 286.11C266.944 285.882 266.908 285.641 266.92 285.4L267.35 279.82C267.406 279.339 267.644 278.898 268.017 278.589C268.39 278.279 268.867 278.126 269.35 278.16L274.49 278.52C274.732 278.529 274.97 278.586 275.19 278.688C275.41 278.789 275.608 278.933 275.771 279.112C275.935 279.291 276.062 279.5 276.144 279.728C276.226 279.956 276.262 280.198 276.25 280.44L275.81 286.02C275.755 286.5 275.515 286.94 275.142 287.248C274.77 287.555 274.292 287.707 273.81 287.67Z" fill="#1B5A96"/>
<path d="M284.56 288.43L279.42 288.07C279.178 288.061 278.94 288.004 278.72 287.902C278.5 287.801 278.302 287.656 278.139 287.478C277.975 287.299 277.848 287.09 277.766 286.862C277.684 286.634 277.648 286.392 277.66 286.15L278.1 280.58C278.153 280.098 278.391 279.655 278.764 279.346C279.138 279.036 279.616 278.883 280.1 278.92L285.24 279.27C285.729 279.293 286.189 279.509 286.519 279.871C286.849 280.233 287.022 280.711 287 281.2L286.56 286.77C286.505 287.251 286.266 287.692 285.893 288.001C285.52 288.31 285.043 288.464 284.56 288.43Z" fill="#1B5A96"/>
<path d="M295.25 289.16L290.11 288.81C289.621 288.787 289.161 288.57 288.831 288.209C288.501 287.847 288.328 287.369 288.35 286.88L288.79 281.31C288.845 280.829 289.084 280.388 289.457 280.079C289.829 279.769 290.307 279.616 290.79 279.65L295.93 280.01C296.171 280.02 296.408 280.078 296.627 280.18C296.846 280.283 297.042 280.427 297.205 280.606C297.367 280.784 297.493 280.993 297.575 281.22C297.656 281.448 297.692 281.689 297.68 281.93L297.25 287.5C297.195 287.981 296.956 288.422 296.583 288.731C296.21 289.04 295.733 289.194 295.25 289.16Z" fill="#1B5A96"/>
<path d="M305.97 289.9L300.83 289.55C300.588 289.541 300.35 289.484 300.13 289.383C299.91 289.281 299.712 289.137 299.549 288.958C299.385 288.779 299.258 288.57 299.176 288.342C299.094 288.114 299.058 287.872 299.07 287.63L299.51 282.05C299.563 281.568 299.801 281.126 300.174 280.816C300.547 280.506 301.026 280.353 301.51 280.39L306.65 280.75C306.891 280.76 307.128 280.818 307.347 280.921C307.566 281.023 307.762 281.167 307.925 281.346C308.087 281.524 308.213 281.733 308.295 281.96C308.376 282.188 308.412 282.429 308.4 282.67L307.97 288.25C307.914 288.73 307.675 289.17 307.302 289.478C306.929 289.786 306.452 289.937 305.97 289.9Z" fill="#1B5A96"/>
<path d="M316.69 290.65L311.55 290.29C311.308 290.281 311.07 290.224 310.85 290.122C310.63 290.021 310.432 289.876 310.269 289.698C310.105 289.519 309.978 289.31 309.896 289.082C309.814 288.854 309.778 288.612 309.79 288.37L310.23 282.8C310.281 282.317 310.518 281.873 310.892 281.563C311.266 281.252 311.746 281.101 312.23 281.14L317.37 281.49C317.616 281.496 317.858 281.552 318.082 281.653C318.307 281.755 318.508 281.901 318.675 282.082C318.842 282.262 318.971 282.475 319.054 282.707C319.137 282.938 319.173 283.184 319.16 283.43L318.73 289C318.672 289.487 318.426 289.931 318.045 290.24C317.664 290.548 317.178 290.695 316.69 290.65Z" fill="#1B5A96"/>
<path d="M327.41 291.43L322.27 291.08C322.027 291.07 321.789 291.011 321.569 290.909C321.349 290.806 321.152 290.661 320.988 290.481C320.825 290.302 320.698 290.092 320.616 289.863C320.534 289.635 320.498 289.392 320.51 289.15L320.95 283.58C321.003 283.098 321.241 282.655 321.615 282.346C321.988 282.036 322.467 281.883 322.95 281.92L328.09 282.28C328.332 282.289 328.57 282.346 328.79 282.447C329.01 282.549 329.208 282.693 329.371 282.872C329.535 283.051 329.662 283.26 329.744 283.488C329.826 283.716 329.862 283.958 329.85 284.2L329.42 289.77C329.365 290.253 329.124 290.695 328.75 291.005C328.375 291.314 327.895 291.467 327.41 291.43Z" fill="#1B5A96"/>
<path d="M189.14 86.5601H136.51V139.19H189.14V86.5601Z" fill="#1B5A96"/>
<path d="M167.73 102.59C166.8 102.59 165.35 102.52 163.38 102.39C161.41 102.26 160.03 102.19 159.03 102.21C159.03 103.6 159.23 106.09 159.51 109.66C159.763 112.82 159.89 115.317 159.89 117.15C159.89 117.57 159.93 118.19 160.01 119.01C160.09 119.83 160.14 120.45 160.14 120.86C160.156 121.722 159.956 122.574 159.56 123.34C159.391 123.756 159.102 124.113 158.73 124.366C158.358 124.619 157.92 124.756 157.47 124.76C156.83 124.766 156.21 124.534 155.73 124.11C155.462 123.896 155.248 123.623 155.102 123.313C154.956 123.002 154.884 122.663 154.89 122.32C154.899 122.058 154.929 121.797 154.98 121.54C155.031 121.276 155.061 121.009 155.07 120.74C155.07 120.17 155.07 119.32 154.95 118.18C154.83 117.04 154.83 116.18 154.83 115.61C154.83 113.97 154.707 111.75 154.46 108.95C154.17 105.73 154 103.5 153.96 102.28H153.03C150.901 102.333 148.773 102.134 146.69 101.69C146.116 101.615 145.591 101.327 145.22 100.882C144.849 100.437 144.66 99.8684 144.69 99.29C144.686 98.6668 144.914 98.0643 145.33 97.6C145.566 97.3053 145.874 97.0761 146.225 96.9343C146.575 96.7925 146.955 96.7428 147.33 96.79C147.75 96.79 148.7 96.92 150.18 97.1C151.132 97.2215 152.09 97.2882 153.05 97.3H156.31C157.76 97.3 158.85 97.3 159.58 97.3C160.49 97.3 161.85 97.36 163.67 97.49C165.49 97.62 166.84 97.69 167.75 97.69C168.083 97.6788 168.414 97.736 168.724 97.8581C169.033 97.9802 169.315 98.1647 169.55 98.4C169.785 98.6283 169.971 98.9022 170.096 99.2048C170.222 99.5074 170.284 99.8324 170.28 100.16C170.283 100.492 170.219 100.82 170.092 101.127C169.966 101.433 169.779 101.711 169.543 101.945C169.307 102.178 169.027 102.361 168.719 102.484C168.411 102.607 168.082 102.667 167.75 102.66L167.73 102.59Z" fill="#FFF6EB"/>
<path d="M180.16 113.26C179.41 113.26 178.23 113.26 176.64 113.1C175.05 112.94 173.93 112.94 173.11 112.95C173.15 114.083 173.283 116.083 173.51 118.95C173.71 121.51 173.81 123.533 173.81 125.02C173.81 125.35 173.81 125.85 173.91 126.52C174.01 127.19 174.01 127.68 174.01 128.02C174.02 128.714 173.862 129.4 173.55 130.02C173.41 130.356 173.174 130.644 172.872 130.846C172.57 131.049 172.214 131.158 171.85 131.16C171.335 131.168 170.835 130.982 170.45 130.64C170.232 130.465 170.058 130.242 169.94 129.989C169.822 129.736 169.764 129.459 169.77 129.18C169.776 128.968 169.8 128.758 169.84 128.55C169.881 128.339 169.904 128.125 169.91 127.91C169.91 127.45 169.88 126.76 169.82 125.84C169.75 124.92 169.72 124.22 169.72 123.76C169.72 122.427 169.62 120.627 169.42 118.36C169.19 115.76 169.05 113.96 169.01 112.97H168.26C166.537 113.014 164.815 112.853 163.13 112.49C162.665 112.428 162.241 112.192 161.943 111.831C161.644 111.469 161.493 111.008 161.52 110.54C161.516 110.037 161.702 109.552 162.04 109.18C162.227 108.944 162.471 108.759 162.749 108.644C163.027 108.528 163.331 108.485 163.63 108.52C163.97 108.52 164.74 108.63 165.94 108.78C166.94 108.88 167.67 108.94 168.26 108.94H170.9H173.55C174.28 108.94 175.39 108.99 176.86 109.1C178.33 109.21 179.43 109.25 180.16 109.25C180.43 109.243 180.698 109.291 180.949 109.391C181.2 109.49 181.428 109.64 181.62 109.83C181.993 110.213 182.201 110.726 182.201 111.26C182.201 111.794 181.993 112.307 181.62 112.69C181.427 112.878 181.199 113.026 180.948 113.124C180.697 113.222 180.429 113.268 180.16 113.26Z" fill="#FFF6EB"/>
<path d="M399.524 159.538C399.829 156.671 397.753 154.1 394.886 153.794C392.019 153.489 389.448 155.565 389.142 158.432C388.837 161.299 390.914 163.87 393.78 164.175C396.647 164.481 399.218 162.404 399.524 159.538Z" fill="#1B5A96"/>
<path d="M413.27 148.84C411.394 149.182 409.629 149.973 408.124 151.145C406.62 152.317 405.421 153.835 404.63 155.57L404.43 156.01L389.98 149.43L390.18 148.98C390.968 147.213 391.316 145.281 391.196 143.35C391.076 141.419 390.491 139.546 389.49 137.89C387.028 133.689 385.97 128.812 386.47 123.969C386.97 119.125 389.003 114.567 392.272 110.959C395.541 107.35 399.877 104.878 404.647 103.903C409.418 102.928 414.376 103.501 418.799 105.537C423.222 107.574 426.88 110.968 429.24 115.227C431.601 119.486 432.541 124.387 431.925 129.217C431.308 134.048 429.166 138.555 425.811 142.084C422.456 145.613 418.063 147.98 413.27 148.84Z" fill="#FB9100"/>
<path d="M400.92 153.22C400.822 153.222 400.725 153.198 400.64 153.15C400.565 153.115 400.498 153.065 400.442 153.003C400.387 152.942 400.345 152.87 400.318 152.791C400.291 152.713 400.28 152.63 400.285 152.547C400.291 152.465 400.313 152.384 400.35 152.31L408.56 135.43C406.565 134.81 404.656 133.94 402.88 132.84L395.51 150.07C395.477 150.146 395.43 150.215 395.37 150.273C395.311 150.331 395.241 150.377 395.164 150.407C395.086 150.438 395.004 150.453 394.921 150.452C394.838 150.451 394.756 150.433 394.68 150.4C394.602 150.369 394.531 150.323 394.471 150.264C394.411 150.206 394.364 150.135 394.332 150.058C394.301 149.98 394.285 149.897 394.286 149.813C394.288 149.729 394.306 149.647 394.34 149.57L401.8 132.14C401.02 131.615 400.272 131.044 399.56 130.43L396.81 128.05C396.435 127.719 396.134 127.313 395.926 126.859C395.718 126.405 395.607 125.912 395.601 125.412C395.595 124.912 395.693 124.417 395.89 123.957C396.087 123.498 396.378 123.085 396.744 122.745C397.11 122.404 397.543 122.145 398.016 121.982C398.488 121.82 398.99 121.758 399.488 121.801C399.986 121.843 400.469 121.99 400.907 122.231C401.345 122.472 401.727 122.802 402.03 123.2C402.917 124.395 403.499 125.789 403.724 127.26C403.949 128.731 403.81 130.235 403.32 131.64C405.119 132.773 407.064 133.658 409.1 134.27C409.842 132.98 410.887 131.891 412.145 131.096C413.404 130.301 414.836 129.826 416.32 129.71C416.849 129.671 417.381 129.75 417.875 129.942C418.37 130.134 418.816 130.434 419.18 130.82C419.552 131.203 419.835 131.663 420.008 132.168C420.181 132.673 420.24 133.21 420.18 133.74C420.117 134.21 419.962 134.663 419.724 135.073C419.486 135.483 419.169 135.841 418.792 136.128C418.415 136.416 417.984 136.625 417.526 136.746C417.067 136.866 416.59 136.895 416.12 136.83L412.53 136.32C411.61 136.192 410.699 136.012 409.8 135.78L401.54 152.84C401.489 152.96 401.401 153.06 401.29 153.128C401.179 153.197 401.05 153.228 400.92 153.22ZM410.36 134.64C411.11 134.82 411.88 134.97 412.65 135.08L416.25 135.59C416.571 135.636 416.899 135.614 417.211 135.524C417.523 135.435 417.813 135.281 418.062 135.073C418.31 134.864 418.512 134.605 418.654 134.314C418.796 134.022 418.875 133.703 418.886 133.379C418.896 133.054 418.838 132.731 418.716 132.431C418.593 132.13 418.408 131.859 418.174 131.634C417.939 131.41 417.66 131.237 417.355 131.128C417.049 131.019 416.724 130.975 416.4 131C415.178 131.091 413.995 131.468 412.946 132.1C411.897 132.733 411.011 133.603 410.36 134.64ZM399.15 123.05C398.677 123.047 398.216 123.19 397.827 123.458C397.438 123.726 397.14 124.107 396.974 124.55C396.809 124.993 396.783 125.475 396.9 125.933C397.017 126.391 397.272 126.802 397.63 127.11L400.38 129.49C400.969 130 401.583 130.481 402.22 130.93C402.581 129.749 402.658 128.5 402.446 127.284C402.234 126.068 401.739 124.919 401 123.93C400.796 123.655 400.532 123.429 400.23 123.268C399.927 123.107 399.592 123.015 399.25 123L399.15 123.05Z" fill="#FFF6EB"/>
<path d="M387.735 148.864L386.342 151.922C385.749 153.224 386.324 154.76 387.626 155.352L401.467 161.658C402.769 162.25 404.305 161.676 404.898 160.374L406.291 157.316C406.884 156.015 406.309 154.479 405.008 153.886L391.166 147.581C389.864 146.988 388.328 147.562 387.735 148.864Z" fill="#1B5A96"/>
<path d="M422.493 98.8374L420.782 98.0581L419.178 101.58L420.889 102.359L422.493 98.8374Z" fill="#FFCC3D"/>
<path d="M406.998 95.7487L405.126 95.9292L405.498 99.7813L407.369 99.6008L406.998 95.7487Z" fill="#FFCC3D"/>
<path d="M434.367 109.25L433.275 107.72L430.125 109.968L431.217 111.498L434.367 109.25Z" fill="#FFCC3D"/>
<path d="M158.56 277.85C152.947 277.844 147.466 276.143 142.836 272.971C138.205 269.798 134.64 265.302 132.606 260.07C130.573 254.839 130.166 249.115 131.438 243.648C132.711 238.181 135.605 233.226 139.74 229.43C139.861 229.314 140.022 229.249 140.19 229.249C140.358 229.249 140.519 229.314 140.64 229.43C140.759 229.55 140.825 229.711 140.825 229.88C140.825 230.048 140.759 230.21 140.64 230.33C136.683 233.952 133.914 238.686 132.696 243.91C131.478 249.134 131.868 254.604 133.815 259.603C135.761 264.602 139.174 268.895 143.604 271.919C148.035 274.944 153.276 276.558 158.64 276.55H158.82C165.873 276.494 172.617 273.644 177.571 268.624C182.526 263.604 185.287 256.823 185.25 249.77C185.27 249.615 185.345 249.473 185.462 249.37C185.579 249.267 185.729 249.21 185.885 249.21C186.041 249.21 186.192 249.267 186.308 249.37C186.425 249.473 186.501 249.615 186.52 249.77C186.56 257.16 183.667 264.265 178.476 269.525C173.285 274.785 166.22 277.772 158.83 277.83L158.56 277.85Z" fill="black"/>
<path d="M170.8 227.19L181.56 226.43C181.965 226.403 182.37 226.473 182.742 226.636C183.113 226.799 183.44 227.049 183.695 227.365C183.949 227.681 184.123 228.054 184.202 228.452C184.282 228.85 184.264 229.261 184.15 229.65L181.15 240.03L170.8 227.19Z" fill="#FB9100"/>
<path d="M181.19 240.69C181.134 240.7 181.076 240.7 181.02 240.69C180.94 240.668 180.864 240.63 180.799 240.579C180.733 240.528 180.678 240.464 180.637 240.392C180.596 240.319 180.57 240.239 180.56 240.157C180.55 240.074 180.557 239.99 180.58 239.91L183.58 229.52C183.668 229.229 183.683 228.921 183.624 228.622C183.565 228.324 183.433 228.045 183.24 227.81C183.05 227.573 182.805 227.385 182.526 227.263C182.247 227.141 181.943 227.088 181.64 227.11C181.472 227.121 181.306 227.065 181.179 226.955C181.051 226.844 180.973 226.688 180.96 226.52C180.954 226.437 180.965 226.354 180.992 226.276C181.019 226.197 181.061 226.125 181.116 226.062C181.171 226 181.237 225.949 181.312 225.913C181.386 225.876 181.467 225.855 181.55 225.85C182.055 225.812 182.561 225.898 183.026 226.098C183.491 226.298 183.9 226.608 184.219 227.001C184.539 227.394 184.758 227.858 184.859 228.354C184.96 228.85 184.94 229.363 184.8 229.85L181.8 240.24C181.761 240.371 181.68 240.486 181.57 240.567C181.46 240.648 181.327 240.691 181.19 240.69Z" fill="black"/>
<path d="M158.39 222.74C153.002 222.774 147.745 224.405 143.284 227.426C138.823 230.448 135.359 234.724 133.328 239.715C131.298 244.706 130.794 250.187 131.878 255.464C132.963 260.742 135.589 265.579 139.423 269.364C143.257 273.15 148.128 275.713 153.419 276.73C158.71 277.747 164.184 277.172 169.148 275.078C174.113 272.983 178.344 269.464 181.308 264.965C184.272 260.465 185.835 255.188 185.8 249.8C185.752 242.577 182.838 235.669 177.698 230.595C172.558 225.52 165.613 222.695 158.39 222.74ZM159.18 265.67C159.18 265.67 144.29 259.14 143.82 248.67C143.746 246.977 144.138 245.295 144.956 243.81C145.773 242.325 146.983 241.094 148.453 240.25C149.923 239.406 151.597 238.984 153.291 239.028C154.986 239.072 156.636 239.581 158.06 240.5C159.562 239.294 161.406 238.594 163.33 238.5C165.776 238.392 168.165 239.258 169.973 240.91C171.781 242.562 172.858 244.864 172.97 247.31C173.44 257.84 159.18 265.67 159.18 265.67Z" fill="#FB9100"/>
<path d="M348.405 82.4296C360.168 70.6671 360.168 51.5961 348.405 39.8335C336.643 28.0709 317.572 28.0709 305.809 39.8335C294.046 51.5961 294.046 70.6671 305.809 82.4296C317.572 94.1922 336.643 94.1922 348.405 82.4296Z" fill="#1B5A96"/>
<path d="M317.93 88.2001L306.3 90.9801C305.867 91.083 305.415 91.0807 304.983 90.9733C304.55 90.866 304.15 90.6567 303.815 90.363C303.481 90.0693 303.221 89.6997 303.058 89.2852C302.895 88.8706 302.834 88.4231 302.88 87.9801L304.25 76.1001L317.93 88.2001Z" fill="#1B5A96"/>
<path d="M322.67 66.65C320.986 64.9741 319.837 62.836 319.37 60.5067C318.902 58.1774 319.136 55.7616 320.043 53.5656C320.95 51.3695 322.488 49.492 324.462 48.1709C326.437 46.8498 328.759 46.1445 331.135 46.1445C333.511 46.1445 335.833 46.8498 337.808 48.1709C339.782 49.492 341.32 51.3695 342.227 53.5656C343.134 55.7616 343.368 58.1774 342.9 60.5067C342.433 62.836 341.284 64.9741 339.6 66.65C337.351 68.8881 334.308 70.1445 331.135 70.1445C327.962 70.1445 324.919 68.8881 322.67 66.65ZM336.22 53.11C335.215 52.1033 333.934 51.4174 332.539 51.139C331.144 50.8607 329.697 51.0024 328.383 51.5462C327.069 52.0901 325.945 53.0116 325.154 54.1943C324.364 55.3769 323.942 56.7675 323.942 58.19C323.942 59.6126 324.364 61.0032 325.154 62.1858C325.945 63.3684 327.069 64.29 328.383 64.8338C329.697 65.3777 331.144 65.5194 332.539 65.241C333.934 64.9627 335.215 64.2767 336.22 63.27C337.561 61.9194 338.314 60.0933 338.314 58.19C338.314 56.2868 337.561 54.4607 336.22 53.11Z" fill="#FFF6EB"/>
<path d="M314.49 74.76C314.21 74.4813 313.988 74.1501 313.837 73.7855C313.686 73.4208 313.608 73.0299 313.608 72.635C313.608 72.2402 313.686 71.8492 313.837 71.4846C313.988 71.1199 314.21 70.7887 314.49 70.51L321.56 63.43C322.124 62.8664 322.888 62.5498 323.685 62.5498C324.482 62.5498 325.246 62.8664 325.81 63.43C326.374 63.9936 326.69 64.758 326.69 65.555C326.69 66.352 326.374 67.1164 325.81 67.68L318.75 74.68C318.476 74.9665 318.149 75.196 317.786 75.3552C317.423 75.5144 317.033 75.6002 316.637 75.6076C316.241 75.6151 315.847 75.544 315.479 75.3985C315.11 75.253 314.774 75.036 314.49 74.76Z" fill="#FFF6EB"/>
<path d="M429.01 195.5L425.36 197.79C424.544 198.296 423.562 198.459 422.626 198.246C421.69 198.033 420.876 197.459 420.36 196.65L418.07 193C417.559 192.185 417.392 191.202 417.606 190.264C417.82 189.327 418.397 188.513 419.21 188L422.85 185.7C423.667 185.197 424.648 185.035 425.583 185.248C426.518 185.461 427.332 186.033 427.85 186.84L430.14 190.49C430.647 191.306 430.813 192.289 430.601 193.226C430.39 194.164 429.818 194.98 429.01 195.5Z" fill="#FFCC3D"/>
<path d="M306.16 167.52L303.95 168.91C303.452 169.221 302.851 169.323 302.278 169.194C301.705 169.065 301.206 168.715 300.89 168.22L299.5 166C299.2 165.509 299.104 164.92 299.233 164.359C299.362 163.798 299.706 163.31 300.19 163L302.41 161.59C302.904 161.296 303.492 161.204 304.051 161.335C304.611 161.465 305.098 161.808 305.41 162.29L306.81 164.51C307.115 164.998 307.217 165.585 307.096 166.147C306.974 166.709 306.639 167.201 306.16 167.52Z" fill="#FFCC3D"/>
<path d="M371.34 103.01L368.64 104.71C368.032 105.091 367.299 105.215 366.599 105.056C365.9 104.896 365.293 104.466 364.91 103.86L363.21 101.16C363.02 100.861 362.891 100.527 362.83 100.178C362.77 99.8289 362.779 99.4712 362.857 99.1255C362.935 98.7798 363.08 98.453 363.285 98.1638C363.49 97.8745 363.75 97.6286 364.05 97.4401L366.76 95.7201C367.368 95.3421 368.101 95.2194 368.8 95.3785C369.498 95.5377 370.105 95.9659 370.49 96.5701L372.19 99.2901C372.57 99.8963 372.694 100.628 372.535 101.326C372.375 102.023 371.946 102.629 371.34 103.01Z" fill="#FFCC3D"/>
<path d="M256.26 47.13L254.46 48.26C254.055 48.5145 253.566 48.5984 253.099 48.4935C252.633 48.3886 252.227 48.1033 251.97 47.7L250.84 45.9C250.586 45.4967 250.502 45.0091 250.607 44.5442C250.712 44.0793 250.997 43.675 251.4 43.42L253.21 42.28C253.614 42.0269 254.103 41.9447 254.568 42.0516C255.033 42.1585 255.437 42.4456 255.69 42.85L256.82 44.65C257.074 45.0533 257.158 45.5408 257.053 46.0057C256.948 46.4707 256.663 46.875 256.26 47.13Z" fill="#FFCC3D"/>
<path d="M379.76 67.2301L377.96 68.3601C377.555 68.6146 377.066 68.6986 376.6 68.5937C376.133 68.4887 375.727 68.2035 375.47 67.8001L374.34 66.0001C374.089 65.5961 374.007 65.1094 374.111 64.6452C374.216 64.1811 374.499 63.7769 374.9 63.5201L376.71 62.4301C377.115 62.177 377.603 62.0949 378.068 62.2018C378.533 62.3086 378.937 62.5958 379.19 63.0001L380.32 64.8001C380.559 65.1991 380.633 65.6749 380.529 66.1278C380.425 66.5807 380.149 66.9757 379.76 67.2301Z" fill="#FFCC3D"/>
</g>
</g>
<defs>
<clipPath id="clip0_47_3">
<rect width="570" height="324" fill="white"/>
</clipPath>
<clipPath id="clip1_47_3">
<rect width="323.12" height="262.87" fill="white" transform="translate(123 31)"/>
</clipPath>
</defs>
</svg>
