<svg width="570" height="324" viewBox="0 0 570 324" fill="none" xmlns="http://www.w3.org/2000/svg">
<g clip-path="url(#clip0_107_268)">
<rect width="570" height="324" fill="#FFF6EB"/>
<path d="M486.065 292.996H83.7149C83.517 292.979 83.3354 292.92 83.2039 292.829C83.0725 292.738 83 292.621 83 292.5C83 292.379 83.0725 292.262 83.2039 292.171C83.3354 292.08 83.517 292.021 83.7149 292.004H486.065C486.182 291.995 486.3 292.001 486.413 292.021C486.526 292.042 486.63 292.077 486.718 292.124C486.807 292.171 486.878 292.228 486.926 292.293C486.975 292.358 487 292.429 487 292.5C487 292.571 486.975 292.642 486.926 292.707C486.878 292.772 486.807 292.829 486.718 292.876C486.63 292.923 486.526 292.958 486.413 292.979C486.3 292.999 486.182 293.005 486.065 292.996Z" fill="#1E1E1E"/>
<g clip-path="url(#clip1_107_268)">
<path d="M239.15 86.9498H206.69C206.611 86.9473 206.536 86.9149 206.481 86.8591C206.425 86.8034 206.393 86.7286 206.39 86.6498C206.39 86.5702 206.422 86.4939 206.478 86.4376C206.534 86.3814 206.61 86.3498 206.69 86.3498H239.15C239.19 86.3484 239.23 86.3552 239.268 86.3697C239.305 86.3842 239.34 86.406 239.369 86.434C239.398 86.462 239.421 86.4955 239.436 86.5326C239.452 86.5697 239.46 86.6095 239.46 86.6498C239.457 86.7303 239.424 86.8066 239.366 86.8625C239.308 86.9185 239.231 86.9498 239.15 86.9498Z" fill="black"/>
<path d="M173.7 86.9498H142.88C142.8 86.9498 142.724 86.9182 142.668 86.8619C142.612 86.8057 142.58 86.7294 142.58 86.6498C142.579 86.61 142.585 86.5704 142.6 86.5334C142.615 86.4963 142.637 86.4627 142.665 86.4346C142.693 86.4064 142.727 86.3844 142.764 86.3698C142.801 86.3552 142.84 86.3484 142.88 86.3498H173.7C173.74 86.3484 173.779 86.3552 173.816 86.3698C173.853 86.3844 173.887 86.4064 173.915 86.4346C173.943 86.4627 173.965 86.4963 173.98 86.5334C173.995 86.5704 174.001 86.61 174 86.6498C174 86.7294 173.968 86.8057 173.912 86.8619C173.856 86.9182 173.78 86.9498 173.7 86.9498Z" fill="black"/>
<path d="M304.92 86.9498H272.15C272.07 86.9498 271.994 86.9182 271.938 86.8619C271.882 86.8057 271.85 86.7294 271.85 86.6498C271.849 86.61 271.855 86.5704 271.87 86.5334C271.885 86.4963 271.907 86.4627 271.935 86.4346C271.963 86.4064 271.997 86.3844 272.034 86.3698C272.071 86.3552 272.11 86.3484 272.15 86.3498H304.92C304.96 86.3484 304.999 86.3552 305.036 86.3698C305.073 86.3844 305.107 86.4064 305.135 86.4346C305.163 86.4627 305.185 86.4963 305.2 86.5334C305.215 86.5704 305.221 86.61 305.22 86.6498C305.22 86.7294 305.188 86.8057 305.132 86.8619C305.076 86.9182 305 86.9498 304.92 86.9498Z" fill="black"/>
<path d="M239.15 113.82H142.88C142.8 113.82 142.724 113.789 142.668 113.732C142.612 113.676 142.58 113.6 142.58 113.52C142.58 113.441 142.612 113.364 142.668 113.308C142.724 113.252 142.8 113.22 142.88 113.22H239.15C239.23 113.22 239.306 113.252 239.362 113.308C239.418 113.364 239.45 113.441 239.45 113.52C239.45 113.6 239.418 113.676 239.362 113.732C239.306 113.789 239.23 113.82 239.15 113.82Z" fill="black"/>
<path d="M304.92 113.82H272.15C272.07 113.82 271.994 113.789 271.938 113.732C271.882 113.676 271.85 113.6 271.85 113.52C271.85 113.441 271.882 113.364 271.938 113.308C271.994 113.252 272.07 113.22 272.15 113.22H304.92C305 113.22 305.076 113.252 305.132 113.308C305.188 113.364 305.22 113.441 305.22 113.52C305.22 113.6 305.188 113.676 305.132 113.732C305.076 113.789 305 113.82 304.92 113.82Z" fill="black"/>
<path d="M304.92 140.7H173.7C173.629 140.687 173.564 140.649 173.517 140.593C173.471 140.538 173.445 140.467 173.445 140.395C173.445 140.322 173.471 140.252 173.517 140.196C173.564 140.14 173.629 140.103 173.7 140.09H304.92C304.991 140.103 305.056 140.14 305.103 140.196C305.149 140.252 305.175 140.322 305.175 140.395C305.175 140.467 305.149 140.538 305.103 140.593C305.056 140.649 304.991 140.687 304.92 140.7Z" fill="black"/>
<path d="M286.63 185.4H220.86C220.789 185.387 220.724 185.349 220.677 185.294C220.631 185.238 220.605 185.168 220.605 185.095C220.605 185.022 220.631 184.952 220.677 184.896C220.724 184.841 220.789 184.803 220.86 184.79H286.63C286.701 184.803 286.766 184.841 286.813 184.896C286.859 184.952 286.885 185.022 286.885 185.095C286.885 185.168 286.859 185.238 286.813 185.294C286.766 185.349 286.701 185.387 286.63 185.4Z" fill="black"/>
<path d="M302.33 31.2998H145.46C143.861 31.2998 142.278 31.6149 140.8 32.2271C139.323 32.8394 137.981 33.7367 136.851 34.8678C135.721 35.999 134.825 37.3418 134.214 38.8195C133.603 40.2972 133.289 41.8808 133.29 43.4798V51.7898H314.46V43.4798C314.463 40.2573 313.187 37.1653 310.913 34.882C308.639 32.5986 305.553 31.3104 302.33 31.2998ZM146.03 43.2998C145.62 43.3018 145.219 43.1821 144.877 42.9558C144.536 42.7296 144.269 42.407 144.11 42.0289C143.952 41.6508 143.91 41.2343 143.989 40.8321C144.067 40.4299 144.264 40.0602 144.553 39.7697C144.842 39.4792 145.211 39.281 145.613 39.2003C146.014 39.1197 146.431 39.1601 146.81 39.3164C147.189 39.4728 147.513 39.7381 147.74 40.0787C147.968 40.4194 148.09 40.82 148.09 41.2298C148.085 41.7736 147.866 42.2935 147.48 42.6771C147.095 43.0607 146.574 43.2772 146.03 43.2798V43.2998ZM152.95 43.2998C152.54 43.3018 152.139 43.1821 151.797 42.9558C151.456 42.7296 151.189 42.407 151.03 42.0289C150.872 41.6508 150.83 41.2343 150.909 40.8321C150.987 40.4299 151.184 40.0602 151.473 39.7697C151.762 39.4792 152.131 39.281 152.533 39.2003C152.934 39.1197 153.351 39.1601 153.73 39.3164C154.109 39.4728 154.433 39.7381 154.66 40.0787C154.888 40.4194 155.01 40.82 155.01 41.2298C155.005 41.7736 154.786 42.2935 154.4 42.6771C154.015 43.0607 153.494 43.2772 152.95 43.2798V43.2998ZM159.87 43.2998C159.46 43.3018 159.059 43.1821 158.717 42.9558C158.376 42.7296 158.109 42.407 157.95 42.0289C157.792 41.6508 157.75 41.2343 157.829 40.8321C157.907 40.4299 158.104 40.0602 158.393 39.7697C158.682 39.4792 159.051 39.281 159.453 39.2003C159.854 39.1197 160.271 39.1601 160.65 39.3164C161.029 39.4728 161.353 39.7381 161.58 40.0787C161.808 40.4194 161.93 40.82 161.93 41.2298C161.925 41.7736 161.706 42.2935 161.32 42.6771C160.935 43.0607 160.414 43.2772 159.87 43.2798V43.2998Z" fill="#FB9100"/>
<path d="M314.46 52.09H133.3C133.22 52.09 133.144 52.0584 133.088 52.0022C133.032 51.9459 133 51.8696 133 51.79V43.48C133.013 40.1813 134.331 37.0218 136.665 34.6911C139 32.3605 142.161 31.0479 145.46 31.04H302.33C305.637 31.0453 308.808 32.3622 311.145 34.7018C313.483 37.0414 314.797 40.2127 314.8 43.52V51.83C314.796 51.8701 314.785 51.9091 314.765 51.9444C314.746 51.9796 314.719 52.0105 314.687 52.0349C314.655 52.0594 314.619 52.0769 314.579 52.0864C314.54 52.0959 314.5 52.0971 314.46 52.09ZM133.56 51.49H314.16V43.49C314.157 40.3418 312.906 37.3231 310.681 35.0961C308.456 32.869 305.438 31.6153 302.29 31.61H145.46C142.312 31.6153 139.294 32.869 137.069 35.0961C134.844 37.3231 133.593 40.3418 133.59 43.49L133.56 51.49ZM159.83 43.58C159.361 43.582 158.902 43.4447 158.511 43.1855C158.12 42.9263 157.814 42.5568 157.633 42.124C157.452 41.6911 157.404 41.2142 157.494 40.7538C157.585 40.2934 157.81 39.8702 158.141 39.5378C158.472 39.2053 158.894 38.9786 159.354 38.8863C159.814 38.7941 160.291 38.8404 160.725 39.0195C161.158 39.1986 161.529 39.5023 161.79 39.8923C162.051 40.2823 162.19 40.7409 162.19 41.21C162.19 41.83 161.947 42.4254 161.514 42.8685C161.08 43.3115 160.49 43.567 159.87 43.58H159.83ZM159.83 39.45C159.479 39.4481 159.135 39.5504 158.843 39.7442C158.55 39.9379 158.322 40.2142 158.187 40.5381C158.051 40.8619 158.016 41.2186 158.084 41.5629C158.152 41.9071 158.32 42.2234 158.568 42.4716C158.817 42.7197 159.133 42.8885 159.477 42.9565C159.821 43.0245 160.178 42.9886 160.502 42.8534C160.826 42.7182 161.102 42.4897 161.296 42.1971C161.49 41.9045 161.592 41.561 161.59 41.21C161.59 40.7501 161.41 40.3084 161.089 39.9795C160.767 39.6505 160.33 39.4605 159.87 39.45H159.83ZM152.91 43.58C152.441 43.582 151.982 43.4447 151.591 43.1855C151.2 42.9263 150.894 42.5568 150.713 42.124C150.532 41.6911 150.484 41.2142 150.574 40.7538C150.665 40.2934 150.89 39.8702 151.221 39.5378C151.552 39.2053 151.974 38.9786 152.434 38.8863C152.894 38.7941 153.371 38.8404 153.805 39.0195C154.238 39.1986 154.609 39.5023 154.87 39.8923C155.131 40.2823 155.27 40.7409 155.27 41.21C155.27 41.83 155.027 42.4254 154.594 42.8685C154.16 43.3115 153.57 43.567 152.95 43.58H152.91ZM152.91 39.45C152.559 39.4481 152.215 39.5504 151.923 39.7442C151.63 39.9379 151.402 40.2142 151.267 40.5381C151.131 40.8619 151.096 41.2186 151.164 41.5629C151.232 41.9071 151.4 42.2234 151.648 42.4716C151.897 42.7197 152.213 42.8885 152.557 42.9565C152.901 43.0245 153.258 42.9886 153.582 42.8534C153.906 42.7182 154.182 42.4897 154.376 42.1971C154.57 41.9045 154.672 41.561 154.67 41.21C154.67 40.7501 154.49 40.3084 154.169 39.9795C153.847 39.6505 153.41 39.4605 152.95 39.45H152.91ZM145.99 43.58C145.521 43.582 145.062 43.4447 144.671 43.1855C144.28 42.9263 143.974 42.5568 143.793 42.124C143.612 41.6911 143.564 41.2142 143.654 40.7538C143.745 40.2934 143.97 39.8702 144.301 39.5378C144.632 39.2053 145.054 38.9786 145.514 38.8863C145.974 38.7941 146.451 38.8404 146.885 39.0195C147.318 39.1986 147.689 39.5023 147.95 39.8923C148.211 40.2823 148.35 40.7409 148.35 41.21C148.35 41.83 148.107 42.4254 147.674 42.8685C147.24 43.3115 146.65 43.567 146.03 43.58H145.99ZM145.99 39.45C145.639 39.4481 145.296 39.5504 145.003 39.7442C144.71 39.9379 144.482 40.2142 144.347 40.5381C144.211 40.8619 144.176 41.2186 144.244 41.5629C144.312 41.9071 144.48 42.2234 144.728 42.4716C144.977 42.7197 145.293 42.8885 145.637 42.9565C145.981 43.0245 146.338 42.9886 146.662 42.8534C146.986 42.7182 147.262 42.4897 147.456 42.1971C147.65 41.9045 147.752 41.561 147.75 41.21C147.75 40.7501 147.57 40.3084 147.249 39.9795C146.927 39.6505 146.49 39.4605 146.03 39.45H145.99Z" fill="black"/>
<path d="M146.03 43.5798C145.561 43.5818 145.102 43.4445 144.711 43.1853C144.32 42.9261 144.014 42.5566 143.833 42.1237C143.652 41.6909 143.604 41.214 143.694 40.7536C143.785 40.2932 144.01 39.87 144.341 39.5375C144.672 39.2051 145.094 38.9784 145.554 38.8861C146.014 38.7939 146.491 38.8402 146.925 39.0193C147.358 39.1984 147.729 39.5021 147.99 39.8921C148.251 40.282 148.39 40.7407 148.39 41.2098C148.39 41.8367 148.142 42.438 147.699 42.8821C147.257 43.3263 146.657 43.5772 146.03 43.5798ZM146.03 39.4498C145.679 39.4478 145.336 39.5502 145.043 39.744C144.75 39.9377 144.522 40.214 144.387 40.5378C144.251 40.8617 144.216 41.2184 144.284 41.5627C144.352 41.9069 144.52 42.2232 144.768 42.4714C145.017 42.7195 145.333 42.8883 145.677 42.9563C146.021 43.0242 146.378 42.9884 146.702 42.8531C147.026 42.7179 147.302 42.4895 147.496 42.1969C147.69 41.9043 147.792 41.5607 147.79 41.2098C147.79 40.743 147.605 40.2954 147.275 39.9653C146.944 39.6352 146.497 39.4498 146.03 39.4498Z" fill="#292929"/>
<path d="M152.95 43.5798C152.481 43.5818 152.022 43.4445 151.631 43.1853C151.239 42.9261 150.934 42.5566 150.753 42.1237C150.572 41.6909 150.524 41.214 150.614 40.7536C150.705 40.2932 150.93 39.87 151.261 39.5375C151.592 39.2051 152.014 38.9784 152.474 38.8861C152.934 38.7939 153.411 38.8402 153.845 39.0193C154.278 39.1984 154.649 39.5021 154.91 39.8921C155.171 40.282 155.31 40.7407 155.31 41.2098C155.31 41.8367 155.062 42.438 154.619 42.8821C154.177 43.3263 153.577 43.5772 152.95 43.5798ZM152.95 39.4498C152.599 39.4478 152.255 39.5502 151.963 39.744C151.67 39.9377 151.442 40.214 151.307 40.5378C151.171 40.8617 151.136 41.2184 151.204 41.5627C151.271 41.9069 151.44 42.2232 151.688 42.4714C151.937 42.7195 152.253 42.8883 152.597 42.9563C152.941 43.0242 153.298 42.9884 153.622 42.8531C153.946 42.7179 154.222 42.4895 154.416 42.1969C154.61 41.9043 154.712 41.5607 154.71 41.2098C154.71 40.743 154.525 40.2954 154.194 39.9653C153.864 39.6352 153.417 39.4498 152.95 39.4498Z" fill="#292929"/>
<path d="M159.87 43.5798C159.401 43.5818 158.942 43.4445 158.551 43.1853C158.16 42.9261 157.854 42.5566 157.673 42.1237C157.492 41.6909 157.444 41.214 157.534 40.7536C157.625 40.2932 157.85 39.87 158.181 39.5375C158.512 39.2051 158.934 38.9784 159.394 38.8861C159.854 38.7939 160.331 38.8402 160.765 39.0193C161.198 39.1984 161.569 39.5021 161.83 39.8921C162.091 40.282 162.23 40.7407 162.23 41.2098C162.23 41.8367 161.982 42.438 161.539 42.8821C161.097 43.3263 160.497 43.5772 159.87 43.5798ZM159.87 39.4498C159.519 39.4478 159.175 39.5502 158.883 39.744C158.59 39.9377 158.362 40.214 158.227 40.5378C158.091 40.8617 158.056 41.2184 158.124 41.5627C158.192 41.9069 158.36 42.2232 158.608 42.4714C158.857 42.7195 159.173 42.8883 159.517 42.9563C159.861 43.0242 160.218 42.9884 160.542 42.8531C160.866 42.7179 161.142 42.4895 161.336 42.1969C161.53 41.9043 161.632 41.5607 161.63 41.2098C161.63 40.743 161.445 40.2954 161.115 39.9653C160.784 39.6352 160.337 39.4498 159.87 39.4498Z" fill="#292929"/>
<path d="M302.33 177.15H145.46C142.153 177.145 138.982 175.828 136.645 173.488C134.307 171.149 132.993 167.977 132.99 164.67V51.7899C132.99 51.7104 133.022 51.6341 133.078 51.5778C133.134 51.5215 133.21 51.4899 133.29 51.4899H314.46C314.5 51.4885 314.539 51.4953 314.576 51.5099C314.613 51.5245 314.647 51.5465 314.675 51.5747C314.703 51.6028 314.725 51.6365 314.74 51.6735C314.755 51.7105 314.761 51.7502 314.76 51.7899V164.67C314.757 167.97 313.449 171.136 311.119 173.474C308.79 175.813 305.63 177.134 302.33 177.15ZM133.6 52.0899V164.67C133.603 167.816 134.852 170.834 137.075 173.06C139.298 175.287 142.313 176.542 145.46 176.55H302.33C305.478 176.545 308.496 175.291 310.721 173.064C312.946 170.837 314.197 167.818 314.2 164.67V52.0899H133.6Z" fill="black"/>
<path d="M148.09 41.2099C148.09 41.6173 147.969 42.0156 147.743 42.3544C147.516 42.6931 147.195 42.9572 146.818 43.1131C146.442 43.269 146.028 43.3098 145.628 43.2303C145.228 43.1508 144.861 42.9546 144.573 42.6665C144.285 42.3784 144.089 42.0114 144.01 41.6118C143.93 41.2122 143.971 40.798 144.127 40.4216C144.283 40.0452 144.547 39.7234 144.885 39.4971C145.224 39.2707 145.623 39.1499 146.03 39.1499C146.576 39.1525 147.098 39.3704 147.484 39.7562C147.869 40.1419 148.087 40.6644 148.09 41.2099Z" fill="#FFF6EB"/>
<path d="M154.937 41.6775C155.198 40.57 154.511 39.4612 153.403 39.201C152.296 38.9408 151.187 39.6277 150.927 40.7353C150.666 41.8429 151.353 42.9516 152.461 43.2118C153.568 43.472 154.677 42.7851 154.937 41.6775Z" fill="#FFF6EB"/>
<path d="M161.93 41.2099C161.932 41.6202 161.812 42.0218 161.585 42.3637C161.359 42.7056 161.035 42.9725 160.657 43.1304C160.278 43.2883 159.861 43.3302 159.459 43.2506C159.056 43.1711 158.686 42.9737 158.396 42.6836C158.106 42.3935 157.909 42.0238 157.829 41.6213C157.75 41.2188 157.792 40.8018 157.95 40.4231C158.107 40.0445 158.374 39.7213 158.716 39.4946C159.058 39.2679 159.46 39.1479 159.87 39.1499C160.416 39.1526 160.938 39.3704 161.324 39.7562C161.71 40.1419 161.927 40.6644 161.93 41.2099Z" fill="#FFF6EB"/>
<path d="M296.98 166.64H173.7C173.62 166.64 173.544 166.608 173.488 166.552C173.432 166.496 173.4 166.419 173.4 166.34V140.7H142.88C142.84 140.7 142.8 140.692 142.763 140.676C142.726 140.66 142.692 140.637 142.664 140.609C142.636 140.58 142.614 140.545 142.6 140.508C142.585 140.47 142.579 140.43 142.58 140.39V69.7099C142.58 67.5263 143.447 65.4319 144.99 63.8869C146.533 62.3419 148.626 61.4726 150.81 61.4699H173.7C173.74 61.4685 173.779 61.4753 173.816 61.4899C173.853 61.5045 173.887 61.5265 173.915 61.5547C173.943 61.5828 173.965 61.6164 173.98 61.6535C173.995 61.6905 174.001 61.7301 174 61.7699V86.3499H206.39V61.7699C206.39 61.7305 206.398 61.6915 206.413 61.6551C206.428 61.6187 206.45 61.5856 206.478 61.5578C206.506 61.5299 206.539 61.5078 206.575 61.4927C206.612 61.4777 206.651 61.4699 206.69 61.4699H296.98C299.165 61.4699 301.261 62.338 302.807 63.8833C304.352 65.4286 305.22 67.5245 305.22 69.7099V158.4C305.217 160.584 304.348 162.679 302.804 164.224C301.259 165.768 299.165 166.637 296.98 166.64ZM173.98 166.04H296.98C299.005 166.037 300.947 165.231 302.379 163.799C303.812 162.367 304.617 160.425 304.62 158.4V69.7099C304.623 68.7044 304.427 67.7083 304.044 66.7785C303.662 65.8487 303.1 65.0035 302.39 64.2911C301.68 63.5788 300.837 63.0133 299.909 62.627C298.981 62.2407 297.985 62.0412 296.98 62.0399H206.98V86.6499C206.98 86.7295 206.948 86.8058 206.892 86.862C206.836 86.9183 206.76 86.9499 206.68 86.9499H173.68C173.641 86.9499 173.602 86.9421 173.565 86.9271C173.529 86.912 173.496 86.8899 173.468 86.862C173.44 86.8342 173.418 86.8011 173.403 86.7647C173.388 86.7283 173.38 86.6893 173.38 86.6499V62.0399H150.81C148.786 62.0452 146.847 62.8521 145.417 64.2841C143.987 65.716 143.183 67.6562 143.18 69.6799V140.06H173.7C173.78 140.06 173.856 140.092 173.912 140.148C173.968 140.204 174 140.28 174 140.36L173.98 166.04Z" fill="black"/>
<path d="M272.15 113.82H239.15C239.07 113.82 238.994 113.788 238.938 113.732C238.882 113.676 238.85 113.6 238.85 113.52V86.6501C238.85 86.5705 238.882 86.4942 238.938 86.438C238.994 86.3817 239.07 86.3501 239.15 86.3501H272.15C272.189 86.3501 272.228 86.3579 272.265 86.3729C272.301 86.388 272.334 86.4101 272.362 86.438C272.39 86.4658 272.412 86.4989 272.427 86.5353C272.442 86.5717 272.45 86.6107 272.45 86.6501V113.52C272.45 113.559 272.442 113.599 272.427 113.635C272.412 113.671 272.39 113.704 272.362 113.732C272.334 113.76 272.301 113.782 272.265 113.797C272.228 113.812 272.189 113.82 272.15 113.82ZM239.46 113.22H271.85V86.9501H239.46V113.22Z" fill="#292929"/>
<path d="M173.7 140.39V166.39H150.81C148.706 166.387 146.689 165.55 145.202 164.061C143.715 162.572 142.88 160.554 142.88 158.45V140.45L173.7 140.39Z" fill="#FB9100"/>
<path d="M173.7 166.64H150.81C148.627 166.635 146.535 165.765 144.993 164.22C143.45 162.676 142.583 160.583 142.58 158.4V140.4C142.58 140.361 142.588 140.322 142.603 140.285C142.618 140.249 142.64 140.216 142.668 140.188C142.696 140.16 142.729 140.138 142.765 140.123C142.802 140.108 142.841 140.1 142.88 140.1H173.7C173.78 140.1 173.856 140.132 173.912 140.188C173.968 140.244 174 140.321 174 140.4V166.4C173.986 166.469 173.948 166.531 173.893 166.574C173.839 166.618 173.77 166.642 173.7 166.64ZM143.18 140.7V158.4C143.183 160.424 143.987 162.364 145.417 163.796C146.847 165.228 148.786 166.035 150.81 166.04H173.4V140.7H143.18Z" fill="black"/>
<path d="M173.7 140.7C173.66 140.7 173.62 140.692 173.583 140.676C173.546 140.661 173.512 140.638 173.484 140.609C173.456 140.58 173.434 140.546 173.42 140.508C173.405 140.47 173.399 140.43 173.4 140.39V86.6501C173.4 86.5705 173.432 86.4942 173.488 86.438C173.544 86.3817 173.62 86.3501 173.7 86.3501C173.78 86.3501 173.856 86.3817 173.912 86.438C173.968 86.4942 174 86.5705 174 86.6501V140.39C174.001 140.43 173.995 140.47 173.98 140.508C173.966 140.546 173.944 140.58 173.916 140.609C173.888 140.638 173.854 140.661 173.817 140.676C173.78 140.692 173.74 140.7 173.7 140.7Z" fill="black"/>
<path d="M206.69 166.64C206.611 166.637 206.536 166.605 206.481 166.549C206.425 166.493 206.393 166.419 206.39 166.34V86.6498C206.39 86.5702 206.422 86.4939 206.478 86.4377C206.534 86.3814 206.61 86.3498 206.69 86.3498C206.73 86.3484 206.769 86.3552 206.806 86.3698C206.843 86.3844 206.877 86.4064 206.905 86.4346C206.933 86.4627 206.955 86.4963 206.97 86.5334C206.985 86.5704 206.991 86.61 206.99 86.6498V166.34C206.99 166.379 206.982 166.418 206.967 166.455C206.952 166.491 206.93 166.524 206.902 166.552C206.874 166.58 206.841 166.602 206.805 166.617C206.768 166.632 206.729 166.64 206.69 166.64Z" fill="black"/>
<path d="M239.15 166.64C239.071 166.638 238.996 166.605 238.941 166.55C238.885 166.494 238.852 166.419 238.85 166.34V113.52C238.863 113.449 238.901 113.384 238.956 113.338C239.012 113.291 239.082 113.266 239.155 113.266C239.228 113.266 239.298 113.291 239.354 113.338C239.409 113.384 239.447 113.449 239.46 113.52V166.34C239.457 166.421 239.424 166.497 239.366 166.553C239.308 166.609 239.23 166.64 239.15 166.64Z" fill="black"/>
<path d="M239.15 86.9502C239.071 86.9477 238.996 86.9153 238.941 86.8595C238.885 86.8038 238.852 86.7289 238.85 86.6502V61.7702C238.863 61.6987 238.901 61.6341 238.956 61.5876C239.012 61.5411 239.082 61.5156 239.155 61.5156C239.228 61.5156 239.298 61.5411 239.354 61.5876C239.409 61.6341 239.447 61.6987 239.46 61.7702V86.6502C239.457 86.7306 239.424 86.807 239.366 86.8629C239.308 86.9189 239.23 86.9502 239.15 86.9502Z" fill="#292929"/>
<path d="M272.14 86.6499H239.15V113.52H272.14V86.6499Z" fill="#1B5A96"/>
<path d="M272.15 113.82H239.15C239.07 113.82 238.994 113.788 238.938 113.732C238.882 113.676 238.85 113.6 238.85 113.52V86.6501C238.85 86.5705 238.882 86.4942 238.938 86.438C238.994 86.3817 239.07 86.3501 239.15 86.3501H272.15C272.189 86.3501 272.228 86.3579 272.265 86.3729C272.301 86.388 272.334 86.4101 272.362 86.438C272.39 86.4658 272.412 86.4989 272.427 86.5353C272.442 86.5717 272.45 86.6107 272.45 86.6501V113.52C272.45 113.559 272.442 113.599 272.427 113.635C272.412 113.671 272.39 113.704 272.362 113.732C272.334 113.76 272.301 113.782 272.265 113.797C272.228 113.812 272.189 113.82 272.15 113.82ZM239.46 113.22H271.85V86.9501H239.46V113.22Z" fill="black"/>
<path d="M272.15 166.64C272.07 166.64 271.994 166.608 271.938 166.552C271.882 166.496 271.85 166.419 271.85 166.34V113.52C271.849 113.48 271.855 113.44 271.87 113.403C271.885 113.366 271.907 113.333 271.935 113.305C271.963 113.277 271.997 113.254 272.034 113.24C272.071 113.225 272.11 113.219 272.15 113.22C272.189 113.22 272.228 113.228 272.265 113.243C272.301 113.258 272.334 113.28 272.362 113.308C272.39 113.336 272.412 113.369 272.427 113.405C272.442 113.441 272.45 113.481 272.45 113.52V166.34C272.448 166.419 272.415 166.494 272.359 166.549C272.304 166.605 272.229 166.637 272.15 166.64Z" fill="black"/>
<path d="M272.15 86.9499C272.07 86.9499 271.994 86.9183 271.938 86.862C271.882 86.8058 271.85 86.7295 271.85 86.6499V61.7699C271.849 61.7301 271.855 61.6905 271.87 61.6535C271.885 61.6164 271.907 61.5828 271.935 61.5547C271.963 61.5265 271.997 61.5045 272.034 61.4899C272.071 61.4753 272.11 61.4685 272.15 61.4699C272.189 61.4699 272.228 61.4777 272.265 61.4927C272.301 61.5078 272.334 61.5299 272.362 61.5578C272.39 61.5856 272.412 61.6187 272.427 61.6551C272.442 61.6915 272.45 61.7305 272.45 61.7699V86.6499C272.448 86.7287 272.415 86.8035 272.359 86.8593C272.304 86.915 272.229 86.9474 272.15 86.9499Z" fill="black"/>
<path d="M206.69 61.77H173.7V86.65H206.69V61.77Z" fill="#C66A05"/>
<path d="M206.69 86.9499H173.69C173.61 86.9499 173.534 86.9183 173.478 86.862C173.422 86.8058 173.39 86.7295 173.39 86.6499V61.7699C173.389 61.7301 173.395 61.6905 173.41 61.6535C173.425 61.6164 173.447 61.5828 173.475 61.5547C173.503 61.5265 173.536 61.5045 173.574 61.4899C173.611 61.4753 173.65 61.4685 173.69 61.4699H206.69C206.73 61.4685 206.769 61.4753 206.806 61.4899C206.843 61.5045 206.877 61.5265 206.905 61.5547C206.933 61.5828 206.955 61.6164 206.97 61.6535C206.985 61.6905 206.991 61.7301 206.99 61.7699V86.6499C206.99 86.6893 206.982 86.7283 206.967 86.7647C206.952 86.8011 206.93 86.8342 206.902 86.862C206.874 86.8899 206.841 86.912 206.805 86.9271C206.768 86.9421 206.729 86.9499 206.69 86.9499ZM174 86.3499H206.39V62.0399H174V86.3499Z" fill="black"/>
<path d="M160.66 122.6H147.66C147.58 122.6 147.504 122.568 147.448 122.512C147.392 122.456 147.36 122.38 147.36 122.3V119.91C147.36 119.83 147.392 119.754 147.448 119.698C147.504 119.642 147.58 119.61 147.66 119.61H160.66C160.7 119.609 160.739 119.615 160.776 119.63C160.813 119.645 160.847 119.667 160.875 119.695C160.903 119.723 160.925 119.757 160.94 119.794C160.955 119.831 160.961 119.87 160.96 119.91V122.3C160.961 122.34 160.955 122.379 160.94 122.416C160.925 122.454 160.903 122.487 160.875 122.515C160.847 122.543 160.813 122.565 160.776 122.58C160.739 122.595 160.7 122.601 160.66 122.6ZM147.93 122H160.36V120.21H147.93V122Z" fill="black"/>
<path d="M168.64 127.39H147.64C147.56 127.39 147.484 127.359 147.428 127.302C147.372 127.246 147.34 127.17 147.34 127.09V124.7C147.34 124.62 147.371 124.542 147.427 124.484C147.483 124.427 147.559 124.393 147.64 124.39H168.64C168.722 124.39 168.801 124.423 168.859 124.481C168.917 124.539 168.95 124.618 168.95 124.7V127.09C168.95 127.13 168.942 127.17 168.926 127.207C168.911 127.244 168.888 127.278 168.859 127.306C168.83 127.334 168.795 127.356 168.758 127.37C168.72 127.385 168.68 127.391 168.64 127.39ZM147.93 126.79H168.34V125.04H147.93V126.79Z" fill="black"/>
<path d="M162.26 132.18H147.62C147.581 132.18 147.542 132.172 147.505 132.157C147.469 132.142 147.436 132.12 147.408 132.092C147.38 132.064 147.358 132.031 147.343 131.995C147.328 131.959 147.32 131.92 147.32 131.88V129.49C147.32 129.41 147.351 129.332 147.407 129.274C147.463 129.217 147.539 129.183 147.62 129.18H162.26C162.3 129.18 162.34 129.188 162.377 129.204C162.414 129.22 162.448 129.243 162.476 129.272C162.504 129.3 162.526 129.335 162.54 129.372C162.555 129.41 162.561 129.45 162.56 129.49V131.88C162.561 131.92 162.555 131.96 162.54 131.997C162.525 132.034 162.503 132.067 162.475 132.095C162.447 132.124 162.413 132.146 162.376 132.16C162.339 132.175 162.3 132.182 162.26 132.18ZM147.93 131.58H161.93V129.79H147.93V131.58Z" fill="black"/>
<path d="M224.52 70.7202H211.46C211.381 70.7177 211.306 70.6853 211.251 70.6296C211.195 70.5739 211.163 70.499 211.16 70.4202V68.0402C211.163 67.9615 211.195 67.8866 211.251 67.8309C211.306 67.7752 211.381 67.7427 211.46 67.7402H224.46C224.54 67.7402 224.616 67.7718 224.672 67.8281C224.728 67.8844 224.76 67.9607 224.76 68.0402V70.4402C224.757 70.507 224.732 70.5707 224.688 70.6215C224.645 70.6722 224.586 70.7069 224.52 70.7202ZM211.78 70.1202H224.22V68.3202H211.78V70.1202Z" fill="black"/>
<path d="M232.46 75.5099H211.46C211.381 75.5074 211.306 75.475 211.251 75.4193C211.195 75.3636 211.163 75.2887 211.16 75.2099V72.8099C211.16 72.7304 211.192 72.6541 211.248 72.5978C211.304 72.5416 211.38 72.5099 211.46 72.5099H232.46C232.5 72.5085 232.539 72.5154 232.576 72.5299C232.614 72.5445 232.647 72.5666 232.675 72.5947C232.703 72.6228 232.725 72.6565 232.74 72.6935C232.755 72.7305 232.761 72.7702 232.76 72.8099V75.2099C232.76 75.2895 232.728 75.3658 232.672 75.4221C232.616 75.4783 232.54 75.5099 232.46 75.5099ZM211.74 74.8999H232.16V73.1099H211.78L211.74 74.8999Z" fill="black"/>
<path d="M226.12 80.2998H211.46C211.381 80.2973 211.306 80.2649 211.251 80.2092C211.195 80.1534 211.163 80.0786 211.16 79.9998V77.5998C211.16 77.5202 211.192 77.4439 211.248 77.3877C211.304 77.3314 211.38 77.2998 211.46 77.2998H226.1C226.18 77.2998 226.256 77.3314 226.312 77.3877C226.368 77.4439 226.4 77.5202 226.4 77.5998V80.0398C226.389 80.1082 226.356 80.1709 226.305 80.2181C226.254 80.2652 226.189 80.294 226.12 80.2998ZM211.78 79.6898H225.78V77.8998H211.78V79.6898Z" fill="black"/>
<path d="M224.52 150.04H211.46C211.381 150.038 211.306 150.005 211.251 149.949C211.195 149.894 211.163 149.819 211.16 149.74V147.34C211.163 147.261 211.195 147.186 211.251 147.131C211.306 147.075 211.381 147.043 211.46 147.04H224.46C224.54 147.04 224.616 147.072 224.672 147.128C224.728 147.184 224.76 147.26 224.76 147.34V149.74C224.761 149.81 224.738 149.879 224.694 149.934C224.651 149.988 224.589 150.026 224.52 150.04ZM211.78 149.44H224.22V147.64H211.78V149.44Z" fill="black"/>
<path d="M232.46 154.8H211.46C211.381 154.797 211.306 154.765 211.251 154.709C211.195 154.653 211.163 154.579 211.16 154.5V152.1C211.163 152.021 211.195 151.946 211.251 151.89C211.306 151.835 211.381 151.802 211.46 151.8H232.46C232.499 151.8 232.538 151.808 232.575 151.823C232.611 151.838 232.644 151.86 232.672 151.888C232.7 151.916 232.722 151.949 232.737 151.985C232.752 152.021 232.76 152.06 232.76 152.1V154.5C232.76 154.579 232.728 154.656 232.672 154.712C232.616 154.768 232.54 154.8 232.46 154.8ZM211.74 154.19H232.16V152.4H211.78L211.74 154.19Z" fill="black"/>
<path d="M226.12 159.59H211.46C211.381 159.587 211.306 159.555 211.251 159.499C211.195 159.443 211.163 159.369 211.16 159.29V156.89C211.16 156.85 211.168 156.811 211.183 156.775C211.198 156.739 211.22 156.706 211.248 156.678C211.276 156.65 211.309 156.628 211.345 156.613C211.382 156.598 211.421 156.59 211.46 156.59H226.1C226.139 156.59 226.178 156.598 226.215 156.613C226.251 156.628 226.284 156.65 226.312 156.678C226.34 156.706 226.362 156.739 226.377 156.775C226.392 156.811 226.4 156.85 226.4 156.89V159.29C226.398 159.365 226.368 159.438 226.317 159.493C226.265 159.548 226.195 159.583 226.12 159.59ZM211.78 158.98H225.78V157.19H211.78V158.98Z" fill="black"/>
<path d="M188.33 132.71C188.288 132.711 188.247 132.702 188.209 132.685C188.171 132.668 188.137 132.642 188.11 132.61L181.72 125.43C181.691 125.402 181.668 125.369 181.653 125.332C181.637 125.295 181.629 125.255 181.629 125.215C181.629 125.175 181.637 125.135 181.653 125.098C181.668 125.061 181.691 125.028 181.72 125C181.747 124.972 181.78 124.949 181.816 124.933C181.852 124.918 181.891 124.91 181.93 124.91C181.969 124.91 182.008 124.918 182.044 124.933C182.08 124.949 182.113 124.972 182.14 125L188.31 131.93L198.46 121.04C198.488 121.011 198.521 120.988 198.558 120.973C198.595 120.957 198.635 120.949 198.675 120.949C198.715 120.949 198.755 120.957 198.792 120.973C198.829 120.988 198.862 121.011 198.89 121.04C198.918 121.067 198.941 121.1 198.957 121.136C198.972 121.172 198.98 121.211 198.98 121.25C198.98 121.289 198.972 121.328 198.957 121.364C198.941 121.4 198.918 121.433 198.89 121.46L188.56 132.62C188.53 132.649 188.494 132.673 188.454 132.688C188.415 132.704 188.372 132.711 188.33 132.71Z" fill="black"/>
<path d="M255.12 161.72C255.032 161.715 254.949 161.675 254.89 161.61L248.51 154.43C248.457 154.371 248.43 154.292 248.434 154.213C248.439 154.133 248.475 154.058 248.535 154.005C248.595 153.952 248.673 153.925 248.753 153.93C248.832 153.934 248.907 153.971 248.96 154.03L255.12 160.97L265.28 150.04C265.307 150.012 265.34 149.989 265.376 149.974C265.412 149.958 265.451 149.95 265.49 149.95C265.529 149.95 265.568 149.958 265.604 149.974C265.64 149.989 265.673 150.012 265.7 150.04C265.755 150.096 265.786 150.172 265.786 150.25C265.786 150.329 265.755 150.404 265.7 150.46L255.32 161.64C255.265 161.689 255.194 161.717 255.12 161.72Z" fill="#292929"/>
<path d="M286.52 80.8301C286.436 80.8268 286.357 80.7909 286.3 80.7301L279.91 73.5401C279.855 73.484 279.824 73.4086 279.824 73.3301C279.824 73.2516 279.855 73.1762 279.91 73.1201C279.968 73.0645 280.045 73.0334 280.125 73.0334C280.205 73.0334 280.282 73.0645 280.34 73.1201L286.52 80.0401L296.67 69.1101C296.728 69.0545 296.805 69.0234 296.885 69.0234C296.965 69.0234 297.042 69.0545 297.1 69.1101C297.129 69.1381 297.152 69.1715 297.167 69.2084C297.183 69.2453 297.191 69.285 297.191 69.3251C297.191 69.3652 297.183 69.4049 297.167 69.4418C297.152 69.4787 297.129 69.5122 297.1 69.5401L286.74 80.7301C286.683 80.7909 286.604 80.8268 286.52 80.8301Z" fill="black"/>
<path d="M190.3 112.76C187.793 112.762 185.343 112.021 183.257 110.631C181.171 109.24 179.544 107.263 178.582 104.948C177.62 102.634 177.365 100.086 177.85 97.627C178.335 95.1677 179.537 92.9074 181.306 91.1315C183.075 89.3556 185.331 88.1438 187.788 87.6492C190.245 87.1546 192.794 87.3994 195.113 88.3527C197.431 89.306 199.414 90.925 200.813 93.0052C202.212 95.0853 202.962 97.5333 202.97 100.04C202.975 103.406 201.644 106.637 199.268 109.022C196.892 111.408 193.667 112.752 190.3 112.76ZM190.3 88.0099C187.911 88.0099 185.576 88.7188 183.59 90.0469C181.604 91.3749 180.057 93.2624 179.145 95.4702C178.233 97.678 177.996 100.107 178.465 102.449C178.934 104.792 180.087 106.942 181.78 108.629C183.472 110.315 185.626 111.462 187.97 111.923C190.314 112.384 192.742 112.139 194.947 111.22C197.152 110.3 199.034 108.747 200.355 106.757C201.677 104.766 202.378 102.429 202.37 100.04C202.349 96.8517 201.068 93.8011 198.807 91.5532C196.546 89.3054 193.488 88.0425 190.3 88.0399V88.0099Z" fill="black"/>
<path d="M190.3 103.58C190.261 103.58 190.222 103.572 190.185 103.557C190.149 103.542 190.116 103.52 190.088 103.492C190.06 103.464 190.038 103.431 190.023 103.395C190.008 103.358 190 103.319 190 103.28V91.6999C190 91.6605 190.008 91.6215 190.023 91.5851C190.038 91.5487 190.06 91.5156 190.088 91.4878C190.116 91.4599 190.149 91.4378 190.185 91.4227C190.222 91.4077 190.261 91.3999 190.3 91.3999C190.379 91.4024 190.454 91.4348 190.509 91.4905C190.565 91.5463 190.598 91.6211 190.6 91.6999V103.28C190.598 103.359 190.565 103.434 190.509 103.489C190.454 103.545 190.379 103.577 190.3 103.58Z" fill="black"/>
<path d="M190.3 108.2C190.814 108.2 191.23 107.783 191.23 107.27C191.23 106.756 190.814 106.34 190.3 106.34C189.786 106.34 189.37 106.756 189.37 107.27C189.37 107.783 189.786 108.2 190.3 108.2Z" fill="black"/>
<path d="M255.22 139.63C252.711 139.632 250.258 138.89 248.172 137.497C246.085 136.105 244.458 134.124 243.497 131.807C242.536 129.49 242.284 126.939 242.773 124.479C243.262 122.018 244.47 119.758 246.244 117.984C248.018 116.21 250.278 115.002 252.739 114.513C255.199 114.024 257.75 114.276 260.067 115.237C262.384 116.198 264.365 117.825 265.757 119.912C267.15 121.998 267.892 124.451 267.89 126.96C267.887 130.319 266.552 133.541 264.176 135.916C261.801 138.292 258.58 139.627 255.22 139.63ZM255.22 114.89C252.833 114.89 250.499 115.598 248.514 116.924C246.529 118.25 244.982 120.136 244.069 122.341C243.155 124.547 242.916 126.973 243.382 129.315C243.848 131.656 244.997 133.807 246.685 135.495C248.373 137.183 250.524 138.332 252.865 138.798C255.207 139.264 257.634 139.025 259.839 138.111C262.045 137.198 263.93 135.651 265.256 133.666C266.582 131.681 267.29 129.347 267.29 126.96C267.287 123.76 266.015 120.691 263.752 118.428C261.489 116.165 258.42 114.893 255.22 114.89Z" fill="black"/>
<path d="M255.22 130.45C255.18 130.451 255.141 130.444 255.104 130.43C255.067 130.415 255.033 130.393 255.005 130.365C254.977 130.337 254.955 130.303 254.94 130.266C254.925 130.229 254.919 130.19 254.92 130.15V118.58C254.92 118.5 254.952 118.424 255.008 118.368C255.064 118.311 255.14 118.28 255.22 118.28C255.3 118.28 255.376 118.311 255.432 118.368C255.488 118.424 255.52 118.5 255.52 118.58V130.15C255.521 130.19 255.515 130.229 255.5 130.266C255.485 130.303 255.463 130.337 255.435 130.365C255.407 130.393 255.373 130.415 255.336 130.43C255.299 130.444 255.26 130.451 255.22 130.45Z" fill="black"/>
<path d="M256.15 134.14C256.15 134.324 256.095 134.504 255.993 134.657C255.891 134.81 255.746 134.929 255.576 134.999C255.406 135.07 255.219 135.088 255.039 135.052C254.858 135.016 254.692 134.928 254.562 134.798C254.432 134.668 254.344 134.502 254.308 134.321C254.272 134.141 254.29 133.954 254.361 133.784C254.431 133.614 254.55 133.469 254.703 133.367C254.856 133.265 255.036 133.21 255.22 133.21C255.467 133.21 255.703 133.308 255.878 133.482C256.052 133.657 256.15 133.893 256.15 134.14Z" fill="black"/>
<path d="M288.6 252.1H246.39C246.351 252.1 246.312 252.092 246.275 252.077C246.239 252.062 246.206 252.04 246.178 252.012C246.15 251.984 246.128 251.951 246.113 251.915C246.098 251.878 246.09 251.839 246.09 251.8V209.6C246.09 209.52 246.121 209.442 246.177 209.384C246.233 209.326 246.309 209.293 246.39 209.29H288.6C288.68 209.293 288.757 209.326 288.813 209.384C288.869 209.442 288.9 209.52 288.9 209.6V251.8C288.9 251.88 288.868 251.956 288.812 252.012C288.756 252.068 288.68 252.1 288.6 252.1ZM246.69 251.5H288.29V209.9H246.69V251.5Z" fill="black"/>
<path d="M267.49 246.95C276.465 246.95 283.74 239.675 283.74 230.7C283.74 221.726 276.465 214.45 267.49 214.45C258.515 214.45 251.24 221.726 251.24 230.7C251.24 239.675 258.515 246.95 267.49 246.95Z" fill="#1B5A96"/>
<path d="M269.613 231.186C269.89 230.015 269.164 228.841 267.992 228.564C266.82 228.287 265.646 229.013 265.37 230.185C265.093 231.357 265.819 232.531 266.991 232.807C268.162 233.084 269.337 232.358 269.613 231.186Z" fill="white"/>
<path d="M280.11 231.37H267.62C267.538 231.37 267.459 231.337 267.401 231.279C267.343 231.221 267.31 231.142 267.31 231.06V219.66C267.323 219.588 267.361 219.524 267.416 219.477C267.472 219.431 267.542 219.405 267.615 219.405C267.688 219.405 267.758 219.431 267.814 219.477C267.869 219.524 267.907 219.588 267.92 219.66V230.76H280.11C280.181 230.773 280.246 230.81 280.293 230.866C280.339 230.922 280.365 230.992 280.365 231.065C280.365 231.137 280.339 231.208 280.293 231.263C280.246 231.319 280.181 231.357 280.11 231.37Z" fill="white"/>
<path d="M231.37 232.04H184.1C184.021 232.038 183.946 232.005 183.891 231.949C183.835 231.894 183.803 231.819 183.8 231.74V193.88C183.803 193.801 183.835 193.726 183.891 193.671C183.946 193.615 184.021 193.583 184.1 193.58C184.18 193.58 184.256 193.612 184.312 193.668C184.368 193.724 184.4 193.801 184.4 193.88V231.41H231.4C231.439 231.41 231.478 231.418 231.515 231.433C231.551 231.448 231.584 231.47 231.612 231.498C231.64 231.526 231.662 231.559 231.677 231.595C231.692 231.632 231.7 231.671 231.7 231.71C231.703 231.754 231.696 231.798 231.681 231.84C231.665 231.881 231.641 231.919 231.61 231.95C231.579 231.981 231.541 232.005 231.5 232.021C231.458 232.037 231.414 232.043 231.37 232.04Z" fill="black"/>
<path d="M361.87 108.78L429.2 108.78V47.7598L361.87 47.7598V108.78Z" fill="#1B5A96"/>
<path d="M366.34 50.6802V108.82L435.25 108.68V50.6802H366.34Z" fill="#FFF6EB"/>
<path d="M366.34 109.12C366.26 109.12 366.182 109.089 366.124 109.033C366.066 108.977 366.033 108.901 366.03 108.82V50.68C366.03 50.6398 366.038 50.6 366.054 50.5629C366.069 50.5258 366.092 50.4923 366.121 50.4643C366.15 50.4363 366.185 50.4144 366.222 50.4C366.26 50.3855 366.3 50.3787 366.34 50.38H435.25C435.33 50.38 435.406 50.4117 435.462 50.4679C435.518 50.5242 435.55 50.6005 435.55 50.68V108.68C435.55 108.761 435.519 108.838 435.463 108.896C435.407 108.954 435.331 108.987 435.25 108.99L366.47 109.12H366.34ZM366.64 50.98V108.52L434.94 108.38V50.98H366.64Z" fill="black"/>
<path d="M429.63 56.91C429.552 56.91 429.477 56.8798 429.421 56.8257C429.365 56.7716 429.333 56.6978 429.33 56.62C429.327 56.5803 429.333 56.5404 429.346 56.5029C429.359 56.4653 429.38 56.431 429.407 56.4019C429.435 56.3728 429.468 56.3496 429.504 56.3338C429.541 56.318 429.58 56.3099 429.62 56.31C430.717 56.2669 431.777 55.9021 432.669 55.2612C433.56 54.6202 434.244 53.7313 434.634 52.705C435.025 51.6787 435.104 50.5603 434.864 49.4888C434.624 48.4174 434.074 47.4403 433.283 46.679C432.491 45.9177 431.494 45.4057 430.414 45.2069C429.334 45.0081 428.22 45.1311 427.209 45.5606C426.199 45.9902 425.337 46.7073 424.731 47.6229C424.124 48.5384 423.801 49.612 423.8 50.71C423.787 50.7814 423.749 50.846 423.694 50.8925C423.638 50.9391 423.568 50.9645 423.495 50.9645C423.422 50.9645 423.352 50.9391 423.296 50.8925C423.241 50.846 423.203 50.7814 423.19 50.71C423.189 49.4918 423.546 48.3001 424.217 47.2834C424.888 46.2668 425.844 45.4699 426.964 44.9921C428.085 44.5144 429.321 44.3768 430.52 44.5964C431.718 44.8161 432.825 45.3834 433.703 46.2276C434.582 47.0718 435.192 48.1557 435.459 49.3444C435.726 50.533 435.637 51.7739 435.204 52.9125C434.771 54.0512 434.013 55.0372 433.023 55.748C432.034 56.4588 430.857 56.8629 429.64 56.91H429.63Z" fill="black"/>
<path d="M412.11 56.9099C412.033 56.9076 411.959 56.8765 411.904 56.8229C411.848 56.7693 411.815 56.6969 411.81 56.6199C411.807 56.5802 411.813 56.5403 411.826 56.5028C411.839 56.4652 411.86 56.4309 411.887 56.4018C411.915 56.3727 411.948 56.3495 411.984 56.3337C412.021 56.3179 412.06 56.3098 412.1 56.3099C413.197 56.2667 414.257 55.902 415.149 55.261C416.04 54.6201 416.724 53.7312 417.114 52.7049C417.504 51.6785 417.584 50.5601 417.344 49.4887C417.104 48.4173 416.554 47.4402 415.763 46.6789C414.971 45.9176 413.974 45.4056 412.894 45.2068C411.814 45.008 410.7 45.131 409.689 45.5605C408.679 45.9901 407.817 46.7072 407.211 47.6228C406.604 48.5383 406.281 49.6119 406.28 50.7099C406.28 50.7894 406.248 50.8658 406.192 50.922C406.136 50.9783 406.059 51.0099 405.98 51.0099C405.9 51.0099 405.824 50.9783 405.768 50.922C405.712 50.8658 405.68 50.7894 405.68 50.7099C405.679 49.4912 406.036 48.2991 406.708 47.2822C407.379 46.2652 408.335 45.4683 409.456 44.9908C410.578 44.5132 411.815 44.3761 413.013 44.5966C414.212 44.817 415.319 45.3852 416.197 46.2304C417.075 47.0757 417.685 48.1605 417.95 49.3498C418.216 50.5392 418.126 51.7804 417.692 52.919C417.257 54.0575 416.497 55.043 415.506 55.7526C414.515 56.4623 413.338 56.8647 412.12 56.9099H412.11Z" fill="black"/>
<path d="M394.59 56.9099C394.513 56.9076 394.439 56.8765 394.384 56.8229C394.328 56.7693 394.295 56.6969 394.29 56.6199C394.289 56.5805 394.295 56.5412 394.309 56.5043C394.323 56.4674 394.344 56.4336 394.371 56.4048C394.398 56.376 394.43 56.3528 394.466 56.3365C394.502 56.3202 394.541 56.3112 394.58 56.3099C395.677 56.2667 396.737 55.902 397.629 55.261C398.521 54.6201 399.204 53.7312 399.594 52.7049C399.985 51.6785 400.065 50.5601 399.824 49.4887C399.584 48.4173 399.034 47.4402 398.243 46.6789C397.452 45.9176 396.454 45.4056 395.374 45.2068C394.294 45.008 393.18 45.131 392.169 45.5605C391.159 45.9901 390.297 46.7072 389.691 47.6228C389.084 48.5383 388.761 49.6119 388.76 50.7099C388.761 50.7497 388.755 50.7893 388.74 50.8263C388.725 50.8634 388.703 50.897 388.675 50.9251C388.647 50.9533 388.613 50.9753 388.576 50.9899C388.539 51.0045 388.5 51.0113 388.46 51.0099C388.38 51.0099 388.304 50.9783 388.248 50.922C388.192 50.8658 388.16 50.7894 388.16 50.7099C388.159 49.4912 388.516 48.2991 389.188 47.2822C389.859 46.2652 390.815 45.4683 391.937 44.9908C393.058 44.5132 394.295 44.3761 395.493 44.5966C396.692 44.817 397.799 45.3852 398.677 46.2304C399.555 47.0757 400.165 48.1605 400.431 49.3498C400.696 50.5392 400.606 51.7804 400.172 52.919C399.737 54.0575 398.977 55.043 397.986 55.7526C396.996 56.4623 395.818 56.8647 394.6 56.9099H394.59Z" fill="black"/>
<path d="M377.08 56.91C377.001 56.9102 376.925 56.8803 376.868 56.8264C376.81 56.7725 376.775 56.6987 376.77 56.62C376.769 56.5806 376.775 56.5413 376.789 56.5044C376.803 56.4675 376.824 56.4337 376.851 56.4049C376.878 56.3761 376.91 56.3529 376.946 56.3366C376.982 56.3203 377.021 56.3113 377.06 56.31C378.158 56.2688 379.219 55.9057 380.112 55.2659C381.005 54.626 381.69 53.7377 382.082 52.7115C382.473 51.6853 382.555 50.5665 382.316 49.4944C382.076 48.4223 381.527 47.4442 380.736 46.6819C379.945 45.9196 378.948 45.4068 377.868 45.2072C376.787 45.0076 375.672 45.13 374.661 45.5594C373.65 45.9887 372.788 46.7059 372.181 47.6217C371.575 48.5375 371.251 49.6115 371.25 50.71C371.237 50.7814 371.199 50.846 371.144 50.8925C371.088 50.9391 371.018 50.9645 370.945 50.9645C370.872 50.9645 370.802 50.9391 370.746 50.8925C370.691 50.846 370.653 50.7814 370.64 50.71C370.639 49.4918 370.996 48.3001 371.667 47.2834C372.339 46.2668 373.294 45.4699 374.415 44.9921C375.535 44.5144 376.772 44.3768 377.97 44.5964C379.168 44.8161 380.275 45.3834 381.154 46.2276C382.032 47.0718 382.642 48.1557 382.909 49.3444C383.176 50.533 383.087 51.7739 382.654 52.9125C382.221 54.0512 381.463 55.0372 380.473 55.748C379.484 56.4588 378.307 56.8629 377.09 56.91H377.08Z" fill="black"/>
<path d="M435.09 61.0398H366.53C366.459 61.0268 366.394 60.9892 366.348 60.9334C366.301 60.8777 366.276 60.8074 366.276 60.7348C366.276 60.6622 366.301 60.5919 366.348 60.5362C366.394 60.4804 366.459 60.4428 366.53 60.4298H435.09C435.135 60.4217 435.181 60.4235 435.225 60.4351C435.268 60.4466 435.309 60.4677 435.344 60.4968C435.379 60.5259 435.407 60.5623 435.426 60.6034C435.446 60.6445 435.456 60.6894 435.456 60.7348C435.456 60.7802 435.446 60.8251 435.426 60.8662C435.407 60.9073 435.379 60.9437 435.344 60.9728C435.309 61.0019 435.268 61.023 435.225 61.0346C435.181 61.0461 435.135 61.0479 435.09 61.0398Z" fill="black"/>
<path d="M389.92 73.8601H389.85L385.64 75.8601L384.79 72.0401L390.63 69.3301H394.91V91.3401H389.91L389.92 73.8601Z" fill="#1B5A96"/>
<path d="M418.46 80.2099C418.46 87.0299 415.71 91.7199 410.07 91.7199C404.43 91.7199 401.86 86.5899 401.83 80.3399C401.8 74.0899 404.54 68.8999 410.24 68.8999C416.16 68.8999 418.46 74.1699 418.46 80.2099ZM407.02 80.3399C407.02 85.3999 408.21 87.8099 410.21 87.8099C412.21 87.8099 413.3 85.2999 413.3 80.2799C413.3 75.2599 412.25 72.8099 410.18 72.8099C408.29 72.8099 407 75.2199 407.03 80.3399H407.02Z" fill="#1B5A96"/>
<path d="M283.52 88.47C278.908 83.9418 273.887 79.8509 268.52 76.25C263.52 72.9 255.03 67.84 254.16 68.96C253.78 69.46 254.76 71.3 260.59 77.11L256.95 86.11L273.24 102.61L283.52 88.47Z" fill="#FFCFC5"/>
<path d="M273.23 102.92C273.149 102.916 273.071 102.884 273.01 102.83L256.72 86.32C256.679 86.2787 256.652 86.2262 256.641 86.1692C256.63 86.1121 256.637 86.0532 256.66 86L260.23 77.18C253.88 70.84 253.44 69.39 253.91 68.78C254.38 68.17 255.28 68.15 259.91 70.66C262.46 72.04 265.75 74.04 268.68 76.04C274.046 79.6538 279.067 83.7545 283.68 88.29C283.725 88.3467 283.75 88.4172 283.75 88.49C283.75 88.5627 283.725 88.6332 283.68 88.69L273.46 102.79C273.434 102.826 273.401 102.856 273.364 102.878C273.326 102.9 273.284 102.915 273.24 102.92H273.23ZM257.29 86.04L273.19 102.15L283.12 88.5C278.569 84.0585 273.622 80.0418 268.34 76.5C265.43 74.55 262.18 72.56 259.64 71.19C254.88 68.62 254.39 69.14 254.39 69.19C254.39 69.24 253.99 70.19 260.79 76.93C260.833 76.9716 260.863 77.0253 260.876 77.0842C260.888 77.143 260.883 77.2043 260.86 77.26L257.29 86.04Z" fill="black"/>
<path d="M260.62 76.37C262.75 76.62 264.13 82.63 263.22 83.12C262.31 83.61 258.09 79.21 259.07 77.23C259.217 76.9515 259.442 76.7219 259.717 76.5692C259.992 76.4164 260.306 76.3472 260.62 76.37Z" fill="#FFCFC5"/>
<path d="M263.06 83.46C262.43 83.46 261.57 82.72 261.06 82.24C259.93 81.15 258.01 78.67 258.79 77.1C258.966 76.7681 259.237 76.4958 259.568 76.3178C259.899 76.1398 260.276 76.064 260.65 76.1C262.35 76.3 263.36 79.29 263.65 80.85C263.8 81.66 263.97 83.0801 263.34 83.4101C263.252 83.4486 263.156 83.4657 263.06 83.46ZM260.46 76.6601C260.224 76.6676 259.995 76.7373 259.795 76.8619C259.594 76.9866 259.431 77.1619 259.32 77.3701C258.87 78.2701 259.8 79.9501 260.92 81.2301C262.04 82.5101 262.87 82.92 263.06 82.85C263.25 82.78 263.3 81.7 262.86 80.11C262.42 78.52 261.53 76.78 260.57 76.67H260.46V76.6601Z" fill="black"/>
<path d="M258.46 78.9101C260.46 79.1401 261.77 84.8001 260.91 85.2601C260.05 85.7201 256.08 81.5801 257 79.7201C257.139 79.4581 257.351 79.2422 257.61 79.0984C257.869 78.9546 258.164 78.8891 258.46 78.9101Z" fill="#FFCFC5"/>
<path d="M260.73 85.6001C259.996 85.4209 259.336 85.0192 258.84 84.4501C257.78 83.4501 255.96 81.0701 256.7 79.5901C256.864 79.2679 257.12 79.0013 257.434 78.8234C257.749 78.6456 258.109 78.5644 258.47 78.5901C260.09 78.7801 261.04 81.5901 261.32 83.0701C261.46 83.8501 261.62 85.1901 261.02 85.5101C260.933 85.5658 260.833 85.5969 260.73 85.6001ZM258.3 79.2001C258.081 79.2075 257.868 79.2724 257.682 79.3882C257.496 79.5041 257.343 79.6668 257.24 79.8601C256.9 80.5401 257.41 81.8601 258.56 83.2501C259.71 84.6401 260.56 85.0501 260.74 85.0001C260.92 84.9501 260.95 83.7501 260.46 82.1501C259.97 80.5501 259.13 79.2901 258.4 79.2101L258.3 79.2001Z" fill="black"/>
<path d="M257.34 82.1502C259.21 82.3702 260.41 87.6302 259.61 88.0502C258.81 88.4702 255.13 84.6302 255.98 82.9102C256.11 82.6664 256.307 82.4652 256.548 82.3304C256.789 82.1957 257.064 82.1331 257.34 82.1502Z" fill="#FFCFC5"/>
<path d="M259.46 88.3898C258.772 88.23 258.154 87.851 257.7 87.3098C256.7 86.3098 255.01 84.1598 255.7 82.7698C255.86 82.4714 256.102 82.2257 256.399 82.0624C256.695 81.8991 257.032 81.8253 257.37 81.8498C258.88 82.0298 259.77 84.6698 260.03 86.0398C260.2 86.9198 260.28 88.0398 259.75 88.3198C259.661 88.3676 259.561 88.3917 259.46 88.3898ZM257.2 82.4498C256.996 82.4506 256.796 82.5057 256.62 82.6094C256.444 82.713 256.299 82.8616 256.2 83.0398C255.91 83.6398 256.31 84.7498 257.2 85.9498C257.747 86.7799 258.536 87.4221 259.46 87.7898C259.628 86.8097 259.506 85.8018 259.11 84.8898C258.62 83.4598 257.93 82.5298 257.3 82.4498H257.2Z" fill="black"/>
<path d="M268.51 85.2501C259.95 81.9168 255.807 79.7034 256.08 78.6101C256.333 77.6501 260.05 77.5768 267.23 78.3901L268.51 85.2501Z" fill="#FFCFC5"/>
<path d="M268.51 85.55C268.474 85.5589 268.436 85.5589 268.4 85.55C256.86 81.04 255.55 79.48 255.79 78.55C256.03 77.62 257.53 77.01 267.26 78.11C267.341 78.12 267.414 78.1613 267.464 78.2248C267.515 78.2884 267.539 78.3693 267.53 78.45C267.525 78.4896 267.512 78.5277 267.493 78.5623C267.473 78.5968 267.446 78.6271 267.415 78.6513C267.383 78.6755 267.347 78.6932 267.308 78.7032C267.27 78.7133 267.229 78.7156 267.19 78.71C257.43 77.6 256.44 78.43 256.37 78.71C256.3 78.99 256.93 80.43 268.62 85C268.657 85.0144 268.69 85.0359 268.719 85.0633C268.748 85.0907 268.77 85.1234 268.786 85.1597C268.802 85.1959 268.81 85.2349 268.811 85.2744C268.812 85.314 268.805 85.3532 268.79 85.39C268.764 85.4414 268.724 85.484 268.674 85.5125C268.624 85.541 268.567 85.5541 268.51 85.55Z" fill="black"/>
<path d="M330.35 90.7201L332.69 93.7901C341.47 121.22 361.2 136.65 377.69 134.22C385.45 133.07 394.69 127.63 397.04 119.44C402.45 100.63 367.04 83.1601 341.74 57.5001C340.26 56.0401 336.52 52.1601 331.46 52.1401C326.63 52.1401 322.54 55.5401 320.74 58.1401C315.82 65.2101 319.46 78.5501 330.35 90.7201Z" fill="black"/>
<path d="M346.53 81.82C341.642 77.4164 337.766 72.0055 335.17 65.96L327.88 74.11C329.387 78.0433 330.89 81.9733 332.39 85.9L341.39 90.61L346.53 81.82Z" fill="#FFCFC5"/>
<path d="M341.39 90.91C341.344 90.9204 341.296 90.9204 341.25 90.91L332.25 86.19C332.181 86.1584 332.127 86.101 332.1 86.03L327.6 74.24C327.582 74.1893 327.578 74.1346 327.589 74.0818C327.599 74.029 327.624 73.9801 327.66 73.94L334.95 65.79C334.984 65.7528 335.026 65.7242 335.073 65.7068C335.12 65.6894 335.17 65.6836 335.22 65.69C335.27 65.7004 335.316 65.722 335.356 65.7532C335.396 65.7844 335.428 65.8244 335.45 65.87C336.798 69.0584 338.513 72.0788 340.56 74.87C342.381 77.3433 344.448 79.625 346.73 81.68C346.785 81.7251 346.821 81.7886 346.832 81.8587C346.843 81.9287 346.828 82.0003 346.79 82.06L341.65 90.84C341.615 90.8712 341.573 90.8937 341.528 90.9059C341.483 90.918 341.436 90.9194 341.39 90.91ZM332.63 85.68L341.27 90.21L346.15 81.88C341.422 77.5902 337.651 72.3534 335.08 66.51L328.23 74.17L332.63 85.68Z" fill="black"/>
<path d="M335.01 63.9499C333.49 60.7999 330.76 58.6699 328.01 58.6699C323.5 58.6699 320.26 64.2099 320.5 68.7999C320.74 73.3899 324.35 78.5399 329.01 78.0999C332.54 77.7699 335.79 74.2399 336.15 69.5599C338.29 69.4099 339.66 67.5599 339.46 66.1799C339.26 64.7999 337.2 63.2699 335.01 63.9499Z" fill="#FFCFC5"/>
<path d="M328.46 78.4301C326.799 78.3974 325.206 77.7611 323.98 76.6401C322.859 75.6526 321.948 74.4501 321.3 73.1039C320.653 71.7576 320.282 70.2951 320.211 68.803C320.139 67.3109 320.367 65.8196 320.882 64.4174C321.398 63.0152 322.189 61.7307 323.21 60.6401C323.812 59.9541 324.549 59.4001 325.375 59.0129C326.201 58.6256 327.098 58.4136 328.01 58.3901C330.79 58.3901 333.59 60.3901 335.21 63.6101C335.732 63.48 336.274 63.4563 336.805 63.5405C337.336 63.6247 337.844 63.815 338.3 64.1001C338.678 64.2943 339.006 64.5738 339.258 64.9166C339.509 65.2594 339.678 65.6561 339.75 66.0752C339.821 66.4943 339.795 66.9244 339.672 67.3314C339.548 67.7384 339.332 68.1111 339.04 68.4201C338.382 69.2106 337.45 69.7246 336.43 69.8601C335.98 74.4001 332.84 78.0601 329.04 78.4201C328.847 78.4334 328.653 78.4368 328.46 78.4301ZM328.01 58.9701C327.172 58.9907 326.347 59.1853 325.587 59.5416C324.828 59.898 324.152 60.4083 323.6 61.0401C322.632 62.0715 321.882 63.2872 321.394 64.6147C320.905 65.9422 320.689 67.3544 320.758 68.7671C320.828 70.1798 321.18 71.5642 321.796 72.8378C322.411 74.1113 323.276 75.248 324.34 76.1801C324.954 76.7515 325.68 77.1903 326.471 77.469C327.263 77.7477 328.103 77.8604 328.94 77.8001C332.46 77.4701 335.48 73.8001 335.81 69.5401C335.815 69.4674 335.846 69.3989 335.897 69.3474C335.949 69.2959 336.017 69.2648 336.09 69.2601C336.558 69.2328 337.016 69.1105 337.435 68.9008C337.855 68.691 338.227 68.3982 338.53 68.0401C338.745 67.7955 338.908 67.5099 339.009 67.2005C339.111 66.8912 339.148 66.5645 339.12 66.2401C339.051 65.8999 338.91 65.5784 338.707 65.2973C338.503 65.0161 338.242 64.7818 337.94 64.6101C337.521 64.347 337.05 64.1792 336.559 64.1187C336.068 64.0583 335.57 64.1065 335.1 64.2601C335.031 64.2793 334.957 64.2739 334.891 64.2447C334.826 64.2155 334.772 64.1644 334.74 64.1001C333.24 61.0001 330.58 58.9901 327.97 58.9901L328.01 58.9701Z" fill="black"/>
<path d="M334.84 67.77C334.78 67.7702 334.721 67.7522 334.671 67.7183C334.621 67.6844 334.582 67.6362 334.56 67.58C334.533 67.5056 334.536 67.4238 334.568 67.3513C334.599 67.2788 334.657 67.2211 334.73 67.19L337.8 65.95C337.836 65.9338 337.875 65.9251 337.914 65.9244C337.954 65.9237 337.993 65.931 338.029 65.946C338.066 65.961 338.099 65.9833 338.127 66.0115C338.154 66.0397 338.176 66.0732 338.19 66.11C338.206 66.1467 338.215 66.1863 338.216 66.2265C338.217 66.2667 338.21 66.3066 338.195 66.3439C338.18 66.3812 338.158 66.4151 338.129 66.4437C338.101 66.4722 338.067 66.4948 338.03 66.51L334.96 67.75L334.84 67.77Z" fill="black"/>
<path d="M324.59 56.46C324.44 57.11 323.78 60.17 325.59 62.53C327.73 65.38 332.64 66.17 336.95 63.59L334.37 57.34L324.59 56.46Z" fill="black"/>
<path d="M381.95 278.04C383.229 280.991 383.728 284.221 383.4 287.42V287.49C383.235 288.963 382.53 290.322 381.422 291.306C380.315 292.29 378.882 292.829 377.4 292.82H342.87C342.324 292.825 341.787 292.681 341.317 292.404C340.847 292.126 340.461 291.725 340.202 291.245C339.943 290.764 339.82 290.222 339.846 289.677C339.872 289.131 340.046 288.604 340.35 288.15C342.922 284.196 346.548 281.04 350.82 279.04L381.95 278.04Z" fill="black"/>
<path d="M377.38 293.04H342.87C342.273 293.038 341.689 292.875 341.177 292.568C340.665 292.261 340.245 291.822 339.962 291.298C339.678 290.773 339.542 290.181 339.566 289.585C339.59 288.989 339.775 288.41 340.1 287.91C342.696 283.91 346.366 280.722 350.69 278.71H350.81L381.94 277.71C382 277.706 382.059 277.722 382.11 277.754C382.16 277.786 382.199 277.834 382.22 277.89C383.532 280.885 384.042 284.169 383.7 287.42V287.49C383.509 289.029 382.76 290.444 381.595 291.467C380.43 292.49 378.93 293.049 377.38 293.04ZM350.89 279.28C348.136 280.573 345.641 282.359 343.53 284.55C342.442 285.687 341.461 286.922 340.6 288.24C340.334 288.65 340.184 289.124 340.164 289.612C340.145 290.1 340.257 290.584 340.489 291.013C340.721 291.443 341.065 291.802 341.484 292.053C341.903 292.304 342.382 292.438 342.87 292.44H377.38C378.789 292.447 380.151 291.933 381.205 290.997C382.259 290.062 382.93 288.77 383.09 287.37V287.31C383.399 284.244 382.935 281.15 381.74 278.31L350.89 279.28Z" fill="#292929"/>
<path d="M408.38 278.04L403.73 290.69C403.661 290.876 403.637 291.076 403.662 291.273C403.686 291.469 403.758 291.657 403.871 291.82C403.984 291.984 404.135 292.117 404.311 292.209C404.486 292.301 404.682 292.35 404.88 292.35H414.39C416.036 292.348 417.665 292.018 419.182 291.382C420.7 290.745 422.075 289.813 423.23 288.64C424.934 286.911 426.521 285.07 427.98 283.13C432.049 277.693 435.098 271.564 436.98 265.04C437.851 262.154 437.811 259.069 436.866 256.206C435.921 253.344 434.117 250.841 431.7 249.04L431.63 248.98L408.38 278.04Z" fill="black"/>
<path d="M414.39 292.61H404.88C404.635 292.612 404.392 292.553 404.175 292.44C403.957 292.327 403.77 292.162 403.63 291.96C403.487 291.758 403.396 291.524 403.362 291.278C403.329 291.033 403.356 290.783 403.44 290.55L408.1 277.9C408.096 277.87 408.096 277.84 408.1 277.81L431.35 248.81C431.401 248.75 431.472 248.712 431.55 248.702C431.628 248.693 431.707 248.714 431.77 248.76L431.84 248.82C434.298 250.651 436.136 253.191 437.107 256.098C438.077 259.005 438.134 262.14 437.27 265.08C435.365 271.64 432.285 277.8 428.18 283.26C426.712 285.211 425.115 287.062 423.4 288.8C422.222 289.996 420.82 290.948 419.274 291.602C417.728 292.256 416.069 292.598 414.39 292.61ZM408.65 278.15L404.01 290.76C403.955 290.9 403.937 291.051 403.956 291.199C403.975 291.348 404.032 291.489 404.12 291.61C404.205 291.733 404.319 291.833 404.451 291.903C404.583 291.973 404.731 292.009 404.88 292.01H414.39C415.994 292.004 417.582 291.681 419.061 291.06C420.54 290.439 421.882 289.532 423.01 288.39C424.709 286.673 426.289 284.842 427.74 282.91C431.799 277.5 434.847 271.403 436.74 264.91C437.553 262.119 437.505 259.147 436.602 256.384C435.699 253.62 433.984 251.193 431.68 249.42L408.65 278.15Z" fill="#292929"/>
<path d="M331.21 138.95L346.64 281.04L382.22 278.25L370.65 179.25L354.57 135.31L331.21 138.95Z" fill="#1B5A96"/>
<path d="M345.89 162.2C353.636 207.074 375.154 248.426 407.46 280.52C419.24 273.122 428.04 261.815 432.32 248.58C413.16 233.58 404.84 218.67 400.81 207.64C395.35 192.71 396.99 182.87 389.88 163.49C385.665 152.037 379.895 141.219 372.73 131.34L341.87 136.7L345.89 162.2Z" fill="#1B5A96"/>
<path d="M346.75 81.39C345.868 82.6945 344.699 83.7802 343.333 84.5643C341.967 85.3484 340.441 85.8102 338.869 85.9144C337.298 86.0186 335.723 85.7624 334.266 85.1655C332.809 84.5686 331.507 83.6466 330.46 82.47C320.638 85.9463 311.604 91.3371 303.88 98.33L280.94 84.18L270.87 99.83C275.912 108.293 283.591 114.868 292.73 118.546C301.868 122.224 311.961 122.802 321.46 120.19C322.68 128.55 323.897 136.91 325.11 145.27C331.646 146.131 338.252 146.345 344.83 145.91C360.7 144.78 376.097 140.014 389.83 131.98C389.63 129.83 385.64 92.98 360.25 83.54C355.933 81.9515 351.347 81.2212 346.75 81.39Z" fill="#FB9100"/>
<path d="M338.24 146.43C333.833 146.429 329.43 146.141 325.06 145.57C324.995 145.56 324.934 145.53 324.887 145.483C324.84 145.436 324.81 145.376 324.8 145.31L321.2 120.57C311.676 123.11 301.583 122.473 292.453 118.757C283.323 115.041 275.654 108.449 270.61 99.9802C270.578 99.9348 270.561 99.8807 270.561 99.8252C270.561 99.7697 270.578 99.7156 270.61 99.6702L280.69 84.0402C280.733 83.9748 280.799 83.9282 280.875 83.9097C280.951 83.8911 281.032 83.902 281.1 83.9402L303.84 97.9402C308.084 94.1611 312.716 90.8425 317.66 88.0402C321.715 85.7351 325.965 83.7909 330.36 82.2302C330.416 82.2091 330.477 82.2064 330.535 82.2226C330.592 82.2388 330.643 82.273 330.68 82.3202C331.741 83.4494 333.037 84.3327 334.476 84.9079C335.915 85.4832 337.463 85.7366 339.01 85.6502C340.496 85.4878 341.931 85.0083 343.216 84.244C344.501 83.4798 345.607 82.4486 346.46 81.2202C346.489 81.1831 346.525 81.1524 346.566 81.1301C346.608 81.1077 346.653 81.0941 346.7 81.0902C351.338 80.9226 355.964 81.6597 360.32 83.2602C386.1 92.8702 389.94 130.36 390.09 131.95C390.094 132.008 390.083 132.065 390.056 132.117C390.03 132.168 389.989 132.211 389.94 132.24C376.181 140.34 360.728 145.133 344.8 146.24C342.65 146.36 340.46 146.43 338.24 146.43ZM325.36 145.04C331.805 145.872 338.315 146.076 344.8 145.65C360.566 144.558 375.867 139.838 389.51 131.86C389.17 128.57 384.92 93.1002 360.15 83.8602C355.914 82.3076 351.419 81.5844 346.91 81.7302C345.998 83.0329 344.807 84.1149 343.422 84.8969C342.038 85.6789 340.496 86.141 338.91 86.2494C337.324 86.3578 335.734 86.1096 334.256 85.5231C332.778 84.9367 331.45 84.0268 330.37 82.8602C326.075 84.3948 321.923 86.3021 317.96 88.5602C312.987 91.3841 308.333 94.7368 304.08 98.5602C304.028 98.5991 303.965 98.6202 303.9 98.6202C303.835 98.6202 303.772 98.5991 303.72 98.5602L281.04 84.5602L271.22 99.8002C276.246 108.16 283.868 114.647 292.925 118.271C301.981 121.894 311.974 122.456 321.38 119.87C321.418 119.853 321.459 119.844 321.5 119.844C321.541 119.844 321.582 119.853 321.62 119.87C321.655 119.894 321.685 119.925 321.708 119.961C321.73 119.997 321.744 120.038 321.75 120.08L325.36 145.04Z" fill="black"/>
<path d="M316.38 92.0401H335.91C336.231 92.0451 336.544 92.142 336.811 92.3192C337.079 92.4964 337.29 92.7466 337.42 93.0401L350.21 119.26C350.333 119.516 350.39 119.799 350.374 120.083C350.359 120.366 350.271 120.641 350.121 120.882C349.97 121.123 349.76 121.321 349.512 121.459C349.263 121.597 348.984 121.67 348.7 121.67H322.21C321.897 121.671 321.59 121.583 321.324 121.417C321.059 121.25 320.846 121.012 320.71 120.73L307.92 94.4201C307.802 94.1632 307.751 93.8807 307.772 93.5988C307.792 93.3169 307.883 93.0447 308.037 92.8074C308.19 92.5701 308.401 92.3754 308.65 92.2412C308.899 92.1071 309.177 92.0379 309.46 92.0401H316.38Z" fill="#292929"/>
<path d="M323.28 99.9298C324.224 99.9298 324.99 99.1642 324.99 98.2198C324.99 97.2754 324.224 96.5098 323.28 96.5098C322.336 96.5098 321.57 97.2754 321.57 98.2198C321.57 99.1642 322.336 99.9298 323.28 99.9298Z" fill="#625EF3"/>
<path d="M356.03 108.86C352.028 105.852 347.599 103.459 342.89 101.76C337.27 99.76 330.38 98.42 330.03 99.4C329.87 99.84 331.03 100.92 336.46 103.69C331.693 100.77 329.12 99.5533 328.74 100.04C328.36 100.527 330.72 103.243 335.82 108.19C330.967 103.89 328.393 101.89 328.1 102.19C327.807 102.49 330.093 105.417 334.96 110.97L349.21 122.55L356.03 108.86Z" fill="#FFCFC5"/>
<path d="M349.21 122.85C349.14 122.851 349.072 122.826 349.02 122.78L334.77 111.21C327.25 102.68 327.61 102.33 327.93 102.01C328.25 101.69 328.33 101.61 330.5 103.29C330.32 103.1 330.16 102.91 330 102.73C328.4 100.88 328.26 100.26 328.54 99.9001C328.7 99.7001 328.98 99.5601 329.82 99.8201C329.786 99.7446 329.769 99.6628 329.769 99.5801C329.769 99.4974 329.786 99.4157 329.82 99.3401C329.852 99.2587 329.901 99.1847 329.963 99.1228C330.025 99.0609 330.099 99.0123 330.18 98.9801C331.6 98.3101 338.28 99.7901 343.07 101.51C347.808 103.223 352.264 105.632 356.29 108.66C356.344 108.703 356.382 108.763 356.399 108.83C356.415 108.897 356.408 108.967 356.38 109.03L349.46 122.68C349.443 122.721 349.415 122.757 349.38 122.785C349.345 122.813 349.304 122.832 349.26 122.84L349.21 122.85ZM335.21 110.76L349.11 122.04L355.65 108.91C351.721 106.006 347.388 103.692 342.79 102.04C336.89 99.9201 330.91 98.9701 330.32 99.5001C330.32 99.5901 330.48 99.8401 331.32 100.41C332.5 100.98 334.19 101.93 336.65 103.41C336.715 103.451 336.761 103.516 336.78 103.59C336.798 103.665 336.788 103.743 336.75 103.81C336.712 103.878 336.65 103.929 336.575 103.953C336.501 103.977 336.421 103.973 336.35 103.94C334.5 103.064 332.712 102.062 331 100.94C329.63 100.28 329.17 100.23 329 100.26C329 100.57 329.68 101.96 336 107.99C336.047 108.046 336.072 108.116 336.07 108.189C336.069 108.262 336.041 108.331 335.992 108.385C335.944 108.439 335.877 108.473 335.805 108.481C335.733 108.49 335.66 108.471 335.6 108.43C330.91 104.28 329.15 103 328.49 102.62C328.91 103.31 330.35 105.28 335.17 110.76H335.21Z" fill="black"/>
<path d="M375.9 94.8999C378.26 98.1899 396.74 124.45 390.26 137.55C389.482 139.299 388.219 140.788 386.62 141.84C379.4 146.31 367.46 138.56 362.62 135.41C357.277 131.924 352.546 127.578 348.62 122.55L355.75 108.4L374.18 116.33L375.9 94.8999Z" fill="#FB9100"/>
<path d="M381.46 143.51C374.58 143.51 366.46 138.24 362.46 135.66C357.097 132.153 352.347 127.788 348.4 122.74C348.371 122.69 348.356 122.633 348.356 122.575C348.356 122.517 348.371 122.46 348.4 122.41L355.46 108.27C355.476 108.235 355.499 108.203 355.528 108.177C355.556 108.151 355.589 108.131 355.626 108.118C355.662 108.105 355.701 108.099 355.739 108.101C355.778 108.103 355.815 108.113 355.85 108.13L374.3 116.04C374.337 116.054 374.37 116.076 374.399 116.103C374.427 116.131 374.449 116.164 374.464 116.2C374.479 116.237 374.486 116.276 374.486 116.316C374.485 116.355 374.476 116.394 374.46 116.43C374.445 116.467 374.422 116.501 374.394 116.529C374.365 116.557 374.331 116.58 374.294 116.595C374.257 116.609 374.217 116.617 374.177 116.616C374.136 116.615 374.097 116.606 374.06 116.59L355.89 108.77L348.97 122.49C352.852 127.429 357.513 131.702 362.77 135.14C367.77 138.37 379.4 145.93 386.46 141.56C388.009 140.538 389.234 139.095 389.99 137.4C396.21 124.83 379.14 99.9199 375.65 95.0499C375.606 94.9842 375.589 94.9041 375.602 94.826C375.615 94.7479 375.657 94.6777 375.72 94.6299C375.786 94.5857 375.866 94.5684 375.944 94.5814C376.022 94.5944 376.092 94.6368 376.14 94.6999C379.66 99.6199 396.9 124.79 390.53 137.7C389.72 139.496 388.416 141.026 386.77 142.11C385.165 143.063 383.326 143.548 381.46 143.51Z" fill="black"/>
<path d="M307.69 100.64H307.55L303.55 98.54C303.514 98.522 303.482 98.497 303.456 98.4665C303.43 98.436 303.411 98.4006 303.398 98.3624C303.386 98.3242 303.382 98.2839 303.386 98.244C303.389 98.2041 303.401 98.1653 303.42 98.13C303.46 98.0612 303.525 98.0104 303.601 97.9881C303.677 97.9657 303.759 97.9736 303.83 98.01L307.83 100.1C307.899 100.14 307.95 100.205 307.972 100.281C307.994 100.357 307.986 100.439 307.95 100.51C307.921 100.552 307.882 100.586 307.837 100.609C307.791 100.631 307.741 100.642 307.69 100.64Z" fill="#292929"/>
<path d="M382.01 249.85C381.961 249.85 381.913 249.838 381.869 249.815C381.826 249.792 381.788 249.76 381.76 249.72C369.151 231.93 360.616 211.581 356.76 190.12C356.07 186.18 355.54 182.12 355.18 178.12C354.888 174.806 353.668 171.642 351.66 168.99L349.66 166.3C349.612 166.235 349.592 166.154 349.604 166.074C349.617 165.994 349.66 165.923 349.725 165.875C349.79 165.827 349.871 165.807 349.951 165.819C350.031 165.832 350.102 165.875 350.15 165.94L352.15 168.62C354.225 171.366 355.487 174.641 355.79 178.07C356.15 182.07 356.67 186.07 357.36 189.97C361.216 211.344 369.723 231.609 382.28 249.33C382.304 249.361 382.322 249.396 382.331 249.434C382.341 249.472 382.343 249.512 382.336 249.551C382.33 249.589 382.315 249.626 382.293 249.659C382.271 249.691 382.243 249.719 382.21 249.74C382.187 249.772 382.157 249.798 382.122 249.817C382.088 249.836 382.049 249.847 382.01 249.85Z" fill="black"/>
<path d="M346.96 281.46C346.885 281.46 346.813 281.433 346.758 281.383C346.702 281.333 346.668 281.264 346.66 281.19C346.654 281.109 346.681 281.03 346.733 280.968C346.785 280.906 346.86 280.868 346.94 280.86L382.09 277.86C382.17 277.853 382.249 277.879 382.309 277.93C382.37 277.982 382.408 278.055 382.415 278.135C382.422 278.214 382.396 278.293 382.345 278.354C382.293 278.415 382.22 278.453 382.14 278.46L346.99 281.46H346.96Z" fill="#292929"/>
<path d="M417.79 144.88H405.98C405.9 144.88 405.824 144.848 405.768 144.792C405.712 144.736 405.68 144.659 405.68 144.58C405.679 144.54 405.685 144.5 405.7 144.463C405.715 144.426 405.737 144.393 405.765 144.365C405.793 144.336 405.827 144.314 405.864 144.3C405.901 144.285 405.94 144.278 405.98 144.28H417.46V119.91C417.473 119.838 417.511 119.774 417.566 119.727C417.622 119.681 417.692 119.655 417.765 119.655C417.838 119.655 417.908 119.681 417.964 119.727C418.019 119.774 418.057 119.838 418.07 119.91V144.58C418.068 144.655 418.038 144.728 417.987 144.783C417.935 144.838 417.865 144.873 417.79 144.88Z" fill="black"/>
</g>
</g>
<defs>
<clipPath id="clip0_107_268">
<rect width="570" height="324" fill="white"/>
</clipPath>
<clipPath id="clip1_107_268">
<rect width="304.92" height="262.08" fill="white" transform="translate(133 31)"/>
</clipPath>
</defs>
</svg>
