<svg width="570" height="324" viewBox="0 0 570 324" fill="none" xmlns="http://www.w3.org/2000/svg">
<g clip-path="url(#clip0_107_526)">
<rect width="570" height="324" fill="#FFF6EB"/>
<path d="M486.065 292.996H83.7149C83.517 292.979 83.3354 292.92 83.2039 292.829C83.0725 292.738 83 292.621 83 292.5C83 292.379 83.0725 292.262 83.2039 292.171C83.3354 292.08 83.517 292.021 83.7149 292.004H486.065C486.182 291.995 486.3 292.001 486.413 292.021C486.526 292.042 486.63 292.077 486.718 292.124C486.807 292.171 486.878 292.228 486.926 292.293C486.975 292.358 487 292.429 487 292.5C487 292.571 486.975 292.642 486.926 292.707C486.878 292.772 486.807 292.829 486.718 292.876C486.63 292.923 486.526 292.958 486.413 292.979C486.3 292.999 486.182 293.005 486.065 292.996Z" fill="#1E1E1E"/>
<g clip-path="url(#clip1_107_526)">
<path d="M199.86 60.3101H171.12V170.91H199.86V60.3101Z" stroke="#231F20" stroke-width="0.25" stroke-miterlimit="10"/>
<path d="M199.63 60.48H171.35V68.7H199.63V60.48Z" fill="#101C3A"/>
<path d="M190.61 154.87H180.39V165.09H190.61V154.87Z" fill="white"/>
<path d="M191.55 153.93V166.03H179.47V153.94L191.55 153.93ZM189.66 164.15V155.81H181.33V164.14L189.66 164.15Z" fill="#101C3A"/>
<path d="M189.63 164.12C188.09 162.906 186.652 161.568 185.33 160.12C183.879 158.801 182.541 157.363 181.33 155.82C182.877 157.03 184.318 158.368 185.64 159.82C187.091 161.136 188.426 162.575 189.63 164.12Z" fill="#FC721A"/>
<path d="M190.61 140.04H180.39V150.26H190.61V140.04Z" fill="#101C3A"/>
<path d="M190.61 126.75H180.39V136.97H190.61V126.75Z" fill="white"/>
<path d="M190.61 113.46H180.39V123.68H190.61V113.46Z" fill="#C66A05"/>
<path d="M190.61 100.16H180.39V110.38H190.61V100.16Z" fill="#030047"/>
<path d="M190.61 86.8701H180.39V97.0901H190.61V86.8701Z" fill="#FB9100"/>
<path d="M190.61 73.5801H180.39V83.8001H190.61V73.5801Z" fill="#1B5A96"/>
<path fill-rule="evenodd" clip-rule="evenodd" d="M175.3 262.65L178.1 242.89L193.81 255.2L175.3 262.65Z" fill="#FB9100"/>
<path d="M176.93 259.19L179.83 238.75L196.09 251.48L176.93 259.19ZM180.13 239.49L177.47 258.56L195.33 251.37L180.13 239.49Z" fill="#1B5A96"/>
<path d="M185.5 45.3199C186.025 45.3199 186.45 44.8946 186.45 44.3699C186.45 43.8453 186.025 43.4199 185.5 43.4199C184.975 43.4199 184.55 43.8453 184.55 44.3699C184.55 44.8946 184.975 45.3199 185.5 45.3199Z" fill="#FB9100"/>
<path d="M287.26 39.0899C287.272 39.2898 287.224 39.4887 287.121 39.6609C287.019 39.833 286.867 39.9705 286.686 40.0554C286.505 40.1404 286.302 40.169 286.104 40.1374C285.906 40.1059 285.723 40.0157 285.577 39.8785C285.431 39.7414 285.33 39.5636 285.286 39.3681C285.242 39.1727 285.258 38.9686 285.332 38.7824C285.405 38.5961 285.533 38.4363 285.699 38.3235C285.864 38.2107 286.06 38.1503 286.26 38.1499C286.515 38.1494 286.761 38.2465 286.947 38.4213C287.133 38.596 287.245 38.8352 287.26 39.0899Z" fill="#1B5A96"/>
<path d="M209.47 283.18C209.472 283.369 209.418 283.554 209.314 283.711C209.21 283.869 209.062 283.992 208.888 284.066C208.714 284.139 208.522 284.158 208.337 284.122C208.152 284.086 207.982 283.995 207.848 283.862C207.715 283.728 207.624 283.558 207.588 283.373C207.552 283.187 207.571 282.996 207.644 282.822C207.717 282.648 207.841 282.499 207.998 282.396C208.156 282.292 208.341 282.238 208.53 282.24C208.779 282.242 209.016 282.342 209.192 282.518C209.368 282.694 209.467 282.931 209.47 283.18Z" fill="#FB9100"/>
<path d="M358.06 282.24C358.06 282.428 358.004 282.612 357.9 282.768C357.795 282.924 357.647 283.046 357.473 283.118C357.3 283.19 357.109 283.208 356.925 283.172C356.74 283.135 356.571 283.045 356.438 282.912C356.305 282.779 356.215 282.61 356.178 282.425C356.142 282.241 356.16 282.05 356.232 281.877C356.304 281.703 356.426 281.555 356.582 281.45C356.738 281.346 356.922 281.29 357.11 281.29C357.235 281.289 357.359 281.312 357.475 281.36C357.591 281.407 357.696 281.477 357.785 281.565C357.873 281.654 357.943 281.759 357.99 281.875C358.038 281.991 358.061 282.115 358.06 282.24Z" fill="#1B5A96"/>
<path d="M397.54 218.84C398.794 218.84 399.81 217.823 399.81 216.57C399.81 215.316 398.794 214.3 397.54 214.3C396.286 214.3 395.27 215.316 395.27 216.57C395.27 217.823 396.286 218.84 397.54 218.84Z" fill="#1B5A96"/>
<path d="M183.63 195.83C183.63 196.279 183.497 196.718 183.248 197.091C182.998 197.465 182.644 197.755 182.229 197.927C181.814 198.099 181.358 198.144 180.917 198.056C180.477 197.969 180.072 197.753 179.755 197.435C179.437 197.118 179.221 196.713 179.134 196.273C179.046 195.833 179.091 195.376 179.263 194.961C179.435 194.547 179.726 194.192 180.099 193.943C180.472 193.693 180.911 193.56 181.36 193.56C181.658 193.56 181.953 193.619 182.229 193.733C182.504 193.847 182.754 194.014 182.965 194.225C183.176 194.436 183.343 194.686 183.457 194.961C183.571 195.237 183.63 195.532 183.63 195.83Z" fill="#1B5A96"/>
<path d="M376.182 163.695C379.739 160.137 379.739 154.369 376.182 150.812C372.624 147.254 366.856 147.254 363.298 150.812C359.741 154.369 359.741 160.137 363.298 163.695C366.856 167.253 372.624 167.253 376.182 163.695Z" fill="#FB9100"/>
<path d="M371.22 165.16C369.394 165.16 367.61 164.619 366.092 163.605C364.574 162.59 363.391 161.149 362.693 159.462C361.994 157.776 361.811 155.92 362.167 154.13C362.523 152.339 363.403 150.694 364.693 149.404C365.984 148.113 367.629 147.234 369.419 146.878C371.21 146.521 373.066 146.704 374.752 147.403C376.439 148.101 377.88 149.284 378.894 150.802C379.909 152.32 380.45 154.105 380.45 155.93C380.447 158.377 379.474 160.723 377.744 162.454C376.013 164.184 373.667 165.158 371.22 165.16ZM371.22 146.94C369.44 146.94 367.7 147.468 366.22 148.457C364.74 149.446 363.586 150.852 362.905 152.496C362.224 154.141 362.046 155.95 362.393 157.696C362.74 159.442 363.597 161.045 364.856 162.304C366.115 163.563 367.718 164.42 369.464 164.767C371.21 165.115 373.02 164.936 374.664 164.255C376.309 163.574 377.714 162.42 378.703 160.94C379.692 159.46 380.22 157.72 380.22 155.94C380.22 153.553 379.272 151.264 377.584 149.576C375.896 147.888 373.607 146.94 371.22 146.94Z" fill="#1B5A96"/>
<path d="M391.91 259.9L391.97 259.81L384.52 255.15L384.21 263.75L384.66 263.8C386.103 263.834 387.529 263.492 388.8 262.808C390.071 262.124 391.143 261.122 391.91 259.9Z" fill="#FB9100"/>
<mask id="mask0_107_526" style="mask-type:luminance" maskUnits="userSpaceOnUse" x="173" y="107" width="219" height="186">
<path d="M391.56 107.34H173.08V292.18H391.56V107.34Z" fill="white"/>
</mask>
<g mask="url(#mask0_107_526)">
<path d="M310.64 131.23C311.3 125.05 297.64 115.3 284.53 125.46C265.86 139.92 255.21 229.18 252.68 233.62C252.68 233.62 281.83 244.97 291.13 233.94C291.13 233.94 306.27 172.66 310.64 131.23Z" fill="#292929"/>
<path d="M308.12 292.05C299.74 276.95 293.23 266.1 290.74 264C283.02 257.47 245.2 272 249.3 292.05H308.12Z" fill="url(#paint0_linear_107_526)"/>
<path d="M339.54 292.05C337.72 286.92 333.76 282.51 327.28 280.11C291 266.69 248.39 272.02 235.67 276.11C226.77 279 221.78 285.24 219.9 292.01L339.54 292.05Z" fill="#1B5A96"/>
<path d="M232.33 238.61C232.8 243.27 233.03 246.89 233.02 249.61C233.04 250.297 233.023 250.985 232.97 251.67C232.78 253.33 232.76 254.19 231.63 254.31C230.783 254.282 229.964 253.999 229.28 253.5C228.595 253.001 228.076 252.308 227.79 251.51C226.297 247.604 225.341 243.513 224.95 239.35C223.95 230.04 223.95 221.88 224.73 217.71C224.73 217.63 224.73 217.55 224.73 217.48C225.07 215.8 225.52 214.83 226.12 214.78C227.12 214.68 228.22 217.03 229.28 220.97C229.42 221.48 229.56 221.97 229.7 222.58C230.921 227.861 231.799 233.216 232.33 238.61Z" fill="#101C3A"/>
<path d="M290.82 186.56C295.82 191.45 299.13 204.66 289.92 216.48C280.71 228.3 264.16 241.21 231.82 254.25C231.82 254.25 240.97 237.79 226.03 214.79C226.03 214.79 247.58 192.98 260.24 186.62C272.9 180.26 285.27 181.21 290.82 186.56Z" fill="#FB9100"/>
<path d="M238.32 240.38C236.48 244.69 234.93 247.96 233.6 250.38C233.293 250.929 232.835 251.379 232.28 251.677C231.726 251.975 231.098 252.107 230.47 252.06C229.47 251.98 228.29 251.85 227.12 251.7C224.61 251.38 222.12 250.94 221.02 250.7C215.27 249.36 210.02 245.03 207.47 236.49C205.27 229.13 207.09 183.82 207.47 176.1C206.41 172.34 205.28 160.23 207.27 159.27C209.89 158.01 217.04 156.98 217.1 159C217.19 160.29 219.28 165 219.42 171.92C220.98 177.92 231.51 199.66 238.23 213.42C240.156 217.343 241.227 221.63 241.374 225.999C241.52 230.367 240.739 234.716 239.08 238.76C238.79 239.29 238.56 239.83 238.32 240.38Z" fill="#FFCFC5"/>
<path d="M265.23 257.01C264.564 262.648 262.345 267.99 258.82 272.44C258.82 272.44 300.82 273.6 317.68 292.05H340.23C333.67 272.59 324.75 241.34 326.36 219.29C327.56 202.76 329.04 187.65 307.88 181.36C303.23 179.98 290.64 180.16 284.44 179.94C281.15 179.81 267.04 179.51 265.66 186.5C264.996 189.118 263.987 191.637 262.66 193.99C257.56 203.99 249 216.94 258.37 231.26C264.97 241.29 266.12 250.12 265.23 257.01Z" fill="#FB9100"/>
<path d="M264.34 269.49C266.99 259.82 268.18 245.29 258.82 230.99C250.48 218.25 256.67 206.52 261.64 197.08C262.15 196.08 262.64 195.14 263.13 194.21L262.26 193.76C261.79 194.69 261.26 195.65 260.77 196.63C255.68 206.28 249.34 218.3 258 231.53C267.15 245.53 266 259.75 263.4 269.23L264.34 269.49Z" fill="#292929"/>
<path d="M272.64 235.69L272.71 234.69H272.4C266.87 234.59 262.21 233.11 259.28 230.52L258.63 231.26C261.78 234.04 266.53 235.57 272.38 235.67L272.64 235.69Z" fill="#292929"/>
<path d="M287.11 235.36L287.84 234.7C280.84 226.8 283.74 216.29 283.77 216.19L282.82 215.92C282.79 216.02 279.72 227.04 287.11 235.36Z" fill="#292929"/>
<path d="M327.62 271.68C339.13 259.68 341.99 223.52 341.93 222.83C342.47 222.67 343.64 222.33 345.25 221.83L342.52 215.93C342.52 215.93 348.09 208.5 349.19 208.12L365.72 202.68C365.72 202.68 375.84 211.34 380.29 218.61C383.29 238.19 336.29 280.61 335.91 280.94L327.62 271.68Z" fill="#FFCFC5"/>
<path d="M289.89 192.83C291.5 187.14 299.22 178.46 311.69 180.57C324.16 182.68 350.02 191.57 368.13 202.73C368.13 202.73 361.98 219.47 339.52 231.63C339.52 231.63 311.18 221.79 301.39 214.92C291.6 208.05 288.1 199.12 289.89 192.83Z" fill="#FB9100"/>
<path d="M347.38 205.83C346.917 201.676 345.175 197.769 342.394 194.648C339.614 191.527 335.933 189.347 331.86 188.41L331.65 189.21C335.557 190.098 339.09 192.18 341.76 195.167C344.43 198.154 346.104 201.898 346.55 205.88L347.38 205.83Z" fill="#292929"/>
<path d="M277.87 180.05C278.39 180.05 280.77 179.79 284.51 179.69L285.73 162.56C292.471 160.985 299.113 159.012 305.62 156.65L303.91 180.76C305.21 180.94 306.53 181.14 307.91 181.37C310.601 181.953 313.168 183.01 315.49 184.49C301.81 201.67 273.49 203.29 271.86 190.33C271.16 185 272.47 180.12 277.87 180.05Z" fill="#FFCFC5"/>
<path d="M285.32 166.4L285.09 171.59C295.34 172.53 304.2 165.59 305.09 163.78C305.09 163.78 305.62 156.94 305.57 156.97C293.28 163.2 286.75 166.65 285.32 166.4Z" fill="#292929"/>
<path d="M282.59 166.64C287.85 168.51 300.04 164.85 303.91 160.82C305.29 159.38 306.5 154.82 307.34 152.5C310.34 144.22 307.62 137.73 302.96 133.9C300.96 132.29 293.73 129.82 291.5 129.49C284.15 128.44 282.88 134.85 280.3 141.81C277.4 149.61 273.31 163.33 282.59 166.64Z" fill="#FFCFC5"/>
<path d="M308.41 127.09C315.86 128.09 319.22 135.31 320.91 142.09C327.85 170.02 312.05 207.91 314.44 210.42C312.005 211.683 309.402 212.592 306.71 213.12C306.12 213.24 306.98 203.52 306.98 203.52C306.98 203.52 302.23 213.64 300.83 213.52C297.019 213.341 293.384 211.862 290.53 209.33C290.53 209.33 310.67 149.57 305.6 148.71C300.53 147.85 296.77 125.44 308.41 127.09Z" fill="#292929"/>
<path d="M283.57 153.03L284.14 152.23C283.04 151.45 281.86 150.28 281.88 149.74C281.88 149.74 281.88 149.63 282.02 149.54C285.46 147.42 286.12 143.18 286.15 143.01V142.89V142.78C285.792 141.885 285.176 141.117 284.38 140.574C283.584 140.03 282.644 139.737 281.68 139.73V140.73C282.423 140.725 283.151 140.936 283.776 141.337C284.401 141.738 284.896 142.313 285.2 142.99C285.06 143.68 284.29 146.99 281.55 148.71C281.371 148.811 281.22 148.955 281.112 149.13C281.003 149.305 280.941 149.505 280.93 149.71C280.85 151.04 283.11 152.71 283.57 153.03Z" fill="#292929"/>
<path d="M282.26 134.5C281.96 131.57 281.84 124.15 289.69 122.93C306.53 120.32 306.05 130.54 305.2 136.45C300.47 132.17 287.62 137.32 282.26 134.5Z" fill="#292929"/>
<path d="M302.74 151.62C302.387 152.59 302.33 153.643 302.575 154.646C302.82 155.649 303.358 156.556 304.119 157.254C304.88 157.951 305.831 158.407 306.851 158.564C307.872 158.721 308.916 158.572 309.852 158.136C310.787 157.7 311.573 156.996 312.108 156.113C312.644 155.23 312.905 154.209 312.86 153.177C312.815 152.146 312.465 151.151 311.855 150.318C311.244 149.486 310.4 148.853 309.43 148.5C308.129 148.029 306.695 148.093 305.441 148.678C304.187 149.263 303.216 150.321 302.74 151.62Z" fill="#FFCFC5"/>
<path d="M305.75 156.67C306.257 156.781 306.783 156.781 307.29 156.67L307.09 155.67C306.655 155.777 306.198 155.734 305.79 155.55C305.743 155.519 305.704 155.477 305.674 155.429C305.645 155.38 305.626 155.326 305.62 155.27C305.62 155.06 305.62 155.05 305.98 154.84C306.331 154.698 306.639 154.466 306.873 154.168C307.106 153.87 307.257 153.515 307.31 153.14C307.397 152.505 307.335 151.858 307.13 151.25C306.92 150.48 306.91 150.44 307.52 150.25C308.6 149.94 309.73 151.93 310.05 152.66L310.95 152.27C310.89 152.12 309.38 148.7 307.25 149.27C305.71 149.71 305.98 150.72 306.18 151.46C306.346 151.931 306.4 152.434 306.34 152.93C306.314 153.156 306.224 153.371 306.08 153.548C305.937 153.725 305.746 153.857 305.53 153.93C305.232 154.023 304.978 154.221 304.815 154.488C304.653 154.755 304.594 155.073 304.65 155.38C304.676 155.568 304.741 155.749 304.841 155.911C304.941 156.073 305.073 156.212 305.23 156.32C305.381 156.467 305.557 156.586 305.75 156.67Z" fill="#292929"/>
<path d="M295.9 146.5L296.62 145.84C292.72 141.6 290.4 143.4 290.3 143.48L290.92 144.25C290.92 144.25 292.67 143 295.9 146.5Z" fill="#292929"/>
<path d="M280.12 155.41C279.856 156.004 279.721 156.647 279.724 157.297C279.727 157.948 279.868 158.59 280.137 159.181C280.407 159.773 280.798 160.301 281.287 160.73C281.775 161.16 282.348 161.481 282.97 161.672C283.591 161.864 284.246 161.921 284.891 161.841C285.536 161.761 286.157 161.545 286.713 161.207C287.268 160.87 287.746 160.418 288.115 159.883C288.483 159.347 288.734 158.739 288.85 158.1C285.862 157.481 282.939 156.58 280.12 155.41Z" fill="#292929"/>
<path d="M280.56 159.66L280.5 159.81C280.885 160.382 281.39 160.863 281.98 161.22C283.036 161.841 284.295 162.018 285.482 161.713C286.668 161.407 287.685 160.644 288.31 159.59C288.74 158.86 281.93 156.36 280.56 159.66Z" fill="#FB9100"/>
<path d="M293.47 147.28C293.399 147.527 293.256 147.747 293.06 147.913C292.863 148.078 292.622 148.182 292.366 148.211C292.111 148.24 291.853 148.192 291.624 148.074C291.396 147.956 291.208 147.773 291.083 147.548C290.959 147.323 290.904 147.066 290.926 146.81C290.947 146.554 291.044 146.31 291.204 146.109C291.365 145.908 291.581 145.759 291.826 145.681C292.071 145.603 292.333 145.599 292.58 145.67C292.744 145.717 292.898 145.796 293.031 145.902C293.165 146.009 293.276 146.141 293.359 146.29C293.442 146.44 293.494 146.604 293.513 146.774C293.532 146.944 293.518 147.116 293.47 147.28Z" fill="#292929"/>
<path d="M283.31 144.38C283.215 144.712 282.991 144.992 282.689 145.158C282.387 145.325 282.032 145.366 281.7 145.27C281.369 145.175 281.089 144.951 280.922 144.649C280.755 144.347 280.715 143.992 280.81 143.66C280.857 143.496 280.936 143.343 281.043 143.209C281.149 143.076 281.281 142.964 281.431 142.882C281.58 142.799 281.745 142.747 281.914 142.727C282.084 142.708 282.256 142.723 282.42 142.77C282.584 142.817 282.737 142.896 282.871 143.003C283.005 143.109 283.116 143.241 283.199 143.391C283.281 143.54 283.334 143.705 283.353 143.874C283.372 144.044 283.357 144.216 283.31 144.38Z" fill="#292929"/>
<path d="M281.25 292.05H323.65C320.75 283.55 319.86 276.7 329.59 271.05C341.59 264.05 332.09 245.39 305.59 244.44C279.09 243.49 256.73 254.16 279.69 289.72C280.19 290.56 280.72 291.29 281.25 292.05Z" fill="#CFE0FA"/>
<path d="M310.99 292.05C310.444 291.59 309.799 291.26 309.106 291.087C308.413 290.913 307.689 290.901 306.99 291.05C306.225 291.208 305.511 291.551 304.91 292.05H310.99Z" fill="white"/>
<path d="M305.56 292.05C306.023 291.753 306.534 291.54 307.07 291.42C307.36 291.36 307.655 291.33 307.95 291.33C308.782 291.329 309.596 291.572 310.29 292.03H311.6C311.333 291.763 311.042 291.522 310.73 291.31C310.166 290.936 309.533 290.68 308.869 290.554C308.204 290.429 307.521 290.438 306.86 290.58C305.857 290.792 304.938 291.297 304.22 292.03L305.56 292.05Z" fill="#547AC5"/>
<path d="M280.77 278.45C280.58 277.538 280.665 276.591 281.014 275.727C281.362 274.864 281.959 274.123 282.728 273.598C283.498 273.074 284.405 272.789 285.337 272.78C286.268 272.772 287.18 273.039 287.96 273.549C288.739 274.058 289.35 274.788 289.715 275.644C290.08 276.501 290.182 277.446 290.01 278.362C289.838 279.277 289.398 280.12 288.747 280.785C288.095 281.451 287.261 281.908 286.35 282.1C285.127 282.351 283.853 282.109 282.808 281.425C281.762 280.741 281.03 279.672 280.77 278.45Z" fill="#1B5A96"/>
<path d="M314.78 261.09C314.59 260.178 314.675 259.231 315.024 258.367C315.372 257.504 315.969 256.763 316.738 256.239C317.508 255.714 318.415 255.429 319.347 255.421C320.278 255.412 321.19 255.679 321.97 256.189C322.749 256.698 323.36 257.428 323.725 258.284C324.089 259.141 324.192 260.087 324.02 261.002C323.848 261.917 323.408 262.76 322.757 263.426C322.105 264.091 321.271 264.548 320.36 264.74C319.754 264.867 319.129 264.874 318.52 264.759C317.911 264.645 317.331 264.411 316.813 264.072C316.295 263.733 315.848 263.295 315.5 262.783C315.151 262.272 314.906 261.696 314.78 261.09Z" fill="#030047"/>
<path d="M300.81 276.09C300.615 275.153 300.702 274.179 301.06 273.292C301.418 272.404 302.031 271.643 302.822 271.104C303.613 270.565 304.546 270.272 305.503 270.263C306.46 270.254 307.398 270.529 308.199 271.053C308.999 271.577 309.627 272.327 310.002 273.207C310.376 274.088 310.482 275.06 310.304 276C310.127 276.941 309.674 277.808 309.004 278.491C308.334 279.174 307.477 279.644 306.54 279.84C305.918 279.97 305.275 279.977 304.651 279.859C304.026 279.741 303.43 279.501 302.898 279.152C302.366 278.804 301.907 278.355 301.549 277.829C301.191 277.304 300.94 276.713 300.81 276.09Z" fill="#C66A05"/>
<path d="M289.35 256.39C289.143 255.404 289.233 254.378 289.609 253.443C289.985 252.508 290.631 251.705 291.464 251.138C292.296 250.57 293.279 250.262 294.287 250.253C295.295 250.244 296.283 250.535 297.125 251.088C297.968 251.642 298.627 252.432 299.019 253.361C299.412 254.289 299.52 255.313 299.33 256.303C299.14 257.293 298.66 258.204 297.952 258.921C297.243 259.638 296.338 260.128 295.35 260.33C294.032 260.602 292.66 260.34 291.535 259.601C290.41 258.862 289.624 257.707 289.35 256.39Z" fill="#FB9100"/>
<path d="M217.86 168.56C217.86 168.56 223.79 165.87 224.62 161.65C225.45 157.43 225.99 155.72 227.62 153.65C229.25 151.58 224.62 149.92 221.48 155.72C218.34 161.52 214.15 165.07 217.86 168.56Z" fill="#FFCFC5"/>
<path d="M221.61 155.92C221.524 156.167 221.484 156.428 221.49 156.69C221.499 156.954 221.563 157.213 221.68 157.45C221.738 157.569 221.812 157.68 221.9 157.78C221.993 157.875 222.093 157.962 222.2 158.04C222.313 158.108 222.43 158.168 222.55 158.22L222.74 158.27H222.93L222.58 158.11C222.472 158.047 222.369 157.977 222.27 157.9C222.174 157.827 222.087 157.743 222.01 157.65C221.934 157.553 221.867 157.449 221.81 157.34C221.703 157.12 221.635 156.883 221.61 156.64C221.588 156.4 221.588 156.159 221.61 155.92Z" fill="#D17F80"/>
<path d="M219.47 166.04C219.419 165.892 219.402 165.734 219.419 165.579C219.437 165.423 219.488 165.273 219.57 165.14C219.84 164.55 218.82 162.66 218.82 162.66L217.69 161.44L216.13 160.86C216.096 160.927 216.044 160.983 215.979 161.023C215.915 161.062 215.841 161.083 215.765 161.083C215.69 161.083 215.616 161.062 215.551 161.023C215.487 160.983 215.435 160.927 215.4 160.86C215.01 160.32 214.07 162.12 214.07 162.12L213.24 165.91C213.63 166.976 214.161 167.985 214.82 168.91C215.38 169.35 219.32 169.3 219.32 169.3L219.47 166.04Z" fill="#FFCFC5"/>
<path d="M214.33 149.62C209.77 149.47 211.28 154.44 211.28 154.44C210.783 154.42 210.289 154.518 209.837 154.726C209.385 154.933 208.988 155.245 208.679 155.635C208.37 156.024 208.158 156.482 208.059 156.969C207.96 157.457 207.978 157.96 208.11 158.44C207.309 159.076 206.654 159.878 206.19 160.79C206.323 161.249 206.553 161.674 206.866 162.035C207.179 162.397 207.566 162.686 208.002 162.883C208.438 163.08 208.911 163.18 209.389 163.176C209.867 163.172 210.338 163.064 210.77 162.86C213.39 161.6 211.99 159.46 211.99 159.46C214.22 160.12 216.17 158.66 216.44 157.65C216.71 156.64 215.06 155.36 215 155.31C215.569 155.324 216.135 155.21 216.654 154.976C217.173 154.743 217.633 154.395 218 153.96C219.22 152.5 217.75 150.66 217.67 150.57C218.39 150.921 219.193 151.067 219.99 150.99C220.835 150.768 221.59 150.289 222.15 149.62C223.41 148.49 222.59 144.92 217.74 145.42C212.89 145.92 214.33 149.62 214.33 149.62Z" fill="#FFCFC5"/>
<path d="M214.86 155.2C214.41 154.808 213.876 154.525 213.3 154.37C213.013 154.289 212.718 154.242 212.42 154.23C212.123 154.216 211.825 154.253 211.54 154.34C211.83 154.32 212.12 154.32 212.41 154.34C212.694 154.377 212.974 154.434 213.25 154.51C213.52 154.59 213.79 154.68 214.06 154.79C214.334 154.912 214.601 155.049 214.86 155.2Z" fill="#D17F80"/>
<path d="M211.79 159.26C211.335 158.876 210.803 158.593 210.23 158.43C209.943 158.348 209.648 158.301 209.35 158.29C209.053 158.286 208.757 158.323 208.47 158.4C208.76 158.38 209.051 158.38 209.34 158.4C209.625 158.436 209.906 158.496 210.18 158.58C210.457 158.654 210.727 158.747 210.99 158.86C211.264 158.978 211.531 159.112 211.79 159.26Z" fill="#D17F80"/>
<path d="M217.68 150.56C217.228 150.174 216.695 149.894 216.12 149.74C215.834 149.654 215.538 149.607 215.24 149.6C214.943 149.586 214.645 149.623 214.36 149.71C214.65 149.685 214.941 149.685 215.23 149.71C215.514 149.747 215.794 149.804 216.07 149.88C216.348 149.958 216.622 150.052 216.89 150.16C217.15 150.26 217.47 150.38 217.68 150.56Z" fill="#D17F80"/>
<path d="M207.87 174.35C207.492 174.134 207.209 173.783 207.079 173.368C206.949 172.952 206.982 172.502 207.17 172.11L219.47 146.91C220.622 144.539 222.395 142.524 224.6 141.08C224.934 140.861 225.321 140.738 225.719 140.724C226.118 140.711 226.513 140.808 226.86 141.004C227.207 141.201 227.494 141.489 227.688 141.837C227.882 142.186 227.976 142.581 227.96 142.98C227.844 145.613 227.019 148.167 225.57 150.37L210.2 173.8C209.958 174.174 209.58 174.44 209.146 174.543C208.712 174.645 208.255 174.576 207.87 174.35Z" fill="#101C3A"/>
<path d="M231.47 131.49C230.426 132.892 229.147 134.104 227.69 135.07C225.32 136.62 221.69 140.69 225.09 142.71C228.49 144.73 231.26 142.65 231.72 138.18C232.18 133.71 231.32 134.29 231.47 131.49Z" fill="#FB9100"/>
<path d="M321.01 292.05H327.76C328.955 290.744 329.989 289.301 330.84 287.75C336.09 278.39 340.47 276.56 340.47 276.56L330.47 268.83C330.47 268.83 322.24 273.55 323.58 279.13C324.41 282.75 322.57 288.3 321.01 292.05Z" fill="#FFCFC5"/>
<path d="M316.99 292.05H324.65C326.98 289.94 329.31 287.44 329.65 285.69C330.23 282.53 324.77 273.84 324.77 273.84C324.01 274.75 321.77 279.89 321.15 280.33C320.84 280.54 318.78 280.26 316.33 279.38C314.39 278.69 313.93 278.26 312.86 280.01C311.37 282.47 309.6 285.49 309.48 286.22C309.31 287.24 314.76 290.69 316.99 292.05Z" fill="#FFCFC5"/>
<path d="M303.47 291.77L304.3 292.05H316.37C313.45 291.05 307.15 288.99 304.08 289.42C303.04 289.56 302.47 291.42 303.47 291.77Z" fill="#FFCFC5"/>
<path d="M312.28 280.9L320.96 285.49C317.97 284.151 315.07 282.618 312.28 280.9Z" fill="#D17F80"/>
<path d="M310.77 283.48C313.59 285.82 320.59 289.68 320.59 289.68L310.77 283.48Z" fill="#D17F80"/>
</g>
<path d="M317.92 80.4299C317.906 77.4522 318.486 74.5016 319.625 71.7503C320.763 68.9989 322.439 66.5019 324.552 64.4047C326.666 62.3075 329.177 60.6522 331.937 59.5354C334.697 58.4186 337.652 57.8625 340.63 57.8997C343.607 57.9369 346.548 58.5665 349.279 59.7519C352.011 60.9373 354.479 62.6548 356.54 64.8041C358.601 66.9534 360.213 69.4915 361.283 72.2704C362.352 75.0494 362.858 78.0135 362.77 80.9899C362.744 82.9752 362.458 84.9487 361.92 86.8599C360.842 91.95 357.935 96.4683 353.75 99.5599C350.53 101.95 350.06 105.56 349.65 107.36C349.24 109.16 346.94 111.62 339.96 111.53C332.98 111.44 330.73 108.89 330.37 107.13C330.01 105.37 329.63 101.69 326.47 99.2199C322.362 96.0179 319.569 91.4215 318.62 86.2999C318.129 84.3827 317.893 82.4088 317.92 80.4299Z" fill="#FB9100"/>
<g opacity="0.3">
<path d="M347.05 110.27C344.825 111.263 342.392 111.702 339.96 111.55C332.96 111.46 330.73 108.91 330.37 107.14C330.01 105.37 329.63 101.71 326.47 99.2398C322.362 96.0378 319.569 91.4414 318.62 86.3198C318.378 85.3691 318.197 84.4038 318.08 83.4298C317.956 82.4348 317.902 81.4323 317.92 80.4298C317.982 75.3354 319.776 70.414 323.008 66.4753C326.24 62.5367 330.716 59.8156 335.7 58.7598C331.548 60.3916 327.977 63.2238 325.442 66.8949C322.908 70.5659 321.525 74.9091 321.47 79.3698C321.452 80.3723 321.506 81.3748 321.63 82.3698C321.747 83.3438 321.928 84.3091 322.17 85.2598C323.119 90.3814 325.912 94.9778 330.02 98.1798C333.18 100.65 333.57 104.32 333.92 106.09C334.27 107.86 336.53 110.41 343.51 110.49C344.694 110.516 345.878 110.443 347.05 110.27Z" fill="#091022"/>
</g>
<path d="M330.67 108.43C330.67 110.33 334.8 112.22 339.95 112.28C345.1 112.34 349.3 110.56 349.32 108.66C349.34 106.76 345.19 105.18 340.04 105.11C334.89 105.04 330.7 106.56 330.67 108.43Z" fill="#030047"/>
<path d="M339.68 117.12C341.611 117.274 343.547 116.875 345.26 115.97L345.21 120.04C345.202 120.744 345.056 121.439 344.779 122.085C344.502 122.732 344.101 123.318 343.597 123.809C343.094 124.301 342.498 124.688 341.845 124.949C341.192 125.21 340.493 125.339 339.79 125.33C339.087 125.322 338.392 125.176 337.745 124.899C337.098 124.622 336.512 124.221 336.021 123.717C335.529 123.214 335.142 122.619 334.881 121.965C334.62 121.312 334.491 120.614 334.5 119.91L334.55 116.08C336.154 116.826 337.912 117.182 339.68 117.12Z" fill="#030047"/>
<path d="M343.77 111.56C343.733 111.554 343.698 111.541 343.666 111.521C343.634 111.501 343.607 111.475 343.585 111.444C343.564 111.413 343.549 111.378 343.541 111.342C343.533 111.305 343.533 111.267 343.54 111.23L350.54 72.9502C350.557 72.8777 350.6 72.8141 350.661 72.7717C350.722 72.7292 350.796 72.7108 350.87 72.7202C350.946 72.7348 351.014 72.7784 351.059 72.8418C351.103 72.9052 351.122 72.9834 351.11 73.0602L344.11 111.33C344.093 111.405 344.049 111.47 343.986 111.512C343.922 111.555 343.845 111.572 343.77 111.56Z" fill="white"/>
<path d="M336.94 111.49C336.874 111.489 336.81 111.464 336.761 111.42C336.712 111.376 336.679 111.316 336.67 111.25L330.67 72.8102C330.664 72.7734 330.666 72.7358 330.675 72.6997C330.684 72.6636 330.7 72.6296 330.723 72.5998C330.745 72.57 330.773 72.545 330.805 72.5262C330.837 72.5073 330.873 72.4951 330.91 72.4902C330.947 72.4831 330.985 72.4838 331.022 72.4922C331.058 72.5007 331.093 72.5167 331.123 72.5393C331.153 72.562 331.178 72.5906 331.197 72.6235C331.215 72.6564 331.226 72.6927 331.23 72.7302L337.23 111.16C337.237 111.198 337.236 111.236 337.228 111.274C337.22 111.311 337.204 111.346 337.181 111.377C337.159 111.408 337.13 111.434 337.097 111.453C337.064 111.473 337.028 111.485 336.99 111.49H336.94Z" fill="white"/>
<path d="M350.31 79.05C349.41 79.05 349.01 77.7401 348.61 76.5001C348.21 75.2601 347.88 74.16 347.19 74.15C346.5 74.14 346.09 75.3201 345.71 76.4601C345.33 77.6001 344.85 78.9801 343.95 78.9701C343.05 78.9601 342.65 77.6701 342.25 76.4201C341.85 75.1701 341.52 74.0801 340.83 74.0701C340.14 74.0601 339.73 75.2401 339.35 76.3801C338.97 77.5201 338.49 78.9001 337.59 78.8901C336.69 78.8801 336.28 77.5901 335.89 76.3401C335.5 75.0901 335.16 74.0001 334.46 73.9901C333.76 73.9801 333.37 75.16 332.98 76.3C332.59 77.44 332.12 78.8201 331.22 78.8101V78.5601C331.91 78.5601 332.32 77.3901 332.71 76.2501C333.1 75.1101 333.57 73.7401 334.47 73.7501C335.37 73.7601 335.77 75.0501 336.16 76.2901C336.55 77.5301 336.9 78.6301 337.59 78.6401C338.28 78.6501 338.69 77.47 339.07 76.33C339.45 75.19 339.93 73.81 340.83 73.83C341.73 73.85 342.14 75.13 342.53 76.37C342.92 77.61 343.26 78.7101 343.95 78.7201C344.64 78.7301 345.05 77.5501 345.43 76.4101C345.81 75.2701 346.29 73.89 347.19 73.9C348.09 73.91 348.5 75.2001 348.89 76.4501C349.28 77.7001 349.62 78.79 350.31 78.8V79.05Z" fill="white"/>
<path d="M330.68 107.99L330.6 114.27C330.6 114.54 330.6 114.82 330.6 115.09C330.65 115.807 330.784 116.515 331 117.2C331.592 119.072 332.759 120.71 334.335 121.88C335.912 123.05 337.817 123.694 339.781 123.718C341.744 123.742 343.665 123.147 345.27 122.016C346.875 120.885 348.082 119.277 348.72 117.42C348.952 116.74 349.103 116.036 349.17 115.32C349.185 115.047 349.185 114.773 349.17 114.5L349.25 108.22C348.36 109.84 345.8 111.62 339.88 111.55C333.96 111.48 331.52 109.63 330.68 107.99Z" fill="#1B5A96"/>
<path d="M330.54 109.81L330.66 109.45C331.5 111.09 334.02 112.94 339.94 113.01C345.86 113.08 348.42 111.31 349.31 109.69L349.42 110.04C349.48 110.243 349.48 110.458 349.42 110.66L349.28 111.14C348.4 112.76 345.84 114.54 339.91 114.47C333.98 114.4 331.48 112.55 330.63 110.91L330.5 110.42C330.457 110.217 330.471 110.006 330.54 109.81Z" fill="#030047"/>
<path d="M330.47 112.56L330.59 112.2C331.43 113.84 333.94 115.69 339.87 115.76C345.8 115.83 348.35 114.05 349.24 112.43L349.35 112.79C349.41 112.993 349.41 113.208 349.35 113.41L349.22 113.9C348.33 115.51 345.77 117.29 339.86 117.22C333.95 117.15 331.43 115.3 330.58 113.66L330.45 113.17C330.401 112.969 330.408 112.758 330.47 112.56Z" fill="#030047"/>
<path d="M330.53 115.56L330.64 115.24C330.635 115.203 330.635 115.166 330.64 115.13C331.51 116.75 334.04 118.55 339.88 118.63C345.72 118.71 348.29 116.96 349.21 115.36C349.21 115.36 349.21 115.44 349.21 115.48L349.31 115.8C349.365 116.003 349.365 116.217 349.31 116.42L348.79 117.36V117.46C347.59 118.85 344.99 120.17 339.9 120.1C334.81 120.03 332.3 118.7 331.12 117.3L331.07 117.24C331.07 117.24 331.07 117.18 331.07 117.16L330.57 116.16C330.496 115.969 330.482 115.759 330.53 115.56Z" fill="#030047"/>
<path opacity="0.21" d="M344.83 61.8601C341.17 62.3201 339.07 67.6801 344.36 68.7901C349.65 69.9001 349.96 71.9401 349.63 75.4701C349.3 79.0001 359.53 78.4701 357.07 71.4701C354.61 64.4701 348.81 61.3701 344.83 61.8601Z" fill="white"/>
<path d="M334.97 122.56C331.9 121.35 330.97 117.76 330.97 117.56L331.35 117.47C331.35 117.47 332.26 121.01 335.14 122.15L334.97 122.56Z" fill="#101C3A"/>
<path d="M339.33 48.28C339.168 48.28 339.013 48.2157 338.899 48.1013C338.784 47.9869 338.72 47.8318 338.72 47.67V32.61C338.72 32.4482 338.784 32.2931 338.899 32.1787C339.013 32.0643 339.168 32 339.33 32C339.492 32 339.647 32.0643 339.761 32.1787C339.876 32.2931 339.94 32.4482 339.94 32.61V47.67C339.94 47.8318 339.876 47.9869 339.761 48.1013C339.647 48.2157 339.492 48.28 339.33 48.28Z" fill="#FB9100"/>
<path d="M309.83 66.9599C309.882 66.8981 309.921 66.8265 309.945 66.7494C309.968 66.6722 309.976 66.591 309.968 66.5107C309.96 66.4304 309.935 66.3526 309.896 66.2821C309.857 66.2115 309.804 66.1495 309.74 66.0999L298.08 56.5599C298.018 56.5091 297.946 56.4712 297.869 56.4483C297.792 56.4253 297.711 56.4178 297.631 56.4262C297.551 56.4345 297.474 56.4586 297.403 56.497C297.333 56.5354 297.27 56.5873 297.22 56.6499C297.12 56.7767 297.073 56.9375 297.09 57.0982C297.107 57.2588 297.186 57.4065 297.31 57.5099L308.97 67.0399C309.032 67.0912 309.103 67.1298 309.179 67.1536C309.256 67.1773 309.337 67.1857 309.417 67.1783C309.496 67.1709 309.574 67.1477 309.645 67.1103C309.716 67.0728 309.779 67.0217 309.83 66.9599Z" fill="#FB9100"/>
<path d="M313.16 98.71C313.114 98.644 313.056 98.5879 312.988 98.545C312.92 98.502 312.844 98.4732 312.765 98.4601C312.685 98.4471 312.604 98.4501 312.526 98.4689C312.448 98.4878 312.374 98.5222 312.31 98.57L300.16 107.48C300.03 107.578 299.943 107.722 299.919 107.883C299.895 108.044 299.934 108.208 300.03 108.34C300.126 108.47 300.269 108.556 300.428 108.58C300.587 108.605 300.75 108.565 300.88 108.47L313.03 99.56C313.159 99.4642 313.246 99.321 313.27 99.1618C313.295 99.0025 313.255 98.8401 313.16 98.71Z" fill="#FB9100"/>
<path d="M370.94 66.9599C370.84 66.833 370.793 66.6722 370.81 66.5116C370.827 66.351 370.906 66.2033 371.03 66.0999L382.69 56.5599C382.752 56.5091 382.824 56.4712 382.901 56.4483C382.978 56.4253 383.059 56.4178 383.139 56.4262C383.219 56.4345 383.296 56.4586 383.367 56.497C383.437 56.5354 383.499 56.5873 383.55 56.6499C383.609 56.7125 383.655 56.7871 383.683 56.8687C383.712 56.9502 383.722 57.0369 383.715 57.1229C383.707 57.2089 383.682 57.2923 383.639 57.3677C383.597 57.443 383.539 57.5085 383.47 57.5599L371.81 67.0899C371.744 67.1387 371.67 67.1741 371.59 67.194C371.511 67.2139 371.429 67.218 371.348 67.2059C371.267 67.1938 371.189 67.1658 371.119 67.1236C371.049 67.0814 370.988 67.0258 370.94 66.9599Z" fill="#FB9100"/>
<path d="M367.61 98.71C367.656 98.6429 367.715 98.5857 367.783 98.5417C367.852 98.4977 367.928 98.4679 368.008 98.4539C368.088 98.4399 368.171 98.4421 368.25 98.4603C368.329 98.4786 368.404 98.5125 368.47 98.56L380.61 107.47C380.676 107.517 380.733 107.576 380.776 107.645C380.819 107.714 380.848 107.791 380.861 107.871C380.874 107.951 380.871 108.033 380.852 108.111C380.833 108.19 380.798 108.265 380.75 108.33C380.652 108.46 380.507 108.547 380.347 108.571C380.186 108.595 380.022 108.556 379.89 108.46L367.74 99.56C367.61 99.4642 367.524 99.3211 367.5 99.1618C367.475 99.0026 367.515 98.8402 367.61 98.71Z" fill="#FB9100"/>
<path d="M272.27 41.1899H203.85V109.61H272.27V41.1899Z" fill="#1B5A96"/>
<path d="M266.46 104.92L246.43 65.2002L234.5 90.2802L226.12 77.0102L209.75 104.75L266.46 104.92Z" fill="#FB9100"/>
<path d="M229.2 60.56C229.208 61.4361 229.475 62.2902 229.969 63.0143C230.462 63.7383 231.159 64.2999 231.972 64.6278C232.784 64.9558 233.675 65.0354 234.533 64.8567C235.391 64.678 236.176 64.249 236.79 63.6239C237.404 62.9988 237.819 62.2057 237.982 61.3449C238.145 60.484 238.05 59.5942 237.707 58.7878C237.364 57.9813 236.79 57.2946 236.058 56.8144C235.325 56.3342 234.466 56.0821 233.59 56.09C233.008 56.0953 232.433 56.215 231.898 56.4425C231.362 56.67 230.877 57.0007 230.469 57.4158C230.061 57.8309 229.74 58.3222 229.522 58.8617C229.304 59.4012 229.195 59.9783 229.2 60.56Z" fill="white"/>
<path d="M208.822 45.5374L208.2 46.1597L267.293 105.253L267.915 104.63L208.822 45.5374Z" fill="white"/>
<path d="M267.293 45.5404L208.2 104.633L208.822 105.256L267.915 46.1626L267.293 45.5404Z" fill="white"/>
<path d="M209.73 105.81C211.18 105.81 211.38 105.5 211.38 105.16C211.38 104.82 211.18 104.5 209.73 104.5C208.28 104.5 208.08 104.83 208.08 105.16C208.08 105.49 208.28 105.81 209.73 105.81Z" fill="white"/>
<path d="M214.57 105.81C216.02 105.81 216.22 105.5 216.22 105.16C216.22 104.82 216.02 104.5 214.57 104.5C213.12 104.5 212.91 104.83 212.91 105.16C212.91 105.49 213.12 105.81 214.57 105.81Z" fill="white"/>
<path d="M219.41 105.81C220.86 105.81 221.06 105.5 221.06 105.16C221.06 104.82 220.86 104.5 219.41 104.5C217.96 104.5 217.75 104.83 217.75 105.16C217.75 105.49 217.95 105.81 219.41 105.81Z" fill="white"/>
<path d="M224.24 105.81C225.7 105.81 225.9 105.5 225.9 105.16C225.9 104.82 225.7 104.5 224.24 104.5C222.78 104.5 222.59 104.83 222.59 105.16C222.59 105.49 222.79 105.81 224.24 105.81Z" fill="white"/>
<path d="M229.08 105.81C230.53 105.81 230.73 105.5 230.73 105.16C230.73 104.82 230.54 104.5 229.08 104.5C227.62 104.5 227.43 104.83 227.43 105.16C227.43 105.49 227.63 105.81 229.08 105.81Z" fill="white"/>
<path d="M233.92 105.81C235.37 105.81 235.57 105.5 235.57 105.16C235.57 104.82 235.38 104.5 233.92 104.5C232.46 104.5 232.27 104.83 232.27 105.16C232.27 105.49 232.47 105.81 233.92 105.81Z" fill="white"/>
<path d="M238.76 105.81C240.21 105.81 240.41 105.5 240.41 105.16C240.41 104.82 240.21 104.5 238.76 104.5C237.31 104.5 237.11 104.83 237.11 105.16C237.11 105.49 237.31 105.81 238.76 105.81Z" fill="white"/>
<path d="M243.6 105.81C245.05 105.81 245.25 105.5 245.25 105.16C245.25 104.82 245.05 104.5 243.6 104.5C242.15 104.5 241.95 104.83 241.95 105.16C241.95 105.49 242.15 105.81 243.6 105.81Z" fill="white"/>
<path d="M248.47 105.81C249.92 105.81 250.12 105.5 250.12 105.16C250.12 104.82 249.92 104.5 248.47 104.5C247.02 104.5 246.81 104.83 246.81 105.16C246.81 105.49 246.98 105.81 248.47 105.81Z" fill="white"/>
<path d="M253.28 105.81C254.73 105.81 254.93 105.5 254.93 105.16C254.93 104.82 254.73 104.5 253.28 104.5C251.83 104.5 251.62 104.83 251.62 105.16C251.62 105.49 251.82 105.81 253.28 105.81Z" fill="white"/>
<path d="M258.11 105.81C259.57 105.81 259.77 105.5 259.77 105.16C259.77 104.82 259.57 104.5 258.11 104.5C256.65 104.5 256.46 104.83 256.46 105.16C256.46 105.49 256.66 105.81 258.11 105.81Z" fill="white"/>
<path d="M262.95 105.81C264.4 105.81 264.61 105.5 264.61 105.16C264.61 104.82 264.41 104.5 262.95 104.5C261.49 104.5 261.3 104.83 261.3 105.16C261.3 105.49 261.47 105.81 262.95 105.81Z" fill="white"/>
<path d="M266.96 106.04L267.29 105.79H267.6H268.25V104.89L268.7 104.45H268.24C268.17 103.45 267.88 103.28 267.6 103.28C267.32 103.28 267.02 103.44 266.96 104.51C266.48 104.58 266.13 104.74 266.13 105.12C266.13 105.5 266.48 105.65 266.95 105.72L266.96 106.04Z" fill="white"/>
<path d="M267.61 101.79C267.93 101.79 268.26 101.59 268.26 100.14C268.26 98.69 267.93 98.48 267.61 98.48C267.29 98.48 266.96 98.68 266.96 100.14C266.96 101.6 267.27 101.79 267.61 101.79Z" fill="white"/>
<path d="M267.61 96.9501C267.93 96.9501 268.26 96.7501 268.26 95.3001C268.26 93.8501 267.93 93.6401 267.61 93.6401C267.29 93.6401 266.96 93.8501 266.96 95.3001C266.96 96.7501 267.27 96.9501 267.61 96.9501Z" fill="white"/>
<path d="M267.61 92.1101C267.93 92.1101 268.26 91.9101 268.26 90.4601C268.26 89.0101 267.93 88.8101 267.61 88.8101C267.29 88.8101 266.96 89.0101 266.96 90.4601C266.96 91.9101 267.27 92.1101 267.61 92.1101Z" fill="white"/>
<path d="M267.61 87.2702C267.93 87.2702 268.26 87.0802 268.26 85.6202C268.26 84.1602 267.93 83.9702 267.61 83.9702C267.29 83.9702 266.96 84.1702 266.96 85.6202C266.96 87.0702 267.27 87.2702 267.61 87.2702Z" fill="white"/>
<path d="M267.61 82.4299C267.93 82.4299 268.26 82.2399 268.26 80.7799C268.26 79.3199 267.93 79.1299 267.61 79.1299C267.29 79.1299 266.96 79.3299 266.96 80.7799C266.96 82.2299 267.27 82.4299 267.61 82.4299Z" fill="white"/>
<path d="M267.61 77.56C267.93 77.56 268.26 77.36 268.26 75.9C268.26 74.44 267.93 74.25 267.61 74.25C267.29 74.25 266.96 74.45 266.96 75.9C266.96 77.35 267.27 77.56 267.61 77.56Z" fill="white"/>
<path d="M267.61 72.7602C267.93 72.7602 268.26 72.5602 268.26 71.1002C268.26 69.6402 267.93 69.4502 267.61 69.4502C267.29 69.4502 266.96 69.6502 266.96 71.1002C266.96 72.5502 267.27 72.7602 267.61 72.7602Z" fill="white"/>
<path d="M267.61 67.9199C267.93 67.9199 268.26 67.7199 268.26 66.2699C268.26 64.8199 267.93 64.6099 267.61 64.6099C267.29 64.6099 266.96 64.8099 266.96 66.2699C266.96 67.7299 267.27 67.9199 267.61 67.9199Z" fill="white"/>
<path d="M267.61 63.0798C267.93 63.0798 268.26 62.8798 268.26 61.4298C268.26 59.9798 267.93 59.7798 267.61 59.7798C267.29 59.7798 266.96 59.9798 266.96 61.4298C266.96 62.8798 267.27 63.0798 267.61 63.0798Z" fill="white"/>
<path d="M267.61 58.2399C267.93 58.2399 268.26 58.0399 268.26 56.5899C268.26 55.1399 267.93 54.9399 267.61 54.9399C267.29 54.9399 266.96 55.1399 266.96 56.5899C266.96 58.0399 267.27 58.2399 267.61 58.2399Z" fill="white"/>
<path d="M267.61 53.4001C267.93 53.4001 268.26 53.2001 268.26 51.7501C268.26 50.3001 267.93 50.1001 267.61 50.1001C267.29 50.1001 266.96 50.3001 266.96 51.7501C266.96 53.2001 267.27 53.4001 267.61 53.4001Z" fill="white"/>
<path d="M263.62 46.7202C265.07 46.7202 265.27 46.3902 265.27 46.0602C265.27 45.7302 265.07 45.4102 263.62 45.4102C262.17 45.4102 261.97 45.7202 261.97 46.0602C261.97 46.4002 262.16 46.7202 263.62 46.7202Z" fill="white"/>
<path d="M258.78 46.7202C260.24 46.7202 260.43 46.3902 260.43 46.0602C260.43 45.7302 260.23 45.4102 258.78 45.4102C257.33 45.4102 257.13 45.7202 257.13 46.0602C257.13 46.4002 257.33 46.7202 258.78 46.7202Z" fill="white"/>
<path d="M253.94 46.7202C255.4 46.7202 255.59 46.3902 255.59 46.0602C255.59 45.7302 255.39 45.4102 253.94 45.4102C252.49 45.4102 252.29 45.7202 252.29 46.0602C252.29 46.4002 252.47 46.7202 253.94 46.7202Z" fill="white"/>
<path d="M249.1 46.7202C250.56 46.7202 250.75 46.3902 250.75 46.0602C250.75 45.7302 250.55 45.4102 249.1 45.4102C247.65 45.4102 247.45 45.7202 247.45 46.0602C247.45 46.4002 247.65 46.7202 249.1 46.7202Z" fill="white"/>
<path d="M244.27 46.7202C245.72 46.7202 245.92 46.3902 245.92 46.0602C245.92 45.7302 245.72 45.4102 244.27 45.4102C242.82 45.4102 242.61 45.7202 242.61 46.0602C242.61 46.4002 242.81 46.7202 244.27 46.7202Z" fill="white"/>
<path d="M239.47 46.7202C240.92 46.7202 241.12 46.3902 241.12 46.0602C241.12 45.7302 240.92 45.4102 239.47 45.4102C238.02 45.4102 237.81 45.7202 237.81 46.0602C237.81 46.4002 237.97 46.7202 239.47 46.7202Z" fill="white"/>
<path d="M234.59 46.7202C236.04 46.7202 236.24 46.3902 236.24 46.0602C236.24 45.7302 236.04 45.4102 234.59 45.4102C233.14 45.4102 232.94 45.7202 232.94 46.0602C232.94 46.4002 233.13 46.7202 234.59 46.7202Z" fill="white"/>
<path d="M229.75 46.7202C231.2 46.7202 231.4 46.3902 231.4 46.0602C231.4 45.7302 231.2 45.4102 229.75 45.4102C228.3 45.4102 228.1 45.7202 228.1 46.0602C228.1 46.4002 228.29 46.7202 229.75 46.7202Z" fill="white"/>
<path d="M224.91 46.7202C226.37 46.7202 226.56 46.3902 226.56 46.0602C226.56 45.7302 226.36 45.4102 224.91 45.4102C223.46 45.4102 223.26 45.7202 223.26 46.0602C223.26 46.4002 223.47 46.7202 224.91 46.7202Z" fill="white"/>
<path d="M220.07 46.7202C221.53 46.7202 221.72 46.3902 221.72 46.0602C221.72 45.7302 221.52 45.4102 220.07 45.4102C218.62 45.4102 218.42 45.7202 218.42 46.0602C218.42 46.4002 218.62 46.7202 220.07 46.7202Z" fill="white"/>
<path d="M215.23 46.7202C216.69 46.7202 216.89 46.3902 216.89 46.0602C216.89 45.7302 216.69 45.4102 215.23 45.4102C213.77 45.4102 213.58 45.7202 213.58 46.0602C213.58 46.4002 213.78 46.7202 215.23 46.7202Z" fill="white"/>
<path d="M210.39 46.7202C211.85 46.7202 212.05 46.3902 212.05 46.0602C212.05 45.7302 211.85 45.4102 210.39 45.4102C208.93 45.4102 208.74 45.7202 208.74 46.0602C208.74 46.4002 208.94 46.7202 210.39 46.7202Z" fill="white"/>
<path d="M208.52 50.6801C208.86 50.6801 209.17 50.4801 209.17 49.0301C209.17 47.5801 208.86 47.3701 208.52 47.3701C208.18 47.3701 207.87 47.5701 207.87 49.0301C207.87 50.4901 208.2 50.6801 208.52 50.6801Z" fill="white"/>
<path d="M208.52 55.56C208.86 55.56 209.17 55.36 209.17 53.91C209.17 52.46 208.86 52.25 208.52 52.25C208.18 52.25 207.87 52.45 207.87 53.91C207.87 55.37 208.2 55.56 208.52 55.56Z" fill="white"/>
<path d="M208.52 60.3598C208.86 60.3598 209.17 60.1598 209.17 58.6998C209.17 57.2398 208.86 57.0498 208.52 57.0498C208.18 57.0498 207.87 57.2498 207.87 58.6998C207.87 60.1498 208.2 60.3598 208.52 60.3598Z" fill="white"/>
<path d="M208.52 65.1901C208.86 65.1901 209.17 64.9901 209.17 63.5401C209.17 62.0901 208.86 61.8901 208.52 61.8901C208.18 61.8901 207.87 62.0901 207.87 63.5401C207.87 64.9901 208.2 65.1901 208.52 65.1901Z" fill="white"/>
<path d="M208.52 70.03C208.86 70.03 209.17 69.83 209.17 68.38C209.17 66.93 208.86 66.73 208.52 66.73C208.18 66.73 207.87 66.93 207.87 68.38C207.87 69.83 208.2 70.03 208.52 70.03Z" fill="white"/>
<path d="M208.52 74.8698C208.86 74.8698 209.17 74.6698 209.17 73.2198C209.17 71.7698 208.86 71.5698 208.52 71.5698C208.18 71.5698 207.87 71.7598 207.87 73.2198C207.87 74.6798 208.2 74.8698 208.52 74.8698Z" fill="white"/>
<path d="M208.52 79.7102C208.86 79.7102 209.17 79.5102 209.17 78.0602C209.17 76.6102 208.86 76.4102 208.52 76.4102C208.18 76.4102 207.87 76.6002 207.87 78.0602C207.87 79.5202 208.2 79.7102 208.52 79.7102Z" fill="white"/>
<path d="M208.52 84.56C208.86 84.56 209.17 84.36 209.17 82.91C209.17 81.46 208.86 81.25 208.52 81.25C208.18 81.25 207.87 81.45 207.87 82.91C207.87 84.37 208.2 84.56 208.52 84.56Z" fill="white"/>
<path d="M208.52 89.3901C208.86 89.3901 209.17 89.1901 209.17 87.7401C209.17 86.2901 208.86 86.0801 208.52 86.0801C208.18 86.0801 207.87 86.2801 207.87 87.7401C207.87 89.2001 208.2 89.3901 208.52 89.3901Z" fill="white"/>
<path d="M208.52 94.2299C208.86 94.2299 209.17 94.0199 209.17 92.5699C209.17 91.1199 208.86 90.9199 208.52 90.9199C208.18 90.9199 207.87 91.1199 207.87 92.5699C207.87 94.0199 208.2 94.2299 208.52 94.2299Z" fill="white"/>
<path d="M208.52 99.0698C208.86 99.0698 209.17 98.8698 209.17 97.4098C209.17 95.9498 208.86 95.7598 208.52 95.7598C208.18 95.7598 207.87 95.9598 207.87 97.4098C207.87 98.8598 208.2 99.0698 208.52 99.0698Z" fill="white"/>
<path d="M208.52 103.9C208.86 103.9 209.17 103.7 209.17 102.25C209.17 100.8 208.86 100.6 208.52 100.6C208.18 100.6 207.87 100.8 207.87 102.25C207.87 103.7 208.2 103.9 208.52 103.9Z" fill="white"/>
<path d="M210.71 102.37H206.33V106.75H210.71V102.37Z" fill="white"/>
<path d="M205.89 101.94V107.2H211.14V101.94H205.89ZM210.26 106.31H206.78V102.8H210.26V106.31Z" fill="white"/>
<path d="M269.8 102.97H265.42V107.35H269.8V102.97Z" fill="white"/>
<path d="M264.98 102.56V107.81H270.25V102.56H264.98ZM269.36 106.94H265.85V103.46H269.36V106.94Z" fill="white"/>
<path d="M210.71 43.4502H206.33V47.8302H210.71V43.4502Z" fill="white"/>
<path d="M205.89 43V48.27H211.14V43H205.89ZM210.26 47.38H206.78V43.9H210.26V47.38Z" fill="white"/>
<path d="M269.8 43.8799H265.42V48.2599H269.8V43.8799Z" fill="white"/>
<path d="M264.98 43.4399V48.6999H270.25V43.4399H264.98ZM269.36 47.8099H265.85V44.3199H269.36V47.8099Z" fill="white"/>
<path d="M277.62 92.27H239.95V129.94H277.62V92.27Z" fill="#030047"/>
<path d="M274.43 127.36L263.4 105.49L256.83 119.3L252.22 112L243.2 127.27L274.43 127.36Z" fill="#FB9100"/>
<path d="M253.91 102.94C253.914 103.423 254.061 103.893 254.332 104.292C254.604 104.691 254.987 105.001 255.435 105.182C255.882 105.363 256.373 105.407 256.845 105.309C257.318 105.211 257.751 104.975 258.089 104.631C258.428 104.287 258.657 103.85 258.747 103.376C258.837 102.902 258.785 102.412 258.596 101.968C258.408 101.524 258.092 101.145 257.689 100.88C257.285 100.615 256.812 100.476 256.33 100.48C255.684 100.488 255.067 100.751 254.613 101.212C254.16 101.672 253.907 102.294 253.91 102.94Z" fill="white"/>
<path d="M242.7 94.6517L242.353 94.998L274.877 127.556L275.224 127.21L242.7 94.6517Z" fill="white"/>
<path d="M274.891 94.6665L242.35 127.208L242.697 127.554L275.238 95.013L274.891 94.6665Z" fill="white"/>
<path d="M243.19 127.85C243.99 127.85 244.1 127.68 244.1 127.5C244.1 127.32 243.99 127.14 243.19 127.14C242.39 127.14 242.28 127.32 242.28 127.5C242.28 127.68 242.39 127.85 243.19 127.85Z" fill="white"/>
<path d="M245.86 127.85C246.65 127.85 246.76 127.68 246.76 127.5C246.76 127.32 246.66 127.14 245.86 127.14C245.06 127.14 244.95 127.32 244.95 127.5C244.95 127.68 245.06 127.85 245.86 127.85Z" fill="white"/>
<path d="M248.52 127.85C249.32 127.85 249.43 127.68 249.43 127.5C249.43 127.32 249.32 127.14 248.52 127.14C247.72 127.14 247.61 127.32 247.61 127.5C247.61 127.68 247.72 127.85 248.52 127.85Z" fill="white"/>
<path d="M251.18 127.85C251.98 127.85 252.09 127.68 252.09 127.5C252.09 127.32 251.99 127.14 251.18 127.14C250.37 127.14 250.27 127.32 250.27 127.5C250.27 127.68 250.39 127.85 251.18 127.85Z" fill="white"/>
<path d="M253.85 127.85C254.65 127.85 254.76 127.68 254.76 127.5C254.76 127.32 254.65 127.14 253.85 127.14C253.05 127.14 252.94 127.32 252.94 127.5C252.94 127.68 253.05 127.85 253.85 127.85Z" fill="white"/>
<path d="M256.47 127.85C257.27 127.85 257.38 127.68 257.38 127.5C257.38 127.32 257.27 127.14 256.47 127.14C255.67 127.14 255.56 127.32 255.56 127.5C255.56 127.68 255.71 127.85 256.47 127.85Z" fill="white"/>
<path d="M259.18 127.85C259.98 127.85 260.09 127.68 260.09 127.5C260.09 127.32 259.98 127.14 259.18 127.14C258.38 127.14 258.27 127.32 258.27 127.5C258.27 127.68 258.38 127.85 259.18 127.85Z" fill="white"/>
<path d="M261.84 127.85C262.64 127.85 262.75 127.68 262.75 127.5C262.75 127.32 262.64 127.14 261.84 127.14C261.04 127.14 260.93 127.32 260.93 127.5C260.93 127.68 261.04 127.85 261.84 127.85Z" fill="white"/>
<path d="M264.47 127.85C265.27 127.85 265.38 127.68 265.38 127.5C265.38 127.32 265.27 127.14 264.47 127.14C263.67 127.14 263.56 127.32 263.56 127.5C263.56 127.68 263.71 127.85 264.47 127.85Z" fill="white"/>
<path d="M267.17 127.85C267.97 127.85 268.08 127.68 268.08 127.5C268.08 127.32 267.97 127.14 267.17 127.14C266.37 127.14 266.26 127.32 266.26 127.5C266.26 127.68 266.37 127.85 267.17 127.85Z" fill="white"/>
<path d="M269.83 127.85C270.63 127.85 270.74 127.68 270.74 127.5C270.74 127.32 270.64 127.14 269.83 127.14C269.02 127.14 268.92 127.32 268.92 127.5C268.92 127.68 269.03 127.85 269.83 127.85Z" fill="white"/>
<path d="M272.47 127.85C273.27 127.85 273.38 127.68 273.38 127.5C273.38 127.32 273.27 127.14 272.47 127.14C271.67 127.14 271.56 127.32 271.56 127.5C271.56 127.68 271.7 127.85 272.47 127.85Z" fill="white"/>
<path d="M274.7 127.98L274.89 127.85H275.47V127.36L275.72 127.11H275.47C275.47 126.55 275.27 126.47 275.11 126.47C274.95 126.47 274.79 126.55 274.76 127.14C274.5 127.14 274.3 127.27 274.3 127.48C274.3 127.69 274.49 127.77 274.75 127.81L274.7 127.98Z" fill="white"/>
<path d="M275.06 125.64C275.24 125.64 275.42 125.53 275.42 124.73C275.42 123.93 275.24 123.82 275.06 123.82C274.88 123.82 274.7 123.93 274.7 124.73C274.7 125.53 274.88 125.64 275.06 125.64Z" fill="white"/>
<path d="M275.06 122.98C275.24 122.98 275.42 122.87 275.42 122.07C275.42 121.27 275.24 121.16 275.06 121.16C274.88 121.16 274.7 121.27 274.7 122.07C274.7 122.87 274.88 122.98 275.06 122.98Z" fill="white"/>
<path d="M275.06 120.31C275.24 120.31 275.42 120.2 275.42 119.4C275.42 118.6 275.24 118.49 275.06 118.49C274.88 118.49 274.7 118.6 274.7 119.4C274.7 120.2 274.88 120.31 275.06 120.31Z" fill="white"/>
<path d="M275.06 117.65C275.24 117.65 275.42 117.54 275.42 116.74C275.42 115.94 275.24 115.83 275.06 115.83C274.88 115.83 274.7 115.94 274.7 116.74C274.7 117.54 274.88 117.65 275.06 117.65Z" fill="white"/>
<path d="M275.06 114.98C275.24 114.98 275.42 114.87 275.42 114.07C275.42 113.27 275.24 113.16 275.06 113.16C274.88 113.16 274.7 113.27 274.7 114.07C274.7 114.87 274.88 114.98 275.06 114.98Z" fill="white"/>
<path d="M275.06 112.32C275.24 112.32 275.42 112.21 275.42 111.41C275.42 110.61 275.24 110.5 275.06 110.5C274.88 110.5 274.7 110.61 274.7 111.41C274.7 112.21 274.88 112.32 275.06 112.32Z" fill="white"/>
<path d="M275.06 109.65C275.24 109.65 275.42 109.55 275.42 108.74C275.42 107.93 275.24 107.84 275.06 107.84C274.88 107.84 274.7 107.95 274.7 108.74C274.7 109.53 274.88 109.65 275.06 109.65Z" fill="white"/>
<path d="M275.06 106.99C275.24 106.99 275.42 106.88 275.42 106.08C275.42 105.28 275.24 105.17 275.06 105.17C274.88 105.17 274.7 105.28 274.7 106.08C274.7 106.88 274.88 106.99 275.06 106.99Z" fill="white"/>
<path d="M275.06 104.33C275.24 104.33 275.42 104.22 275.42 103.42C275.42 102.62 275.24 102.51 275.06 102.51C274.88 102.51 274.7 102.62 274.7 103.42C274.7 104.22 274.88 104.33 275.06 104.33Z" fill="white"/>
<path d="M275.06 101.66C275.24 101.66 275.42 101.55 275.42 100.75C275.42 99.9498 275.24 99.8398 275.06 99.8398C274.88 99.8398 274.7 99.9498 274.7 100.75C274.7 101.55 274.88 101.66 275.06 101.66Z" fill="white"/>
<path d="M275.06 99.0002C275.24 99.0002 275.42 98.8902 275.42 98.0902C275.42 97.2902 275.24 97.1802 275.06 97.1802C274.88 97.1802 274.7 97.2902 274.7 98.0902C274.7 98.8902 274.88 99.0002 275.06 99.0002Z" fill="white"/>
<path d="M272.86 95.3201C273.67 95.3201 273.77 95.1301 273.77 94.9601C273.77 94.7901 273.66 94.6001 272.87 94.6001C272.08 94.6001 271.96 94.7701 271.96 94.9601C271.96 95.1501 272.06 95.3201 272.86 95.3201Z" fill="white"/>
<path d="M270.2 95.3201C271 95.3201 271.11 95.1301 271.11 94.9601C271.11 94.7901 271 94.6001 270.2 94.6001C269.4 94.6001 269.29 94.7701 269.29 94.9601C269.29 95.1501 269.4 95.3201 270.2 95.3201Z" fill="white"/>
<path d="M267.54 95.3201C268.34 95.3201 268.45 95.1301 268.45 94.9601C268.45 94.7901 268.34 94.6001 267.54 94.6001C266.74 94.6001 266.63 94.7701 266.63 94.9601C266.63 95.1501 266.74 95.3201 267.54 95.3201Z" fill="white"/>
<path d="M264.87 95.3201C265.67 95.3201 265.78 95.1301 265.78 94.9601C265.78 94.7901 265.67 94.6001 264.87 94.6001C264.07 94.6001 263.96 94.7701 263.96 94.9601C263.96 95.1501 264.07 95.3201 264.87 95.3201Z" fill="white"/>
<path d="M262.21 95.3201C263.01 95.3201 263.12 95.1301 263.12 94.9601C263.12 94.7901 263.01 94.6001 262.21 94.6001C261.41 94.6001 261.3 94.7701 261.3 94.9601C261.3 95.1501 261.41 95.3201 262.21 95.3201Z" fill="white"/>
<path d="M259.54 95.3201C260.35 95.3201 260.45 95.1301 260.45 94.9601C260.45 94.7901 260.34 94.6001 259.54 94.6001C258.74 94.6001 258.63 94.7701 258.63 94.9601C258.63 95.1501 258.74 95.3201 259.54 95.3201Z" fill="white"/>
<path d="M256.88 95.3201C257.68 95.3201 257.79 95.1301 257.79 94.9601C257.79 94.7901 257.68 94.6001 256.88 94.6001C256.08 94.6001 255.97 94.7701 255.97 94.9601C255.97 95.1501 256.08 95.3201 256.88 95.3201Z" fill="white"/>
<path d="M254.22 95.3201C255.02 95.3201 255.13 95.1301 255.13 94.9601C255.13 94.7901 255.02 94.6001 254.22 94.6001C253.42 94.6001 253.31 94.7701 253.31 94.9601C253.31 95.1501 253.41 95.3201 254.22 95.3201Z" fill="white"/>
<path d="M251.55 95.3201C252.35 95.3201 252.46 95.1301 252.46 94.9601C252.46 94.7901 252.35 94.6001 251.55 94.6001C250.75 94.6001 250.64 94.7701 250.64 94.9601C250.64 95.1501 250.75 95.3201 251.55 95.3201Z" fill="white"/>
<path d="M248.89 95.3201C249.69 95.3201 249.8 95.1301 249.8 94.9601C249.8 94.7901 249.69 94.6001 248.89 94.6001C248.09 94.6001 247.98 94.7701 247.98 94.9601C247.98 95.1501 248.09 95.3201 248.89 95.3201Z" fill="white"/>
<path d="M246.22 95.3201C247.02 95.3201 247.13 95.1301 247.13 94.9601C247.13 94.7901 247.02 94.6001 246.22 94.6001C245.42 94.6001 245.31 94.7701 245.31 94.9601C245.31 95.1501 245.47 95.3201 246.22 95.3201Z" fill="white"/>
<path d="M243.56 95.3201C244.36 95.3201 244.47 95.1301 244.47 94.9601C244.47 94.7901 244.36 94.6001 243.56 94.6001C242.76 94.6001 242.65 94.7701 242.65 94.9601C242.65 95.1501 242.76 95.3201 243.56 95.3201Z" fill="white"/>
<path d="M242.53 97.5002C242.71 97.5002 242.88 97.3902 242.88 96.5902C242.88 95.7902 242.71 95.6802 242.53 95.6802C242.35 95.6802 242.17 95.7902 242.17 96.5902C242.17 97.3902 242.35 97.5002 242.53 97.5002Z" fill="white"/>
<path d="M242.53 100.16C242.71 100.16 242.88 100.05 242.88 99.2498C242.88 98.4498 242.71 98.3398 242.53 98.3398C242.35 98.3398 242.17 98.4498 242.17 99.2498C242.17 100.05 242.35 100.16 242.53 100.16Z" fill="white"/>
<path d="M242.53 102.83C242.71 102.83 242.88 102.72 242.88 101.92C242.88 101.12 242.71 101.01 242.53 101.01C242.35 101.01 242.17 101.12 242.17 101.92C242.17 102.72 242.35 102.83 242.53 102.83Z" fill="white"/>
<path d="M242.53 105.49C242.71 105.49 242.88 105.38 242.88 104.58C242.88 103.78 242.71 103.67 242.53 103.67C242.35 103.67 242.17 103.78 242.17 104.58C242.17 105.38 242.35 105.49 242.53 105.49Z" fill="white"/>
<path d="M242.53 108.16C242.71 108.16 242.88 108.05 242.88 107.25C242.88 106.45 242.71 106.34 242.53 106.34C242.35 106.34 242.17 106.44 242.17 107.25C242.17 108.06 242.35 108.16 242.53 108.16Z" fill="white"/>
<path d="M242.53 110.82C242.71 110.82 242.88 110.71 242.88 109.91C242.88 109.11 242.71 109 242.53 109C242.35 109 242.17 109.11 242.17 109.91C242.17 110.71 242.35 110.82 242.53 110.82Z" fill="white"/>
<path d="M242.53 113.48C242.71 113.48 242.88 113.37 242.88 112.57C242.88 111.77 242.71 111.66 242.53 111.66C242.35 111.66 242.17 111.77 242.17 112.57C242.17 113.37 242.35 113.48 242.53 113.48Z" fill="white"/>
<path d="M242.53 116.15C242.71 116.15 242.88 116.04 242.88 115.24C242.88 114.44 242.71 114.33 242.53 114.33C242.35 114.33 242.17 114.44 242.17 115.24C242.17 116.04 242.35 116.15 242.53 116.15Z" fill="white"/>
<path d="M242.53 118.81C242.71 118.81 242.88 118.7 242.88 117.9C242.88 117.1 242.71 116.99 242.53 116.99C242.35 116.99 242.17 117.1 242.17 117.9C242.17 118.7 242.35 118.81 242.53 118.81Z" fill="white"/>
<path d="M242.53 121.48C242.71 121.48 242.88 121.37 242.88 120.57C242.88 119.77 242.71 119.66 242.53 119.66C242.35 119.66 242.17 119.77 242.17 120.57C242.17 121.37 242.35 121.48 242.53 121.48Z" fill="white"/>
<path d="M242.53 124.14C242.71 124.14 242.88 124.03 242.88 123.23C242.88 122.43 242.71 122.32 242.53 122.32C242.35 122.32 242.17 122.43 242.17 123.23C242.17 124.03 242.35 124.14 242.53 124.14Z" fill="white"/>
<path d="M242.53 126.8C242.71 126.8 242.88 126.69 242.88 125.9C242.88 125.11 242.71 124.99 242.53 124.99C242.35 124.99 242.17 125.09 242.17 125.9C242.17 126.71 242.35 126.8 242.53 126.8Z" fill="white"/>
<path d="M243.73 125.96H241.32V128.37H243.73V125.96Z" fill="white"/>
<path d="M241.08 125.72V128.62H243.97V125.72H241.08ZM243.49 128.13H241.57V126.2H243.47L243.49 128.13Z" fill="white"/>
<path d="M276.26 126.29H273.85V128.7H276.26V126.29Z" fill="white"/>
<path d="M273.61 126.05V128.94H276.52V126.05H273.61ZM276.03 128.45H274.1V126.56H276.03V128.45Z" fill="white"/>
<path d="M243.73 93.52H241.32V95.93H243.73V93.52Z" fill="white"/>
<path d="M241.08 93.27V96.17H243.97V93.27H241.08ZM243.47 95.68H241.57V93.76H243.47V95.68Z" fill="white"/>
<path d="M276.26 93.75H273.85V96.16H276.26V93.75Z" fill="white"/>
<path d="M273.61 93.5601V96.4601H276.52V93.5601H273.61ZM276.03 95.9701H274.1V94.0001H276.03V95.9701Z" fill="white"/>
</g>
</g>
<defs>
<linearGradient id="paint0_linear_107_526" x1="248.99" y1="277.24" x2="375.68" y2="277.24" gradientUnits="userSpaceOnUse">
<stop stop-color="#007D90"/>
<stop offset="1" stop-color="#00BDD2"/>
</linearGradient>
<clipPath id="clip0_107_526">
<rect width="570" height="324" fill="white"/>
</clipPath>
<clipPath id="clip1_107_526">
<rect width="228.81" height="260.06" fill="white" transform="translate(171 32)"/>
</clipPath>
</defs>
</svg>
