<svg width="570" height="324" viewBox="0 0 570 324" fill="none" xmlns="http://www.w3.org/2000/svg">
<rect width="570" height="324" fill="#FFF6EB"/>
<path d="M543.831 292.996H40.8937C40.6462 292.979 40.4193 292.92 40.2549 292.829C40.0906 292.738 40 292.621 40 292.5C40 292.379 40.0906 292.262 40.2549 292.171C40.4193 292.08 40.6462 292.021 40.8937 292.004H543.831C543.977 291.995 544.125 292.001 544.266 292.021C544.407 292.042 544.537 292.077 544.648 292.124C544.758 292.171 544.847 292.228 544.908 292.293C544.969 292.358 545 292.429 545 292.5C545 292.571 544.969 292.642 544.908 292.707C544.847 292.772 544.758 292.829 544.648 292.876C544.537 292.923 544.407 292.958 544.266 292.979C544.125 292.999 543.977 293.005 543.831 292.996Z" fill="#1E1E1E"/>
<g clip-path="url(#clip0_134_1088)">
<path d="M410.186 83.3009C410.159 83.0586 410.098 82.8211 410.007 82.5948C409.946 82.4549 409.876 82.3187 409.798 82.187C409.707 82.0576 409.607 81.9347 409.499 81.819C409.44 81.7692 409.39 81.7096 409.34 81.6598C409.285 81.6043 409.225 81.5544 409.161 81.5106C409.085 81.4519 409.005 81.3987 408.922 81.3515C408.735 81.2322 408.53 81.1448 408.315 81.0929H408.096C407.815 81.0528 407.53 81.0528 407.249 81.0929H407.19C406.995 81.1178 406.797 81.1178 406.602 81.0929C406.13 81.0519 405.676 80.8873 405.288 80.6155C405.223 80.5718 405.163 80.5218 405.109 80.4663C405.041 80.4119 404.978 80.352 404.92 80.2873C404.828 80.1881 404.745 80.0817 404.671 79.969C404.611 79.8596 404.541 79.7502 404.491 79.6408C404.442 79.5314 404.432 79.5115 404.412 79.4519L404.352 79.2828C404.173 78.8054 403.974 78.2882 403.745 77.8506C403.707 77.7695 403.674 77.6865 403.645 77.6019C403.53 77.2563 403.492 76.8895 403.536 76.5278C403.579 76.2358 403.663 75.9512 403.785 75.6824C403.916 75.4082 404.098 75.1618 404.322 74.9563L404.561 74.7574H404.611C404.688 74.7032 404.761 74.6434 404.83 74.5784C405.032 74.393 405.2 74.1743 405.328 73.9319C405.395 73.8228 405.448 73.7059 405.487 73.5838C405.533 73.4674 405.569 73.3477 405.597 73.2257C405.68 72.8555 405.679 72.4714 405.595 72.1014C405.511 71.7314 405.344 71.385 405.109 71.0874C404.572 70.4147 403.997 69.7738 403.386 69.1678C402.779 68.5516 402.134 67.9736 401.455 67.4372C401.149 67.1976 400.794 67.0295 400.415 66.9452C400.036 66.8608 399.643 66.8624 399.264 66.9499L398.976 67.0394C398.596 67.1708 398.254 67.3927 397.98 67.6859C397.902 67.7581 397.832 67.8381 397.771 67.9246V67.9842C397.468 68.3857 397.057 68.6928 396.586 68.8694C396.414 68.9276 396.238 68.9709 396.059 68.9987H395.73C395.554 69.0138 395.378 69.0138 395.202 68.9987C395.066 68.9809 394.933 68.9475 394.804 68.8993L394.545 68.7998C394.439 68.7441 394.329 68.6943 394.217 68.6506C394.062 68.5709 393.902 68.5011 393.739 68.4418C393.47 68.3224 393.201 68.2229 392.912 68.1235C392.4 67.9292 391.965 67.5739 391.672 67.1111C391.38 66.6483 391.245 66.1031 391.29 65.5574V65.3585C391.383 64.7155 391.23 64.061 390.86 63.5261C390.491 62.9912 389.933 62.6155 389.298 62.4742H389.01C387.289 62.2885 385.553 62.2885 383.832 62.4742C383.165 62.5543 382.556 62.8911 382.134 63.4131C381.712 63.935 381.51 64.6009 381.572 65.269V65.458C381.582 65.5871 381.582 65.7168 381.572 65.8459C381.572 66.3345 381.433 66.8131 381.173 67.2266C380.912 67.64 380.54 67.9716 380.099 68.1832L379.89 68.2727C379.621 68.3622 379.352 68.4716 379.093 68.581L378.466 68.8495L378.307 68.9192C377.769 69.1684 377.161 69.2233 376.587 69.0745C376.013 68.9258 375.509 68.5826 375.161 68.1036C374.766 67.5765 374.187 67.2172 373.54 67.0974C372.892 66.9776 372.223 67.106 371.666 67.4571L371.437 67.6162C370.77 68.149 370.135 68.7202 369.535 69.3269C368.931 69.9229 368.363 70.5539 367.833 71.2167C367.568 71.5436 367.389 71.9309 367.311 72.3439C367.233 72.757 367.258 73.1829 367.385 73.5838C367.45 73.8276 367.554 74.0594 367.693 74.27C367.803 74.4355 367.93 74.5888 368.072 74.7276C368.15 74.8025 368.233 74.8722 368.321 74.9364C368.8 75.2845 369.145 75.7877 369.295 76.3606C369.446 76.9334 369.393 77.5407 369.147 78.0793C368.908 78.6065 368.689 79.1336 368.49 79.6707C368.374 79.9813 368.202 80.2678 367.982 80.5161C367.843 80.6501 367.697 80.7763 367.544 80.894C367.377 80.9933 367.204 81.083 367.026 81.1625L366.658 81.2819C366.329 81.3441 365.991 81.3441 365.662 81.2819C365.536 81.272 365.41 81.272 365.284 81.2819C365.125 81.2716 364.965 81.2716 364.806 81.2819C364.252 81.3789 363.745 81.6521 363.359 82.0608C362.973 82.4694 362.73 82.9916 362.665 83.5496C362.48 85.2452 362.48 86.9561 362.665 88.6518C362.73 89.2097 362.973 89.732 363.359 90.1406C363.745 90.5492 364.252 90.8224 364.806 90.9195C365.09 90.9645 365.379 90.9645 365.662 90.9195C365.788 90.9096 365.915 90.9096 366.041 90.9195C366.57 90.9217 367.086 91.0809 367.524 91.377C367.63 91.4479 367.73 91.5277 367.823 91.6157C368.115 91.8907 368.337 92.2318 368.47 92.6103C368.669 93.1407 368.888 93.6678 369.127 94.1917C369.362 94.6863 369.432 95.2432 369.326 95.7803C369.22 96.3174 368.944 96.8065 368.54 97.1754C368.465 97.247 368.385 97.3135 368.301 97.3743L368.052 97.5832C367.912 97.7241 367.786 97.8772 367.673 98.0407C367.534 98.2514 367.43 98.4831 367.365 98.727C367.365 98.8066 367.365 98.8861 367.365 98.9557C367.36 99.0352 367.36 99.1149 367.365 99.1944C367.359 99.2806 367.359 99.3669 367.365 99.453C367.365 99.453 367.365 99.453 367.365 99.5326C367.365 99.6122 367.365 99.7812 367.365 99.9006C367.389 100.019 367.422 100.135 367.464 100.249C367.464 100.249 367.464 100.328 367.464 100.368C367.464 100.408 367.544 100.537 367.584 100.627C367.581 100.643 367.581 100.66 367.584 100.676C367.632 100.783 367.692 100.883 367.763 100.975C368.828 102.304 370.037 103.511 371.367 104.575C371.89 104.991 372.554 105.187 373.219 105.122C373.444 105.103 373.665 105.053 373.876 104.973C374.362 104.804 374.786 104.492 375.091 104.078L375.3 103.839C375.577 103.544 375.917 103.316 376.296 103.173L377.182 103.024C377.546 103.021 377.906 103.099 378.237 103.252C378.745 103.5 379.267 103.719 379.8 103.909C380.31 104.096 380.744 104.445 381.035 104.903C381.146 105.06 381.236 105.231 381.303 105.411C381.472 105.84 381.526 106.306 381.463 106.763C381.366 107.41 381.517 108.07 381.887 108.61C382.256 109.151 382.816 109.532 383.454 109.677C383.537 109.688 383.62 109.688 383.703 109.677C384.552 109.778 385.407 109.827 386.262 109.827C387.11 109.825 387.957 109.779 388.801 109.687C389.401 109.619 389.958 109.34 390.374 108.902C390.541 108.735 390.682 108.544 390.792 108.335C390.853 108.235 390.903 108.128 390.941 108.016C391.101 107.598 391.152 107.147 391.09 106.704C391.001 106.118 391.116 105.519 391.415 105.007C391.714 104.495 392.179 104.1 392.733 103.889C393.271 103.7 393.789 103.481 394.316 103.242C394.662 103.075 395.042 102.988 395.426 102.988C395.811 102.988 396.19 103.075 396.536 103.242C396.716 103.334 396.887 103.444 397.044 103.571C397.128 103.636 397.204 103.709 397.273 103.789C397.347 103.862 397.414 103.942 397.472 104.028C397.863 104.553 398.437 104.913 399.08 105.036C399.723 105.16 400.389 105.038 400.947 104.695C401.032 104.646 401.112 104.59 401.186 104.525C401.843 103.988 402.48 103.421 403.098 102.815C403.697 102.211 404.265 101.577 404.8 100.915C405.062 100.585 405.24 100.196 405.318 99.7819C405.396 99.3677 405.372 98.9408 405.248 98.538C405.211 98.4231 405.168 98.3102 405.119 98.1998C405.069 98.0821 405.009 97.969 404.939 97.8617C404.824 97.698 404.694 97.5449 404.551 97.4042L404.312 97.1953L404.073 96.9964C403.671 96.6257 403.397 96.1367 403.292 95.6003C403.186 95.0639 403.254 94.5079 403.486 94.0126C403.738 93.4888 403.957 92.9617 404.143 92.4312C404.351 91.8745 404.745 91.4064 405.258 91.1057C405.771 90.805 406.373 90.6901 406.961 90.7802C407.567 90.8688 408.186 90.7458 408.713 90.4321C408.843 90.3498 408.967 90.2567 409.081 90.1536L409.25 89.9945C409.297 89.9439 409.34 89.8908 409.38 89.8354C409.697 89.4572 409.895 88.9933 409.947 88.5026C410.147 86.8077 410.147 85.0953 409.947 83.4004L410.186 83.3009ZM399.085 87.1301C399.085 87.1301 399.085 87.2196 399.085 87.2594C399.085 87.4682 399.026 87.6771 399.006 87.876C398.986 88.0749 398.926 88.3136 398.876 88.5325C398.788 88.9531 398.675 89.3683 398.538 89.7757C398.458 90.0144 398.368 90.2531 398.279 90.4918C398.189 90.7305 398.1 90.9195 398 91.1184C397.9 91.3173 397.861 91.4267 397.781 91.5759C397.574 91.9902 397.338 92.389 397.074 92.7694L396.875 93.0777C396.845 93.1232 396.812 93.1664 396.775 93.207C396.696 93.3264 396.606 93.4358 396.517 93.5452C396.416 93.6878 396.306 93.824 396.188 93.953C395.964 94.2312 395.721 94.4937 395.461 94.7387C395.352 94.858 395.242 94.9575 395.133 95.0669L394.774 95.3752L394.266 95.8029C393.838 96.1212 393.4 96.4195 392.942 96.698L392.514 96.9467L391.996 97.2053L391.509 97.434C391.24 97.5434 390.961 97.6528 390.682 97.7423C390.527 97.8058 390.367 97.8589 390.204 97.9015C389.866 98.0109 389.517 98.0904 389.209 98.17C389.035 98.2137 388.859 98.2469 388.681 98.2695L388.153 98.349C387.271 98.4502 386.381 98.4669 385.495 98.3988L384.967 98.349L384.44 98.2695L383.912 98.17C383.309 98.0312 382.714 97.8585 382.13 97.6528L381.672 97.4639H381.612L381.114 97.2351H381.065C380.884 97.1556 380.708 97.0659 380.537 96.9666C380.177 96.7735 379.828 96.561 379.491 96.33C379.322 96.2206 379.173 96.1112 379.014 95.9919L378.605 95.6637C378.406 95.5045 378.217 95.3454 378.038 95.1763C377.859 95.0072 377.679 94.8381 377.51 94.6591C377.363 94.5139 377.223 94.3612 377.092 94.2016C376.595 93.6476 376.152 93.0482 375.768 92.4113C375.668 92.2423 375.559 92.0732 375.469 91.8842C375.354 91.6882 375.251 91.4856 375.161 91.2775C375.101 91.1582 375.041 91.0388 374.991 90.9195C374.954 90.8464 374.924 90.7698 374.902 90.6907C374.853 90.5905 374.809 90.4876 374.772 90.3824C374.722 90.2531 374.673 90.1138 374.633 89.9746C374.608 89.9234 374.588 89.8701 374.573 89.8155C374.513 89.6464 374.464 89.4773 374.414 89.2983C374.364 89.1193 374.274 88.7811 374.225 88.5225C374.175 88.2639 374.155 88.2042 374.125 88.055C374.125 87.7567 374.035 87.4583 374.006 87.1599C373.958 86.7306 373.934 86.2989 373.936 85.867C373.934 85.4416 373.957 85.0165 374.006 84.5939C374.001 84.5509 374.001 84.5075 374.006 84.4646C374.006 84.2657 374.055 84.0468 374.095 83.8479C374.135 83.649 374.165 83.4103 374.215 83.1915C374.304 82.7738 374.424 82.3561 374.553 81.9483L374.732 81.4311C374.732 81.3117 374.832 81.1725 374.892 81.0531C374.951 80.9338 374.961 80.8741 375.001 80.7846L375.161 80.4464C375.312 80.1256 375.482 79.8135 375.668 79.5115C375.758 79.3623 375.838 79.2231 375.937 79.0739L376.226 78.6562C376.355 78.4672 376.495 78.2981 376.634 78.1191C376.773 77.9401 376.913 77.771 377.062 77.6119L377.51 77.1245C378.291 76.3293 379.171 75.6374 380.129 75.0657L380.597 74.8071L381.074 74.5684C381.222 74.4888 381.375 74.419 381.532 74.3596C381.823 74.2247 382.123 74.1084 382.429 74.0114C382.568 73.9547 382.711 73.9081 382.857 73.8722L383.374 73.723C383.548 73.6737 383.724 73.6339 383.902 73.6037C384.072 73.56 384.245 73.5268 384.42 73.5042L384.947 73.4246L385.485 73.3749C386.191 73.3153 386.9 73.3153 387.606 73.3749C387.782 73.3811 387.959 73.3977 388.133 73.4246L388.661 73.5042C388.839 73.5268 389.015 73.56 389.189 73.6037C389.629 73.6964 390.065 73.8126 390.493 73.9518L390.842 74.0711C391.438 74.2842 392.018 74.5436 392.574 74.8469C392.753 74.9464 392.932 75.0458 393.102 75.1552C393.271 75.2646 393.44 75.3541 393.599 75.4635C393.759 75.573 393.928 75.6923 394.077 75.8117H394.147C394.306 75.931 394.466 76.0504 394.615 76.1797L395.053 76.5576C395.369 76.8417 395.668 77.1439 395.949 77.4627C396.066 77.5818 396.176 77.708 396.278 77.8406C396.457 78.0594 396.636 78.2782 396.795 78.507L397.034 78.8451C397.303 79.2364 397.546 79.6451 397.761 80.0685C397.851 80.2276 397.93 80.3967 398.01 80.5658C398.007 80.5955 398.007 80.6256 398.01 80.6553C398.1 80.8343 398.169 81.0134 398.249 81.2023V81.2819C398.309 81.441 398.368 81.5902 398.418 81.7593C398.454 81.8467 398.484 81.9364 398.508 82.0278C398.645 82.4352 398.758 82.8504 398.846 83.2711C398.846 83.3904 398.846 83.5098 398.916 83.6391C398.976 83.9673 399.025 84.2856 399.055 84.6337C399.148 85.4898 399.148 86.3535 399.055 87.2096L399.085 87.1301Z" fill="#FB9100"/>
<path d="M368.002 63.4885C367.983 63.3344 367.943 63.1837 367.882 63.0409C367.842 62.9516 367.795 62.8652 367.743 62.7823C367.692 62.6996 367.632 62.6228 367.564 62.5536L367.464 62.4541C367.433 62.4185 367.396 62.3883 367.355 62.3646L367.205 62.2552C367.088 62.1868 366.96 62.1365 366.827 62.106H366.688C366.513 62.0761 366.335 62.0761 366.16 62.106C366.038 62.1209 365.914 62.1209 365.792 62.106C365.498 62.0792 365.217 61.9764 364.975 61.8076L364.856 61.7082L364.736 61.5988C364.678 61.5389 364.628 61.4721 364.587 61.3998L364.468 61.191L364.418 61.0716C364.42 61.0385 364.42 61.0053 364.418 60.9722C364.308 60.6738 364.189 60.3655 364.049 60.077C364.021 60.0276 364.001 59.9739 363.99 59.9179C363.912 59.7014 363.888 59.4693 363.92 59.2416C363.945 59.0598 363.995 58.8824 364.069 58.7144C364.152 58.542 364.267 58.3868 364.408 58.2569L364.557 58.1276L364.696 58.0182C364.822 57.9007 364.926 57.7628 365.005 57.6104C365.048 57.5406 365.084 57.4674 365.115 57.3916L365.174 57.1629C365.228 56.9319 365.229 56.6917 365.175 56.4607C365.122 56.2297 365.016 56.0139 364.866 55.8301C364.532 55.4047 364.173 54.9995 363.791 54.6167C363.41 54.2325 363.004 53.8736 362.576 53.5426C362.387 53.3909 362.166 53.2843 361.93 53.2309C361.693 53.1775 361.448 53.1786 361.212 53.2343L361.033 53.2939C360.797 53.3724 360.584 53.5092 360.415 53.6918L360.286 53.841C360.094 54.0924 359.835 54.2853 359.539 54.3979C359.432 54.4337 359.322 54.4603 359.211 54.4775H359.071C358.962 54.4874 358.852 54.4874 358.743 54.4775C358.658 54.4684 358.574 54.4483 358.494 54.4178L358.334 54.3482L358.125 54.2587C358.029 54.2096 357.929 54.1664 357.827 54.1294L357.309 53.9305C356.992 53.8038 356.724 53.5789 356.545 53.2889C356.366 52.9988 356.285 52.6589 356.313 52.3192V52.1899C356.348 51.9796 356.34 51.7647 356.291 51.5574C356.242 51.3501 356.152 51.1544 356.027 50.9817C355.902 50.809 355.745 50.6625 355.563 50.5507C355.382 50.4389 355.18 50.3639 354.969 50.3301H354.79C354.262 50.3301 353.725 50.2505 353.177 50.2505C352.63 50.2505 352.092 50.2505 351.554 50.3301C351.135 50.3825 350.753 50.5952 350.487 50.9235C350.222 51.2518 350.094 51.6701 350.131 52.0905V52.2098C350.136 52.2893 350.136 52.369 350.131 52.4485C350.13 52.7547 350.043 53.0545 349.879 53.3133C349.715 53.572 349.481 53.7791 349.205 53.9106L349.075 53.9603L348.577 54.1592L348.179 54.3283H348.09C347.75 54.4882 347.366 54.5251 347.003 54.4325C346.639 54.3399 346.319 54.1237 346.098 53.8211C345.853 53.4913 345.492 53.2661 345.088 53.1905C344.684 53.1149 344.266 53.1945 343.918 53.4133L343.769 53.5127C343.355 53.8461 342.959 54.2013 342.584 54.577C342.202 54.9529 341.843 55.3515 341.509 55.7705C341.345 55.976 341.233 56.2185 341.185 56.4768C341.136 56.7351 341.152 57.0014 341.23 57.2524C341.273 57.4045 341.341 57.5488 341.429 57.6801C341.5 57.7805 341.576 57.8768 341.658 57.9685L341.817 58.0978C342.119 58.3197 342.335 58.6385 342.429 59.0007C342.523 59.3629 342.49 59.7464 342.335 60.087C342.186 60.4152 342.046 60.7434 341.917 61.0816C341.846 61.2794 341.738 61.4618 341.598 61.6186C341.513 61.7001 341.423 61.7765 341.329 61.8474C341.224 61.9115 341.114 61.968 341.001 62.0165C340.928 62.05 340.851 62.0735 340.772 62.0861C340.571 62.126 340.365 62.126 340.164 62.0861C340.085 62.0765 340.005 62.0765 339.926 62.0861H339.627C339.281 62.1481 338.964 62.32 338.724 62.5763C338.483 62.8325 338.332 63.1594 338.293 63.5084C338.16 64.5684 338.16 65.6409 338.293 66.701C338.315 66.9199 338.383 67.1319 338.491 67.3238C338.599 67.5157 338.745 67.6835 338.92 67.8167C339.096 67.95 339.297 68.046 339.511 68.0987C339.725 68.1514 339.947 68.1598 340.164 68.1233H340.403C340.733 68.1236 341.055 68.2204 341.329 68.4017L341.518 68.5509C341.697 68.7231 341.833 68.9342 341.917 69.1676C342.046 69.5057 342.186 69.8339 342.335 70.1622C342.475 70.4686 342.515 70.8113 342.449 71.1417C342.383 71.4721 342.214 71.7732 341.967 72.0021L341.817 72.1215L341.658 72.2508C341.576 72.3425 341.5 72.4388 341.429 72.5392C341.341 72.6705 341.273 72.8148 341.23 72.9669V73.1161C341.229 73.2189 341.229 73.3216 341.23 73.4244C341.23 73.4244 341.23 73.4244 341.23 73.4741C341.225 73.5503 341.225 73.6267 341.23 73.7029C341.23 73.7725 341.23 73.8421 341.29 73.9217V74.0013C341.29 74.0013 341.339 74.1007 341.359 74.1604C341.392 74.2222 341.429 74.282 341.469 74.3394C342.14 75.1695 342.898 75.9263 343.729 76.5972C344.055 76.8554 344.469 76.9767 344.884 76.9353C345.027 76.9257 345.167 76.8955 345.302 76.8458C345.604 76.7404 345.868 76.5463 346.058 76.2888L346.188 76.1396C346.366 75.9538 346.584 75.8109 346.825 75.7219L347.383 75.6224C347.61 75.6232 347.834 75.6742 348.04 75.7716C348.358 75.9208 348.697 76.0601 349.035 76.1794C349.349 76.29 349.618 76.4995 349.802 76.7762C349.872 76.8745 349.929 76.9815 349.971 77.0944C350.074 77.3636 350.109 77.6542 350.071 77.9398C350.008 78.3458 350.103 78.7603 350.337 79.0986C350.57 79.4369 350.923 79.6734 351.325 79.7599H351.475C352.006 79.8284 352.542 79.8616 353.078 79.8594C353.61 79.8596 354.142 79.8297 354.671 79.7699C355.051 79.7266 355.403 79.5504 355.666 79.2726C355.769 79.1696 355.856 79.0523 355.925 78.9245C355.965 78.8631 355.995 78.7961 356.015 78.7256C356.118 78.4634 356.152 78.1792 356.114 77.9001C356.105 77.8208 356.105 77.7406 356.114 77.6614C356.11 77.331 356.208 77.0074 356.395 76.7349C356.583 76.4625 356.85 76.2545 357.16 76.1396C357.498 76.0203 357.827 75.881 358.155 75.7319C358.371 75.6265 358.607 75.5717 358.847 75.5717C359.087 75.5717 359.324 75.6265 359.539 75.7319C359.651 75.7921 359.758 75.862 359.858 75.9407L359.997 76.08C360.045 76.1214 360.089 76.1681 360.127 76.2192C360.369 76.5499 360.727 76.7768 361.13 76.8543C361.532 76.9318 361.949 76.8541 362.297 76.6369C362.351 76.6062 362.401 76.5695 362.446 76.5275C363.284 75.8636 364.042 75.1061 364.706 74.2698C364.873 74.0636 364.985 73.8193 365.034 73.559C365.083 73.2986 365.066 73.0302 364.985 72.7779C364.963 72.7067 364.936 72.637 364.906 72.5691C364.873 72.4975 364.836 72.4277 364.796 72.3602C364.725 72.2573 364.645 72.1608 364.557 72.0718L364.398 71.9425C364.346 71.9058 364.296 71.8659 364.248 71.8231C364.001 71.5938 363.834 71.2921 363.769 70.9614C363.705 70.6308 363.747 70.2882 363.89 69.9831C364.039 69.6549 364.179 69.3267 364.298 68.9885C364.436 68.6478 364.685 68.3639 365.005 68.1832C365.325 68.0025 365.697 67.9358 366.061 67.994C366.44 68.0519 366.828 67.9744 367.156 67.7751C367.238 67.7269 367.314 67.6703 367.385 67.6061L367.494 67.5066L367.574 67.4071C367.77 67.1682 367.894 66.8785 367.932 66.5717C368.052 65.5108 368.052 64.4399 367.932 63.3791L368.002 63.4885ZM361.033 65.8954C361.033 65.8954 361.033 65.8954 361.033 65.9749C361.033 66.0545 361.033 66.2335 360.983 66.3628C360.933 66.4921 360.933 66.6314 360.903 66.7706C360.852 67.0339 360.782 67.2931 360.694 67.5464L360.535 67.994C360.475 68.1233 360.425 68.2625 360.356 68.3818C360.315 68.4808 360.269 68.5771 360.216 68.6703C360.087 68.9318 359.941 69.1844 359.778 69.4262L359.649 69.6151C359.633 69.6445 359.613 69.6714 359.589 69.6947L359.43 69.9036C359.366 69.9945 359.296 70.0809 359.221 70.1622C359.082 70.3339 358.932 70.4967 358.773 70.6495C358.703 70.7291 358.633 70.7887 358.564 70.8584L358.344 71.0473L358.016 71.3159C357.757 71.5148 357.478 71.7038 357.19 71.8828L356.921 72.032C356.818 72.091 356.711 72.1441 356.602 72.1911L356.293 72.3403L355.776 72.5392C355.678 72.575 355.578 72.6049 355.477 72.6287C355.268 72.6984 355.049 72.7481 354.83 72.7978C354.722 72.8273 354.612 72.8473 354.501 72.8575H354.173C353.62 72.9121 353.063 72.9121 352.51 72.8575H352.172H351.843C351.734 72.8575 351.624 72.8575 351.515 72.7978C351.135 72.7174 350.762 72.6076 350.399 72.4696L350.111 72.3602L349.792 72.221L349.464 72.0519C349.235 71.9325 349.025 71.7933 348.806 71.654L348.508 71.4452L348.249 71.2363C348.119 71.1369 348.01 71.0374 347.89 70.928L347.562 70.6097C347.47 70.5183 347.384 70.4221 347.303 70.3213C346.993 69.9769 346.716 69.6039 346.477 69.2074C346.407 69.098 346.347 68.9885 346.288 68.8791C346.228 68.7697 346.148 68.6205 346.088 68.4913C346.029 68.362 345.949 68.3321 345.949 68.2327C345.949 68.1332 345.949 68.1431 345.889 68.0835C345.83 68.0238 345.839 67.9641 345.81 67.8945L345.72 67.6359V67.5364C345.72 67.427 345.65 67.3276 345.62 67.2182C345.571 67.0582 345.531 66.8954 345.501 66.7308C345.501 66.6314 345.501 66.5319 345.441 66.4325C345.381 66.333 345.381 66.0644 345.362 65.8755C345.347 65.6071 345.347 65.3382 345.362 65.0699C345.347 64.8048 345.347 64.5392 345.362 64.2742C345.357 64.2478 345.357 64.221 345.362 64.1946C345.362 64.0653 345.362 63.936 345.411 63.8067C345.429 63.6693 345.456 63.5331 345.491 63.399C345.55 63.1366 345.623 62.8777 345.71 62.6232C345.741 62.5151 345.777 62.4089 345.82 62.3049C345.848 62.2204 345.882 62.1374 345.919 62.0563C345.938 62.0015 345.961 61.9483 345.989 61.8971C346.018 61.8256 346.051 61.7559 346.088 61.6883C346.181 61.4823 346.287 61.283 346.407 61.0915L346.566 60.823L346.745 60.5644L347.004 60.2362C347.086 60.1233 347.175 60.0168 347.273 59.9179C347.361 59.8105 347.454 59.7076 347.552 59.6096C348.04 59.1083 348.593 58.6736 349.195 58.3166L349.483 58.1575L349.782 58.0083L350.071 57.879C350.251 57.7916 350.437 57.7184 350.628 57.6602C350.718 57.6602 350.808 57.6005 350.897 57.5707L351.226 57.4811L351.544 57.4016C351.654 57.4016 351.763 57.3519 351.873 57.3419H352.201H352.54C352.984 57.3021 353.43 57.3021 353.874 57.3419C353.983 57.3321 354.093 57.3321 354.203 57.3419H354.531C354.641 57.3419 354.75 57.3419 354.86 57.4016C355.136 57.4593 355.408 57.5324 355.676 57.6204L355.895 57.7C356.27 57.8312 356.633 57.9943 356.98 58.1873L357.309 58.3763C357.416 58.4367 357.519 58.5032 357.618 58.5752L357.926 58.7841L358.215 59.0128L358.494 59.2515C358.693 59.4405 358.882 59.6295 359.051 59.8184L359.26 60.0571C359.37 60.1964 359.479 60.3257 359.579 60.4749L359.728 60.6837C359.894 60.931 360.047 61.1866 360.186 61.4496L360.346 61.7678C360.34 61.784 360.34 61.8014 360.346 61.8176C360.405 61.9369 360.445 62.0463 360.495 62.1657C360.537 62.2628 360.574 62.3625 360.605 62.464C360.627 62.5185 360.644 62.5752 360.654 62.6331C360.742 62.8872 360.815 63.1463 360.873 63.4089C360.873 63.4885 360.873 63.5581 360.873 63.6377C360.873 63.7172 360.943 64.0454 360.963 64.2444C361.016 64.7834 361.016 65.3264 360.963 65.8655L361.033 65.8954Z" fill="#1B5A96"/>
<path d="M393.799 45.5565C393.78 45.4024 393.74 45.2517 393.679 45.1089C393.644 45.0189 393.601 44.9323 393.55 44.8503C393.492 44.7697 393.429 44.6932 393.36 44.6215L393.261 44.5221C393.229 44.4865 393.193 44.4563 393.151 44.4326C393.106 44.3906 393.056 44.3539 393.002 44.3232C392.882 44.2558 392.756 44.2024 392.624 44.164H392.484C392.309 44.1391 392.132 44.1391 391.957 44.164C391.834 44.1789 391.711 44.1789 391.588 44.164C391.296 44.1326 391.016 44.0302 390.772 43.8657L390.652 43.7662L390.533 43.6568C390.478 43.5948 390.428 43.5282 390.384 43.4579L390.264 43.249V43.1297C390.259 43.0967 390.259 43.0631 390.264 43.0302C390.154 42.7252 390.028 42.4264 389.886 42.1351C389.861 42.0838 389.841 42.0306 389.826 41.9759C389.748 41.7594 389.724 41.5274 389.756 41.2996C389.779 41.1161 389.833 40.9378 389.916 40.7725C389.995 40.6005 390.107 40.4453 390.244 40.315L390.394 40.1857L390.523 40.0763C390.651 39.959 390.759 39.8212 390.842 39.6685C390.881 39.5984 390.914 39.5252 390.941 39.4497C390.941 39.3701 390.991 39.2906 391.011 39.2209C391.061 38.9882 391.06 38.7473 391.006 38.5152C390.953 38.2831 390.849 38.0657 390.702 37.8782C390.362 37.4583 390 37.0566 389.617 36.6748C389.239 36.2906 388.837 35.9318 388.412 35.6006C388.223 35.4468 388 35.3389 387.761 35.2854C387.523 35.232 387.276 35.2343 387.038 35.2923L386.859 35.352C386.622 35.4288 386.409 35.5659 386.242 35.7498L386.112 35.899C385.922 36.1524 385.663 36.3457 385.366 36.456C385.259 36.4941 385.149 36.5208 385.037 36.5355H384.778C384.666 36.5457 384.552 36.5457 384.44 36.5355C384.354 36.5216 384.271 36.4983 384.191 36.4659L384.032 36.4062L383.832 36.3167L383.524 36.1874L383.016 35.9885C382.699 35.8619 382.431 35.637 382.252 35.3469C382.073 35.0569 381.992 34.717 382.02 34.3773V34.248C382.084 33.8462 381.993 33.4353 381.766 33.0977C381.539 32.7601 381.192 32.5208 380.796 32.4279H380.617C380.079 32.3782 379.541 32.3384 378.994 32.3384C378.446 32.3384 377.908 32.3384 377.371 32.4279C376.953 32.4827 376.573 32.6964 376.31 33.0244C376.047 33.3524 375.92 33.7694 375.957 34.1883V34.2977C375.962 34.3772 375.962 34.4569 375.957 34.5364C375.957 34.8427 375.871 35.1429 375.709 35.4031C375.548 35.6632 375.316 35.8729 375.041 36.0084L374.902 36.0581L374.404 36.2571L374.016 36.4261H373.916C373.576 36.587 373.19 36.6233 372.826 36.5288C372.462 36.4343 372.143 36.2148 371.925 35.909C371.681 35.5772 371.32 35.3505 370.915 35.2748C370.51 35.1991 370.092 35.28 369.744 35.5012L369.595 35.6006C369.181 35.9339 368.786 36.2892 368.41 36.6648C368.029 37.0383 367.673 37.4371 367.345 37.8583C367.18 38.0615 367.068 38.3019 367.017 38.5585C366.967 38.8151 366.98 39.0801 367.056 39.3303C367.096 39.4839 367.163 39.6289 367.255 39.758C367.324 39.8659 367.404 39.9659 367.494 40.0564L367.644 40.1757C367.95 40.3939 368.169 40.7128 368.264 41.0764C368.359 41.44 368.322 41.8254 368.161 42.1649C368.012 42.4931 367.873 42.8213 367.753 43.1595C367.681 43.3559 367.569 43.5354 367.425 43.6866C367.345 43.7764 367.254 43.8565 367.156 43.9253C367.055 43.9912 366.948 44.0478 366.837 44.0944L366.598 44.164C366.398 44.209 366.191 44.209 365.991 44.164H365.752H365.453C365.108 44.2275 364.792 44.3999 364.552 44.6559C364.312 44.9118 364.16 45.2379 364.119 45.5863C364 46.6472 364 47.7181 364.119 48.7789C364.146 48.9962 364.216 49.2059 364.325 49.3957C364.434 49.5855 364.581 49.7516 364.755 49.8841C364.929 50.0166 365.129 50.113 365.341 50.1674C365.553 50.2219 365.774 50.2334 365.991 50.2012H366.23C366.56 50.2039 366.882 50.3042 367.156 50.4896L367.345 50.6388C367.528 50.8088 367.668 51.0202 367.753 51.2555C367.873 51.5837 368.012 51.9218 368.161 52.25C368.302 52.558 368.343 52.9024 368.276 53.2345C368.21 53.5666 368.041 53.8694 367.793 54.1L367.644 54.2193L367.494 54.3486C367.406 54.4377 367.326 54.5342 367.255 54.6371C367.167 54.7683 367.1 54.9126 367.056 55.0647V55.2139C367.052 55.2602 367.052 55.3068 367.056 55.3532C367.051 55.4094 367.051 55.466 367.056 55.5222C367.056 55.5919 367.056 55.6714 367.056 55.751L367.116 55.9698V56.0494L367.196 56.2085C367.23 56.275 367.269 56.3383 367.315 56.3975C367.645 56.8166 368.001 57.2152 368.38 57.591C368.759 57.9689 369.157 58.317 369.565 58.6552C369.895 58.915 370.313 59.0364 370.73 58.9934C370.87 58.9837 371.007 58.9536 371.138 58.9038C371.442 58.8013 371.707 58.6066 371.895 58.3469L372.024 58.1977C372.2 58.0087 372.418 57.8653 372.662 57.78L373.219 57.6805C373.445 57.6826 373.669 57.7299 373.876 57.8197C374.201 57.9761 374.533 58.1155 374.872 58.2375C375.185 58.3481 375.454 58.5575 375.638 58.8342C375.724 58.972 375.784 59.1234 375.818 59.2818C375.921 59.5508 375.955 59.8415 375.917 60.1272C375.857 60.5342 375.955 60.9487 376.19 61.2867C376.424 61.6246 376.779 61.8608 377.182 61.9473H377.331C377.863 62.0154 378.398 62.0486 378.934 62.0467C379.466 62.0469 379.998 62.0171 380.527 61.9572C380.907 61.9139 381.26 61.7378 381.523 61.4599C381.625 61.3569 381.712 61.2397 381.781 61.1118C381.821 61.0487 381.854 60.9821 381.881 60.9129C381.976 60.6487 382.007 60.3658 381.971 60.0874C381.961 60.0081 381.961 59.928 381.971 59.8487C381.966 59.5183 382.065 59.1947 382.252 58.9223C382.439 58.6498 382.706 58.4419 383.016 58.327C383.354 58.2076 383.683 58.0684 384.012 57.9192C384.228 57.8159 384.464 57.7623 384.704 57.7623C384.943 57.7623 385.179 57.8159 385.396 57.9192C385.51 57.9748 385.617 58.045 385.714 58.1281C385.771 58.1665 385.821 58.2135 385.863 58.2673L385.983 58.4065C386.226 58.7353 386.585 58.9607 386.987 59.0381C387.389 59.1154 387.805 59.0391 388.153 58.8243C388.21 58.7936 388.264 58.7569 388.313 58.7149C388.726 58.3816 389.122 58.0263 389.497 57.6507C389.886 57.2628 390.234 56.8649 390.573 56.4572C390.737 56.2497 390.848 56.0055 390.896 55.7456C390.945 55.4857 390.93 55.2179 390.852 54.9653L390.772 54.7564L390.652 54.5475C390.581 54.4447 390.501 54.3482 390.413 54.2591L390.264 54.1298L390.115 54.0105C389.867 53.7799 389.697 53.4771 389.631 53.145C389.565 52.8129 389.605 52.4684 389.746 52.1605C389.896 51.8423 390.035 51.5041 390.155 51.1659C390.292 50.8252 390.541 50.5413 390.861 50.3606C391.182 50.1799 391.554 50.1132 391.917 50.1714C392.296 50.2293 392.684 50.1518 393.012 49.9525C393.094 49.9043 393.171 49.8477 393.241 49.7835L393.35 49.684L393.43 49.5845C393.63 49.3481 393.755 49.0571 393.789 48.7491C393.908 47.6882 393.908 46.6173 393.789 45.5565H393.799ZM386.829 47.9634C386.829 47.9634 386.829 48.0131 386.829 48.0429C386.829 48.0728 386.829 48.3015 386.779 48.4308C386.762 48.5683 386.735 48.7045 386.7 48.8386C386.642 49.1045 386.569 49.3669 386.481 49.6243C386.431 49.7735 386.381 49.9227 386.321 50.0719C386.262 50.2211 386.212 50.3404 386.152 50.4598L386.013 50.7482C385.883 51.0079 385.733 51.2573 385.565 51.4942C385.527 51.5609 385.484 51.6242 385.435 51.6831C385.423 51.7171 385.402 51.7477 385.376 51.7726L385.216 51.9815C385.157 52.071 385.087 52.1506 385.017 52.2401C384.947 52.3296 384.718 52.5783 384.559 52.7274L384.35 52.9363L384.131 53.1253L383.812 53.3938C383.544 53.5943 383.265 53.7802 382.976 53.9508C382.89 54.0096 382.8 54.0628 382.707 54.1099L382.389 54.2691L382.08 54.4083C381.912 54.4849 381.739 54.5513 381.562 54.6072L381.274 54.7067C381.055 54.7763 380.836 54.826 380.617 54.8758C380.509 54.9061 380.399 54.9261 380.288 54.9354H379.959C379.407 54.9902 378.85 54.9902 378.297 54.9354H377.968H377.63L377.301 54.8758C376.922 54.7939 376.549 54.6842 376.186 54.5475L375.897 54.4381L375.579 54.2989C375.465 54.254 375.356 54.2008 375.25 54.1398C375.031 54.0204 374.812 53.8812 374.603 53.7419L374.304 53.5331L374.045 53.3242C373.926 53.2247 373.806 53.1253 373.697 53.0159C373.587 52.9065 373.468 52.807 373.358 52.6976C373.267 52.6062 373.181 52.5099 373.1 52.4092C372.793 52.0622 372.516 51.6896 372.273 51.2952L372.084 50.967C372.013 50.8418 371.95 50.7122 371.895 50.5791C371.895 50.4996 371.825 50.4299 371.785 50.3603C371.746 50.2907 371.785 50.2708 371.726 50.2111C371.703 50.1464 371.677 50.0833 371.646 50.0222L371.556 49.7636V49.6641C371.556 49.5547 371.487 49.4552 371.457 49.3458C371.408 49.1858 371.368 49.0231 371.337 48.8585L371.278 48.5601C371.278 48.3811 371.218 48.1921 371.198 48.0032C371.183 47.7348 371.183 47.4659 371.198 47.1975C371.183 46.9325 371.183 46.6669 371.198 46.4019C371.193 46.3756 371.193 46.3486 371.198 46.3223C371.198 46.193 371.198 46.0637 371.248 45.9344C371.298 45.8051 371.298 45.6659 371.327 45.5266C371.378 45.2634 371.448 45.0041 371.536 44.7508C371.567 44.6428 371.604 44.5365 371.646 44.4326C371.683 44.3515 371.717 44.2685 371.746 44.1839L371.815 44.0248C371.844 43.9533 371.878 43.8836 371.915 43.8159C372.014 43.6071 372.114 43.4181 372.233 43.2192L372.403 42.9506C372.472 42.8611 372.522 42.7716 372.592 42.692C372.662 42.6125 372.751 42.4633 372.841 42.3539L373.11 42.0456C373.197 41.9381 373.29 41.8352 373.388 41.7372C373.879 41.2384 374.431 40.8039 375.031 40.4443L375.32 40.2851L375.619 40.136L375.907 40.0067C376.088 39.9209 376.274 39.8478 376.465 39.7879L376.734 39.6983L377.062 39.6088L377.391 39.5293C377.5 39.5293 377.6 39.4795 377.709 39.4696H378.048C378.157 39.4696 378.267 39.4696 378.376 39.4696C378.82 39.4298 379.267 39.4298 379.711 39.4696C379.82 39.4598 379.93 39.4598 380.039 39.4696H380.368L380.706 39.5293C380.979 39.5883 381.248 39.6613 381.513 39.7481L381.732 39.8177C382.106 39.9548 382.469 40.1211 382.817 40.315C382.931 40.3698 383.041 40.433 383.145 40.504C383.257 40.5608 383.364 40.6273 383.464 40.7029L383.763 40.9117L384.051 41.1405L384.33 41.3792C384.528 41.5556 384.715 41.745 384.888 41.9461C384.963 42.021 385.032 42.1007 385.097 42.1848C385.212 42.3173 385.318 42.4568 385.415 42.6025C385.475 42.6722 385.515 42.7418 385.565 42.8114C385.738 43.054 385.891 43.3101 386.023 43.5772C386.082 43.6802 386.135 43.7865 386.182 43.8955C386.24 44.0044 386.29 44.1174 386.331 44.2337C386.331 44.2337 386.331 44.2337 386.331 44.2933C386.374 44.3871 386.41 44.4834 386.441 44.5818L386.501 44.7608C386.58 45.0128 386.65 45.2713 386.71 45.5366C386.71 45.6161 386.71 45.6858 386.71 45.7653C386.71 45.8449 386.779 46.1731 386.799 46.372C386.852 46.9111 386.852 47.4541 386.799 47.9932L386.829 47.9634Z" stroke="#231F20" stroke-width="0.5" stroke-miterlimit="10"/>
<path d="M216.747 67.457C216.729 67.303 216.689 67.1523 216.628 67.0095C216.593 66.9195 216.55 66.8329 216.498 66.7509C216.441 66.6703 216.378 66.5938 216.309 66.5221C216.279 66.4865 216.245 66.4533 216.21 66.4227C216.178 66.3871 216.141 66.3569 216.1 66.3331C216.055 66.2912 216.005 66.2545 215.951 66.2237C215.831 66.1564 215.704 66.103 215.573 66.0646H215.433C215.258 66.0397 215.081 66.0397 214.906 66.0646C214.78 66.0793 214.653 66.0793 214.527 66.0646C214.234 66.0379 213.952 65.935 213.711 65.7662L213.591 65.6668C213.55 65.6355 213.513 65.5987 213.482 65.5574C213.42 65.4982 213.367 65.4313 213.322 65.3585C213.282 65.2909 213.246 65.2212 213.213 65.1496C213.209 65.1099 213.209 65.0699 213.213 65.0302C213.207 64.9973 213.207 64.9637 213.213 64.9308C213.103 64.6258 212.977 64.327 212.835 64.0356C212.81 63.9844 212.79 63.9312 212.775 63.8765C212.697 63.66 212.673 63.4279 212.705 63.2002C212.734 63.018 212.787 62.8405 212.864 62.6731C212.944 62.5011 213.055 62.3458 213.193 62.2156L213.352 62.0863L213.482 61.9769C213.61 61.8596 213.718 61.7217 213.8 61.5691C213.84 61.499 213.873 61.4258 213.9 61.3503C213.9 61.2707 213.95 61.1911 213.97 61.1215C214.021 60.8904 214.019 60.6509 213.966 60.4203C213.913 60.1898 213.808 59.974 213.661 59.7888C213.324 59.3659 212.965 58.9609 212.586 58.5754C212.203 58.1935 211.797 57.8348 211.371 57.5012C211.182 57.3467 210.959 57.2384 210.721 57.1849C210.482 57.1314 210.234 57.1341 209.997 57.1929L209.818 57.2526C209.583 57.3332 209.371 57.4698 209.201 57.6504L209.071 57.7996C208.881 58.0529 208.622 58.2463 208.324 58.3565C208.218 58.3947 208.108 58.4214 207.996 58.4361H207.866C207.754 58.4462 207.641 58.4462 207.528 58.4361C207.442 58.427 207.358 58.4034 207.279 58.3665L207.12 58.3068L206.921 58.2173L206.622 58.088L206.104 57.8891C205.788 57.7612 205.522 57.536 205.342 57.2462C205.163 56.9565 205.082 56.6173 205.109 56.2779V56.1088C205.16 55.6875 205.043 55.263 204.785 54.9264C204.526 54.5898 204.145 54.368 203.725 54.3086H203.545C203.008 54.3086 202.47 54.229 201.923 54.229C201.375 54.229 200.837 54.229 200.3 54.3086C199.882 54.3634 199.502 54.5771 199.239 54.9051C198.975 55.2331 198.849 55.6501 198.886 56.069V56.1883C198.891 56.2645 198.891 56.3409 198.886 56.4171C198.886 56.7234 198.8 57.0236 198.638 57.2837C198.477 57.5439 198.245 57.7536 197.97 57.8891H197.831L197.333 58.088L196.945 58.2571H196.845C196.506 58.417 196.121 58.4538 195.758 58.3613C195.395 58.2687 195.075 58.0525 194.854 57.7498C194.61 57.4181 194.249 57.1914 193.844 57.1157C193.439 57.04 193.021 57.1209 192.673 57.3421L192.524 57.4415C192.11 57.7748 191.715 58.1301 191.339 58.5057C190.958 58.8792 190.602 59.2779 190.274 59.6992C190.108 59.9039 189.995 60.146 189.945 60.4043C189.895 60.6627 189.908 60.9294 189.985 61.1812C190.027 61.3309 190.094 61.4722 190.184 61.5989C190.253 61.7068 190.333 61.8068 190.423 61.8973L190.573 62.0266C190.879 62.2448 191.098 62.5636 191.193 62.9272C191.288 63.2909 191.251 63.6762 191.09 64.0158C190.941 64.344 190.802 64.6722 190.682 65.0103C190.61 65.2067 190.498 65.3862 190.354 65.5375C190.274 65.6272 190.183 65.7074 190.085 65.7762C189.984 65.8421 189.877 65.8986 189.766 65.9453L189.527 66.0149C189.327 66.0598 189.12 66.0598 188.92 66.0149H188.681H188.382C188.037 66.0784 187.721 66.2508 187.481 66.5067C187.241 66.7627 187.089 67.0888 187.048 67.4371C186.929 68.498 186.929 69.5689 187.048 70.6298C187.086 70.9781 187.237 71.3044 187.478 71.5593C187.719 71.8141 188.036 71.9836 188.382 72.0421C188.56 72.0769 188.742 72.0769 188.92 72.0421H189.159C189.488 72.0412 189.811 72.1382 190.085 72.3206L190.274 72.4698C190.455 72.6414 190.595 72.8524 190.682 73.0864C190.802 73.4246 190.941 73.7528 191.09 74.081C191.231 74.3889 191.272 74.7334 191.205 75.0654C191.139 75.3975 190.97 75.7003 190.722 75.9309L190.573 76.0503L190.423 76.1796C190.335 76.2686 190.255 76.3651 190.184 76.468C190.096 76.5993 190.029 76.7436 189.985 76.8957V77.0449C189.985 77.0946 189.985 77.1443 189.985 77.1841C189.98 77.2404 189.98 77.2969 189.985 77.3532C189.985 77.4228 189.985 77.5024 189.985 77.582L190.045 77.8008V77.8803L190.125 78.0395C190.158 78.106 190.198 78.1693 190.244 78.2284C190.574 78.6476 190.93 79.0462 191.309 79.4219C191.688 79.7999 192.086 80.148 192.494 80.4861C192.824 80.7451 193.242 80.8663 193.659 80.8243C193.799 80.8147 193.936 80.7845 194.067 80.7348C194.373 80.63 194.64 80.436 194.834 80.1778L194.953 80.0286C195.13 79.8417 195.348 79.6987 195.59 79.6109L196.148 79.5114C196.374 79.5124 196.598 79.5598 196.805 79.6507C197.13 79.807 197.462 79.9465 197.801 80.0684C198.116 80.1809 198.388 80.3897 198.577 80.6652C198.64 80.7661 198.694 80.8726 198.737 80.9834C198.85 81.2499 198.885 81.5433 198.836 81.8288C198.776 82.2359 198.874 82.6504 199.109 82.9883C199.343 83.3263 199.698 83.5624 200.101 83.6489H200.26C200.788 83.7174 201.32 83.7506 201.853 83.7484C202.385 83.7486 202.917 83.7187 203.446 83.6589C203.826 83.6156 204.179 83.4394 204.442 83.1616C204.544 83.0586 204.631 82.9413 204.7 82.8135C204.74 82.7503 204.773 82.6837 204.8 82.6146C204.895 82.3504 204.926 82.0674 204.89 81.7891C204.885 81.7096 204.885 81.6298 204.89 81.5504C204.882 81.2258 204.972 80.9064 205.15 80.6347C205.328 80.3629 205.584 80.1516 205.885 80.0286C206.224 79.9093 206.552 79.77 206.881 79.6209C207.099 79.5174 207.337 79.4637 207.578 79.4637C207.819 79.4637 208.057 79.5174 208.275 79.6209C208.385 79.6788 208.489 79.7489 208.583 79.8297C208.64 79.8682 208.69 79.9152 208.733 79.969L208.852 80.1082C209.097 80.4377 209.457 80.6634 209.861 80.7407C210.265 80.818 210.683 80.7414 211.033 80.5259L211.182 80.4165C211.59 80.0883 211.988 79.7303 212.377 79.3523C212.765 78.9744 213.113 78.5666 213.442 78.1588C213.606 77.9513 213.717 77.7071 213.766 77.4472C213.814 77.1873 213.799 76.9196 213.721 76.6669L213.641 76.4581C213.609 76.3844 213.569 76.3143 213.522 76.2492C213.45 76.1463 213.371 76.0498 213.283 75.9608L213.133 75.8315L212.984 75.7121C212.736 75.4815 212.567 75.1787 212.5 74.8466C212.434 74.5145 212.475 74.1701 212.616 73.8622C212.772 73.5395 212.909 73.2074 213.024 72.8676C213.161 72.5269 213.411 72.2429 213.731 72.0622C214.051 71.8815 214.423 71.8148 214.786 71.873C215.169 71.9308 215.56 71.8534 215.891 71.6542L216.12 71.4851L216.22 71.3857L216.309 71.2862C216.503 71.0464 216.623 70.7566 216.658 70.4508C216.777 69.3899 216.777 68.319 216.658 67.2581L216.747 67.457ZM209.778 69.8639C209.778 69.8639 209.778 69.8639 209.778 69.9435C209.778 70.0231 209.778 70.2021 209.728 70.3314C209.71 70.4689 209.684 70.6051 209.649 70.7392C209.591 71.0051 209.518 71.2674 209.43 71.5249C209.385 71.6771 209.332 71.8266 209.27 71.9725C209.27 72.1018 209.161 72.241 209.101 72.3604C209.041 72.4797 209.011 72.5593 208.962 72.6488C208.832 72.9085 208.682 73.1579 208.514 73.3947L208.394 73.5837L208.324 73.6732L208.165 73.8821C208.105 73.9716 208.036 74.0512 207.966 74.1407C207.896 74.2302 207.667 74.4788 207.508 74.628L207.299 74.8369L207.08 75.0259L206.761 75.2944C206.493 75.4933 206.214 75.6823 205.935 75.8514L205.666 76.0105L205.338 76.1696L205.029 76.3089C204.861 76.3855 204.688 76.4519 204.511 76.5078L204.223 76.6073C204.003 76.6769 203.784 76.7266 203.565 76.7763C203.458 76.8076 203.348 76.8276 203.237 76.836H202.908C202.355 76.8908 201.798 76.8908 201.246 76.836H200.917H200.589C200.475 76.8218 200.362 76.8019 200.25 76.7763C199.871 76.6945 199.498 76.5848 199.135 76.4481L198.856 76.3387L198.547 76.1995C198.434 76.1546 198.324 76.1014 198.219 76.0403C198 75.921 197.781 75.7817 197.572 75.6425L197.273 75.4336L197.014 75.2248C196.895 75.1253 196.775 75.0259 196.666 74.9165C196.549 74.818 196.439 74.7117 196.337 74.5982C196.24 74.5095 196.15 74.413 196.068 74.3098C195.761 73.9628 195.485 73.5901 195.242 73.1958L195.053 72.8676C194.982 72.7423 194.919 72.6128 194.864 72.4797C194.826 72.4087 194.793 72.3357 194.764 72.2609C194.735 72.2141 194.712 72.1641 194.694 72.1117C194.672 72.047 194.646 71.9839 194.615 71.9227C194.584 71.838 194.557 71.7517 194.535 71.6641C194.531 71.6311 194.531 71.5977 194.535 71.5647C194.535 71.4553 194.465 71.3558 194.436 71.2464C194.386 71.0864 194.346 70.9237 194.316 70.7591L194.256 70.4607C194.256 70.2817 194.197 70.0927 194.177 69.9037C194.162 69.6354 194.162 69.3664 194.177 69.0981C194.162 68.8331 194.162 68.5675 194.177 68.3024C194.182 68.2761 194.182 68.2492 194.177 68.2229C194.177 68.0936 194.177 67.9643 194.227 67.835C194.276 67.7057 194.227 67.5664 194.306 67.4272C194.362 67.165 194.432 66.9061 194.515 66.6514C194.515 66.542 194.595 66.4326 194.625 66.3331C194.662 66.252 194.695 66.169 194.724 66.0845L194.794 65.9254L194.894 65.7165C194.993 65.5076 195.093 65.3187 195.212 65.1198L195.381 64.8512C195.381 64.8512 195.491 64.6821 195.561 64.5926L195.81 64.2545L196.078 63.9461C196.168 63.8367 196.268 63.7373 196.357 63.6378C196.848 63.139 197.4 62.7045 198 62.3449L198.289 62.1857L198.587 62.0365L198.876 61.9072C199.057 61.8215 199.243 61.7484 199.434 61.6884L199.702 61.5989L200.031 61.5094L200.36 61.4298C200.434 61.3735 200.51 61.3204 200.589 61.2707L200.917 61.221H201.246C201.689 61.1812 202.136 61.1812 202.58 61.221H202.908L203.237 61.2707C203.351 61.2849 203.464 61.3048 203.575 61.3304C203.848 61.3894 204.117 61.4624 204.382 61.5492L204.601 61.6188C204.975 61.7559 205.338 61.9222 205.686 62.1161C205.8 62.1709 205.91 62.2341 206.015 62.3051C206.126 62.3619 206.233 62.4284 206.333 62.504L206.632 62.7128L206.931 62.9416L207.199 63.1803C207.398 63.3567 207.584 63.5461 207.757 63.7472C207.832 63.8221 207.902 63.9018 207.966 63.9859C208.084 64.1159 208.19 64.2556 208.285 64.4036C208.341 64.4684 208.391 64.5384 208.434 64.6125C208.607 64.8551 208.76 65.1112 208.892 65.3783C208.951 65.4814 209.004 65.5876 209.051 65.6966C209.051 65.806 209.151 65.9254 209.191 66.0348C209.195 66.0544 209.195 66.0748 209.191 66.0944C209.233 66.1882 209.27 66.2846 209.3 66.3829L209.36 66.5619C209.44 66.8139 209.509 67.0725 209.569 67.3377C209.569 67.4173 209.569 67.4869 209.569 67.5664C209.569 67.646 209.639 67.9742 209.659 68.1731C209.712 68.7122 209.712 69.2552 209.659 69.7943L209.778 69.8639Z" stroke="#231F20" stroke-width="0.5" stroke-miterlimit="10"/>
<path d="M450.399 235.771H408.573V284.715H450.399V235.771Z" fill="#2573AD"/>
<path d="M450.399 235.771H408.573V250.283H450.399V235.771Z" fill="#9D1356"/>
<path d="M450.399 252.988H408.573V267.499H450.399V252.988Z" fill="#9D1356"/>
<path d="M450.399 270.204H408.573V284.715H450.399V270.204Z" fill="#9D1356"/>
<path d="M412.387 284.715H408.573V287.082H412.387V284.715Z" fill="#231F20"/>
<path d="M450.399 284.715H446.586V287.082H450.399V284.715Z" fill="#231F20"/>
<path d="M412.387 237.75H410.973V248.651H412.387V237.75Z" fill="#FB9100"/>
<path d="M415.264 237.75H413.85V248.651H415.264V237.75Z" fill="#FB9100"/>
<path d="M418.141 237.75H416.728V248.651H418.141V237.75Z" fill="#FB9100"/>
<path d="M421.019 237.75H419.605V248.651H421.019V237.75Z" fill="#FB9100"/>
<path d="M448.05 237.75H422.871V248.651H448.05V237.75Z" fill="#FFF6EB"/>
<path d="M412.387 254.788H410.973V265.689H412.387V254.788Z" fill="#FB9100"/>
<path d="M415.264 254.788H413.85V265.689H415.264V254.788Z" fill="#FB9100"/>
<path d="M418.141 254.788H416.728V265.689H418.141V254.788Z" fill="#FB9100"/>
<path d="M421.019 254.788H419.605V265.689H421.019V254.788Z" fill="#FB9100"/>
<path d="M423.896 254.788H422.482V265.689H423.896V254.788Z" fill="#FB9100"/>
<path d="M426.783 254.788H425.37V265.689H426.783V254.788Z" fill="#FB9100"/>
<path d="M429.661 254.788H428.247V265.689H429.661V254.788Z" fill="#FB9100"/>
<path d="M448.05 254.788H431.423V265.689H448.05V254.788Z" fill="#FFF6EB"/>
<path d="M412.387 271.835H410.973V282.736H412.387V271.835Z" fill="#FB9100"/>
<path d="M415.264 271.835H413.85V282.736H415.264V271.835Z" fill="#04B6BA"/>
<path d="M418.141 271.835H416.728V282.736H418.141V271.835Z" fill="#FB9100"/>
<path d="M421.019 271.835H419.605V282.736H421.019V271.835Z" fill="#FB9100"/>
<path d="M442.295 271.835H440.881V282.736H442.295V271.835Z" fill="#FB9100"/>
<path d="M445.173 271.835H443.759V282.736H445.173V271.835Z" fill="#FB9100"/>
<path d="M448.05 271.835H446.636V282.736H448.05V271.835Z" fill="#FB9100"/>
<path d="M439.159 271.835H422.871V282.736H439.159V271.835Z" fill="#FFF6EB"/>
<path d="M386.66 135.785H388.422" stroke="#231F20" stroke-width="0.71" stroke-miterlimit="10"/>
<path d="M392.006 135.785H426.106" stroke="#231F20" stroke-width="0.71" stroke-miterlimit="10" stroke-dasharray="3.6 3.6"/>
<path d="M427.898 135.785H429.661V137.546" stroke="#231F20" stroke-width="0.71" stroke-miterlimit="10"/>
<path d="M429.661 141.116V232.23" stroke="#231F20" stroke-width="0.71" stroke-miterlimit="10" stroke-dasharray="3.59 3.59"/>
<path d="M429.661 234.011V235.771" stroke="#231F20" stroke-width="0.71" stroke-miterlimit="10"/>
<path d="M288.711 238.089H244.934V279.424H288.711V238.089Z" fill="black"/>
<path d="M203.934 276.669H329.711C331.643 276.669 333.497 277.436 334.864 278.801C336.231 280.167 336.999 282.019 336.999 283.949V286.933H196.616V283.949C196.616 282.991 196.806 282.042 197.174 281.156C197.542 280.271 198.081 279.467 198.761 278.791C199.441 278.114 200.248 277.579 201.136 277.215C202.024 276.85 202.974 276.665 203.934 276.669Z" fill="black"/>
<path d="M379.272 85.8472H154.372C150.292 85.8472 146.984 89.1512 146.984 93.227V246.443C146.984 250.519 150.292 253.823 154.372 253.823H379.272C383.352 253.823 386.66 250.519 386.66 246.443V93.227C386.66 89.1512 383.352 85.8472 379.272 85.8472Z" fill="black"/>
<path d="M379.233 93.9927V231.345C379.233 231.836 379.037 232.307 378.69 232.654C378.343 233 377.872 233.195 377.381 233.195H155.527C155.284 233.195 155.043 233.148 154.818 233.055C154.594 232.962 154.389 232.825 154.217 232.654C154.045 232.482 153.909 232.278 153.816 232.053C153.723 231.829 153.675 231.588 153.675 231.345V93.9927C153.671 93.7468 153.716 93.5026 153.807 93.2741C153.898 93.0457 154.034 92.8376 154.206 92.6618C154.378 92.4861 154.584 92.3462 154.811 92.2503C155.037 92.1544 155.281 92.1043 155.527 92.103H377.381C377.627 92.1043 377.87 92.1544 378.097 92.2503C378.324 92.3462 378.529 92.4861 378.701 92.6618C378.874 92.8376 379.009 93.0457 379.1 93.2741C379.192 93.5026 379.237 93.7468 379.233 93.9927Z" fill="#FFF6EB"/>
<path d="M371.168 243.857C371.17 244.746 370.908 245.614 370.415 246.353C369.923 247.092 369.222 247.669 368.401 248.01C367.58 248.35 366.676 248.44 365.804 248.267C364.932 248.095 364.131 247.667 363.503 247.039C362.874 246.411 362.446 245.611 362.273 244.74C362.1 243.869 362.19 242.966 362.531 242.146C362.872 241.326 363.449 240.626 364.189 240.134C364.929 239.642 365.799 239.38 366.688 239.382C367.876 239.382 369.016 239.853 369.856 240.693C370.696 241.532 371.168 242.67 371.168 243.857Z" fill="#FFF6EB"/>
<path d="M347.94 92.103V215.899C347.94 218.859 346.763 221.698 344.668 223.79C342.573 225.883 339.732 227.059 336.769 227.059H175.937C174.468 227.061 173.014 226.775 171.656 226.215C170.298 225.655 169.065 224.834 168.025 223.797C166.986 222.761 166.161 221.53 165.599 220.175C165.036 218.819 164.746 217.367 164.746 215.899V92.103H347.94Z" fill="#67D7E0"/>
<path d="M348.846 69.2075H176.624C172.291 69.2075 168.779 72.7164 168.779 77.0449V212.468C168.779 216.797 172.291 220.305 176.624 220.305H348.846C353.179 220.305 356.692 216.797 356.692 212.468V77.0449C356.692 72.7164 353.179 69.2075 348.846 69.2075Z" fill="#FFF6EB" stroke="#231F20" stroke-width="0.5" stroke-miterlimit="10"/>
<path d="M348.846 69.0586H176.604C174.523 69.0586 172.528 69.8843 171.056 71.3541C169.585 72.8239 168.759 74.8174 168.759 76.896V83.7586H356.692V76.896C356.692 74.8174 355.865 72.8239 354.394 71.3541C352.922 69.8843 350.927 69.0586 348.846 69.0586Z" fill="#FB9100"/>
<path d="M333.653 76.6768C333.651 77.1229 333.517 77.5585 333.267 77.9284C333.018 78.2984 332.664 78.5862 332.251 78.7556C331.838 78.925 331.384 78.9682 330.946 78.88C330.508 78.7918 330.107 78.576 329.791 78.2598C329.476 77.9437 329.262 77.5414 329.176 77.1037C329.089 76.666 329.135 76.2126 329.306 75.8006C329.477 75.3887 329.767 75.0366 330.139 74.789C330.51 74.5414 330.947 74.4092 331.393 74.4092C331.691 74.4092 331.985 74.4679 332.26 74.582C332.535 74.6961 332.785 74.8633 332.995 75.074C333.205 75.2847 333.371 75.5347 333.484 75.8098C333.597 76.0849 333.654 76.3795 333.653 76.6768Z" fill="#FFF6EB"/>
<path d="M342.883 76.6768C342.883 77.1253 342.749 77.5638 342.5 77.9367C342.251 78.3096 341.896 78.6003 341.481 78.7719C341.066 78.9435 340.61 78.9884 340.17 78.9009C339.729 78.8134 339.325 78.5975 339.007 78.2803C338.69 77.9632 338.474 77.5591 338.386 77.1192C338.299 76.6794 338.344 76.2234 338.515 75.809C338.687 75.3947 338.978 75.0405 339.351 74.7913C339.725 74.5422 340.164 74.4092 340.613 74.4092C340.911 74.4092 341.206 74.4678 341.481 74.5818C341.757 74.6958 342.007 74.8628 342.218 75.0734C342.428 75.2839 342.596 75.5339 342.71 75.809C342.824 76.0842 342.883 76.379 342.883 76.6768Z" fill="#FFF6EB"/>
<path d="M352.102 76.6768C352.1 77.1229 351.966 77.5585 351.716 77.9284C351.467 78.2984 351.113 78.5862 350.7 78.7556C350.287 78.925 349.833 78.9682 349.395 78.88C348.957 78.7918 348.555 78.576 348.24 78.2598C347.925 77.9437 347.711 77.5414 347.624 77.1037C347.538 76.666 347.583 76.2126 347.755 75.8006C347.926 75.3887 348.216 75.0366 348.587 74.789C348.959 74.5414 349.395 74.4092 349.842 74.4092C350.139 74.4092 350.434 74.4679 350.709 74.582C350.984 74.6961 351.233 74.8633 351.443 75.074C351.653 75.2847 351.82 75.5347 351.933 75.8098C352.046 76.0849 352.103 76.3795 352.102 76.6768Z" fill="#FFF6EB"/>
<path d="M348.567 92.2422H290.642V95.405H348.567V92.2422Z" fill="#FB9100"/>
<path d="M348.567 209.713V211.473H346.815" stroke="#231F20" stroke-width="0.71" stroke-miterlimit="10"/>
<path d="M343.34 211.474H178.745" stroke="#231F20" stroke-width="0.71" stroke-miterlimit="10" stroke-dasharray="3.48 3.48"/>
<path d="M177.012 211.473H175.25V209.713" stroke="#231F20" stroke-width="0.71" stroke-miterlimit="10"/>
<path d="M175.25 206.073V156.93" stroke="#231F20" stroke-width="0.71" stroke-miterlimit="10" stroke-dasharray="3.66 3.66"/>
<path d="M175.25 155.11V153.35H177.012" stroke="#231F20" stroke-width="0.71" stroke-miterlimit="10"/>
<path d="M180.477 153.35H345.073" stroke="#231F20" stroke-width="0.71" stroke-miterlimit="10" stroke-dasharray="3.48 3.48"/>
<path d="M346.815 153.35H348.567V155.11" stroke="#231F20" stroke-width="0.71" stroke-miterlimit="10"/>
<path d="M348.567 158.75V207.893" stroke="#231F20" stroke-width="0.71" stroke-miterlimit="10" stroke-dasharray="3.66 3.66"/>
<path d="M348.567 99.2344H290.642V102.397H348.567V99.2344Z" fill="#FB9100"/>
<path d="M348.567 106.236H248.757V109.399H348.567V106.236Z" fill="#FB9100"/>
<path d="M348.567 113.228H248.757V116.391H348.567V113.228Z" fill="#FB9100"/>
<path d="M348.567 120.22H248.757V123.383H348.567V120.22Z" fill="#FB9100"/>
<path d="M348.567 127.212H248.757V130.375H348.567V127.212Z" fill="#FB9100"/>
<path d="M348.567 134.204H248.757V137.367H348.567V134.204Z" fill="#FB9100"/>
<path d="M315.154 141.196H248.757V144.359H315.154V141.196Z" fill="#FB9100"/>
<path d="M243.5 142.598V144.359H241.738" stroke="#231F20" stroke-width="0.71" stroke-miterlimit="10"/>
<path d="M238.352 144.359H179.153" stroke="#231F20" stroke-width="0.71" stroke-miterlimit="10" stroke-dasharray="3.4 3.4"/>
<path d="M177.46 144.359H175.698V142.598" stroke="#231F20" stroke-width="0.71" stroke-miterlimit="10"/>
<path d="M175.698 138.859V95.8726" stroke="#231F20" stroke-width="0.71" stroke-miterlimit="10" stroke-dasharray="3.76 3.76"/>
<path d="M175.698 94.0026V92.2422H177.46" stroke="#231F20" stroke-width="0.71" stroke-miterlimit="10"/>
<path d="M180.845 92.2422H240.045" stroke="#231F20" stroke-width="0.71" stroke-miterlimit="10" stroke-dasharray="3.4 3.4"/>
<path d="M241.738 92.2422H243.5V94.0026" stroke="#231F20" stroke-width="0.71" stroke-miterlimit="10"/>
<path d="M243.5 97.7422V140.728" stroke="#231F20" stroke-width="0.71" stroke-miterlimit="10" stroke-dasharray="3.76 3.76"/>
<path d="M257.608 92.2422H249.882C249.26 92.2422 248.757 92.7454 248.757 93.3661V101.084C248.757 101.705 249.26 102.208 249.882 102.208H257.608C258.229 102.208 258.733 101.705 258.733 101.084V93.3661C258.733 92.7454 258.229 92.2422 257.608 92.2422Z" fill="#1B5A96"/>
<path d="M254.9 99.7115L252.421 97.2251L254.9 94.7485" stroke="white" stroke-width="1.06" stroke-linecap="round" stroke-linejoin="round"/>
<path d="M285.256 92.2422H277.53C276.909 92.2422 276.405 92.7454 276.405 93.3661V101.084C276.405 101.705 276.909 102.208 277.53 102.208H285.256C285.877 102.208 286.381 101.705 286.381 101.084V93.3661C286.381 92.7454 285.877 92.2422 285.256 92.2422Z" fill="#1B5A96"/>
<path d="M280.577 99.7115L283.056 97.2251L280.577 94.7485" stroke="white" stroke-width="1.06" stroke-linecap="round" stroke-linejoin="round"/>
<path d="M271.238 92.2422H263.512C262.89 92.2422 262.387 92.7454 262.387 93.3661V101.084C262.387 101.705 262.89 102.208 263.512 102.208H271.238C271.859 102.208 272.363 101.705 272.363 101.084V93.3661C272.363 92.7454 271.859 92.2422 271.238 92.2422Z" fill="#1B5A96"/>
<path d="M268.679 94.7485L266.26 99.7115" stroke="white" stroke-width="1.06" stroke-linecap="round" stroke-linejoin="round"/>
<path d="M178.078 90.9194H174.444V94.5497H178.078V90.9194Z" fill="#FB9100"/>
<path d="M245.322 90.9194H241.688V94.5497H245.322V90.9194Z" fill="#FB9100"/>
<path d="M178.078 117.196H174.444V120.827H178.078V117.196Z" fill="#1ECCDE"/>
<path d="M245.322 117.196H241.688V120.827H245.322V117.196Z" fill="#1B5A96"/>
<path d="M211.7 90.9194H208.066V94.5497H211.7V90.9194Z" fill="#1B5A96"/>
<path d="M178.078 142.539H174.444V146.169H178.078V142.539Z" fill="#1ECCDE"/>
<path d="M245.322 142.539H241.688V146.169H245.322V142.539Z" fill="#FB9100"/>
<path d="M211.7 142.539H208.066V146.169H211.7V142.539Z" fill="#1B5A96"/>
<path d="M177.072 151.391H173.438V155.021H177.072V151.391Z" fill="#1ECCDE"/>
<path d="M350.389 151.391H346.755V155.021H350.389V151.391Z" fill="#1B5A96"/>
<path d="M177.072 177.677H173.438V181.307H177.072V177.677Z" fill="#1ECCDE"/>
<path d="M350.389 177.677H346.755V181.307H350.389V177.677Z" fill="#FB9100"/>
<path d="M266.519 151.391H262.885V155.021H266.519V151.391Z" fill="#FB9100"/>
<path d="M177.072 209.664H173.438V213.294H177.072V209.664Z" fill="#1ECCDE"/>
<path d="M350.389 209.664H346.755V213.294H350.389V209.664Z" fill="#1B5A96"/>
<path d="M266.519 209.664H262.885V213.294H266.519V209.664Z" fill="#FB9100"/>
<path d="M262.735 168.01C259.716 168.008 256.764 168.9 254.253 170.575C251.742 172.249 249.784 174.629 248.627 177.415C247.47 180.201 247.167 183.267 247.754 186.225C248.342 189.184 249.795 191.901 251.929 194.035C254.063 196.168 256.783 197.621 259.744 198.21C262.705 198.799 265.774 198.498 268.564 197.344C271.353 196.19 273.738 194.236 275.415 191.729C277.093 189.221 277.988 186.273 277.988 183.257C277.989 181.255 277.596 179.273 276.83 177.423C276.064 175.573 274.941 173.892 273.524 172.476C272.108 171.06 270.426 169.937 268.575 169.171C266.723 168.404 264.739 168.01 262.735 168.01ZM258.574 192.109V174.395L270.83 183.257L258.574 192.109Z" fill="#FB9100"/>
<path d="M157.986 240.794V284.715C157.986 285.242 157.776 285.748 157.403 286.121C157.029 286.494 156.523 286.704 155.995 286.704H106.682V246.125C106.682 245.853 106.735 245.584 106.84 245.333C106.944 245.082 107.096 244.854 107.288 244.662C107.481 244.47 107.709 244.318 107.96 244.214C108.212 244.11 108.481 244.056 108.753 244.056H140.085C140.634 244.056 141.161 243.838 141.549 243.45C141.938 243.062 142.156 242.536 142.156 241.987V240.794C142.156 240.522 142.209 240.253 142.313 240.002C142.418 239.751 142.57 239.523 142.762 239.331C142.955 239.139 143.183 238.987 143.434 238.883C143.685 238.779 143.955 238.725 144.227 238.725H155.925C156.473 238.728 156.997 238.947 157.383 239.335C157.769 239.722 157.986 240.247 157.986 240.794Z" fill="#C66A05"/>
<path d="M155.328 245.19H110.784C109.959 245.19 109.29 245.858 109.29 246.682V280.836C109.29 281.66 109.959 282.328 110.784 282.328H155.328C156.153 282.328 156.821 281.66 156.821 280.836V246.682C156.821 245.858 156.153 245.19 155.328 245.19Z" fill="#FCFCFC"/>
<path d="M154.093 246.592H109.549C108.724 246.592 108.056 247.26 108.056 248.084V282.238C108.056 283.062 108.724 283.73 109.549 283.73H154.093C154.918 283.73 155.587 283.062 155.587 282.238V248.084C155.587 247.26 154.918 246.592 154.093 246.592Z" fill="#E2DED0"/>
<path d="M156.064 286.734H106.283C105.835 286.735 105.401 286.579 105.056 286.294C104.71 286.009 104.475 285.612 104.392 285.172L98.0398 251.486C97.9888 251.208 97.9994 250.923 98.0708 250.65C98.1422 250.377 98.2727 250.123 98.4531 249.905C98.6335 249.688 98.8593 249.513 99.1147 249.393C99.3702 249.272 99.649 249.209 99.9314 249.208H149.712C150.162 249.208 150.597 249.365 150.943 249.652C151.289 249.939 151.523 250.338 151.604 250.779L157.996 284.456C158.048 284.737 158.036 285.026 157.962 285.302C157.889 285.578 157.755 285.834 157.57 286.052C157.385 286.27 157.154 286.444 156.894 286.562C156.634 286.68 156.35 286.739 156.064 286.734Z" fill="#FB9100"/>
<path d="M383.026 288.594C382.226 289.632 381.165 290.439 379.95 290.931C378.307 291.657 374.822 292.005 376.754 292.652C378.502 293.092 380.33 293.116 382.09 292.721C383.277 292.698 384.465 292.754 385.645 292.891C387.427 292.891 387.486 292.383 387.247 290.384C386.919 287.629 383.832 287.042 383.026 288.594Z" fill="#231F20"/>
<path d="M414.945 286.714C414.846 287.271 415.632 288.962 414.229 290.195C412.825 291.429 409.599 292.732 411.73 292.781C413.53 292.834 415.32 292.495 416.976 291.787C418.062 291.25 417.196 290.414 418.54 289.986C420.312 289.43 419.943 288.127 419.027 287.331C417.853 284.705 415.264 284.914 414.945 286.714Z" fill="#231F20"/>
<path d="M408.464 231.485C408.464 231.485 412.705 219.042 400.678 208.788C400.678 208.788 394.236 211.354 389.079 211.662C386.916 211.84 384.739 211.749 382.598 211.394C382.598 211.394 381.602 222.513 381.602 228.471L408.464 231.485Z" fill="#1B5A96"/>
<path d="M384.241 218.356C383.295 218.714 382.13 220.137 381.622 228.471C381.493 230.46 380.706 245.479 380.427 249.149C380.382 249.708 380.382 250.27 380.427 250.83C380.38 251.189 380.363 251.552 380.378 251.914C380.626 257.881 383.145 276.928 383.016 288.435C383.278 288.778 383.62 289.051 384.012 289.231C385.028 289.598 386.141 289.598 387.158 289.231C387.984 279.971 394.127 260.557 389.846 251.794C391.548 246.334 395.342 234.598 396.108 230.053C397.323 222.742 388.97 216.576 384.241 218.356Z" fill="#1B5A96"/>
<path d="M408.573 253.375C408.225 247.557 409.26 232.767 408.255 228.192C406.652 220.932 398.299 217.918 394.565 221.34C393.828 222.026 393.301 226.044 393.898 227.904C394.495 229.764 397.94 250.68 399.065 254.181C399.225 254.678 399.732 256.17 399.862 256.538C401.853 262.148 411.262 276.937 414.537 287.967C414.931 288.09 415.339 288.164 415.752 288.186C416.387 288.245 417.027 288.166 417.628 287.955C418.23 287.744 418.778 287.406 419.237 286.963C417.285 277.852 416.359 261.083 408.573 253.375Z" fill="#1B5A96"/>
<path d="M355.597 179.03C355.597 179.03 354.073 177.359 353.605 176.723C353.137 176.086 351.047 175.977 350.459 174.734C349.872 173.49 348.647 171.75 349.971 171.143C351.296 170.536 351.246 170.447 351.594 169.96C351.943 169.472 349.384 167.602 348.936 166.18C348.488 164.758 352.47 168.1 353.068 168.935C353.665 169.771 354.581 169.025 355.178 170.497C355.776 171.969 355.915 173.838 357.379 175.947" fill="#FFCCB0"/>
<path d="M380.149 173.928C377.241 176.424 372.373 183.317 370.073 186.49C365.722 181.208 357.13 174.306 357.13 174.306C357.13 174.306 353.217 177.23 353.834 177.827C354.452 178.423 366.538 195.839 369.575 196.067C369.977 196.083 370.374 195.983 370.72 195.779C370.72 195.779 375.051 194.078 381.393 187.056C381.574 186.801 381.809 186.589 382.082 186.435C382.354 186.282 382.657 186.19 382.969 186.167C383.282 186.144 383.595 186.191 383.887 186.303C384.179 186.416 384.443 186.592 384.659 186.818L386.53 171.899C386.53 171.899 382.458 172.187 380.149 173.928Z" fill="#FB9100"/>
<path d="M379.571 175.33C382.586 172.76 386.452 171.406 390.413 171.531C394.237 171.65 404.631 172.287 405.796 174.833C406.393 176.146 407.03 189.503 406.154 194.108C405.507 197.569 403.834 206.153 403.834 208.221C403.834 210.29 404.939 211.205 404.422 211.782C403.257 213.135 395.302 213.701 391.568 213.701C388.243 213.701 382.608 212.816 382.289 211.712C382.16 211.205 382.419 208.45 382.289 204.84C381.961 197.042 381.154 185.266 380.557 183.655C379.87 181.914 378.038 176.643 379.571 175.33Z" fill="#FB9100"/>
<path d="M380.636 180.283C380.636 180.283 381.433 190.428 381.722 195.132C381.722 195.132 382.12 201.408 382.21 203.666" fill="#C66A05"/>
<path d="M396.656 172.138C396.656 172.138 392.673 174.883 389.975 174.714C389.023 174.072 388.292 173.151 387.885 172.078C388.233 171.913 388.567 171.716 388.88 171.491C389.024 170.563 389.083 169.625 389.059 168.686C389.059 168.299 389.059 167.94 389.059 167.692C389.059 167.443 389.059 167.016 389.059 167.016L397.024 163.654C396.512 164.714 396.144 165.838 395.929 166.996C395.78 168.479 395.714 169.97 395.73 171.461C395.73 171.78 396.656 172.138 396.656 172.138Z" fill="#FFCCB0"/>
<path d="M386.69 151.58C386.23 152.751 385.88 153.963 385.644 155.2C385.59 155.523 385.644 155.854 385.797 156.143C385.949 156.433 386.193 156.664 386.491 156.801C386.73 156.921 388.034 151.729 388.034 151.729" fill="#3B2E7A"/>
<path d="M391.937 150.217C390.941 150.485 388.422 149.958 387.725 151.003C387.057 152.382 386.527 153.825 386.142 155.309C385.653 156.732 385.238 158.18 384.898 159.646C384.4 161.525 383.573 164.967 385.415 166.538C385.798 166.927 386.298 167.179 386.839 167.254C387.705 167.413 388.571 167.592 389.448 167.741C390.813 168.114 392.249 168.144 393.629 167.831C395.421 167.254 396.407 164.847 396.865 163.127L399.503 153.549L391.937 150.217Z" fill="#FFCCB0"/>
<path d="M395.73 170.367C396.468 170.817 397.1 171.421 397.582 172.138C396.795 173.938 395.013 177.111 393.052 178.592C392.566 177.204 391.792 175.933 390.782 174.863C392.714 173.708 394.396 172.18 395.73 170.367Z" fill="#C66A05"/>
<path d="M389.677 174.723C388.494 175.387 387.54 176.392 386.939 177.608C386.74 175.807 386.879 173.986 387.347 172.237C387.347 172.237 388.601 170.635 389.039 170.596C388.972 172 389.189 173.404 389.677 174.723Z" fill="#C66A05"/>
<path d="M397.017 185.773L377.248 202.157C376.685 202.623 376.607 203.457 377.074 204.02L400.907 232.717C401.374 233.279 402.208 233.356 402.771 232.89L422.541 216.506C423.103 216.039 423.181 215.205 422.714 214.643L398.882 185.946C398.415 185.384 397.58 185.306 397.017 185.773Z" fill="#94E1EB"/>
<path d="M398.876 185.932L400.17 187.494L378.376 205.576L377.072 204.004C376.96 203.871 376.875 203.718 376.823 203.552C376.771 203.386 376.752 203.212 376.768 203.039C376.784 202.866 376.834 202.698 376.915 202.544C376.996 202.391 377.107 202.255 377.241 202.144L397.014 185.753C397.148 185.642 397.302 185.558 397.468 185.507C397.635 185.455 397.809 185.438 397.983 185.454C398.156 185.471 398.324 185.522 398.477 185.604C398.631 185.686 398.766 185.798 398.876 185.932Z" fill="#222B54"/>
<path d="M392.813 191.453C392.913 191.572 392.975 191.718 392.992 191.873C393.009 192.027 392.98 192.183 392.908 192.321C392.835 192.459 392.724 192.573 392.587 192.647C392.451 192.722 392.295 192.754 392.14 192.74C391.985 192.726 391.837 192.667 391.716 192.569C391.595 192.471 391.506 192.34 391.459 192.191C391.413 192.042 391.412 191.884 391.456 191.734C391.5 191.585 391.588 191.453 391.708 191.353C391.868 191.22 392.074 191.156 392.281 191.175C392.488 191.194 392.679 191.293 392.813 191.453Z" fill="white"/>
<path d="M395.491 189.234C395.591 189.354 395.653 189.5 395.67 189.654C395.687 189.809 395.658 189.965 395.586 190.103C395.513 190.241 395.402 190.354 395.265 190.429C395.129 190.504 394.973 190.536 394.818 190.522C394.663 190.508 394.515 190.448 394.394 190.351C394.273 190.253 394.184 190.121 394.137 189.973C394.091 189.824 394.09 189.665 394.134 189.516C394.178 189.367 394.266 189.234 394.386 189.135C394.546 189.002 394.752 188.938 394.959 188.957C395.166 188.975 395.357 189.075 395.491 189.234Z" fill="white"/>
<path d="M398.169 187.016C398.235 187.095 398.284 187.186 398.314 187.284C398.344 187.382 398.355 187.485 398.345 187.587C398.335 187.69 398.306 187.789 398.257 187.879C398.209 187.97 398.144 188.05 398.065 188.115C397.986 188.181 397.895 188.23 397.796 188.26C397.698 188.29 397.595 188.3 397.493 188.291C397.391 188.281 397.292 188.251 397.201 188.203C397.11 188.155 397.03 188.09 396.965 188.011C396.832 187.851 396.768 187.645 396.786 187.438C396.805 187.232 396.905 187.04 397.064 186.907C397.144 186.841 397.235 186.791 397.334 186.76C397.433 186.73 397.537 186.719 397.64 186.729C397.743 186.74 397.843 186.77 397.934 186.819C398.025 186.869 398.105 186.936 398.169 187.016Z" fill="white"/>
<path d="M391.061 197.229L380.602 205.897L386.997 213.598L397.457 204.93L391.061 197.229Z" fill="white" stroke="#231F20" stroke-width="0.25" stroke-miterlimit="10"/>
<path d="M407.321 198.496L387.85 214.632L401.848 231.488L421.319 215.351L407.321 198.496Z" fill="white" stroke="#231F20" stroke-width="0.25" stroke-miterlimit="10"/>
<path d="M400.07 189.764L392.162 196.317L392.715 196.983L400.623 190.43L400.07 189.764Z" fill="white" stroke="#231F20" stroke-width="0.25" stroke-miterlimit="10"/>
<path d="M401.236 191.164L393.328 197.718L393.881 198.384L401.789 191.83L401.236 191.164Z" fill="white" stroke="#231F20" stroke-width="0.25" stroke-miterlimit="10"/>
<path d="M402.415 192.576L394.508 199.129L395.061 199.795L402.968 193.242L402.415 192.576Z" fill="white" stroke="#231F20" stroke-width="0.25" stroke-miterlimit="10"/>
<path d="M403.581 193.986L395.673 200.54L396.226 201.206L404.134 194.652L403.581 193.986Z" fill="white" stroke="#231F20" stroke-width="0.25" stroke-miterlimit="10"/>
<path d="M404.743 195.395L396.835 201.948L397.388 202.614L405.296 196.061L404.743 195.395Z" fill="white" stroke="#231F20" stroke-width="0.25" stroke-miterlimit="10"/>
<path d="M403.62 198.699L398.003 203.354L398.556 204.02L404.173 199.365L403.62 198.699Z" fill="white" stroke="#231F20" stroke-width="0.25" stroke-miterlimit="10"/>
<path d="M389.139 212.14C387.472 212.408 385.94 213.215 384.778 214.438C384.698 214.527 384.599 214.637 384.619 214.756C384.639 214.875 384.828 214.975 384.977 214.995C385.853 215.134 385.973 214.577 386.829 214.229L388.482 213.523" fill="#F2A181"/>
<path d="M395.63 212.14L393.221 213.642C392.863 213.811 392.574 214.099 392.405 214.457C391.887 216.158 390.822 216.248 390.224 216.636C389.58 216.947 388.915 217.213 388.233 217.431L388.651 217.988L388.323 218.137H388.273C388.035 218.175 387.792 218.157 387.564 218.082C387.335 218.008 387.128 217.88 386.959 217.71C386.292 217.115 385.754 216.39 385.376 215.581C385.288 215.369 385.258 215.138 385.29 214.911C385.321 214.683 385.413 214.469 385.555 214.288C386.31 213.639 387.116 213.05 387.964 212.528C388.382 212.339 392.305 211.165 393.779 210.857L395.63 212.14Z" fill="#FFCCB0"/>
<path d="M402.869 183.267C403.467 189.222 404.545 195.12 406.094 200.901L391.16 211.195C391.16 211.195 391.379 212.06 391.718 213.005C391.964 213.594 392.275 214.155 392.644 214.676C392.644 214.676 411.779 207.824 413.163 203.805C412.795 198.922 413.392 181.716 408.534 175.35C406.99 173.361 397.582 172.138 397.582 172.138" fill="#FB9100"/>
<path d="M401.186 152.653C401.063 152.557 400.967 152.43 400.907 152.285C400.907 149.958 399.752 149.54 398.319 148.894C396.238 147.959 388.133 147.8 387.317 144.756C386.68 145.045 386.092 145.403 386.272 147.67C386.104 147.394 385.973 147.096 385.883 146.785C385.394 147.549 385.129 148.435 385.117 149.341C385.116 149.791 385.209 150.236 385.391 150.647C385.573 151.058 385.839 151.426 386.172 151.728C386.609 152.078 387.114 152.333 387.656 152.474C388.937 152.814 390.237 153.08 391.548 153.27C392.867 153.476 394.114 154.009 395.172 154.822C395.454 155.056 395.688 155.343 395.859 155.667C395.522 156.634 395.292 157.634 395.172 158.651C395.184 159.144 395.38 159.616 395.72 159.974C395.611 161.197 395.541 162.191 395.72 162.142C396.069 162.042 396.208 161.615 396.417 161.306C396.815 160.719 397.273 161.097 397.881 161.455L397.622 162.012L398.617 161.555C398.617 161.555 404.352 155.945 401.186 152.653Z" fill="black"/>
<path d="M395.521 163.902C395.494 164.036 395.496 164.174 395.525 164.308C395.554 164.441 395.61 164.567 395.69 164.678C395.834 164.8 396.009 164.879 396.196 164.906C396.383 164.932 396.574 164.905 396.746 164.827C397.206 164.653 397.612 164.361 397.923 163.981C398.234 163.6 398.439 163.144 398.518 162.659C398.727 161.535 398.13 160.421 397.104 160.67C396.804 160.779 396.546 160.98 396.367 161.244C396.188 161.509 396.098 161.823 396.108 162.142" fill="#FFCCB0"/>
<path d="M392.494 168.05C391.43 168.53 390.265 168.749 389.099 168.686C389.099 168.299 389.099 167.941 389.099 167.692L392.494 168.05Z" fill="#F2A181"/>
<path d="M403.008 184.849C403.008 184.849 404.382 195.58 406.094 200.901L403.008 184.849Z" fill="#C66A05"/>
<path d="M392.743 223.607C393.241 225.537 393.669 227.466 394.097 229.406C394.525 231.345 394.914 233.285 395.312 235.224C395.71 237.164 396.069 239.113 396.407 241.062L397.403 246.921C396.775 245.031 396.288 243.101 395.83 241.172C395.372 239.242 394.963 237.303 394.565 235.363C394.167 233.424 393.828 231.465 393.52 229.505C393.211 227.546 392.992 225.587 392.743 223.607Z" fill="#256EA5"/>
<path d="M157.339 293L173.01 185.694H165.174L149.503 293H157.339Z" fill="#65739B"/>
<path d="M158.693 293L174.364 185.694H166.528L150.857 293H158.693Z" fill="#35416D"/>
<path d="M202.898 235.771H162.208" stroke="#222B54" stroke-width="1.41" stroke-miterlimit="10" stroke-linecap="round"/>
<path d="M205.786 215.074H165.095" stroke="#222B54" stroke-width="1.41" stroke-miterlimit="10" stroke-linecap="round"/>
<path d="M209.131 194.376H168.102" stroke="#222B54" stroke-width="1.41" stroke-miterlimit="10" stroke-linecap="round"/>
<path d="M200.041 256.469H159.35" stroke="#222B54" stroke-width="1.41" stroke-miterlimit="10" stroke-linecap="round"/>
<path d="M196.745 277.166H156.054" stroke="#222B54" stroke-width="1.41" stroke-miterlimit="10" stroke-linecap="round"/>
<path d="M212.812 112.119L142.21 103.747L135.762 158.008L206.364 166.381L212.812 112.119Z" fill="#1B5A96"/>
<path d="M211.03 113.19L143.701 105.206L137.551 156.959L204.88 164.943L211.03 113.19Z" fill="#1B5A96"/>
<path d="M188.492 131.33L165.443 153.787L166.568 153.917L165.812 160.302L204.88 164.937L205.637 158.551L188.492 131.33Z" fill="#FFF6EB"/>
<path d="M138.313 150.565L169.436 119.017L196.755 163.972L137.556 156.95L138.313 150.565Z" fill="#FFF6EB"/>
<path d="M201.189 123.937C202.784 120.299 201.126 116.059 197.485 114.465C193.843 112.871 189.598 114.528 188.003 118.166C186.407 121.803 188.066 126.044 191.707 127.638C195.348 129.231 199.594 127.575 201.189 123.937Z" fill="#FB9100"/>
<path d="M166.737 249.248C166.737 249.248 166.449 252.401 166.329 253.226C166.21 254.052 163.651 253.913 163.342 253.475C163.034 253.037 163.163 249.328 163.163 249.328" fill="#FFCCB0"/>
<path d="M162.636 254.082C162.614 254.822 162.64 255.563 162.715 256.299L165.702 256.498L165.881 256.011C166.396 256.325 166.968 256.535 167.564 256.628L170.053 256.787C171.885 256.916 172.94 256.787 173.04 256.429C173.329 255.106 171.138 255.016 170.571 254.977C168.938 254.867 167.226 253.982 166.897 253.137C166.658 252.52 166.787 252.371 166.449 252.46C166.337 252.489 166.231 252.54 166.139 252.61C166.046 252.68 165.969 252.768 165.911 252.868C165.755 253.143 165.516 253.362 165.228 253.494C164.941 253.626 164.619 253.664 164.308 253.604C163.927 253.531 163.579 253.339 163.313 253.057C163.107 253.136 162.931 253.277 162.81 253.461C162.688 253.644 162.627 253.862 162.636 254.082Z" fill="#231F20"/>
<path d="M196.317 227.497C196.15 228.503 195.924 229.5 195.64 230.48C195.342 231.226 192.863 230.48 192.703 230.033C192.848 228.655 193.118 227.293 193.51 225.965" fill="#FFCCB0"/>
<path d="M191.837 230.619C191.618 231.435 191.339 232.986 191.339 232.986L193.808 234.081L194.217 233.703C194.596 234.154 195.059 234.529 195.581 234.807C196.348 235.125 197.15 235.352 197.97 235.483C200.131 235.732 201.724 235.334 201.853 235.035C202.401 233.792 199.533 233.434 198.966 233.285C198.313 233.11 197.719 232.765 197.244 232.284C196.77 231.803 196.433 231.204 196.268 230.55C196.148 229.893 196.268 229.774 195.939 229.794C195.822 229.797 195.707 229.824 195.6 229.874C195.494 229.924 195.399 229.995 195.322 230.082C195.105 230.321 194.819 230.488 194.504 230.559C194.188 230.63 193.859 230.603 193.56 230.48C193.2 230.332 192.897 230.075 192.693 229.744C192.478 229.786 192.281 229.892 192.128 230.048C191.975 230.204 191.874 230.404 191.837 230.619Z" fill="#231F20"/>
<path d="M161.062 166.399C162.159 166.791 163.299 167.052 164.458 167.175C165.449 167.294 166.446 167.347 167.444 167.334C169.103 167.351 170.747 167.012 172.263 166.339C173.231 165.809 174.079 165.086 174.755 164.215C175.432 163.345 175.922 162.344 176.196 161.277C175.768 161.277 173.538 161.277 171.307 161.197C168.918 161.108 166.528 160.899 166.449 160.421C166.882 159.56 167.216 158.652 167.444 157.716C169.117 151.798 168.669 142.36 168.211 138.033C166.319 138.431 163.233 139.127 162.426 140.53C160.993 143.086 160.326 147.611 159.878 152.465C159.33 158.93 159.38 165.703 161.062 166.399Z" fill="#FB9100"/>
<path d="M178.556 175.499L167.733 175.4C167.733 175.4 164.458 180.602 164.816 185.853C165.174 191.104 166.299 191.463 166.319 193.999C166.419 204.273 166.757 211.116 166.986 214.656C167.11 216.533 166.863 218.415 166.26 220.196C165.419 222.571 164.754 225.005 164.268 227.477C163.442 232.778 162.695 250.352 162.695 250.352C164.057 250.773 165.485 250.935 166.907 250.83C166.907 250.83 173.677 228.511 175.678 219.649L177.371 212.856C178.247 209.624 183.245 188.29 183.245 188.29L178.556 175.499Z" fill="#1B5A96"/>
<path d="M199.384 194.824C200.847 190.537 209.479 191.333 208.155 196.336C206.682 201.906 196.935 228.491 196.935 228.491C195.315 228.423 193.728 228.016 192.275 227.297C192.275 227.297 193.579 220.823 195.332 206.292C195.83 202.174 198.757 195.819 199.384 194.824Z" fill="#1B5A96"/>
<path d="M178.207 171.889C185.704 174.286 198.338 184.619 205.089 188.916C209.659 191.81 209.181 199.071 204.69 199.469C199.344 199.946 175.579 195.073 167.763 181.297" fill="#1B5A96"/>
<path d="M170.82 136.084C171.313 134.41 171.482 132.658 171.317 130.922C170.929 128.734 169.615 124.795 170.113 121.831C170.611 118.867 178.476 114.123 181.672 116.47C187.257 120.568 183.275 133.716 182.618 134.104C181.961 134.492 179.482 133.985 179.043 134.452C178.605 134.92 178.277 137.715 178.277 137.715" fill="#FFCCB0"/>
<path d="M169.396 138.401C169.401 137.703 169.586 137.018 169.933 136.412C171.258 135.01 178.446 136.83 178.794 137.068C179.143 137.307 179.481 138.759 179.481 138.759L169.396 138.401Z" fill="#FCB424"/>
<path d="M170.182 131.061C170.581 132.056 170.76 133.448 171.307 133.697C173.152 133.898 175.007 133.998 176.863 133.995C179.272 132.861 179.949 127.242 179.949 127.242C179.801 126.507 179.849 125.745 180.089 125.034C180.806 124.039 181.99 124.845 182.08 125.83C182.17 126.814 182.17 127.968 182.428 128.097C182.687 128.227 183.066 126.804 182.926 124.905C182.807 123.254 183.922 120.608 184.918 119.136C186.013 117.425 185.485 113.169 181.931 113.537C181.815 113.964 181.581 114.349 181.255 114.649C180.929 114.948 180.524 115.149 180.089 115.227C177.699 115.874 173.378 115.327 171.287 116.55C170.391 117.077 169.595 118.251 170.023 119.146C170.023 119.146 167.853 118.897 168.191 122.299C168.998 129.649 169.615 129.589 170.182 131.061Z" fill="black"/>
<path d="M186.361 176.364C185.844 176.553 185.366 176.852 184.858 177.011C183.576 177.26 182.257 177.26 180.975 177.011C179.641 176.892 178.297 176.772 176.993 176.673C170.023 176.374 167.634 178.045 166.499 176.354C166.235 175.926 166.15 175.413 166.26 174.922C166.1 169.196 165.574 163.485 164.687 157.825C163.91 152.693 162.437 147.929 162.317 145.691C161.869 137.665 170.033 137.735 170.033 137.735C181.981 136.979 186.491 140.43 187.138 145.582C187.138 145.94 187.218 146.338 187.247 146.746C187.546 152.057 186.043 163.027 185.256 169.432C185.037 171.252 187.387 175.986 186.361 176.364Z" fill="#FB9100"/>
<path d="M210.824 129.4C210.833 129.238 210.833 129.075 210.824 128.913C210.824 128.485 210.336 128.664 210.216 129.012C210.165 129.205 210.128 129.401 210.107 129.599C210.117 129.493 210.117 129.387 210.107 129.281C210.107 128.933 209.669 129.022 209.549 129.281C209.49 129.506 209.45 129.735 209.43 129.967C209.37 130.315 209.271 130.693 209.221 131.051C209.171 131.409 208.773 132.881 208.026 133.04C206.871 133.269 207.628 131.27 206.821 130.813C206.562 130.673 206.274 132.215 206.244 133.1C206.19 133.709 206.19 134.321 206.244 134.93C206.378 135.447 206.478 135.972 206.543 136.502C206.441 136.893 206.308 137.276 206.144 137.645L208.803 138.749C208.936 138.053 209.177 137.382 209.519 136.76C210.378 135.918 210.97 134.842 211.222 133.667C211.73 131.797 210.973 129.142 210.824 129.4Z" fill="#FFCCB0"/>
<path d="M209.111 138.043C209.111 138.043 208.315 142.658 207.528 146.348C206.859 149.326 205.905 152.234 204.681 155.03C204.681 155.03 202.689 159.496 201.773 159.924C197.283 161.993 186.222 152.206 184.061 150.306C179.223 151.599 175.618 137.764 175.618 137.764C178.681 137.804 181.736 138.073 184.758 138.57C188.432 139.356 198.627 150.883 199.115 150.913C199.434 150.316 199.722 149.719 200.818 147.641L206.274 137.188L208.553 137.854L209.111 138.043Z" fill="#FB9100"/>
<path d="M196.656 293L212.327 185.694H204.491L188.82 293H196.656Z" fill="#3B4772"/>
<path d="M198.01 293L213.681 185.694H205.845L190.174 293H198.01Z" fill="#222B54"/>
<path d="M172.452 180.104C172.18 181.139 172.049 182.206 172.064 183.277C172.051 184.333 172.223 185.383 172.572 186.38C172.911 187.361 173.454 188.259 174.165 189.016C174.88 189.769 175.727 190.386 176.664 190.836C178.575 191.83 180.547 192.705 182.498 193.591C184.45 194.476 186.481 195.331 188.472 196.177C186.388 195.591 184.338 194.894 182.329 194.088C180.338 193.292 178.346 192.407 176.355 191.462C175.335 190.975 174.427 190.281 173.688 189.425C172.949 188.569 172.396 187.569 172.064 186.489C171.493 184.376 171.629 182.133 172.452 180.104Z" fill="#256EA5"/>
<path d="M182.518 147.641C183.226 148.574 183.998 149.458 184.828 150.286C185.644 151.122 186.491 151.917 187.377 152.683C188.263 153.449 189.149 154.195 190.065 154.931L192.833 157.119C192.295 156.87 191.777 156.582 191.25 156.313C190.722 156.045 190.254 155.707 189.736 155.379C188.743 154.725 187.798 154 186.909 153.21C186.012 152.426 185.18 151.571 184.42 150.654C183.651 149.741 183.011 148.727 182.518 147.641Z" fill="#FCB424"/>
<path d="M162.924 149.411C163.461 151.104 163.909 152.824 164.268 154.563C164.657 156.304 164.955 158.054 165.264 159.815C165.573 161.575 165.732 163.335 165.861 165.106C165.991 166.876 166.09 168.656 166.08 170.437C165.802 168.676 165.583 166.926 165.324 165.165L164.567 159.914L163.751 154.663L162.924 149.411Z" fill="#FCB424"/>
<path d="M197.452 149.361C198.225 149.868 198.928 150.473 199.543 151.162C200.171 151.839 200.704 152.598 201.126 153.419C200.489 152.753 199.912 152.057 199.284 151.43C198.657 150.803 198.05 150.067 197.452 149.361Z" fill="#FCB424"/>
<path d="M324.245 216.387H280.278C278.777 216.387 277.56 217.602 277.56 219.102V290.285C277.56 291.784 278.777 293 280.278 293H324.245C325.746 293 326.963 291.784 326.963 290.285V219.102C326.963 217.602 325.746 216.387 324.245 216.387Z" fill="#222B54"/>
<path d="M321.069 220.276H283.444C281.943 220.276 280.726 221.492 280.726 222.991V279.136C280.726 280.635 281.943 281.851 283.444 281.851H321.069C322.57 281.851 323.787 280.635 323.787 279.136V222.991C323.787 221.492 322.57 220.276 321.069 220.276Z" fill="#FFF6EB"/>
<path d="M307.01 224.821V246.702C307.01 246.878 306.94 247.048 306.815 247.173C306.69 247.298 306.52 247.368 306.343 247.368H284.659C284.571 247.368 284.484 247.351 284.403 247.317C284.323 247.284 284.249 247.235 284.187 247.173C284.125 247.111 284.076 247.037 284.043 246.957C284.009 246.876 283.992 246.789 283.992 246.702V224.821C283.994 224.645 284.065 224.477 284.19 224.352C284.314 224.228 284.483 224.157 284.659 224.154H306.343C306.519 224.157 306.688 224.228 306.812 224.352C306.937 224.477 307.008 224.645 307.01 224.821Z" stroke="#231F20" stroke-width="0.5" stroke-miterlimit="10"/>
<path d="M307.01 242.614V246.722C307.01 246.898 306.94 247.068 306.815 247.193C306.69 247.318 306.52 247.388 306.343 247.388H295.591L296.049 242.614L301.106 237.024L307.01 242.614Z" fill="#1B5A96"/>
<path d="M304.004 247.388H284.659C284.571 247.388 284.484 247.371 284.403 247.337C284.323 247.304 284.249 247.255 284.187 247.193C284.125 247.131 284.076 247.057 284.043 246.977C284.009 246.896 283.992 246.809 283.992 246.722V242.614L291.568 234.657L304.004 247.388Z" fill="#1B5A96"/>
<path d="M301.305 233.106C302.779 233.106 303.974 231.913 303.974 230.44C303.974 228.968 302.779 227.775 301.305 227.775C299.832 227.775 298.637 228.968 298.637 230.44C298.637 231.913 299.832 233.106 301.305 233.106Z" fill="#FB9100"/>
<path d="M320.312 250.72V272.601C320.312 272.969 319.844 273.267 319.267 273.267H285.216C284.649 273.267 284.221 272.969 284.221 272.601V250.72C284.221 250.362 284.689 250.054 285.216 250.054H319.267C319.844 250.054 320.312 250.362 320.312 250.72Z" stroke="#231F20" stroke-width="0.5" stroke-miterlimit="10"/>
<path d="M302.251 255.315C300.991 255.315 299.758 255.689 298.71 256.388C297.662 257.088 296.845 258.083 296.363 259.247C295.882 260.41 295.756 261.691 296.003 262.926C296.249 264.161 296.857 265.295 297.749 266.185C298.641 267.075 299.778 267.68 301.014 267.925C302.251 268.169 303.533 268.042 304.697 267.558C305.861 267.075 306.855 266.258 307.554 265.209C308.253 264.161 308.625 262.93 308.623 261.67C308.623 260.835 308.458 260.008 308.138 259.236C307.818 258.464 307.348 257.763 306.756 257.173C306.165 256.583 305.462 256.115 304.689 255.796C303.916 255.477 303.088 255.314 302.251 255.315ZM300.519 265.37V257.98L305.636 261.67L300.519 265.37Z" fill="#FB9100"/>
<path d="M320.312 224.154H308.623V225.885H320.312V224.154Z" fill="#FB9100"/>
<path d="M320.322 274.978H284.201V276.709H320.322V274.978Z" fill="#1B5A96"/>
<path d="M314.716 278.201H284.201V279.931H314.716V278.201Z" fill="#1B5A96"/>
<path d="M320.312 227.228H308.623V228.959H320.312V227.228Z" fill="#FB9100"/>
<path d="M320.312 230.301H308.623V232.032H320.312V230.301Z" fill="#FB9100"/>
<path d="M320.312 233.375H308.623V235.105H320.312V233.375Z" fill="#FB9100"/>
<path d="M320.312 236.448H308.623V238.178H320.312V236.448Z" fill="#FB9100"/>
<path d="M320.312 239.511H308.623V241.242H320.312V239.511Z" fill="#FB9100"/>
<path d="M320.312 242.584H308.623V244.315H320.312V242.584Z" fill="#FB9100"/>
<path d="M316.608 245.658H308.623V247.388H316.608V245.658Z" fill="#FB9100"/>
<path d="M305.636 287.47C305.638 288.082 305.458 288.681 305.119 289.191C304.78 289.701 304.297 290.099 303.732 290.335C303.166 290.57 302.543 290.633 301.942 290.515C301.341 290.397 300.788 290.103 300.354 289.671C299.92 289.238 299.624 288.687 299.504 288.087C299.384 287.487 299.444 286.864 299.678 286.298C299.912 285.733 300.309 285.249 300.819 284.909C301.328 284.568 301.927 284.387 302.54 284.387C303.359 284.387 304.146 284.711 304.726 285.289C305.306 285.867 305.634 286.651 305.636 287.47Z" fill="#FFF6EB"/>
<path d="M158.982 57.5312H148.368C146.718 57.5312 145.135 58.1862 143.968 59.3519C142.801 60.5177 142.146 62.0988 142.146 63.7474V74.3597C142.146 76.0083 142.801 77.5894 143.968 78.7552C145.135 79.9209 146.718 80.5759 148.368 80.5759H158.982C160.632 80.5759 162.215 79.9209 163.382 78.7552C164.549 77.5894 165.204 76.0083 165.204 74.3597V63.7474C165.204 62.0988 164.549 60.5177 163.382 59.3519C162.215 58.1862 160.632 57.5312 158.982 57.5312ZM161.759 74.7078L159.499 72.4501L157.578 72.9573L157.08 74.8769L159.33 77.1843C158.71 77.3682 158.053 77.3822 157.426 77.2249C156.799 77.0676 156.226 76.7447 155.767 76.2902C155.308 75.8356 154.979 75.266 154.816 74.6412C154.653 74.0163 154.661 73.3591 154.84 72.7385L150.041 67.9446C149.419 68.1239 148.76 68.1323 148.133 67.9691C147.506 67.8058 146.935 67.4769 146.48 67.0169C146.024 66.5568 145.701 65.9827 145.545 65.3549C145.388 64.727 145.404 64.0687 145.591 63.4491L147.821 65.657L149.812 65.1498L150.32 63.2302L148.06 60.9725C148.681 60.7889 149.34 60.7754 149.968 60.9333C150.596 61.0912 151.17 61.4148 151.63 61.8702C152.09 62.3256 152.419 62.8961 152.582 63.522C152.746 64.148 152.738 64.8063 152.56 65.4283L157.309 70.2222C157.93 70.0438 158.588 70.0357 159.214 70.1986C159.839 70.3615 160.409 70.6894 160.864 71.148C161.319 71.6067 161.643 72.1791 161.8 72.8054C161.958 73.4317 161.944 74.0888 161.759 74.7078Z" fill="#FB9100"/>
<path d="M134.878 186.112C134.868 185.991 134.838 185.874 134.788 185.764C134.758 185.694 134.721 185.628 134.678 185.565C134.64 185.496 134.589 185.436 134.529 185.386L134.45 185.306C134.428 185.275 134.401 185.248 134.37 185.226L134.25 185.147C134.159 185.089 134.058 185.048 133.952 185.028H133.842C133.704 185.008 133.563 185.008 133.424 185.028H133.105C132.871 185.001 132.645 184.919 132.448 184.789L132.359 184.709L132.269 184.62C132.221 184.574 132.18 184.52 132.15 184.461C132.111 184.411 132.077 184.358 132.05 184.301V184.202C132.048 184.176 132.048 184.149 132.05 184.122C131.968 183.881 131.872 183.646 131.761 183.416C131.741 183.378 131.724 183.338 131.712 183.297C131.652 183.124 131.632 182.941 131.652 182.76C131.674 182.615 131.717 182.474 131.781 182.342C131.842 182.204 131.934 182.081 132.05 181.984L132.17 181.875L132.279 181.785C132.373 181.689 132.457 181.582 132.528 181.467L132.608 181.288C132.611 181.228 132.611 181.168 132.608 181.109C132.648 180.925 132.648 180.734 132.607 180.55C132.566 180.366 132.484 180.194 132.369 180.045C131.833 179.377 131.225 178.77 130.557 178.235C130.404 178.115 130.226 178.032 130.036 177.991C129.847 177.949 129.65 177.951 129.461 177.996H129.322C129.137 178.063 128.97 178.172 128.834 178.314L128.735 178.433C128.589 178.636 128.383 178.789 128.147 178.871C128.066 178.909 127.978 178.933 127.888 178.941H127.52H127.321L127.191 178.891L127.032 178.821L126.793 178.712L126.385 178.553C126.13 178.455 125.913 178.277 125.768 178.045C125.622 177.814 125.556 177.542 125.579 177.27V177.17C125.621 176.851 125.543 176.526 125.359 176.261C125.175 175.996 124.898 175.81 124.583 175.738H124.434C123.583 175.645 122.725 175.645 121.875 175.738C121.542 175.773 121.238 175.938 121.027 176.197C120.816 176.456 120.716 176.788 120.75 177.121V177.22C120.755 177.283 120.755 177.346 120.75 177.409C120.751 177.65 120.683 177.887 120.554 178.091C120.425 178.295 120.241 178.459 120.023 178.563H119.923C119.784 178.563 119.655 178.662 119.525 178.712L119.207 178.851H119.137C118.869 178.974 118.567 179.001 118.282 178.926C117.997 178.852 117.747 178.681 117.574 178.443C117.379 178.184 117.094 178.008 116.775 177.949C116.456 177.89 116.126 177.953 115.851 178.125L115.732 178.205C115.385 178.469 115.053 178.751 114.736 179.05C114.436 179.348 114.153 179.664 113.89 179.995C113.762 180.159 113.675 180.351 113.637 180.555C113.599 180.759 113.61 180.97 113.671 181.169C113.702 181.289 113.752 181.403 113.82 181.507C113.878 181.587 113.941 181.664 114.009 181.735L114.139 181.835C114.377 182.008 114.548 182.258 114.622 182.543C114.697 182.827 114.67 183.129 114.547 183.396C114.438 183.645 114.328 183.914 114.228 184.172C114.172 184.331 114.084 184.476 113.97 184.6C113.906 184.67 113.832 184.73 113.751 184.779C113.673 184.835 113.59 184.882 113.502 184.918L113.312 184.978C113.155 185.008 112.993 185.008 112.835 184.978H112.645H112.406C112.133 185.027 111.883 185.163 111.693 185.366C111.503 185.568 111.383 185.826 111.351 186.102C111.3 186.521 111.273 186.943 111.271 187.365C111.273 187.787 111.299 188.209 111.351 188.628C111.378 188.905 111.496 189.166 111.687 189.369C111.878 189.573 112.131 189.707 112.406 189.752C112.548 189.777 112.693 189.777 112.835 189.752H113.024C113.282 189.752 113.535 189.828 113.751 189.971L113.91 190.09C114.053 190.225 114.162 190.392 114.228 190.577C114.328 190.846 114.438 191.104 114.547 191.363C114.66 191.606 114.693 191.878 114.642 192.141C114.59 192.404 114.455 192.643 114.258 192.825C114.223 192.864 114.183 192.897 114.139 192.925L114.009 193.024C113.939 193.094 113.875 193.17 113.82 193.253C113.75 193.355 113.699 193.47 113.671 193.591C113.667 193.627 113.667 193.664 113.671 193.7C113.666 193.74 113.666 193.78 113.671 193.82C113.666 193.863 113.666 193.906 113.671 193.949C113.666 194.009 113.666 194.068 113.671 194.128C113.671 194.188 113.671 194.237 113.671 194.297V194.357C113.683 194.4 113.703 194.441 113.731 194.476L113.82 194.625C114.079 194.944 114.368 195.262 114.667 195.57C114.984 195.866 115.316 196.145 115.662 196.406C115.919 196.616 116.248 196.716 116.578 196.684C116.691 196.673 116.801 196.646 116.907 196.605C117.146 196.518 117.356 196.367 117.514 196.167L117.614 196.048C117.751 195.901 117.922 195.788 118.111 195.719L118.549 195.64C118.731 195.642 118.91 195.679 119.077 195.749C119.329 195.875 119.588 195.985 119.854 196.077C120.106 196.166 120.322 196.333 120.471 196.555C120.526 196.631 120.569 196.715 120.6 196.803C120.682 197.016 120.709 197.245 120.68 197.47C120.629 197.793 120.704 198.123 120.889 198.393C121.074 198.663 121.356 198.852 121.676 198.922H121.795C122.218 198.97 122.644 198.993 123.07 198.992C123.489 198.993 123.908 198.97 124.324 198.922C124.623 198.888 124.902 198.751 125.111 198.534C125.191 198.45 125.261 198.356 125.32 198.256C125.32 198.256 125.369 198.156 125.389 198.096C125.473 197.888 125.497 197.661 125.459 197.44C125.454 197.377 125.454 197.314 125.459 197.251C125.458 196.99 125.537 196.736 125.684 196.521C125.832 196.306 126.042 196.141 126.285 196.048C126.553 195.956 126.816 195.85 127.072 195.729C127.245 195.65 127.434 195.61 127.625 195.61C127.815 195.61 128.004 195.65 128.177 195.729C128.264 195.78 128.347 195.836 128.426 195.898L128.536 196.008C128.574 196.039 128.607 196.076 128.635 196.117C128.829 196.378 129.113 196.556 129.432 196.617C129.751 196.678 130.082 196.617 130.358 196.445L130.477 196.366C130.806 196.097 131.114 195.819 131.423 195.52C131.731 195.222 132.01 194.894 132.269 194.576C132.4 194.411 132.488 194.217 132.526 194.011C132.564 193.805 132.551 193.592 132.488 193.392L132.428 193.223L132.339 193.064C132.284 192.981 132.22 192.905 132.15 192.835L132.02 192.736C131.976 192.708 131.936 192.675 131.901 192.636C131.704 192.455 131.569 192.215 131.518 191.952C131.466 191.689 131.499 191.417 131.612 191.174C131.733 190.918 131.839 190.656 131.931 190.388C132.034 190.114 132.229 189.883 132.483 189.734C132.737 189.586 133.034 189.529 133.324 189.573C133.627 189.62 133.937 189.56 134.201 189.404L134.38 189.264L134.459 189.185L134.529 189.105C134.685 188.915 134.782 188.683 134.808 188.439C134.86 188.02 134.886 187.598 134.888 187.176C134.902 186.821 134.899 186.466 134.878 186.112ZM129.372 188.021V188.081C129.372 188.18 129.372 188.29 129.372 188.389C129.354 188.497 129.331 188.603 129.302 188.708C129.256 188.916 129.2 189.122 129.133 189.324C129.133 189.444 129.053 189.563 129.003 189.682C128.954 189.802 128.914 189.891 128.864 189.991C128.832 190.069 128.795 190.145 128.755 190.219C128.652 190.423 128.535 190.619 128.406 190.806L128.307 190.955C128.296 190.982 128.279 191.006 128.257 191.025L128.127 191.194C128.08 191.265 128.026 191.331 127.968 191.393C127.857 191.533 127.737 191.665 127.61 191.791L127.44 191.95L127.271 192.099L127.012 192.308C126.801 192.468 126.582 192.618 126.355 192.755L126.146 192.875L125.887 193.004L125.648 193.123L125.24 193.273L125.001 193.352L124.483 193.482L124.224 193.531H123.966C123.525 193.571 123.082 193.571 122.641 193.531H122.383H122.124L121.855 193.482C121.557 193.418 121.264 193.332 120.979 193.223C120.899 193.204 120.822 193.173 120.75 193.133L120.501 193.024L120.242 192.885C120.067 192.792 119.898 192.689 119.734 192.576L119.505 192.407L119.296 192.248L119.017 192C118.926 191.922 118.84 191.839 118.759 191.751C118.681 191.682 118.611 191.605 118.549 191.522C118.304 191.247 118.085 190.951 117.892 190.637C117.892 190.548 117.783 190.468 117.743 190.378C117.684 190.279 117.631 190.176 117.584 190.07C117.561 190.012 117.535 189.955 117.504 189.901C117.492 189.86 117.475 189.82 117.454 189.782L117.395 189.632C117.395 189.563 117.395 189.493 117.325 189.424V189.344L117.255 189.095C117.255 188.966 117.185 188.837 117.156 188.708C117.126 188.578 117.156 188.548 117.156 188.479L117.096 188.031C117.096 187.822 117.096 187.604 117.096 187.385C117.096 187.173 117.096 186.964 117.096 186.758C117.091 186.739 117.091 186.718 117.096 186.698C117.09 186.596 117.09 186.493 117.096 186.39C117.096 186.281 117.096 186.171 117.156 186.062C117.156 185.853 117.265 185.644 117.325 185.445L117.414 185.187C117.414 185.127 117.414 185.057 117.494 184.998L117.554 184.868C117.554 184.809 117.554 184.759 117.624 184.699C117.7 184.538 117.786 184.382 117.882 184.232C117.882 184.162 117.972 184.093 118.012 184.013L118.161 183.804C118.221 183.715 118.291 183.635 118.36 183.546L118.569 183.287L118.798 183.048C119.186 182.663 119.621 182.329 120.093 182.054L120.322 181.924C120.397 181.877 120.477 181.837 120.561 181.805L120.79 181.696C120.935 181.629 121.085 181.573 121.238 181.527L121.447 181.457L121.706 181.387C121.789 181.358 121.876 181.338 121.964 181.328C122.05 181.318 122.137 181.318 122.223 181.328C122.309 181.318 122.396 181.318 122.482 181.328H122.751C123.102 181.298 123.455 181.298 123.806 181.328H124.065C124.151 181.318 124.238 181.318 124.324 181.328C124.413 181.318 124.504 181.318 124.593 181.328C124.809 181.37 125.022 181.426 125.23 181.497L125.409 181.556C125.706 181.659 125.993 181.789 126.266 181.944C126.355 181.988 126.442 182.038 126.524 182.093L126.773 182.253L127.012 182.422L127.251 182.601L127.46 182.79C127.63 182.939 127.769 183.088 127.908 183.237L128.068 183.426C128.16 183.531 128.246 183.64 128.326 183.754L128.446 183.924C128.582 184.115 128.702 184.318 128.804 184.53C128.854 184.61 128.894 184.699 128.934 184.779C128.974 184.858 128.934 184.779 128.934 184.829C128.934 184.878 129.013 185.008 129.043 185.097C129.043 185.177 129.103 185.246 129.133 185.336V185.465C129.203 185.674 129.252 185.873 129.302 186.082V186.271C129.335 186.428 129.358 186.588 129.372 186.748C129.387 186.96 129.387 187.173 129.372 187.385C129.386 187.597 129.386 187.809 129.372 188.021Z" fill="#1B5A96"/>
<path d="M133.364 170.934H112.905C109.468 170.934 106.682 173.717 106.682 177.15V197.589C106.682 201.022 109.468 203.805 112.905 203.805H133.364C136.801 203.805 139.587 201.022 139.587 197.589V177.15C139.587 173.717 136.801 170.934 133.364 170.934Z" stroke="#231F20" stroke-width="0.5" stroke-miterlimit="10"/>
<path d="M466.529 180.482H446.069C442.632 180.482 439.846 183.265 439.846 186.698V207.137C439.846 210.57 442.632 213.353 446.069 213.353H466.529C469.965 213.353 472.751 210.57 472.751 207.137V186.698C472.751 183.265 469.965 180.482 466.529 180.482Z" stroke="#231F20" stroke-width="0.5" stroke-miterlimit="10"/>
<path d="M467.255 206.481H445.352C445.084 206.482 444.821 206.409 444.591 206.272C444.361 206.134 444.172 205.937 444.046 205.701C443.92 205.464 443.861 205.198 443.876 204.931C443.89 204.663 443.977 204.405 444.127 204.183L455.079 187.961C455.215 187.762 455.398 187.6 455.611 187.487C455.825 187.375 456.062 187.316 456.303 187.316C456.545 187.316 456.782 187.375 456.996 187.487C457.209 187.6 457.392 187.762 457.528 187.961L468.48 204.183C468.63 204.405 468.717 204.663 468.731 204.931C468.746 205.198 468.687 205.464 468.561 205.701C468.435 205.937 468.246 206.134 468.016 206.272C467.786 206.409 467.523 206.482 467.255 206.481Z" stroke="#FB9100" stroke-width="1.41" stroke-miterlimit="10"/>
<path d="M456.562 201.756H456.015C455.834 201.754 455.661 201.682 455.532 201.557C455.402 201.431 455.326 201.26 455.318 201.08L454.94 191.8C454.936 191.706 454.951 191.612 454.984 191.523C455.017 191.435 455.067 191.354 455.132 191.285C455.197 191.217 455.275 191.162 455.362 191.124C455.449 191.086 455.542 191.066 455.637 191.064H456.951C457.045 191.066 457.139 191.086 457.225 191.124C457.312 191.162 457.39 191.217 457.455 191.285C457.52 191.354 457.57 191.435 457.604 191.523C457.637 191.612 457.652 191.706 457.648 191.8L457.269 201.08C457.262 201.262 457.184 201.434 457.052 201.56C456.92 201.686 456.745 201.756 456.562 201.756Z" fill="#FB9100"/>
<path d="M456.284 204.551C456.8 204.551 457.219 204.132 457.219 203.616C457.219 203.1 456.8 202.681 456.284 202.681C455.767 202.681 455.348 203.1 455.348 203.616C455.348 204.132 455.767 204.551 456.284 204.551Z" fill="#FB9100"/>
<path d="M266.409 34.1382H255.786C252.349 34.1382 249.563 36.9213 249.563 40.3544V50.9666C249.563 54.3997 252.349 57.1828 255.786 57.1828H266.409C269.846 57.1828 272.632 54.3997 272.632 50.9666V40.3544C272.632 36.9213 269.846 34.1382 266.409 34.1382Z" fill="#1B5A96"/>
<path d="M263.253 50.6684C263.255 51.0961 263.13 51.5147 262.893 51.8711C262.656 52.2276 262.319 52.5058 261.924 52.6703C261.529 52.8349 261.093 52.8785 260.673 52.7955C260.253 52.7126 259.867 52.5068 259.565 52.2044C259.262 51.902 259.056 51.5165 258.973 51.0969C258.89 50.6773 258.933 50.2425 259.098 49.8478C259.263 49.453 259.541 49.116 259.898 48.8796C260.255 48.6432 260.674 48.5181 261.102 48.52C261.672 48.5227 262.217 48.7498 262.62 49.1522C263.023 49.5545 263.25 50.0994 263.253 50.6684Z" fill="#FFF6EB"/>
<path d="M261.092 43.3682C260.109 43.3674 259.135 43.5653 258.23 43.9498C257.325 44.3344 256.507 44.8977 255.826 45.606L257.339 46.9985C257.83 46.4861 258.419 46.0783 259.072 45.7997C259.725 45.5211 260.427 45.3775 261.137 45.3775C261.847 45.3775 262.55 45.5211 263.202 45.7997C263.855 46.0783 264.445 46.4861 264.936 46.9985L266.409 45.5762C265.719 44.8668 264.892 44.3051 263.978 43.9255C263.064 43.5459 262.082 43.3562 261.092 43.3682Z" fill="#FFF6EB"/>
<path d="M261.092 38.5045C259.462 38.5059 257.849 38.8351 256.349 39.4724C254.849 40.1098 253.493 41.0422 252.361 42.2143L253.834 43.6365C254.778 42.6586 255.909 41.8808 257.161 41.3495C258.412 40.8182 259.758 40.5444 261.117 40.5444C262.477 40.5444 263.823 40.8182 265.074 41.3495C266.325 41.8808 267.457 42.6586 268.4 43.6365L269.864 42.2143C268.728 41.036 267.366 40.0999 265.858 39.4622C264.351 38.8246 262.73 38.4988 261.092 38.5045Z" fill="#FFF6EB"/>
</g>
<defs>
<clipPath id="clip0_134_1088">
<rect width="375" height="261" fill="white" transform="translate(98 32)"/>
</clipPath>
</defs>
</svg>
