<svg width="570" height="324" viewBox="0 0 570 324" fill="none" xmlns="http://www.w3.org/2000/svg">
<g clip-path="url(#clip0_118_275)">
<rect width="570" height="324" fill="#FFF6EB"/>
<path d="M486.065 292.996H83.7149C83.517 292.979 83.3354 292.92 83.2039 292.829C83.0725 292.738 83 292.621 83 292.5C83 292.379 83.0725 292.262 83.2039 292.171C83.3354 292.08 83.517 292.021 83.7149 292.004H486.065C486.182 291.995 486.3 292.001 486.413 292.021C486.526 292.042 486.63 292.077 486.718 292.124C486.807 292.171 486.878 292.228 486.926 292.293C486.975 292.358 487 292.429 487 292.5C487 292.571 486.975 292.642 486.926 292.707C486.878 292.772 486.807 292.829 486.718 292.876C486.63 292.923 486.526 292.958 486.413 292.979C486.3 292.999 486.182 293.005 486.065 292.996Z" fill="#1E1E1E"/>
<g clip-path="url(#clip1_118_275)">
<path d="M400.34 168.08H270.46C267.808 168.08 265.264 167.026 263.389 165.151C261.514 163.275 260.46 160.732 260.46 158.08V43.3698C260.46 43.208 260.524 43.0528 260.639 42.9384C260.753 42.824 260.908 42.7598 261.07 42.7598H409.77C409.93 42.7624 410.083 42.8278 410.195 42.9419C410.307 43.056 410.37 43.2097 410.37 43.3698V158.05C410.374 159.368 410.117 160.674 409.615 161.893C409.112 163.111 408.373 164.219 407.441 165.151C406.509 166.083 405.402 166.822 404.183 167.324C402.964 167.827 401.658 168.084 400.34 168.08ZM261.65 43.9798V158.05C261.653 160.386 262.582 162.625 264.233 164.276C265.885 165.928 268.124 166.857 270.46 166.86H400.34C402.677 166.857 404.917 165.928 406.57 164.277C408.223 162.626 409.155 160.386 409.16 158.05V43.9798H261.65Z" fill="#06000C"/>
<path d="M409.77 45.5801V40.9501C409.774 39.5897 409.51 38.2419 408.992 36.9839C408.474 35.7259 407.713 34.5825 406.752 33.6192C405.792 32.6559 404.65 31.8915 403.394 31.37C402.138 30.8485 400.79 30.5801 399.43 30.5801H271.43C268.688 30.5801 266.058 31.6695 264.119 33.6086C262.179 35.5477 261.09 38.1777 261.09 40.9201V45.5801H409.77Z" fill="#FB9100"/>
<path d="M409.77 46.14H261.04C260.96 46.1413 260.881 46.1268 260.807 46.0972C260.733 46.0677 260.666 46.0237 260.609 45.9678C260.552 45.912 260.507 45.8454 260.477 45.7719C260.446 45.6985 260.43 45.6196 260.43 45.54V40.95C260.443 38.0499 261.601 35.2724 263.652 33.2217C265.702 31.171 268.48 30.0132 271.38 30H399.43C402.328 30.0158 405.103 31.1748 407.152 33.2252C409.2 35.2756 410.357 38.0517 410.37 40.95V45.58C410.36 45.7321 410.292 45.8746 410.181 45.9786C410.069 46.0826 409.922 46.1403 409.77 46.14ZM261.65 44.93H409.16V40.93C409.157 38.3503 408.131 35.8769 406.307 34.0528C404.483 32.2286 402.01 31.2026 399.43 31.2H271.43C268.849 31.2 266.375 32.2251 264.55 34.0499C262.725 35.8746 261.7 38.3494 261.7 40.93L261.65 44.93Z" fill="#06000C"/>
<path d="M269.41 39.1601C269.402 39.6799 269.549 40.1903 269.832 40.6264C270.115 41.0625 270.521 41.4045 270.999 41.609C271.477 41.8134 272.005 41.871 272.516 41.7745C273.027 41.678 273.498 41.4317 273.868 41.0669C274.238 40.7021 274.492 40.2354 274.596 39.7261C274.701 39.2168 274.651 38.688 274.454 38.2069C274.257 37.7258 273.921 37.3143 273.49 37.0246C273.058 36.7349 272.55 36.5801 272.03 36.5801C271.342 36.58 270.682 36.8505 270.191 37.3333C269.701 37.816 269.42 38.4722 269.41 39.1601Z" fill="#FFF6EB"/>
<path d="M277.19 39.1601C277.182 39.6799 277.329 40.1903 277.612 40.6264C277.895 41.0625 278.301 41.4045 278.779 41.609C279.257 41.8134 279.785 41.871 280.296 41.7745C280.807 41.678 281.278 41.4317 281.648 41.0669C282.018 40.7021 282.272 40.2354 282.376 39.7261C282.481 39.2168 282.431 38.688 282.234 38.2069C282.037 37.7258 281.701 37.3143 281.27 37.0246C280.838 36.7349 280.33 36.5801 279.81 36.5801C279.122 36.58 278.462 36.8505 277.971 37.3333C277.481 37.816 277.201 38.4722 277.19 39.1601Z" fill="#FFF6EB"/>
<path d="M284.93 39.1599C284.922 39.678 285.068 40.1868 285.349 40.622C285.631 41.0571 286.035 41.3991 286.51 41.6046C286.986 41.8102 287.512 41.8701 288.022 41.7767C288.531 41.6834 289.002 41.441 289.374 41.0803C289.746 40.7195 290.002 40.2566 290.111 39.75C290.22 39.2434 290.176 38.7159 289.985 38.2342C289.794 37.7525 289.465 37.3382 289.039 37.0437C288.612 36.7493 288.108 36.5879 287.59 36.5799C287.246 36.5746 286.904 36.6371 286.584 36.7639C286.264 36.8907 285.973 37.0793 285.726 37.3189C285.479 37.5585 285.281 37.8444 285.145 38.1603C285.008 38.4761 284.935 38.8158 284.93 39.1599Z" fill="#FFF6EB"/>
<path d="M260.32 208.58L287.69 241.25L349.84 201.8L368.7 235.37L290.26 289.48C286.618 291.992 282.156 293.025 277.78 292.367C273.405 291.71 269.443 289.412 266.7 285.94L224.09 231.94" fill="#FFCFC5"/>
<path d="M280.4 293.16C277.674 293.167 274.983 292.555 272.528 291.37C270.073 290.185 267.92 288.458 266.23 286.32L223.61 232.32C223.512 232.193 223.467 232.033 223.486 231.874C223.505 231.715 223.585 231.57 223.71 231.47C223.773 231.42 223.845 231.382 223.922 231.36C224 231.338 224.081 231.331 224.161 231.341C224.241 231.35 224.318 231.375 224.388 231.414C224.458 231.454 224.52 231.507 224.57 231.57L267.18 285.57C269.833 288.917 273.658 291.132 277.882 291.765C282.106 292.398 286.412 291.402 289.93 288.98L367.93 235.21L349.63 202.68L288.01 241.79C287.885 241.866 287.738 241.896 287.593 241.874C287.448 241.852 287.316 241.78 287.22 241.67L259.85 209C259.749 208.874 259.701 208.714 259.716 208.554C259.731 208.393 259.807 208.245 259.93 208.14C259.991 208.089 260.061 208.05 260.137 208.027C260.213 208.003 260.293 207.995 260.372 208.002C260.451 208.01 260.528 208.033 260.598 208.07C260.668 208.107 260.73 208.158 260.78 208.22L287.78 240.48L349.49 201.31C349.559 201.267 349.637 201.238 349.718 201.226C349.799 201.214 349.881 201.219 349.96 201.24C350.04 201.259 350.115 201.295 350.181 201.345C350.246 201.395 350.3 201.458 350.34 201.53L369.2 235.1C369.277 235.231 369.301 235.387 369.268 235.535C369.235 235.684 369.146 235.814 369.02 235.9L290.6 289.98C287.603 292.053 284.044 293.162 280.4 293.16Z" fill="#06000C"/>
<path d="M211.03 185.41L241.33 191.71C245.702 192.625 249.78 194.607 253.2 197.48L277.93 222.88L239.53 251.49L211.07 225.49" fill="#FB9100"/>
<path d="M239.49 252.09C239.338 252.09 239.192 252.033 239.08 251.93L210.62 225.93C210.509 225.815 210.447 225.661 210.447 225.5C210.447 225.34 210.509 225.186 210.62 225.07C210.734 224.957 210.889 224.893 211.05 224.893C211.211 224.893 211.366 224.957 211.48 225.07L239.57 250.75L276.93 222.81L252.72 197.91C252.606 197.796 252.543 197.641 252.543 197.48C252.543 197.319 252.606 197.164 252.72 197.05C252.776 196.993 252.843 196.947 252.917 196.916C252.99 196.885 253.07 196.869 253.15 196.869C253.23 196.869 253.309 196.885 253.383 196.916C253.457 196.947 253.524 196.993 253.58 197.05L278.27 222.45C278.33 222.512 278.376 222.586 278.405 222.667C278.435 222.748 278.446 222.834 278.44 222.92C278.429 223.006 278.402 223.09 278.359 223.165C278.316 223.241 278.258 223.307 278.19 223.36L239.8 251.96C239.71 252.031 239.603 252.076 239.49 252.09Z" fill="#06000C"/>
<path d="M140.93 291.91C140.36 268.68 137.93 229.05 137.41 207.64C137.303 203.215 138.767 198.894 141.542 195.446C144.317 191.997 148.224 189.642 152.57 188.8C152.57 188.8 183.22 182.73 193.19 182.66C201.32 182.61 225.19 188.44 225.19 188.44C229.285 189.19 233.013 191.281 235.787 194.385C238.561 197.488 240.223 201.427 240.51 205.58L246.51 291.91H140.93Z" fill="#FB9100"/>
<path d="M244.93 270.13C244.776 270.128 244.627 270.069 244.515 269.963C244.402 269.858 244.332 269.714 244.32 269.56L240.2 209.96C240.207 209.81 240.268 209.668 240.373 209.56C240.478 209.453 240.619 209.388 240.769 209.378C240.919 209.368 241.067 209.414 241.186 209.507C241.304 209.599 241.384 209.732 241.41 209.88L245.54 269.48C245.548 269.641 245.493 269.8 245.387 269.921C245.28 270.042 245.131 270.117 244.97 270.13H244.93Z" fill="#06000C"/>
<g opacity="0.4">
<path d="M190.41 245.73C190.273 247.575 189.449 249.302 188.101 250.57C186.754 251.838 184.98 252.555 183.13 252.58C182.252 252.591 181.382 252.419 180.575 252.074C179.768 251.729 179.042 251.219 178.444 250.577C177.846 249.934 177.389 249.174 177.102 248.344C176.816 247.515 176.706 246.634 176.78 245.76C176.929 243.923 177.758 242.207 179.104 240.948C180.45 239.688 182.217 238.976 184.06 238.95C184.934 238.937 185.802 239.108 186.607 239.45C187.411 239.792 188.136 240.298 188.734 240.936C189.331 241.575 189.789 242.331 190.078 243.156C190.367 243.982 190.48 244.858 190.41 245.73Z" fill="white"/>
</g>
<g opacity="0.4">
<path d="M221.99 208.58C221.939 209.267 222.031 209.957 222.259 210.607C222.487 211.257 222.847 211.853 223.317 212.357C223.786 212.861 224.355 213.263 224.987 213.537C225.619 213.811 226.301 213.952 226.99 213.95C228.444 213.932 229.839 213.371 230.901 212.378C231.963 211.384 232.615 210.03 232.73 208.58C232.781 207.893 232.689 207.203 232.461 206.553C232.233 205.903 231.873 205.307 231.403 204.803C230.934 204.299 230.365 203.897 229.733 203.623C229.101 203.349 228.419 203.208 227.73 203.21C226.276 203.228 224.881 203.789 223.819 204.782C222.757 205.776 222.105 207.13 221.99 208.58Z" fill="white"/>
</g>
<g opacity="0.4">
<path d="M182.02 215.44C181.984 215.955 182.055 216.472 182.229 216.958C182.403 217.445 182.675 217.89 183.029 218.265C183.383 218.641 183.812 218.94 184.287 219.142C184.762 219.344 185.274 219.445 185.79 219.44C186.878 219.425 187.922 219.008 188.722 218.27C189.521 217.531 190.019 216.524 190.12 215.44C190.163 214.92 190.097 214.397 189.926 213.904C189.755 213.411 189.483 212.959 189.127 212.578C188.771 212.196 188.339 211.894 187.859 211.689C187.379 211.485 186.862 211.383 186.34 211.39C185.245 211.406 184.196 211.831 183.397 212.58C182.598 213.329 182.107 214.348 182.02 215.44Z" fill="white"/>
</g>
<g opacity="0.4">
<path d="M197.66 224.76C197.615 225.273 197.678 225.789 197.846 226.276C198.013 226.763 198.281 227.21 198.631 227.587C198.982 227.964 199.408 228.263 199.881 228.465C200.355 228.667 200.865 228.768 201.38 228.76C202.462 228.746 203.5 228.328 204.29 227.588C205.08 226.848 205.565 225.839 205.65 224.76C205.693 224.247 205.629 223.732 205.461 223.245C205.293 222.759 205.025 222.313 204.675 221.937C204.325 221.56 203.9 221.261 203.427 221.058C202.954 220.856 202.444 220.754 201.93 220.76C200.848 220.774 199.81 221.192 199.02 221.932C198.23 222.672 197.745 223.681 197.66 224.76Z" fill="white"/>
</g>
<g opacity="0.4">
<path d="M168.06 256.82C167.948 258.214 167.321 259.516 166.3 260.472C165.279 261.428 163.938 261.969 162.54 261.99C161.875 261.998 161.215 261.866 160.604 261.605C159.992 261.343 159.442 260.956 158.988 260.47C158.534 259.983 158.187 259.407 157.969 258.779C157.75 258.15 157.666 257.483 157.72 256.82C157.832 255.424 158.461 254.12 159.484 253.164C160.507 252.208 161.85 251.668 163.25 251.65C163.915 251.64 164.575 251.771 165.187 252.032C165.799 252.293 166.35 252.68 166.803 253.167C167.256 253.654 167.602 254.231 167.819 254.86C168.035 255.489 168.117 256.157 168.06 256.82Z" fill="white"/>
</g>
<g opacity="0.4">
<path d="M209.31 254.58C209.269 255.067 209.331 255.557 209.491 256.018C209.652 256.48 209.907 256.903 210.24 257.26C210.573 257.617 210.978 257.9 211.427 258.091C211.877 258.282 212.361 258.377 212.85 258.37C213.88 258.361 214.87 257.967 215.625 257.266C216.38 256.565 216.845 255.607 216.93 254.58C216.972 254.093 216.911 253.602 216.752 253.139C216.592 252.676 216.337 252.252 216.004 251.894C215.67 251.536 215.265 251.252 214.815 251.06C214.365 250.868 213.879 250.773 213.39 250.78C212.357 250.787 211.365 251.181 210.609 251.885C209.854 252.589 209.39 253.551 209.31 254.58Z" fill="white"/>
</g>
<g opacity="0.4">
<path d="M192.04 271.25C191.999 271.737 192.061 272.227 192.221 272.688C192.382 273.15 192.637 273.573 192.97 273.93C193.303 274.287 193.708 274.57 194.157 274.761C194.607 274.952 195.091 275.047 195.58 275.04C196.597 275.014 197.568 274.612 198.307 273.912C199.045 273.212 199.499 272.264 199.58 271.25C199.622 270.763 199.561 270.272 199.402 269.809C199.242 269.346 198.987 268.922 198.654 268.564C198.32 268.206 197.915 267.922 197.465 267.73C197.015 267.538 196.529 267.443 196.04 267.45C195.021 267.477 194.049 267.88 193.31 268.582C192.571 269.284 192.119 270.234 192.04 271.25Z" fill="white"/>
</g>
<g opacity="0.4">
<path d="M162.73 281.3C162.693 281.743 162.747 282.188 162.891 282.609C163.035 283.029 163.265 283.415 163.566 283.743C163.866 284.07 164.232 284.331 164.639 284.509C165.046 284.688 165.485 284.78 165.93 284.78C166.87 284.765 167.772 284.401 168.458 283.757C169.144 283.114 169.565 282.237 169.64 281.3C169.679 280.853 169.624 280.403 169.479 279.979C169.333 279.556 169.1 279.167 168.794 278.839C168.489 278.511 168.118 278.25 167.705 278.075C167.293 277.899 166.848 277.812 166.4 277.82C165.466 277.844 164.575 278.213 163.897 278.856C163.219 279.498 162.804 280.369 162.73 281.3Z" fill="white"/>
</g>
<g opacity="0.4">
<path d="M234.38 285.64C234.298 286.718 233.815 287.727 233.026 288.467C232.238 289.207 231.201 289.626 230.12 289.64C229.606 289.648 229.095 289.547 228.622 289.345C228.149 289.143 227.724 288.843 227.374 288.466C227.024 288.089 226.758 287.642 226.592 287.156C226.426 286.669 226.364 286.152 226.41 285.64C226.492 284.562 226.975 283.553 227.763 282.813C228.552 282.073 229.589 281.654 230.67 281.64C231.184 281.632 231.695 281.733 232.168 281.935C232.641 282.137 233.066 282.437 233.416 282.814C233.765 283.191 234.032 283.638 234.198 284.124C234.364 284.611 234.426 285.128 234.38 285.64Z" fill="white"/>
</g>
<g opacity="0.4">
<path d="M233.68 245.73C233.605 246.668 233.184 247.544 232.498 248.187C231.812 248.831 230.91 249.195 229.97 249.21C229.522 249.216 229.078 249.128 228.666 248.952C228.255 248.776 227.884 248.515 227.579 248.188C227.274 247.86 227.041 247.472 226.895 247.049C226.748 246.625 226.692 246.176 226.73 245.73C226.805 244.793 227.226 243.918 227.913 243.276C228.599 242.634 229.5 242.272 230.44 242.26C230.888 242.251 231.332 242.337 231.745 242.511C232.157 242.686 232.528 242.945 232.834 243.272C233.14 243.6 233.373 243.988 233.519 244.411C233.664 244.834 233.719 245.284 233.68 245.73Z" fill="white"/>
</g>
<path d="M329.49 292.09H259.56V291.77C259.56 290.764 259.758 289.768 260.143 288.839C260.528 287.909 261.092 287.065 261.804 286.353C262.515 285.642 263.359 285.078 264.289 284.693C265.218 284.308 266.214 284.11 267.22 284.11H321.83C322.836 284.11 323.832 284.308 324.761 284.693C325.691 285.078 326.535 285.642 327.246 286.353C327.958 287.065 328.522 287.909 328.907 288.839C329.292 289.768 329.49 290.764 329.49 291.77V292.09Z" fill="#1B5A96"/>
<path d="M420.93 189.17L413.64 261.27C413.06 266.97 408.97 271.27 404.1 271.27H303.33C297.58 271.27 293.11 265.35 293.79 258.63L301.11 186.51C301.69 180.83 305.78 176.56 310.65 176.56H411.43C417.2 176.58 421.65 182.45 420.93 189.17Z" fill="#1B5A96"/>
<path d="M293.79 258.58C293.11 265.3 297.58 271.22 303.33 271.22H299.83C294.07 271.22 289.6 265.3 290.28 258.58L297.6 186.46C298.18 180.78 302.27 176.51 307.14 176.51H310.65C305.78 176.51 301.65 180.78 301.11 186.46L293.79 258.58Z" fill="#1B5A96"/>
<path d="M373 228.33H353.46V292.01H383.94L373 228.33Z" fill="#1B5A96"/>
<path d="M353.46 228.33H349.04L349.98 287.99H329.51L329.89 292.01H353.46V228.33Z" fill="#1B5A96"/>
<path d="M381.17 274.01C380.982 274.011 380.799 273.945 380.655 273.824C380.51 273.703 380.413 273.535 380.38 273.35L372.32 229.14H354.27V260.88C354.27 261.095 354.185 261.301 354.033 261.453C353.881 261.605 353.675 261.69 353.46 261.69C353.245 261.69 353.039 261.605 352.887 261.453C352.735 261.301 352.65 261.095 352.65 260.88V228.33C352.652 228.116 352.739 227.911 352.89 227.76C353.041 227.609 353.246 227.523 353.46 227.52H373C373.191 227.52 373.376 227.586 373.522 227.709C373.669 227.832 373.767 228.002 373.8 228.19L381.93 273.05C381.95 273.155 381.949 273.263 381.928 273.368C381.906 273.473 381.863 273.572 381.803 273.661C381.743 273.749 381.665 273.824 381.575 273.883C381.486 273.941 381.385 273.981 381.28 274L381.17 274.01Z" fill="#FFF6EB"/>
<path d="M366.069 212.561C368.412 210.305 368.615 206.714 366.524 204.542C364.432 202.37 360.837 202.439 358.494 204.695C356.151 206.952 355.947 210.542 358.039 212.714C360.13 214.886 363.725 214.817 366.069 212.561Z" fill="#FB9100"/>
<path d="M197.39 197C188.64 196.81 178.72 193.6 177.3 184.7L178.75 155.35L208.48 156.02L206.93 183.58C206.93 183.58 212.71 195.28 197.39 197Z" fill="#FFCFC5"/>
<path d="M197.39 197.58C188.39 197.39 178.17 193.92 176.71 184.78C176.705 184.737 176.705 184.693 176.71 184.65L178.16 155.3C178.168 155.142 178.237 154.993 178.353 154.884C178.468 154.776 178.622 154.717 178.78 154.72L208.52 155.39C208.684 155.399 208.838 155.471 208.95 155.59C209.005 155.649 209.047 155.718 209.075 155.794C209.102 155.869 209.114 155.949 209.11 156.03L207.58 183.46C207.97 184.33 209.71 188.61 207.67 192.34C206.08 195.24 202.67 197 197.48 197.58H197.39ZM177.93 184.67C179.66 195.16 193.19 196.29 197.38 196.39C202.11 195.85 205.21 194.3 206.6 191.78C208.53 188.26 206.44 183.91 206.42 183.87C206.372 183.778 206.351 183.674 206.36 183.57L207.86 156.57L179.34 155.93L177.93 184.67Z" fill="#06000C"/>
<path d="M178.44 155.2C171.44 141.2 173.84 124.93 173.84 124.93L206.76 111.81C207.45 112.43 226.35 121.51 227.47 145.6C228.39 165.35 212.95 174.82 190.8 167.6" fill="#FFCFC5"/>
<path d="M204.73 170.58C199.924 170.505 195.159 169.675 190.61 168.12C190.533 168.098 190.462 168.06 190.401 168.009C190.339 167.958 190.289 167.895 190.252 167.824C190.216 167.753 190.194 167.675 190.189 167.595C190.183 167.516 190.194 167.436 190.22 167.36C190.244 167.283 190.283 167.212 190.335 167.15C190.387 167.089 190.45 167.038 190.522 167.002C190.594 166.965 190.673 166.944 190.753 166.938C190.833 166.933 190.914 166.944 190.99 166.97C202.54 170.74 212.55 170.04 219.15 164.97C224.6 160.82 227.26 154.11 226.87 145.55C226.636 138.823 224.689 132.268 221.214 126.503C217.739 120.739 212.85 115.957 207.01 112.61L206.69 112.41L174.39 125.28C174.11 127.7 172.7 142.28 178.98 154.84C179.016 154.912 179.038 154.99 179.044 155.07C179.05 155.15 179.04 155.23 179.015 155.306C178.99 155.382 178.95 155.453 178.898 155.514C178.845 155.574 178.782 155.624 178.71 155.66C178.638 155.696 178.56 155.718 178.481 155.724C178.401 155.73 178.32 155.72 178.244 155.695C178.168 155.67 178.097 155.63 178.037 155.578C177.976 155.526 177.926 155.462 177.89 155.39C170.89 141.39 173.21 124.93 173.23 124.76C173.249 124.656 173.294 124.559 173.36 124.477C173.426 124.395 173.512 124.33 173.61 124.29L206.54 111.17C206.645 111.128 206.759 111.117 206.871 111.136C206.982 111.155 207.085 111.205 207.17 111.28L207.64 111.57C220.15 119.04 227.41 131.09 228.08 145.49C228.5 154.49 225.67 161.49 219.89 165.94C215.87 169.08 210.69 170.58 204.73 170.58Z" fill="#06000C"/>
<path d="M225.12 125.75C220.92 128.9 207.27 127.75 201.91 127.97C194.32 128.59 187.63 128.51 187.76 131.1C184.63 132.71 190.31 142.2 187.56 144.16C184.81 146.12 183.56 143.36 183.56 143.36L172.73 145.36C172.73 145.36 159.63 130.06 165.18 121.21C170.73 112.36 178.82 114.94 178.82 114.94C178.816 114.877 178.816 114.813 178.82 114.75C178.481 113.872 178.353 112.927 178.447 111.991C178.541 111.054 178.854 110.153 179.36 109.36C180.83 107.323 183.023 105.924 185.49 105.45C186.973 105.118 188.482 104.91 190 104.83C191 104.76 191.92 104.71 192.89 104.63C195.032 104.525 197.138 104.041 199.11 103.2C199.41 103.05 199.72 102.88 200.02 102.7C202.16 101.41 203.71 99.3499 205.57 97.6999C207.43 96.0499 209.93 94.6999 212.36 95.2999C214.79 95.8999 216.42 98.4199 217.65 100.71C218.88 103 220.29 105.52 222.75 106.34C224.25 106.84 225.93 106.62 227.4 107.21C228.329 107.665 229.135 108.336 229.752 109.165C230.37 109.995 230.78 110.96 230.95 111.98C232.14 117.09 229.36 122.58 225.12 125.75Z" fill="#06000C"/>
<path d="M205.09 138.58C204.146 138.388 203.167 138.482 202.276 138.849C201.386 139.215 200.625 139.839 200.09 140.64" fill="white"/>
<path d="M200.1 141.21C199.973 141.21 199.85 141.168 199.75 141.09C199.684 141.044 199.628 140.986 199.585 140.918C199.542 140.85 199.513 140.774 199.5 140.695C199.487 140.615 199.49 140.534 199.509 140.456C199.528 140.378 199.562 140.305 199.61 140.24C200.213 139.343 201.07 138.646 202.071 138.239C203.072 137.831 204.172 137.73 205.23 137.95C205.308 137.968 205.382 138.001 205.447 138.047C205.512 138.094 205.567 138.152 205.609 138.22C205.65 138.288 205.678 138.364 205.691 138.443C205.703 138.522 205.699 138.603 205.68 138.68C205.642 138.836 205.544 138.971 205.407 139.055C205.271 139.139 205.106 139.166 204.95 139.13C204.126 138.966 203.272 139.052 202.497 139.376C201.722 139.7 201.062 140.248 200.6 140.95C200.544 141.03 200.469 141.096 200.382 141.141C200.295 141.187 200.198 141.21 200.1 141.21Z" fill="#06000C"/>
<path d="M217.01 140.58C217.35 141.99 218.39 142.95 219.34 142.72C220.29 142.49 220.78 141.16 220.44 139.72C220.1 138.28 219.05 137.35 218.11 137.58C217.17 137.81 216.67 139.21 217.01 140.58Z" fill="#06000C"/>
<path d="M202.63 144.35C202.98 145.76 204.02 146.71 204.97 146.49C205.92 146.27 206.4 144.93 206.07 143.49C205.74 142.05 204.68 141.12 203.73 141.35C202.78 141.58 202.3 142.94 202.63 144.35Z" fill="#06000C"/>
<path d="M219.46 134.81C218.516 134.618 217.537 134.712 216.646 135.079C215.756 135.445 214.995 136.069 214.46 136.87" fill="white"/>
<path d="M214.47 137.48C214.343 137.48 214.22 137.438 214.12 137.36C214.054 137.315 213.998 137.257 213.956 137.19C213.913 137.123 213.884 137.048 213.871 136.97C213.858 136.891 213.861 136.811 213.879 136.734C213.898 136.657 213.932 136.584 213.98 136.52C214.581 135.62 215.437 134.921 216.438 134.511C217.44 134.101 218.541 134 219.6 134.22C219.685 134.231 219.767 134.259 219.84 134.303C219.914 134.348 219.977 134.407 220.026 134.477C220.074 134.548 220.108 134.628 220.124 134.712C220.14 134.796 220.138 134.883 220.118 134.966C220.098 135.05 220.061 135.128 220.009 135.196C219.957 135.264 219.891 135.32 219.816 135.361C219.741 135.402 219.657 135.427 219.572 135.434C219.487 135.44 219.401 135.429 219.32 135.4C218.496 135.236 217.642 135.322 216.867 135.646C216.092 135.97 215.432 136.518 214.97 137.22C214.914 137.3 214.839 137.366 214.752 137.411C214.665 137.457 214.568 137.48 214.47 137.48Z" fill="#06000C"/>
<path d="M183.57 143.36C183.57 143.36 175.1 135.68 170.65 137.5C166.2 139.32 168.65 155.18 174.13 156.41C177.385 157.149 180.794 156.761 183.8 155.31" fill="#FFCFC5"/>
<path d="M177.38 157.38C176.243 157.383 175.109 157.259 174 157.01C170.52 156.22 168.26 150.49 167.82 145.24C167.46 140.85 168.43 137.75 170.42 136.93C175.17 134.99 183.62 142.58 183.98 142.93C184.037 142.986 184.083 143.053 184.114 143.127C184.145 143.201 184.162 143.28 184.162 143.36C184.162 143.44 184.145 143.52 184.114 143.593C184.083 143.667 184.037 143.734 183.98 143.79C183.866 143.904 183.711 143.967 183.55 143.967C183.389 143.967 183.234 143.904 183.12 143.79C180.84 141.72 174.2 136.67 170.84 138.04C169.41 138.63 168.69 141.4 169 145.12C169.39 149.88 171.46 155.17 174.23 155.8C177.335 156.509 180.588 156.157 183.47 154.8C183.539 154.761 183.615 154.736 183.693 154.726C183.772 154.717 183.852 154.723 183.928 154.744C184.004 154.766 184.075 154.802 184.137 154.851C184.2 154.9 184.251 154.961 184.29 155.03C184.329 155.1 184.353 155.178 184.362 155.257C184.371 155.337 184.365 155.418 184.342 155.495C184.32 155.572 184.283 155.644 184.233 155.707C184.182 155.769 184.12 155.821 184.05 155.86C181.975 156.879 179.691 157.399 177.38 157.38Z" fill="#06000C"/>
<path d="M174.43 149.47C174.318 149.47 174.209 149.439 174.114 149.381C174.019 149.322 173.941 149.239 173.89 149.14C173.351 148.106 173.031 146.973 172.95 145.81C172.883 145.427 172.905 145.034 173.014 144.661C173.123 144.289 173.317 143.946 173.58 143.66C173.804 143.46 174.071 143.312 174.36 143.229C174.649 143.146 174.953 143.129 175.25 143.18C175.757 143.263 176.237 143.465 176.65 143.77C177.271 144.201 177.795 144.756 178.19 145.4C178.232 145.468 178.26 145.544 178.273 145.623C178.286 145.703 178.283 145.783 178.264 145.861C178.246 145.94 178.212 146.013 178.165 146.078C178.118 146.143 178.058 146.198 177.99 146.24C177.851 146.322 177.686 146.348 177.529 146.31C177.373 146.273 177.236 146.176 177.15 146.04C176.848 145.537 176.442 145.104 175.96 144.77C175.7 144.575 175.399 144.442 175.08 144.38C174.963 144.36 174.842 144.365 174.727 144.395C174.612 144.424 174.504 144.477 174.41 144.55C174.289 144.717 174.204 144.907 174.16 145.108C174.117 145.31 174.117 145.518 174.16 145.72C174.22 146.716 174.482 147.689 174.93 148.58C175.001 148.724 175.014 148.89 174.965 149.042C174.917 149.195 174.811 149.324 174.67 149.4C174.596 149.441 174.514 149.464 174.43 149.47Z" fill="#06000C"/>
<path d="M212.7 144.18C213.31 146.18 213.91 148.18 214.51 150.18C214.969 151.346 215.121 152.609 214.95 153.85C214.798 154.505 214.43 155.089 213.906 155.51C213.382 155.93 212.732 156.163 212.06 156.17" fill="#FFCFC5"/>
<path d="M212.06 156.79C211.974 156.801 211.887 156.794 211.804 156.768C211.721 156.743 211.644 156.7 211.579 156.643C211.514 156.586 211.462 156.515 211.426 156.436C211.391 156.357 211.372 156.272 211.372 156.185C211.372 156.098 211.391 156.012 211.426 155.933C211.462 155.855 211.514 155.784 211.579 155.727C211.644 155.67 211.721 155.627 211.804 155.601C211.887 155.576 211.974 155.569 212.06 155.58C212.592 155.563 213.105 155.374 213.52 155.04C213.935 154.706 214.23 154.246 214.36 153.73C214.5 152.594 214.349 151.441 213.92 150.38L212.12 144.38C212.097 144.303 212.089 144.222 212.098 144.143C212.106 144.063 212.13 143.986 212.168 143.915C212.244 143.772 212.375 143.666 212.53 143.62C212.685 143.573 212.852 143.591 212.995 143.667C213.137 143.744 213.244 143.875 213.29 144.03L215.09 150.03C215.591 151.3 215.746 152.68 215.54 154.03C215.353 154.815 214.909 155.515 214.278 156.018C213.648 156.522 212.867 156.801 212.06 156.81V156.79Z" fill="#06000C"/>
<path d="M207.21 161.3C205.768 161.298 204.353 160.912 203.11 160.18C201.478 159.188 200.254 157.645 199.66 155.83C199.61 155.676 199.622 155.509 199.696 155.364C199.769 155.22 199.896 155.111 200.05 155.06C200.204 155.01 200.371 155.023 200.516 155.096C200.66 155.169 200.77 155.296 200.82 155.45C201.321 156.987 202.357 158.293 203.74 159.13C205.126 159.964 206.768 160.266 208.36 159.98C208.519 159.957 208.68 159.996 208.811 160.089C208.941 160.182 209.031 160.322 209.06 160.48C209.074 160.558 209.073 160.639 209.056 160.716C209.039 160.794 209.007 160.867 208.961 160.933C208.916 160.998 208.858 161.053 208.791 161.096C208.723 161.138 208.648 161.167 208.57 161.18C208.121 161.26 207.666 161.3 207.21 161.3Z" fill="#06000C"/>
<path d="M252.81 203.78H246.69C246.314 203.777 245.955 203.627 245.689 203.361C245.423 203.095 245.273 202.736 245.27 202.36V181.06C245.273 180.685 245.423 180.327 245.689 180.062C245.955 179.798 246.315 179.65 246.69 179.65H252.81C254.424 179.604 256.03 179.881 257.535 180.467C259.039 181.052 260.411 181.933 261.568 183.058C262.726 184.183 263.647 185.529 264.275 187.016C264.904 188.503 265.227 190.101 265.227 191.715C265.227 193.329 264.904 194.927 264.275 196.414C263.647 197.901 262.726 199.247 261.568 200.372C260.411 201.497 259.039 202.378 257.535 202.963C256.03 203.549 254.424 203.826 252.81 203.78ZM246.93 202.16H252.84C255.554 202.076 258.129 200.939 260.019 198.989C261.91 197.039 262.967 194.431 262.967 191.715C262.967 188.999 261.91 186.391 260.019 184.441C258.129 182.491 255.554 181.354 252.84 181.27H246.93V202.16Z" fill="#1B5A96"/>
<path d="M204.59 205.25C205.96 201.83 208.21 193.25 208.21 193.25L205.13 182.03C204.924 181.143 204.984 180.214 205.303 179.361C205.621 178.507 206.183 177.766 206.92 177.23C207.71 176.645 208.667 176.329 209.65 176.33C210.456 176.327 211.248 176.534 211.949 176.93C212.651 177.327 213.237 177.899 213.65 178.59L216.49 183.3L219.09 188.92" fill="#FFCFC5"/>
<path d="M204.59 205.86C204.511 205.859 204.432 205.842 204.36 205.81C204.21 205.75 204.091 205.633 204.027 205.485C203.963 205.337 203.961 205.17 204.02 205.02C205.27 201.93 207.26 194.46 207.58 193.29L204.58 182.22C204.399 181.449 204.395 180.647 204.567 179.874C204.74 179.102 205.085 178.378 205.576 177.757C206.067 177.136 206.692 176.634 207.405 176.288C208.117 175.942 208.898 175.762 209.69 175.76C210.601 175.752 211.498 175.983 212.291 176.431C213.084 176.878 213.746 177.526 214.21 178.31L217.05 183.02L219.68 188.7C219.715 188.771 219.735 188.849 219.74 188.928C219.744 189.008 219.732 189.087 219.705 189.162C219.678 189.236 219.636 189.305 219.582 189.363C219.528 189.421 219.463 189.468 219.39 189.5C219.244 189.568 219.077 189.576 218.925 189.522C218.773 189.468 218.649 189.356 218.58 189.21L215.93 183.58L213.13 178.92C212.706 177.976 211.932 177.234 210.972 176.848C210.012 176.463 208.94 176.465 207.981 176.853C207.022 177.241 206.25 177.986 205.829 178.931C205.407 179.876 205.368 180.947 205.72 181.92L208.79 193.12C208.82 193.225 208.82 193.335 208.79 193.44C208.7 193.79 206.53 202.06 205.15 205.44C205.11 205.558 205.035 205.662 204.935 205.737C204.835 205.812 204.715 205.855 204.59 205.86Z" fill="#06000C"/>
<path d="M223.19 173.14H244.74C246.663 173.14 248.507 173.904 249.866 175.264C251.226 176.623 251.99 178.467 251.99 180.39V196.13C251.99 200.716 250.168 205.114 246.926 208.356C243.683 211.599 239.286 213.42 234.7 213.42H233.24C228.654 213.42 224.257 211.599 221.014 208.356C217.772 205.114 215.95 200.716 215.95 196.13V180.39C215.95 178.469 216.712 176.627 218.07 175.267C219.427 173.908 221.269 173.143 223.19 173.14Z" fill="#1B5A96"/>
<g opacity="0.4">
<path d="M155.38 215.79C157.119 214.109 157.257 211.429 155.687 209.805C154.117 208.181 151.435 208.226 149.695 209.907C147.956 211.588 147.818 214.268 149.388 215.892C150.958 217.517 153.64 217.471 155.38 215.79Z" fill="white"/>
</g>
<path d="M214.27 190.13L233.8 179.95C234.19 179.704 234.627 179.541 235.083 179.471C235.539 179.401 236.005 179.425 236.451 179.543C236.897 179.66 237.315 179.867 237.678 180.153C238.04 180.438 238.341 180.794 238.56 181.2C238.977 181.965 239.08 182.861 238.849 183.701C238.618 184.54 238.069 185.257 237.32 185.7C233.06 188.22 225.45 192.7 225.45 192.81C225.45 192.92 234.7 189.62 239.78 187.81C240.22 187.656 240.687 187.591 241.153 187.618C241.619 187.645 242.075 187.765 242.494 187.969C242.913 188.174 243.288 188.459 243.596 188.81C243.905 189.16 244.14 189.568 244.29 190.01C244.407 190.375 244.468 190.756 244.47 191.14C244.469 191.855 244.252 192.553 243.847 193.142C243.441 193.731 242.867 194.184 242.2 194.44L228.08 199.79L242.61 196.48C243.041 196.383 243.488 196.378 243.922 196.464C244.355 196.55 244.766 196.726 245.128 196.98C245.489 197.234 245.794 197.561 246.022 197.94C246.249 198.319 246.395 198.741 246.45 199.18C246.46 199.313 246.46 199.447 246.45 199.58C246.44 200.257 246.214 200.912 245.806 201.452C245.398 201.991 244.828 202.387 244.18 202.58L230.18 206.67L241.52 206.12C242.145 206.061 242.773 206.199 243.315 206.515C243.857 206.831 244.287 207.309 244.543 207.882C244.799 208.455 244.869 209.094 244.743 209.709C244.617 210.324 244.301 210.884 243.84 211.31C243.347 211.815 242.692 212.13 241.99 212.2L234.35 212.99L226.56 226.11L195.75 280.27C193.396 284.257 189.955 287.491 185.831 289.594C181.706 291.697 177.068 292.582 172.459 292.145C167.85 291.709 163.46 289.969 159.803 287.13C156.147 284.29 153.374 280.468 151.81 276.11L135.74 231.35L173.65 221.22L181.5 239.66C181.5 239.66 200.82 214.39 205.91 201.77" fill="#FFCFC5"/>
<path d="M174.81 292.92C169.664 292.919 164.644 291.33 160.434 288.369C156.225 285.409 153.031 281.222 151.29 276.38L135.22 231.58C135.189 231.501 135.176 231.416 135.181 231.331C135.186 231.246 135.209 231.163 135.249 231.088C135.289 231.013 135.344 230.948 135.412 230.896C135.479 230.845 135.557 230.808 135.64 230.79L173.54 220.67C173.681 220.631 173.831 220.644 173.963 220.706C174.095 220.768 174.201 220.876 174.26 221.01L181.7 238.49C185.07 234.01 200.92 212.69 205.4 201.57C205.43 201.496 205.474 201.428 205.53 201.372C205.586 201.315 205.652 201.27 205.726 201.239C205.799 201.208 205.878 201.193 205.958 201.193C206.038 201.193 206.117 201.209 206.19 201.24C206.34 201.3 206.459 201.417 206.523 201.565C206.587 201.713 206.589 201.88 206.53 202.03C201.47 214.58 182.23 239.81 182.03 240.03C181.967 240.113 181.883 240.179 181.786 240.219C181.69 240.26 181.584 240.274 181.48 240.26C181.374 240.249 181.272 240.21 181.186 240.146C181.1 240.083 181.032 239.998 180.99 239.9L173.35 221.95L136.59 231.76L152.44 275.9C153.963 280.149 156.665 283.877 160.23 286.647C163.794 289.417 168.073 291.114 172.567 291.541C177.061 291.968 181.584 291.107 185.606 289.057C189.628 287.008 192.984 283.856 195.28 279.97L226.08 225.81L233.88 212.68C233.926 212.597 233.993 212.527 234.073 212.476C234.154 212.426 234.245 212.396 234.34 212.39L241.98 211.59C242.539 211.532 243.061 211.282 243.457 210.883C243.853 210.484 244.097 209.959 244.15 209.4C244.186 209.053 244.145 208.702 244.031 208.372C243.917 208.042 243.732 207.741 243.49 207.49C243.249 207.233 242.955 207.031 242.629 206.899C242.303 206.766 241.952 206.705 241.6 206.72L230.26 207.28C230.11 207.291 229.961 207.245 229.844 207.15C229.726 207.055 229.65 206.919 229.63 206.77C229.606 206.625 229.636 206.476 229.713 206.351C229.79 206.226 229.91 206.134 230.05 206.09L244.05 201.99C244.579 201.834 245.043 201.511 245.373 201.07C245.703 200.628 245.881 200.091 245.88 199.54C245.88 199.43 245.88 199.32 245.88 199.21C245.836 198.856 245.718 198.515 245.534 198.209C245.35 197.903 245.104 197.639 244.812 197.434C244.521 197.228 244.189 197.086 243.839 197.017C243.489 196.947 243.128 196.952 242.78 197.03L228.25 200.34C228.1 200.377 227.942 200.355 227.808 200.279C227.674 200.203 227.574 200.078 227.53 199.93C227.487 199.781 227.501 199.622 227.57 199.483C227.638 199.344 227.756 199.236 227.9 199.18L242.01 193.83C242.564 193.619 243.042 193.246 243.379 192.758C243.717 192.271 243.898 191.693 243.9 191.1C243.896 190.783 243.842 190.469 243.74 190.17C243.618 189.801 243.423 189.461 243.167 189.169C242.911 188.877 242.599 188.639 242.25 188.47C241.906 188.301 241.531 188.202 241.148 188.18C240.765 188.157 240.382 188.212 240.02 188.34C225.79 193.34 225.59 193.34 225.48 193.34C225.4 193.341 225.321 193.327 225.247 193.297C225.173 193.267 225.106 193.223 225.049 193.168C224.993 193.112 224.947 193.045 224.917 192.972C224.886 192.898 224.87 192.819 224.87 192.74C224.87 192.29 224.87 192.29 237.04 185.11C237.45 184.865 237.79 184.518 238.027 184.102C238.264 183.687 238.389 183.218 238.39 182.74C238.392 182.278 238.275 181.823 238.05 181.42C237.871 181.086 237.625 180.793 237.327 180.559C237.029 180.325 236.686 180.155 236.32 180.06C235.955 179.96 235.574 179.938 235.2 179.995C234.826 180.052 234.469 180.186 234.15 180.39L214.58 190.59C214.438 190.664 214.273 190.679 214.12 190.631C213.967 190.583 213.839 190.477 213.765 190.335C213.691 190.193 213.676 190.027 213.724 189.874C213.772 189.722 213.878 189.594 214.02 189.52L233.54 179.34C233.996 179.055 234.505 178.867 235.037 178.788C235.569 178.709 236.111 178.74 236.63 178.88C237.384 179.088 238.059 179.513 238.574 180.101C239.089 180.69 239.42 181.416 239.526 182.191C239.633 182.965 239.51 183.754 239.173 184.459C238.836 185.165 238.299 185.756 237.63 186.16L230.55 190.35C233.37 189.35 236.82 188.16 239.55 187.18C240.174 186.965 240.84 186.902 241.493 186.997C242.146 187.091 242.767 187.339 243.305 187.722C243.842 188.104 244.281 188.609 244.585 189.195C244.888 189.78 245.048 190.43 245.05 191.09C245.047 191.929 244.791 192.747 244.314 193.438C243.838 194.129 243.163 194.659 242.38 194.96L236.46 197.2L242.46 195.84C242.975 195.722 243.508 195.715 244.026 195.816C244.544 195.918 245.034 196.128 245.466 196.431C245.898 196.735 246.261 197.126 246.532 197.579C246.803 198.031 246.976 198.536 247.04 199.06C247.05 199.216 247.05 199.373 247.04 199.53C247.036 200.344 246.77 201.135 246.282 201.787C245.794 202.438 245.11 202.916 244.33 203.15L235.27 205.8L241.49 205.5C242.43 205.473 243.344 205.809 244.043 206.438C244.741 207.067 245.171 207.941 245.243 208.878C245.315 209.815 245.024 210.744 244.429 211.473C243.835 212.201 242.983 212.673 242.05 212.79L234.71 213.55L227.13 226.48L196.33 280.64C194.113 284.374 190.964 287.469 187.192 289.622C183.419 291.774 179.153 292.91 174.81 292.92Z" fill="#06000C"/>
<path d="M126.8 213.96C126.803 218.514 128.073 222.978 130.47 226.85L139.93 250.51L147.98 245.24L159.51 237.69L179.93 224.35L160.08 187.35L146.77 189.88C141.162 190.946 136.101 193.936 132.461 198.334C128.821 202.731 126.83 208.261 126.83 213.97L126.8 213.96Z" fill="#FB9100"/>
<g opacity="0.4">
<path d="M146.05 241.43C146.3 243.086 147.151 244.591 148.44 245.66L159.3 237.95C158.694 236.364 157.523 235.057 156.012 234.281C154.501 233.505 152.757 233.315 151.114 233.746C149.471 234.178 148.046 235.201 147.111 236.619C146.176 238.037 145.799 239.75 146.05 241.43Z" fill="white"/>
</g>
<path d="M139.93 251.12C139.87 251.13 139.81 251.13 139.75 251.12C139.663 251.093 139.584 251.047 139.518 250.985C139.452 250.922 139.401 250.845 139.37 250.76L129.93 227.07C129.893 226.995 129.872 226.912 129.868 226.828C129.864 226.744 129.878 226.66 129.908 226.582C129.938 226.503 129.984 226.432 130.044 226.372C130.103 226.312 130.174 226.265 130.252 226.234C130.33 226.203 130.414 226.189 130.498 226.191C130.582 226.194 130.664 226.214 130.74 226.251C130.816 226.287 130.884 226.338 130.939 226.402C130.994 226.465 131.035 226.54 131.06 226.62L140.25 249.62L179.12 224.17L165.69 198.77C165.653 198.699 165.629 198.622 165.622 198.542C165.615 198.462 165.623 198.381 165.647 198.305C165.67 198.228 165.709 198.157 165.76 198.095C165.811 198.034 165.874 197.983 165.945 197.945C166.016 197.908 166.093 197.885 166.173 197.877C166.253 197.87 166.334 197.878 166.41 197.902C166.487 197.925 166.558 197.964 166.62 198.015C166.682 198.066 166.733 198.129 166.77 198.2L180.46 224.09C180.529 224.224 180.546 224.38 180.507 224.525C180.468 224.671 180.377 224.798 180.25 224.88L140.25 251.05C140.151 251.101 140.041 251.125 139.93 251.12Z" fill="#06000C"/>
<g opacity="0.4">
<path d="M162.33 218.67C162.115 219.316 162.078 220.007 162.222 220.672C162.367 221.337 162.688 221.95 163.151 222.448C163.614 222.946 164.203 223.311 164.856 223.503C165.508 223.695 166.201 223.708 166.86 223.54C167.616 223.372 168.314 223.006 168.882 222.478C169.45 221.951 169.867 221.282 170.09 220.54C170.308 219.893 170.347 219.199 170.204 218.532C170.06 217.864 169.738 217.248 169.273 216.748C168.808 216.248 168.217 215.883 167.561 215.692C166.906 215.5 166.211 215.489 165.55 215.66C164.794 215.83 164.097 216.198 163.53 216.727C162.964 217.256 162.55 217.927 162.33 218.67Z" fill="white"/>
</g>
<g opacity="0.4">
<path d="M153.98 226.2C153.98 226.706 153.83 227.201 153.549 227.622C153.267 228.043 152.868 228.372 152.4 228.565C151.932 228.759 151.417 228.81 150.921 228.711C150.424 228.612 149.968 228.368 149.61 228.01C149.252 227.652 149.008 227.196 148.909 226.7C148.811 226.203 148.861 225.688 149.055 225.22C149.249 224.753 149.577 224.353 149.998 224.072C150.419 223.79 150.914 223.64 151.42 223.64C152.099 223.64 152.75 223.91 153.23 224.39C153.71 224.87 153.98 225.521 153.98 226.2Z" fill="white"/>
</g>
<g opacity="0.4">
<path d="M145.622 212.113C147.337 211.709 148.399 209.991 147.994 208.276C147.589 206.561 145.871 205.499 144.156 205.904C142.442 206.309 141.38 208.027 141.785 209.741C142.189 211.456 143.907 212.518 145.622 212.113Z" fill="white"/>
</g>
<g opacity="0.4">
<path d="M157.3 205.81C158.924 205.81 160.24 204.494 160.24 202.87C160.24 201.246 158.924 199.93 157.3 199.93C155.676 199.93 154.36 201.246 154.36 202.87C154.36 204.494 155.676 205.81 157.3 205.81Z" fill="white"/>
</g>
<path d="M280.84 64.34V68.51C280.84 68.8124 280.72 69.1023 280.506 69.3161C280.292 69.5299 280.002 69.65 279.7 69.65H275.53C275.228 69.65 274.938 69.5299 274.724 69.3161C274.51 69.1023 274.39 68.8124 274.39 68.51V64.34C274.39 64.1908 274.419 64.043 274.477 63.9053C274.534 63.7675 274.618 63.6425 274.724 63.5374C274.83 63.4324 274.956 63.3493 275.094 63.2931C275.233 63.2369 275.381 63.2087 275.53 63.21H279.7C279.849 63.2087 279.997 63.2369 280.135 63.2931C280.274 63.3493 280.399 63.4324 280.505 63.5374C280.611 63.6425 280.696 63.7675 280.753 63.9053C280.81 64.043 280.84 64.1908 280.84 64.34Z" fill="#06000C"/>
<path d="M356.29 64.35V68.51C356.289 68.6597 356.258 68.8077 356.199 68.9455C356.141 69.0833 356.056 69.2083 355.949 69.3132C355.842 69.4181 355.716 69.501 355.577 69.5571C355.438 69.6131 355.29 69.6413 355.14 69.64H287.43C287.131 69.6374 286.845 69.5175 286.634 69.3061C286.423 69.0948 286.303 68.8089 286.3 68.51V64.35C286.3 64.0494 286.419 63.7609 286.63 63.5474C286.842 63.3339 287.129 63.2126 287.43 63.21H355.14C355.291 63.2087 355.44 63.2372 355.579 63.2939C355.719 63.3506 355.846 63.4344 355.953 63.5403C356.06 63.6463 356.144 63.7725 356.202 63.9114C356.26 64.0504 356.29 64.1994 356.29 64.35Z" fill="#1B5A96"/>
<path d="M335.2 96.2201V100.38C335.195 100.683 335.07 100.972 334.853 101.184C334.635 101.396 334.343 101.513 334.04 101.51H287.43C287.131 101.508 286.845 101.388 286.634 101.176C286.423 100.965 286.303 100.679 286.3 100.38V96.2201C286.3 95.9195 286.419 95.631 286.63 95.4175C286.842 95.204 287.129 95.0828 287.43 95.0801H334.04C334.191 95.0788 334.341 95.1072 334.481 95.1638C334.621 95.2204 334.748 95.304 334.856 95.4099C334.964 95.5157 335.05 95.6418 335.109 95.7808C335.168 95.9198 335.199 96.0691 335.2 96.2201Z" fill="#FB9100"/>
<path d="M316.93 112.15V116.31C316.929 116.461 316.898 116.61 316.839 116.749C316.78 116.888 316.694 117.014 316.586 117.12C316.478 117.226 316.351 117.31 316.211 117.366C316.071 117.423 315.921 117.451 315.77 117.45H296.09C295.788 117.45 295.498 117.33 295.284 117.116C295.07 116.902 294.95 116.612 294.95 116.31V112.15C294.95 111.848 295.07 111.558 295.284 111.344C295.498 111.13 295.788 111.01 296.09 111.01H315.74C315.893 111.005 316.047 111.03 316.19 111.085C316.334 111.14 316.465 111.223 316.576 111.329C316.686 111.435 316.775 111.563 316.836 111.704C316.897 111.845 316.929 111.996 316.93 112.15Z" fill="#1B5A96"/>
<path d="M332.38 128.08V132.25C332.379 132.4 332.348 132.548 332.289 132.686C332.231 132.824 332.146 132.948 332.039 133.053C331.932 133.158 331.806 133.241 331.667 133.297C331.528 133.353 331.38 133.382 331.23 133.38H289.93C289.63 133.38 289.343 133.261 289.131 133.049C288.919 132.837 288.8 132.55 288.8 132.25V128.08C288.8 127.781 288.919 127.493 289.131 127.281C289.343 127.069 289.63 126.95 289.93 126.95H331.23C331.38 126.949 331.528 126.977 331.667 127.033C331.806 127.089 331.932 127.172 332.039 127.277C332.146 127.382 332.231 127.507 332.289 127.645C332.348 127.783 332.379 127.931 332.38 128.08Z" fill="#FB9100"/>
<path d="M371.44 128.08V132.25C371.439 132.4 371.408 132.548 371.349 132.686C371.291 132.824 371.206 132.948 371.099 133.053C370.992 133.158 370.866 133.241 370.727 133.297C370.588 133.353 370.44 133.382 370.29 133.38H338.74C338.44 133.38 338.153 133.261 337.941 133.049C337.729 132.837 337.61 132.55 337.61 132.25V128.08C337.61 127.781 337.729 127.493 337.941 127.281C338.153 127.069 338.44 126.95 338.74 126.95H370.29C370.44 126.949 370.588 126.977 370.727 127.033C370.866 127.089 370.992 127.172 371.099 127.277C371.206 127.382 371.291 127.507 371.349 127.645C371.408 127.783 371.439 127.931 371.44 128.08Z" fill="#FB9100"/>
<path d="M398.17 128.08V132.25C398.165 132.552 398.041 132.839 397.826 133.05C397.611 133.262 397.321 133.38 397.02 133.38H376.29C375.989 133.38 375.701 133.261 375.487 133.05C375.274 132.838 375.153 132.551 375.15 132.25V128.08C375.153 127.78 375.274 127.492 375.487 127.281C375.701 127.069 375.989 126.95 376.29 126.95H397.02C397.321 126.95 397.611 127.069 397.826 127.28C398.041 127.491 398.165 127.779 398.17 128.08Z" fill="#1B5A96"/>
<path d="M384.75 112.15V116.31C384.749 116.46 384.718 116.608 384.66 116.746C384.601 116.883 384.516 117.008 384.409 117.113C384.302 117.218 384.176 117.301 384.037 117.357C383.898 117.413 383.75 117.441 383.6 117.44H321.93C321.63 117.44 321.343 117.321 321.131 117.109C320.919 116.897 320.8 116.61 320.8 116.31V112.15C320.799 112.001 320.827 111.853 320.883 111.715C320.939 111.576 321.022 111.451 321.128 111.345C321.233 111.239 321.358 111.155 321.495 111.097C321.633 111.04 321.781 111.01 321.93 111.01H383.58C383.732 111.006 383.884 111.033 384.026 111.088C384.167 111.144 384.297 111.227 384.406 111.333C384.515 111.44 384.601 111.567 384.661 111.707C384.72 111.847 384.75 111.998 384.75 112.15Z" fill="#FB9100"/>
<path d="M356.29 96.2201V100.38C356.289 100.53 356.258 100.678 356.199 100.816C356.141 100.953 356.056 101.078 355.949 101.183C355.842 101.288 355.716 101.371 355.577 101.427C355.438 101.483 355.29 101.511 355.14 101.51H340.45C340.151 101.508 339.865 101.388 339.654 101.176C339.443 100.965 339.323 100.679 339.32 100.38V96.2201C339.32 95.9195 339.439 95.631 339.65 95.4175C339.862 95.204 340.149 95.0828 340.45 95.0801H355.14C355.291 95.0788 355.44 95.1073 355.579 95.164C355.719 95.2207 355.846 95.3045 355.953 95.4105C356.06 95.5165 356.144 95.6426 356.202 95.7815C356.26 95.9205 356.29 96.0696 356.29 96.2201Z" fill="#FB9100"/>
<path d="M399.36 96.2201V100.38C399.355 100.682 399.231 100.969 399.016 101.18C398.801 101.392 398.512 101.51 398.21 101.51H361.01C360.719 101.497 360.444 101.372 360.243 101.162C360.042 100.951 359.93 100.671 359.93 100.38V96.2201C359.929 96.0708 359.957 95.9228 360.013 95.7846C360.069 95.6463 360.152 95.5206 360.257 95.4146C360.362 95.3086 360.487 95.2245 360.625 95.167C360.763 95.1096 360.911 95.0801 361.06 95.0801H398.26C398.554 95.0929 398.833 95.2183 399.038 95.4305C399.242 95.6426 399.358 95.9253 399.36 96.2201Z" fill="#1B5A96"/>
<path d="M357.16 142.93H298.67C298.04 142.93 297.53 143.441 297.53 144.07V148.22C297.53 148.85 298.04 149.36 298.67 149.36H357.16C357.79 149.36 358.3 148.85 358.3 148.22V144.07C358.3 143.441 357.79 142.93 357.16 142.93Z" fill="#1B5A96"/>
<path d="M384.19 142.93H365.72C365.09 142.93 364.58 143.441 364.58 144.07V148.22C364.58 148.85 365.09 149.36 365.72 149.36H384.19C384.82 149.36 385.33 148.85 385.33 148.22V144.07C385.33 143.441 384.82 142.93 384.19 142.93Z" fill="#FB9100"/>
<path d="M319.72 80.2802V84.4402C319.72 84.5907 319.69 84.7398 319.632 84.8788C319.574 85.0177 319.49 85.1438 319.383 85.2498C319.276 85.3558 319.149 85.4396 319.009 85.4963C318.87 85.553 318.721 85.5815 318.57 85.5802H296.74C296.59 85.5802 296.442 85.5507 296.304 85.4934C296.166 85.4361 296.04 85.3521 295.934 85.2463C295.828 85.1404 295.744 85.0148 295.687 84.8764C295.63 84.7381 295.6 84.5899 295.6 84.4402V80.2802C295.6 79.9778 295.72 79.6879 295.934 79.4741C296.148 79.2603 296.438 79.1402 296.74 79.1402H318.57C318.721 79.1389 318.87 79.1674 319.009 79.2241C319.149 79.2808 319.276 79.3645 319.383 79.4705C319.49 79.5765 319.574 79.7026 319.632 79.8416C319.69 79.9806 319.72 80.1296 319.72 80.2802Z" fill="#1B5A96"/>
<path d="M372.74 80.2802V84.4402C372.74 84.5907 372.71 84.7398 372.652 84.8788C372.594 85.0177 372.509 85.1438 372.402 85.2498C372.296 85.3558 372.169 85.4396 372.029 85.4963C371.89 85.553 371.74 85.5815 371.59 85.5802H326.06C325.759 85.5775 325.472 85.4563 325.26 85.2428C325.049 85.0293 324.93 84.7408 324.93 84.4402V80.2802C324.93 79.9796 325.049 79.6911 325.26 79.4776C325.472 79.2641 325.759 79.1428 326.06 79.1402H371.59C371.74 79.1389 371.89 79.1674 372.029 79.2241C372.169 79.2808 372.296 79.3645 372.402 79.4705C372.509 79.5765 372.594 79.7026 372.652 79.8416C372.71 79.9806 372.74 80.1296 372.74 80.2802Z" fill="#FB9100"/>
<path d="M280.84 80.2801V84.4401C280.84 84.5898 280.81 84.7381 280.753 84.8764C280.696 85.0147 280.612 85.1404 280.506 85.2462C280.4 85.3521 280.274 85.4361 280.136 85.4934C279.998 85.5507 279.85 85.5801 279.7 85.5801H275.53C275.38 85.5801 275.232 85.5507 275.094 85.4934C274.955 85.4361 274.83 85.3521 274.724 85.2462C274.618 85.1404 274.534 85.0147 274.477 84.8764C274.419 84.7381 274.39 84.5898 274.39 84.4401V80.2801C274.39 79.9778 274.51 79.6878 274.724 79.474C274.938 79.2602 275.228 79.1401 275.53 79.1401H279.7C280.002 79.1401 280.292 79.2602 280.506 79.474C280.72 79.6878 280.84 79.9778 280.84 80.2801Z" fill="#06000C"/>
<path d="M280.84 96.2101V100.38C280.84 100.682 280.72 100.972 280.506 101.186C280.292 101.4 280.002 101.52 279.7 101.52H275.53C275.228 101.52 274.938 101.4 274.724 101.186C274.51 100.972 274.39 100.682 274.39 100.38V96.2101C274.39 96.0609 274.419 95.9131 274.477 95.7754C274.534 95.6376 274.618 95.5126 274.724 95.4075C274.83 95.3025 274.956 95.2194 275.094 95.1633C275.233 95.1071 275.381 95.0788 275.53 95.0801H279.7C279.849 95.0788 279.997 95.1071 280.135 95.1633C280.274 95.2194 280.399 95.3025 280.505 95.4075C280.611 95.5126 280.696 95.6376 280.753 95.7754C280.81 95.9131 280.84 96.0609 280.84 96.2101Z" fill="#06000C"/>
<path d="M280.84 112.15V116.31C280.84 116.612 280.72 116.902 280.506 117.116C280.292 117.33 280.002 117.45 279.7 117.45H275.53C275.228 117.45 274.938 117.33 274.724 117.116C274.51 116.902 274.39 116.612 274.39 116.31V112.15C274.39 111.847 274.51 111.557 274.724 111.344C274.938 111.13 275.228 111.01 275.53 111.01H279.7C280.002 111.01 280.292 111.13 280.506 111.344C280.72 111.557 280.84 111.847 280.84 112.15Z" fill="#06000C"/>
<path d="M280.84 128.08V132.25C280.84 132.553 280.72 132.843 280.506 133.056C280.292 133.27 280.002 133.39 279.7 133.39H275.53C275.228 133.39 274.938 133.27 274.724 133.056C274.51 132.843 274.39 132.553 274.39 132.25V128.08C274.39 127.931 274.419 127.783 274.477 127.645C274.534 127.508 274.618 127.383 274.724 127.278C274.83 127.173 274.956 127.09 275.094 127.033C275.233 126.977 275.381 126.949 275.53 126.95H279.7C279.849 126.949 279.997 126.977 280.135 127.033C280.274 127.09 280.399 127.173 280.505 127.278C280.611 127.383 280.696 127.508 280.753 127.645C280.81 127.783 280.84 127.931 280.84 128.08Z" fill="#06000C"/>
<path d="M280.84 144.02V148.18C280.84 148.482 280.72 148.772 280.506 148.986C280.292 149.2 280.002 149.32 279.7 149.32H275.53C275.228 149.32 274.938 149.2 274.724 148.986C274.51 148.772 274.39 148.482 274.39 148.18V144.02C274.39 143.718 274.51 143.428 274.724 143.214C274.938 143 275.228 142.88 275.53 142.88H279.7C280.002 142.88 280.292 143 280.506 143.214C280.72 143.428 280.84 143.718 280.84 144.02Z" fill="#06000C"/>
<path d="M245.83 31.7402H182.1C181.039 31.7402 180.022 32.1617 179.272 32.9118C178.522 33.662 178.1 34.6794 178.1 35.7402V77.8302C178.1 78.8911 178.522 79.9085 179.272 80.6587C180.022 81.4088 181.039 81.8302 182.1 81.8302H245.83C246.891 81.8302 247.908 81.4088 248.659 80.6587C249.409 79.9085 249.83 78.8911 249.83 77.8302V35.7502C249.831 35.2241 249.729 34.7029 249.528 34.2164C249.328 33.73 249.034 33.2878 248.662 32.9153C248.29 32.5428 247.849 32.2473 247.363 32.0457C246.877 31.844 246.356 31.7402 245.83 31.7402ZM198.6 37.3102C199.047 37.3083 199.485 37.4389 199.857 37.6856C200.23 37.9322 200.521 38.2839 200.694 38.6961C200.867 39.1083 200.914 39.5625 200.829 40.0013C200.743 40.4401 200.53 40.8437 200.215 41.1612C199.901 41.4786 199.499 41.6957 199.061 41.7848C198.623 41.874 198.168 41.8312 197.754 41.662C197.341 41.4928 196.987 41.2047 196.737 40.8341C196.487 40.4636 196.352 40.0272 196.35 39.5802C196.349 39.2834 196.406 38.9893 196.518 38.7146C196.631 38.4399 196.796 38.19 197.005 37.9792C197.214 37.7684 197.462 37.6009 197.736 37.4861C198.01 37.3713 198.303 37.3115 198.6 37.3102ZM192.6 37.3102C193.047 37.3102 193.483 37.4425 193.855 37.6904C194.226 37.9383 194.516 38.2907 194.687 38.7031C194.858 39.1155 194.904 39.5694 194.817 40.0075C194.731 40.4456 194.517 40.8483 194.202 41.1648C193.887 41.4812 193.485 41.6973 193.047 41.7856C192.609 41.8739 192.155 41.8306 191.742 41.6611C191.329 41.4915 190.975 41.2034 190.726 40.8331C190.476 40.4628 190.342 40.0268 190.34 39.5802C190.339 39.2826 190.396 38.9877 190.509 38.7123C190.622 38.4369 190.788 38.1866 190.998 37.9757C191.208 37.7648 191.458 37.5974 191.733 37.4832C192.008 37.369 192.302 37.3102 192.6 37.3102ZM184.34 39.5802C184.338 39.1324 184.469 38.6941 184.717 38.3209C184.964 37.9477 185.317 37.6565 185.731 37.4842C186.144 37.3119 186.599 37.2663 187.039 37.3532C187.478 37.4401 187.881 37.6555 188.198 37.9722C188.515 38.2889 188.73 38.6925 188.817 39.1318C188.904 39.5711 188.858 40.0264 188.686 40.4397C188.514 40.8531 188.223 41.206 187.849 41.4535C187.476 41.7011 187.038 41.8322 186.59 41.8302C185.994 41.8276 185.423 41.5897 185.002 41.1683C184.581 40.7469 184.343 40.1762 184.34 39.5802ZM223.61 58.3802H186.93V49.2202H223.58L223.61 58.3802Z" fill="#FB9100"/>
<path d="M213.01 62.96H186.96V65.91H213.01V62.96Z" fill="#FFF6EB"/>
<path d="M240.97 62.96H223.61V65.91H240.97V62.96Z" fill="#FFF6EB"/>
<path d="M199.48 69.8301H186.96V72.7801H199.48V69.8301Z" fill="#FFF6EB"/>
<path d="M224.29 69.8301H208.39V72.7801H224.29V69.8301Z" fill="#FFF6EB"/>
<path d="M240.98 69.8301H231.73V72.7801H240.98V69.8301Z" fill="#FFF6EB"/>
<path d="M444.87 104.73L444.93 100.58L436.93 100.49L436.88 104.67C434.53 105.132 432.288 106.031 430.27 107.32L427.35 104.32L421.62 109.93L424.54 112.93C423.205 114.919 422.255 117.141 421.74 119.48H417.56L417.47 127.48H421.65C422.113 129.83 423.012 132.072 424.3 134.09L421.3 137.02L426.91 142.75L429.91 139.83C431.901 141.161 434.122 142.111 436.46 142.63L436.41 146.81L444.41 146.9V142.72C446.759 142.25 449 141.348 451.02 140.06L453.94 143.06L459.67 137.46L456.75 134.46C458.085 132.471 459.035 130.25 459.55 127.91H463.73L463.82 119.91H459.64C459.174 117.562 458.275 115.32 456.99 113.3L459.99 110.37L454.39 104.64L451.39 107.57M441.33 133.36C439.35 133.495 437.376 133.019 435.675 131.998C433.974 130.976 432.628 129.456 431.817 127.645C431.006 125.834 430.771 123.817 431.142 121.868C431.513 119.918 432.473 118.13 433.893 116.743C435.313 115.357 437.124 114.439 439.081 114.114C441.039 113.789 443.049 114.072 444.841 114.925C446.633 115.778 448.12 117.16 449.101 118.885C450.083 120.61 450.512 122.594 450.33 124.57C450.119 126.866 449.097 129.011 447.448 130.622C445.799 132.233 443.63 133.204 441.33 133.36Z" fill="#FB9100"/>
<path d="M149.93 105.29C147.368 101.331 143.689 98.221 139.36 96.3524C135.03 94.4837 130.244 93.9405 125.605 94.7913C120.967 95.6422 116.685 97.8489 113.301 101.133C109.916 104.416 107.581 108.63 106.591 113.24C105.6 117.851 105.999 122.651 107.736 127.035C109.473 131.419 112.47 135.19 116.35 137.871C120.229 140.552 124.816 142.022 129.531 142.097C134.246 142.172 138.878 140.847 142.84 138.29C145.474 136.59 147.747 134.388 149.53 131.809C151.312 129.23 152.568 126.325 153.226 123.26C153.885 120.195 153.933 117.03 153.367 113.947C152.802 110.863 151.634 107.922 149.93 105.29ZM137.46 119.78L131.36 126.01C130.826 126.554 130.154 126.942 129.416 127.132C128.678 127.322 127.902 127.308 127.171 127.089C126.441 126.871 125.784 126.458 125.271 125.894C124.758 125.331 124.408 124.638 124.26 123.89L122.37 114.17C122.225 113.422 122.287 112.649 122.549 111.934C122.811 111.219 123.263 110.59 123.857 110.113C124.451 109.636 125.164 109.331 125.919 109.23C126.674 109.129 127.442 109.236 128.14 109.54L136.14 113.02C136.762 113.29 137.309 113.707 137.733 114.235C138.158 114.764 138.448 115.388 138.577 116.053C138.707 116.718 138.674 117.405 138.479 118.054C138.284 118.704 137.935 119.296 137.46 119.78Z" fill="#1B5A96"/>
<path d="M136.26 168.73L131.97 171.43C131.492 171.731 130.959 171.935 130.403 172.03C129.846 172.125 129.276 172.109 128.725 171.984C128.175 171.858 127.654 171.626 127.193 171.299C126.733 170.972 126.341 170.558 126.04 170.08L123.34 165.79C122.736 164.827 122.539 163.664 122.792 162.556C123.045 161.448 123.728 160.485 124.69 159.88L128.98 157.17C129.943 156.565 131.107 156.366 132.217 156.617C133.326 156.868 134.291 157.549 134.9 158.51L137.6 162.82C138.205 163.782 138.403 164.944 138.152 166.052C137.901 167.16 137.22 168.123 136.26 168.73Z" fill="#FB9100"/>
<path d="M129.93 54.1202L126.93 56.0202C126.596 56.2317 126.223 56.3749 125.833 56.4416C125.442 56.5083 125.043 56.4972 124.657 56.4089C124.272 56.3206 123.907 56.1569 123.585 55.9271C123.263 55.6973 122.989 55.4061 122.78 55.0702L120.88 52.0702C120.672 51.7331 120.533 51.3583 120.471 50.9673C120.409 50.5762 120.425 50.1768 120.518 49.7919C120.611 49.4071 120.779 49.0444 121.013 48.7249C121.247 48.4054 121.541 48.1353 121.88 47.9302L124.88 46.0302C125.214 45.8183 125.586 45.6744 125.976 45.607C126.366 45.5395 126.765 45.5497 127.151 45.6371C127.536 45.7245 127.901 45.8872 128.223 46.116C128.546 46.3448 128.82 46.6351 129.03 46.9702L130.92 49.9702C131.13 50.307 131.271 50.6822 131.334 51.0738C131.398 51.4655 131.383 51.8659 131.291 52.2519C131.199 52.6378 131.032 53.0017 130.798 53.3224C130.564 53.6431 130.269 53.9143 129.93 54.1202Z" fill="#1B5A96"/>
<path d="M160.67 71.7202L157.44 73.7202C156.716 74.1737 155.843 74.3231 155.009 74.1358C154.176 73.9485 153.45 73.4398 152.99 72.7202L150.99 69.4902C150.537 68.7679 150.388 67.8959 150.575 67.0641C150.763 66.2324 151.271 65.5084 151.99 65.0502L155.22 63.0502C155.944 62.5966 156.817 62.4472 157.651 62.6345C158.484 62.8218 159.21 63.3306 159.67 64.0502L161.67 67.2802C162.126 68.0017 162.276 68.8746 162.089 69.7071C161.901 70.5396 161.391 71.2637 160.67 71.7202Z" fill="#FB9100"/>
</g>
</g>
<defs>
<clipPath id="clip0_118_275">
<rect width="570" height="324" fill="white"/>
</clipPath>
<clipPath id="clip1_118_275">
<rect width="357.86" height="263.15" fill="white" transform="translate(106 30)"/>
</clipPath>
</defs>
</svg>
