<svg width="570" height="322" viewBox="0 0 570 322" fill="none" xmlns="http://www.w3.org/2000/svg">
<path d="M420.62 291.93L420.26 292.01L419.71 292.13C419.04 292.13 418.36 292.13 417.71 292.13H415.32H414.32H411.66C411.22 291.27 410.58 290.02 409.66 288.37C409.44 287.98 409.21 287.56 408.96 287.13C408.53 286.36 408.04 285.51 407.5 284.59C407.39 284.41 407.28 284.23 407.18 284.04C406.86 283.48 406.52 282.92 406.18 282.32C405.06 280.46 403.76 278.32 402.24 275.97C396.89 267.52 395.46 258.97 394.06 251.77C393.542 248.547 392.701 245.384 391.55 242.33C390.099 238.857 389.622 235.054 390.17 231.33C390.24 230.75 390.33 230.19 390.43 229.63C390.95 226.68 391.79 223.96 392.23 221.43C393.23 215.6 394.41 211.22 395.23 211.21C395.65 211.21 397.43 215.48 399.11 220.91C399.79 223.08 400.45 225.45 401 227.8C401.811 230.975 402.294 234.226 402.44 237.5C402.54 243.5 404.44 249.06 407.37 255.2C408.15 256.813 408.993 258.48 409.9 260.2C410.64 261.607 411.417 263.06 412.23 264.56L412.49 265.05L413.12 266.2C414.683 269.159 415.982 272.252 417 275.44C417.4 276.66 417.76 277.86 418.08 279.03C418.77 281.53 419.29 283.88 419.68 285.87C419.85 286.79 420 287.63 420.12 288.37C420.12 288.54 420.18 288.7 420.2 288.86C420.29 289.41 420.37 289.91 420.43 290.32C420.56 291.35 420.62 291.93 420.62 291.93Z" fill="#00887D"/>
<path d="M395.2 217.51L395.53 220.81C395.71 222.9 395.99 225.96 396.31 229.52C396.45 231.31 396.61 233.26 396.78 235.33C397.006 237.448 397.503 239.528 398.26 241.52C399.8 245.71 402.13 249.94 403.94 254.52C405.501 259 406.836 263.556 407.94 268.17C408.952 272.145 410.231 276.047 411.77 279.85L414.89 288.01L416.05 291.12L414.68 288.12L411.14 280.12C409.442 276.348 408.031 272.454 406.92 268.47C405.63 264.13 404.57 259.41 402.85 254.98C401.13 250.55 398.79 246.28 397.29 241.98C396.545 239.892 396.091 237.711 395.94 235.5C395.84 233.43 395.75 231.5 395.66 229.66C395.52 226.09 395.41 223.03 395.33 220.93C395.25 218.83 395.2 217.51 395.2 217.51Z" fill="#04B5A4"/>
<path d="M461.3 218.72C455.56 224.77 450.16 233.72 448.84 247.43C447.52 261.14 446.78 253.77 436.84 268.48C431.23 276.79 430.01 284.12 430 288.93C430.003 289.909 430.059 290.887 430.17 291.86C427.91 291.86 425.17 291.74 422.17 291.53V291.43C422.17 291.06 422.17 290.66 422.23 290.25C422.22 290.087 422.22 289.923 422.23 289.76C422.23 289.29 422.3 288.76 422.37 288.31C422.37 288.16 422.37 288 422.43 287.83C422.62 286.26 422.9 284.57 423.25 282.83C423.33 282.42 423.42 282 423.5 281.59C424.05 279.03 424.73 276.33 425.5 273.59C427.76 265.33 430.68 256.8 432.62 251.03C433.35 248.87 433.93 247.11 434.31 245.88C435.463 242.3 436.953 238.838 438.76 235.54C441.91 229.64 446.22 223.63 450.76 221.05C458.18 216.82 466.05 205.82 467.76 207.05C469.47 208.28 467 212.67 461.3 218.72Z" fill="#04B5A4"/>
<path d="M464.62 211C464.62 211 463.91 212.08 462.57 213.9C460.718 216.416 458.714 218.817 456.57 221.09C455.22 222.51 453.62 223.86 452.2 225.51C450.685 227.217 449.36 229.085 448.25 231.08C447.074 233.213 446.139 235.471 445.46 237.81C445.1 239.01 444.84 240.22 444.55 241.48C444.26 242.759 443.9 244.021 443.47 245.26C441.69 250.21 439.02 254.68 436.79 258.93C434.56 263.18 432.79 267.32 430.97 270.76C429.47 273.472 428.27 276.339 427.39 279.31C427.172 280.154 426.999 281.008 426.87 281.87C426.78 282.47 426.74 282.78 426.74 282.78C426.74 282.78 426.74 282.46 426.8 281.86C426.86 281.26 426.94 280.37 427.13 279.26C427.824 276.202 428.882 273.237 430.28 270.43C431.08 268.67 431.94 266.77 432.8 264.74C433.66 262.71 434.63 260.54 435.73 258.38C437.88 254.04 440.51 249.6 442.18 244.81C442.605 243.625 442.962 242.416 443.25 241.19C443.53 239.95 443.83 238.66 444.25 237.44C444.968 234.996 445.975 232.646 447.25 230.44C448.44 228.394 449.87 226.497 451.51 224.79C453.05 223.14 454.72 221.79 456.07 220.5C458.293 218.337 460.405 216.064 462.4 213.69C463.83 212 464.62 211 464.62 211Z" fill="#00887D"/>
<path d="M426.7 238.18C426.58 244.61 426.4 273.04 424.2 288.53C424.02 289.77 423.83 290.94 423.62 291.99C422.55 292.04 421.43 292.09 420.26 292.11H419.71C419.04 292.11 418.36 292.11 417.71 292.11H416.63C416.91 291.02 417.22 289.73 417.53 288.27C419.07 280.91 420.47 269.38 417.43 258.92C412.43 241.86 409.52 248.65 412.43 235.2C415.34 221.75 412.97 211.58 409.37 204.06C405.77 196.54 404.76 191.49 406.78 190.89C408.8 190.29 412.92 203.16 418.69 209.46C424.46 215.76 426.83 230.86 426.7 238.18Z" fill="#00887D"/>
<path d="M408.55 195.75C408.55 195.75 409.02 197.06 409.96 199.3C411.22 202.404 412.659 205.433 414.27 208.37C415.46 210.298 416.522 212.303 417.45 214.37C418.443 216.724 419.139 219.193 419.52 221.72C419.906 224.423 419.977 227.161 419.73 229.88C419.445 232.593 419.445 235.327 419.73 238.04C420.31 243.5 421.61 248.94 422.17 254.17C422.677 258.922 422.807 263.707 422.56 268.48C422.406 271.834 422.032 275.175 421.44 278.48C420.99 280.87 420.6 282.21 420.6 282.21C420.6 282.21 420.9 280.85 421.18 278.44C422.079 270.404 422.012 262.29 420.98 254.27C420.32 249.13 418.98 243.73 418.38 238.12C418.08 235.325 418.08 232.505 418.38 229.71C418.636 227.088 418.606 224.446 418.29 221.83C417.968 219.387 417.36 216.991 416.48 214.69C415.64 212.626 414.661 210.621 413.55 208.69C412.04 205.673 410.74 202.556 409.66 199.36C408.92 197.09 408.55 195.75 408.55 195.75Z" fill="#04B5A4"/>
<path d="M437.37 225.7C436.712 228.663 436.278 231.672 436.07 234.7C435.29 243.81 435.16 254.9 431.26 266.7C430.9 267.78 430.52 268.85 430.1 269.94C428 275.35 426.4 279.75 425.19 283.23L424.31 285.81C424 286.72 423.73 287.54 423.49 288.28C423.34 288.77 423.19 289.22 423.06 289.63L422.3 292.1H419.92H418.92H416.25H415.01L413.35 292.05C413.35 291.4 413.35 290.54 413.44 289.49V289.43V288.7C413.44 288.6 413.44 288.5 413.44 288.4C413.44 287.99 413.49 287.57 413.52 287.13C413.62 285.47 413.76 283.56 413.97 281.46C414.13 279.86 414.32 278.15 414.56 276.38C414.56 276.26 414.56 276.14 414.61 276C415.123 272.141 415.844 268.312 416.77 264.53C416.86 264.15 416.96 263.78 417.06 263.41C417.4 262.13 417.76 260.87 418.16 259.64C418.85 257.51 419.51 255.47 420.16 253.49C421.65 248.84 422.96 244.49 423.95 240.42C425.581 234.29 426.256 227.946 425.95 221.61C425.802 218.944 425.829 216.272 426.03 213.61C426.78 201.77 429.81 187.25 430.48 187.14C431.32 187.01 432.91 192.31 434.53 199.46C436.15 206.61 440 214.8 437.37 225.7Z" fill="#04B5A4"/>
<path d="M431.18 195.11C431.18 195.11 431.27 196.64 431.44 199.31C431.61 201.98 431.78 205.84 432.01 210.38C432.11 212.67 432.22 215.16 432.34 217.78C432.42 220.576 432.192 223.373 431.66 226.12C430.66 231.82 428.72 237.66 427.43 243.58C426.14 249.5 425.59 255.58 424.74 261.28C424.033 266.473 423.014 271.619 421.69 276.69L418.94 287.43L417.86 291.49L418.68 287.37C419.23 284.76 420.02 280.97 420.95 276.52C422.085 271.435 422.956 266.295 423.56 261.12C424.29 255.45 424.85 249.35 426.11 243.3C427.37 237.25 429.37 231.47 430.49 225.9C431.052 223.24 431.34 220.529 431.35 217.81C431.35 215.18 431.28 212.7 431.25 210.41C431.25 205.86 431.19 201.99 431.17 199.32C431.15 196.65 431.18 195.11 431.18 195.11Z" fill="#00887D"/>
<path d="M414.85 292.18H414.31H411.65H410.4C409.88 291.18 409.4 290.02 408.87 288.78C408.87 288.68 408.79 288.58 408.76 288.48C408.27 287.234 407.849 285.962 407.5 284.67C406.847 282.313 406.379 279.909 406.1 277.48C405.462 272.736 405.431 267.931 406.01 263.18C406.09 262.59 406.17 262.02 406.27 261.45C406.61 259.29 407.03 257.33 407.36 255.26C407.803 252.701 408 250.106 407.95 247.51C407.74 236.83 404.67 234.78 401.38 228.62L400.99 227.86C399.999 225.678 399.361 223.352 399.1 220.97C398.708 216.617 398.785 212.236 399.33 207.9C399.94 201.33 399.12 192.3 400.56 192.09C402 191.88 409.18 205.44 411.85 218.37C412.51 221.57 413.11 224.5 413.59 227.31C415.01 234.807 415.179 242.487 414.09 250.04C413.88 251.59 413.61 253.21 413.29 254.92C412.796 257.757 412.531 260.63 412.5 263.51C412.5 264.04 412.5 264.57 412.5 265.12C412.575 272.306 413.107 279.481 414.09 286.6C414.09 286.96 414.18 287.3 414.22 287.65C414.26 288 414.28 288.14 414.32 288.39C414.49 289.69 414.67 291 414.85 292.18Z" fill="#04B5A4"/>
<path d="M402.68 200.9C402.68 200.9 402.74 202.29 403.06 204.69C403.485 208.004 404.11 211.29 404.93 214.53C405.479 216.688 406.147 218.815 406.93 220.9C407.74 223.12 408.67 225.49 409.47 227.97C411.287 233.159 412.384 238.573 412.73 244.06C412.812 246.868 412.546 249.676 411.94 252.42C411.42 255.1 410.94 257.73 410.52 260.29C409.756 264.938 409.358 269.639 409.33 274.35C409.313 277.696 409.547 281.039 410.03 284.35C410.16 285.56 410.38 286.49 410.48 287.13C410.58 287.77 410.66 288.13 410.66 288.13C410.66 288.13 410.57 287.8 410.41 287.13C410.25 286.46 409.98 285.59 409.77 284.39C409.083 281.097 408.679 277.752 408.56 274.39C408.417 269.623 408.678 264.853 409.34 260.13C409.69 257.54 410.16 254.88 410.65 252.2C411.222 249.546 411.468 246.833 411.38 244.12C411.058 238.757 410.05 233.457 408.38 228.35C407.63 225.87 406.79 223.53 406.04 221.24C405.344 219.098 404.756 216.921 404.28 214.72C403.578 211.424 403.114 208.082 402.89 204.72C402.65 202.29 402.68 200.9 402.68 200.9Z" fill="#00887D"/>
<path d="M411.65 292.15H410.4L408.74 292.1C407.44 292.05 406.19 291.99 405.04 291.91C404.83 290.91 404.57 289.85 404.29 288.68C402.21 280.16 398.29 267.19 392.89 261.68C384.47 253.06 383.89 242.38 384.47 230.06C385.05 217.74 388.38 203.17 388.38 203.17C388.078 210.918 388.413 218.677 389.38 226.37C389.59 228.02 389.84 229.7 390.14 231.37C390.23 231.88 390.33 232.37 390.43 232.92C391.141 236.676 392.575 240.259 394.65 243.47C397.58 248.09 401.27 251.72 404.19 257C404.988 258.429 405.683 259.912 406.27 261.44C406.937 263.185 407.475 264.976 407.88 266.8C408.23 268.34 408.58 269.85 408.88 271.3C409.27 272.96 409.65 274.56 410.02 276.07L410.39 277.54C411.48 281.94 412.45 285.62 413.2 288.38L413.62 289.89C413.88 290.82 414.1 291.61 414.28 292.24L411.65 292.15Z" fill="#04B5A4"/>
<path d="M387.14 219C387.14 219 385.64 236.79 389.2 244.18C392.76 251.57 399.87 257 402.47 269C403.972 276.075 406.128 282.994 408.91 289.67L387.14 219Z" fill="#00887D"/>
<path d="M387.14 219C387.14 219 387.09 220.17 387.08 222.24C387.07 224.31 387.08 227.24 387.26 230.77C387.385 234.749 388.024 238.695 389.16 242.51C390.7 246.51 393.8 250.13 396.47 254.04C399.195 257.862 401.226 262.134 402.47 266.66C403.02 268.86 403.39 270.93 403.86 272.9C404.33 274.87 404.78 276.72 405.27 278.41C406.22 281.81 407.08 284.63 407.77 286.57C408.46 288.51 408.86 289.63 408.86 289.63C408.86 289.63 408.33 288.57 407.52 286.63C406.71 284.69 405.61 281.98 404.52 278.63C403.98 276.95 403.43 275.1 402.88 273.14C402.33 271.18 401.88 269.06 401.31 266.98C399.996 262.617 397.968 258.501 395.31 254.8C392.72 250.93 389.57 247.27 387.99 242.9C386.927 238.953 386.412 234.878 386.46 230.79C386.41 227.24 386.63 224.29 386.78 222.23C386.93 220.17 387.14 219 387.14 219Z" fill="#00887D"/>
<path d="M404.19 49.6699H152.93C149.968 49.6726 147.129 50.8503 145.035 52.9445C142.94 55.0387 141.763 57.8783 141.76 60.8399V281C141.76 283.963 142.937 286.805 145.031 288.902C147.126 290.998 149.967 292.177 152.93 292.18H404.19C405.658 292.18 407.111 291.891 408.467 291.329C409.823 290.767 411.055 289.943 412.092 288.905C413.129 287.866 413.952 286.634 414.513 285.278C415.073 283.921 415.361 282.468 415.36 281V60.8399C415.36 57.8775 414.183 55.0363 412.088 52.9415C409.994 50.8468 407.152 49.6699 404.19 49.6699ZM410.73 277.92C410.73 282.99 405.91 287.11 399.96 287.11H157.16C151.22 287.11 146.4 282.99 146.4 277.92V90.9999C146.4 85.9199 151.22 81.8099 157.16 81.8099H400C406 81.8099 410.77 85.9199 410.77 90.9999L410.73 277.92Z" fill="#1B5A96"/>
<path d="M162.08 70.6098C163.759 70.6098 165.12 69.2487 165.12 67.5698C165.12 65.8908 163.759 64.5298 162.08 64.5298C160.401 64.5298 159.04 65.8908 159.04 67.5698C159.04 69.2487 160.401 70.6098 162.08 70.6098Z" fill="white"/>
<path d="M183.14 70.6098C184.819 70.6098 186.18 69.2487 186.18 67.5698C186.18 65.8908 184.819 64.5298 183.14 64.5298C181.461 64.5298 180.1 65.8908 180.1 67.5698C180.1 69.2487 181.461 70.6098 183.14 70.6098Z" fill="#FFF6EB"/>
<path d="M172.61 70.6098C174.289 70.6098 175.65 69.2487 175.65 67.5698C175.65 65.8908 174.289 64.5298 172.61 64.5298C170.931 64.5298 169.57 65.8908 169.57 67.5698C169.57 69.2487 170.931 70.6098 172.61 70.6098Z" fill="#FFF6EB"/>
<path d="M273.47 234.03H270.56V244.35H273.47V234.03Z" fill="#1B5A96"/>
<path d="M277.18 240.65V237.74H266.86V240.65H277.18Z" fill="#1B5A96"/>
<path d="M388.91 96.0898H162.84C161.614 96.0898 160.62 97.0838 160.62 98.3098V108.62C160.62 109.846 161.614 110.84 162.84 110.84H388.91C390.136 110.84 391.13 109.846 391.13 108.62V98.3098C391.13 97.0838 390.136 96.0898 388.91 96.0898Z" stroke="#000007" stroke-width="0.5" stroke-miterlimit="10"/>
<path d="M381.97 105.62C383.654 105.62 385.02 104.254 385.02 102.57C385.02 100.886 383.654 99.52 381.97 99.52C380.285 99.52 378.92 100.886 378.92 102.57C378.92 104.254 380.285 105.62 381.97 105.62Z" stroke="#544CD1" stroke-width="1.19" stroke-miterlimit="10"/>
<path d="M379.82 104.73L376.8 107.74" stroke="#544CD1" stroke-width="1.19" stroke-miterlimit="10"/>
<path d="M381.74 126.65H334.33C331.016 126.65 328.33 129.336 328.33 132.65V185.31C328.33 188.624 331.016 191.31 334.33 191.31H381.74C385.054 191.31 387.74 188.624 387.74 185.31V132.65C387.74 129.336 385.054 126.65 381.74 126.65Z" stroke="#231F20" stroke-width="0.87" stroke-miterlimit="10" stroke-dasharray="3.62 3.62"/>
<path d="M359.5 153.81H356.59V164.13H359.5V153.81Z" fill="#1B5A96"/>
<path d="M363.21 160.43V157.52H352.89V160.43H363.21Z" fill="#1B5A96"/>
<path d="M295.72 206.86H248.31C244.996 206.86 242.31 209.546 242.31 212.86V265.52C242.31 268.834 244.996 271.52 248.31 271.52H295.72C299.034 271.52 301.72 268.834 301.72 265.52V212.86C301.72 209.546 299.034 206.86 295.72 206.86Z" stroke="#231F20" stroke-width="0.87" stroke-miterlimit="10" stroke-dasharray="3.62 3.62"/>
<path d="M226.01 121.67V277.96" stroke="#FB9100" stroke-width="1.19" stroke-miterlimit="10"/>
<path d="M211.87 127.28H161.77V132.42H211.87V127.28Z" fill="#1B5A96"/>
<path d="M211.87 152.96H161.77V158.1H211.87V152.96Z" fill="#FB9100"/>
<path d="M211.87 178.64H176.49V183.78H211.87V178.64Z" fill="#1B5A96"/>
<path d="M211.87 204.32H161.77V209.46H211.87V204.32Z" fill="#1B5A96"/>
<path d="M211.87 230H161.77V235.14H211.87V230Z" fill="#1B5A96"/>
<path d="M211.87 255.69H176.49V260.83H211.87V255.69Z" fill="#1B5A96"/>
<path d="M334.33 206.86C331.016 206.86 328.33 209.546 328.33 212.86V265.52C328.33 268.834 331.016 271.52 334.33 271.52H381.75C385.064 271.52 387.75 268.834 387.75 265.52V212.86C387.75 209.546 385.064 206.86 381.75 206.86H334.33ZM359.6 250.74H357.76C345.48 250.74 339.67 246.24 339.45 245.59C339.3 245.147 341.241 242.878 342.495 241.475C343.161 240.73 343.65 239.846 343.919 238.883C344.592 236.476 345.98 231.811 347.01 230.35C348.42 228.35 357.44 228.51 357.44 228.51C357.44 228.51 366.44 228.42 368.07 230.35C369.291 231.796 371.265 236.688 372.178 239.051C372.507 239.904 373.013 240.676 373.663 241.319C375.063 242.705 377.436 245.137 377.33 245.59C377.18 246.23 371.87 250.74 359.6 250.74Z" fill="#FB9100"/>
<path d="M372.67 240.35C372.67 240.35 358.36 247.35 343.52 240.35" stroke="#232036" stroke-width="0.21" stroke-linecap="round" stroke-linejoin="round"/>
<path d="M248.31 126.65C244.996 126.65 242.31 129.336 242.31 132.65V185.3C242.31 188.614 244.996 191.3 248.31 191.3H295.72C299.034 191.3 301.72 188.614 301.72 185.3V132.65C301.72 129.336 299.034 126.65 295.72 126.65H248.31ZM282.002 158.881C281.877 159.622 281.871 160.379 282.009 161.117L284.455 174.172C284.935 176.733 283.636 179.211 281.076 179.699C279.062 180.084 276.246 180.421 272.47 180.47H271.57C267.692 180.42 264.817 180.065 262.781 179.668C260.283 179.181 258.975 176.787 259.357 174.271L261.351 161.118C261.463 160.379 261.432 159.627 261.282 158.894C260.75 156.283 260.413 153.636 260.275 150.975C260.247 150.444 259.729 150.075 259.221 150.233C258.824 150.356 258.398 150.156 258.239 149.772L256.921 146.592C256.227 144.918 256.551 142.941 258.026 141.89C258.734 141.386 259.484 140.94 260.27 140.56C262.963 139.63 265.354 142.138 267.571 143.927C268.539 144.708 269.753 145.07 271.05 145.07H271.74C273.003 145.07 274.178 144.727 275.108 143.988C277.329 142.226 279.678 139.642 282.36 140.56C283.212 140.964 284.025 141.441 284.791 141.984C286.216 142.995 286.574 144.887 285.956 146.521L284.732 149.758C284.585 150.147 284.161 150.355 283.763 150.233C283.255 150.078 282.742 150.459 282.733 150.99C282.688 153.635 282.444 156.273 282.002 158.881Z" fill="#FB9100"/>
<path d="M75.87 150L78.4 144.22C78.4 144.22 82.6 146.7 84.29 145.42C85.98 144.14 86.37 139.04 86.53 138.89C86.69 138.74 87.67 139.61 88.02 139.41C88.37 139.21 87.67 134.86 87.81 132.62C87.95 130.38 90 123.94 83 122.49C76 121.04 69.83 120.23 68.08 124.6C66.33 128.97 68.2 133.78 67.64 136.81C67.08 139.84 63.52 146 63.52 146L75.87 150Z" fill="#E88E7C"/>
<path d="M67.3001 137.33C66.9301 138.28 71.6601 138.28 72.0901 136.68C72.5201 135.08 73.4301 130.68 75.6101 129.68C77.7901 128.68 78.4301 129.54 78.2901 131.1C78.0446 132.454 77.6104 133.767 77.0001 135L78.0001 135.35C78.0001 135.35 79.2801 132.23 81.2901 132.25C82.2901 132.25 82.2201 131.65 82.4801 131C82.7401 130.35 84.4801 126.23 85.2501 126C86.0201 125.77 88.0001 127.26 88.0001 127.26C88.0001 127.26 90.8901 124.15 90.9401 122.42C90.9901 120.69 86.1001 116.42 79.8201 116.31C73.5401 116.2 69.8201 118.06 68.7001 121.66C67.2235 123.579 66.4535 125.949 66.5201 128.37C66.7701 132.17 68.5101 134.15 67.3001 137.33Z" fill="#06000C"/>
<path d="M88.18 127.56C90.6432 127.56 92.64 125.563 92.64 123.1C92.64 120.637 90.6432 118.64 88.18 118.64C85.7168 118.64 83.72 120.637 83.72 123.1C83.72 125.563 85.7168 127.56 88.18 127.56Z" fill="#06000C"/>
<path d="M85.3031 128.299C86.4341 126.505 86.1921 124.32 84.7625 123.419C83.3329 122.517 81.2571 123.241 80.1261 125.035C78.995 126.829 79.237 129.014 80.6666 129.915C82.0962 130.816 84.172 130.093 85.3031 128.299Z" fill="#232036"/>
<path d="M85.1299 122.5C87.5931 122.5 89.5899 120.503 89.5899 118.04C89.5899 115.577 87.5931 113.58 85.1299 113.58C82.6667 113.58 80.6699 115.577 80.6699 118.04C80.6699 120.503 82.6667 122.5 85.1299 122.5Z" fill="#06000C"/>
<path d="M79.3101 121.16C81.7733 121.16 83.7701 119.163 83.7701 116.7C83.7701 114.237 81.7733 112.24 79.3101 112.24C76.8469 112.24 74.8501 114.237 74.8501 116.7C74.8501 119.163 76.8469 121.16 79.3101 121.16Z" fill="#06000C"/>
<path d="M73.97 123.42C76.4332 123.42 78.43 121.423 78.43 118.96C78.43 116.497 76.4332 114.5 73.97 114.5C71.5068 114.5 69.51 116.497 69.51 118.96C69.51 121.423 71.5068 123.42 73.97 123.42Z" fill="#06000C"/>
<path d="M69.99 127.56C72.4532 127.56 74.45 125.563 74.45 123.1C74.45 120.637 72.4532 118.64 69.99 118.64C67.5268 118.64 65.53 120.637 65.53 123.1C65.53 125.563 67.5268 127.56 69.99 127.56Z" fill="#06000C"/>
<path d="M71.6432 129.037C71.8814 126.586 70.6887 124.464 68.9791 124.298C67.2696 124.131 65.6906 125.984 65.4523 128.436C65.2141 130.888 66.4069 133.01 68.1164 133.176C69.826 133.342 71.405 131.489 71.6432 129.037Z" fill="#06000C"/>
<path d="M87.27 131.54C86.8081 131.195 86.2699 130.965 85.7008 130.871C85.1318 130.777 84.5485 130.822 84 131L87.27 131.54Z" fill="#232036"/>
<path d="M86.0436 133.418C86.0793 133 85.8316 132.637 85.4905 132.608C85.1493 132.579 84.8438 132.894 84.8081 133.313C84.7724 133.731 85.02 134.093 85.3612 134.123C85.7023 134.152 86.0079 133.836 86.0436 133.418Z" fill="#232036"/>
<path d="M86.13 140.78C86.13 140.78 83.92 142.48 83.23 139.46L86.13 140.78Z" fill="white"/>
<path d="M77.9101 129.48C77.9101 129.48 75.4601 127.48 74.5401 128.93C73.6201 130.38 75.2301 133.88 76.4501 135.27L77.9101 129.48Z" fill="#E88E7C"/>
<path d="M77.12 130.38C77.12 130.38 75.69 129.21 75.31 130.18C74.93 131.15 76.58 133.18 76.58 133.18L77.12 130.38Z" fill="#232036"/>
<path d="M78.3101 144.23C76.8324 143.397 75.4304 142.437 74.1201 141.36" stroke="#232036" stroke-width="0.19" stroke-miterlimit="10"/>
<path d="M137.12 199.94V288.02" stroke="#232036" stroke-width="0.41" stroke-miterlimit="10"/>
<path d="M149.3 202.56L137.12 214.06V214.24L125.28 202.39" stroke="#232036" stroke-width="0.41" stroke-miterlimit="10"/>
<path d="M137.12 203.01C162.514 203.01 183.1 199.665 183.1 195.54C183.1 191.414 162.514 188.07 137.12 188.07C111.726 188.07 91.1399 191.414 91.1399 195.54C91.1399 199.665 111.726 203.01 137.12 203.01Z" fill="#C66A05"/>
<path d="M137.12 199.94C162.514 199.94 183.1 196.596 183.1 192.47C183.1 188.344 162.514 185 137.12 185C111.726 185 91.1399 188.344 91.1399 192.47C91.1399 196.596 111.726 199.94 137.12 199.94Z" fill="#C66A05"/>
<path d="M183.1 192.54V195.41L180.65 194.03L183.1 192.54Z" fill="#8585DC"/>
<path d="M91.1399 192.47C91.1399 196.59 111.73 199.94 137.14 199.94C162.55 199.94 183.14 196.59 183.14 192.47" fill="#C66A05"/>
<path d="M154.12 156.86L171.92 157.93V157.52L172.59 156.62C172.59 156.62 173.83 157.2 173.59 158.03L162.89 192.78L145.49 187L154.12 156.86Z" fill="#232036"/>
<path d="M172.62 156.62L161.92 191.37L144.47 185.62L153.1 155.45L172.62 156.62Z" fill="#232036"/>
<path d="M170.03 158.45L154.59 157.52L146.87 184.33L160.6 188.86L170.03 158.45Z" fill="#FFF6EB"/>
<path d="M124.35 188.09L144.47 187.14L155.66 190.83L161.92 191.37L162.94 192.78L124.59 194.13L115.82 188.33V186.81L124.35 188.09Z" fill="#232036"/>
<path d="M161.92 191.37L124.59 192.61L115.82 186.81L144.47 185.62L161.92 191.37Z" fill="#232036"/>
<path d="M172.27 157.79L161.92 191.37L121.95 192.93" stroke="white" stroke-width="0.26" stroke-linecap="round" stroke-linejoin="round"/>
<path d="M83.6899 167.2C83.6899 167.2 86.9999 178 88.2499 178.89C89.4999 179.78 111.33 187.62 111.33 187.62L109.87 193.82C109.87 193.82 88.9999 189 84.1999 186C79.3999 183 75.9199 171.33 75.9199 171.33L83.6899 167.2Z" fill="#E88E7C"/>
<path d="M148.75 285.35C148.75 285.35 149.92 288.79 145.85 289.85C142.855 290.727 139.74 291.125 136.62 291.03C134.41 290.9 133.1 290.41 130.88 290.96C128.66 291.51 126.51 292.8 125.2 291.83C124.12 291.04 124.55 288.34 124.55 288.34L137 286.45L148.75 285.35Z" fill="#FB9100"/>
<path d="M124.55 280.76L122.2 271.42L133.16 270.33L134.43 279.84L132.53 283.32L127.09 283.85L124.55 280.76Z" fill="#E88E7C"/>
<path d="M134.43 279.84C137.056 281.171 139.753 282.356 142.51 283.39C145.12 284.21 148.13 282.88 148.75 285.39C149.37 287.9 142.45 288.39 138.4 288.64C134.35 288.89 131.29 287.78 129.29 288.73C127.29 289.68 124.82 289.05 124.55 288.38C124.28 287.71 124.11 281.47 124.55 280.8C124.55 280.8 125.25 281.96 129.2 281.44C133.15 280.92 134.43 279.84 134.43 279.84Z" fill="#06000C"/>
<path d="M139.82 284.2H139.89C139.919 284.211 139.951 284.217 139.983 284.216C140.014 284.215 140.045 284.208 140.074 284.195C140.103 284.182 140.129 284.163 140.15 284.14C140.172 284.117 140.189 284.09 140.2 284.06L140.75 282.67C140.763 282.64 140.769 282.608 140.769 282.575C140.769 282.542 140.762 282.51 140.749 282.48C140.736 282.45 140.717 282.423 140.693 282.401C140.669 282.378 140.641 282.361 140.61 282.35H140.54C140.51 282.339 140.479 282.334 140.447 282.335C140.416 282.336 140.385 282.343 140.356 282.356C140.327 282.369 140.301 282.387 140.279 282.41C140.258 282.433 140.241 282.461 140.23 282.49L139.68 283.88C139.657 283.941 139.659 284.009 139.685 284.069C139.711 284.128 139.759 284.176 139.82 284.2Z" fill="#FB9100"/>
<path d="M138.58 283.58H138.64C138.67 283.593 138.703 283.599 138.735 283.599C138.768 283.599 138.8 283.592 138.83 283.579C138.86 283.566 138.887 283.547 138.91 283.523C138.932 283.499 138.949 283.471 138.96 283.44L139.5 282.05C139.524 281.99 139.523 281.924 139.499 281.864C139.475 281.804 139.429 281.756 139.37 281.73H139.3C139.239 281.707 139.171 281.709 139.112 281.735C139.052 281.761 139.005 281.809 138.98 281.87L138.44 283.26C138.427 283.29 138.421 283.322 138.421 283.355C138.421 283.388 138.428 283.42 138.441 283.45C138.454 283.48 138.473 283.507 138.497 283.529C138.521 283.552 138.549 283.569 138.58 283.58Z" fill="#FB9100"/>
<path d="M137.14 283H137.21C137.27 283.024 137.336 283.023 137.396 282.999C137.456 282.975 137.504 282.929 137.53 282.87L138.07 281.48C138.093 281.417 138.092 281.348 138.066 281.287C138.04 281.225 137.991 281.176 137.93 281.15H137.87C137.81 281.126 137.743 281.126 137.684 281.151C137.624 281.175 137.576 281.221 137.55 281.28L137 282.67C136.979 282.732 136.981 282.801 137.007 282.861C137.033 282.922 137.08 282.972 137.14 283Z" fill="#FB9100"/>
<path d="M135.72 282.32H135.79C135.85 282.344 135.916 282.343 135.976 282.319C136.036 282.295 136.084 282.249 136.11 282.19L136.65 280.8C136.674 280.74 136.673 280.673 136.649 280.614C136.625 280.554 136.579 280.506 136.52 280.48H136.45C136.39 280.456 136.324 280.457 136.264 280.481C136.204 280.505 136.156 280.551 136.13 280.61L135.59 282.01C135.569 282.069 135.571 282.133 135.595 282.19C135.619 282.247 135.664 282.294 135.72 282.32Z" fill="#FB9100"/>
<path d="M121.58 288.5C121.58 288.5 121.69 292.13 117.49 291.95C114.368 291.912 111.273 291.375 108.32 290.36C106.24 289.59 105.14 288.74 102.86 288.61C100.58 288.48 98.1399 289.08 97.1699 287.77C96.3699 286.7 97.5799 284.24 97.5799 284.24L110 286.08L121.58 288.5Z" fill="#FB9100"/>
<path d="M99.78 277.01L101.76 267.58L112.08 271.4L109.06 280.5L105.83 282.8L100.71 280.9L99.78 277.01Z" fill="#E88E7C"/>
<path d="M109.52 279C111.64 281.044 113.87 282.97 116.2 284.77C118.46 286.32 121.72 285.94 121.58 288.48C121.44 291.02 114.68 289.48 110.73 288.55C106.78 287.62 104.19 285.63 102.01 285.95C99.8299 286.27 97.6399 284.95 97.5799 284.22C97.5199 283.49 99.1899 277.49 99.8099 276.98C99.8099 276.98 100.13 278.29 104.06 278.98C107.99 279.67 109.52 279 109.52 279Z" fill="#06000C"/>
<path d="M113.39 284.77V284.82C113.437 284.866 113.5 284.892 113.565 284.892C113.63 284.892 113.693 284.866 113.74 284.82L114.67 283.65C114.714 283.602 114.738 283.54 114.738 283.475C114.738 283.41 114.714 283.348 114.67 283.3H114.61C114.588 283.277 114.562 283.258 114.533 283.245C114.504 283.232 114.472 283.225 114.44 283.225C114.408 283.225 114.376 283.232 114.347 283.245C114.318 283.258 114.292 283.277 114.27 283.3L113.34 284.47C113.312 284.518 113.302 284.574 113.311 284.629C113.32 284.684 113.348 284.734 113.39 284.77Z" fill="#FB9100"/>
<path d="M112.38 283.82H112.44C112.462 283.844 112.488 283.863 112.517 283.876C112.546 283.888 112.578 283.895 112.61 283.895C112.642 283.895 112.674 283.888 112.703 283.876C112.732 283.863 112.758 283.844 112.78 283.82L113.71 282.66C113.734 282.638 113.753 282.61 113.766 282.58C113.779 282.55 113.786 282.518 113.786 282.485C113.786 282.452 113.779 282.42 113.766 282.39C113.753 282.36 113.734 282.332 113.71 282.31V282.26C113.688 282.238 113.661 282.22 113.632 282.208C113.603 282.196 113.572 282.189 113.54 282.189C113.508 282.189 113.477 282.196 113.448 282.208C113.419 282.22 113.392 282.238 113.37 282.26L112.44 283.43C112.407 283.449 112.378 283.474 112.356 283.506C112.335 283.537 112.32 283.573 112.315 283.61C112.309 283.648 112.312 283.686 112.323 283.723C112.334 283.759 112.354 283.792 112.38 283.82Z" fill="#FB9100"/>
<path d="M111.2 282.79C111.247 282.836 111.31 282.861 111.375 282.861C111.441 282.861 111.503 282.836 111.55 282.79L112.48 281.62C112.524 281.572 112.548 281.51 112.548 281.445C112.548 281.38 112.524 281.318 112.48 281.27H112.42C112.374 281.227 112.313 281.203 112.25 281.203C112.187 281.203 112.126 281.227 112.08 281.27L111.15 282.44C111.13 282.466 111.116 282.496 111.108 282.528C111.1 282.56 111.098 282.593 111.103 282.625C111.107 282.658 111.118 282.689 111.135 282.717C111.152 282.745 111.174 282.77 111.2 282.79Z" fill="#FB9100"/>
<path d="M110 281.77V281.82C110.048 281.864 110.11 281.888 110.175 281.888C110.24 281.888 110.302 281.864 110.35 281.82L111.28 280.65C111.323 280.602 111.348 280.54 111.348 280.475C111.348 280.41 111.323 280.348 111.28 280.3H111.22C111.198 280.278 111.171 280.26 111.142 280.248C111.113 280.236 111.082 280.229 111.05 280.229C111.018 280.229 110.987 280.236 110.958 280.248C110.929 280.26 110.902 280.278 110.88 280.3L109.95 281.47C109.924 281.519 109.915 281.574 109.924 281.629C109.933 281.683 109.96 281.733 110 281.77Z" fill="#FB9100"/>
<path d="M85.2799 196.22C86.8835 198.621 88.808 200.791 90.9999 202.67C94.5399 205.67 124.51 226.83 126.6 231.88C128.69 236.93 136.33 274.93 136.33 274.93C136.33 274.93 131.11 279.1 122.19 277.58L109.45 238.58L71.6499 199.24L73.7399 196.4L85.2799 196.22Z" fill="#1B5A96"/>
<path d="M58 199.45C58 199.45 55.47 212.85 61.54 218.54C67.61 224.23 106 237.8 106 237.8L98.34 273.34C98.34 273.34 103.27 278.12 112.34 277.49C112.34 277.49 120.88 252.56 122.9 246.62C124.92 240.68 132.14 228.98 119.9 221.2C106.75 212.87 85.24 201.7 85.24 201.7L83.36 195.15L58 199.45Z" fill="#1B5A96"/>
<path d="M118 261C120.1 254.93 122.12 249.07 123 246.63C123.94 243.86 126 239.85 126.71 235.57" stroke="#232036" stroke-width="0.19" stroke-miterlimit="10"/>
<path d="M65.82 141.41C59.7834 146.238 55.8429 153.209 54.82 160.87C53.3 173.52 55.68 197.8 56.82 200.96C56.82 200.96 62.56 201.45 68.36 201.33C79.3 201.1 85.55 196.28 85.55 196.28C85.55 196.28 84.92 182.28 84.79 175.67C84.66 169.06 80.95 155.13 76.39 148.67L65.82 141.41Z" fill="#FB9100"/>
<path d="M68.3899 180.6C68.3899 180.6 69.1399 182.54 72.8799 180.79C76.6199 179.04 75.9299 173.31 75.9299 173.31L68.8199 174.56L68.3899 180.6Z" fill="#232036"/>
<path d="M82.3 175C82.3 175 84.3 182 84.96 182.59C85.62 183.18 111.24 188.25 111.24 188.25L109.76 194.16C109.76 194.16 84.58 195.16 79.52 191.82C74.46 188.48 69.23 175.42 69.23 175.42L76.42 174.42L82.3 175Z" fill="#E88E7C"/>
<path d="M85 182.56C85.63 183.19 111.28 188.22 111.28 188.22" stroke="#232036" stroke-width="0.19" stroke-miterlimit="10"/>
<path d="M52.77 233.46C50.7726 237.977 49.7764 242.872 49.85 247.81V291.94" stroke="#232036" stroke-width="0.84" stroke-miterlimit="10"/>
<path d="M62.4299 233.46C60.4325 237.977 59.4364 242.872 59.5099 247.81V292" stroke="#232036" stroke-width="0.84" stroke-miterlimit="10"/>
<path d="M80 233.46C81.9974 237.977 82.9935 242.872 82.92 247.81V291.94" stroke="#232036" stroke-width="0.84" stroke-miterlimit="10"/>
<path d="M89.0601 233.46C91.0616 237.976 92.0645 242.871 92.0001 247.81V292" stroke="#232036" stroke-width="0.84" stroke-miterlimit="10"/>
<path d="M53.79 190.05C53.5 188.58 52.45 183.17 47.59 182.21C44.17 181.53 39.44 181.37 41.54 192.74C43.64 204.11 44.69 210.59 44.69 218.12C44.69 225.65 46.27 234.92 56.59 236.12C66.91 237.32 91.64 237.44 93.92 234.99C96.2 232.54 92.92 228.56 90.17 227.51C87.42 226.46 61.32 225.45 59.39 223.35C57.46 221.25 56.07 201.59 53.79 190.05Z" fill="#C66A05"/>
<path d="M52.84 187.1C52.84 187.1 55.51 190.83 57.9 199.23C60.29 207.63 64.65 214.85 73.47 216.53C91.05 219.87 96.47 229.28 94.54 233.77C92.61 238.26 63.92 232.1 63.92 232.1C63.92 232.1 50.45 223.59 50.54 222.16C50.63 220.73 52.84 187.1 52.84 187.1Z" fill="#C66A05"/>
<path d="M61.6899 159.73C61.6899 159.73 64.9099 172.32 68.3899 180.6C68.3899 180.6 69.2299 173.5 82.2999 174.97C82.2999 174.97 78.3799 158.34 76.9899 155.62C75.5999 152.9 70.9199 151.7 67.5699 152.91C64.2199 154.12 61.6899 159.73 61.6899 159.73Z" fill="#FB9100"/>
<path d="M61.6899 159.73C61.6899 159.73 64.9099 172.32 68.3899 180.6" stroke="#232036" stroke-width="0.19" stroke-miterlimit="10"/>
<path d="M108 187.92C109.642 187.735 111.226 187.207 112.65 186.37C114.8 185.04 116.24 184.15 118.65 184.18C121.06 184.21 123.26 183.91 124.99 185.18C126.216 186.177 127.285 187.354 128.16 188.67C128.16 188.67 127.3 189.67 126.01 188.5C125.215 187.776 124.323 187.167 123.36 186.69L121.14 186.98C121.14 186.98 123.34 188.88 123.14 189.36C123.14 189.36 124.52 190.55 124.14 191.36C124.14 191.36 125.14 193.52 123.99 194.5C122.84 195.48 120.99 196.13 120.38 194.88C120.38 194.88 122.01 193.88 121.38 193.37C120.75 192.86 118.38 193.37 116.86 193.85C115.34 194.33 112.27 195.35 110.38 195.23C108.598 195.027 106.833 194.693 105.1 194.23L108 187.92Z" fill="#E88E7C"/>
<path d="M122 186.08C121.107 185.561 120.144 185.174 119.14 184.93" stroke="#232036" stroke-width="0.19" stroke-miterlimit="10"/>
<path d="M123.99 188.47L120.9 187.36" stroke="#232036" stroke-width="0.19" stroke-miterlimit="10"/>
<path d="M124.94 190.5C124.94 190.5 122.2 189.42 121.07 189.56" stroke="#232036" stroke-width="0.19" stroke-miterlimit="10"/>
<path d="M82.3 174.97L78 160.25" stroke="#232036" stroke-width="0.19" stroke-miterlimit="10"/>
<path d="M136.34 96.7798C155.383 96.7798 170.82 81.3426 170.82 62.2998C170.82 43.257 155.383 27.8198 136.34 27.8198C117.297 27.8198 101.86 43.257 101.86 62.2998C101.86 81.3426 117.297 96.7798 136.34 96.7798Z" fill="#FB9100"/>
<path d="M149.21 76.2798H129C128.643 76.2799 128.295 76.1611 128.013 75.942C127.73 75.7229 127.529 75.4161 127.44 75.0698L121.44 51.6098C121.196 50.6734 120.649 49.8443 119.883 49.2525C119.118 48.6607 118.178 48.3397 117.21 48.3398H114V51.2498" stroke="#FFF6EB" stroke-miterlimit="10"/>
<path d="M122.11 54.3799H153.91C154.093 54.3786 154.273 54.4193 154.437 54.4989C154.602 54.5785 154.745 54.6948 154.858 54.8389C154.97 54.9829 155.047 55.1508 155.084 55.3296C155.121 55.5084 155.116 55.6933 155.07 55.8699L151.36 70.2599C151.295 70.518 151.146 70.747 150.935 70.9101C150.725 71.0733 150.466 71.1612 150.2 71.1599H126.44" stroke="#FFF6EB" stroke-miterlimit="10"/>
<path d="M148.85 80.1101C149.894 80.1101 150.74 79.2639 150.74 78.2201C150.74 77.1763 149.894 76.3301 148.85 76.3301C147.806 76.3301 146.96 77.1763 146.96 78.2201C146.96 79.2639 147.806 80.1101 148.85 80.1101Z" stroke="#FFF6EB" stroke-miterlimit="10"/>
<path d="M132.32 80.1101C133.364 80.1101 134.21 79.2639 134.21 78.2201C134.21 77.1763 133.364 76.3301 132.32 76.3301C131.276 76.3301 130.43 77.1763 130.43 78.2201C130.43 79.2639 131.276 80.1101 132.32 80.1101Z" stroke="#FFF6EB" stroke-miterlimit="10"/>
<path d="M129.47 54.2998L133.47 71.1098" stroke="#FFF6EB" stroke-miterlimit="10"/>
<path d="M139.03 54.3701L139.25 71.0301" stroke="#FFF6EB" stroke-miterlimit="10"/>
<path d="M148.44 54.2998L144.43 71.1098" stroke="#FFF6EB" stroke-miterlimit="10"/>
<path d="M153.15 62.73H124.37" stroke="#FFF6EB" stroke-miterlimit="10"/>
<path d="M513.81 256.15L518.93 265.68L513.01 271.74L502.5 256.99L513.81 256.15Z" fill="#E88E7C"/>
<path d="M516 284.06L517.93 285.68L522.19 281.73L521.37 272.58L518.97 265.68L513 271.75C513.592 272.443 514.08 273.218 514.45 274.05C514.72 275.66 516 284.06 516 284.06Z" fill="#E88E7C"/>
<path d="M518.92 265.65C520.192 265.632 521.426 266.08 522.39 266.91C524.08 268.32 526.44 272.35 528.98 274.21L527.16 276.37L523 272.92L523.74 281.18L522.8 282.3L515.41 291.14C515.41 291.14 514.49 291.34 514.09 290.14C513.69 288.94 515.93 284.14 515.93 284.14C515.93 284.14 517.29 284.8 519.01 282.75C520.73 280.7 519.01 266.4 518.9 265.75L518.92 265.65Z" fill="#06000C"/>
<path d="M466.23 263.26L464.58 273.95L456.2 275.23L456.69 257.12L466.23 263.26Z" fill="#E88E7C"/>
<path d="M451.14 286.84L451.71 289.3L457.49 288.71L462.34 280.91L464.58 273.91L456.17 275.18C456.227 276.087 456.149 276.996 455.94 277.88C455.21 279.39 451.14 286.84 451.14 286.84Z" fill="#E88E7C"/>
<path d="M464.59 273.93C465.615 274.678 466.328 275.779 466.59 277.02C467.08 279.16 466.59 283.8 467.46 286.81L464.7 287.45L463.48 282.2L459.1 289.2L457.68 289.53L446.45 292.14C446.45 292.14 445.6 291.74 446.03 290.51C446.46 289.28 451.13 286.8 451.13 286.8C451.13 286.8 451.82 288.15 454.42 287.55C457.02 286.95 464.23 274.47 464.57 273.91L464.59 273.93Z" fill="#06000C"/>
<path d="M475.44 155.23L476.25 159.43C476.25 159.43 457.34 198.71 456.53 203.88C455.72 209.05 453.29 270.16 453.29 270.16C453.29 270.16 468.49 270.32 479 269.51L475.12 220.86L495.65 272.26C495.65 272.26 512.94 268.38 519.73 262.89L491.6 215.89C491.6 215.89 501.95 193.58 504.7 180.81C507.45 168.04 505.35 162.7 499.85 155.43L498.53 151.43C498.53 151.43 479.8 155.87 475.44 155.23Z" fill="#FB9100"/>
<path d="M475.12 220.86C475.12 220.86 473.34 215.2 475.28 206.31C477.22 197.42 482.71 175.6 482.71 175.6L480.77 169.78" stroke="#232036" stroke-width="0.21" stroke-miterlimit="10"/>
<path d="M482.71 175.6L485.79 170.26" stroke="#232036" stroke-width="0.21" stroke-miterlimit="10"/>
<path d="M464.56 115.48C464.56 115.48 460.92 116.95 459.44 126.62C458.825 130.716 457.933 134.765 456.77 138.74L438.18 129.37L435.11 136.8C435.11 136.8 459.86 153.65 461.73 150.4C463.6 147.15 469.38 137.4 469.38 137.4L466.38 120.01L464.56 115.48Z" fill="#E88E7C"/>
<path d="M447.56 86.3501H400.95C397.415 86.3501 394.55 89.2155 394.55 92.7501V144.61C394.55 148.145 397.415 151.01 400.95 151.01H447.56C451.095 151.01 453.96 148.145 453.96 144.61V92.7501C453.96 89.2155 451.095 86.3501 447.56 86.3501Z" fill="#1B5A96"/>
<path d="M444.64 108.76C444.581 110.741 444.36 112.714 443.98 114.66C443.123 119.73 442.662 124.858 442.6 130H438.25L437.07 114.19L444.64 108.76Z" fill="#06000C"/>
<path d="M444.64 108.76C442.588 111.666 440.293 114.392 437.78 116.91C434.11 120.45 428.98 125.4 427.92 127.17C427.123 128.669 425.942 129.929 424.497 130.82C423.053 131.711 421.397 132.201 419.7 132.24C415.01 132.24 404.7 132.02 403.92 129.98C403.79 129.63 403.92 129.24 404.36 128.83C406.29 126.83 413.31 124.36 414.09 123.28C415.022 123.723 416.034 123.974 417.065 124.017C418.096 124.06 419.125 123.894 420.09 123.53C423.72 122.37 437.28 108.05 439.44 101.72C440.458 102.206 441.335 102.942 441.99 103.86C442.673 104.757 443.295 105.699 443.85 106.68C444.7 108.23 444.64 108.76 444.64 108.76Z" fill="#FFF6EB"/>
<path d="M444.64 108.76C442.852 111.741 440.713 114.497 438.27 116.97C434.6 120.5 428.98 125.4 427.92 127.17C427.123 128.669 425.942 129.928 424.497 130.819C423.053 131.71 421.397 132.201 419.7 132.24C415.01 132.24 404.7 132.02 403.92 129.98C403.79 129.63 403.92 129.24 404.36 128.83C407.17 131.22 415.11 131.14 419.3 131.08C423.49 131.02 425.3 128.93 426.8 126.4C428.3 123.87 434.41 117.85 439.08 113.67C442.84 110.29 443.66 107.59 443.84 106.67C444.7 108.23 444.64 108.76 444.64 108.76Z" fill="#06000C"/>
<path d="M466.14 135.89C466.14 135.89 458.92 134.7 454.94 133.08C454.94 133.08 458.99 117.81 464.56 115.48C470.13 113.15 469.49 129.85 469.49 129.85L466.14 135.89Z" fill="#1B5A96"/>
<path d="M471.89 108.2C471.89 108.2 468.33 120.29 467.67 121.3C467.01 122.31 477.79 117.86 479.86 117.57C481.93 117.28 481.92 116.32 481.92 116.32C481.92 116.32 481.38 108.44 482.63 105.56C483.88 102.68 471.89 108.2 471.89 108.2Z" fill="#E88E7C"/>
<path d="M486.3 112.91C490.255 116.487 492.955 121.241 494 126.47C495.44 134.8 498.57 151.69 498.57 151.69C498.57 151.69 482.03 158.15 475.62 155.69C474.744 151.747 472.8 148.121 470 145.21C465.24 140.42 464.8 134.92 464.94 130.46C465.08 126 464.54 115.46 464.54 115.46C466.52 114.192 468.566 113.03 470.67 111.98C470.67 111.98 469.91 116.09 472.82 116.58C476.03 117.11 481.7 110.58 481.7 110.58C483.363 111.069 484.922 111.858 486.3 112.91Z" fill="#1B5A96"/>
<path d="M465.41 135.44C465.104 133.791 464.953 132.117 464.96 130.44C465.11 125.97 465.12 121.05 465.12 121.05" stroke="#232036" stroke-width="0.21" stroke-linecap="round" stroke-linejoin="round"/>
<path d="M486.22 94.8901C488.48 94.6601 491.11 95.2801 492.55 96.8901C494.91 99.6101 491.06 102.39 494.89 105.69C497.4 107.85 501.58 107.18 503.98 109.47C505.3 110.73 505.98 112.55 506.92 114.06C508.07 115.84 509.28 116.19 511.42 116.33C512.84 116.42 514.42 116.59 515.37 117.65C515.837 118.273 516.104 119.023 516.138 119.801C516.172 120.579 515.971 121.349 515.56 122.01C514.704 123.311 513.591 124.424 512.29 125.28C511.331 126.063 510.45 126.937 509.66 127.89C508.994 128.575 508.128 129.03 507.186 129.192C506.245 129.354 505.276 129.213 504.42 128.79C503.613 128.279 502.917 127.611 502.372 126.826C501.828 126.041 501.446 125.155 501.25 124.22C500.862 122.354 500.317 120.524 499.62 118.75C498.782 117.017 497.393 115.61 495.67 114.75C493.91 113.89 491.9 113.65 490.11 112.83C486.76 111.28 486.54 108.05 487.53 104.83C487.92 103.6 490.33 99.5601 488.15 98.9001L486.22 94.8901Z" fill="#06000C"/>
<path d="M470.39 111.26C474.14 112.96 478.74 110.11 481.54 106.69C484.34 103.27 489.21 91.9001 480.8 88.4701C472.39 85.0401 470 91.8401 468.47 96.0001C466.94 100.16 466.34 109.41 470.39 111.26Z" fill="#E88E7C"/>
<path d="M470.56 111.29C472.56 112.21 474.49 111.9 476.66 110.99" stroke="#232036" stroke-width="0.21" stroke-linecap="round" stroke-linejoin="round"/>
<path d="M471.484 98.2321C471.675 97.72 471.541 97.1966 471.184 97.063C470.828 96.9295 470.383 97.2364 470.191 97.7485C470 98.2606 470.134 98.784 470.491 98.9175C470.848 99.0511 471.292 98.7442 471.484 98.2321Z" fill="#232036"/>
<path d="M472.67 101.17L472.09 101.98C472.036 102.062 472.001 102.155 471.986 102.252C471.971 102.349 471.977 102.449 472.003 102.543C472.03 102.638 472.076 102.726 472.139 102.801C472.203 102.877 472.281 102.938 472.37 102.98L472.56 103.06" stroke="#232036" stroke-width="0.21" stroke-linecap="round" stroke-linejoin="round"/>
<path d="M471.22 105.88C471.263 106.136 471.372 106.377 471.537 106.577C471.702 106.778 471.917 106.931 472.16 107.023C472.403 107.114 472.666 107.139 472.923 107.097C473.179 107.054 473.419 106.945 473.62 106.78L471.22 105.88Z" fill="white"/>
<path d="M476.85 97.8398C477.423 97.9199 477.97 98.1267 478.453 98.4449C478.935 98.7632 479.341 99.1851 479.64 99.6798L476.85 97.8398Z" fill="#232036"/>
<path d="M472.87 96.0498C472.47 95.6878 471.987 95.4299 471.464 95.2991C470.941 95.1683 470.393 95.1685 469.87 95.2998L472.87 96.0498Z" fill="#232036"/>
<path d="M477.477 100.898C477.663 100.401 477.524 99.8904 477.167 99.7569C476.81 99.6234 476.37 99.9178 476.184 100.414C475.998 100.911 476.137 101.422 476.494 101.555C476.851 101.689 477.291 101.394 477.477 100.898Z" fill="#232036"/>
<path d="M481.79 108.13C479.96 105.45 482.79 100.24 480.17 98.5099C478.787 97.6263 477.624 96.4396 476.768 95.0396C475.912 93.6397 475.386 92.0633 475.23 90.4299C475.23 90.4299 473.72 88.9999 470 92.1199C470 92.1199 471.62 82.3399 478.27 85.7899C478.27 85.7899 482.08 84.4699 485.71 88.1099C492.52 94.9399 489.33 100.91 485.5 104.46C482.74 107 481.79 108.13 481.79 108.13Z" fill="#06000C"/>
<path d="M481.13 100.41C481.13 100.41 482.97 99.2902 484 100.11C485.03 100.93 485.05 105.03 479.62 106.31L481.13 100.41Z" fill="#E88E7C"/>
<path d="M481.13 104.39C481.13 104.39 481.9 101.32 482.81 101.39C483.52 101.39 483.49 102.62 483.49 102.62" stroke="#232036" stroke-width="0.21" stroke-linecap="round" stroke-linejoin="round"/>
<path d="M481.89 102.33C481.89 102.33 482.6 101.56 483.04 102.33" stroke="#232036" stroke-width="0.21" stroke-linecap="round" stroke-linejoin="round"/>
<path d="M486 133.9C486 133.9 471.43 158.43 467.24 159.9C463.05 161.37 434.17 150.37 434.17 150.37L435.71 144.83C435.71 144.83 461.16 148.88 462.55 147.77C463.94 146.66 478 123.22 478 123.22C478 123.22 483.77 118.06 487.39 121.22C491.01 124.38 490.05 127.86 486 133.9Z" fill="#E88E7C"/>
<path d="M436.37 145C435.362 144.926 434.36 144.789 433.37 144.59C432.56 144.36 430.57 144.73 429.53 144.75C428.524 144.804 427.522 144.921 426.53 145.1C426.53 145.1 426.19 146.56 428.15 146.72C429.261 146.827 430.379 146.827 431.49 146.72C431.244 146.968 430.946 147.159 430.617 147.278C430.289 147.397 429.938 147.442 429.59 147.41C427.839 147.343 426.093 147.183 424.36 146.93C423.52 146.63 422.13 146.54 421.88 147.07C421.63 147.6 422.3 148.37 422.97 148.55C423.1 149.048 423.337 149.511 423.665 149.907C423.994 150.302 424.405 150.621 424.87 150.84C424.87 150.84 424.52 151.56 425.5 151.93C427.119 152.265 428.76 152.489 430.41 152.6C431.73 152.78 436.84 151.13 437.98 150.14C438.651 149.552 439.161 148.801 439.46 147.96L436.37 145Z" fill="#E88E7C"/>
<path d="M423 148.54C424.306 148.975 425.643 149.31 427 149.54C428.461 149.704 429.93 149.788 431.4 149.79" stroke="#232036" stroke-width="0.21" stroke-linecap="round" stroke-linejoin="round"/>
<path d="M424.94 150.83C426.8 151.205 428.692 151.4 430.59 151.41" stroke="#232036" stroke-width="0.21" stroke-linecap="round" stroke-linejoin="round"/>
<path d="M454.48 147.5C454.48 147.5 461.2 148.9 462.59 147.79C463.98 146.68 466.95 141.27 466.95 141.27" stroke="#232036" stroke-width="0.21" stroke-linecap="round" stroke-linejoin="round"/>
<path d="M481.88 141.06C477.487 140.411 473.433 138.326 470.35 135.13C470.35 135.13 476.49 123.38 479.29 120.69C482.09 118 486.08 118.86 488.24 120.8C490.4 122.74 490.93 126.19 488.45 130.6C485.97 135.01 481.88 141.06 481.88 141.06Z" fill="#1B5A96"/>
<path d="M488.45 130.6C485.97 135.02 481.88 141.06 481.88 141.06" stroke="#232036" stroke-width="0.21" stroke-linecap="round" stroke-linejoin="round"/>
<path d="M499.85 155.39C499.85 155.39 485.73 163.2 476.25 159.39" stroke="#232036" stroke-width="0.21" stroke-miterlimit="10"/>
<path d="M479.37 160.31L478.77 156.39" stroke="#232036" stroke-width="0.21" stroke-miterlimit="10"/>
<path d="M494.97 157.56L493.72 153.72" stroke="#232036" stroke-width="0.21" stroke-miterlimit="10"/>
<path d="M488.87 155.54L489.76 159.38" stroke="#232036" stroke-width="0.21" stroke-miterlimit="10"/>
<path d="M470.35 135.13C470.35 135.13 476.49 123.38 479.29 120.69" stroke="#232036" stroke-width="0.21" stroke-linecap="round" stroke-linejoin="round"/>
</svg>
