<svg width="570" height="324" viewBox="0 0 570 324" fill="none" xmlns="http://www.w3.org/2000/svg">
<g clip-path="url(#clip0_141_290)">
<rect width="570" height="324" fill="#FFF6EB"/>
<path d="M486.065 292.996H83.7149C83.517 292.979 83.3354 292.92 83.2039 292.829C83.0725 292.738 83 292.621 83 292.5C83 292.379 83.0725 292.262 83.2039 292.171C83.3354 292.08 83.517 292.021 83.7149 292.004H486.065C486.182 291.995 486.3 292.001 486.413 292.021C486.526 292.042 486.63 292.077 486.718 292.124C486.807 292.171 486.878 292.228 486.926 292.293C486.975 292.358 487 292.429 487 292.5C487 292.571 486.975 292.642 486.926 292.707C486.878 292.772 486.807 292.829 486.718 292.876C486.63 292.923 486.526 292.958 486.413 292.979C486.3 292.999 486.182 293.005 486.065 292.996Z" fill="#1E1E1E"/>
<g clip-path="url(#clip1_141_290)">
<path d="M222.09 178.03L220.68 188.77L214.16 189.3C213.666 189.33 213.183 189.458 212.738 189.676C212.293 189.894 211.896 190.197 211.569 190.569C211.242 190.94 210.992 191.373 210.832 191.842C210.673 192.31 210.607 192.806 210.64 193.3L304.84 193.12L304.32 183.79L275.97 188.54L241.46 188.9L241.98 177.8L222.09 178.03Z" fill="#28355F"/>
<path d="M306.09 182.96L300.28 183.31C299.652 183.322 299.037 183.137 298.52 182.78C289.36 175.39 267.17 186.48 275.98 188.42C276.33 191.94 279.98 190.88 284.98 188.06C292.2 192.64 298.71 194.23 304.87 192.64L306.09 182.96Z" fill="#FAB98C"/>
<path d="M176.81 87.52L173.11 87.88C168.18 88.4 164.66 92.63 165.36 97.21L173.09 172.39C173.359 174.348 174.364 176.129 175.901 177.372C177.437 178.615 179.389 179.226 181.36 179.08L176.81 87.52Z" fill="#28355F"/>
<path d="M329.47 200.74H167.65C167.161 200.752 166.674 200.665 166.22 200.484C165.765 200.302 165.352 200.03 165.006 199.684C164.66 199.338 164.388 198.925 164.207 198.47C164.025 198.016 163.938 197.529 163.95 197.04V196.52C163.938 196.031 164.025 195.544 164.207 195.09C164.388 194.635 164.66 194.222 165.006 193.876C165.352 193.53 165.765 193.258 166.22 193.076C166.674 192.895 167.161 192.808 167.65 192.82H329.47C329.959 192.808 330.445 192.895 330.899 193.077C331.353 193.258 331.765 193.53 332.111 193.877C332.456 194.223 332.727 194.636 332.907 195.09C333.088 195.545 333.174 196.031 333.16 196.52V197.04C333.174 197.529 333.088 198.015 332.907 198.47C332.727 198.924 332.456 199.337 332.111 199.683C331.765 200.03 331.353 200.302 330.899 200.483C330.445 200.665 329.959 200.752 329.47 200.74Z" fill="black"/>
<path d="M314.85 227.33L402.01 227.15C402.825 227.139 403.612 227.446 404.204 228.007C404.796 228.567 405.146 229.336 405.18 230.15C405.217 230.592 405.163 231.038 405.021 231.458C404.88 231.879 404.653 232.266 404.356 232.596C404.059 232.926 403.698 233.191 403.294 233.376C402.891 233.561 402.454 233.661 402.01 233.67L318.2 233.85L314.85 227.33Z" fill="black"/>
<path d="M259.91 282.62L252.52 283.15C246.88 285.44 240.52 287.2 241.6 292.3C246.53 294.06 265.02 294.59 278.23 292.83C280.16 289.13 279.64 283.83 277.7 279.27L259.91 282.62Z" fill="#9D1356"/>
<path d="M310.09 266.77L306.57 270.82L305.16 278.04L296.53 283.15C300.4 286.32 307.09 285.08 315.53 281.03L317.81 269.94L310.09 266.77Z" fill="#FAB98C"/>
<path d="M270.66 261.46L268.37 266.74L265.2 275.55L252.52 283.12C257.45 285.41 265.73 284.17 277.52 279.42L282.1 270.79L270.66 261.46Z" fill="#FAB98C"/>
<path d="M297.24 228.39L299.53 240.39L303.58 270.32C309.22 271.03 314.32 271.2 318.02 269.97L321.72 245.32L320.66 233.32L317.66 223.63L297.94 222.22L297.24 228.39Z" fill="#1B5A96"/>
<path d="M384.93 201.46L388.98 206.39C391.09 222.76 385.28 229.81 372.98 227.39L306.07 228.09L285.82 272.29C279.031 270.962 272.413 268.876 266.09 266.07C273.66 244.76 281.09 224.34 287.75 211.13C288.733 209.019 290.502 207.376 292.68 206.55C304.12 201.98 322.61 201.09 342.51 200.74L384.93 201.46Z" fill="#1B5A96"/>
<path d="M353.41 129.96L360.98 129.43C369.79 129.61 377.71 136.12 382.11 152.85L386.69 181.2L390.39 206.2C371.9 210.96 355.7 208.84 341.97 200.92L343.9 194.58L339.15 197.04C328.94 197.57 317.49 196.34 305.52 193.88C302.35 188.59 303.23 184.54 307.28 181.88L330.17 179.59C334.75 162.34 337.17 140.33 347.43 134.69L353.41 129.96Z" fill="#FB9100"/>
<path d="M332.81 97.3801L330.7 97.2101C323.09 88.9301 335.98 77.4601 347.09 77.3101C359.77 74.4901 370.16 78.3701 374.91 100.91C377.56 106.72 391.82 114.46 378.96 125.73C378.61 125.56 378.08 121.73 378.08 121.73C377.38 127.02 372.8 128.6 366.46 128.42L365.76 126.14C365.05 127.72 362.94 128.6 360.65 129.3L351.32 130.71L332.81 97.3801Z" fill="black"/>
<path d="M332.99 88.5801C334.4 94.9201 339.68 100.03 349.36 104.08C357.11 97.3801 362.22 111.65 351.65 112.53C349.89 122.92 351.48 129.96 360.28 129.96L347.09 134.71L343.57 125.38C332.48 128.2 329.66 122.38 329.84 113.23C329.84 113.23 325.79 113.23 325.44 111.65C325.08 110.24 329.84 104.96 329.84 104.96C330.87 97.5601 330.7 91.9301 332.99 88.5801Z" fill="#FAB98C"/>
<path d="M302.53 282.8L295.66 283.15C290.38 285.26 284.39 286.85 285.66 291.6C290.42 293.36 307.5 293.71 319.82 292.13C321.76 288.96 321.23 283.68 319.47 279.27L302.53 282.8Z" fill="#9D1356"/>
<path d="M381.76 153.38L377.54 153.2C376.397 153.396 375.342 153.942 374.522 154.762C373.702 155.583 373.156 156.637 372.96 157.78L370.49 176.78C370.42 177.296 370.465 177.821 370.621 178.318C370.778 178.815 371.043 179.271 371.396 179.653C371.75 180.035 372.184 180.335 372.667 180.53C373.15 180.724 373.67 180.81 374.19 180.78H375.6L380.88 169.15L381.76 153.38Z" fill="black"/>
<path d="M382.47 153.38L411.17 153.2C411.612 153.193 412.05 153.284 412.452 153.466C412.855 153.649 413.212 153.917 413.499 154.254C413.785 154.59 413.994 154.985 414.11 155.412C414.226 155.838 414.247 156.285 414.17 156.72L411.7 176.8C411.533 177.899 410.982 178.903 410.146 179.635C409.31 180.367 408.241 180.78 407.13 180.8H375.6L378.77 156.5C378.895 155.616 379.342 154.809 380.024 154.233C380.707 153.658 381.578 153.354 382.47 153.38Z" fill="#28355F"/>
<path d="M375.42 180.84L366.97 228.03L373.48 227.5L381.05 180.84H375.42Z" fill="black"/>
<path d="M401.83 180.67L395.49 227.33H401.13L406.94 180.67H401.83Z" fill="black"/>
<path d="M323.66 231.56L323.48 233.85L315.03 291.6C314.85 292.3 315.56 293.18 316.44 293.36C316.811 293.41 317.188 293.386 317.55 293.289C317.911 293.191 318.25 293.022 318.545 292.792C318.84 292.562 319.086 292.275 319.269 291.949C319.452 291.622 319.568 291.262 319.61 290.89L329.82 233.32L323.66 231.56Z" fill="black"/>
<path d="M350.77 233.46L343.55 289.98C343.502 290.285 343.521 290.596 343.605 290.893C343.69 291.19 343.837 291.465 344.037 291.7C344.238 291.935 344.486 292.123 344.767 292.253C345.047 292.382 345.351 292.449 345.66 292.45C345.944 292.514 346.239 292.511 346.521 292.442C346.804 292.372 347.066 292.238 347.288 292.05C347.51 291.862 347.686 291.625 347.8 291.358C347.915 291.091 347.966 290.8 347.95 290.51L356.41 233.64L350.77 233.46Z" fill="black"/>
<path d="M365.39 233.67L373.13 291.07C373.172 291.435 373.29 291.788 373.476 292.105C373.662 292.423 373.912 292.698 374.211 292.913C374.509 293.129 374.848 293.28 375.208 293.356C375.568 293.433 375.94 293.435 376.3 293.36C376.939 293.234 377.509 292.877 377.9 292.356C378.291 291.835 378.477 291.189 378.42 290.54L371.9 233.67H365.39Z" fill="black"/>
<path d="M392.68 233.46L403.42 291.04C403.503 291.438 403.666 291.816 403.9 292.149C404.133 292.483 404.432 292.765 404.778 292.98C405.124 293.194 405.51 293.335 405.913 293.396C406.316 293.456 406.726 293.433 407.12 293.33C407.77 293.106 408.329 292.674 408.71 292.101C409.092 291.529 409.274 290.847 409.23 290.16L399.55 233.82L392.68 233.46Z" fill="black"/>
<path d="M178.92 198.28L164.3 289.46C164.219 289.834 164.222 290.222 164.307 290.596C164.393 290.969 164.559 291.319 164.795 291.622C165.03 291.924 165.329 292.171 165.67 292.345C166.012 292.519 166.387 292.616 166.77 292.63C167.464 292.682 168.152 292.477 168.705 292.055C169.258 291.633 169.637 291.023 169.77 290.34L183.68 198.78L178.92 198.28Z" fill="black"/>
<path d="M227.52 197.4L231.21 289.13C231.22 289.521 231.313 289.905 231.482 290.257C231.652 290.609 231.895 290.921 232.195 291.172C232.495 291.423 232.845 291.607 233.222 291.712C233.599 291.816 233.994 291.84 234.38 291.78C235.058 291.709 235.679 291.373 236.109 290.844C236.538 290.315 236.74 289.637 236.67 288.96L234.56 198.1L227.52 197.4Z" fill="black"/>
<path d="M178.39 87.52L297.24 88.4C298.679 88.39 300.067 88.9335 301.117 89.9181C302.167 90.9027 302.798 92.2531 302.88 93.69L309.74 169.05C309.799 170.056 309.66 171.063 309.33 172.014C308.999 172.966 308.485 173.843 307.815 174.595C307.145 175.348 306.334 175.961 305.427 176.399C304.52 176.837 303.536 177.093 302.53 177.15L182.62 178.91C181.6 178.926 180.614 178.551 179.861 177.864C179.108 177.176 178.646 176.227 178.57 175.21L171.88 94.39C171.856 93.5114 172.005 92.6367 172.32 91.8158C172.634 90.995 173.107 90.2441 173.711 89.6061C174.316 88.9681 175.04 88.4554 175.843 88.0975C176.646 87.7396 177.511 87.5433 178.39 87.52Z" fill="#FFF6EB"/>
<path d="M182.79 180.67C181.443 180.63 180.154 180.111 179.154 179.208C178.154 178.305 177.507 177.076 177.33 175.74L170.47 94.74C170.353 93.6459 170.481 92.5395 170.846 91.5014C171.212 90.4634 171.804 89.5199 172.58 88.74C174.132 87.2074 176.21 86.324 178.39 86.27L297.24 87.15C299.063 87.1568 300.817 87.8482 302.154 89.0873C303.492 90.3264 304.315 92.0227 304.46 93.84L311.33 169.2C311.424 170.422 311.268 171.65 310.87 172.81C310.473 173.969 309.843 175.035 309.019 175.942C308.195 176.85 307.195 177.579 306.079 178.086C304.963 178.593 303.755 178.866 302.53 178.89L182.79 180.67ZM178.39 89.11C177.725 89.1087 177.067 89.2489 176.46 89.5213C175.853 89.7937 175.311 90.1921 174.87 90.69C173.944 91.6976 173.44 93.0218 173.46 94.39L180.33 175.39C180.338 175.995 180.582 176.573 181.009 177.001C181.437 177.428 182.015 177.672 182.62 177.68L302.53 175.92C303.337 175.956 304.141 175.799 304.875 175.462C305.609 175.124 306.252 174.616 306.75 173.98C307.264 173.376 307.653 172.676 307.896 171.921C308.138 171.166 308.227 170.37 308.16 169.58L301.29 94.21C301.205 93.1551 300.725 92.1711 299.947 91.454C299.168 90.7368 298.148 90.3391 297.09 90.34L178.39 89.11Z" fill="#1B5A96"/>
<path d="M203.74 136.65C213.952 136.65 222.23 128.372 222.23 118.16C222.23 107.948 213.952 99.6699 203.74 99.6699C193.528 99.6699 185.25 107.948 185.25 118.16C185.25 128.372 193.528 136.65 203.74 136.65Z" fill="#FB9100"/>
<path d="M292.49 157.78L267.31 158.31C267.043 158.325 266.776 158.286 266.525 158.196C266.273 158.106 266.042 157.966 265.846 157.786C265.649 157.605 265.49 157.386 265.38 157.143C265.269 156.9 265.208 156.637 265.2 156.37L262.73 126.26C262.672 125.963 262.684 125.655 262.766 125.363C262.849 125.072 262.999 124.803 263.204 124.58C263.41 124.357 263.665 124.186 263.949 124.08C264.234 123.974 264.539 123.936 264.84 123.97H290.55C290.818 123.954 291.086 123.992 291.338 124.081C291.591 124.171 291.823 124.31 292.021 124.491C292.219 124.672 292.378 124.891 292.49 125.135C292.601 125.378 292.662 125.642 292.67 125.91L294.78 155.46C294.688 156.038 294.418 156.572 294.007 156.988C293.597 157.404 293.066 157.681 292.49 157.78Z" stroke="black" stroke-width="0.5" stroke-miterlimit="10"/>
<path d="M212.02 124.32L197.76 124.15C197.41 124.15 197.23 123.8 197.05 123.62L193.89 112.35H191.95C191.855 112.359 191.76 112.347 191.67 112.315C191.581 112.284 191.499 112.233 191.432 112.166C191.364 112.099 191.312 112.018 191.279 111.929C191.245 111.84 191.232 111.745 191.24 111.65L191.09 109.36C191.09 109.18 191.09 108.83 191.26 108.83C191.44 108.65 191.62 108.48 191.79 108.48H194.96C195.518 108.441 196.069 108.62 196.496 108.981C196.924 109.341 197.194 109.854 197.25 110.41L197.6 111.82H214.49C214.84 111.82 215.01 112 215.01 112.17C215.127 112.322 215.19 112.508 215.19 112.7L212.73 123.97C212.645 124.077 212.537 124.165 212.415 124.225C212.292 124.286 212.157 124.318 212.02 124.32ZM198.46 122.56L211.46 122.74L213.58 113.06H197.09C196.74 113.06 196.57 112.7 196.39 112.53L195.86 110.59C195.791 110.454 195.693 110.336 195.571 110.244C195.45 110.152 195.309 110.089 195.16 110.06H192.69V110.77H194.45C194.81 110.77 194.98 111.12 195.16 111.29L198.46 122.56Z" fill="#FFF6EB"/>
<path d="M208.85 128.72C209.822 128.72 210.61 127.932 210.61 126.96C210.61 125.988 209.822 125.2 208.85 125.2C207.878 125.2 207.09 125.988 207.09 126.96C207.09 127.932 207.878 128.72 208.85 128.72Z" fill="#FFF6EB"/>
<path d="M199.87 128.9C200.842 128.9 201.63 128.112 201.63 127.14C201.63 126.168 200.842 125.38 199.87 125.38C198.898 125.38 198.11 126.168 198.11 127.14C198.11 128.112 198.898 128.9 199.87 128.9Z" fill="#FFF6EB"/>
<path d="M256.57 158.66L234.03 158.84C233.131 158.86 232.256 158.548 231.574 157.963C230.891 157.378 230.448 156.561 230.33 155.67L228.09 128.02C227.92 125.91 229.5 124.85 231.62 124.85L254.09 124.46C254.502 124.447 254.912 124.522 255.293 124.679C255.675 124.836 256.018 125.072 256.302 125.371C256.585 125.671 256.802 126.027 256.938 126.416C257.074 126.805 257.125 127.219 257.09 127.63L258.67 155.98C259.21 157.46 258.15 158.66 256.57 158.66Z" stroke="black" stroke-width="0.5" stroke-miterlimit="10"/>
<path d="M238.96 137.53H241.09C240.39 130.66 247.61 132.25 246.55 137.53H248.67C248.67 128.53 238.1 128.73 238.98 137.53" fill="#1B5A96"/>
<path d="M235.97 137.53L250.58 137.35C250.876 137.306 251.179 137.329 251.465 137.417C251.751 137.505 252.014 137.657 252.234 137.86C252.454 138.064 252.625 138.314 252.735 138.593C252.845 138.871 252.891 139.171 252.87 139.47L254.28 147.92C254.372 148.309 254.372 148.715 254.28 149.104C254.189 149.494 254.008 149.857 253.752 150.164C253.496 150.472 253.171 150.715 252.805 150.876C252.438 151.037 252.04 151.11 251.64 151.09L236.14 151.26C235.834 151.284 235.527 151.241 235.239 151.135C234.951 151.029 234.689 150.862 234.471 150.646C234.254 150.429 234.086 150.168 233.979 149.881C233.871 149.593 233.827 149.286 233.85 148.98V139.11C234.077 138.716 234.382 138.373 234.747 138.101C235.112 137.83 235.528 137.635 235.97 137.53Z" fill="#1B5A96"/>
<path d="M271.18 141.93L268.89 143.69V145.1C268.889 145.552 269.023 145.994 269.274 146.369C269.525 146.745 269.882 147.038 270.3 147.21C275.23 148.98 281.57 149.33 288.3 148.98C288.97 148.975 289.613 148.717 290.102 148.26C290.591 147.802 290.89 147.178 290.94 146.51V146.16L280.73 143.34L271.18 141.93Z" fill="#1B5A96"/>
<path d="M276.99 137.53L280.16 135.59C283.33 140.52 289.5 140.88 290.9 145.81C284.21 146.33 276.82 145.45 268.72 143.52C269.25 138.94 269.78 135.24 271.72 134.36C272.257 135.293 273.022 136.073 273.944 136.628C274.866 137.183 275.915 137.493 276.99 137.53Z" fill="#FB9100"/>
<path d="M271.71 134.54C270.13 138.76 276.29 139.47 280.16 135.95C277.87 137.35 274.88 136.83 271.71 134.54Z" fill="#1B5A96"/>
<path d="M222.76 144.22C222.694 143.479 222.346 142.792 221.787 142.301C221.229 141.809 220.503 141.551 219.76 141.58L192.99 142.11C192.545 142.092 192.101 142.175 191.693 142.354C191.285 142.532 190.923 142.801 190.634 143.14C190.345 143.479 190.137 143.88 190.025 144.311C189.914 144.742 189.902 145.193 189.99 145.63L191.09 159.72C191.145 160.433 191.465 161.099 191.987 161.588C192.509 162.076 193.195 162.352 193.91 162.36L222.08 161.83C222.642 161.75 223.159 161.478 223.543 161.061C223.928 160.644 224.156 160.106 224.19 159.54L222.76 144.22ZM210.96 156.72H196.17C195.958 156.736 195.745 156.707 195.546 156.633C195.347 156.56 195.166 156.444 195.016 156.294C194.866 156.144 194.75 155.963 194.676 155.763C194.603 155.564 194.573 155.351 194.59 155.14C194.558 154.925 194.577 154.705 194.645 154.498C194.713 154.292 194.829 154.104 194.982 153.949C195.135 153.795 195.323 153.679 195.529 153.609C195.735 153.54 195.954 153.519 196.17 153.55H211.17C211.383 153.533 211.597 153.563 211.797 153.637C211.998 153.711 212.18 153.828 212.331 153.979C212.482 154.13 212.598 154.312 212.673 154.512C212.747 154.713 212.776 154.927 212.76 155.14C212.73 156.19 212.02 156.72 210.96 156.72ZM216.42 150.72H196.17C195.771 150.688 195.399 150.507 195.128 150.214C194.857 149.92 194.706 149.535 194.706 149.135C194.706 148.735 194.857 148.35 195.128 148.056C195.399 147.762 195.771 147.581 196.17 147.55H216.42C216.632 147.533 216.845 147.563 217.045 147.636C217.244 147.71 217.426 147.826 217.577 147.976C217.728 148.126 217.845 148.306 217.919 148.505C217.994 148.705 218.025 148.918 218.01 149.13C217.83 149.86 217.3 150.74 216.42 150.74V150.72Z" fill="#1B5A96"/>
<path d="M250.93 165.35H232.45C232.238 165.366 232.025 165.337 231.825 165.263C231.625 165.19 231.444 165.074 231.293 164.924C231.142 164.774 231.025 164.593 230.951 164.394C230.876 164.195 230.845 163.982 230.86 163.77C230.83 163.554 230.851 163.334 230.92 163.128C230.989 162.921 231.106 162.734 231.26 162.579C231.414 162.425 231.601 162.309 231.808 162.24C232.014 162.17 232.234 162.15 232.45 162.18H250.93C251.149 162.162 251.369 162.19 251.576 162.262C251.783 162.334 251.974 162.448 252.135 162.597C252.296 162.746 252.425 162.926 252.513 163.127C252.601 163.328 252.646 163.545 252.646 163.765C252.646 163.984 252.601 164.201 252.513 164.402C252.425 164.603 252.296 164.784 252.135 164.933C251.974 165.082 251.783 165.196 251.576 165.267C251.369 165.339 251.149 165.367 250.93 165.35Z" fill="#FB9100"/>
<path d="M284.92 164.82H266.92C266.701 164.837 266.481 164.809 266.274 164.738C266.067 164.666 265.876 164.552 265.715 164.403C265.554 164.254 265.425 164.074 265.337 163.872C265.249 163.671 265.204 163.454 265.204 163.235C265.204 163.016 265.249 162.799 265.337 162.598C265.425 162.397 265.554 162.216 265.715 162.067C265.876 161.918 266.067 161.804 266.274 161.732C266.481 161.661 266.701 161.633 266.92 161.65H285.09C285.303 161.634 285.517 161.663 285.718 161.737C285.918 161.811 286.1 161.928 286.251 162.079C286.402 162.23 286.519 162.412 286.593 162.613C286.667 162.813 286.697 163.027 286.68 163.24C286.644 163.678 286.442 164.087 286.115 164.381C285.787 164.674 285.36 164.832 284.92 164.82Z" fill="#1B5A96"/>
<path d="M228.92 106.72C228.711 106.721 228.504 106.681 228.312 106.602C228.119 106.522 227.943 106.405 227.796 106.257C227.649 106.109 227.533 105.933 227.455 105.739C227.376 105.546 227.337 105.339 227.34 105.13C227.31 104.916 227.33 104.697 227.399 104.492C227.468 104.286 227.584 104.1 227.737 103.947C227.89 103.794 228.076 103.678 228.282 103.609C228.487 103.54 228.706 103.52 228.92 103.55L284.04 102.84C284.252 102.825 284.465 102.856 284.664 102.931C284.864 103.006 285.044 103.122 285.194 103.273C285.344 103.424 285.46 103.606 285.533 103.805C285.607 104.005 285.636 104.218 285.62 104.43C285.65 104.645 285.63 104.863 285.561 105.068C285.492 105.274 285.377 105.46 285.223 105.613C285.07 105.767 284.884 105.882 284.678 105.951C284.473 106.02 284.255 106.04 284.04 106.01L228.92 106.72Z" fill="#1B5A96"/>
<path d="M229.09 115.52C228.882 115.521 228.676 115.481 228.484 115.402C228.291 115.324 228.117 115.207 227.97 115.06C227.823 114.913 227.706 114.739 227.628 114.546C227.549 114.354 227.509 114.148 227.51 113.94C227.494 113.728 227.523 113.515 227.597 113.315C227.67 113.115 227.786 112.934 227.936 112.783C228.086 112.632 228.266 112.515 228.466 112.441C228.665 112.366 228.878 112.335 229.09 112.35L275.4 112C275.608 111.999 275.814 112.039 276.006 112.118C276.198 112.197 276.373 112.313 276.52 112.46C276.667 112.607 276.783 112.782 276.862 112.974C276.941 113.166 276.981 113.372 276.98 113.58C277.012 113.795 276.993 114.015 276.925 114.222C276.857 114.428 276.741 114.616 276.588 114.77C276.435 114.925 276.247 115.041 276.041 115.111C275.835 115.18 275.615 115.2 275.4 115.17L229.09 115.52Z" fill="#FB9100"/>
<path d="M176.45 31.1798L167.09 34.6998L156.38 45.7898C156.107 46.1201 155.972 46.5438 156.006 46.9713C156.04 47.3987 156.238 47.7963 156.56 48.0798L164.66 55.1298C164.954 55.3819 165.328 55.5204 165.715 55.5204C166.102 55.5204 166.476 55.3819 166.77 55.1298L169.94 52.1298L170.29 76.1298C170.286 76.4472 170.349 76.7619 170.474 77.0536C170.599 77.3453 170.784 77.6075 171.016 77.8233C171.249 78.0391 171.525 78.2037 171.825 78.3064C172.125 78.4092 172.444 78.4478 172.76 78.4198L200.58 78.2398C200.901 78.2587 201.221 78.2066 201.519 78.0872C201.817 77.9678 202.085 77.784 202.304 77.549C202.523 77.3139 202.687 77.0335 202.785 76.7277C202.883 76.4218 202.912 76.0982 202.87 75.7798L201.98 51.8298L206.03 54.9998C206.36 55.2732 206.784 55.4073 207.211 55.3737C207.639 55.3401 208.036 55.1415 208.32 54.8198L215.54 47.0798C215.799 46.7543 215.94 46.3507 215.94 45.9348C215.94 45.5189 215.799 45.1153 215.54 44.7898L206.39 34.9298L195.29 31.0498C194.24 45.4598 177.86 42.4598 176.45 31.1798Z" fill="#FB9100"/>
<path d="M176.45 31.1802C177.86 43.3302 194.59 44.9102 195.45 31.1802C195.8 31.3502 194.75 31.0002 194.57 31.3502C191.4 37.1702 180.84 36.2802 178.57 31.3502C178.21 30.8302 176.45 31.1802 176.45 31.1802Z" fill="#C66A05"/>
<path d="M230.86 32.5898L231.21 36.9898L236.14 37.1698L242.48 59.8798L269.77 60.2298L274.53 38.7498H240.72L240.02 35.0498C239.883 34.369 239.503 33.7611 238.951 33.3397C238.399 32.9184 237.713 32.7122 237.02 32.7598L230.86 32.5898Z" fill="#1B5A96"/>
<path d="M263.61 69.9098C265.361 69.9098 266.78 68.4906 266.78 66.7398C266.78 64.9891 265.361 63.5698 263.61 63.5698C261.859 63.5698 260.44 64.9891 260.44 66.7398C260.44 68.4906 261.859 69.9098 263.61 69.9098Z" fill="#1B5A96"/>
<path d="M246.35 70.09C248.101 70.09 249.52 68.6707 249.52 66.92C249.52 65.1693 248.101 63.75 246.35 63.75C244.599 63.75 243.18 65.1693 243.18 66.92C243.18 68.6707 244.599 70.09 246.35 70.09Z" fill="#1B5A96"/>
<path d="M358.52 55.1299L351.83 59.5299L352 62.6999C352.052 63.8819 352.463 65.0201 353.177 65.9632C353.892 66.9063 354.876 67.6096 356 67.9799C370.09 72.5599 387.35 73.0899 405.83 72.3799C407.624 72.3352 409.35 71.6841 410.727 70.5328C412.103 69.3814 413.049 67.7977 413.41 66.0399L413.58 65.3399L385.41 58.6499L358.52 55.1299Z" fill="#1B5A96"/>
<path d="M374.72 44.2102L383.72 39.2802C392.35 52.1302 410.13 53.1902 413.65 65.5102C394.99 66.5702 374.39 64.8102 351.85 59.3502C352.9 47.5502 355.02 38.2202 360.3 35.9302C362.92 39.8102 367.67 43.3302 374.72 44.2102Z" fill="#FB9100"/>
<path d="M360.28 35.9302C356.09 46.8502 373.09 49.1402 383.7 39.1002C376.48 43.3302 368.73 42.1002 360.28 35.9302Z" fill="#1B5A96"/>
<path d="M379.3 51.25C378.94 51.25 378.77 51.08 378.77 50.9C378.42 50.55 378.59 50.2 378.94 49.84L387.4 44.21C387.75 43.86 388.1 44.03 388.45 44.38C388.8 44.73 388.63 45.09 388.28 45.44L379.82 51.08C379.751 51.145 379.669 51.194 379.579 51.2234C379.489 51.2528 379.394 51.2619 379.3 51.25Z" fill="#1B5A96"/>
<path d="M385.99 55.6499C385.81 55.6499 385.46 55.4799 385.46 55.2999C385.11 54.9499 385.11 54.5999 385.63 54.2399L392.85 48.0799C393.21 47.7299 393.56 47.7299 393.91 48.2599C394.26 48.6099 394.26 48.9599 393.73 49.3099L386.52 55.4599C386.16 55.6499 386.16 55.6499 385.99 55.6499Z" fill="#1B5A96"/>
<path d="M390.57 59.53C390.39 59.53 390.04 59.35 390.04 59.18C389.68 58.82 389.86 58.47 390.21 58.12L397.78 51.96C398.14 51.6 398.49 51.78 398.84 52.13C399.19 52.48 399.02 52.84 398.66 53.19L391.09 59.35C390.92 59.35 390.74 59.53 390.57 59.53Z" fill="#1B5A96"/>
<path d="M343.55 194.93C343.455 194.941 343.358 194.931 343.267 194.902C343.175 194.873 343.091 194.824 343.02 194.76C342.85 194.58 342.67 194.23 343.02 194.05C353.94 182.96 356.23 155.14 356.23 154.96C356.237 154.822 356.295 154.691 356.393 154.593C356.491 154.496 356.622 154.437 356.76 154.43C356.897 154.44 357.027 154.498 357.124 154.596C357.222 154.693 357.281 154.823 357.29 154.96C357.11 156.02 355 183.31 343.73 194.96L343.55 194.93Z" fill="#1B5A96"/>
<path d="M335.09 185.46H334.74C330.34 183.17 329.81 180.36 329.81 180.18C329.81 179.83 329.98 179.65 330.34 179.48C330.412 179.469 330.485 179.476 330.553 179.499C330.622 179.522 330.684 179.561 330.735 179.613C330.785 179.665 330.823 179.727 330.845 179.796C330.867 179.865 330.872 179.939 330.86 180.01C330.86 180.01 331.39 182.47 335.44 184.58C335.507 184.606 335.566 184.647 335.614 184.701C335.661 184.755 335.695 184.819 335.713 184.889C335.73 184.958 335.731 185.031 335.715 185.1C335.699 185.17 335.666 185.235 335.62 185.29C335.429 185.281 335.241 185.342 335.09 185.46Z" fill="#1B5A96"/>
<path d="M312.03 194.58C311.958 194.591 311.885 194.584 311.817 194.561C311.748 194.538 311.686 194.499 311.635 194.447C311.585 194.396 311.547 194.333 311.525 194.264C311.503 194.195 311.498 194.122 311.51 194.05C309.74 183.84 312.91 181.73 313.27 181.37C313.62 181.2 313.79 181.2 313.97 181.55C314.15 181.9 314.15 182.08 313.79 182.25C313.79 182.25 311.15 184.37 312.74 193.52C312.56 194.23 312.21 194.58 312.03 194.58Z" fill="#1B5A96"/>
<path d="M369.44 200.57C361.34 199.86 345.84 198.45 345.66 198.45C345.533 198.432 345.417 198.37 345.333 198.273C345.249 198.177 345.203 198.053 345.203 197.925C345.203 197.797 345.249 197.673 345.333 197.577C345.417 197.48 345.533 197.417 345.66 197.4C345.84 197.4 361.51 198.81 369.26 199.51C369.398 199.517 369.529 199.575 369.627 199.673C369.725 199.771 369.783 199.902 369.79 200.04C369.79 200.39 369.61 200.57 369.44 200.57Z" fill="#1B5A96"/>
<path d="M342.49 125.38L344.25 123.44L344.43 126.96L343.55 125.2L342.49 125.38Z" fill="#E59A67"/>
<path d="M276.82 188.77H276.47C276.11 188.59 275.94 188.24 276.11 188.06C276.11 187.89 277.87 184.37 286.5 182.78C286.641 182.78 286.775 182.836 286.875 182.935C286.974 183.034 287.03 183.169 287.03 183.31C287.03 183.45 286.974 183.585 286.875 183.685C286.775 183.784 286.641 183.84 286.5 183.84C278.4 185.6 276.99 188.59 276.99 188.59C277.17 188.59 276.99 188.77 276.82 188.77Z" fill="#E59A67"/>
</g>
</g>
<defs>
<clipPath id="clip0_141_290">
<rect width="570" height="324" fill="white"/>
</clipPath>
<clipPath id="clip1_141_290">
<rect width="258.17" height="262.91" fill="white" transform="translate(156 31)"/>
</clipPath>
</defs>
</svg>
