<svg width="570" height="324" viewBox="0 0 570 324" fill="none" xmlns="http://www.w3.org/2000/svg">
<rect width="570" height="324" fill="#FFF6EB"/>
<path d="M486.065 292.996H83.7149C83.517 292.979 83.3354 292.92 83.2039 292.829C83.0725 292.738 83 292.621 83 292.5C83 292.379 83.0725 292.262 83.2039 292.171C83.3354 292.08 83.517 292.021 83.7149 292.004H486.065C486.182 291.995 486.3 292.001 486.413 292.021C486.526 292.042 486.63 292.077 486.718 292.124C486.807 292.171 486.878 292.228 486.926 292.293C486.975 292.358 487 292.429 487 292.5C487 292.571 486.975 292.642 486.926 292.707C486.878 292.772 486.807 292.829 486.718 292.876C486.63 292.923 486.526 292.958 486.413 292.979C486.3 292.999 486.182 293.005 486.065 292.996Z" fill="#1E1E1E"/>
<g clip-path="url(#clip0_114_784)">
<path d="M189.759 105.174V242.582C189.759 244.249 190.421 245.848 191.599 247.027C192.777 248.206 194.375 248.868 196.041 248.868H378.426C380.093 248.868 381.69 248.206 382.869 247.027C384.047 245.848 384.708 244.249 384.708 242.582V105.174C319.778 101.469 254.689 101.469 189.759 105.174Z" fill="#FFF6EB" stroke="black" stroke-width="0.5" stroke-miterlimit="10"/>
<path d="M189.749 96.5101V105.165H384.708V96.5101C384.708 94.8481 384.049 93.2542 382.874 92.0791C381.7 90.9039 380.107 90.2437 378.446 90.2437H196.002C194.342 90.2463 192.752 90.9076 191.58 92.0825C190.408 93.2574 189.749 94.8498 189.749 96.5101Z" fill="#1B5A96" stroke="black" stroke-width="0.5" stroke-miterlimit="10"/>
<path d="M229.966 118.812C229.502 118.329 228.98 117.934 228.319 117.401C230.094 116.543 230.656 118.723 232.214 118.447C232.068 118.119 231.872 117.816 231.632 117.549C230.696 116.878 230.824 116.128 231.396 115.329C231.83 114.697 232.293 114.125 231.84 113.237C231.692 112.941 232.056 112.358 232.244 111.934C232.431 111.51 232.757 110.947 233.053 110.316C234.039 110.562 234.65 113.276 235.942 110.75C237.569 112.062 237.974 111.973 239.936 110.967C241.44 110.177 243.037 109.58 244.69 109.191C245.518 109.003 246.524 109.526 247.431 109.802C247.51 109.802 247.559 110.543 247.431 110.661C246.844 111.217 246.149 111.647 245.39 111.924C243.141 112.447 241.889 113.898 240.686 115.783C239.749 117.204 238.22 118.24 237.027 119.513C236.724 119.922 236.499 120.383 236.366 120.875C236.277 121.082 236.307 121.339 236.238 121.546C236.1 121.95 235.725 122.602 235.834 122.691C236.258 123.056 236.82 123.51 237.352 123.441C240.311 123.026 241.603 125.246 243.181 127.003C243.816 127.685 244.4 128.414 244.926 129.184C245.253 129.644 245.439 130.189 245.459 130.753C245.459 131.513 244.995 131.967 244.098 131.592C243.673 131.477 243.236 131.411 242.796 131.394C243.151 132.253 243.496 132.904 243.703 133.585C243.91 134.266 244.167 134.799 243.171 135.056C242.974 135.105 242.944 135.865 242.845 136.299C241.465 135.49 240.054 134.651 238.615 133.852C238.213 133.687 237.792 133.574 237.362 133.516C236.672 133.368 235.843 133.368 235.952 132.312C236.869 131.819 238.062 132.312 238.644 131.098C239.068 130.23 239.068 128.602 238.319 127.98C237.7 127.413 236.967 126.984 236.17 126.722C235.372 126.46 234.528 126.371 233.694 126.46C233.004 126.606 232.284 126.494 231.672 126.144C230.951 125.574 230.441 124.778 230.222 123.885C230.074 123.075 230.903 122.523 231.771 122.256C232.223 122.042 232.641 121.763 233.013 121.427L232.875 121.131C232.353 121.117 231.832 121.068 231.317 120.983C230.745 120.865 230.133 120.737 230.518 119.829C230.587 119.592 230.232 119.079 229.966 118.812Z" fill="#1B5A96"/>
<path d="M266.553 110.701C266.885 111.23 267.079 111.835 267.117 112.459C267.155 113.083 267.035 113.707 266.77 114.273C266.77 114.381 266.642 114.52 266.672 114.599C267.204 115.941 266.504 117.332 266.839 118.664C267.017 119.375 266.652 119.809 266.356 120.411C265.782 121.718 265.4 123.1 265.222 124.516C265.025 125.71 265.143 126.954 264.039 127.803C263.832 127.97 263.585 128.286 263.388 128.256C261.356 128.01 261.169 129.964 260.173 130.921C258.526 132.52 258.072 134.681 257.55 136.793C257.421 137.266 257.273 137.78 257.096 138.372C254.907 136.526 254.394 134.424 254.561 131.77C254.699 129.608 255.005 127.299 254.147 125.128C254.073 124.948 254.023 124.759 253.999 124.566C253.802 122.898 253.585 121.24 253.437 119.562C253.358 118.664 252.776 118.576 252.125 118.664C251.031 118.812 250.045 118.901 250.153 117.312C250.153 117.164 249.907 117.026 249.838 116.849C249.63 116.266 249.177 115.585 249.344 115.122C249.591 114.431 249.916 113.474 251.139 113.72C251.346 113.72 251.987 112.98 251.968 112.615C251.899 111.5 251.751 110.464 252.954 109.862C253.102 109.793 253.131 109.467 253.279 109.131C254.384 110 254.699 109.418 254.877 108.381C255.025 107.493 255.715 107.572 256.327 107.868C256.768 108.132 257.184 108.436 257.569 108.776C257.823 108.131 258.04 107.472 258.22 106.803C258.378 106.053 258.654 105.638 259.532 105.678C260.114 105.67 260.689 105.552 261.228 105.332C262.402 104.937 263.121 105.332 263.358 106.546C263.421 106.971 263.444 107.4 263.427 107.829C263.427 108.243 263.358 108.668 263.309 109.23L266.869 107.256C267.184 107.791 267.323 108.411 267.266 109.029C267.209 109.647 266.96 110.232 266.553 110.701Z" fill="#1B5A96"/>
<path d="M299.729 192.401C299.284 192.399 298.848 192.53 298.477 192.776C298.106 193.022 297.816 193.373 297.644 193.783C297.473 194.194 297.427 194.647 297.512 195.084C297.598 195.521 297.811 195.923 298.125 196.239C298.439 196.555 298.84 196.77 299.277 196.857C299.713 196.945 300.166 196.901 300.577 196.731C300.988 196.561 301.34 196.273 301.588 195.902C301.835 195.532 301.967 195.097 301.967 194.651C301.967 194.056 301.732 193.486 301.312 193.064C300.893 192.642 300.323 192.404 299.729 192.401Z" fill="#1B5A96"/>
<path d="M384.334 130.22C382.697 130.092 381.02 130.151 379.403 129.283C377.785 128.414 376.296 127.941 374.748 127.309C374.495 127.194 374.291 126.99 374.176 126.737C373.939 126.086 373.791 125.405 373.565 124.615C373.984 124.686 374.397 124.795 374.797 124.941C375.147 125.135 375.478 125.363 375.783 125.622C376.77 123.934 376.523 123.352 374.718 122.888C373.051 122.558 371.321 122.776 369.787 123.51C369.551 123.609 369.245 123.964 369.275 124.161C369.318 124.304 369.397 124.433 369.504 124.536C369.611 124.64 369.742 124.715 369.886 124.753C371.129 124.813 371.602 125.868 372.036 126.727C372.58 127.612 372.754 128.675 372.519 129.688C368.959 127.951 368.762 127.635 367.588 129.253C367.085 128.434 366.602 127.645 366.119 126.855C365.229 126.045 364.068 125.598 362.864 125.602C362.729 125.67 362.613 125.772 362.529 125.898C361.247 127.576 360.113 127.664 358.584 126.273C358.276 126.066 357.919 125.944 357.549 125.918C356.139 125.671 354.738 125.454 353.289 125.217C353.92 122.868 354.156 122.158 351.898 121.882C351.319 121.778 350.73 121.739 350.143 121.763C349.983 121.804 349.816 121.807 349.655 121.774C349.494 121.74 349.343 121.67 349.212 121.569C349.082 121.469 348.977 121.339 348.904 121.192C348.831 121.044 348.792 120.882 348.792 120.717C348.604 119.592 347.707 119.651 346.878 119.671C346.05 119.691 345.971 120.421 345.991 121.033C345.991 122.02 345.478 122.355 344.551 122.454C343.174 122.595 341.804 122.806 340.448 123.086C339.63 123.263 338.565 123.421 338.151 123.984C337.983 124.308 337.71 124.565 337.376 124.712C337.042 124.859 336.668 124.888 336.316 124.793C335.33 124.556 335.103 124.97 334.975 125.78C334.917 125.957 334.823 126.12 334.699 126.259C334.575 126.398 334.424 126.51 334.255 126.589C332.914 127.309 332.135 126.589 331.563 125.03C331.139 125.819 330.498 126.579 330.646 126.806C331.583 128.227 330.784 130.467 332.618 131.118C332.441 131.76 332.342 132.243 332.184 132.717C332.102 133.14 331.894 133.528 331.588 133.831C331.282 134.134 330.892 134.337 330.468 134.414C330.657 132.777 330.732 131.128 330.695 129.48C330.47 127.843 330.14 126.221 329.709 124.625C328.21 125.345 326.878 128.503 327.391 130.151C327.486 130.665 327.516 131.189 327.48 131.711L327.155 131.829C325.892 130.842 324.876 129.214 322.904 129.727C322.963 131.878 322.579 132.105 320.32 131.701C319.492 131.628 318.659 131.774 317.904 132.125C317.258 132.483 316.636 132.882 316.04 133.319C314.827 133.98 314.354 133.724 314.068 132.332C314.007 132.038 313.843 131.775 313.604 131.592C313.486 131.513 313.101 131.711 312.934 131.878C311.898 132.944 310.863 134.01 309.877 135.125C309.709 135.313 309.748 135.688 309.64 136.24C309.255 136.24 308.289 136.615 308.092 136.359C307.674 135.612 307.381 134.802 307.224 133.961H308.328C309.206 133.961 309.857 133.694 310.054 132.737C310.251 131.78 309.423 131.75 308.93 131.375C307.303 130.092 305.094 129.895 303.624 128.326C303.3 128.117 302.909 128.039 302.529 128.109C301.405 128.217 300.291 128.405 299.176 128.553C297.569 128.78 296.021 129.016 295.518 130.98C295.409 131.424 294.906 131.77 294.62 132.184C294.331 132.595 294.067 133.023 293.831 133.467C293.655 133.955 293.413 134.417 293.111 134.839C292.066 135.826 290.922 136.684 289.847 137.632C289.414 137.938 289.072 138.358 288.861 138.845C288.573 139.933 288.398 141.047 288.338 142.171C288.345 142.402 288.406 142.629 288.515 142.833C288.625 143.037 288.78 143.212 288.969 143.345C289.226 143.474 289.758 143.049 290.163 142.882C290.567 142.714 291.405 142.201 291.603 142.368C292.385 143.092 293.104 143.881 293.752 144.727C294.019 145.023 294.285 145.635 294.482 145.615C294.896 145.546 295.468 145.24 295.616 144.895C295.958 143.944 296.141 142.944 296.159 141.934C296.157 140.32 296.684 138.75 297.658 137.464C298.296 136.619 298.999 135.824 299.758 135.086C300.061 134.856 300.393 134.667 300.744 134.523C300.873 134.947 301.188 135.451 301.08 135.796C300.815 136.403 300.463 136.968 300.034 137.474C299.048 138.895 298.989 140.345 299.719 140.967L304.206 140.355C304.291 140.665 304.307 140.99 304.254 141.307C304.201 141.624 304.08 141.926 303.899 142.191C303.718 142.457 303.481 142.68 303.206 142.845C302.93 143.01 302.622 143.114 302.303 143.148C302.027 143.148 301.573 143.286 301.524 143.454C301.129 144.766 299.995 145.309 299.078 146.138C298.042 147.024 296.702 147.47 295.343 147.382C293.983 147.293 292.712 146.677 291.8 145.664L290.952 144.559C290.767 145.448 290.694 146.356 290.735 147.263C290.735 148.25 290.311 148.734 289.295 148.576C288.955 148.487 288.597 148.5 288.264 148.612C287.931 148.724 287.638 148.931 287.421 149.207C286.535 150.291 285.59 151.326 284.591 152.306C284.197 152.648 283.709 152.862 283.19 152.918C282.323 153.026 281.859 153.658 282.431 154.289C282.679 154.57 282.862 154.903 282.964 155.263C283.067 155.624 283.087 156.002 283.023 156.372C282.944 158.286 282.747 158.563 280.843 158.799C280.458 158.857 280.069 158.88 279.68 158.868C278.693 158.868 278.269 159.135 278.693 160.181C278.781 160.561 278.781 160.956 278.693 161.336C278.585 162.174 278.457 163.013 278.348 163.763L280.321 164.75C280.514 164.603 280.737 164.498 280.973 164.442C281.21 164.385 281.455 164.379 281.695 164.422C281.934 164.466 282.161 164.559 282.363 164.695C282.564 164.831 282.735 165.008 282.865 165.214C283.042 164.947 283.25 164.789 283.24 164.641C283.243 164.074 283.361 163.513 283.587 162.993C283.812 162.472 284.14 162.002 284.551 161.612C286.76 158.859 286.701 158.395 287.756 158.355C289.243 158.349 290.711 158.687 292.046 159.342C292.31 159.404 292.568 159.49 292.816 159.599C293.326 159.852 293.774 160.216 294.127 160.664C294.519 161.552 294.848 162.465 295.113 163.398C295.843 163.339 295.961 162.539 296.1 161.76C296.205 161.386 296.181 160.987 296.03 160.628C295.88 160.27 295.612 159.973 295.271 159.786C294.73 159.571 294.264 159.2 293.933 158.721C293.601 158.241 293.418 157.675 293.407 157.092C293.831 157.201 294.393 157.428 294.393 157.684C294.482 159.105 295.38 159.401 296.553 159.47C296.984 159.468 297.401 159.627 297.722 159.915C298.043 160.203 298.245 160.6 298.289 161.03C298.565 162.174 299.029 163.27 299.433 164.454C300.488 163.891 301.05 163.289 300.883 162.155C300.883 161.809 301.169 161.405 301.326 161.03C301.681 161.207 302.174 161.296 302.313 161.582C302.614 162.069 302.812 162.614 302.894 163.181C303.082 164.168 303.595 164.849 304.66 164.859C305.648 164.857 306.635 164.804 307.618 164.701C308.703 164.582 309.186 164.977 308.989 166.053C308.81 166.892 308.569 167.716 308.269 168.52C308.135 168.935 307.871 169.296 307.515 169.548C307.16 169.801 306.733 169.932 306.297 169.921C304.077 170.203 301.822 169.883 299.768 168.993C298.082 168.263 297.875 168.441 297.599 170.197C297.48 170.977 297.096 171.016 296.563 170.651C296.221 170.333 295.862 170.033 295.488 169.753C294.363 169.091 293.181 168.53 291.958 168.076C290.971 167.75 290.725 167.563 291.139 166.576C291.405 165.934 291.553 165.243 291.819 164.345C283.457 165.076 286.198 164.809 285.074 165.184C284.15 165.553 283.196 165.843 282.224 166.053C281.598 166.053 280.997 166.299 280.55 166.738C280.104 167.177 279.848 167.775 279.837 168.401C278.486 168.135 277.47 168.401 277.47 170.109C277.47 170.592 275.695 171.559 275.981 173.138C275.981 173.276 275.725 173.582 275.557 173.622C274.62 173.819 274.453 174.609 274.088 175.289C273.71 175.853 273.292 176.387 272.835 176.888C272.53 177.303 271.938 177.875 272.046 178.151C272.747 179.898 272.046 181.546 271.859 183.224C271.425 186.905 273.762 187.586 274.078 188.72C274.719 190.961 276.612 191.77 278.437 192.599C280.587 193.586 282.668 192.845 284.739 192.155C285.616 191.859 286.711 191.434 287.322 192.362C287.816 193.082 288.309 193.023 288.969 193.092C289.354 193.141 289.956 193.467 290.015 193.704C290.193 194.574 290.125 195.476 289.818 196.309C289.147 197.484 289.502 198.283 290.005 199.27C290.774 200.868 292.076 202.23 291.977 204.283C291.785 206.651 291.785 209.03 291.977 211.398C292.234 213.914 292.963 216.382 293.397 218.878C293.756 220.344 294.331 221.747 295.103 223.043C295.681 224.465 296.11 225.944 296.386 227.454C297.115 227.326 297.648 227.188 298.19 227.148C299.739 227.104 301.229 226.549 302.43 225.569C303.63 224.589 304.473 223.239 304.827 221.73C305.005 221.099 305.36 220.526 305.587 219.905C306.08 218.543 306.938 217.151 306.908 215.789C306.825 214.988 306.989 214.179 307.379 213.474C307.769 212.768 308.365 212.199 309.088 211.842C310.041 211.163 310.767 210.212 311.17 209.113C311.573 208.014 311.634 206.819 311.346 205.684C310.991 204.382 310.685 203.069 310.458 201.737C310.184 200.788 310.269 199.771 310.696 198.881C311.124 197.991 311.864 197.29 312.776 196.911C314.619 195.851 316.051 194.2 316.839 192.224C317.243 191.306 317.776 190.438 318.19 189.53C318.346 189.073 318.461 188.605 318.535 188.128C318.076 188.049 317.61 188.022 317.145 188.049C315.488 188.336 313.604 188.405 312.776 186.914C311.948 185.424 310.981 184.033 310.251 182.513C309.569 180.819 308.999 179.082 308.545 177.313C308.161 176.128 307.707 174.964 307.362 173.77C307.332 173.409 307.379 173.045 307.5 172.704C307.855 172.793 308.338 172.704 308.555 172.98C308.931 173.367 309.202 173.842 309.344 174.362C309.512 174.993 309.403 175.694 309.561 176.336C309.73 176.775 309.974 177.182 310.281 177.539C310.684 178.018 311.05 178.526 311.376 179.059C312.046 180.421 312.628 181.813 313.239 183.204C313.456 183.568 313.612 183.965 313.703 184.378C313.841 185.434 314.403 185.997 315.054 186.086C316.04 185.563 316.78 185.099 317.539 184.803C318.683 184.309 319.867 183.905 321.001 183.401C322.352 182.809 323.308 181.941 323.062 180.263C323.058 180.095 323.089 179.928 323.151 179.772C323.214 179.616 323.308 179.474 323.427 179.355C324.778 178.043 323.338 176.938 322.095 175.635C319.295 178.872 318.792 175.872 316.938 171.875C317.036 171.747 317.145 171.628 317.253 171.5C317.865 171.747 318.811 171.836 319.038 172.28C319.39 172.983 319.933 173.572 320.605 173.981C321.276 174.389 322.049 174.6 322.835 174.589C323.2 174.589 323.821 174.737 323.871 174.924C324.127 175.97 324.965 175.783 325.636 175.842C326.809 175.951 327.983 175.911 329.147 176.039C329.352 176.078 329.547 176.16 329.717 176.281C329.887 176.402 330.029 176.559 330.133 176.74C330.853 178.408 331.297 180.243 333.289 180.944C333.476 181.013 333.604 181.289 333.732 181.477C337.283 186.776 334.275 191.612 337.894 190.26C338.498 189.978 338.968 189.472 339.206 188.849C339.936 186.875 338.663 184.211 340.941 183.431C341.198 183.352 341.356 182.977 341.563 182.75C343.979 179.977 344.009 180.056 344.009 179.789C344.009 178.753 344.581 178.576 345.448 178.645C345.841 178.628 346.229 178.558 346.602 178.438C347.815 178.201 348.18 178.438 348.151 179.602C348.057 180.456 348.209 181.319 348.588 182.09C348.967 182.86 349.557 183.507 350.291 183.954C350.515 184.116 350.679 184.349 350.754 184.615C351.174 185.907 351.503 187.225 351.74 188.563C351.888 189.786 351.74 191.03 352.855 191.938C352.988 192.08 353.065 192.266 353.072 192.461C352.179 192.921 351.257 193.32 350.31 193.655C349.817 193.882 349.087 194.434 349.038 194.928C348.821 197.128 348.811 199.359 348.752 201.589C348.752 202.852 348.801 204.135 348.693 205.398C348.555 207.066 349.393 208.783 350.665 208.704C352.099 208.518 353.509 208.187 354.876 207.717C355.516 207.532 356.145 207.311 356.76 207.056C357.469 206.824 358.161 206.544 358.831 206.217C359.551 205.813 362.391 207.086 362.608 208.013C362.652 208.201 362.652 208.397 362.608 208.586C362.342 209.513 362.815 209.651 363.338 210.056C364.294 210.716 365.079 211.596 365.626 212.622C366.385 214.349 366.306 214.408 367.776 214.122C368.723 214.018 369.679 214.018 370.626 214.122C370.626 214.122 370.675 214.043 370.705 214.023C371.75 213.382 371.918 211.99 372.45 210.885C373.436 208.911 374.61 207.184 375.024 204.727C375.403 202.957 375.349 201.122 374.866 199.378C374.587 198.605 374.36 197.814 374.186 197.01C374.122 196.165 373.872 195.345 373.452 194.609C373.033 193.874 372.454 193.241 371.76 192.757C371.319 192.454 370.967 192.039 370.738 191.556C370.509 191.072 370.413 190.536 370.458 190.003C370.451 189.082 370.305 188.167 370.024 187.289C369.601 186.236 369.117 185.208 368.574 184.211C367.46 184.734 367.953 186.105 367.835 187.26C367.692 188.296 367.494 189.324 367.243 190.339C366.465 190.06 365.712 189.714 364.995 189.303C363.9 188.563 363.722 187.329 364.275 185.938C364.373 185.497 364.356 185.038 364.225 184.605C363.184 184.347 362.108 184.264 361.04 184.359C360.764 184.408 360.645 185.76 360.409 186.49C360.271 186.934 360.054 187.704 359.876 187.714H359.413C360.083 186.826 359.847 185.997 358.555 184.063C358.477 183.976 358.411 183.88 358.358 183.776C357.954 182.853 357.625 181.9 357.371 180.924C357.312 180.658 357.914 180.076 358.308 179.938C358.88 179.74 359.294 180.105 359.225 180.776C359.156 181.447 359.176 182.059 359.926 181.941C360.16 181.828 360.362 181.658 360.512 181.445C360.662 181.233 360.756 180.986 360.784 180.727C360.747 180.423 360.829 180.117 361.012 179.872C361.196 179.627 361.468 179.463 361.77 179.414C362.332 179.276 362.914 179.247 363.476 179.138C363.801 179.069 364.255 179.039 364.413 178.822C365.448 177.431 366.849 176.188 366.819 174.263C366.789 172.339 366.651 170.316 366.533 168.342C366.4 167.817 366.307 167.283 366.257 166.743C366.341 166.364 366.324 165.97 366.208 165.599C366.092 165.229 365.881 164.895 365.596 164.632C365.528 164.495 365.493 164.345 365.493 164.192C365.493 164.04 365.528 163.89 365.596 163.753C366.168 163.378 366.957 162.766 367.411 162.905C368.305 163.239 369.075 163.838 369.62 164.622C370.257 165.75 370.801 166.928 371.247 168.145C371.563 168.145 371.839 168.086 372.105 168.036C372.371 167.987 372.687 167.888 373.219 167.75C372.884 166.487 372.628 165.283 372.233 164.118C371.977 163.349 372.638 161.158 373.417 161.069C374.974 160.756 376.347 159.846 377.243 158.533C378.177 157.519 378.881 156.315 379.308 155.004C379.735 153.692 379.875 152.304 379.718 150.934C379.723 150.721 379.683 150.509 379.602 150.312C379.52 150.115 379.398 149.937 379.244 149.79C379.09 149.642 378.908 149.528 378.707 149.455C378.507 149.382 378.294 149.351 378.081 149.365C375.488 149.158 375.557 149.158 376.691 146.789C377.588 144.895 378.742 143.918 381.03 144.135C382.204 144.243 383.407 144.135 384.59 144.135V130.28C384.505 130.257 384.42 130.237 384.334 130.22ZM299.729 203.326C299.729 203.326 295.034 197.237 295.034 194.651C295.034 193.406 295.529 192.211 296.409 191.33C297.29 190.449 298.484 189.954 299.729 189.954C300.974 189.954 302.168 190.449 303.048 191.33C303.928 192.211 304.423 193.406 304.423 194.651C304.423 197.237 299.729 203.326 299.729 203.326ZM344.817 160.122L339.886 155.188L337.973 157.112L336.099 148.536L344.669 150.411L342.746 152.336L347.677 157.27L344.817 160.122Z" fill="#1B5A96"/>
<path d="M244.137 207.145C243.693 207.145 243.259 207.276 242.889 207.523C242.52 207.77 242.231 208.121 242.061 208.531C241.89 208.942 241.845 209.394 241.931 209.83C242.017 210.266 242.23 210.667 242.544 210.982C242.857 211.297 243.257 211.512 243.693 211.6C244.128 211.688 244.58 211.645 244.991 211.476C245.402 211.307 245.754 211.02 246.002 210.652C246.25 210.283 246.384 209.849 246.386 209.404C246.387 209.108 246.33 208.814 246.217 208.54C246.105 208.266 245.94 208.017 245.731 207.807C245.522 207.597 245.273 207.43 245 207.317C244.727 207.203 244.433 207.145 244.137 207.145Z" fill="#1B5A96"/>
<path d="M260.991 199.319C259.256 197.75 257.569 196.102 255.311 195.263C254.889 195.094 254.432 195.03 253.979 195.076C252.007 195.431 250.932 194.671 250.686 192.599C250.614 192.216 250.465 191.852 250.248 191.53C250.031 191.207 249.751 190.931 249.424 190.72C249.098 190.508 248.732 190.366 248.348 190.3C247.965 190.235 247.573 190.248 247.195 190.339C246.208 190.694 245.715 190.339 245.419 189.352C245.102 188.231 244.403 187.256 243.443 186.596C242.483 185.937 241.323 185.634 240.163 185.74C239.408 185.706 238.682 185.441 238.082 184.98C237.673 184.659 237.167 184.485 236.647 184.485C236.127 184.485 235.622 184.659 235.212 184.98C234.344 185.71 233.457 186.421 232.668 187.23C232.392 187.506 232.116 188.158 232.254 188.414C233.181 190.151 232.254 191.375 231.396 192.776C229.423 196.22 228.733 197.148 231.051 200.306C231.482 201.033 231.695 201.869 231.662 202.714C231.661 203.775 231.963 204.814 232.532 205.71C233.102 206.605 233.916 207.318 234.877 207.766C235.424 207.983 235.889 208.367 236.206 208.863C236.523 209.359 236.675 209.942 236.642 210.529C236.425 214.747 236.182 218.96 235.913 223.171C235.806 223.779 235.637 224.374 235.41 224.947C235.221 225.406 235.092 225.887 235.025 226.378C234.907 231.105 234.808 235.832 234.778 240.559C234.801 240.817 234.877 241.068 235.001 241.295C235.125 241.523 235.294 241.722 235.498 241.881C236.761 242.789 238.092 243.608 239.443 244.388C239.818 244.513 240.213 244.563 240.607 244.536C240.208 243.73 239.919 242.873 239.749 241.99C239.749 240.263 238.496 238.24 240.735 236.937C240.735 236.937 240.735 236.799 240.735 236.839C240.41 236.217 239.749 235.546 239.897 235.161C240.526 233.44 241.26 231.759 242.096 230.128C242.475 229.516 242.914 228.944 243.408 228.421C243.967 228.476 244.531 228.39 245.049 228.169C245.566 227.948 246.019 227.6 246.366 227.158C246.476 227.06 246.562 226.939 246.619 226.804C246.676 226.669 246.702 226.523 246.695 226.377C246.689 226.23 246.649 226.087 246.581 225.957C246.512 225.828 246.415 225.715 246.297 225.628C245.875 225.024 245.528 224.371 245.262 223.684L245.656 223.437L246.09 223.615C247.826 224.296 248.477 224.02 249.275 222.312C249.436 221.957 249.688 221.651 250.005 221.424C250.811 220.967 251.461 220.279 251.872 219.449C252.284 218.619 252.437 217.685 252.313 216.766C252.313 216.431 252.411 215.888 252.648 215.779C253.743 215.178 254.206 213.658 255.725 213.668C255.972 213.668 256.218 213.312 256.455 213.115C257.707 212.079 257.668 210.569 257.964 209.168C258.26 207.766 258.191 206.395 259.867 205.852C260.173 205.753 260.34 205.181 260.518 204.806C260.804 204.174 261.001 203.493 261.327 202.881C261.667 202.332 261.818 201.687 261.758 201.044C261.697 200.401 261.428 199.795 260.991 199.319ZM244.137 218.069C244.137 218.069 239.443 211.98 239.443 209.395C239.443 208.149 239.938 206.954 240.818 206.073C241.698 205.192 242.892 204.697 244.137 204.697C245.382 204.697 246.576 205.192 247.457 206.073C248.337 206.954 248.832 208.149 248.832 209.395C248.832 211.99 244.137 218.079 244.137 218.079V218.069Z" fill="#1B5A96"/>
<path d="M215.587 155.128C215.142 155.126 214.707 155.257 214.336 155.502C213.966 155.748 213.676 156.098 213.504 156.508C213.332 156.919 213.285 157.371 213.37 157.808C213.455 158.245 213.667 158.646 213.98 158.962C214.294 159.278 214.693 159.495 215.129 159.583C215.565 159.672 216.017 159.629 216.429 159.461C216.84 159.292 217.193 159.006 217.441 158.637C217.69 158.268 217.824 157.833 217.826 157.388C217.827 157.093 217.77 156.8 217.658 156.527C217.547 156.253 217.382 156.004 217.174 155.794C216.966 155.585 216.719 155.418 216.447 155.303C216.175 155.189 215.882 155.13 215.587 155.128Z" fill="#1B5A96"/>
<path d="M243.368 138.816L242.895 138.687L241.277 141.214L240.627 140.789C240.715 139.951 240.794 139.102 240.873 138.322C239.96 137.831 239.1 137.246 238.309 136.576C237.912 136.172 237.417 135.878 236.872 135.723C236.328 135.567 235.753 135.555 235.202 135.687C234.552 135.766 234.295 136.003 234.433 136.773C234.512 137.62 234.512 138.472 234.433 139.319C234.388 139.773 234.408 140.232 234.492 140.681C234.609 141.094 234.609 141.531 234.493 141.944C234.376 142.357 234.147 142.729 233.832 143.02C233.54 143.381 233.349 143.814 233.279 144.273C233.092 145.398 233.003 146.533 232.855 147.826C231.731 147.125 230.538 146.839 230.636 145.408C230.735 143.977 230.636 143.918 229.216 143.849C228.703 143.849 227.865 143.582 227.767 143.257C227.471 142.27 226.869 142.27 226.08 142.27C225.291 142.27 224.522 142.102 224.453 141.155C224.453 140.582 224.374 140.168 223.743 140.02C223.585 140.02 223.487 139.576 223.427 139.319C222.954 137.178 224.532 134.602 226.849 133.694C229.167 132.786 230.676 131.345 230.913 128.76C231.001 127.773 230.469 127.299 229.473 127.635C229.019 127.783 228.546 127.862 228.003 127.99C228.319 126.411 228.319 126.411 226.81 124.812C225.429 125.918 223.457 126.322 222.865 128.286C222.829 128.377 222.77 128.457 222.694 128.52C222.618 128.582 222.528 128.624 222.431 128.641C221.702 128.641 220.972 128.553 220.242 128.493C220.309 127.93 220.472 127.383 220.725 126.875C220.938 126.615 221.068 126.299 221.1 125.965C221.131 125.631 221.063 125.295 220.903 125C220.629 124.139 220.421 123.258 220.281 122.365C220.222 122.069 220.134 121.773 220.055 121.487H219.759C219.759 122.819 219.207 123.342 217.934 122.898C217.067 122.569 216.168 122.331 215.252 122.187C214.827 122.159 214.413 122.04 214.039 121.837C213.665 121.635 213.338 121.354 213.082 121.013C212.893 120.817 212.657 120.673 212.396 120.594C212.136 120.514 211.859 120.502 211.593 120.559C210.598 120.986 209.688 121.591 208.911 122.345C208.483 123.002 208.179 123.731 208.013 124.497C208.722 124.695 209.419 124.928 210.104 125.197C210.672 125.443 211.198 125.776 211.662 126.184C211.81 126.312 211.662 127.053 211.583 127.082C210.931 127.196 210.272 127.265 209.611 127.289C209.493 127.276 209.384 127.22 209.305 127.132C208.526 126.214 207.658 125.73 206.475 126.48C206.363 126.513 206.246 126.523 206.13 126.507C206.015 126.492 205.903 126.453 205.804 126.391C205.389 126.133 204.892 126.039 204.411 126.127C203.93 126.214 203.499 126.477 203.201 126.865C202.812 127.231 202.331 127.483 201.809 127.592C201.287 127.702 200.745 127.666 200.242 127.487C196.751 126.757 193.23 126.164 189.71 125.513V138.342C190.361 138.342 191.021 138.342 191.682 138.283C192.668 138.224 193.073 138.984 193.526 139.674C193.635 139.842 193.94 139.882 194.098 140.039C194.565 140.454 195.003 140.899 195.41 141.372C196.083 142.454 196.888 143.448 197.806 144.332C198.159 144.512 198.454 144.786 198.66 145.124C198.865 145.462 198.973 145.851 198.97 146.247C198.946 146.724 199.046 147.2 199.26 147.627C199.474 148.054 199.796 148.418 200.193 148.684C202.165 150.125 202.52 151.329 201.672 153.618C200.968 155.793 200.887 158.122 201.437 160.34C201.988 162.559 203.149 164.579 204.788 166.171C205.293 166.657 205.707 167.228 206.011 167.859C206.998 169.911 207.984 172.013 208.97 174.056C209.167 174.431 209.69 174.638 210.065 174.924L210.528 174.549L207.481 168.016C207.992 168.108 208.45 168.39 208.763 168.806C209.266 169.576 209.562 170.484 210.104 171.204C211.2 172.58 212.005 174.165 212.471 175.862C213.289 179.079 217.402 181.783 220.636 181.497C221.007 181.437 221.387 181.518 221.702 181.724C222.505 182.622 223.523 183.301 224.66 183.697C225.029 183.843 225.333 184.116 225.518 184.467C226.653 186.174 228.29 187.484 230.202 188.217L232.264 187.062C231.574 187.103 230.882 187.103 230.193 187.062C228.132 186.776 228.141 186.747 227.964 184.615C227.909 183.836 227.783 183.063 227.589 182.306C227.402 181.585 227.037 181.082 226.08 181.428C225.814 181.516 225.094 181.092 225.045 180.875C224.954 180.031 225.041 179.177 225.301 178.368C225.922 176.809 225.883 176.632 224.256 176.395C223.64 177.112 222.982 177.791 222.283 178.428C222.034 178.645 221.731 178.792 221.406 178.853C221.081 178.913 220.745 178.885 220.434 178.771C220.124 178.657 219.85 178.461 219.641 178.205C219.431 177.948 219.295 177.64 219.246 177.312C218.743 175.174 218.743 172.948 219.246 170.809C219.319 170.37 219.5 169.956 219.774 169.606C220.048 169.256 220.406 168.98 220.815 168.804C221.223 168.628 221.669 168.558 222.112 168.599C222.555 168.641 222.98 168.794 223.349 169.043C223.92 169.437 224.443 169.635 224.67 168.757C224.897 167.878 225.35 167.947 225.991 168.234C226.337 168.391 226.78 168.372 227.086 168.579C227.392 168.786 228.072 169.24 228.072 169.566C228.171 171.204 229.561 171.806 230.449 172.852C230.553 172.561 230.594 172.252 230.567 171.944C230.373 170.71 230.281 169.463 230.291 168.214C230.326 167.349 230.677 166.527 231.277 165.905C232.898 164.648 233.96 162.805 234.236 160.773C234.284 160.043 234.601 159.356 235.126 158.846C235.65 158.335 236.345 158.038 237.076 158.01C237.924 157.931 238.181 157.526 238.062 156.796C237.855 155.572 238.437 155.039 239.571 154.951L240.627 154.862C241.218 154.803 241.524 154.566 241.465 153.875C241.374 152.977 241.564 152.073 242.009 151.288C242.455 150.503 243.133 149.876 243.95 149.493L248.052 147.076C248.417 146.868 248.822 146.711 249.206 146.533C247.77 145.699 246.514 144.587 245.511 143.262C244.509 141.937 243.78 140.426 243.368 138.816ZM215.587 166.092C215.587 166.092 210.893 160.003 210.893 157.418C210.893 156.172 211.388 154.977 212.268 154.096C213.148 153.215 214.342 152.72 215.587 152.72C216.832 152.72 218.026 153.215 218.907 154.096C219.787 154.977 220.281 156.172 220.281 157.418C220.281 159.974 215.587 166.062 215.587 166.062V166.092Z" fill="#1B5A96"/>
<path d="M377.44 95.5822L376.681 94.8125L373.929 97.5658L371.168 94.8125L370.409 95.5822L373.16 98.3355L370.409 101.089L371.168 101.859L373.929 99.1053L376.681 101.859L377.44 101.089L374.689 98.3355L377.44 95.5822Z" fill="white"/>
<path d="M354.58 101.859H361.622V94.8027H354.58V101.859ZM360.547 95.9376V100.872H355.616V95.9376H360.547Z" fill="white"/>
<path d="M345.478 97.793H339.078V98.8785H345.478V97.793Z" fill="white"/>
<path d="M339.127 120.717H235.331C228.985 120.717 223.842 125.865 223.842 132.214V132.224C223.842 138.573 228.985 143.721 235.331 143.721H339.127C345.472 143.721 350.616 138.573 350.616 132.224V132.214C350.616 125.865 345.472 120.717 339.127 120.717Z" fill="white" stroke="black" stroke-width="0.5" stroke-miterlimit="10"/>
<path d="M339.137 121.053H327.598V143.385H339.137C340.602 143.386 342.054 143.099 343.408 142.538C344.763 141.978 345.993 141.156 347.03 140.119C348.067 139.083 348.889 137.852 349.45 136.497C350.012 135.142 350.3 133.69 350.3 132.224C350.3 129.261 349.124 126.42 347.031 124.325C344.937 122.23 342.098 121.053 339.137 121.053Z" fill="#FB9100"/>
<path d="M343.772 136.141L341.129 133.487C341.798 132.58 342.119 131.463 342.032 130.339C341.945 129.216 341.456 128.161 340.655 127.368C340.017 126.722 339.206 126.272 338.32 126.072C337.434 125.873 336.509 125.933 335.655 126.244C334.801 126.556 334.055 127.106 333.505 127.83C332.955 128.553 332.624 129.419 332.552 130.326C332.479 131.232 332.669 132.14 333.097 132.942C333.525 133.743 334.175 134.405 334.968 134.848C335.761 135.292 336.665 135.497 337.572 135.441C338.479 135.386 339.35 135.07 340.083 134.533L342.726 137.188C342.865 137.326 343.053 137.404 343.249 137.404C343.445 137.404 343.633 137.326 343.772 137.188C343.842 137.12 343.897 137.038 343.935 136.948C343.973 136.859 343.992 136.762 343.992 136.665C343.992 136.567 343.973 136.471 343.935 136.381C343.897 136.291 343.842 136.21 343.772 136.141ZM339.61 133.023C339.155 133.478 338.575 133.788 337.944 133.913C337.312 134.038 336.658 133.974 336.064 133.727C335.47 133.48 334.961 133.063 334.604 132.528C334.247 131.992 334.056 131.363 334.056 130.719C334.056 130.075 334.247 129.445 334.604 128.91C334.961 128.375 335.47 127.957 336.064 127.711C336.658 127.464 337.312 127.399 337.944 127.524C338.575 127.65 339.155 127.96 339.61 128.415C339.919 128.713 340.165 129.07 340.334 129.465C340.503 129.86 340.593 130.284 340.596 130.714C340.592 131.145 340.502 131.571 340.333 131.967C340.164 132.363 339.918 132.722 339.61 133.023Z" fill="white"/>
<path d="M235.922 135.244C235.874 135.196 235.836 135.139 235.81 135.076C235.785 135.014 235.773 134.946 235.774 134.878V127.526C235.773 127.459 235.786 127.392 235.811 127.329C235.837 127.266 235.874 127.209 235.922 127.161C235.969 127.112 236.026 127.072 236.089 127.045C236.151 127.018 236.219 127.004 236.287 127.003C236.356 127.004 236.423 127.018 236.486 127.046C236.548 127.073 236.605 127.112 236.652 127.161C236.703 127.207 236.743 127.264 236.77 127.327C236.798 127.39 236.811 127.458 236.81 127.526V130.487C237.075 130.185 237.389 129.928 237.737 129.727C238.097 129.531 238.501 129.432 238.911 129.441C239.293 129.432 239.67 129.535 239.995 129.737C240.303 129.932 240.546 130.214 240.696 130.546C240.864 130.893 240.948 131.275 240.942 131.661V134.869C240.944 134.937 240.932 135.006 240.904 135.069C240.877 135.132 240.836 135.188 240.784 135.234C240.713 135.306 240.621 135.356 240.521 135.376C240.421 135.396 240.317 135.386 240.223 135.347C240.128 135.308 240.048 135.241 239.992 135.156C239.935 135.071 239.906 134.971 239.907 134.869V131.77C239.907 130.842 239.492 130.388 238.664 130.388C238.314 130.39 237.971 130.493 237.678 130.684C237.359 130.902 237.076 131.168 236.84 131.474V134.869C236.842 134.937 236.829 135.006 236.802 135.069C236.774 135.132 236.733 135.188 236.682 135.234C236.634 135.282 236.577 135.319 236.514 135.345C236.452 135.37 236.385 135.383 236.317 135.382C236.245 135.389 236.172 135.38 236.104 135.357C236.036 135.333 235.974 135.294 235.922 135.244Z" fill="#FB9100"/>
<path d="M242.875 133.951V130.438H242.076C242.018 130.439 241.961 130.418 241.918 130.378C241.899 130.359 241.883 130.336 241.873 130.311C241.863 130.285 241.858 130.258 241.859 130.23C241.858 130.192 241.866 130.153 241.883 130.119C241.9 130.084 241.926 130.055 241.958 130.033L243.496 128.523C243.521 128.494 243.551 128.471 243.585 128.454C243.619 128.437 243.656 128.427 243.694 128.424C243.722 128.423 243.75 128.429 243.776 128.441C243.802 128.453 243.824 128.471 243.841 128.494C243.864 128.513 243.882 128.537 243.894 128.565C243.906 128.592 243.912 128.622 243.91 128.651V129.559H245.183C245.242 129.555 245.302 129.563 245.358 129.584C245.413 129.605 245.464 129.637 245.506 129.68C245.548 129.722 245.581 129.772 245.602 129.828C245.622 129.884 245.631 129.944 245.626 130.003C245.628 130.062 245.617 130.12 245.595 130.174C245.573 130.228 245.541 130.276 245.499 130.317C245.457 130.358 245.408 130.39 245.353 130.41C245.299 130.431 245.241 130.44 245.183 130.438H243.91V133.882C243.91 134.178 243.98 134.365 244.118 134.444C244.279 134.528 244.459 134.569 244.64 134.563C244.794 134.565 244.947 134.541 245.094 134.494H245.193H245.321C245.428 134.495 245.53 134.537 245.607 134.612C245.645 134.649 245.675 134.694 245.695 134.743C245.715 134.792 245.726 134.845 245.725 134.898C245.727 134.982 245.704 135.065 245.658 135.135C245.613 135.206 245.546 135.261 245.469 135.293C245.175 135.43 244.856 135.501 244.532 135.5C243.427 135.451 242.875 134.947 242.875 133.951Z" fill="#FB9100"/>
<path d="M247.204 133.951V130.438H246.396C246.368 130.439 246.341 130.434 246.315 130.424C246.29 130.413 246.267 130.398 246.248 130.378C246.225 130.361 246.207 130.339 246.195 130.313C246.183 130.287 246.178 130.259 246.179 130.23C246.179 130.191 246.189 130.152 246.208 130.118C246.227 130.084 246.254 130.054 246.287 130.033L247.826 128.523C247.848 128.495 247.877 128.471 247.909 128.454C247.941 128.437 247.977 128.427 248.013 128.424C248.043 128.423 248.073 128.429 248.1 128.441C248.127 128.453 248.151 128.471 248.171 128.494C248.21 128.537 248.231 128.593 248.23 128.651V129.559H249.502C249.56 129.557 249.618 129.566 249.672 129.587C249.726 129.607 249.776 129.638 249.818 129.678C249.861 129.72 249.894 129.771 249.916 129.827C249.938 129.883 249.948 129.943 249.946 130.003C249.947 130.061 249.936 130.117 249.914 130.17C249.892 130.222 249.859 130.27 249.818 130.309C249.778 130.352 249.729 130.386 249.674 130.408C249.62 130.431 249.561 130.44 249.502 130.438H248.22V133.882C248.22 134.178 248.289 134.365 248.427 134.444C248.592 134.528 248.775 134.569 248.96 134.563C249.114 134.563 249.267 134.54 249.413 134.494H249.512H249.64C249.692 134.494 249.743 134.504 249.79 134.525C249.838 134.545 249.881 134.575 249.916 134.612C249.958 134.647 249.991 134.691 250.013 134.741C250.035 134.79 250.046 134.844 250.045 134.898C250.046 134.982 250.022 135.064 249.976 135.134C249.93 135.205 249.865 135.26 249.788 135.293C249.48 135.437 249.142 135.508 248.802 135.5C247.757 135.451 247.204 134.948 247.204 133.951Z" fill="#FB9100"/>
<path d="M251.336 137.829C251.24 137.728 251.187 137.594 251.189 137.454V129.994C251.187 129.926 251.199 129.858 251.224 129.796C251.25 129.733 251.288 129.676 251.336 129.628C251.382 129.581 251.438 129.543 251.499 129.518C251.56 129.492 251.625 129.479 251.691 129.48C251.831 129.479 251.965 129.532 252.066 129.628C252.115 129.676 252.153 129.733 252.178 129.796C252.204 129.858 252.216 129.926 252.214 129.994V130.29C252.461 130.012 252.766 129.791 253.106 129.641C253.446 129.491 253.815 129.416 254.187 129.421C254.654 129.422 255.112 129.544 255.518 129.776C255.93 130.036 256.269 130.396 256.504 130.822C256.773 131.315 256.909 131.87 256.899 132.431C256.909 132.989 256.773 133.54 256.504 134.03C256.272 134.458 255.932 134.819 255.518 135.076C255.112 135.308 254.654 135.43 254.187 135.431C253.816 135.436 253.448 135.361 253.108 135.213C252.768 135.065 252.464 134.847 252.214 134.572V137.454C252.217 137.523 252.205 137.593 252.18 137.657C252.155 137.722 252.116 137.781 252.067 137.83C252.018 137.879 251.959 137.918 251.895 137.943C251.83 137.968 251.761 137.98 251.691 137.977C251.625 137.978 251.56 137.965 251.499 137.94C251.438 137.914 251.382 137.877 251.336 137.829ZM255.35 133.882C255.67 133.455 255.843 132.935 255.843 132.401C255.843 131.868 255.67 131.348 255.35 130.921C255.177 130.743 254.968 130.603 254.737 130.511C254.505 130.419 254.257 130.378 254.009 130.388C253.667 130.387 253.33 130.465 253.023 130.615C252.719 130.774 252.446 130.984 252.214 131.237V133.615C252.446 133.868 252.719 134.078 253.023 134.237C253.33 134.387 253.667 134.465 254.009 134.464C254.256 134.477 254.503 134.438 254.734 134.35C254.965 134.262 255.175 134.126 255.35 133.951V133.882Z" fill="#FB9100"/>
<path d="M258.378 130.674C258.318 130.617 258.27 130.548 258.238 130.472C258.206 130.395 258.189 130.313 258.19 130.23V130.161C258.189 130.076 258.204 129.992 258.237 129.914C258.269 129.836 258.317 129.766 258.378 129.707C258.495 129.588 258.655 129.521 258.822 129.52H258.94C259.107 129.522 259.266 129.589 259.384 129.707C259.445 129.766 259.493 129.836 259.525 129.914C259.557 129.992 259.573 130.076 259.571 130.161V130.23C259.572 130.313 259.556 130.395 259.524 130.472C259.492 130.548 259.444 130.617 259.384 130.674C259.266 130.792 259.107 130.859 258.94 130.862H258.822C258.655 130.86 258.495 130.793 258.378 130.674ZM258.378 135.184C258.318 135.127 258.27 135.058 258.238 134.982C258.206 134.905 258.189 134.823 258.19 134.74V134.671C258.189 134.586 258.204 134.502 258.237 134.424C258.269 134.346 258.317 134.276 258.378 134.217C258.495 134.098 258.655 134.031 258.822 134.029H258.94C259.107 134.032 259.266 134.099 259.384 134.217C259.445 134.276 259.493 134.346 259.525 134.424C259.557 134.502 259.573 134.586 259.571 134.671V134.74C259.572 134.823 259.556 134.905 259.524 134.982C259.492 135.058 259.444 135.127 259.384 135.184C259.266 135.302 259.107 135.369 258.94 135.371H258.822C258.655 135.37 258.495 135.303 258.378 135.184Z" fill="#FB9100"/>
<path d="M261.051 136.28C260.97 136.186 260.924 136.068 260.922 135.944C260.912 135.889 260.912 135.832 260.922 135.776L263.881 126.993C263.909 126.899 263.968 126.817 264.049 126.759C264.129 126.702 264.226 126.673 264.325 126.678C264.387 126.677 264.449 126.69 264.506 126.713C264.564 126.737 264.616 126.772 264.66 126.816C264.742 126.905 264.788 127.021 264.788 127.141C264.801 127.197 264.801 127.254 264.788 127.309L261.83 136.092C261.801 136.187 261.742 136.269 261.662 136.326C261.581 136.383 261.484 136.412 261.386 136.408C261.324 136.411 261.262 136.401 261.205 136.379C261.147 136.357 261.094 136.323 261.051 136.28Z" fill="#FB9100"/>
<path d="M264.394 136.28C264.308 136.189 264.262 136.068 264.265 135.944C264.258 135.888 264.258 135.832 264.265 135.776L267.273 126.993C267.301 126.903 267.356 126.824 267.431 126.766C267.51 126.705 267.608 126.674 267.707 126.678C267.77 126.676 267.831 126.688 267.889 126.712C267.947 126.735 267.999 126.771 268.042 126.816C268.085 126.858 268.119 126.909 268.141 126.965C268.163 127.021 268.173 127.081 268.171 127.141C268.179 127.197 268.179 127.254 268.171 127.309L265.212 136.092C265.181 136.18 265.126 136.259 265.054 136.319C264.971 136.379 264.871 136.41 264.768 136.408C264.7 136.417 264.631 136.41 264.566 136.388C264.501 136.366 264.442 136.328 264.394 136.28Z" fill="#FB9100"/>
<path d="M270.942 135.253C270.828 135.169 270.742 135.052 270.695 134.918L269.088 130.201C269.079 130.139 269.079 130.075 269.088 130.013C269.085 129.878 269.135 129.747 269.226 129.648C269.274 129.6 269.331 129.562 269.393 129.537C269.456 129.511 269.523 129.499 269.591 129.5C269.693 129.498 269.794 129.529 269.877 129.589C269.961 129.636 270.025 129.714 270.054 129.806L271.386 134.168L272.697 129.905C272.733 129.789 272.806 129.689 272.904 129.619C273.003 129.542 273.125 129.5 273.25 129.5C273.375 129.5 273.496 129.542 273.595 129.619C273.693 129.689 273.766 129.789 273.802 129.905L275.123 134.168L276.445 129.806C276.475 129.714 276.538 129.636 276.622 129.589C276.706 129.529 276.806 129.498 276.908 129.5C276.976 129.499 277.043 129.511 277.106 129.537C277.169 129.562 277.226 129.6 277.273 129.648C277.322 129.696 277.36 129.752 277.385 129.815C277.411 129.878 277.423 129.946 277.421 130.013C277.429 130.075 277.429 130.139 277.421 130.201L275.814 134.918C275.771 135.054 275.684 135.172 275.567 135.253C275.451 135.342 275.309 135.391 275.163 135.392C275.013 135.393 274.867 135.344 274.749 135.253C274.631 135.166 274.542 135.046 274.492 134.908L273.289 131.158L272.086 134.908C272.036 135.046 271.947 135.166 271.83 135.253C271.713 135.342 271.571 135.391 271.425 135.392C271.253 135.407 271.08 135.358 270.942 135.253Z" fill="#FB9100"/>
<path d="M279.916 135.253C279.796 135.173 279.706 135.055 279.66 134.918L278.102 130.201C278.093 130.139 278.093 130.075 278.102 130.013C278.1 129.946 278.113 129.878 278.138 129.815C278.163 129.752 278.201 129.695 278.249 129.647C278.297 129.599 278.354 129.562 278.417 129.536C278.479 129.511 278.547 129.499 278.614 129.5C278.716 129.501 278.816 129.531 278.9 129.589C278.985 129.636 279.048 129.714 279.078 129.806L280.399 134.168L281.711 129.905C281.747 129.789 281.82 129.689 281.918 129.619C282.017 129.542 282.138 129.5 282.263 129.5C282.389 129.498 282.51 129.54 282.608 129.619C282.712 129.685 282.789 129.787 282.825 129.905L284.137 134.168L285.458 129.806C285.488 129.714 285.552 129.636 285.636 129.589C285.72 129.531 285.82 129.501 285.922 129.5C285.99 129.499 286.057 129.511 286.12 129.536C286.183 129.562 286.24 129.599 286.288 129.647C286.336 129.695 286.373 129.752 286.399 129.815C286.424 129.878 286.436 129.946 286.435 130.013C286.448 130.075 286.448 130.139 286.435 130.201L284.827 134.918C284.785 135.054 284.698 135.172 284.581 135.253C284.465 135.342 284.323 135.391 284.176 135.392C284.03 135.392 283.888 135.344 283.772 135.253C283.649 135.17 283.556 135.049 283.506 134.908L282.303 131.158L281.109 134.908C281.056 135.047 280.964 135.167 280.843 135.253C280.727 135.343 280.585 135.392 280.439 135.392C280.292 135.392 280.15 135.343 280.034 135.253H279.916Z" fill="#FB9100"/>
<path d="M288.881 135.253C288.763 135.172 288.677 135.054 288.634 134.918L287.027 130.201C287.014 130.139 287.014 130.075 287.027 130.013C287.027 129.92 287.052 129.829 287.1 129.75C287.148 129.67 287.217 129.605 287.299 129.562C287.381 129.518 287.473 129.498 287.566 129.502C287.659 129.507 287.748 129.537 287.825 129.589C287.91 129.636 287.973 129.714 288.003 129.806L289.324 134.168L290.636 129.905C290.672 129.787 290.749 129.685 290.853 129.619C290.951 129.54 291.073 129.498 291.198 129.5C291.323 129.5 291.445 129.542 291.543 129.619C291.642 129.689 291.715 129.789 291.75 129.905L293.062 134.168L294.384 129.806C294.413 129.714 294.477 129.636 294.561 129.589C294.645 129.531 294.745 129.501 294.847 129.5C294.915 129.499 294.982 129.511 295.045 129.536C295.108 129.562 295.165 129.599 295.213 129.647C295.261 129.695 295.298 129.752 295.324 129.815C295.349 129.878 295.361 129.946 295.36 130.013C295.369 130.075 295.369 130.139 295.36 130.201L293.752 134.918C293.706 135.055 293.616 135.173 293.496 135.253C293.38 135.343 293.238 135.392 293.092 135.392C292.945 135.392 292.803 135.343 292.687 135.253C292.567 135.167 292.474 135.047 292.421 134.908L291.228 131.158L289.936 134.869C289.886 135.007 289.797 135.127 289.679 135.214C289.559 135.302 289.414 135.35 289.265 135.352C289.13 135.359 288.996 135.324 288.881 135.253Z" fill="#FB9100"/>
<path d="M296.159 135.184C296.098 135.127 296.051 135.058 296.019 134.982C295.986 134.906 295.97 134.823 295.971 134.74V134.671C295.971 134.503 296.037 134.341 296.155 134.221C296.274 134.101 296.434 134.032 296.602 134.03H296.711C296.881 134.03 297.044 134.097 297.164 134.218C297.284 134.338 297.352 134.501 297.352 134.671V134.74C297.349 134.909 297.281 135.069 297.161 135.188C297.041 135.306 296.879 135.372 296.711 135.372H296.602C296.52 135.372 296.438 135.356 296.361 135.324C296.285 135.291 296.216 135.244 296.159 135.184Z" fill="#FB9100"/>
<path d="M131.347 200.326C131.496 199.349 131.765 198.395 132.146 197.484C133.694 193.892 136.811 192.875 139.296 190.754C142.254 188.247 144.473 183.846 145.272 178.911C146.801 169.507 160.952 160.221 172.501 167.622C173.102 168.017 175.163 170.198 175.834 170.661C177.29 171.677 178.434 173.078 179.138 174.707C180.455 177.708 180.952 181.004 180.578 184.26C180.351 186.313 179.818 188.277 179.532 190.329C179.246 192.382 179.098 199.773 180.055 201.392C185.814 211.082 180.745 214.704 180.055 215.859C180.055 215.859 181.238 217.319 181.228 217.329C178.615 222.48 176.219 216.52 171.061 215.869L168.23 215.513C167.401 212.921 167.179 210.173 167.58 207.48C162.146 208.762 156.959 210.925 152.225 213.885C151.885 214.026 151.555 214.191 151.238 214.379C150.434 214.821 149.597 215.2 148.734 215.513H138.004C133.389 213.362 130.262 207.027 131.347 200.326Z" fill="black"/>
<path d="M236.208 234.332C233.881 238.279 224.601 237.47 224.601 237.47C224.601 237.47 203.684 263.76 195.015 261.371C189.039 259.733 178.793 237.174 178.793 237.174L190.627 235.299C191.396 236.039 197.284 247.635 197.284 247.635L222.333 229.348C222.333 229.348 226.682 218.878 228.161 220.98C229.64 223.082 227.421 226.26 227.254 226.536C227.796 226.2 240.074 218.641 240.331 221.306C240.587 223.97 233.615 227.118 233.615 227.118C233.615 227.118 238.536 230.444 236.208 234.332Z" fill="#F2C3B3"/>
<path d="M179.759 240.54L181.011 254.563L182.51 268.092L184 291.244C182.737 291.678 181.475 292.063 180.213 292.418H139.779C138.438 292.053 137.097 291.668 135.755 291.244L139.818 242.119C137.698 245.405 123.467 243.648 124.937 238.803C127.6 230.079 130.312 221.661 138.024 214.181C142.58 209.76 149.67 209.415 156.367 208.813C166.939 207.826 171.505 210.273 177.767 213.096C190.084 218.632 192.56 237.165 192.56 237.165C187.589 242.73 179.759 240.54 179.759 240.54Z" fill="#FB9100"/>
<path d="M169.187 253.289C170.252 254.187 168.566 257.237 168.566 257.237H163.793C167.096 256.043 167.244 251.681 169.187 253.289Z" fill="#F2C3B3"/>
<path d="M194.384 239.562L173.862 240.756C173.503 240.773 173.16 240.906 172.884 241.136C172.608 241.366 172.414 241.679 172.333 242.029L165.016 272.424C164.953 272.678 164.951 272.942 165.01 273.197C165.069 273.451 165.186 273.688 165.353 273.889C165.52 274.089 165.732 274.248 165.971 274.352C166.211 274.456 166.471 274.502 166.731 274.487L187.254 273.293C187.61 273.272 187.951 273.138 188.225 272.908C188.498 272.679 188.69 272.367 188.773 272.02L196.1 241.615C196.161 241.362 196.161 241.099 196.101 240.845C196.042 240.592 195.924 240.357 195.757 240.157C195.591 239.958 195.38 239.8 195.141 239.697C194.903 239.594 194.644 239.547 194.384 239.562Z" fill="black"/>
<path d="M125.519 241.112C129.927 244.141 134.335 243.806 137.54 243.411C136.554 247.783 136.209 251.217 135.913 252.293C135.913 252.293 141.83 252.293 150.617 255.539C150.617 255.539 160.479 258.391 163.793 257.207H168.566C168.566 257.207 174.572 256.97 175.568 258.678C176.1 259.827 176.213 261.127 175.887 262.351C175.561 263.575 174.816 264.646 173.783 265.378C172.254 266.296 169.641 265.556 167.737 265.161C163.033 264.174 163.507 262.457 158.812 263.099C154.118 263.74 129.809 261.046 129.227 260.71C128.645 260.375 124.749 260.207 124.099 255.835C123.744 253.467 124.355 247.812 125.519 241.112Z" fill="#F2C3B3"/>
<path d="M169.029 201.974C168.802 203.217 155.844 205.289 155.844 205.289C157.233 202.685 157.722 199.694 157.235 196.783C157.075 195.51 156.788 194.257 156.377 193.043C156.377 193.043 151.633 187.477 154.887 185.266C157.116 183.747 158.635 185.355 159.818 188.434C159.818 188.434 163.319 172.428 173.802 174.727C174.461 174.889 175.059 175.237 175.524 175.731C175.99 176.225 176.303 176.842 176.426 177.51C177.254 181.585 178.763 190.694 176.909 196.033C174.424 203.079 169.029 201.974 169.029 201.974Z" fill="#F2C3B3"/>
<path d="M157.234 196.803C157.305 196.909 157.38 197.011 157.461 197.109C158.839 198.815 160.614 200.157 162.631 201.018C164.648 201.878 166.845 202.23 169.029 202.043C168.043 207.313 170.686 210.165 170.686 210.165L162.471 220.112L151.219 209.375C157.047 206.661 157.629 200.276 157.234 196.803Z" fill="#F4A998"/>
<path d="M174.427 187.81C174.9 187.731 175.177 187.031 175.046 186.246C174.915 185.461 174.426 184.889 173.953 184.968C173.48 185.047 173.203 185.747 173.334 186.532C173.465 187.317 173.954 187.889 174.427 187.81Z" fill="black"/>
<path d="M166.092 189.329C166.565 189.25 166.842 188.55 166.711 187.765C166.58 186.98 166.091 186.408 165.618 186.487C165.146 186.566 164.868 187.266 164.999 188.051C165.13 188.836 165.619 189.408 166.092 189.329Z" fill="black"/>
<path d="M171.702 183.036C171.585 182.918 171.52 182.759 171.52 182.592C171.52 182.426 171.585 182.266 171.702 182.148C172.137 181.703 172.693 181.395 173.302 181.264C173.91 181.132 174.544 181.182 175.124 181.408C175.28 181.47 175.404 181.591 175.471 181.744C175.537 181.898 175.54 182.071 175.479 182.227C175.45 182.304 175.405 182.374 175.349 182.433C175.292 182.493 175.224 182.541 175.149 182.574C175.074 182.607 174.993 182.624 174.91 182.626C174.828 182.627 174.747 182.613 174.67 182.582C174.319 182.452 173.937 182.424 173.57 182.503C173.203 182.581 172.867 182.763 172.599 183.027C172.542 183.088 172.473 183.137 172.396 183.171C172.319 183.204 172.237 183.222 172.153 183.223C172.069 183.224 171.986 183.208 171.908 183.176C171.831 183.144 171.761 183.096 171.702 183.036Z" fill="black"/>
<path d="M163.161 184.398C163.045 184.28 162.979 184.12 162.979 183.954C162.979 183.788 163.045 183.628 163.161 183.51C163.598 183.066 164.155 182.76 164.763 182.63C165.371 182.501 166.004 182.552 166.584 182.779C166.66 182.809 166.73 182.853 166.79 182.91C166.849 182.967 166.897 183.035 166.93 183.11C166.963 183.185 166.981 183.266 166.982 183.348C166.984 183.431 166.969 183.512 166.939 183.589C166.877 183.744 166.757 183.87 166.604 183.938C166.451 184.006 166.277 184.012 166.12 183.954C165.771 183.824 165.392 183.796 165.027 183.873C164.662 183.949 164.326 184.128 164.059 184.388C164.002 184.449 163.932 184.498 163.856 184.532C163.779 184.566 163.696 184.584 163.612 184.585C163.528 184.586 163.445 184.57 163.368 184.537C163.29 184.505 163.22 184.458 163.161 184.398Z" fill="black"/>
<path d="M167.372 197.039C167.856 199.951 172.382 199.763 172.905 196.349C172.075 196.826 171.158 197.133 170.208 197.252C169.258 197.37 168.294 197.298 167.372 197.039Z" fill="black"/>
<path d="M169.799 194.622C169.712 194.615 169.627 194.591 169.55 194.55C169.473 194.509 169.405 194.452 169.351 194.384C169.297 194.315 169.258 194.236 169.236 194.152C169.214 194.067 169.21 193.979 169.223 193.893C169.237 193.807 169.268 193.725 169.315 193.651C169.362 193.578 169.424 193.515 169.497 193.466C169.569 193.418 169.651 193.385 169.737 193.37C169.823 193.355 169.911 193.358 169.996 193.378C171.357 193.586 171.889 193.378 171.968 193.211C172.047 193.043 171.968 192.619 171.426 191.938C170.737 190.923 170.227 189.799 169.917 188.612C169.875 188.45 169.899 188.278 169.984 188.133C170.069 187.989 170.208 187.884 170.371 187.842C170.533 187.8 170.705 187.825 170.849 187.91C170.993 187.995 171.098 188.134 171.14 188.296C171.397 189.313 171.827 190.278 172.412 191.148C174.069 193.23 173.319 195.165 169.799 194.622Z" fill="black"/>
<path d="M420.31 100.142C420.142 100.142 419.982 100.075 419.863 99.9566C419.745 99.8382 419.679 99.6775 419.679 99.51V95.7304C419.679 95.5629 419.745 95.4023 419.863 95.2838C419.982 95.1654 420.142 95.0989 420.31 95.0989C420.477 95.0989 420.638 95.1654 420.756 95.2838C420.874 95.4023 420.941 95.5629 420.941 95.7304V99.51C420.941 99.6775 420.874 99.8382 420.756 99.9566C420.638 100.075 420.477 100.142 420.31 100.142ZM156.801 90.9837C156.635 90.9811 156.477 90.9135 156.361 90.7953C156.244 90.6771 156.179 90.518 156.179 90.3521V86.5725C156.168 86.4836 156.176 86.3934 156.202 86.3078C156.229 86.2222 156.273 86.1431 156.332 86.0759C156.391 86.0088 156.464 85.9549 156.546 85.9181C156.627 85.8812 156.716 85.8622 156.805 85.8622C156.895 85.8622 156.984 85.8812 157.065 85.9181C157.147 85.9549 157.22 86.0088 157.279 86.0759C157.338 86.1431 157.382 86.2222 157.409 86.3078C157.435 86.3934 157.443 86.4836 157.432 86.5725V90.3521C157.432 90.5196 157.365 90.6803 157.247 90.7987C157.128 90.9172 156.968 90.9837 156.801 90.9837ZM420.31 90.066C420.142 90.066 419.982 89.9994 419.863 89.881C419.745 89.7625 419.679 89.6019 419.679 89.4344V85.6646C419.679 85.4971 419.745 85.3365 419.863 85.2181C419.982 85.0996 420.142 85.0331 420.31 85.0331C420.477 85.0331 420.638 85.0996 420.756 85.2181C420.874 85.3365 420.941 85.4971 420.941 85.6646V89.4739C420.931 89.6344 420.86 89.7851 420.743 89.8951C420.625 90.0052 420.471 90.0663 420.31 90.066ZM156.801 80.9081C156.718 80.9081 156.637 80.8917 156.56 80.8598C156.484 80.828 156.416 80.7813 156.358 80.7225C156.3 80.6637 156.254 80.594 156.224 80.5174C156.193 80.4409 156.178 80.359 156.179 80.2765V76.5068C156.168 76.4179 156.176 76.3276 156.202 76.242C156.229 76.1564 156.273 76.0773 156.332 76.0101C156.391 75.943 156.464 75.8892 156.546 75.8523C156.627 75.8154 156.716 75.7964 156.805 75.7964C156.895 75.7964 156.984 75.8154 157.065 75.8523C157.147 75.8892 157.22 75.943 157.279 76.0101C157.338 76.0773 157.382 76.1564 157.409 76.242C157.435 76.3276 157.443 76.4179 157.432 76.5068V80.2765C157.433 80.3598 157.418 80.4425 157.386 80.5198C157.355 80.597 157.309 80.6671 157.25 80.7261C157.191 80.785 157.121 80.8314 157.044 80.8627C156.966 80.894 156.884 80.9094 156.801 80.9081ZM420.31 80.0002C420.142 80.0002 419.982 79.9336 419.863 79.8152C419.745 79.6967 419.679 79.5361 419.679 79.3686V75.589C419.679 75.4215 419.745 75.2608 419.863 75.1424C419.982 75.024 420.142 74.9574 420.31 74.9574C420.477 74.9574 420.638 75.024 420.756 75.1424C420.874 75.2608 420.941 75.4215 420.941 75.589V79.3686C420.941 79.5361 420.874 79.6967 420.756 79.8152C420.638 79.9336 420.477 80.0002 420.31 80.0002ZM156.801 70.8423C156.635 70.8397 156.477 70.772 156.361 70.6538C156.244 70.5357 156.179 70.3765 156.179 70.2107V66.4311C156.198 66.2784 156.273 66.138 156.388 66.0363C156.503 65.9345 156.652 65.8783 156.805 65.8783C156.959 65.8783 157.108 65.9345 157.223 66.0363C157.338 66.138 157.413 66.2784 157.432 66.4311V70.2107C157.432 70.3782 157.365 70.5389 157.247 70.6573C157.128 70.7757 156.968 70.8423 156.801 70.8423ZM420.359 69.9245C420.193 69.9245 420.034 69.8594 419.916 69.743C419.798 69.6267 419.73 69.4686 419.728 69.3028V65.5232C419.728 65.3557 419.794 65.1951 419.913 65.0766C420.031 64.9582 420.192 64.8916 420.359 64.8916C420.526 64.8916 420.687 64.9582 420.805 65.0766C420.924 65.1951 420.99 65.3557 420.99 65.5232V69.3028C420.989 69.3892 420.97 69.4745 420.935 69.5534C420.9 69.6322 420.849 69.703 420.785 69.7613C420.721 69.8196 420.646 69.8641 420.564 69.8922C420.482 69.9203 420.396 69.9313 420.31 69.9245H420.359ZM156.801 60.7666C156.636 60.7666 156.478 60.7011 156.361 60.5845C156.245 60.4679 156.179 60.3098 156.179 60.1449V56.3357C156.187 56.1682 156.261 56.0107 156.385 55.8978C156.446 55.8419 156.518 55.7986 156.596 55.7705C156.674 55.7423 156.757 55.7298 156.84 55.7337C156.923 55.7376 157.004 55.7578 157.079 55.7931C157.154 55.8285 157.222 55.8783 157.278 55.9396C157.333 56.001 157.377 56.0729 157.405 56.151C157.433 56.2291 157.445 56.312 157.442 56.3949V60.1449C157.442 60.2282 157.425 60.3107 157.392 60.3875C157.36 60.4642 157.312 60.5337 157.253 60.5917C157.193 60.6497 157.122 60.695 157.044 60.7251C156.967 60.7551 156.884 60.7693 156.801 60.7666ZM420.31 59.8686C420.142 59.8686 419.982 59.8021 419.863 59.6836C419.745 59.5652 419.679 59.4045 419.679 59.237V56.5923C419.678 56.2604 419.641 55.9296 419.57 55.6054C419.541 55.5219 419.531 55.4333 419.538 55.3453C419.546 55.2573 419.572 55.1719 419.615 55.0946C419.657 55.0174 419.716 54.9499 419.786 54.8966C419.857 54.8433 419.937 54.8054 420.023 54.7853C420.109 54.7652 420.198 54.7633 420.285 54.7798C420.372 54.7964 420.454 54.8309 420.527 54.8812C420.599 54.9315 420.66 54.9965 420.706 55.072C420.752 55.1474 420.782 55.2317 420.793 55.3193C420.891 55.7364 420.941 56.1636 420.941 56.5923V59.2271C420.942 59.3109 420.927 59.3941 420.896 59.4719C420.865 59.5496 420.818 59.6204 420.76 59.6801C420.701 59.7398 420.631 59.7872 420.554 59.8196C420.476 59.8519 420.394 59.8686 420.31 59.8686ZM160.42 52.3785C160.281 52.3791 160.146 52.334 160.036 52.2502C159.925 52.1664 159.845 52.0484 159.808 51.9146C159.786 51.8356 159.779 51.7529 159.789 51.6713C159.799 51.5897 159.825 51.5108 159.865 51.4392C159.905 51.3676 159.959 51.3048 160.024 51.2542C160.089 51.2037 160.163 51.1666 160.242 51.1449C160.745 50.9982 161.267 50.9251 161.791 50.9278H164.177C164.345 50.9278 164.505 50.9943 164.624 51.1128C164.742 51.2312 164.808 51.3919 164.808 51.5594C164.808 51.7269 164.742 51.8875 164.624 52.006C164.505 52.1244 164.345 52.191 164.177 52.191H161.791C161.384 52.1881 160.979 52.2412 160.588 52.3489L160.42 52.3785ZM415.754 52.2107H415.694C415.557 52.201 415.418 52.201 415.28 52.2107H411.977C411.809 52.2107 411.649 52.1442 411.53 52.0257C411.412 51.9073 411.345 51.7466 411.345 51.5791C411.345 51.4116 411.412 51.251 411.53 51.1325C411.649 51.0141 411.809 50.9475 411.977 50.9475H415.28H415.813C415.895 50.9536 415.975 50.9763 416.048 51.0142C416.122 51.0521 416.186 51.1044 416.239 51.168C416.291 51.2317 416.331 51.3052 416.354 51.3844C416.377 51.4635 416.384 51.5465 416.375 51.6285C416.365 51.7864 416.295 51.9346 416.18 52.0428C416.064 52.151 415.912 52.211 415.754 52.2107ZM405.694 52.2107H401.917C401.75 52.2107 401.589 52.1442 401.471 52.0257C401.353 51.9073 401.286 51.7466 401.286 51.5791C401.286 51.4116 401.353 51.251 401.471 51.1325C401.589 51.0141 401.75 50.9475 401.917 50.9475H405.694C405.862 50.9475 406.022 51.0141 406.141 51.1325C406.259 51.251 406.326 51.4116 406.326 51.5791C406.326 51.7466 406.259 51.9073 406.141 52.0257C406.022 52.1442 405.862 52.2107 405.694 52.2107ZM395.626 52.2107H391.858C391.691 52.2107 391.53 52.1442 391.412 52.0257C391.294 51.9073 391.227 51.7466 391.227 51.5791C391.227 51.4116 391.294 51.251 391.412 51.1325C391.53 51.0141 391.691 50.9475 391.858 50.9475H395.626C395.793 50.9475 395.953 51.0141 396.072 51.1325C396.19 51.251 396.257 51.4116 396.257 51.5791C396.257 51.7466 396.19 51.9073 396.072 52.0257C395.953 52.1442 395.793 52.2107 395.626 52.2107ZM385.566 52.2107H381.789C381.622 52.2107 381.461 52.1442 381.343 52.0257C381.225 51.9073 381.158 51.7466 381.158 51.5791C381.158 51.4116 381.225 51.251 381.343 51.1325C381.461 51.0141 381.622 50.9475 381.789 50.9475H385.596C385.763 50.9475 385.924 51.0141 386.042 51.1325C386.161 51.251 386.227 51.4116 386.227 51.5791C386.227 51.7466 386.161 51.9073 386.042 52.0257C385.924 52.1442 385.763 52.2107 385.596 52.2107H385.566ZM375.497 52.2107H371.73C371.563 52.2107 371.402 52.1442 371.284 52.0257C371.166 51.9073 371.099 51.7466 371.099 51.5791C371.099 51.4116 371.166 51.251 371.284 51.1325C371.402 51.0141 371.563 50.9475 371.73 50.9475H375.497C375.665 50.9475 375.825 51.0141 375.944 51.1325C376.062 51.251 376.129 51.4116 376.129 51.5791C376.129 51.7466 376.062 51.9073 375.944 52.0257C375.825 52.1442 375.665 52.2107 375.497 52.2107ZM365.438 52.2107H361.661C361.494 52.2107 361.333 52.1442 361.215 52.0257C361.097 51.9073 361.03 51.7466 361.03 51.5791C361.03 51.4116 361.097 51.251 361.215 51.1325C361.333 51.0141 361.494 50.9475 361.661 50.9475H365.438C365.606 50.9475 365.766 51.0141 365.885 51.1325C366.003 51.251 366.069 51.4116 366.069 51.5791C366.069 51.7466 366.003 51.9073 365.885 52.0257C365.766 52.1442 365.606 52.2107 365.438 52.2107ZM355.379 52.2107H351.602C351.435 52.2107 351.274 52.1442 351.156 52.0257C351.037 51.9073 350.971 51.7466 350.971 51.5791C350.971 51.4116 351.037 51.251 351.156 51.1325C351.274 51.0141 351.435 50.9475 351.602 50.9475H355.379C355.547 50.9475 355.707 51.0141 355.826 51.1325C355.944 51.251 356.01 51.4116 356.01 51.5791C356.01 51.7466 355.944 51.9073 355.826 52.0257C355.707 52.1442 355.547 52.2107 355.379 52.2107ZM325.182 52.2107H321.415C321.248 52.2107 321.087 52.1442 320.969 52.0257C320.85 51.9073 320.784 51.7466 320.784 51.5791C320.784 51.4116 320.85 51.251 320.969 51.1325C321.087 51.0141 321.248 50.9475 321.415 50.9475H325.182C325.35 50.9475 325.51 51.0141 325.628 51.1325C325.747 51.251 325.813 51.4116 325.813 51.5791C325.813 51.7466 325.747 51.9073 325.628 52.0257C325.51 52.1442 325.35 52.2107 325.182 52.2107ZM315.123 52.2107H311.346C311.179 52.2107 311.018 52.1442 310.9 52.0257C310.781 51.9073 310.715 51.7466 310.715 51.5791C310.715 51.4116 310.781 51.251 310.9 51.1325C311.018 51.0141 311.179 50.9475 311.346 50.9475H315.123C315.29 50.9475 315.451 51.0141 315.569 51.1325C315.688 51.251 315.754 51.4116 315.754 51.5791C315.754 51.7466 315.688 51.9073 315.569 52.0257C315.451 52.1442 315.29 52.2107 315.123 52.2107ZM305.054 52.2107H301.287C301.119 52.2107 300.959 52.1442 300.841 52.0257C300.722 51.9073 300.656 51.7466 300.656 51.5791C300.656 51.4116 300.722 51.251 300.841 51.1325C300.959 51.0141 301.119 50.9475 301.287 50.9475H305.054C305.221 50.9475 305.382 51.0141 305.5 51.1325C305.619 51.251 305.685 51.4116 305.685 51.5791C305.685 51.7466 305.619 51.9073 305.5 52.0257C305.382 52.1442 305.221 52.2107 305.054 52.2107ZM294.995 52.2107H291.218C291.05 52.2107 290.89 52.1442 290.772 52.0257C290.653 51.9073 290.587 51.7466 290.587 51.5791C290.587 51.4116 290.653 51.251 290.772 51.1325C290.89 51.0141 291.05 50.9475 291.218 50.9475H294.995C295.162 50.9475 295.323 51.0141 295.441 51.1325C295.56 51.251 295.626 51.4116 295.626 51.5791C295.626 51.7466 295.56 51.9073 295.441 52.0257C295.323 52.1442 295.162 52.2107 294.995 52.2107ZM284.936 52.2107H281.159C280.991 52.2107 280.831 52.1442 280.712 52.0257C280.594 51.9073 280.528 51.7466 280.528 51.5791C280.528 51.4116 280.594 51.251 280.712 51.1325C280.831 51.0141 280.991 50.9475 281.159 50.9475H284.936C285.103 50.9475 285.264 51.0141 285.382 51.1325C285.501 51.251 285.567 51.4116 285.567 51.5791C285.567 51.7466 285.501 51.9073 285.382 52.0257C285.264 52.1442 285.103 52.2107 284.936 52.2107ZM274.867 52.2107H271.1C270.932 52.2107 270.772 52.1442 270.653 52.0257C270.535 51.9073 270.468 51.7466 270.468 51.5791C270.468 51.4116 270.535 51.251 270.653 51.1325C270.772 51.0141 270.932 50.9475 271.1 50.9475H274.867C275.034 50.9475 275.195 51.0141 275.313 51.1325C275.432 51.251 275.498 51.4116 275.498 51.5791C275.498 51.7466 275.432 51.9073 275.313 52.0257C275.195 52.1442 275.034 52.2107 274.867 52.2107ZM264.808 52.2107H261.031C260.863 52.2107 260.703 52.1442 260.584 52.0257C260.466 51.9073 260.4 51.7466 260.4 51.5791C260.4 51.4116 260.466 51.251 260.584 51.1325C260.703 51.0141 260.863 50.9475 261.031 50.9475H264.808C264.975 50.9475 265.136 51.0141 265.254 51.1325C265.372 51.251 265.439 51.4116 265.439 51.5791C265.439 51.7466 265.372 51.9073 265.254 52.0257C265.136 52.1442 264.975 52.2107 264.808 52.2107ZM254.739 52.2107H250.972C250.804 52.2107 250.644 52.1442 250.525 52.0257C250.407 51.9073 250.34 51.7466 250.34 51.5791C250.34 51.4116 250.407 51.251 250.525 51.1325C250.644 51.0141 250.804 50.9475 250.972 50.9475H254.739C254.906 50.9475 255.067 51.0141 255.185 51.1325C255.303 51.251 255.37 51.4116 255.37 51.5791C255.37 51.7466 255.303 51.9073 255.185 52.0257C255.067 52.1442 254.906 52.2107 254.739 52.2107ZM244.68 52.2107H240.903C240.735 52.2107 240.575 52.1442 240.456 52.0257C240.338 51.9073 240.271 51.7466 240.271 51.5791C240.271 51.4116 240.338 51.251 240.456 51.1325C240.575 51.0141 240.735 50.9475 240.903 50.9475H244.68C244.847 50.9475 245.008 51.0141 245.126 51.1325C245.244 51.251 245.311 51.4116 245.311 51.5791C245.311 51.7466 245.244 51.9073 245.126 52.0257C245.008 52.1442 244.847 52.2107 244.68 52.2107ZM234.621 52.2107H230.843C230.676 52.2107 230.516 52.1442 230.397 52.0257C230.279 51.9073 230.212 51.7466 230.212 51.5791C230.212 51.4116 230.279 51.251 230.397 51.1325C230.516 51.0141 230.676 50.9475 230.843 50.9475H234.621C234.788 50.9475 234.949 51.0141 235.067 51.1325C235.185 51.251 235.252 51.4116 235.252 51.5791C235.252 51.7466 235.185 51.9073 235.067 52.0257C234.949 52.1442 234.788 52.2107 234.621 52.2107ZM224.552 52.2107H220.775C220.607 52.2107 220.447 52.1442 220.328 52.0257C220.21 51.9073 220.143 51.7466 220.143 51.5791C220.143 51.4116 220.21 51.251 220.328 51.1325C220.447 51.0141 220.607 50.9475 220.775 50.9475H224.552C224.719 50.9475 224.88 51.0141 224.998 51.1325C225.116 51.251 225.183 51.4116 225.183 51.5791C225.183 51.7466 225.116 51.9073 224.998 52.0257C224.88 52.1442 224.719 52.2107 224.552 52.2107ZM214.493 52.2107H210.715C210.548 52.2107 210.387 52.1442 210.269 52.0257C210.151 51.9073 210.084 51.7466 210.084 51.5791C210.084 51.4116 210.151 51.251 210.269 51.1325C210.387 51.0141 210.548 50.9475 210.715 50.9475H214.493C214.66 50.9475 214.82 51.0141 214.939 51.1325C215.057 51.251 215.124 51.4116 215.124 51.5791C215.124 51.7466 215.057 51.9073 214.939 52.0257C214.82 52.1442 214.66 52.2107 214.493 52.2107ZM204.424 52.2107H200.656C200.489 52.2107 200.328 52.1442 200.21 52.0257C200.092 51.9073 200.025 51.7466 200.025 51.5791C200.025 51.4116 200.092 51.251 200.21 51.1325C200.328 51.0141 200.489 50.9475 200.656 50.9475H204.424C204.591 50.9475 204.751 51.0141 204.87 51.1325C204.988 51.251 205.055 51.4116 205.055 51.5791C205.055 51.7466 204.988 51.9073 204.87 52.0257C204.751 52.1442 204.591 52.2107 204.424 52.2107ZM194.364 52.2107H190.587C190.42 52.2107 190.259 52.1442 190.141 52.0257C190.023 51.9073 189.956 51.7466 189.956 51.5791C189.956 51.4116 190.023 51.251 190.141 51.1325C190.259 51.0141 190.42 50.9475 190.587 50.9475H194.364C194.532 50.9475 194.692 51.0141 194.811 51.1325C194.929 51.251 194.996 51.4116 194.996 51.5791C194.996 51.7466 194.929 51.9073 194.811 52.0257C194.692 52.1442 194.532 52.2107 194.364 52.2107ZM184.295 52.2107H180.528C180.361 52.2107 180.2 52.1442 180.082 52.0257C179.964 51.9073 179.897 51.7466 179.897 51.5791C179.897 51.4116 179.964 51.251 180.082 51.1325C180.2 51.0141 180.361 50.9475 180.528 50.9475H184.295C184.463 50.9475 184.623 51.0141 184.742 51.1325C184.86 51.251 184.927 51.4116 184.927 51.5791C184.927 51.7466 184.86 51.9073 184.742 52.0257C184.623 52.1442 184.463 52.2107 184.295 52.2107ZM174.236 52.2107H170.459C170.292 52.2107 170.131 52.1442 170.013 52.0257C169.895 51.9073 169.828 51.7466 169.828 51.5791C169.828 51.4116 169.895 51.251 170.013 51.1325C170.131 51.0141 170.292 50.9475 170.459 50.9475H174.236C174.404 50.9475 174.564 51.0141 174.683 51.1325C174.801 51.251 174.868 51.4116 174.868 51.5791C174.868 51.7466 174.801 51.9073 174.683 52.0257C174.564 52.1442 174.404 52.2107 174.236 52.2107Z" fill="black"/>
<path d="M436.385 159.461C429.974 151.822 421.109 146.878 408.919 146.878H394.708C373.919 146.878 357.49 166.033 358.022 189.668L358.653 217.438C358.969 231.322 357.667 242.582 345.419 242.582C332.066 242.582 321.237 254.217 321.563 268.319C321.669 274.815 324.227 281.03 328.723 285.717C332.365 289.395 337.003 291.927 342.066 293H408.14C429.678 290.227 446.02 271.398 446.02 249.411V186.776C446.115 176.821 442.704 167.15 436.385 159.461Z" fill="#2E344D"/>
<path d="M423.456 225.875C425.172 209.888 433.16 208.447 432.588 191.562C432.371 185.148 431.878 178.28 426.996 173.03C423.318 169.082 411.217 165.569 403.416 165.135L405.172 172.773C406.422 176.039 407.011 179.521 406.907 183.016C406.977 189.924 405.921 196.931 402.322 202.97C396.631 212.483 396.809 214.812 385.793 220.062C375.852 224.77 365.695 229.181 355.221 233.059V258.224C356.701 256.666 358.431 255.369 360.34 254.385C364.501 252.411 369.679 252.49 374.59 252.648L393.012 253.25C397.608 253.398 402.509 253.96 406.661 252.47C428.13 244.704 423.229 227.937 423.456 225.875Z" fill="black"/>
<path d="M362.559 285.253L362.677 280.092C361.777 280.732 360.724 281.123 359.624 281.226C358.525 281.328 357.417 281.138 356.415 280.675L357.204 285.994C357.5 287.987 362.845 287.247 362.559 285.253Z" fill="#F2C3B3"/>
<path d="M364.038 283.576C363.643 283.26 363.17 283.072 362.855 283.457C361.76 284.839 358.713 286.98 357.43 284.039C357.204 283.526 356.365 283.635 356.07 284.109C354.662 285.968 352.801 287.436 350.665 288.372C350.665 288.372 346.72 289.595 345.123 289.062C343.525 288.53 341.504 293.829 358.446 292.803C364.59 292.437 366.06 291.125 366.129 289.309C365.645 287.327 364.944 285.404 364.038 283.576Z" fill="black"/>
<path d="M358.338 291.539C348.644 292.131 345.162 290.641 344.255 289.368C343.496 290.444 344.995 293.681 358.456 292.872C364.373 292.516 367.075 291.52 366.129 289.309C365.655 290.631 363.012 291.263 358.338 291.539Z" fill="#FB9100"/>
<path d="M406.01 224.671L396.148 211.358C384.61 216.174 355.468 229.704 351.267 235.25C346.158 241.98 355.892 281.927 355.892 281.927C359.018 283.437 360.685 282.648 363.318 281.128L364.403 245.108C364.403 245.108 405.912 237.5 406.01 224.671Z" fill="#1B5A96"/>
<path d="M381.148 285.184L381.267 280.013C380.368 280.657 379.315 281.051 378.215 281.155C377.115 281.259 376.007 281.069 375.004 280.605L375.793 285.924C376.089 287.908 381.434 287.168 381.148 285.184Z" fill="#F2C3B3"/>
<path d="M382.637 283.507C382.243 283.181 381.77 282.993 381.454 283.388C380.359 284.77 377.312 286.901 376.02 283.961C375.803 283.447 374.965 283.556 374.659 284.03C373.26 285.894 371.402 287.363 369.265 288.293C369.265 288.293 365.32 289.516 363.722 288.984C362.125 288.451 360.093 293.75 377.036 292.763C383.18 292.398 384.649 291.086 384.718 289.27C384.241 287.277 383.543 285.344 382.637 283.507Z" fill="black"/>
<path d="M376.927 291.471C367.233 292.053 363.752 290.573 362.845 289.29C362.085 290.365 363.574 293.612 377.046 292.793C382.963 292.438 385.665 291.441 384.718 289.23C384.245 290.553 381.651 291.184 376.927 291.471Z" fill="#FB9100"/>
<path d="M384.827 225.431C377.598 229.27 371.612 232.911 369.876 235.201C364.768 241.931 374.501 281.879 374.501 281.879C377.628 283.388 379.294 282.609 381.927 281.079L383.012 245.069C389.665 243.769 396.235 242.076 402.687 239.997C408.91 237.964 412.351 232.102 412.351 225.589V225.431H384.827Z" fill="#1B5A96"/>
<path d="M395.29 175.388C402.519 175.644 403.416 165.125 403.416 165.125C403.094 163.889 402.857 162.633 402.706 161.365C402.575 160.225 402.519 159.078 402.539 157.931L391.888 162.293C391.907 162.585 391.907 162.878 391.888 163.171C391.827 164.155 391.485 165.1 390.902 165.894C390.468 166.615 390.221 166.99 390.221 166.99C390.221 166.99 388.061 175.121 395.29 175.388Z" fill="#F4A998"/>
<path d="M390.221 166.99C390.221 166.99 390.468 166.615 390.902 165.895C391.485 165.1 391.827 164.155 391.888 163.171C391.907 162.878 391.907 162.585 391.888 162.293L398.061 159.756L398.328 163.95L403.16 166.763C402.568 169.723 400.714 175.575 395.271 175.388C388.062 175.121 390.221 166.99 390.221 166.99Z" fill="#F4A998"/>
<path d="M398.062 159.756L402.539 157.931C402.519 159.078 402.575 160.225 402.706 161.365C402.857 162.633 403.094 163.889 403.417 165.125C403.417 165.125 403.357 165.776 403.16 166.763L398.328 163.95L398.062 159.756Z" fill="#F4A998"/>
<path d="M406.306 146.128C405.713 146.2 405.115 146.057 404.62 145.724C404.072 145.361 403.689 144.797 403.554 144.154C402.657 139.822 399.837 139.891 396.474 138.934C391.888 137.631 386.937 138.707 385.497 141.303C382.608 146.493 384.777 163.161 393.476 164.217C403.15 165.391 404.6 156.322 404.797 154.506C404.825 154.281 404.878 154.059 404.955 153.845C405.339 152.858 406.493 149.898 407.302 147.855C407.449 147.506 407.51 147.127 407.48 146.75V146.01L406.306 146.128Z" fill="#F2C3B3"/>
<path d="M408.416 140.789C408.196 140.315 407.882 139.891 407.492 139.542C407.103 139.192 406.647 138.926 406.152 138.758C405.657 138.59 405.134 138.524 404.612 138.565C404.091 138.605 403.584 138.751 403.121 138.993C403.121 138.993 401.533 130.605 390.616 135.046C389.565 135.48 388.552 136.002 387.588 136.605C385.831 137.627 383.891 138.297 381.878 138.579C381.441 138.642 381.043 138.869 380.766 139.213C380.488 139.557 380.35 139.993 380.379 140.434C380.406 140.907 380.619 141.351 380.971 141.668C384.176 144.539 390.537 147.974 400.971 144.628C400.971 144.628 401.848 146.947 402.943 149.118C403.712 147.905 405.093 146.207 405.902 148.368C406.385 149.71 405.29 151.329 404.491 151.793C405.103 153.145 403.772 158.483 403.742 158.631C404.117 158.414 412.766 147.697 408.416 140.789Z" fill="black"/>
<path d="M413.308 171.293C412.992 171.155 407.983 168.559 407.983 168.559C404.889 171.026 401.419 172.978 397.706 174.342C394.975 172.941 393.762 170.395 392.223 167.75C387.845 169.368 382.825 171.53 378.417 173C376.957 175.072 376.069 176.493 374.541 178.477C377.036 194.72 378.486 203.414 376.296 220.062C375.369 223.724 412.016 230.109 413.15 225.589C411.178 215.878 420.714 201.905 421.907 182.612C421.74 182.237 419.62 173.987 413.308 171.293Z" fill="#FB9100"/>
<path d="M397.706 174.342L391.316 177.599L386.829 169.832L390.902 165.885C392.725 169.035 395.02 171.887 397.706 174.342Z" fill="#C66A05"/>
<path d="M397.706 174.342L404.462 176.779L407.983 168.529L403.416 165.095C401.984 168.445 400.059 171.561 397.706 174.342Z" fill="#C66A05"/>
<path d="M387.342 150.895C387.766 150.895 388.131 151.408 388.18 152.098C388.229 152.789 387.914 153.381 387.499 153.401C387.085 153.421 386.71 152.888 386.671 152.197C386.632 151.506 386.927 150.924 387.342 150.895Z" fill="black"/>
<path d="M394.758 150.549C395.172 150.549 395.547 151.062 395.586 151.753C395.626 152.444 395.33 153.026 394.916 153.056C394.501 153.085 394.117 152.543 394.077 151.842C394.038 151.141 394.344 150.569 394.758 150.549Z" fill="black"/>
<path d="M385.714 148.684C385.668 148.614 385.65 148.529 385.665 148.446C385.679 148.364 385.725 148.29 385.793 148.24C386.209 147.967 386.696 147.822 387.194 147.822C387.691 147.822 388.178 147.967 388.594 148.24C388.658 148.288 388.701 148.357 388.716 148.436C388.731 148.514 388.715 148.595 388.673 148.662C388.631 148.729 388.564 148.778 388.488 148.799C388.411 148.819 388.329 148.81 388.259 148.773C387.946 148.566 387.579 148.456 387.204 148.456C386.828 148.456 386.461 148.566 386.148 148.773C386.114 148.797 386.076 148.813 386.035 148.822C385.995 148.83 385.953 148.83 385.912 148.822C385.872 148.813 385.833 148.797 385.799 148.773C385.765 148.75 385.736 148.719 385.714 148.684Z" fill="black"/>
<path d="M395.34 159.885C395.507 162.47 391.602 163.201 390.488 160.388C391.289 160.633 392.131 160.715 392.965 160.629C393.798 160.542 394.606 160.289 395.34 159.885Z" fill="black"/>
<path d="M390.093 155.967C390.431 155.077 390.618 154.136 390.645 153.184C390.65 153.103 390.685 153.027 390.744 152.97C390.802 152.913 390.88 152.881 390.961 152.878C391.045 152.878 391.125 152.912 391.184 152.971C391.243 153.03 391.276 153.11 391.276 153.194C391.253 154.239 391.046 155.271 390.665 156.244C389.856 157.941 390.714 158.217 392.48 157.507C392.557 157.48 392.642 157.483 392.716 157.516C392.791 157.549 392.851 157.609 392.884 157.684C392.913 157.762 392.911 157.847 392.878 157.923C392.844 157.999 392.783 158.058 392.706 158.089C390.034 159.155 389.176 157.901 390.093 155.967Z" fill="black"/>
<path d="M396.089 149.247C395.78 149.036 395.418 148.918 395.044 148.906C394.67 148.894 394.301 148.988 393.979 149.178C393.944 149.201 393.905 149.217 393.864 149.224C393.823 149.232 393.781 149.231 393.74 149.222C393.7 149.213 393.661 149.195 393.628 149.171C393.594 149.146 393.566 149.115 393.545 149.079C393.523 149.043 393.509 149.004 393.503 148.963C393.497 148.922 393.499 148.88 393.509 148.839C393.519 148.799 393.537 148.761 393.562 148.728C393.586 148.694 393.618 148.666 393.653 148.645C394.076 148.384 394.566 148.254 395.062 148.27C395.558 148.286 396.039 148.447 396.444 148.734C396.485 148.753 396.521 148.782 396.55 148.817C396.579 148.852 396.6 148.893 396.612 148.937C396.623 148.982 396.625 149.028 396.617 149.072C396.609 149.117 396.592 149.16 396.566 149.197C396.54 149.235 396.506 149.266 396.467 149.289C396.428 149.313 396.384 149.327 396.339 149.332C396.293 149.336 396.248 149.331 396.205 149.317C396.162 149.302 396.122 149.278 396.089 149.247Z" fill="black"/>
<path d="M369.659 188.957C369.659 188.957 363.92 199.891 364.285 212C364.649 224.108 364.285 212.503 364.285 212.503H376.868L377.351 199.674L369.659 188.957Z" fill="#F2C3B3"/>
<path d="M378.407 173.03C378.407 173.03 371.563 176.898 368.16 188.582C369.63 192.332 373.545 195.49 378.18 196.645C378.18 196.645 385.596 182.73 378.407 173.03Z" fill="#FB9100"/>
<path d="M414.62 224.671L357.569 211.003L398.988 237.549L414.925 229.161C415.307 228.909 415.615 228.561 415.818 228.15C416.021 227.74 416.112 227.284 416.081 226.827C416.05 226.37 415.898 225.93 415.641 225.552C415.385 225.173 415.032 224.869 414.62 224.671Z" fill="black"/>
<path d="M411.996 195.599L411.237 206.612C411.188 207.311 410.903 207.972 410.428 208.487L396.927 225.085L398.811 233.178C405.537 227.414 416.73 214.181 420.576 210.638C421.444 209.835 421.97 208.729 422.045 207.549L422.834 195.599H411.996Z" fill="#F2C3B3"/>
<path d="M417.726 174.628C407.864 181.615 410.645 197.622 410.645 197.622C413.308 200.148 421.306 201.954 423.87 198.836C424.057 179.207 417.726 174.628 417.726 174.628Z" fill="#FB9100"/>
<path d="M400.744 234.539L397.43 200.434C397.363 199.788 397.085 199.182 396.64 198.709C396.194 198.236 395.606 197.924 394.965 197.819L345.162 190.131C344.721 190.069 344.272 190.107 343.848 190.242C343.424 190.377 343.036 190.607 342.712 190.913C342.389 191.22 342.139 191.595 341.981 192.012C341.823 192.428 341.761 192.875 341.799 193.319L345.162 227.385C345.23 228.032 345.509 228.64 345.957 229.112C346.404 229.585 346.995 229.897 347.638 230L397.43 237.727C397.867 237.781 398.311 237.737 398.729 237.598C399.147 237.459 399.529 237.229 399.846 236.923C400.164 236.618 400.409 236.245 400.564 235.833C400.72 235.42 400.781 234.978 400.744 234.539Z" fill="black"/>
<path d="M369.679 209.494C367.223 208.645 365.221 209.928 365.221 212.365C365.316 213.683 365.787 214.946 366.577 216.004C367.367 217.062 368.443 217.871 369.679 218.336C372.144 219.184 374.146 217.902 374.146 215.464C374.051 214.145 373.579 212.882 372.787 211.824C371.995 210.765 370.917 209.957 369.679 209.494Z" fill="#FB9100"/>
<path d="M156.801 84.0459C152.935 84.0459 149.156 85.193 145.941 87.3422C142.727 89.4914 140.222 92.5461 138.742 96.1201C137.263 99.6941 136.876 103.627 137.63 107.421C138.384 111.215 140.246 114.7 142.979 117.436C145.713 120.171 149.196 122.034 152.987 122.788C156.779 123.543 160.709 123.156 164.281 121.675C167.852 120.195 170.905 117.688 173.053 114.472C175.2 111.255 176.347 107.474 176.347 103.605C176.347 98.4177 174.287 93.4427 170.622 89.7747C166.956 86.1066 161.985 84.0459 156.801 84.0459ZM151.544 112.576V94.6347L166.337 103.763L151.544 112.576Z" fill="#FB9100"/>
<path d="M237.481 71.1184C248.276 71.1184 257.027 62.3615 257.027 51.5592C257.027 40.757 248.276 32 237.481 32C226.685 32 217.934 40.757 217.934 51.5592C217.934 62.3615 226.685 71.1184 237.481 71.1184Z" fill="#1B5A96"/>
<path d="M341.474 42.885L339.324 45.0659C338.925 45.4682 338.649 45.977 338.53 46.5316C338.411 47.0862 338.454 47.6632 338.654 48.1942L338.792 48.5692L341.05 46.2994C341.215 46.1417 341.434 46.0534 341.661 46.0527C341.775 46.0515 341.887 46.0726 341.992 46.115C342.097 46.1573 342.192 46.22 342.273 46.2994C342.434 46.4621 342.525 46.682 342.525 46.9113C342.525 47.1405 342.434 47.3604 342.273 47.5231L340.014 49.7929L340.379 49.9211C340.713 50.0496 341.067 50.1165 341.425 50.1185C341.812 50.1207 342.196 50.045 342.553 49.8958C342.911 49.7466 343.235 49.527 343.506 49.2501L345.655 47.0396C345.946 46.7685 346.179 46.4417 346.341 46.0785C346.503 45.7154 346.59 45.3233 346.597 44.9258C346.604 44.5283 346.531 44.1335 346.382 43.7648C346.233 43.3962 346.011 43.0613 345.731 42.7802C345.45 42.4991 345.115 42.2775 344.747 42.1286C344.378 41.9797 343.984 41.9065 343.586 41.9135C343.189 41.9206 342.797 42.0076 342.434 42.1694C342.072 42.3312 341.745 42.5645 341.474 42.8554V42.885Z" fill="#FB9100"/>
<path d="M336.987 32C333.121 32 329.342 33.1471 326.127 35.2963C322.913 37.4455 320.408 40.5002 318.928 44.0742C317.449 47.6482 317.062 51.5809 317.816 55.375C318.57 59.1691 320.432 62.6543 323.165 65.3897C325.899 68.1251 329.382 69.9879 333.174 70.7426C336.965 71.4973 340.895 71.11 344.467 69.6296C348.038 68.1492 351.091 65.6422 353.239 62.4257C355.387 59.2092 356.533 55.4277 356.533 51.5592C356.533 46.3718 354.474 41.3968 350.808 37.7288C347.142 34.0607 342.171 32 336.987 32ZM346.849 48.2928L344.699 50.4342C344.267 50.8718 343.753 51.2185 343.185 51.4541C342.618 51.6897 342.009 51.8093 341.395 51.8059C340.517 51.8049 339.656 51.5588 338.91 51.0954H338.831H338.673L336.385 53.375L336.444 53.4638C337.042 54.3695 337.307 55.4543 337.196 56.5336C337.084 57.613 336.603 58.6205 335.833 59.3849L333.693 61.5263C333.258 61.9618 332.741 62.3072 332.173 62.5428C331.604 62.7785 330.995 62.8998 330.379 62.8998C329.764 62.8998 329.155 62.7785 328.586 62.5428C328.017 62.3072 327.501 61.9618 327.066 61.5263C326.631 61.0909 326.285 60.5739 326.05 60.005C325.814 59.4361 325.693 58.8263 325.693 58.2105C325.693 57.5947 325.814 56.985 326.05 56.416C326.285 55.8471 326.631 55.3302 327.066 54.8947L329.206 52.7533C329.954 52.0051 330.934 51.5326 331.985 51.4125C333.036 51.2924 334.097 51.532 334.995 52.0921L335.083 52.1414H335.231L337.519 49.8618V49.773C336.921 48.8684 336.654 47.7843 336.763 46.705C336.873 45.6257 337.353 44.6176 338.121 43.852L340.231 41.6612C340.666 41.2257 341.183 40.8803 341.752 40.6447C342.32 40.409 342.93 40.2877 343.545 40.2877C344.16 40.2877 344.77 40.409 345.338 40.6447C345.907 40.8803 346.423 41.2257 346.859 41.6612C347.294 42.0966 347.639 42.6136 347.874 43.1825C348.11 43.7514 348.231 44.3612 348.231 44.977C348.231 45.5928 348.11 46.2025 347.874 46.7715C347.639 47.3404 347.294 47.8573 346.859 48.2928H346.849Z" fill="#FB9100"/>
<path d="M335.172 54.5889L332.914 56.908C332.75 57.0671 332.531 57.1562 332.302 57.1562C332.074 57.1562 331.855 57.0671 331.691 56.908C331.53 56.7453 331.439 56.5254 331.439 56.2962C331.439 56.0669 331.53 55.847 331.691 55.6843L333.949 53.4146L333.584 53.2764C333.249 53.1553 332.896 53.0919 332.539 53.0889C332.152 53.0867 331.768 53.1625 331.411 53.3117C331.053 53.4608 330.729 53.6804 330.458 53.9573L328.318 56.0988C328.028 56.3698 327.794 56.6967 327.633 57.0598C327.471 57.423 327.384 57.815 327.377 58.2125C327.37 58.61 327.443 59.0049 327.592 59.3735C327.741 59.7421 327.962 60.077 328.243 60.3581C328.524 60.6393 328.859 60.8609 329.227 61.0098C329.596 61.1587 329.99 61.2318 330.387 61.2248C330.785 61.2178 331.176 61.1308 331.539 60.969C331.902 60.8072 332.229 60.5739 332.5 60.283L334.64 58.1415C335.053 57.7313 335.336 57.2082 335.454 56.6377C335.571 56.0672 335.518 55.4747 335.3 54.9343L335.172 54.5889Z" fill="#FB9100"/>
<path d="M420.31 104.789C419.9 104.783 419.501 104.92 419.181 105.176C418.861 105.432 418.64 105.792 418.556 106.194C418.472 106.595 418.53 107.013 418.721 107.376C418.911 107.74 419.222 108.025 419.6 108.184V110.612H421.02V108.223C421.338 108.088 421.609 107.863 421.8 107.575C421.991 107.288 422.093 106.95 422.095 106.605C422.099 106.368 422.055 106.133 421.968 105.912C421.88 105.692 421.749 105.492 421.583 105.323C421.416 105.154 421.218 105.02 421 104.928C420.781 104.836 420.547 104.789 420.31 104.789Z" fill="#1B5A96"/>
<path d="M420.31 93.5298C419.191 93.5324 418.119 93.9782 417.328 94.7698C416.537 95.5613 416.092 96.6341 416.089 97.7535V100.645H424.521V97.7535C424.521 96.635 424.078 95.5622 423.288 94.7704C422.499 93.9785 421.428 93.5324 420.31 93.5298Z" fill="#1B5A96"/>
<path d="M420.31 84.0459C416.443 84.042 412.662 85.1858 409.445 87.3326C406.228 89.4794 403.72 92.5328 402.237 96.1064C400.755 99.6801 400.365 103.613 401.117 107.409C401.869 111.204 403.729 114.691 406.462 117.429C409.195 120.166 412.677 122.031 416.47 122.787C420.262 123.543 424.193 123.157 427.766 121.677C431.338 120.198 434.392 117.691 436.541 114.474C438.689 111.257 439.836 107.474 439.836 103.605C439.836 98.4211 437.78 93.4491 434.118 89.7816C430.457 86.1141 425.49 84.0511 420.31 84.0459ZM429.186 112.931C429.186 113.171 429.138 113.41 429.046 113.632C428.953 113.854 428.818 114.056 428.648 114.225C428.477 114.395 428.275 114.529 428.052 114.62C427.83 114.711 427.592 114.758 427.351 114.756H413.278C413.037 114.758 412.799 114.712 412.576 114.62C412.353 114.529 412.15 114.395 411.978 114.226C411.807 114.056 411.671 113.855 411.578 113.632C411.484 113.41 411.435 113.172 411.434 112.931V102.47C411.435 102.229 411.484 101.991 411.578 101.769C411.671 101.546 411.807 101.345 411.978 101.175C412.15 101.006 412.353 100.872 412.576 100.781C412.799 100.689 413.037 100.643 413.278 100.645H413.801V97.7531C413.801 96.0257 414.487 94.3691 415.707 93.1477C416.928 91.9262 418.584 91.24 420.31 91.24C422.036 91.24 423.692 91.9262 424.912 93.1477C426.133 94.3691 426.819 96.0257 426.819 97.7531V100.645H427.341C427.582 100.643 427.82 100.69 428.043 100.781C428.265 100.872 428.467 101.006 428.638 101.176C428.808 101.345 428.944 101.547 429.036 101.769C429.128 101.991 429.176 102.23 429.176 102.47L429.186 112.931Z" fill="#1B5A96"/>
<path d="M237.481 66.6085C234.506 66.6085 231.598 65.7258 229.125 64.0722C226.652 62.4185 224.724 60.0682 223.586 57.3182C222.448 54.5683 222.15 51.5424 222.73 48.6231C223.311 45.7038 224.743 43.0223 226.846 40.9176C228.949 38.8129 231.629 37.3796 234.547 36.7989C237.464 36.2183 240.488 36.5163 243.236 37.6553C245.984 38.7944 248.333 40.7233 249.985 43.1981C251.638 45.673 252.52 48.5826 252.52 51.5591C252.515 55.5488 250.929 59.3737 248.109 62.1948C245.29 65.016 241.468 66.6032 237.481 66.6085ZM237.481 37.99C234.789 37.99 232.158 38.7892 229.921 40.2863C227.684 41.7833 225.941 43.911 224.913 46.4C223.884 48.8889 223.617 51.6272 224.145 54.268C224.673 56.9089 225.972 59.3336 227.878 61.2353C229.784 63.1369 232.211 64.4298 234.852 64.9504C237.492 65.4711 240.228 65.1959 242.712 64.1599C245.197 63.1238 247.318 61.3734 248.807 59.1303C250.297 56.8872 251.088 54.2523 251.08 51.5591C251.077 47.9507 249.644 44.4908 247.094 41.9393C244.544 39.3878 241.087 37.9532 237.481 37.9506V37.99Z" fill="#FFF6EB"/>
<path d="M237.481 66.6084C233.072 66.6084 229.591 59.9966 229.591 51.5591C229.591 43.1216 233.043 36.5098 237.481 36.5098C241.918 36.5098 245.37 43.1216 245.37 51.5591C245.37 59.9966 241.889 66.6084 237.481 66.6084ZM237.481 37.99C233.999 37.99 231.06 44.217 231.06 51.5986C231.06 58.9802 234.019 65.2071 237.481 65.2071C240.942 65.2071 243.901 58.9802 243.901 51.5986C243.901 44.217 240.962 37.9506 237.481 37.9506V37.99Z" fill="#FFF6EB"/>
<path d="M238.2 37.2305H236.761V65.8884H238.2V37.2305Z" fill="#FFF6EB"/>
<path d="M237.481 59.4242C229.049 59.4242 222.441 55.9703 222.441 51.5295C222.441 47.0887 229.049 43.6348 237.481 43.6348C245.912 43.6348 252.52 47.0887 252.52 51.5295C252.52 55.9703 245.912 59.4242 237.481 59.4242ZM237.481 45.1348C230.114 45.1348 223.881 48.0953 223.881 51.5591C223.881 55.0229 230.114 57.9834 237.481 57.9834C244.847 57.9834 251.08 55.0229 251.08 51.5591C251.08 48.0953 244.857 45.1348 237.481 45.1348Z" fill="#FFF6EB"/>
<path d="M251.8 50.8389H223.161V52.2797H251.8V50.8389Z" fill="#FFF6EB"/>
</g>
<defs>
<clipPath id="clip0_114_784">
<rect width="322" height="261" fill="white" transform="translate(124 32)"/>
</clipPath>
</defs>
</svg>
