<svg width="570" height="324" viewBox="0 0 570 324" fill="none" xmlns="http://www.w3.org/2000/svg">
<rect width="570" height="324" fill="#FFF6EB"/>
<path d="M486.065 292.996H83.7149C83.517 292.979 83.3354 292.92 83.2039 292.829C83.0725 292.738 83 292.621 83 292.5C83 292.379 83.0725 292.262 83.2039 292.171C83.3354 292.08 83.517 292.021 83.7149 292.004H486.065C486.182 291.995 486.3 292.001 486.413 292.021C486.526 292.042 486.63 292.077 486.718 292.124C486.807 292.171 486.878 292.228 486.926 292.293C486.975 292.358 487 292.429 487 292.5C487 292.571 486.975 292.642 486.926 292.707C486.878 292.772 486.807 292.829 486.718 292.876C486.63 292.923 486.526 292.958 486.413 292.979C486.3 292.999 486.182 293.005 486.065 292.996Z" fill="#1E1E1E"/>
<g clip-path="url(#clip0_134_629)">
<path d="M284.526 66.9581L276.63 266.542C276.505 269.856 277.053 273.16 278.242 276.257C279.431 279.353 281.236 282.177 283.549 284.558C285.861 286.939 288.632 288.828 291.696 290.112C294.759 291.395 298.052 292.046 301.374 292.025H384.825C391.658 291.981 398.209 289.306 403.114 284.559C408.018 279.811 410.897 273.357 411.148 266.542L419.044 66.9581C419.171 63.6438 418.624 60.3382 417.435 57.2407C416.247 54.1433 414.442 51.3182 412.13 48.936C409.817 46.5537 407.045 44.6636 403.981 43.3797C400.917 42.0959 397.624 41.4448 394.3 41.4658H305.174C291.08 41.456 285 52.8723 284.526 66.9581Z" fill="#1B5A96"/>
<path d="M384.795 292.429H301.345C297.967 292.45 294.621 291.788 291.507 290.483C288.393 289.178 285.576 287.258 283.226 284.837C280.876 282.416 279.041 279.545 277.833 276.398C276.625 273.25 276.068 269.891 276.196 266.523L284.092 66.9387C284.605 50.4889 292.274 41.0524 305.145 41.0524H394.281C397.66 41.0274 401.01 41.6863 404.128 42.9893C407.245 44.2923 410.066 46.2124 412.419 48.6336C414.772 51.0548 416.609 53.927 417.819 57.0765C419.029 60.2261 419.587 63.5877 419.459 66.9584L411.563 266.543C411.299 273.467 408.368 280.022 403.382 284.844C398.396 289.666 391.738 292.383 384.795 292.429ZM305.174 41.87C292.807 41.87 285.434 51.011 284.941 66.9584L277.045 266.533C276.921 269.792 277.46 273.043 278.629 276.089C279.798 279.136 281.574 281.914 283.848 284.256C286.123 286.599 288.849 288.458 291.863 289.72C294.877 290.982 298.116 291.622 301.384 291.601H384.835C391.56 291.551 398.006 288.915 402.833 284.242C407.66 279.569 410.497 273.22 410.754 266.513L418.65 66.919C418.772 63.6602 418.232 60.4103 417.062 57.3653C415.893 54.3203 414.117 51.5433 411.842 49.2017C409.568 46.8601 406.842 45.0025 403.829 43.7407C400.816 42.4789 397.578 41.8392 394.31 41.8602L305.174 41.87Z" fill="black"/>
<path d="M278.989 66.9581L271.093 266.542C270.968 269.856 271.516 273.16 272.705 276.257C273.894 279.353 275.699 282.177 278.011 284.558C280.324 286.939 283.095 288.828 286.159 290.112C289.222 291.395 292.515 292.046 295.837 292.025H379.288C386.122 291.981 392.674 289.307 397.581 284.559C402.487 279.812 405.367 273.357 405.621 266.542L413.507 66.9581C413.634 63.6438 413.087 60.3382 411.898 57.2407C410.71 54.1433 408.905 51.3182 406.593 48.936C404.28 46.5537 401.508 44.6636 398.444 43.3797C395.38 42.0959 392.087 41.4448 388.763 41.4658H299.637C285.533 41.456 279.423 52.8723 278.989 66.9581Z" fill="#FFF6EB"/>
<path d="M379.249 292.429H295.798C292.421 292.45 289.074 291.788 285.96 290.483C282.846 289.178 280.029 287.258 277.679 284.837C275.329 282.416 273.494 279.545 272.286 276.398C271.078 273.25 270.521 269.891 270.649 266.523L278.545 66.9386C279.058 50.4888 286.737 41.0524 299.608 41.0524H388.734C392.113 41.0288 395.463 41.6885 398.58 42.9919C401.698 44.2953 404.519 46.2153 406.872 48.6361C409.226 51.0569 411.064 53.9283 412.276 57.0773C413.487 60.2263 414.047 63.5875 413.922 66.9583L406.026 266.542C405.762 273.468 402.83 280.025 397.842 284.848C392.853 289.67 386.193 292.386 379.249 292.429ZM299.637 41.8699C287.27 41.8699 279.897 51.0109 279.394 66.9583L271.498 266.533C271.371 269.792 271.908 273.044 273.075 276.09C274.243 279.137 276.017 281.916 278.291 284.259C280.565 286.602 283.292 288.461 286.306 289.723C289.32 290.985 292.559 291.624 295.827 291.601H379.278C386.004 291.553 392.451 288.918 397.279 284.245C402.107 279.572 404.943 273.22 405.197 266.513L413.093 66.9189C413.215 63.6601 412.676 60.4102 411.506 57.3652C410.336 54.3202 408.56 51.5432 406.286 49.2017C404.011 46.8601 401.285 45.0024 398.272 43.7406C395.259 42.4789 392.021 41.8392 388.753 41.8601L299.637 41.8699Z" fill="black"/>
<path d="M371.659 61.7967H319.348C314.63 61.7967 310.465 58.9894 309.478 55.0887L305.984 41.4561H386.542L380.798 56.2313C379.555 59.5607 375.863 61.7967 371.659 61.7967Z" fill="#FB9100"/>
<path d="M371.658 62.2006H319.348C314.413 62.2006 310.139 59.2455 309.103 55.1872L305.609 41.5645C305.594 41.5038 305.593 41.4409 305.605 41.3798C305.617 41.3187 305.642 41.2608 305.678 41.2098C305.716 41.1607 305.766 41.121 305.822 41.0937C305.879 41.0664 305.941 41.0522 306.003 41.0522H386.562C386.628 41.0532 386.693 41.0697 386.751 41.1006C386.809 41.1314 386.859 41.1756 386.896 41.2295C386.934 41.2834 386.958 41.3455 386.967 41.4106C386.976 41.4757 386.969 41.5419 386.947 41.6039L381.203 56.3791C379.87 59.8562 376.021 62.2006 371.658 62.2006ZM306.517 41.8698L309.882 54.9902C310.869 58.6939 314.817 61.3928 319.338 61.3928H371.649C375.685 61.3928 379.219 59.2554 380.463 56.0738L385.99 41.8698H306.517Z" fill="#010F2D"/>
<path d="M350.339 52.715H324.362C324.09 52.6892 323.838 52.5634 323.655 52.3621C323.471 52.1608 323.37 51.8986 323.37 51.6265C323.37 51.3545 323.471 51.0922 323.655 50.891C323.838 50.6897 324.09 50.5639 324.362 50.5381H350.339C350.611 50.5639 350.863 50.6897 351.046 50.891C351.229 51.0922 351.331 51.3545 351.331 51.6265C351.331 51.8986 351.229 52.1608 351.046 52.3621C350.863 52.5634 350.611 52.6892 350.339 52.715Z" fill="#FFF6EB"/>
<path d="M366.042 52.715H359.025C358.754 52.6892 358.502 52.5634 358.318 52.3621C358.135 52.1609 358.033 51.8986 358.033 51.6266C358.033 51.3545 358.135 51.0923 358.318 50.891C358.502 50.6897 358.754 50.5639 359.025 50.5381H366.062C366.214 50.5237 366.367 50.5411 366.512 50.5892C366.657 50.6374 366.79 50.7151 366.903 50.8176C367.016 50.9201 367.106 51.045 367.168 51.1843C367.23 51.3236 367.262 51.4742 367.262 51.6266C367.262 51.7789 367.23 51.9295 367.168 52.0688C367.106 52.2081 367.016 52.333 366.903 52.4355C366.79 52.538 366.657 52.6158 366.512 52.6639C366.367 52.7121 366.214 52.7295 366.062 52.715H366.042Z" fill="#FFF6EB"/>
<path d="M285.721 109.314C285.614 108.953 285.59 108.573 285.651 108.201C285.296 108.244 284.936 108.21 284.596 108.101C284.255 107.992 283.942 107.811 283.677 107.571C283.231 107.117 282.981 106.507 282.981 105.871C282.981 105.236 283.231 104.626 283.677 104.172L286.392 101.464C285.711 99.4137 284.657 97.5068 283.283 95.8391C279.206 91.111 275.702 90.8057 275.702 90.8057C275.702 90.8057 267.481 95.5239 267.234 96.2036C266.987 96.8832 271.004 108.231 271.004 108.231C271.004 108.231 280.608 112.693 284.951 111.55C285.288 111.449 285.603 111.286 285.878 111.067C285.846 110.931 285.823 110.793 285.809 110.654C285.67 110.221 285.639 109.761 285.721 109.314Z" fill="#FF4301"/>
<path d="M284.822 111.156C280.973 112.141 272.554 108.487 271.31 107.925C269.514 102.862 267.658 97.2179 267.619 96.3511C270.221 94.4795 272.945 92.7816 275.772 91.2684C276.403 91.3768 279.473 92.0958 282.967 96.1442C284.114 97.5305 285.028 99.0942 285.671 100.774L285.73 100.537C285.715 100.143 285.796 99.7506 285.967 99.3948C285.35 98.032 284.55 96.7595 283.589 95.6123C279.443 90.8153 275.88 90.4509 275.693 90.4312C275.61 90.4319 275.529 90.4522 275.456 90.4903C272.347 92.2633 267.076 95.3365 266.81 96.0655C266.543 96.7944 268.715 103.128 270.57 108.358C270.609 108.463 270.687 108.548 270.787 108.595C271.133 108.762 278.476 112.141 283.243 112.141C283.835 112.151 284.425 112.084 285 111.944C285.174 111.895 285.342 111.829 285.503 111.747C285.394 111.49 285.324 111.217 285.296 110.939C285.148 111.031 284.989 111.104 284.822 111.156Z" fill="#010F2D"/>
<path d="M285.484 106.674C285.227 104.896 285.277 103.087 285.632 101.326C285.865 99.7131 286.228 98.122 286.717 96.5679C286.856 96.1542 287.004 95.7307 287.152 95.317C287.211 95.1692 287.26 95.0214 287.31 94.8835C287.359 94.7456 287.241 94.5486 287.201 94.4304C287.111 94.1422 287.035 93.8496 286.974 93.5538C286.766 92.5526 286.906 91.5106 287.369 90.5987C287.477 90.4017 287.665 90.2146 287.783 90.0077C287.724 90.0077 287.734 89.594 287.734 89.4758C287.731 89.2552 287.765 89.0356 287.833 88.8257L287.31 89.3182L279.542 92.2732L272.949 96.4202C273.205 98.5084 271.074 102.754 272.366 105.147C273.916 108.004 273.807 110.634 275.87 112.24L285.8 107.344C285.657 107.14 285.55 106.914 285.484 106.674Z" fill="#FFCFC5"/>
<path d="M285.602 107.029L275.92 111.698C274.97 110.702 274.311 109.465 274.015 108.122C273.687 107.007 273.254 105.925 272.722 104.891C272.001 103.562 272.475 101.464 272.899 99.6216C273.178 98.6297 273.333 97.6075 273.363 96.5779L279.749 92.5689C279.795 92.5404 279.834 92.5033 279.865 92.4597C279.896 92.4161 279.918 92.3668 279.93 92.3146C279.942 92.2625 279.943 92.2085 279.934 92.1558C279.925 92.1031 279.906 92.0527 279.877 92.0074C279.849 91.9621 279.812 91.9229 279.768 91.892C279.724 91.861 279.675 91.839 279.623 91.8271C279.57 91.8152 279.516 91.8137 279.464 91.8227C279.411 91.8316 279.36 91.8509 279.315 91.8793L272.722 96.0263C272.657 96.068 272.605 96.127 272.572 96.1966C272.539 96.2662 272.526 96.3437 272.534 96.4203C272.541 97.4442 272.394 98.4634 272.1 99.4443C271.646 101.414 271.113 103.69 272.001 105.285C272.512 106.279 272.928 107.317 273.245 108.388C273.758 109.964 274.232 111.452 275.614 112.506C275.679 112.546 275.754 112.567 275.831 112.567C275.907 112.567 275.983 112.546 276.048 112.506L285.424 107.975C285.429 107.651 285.489 107.332 285.602 107.029Z" fill="#010F2D"/>
<path d="M215.742 86.2352C215.742 86.2352 225.296 82.3838 231.07 85.9988C235.768 88.9538 249.014 107.236 249.014 107.236L275.663 90.845C273.334 91.9089 273.689 105.739 284.901 111.53C284.901 111.53 256.14 134.353 246.951 133.654C237.762 132.955 212.663 106.724 212.949 106.615C213.235 106.507 215.742 86.2352 215.742 86.2352Z" fill="#FB9100"/>
<path d="M247.405 134.097H246.951C242.066 133.723 233.035 126.434 226.313 120.396C220.164 114.86 212.653 107.275 212.584 106.684C212.572 106.587 212.596 106.489 212.653 106.408C212.969 105.423 214.42 93.8494 215.338 86.2057C215.344 86.1328 215.371 86.0631 215.415 86.0041C215.458 85.9451 215.517 85.899 215.584 85.8708C215.989 85.7132 225.395 81.9898 231.288 85.6738C235.719 88.4318 247.307 104.222 249.123 106.714L275.288 90.5988L275.515 90.4609C275.562 90.4357 275.614 90.42 275.667 90.4148C275.721 90.4096 275.775 90.4149 275.826 90.4304C275.877 90.446 275.925 90.4715 275.967 90.5054C276.008 90.5394 276.042 90.5812 276.068 90.6284C276.093 90.6756 276.109 90.7273 276.114 90.7806C276.119 90.8339 276.114 90.8877 276.098 90.9389C276.083 90.9901 276.057 91.0378 276.023 91.0791C275.989 91.1205 275.947 91.1548 275.9 91.18L275.752 91.2785C275.367 91.5937 274.982 92.628 274.942 94.3616C274.854 98.3017 276.857 106.911 285.118 111.176C285.178 111.209 285.229 111.255 285.267 111.312C285.305 111.368 285.328 111.433 285.336 111.501C285.343 111.568 285.334 111.635 285.308 111.697C285.282 111.76 285.24 111.814 285.188 111.856C284.013 112.791 257.068 134.087 247.405 134.097ZM213.413 106.517C214.874 108.418 238.315 132.6 246.971 133.26C255.262 133.89 280.322 114.604 284.151 111.59C281.109 109.852 278.581 107.342 276.823 104.315C275.065 101.287 274.141 97.8504 274.143 94.3518C274.149 93.59 274.252 92.8321 274.449 92.0961L249.251 107.581C249.164 107.637 249.059 107.657 248.957 107.637C248.856 107.617 248.766 107.558 248.708 107.472C248.57 107.295 235.453 89.2001 230.873 86.3436C225.82 83.1817 217.598 85.989 216.137 86.5307C214.351 101.326 213.739 105.374 213.413 106.517Z" fill="#010F2D"/>
<path d="M240.911 111.55C240.837 111.541 240.767 111.511 240.709 111.464C240.652 111.417 240.609 111.354 240.585 111.284C240.562 111.236 240.548 111.184 240.544 111.131C240.541 111.078 240.548 111.024 240.566 110.974C240.583 110.924 240.611 110.877 240.646 110.837C240.682 110.798 240.725 110.765 240.773 110.742L248.876 106.802C248.924 106.779 248.976 106.765 249.029 106.762C249.082 106.758 249.136 106.765 249.186 106.783C249.237 106.8 249.283 106.827 249.323 106.863C249.363 106.898 249.396 106.941 249.419 106.989C249.444 107.037 249.459 107.089 249.463 107.142C249.467 107.196 249.46 107.25 249.442 107.3C249.424 107.351 249.397 107.398 249.36 107.437C249.324 107.477 249.28 107.509 249.231 107.531L241.128 111.471C241.065 111.519 240.99 111.546 240.911 111.55Z" fill="black"/>
<path d="M278.269 116.83C278.184 116.826 278.102 116.799 278.032 116.751C267.175 108.93 267.234 95.9177 267.234 95.7798C267.234 95.7263 267.245 95.6734 267.266 95.6243C267.287 95.5751 267.318 95.5308 267.357 95.4939C267.395 95.4571 267.441 95.4285 267.491 95.4099C267.542 95.3913 267.595 95.3831 267.649 95.3857C267.703 95.3857 267.756 95.3965 267.806 95.4174C267.855 95.4383 267.901 95.4689 267.938 95.5075C267.976 95.546 268.006 95.5917 268.025 95.6419C268.045 95.692 268.055 95.7456 268.053 95.7995C268.053 95.9177 268.004 108.516 278.515 116.091C278.583 116.143 278.632 116.216 278.656 116.297C278.681 116.379 278.679 116.466 278.652 116.547C278.625 116.628 278.574 116.698 278.505 116.749C278.437 116.799 278.354 116.828 278.269 116.83Z" fill="#010F2D"/>
<path d="M268.063 100.222C267.995 100.221 267.928 100.203 267.867 100.171C267.807 100.138 267.756 100.092 267.718 100.035C267.689 99.9893 267.67 99.9383 267.662 99.8851C267.653 99.8319 267.655 99.7775 267.668 99.7252C267.681 99.6729 267.704 99.6237 267.737 99.5805C267.769 99.5372 267.809 99.5009 267.856 99.4735L274.36 95.4448C274.452 95.389 274.562 95.3712 274.667 95.3951C274.772 95.419 274.864 95.4828 274.923 95.5729C274.951 95.6186 274.97 95.6696 274.979 95.7228C274.987 95.776 274.985 95.8303 274.972 95.8827C274.959 95.935 274.936 95.9842 274.904 96.0274C274.872 96.0707 274.831 96.107 274.785 96.1343L268.28 100.163C268.214 100.202 268.139 100.222 268.063 100.222Z" fill="#010F2D"/>
<path d="M271.478 109.412C271.413 109.413 271.349 109.396 271.292 109.365C271.236 109.334 271.187 109.29 271.152 109.235C271.12 109.193 271.097 109.144 271.084 109.093C271.071 109.041 271.069 108.988 271.077 108.935C271.085 108.883 271.104 108.833 271.132 108.788C271.161 108.743 271.198 108.704 271.241 108.674L277.282 104.359C277.371 104.313 277.473 104.301 277.571 104.324C277.668 104.348 277.754 104.406 277.812 104.488C277.869 104.569 277.896 104.669 277.885 104.769C277.875 104.868 277.829 104.961 277.755 105.029L271.715 109.314C271.649 109.371 271.566 109.406 271.478 109.412Z" fill="#010F2D"/>
<path d="M239.815 261.46L236.736 272.295C236.736 272.295 244.494 277.003 258.598 272.236C268.764 268.798 266.494 266.129 266.494 266.129L263.691 257.796L258.381 253.855H248.205L239.815 261.46Z" fill="black"/>
<path d="M246.507 274.797C240.151 274.797 236.716 272.777 236.499 272.649C236.424 272.601 236.367 272.53 236.335 272.446C236.303 272.363 236.298 272.272 236.321 272.186L239.401 261.351C239.418 261.274 239.459 261.205 239.519 261.154L247.918 253.54C247.99 253.471 248.085 253.432 248.185 253.432H258.351C258.436 253.434 258.519 253.461 258.588 253.51L263.908 257.451C263.976 257.498 264.025 257.567 264.046 257.648L266.839 265.932C266.973 266.143 267.06 266.382 267.092 266.63C267.124 266.878 267.102 267.131 267.027 267.37C266.543 269.162 263.75 270.926 258.726 272.62C254.8 274.006 250.672 274.742 246.507 274.797ZM237.2 272.098C238.68 272.836 246.142 276.038 258.45 271.851C264.609 269.763 265.961 268.039 266.217 267.192C266.268 267.061 266.287 266.919 266.274 266.779C266.26 266.639 266.214 266.504 266.138 266.385C266.108 266.346 266.085 266.303 266.069 266.257L263.286 258.051L258.183 254.269H248.313L240.121 261.706L237.2 272.098Z" fill="#010F2D"/>
<path d="M246.922 291.542C247.008 291.841 247.189 292.104 247.439 292.291C247.688 292.477 247.992 292.578 248.303 292.576L281.644 292.31C281.847 292.308 282.046 292.263 282.23 292.178C282.413 292.093 282.576 291.97 282.709 291.817C282.841 291.664 282.94 291.485 282.998 291.292C283.056 291.099 283.072 290.895 283.046 290.695L282.898 289.631L282.789 288.823L282.7 288.183C282.618 287.585 282.397 287.014 282.054 286.516C281.711 286.018 281.257 285.608 280.726 285.317L272.268 281.899L271.478 281.574L269.958 280.953L269.169 280.638L267.53 279.968L266.75 279.663L263.701 278.422V277.437H247.06L246.951 288.794V289.601L246.922 291.542Z" fill="#FB9100"/>
<path d="M248.294 293.01C247.895 293.005 247.509 292.874 247.191 292.635C246.873 292.395 246.641 292.061 246.527 291.68C246.522 291.641 246.522 291.601 246.527 291.562L246.665 277.486C246.665 277.379 246.708 277.276 246.784 277.2C246.859 277.125 246.962 277.082 247.07 277.082H263.681C263.735 277.081 263.789 277.09 263.839 277.11C263.889 277.13 263.935 277.159 263.973 277.197C264.012 277.235 264.043 277.28 264.064 277.329C264.085 277.379 264.095 277.432 264.095 277.486V278.176L280.874 284.952C281.477 285.268 281.996 285.722 282.389 286.277C282.782 286.832 283.038 287.471 283.135 288.144L283.48 290.666C283.514 290.923 283.492 291.184 283.417 291.432C283.342 291.681 283.214 291.91 283.044 292.106C282.873 292.301 282.663 292.458 282.426 292.567C282.19 292.675 281.934 292.732 281.674 292.734L248.343 293.01H248.294ZM247.307 291.503C247.372 291.71 247.504 291.891 247.682 292.015C247.861 292.14 248.076 292.202 248.294 292.192L281.634 291.917C281.777 291.917 281.918 291.886 282.047 291.826C282.177 291.767 282.292 291.68 282.385 291.572C282.482 291.465 282.554 291.338 282.597 291.2C282.639 291.062 282.651 290.917 282.631 290.774L282.286 288.262C282.21 287.723 282.007 287.209 281.695 286.763C281.383 286.316 280.97 285.949 280.489 285.691L263.513 278.796C263.437 278.765 263.372 278.711 263.326 278.643C263.28 278.575 263.256 278.494 263.256 278.412V277.86H247.494L247.307 291.503Z" fill="black"/>
<path d="M246.922 291.542C247.008 291.841 247.189 292.104 247.439 292.291C247.688 292.478 247.992 292.578 248.303 292.577L281.644 292.311C281.847 292.308 282.046 292.263 282.23 292.178C282.413 292.093 282.576 291.97 282.709 291.817C282.841 291.665 282.94 291.486 282.998 291.292C283.056 291.099 283.072 290.895 283.046 290.695L282.789 288.824H246.951V289.631L246.922 291.542Z" fill="black"/>
<path d="M264.391 281.929L264.924 282.48L267.501 279.988L266.721 279.673L264.391 281.929Z" fill="black"/>
<path d="M266.721 282.844L267.234 283.416L269.929 280.973L269.139 280.658L266.721 282.844Z" fill="black"/>
<path d="M269.04 283.77L269.554 284.342L272.238 281.909L271.449 281.583L269.04 283.77Z" fill="black"/>
<path d="M263.671 277.486V278.471H247.05C247.05 277.397 242.204 261.204 242.016 258.977C244.75 256.495 258.657 252.23 260.976 252.555L263.671 277.486Z" fill="#FFCFC5"/>
<path d="M263.671 278.855L247.05 278.806C246.933 278.807 246.821 278.765 246.734 278.688C246.651 278.611 246.602 278.505 246.596 278.392C246.596 277.91 245.451 273.753 244.424 270.089C243.072 265.163 241.671 260.169 241.572 258.948C241.568 258.886 241.577 258.824 241.599 258.766C241.621 258.708 241.656 258.656 241.7 258.613C244.582 255.993 258.588 251.718 260.996 252.082C261.086 252.095 261.17 252.138 261.232 252.205C261.295 252.271 261.334 252.356 261.342 252.447L264.076 277.447V278.432C264.077 278.485 264.067 278.539 264.048 278.589C264.028 278.639 263.998 278.685 263.961 278.724C263.923 278.762 263.878 278.793 263.828 278.814C263.778 278.835 263.725 278.845 263.671 278.845V278.855ZM247.366 277.998H263.266V277.466L260.572 252.841C257.719 252.89 245.273 256.722 242.411 259.046C242.628 260.504 244 265.449 245.214 269.832C246.507 274.501 247.188 277.003 247.366 277.998Z" fill="black"/>
<path d="M228.83 152.586C246.418 183.269 258.252 231.2 266.474 266.109C261.885 261.519 246.142 263.026 236.736 272.275C230.725 237.8 219.513 196.173 199.032 170.139L204.313 141.504L219.217 145.356L228.83 152.586Z" fill="#1B5A96"/>
<path d="M236.736 272.689H236.607C236.537 272.664 236.474 272.62 236.425 272.563C236.377 272.506 236.344 272.437 236.331 272.364C230.794 240.617 219.779 197.177 198.707 170.385C198.672 170.339 198.646 170.287 198.633 170.231C198.619 170.175 198.617 170.116 198.628 170.06L203.908 141.425C203.919 141.37 203.941 141.318 203.973 141.272C204.005 141.226 204.047 141.188 204.096 141.159C204.142 141.13 204.194 141.11 204.248 141.101C204.303 141.093 204.358 141.096 204.412 141.11L219.315 144.962C219.37 144.97 219.421 144.994 219.463 145.03L229.077 152.261C229.123 152.293 229.161 152.337 229.185 152.389C247.731 184.737 260.187 237.612 266.869 266.02C266.89 266.105 266.882 266.195 266.847 266.276C266.811 266.356 266.749 266.422 266.671 266.463C266.594 266.506 266.505 266.522 266.418 266.51C266.331 266.498 266.25 266.457 266.188 266.394C261.904 262.119 246.507 263.233 237.022 272.57C236.944 272.643 236.842 272.685 236.736 272.689ZM199.467 170.03C220.401 196.744 231.426 239.76 236.973 271.487C245.648 263.459 260.039 261.223 265.773 265.065C259.032 236.499 246.704 184.717 228.494 152.891L219.039 145.759L204.639 142.036L199.467 170.03Z" fill="black"/>
<path d="M204.204 267.577C204.204 267.577 202.23 271.704 190.041 271.704C172.186 271.704 172.275 267.331 172.275 267.331L174.663 256.407C174.663 256.407 186.024 260.17 186.912 259.598C187.8 259.027 203.069 258.682 203.069 258.682L204.204 267.577Z" fill="black"/>
<path d="M190.041 272.108C178.375 272.108 174.111 270.266 172.591 268.729C172.175 268.37 171.914 267.866 171.86 267.321C171.855 267.295 171.855 267.268 171.86 267.242L174.239 256.318C174.268 256.207 174.339 256.112 174.436 256.052C174.489 256.028 174.546 256.016 174.604 256.016C174.662 256.016 174.719 256.028 174.772 256.052C180.062 257.805 185.974 259.49 186.705 259.263C187.583 258.692 199.427 258.386 203.04 258.278C203.14 258.277 203.237 258.312 203.314 258.378C203.39 258.443 203.44 258.534 203.454 258.633L204.599 267.498C204.619 267.572 204.619 267.65 204.599 267.724C204.481 267.902 202.329 272.108 190.041 272.108ZM172.68 267.36C172.739 267.675 173.775 271.3 190.041 271.3C200.7 271.3 203.375 268.079 203.78 267.488L202.694 259.096C196.93 259.234 187.889 259.568 187.109 259.943C186.241 260.504 179.312 258.367 174.95 256.938L172.68 267.36Z" fill="black"/>
<path d="M177.22 291.542C177.306 291.841 177.487 292.104 177.737 292.291C177.986 292.478 178.29 292.578 178.602 292.577L211.962 292.33C212.164 292.328 212.364 292.283 212.547 292.198C212.731 292.113 212.894 291.99 213.027 291.837C213.159 291.684 213.258 291.505 213.316 291.312C213.374 291.119 213.39 290.915 213.364 290.715L213.216 289.651L213.107 288.843L213.018 288.203C212.938 287.604 212.718 287.032 212.375 286.534C212.032 286.036 211.576 285.626 211.044 285.337L202.595 281.919L201.806 281.594L200.276 280.973L199.486 280.658L197.848 279.988L197.078 279.683L194.028 278.442L177.417 277.457L177.309 288.814V289.621L177.22 291.542Z" fill="#FB9100"/>
<path d="M178.592 293.01C178.193 293.007 177.806 292.876 177.488 292.636C177.17 292.397 176.937 292.061 176.825 291.68C176.82 291.641 176.82 291.601 176.825 291.562L176.963 277.486C176.964 277.43 176.975 277.376 176.997 277.325C177.019 277.274 177.051 277.228 177.091 277.19C177.132 277.152 177.18 277.122 177.233 277.103C177.285 277.085 177.342 277.077 177.397 277.082L194.009 278.067C194.051 278.057 194.095 278.057 194.137 278.067L211.163 284.962C211.763 285.28 212.279 285.735 212.67 286.289C213.061 286.844 213.316 287.482 213.413 288.153L213.758 290.675C213.793 290.932 213.772 291.193 213.697 291.441C213.622 291.689 213.495 291.918 213.324 292.113C213.157 292.311 212.948 292.469 212.713 292.578C212.477 292.687 212.221 292.744 211.962 292.744L178.621 293.019L178.592 293.01ZM177.605 291.503C177.68 291.703 177.815 291.877 177.991 292C178.167 292.123 178.377 292.19 178.592 292.192L211.932 291.916C212.077 291.918 212.219 291.888 212.351 291.828C212.482 291.768 212.599 291.681 212.692 291.572C212.788 291.464 212.859 291.337 212.899 291.199C212.94 291.061 212.951 290.916 212.929 290.774L212.584 288.262C212.51 287.723 212.309 287.21 211.999 286.763C211.688 286.317 211.277 285.949 210.797 285.691L193.87 278.845L177.753 277.919L177.605 291.503Z" fill="black"/>
<path d="M177.22 291.542C177.306 291.841 177.487 292.104 177.737 292.291C177.986 292.478 178.29 292.578 178.602 292.576L211.962 292.33C212.164 292.328 212.364 292.283 212.547 292.198C212.731 292.113 212.894 291.99 213.027 291.837C213.159 291.684 213.258 291.505 213.316 291.312C213.374 291.119 213.39 290.915 213.364 290.715L213.107 288.843H177.279V289.651L177.22 291.542Z" fill="black"/>
<path d="M194.69 281.929L195.213 282.48L197.799 279.988L197.019 279.673L194.69 281.929Z" fill="black"/>
<path d="M197.009 282.844L197.522 283.416L200.227 280.973L199.437 280.658L197.009 282.844Z" fill="black"/>
<path d="M199.328 283.77L199.852 284.342L202.536 281.909L201.747 281.583L199.328 283.77Z" fill="black"/>
<path d="M193.969 278.441H177.338C177.338 277.368 178.325 259.391 178.088 257.165C180.822 254.683 194.729 250.408 197.049 250.743L193.969 278.441Z" fill="#FFCFC5"/>
<path d="M193.969 278.855L177.348 278.806C177.292 278.807 177.236 278.798 177.183 278.777C177.131 278.757 177.083 278.727 177.042 278.688C177 278.651 176.966 278.605 176.942 278.554C176.918 278.503 176.905 278.448 176.904 278.392C176.904 278.185 176.904 277.338 177.003 276.087C177.239 270.955 177.802 258.928 177.654 257.155C177.65 257.093 177.66 257.032 177.682 256.974C177.704 256.916 177.738 256.864 177.782 256.82C180.664 254.2 194.67 249.925 197.078 250.299C197.13 250.305 197.18 250.322 197.226 250.347C197.272 250.373 197.312 250.408 197.344 250.449C197.376 250.49 197.4 250.537 197.413 250.588C197.427 250.638 197.43 250.691 197.424 250.743L194.384 278.491C194.371 278.592 194.323 278.685 194.246 278.752C194.17 278.819 194.071 278.856 193.969 278.855ZM177.723 277.998H193.594L196.555 251.058C193.594 251.176 181.276 254.998 178.463 257.263C178.572 259.657 178.039 271.103 177.812 276.087C177.772 276.944 177.743 277.594 177.723 277.998Z" fill="black"/>
<path d="M210.314 173.527C215.92 208.673 204.323 267.902 204.204 267.577C202.003 261.666 175.088 260.681 172.265 267.33C178.305 229.23 182.846 177.615 179.589 151.768L211.557 152.999" fill="#1B5A96"/>
<path d="M204.204 267.99C204.121 267.99 204.039 267.964 203.971 267.917C203.902 267.869 203.849 267.802 203.819 267.724C202.892 265.252 196.437 263.331 188.462 263.164C181.553 263.016 174.002 264.297 172.67 267.488C172.629 267.579 172.557 267.653 172.466 267.696C172.376 267.74 172.273 267.749 172.176 267.724C172.079 267.697 171.996 267.634 171.943 267.548C171.89 267.463 171.871 267.36 171.89 267.261C177.753 230.254 182.55 178.334 179.204 151.817C179.195 151.759 179.199 151.7 179.216 151.644C179.233 151.588 179.263 151.536 179.302 151.492C179.386 151.408 179.499 151.358 179.618 151.354L211.597 152.596C211.651 152.597 211.704 152.609 211.753 152.631C211.803 152.653 211.847 152.685 211.884 152.724C211.921 152.764 211.949 152.81 211.968 152.861C211.986 152.911 211.994 152.965 211.992 153.019C211.989 153.072 211.976 153.124 211.953 153.172C211.931 153.22 211.899 153.263 211.859 153.299C211.82 153.335 211.774 153.362 211.724 153.38C211.674 153.398 211.62 153.406 211.567 153.403L180.072 152.192C183.26 178.531 178.671 229.023 172.956 265.735C175.808 263.075 182.777 262.218 188.491 262.346C194.926 262.484 201.865 263.824 204.066 266.523C205.764 258.643 215.002 205.333 209.929 173.596C209.928 173.497 209.963 173.402 210.028 173.326C210.092 173.251 210.181 173.201 210.278 173.186C210.376 173.17 210.476 173.19 210.561 173.242C210.645 173.294 210.708 173.374 210.738 173.468C213.64 191.681 211.863 216.287 209.85 233.722C208.695 243.789 207.363 252.437 206.445 257.855C205.892 261.204 205.458 263.607 205.172 265.035C204.629 267.892 204.629 267.892 204.323 267.99H204.204Z" fill="black"/>
<path d="M171.426 158.24C171.426 158.24 209.041 164.819 233.419 156.437C233.419 156.437 233.646 124.65 231.189 104.793C230.33 97.7694 229.126 92.2434 227.458 90.1256C222.523 83.8905 207.718 87.6335 207.718 87.6335C207.718 87.6335 185.609 79.7632 178.404 86.8061C169.669 95.3659 171.426 158.24 171.426 158.24Z" fill="#FB9100"/>
<path d="M201.964 161.077C191.718 161.044 181.489 160.231 171.367 158.644C171.275 158.624 171.192 158.575 171.132 158.504C171.071 158.433 171.036 158.343 171.031 158.25C170.962 155.679 169.363 95.1004 178.148 86.5209C185.244 79.6258 205.783 86.5209 207.757 87.2005C209.625 86.7756 211.517 86.4696 213.423 86.2845C213.524 86.287 213.621 86.3264 213.695 86.3953C213.769 86.4642 213.815 86.5578 213.825 86.6584C213.835 86.759 213.807 86.8596 213.748 86.9414C213.688 87.0231 213.601 87.0803 213.502 87.102C211.594 87.2796 209.701 87.589 207.836 88.028C207.759 88.0476 207.677 88.0476 207.6 88.028C207.382 87.959 185.668 80.3547 178.75 87.1217C170.548 95.1398 171.752 152.95 171.841 157.915C175.581 158.526 210.215 163.825 233.035 156.162C233.035 152.881 233.113 122.671 230.725 104.123C230.718 104.07 230.722 104.016 230.736 103.964C230.75 103.913 230.775 103.865 230.808 103.822C230.841 103.78 230.882 103.745 230.929 103.719C230.975 103.693 231.027 103.676 231.08 103.67C231.133 103.662 231.187 103.664 231.238 103.677C231.29 103.69 231.339 103.713 231.381 103.746C231.423 103.778 231.459 103.818 231.485 103.865C231.512 103.911 231.528 103.962 231.534 104.015C234.061 123.626 233.854 156.132 233.854 156.457C233.854 156.542 233.827 156.625 233.778 156.694C233.728 156.763 233.658 156.814 233.577 156.841C224.063 160.082 212.525 161.077 201.964 161.077Z" fill="black"/>
<path d="M178.898 148.173C178.898 148.173 181.592 153.029 176.361 160.141C170.123 168.602 164.517 165.657 164.517 165.657L156.256 156.595C152.683 141.071 169.028 143.415 178.898 148.173Z" fill="#FF4301"/>
<path d="M167.044 166.583C166.108 166.602 165.18 166.41 164.329 166.021C164.287 166 164.25 165.97 164.221 165.933L155.96 156.841C155.914 156.786 155.88 156.723 155.861 156.654C154.726 151.729 155.466 148.212 158.052 146.153C162.612 142.529 172.147 144.459 179.075 147.798C179.15 147.839 179.212 147.901 179.253 147.976C179.371 148.183 182.017 153.147 176.687 160.377C172.916 165.509 169.363 166.583 167.044 166.583ZM164.774 165.332C165.405 165.617 170.37 167.587 176.035 159.894C180.625 153.659 178.927 149.217 178.592 148.478C171.9 145.277 162.8 143.405 158.565 146.794C156.256 148.626 155.604 151.847 156.591 156.368L164.774 165.332Z" fill="black"/>
<path d="M171.771 145.622L160.638 155.895L165.889 162.308C165.889 162.308 175.443 176.226 179.263 175.31C180.921 174.926 180.724 173.773 180.112 172.67C181.247 173.921 182.806 175.034 184.356 173.99C185.905 172.946 184.287 170.69 183.3 169.538C184.731 170.986 188.166 173.961 190.209 171.36C191.146 170.168 188.926 167.873 187.554 166.642C188.777 167.627 190.89 168.809 192.489 166.75C195.144 163.283 181.632 157.274 181.375 157.107C181.602 157.107 186.991 158.299 187.662 155.866C188.333 153.433 178.779 150.882 175.739 149.227C175.058 148.902 172.482 146.114 171.771 145.622Z" fill="#FFCFC5"/>
<path d="M178.917 175.783C174.792 175.783 166.55 163.963 165.593 162.535L160.362 156.152C160.292 156.077 160.253 155.978 160.253 155.876C160.253 155.774 160.292 155.675 160.362 155.6L171.495 145.326C171.567 145.27 171.655 145.239 171.747 145.239C171.838 145.239 171.927 145.27 171.999 145.326C172.692 145.887 173.352 146.489 173.973 147.129C174.587 147.778 175.247 148.384 175.947 148.941C177.232 149.56 178.55 150.109 179.895 150.586C184.198 152.231 188.639 153.935 188.067 156.043C187.613 157.679 185.52 157.964 183.783 157.885C187.672 159.855 192.577 162.81 193.189 165.293C193.275 165.596 193.286 165.915 193.223 166.224C193.159 166.532 193.023 166.821 192.824 167.066C192.592 167.406 192.291 167.693 191.941 167.91C191.591 168.127 191.199 168.269 190.791 168.327C190.415 168.376 190.033 168.352 189.666 168.258C190.653 169.499 191.275 170.779 190.564 171.685C190.315 172.029 189.993 172.313 189.621 172.518C189.249 172.722 188.836 172.841 188.412 172.867C187.241 172.828 186.112 172.421 185.185 171.705C185.383 172.157 185.464 172.652 185.422 173.143C185.388 173.397 185.299 173.641 185.161 173.857C185.023 174.073 184.839 174.257 184.622 174.394C184.07 174.749 183.416 174.91 182.762 174.853C182.108 174.796 181.492 174.524 181.01 174.079C181.011 174.309 180.964 174.538 180.872 174.749C180.719 175.017 180.506 175.246 180.249 175.417C179.992 175.588 179.698 175.697 179.391 175.734C179.237 175.775 179.077 175.791 178.917 175.783ZM161.24 155.935L166.244 162.052C168.87 165.884 176.272 175.616 179.164 174.946C179.352 174.928 179.534 174.867 179.695 174.768C179.856 174.669 179.991 174.534 180.092 174.375C180.142 174.118 180.137 173.854 180.078 173.599C180.018 173.344 179.905 173.105 179.746 172.897C179.698 172.809 179.684 172.707 179.706 172.609C179.727 172.511 179.784 172.424 179.865 172.365C179.946 172.306 180.047 172.279 180.148 172.289C180.248 172.3 180.341 172.348 180.408 172.424C181.819 173.971 183.063 174.394 184.119 173.685C184.24 173.61 184.343 173.509 184.422 173.39C184.5 173.271 184.552 173.136 184.573 172.996C184.672 172.276 184.089 171.124 182.984 169.834C182.91 169.757 182.869 169.654 182.869 169.548C182.869 169.442 182.91 169.339 182.984 169.262C183.059 169.189 183.16 169.149 183.265 169.149C183.37 169.149 183.471 169.189 183.546 169.262C184.395 170.109 186.507 172.089 188.294 171.991C188.601 171.971 188.899 171.882 189.167 171.732C189.435 171.582 189.666 171.375 189.843 171.124C190.367 170.464 189.37 168.858 187.238 166.957C187.164 166.884 187.12 166.786 187.115 166.682C187.11 166.578 187.145 166.476 187.212 166.396C187.28 166.317 187.375 166.266 187.478 166.253C187.581 166.24 187.686 166.266 187.771 166.327C188.531 167.065 189.553 167.472 190.613 167.46C190.916 167.409 191.204 167.295 191.459 167.126C191.714 166.956 191.931 166.734 192.094 166.475C192.213 166.324 192.294 166.147 192.332 165.959C192.37 165.771 192.363 165.576 192.311 165.391C191.857 163.5 187.751 160.565 181.355 157.511L181.109 157.393C181.028 157.342 180.967 157.265 180.937 157.175C180.906 157.084 180.908 156.986 180.942 156.897C180.975 156.808 181.039 156.733 181.121 156.685C181.204 156.637 181.3 156.619 181.395 156.634C182.747 156.95 186.725 157.432 187.198 155.649C187.583 154.251 182.727 152.399 179.519 151.177C178.14 150.685 176.789 150.116 175.473 149.473C174.697 148.887 173.979 148.227 173.331 147.503C172.768 146.952 172.147 146.331 171.752 146.006L161.24 155.935Z" fill="black"/>
<path d="M187.554 167.075C187.469 167.077 187.387 167.053 187.317 167.006L182.461 163.49C182.373 163.428 182.314 163.335 182.295 163.23C182.277 163.124 182.301 163.016 182.362 162.928C182.425 162.84 182.521 162.781 182.628 162.762C182.735 162.744 182.845 162.768 182.934 162.83L187.79 166.346C187.834 166.377 187.871 166.416 187.899 166.461C187.928 166.506 187.946 166.556 187.955 166.608C187.963 166.661 187.961 166.714 187.948 166.766C187.935 166.817 187.911 166.866 187.879 166.908C187.843 166.96 187.794 167.002 187.737 167.032C187.68 167.061 187.617 167.076 187.554 167.075Z" fill="black"/>
<path d="M183.339 169.971C183.238 169.973 183.14 169.938 183.063 169.873L179.579 166.74C179.541 166.703 179.511 166.658 179.491 166.609C179.47 166.56 179.46 166.508 179.46 166.455C179.46 166.402 179.47 166.349 179.491 166.3C179.511 166.251 179.541 166.207 179.579 166.169C179.656 166.093 179.761 166.05 179.87 166.05C179.979 166.05 180.083 166.093 180.161 166.169L183.645 169.292C183.683 169.329 183.713 169.374 183.733 169.423C183.753 169.472 183.764 169.524 183.764 169.577C183.764 169.63 183.753 169.683 183.733 169.732C183.713 169.781 183.683 169.825 183.645 169.863C183.604 169.901 183.556 169.93 183.503 169.949C183.451 169.968 183.395 169.975 183.339 169.971Z" fill="black"/>
<path d="M180.112 173.104C180.052 173.104 179.993 173.092 179.939 173.068C179.885 173.045 179.836 173.01 179.796 172.966L175.897 168.415C175.86 168.378 175.83 168.333 175.809 168.284C175.789 168.235 175.779 168.183 175.779 168.13C175.779 168.076 175.789 168.024 175.809 167.975C175.83 167.926 175.86 167.881 175.897 167.844C175.975 167.767 176.079 167.725 176.188 167.725C176.297 167.725 176.402 167.767 176.48 167.844L180.378 172.404C180.429 172.463 180.463 172.535 180.474 172.612C180.485 172.689 180.474 172.767 180.442 172.838C180.41 172.909 180.357 172.969 180.292 173.01C180.226 173.052 180.15 173.075 180.072 173.074L180.112 173.104Z" fill="black"/>
<path d="M192.222 84.0483C192.222 84.0483 180.437 81.7828 171.317 88.0967C162.198 94.4107 139.911 121.499 140.415 133.142C140.918 144.784 164.744 166.13 164.527 165.647C161.971 160.722 170.212 143.474 178.898 148.163L165.08 136.215L183.408 107.521" fill="#FB9100"/>
<path d="M164.517 166.071C164.471 166.08 164.424 166.08 164.379 166.071C164.152 165.982 140.553 145.051 140.01 133.181C139.447 121.036 162.059 94.0168 171.051 87.7817C180.21 81.448 192.153 83.6446 192.271 83.6742C192.324 83.6845 192.374 83.7051 192.418 83.7347C192.463 83.7643 192.501 83.8024 192.531 83.8467C192.561 83.8911 192.582 83.9409 192.592 83.9932C192.603 84.0456 192.603 84.0995 192.592 84.1519C192.582 84.2043 192.561 84.2541 192.532 84.2986C192.502 84.343 192.464 84.3812 192.419 84.4109C192.375 84.4406 192.325 84.4613 192.273 84.4718C192.22 84.4823 192.166 84.4824 192.114 84.472C191.995 84.472 180.388 82.3148 171.515 88.4121C162.869 94.401 140.286 121.45 140.819 133.102C141.283 142.952 159.197 160.407 163.727 164.455C163.096 160.574 165.79 153.719 169.728 149.867C172.077 147.582 174.594 146.617 177.003 147.05L164.853 136.51C164.779 136.447 164.73 136.36 164.716 136.264C164.701 136.168 164.722 136.07 164.774 135.988L183.102 107.344C183.16 107.253 183.251 107.188 183.357 107.164C183.462 107.14 183.573 107.159 183.665 107.216C183.756 107.274 183.821 107.365 183.846 107.47C183.87 107.576 183.851 107.686 183.793 107.778L165.652 136.176L179.164 147.897C179.241 147.961 179.291 148.051 179.303 148.15C179.316 148.248 179.291 148.348 179.233 148.429C179.177 148.513 179.09 148.573 178.992 148.597C178.893 148.621 178.789 148.607 178.7 148.557C175.285 146.715 172.245 148.557 170.301 150.527C165.8 154.93 163.392 162.712 164.892 165.529C164.928 165.606 164.941 165.692 164.929 165.776C164.916 165.86 164.88 165.939 164.823 166.002C164.779 166.034 164.73 166.056 164.677 166.068C164.625 166.08 164.57 166.081 164.517 166.071Z" fill="black"/>
<path d="M165.119 136.628C165.038 136.63 164.959 136.606 164.892 136.559L157.43 131.447C157.385 131.418 157.346 131.381 157.316 131.336C157.286 131.292 157.265 131.242 157.255 131.19C157.245 131.137 157.246 131.083 157.257 131.031C157.269 130.979 157.291 130.929 157.322 130.886C157.384 130.796 157.479 130.735 157.586 130.714C157.693 130.694 157.804 130.717 157.894 130.777L165.356 135.89C165.444 135.951 165.503 136.045 165.522 136.15C165.54 136.255 165.516 136.364 165.455 136.451C165.418 136.506 165.368 136.551 165.309 136.581C165.251 136.612 165.185 136.629 165.119 136.628Z" fill="black"/>
<path d="M157.677 159.55H157.608C157.503 159.529 157.41 159.467 157.35 159.379C157.289 159.291 157.265 159.183 157.282 159.077C159.592 145.76 172.087 142.027 172.176 141.997C172.227 141.982 172.281 141.978 172.334 141.983C172.387 141.989 172.438 142.005 172.485 142.031C172.532 142.057 172.573 142.091 172.606 142.133C172.64 142.174 172.665 142.222 172.68 142.273C172.694 142.324 172.699 142.378 172.693 142.43C172.687 142.483 172.671 142.535 172.646 142.581C172.62 142.628 172.585 142.669 172.544 142.702C172.502 142.736 172.454 142.76 172.403 142.775C172.285 142.775 160.303 146.41 158.082 159.215C158.065 159.31 158.016 159.396 157.941 159.457C157.867 159.519 157.774 159.552 157.677 159.55Z" fill="black"/>
<path d="M164.369 160.229C164.277 160.232 164.187 160.205 164.112 160.151L158.427 155.698C158.384 155.666 158.348 155.626 158.32 155.58C158.293 155.534 158.275 155.482 158.268 155.429C158.26 155.376 158.264 155.322 158.277 155.27C158.291 155.218 158.315 155.17 158.348 155.127C158.418 155.043 158.517 154.989 158.626 154.976C158.734 154.963 158.843 154.993 158.931 155.058L164.586 159.55C164.67 159.619 164.725 159.718 164.737 159.827C164.75 159.935 164.721 160.044 164.655 160.131C164.576 160.2 164.474 160.235 164.369 160.229Z" fill="black"/>
<path d="M170.784 149.897C170.687 149.894 170.594 149.859 170.518 149.798L165.869 145.937C165.827 145.904 165.793 145.862 165.767 145.815C165.742 145.768 165.726 145.717 165.72 145.664C165.715 145.611 165.72 145.557 165.735 145.506C165.751 145.455 165.776 145.407 165.81 145.366C165.881 145.283 165.981 145.231 166.089 145.22C166.198 145.209 166.306 145.24 166.392 145.307L171.041 149.168C171.084 149.202 171.119 149.245 171.144 149.293C171.17 149.341 171.185 149.394 171.19 149.448C171.195 149.502 171.188 149.557 171.171 149.609C171.154 149.66 171.127 149.708 171.09 149.749C171.052 149.793 171.005 149.829 170.953 149.854C170.9 149.879 170.843 149.894 170.784 149.897Z" fill="black"/>
<path d="M199.723 98.2916C205.379 99.9858 210.077 92.4997 210.077 92.4997C210.077 92.4997 216.443 99.2864 220.174 97.6217C226.195 94.9327 216.601 86.4123 216.601 86.4123C216.601 86.4123 210.57 87.0328 210.482 87.2298L196.466 84.6885C196.466 84.6885 196.506 97.3164 199.723 98.2916Z" fill="#C66A05"/>
<path d="M201.441 98.9517C200.819 98.9489 200.2 98.856 199.605 98.6759C196.2 97.6909 196.062 86.0085 196.062 84.6788C196.061 84.6185 196.074 84.559 196.1 84.5044C196.125 84.4499 196.163 84.4018 196.21 84.3636C196.255 84.3249 196.309 84.2968 196.367 84.2815C196.425 84.2662 196.486 84.2639 196.545 84.2749L210.452 86.8163C212.468 86.4075 214.509 86.1376 216.562 86.0085C216.675 86.0015 216.788 86.0366 216.877 86.1071C217.124 86.3336 223.105 91.6921 222.523 95.4253C222.417 96.0083 222.158 96.553 221.773 97.0044C221.389 97.4557 220.891 97.7979 220.332 97.9962C216.877 99.5427 211.567 94.5782 210.136 93.1499C209.139 94.5388 205.734 98.9517 201.441 98.9517ZM199.842 97.8977C205.132 99.4934 209.712 92.3619 209.712 92.2831C209.744 92.23 209.789 92.1854 209.842 92.1528C209.895 92.1203 209.956 92.1008 210.018 92.096C210.08 92.0915 210.142 92.1007 210.2 92.1228C210.258 92.1449 210.31 92.1795 210.353 92.224C210.412 92.293 216.571 98.7842 219.986 97.2574C220.42 97.1088 220.806 96.8482 221.106 96.5022C221.406 96.1562 221.609 95.737 221.694 95.2874C222.168 92.2536 217.312 87.624 216.443 86.8163C214.242 87.0428 211.163 87.4073 210.689 87.555C210.597 87.6094 210.489 87.6302 210.383 87.6141L196.861 85.1516C196.93 89.9486 197.769 97.2574 199.822 97.878L199.842 97.8977Z" fill="black"/>
<path d="M201.944 71.6172C201.944 71.6172 202.063 82.9843 200.029 85.5256L210.077 92.4995L215.19 86.6879L215.683 79.1723L201.944 71.6172Z" fill="#FFCFC5"/>
<path d="M210.077 92.9135C209.992 92.9115 209.909 92.8841 209.84 92.8347L199.792 85.8608C199.704 85.7925 199.645 85.6944 199.625 85.585C199.614 85.5292 199.616 85.4716 199.632 85.4169C199.647 85.3621 199.675 85.3118 199.713 85.2698C201.303 83.2997 201.569 74.7498 201.539 71.6273C201.537 71.5559 201.554 71.4852 201.588 71.4224C201.623 71.3596 201.673 71.307 201.734 71.27C201.795 71.2329 201.865 71.2127 201.937 71.2115C202.008 71.2102 202.079 71.228 202.141 71.2628L215.91 78.7785C215.977 78.8169 216.032 78.8732 216.069 78.9411C216.105 79.009 216.122 79.0857 216.117 79.1627L215.624 86.6784C215.616 86.7684 215.582 86.8542 215.525 86.9246L210.413 92.7362C210.374 92.7897 210.324 92.8336 210.266 92.8644C210.207 92.8952 210.143 92.912 210.077 92.9135ZM200.592 85.4175L209.988 91.958L214.765 86.5306L215.239 79.4089L202.339 72.3168C202.349 74.7399 202.191 82.7186 200.592 85.4175Z" fill="black"/>
<path d="M209.208 79.0245C212.178 81.0662 215.826 81.8784 219.384 81.2901C227.665 79.5171 230.695 72.0605 228.879 63.5598C227.063 55.0591 218.318 47.1395 209.001 50.3113C200.681 53.1383 198.144 61.5799 202.23 73.4691" fill="#FFCFC5"/>
<path d="M217.144 81.9306C214.243 81.8516 211.423 80.9645 209.001 79.3696C208.909 79.3121 208.845 79.2207 208.82 79.1154C208.796 79.0101 208.815 78.8996 208.873 78.8081C208.93 78.7167 209.022 78.6519 209.128 78.6278C209.233 78.6038 209.344 78.6226 209.435 78.6801C212.762 80.7585 216.265 81.5465 219.305 80.8964C221.063 80.5859 222.725 79.8704 224.157 78.8068C225.589 77.7432 226.753 76.3609 227.557 74.7696C229.077 71.7357 229.393 67.8745 228.484 63.6684C227.93 61.2128 226.877 58.8967 225.39 56.8636C223.902 54.8304 222.013 53.1235 219.838 51.8482C218.243 50.8994 216.46 50.3075 214.612 50.1137C212.765 49.9198 210.898 50.1285 209.139 50.7253C207.626 51.1796 206.221 51.9383 205.013 52.9547C203.804 53.9711 202.817 55.2238 202.112 56.6354C200.138 60.7626 200.256 66.5447 202.615 73.3807C202.65 73.4839 202.642 73.5966 202.594 73.6943C202.546 73.792 202.462 73.8669 202.359 73.9028C202.308 73.9197 202.255 73.9266 202.201 73.9229C202.148 73.9192 202.096 73.905 202.049 73.8812C202.001 73.8574 201.958 73.8244 201.924 73.7842C201.889 73.7439 201.862 73.6972 201.845 73.6467C199.417 66.6333 199.25 60.6444 201.372 56.3202C202.123 54.8089 203.176 53.4667 204.466 52.3759C205.756 51.2851 207.256 50.4687 208.873 49.9767C210.74 49.3371 212.725 49.1115 214.689 49.3156C216.652 49.5198 218.548 50.1487 220.243 51.1587C222.521 52.4951 224.499 54.2847 226.054 56.4165C227.61 58.5482 228.709 60.9765 229.284 63.5502C230.28 67.4279 229.932 71.528 228.297 75.1833C227.434 76.8818 226.188 78.3573 224.657 79.4939C223.126 80.6305 221.351 81.3972 219.473 81.7336C218.706 81.8795 217.925 81.9455 217.144 81.9306Z" fill="black"/>
<path d="M202.852 66.0619C204.066 65.9732 205.053 66.9582 205.922 67.7955C206.79 68.6328 208.231 69.2435 209.149 68.4358C210.067 67.628 209.633 65.8747 208.784 64.8798C207.935 63.885 206.81 63.1068 206.395 61.8361C207.265 62.2555 208.232 62.4329 209.195 62.3497C210.157 62.2665 211.079 61.9257 211.863 61.3633C212.666 60.7561 213.304 59.9592 213.721 59.0444C214.138 58.1296 214.321 57.1257 214.252 56.123C217.072 57.3597 220.193 57.7463 223.23 57.2352C226.268 56.7242 229.089 55.3378 231.347 53.2468C233.183 51.5329 234.712 49.0211 234.16 46.4994C233.743 45.0031 232.831 43.6911 231.574 42.7761C229.554 41.1895 227.086 40.2761 224.518 40.1647C221.95 40.0534 219.412 40.7497 217.262 42.1555C215.759 40.9176 214.034 39.9751 212.179 39.3777C211.248 39.091 210.255 39.0671 209.311 39.3088C208.367 39.5504 207.508 40.0482 206.83 40.7469C205.586 42.2146 205.448 44.3521 205.379 46.3221C203.808 45.4372 201.989 45.0955 200.204 45.3502C198.418 45.605 196.768 46.442 195.509 47.7307C194.237 49.0938 193.305 50.7376 192.791 52.5281C192.276 54.3187 192.193 56.2052 192.548 58.034C193.287 61.6746 195.307 64.9311 198.243 67.2143C200.385 68.9283 203.346 70.1694 205.724 68.7904" fill="black"/>
<path d="M206.484 67.8053C205.339 66.9216 204.016 66.2965 202.605 65.9732C202.05 65.8661 201.478 65.9002 200.939 66.0724C200.401 66.2445 199.915 66.5492 199.526 66.9582C199.184 67.4184 198.971 67.9604 198.907 68.5295C198.843 69.0986 198.93 69.6745 199.161 70.1989C199.561 71.3448 200.351 72.3147 201.393 72.9408C202.435 73.5668 203.663 73.8095 204.866 73.6267" fill="#FFCFC5"/>
<path d="M204.125 74.1094C202.955 74.1081 201.814 73.7458 200.858 73.0722C199.902 72.3986 199.178 71.4467 198.786 70.3466C198.522 69.7547 198.424 69.103 198.5 68.4599C198.577 67.8169 198.825 67.2063 199.22 66.6922C199.652 66.2258 200.195 65.8769 200.8 65.6787C201.404 65.4805 202.05 65.4395 202.674 65.5594C204.163 65.9069 205.555 66.5798 206.751 67.5295C206.791 67.565 206.824 67.6082 206.847 67.6564C206.871 67.7046 206.884 67.7569 206.888 67.8104C206.891 67.8639 206.883 67.9176 206.866 67.9682C206.848 68.0189 206.821 68.0656 206.785 68.1057C206.75 68.1458 206.706 68.1785 206.658 68.2019C206.61 68.2254 206.557 68.2391 206.504 68.2423C206.45 68.2455 206.396 68.2381 206.346 68.2206C206.295 68.2031 206.248 68.1757 206.208 68.1402C205.123 67.3031 203.871 66.7085 202.536 66.3967C202.052 66.3027 201.552 66.3309 201.081 66.4789C200.611 66.6268 200.185 66.8898 199.842 67.2438C199.547 67.6489 199.364 68.1245 199.312 68.6226C199.26 69.1206 199.341 69.6236 199.546 70.0807C199.915 71.1321 200.639 72.0235 201.592 72.6034C202.546 73.1834 203.671 73.4161 204.777 73.2623C204.829 73.2492 204.883 73.2468 204.935 73.2553C204.988 73.2637 205.039 73.2828 205.084 73.3114C205.129 73.3399 205.168 73.3774 205.199 73.4214C205.229 73.4655 205.25 73.5152 205.26 73.5676C205.284 73.6721 205.265 73.7817 205.208 73.8722C205.15 73.9627 205.059 74.0268 204.954 74.0503C204.681 74.1033 204.403 74.1231 204.125 74.1094Z" fill="black"/>
<path d="M220.677 70.8982C220.58 70.883 220.491 70.8334 220.426 70.7585C220.362 70.6835 220.327 70.5881 220.327 70.4894C220.327 70.3907 220.362 70.2952 220.426 70.2203C220.491 70.1453 220.58 70.0958 220.677 70.0806C221.479 70.0335 222.258 69.7936 222.947 69.3812C223.033 69.3102 223.103 69.2232 223.155 69.1251C223.139 69.0033 223.099 68.886 223.036 68.7804L220.44 63.6681C220.414 63.6208 220.397 63.5683 220.391 63.5142C220.386 63.46 220.391 63.4053 220.408 63.3535C220.425 63.3016 220.452 63.2538 220.488 63.2131C220.524 63.1723 220.569 63.1394 220.618 63.1165C220.714 63.0684 220.824 63.06 220.926 63.0933C221.028 63.1265 221.112 63.1986 221.161 63.2938L223.757 68.4061C223.923 68.6699 223.993 68.9832 223.954 69.2926C223.876 69.5627 223.717 69.803 223.5 69.9821C222.677 70.5201 221.728 70.8357 220.746 70.8982H220.677Z" fill="black"/>
<path d="M216.137 65.5298C216.189 65.7348 216.299 65.9204 216.454 66.0641C216.609 66.2079 216.803 66.3037 217.012 66.34C217.22 66.3762 217.435 66.3513 217.63 66.2683C217.824 66.1854 217.991 66.0478 218.109 65.8724C218.227 65.6969 218.292 65.4911 218.295 65.2797C218.298 65.0684 218.24 64.8607 218.127 64.6817C218.015 64.5026 217.853 64.36 217.661 64.271C217.469 64.1821 217.255 64.1506 217.045 64.1803C216.896 64.2086 216.755 64.2661 216.628 64.3494C216.502 64.4327 216.393 64.5403 216.309 64.6658C216.224 64.7913 216.166 64.9323 216.136 65.0806C216.107 65.229 216.107 65.3816 216.137 65.5298Z" fill="black"/>
<path d="M223.984 64.7517C224.034 64.9599 224.144 65.149 224.3 65.2959C224.456 65.4427 224.652 65.541 224.863 65.5788C225.075 65.6166 225.292 65.5922 225.49 65.5085C225.687 65.4249 225.856 65.2857 225.976 65.1079C226.096 64.9301 226.161 64.7214 226.164 64.5072C226.166 64.2931 226.107 64.0827 225.992 63.9019C225.877 63.721 225.712 63.5775 225.516 63.4888C225.321 63.4 225.104 63.37 224.892 63.4022C224.592 63.4618 224.329 63.6371 224.159 63.89C223.989 64.1429 223.926 64.4527 223.984 64.7517Z" fill="black"/>
<path d="M219.246 75.9022C218.825 75.9022 218.408 75.8288 218.012 75.6855C217.058 75.3041 216.225 74.6708 215.604 73.8533C215.568 73.8124 215.541 73.7647 215.523 73.7129C215.506 73.6612 215.5 73.6065 215.504 73.5522C215.509 73.4979 215.525 73.4451 215.55 73.397C215.576 73.3489 215.611 73.3064 215.653 73.2722C215.731 73.1987 215.833 73.1577 215.94 73.1577C216.046 73.1577 216.149 73.1987 216.226 73.2722C216.76 73.9678 217.473 74.5058 218.289 74.8285C218.665 74.9784 219.073 75.0334 219.476 74.9888C219.878 74.9441 220.264 74.8011 220.598 74.5724C220.685 74.5204 220.788 74.5021 220.888 74.5209C220.988 74.5397 221.077 74.5943 221.139 74.6744C221.201 74.7546 221.232 74.8546 221.225 74.9556C221.218 75.0566 221.174 75.1515 221.102 75.2225C220.574 75.6445 219.922 75.8831 219.246 75.9022Z" fill="black"/>
<path d="M214.834 64.003C214.783 64.0047 214.732 63.996 214.685 63.9773C214.637 63.9587 214.594 63.9306 214.558 63.8947C214.519 63.8579 214.488 63.8136 214.467 63.7645C214.446 63.7154 214.435 63.6625 214.435 63.609C214.435 63.5556 214.446 63.5027 214.467 63.4536C214.488 63.4045 214.519 63.3602 214.558 63.3234C215.037 62.8192 215.648 62.4595 216.321 62.2854C216.995 62.1112 217.704 62.1296 218.368 62.3384C218.471 62.3743 218.556 62.4487 218.606 62.546C218.656 62.6433 218.666 62.7559 218.634 62.8604C218.617 62.911 218.591 62.9577 218.556 62.9979C218.521 63.0382 218.479 63.0712 218.431 63.095C218.383 63.1188 218.331 63.1329 218.278 63.1366C218.225 63.1403 218.171 63.1335 218.121 63.1165C217.605 62.9566 217.054 62.9439 216.531 63.0796C216.008 63.2154 215.533 63.4942 215.16 63.8848C215.117 63.9263 215.066 63.9583 215.01 63.9786C214.954 63.999 214.894 64.0073 214.834 64.003Z" fill="black"/>
<path d="M222.276 63.0183C222.174 63.0166 222.076 62.9781 222 62.9099C221.961 62.8723 221.93 62.8271 221.908 62.7772C221.887 62.7273 221.876 62.6736 221.876 62.6194C221.876 62.5651 221.887 62.5114 221.908 62.4615C221.93 62.4116 221.961 62.3664 222 62.3288C222.48 61.8238 223.093 61.4636 223.768 61.2895C224.444 61.1153 225.154 61.1341 225.82 61.3438C225.87 61.3604 225.917 61.387 225.957 61.4218C225.998 61.4566 226.031 61.499 226.055 61.5466C226.078 61.5942 226.093 61.6461 226.096 61.6991C226.1 61.7522 226.093 61.8055 226.076 61.856C226.059 61.9065 226.033 61.9532 225.998 61.9935C225.963 62.0337 225.921 62.0667 225.873 62.0905C225.825 62.1143 225.773 62.1285 225.72 62.1322C225.667 62.1359 225.613 62.129 225.563 62.1121C225.046 61.959 224.497 61.9496 223.975 62.085C223.453 62.2204 222.979 62.4954 222.602 62.8804C222.56 62.9249 222.51 62.9602 222.454 62.9839C222.398 63.0077 222.337 63.0194 222.276 63.0183Z" fill="black"/>
<path d="M393.392 134.097H293.656C292.363 134.103 291.082 133.844 289.894 133.336C288.705 132.827 287.634 132.081 286.747 131.142C285.846 130.19 285.151 129.062 284.706 127.83C284.261 126.598 284.076 125.288 284.161 123.981L286.5 81.4871C286.674 78.7884 287.861 76.2543 289.824 74.3902C291.786 72.5261 294.381 71.4691 297.091 71.43H396.797C398.103 71.4187 399.397 71.6771 400.598 72.1889C401.798 72.7007 402.88 73.4549 403.775 74.4041C404.669 75.3533 405.357 76.4769 405.796 77.7044C406.234 78.9318 406.413 80.2365 406.322 81.5363L403.993 124.02C403.821 126.723 402.635 129.262 400.67 131.13C398.705 132.998 396.106 134.058 393.392 134.097ZM297.051 72.2575C294.549 72.2944 292.153 73.2709 290.34 74.9925C288.527 76.714 287.431 79.054 287.27 81.5462L284.941 124.03C284.861 125.227 285.03 126.427 285.436 127.555C285.841 128.684 286.476 129.717 287.3 130.59C288.117 131.451 289.103 132.133 290.197 132.596C291.291 133.059 292.468 133.291 293.656 133.279H393.392C395.895 133.245 398.293 132.269 400.106 130.547C401.919 128.825 403.015 126.484 403.173 123.991L405.513 81.4969C405.596 80.308 405.431 79.1147 405.03 77.9922C404.629 76.8697 403.999 75.8423 403.18 74.9745C402.362 74.1067 401.372 73.4173 400.274 72.9497C399.175 72.4821 397.992 72.2464 396.797 72.2575H297.051Z" fill="black"/>
<path d="M329.336 122.05H301.7C300.952 122.057 300.211 121.91 299.524 121.618C298.836 121.325 298.216 120.894 297.703 120.351C297.191 119.808 296.796 119.165 296.545 118.462C296.293 117.76 296.19 117.013 296.242 116.268L297.762 88.5498C297.849 86.9909 298.525 85.5227 299.653 84.4408C300.781 83.3589 302.277 82.7435 303.842 82.7185H331.478C332.226 82.7112 332.968 82.8587 333.657 83.1517C334.345 83.4448 334.965 83.877 335.478 84.4212C335.991 84.9654 336.385 85.6097 336.636 86.3135C336.887 87.0173 336.989 87.7653 336.936 88.5104L335.416 116.229C335.326 117.786 334.65 119.252 333.522 120.332C332.394 121.411 330.899 122.025 329.336 122.05Z" fill="#1B5A96"/>
<path d="M329.336 122.464H301.7C300.895 122.468 300.098 122.305 299.36 121.986C298.621 121.668 297.956 121.2 297.407 120.612C296.859 120.025 296.438 119.33 296.171 118.573C295.904 117.815 295.797 117.01 295.857 116.209L297.338 88.5303C297.442 86.8721 298.17 85.3145 299.376 84.1693C300.582 83.0241 302.177 82.3758 303.842 82.3542H331.478C332.282 82.347 333.078 82.5056 333.817 82.82C334.557 83.1345 335.223 83.5981 335.775 84.1817C336.326 84.7653 336.751 85.4563 337.022 86.2114C337.293 86.9665 337.405 87.7694 337.35 88.5697L335.821 116.288C335.714 117.942 334.988 119.496 333.787 120.64C332.585 121.784 330.997 122.435 329.336 122.464ZM303.842 83.1718C302.386 83.1911 300.991 83.7575 299.935 84.7581C298.88 85.7587 298.241 87.1198 298.147 88.5697L296.627 116.288C296.581 116.981 296.678 117.676 296.913 118.33C297.147 118.984 297.513 119.583 297.989 120.09C298.464 120.589 299.037 120.984 299.672 121.252C300.307 121.519 300.991 121.654 301.68 121.647H329.316C330.774 121.627 332.17 121.059 333.226 120.057C334.282 119.054 334.919 117.69 335.011 116.239L336.531 88.5303C336.582 87.8403 336.488 87.1473 336.256 86.4953C336.025 85.8433 335.66 85.2465 335.184 84.7427C334.709 84.2389 334.135 83.8391 333.496 83.5687C332.858 83.2983 332.171 83.1631 331.478 83.1718H303.842Z" fill="#010F2D"/>
<path d="M302.766 115.904C302.654 115.902 302.548 115.856 302.47 115.776C302.431 115.738 302.4 115.693 302.378 115.643C302.357 115.593 302.346 115.539 302.346 115.485C302.346 115.431 302.357 115.377 302.378 115.327C302.4 115.277 302.431 115.232 302.47 115.194L330.678 88.4118C330.716 88.3743 330.76 88.3445 330.81 88.3242C330.859 88.3039 330.911 88.2935 330.964 88.2935C331.018 88.2935 331.07 88.3039 331.119 88.3242C331.169 88.3445 331.213 88.3743 331.251 88.4118C331.327 88.4892 331.37 88.5936 331.37 88.7024C331.37 88.8112 331.327 88.9156 331.251 88.993L303.042 115.776C302.97 115.852 302.871 115.898 302.766 115.904Z" fill="#FFF6EB"/>
<path d="M329.543 115.904C329.431 115.902 329.325 115.856 329.247 115.776L303.98 88.9834C303.944 88.944 303.915 88.8978 303.897 88.8475C303.879 88.7972 303.87 88.7437 303.873 88.6902C303.875 88.6367 303.888 88.5842 303.91 88.5356C303.933 88.4871 303.965 88.4434 304.005 88.4072C304.044 88.371 304.09 88.3429 304.141 88.3245C304.191 88.3062 304.245 88.2979 304.298 88.3002C304.352 88.3025 304.405 88.3153 304.453 88.3379C304.502 88.3604 304.546 88.3924 304.582 88.4318L329.839 115.224C329.878 115.261 329.909 115.305 329.93 115.355C329.951 115.404 329.962 115.457 329.962 115.51C329.962 115.563 329.951 115.616 329.93 115.665C329.909 115.714 329.878 115.759 329.839 115.796C329.8 115.834 329.754 115.863 329.703 115.881C329.652 115.9 329.597 115.908 329.543 115.904Z" fill="#FFF6EB"/>
<path d="M394.557 103.729H346.066C346.012 103.729 345.958 103.718 345.909 103.697C345.859 103.676 345.814 103.645 345.776 103.607C345.738 103.568 345.709 103.523 345.689 103.473C345.669 103.422 345.66 103.369 345.661 103.315C345.661 103.208 345.704 103.105 345.78 103.029C345.855 102.954 345.958 102.911 346.066 102.911H394.557C394.664 102.911 394.767 102.954 394.843 103.029C394.919 103.105 394.962 103.208 394.962 103.315C394.963 103.369 394.953 103.422 394.934 103.473C394.914 103.523 394.884 103.568 394.847 103.607C394.809 103.645 394.764 103.676 394.714 103.697C394.664 103.718 394.611 103.729 394.557 103.729Z" fill="#010F2D"/>
<path d="M394.182 110.683H345.681C345.583 110.668 345.494 110.619 345.43 110.544C345.365 110.469 345.33 110.373 345.33 110.275C345.33 110.176 345.365 110.08 345.43 110.005C345.494 109.93 345.583 109.881 345.681 109.866H394.182C394.28 109.881 394.369 109.93 394.433 110.005C394.497 110.08 394.533 110.176 394.533 110.275C394.533 110.373 394.497 110.469 394.433 110.544C394.369 110.619 394.28 110.668 394.182 110.683Z" fill="#010F2D"/>
<path d="M372.744 117.637H345.306C345.252 117.639 345.198 117.629 345.148 117.61C345.098 117.59 345.052 117.56 345.013 117.523C344.974 117.485 344.944 117.44 344.923 117.39C344.902 117.341 344.891 117.287 344.891 117.234C344.891 117.179 344.902 117.125 344.923 117.075C344.944 117.025 344.974 116.979 345.013 116.941C345.051 116.903 345.097 116.872 345.147 116.851C345.197 116.831 345.251 116.82 345.306 116.82H372.744C372.854 116.82 372.96 116.863 373.037 116.941C373.115 117.019 373.159 117.124 373.159 117.234C373.159 117.287 373.148 117.341 373.127 117.39C373.106 117.44 373.075 117.485 373.037 117.523C372.998 117.56 372.952 117.59 372.902 117.61C372.852 117.629 372.798 117.639 372.744 117.637Z" fill="#010F2D"/>
<path d="M376.347 96.9126H350.557C349.907 96.9182 349.264 96.7898 348.667 96.5354C348.07 96.2811 347.532 95.9062 347.087 95.4344C346.642 94.9627 346.3 94.4042 346.082 93.794C345.863 93.1839 345.774 92.5353 345.819 91.889C345.906 90.541 346.498 89.2752 347.479 88.344C348.46 87.4129 349.756 86.8849 351.109 86.8654H376.899C377.549 86.8598 378.192 86.9882 378.789 87.2426C379.386 87.4969 379.924 87.8718 380.369 88.3436C380.814 88.8153 381.156 89.3738 381.374 89.984C381.593 90.5941 381.682 91.2427 381.637 91.889C381.55 93.237 380.958 94.5028 379.977 95.434C378.996 96.3651 377.7 96.8931 376.347 96.9126Z" fill="#FB9100"/>
<path d="M279.532 92.2143C279.532 92.2143 280.292 90.855 281.378 89.1607C283.352 86.0579 286.5 81.8223 288 82.9157C290.271 84.5705 288.336 88.5697 288.237 88.7667L286.707 91.7907C286.707 91.7907 288.543 93.9479 285.72 98.3411" fill="#FFCFC5"/>
<path d="M285.671 98.7546C285.595 98.7534 285.52 98.733 285.454 98.6955C285.363 98.6352 285.299 98.5412 285.277 98.4342C285.255 98.3271 285.276 98.2157 285.336 98.1242C287.961 94.0757 286.451 92.1451 286.382 92.0565C286.341 91.9898 286.319 91.9131 286.319 91.8348C286.319 91.7566 286.341 91.6799 286.382 91.6132L287.862 88.6286C288.05 88.2444 289.639 84.6885 287.744 83.3194C287.677 83.2725 287.602 83.2403 287.522 83.2251C287.442 83.2098 287.359 83.2117 287.28 83.2307C286.155 83.4474 284.122 85.7129 281.703 89.4462C280.638 91.1108 279.878 92.4702 279.868 92.4899C279.842 92.5368 279.807 92.578 279.765 92.611C279.723 92.6441 279.675 92.6682 279.623 92.6821C279.571 92.6959 279.517 92.6991 279.464 92.6914C279.411 92.6838 279.361 92.6655 279.315 92.6376C279.268 92.6119 279.227 92.5772 279.194 92.5355C279.16 92.4938 279.135 92.4459 279.121 92.3947C279.106 92.3434 279.102 92.2897 279.108 92.2367C279.114 92.1837 279.131 92.1325 279.157 92.086C279.157 92.086 279.937 90.6971 281.022 89.0128C283.668 84.9052 285.73 82.6889 287.132 82.4328C287.32 82.391 287.515 82.3896 287.704 82.4287C287.893 82.4677 288.071 82.5464 288.228 82.6594C290.695 84.462 288.81 88.5695 288.583 89.0128V89.062L287.171 91.8398C287.586 92.5391 288.504 94.7948 286.017 98.6364C285.973 98.6824 285.919 98.7171 285.858 98.7377C285.798 98.7583 285.734 98.7641 285.671 98.7546Z" fill="#010F2D"/>
<path d="M330.895 199.492H290.567C289.661 199.498 288.764 199.316 287.933 198.957C287.102 198.598 286.354 198.071 285.738 197.409C285.122 196.747 284.65 195.964 284.353 195.11C284.056 194.256 283.94 193.35 284.013 192.449L286.599 152.202C286.746 150.32 287.592 148.562 288.97 147.27C290.348 145.978 292.16 145.246 294.051 145.218H334.35C335.258 145.207 336.159 145.385 336.995 145.74C337.83 146.096 338.583 146.621 339.204 147.283C339.825 147.944 340.301 148.728 340.602 149.583C340.903 150.438 341.023 151.347 340.953 152.251L338.357 192.508C338.212 194.392 337.366 196.153 335.985 197.446C334.604 198.738 332.788 199.468 330.895 199.492ZM294.011 146.035C292.328 146.06 290.715 146.711 289.488 147.861C288.261 149.01 287.509 150.576 287.379 152.251L284.783 192.508C284.725 193.302 284.832 194.1 285.097 194.85C285.362 195.601 285.779 196.289 286.323 196.872C286.866 197.449 287.524 197.908 288.255 198.218C288.985 198.528 289.773 198.684 290.567 198.675H330.895C332.58 198.65 334.194 197.998 335.422 196.846C336.649 195.694 337.4 194.126 337.528 192.449L340.124 152.202C340.19 151.408 340.089 150.61 339.827 149.858C339.565 149.107 339.149 148.418 338.604 147.837C338.059 147.256 337.398 146.795 336.663 146.485C335.929 146.175 335.137 146.022 334.34 146.035H294.011Z" fill="#010F2D"/>
<path d="M338.298 187.219L337.962 192.479C337.825 194.258 337.025 195.922 335.721 197.143C334.417 198.364 332.703 199.054 330.915 199.078H310.099L320.532 186.549L326.049 179.89C326.467 179.339 327.007 178.893 327.627 178.585C328.247 178.277 328.93 178.117 329.622 178.117C330.315 178.117 330.997 178.277 331.617 178.585C332.237 178.893 332.777 179.339 333.195 179.89L338.298 187.219Z" fill="#1B5A96"/>
<path d="M330.895 199.492H310.099C310.023 199.491 309.948 199.468 309.883 199.426C309.819 199.384 309.767 199.325 309.734 199.256C309.7 199.187 309.686 199.109 309.695 199.032C309.704 198.955 309.735 198.883 309.784 198.823L325.684 179.625C326.19 179.004 326.833 178.509 327.562 178.178C328.292 177.846 329.088 177.687 329.889 177.714C330.6 177.739 331.296 177.93 331.92 178.272C332.544 178.614 333.079 179.098 333.481 179.684L338.614 187.012C338.665 187.087 338.689 187.178 338.683 187.268L338.347 192.538C338.195 194.415 337.347 196.168 335.969 197.454C334.591 198.74 332.782 199.467 330.895 199.492ZM310.968 198.675H330.895C332.58 198.65 334.194 197.998 335.422 196.846C336.649 195.694 337.4 194.126 337.528 192.45L337.864 187.328L332.82 180.117C332.484 179.641 332.042 179.25 331.528 178.975C331.014 178.699 330.442 178.548 329.859 178.531C329.184 178.51 328.512 178.644 327.898 178.924C327.283 179.205 326.742 179.623 326.316 180.147L310.968 198.675Z" fill="#010F2D"/>
<path d="M329.247 199.079H290.567C289.714 199.089 288.869 198.923 288.085 198.589C287.301 198.256 286.595 197.763 286.013 197.142C285.431 196.521 284.984 195.785 284.703 194.982C284.421 194.18 284.311 193.327 284.378 192.479L284.822 185.584L299.923 167.351C300.343 166.802 300.885 166.357 301.505 166.05C302.126 165.744 302.809 165.584 303.501 165.584C304.194 165.584 304.877 165.744 305.497 166.05C306.118 166.357 306.659 166.802 307.079 167.351L320.532 186.549L322.97 190.026L329.247 199.079Z" fill="#1B5A96"/>
<path d="M329.247 199.492H290.567C289.661 199.498 288.764 199.316 287.933 198.957C287.102 198.598 286.354 198.071 285.738 197.409C285.122 196.747 284.65 195.964 284.353 195.11C284.056 194.256 283.94 193.35 284.013 192.449L284.457 185.554C284.461 185.471 284.492 185.392 284.546 185.328L299.647 167.095C300.154 166.476 300.797 165.982 301.526 165.65C302.255 165.319 303.051 165.159 303.852 165.184C304.563 165.208 305.26 165.398 305.884 165.74C306.508 166.083 307.043 166.567 307.444 167.154L329.622 198.872C329.661 198.934 329.681 199.006 329.681 199.079C329.681 199.152 329.661 199.223 329.622 199.285C329.585 199.351 329.531 199.406 329.464 199.442C329.398 199.479 329.323 199.496 329.247 199.492ZM285.217 185.761L284.783 192.509C284.725 193.302 284.832 194.1 285.097 194.85C285.362 195.601 285.779 196.289 286.323 196.872C286.866 197.449 287.524 197.908 288.255 198.218C288.985 198.528 289.773 198.684 290.567 198.675H328.428L306.714 167.607C306.378 167.13 305.936 166.737 305.422 166.46C304.908 166.183 304.337 166.03 303.753 166.012C303.078 165.992 302.407 166.128 301.793 166.408C301.179 166.688 300.637 167.105 300.21 167.627L285.217 185.761Z" fill="#010F2D"/>
<path d="M324.088 170.009C326.41 167.765 326.583 164.184 324.475 162.011C322.367 159.838 318.775 159.896 316.453 162.14C314.131 164.384 313.957 167.965 316.066 170.138C318.174 172.311 321.766 172.253 324.088 170.009Z" fill="#FB9100"/>
<path d="M319.9 172.139C319.115 172.148 318.336 171.994 317.613 171.686C316.89 171.378 316.24 170.923 315.703 170.35C315.166 169.778 314.755 169.099 314.495 168.359C314.236 167.619 314.134 166.833 314.195 166.051C314.321 164.425 315.05 162.905 316.241 161.788C317.431 160.671 318.997 160.038 320.631 160.013C321.417 160.004 322.196 160.158 322.919 160.466C323.643 160.774 324.294 161.228 324.831 161.801C325.369 162.374 325.781 163.052 326.042 163.792C326.302 164.532 326.406 165.318 326.345 166.1C326.218 167.727 325.486 169.248 324.294 170.365C323.102 171.482 321.535 172.114 319.9 172.139ZM320.631 160.831C319.204 160.851 317.838 161.403 316.798 162.378C315.759 163.353 315.123 164.681 315.015 166.1C314.958 166.771 315.043 167.446 315.264 168.082C315.485 168.718 315.836 169.301 316.297 169.793C316.757 170.285 317.316 170.675 317.936 170.938C318.557 171.201 319.226 171.332 319.9 171.321C321.328 171.301 322.696 170.749 323.737 169.774C324.777 168.799 325.416 167.472 325.526 166.051C325.582 165.377 325.495 164.698 325.27 164.059C325.046 163.421 324.689 162.836 324.224 162.344C323.759 161.851 323.195 161.462 322.569 161.202C321.943 160.941 321.269 160.815 320.591 160.831H320.631Z" fill="#010F2D"/>
<path d="M421.976 196.311H350.813C350.038 196.311 349.272 196.152 348.562 195.844C347.851 195.536 347.212 195.085 346.684 194.519C346.156 193.954 345.751 193.286 345.493 192.557C345.236 191.827 345.132 191.053 345.187 190.282L347.576 156.989C347.676 155.569 348.312 154.24 349.357 153.271C350.401 152.302 351.775 151.765 353.202 151.768H424.364C425.138 151.769 425.904 151.929 426.614 152.237C427.323 152.546 427.962 152.997 428.49 153.562C429.017 154.128 429.423 154.795 429.681 155.524C429.939 156.252 430.044 157.026 429.99 157.796L427.602 191.07C427.506 192.494 426.872 193.827 425.827 194.801C424.782 195.774 423.405 196.314 421.976 196.311Z" fill="#C0EED5"/>
<path d="M329.326 249.088H294.988C293.939 249.114 292.894 248.926 291.92 248.535C290.946 248.144 290.062 247.557 289.323 246.813C288.797 246.269 288.39 245.623 288.128 244.914C287.867 244.205 287.756 243.449 287.803 242.695L289.688 214.13C289.925 210.633 293.498 207.786 297.663 207.786H332.001C333.051 207.76 334.095 207.948 335.069 208.339C336.044 208.731 336.927 209.317 337.666 210.062C338.192 210.607 338.599 211.255 338.86 211.966C339.122 212.676 339.233 213.433 339.186 214.189L337.301 242.754C337.064 246.231 333.491 249.088 329.326 249.088ZM297.663 208.623C293.922 208.623 290.754 211.125 290.507 214.208L288.612 242.774C288.588 243.409 288.693 244.043 288.92 244.637C289.147 245.232 289.492 245.774 289.935 246.231C290.603 246.885 291.397 247.397 292.269 247.736C293.141 248.075 294.073 248.233 295.008 248.201H329.346C333.087 248.201 336.255 245.699 336.502 242.626L338.397 214.061C338.432 213.418 338.334 212.776 338.11 212.172C337.886 211.569 337.54 211.018 337.094 210.554C336.43 209.891 335.638 209.37 334.766 209.023C333.893 208.676 332.959 208.51 332.021 208.535L297.663 208.623Z" fill="black"/>
<path d="M296.39 242.291C296.327 242.291 296.265 242.277 296.209 242.25C296.153 242.222 296.103 242.183 296.064 242.134C296.031 242.092 296.006 242.044 295.991 241.992C295.977 241.941 295.973 241.887 295.979 241.833C295.985 241.78 296.002 241.729 296.029 241.682C296.055 241.636 296.091 241.595 296.133 241.562L331.152 213.982C331.237 213.915 331.345 213.885 331.453 213.898C331.56 213.911 331.658 213.966 331.725 214.051C331.791 214.136 331.821 214.244 331.809 214.351C331.796 214.458 331.741 214.555 331.655 214.622L296.647 242.291C296.563 242.318 296.473 242.318 296.39 242.291Z" fill="black"/>
<path d="M329.573 242.291C329.475 242.292 329.38 242.257 329.306 242.193L297.949 214.612C297.868 214.542 297.819 214.442 297.811 214.335C297.804 214.228 297.839 214.122 297.91 214.041C297.981 213.96 298.081 213.91 298.188 213.903C298.295 213.895 298.401 213.931 298.482 214.001L329.849 241.582C329.888 241.619 329.919 241.663 329.94 241.712C329.961 241.761 329.972 241.814 329.972 241.868C329.972 241.921 329.961 241.974 329.94 242.023C329.919 242.072 329.888 242.116 329.849 242.153C329.779 242.234 329.68 242.283 329.573 242.291Z" fill="black"/>
<path d="M386.898 248.684H352.56C348.612 248.684 345.562 246.015 345.779 242.715L347.674 214.149C347.892 210.859 351.277 208.19 355.245 208.19H389.622C393.57 208.19 396.61 210.859 396.393 214.149L394.507 242.715C394.251 246.015 390.856 248.684 386.898 248.684Z" fill="#FB9100"/>
<path d="M386.898 249.088H352.56C351.51 249.113 350.466 248.925 349.492 248.533C348.518 248.142 347.634 247.557 346.895 246.813C346.371 246.268 345.965 245.621 345.703 244.913C345.442 244.204 345.33 243.449 345.375 242.695L347.27 214.13C347.497 210.633 351.08 207.786 355.245 207.786H389.622C390.672 207.762 391.715 207.951 392.689 208.342C393.663 208.733 394.547 209.318 395.287 210.062C395.812 210.608 396.217 211.257 396.479 211.967C396.74 212.677 396.852 213.434 396.807 214.189L394.912 242.754C394.636 246.232 391.063 249.088 386.898 249.088ZM355.245 208.624C351.494 208.624 348.286 211.126 348.079 214.209L346.194 242.774C346.154 243.418 346.249 244.064 346.474 244.67C346.698 245.275 347.046 245.827 347.497 246.291C348.163 246.944 348.956 247.455 349.826 247.793C350.696 248.132 351.626 248.291 352.56 248.261H386.898C390.638 248.261 393.856 245.759 394.053 242.685L395.949 214.12C395.988 213.477 395.893 212.833 395.669 212.229C395.444 211.625 395.096 211.075 394.646 210.613C393.983 209.952 393.193 209.431 392.322 209.084C391.452 208.737 390.519 208.57 389.582 208.594L355.245 208.624Z" fill="#000102"/>
<path d="M355.669 229.358L365.855 224.127V225.635L357.268 229.929V229.978L365.855 234.273V235.78L355.669 230.55V229.358Z" fill="#FFF6EB"/>
<path d="M367.286 236.657L373.406 220.769H374.896L368.757 236.657H367.286Z" fill="#FFF6EB"/>
<path d="M386.473 230.569L376.287 235.78V234.273L384.934 229.978V229.929L376.287 225.635V224.127L386.473 229.338V230.569Z" fill="#FFF6EB"/>
<path d="M370.375 260.908H301.779C299.353 260.908 297.387 262.871 297.387 265.292V265.626C297.387 268.047 299.353 270.01 301.779 270.01H370.375C372.801 270.01 374.768 268.047 374.768 265.626V265.292C374.768 262.871 372.801 260.908 370.375 260.908Z" fill="#1B5A96"/>
<path d="M294.386 52.449V57.6203C294.387 58.1053 294.219 58.5754 293.911 58.9507C293.603 59.326 293.175 59.5834 292.699 59.679L288.188 60.5655C287.941 61.3194 287.637 62.0536 287.28 62.7621L289.836 66.5643C290.104 66.9686 290.224 67.4522 290.177 67.9344C290.131 68.4166 289.92 68.8682 289.58 69.214L285.908 72.8684C285.565 73.2125 285.112 73.4271 284.628 73.4756C284.144 73.5241 283.658 73.4035 283.253 73.1343L279.433 70.5832C278.726 70.9406 277.994 71.2467 277.242 71.4992L276.354 75.9909C276.258 76.4663 276 76.8939 275.624 77.201C275.248 77.5081 274.777 77.6757 274.291 77.6753H269.109C268.623 77.6757 268.152 77.5081 267.776 77.201C267.4 76.8939 267.142 76.4663 267.047 75.9909L266.158 71.4894C265.403 71.2427 264.667 70.9398 263.957 70.5832L260.138 73.1343C259.734 73.4028 259.25 73.523 258.767 73.4745C258.285 73.426 257.834 73.2118 257.492 72.8684L253.821 69.214C253.481 68.8682 253.27 68.4166 253.223 67.9344C253.176 67.4522 253.297 66.9686 253.564 66.5643L256.12 62.7621C255.764 62.0519 255.457 61.318 255.203 60.5655L250.702 59.679C250.225 59.5834 249.797 59.326 249.489 58.9507C249.182 58.5754 249.014 58.1053 249.014 57.6203V52.449C249.014 51.9641 249.182 51.4939 249.489 51.1186C249.797 50.7433 250.225 50.4859 250.702 50.3903L255.203 49.5038C255.457 48.7513 255.764 48.0174 256.12 47.3072L253.564 43.505C253.297 43.1007 253.176 42.6171 253.223 42.1349C253.27 41.6527 253.481 41.2011 253.821 40.8553L257.492 37.2009C257.834 36.8576 258.285 36.6433 258.767 36.5948C259.25 36.5463 259.734 36.6665 260.138 36.935L263.957 39.4862C264.667 39.1296 265.403 38.8266 266.158 38.58L267.047 34.0784C267.142 33.603 267.4 33.1754 267.776 32.8683C268.152 32.5612 268.623 32.3936 269.109 32.394H274.291C274.777 32.3936 275.248 32.5612 275.624 32.8683C276 33.1754 276.258 33.603 276.354 34.0784L277.242 38.5701C277.994 38.8226 278.726 39.1288 279.433 39.4862L283.253 36.935C283.658 36.6658 284.144 36.5452 284.628 36.5937C285.112 36.6422 285.565 36.8568 285.908 37.2009L289.58 40.8553C289.92 41.2011 290.131 41.6527 290.177 42.1349C290.224 42.6171 290.104 43.1007 289.836 43.505L287.28 47.3072C287.636 48.0174 287.943 48.7513 288.198 49.5038L292.699 50.3903C293.175 50.4859 293.603 50.7433 293.911 51.1186C294.219 51.4939 294.387 51.9641 294.386 52.449Z" fill="#1B5A96"/>
<path d="M274.291 78.0695H269.109C268.539 78.0686 267.985 77.8726 267.542 77.5142C267.098 77.1557 266.791 76.6564 266.671 76.0995L265.813 71.8245C265.19 71.6098 264.581 71.3599 263.987 71.0759L260.325 73.4596C259.845 73.7755 259.271 73.9167 258.699 73.8592C258.128 73.8018 257.593 73.5493 257.186 73.1444L253.515 69.49C253.112 69.0817 252.862 68.5479 252.806 67.9778C252.751 67.4077 252.893 66.8358 253.209 66.3576L255.637 62.7328C255.353 62.1384 255.099 61.5302 254.877 60.9105L250.633 60.0634C250.074 59.9457 249.572 59.6397 249.213 59.1966C248.853 58.7535 248.658 58.2005 248.659 57.6304V52.4492C248.659 51.8784 248.855 51.3248 249.214 50.8805C249.573 50.4362 250.074 50.1277 250.633 50.0063L254.906 49.1592C255.133 48.5288 255.39 47.9181 255.666 47.337L253.238 43.7219C252.922 43.2422 252.779 42.6687 252.835 42.0969C252.891 41.5251 253.141 40.9896 253.544 40.5797L257.216 36.9253C257.623 36.5204 258.157 36.2679 258.729 36.2105C259.301 36.1531 259.875 36.2942 260.355 36.6101L263.987 39.0431C264.58 38.7559 265.19 38.5026 265.813 38.2846L266.671 33.9998C266.791 33.4428 267.098 32.9435 267.542 32.5851C267.985 32.2266 268.539 32.0307 269.109 32.0298H274.291C274.862 32.0307 275.415 32.2266 275.859 32.5851C276.302 32.9435 276.609 33.4428 276.729 33.9998L277.578 38.2748C278.202 38.4932 278.811 38.7498 279.404 39.0431L283.026 36.6101C283.507 36.2916 284.083 36.149 284.657 36.2065C285.231 36.2639 285.767 36.5179 286.175 36.9253L289.846 40.5797C290.25 40.9896 290.5 41.5251 290.556 42.0969C290.611 42.6687 290.469 43.2422 290.152 43.7219L287.724 47.337C288.008 47.9313 288.261 48.5395 288.484 49.1592L292.758 50.0063C293.317 50.1277 293.817 50.4362 294.176 50.8805C294.535 51.3248 294.731 51.8784 294.732 52.4492V57.6205C294.733 58.1906 294.537 58.7437 294.178 59.1868C293.818 59.6298 293.317 59.9359 292.758 60.0535L288.474 60.9105C288.256 61.5306 288.006 62.1389 287.724 62.7328L290.152 66.3576C290.468 66.8358 290.61 67.4077 290.554 67.9778C290.499 68.5479 290.249 69.0817 289.846 69.49L286.175 73.1444C285.766 73.5501 285.23 73.803 284.656 73.8604C284.083 73.9178 283.507 73.7763 283.026 73.4596L279.394 71.0365C278.812 71.3123 278.2 71.5684 277.568 71.7949L276.719 76.0601C276.608 76.6227 276.306 77.1297 275.863 77.4958C275.421 77.8619 274.866 78.0645 274.291 78.0695ZM263.957 70.1894C264.015 70.1734 264.077 70.1734 264.135 70.1894C264.828 70.5335 265.543 70.8297 266.277 71.0759C266.341 71.0986 266.399 71.1378 266.444 71.1896C266.489 71.2414 266.52 71.3041 266.533 71.3714L267.431 75.863C267.509 76.2508 267.718 76.5999 268.024 76.8512C268.33 77.1025 268.713 77.2406 269.109 77.2421H274.291C274.687 77.2406 275.071 77.1025 275.376 76.8512C275.682 76.5999 275.892 76.2508 275.969 75.863L276.857 71.3714C276.872 71.3048 276.904 71.243 276.948 71.1914C276.993 71.1399 277.05 71.1002 277.114 71.0759C277.851 70.8308 278.57 70.5345 279.266 70.1894C279.323 70.1536 279.39 70.1346 279.458 70.1346C279.526 70.1346 279.593 70.1536 279.65 70.1894L283.47 72.7405C283.799 72.9598 284.194 73.059 284.588 73.0213C284.982 72.9836 285.35 72.8114 285.632 72.5337L289.303 68.9285C289.582 68.6478 289.754 68.2798 289.792 67.8868C289.83 67.4937 289.73 67.0997 289.511 66.7713L286.974 63.0184C286.942 62.9577 286.925 62.8901 286.925 62.8214C286.925 62.7528 286.942 62.6852 286.974 62.6244C287.32 61.9337 287.617 61.2195 287.862 60.4869C287.882 60.4206 287.921 60.3612 287.973 60.3159C288.025 60.2705 288.09 60.241 288.158 60.2308L292.659 59.3345C293.047 59.2569 293.395 59.0476 293.645 58.7423C293.896 58.4369 294.032 58.0544 294.031 57.6599V52.4492C294.032 52.0547 293.896 51.6722 293.645 51.3668C293.395 51.0615 293.047 50.8522 292.659 50.7747L288.158 49.8783C288.09 49.867 288.026 49.8371 287.974 49.7919C287.922 49.7467 287.883 49.688 287.862 49.6222C287.619 48.8889 287.322 48.1745 286.974 47.4847C286.94 47.4245 286.923 47.3567 286.923 47.2877C286.923 47.2187 286.94 47.1509 286.974 47.0907L289.511 43.3181C289.73 42.9897 289.83 42.5957 289.792 42.2026C289.754 41.8096 289.582 41.4416 289.303 41.1609L285.632 37.4966C285.35 37.2189 284.982 37.0467 284.588 37.009C284.194 36.9713 283.799 37.0705 283.47 37.2898L279.65 39.841C279.593 39.8767 279.526 39.8957 279.458 39.8957C279.39 39.8957 279.323 39.8767 279.266 39.841C278.571 39.4941 277.852 39.1978 277.114 38.9545C277.05 38.9301 276.993 38.8904 276.948 38.8389C276.904 38.7873 276.872 38.7255 276.857 38.659L275.969 34.1673C275.892 33.7795 275.682 33.4305 275.376 33.1791C275.071 32.9278 274.687 32.7897 274.291 32.7882H269.109C268.713 32.7897 268.33 32.9278 268.024 33.1791C267.718 33.4305 267.509 33.7795 267.431 34.1673L266.533 38.659C266.52 38.7262 266.489 38.7889 266.444 38.8407C266.399 38.8925 266.341 38.9317 266.277 38.9545C265.543 39.2006 264.828 39.4968 264.135 39.841C264.077 39.8767 264.01 39.8957 263.942 39.8957C263.874 39.8957 263.808 39.8767 263.75 39.841L259.92 37.2898C259.593 37.0712 259.2 36.9724 258.808 37.0101C258.415 37.0478 258.048 37.2197 257.769 37.4966L254.097 41.1609C253.819 41.4416 253.646 41.8096 253.608 42.2026C253.571 42.5957 253.67 42.9897 253.89 43.3181L256.446 47.1202C256.478 47.181 256.495 47.2486 256.495 47.3173C256.495 47.3859 256.478 47.4535 256.446 47.5143C256.101 48.2068 255.801 48.9208 255.548 49.6517C255.531 49.7179 255.495 49.7776 255.444 49.8232C255.393 49.8688 255.329 49.8983 255.262 49.9078L250.761 50.8042C250.373 50.8817 250.025 51.091 249.775 51.3964C249.525 51.7018 249.388 52.0843 249.389 52.4787V57.6501C249.388 58.0445 249.525 58.4271 249.775 58.7324C250.025 59.0378 250.373 59.2471 250.761 59.3246L255.262 60.221C255.33 60.2323 255.394 60.2622 255.446 60.3074C255.498 60.3526 255.537 60.4113 255.558 60.4771C255.804 61.2091 256.101 61.9232 256.446 62.6146C256.478 62.6753 256.495 62.7429 256.495 62.8116C256.495 62.8802 256.478 62.9478 256.446 63.0086L253.89 66.8107C253.67 67.1391 253.571 67.5331 253.608 67.9262C253.646 68.3192 253.819 68.6872 254.097 68.9679L257.769 72.6322C258.048 72.9091 258.415 73.081 258.808 73.1187C259.2 73.1564 259.593 73.0576 259.92 72.839L263.75 70.2878C263.809 70.2383 263.881 70.2074 263.957 70.1992V70.1894Z" fill="#010F2D"/>
<path d="M278.377 61.6905C282.066 58.0092 282.066 52.0406 278.377 48.3593C274.688 44.678 268.707 44.678 265.019 48.3593C261.33 52.0406 261.33 58.0092 265.019 61.6905C268.707 65.3718 274.688 65.3719 278.377 61.6905Z" fill="#FFF6EB"/>
<path d="M271.695 64.8503C269.743 64.8503 267.835 64.2726 266.212 63.1902C264.589 62.1078 263.324 60.5695 262.577 58.7696C261.83 56.9697 261.634 54.9892 262.015 53.0784C262.396 51.1677 263.336 49.4125 264.716 48.035C266.097 46.6574 267.855 45.7192 269.77 45.3392C271.684 44.9591 273.669 45.1542 275.472 45.8997C277.276 46.6452 278.817 47.9078 279.902 49.5276C280.986 51.1475 281.565 53.0519 281.565 55.0001C281.565 57.6125 280.525 60.1179 278.674 61.9652C276.823 63.8125 274.313 64.8503 271.695 64.8503ZM271.695 45.997C269.903 45.997 268.151 46.5276 266.66 47.5216C265.17 48.5157 264.009 49.9285 263.323 51.5814C262.638 53.2342 262.459 55.0529 262.809 56.8072C263.16 58.5615 264.024 60.1727 265.292 61.4369C266.56 62.7012 268.175 63.5616 269.934 63.9094C271.692 64.2572 273.514 64.0767 275.17 63.3908C276.825 62.7049 278.239 61.5443 279.234 60.056C280.228 58.5677 280.758 56.8185 280.756 55.0296C280.751 52.6339 279.794 50.338 278.096 48.6449C276.397 46.9518 274.096 45.9996 271.695 45.997Z" fill="#010F2D"/>
<path d="M421.374 179.033C421.374 182.215 418.807 184.205 414.751 184.205C410.882 184.205 408.345 182.304 408.217 179.221H411.178C411.365 180.757 412.915 181.772 414.958 181.772C417.001 181.772 418.393 180.787 418.393 179.378C418.393 178.176 417.534 177.477 415.432 176.975L413.251 176.463C410.151 175.753 408.691 174.266 408.691 171.872C408.691 168.917 411.286 166.947 414.938 166.947C418.59 166.947 421.078 168.917 421.147 171.872H418.245C418.107 170.306 416.794 169.361 414.869 169.361C412.945 169.361 411.691 170.296 411.691 171.685C411.691 172.798 412.54 173.458 414.603 173.941L416.527 174.384C419.923 175.133 421.374 176.531 421.374 179.033Z" fill="black"/>
<path d="M399.038 166.898C394.103 166.898 391.063 170.227 391.063 175.556C391.063 180.885 394.132 184.205 399.038 184.205C403.943 184.205 406.993 180.885 406.993 175.556C406.993 170.227 403.923 166.898 399.038 166.898ZM399.038 181.673C396.077 181.427 394.103 179.309 394.103 175.576C394.103 171.843 395.998 169.469 399.038 169.469C402.078 169.469 403.608 171.853 403.973 175.576C404.368 180.55 402.117 181.91 399.038 181.654V181.673Z" fill="black"/>
<path d="M389.385 171.616H386.493V183.919H389.385V171.616Z" fill="black"/>
<path d="M386.325 168.415C386.316 168.093 386.402 167.776 386.574 167.504C386.747 167.231 386.997 167.017 387.292 166.887C387.587 166.757 387.915 166.719 388.232 166.776C388.55 166.834 388.843 166.985 389.074 167.21C389.304 167.434 389.463 167.723 389.528 168.038C389.594 168.354 389.563 168.681 389.441 168.979C389.318 169.277 389.109 169.532 388.841 169.71C388.573 169.889 388.257 169.983 387.934 169.981C387.725 169.984 387.518 169.945 387.325 169.868C387.131 169.791 386.954 169.676 386.805 169.531C386.655 169.385 386.536 169.212 386.454 169.021C386.372 168.829 386.328 168.623 386.325 168.415Z" fill="black"/>
<path d="M381.114 180.718C380.926 181.23 380.739 181.703 380.541 182.185C380.079 183.262 379.507 184.289 378.834 185.249C378.204 186.213 377.465 187.102 376.633 187.898C375.881 188.633 374.881 189.061 373.83 189.1C372.93 189.059 372.046 188.849 371.224 188.48C370.336 188.093 369.38 187.883 368.411 187.859C367.42 187.884 366.442 188.094 365.529 188.48C364.739 188.833 363.895 189.052 363.032 189.13C362.488 189.123 361.951 189.007 361.454 188.786C360.957 188.566 360.51 188.247 360.14 187.849C359.277 187.025 358.509 186.106 357.85 185.111C356.811 183.63 355.99 182.008 355.412 180.294C354.766 178.448 354.433 176.507 354.425 174.551C354.373 172.631 354.851 170.733 355.807 169.065C356.496 167.845 357.493 166.826 358.699 166.11C359.88 165.41 361.224 165.03 362.598 165.007C363.641 165.067 364.666 165.307 365.628 165.716C366.394 166.051 367.2 166.286 368.026 166.415C368.94 166.223 369.832 165.943 370.691 165.578C371.838 165.116 373.068 164.898 374.304 164.938C375.481 164.969 376.636 165.271 377.679 165.819C378.721 166.367 379.623 167.148 380.314 168.1C379.344 168.621 378.512 169.366 377.889 170.273C377.266 171.18 376.869 172.223 376.732 173.314C376.594 174.405 376.721 175.514 377.1 176.546C377.48 177.579 378.101 178.506 378.913 179.25C379.549 179.871 380.296 180.368 381.114 180.718Z" fill="black"/>
<path d="M367.77 164.997C367.755 164.797 367.755 164.596 367.77 164.396C367.821 162.729 368.477 161.136 369.615 159.914C370.245 159.212 371.006 158.64 371.856 158.23C372.655 157.821 373.527 157.573 374.422 157.501C374.422 157.708 374.422 157.925 374.422 158.131C374.401 159.773 373.783 161.351 372.685 162.574C372.122 163.343 371.381 163.965 370.525 164.387C369.669 164.809 368.724 165.018 367.77 164.997Z" fill="black"/>
</g>
<defs>
<clipPath id="clip0_134_629">
<rect width="290" height="261" fill="white" transform="translate(140 32)"/>
</clipPath>
</defs>
</svg>
