<svg width="570" height="324" viewBox="0 0 570 324" fill="none" xmlns="http://www.w3.org/2000/svg">
<g clip-path="url(#clip0_137_308)">
<rect width="570" height="324" fill="#FFF6EB"/>
<path d="M471.134 292.996H98.6618C98.4786 292.979 98.3105 292.92 98.1888 292.829C98.0671 292.738 98 292.621 98 292.5C98 292.379 98.0671 292.262 98.1888 292.171C98.3105 292.08 98.4786 292.021 98.6618 292.004H471.134C471.242 291.995 471.352 292.001 471.457 292.021C471.561 292.042 471.657 292.077 471.739 292.124C471.821 292.171 471.887 292.228 471.932 292.293C471.977 292.358 472 292.429 472 292.5C472 292.571 471.977 292.642 471.932 292.707C471.887 292.772 471.821 292.829 471.739 292.876C471.657 292.923 471.561 292.958 471.457 292.979C471.352 292.999 471.242 293.005 471.134 292.996Z" fill="#030047"/>
<g clip-path="url(#clip1_137_308)">
<path d="M450.45 210.8H444.45C443.411 206.19 441.653 201.773 439.24 197.71L443.67 193.31C444.042 192.938 444.337 192.497 444.538 192.012C444.739 191.526 444.843 191.006 444.843 190.48C444.843 189.954 444.739 189.434 444.538 188.948C444.337 188.463 444.042 188.021 443.67 187.65L434.01 177.95C433.638 177.578 433.197 177.283 432.712 177.082C432.226 176.88 431.706 176.777 431.18 176.777C430.654 176.777 430.134 176.88 429.648 177.082C429.163 177.283 428.721 177.578 428.35 177.95L424.09 182.18C420.072 179.655 415.687 177.769 411.09 176.59V170.36C411.09 169.299 410.668 168.282 409.918 167.531C409.168 166.781 408.151 166.36 407.09 166.36H393.38C392.319 166.36 391.302 166.781 390.551 167.531C389.801 168.282 389.38 169.299 389.38 170.36V176.36C384.762 177.394 380.335 179.145 376.26 181.55L371.9 177C371.528 176.628 371.087 176.333 370.602 176.132C370.116 175.93 369.596 175.827 369.07 175.827C368.544 175.827 368.024 175.93 367.538 176.132C367.053 176.333 366.611 176.628 366.24 177L356.52 186.64C355.772 187.39 355.352 188.406 355.352 189.465C355.352 190.524 355.772 191.54 356.52 192.29L360.77 196.56C358.236 200.545 356.346 204.906 355.17 209.48H348.92C347.859 209.48 346.842 209.901 346.091 210.651C345.341 211.402 344.92 212.419 344.92 213.48V227.16C344.92 228.221 345.341 229.238 346.091 229.988C346.842 230.738 347.859 231.16 348.92 231.16H354.92C355.943 235.768 357.695 240.184 360.11 244.24L355.67 248.65C354.922 249.4 354.502 250.416 354.502 251.475C354.502 252.534 354.922 253.55 355.67 254.3L365.33 264C365.702 264.373 366.143 264.67 366.63 264.872C367.116 265.074 367.638 265.178 368.165 265.178C368.692 265.178 369.213 265.074 369.7 264.872C370.186 264.67 370.628 264.373 371 264L375.26 259.77C379.26 262.295 383.629 264.181 388.21 265.36V271.6C388.21 272.661 388.631 273.678 389.381 274.428C390.132 275.178 391.149 275.6 392.21 275.6H405.91C406.971 275.6 407.988 275.178 408.738 274.428C409.489 273.678 409.91 272.661 409.91 271.6V265.6C414.513 264.594 418.93 262.873 423 260.5L427.41 264.93C427.782 265.303 428.223 265.6 428.71 265.802C429.196 266.004 429.718 266.108 430.245 266.108C430.772 266.108 431.293 266.004 431.78 265.802C432.266 265.6 432.708 265.303 433.08 264.93L442.79 255.29C443.538 254.54 443.958 253.524 443.958 252.465C443.958 251.406 443.538 250.39 442.79 249.64L438.55 245.37C441.091 241.383 442.985 237.019 444.16 232.44H450.4C451.461 232.44 452.478 232.018 453.228 231.268C453.978 230.518 454.4 229.501 454.4 228.44V214.76C454.39 213.715 453.97 212.715 453.232 211.975C452.494 211.235 451.495 210.813 450.45 210.8ZM399.55 246.42C394.519 246.392 389.609 244.874 385.441 242.057C381.272 239.24 378.032 235.251 376.13 230.594C374.227 225.937 373.748 220.82 374.752 215.89C375.756 210.96 378.199 206.439 381.772 202.897C385.345 199.355 389.887 196.951 394.825 195.99C399.764 195.028 404.876 195.551 409.517 197.494C414.158 199.436 418.119 202.711 420.899 206.904C423.68 211.096 425.156 216.019 425.14 221.05C425.127 224.396 424.454 227.707 423.161 230.794C421.868 233.88 419.979 236.682 417.602 239.038C415.226 241.394 412.408 243.258 409.311 244.525C406.213 245.792 402.896 246.436 399.55 246.42Z" fill="#1B5A96"/>
<path d="M411.72 76.8498V205.64C411.72 206.736 411.504 207.821 411.084 208.834C410.664 209.846 410.049 210.766 409.274 211.541C408.498 212.315 407.578 212.929 406.565 213.348C405.552 213.766 404.466 213.981 403.37 213.98H215.64C214.545 213.98 213.46 213.764 212.448 213.345C211.437 212.926 210.517 212.311 209.743 211.537C208.968 210.763 208.354 209.843 207.935 208.831C207.516 207.819 207.3 206.735 207.3 205.64V76.8498C207.303 74.6387 208.182 72.5189 209.746 70.9554C211.309 69.3919 213.429 68.5124 215.64 68.5098H403.37C405.583 68.5098 407.705 69.3881 409.271 70.9519C410.837 72.5157 411.717 74.6369 411.72 76.8498Z" fill="#FB9100"/>
<path d="M405.77 99.2802V202.52C405.77 206.28 402.26 209.33 397.93 209.33H221.08C216.76 209.33 213.24 206.28 213.24 202.52V99.2802C213.24 95.5202 216.76 92.4702 221.08 92.4702H397.93C402.26 92.4702 405.77 95.5202 405.77 99.2802Z" fill="#FFF6EB"/>
<path d="M222.48 84.1298C223.734 84.1298 224.75 83.1135 224.75 81.8598C224.75 80.6062 223.734 79.5898 222.48 79.5898C221.226 79.5898 220.21 80.6062 220.21 81.8598C220.21 83.1135 221.226 84.1298 222.48 84.1298Z" fill="#FFF6EB"/>
<path d="M238.22 84.1298C239.474 84.1298 240.49 83.1135 240.49 81.8598C240.49 80.6062 239.474 79.5898 238.22 79.5898C236.966 79.5898 235.95 80.6062 235.95 81.8598C235.95 83.1135 236.966 84.1298 238.22 84.1298Z" fill="#FFF6EB"/>
<path d="M230.35 84.1298C231.604 84.1298 232.62 83.1135 232.62 81.8598C232.62 80.6062 231.604 79.5898 230.35 79.5898C229.096 79.5898 228.08 80.6062 228.08 81.8598C228.08 83.1135 229.096 84.1298 230.35 84.1298Z" fill="#FFF6EB"/>
<path d="M372.32 107.99H246.71C241.784 107.99 237.79 111.984 237.79 116.91V182.5C237.79 187.427 241.784 191.42 246.71 191.42H372.32C377.246 191.42 381.24 187.427 381.24 182.5V116.91C381.24 111.984 377.246 107.99 372.32 107.99Z" fill="#1B5A96"/>
<mask id="mask0_137_308" style="mask-type:luminance" maskUnits="userSpaceOnUse" x="240" y="110" width="139" height="79">
<path d="M371.62 110.74H247.4C243.633 110.74 240.58 113.794 240.58 117.56V181.84C240.58 185.607 243.633 188.66 247.4 188.66H371.62C375.386 188.66 378.44 185.607 378.44 181.84V117.56C378.44 113.794 375.386 110.74 371.62 110.74Z" fill="white"/>
</mask>
<g mask="url(#mask0_137_308)">
<path d="M310.49 247.27C364.111 247.27 407.58 203.878 407.58 150.35C407.58 96.8227 364.111 53.4302 310.49 53.4302C256.869 53.4302 213.4 96.8227 213.4 150.35C213.4 203.878 256.869 247.27 310.49 247.27Z" fill="white"/>
<path d="M330.73 149.69C330.32 150.11 329.93 150.53 329.54 150.95C330.482 153.163 331.63 155.282 332.97 157.28C348.19 179.77 355.21 192.91 373.35 199.33C376.15 200.33 378.68 201.33 381.06 202.33C384.394 197.84 387.29 193.042 389.71 188L380.52 177.34L330.73 149.69Z" fill="#D0EEFF"/>
<path d="M373.82 210.92C351.44 199.65 334.28 180.09 321.69 159.77C320.583 160.998 319.607 162.339 318.78 163.77C318.29 165 312.92 178.93 305.86 197.27C329.86 200.54 348.46 203.71 353.15 206.21C355.71 207.56 361.93 210.59 370.15 214.52C371.42 213.36 372.63 212.16 373.82 210.92Z" fill="#D0EEFF"/>
<path d="M308.1 72.3C320.46 86.22 322.17 103.67 323.71 120.3L345.22 127.87L313.92 62.87C312.78 62.87 311.64 62.79 310.49 62.79C306.196 62.7935 301.908 63.1076 297.66 63.73C301.544 66.0555 305.062 68.9435 308.1 72.3Z" fill="#D0EEFF"/>
<path d="M348.27 133.72C344.48 136 337.84 142.29 331.8 148.56L381.5 176.16L390.4 186.5C395.42 175.437 398.077 163.448 398.2 151.3L348.28 133.72H348.27Z" fill="#D0EEFF"/>
<path d="M231.76 188.36C232.28 188.36 232.76 188.46 233.29 188.52L261.1 134.36L226.69 124.36C221.868 139.947 221.484 156.568 225.58 172.36L233.08 187.66L231.76 188.36Z" fill="#D0EEFF"/>
<path d="M298.7 116.27L279 109.35L253.75 158.49L312 168.71L314.57 162.08C315.857 159.766 317.411 157.611 319.2 155.66C314.181 147.087 309.722 138.199 305.85 129.05C303.937 124.543 301.54 120.258 298.7 116.27ZM276.87 156.7L260.87 153.39L280.58 113.47L296.17 118.93L276.87 156.7Z" fill="#D0EEFF"/>
<path d="M365.67 82.7002C359.08 107.59 354.38 123.1 351 129.9L398.14 146.49C397.953 142.219 397.451 137.968 396.64 133.77L369.77 86.5702L365.67 82.7002Z" fill="#D0EEFF"/>
<path d="M327.79 146.2C332.565 141.105 337.662 136.322 343.05 131.88L324.16 125.23C324.88 132.6 325.77 139.73 327.79 146.2Z" fill="#D0EEFF"/>
<path d="M347.05 128.2C350.13 122.2 355.77 102.5 361.67 80.1001L328.61 89.9101L347.05 128.2Z" fill="#FB9100"/>
<path d="M260.87 153.39L276.87 156.7L296.17 118.93L280.58 113.47L260.87 153.39Z" fill="#92D3EA"/>
<path d="M238.09 189.05C259.36 191.44 281.81 194.05 301.25 196.66C305.77 184.94 309.62 174.93 312.02 168.71L253.79 158.49L238.09 189.05Z" fill="#92D3EA"/>
<path d="M274.63 108C263.82 105.16 251.26 101.9 239.5 98.8804C234.167 106.19 230.007 114.288 227.17 122.88L261.81 132.88L274.63 108Z" fill="#FB9100"/>
<path d="M345.83 128.09L346.89 128.47C346.94 128.38 346.99 128.29 347.05 128.2L328.61 89.9101L361.67 80.1001C361.74 79.8601 361.8 79.6101 361.87 79.3801L360.98 78.7401L327.98 88.5201L315.62 62.9301L313.92 62.8501L345.22 127.85L345.83 128.09Z" fill="white"/>
<path d="M331.8 148.56C331.44 148.94 331.08 149.31 330.73 149.69L380.52 177.35L389.71 188C389.95 187.5 390.17 187 390.4 186.49L381.5 176.15L331.8 148.56Z" fill="white"/>
<path d="M261.38 133.79L261.81 133L227.17 123C227.01 123.47 226.83 123.94 226.69 124.42L261.1 134.42L261.38 133.79Z" fill="white"/>
<path d="M396.63 133.77C395.095 125.772 392.442 118.029 388.75 110.77L384.67 103.59C382.557 100.238 380.218 97.0344 377.67 94.0001C375 91.4701 372.36 89.0001 369.79 86.5601L396.63 133.77Z" fill="white"/>
<path d="M348.28 133.72L398.2 151.3C398.2 150.98 398.2 150.66 398.2 150.3C398.2 149 398.2 147.72 398.11 146.44L351 129.9C349.98 131.967 349.073 133.24 348.28 133.72Z" fill="white"/>
<path d="M261.81 133L261.38 133.79L261.1 134.36L233.29 188.52L234.84 188.69L238.09 189.05L253.79 158.49L279 109.35L298.66 116.27C297.009 113.946 295.223 111.722 293.31 109.61L276.78 103.79L276.72 103.92C270.8 102.36 258.9 99.25 246.16 95.92L245.7 97.74L244.24 97.37L244.71 95.56L242.5 95C241.5 96.26 240.5 97.57 239.5 98.89C251.26 101.89 263.82 105.17 274.63 108.01L261.81 133Z" fill="white"/>
<path d="M345.22 127.87L323.71 120.3C323.86 121.96 324.01 123.6 324.16 125.23L343.05 131.88C343.972 131.152 344.941 130.484 345.95 129.88C345.95 129.88 346.05 129.79 346.1 129.73L346.4 129.34C346.585 129.077 346.749 128.8 346.89 128.51L345.83 128.13L345.22 127.87Z" fill="white"/>
<path d="M333 157.28C331.661 155.282 330.512 153.163 329.57 150.95C326.48 154.23 323.69 157.37 321.72 159.77C334.31 180.09 351.47 199.65 373.85 210.92C376.439 208.227 378.857 205.375 381.09 202.38C378.71 201.38 376.18 200.38 373.38 199.38C355.21 192.91 348.19 179.77 333 157.28Z" fill="#FB9100"/>
<path d="M293.34 109.61C295.253 111.723 297.04 113.947 298.69 116.27C301.537 120.257 303.941 124.543 305.86 129.05C309.732 138.199 314.191 147.087 319.21 155.66C321.56 152.86 324.57 149.54 327.78 146.2C325.78 139.73 324.87 132.6 324.15 125.2C324 123.57 323.85 121.93 323.7 120.27C322.16 103.64 320.45 86.1902 308.09 72.2702C305.054 68.9066 301.535 66.0118 297.65 63.6802C281.3 66.0796 265.964 73.0627 253.42 83.8202C269.3 89.8102 283.17 98.3502 293.34 109.61Z" fill="#FB9100"/>
<path d="M305.86 197.27C312.92 178.93 318.29 165 318.78 163.77C319.607 162.339 320.583 160.998 321.69 159.77C323.69 157.37 326.45 154.23 329.54 150.95C329.93 150.53 330.32 150.11 330.73 149.69C331.14 149.27 331.44 148.94 331.8 148.56C337.8 142.29 344.48 136 348.27 133.72C349.07 133.24 349.973 131.967 350.98 129.9C354.37 123.1 359.07 107.59 365.66 82.7001L369.75 86.5701C372.33 89.0001 375 91.4801 377.64 94.0001C373.002 88.4962 367.706 83.5828 361.87 79.3701C361.8 79.6001 361.74 79.8501 361.67 80.0901C355.77 102.49 350.13 122.19 347.05 128.19C346.99 128.28 346.94 128.37 346.89 128.46C346.749 128.749 346.585 129.027 346.4 129.29L346.1 129.68C346.1 129.74 345.99 129.78 345.95 129.83C344.941 130.433 343.972 131.101 343.05 131.83C337.662 136.272 332.565 141.055 327.79 146.15C324.58 149.49 321.57 152.81 319.22 155.61C317.431 157.561 315.877 159.716 314.59 162.03L312 168.71C309.6 174.93 305.75 184.94 301.23 196.66C281.79 194.06 259.34 191.44 238.07 189.05L234.82 188.69L233.27 188.52C232.75 188.46 232.27 188.4 231.74 188.36H231.68H231.39C232.18 190 233.04 191.6 233.93 193.19L235.86 193.4C260.34 196.153 280.973 198.62 297.76 200.8L299.55 201.04C299.55 201.16 299.46 201.26 299.42 201.38C299.372 201.491 299.332 201.604 299.3 201.72C295.3 212.09 290.9 223.5 286.6 234.72C288.06 235.13 289.53 235.5 291.02 235.84C295.43 224.39 299.93 212.69 304.02 202.14C304.08 201.99 304.12 201.86 304.18 201.7L307.03 202.1C332.61 205.6 347.36 208.34 351.03 210.29C353.47 211.59 359.03 214.29 366.49 217.87C367.75 216.82 368.97 215.74 370.17 214.62C361.94 210.69 355.72 207.62 353.17 206.31C348.46 203.71 329.86 200.54 305.86 197.27Z" fill="white"/>
</g>
<path d="M358.57 77.31C358.17 102.48 311.57 158.85 311.57 158.85C311.57 158.85 266.81 101.04 267.21 75.85C267.564 63.8516 272.628 52.4752 281.306 44.1817C289.984 35.8883 301.578 31.3447 313.58 31.534C325.582 31.7233 337.027 36.6301 345.439 45.193C353.851 53.756 358.554 65.2864 358.53 77.29L358.57 77.31Z" fill="#1B5A96"/>
<path d="M312.97 104.43C330.411 104.43 344.55 90.3182 344.55 72.9101C344.55 55.5021 330.411 41.3901 312.97 41.3901C295.529 41.3901 281.39 55.5021 281.39 72.9101C281.39 90.3182 295.529 104.43 312.97 104.43Z" fill="#FB9100"/>
<path d="M312.97 101.58C328.832 101.58 341.69 88.7442 341.69 72.9102C341.69 57.0762 328.832 44.2402 312.97 44.2402C297.108 44.2402 284.25 57.0762 284.25 72.9102C284.25 88.7442 297.108 101.58 312.97 101.58Z" fill="#FFF6EB"/>
<path d="M238.19 285.86C238.19 285.86 239.6 290.43 234.5 291.26C230.88 291.85 223.96 291.59 219.59 292.26C215.22 292.93 213.95 293.66 210.22 293.37C206.49 293.08 204.56 292.79 205.1 288.95C205.58 285.49 213.69 288.04 213.69 288.04L225.01 287.47L238.19 285.86Z" fill="#FB9100"/>
<path d="M206.88 279.85C206.88 279.85 204.72 271.63 204.49 269.59L216.86 269.41L218.86 278.68L216.48 285L209.98 284.87L206.88 279.85Z" fill="#FFCFC5"/>
<path d="M238.34 286.74C238.28 288.22 236.87 290 231.34 290.19C229.77 290.24 227.59 289.98 224.98 289.83C221.999 289.603 219.004 289.683 216.04 290.07H215.81C215.04 290.17 214.3 290.24 213.6 290.26C210.692 290.426 207.782 289.962 205.07 288.9C205.229 287.648 205.538 286.419 205.99 285.24C206.165 284.861 206.302 284.466 206.4 284.06C206.553 283.403 206.647 282.734 206.68 282.06C206.638 281.313 206.692 280.564 206.84 279.83C207.13 279.72 208.33 281.92 210.6 282.31C212.36 282.61 215.72 282.05 216.6 279.79C217.48 277.53 218.11 277.46 218.69 277.33C219.613 278.634 220.725 279.794 221.99 280.77C225.307 282.932 229.17 284.107 233.13 284.16C236.92 284.1 238.4 285.33 238.34 286.74Z" fill="black"/>
<path d="M143.82 290.93C143.82 290.93 141.82 295.32 137.4 292.55C134.27 290.55 129.21 285.77 125.47 283.35C121.73 280.93 120.27 280.64 117.64 277.93C115.01 275.22 113.74 273.72 116.72 271.17C119.4 268.88 123.83 276.22 123.83 276.22L132.83 283.34L143.82 290.93Z" fill="#FB9100"/>
<path d="M124.15 265.49C124.15 265.49 127.66 257.84 128.86 256.14L138.86 265.62L134.04 272.62L128.04 275.75L123.2 271.32L124.15 265.49Z" fill="#FFCFC5"/>
<path d="M143.33 291.7C142.33 292.78 140.04 293.19 135.75 289.65C134.53 288.65 133.05 286.99 131.19 285.14C129.084 282.981 126.762 281.044 124.26 279.36L124.06 279.23C123.42 278.79 122.82 278.34 122.26 277.89C119.952 276.076 118.065 273.784 116.73 271.17C117.689 270.323 118.747 269.595 119.88 269C120.264 268.821 120.632 268.611 120.98 268.37C121.534 267.983 122.049 267.544 122.52 267.06C123.4 266.19 123.97 265.42 124.13 265.48C124.29 265.54 123.86 268.05 125.32 269.87C126.45 271.26 129.32 273.08 131.52 271.94C133.72 270.8 134.22 271.19 134.75 271.47C134.575 273.074 134.639 274.695 134.94 276.28C136.005 280.127 138.137 283.594 141.09 286.28C144 288.75 144.32 290.67 143.33 291.7Z" fill="black"/>
<path d="M181.91 170C181.91 170 208.74 205.44 210.91 214.1C213.08 222.76 220.91 274.83 220.91 274.83C220.91 274.83 211.11 277.59 204.04 275.59L191.54 224.25L169.68 200.1C169.68 200.1 170.97 228.78 169.12 234.62C166.23 243.77 141.05 271.16 141.05 271.16C141.05 271.16 133.74 271.96 125.55 260.01L146 229.41C146 229.41 140.56 189.47 141.72 179.49C143.11 167.49 147.85 161.77 147.85 161.77L172.68 165.64L181.91 170Z" fill="#1B5A96"/>
<path d="M168.03 101.07L163.61 127.05L178.28 128.97L180.33 102.04L168.03 101.07Z" fill="#FFCFC5"/>
<path d="M195 115.45C195 115.45 200.12 117.56 200.8 125C201.48 132.44 204.29 143.63 204.29 143.63L214.93 139.19L221.93 143.63C221.93 143.63 203.93 159.63 198.35 158.2C192.77 156.77 188.13 132 188.13 132L193.13 117.65L195 115.45Z" fill="#FFCFC5"/>
<path d="M214.8 139.19C214.8 139.19 215.03 137.75 218.5 137.61C219.674 137.607 220.825 137.285 221.83 136.68C222.83 136.2 225.75 135.47 226.34 136.14C226.93 136.81 225.21 138.23 225.21 138.23C226.297 138.249 227.384 138.182 228.46 138.03C228.97 137.82 230.91 133.58 232.98 133.72C232.98 133.72 233.98 131.64 235.98 131.9L235.27 134.07C235.27 134.07 236.8 132.57 237.86 132.56C238.92 132.55 239.2 133.09 239.2 133.09L236.91 135.74C237.204 135.689 237.506 135.707 237.792 135.792C238.079 135.877 238.341 136.027 238.56 136.23C238.56 136.23 236.11 138.15 235.15 138.83C234.096 139.603 232.92 140.195 231.67 140.58C229.72 141.382 227.843 142.353 226.06 143.48C225.53 143.85 218.29 144.26 217.16 144.48C216.03 144.7 214.8 139.19 214.8 139.19Z" fill="#FFCFC5"/>
<path d="M233 133.72C233 133.72 231.76 138.09 230.7 139.18C229.321 140.333 227.849 141.37 226.3 142.28" fill="#FFCFC5"/>
<path d="M235.27 134.07C235.27 134.07 233.1 138.89 232.37 139.62C231.42 140.321 230.385 140.899 229.29 141.34" fill="black"/>
<path d="M236.91 135.74C236.91 135.74 234 139.35 232.35 139.96L236.91 135.74Z" fill="black"/>
<path d="M195.6 115C195.6 115 187.81 138.82 186.6 146.39C186.4 147.66 186.15 149.11 185.89 150.61C185.75 151.3 185.62 152.01 185.49 152.72C184.2 159.61 183.05 172.08 183.05 172.08C179.476 173.614 175.562 174.179 171.7 173.72C163.75 172.67 145.59 164.05 145.59 164.05C145.59 164.05 147.1 160.69 147.78 152.95C148.46 145.21 147.88 116.5 149.57 114.31C151.26 112.12 166.57 109.08 166.57 109.08C166.57 109.08 169.62 115.36 175.57 116.62C178.93 117.35 179.57 110.38 179.57 110.38L189.35 113.2L191.44 113.8L195.6 115Z" fill="#FB9100"/>
<path d="M162.56 109.89C163.21 108.67 167.11 106.64 167.11 106.64L176.11 116.78C176.11 116.78 173.6 119.05 171 119.13C168.4 119.21 162.56 109.89 162.56 109.89Z" fill="#C66A05"/>
<path d="M176.12 116.78L179.69 109.08C179.69 109.08 183.59 111.35 183.75 111.75C183.91 112.15 181.39 118.96 180.42 119.45C179.45 119.94 176.12 116.78 176.12 116.78Z" fill="#C66A05"/>
<path d="M147.46 116.51C147.46 116.51 134.4 132.72 131.94 137.78C129.48 142.84 128.84 182.73 128.84 182.73L136.17 182.31C136.17 182.31 141.89 146.25 142.03 145.77C142.17 145.29 152.75 133.53 152.75 133.53L150.17 119.42L147.46 116.51Z" fill="#FFCFC5"/>
<path d="M238.61 110L252.82 110.85V110.53L253.35 109.81C253.35 109.81 254.35 110.27 254.17 110.93L245.62 138.65L231.68 134.06L238.61 110Z" fill="#2B3B77"/>
<path d="M253.38 109.85L244.83 137.57L230.89 132.97L237.79 108.92L253.38 109.85Z" fill="black"/>
<path d="M251.31 111.31L238.97 110.57L232.81 131.95L243.78 135.56L251.31 111.31Z" fill="#FFF6EB"/>
<path d="M214.82 134.94L230.89 134.19L239.83 137.13L244.83 137.57L245.65 138.69L215.01 139.76L208.01 135.14V133.93L214.82 134.94Z" fill="black"/>
<path d="M244.83 137.57L215.01 138.55L208.01 133.93L230.89 132.97L244.83 137.57Z" fill="black"/>
<path d="M184.81 97.5301C185.47 103.53 185.18 109.84 179.51 110.88C175.51 111.6 170.11 107.65 167.64 103.16C166.487 101.24 165.484 99.2344 164.64 97.1601C164.23 95.9301 164 95.1001 164 95.1001V92.0001V90.1801L165.83 87.1801C167.04 85.1801 170.33 86.3101 170.34 86.1801C170.35 86.0501 177.55 82.3401 180.97 84.5301C181.266 84.7076 181.53 84.9342 181.75 85.2001C181.921 85.3967 182.054 85.6241 182.14 85.8701C182.29 86.3301 182.52 87.0401 182.8 87.9301C182.9 88.3001 183.03 88.7101 183.15 89.1501C183.36 89.8801 183.58 90.6901 183.78 91.5501C184.246 93.5204 184.59 95.5175 184.81 97.5301Z" fill="#FFCFC5"/>
<path d="M175.44 79.6798C175.44 79.6798 185.16 88.9898 182.65 89.6798C180.14 90.3698 176.28 88.9998 176.28 88.9998C176.28 88.9998 175.63 92.1098 171.21 89.1698C171.21 89.1698 171.7 90.9798 169.1 94.6198C167.64 96.6698 169.23 100.67 169.23 100.67L168.23 100.83C168.23 100.83 167.05 96.7699 165.59 96.8299C164.13 96.8899 165.73 101.83 165.73 101.83C165.73 101.83 156.73 86.8298 163.73 85.3398C163.72 85.2398 166.36 76.9998 175.44 79.6798Z" fill="black"/>
<path d="M167.92 103.29C165.4 103.08 162.58 97.8302 164.11 96.5902C165.64 95.3502 166.81 97.2202 166.81 97.2202L167.92 103.29Z" fill="#FFCFC5"/>
<path d="M182.41 80.5C182.415 80.4034 182.415 80.3066 182.41 80.21C182.318 79.4976 182.023 78.8268 181.56 78.2777C181.097 77.7286 180.486 77.3244 179.799 77.1135C179.112 76.9026 178.38 76.8938 177.688 77.0882C176.997 77.2827 176.376 77.6721 175.9 78.21C175.305 77.6263 174.578 77.1937 173.781 76.9484C172.984 76.703 172.14 76.6522 171.32 76.8C170.359 76.8636 169.438 77.2072 168.67 77.7883C167.903 78.3694 167.322 79.1626 167 80.07C166.668 80.0281 166.332 80.0281 166 80.07C165.053 80.1975 164.191 80.6834 163.592 81.4277C162.993 82.1719 162.702 83.1177 162.78 84.07C162.107 84.2001 161.483 84.5127 160.975 84.9736C160.468 85.4344 160.097 86.0259 159.903 86.6833C159.709 87.3407 159.699 88.0388 159.875 88.7013C160.051 89.3638 160.405 89.9653 160.9 90.44C160.558 91.1157 160.432 91.8803 160.54 92.63C160.622 93.2202 160.845 93.7822 161.189 94.2691C161.532 94.7559 161.987 95.1536 162.516 95.429C163.044 95.7044 163.631 95.8495 164.227 95.8522C164.823 95.8549 165.411 95.7152 165.942 95.4446C166.473 95.1741 166.932 94.7805 167.28 94.2968C167.628 93.813 167.855 93.2531 167.943 92.6637C168.031 92.0742 167.977 91.4723 167.785 90.9081C167.593 90.3439 167.269 89.8336 166.84 89.42C167.152 88.8021 167.283 88.1091 167.22 87.42C168.004 87.2666 168.718 86.8664 169.257 86.278C169.797 85.6896 170.134 84.9439 170.22 84.15C170.914 84.2944 171.628 84.318 172.33 84.22C173.537 84.0711 174.667 83.5463 175.56 82.72C175.965 83.3506 176.551 83.8452 177.24 84.14C176.443 84.5447 175.819 85.2219 175.479 86.0483C175.14 86.8748 175.108 87.7957 175.39 88.6434C175.673 89.4911 176.25 90.2094 177.017 90.6676C177.784 91.1257 178.69 91.2934 179.57 91.14C180.464 91.0172 181.284 90.5771 181.88 89.9C182.377 90.1039 182.917 90.1762 183.45 90.11C185.45 89.83 186.87 87.46 186.45 84.82C186.03 82.18 184.35 80.43 182.41 80.5Z" fill="black"/>
<path d="M176.74 104.4L179.64 103.99C179.64 103.99 178.72 106.36 176.74 104.4Z" fill="white"/>
<path d="M181.252 97.4056C181.561 97.3884 181.787 96.9498 181.758 96.426C181.729 95.9021 181.455 95.4913 181.147 95.5085C180.838 95.5256 180.611 95.9642 180.64 96.4881C180.669 97.0119 180.943 97.4227 181.252 97.4056Z" fill="black"/>
<path d="M174.784 98.5227C175.093 98.5056 175.32 98.067 175.291 97.5432C175.262 97.0193 174.988 96.6085 174.679 96.6257C174.37 96.6428 174.143 97.0814 174.172 97.6053C174.201 98.1291 174.475 98.5399 174.784 98.5227Z" fill="black"/>
<path d="M180.12 93.5799C180.12 93.5799 181.35 91.9999 182.87 92.3399L180.12 93.5799Z" fill="black"/>
<path d="M171.76 94.3602C172.312 94.093 172.917 93.9541 173.53 93.9541C174.143 93.9541 174.748 94.093 175.3 94.3602H171.76Z" fill="black"/>
<path d="M202.71 134.76C202.71 134.76 198.2 139.93 189.27 142.71L187.89 136.14L189.27 124.8L195.6 115C196.593 115.424 197.493 116.04 198.248 116.812C199.003 117.584 199.598 118.498 200 119.5C200.775 122.436 201.38 125.414 201.81 128.42C201.91 129.08 202.01 129.73 202.1 130.34C202.44 132.85 202.71 134.76 202.71 134.76Z" fill="#FB9100"/>
<path d="M155 133.92L146.24 142C142.98 140.833 140.154 138.697 138.14 135.88C137.711 135.304 137.317 134.703 136.96 134.08C136.428 133.21 135.986 132.289 135.64 131.33C135.64 131.33 141.48 120.62 149.64 114.33C150.48 113.69 153.64 119.26 153.64 119.26L155 133.92Z" fill="#FB9100"/>
<path d="M130.28 177.63C130.28 177.63 125.73 185.02 125.83 186.91C125.93 188.8 128.18 194.63 129.14 195.33C130.886 196.348 132.844 196.95 134.86 197.09C137.06 197.23 139.02 196.25 138.93 195.82C138.643 195.382 138.254 195.02 137.795 194.765C137.337 194.511 136.824 194.372 136.3 194.36C136.3 194.36 138.3 193.64 137.83 192.78C137.36 191.92 135.83 192.85 134.53 192.93C133.23 193.01 131.12 191.63 130.88 190.27C130.64 188.91 131.83 185.69 131.83 185.69C131.83 185.69 133.75 183.74 135.05 182.47C136.35 181.2 136.49 181.93 135.89 179.47C135.29 177.01 130.28 177.63 130.28 177.63Z" fill="#FFCFC5"/>
<path d="M131.83 185.69C132.278 186.992 132.612 188.33 132.83 189.69C132.98 191.12 133.17 193.69 134.83 193.34C136.49 192.99 135.14 190.1 135.92 187.82C137.8 182.37 135.81 179.53 135.81 179.53L132.4 181.71L131.83 185.69Z" fill="#FFCFC5"/>
<path d="M331.6 61.6099H293.67V88.8199H331.6V61.6099Z" fill="#1B5A96"/>
<path d="M332.35 88.8198H292.92C292.235 88.8198 291.68 89.375 291.68 90.0598C291.68 90.7447 292.235 91.2998 292.92 91.2998H332.35C333.035 91.2998 333.59 90.7447 333.59 90.0598C333.59 89.375 333.035 88.8198 332.35 88.8198Z" fill="#FB9100"/>
<path d="M294.74 58.5898H330.52C330.804 58.5898 331.076 58.7026 331.277 58.9032C331.477 59.1039 331.59 59.3761 331.59 59.6598V61.5998H293.67V59.6598C293.67 59.3761 293.783 59.1039 293.983 58.9032C294.184 58.7026 294.456 58.5898 294.74 58.5898Z" fill="#1B5A96"/>
<path d="M328.43 71.4102H317.26V88.8302H328.43V71.4102Z" fill="white"/>
<path d="M328.07 71.8301H317.64V88.8401H328.07V71.8301Z" fill="#92D3EA"/>
<path d="M323 71.6401H322.71V88.8401H323V71.6401Z" fill="white"/>
<g style="mix-blend-mode:multiply" opacity="0.3">
<path d="M328.43 71.4102V72.3802H318.21V88.8302H317.26V71.4102H328.43Z" fill="#2B3B77"/>
</g>
<path d="M316.26 71.4199H295.68V85.3799H316.26V71.4199Z" fill="white"/>
<path d="M315.91 71.7598H296.03V85.0298H315.91V71.7598Z" fill="#92D3EA"/>
<g style="mix-blend-mode:multiply" opacity="0.3">
<path d="M295.68 71.4199V72.4799H315.38V85.3499H316.27V71.4199H295.68Z" fill="#2B3B77"/>
</g>
<path d="M303.17 61.6099L301.08 64.6099V64.6799H295.29V64.6199L298.43 61.6199H303.17V61.6099Z" fill="white"/>
<path d="M312.64 64.5901V64.6501H306.86V64.5801L307.86 61.5801H312.59V64.5801L312.64 64.5901Z" fill="white"/>
<path d="M322.12 61.6201L324.21 64.6201H318.43L317.38 61.6201H322.12Z" fill="white"/>
<path d="M298.43 61.6099L295.29 64.6099V64.6699H289.49L293.69 61.6699L298.43 61.6099Z" fill="#FB9100"/>
<path d="M301.08 64.5898L303.17 61.5898H307.91L306.91 64.5898V64.6598H301.13L301.08 64.5898Z" fill="#FB9100"/>
<path d="M318.43 64.5898H312.64V61.5898H317.38L318.43 64.5898Z" fill="#FB9100"/>
<path d="M330 64.5898H324.21L322.12 61.5898H326.86L330 64.5898Z" fill="#FB9100"/>
<path d="M331.6 61.62L335.77 64.62C335.77 64.62 333.52 64.62 330 64.62L326.86 61.62C329.74 61.6 331.6 61.6 331.6 61.62Z" fill="white"/>
<path d="M289.49 64.6099H295.3V65.5499C295.3 66.3216 294.993 67.0618 294.448 67.6075C293.902 68.1533 293.162 68.4599 292.39 68.4599C291.618 68.4599 290.878 68.1533 290.332 67.6075C289.787 67.0618 289.48 66.3216 289.48 65.5499V64.6099H289.49Z" fill="#C66A05"/>
<path d="M298.21 68.4499C297.828 68.4512 297.45 68.3771 297.097 68.232C296.744 68.0868 296.423 67.8734 296.153 67.604C295.883 67.3346 295.668 67.0145 295.522 66.662C295.375 66.3095 295.3 65.9315 295.3 65.5499V64.6099H301.12V65.5499C301.12 65.9315 301.045 66.3095 300.898 66.662C300.752 67.0145 300.537 67.3346 300.267 67.604C299.997 67.8734 299.676 68.0868 299.323 68.232C298.97 68.3771 298.592 68.4512 298.21 68.4499Z" fill="#D0EEFF"/>
<path d="M301.12 64.6101H306.93V65.5501C306.929 65.9331 306.852 66.3121 306.704 66.6653C306.555 67.0185 306.339 67.339 306.067 67.6084C305.795 67.8778 305.472 68.0909 305.117 68.2353C304.763 68.3797 304.383 68.4527 304 68.4501C303.228 68.4501 302.488 68.1435 301.942 67.5978C301.396 67.052 301.09 66.3119 301.09 65.5401V64.6001L301.12 64.6101Z" fill="#C66A05"/>
<path d="M309.74 68.4499C309.358 68.4512 308.98 68.3771 308.627 68.232C308.274 68.0868 307.953 67.8734 307.683 67.604C307.412 67.3346 307.198 67.0145 307.052 66.662C306.905 66.3095 306.83 65.9315 306.83 65.5499V64.6099H312.65V65.5499C312.65 65.9315 312.574 66.3095 312.428 66.662C312.282 67.0145 312.067 67.3346 311.797 67.604C311.527 67.8734 311.206 68.0868 310.853 68.232C310.5 68.3771 310.122 68.4512 309.74 68.4499Z" fill="#D0EEFF"/>
<path d="M312.65 64.6099H318.46V65.5499C318.46 66.3216 318.153 67.0618 317.608 67.6075C317.062 68.1533 316.322 68.4599 315.55 68.4599C314.778 68.4599 314.038 68.1533 313.492 67.6075C312.946 67.0618 312.64 66.3216 312.64 65.5499V64.6099H312.65Z" fill="#C66A05"/>
<path d="M321.36 68.4499C320.591 68.4499 319.853 68.1443 319.309 67.6005C318.765 67.0566 318.46 66.319 318.46 65.5499V64.6099H324.27V65.5499C324.27 65.9315 324.195 66.3095 324.048 66.662C323.902 67.0145 323.687 67.3346 323.417 67.604C323.147 67.8734 322.826 68.0868 322.473 68.232C322.12 68.3771 321.742 68.4512 321.36 68.4499Z" fill="#D0EEFF"/>
<path d="M324.27 64.6099H330.08V65.5499C330.08 66.3216 329.773 67.0618 329.228 67.6075C328.682 68.1533 327.942 68.4599 327.17 68.4599C326.398 68.4599 325.658 68.1533 325.112 67.6075C324.567 67.0618 324.26 66.3216 324.26 65.5499V64.6099H324.27Z" fill="#C66A05"/>
<path d="M332.87 68.4499C332.488 68.4512 332.11 68.3771 331.757 68.232C331.404 68.0868 331.083 67.8734 330.813 67.604C330.543 67.3346 330.328 67.0145 330.182 66.662C330.035 66.3095 329.96 65.9315 329.96 65.5499V64.6099H335.77V65.5499C335.77 66.319 335.464 67.0566 334.921 67.6005C334.377 68.1443 333.639 68.4499 332.87 68.4499Z" fill="#D0EEFF"/>
<path d="M370.66 203.54H269.32C261.947 203.54 255.97 209.517 255.97 216.89C255.97 224.263 261.947 230.24 269.32 230.24H370.66C378.033 230.24 384.01 224.263 384.01 216.89C384.01 209.517 378.033 203.54 370.66 203.54Z" fill="#FB9100"/>
<path d="M275.139 221.176C274.538 221.176 273.994 221.073 273.508 220.868C273.031 220.662 272.652 220.365 272.372 219.978C272.092 219.591 271.948 219.134 271.94 218.607H273.792C273.817 218.962 273.941 219.241 274.163 219.447C274.393 219.653 274.706 219.756 275.102 219.756C275.505 219.756 275.822 219.661 276.052 219.472C276.283 219.274 276.398 219.019 276.398 218.706C276.398 218.451 276.32 218.241 276.164 218.076C276.007 217.912 275.81 217.784 275.571 217.694C275.34 217.595 275.019 217.488 274.608 217.372C274.048 217.208 273.591 217.047 273.237 216.891C272.891 216.726 272.59 216.483 272.335 216.162C272.088 215.833 271.965 215.396 271.965 214.853C271.965 214.343 272.092 213.898 272.347 213.519C272.603 213.141 272.961 212.852 273.422 212.655C273.883 212.449 274.41 212.346 275.003 212.346C275.892 212.346 276.612 212.564 277.164 213.001C277.724 213.429 278.033 214.03 278.09 214.804H276.188C276.172 214.507 276.044 214.264 275.805 214.075C275.575 213.877 275.266 213.779 274.879 213.779C274.542 213.779 274.27 213.865 274.064 214.038C273.867 214.211 273.768 214.462 273.768 214.791C273.768 215.022 273.842 215.215 273.99 215.372C274.146 215.52 274.336 215.643 274.558 215.742C274.789 215.833 275.11 215.94 275.521 216.063C276.081 216.228 276.538 216.393 276.892 216.557C277.246 216.722 277.551 216.969 277.806 217.298C278.061 217.628 278.189 218.06 278.189 218.595C278.189 219.056 278.07 219.484 277.831 219.88C277.592 220.275 277.242 220.592 276.781 220.83C276.32 221.061 275.773 221.176 275.139 221.176ZM286.048 217.521C286.048 217.768 286.032 217.99 285.999 218.188H280.997C281.038 218.682 281.211 219.069 281.516 219.348C281.82 219.628 282.195 219.768 282.64 219.768C283.282 219.768 283.739 219.493 284.01 218.941H285.875C285.678 219.6 285.299 220.143 284.739 220.571C284.179 220.991 283.492 221.201 282.677 221.201C282.018 221.201 281.425 221.057 280.898 220.769C280.38 220.472 279.972 220.057 279.676 219.521C279.387 218.986 279.243 218.369 279.243 217.669C279.243 216.961 279.387 216.339 279.676 215.804C279.964 215.269 280.367 214.857 280.886 214.569C281.405 214.281 282.002 214.137 282.677 214.137C283.327 214.137 283.908 214.277 284.418 214.557C284.937 214.837 285.336 215.236 285.616 215.755C285.904 216.265 286.048 216.854 286.048 217.521ZM284.257 217.027C284.249 216.582 284.089 216.228 283.776 215.965C283.463 215.693 283.08 215.557 282.627 215.557C282.199 215.557 281.837 215.689 281.54 215.952C281.252 216.207 281.075 216.566 281.009 217.027H284.257ZM286.866 217.644C286.866 216.953 287.002 216.339 287.273 215.804C287.553 215.269 287.928 214.857 288.397 214.569C288.875 214.281 289.406 214.137 289.99 214.137C290.501 214.137 290.945 214.24 291.324 214.446C291.711 214.651 292.02 214.911 292.25 215.224V214.248H293.992V221.09H292.25V220.089C292.028 220.411 291.719 220.678 291.324 220.892C290.937 221.098 290.488 221.201 289.978 221.201C289.402 221.201 288.875 221.053 288.397 220.756C287.928 220.46 287.553 220.044 287.273 219.509C287.002 218.966 286.866 218.344 286.866 217.644ZM292.25 217.669C292.25 217.249 292.168 216.891 292.003 216.594C291.839 216.29 291.616 216.059 291.336 215.903C291.056 215.738 290.756 215.656 290.435 215.656C290.114 215.656 289.817 215.734 289.546 215.89C289.274 216.047 289.052 216.277 288.879 216.582C288.714 216.878 288.632 217.233 288.632 217.644C288.632 218.056 288.714 218.418 288.879 218.731C289.052 219.036 289.274 219.27 289.546 219.435C289.826 219.6 290.122 219.682 290.435 219.682C290.756 219.682 291.056 219.604 291.336 219.447C291.616 219.283 291.839 219.052 292.003 218.756C292.168 218.451 292.25 218.089 292.25 217.669ZM297.409 215.31C297.632 214.948 297.92 214.664 298.274 214.458C298.636 214.252 299.048 214.149 299.509 214.149V215.965H299.052C298.508 215.965 298.097 216.092 297.817 216.347C297.545 216.603 297.409 217.047 297.409 217.681V221.09H295.68V214.248H297.409V215.31ZM300.229 217.669C300.229 216.961 300.373 216.343 300.661 215.816C300.949 215.281 301.348 214.87 301.859 214.581C302.369 214.285 302.954 214.137 303.613 214.137C304.461 214.137 305.161 214.351 305.712 214.779C306.272 215.199 306.647 215.792 306.836 216.557H304.971C304.872 216.261 304.704 216.03 304.465 215.866C304.234 215.693 303.946 215.606 303.6 215.606C303.106 215.606 302.715 215.788 302.427 216.15C302.139 216.504 301.995 217.01 301.995 217.669C301.995 218.319 302.139 218.826 302.427 219.188C302.715 219.542 303.106 219.719 303.6 219.719C304.3 219.719 304.757 219.406 304.971 218.78H306.836C306.647 219.521 306.272 220.11 305.712 220.546C305.152 220.983 304.452 221.201 303.613 221.201C302.954 221.201 302.369 221.057 301.859 220.769C301.348 220.472 300.949 220.061 300.661 219.534C300.373 218.999 300.229 218.377 300.229 217.669ZM311.956 214.149C312.475 214.149 312.936 214.264 313.339 214.495C313.742 214.717 314.055 215.051 314.278 215.495C314.508 215.932 314.623 216.459 314.623 217.076V221.09H312.894V217.311C312.894 216.767 312.759 216.352 312.487 216.063C312.215 215.767 311.845 215.619 311.375 215.619C310.898 215.619 310.519 215.767 310.239 216.063C309.967 216.352 309.832 216.767 309.832 217.311V221.09H308.103V211.951H309.832V215.1C310.054 214.804 310.35 214.573 310.721 214.408C311.091 214.236 311.503 214.149 311.956 214.149ZM317.033 221.176C316.72 221.176 316.461 221.082 316.255 220.892C316.058 220.695 315.959 220.452 315.959 220.164C315.959 219.875 316.058 219.637 316.255 219.447C316.461 219.25 316.72 219.151 317.033 219.151C317.338 219.151 317.589 219.25 317.787 219.447C317.984 219.637 318.083 219.875 318.083 220.164C318.083 220.452 317.984 220.695 317.787 220.892C317.589 221.082 317.338 221.176 317.033 221.176ZM323.184 221.176C322.871 221.176 322.612 221.082 322.406 220.892C322.209 220.695 322.11 220.452 322.11 220.164C322.11 219.875 322.209 219.637 322.406 219.447C322.612 219.25 322.871 219.151 323.184 219.151C323.489 219.151 323.74 219.25 323.938 219.447C324.135 219.637 324.234 219.875 324.234 220.164C324.234 220.452 324.135 220.695 323.938 220.892C323.74 221.082 323.489 221.176 323.184 221.176ZM329.335 221.176C329.022 221.176 328.763 221.082 328.557 220.892C328.359 220.695 328.261 220.452 328.261 220.164C328.261 219.875 328.359 219.637 328.557 219.447C328.763 219.25 329.022 219.151 329.335 219.151C329.64 219.151 329.891 219.25 330.088 219.447C330.286 219.637 330.385 219.875 330.385 220.164C330.385 220.452 330.286 220.695 330.088 220.892C329.891 221.082 329.64 221.176 329.335 221.176Z" fill="white"/>
</g>
</g>
<defs>
<clipPath id="clip0_137_308">
<rect width="570" height="324" fill="white"/>
</clipPath>
<clipPath id="clip1_137_308">
<rect width="339.44" height="262.47" fill="white" transform="translate(115 31)"/>
</clipPath>
</defs>
</svg>
