<svg width="570" height="324" viewBox="0 0 570 324" fill="none" xmlns="http://www.w3.org/2000/svg">
<g clip-path="url(#clip0_137_2)">
<rect width="570" height="324" fill="#FFF6EB"/>
<path d="M471.134 292.996H98.6618C98.4786 292.979 98.3105 292.92 98.1888 292.829C98.0671 292.738 98 292.621 98 292.5C98 292.379 98.0671 292.262 98.1888 292.171C98.3105 292.08 98.4786 292.021 98.6618 292.004H471.134C471.242 291.995 471.352 292.001 471.457 292.021C471.561 292.042 471.657 292.077 471.739 292.124C471.821 292.171 471.887 292.228 471.932 292.293C471.977 292.358 472 292.429 472 292.5C472 292.571 471.977 292.642 471.932 292.707C471.887 292.772 471.821 292.829 471.739 292.876C471.657 292.923 471.561 292.958 471.457 292.979C471.352 292.999 471.242 293.005 471.134 292.996Z" fill="#030047"/>
<g clip-path="url(#clip1_137_2)">
<path d="M214.087 84.0941C213.927 73.0324 201.727 64.2449 186.829 64.4544C171.931 64.6638 159.99 73.8004 160.15 84.8622C160.31 95.9239 172.51 104.711 187.398 104.492C187.898 104.492 188.398 104.492 188.877 104.422C190.525 107.128 192.746 109.443 195.383 111.203C198.02 112.964 201.01 114.129 204.145 114.616C202.16 110.604 200.876 106.283 200.348 101.839C208.631 98.3178 214.197 91.6548 214.087 84.0941ZM172.271 87.4356C171.565 87.4356 170.875 87.2265 170.288 86.8348C169.701 86.443 169.244 85.8863 168.974 85.2351C168.704 84.5838 168.634 83.8673 168.773 83.1763C168.911 82.4853 169.252 81.8508 169.752 81.3532C170.252 80.8556 170.888 80.5173 171.581 80.381C172.273 80.2447 172.991 80.3167 173.643 80.5877C174.294 80.8588 174.851 81.3167 175.241 81.9036C175.632 82.4905 175.84 83.18 175.838 83.8847C175.838 84.3518 175.745 84.8144 175.566 85.2458C175.387 85.6773 175.124 86.0692 174.792 86.3991C174.461 86.7289 174.068 86.9903 173.635 87.1682C173.202 87.346 172.739 87.4369 172.271 87.4356ZM186.819 87.4356C186.113 87.4376 185.422 87.2301 184.833 86.8396C184.245 86.4491 183.786 85.8931 183.515 85.242C183.244 84.5909 183.173 83.8741 183.31 83.1825C183.447 82.4908 183.787 81.8554 184.287 81.3568C184.786 80.8582 185.423 80.5188 186.115 80.3817C186.808 80.2447 187.526 80.316 188.179 80.5868C188.831 80.8575 189.388 81.3155 189.779 81.9026C190.17 82.4897 190.378 83.1795 190.376 83.8847C190.376 84.8264 190.001 85.7296 189.334 86.3955C188.667 87.0615 187.762 87.4356 186.819 87.4356ZM201.577 87.4356C200.871 87.4356 200.181 87.2265 199.594 86.8348C199.007 86.443 198.55 85.8863 198.281 85.2351C198.011 84.5838 197.941 83.8673 198.079 83.1763C198.218 82.4853 198.558 81.8508 199.058 81.3532C199.558 80.8556 200.195 80.5173 200.887 80.381C201.58 80.2447 202.298 80.3167 202.949 80.5877C203.601 80.8588 204.157 81.3167 204.548 81.9036C204.939 82.4905 205.146 83.18 205.144 83.8847C205.144 84.3527 205.052 84.816 204.872 85.2482C204.692 85.6803 204.428 86.0726 204.095 86.4026C203.763 86.7326 203.368 86.9938 202.935 87.171C202.501 87.3483 202.036 87.4382 201.567 87.4356H201.577Z" fill="#1B5A96"/>
<path d="M166.175 213.862C164.857 212.715 163.048 212.386 161.489 211.608C159.93 210.83 158.492 209.154 159.041 207.508C159.731 205.434 162.618 205.424 164.597 204.516C166.805 203.459 167.974 201.025 168.663 198.681C169.353 196.337 169.753 193.853 171.101 191.819C171.485 191.135 172.113 190.622 172.86 190.382C174.119 190.083 175.338 191.14 175.808 192.377C176.156 193.615 176.373 194.885 176.457 196.167C176.744 197.75 177.42 199.236 178.424 200.493C179.429 201.75 180.731 202.739 182.213 203.369C183.671 203.977 185.28 204.217 186.699 204.895C188.118 205.573 189.427 206.89 189.387 208.486C189.386 208.7 189.338 208.911 189.247 209.104C189.091 209.319 188.893 209.498 188.664 209.632C188.435 209.766 188.181 209.851 187.918 209.882C185.28 210.541 182.492 211.129 180.474 212.935C178.456 214.74 177.476 217.752 177.137 220.575C176.937 222.281 176.767 224.246 175.348 225.223C173.929 226.201 171.601 225.453 170.462 223.996C169.476 222.435 168.838 220.679 168.594 218.849C168.134 217.004 167.594 215.109 166.175 213.862Z" fill="#1B5A96"/>
<path d="M391.066 195.37C390.314 194.885 389.505 194.496 388.658 194.212C387.858 193.813 387.109 192.956 387.399 192.108C387.748 191.041 389.237 191.031 390.256 190.542C390.792 190.213 391.253 189.778 391.613 189.263C391.972 188.748 392.221 188.165 392.345 187.55C392.583 186.317 393.003 185.127 393.594 184.019C393.794 183.668 394.118 183.404 394.503 183.28C394.831 183.249 395.159 183.331 395.434 183.513C395.709 183.694 395.913 183.964 396.012 184.278C396.199 184.928 396.312 185.597 396.351 186.273C396.503 187.09 396.856 187.857 397.379 188.503C397.903 189.149 398.58 189.655 399.349 189.973C400.098 190.292 400.918 190.412 401.657 190.761C402.036 190.91 402.366 191.162 402.61 191.488C402.853 191.814 403.001 192.201 403.036 192.607C403.033 192.716 403.009 192.825 402.966 192.926C402.885 193.036 402.782 193.128 402.663 193.197C402.544 193.265 402.413 193.309 402.277 193.325C400.894 193.533 399.581 194.07 398.45 194.891C397.424 195.952 396.817 197.348 396.741 198.821C396.631 199.698 396.551 200.706 395.812 201.205C395.387 201.413 394.902 201.465 394.442 201.35C393.983 201.235 393.579 200.961 393.304 200.576C392.784 199.777 392.443 198.876 392.305 197.933C392.178 196.968 391.744 196.069 391.066 195.37Z" fill="#FB9100"/>
<path d="M397.62 64.8535H344.253V118.127H397.62V64.8535Z" fill="black"/>
<path d="M397.62 118.945H344.253C344.037 118.937 343.832 118.845 343.682 118.689C343.533 118.532 343.451 118.324 343.454 118.107V64.8536C343.454 64.6367 343.54 64.4287 343.694 64.2753C343.847 64.1219 344.056 64.0357 344.273 64.0357H397.64C397.748 64.0344 397.855 64.0546 397.955 64.0952C398.055 64.1359 398.146 64.1961 398.223 64.2723C398.299 64.3485 398.359 64.4392 398.4 64.539C398.441 64.6389 398.461 64.7458 398.46 64.8536V118.107C398.462 118.218 398.443 118.328 398.401 118.431C398.36 118.534 398.298 118.628 398.22 118.706C398.141 118.784 398.048 118.846 397.945 118.887C397.842 118.928 397.731 118.948 397.62 118.945ZM345.072 117.299H396.801V65.6715H345.072V117.299Z" fill="black"/>
<path d="M400.698 61.123H347.331V114.397H400.698V61.123Z" fill="#1B5A96"/>
<path d="M374.589 109.818C370.279 109.812 366.069 108.531 362.489 106.137C358.909 103.742 356.12 100.342 354.476 96.3659C352.831 92.3898 352.404 88.0161 353.249 83.7979C354.094 79.5796 356.173 75.7062 359.223 72.6672C362.273 69.6282 366.157 67.56 370.384 66.7242C374.612 65.8883 378.992 66.3223 382.972 67.9713C386.952 69.6202 390.353 72.4101 392.746 75.9882C395.138 79.5664 396.413 83.7721 396.411 88.0739C396.403 93.8454 394.1 99.3776 390.008 103.455C385.917 107.532 380.37 109.821 374.589 109.818ZM374.589 67.9254C370.602 67.9235 366.705 69.1017 363.389 71.3112C360.074 73.5206 357.489 76.662 355.962 80.338C354.435 84.014 354.034 88.0595 354.811 91.9628C355.587 95.8661 357.506 99.4518 360.324 102.266C363.142 105.081 366.734 106.998 370.643 107.775C374.553 108.552 378.606 108.154 382.289 106.632C385.972 105.11 389.12 102.531 391.335 99.2223C393.55 95.9136 394.733 92.0235 394.733 88.044C394.717 82.7176 392.589 77.6141 388.814 73.8496C385.039 70.0851 379.925 67.9659 374.589 67.9554V67.9254Z" fill="#FFF6EB"/>
<path d="M374.589 109.819C366.835 109.819 360.53 100.064 360.53 88.0742C360.53 76.0848 366.835 66.3198 374.589 66.3198C382.343 66.3198 388.648 76.0749 388.648 88.0742C388.648 100.074 382.343 109.819 374.589 109.819ZM374.589 67.9257C367.744 67.9257 362.169 76.9028 362.169 88.0443C362.169 99.1858 367.744 108.153 374.589 108.153C381.433 108.153 387.009 99.1758 387.009 88.0443C387.009 76.9127 381.423 67.9556 374.589 67.9556V67.9257Z" fill="#FFF6EB"/>
<path d="M374.139 109.819C370.142 109.819 369.143 95.595 369.143 88.0742C369.143 80.5534 370.202 66.3198 374.139 66.3198C378.076 66.3198 379.135 80.5434 379.135 88.0742C379.135 95.6049 378.116 109.819 374.139 109.819ZM374.139 67.9257C373.909 67.9257 372.87 68.8533 371.961 73.4017C371.093 78.2332 370.684 83.136 370.742 88.0443C370.685 92.9493 371.093 97.8486 371.961 102.677C372.87 107.225 373.959 108.153 374.139 108.153C374.319 108.153 375.398 107.225 376.307 102.677C377.175 97.8486 377.584 92.9493 377.526 88.0443C377.584 83.136 377.176 78.2332 376.307 73.4017C375.428 68.8833 374.359 67.9556 374.139 67.9556V67.9257Z" fill="#FFF6EB"/>
<path d="M395.672 89.3408H353.076V90.1887H395.672V89.3408Z" fill="#FFF6EB"/>
<path d="M375.508 76.9426C370.033 76.903 364.603 75.9524 359.441 74.1298L360.03 72.6036C360.19 72.6635 376.137 78.5883 388.877 72.5039L389.587 73.9801C385.176 76.0093 380.364 77.0218 375.508 76.9426Z" fill="#FFF6EB"/>
<path d="M360.1 103.475L359.391 101.999C372.78 95.565 388.857 101.59 389.537 101.849L388.947 103.375C388.787 103.315 372.84 97.3505 360.1 103.475Z" fill="#FFF6EB"/>
<path d="M129.015 168.279C129.015 168.279 128.016 160.588 130.444 162.055C136.369 165.675 142.884 161.895 143.554 160.549C147.65 152.369 145.772 128.85 156.833 128.85C167.894 128.85 162.828 150.305 168.823 155.033C174.819 159.761 183.052 137.996 191.895 137.996C200.738 137.996 202.966 154.404 210.56 154.404C218.154 154.404 220.672 146.834 228.546 145.567V168.339L129.015 168.279Z" fill="#FB9100"/>
<path d="M239.617 167.581L236.829 164.988C236.529 164.732 236.144 164.6 235.75 164.619C235.356 164.637 234.985 164.805 234.711 165.087C234.451 165.357 234.311 165.237 234.311 165.616C234.311 165.995 234.441 166.075 234.661 166.075H130.624V126.646C130.923 126.871 131.288 126.992 131.663 126.992C132.038 126.992 132.403 126.871 132.702 126.646C133.004 126.387 133.192 126.019 133.223 125.623C133.255 125.227 133.129 124.835 132.872 124.531L130.574 121.978C130.431 121.83 130.261 121.713 130.072 121.633C129.883 121.553 129.68 121.512 129.475 121.512C129.27 121.512 129.067 121.553 128.878 121.633C128.689 121.713 128.518 121.83 128.376 121.978L125.828 124.77C125.695 124.916 125.592 125.086 125.526 125.271C125.459 125.456 125.429 125.652 125.439 125.848C125.448 126.045 125.496 126.237 125.58 126.415C125.664 126.593 125.782 126.753 125.928 126.885C126.368 127.14 126.868 127.274 127.376 127.274C127.726 127.274 127.576 127.154 128.765 126.935V166.165H124.499C123.669 166.165 123 167.701 123 168.529C123 169.356 123.669 170.892 124.499 170.892H128.765V173.496C128.765 174.324 128.865 174.992 129.695 174.992C130.524 174.992 130.624 174.324 130.624 173.496V170.892H234.89C234.431 170.892 234.431 171.89 234.94 172.449C235.22 172.768 235.62 172.748 236.05 172.748C236.431 172.71 236.786 172.537 237.049 172.259L239.607 169.895C239.761 169.75 239.884 169.574 239.969 169.379C240.053 169.185 240.096 168.975 240.096 168.763C240.096 168.551 240.053 168.341 239.969 168.146C239.884 167.952 239.761 167.776 239.607 167.631L239.617 167.581Z" fill="black"/>
<path d="M228.326 169.805C227.986 169.805 227.486 169.536 227.486 169.196V124.561C227.486 124.221 227.986 123.952 228.326 123.952C228.666 123.952 229.175 124.221 229.175 124.561V169.196C229.175 169.536 228.666 169.805 228.326 169.805Z" fill="#333333"/>
<path d="M191.305 169.805C190.966 169.805 190.806 169.536 190.806 169.196V124.561C190.806 124.221 190.966 123.952 191.305 123.952C191.645 123.952 191.815 124.221 191.815 124.561V169.196C191.815 169.536 191.645 169.805 191.305 169.805Z" fill="black"/>
<path d="M157.602 169.805C157.523 169.805 157.445 169.789 157.372 169.758C157.299 169.728 157.233 169.682 157.178 169.626C157.123 169.569 157.08 169.502 157.052 169.428C157.023 169.354 157.01 169.275 157.013 169.197V124.561C157.013 124.405 157.075 124.255 157.185 124.145C157.296 124.034 157.446 123.972 157.602 123.972C157.759 123.972 157.909 124.034 158.019 124.145C158.13 124.255 158.192 124.405 158.192 124.561V169.197C158.195 169.275 158.181 169.354 158.153 169.428C158.124 169.502 158.081 169.569 158.026 169.626C157.971 169.682 157.905 169.728 157.833 169.758C157.76 169.789 157.681 169.805 157.602 169.805Z" fill="black"/>
<path d="M228.998 147.539C230.287 147.239 231.089 145.951 230.788 144.664C230.487 143.376 229.197 142.576 227.907 142.877C226.618 143.177 225.816 144.465 226.117 145.752C226.418 147.04 227.708 147.84 228.998 147.539Z" fill="white"/>
<path d="M228.446 148.27C227.838 148.27 227.245 148.09 226.74 147.754C226.236 147.417 225.842 146.938 225.611 146.378C225.379 145.818 225.319 145.201 225.438 144.607C225.557 144.013 225.85 143.467 226.28 143.039C226.71 142.612 227.258 142.321 227.853 142.204C228.449 142.087 229.066 142.149 229.626 142.382C230.187 142.615 230.665 143.009 231.001 143.514C231.337 144.019 231.515 144.612 231.513 145.218C231.51 146.029 231.186 146.805 230.611 147.377C230.036 147.949 229.257 148.27 228.446 148.27ZM228.446 143.483C228.102 143.483 227.766 143.584 227.48 143.775C227.194 143.966 226.971 144.237 226.839 144.554C226.708 144.871 226.673 145.22 226.74 145.557C226.807 145.893 226.973 146.203 227.216 146.445C227.459 146.688 227.769 146.853 228.106 146.92C228.444 146.987 228.793 146.953 229.111 146.822C229.429 146.69 229.7 146.468 229.891 146.182C230.082 145.897 230.184 145.561 230.184 145.218C230.184 144.758 230.001 144.316 229.675 143.991C229.349 143.665 228.907 143.483 228.446 143.483Z" fill="#333333"/>
<path d="M191.215 139.951C192.54 139.951 193.613 138.88 193.613 137.557C193.613 136.235 192.54 135.164 191.215 135.164C189.891 135.164 188.817 136.235 188.817 137.557C188.817 138.88 189.891 139.951 191.215 139.951Z" fill="white"/>
<path d="M191.215 140.619C190.609 140.619 190.016 140.44 189.511 140.103C189.007 139.767 188.614 139.289 188.381 138.729C188.149 138.17 188.088 137.554 188.207 136.96C188.325 136.366 188.617 135.82 189.046 135.392C189.475 134.964 190.022 134.672 190.617 134.554C191.212 134.436 191.829 134.496 192.389 134.728C192.95 134.96 193.429 135.352 193.766 135.856C194.103 136.36 194.283 136.952 194.283 137.557C194.283 138.369 193.96 139.148 193.385 139.723C192.809 140.297 192.029 140.619 191.215 140.619ZM191.215 135.832C190.874 135.834 190.541 135.937 190.258 136.127C189.975 136.318 189.755 136.588 189.626 136.904C189.496 137.219 189.463 137.566 189.531 137.9C189.599 138.234 189.764 138.541 190.007 138.781C190.249 139.021 190.557 139.185 190.892 139.25C191.227 139.316 191.574 139.281 191.889 139.151C192.205 139.02 192.474 138.798 192.663 138.515C192.853 138.231 192.954 137.898 192.954 137.557C192.954 137.33 192.909 137.105 192.822 136.895C192.734 136.685 192.606 136.494 192.444 136.334C192.283 136.173 192.091 136.046 191.88 135.96C191.669 135.874 191.443 135.83 191.215 135.832Z" fill="black"/>
<path d="M157.103 131.264C158.427 131.264 159.501 130.192 159.501 128.87C159.501 127.548 158.427 126.476 157.103 126.476C155.778 126.476 154.705 127.548 154.705 128.87C154.705 130.192 155.778 131.264 157.103 131.264Z" fill="white"/>
<path d="M157.103 131.922C156.496 131.922 155.902 131.742 155.397 131.405C154.893 131.068 154.5 130.589 154.268 130.029C154.036 129.469 153.976 128.853 154.095 128.258C154.214 127.664 154.507 127.119 154.937 126.691C155.367 126.263 155.915 125.972 156.51 125.855C157.106 125.738 157.723 125.8 158.284 126.033C158.844 126.267 159.322 126.661 159.658 127.166C159.994 127.67 160.172 128.263 160.17 128.87C160.17 129.271 160.091 129.669 159.937 130.04C159.782 130.411 159.556 130.748 159.271 131.031C158.986 131.315 158.648 131.539 158.276 131.692C157.904 131.845 157.505 131.923 157.103 131.922ZM157.103 127.134C156.759 127.134 156.423 127.236 156.137 127.426C155.851 127.617 155.628 127.888 155.496 128.205C155.365 128.522 155.33 128.871 155.398 129.208C155.465 129.545 155.63 129.854 155.873 130.097C156.117 130.339 156.426 130.505 156.764 130.572C157.101 130.639 157.45 130.604 157.768 130.473C158.086 130.342 158.357 130.119 158.548 129.834C158.739 129.548 158.841 129.213 158.841 128.87C158.841 128.409 158.658 127.968 158.332 127.642C158.006 127.317 157.564 127.134 157.103 127.134Z" fill="black"/>
<path d="M347.341 165.147C347.341 145.65 339.582 126.952 325.772 113.166C311.961 99.3798 293.23 91.6348 273.699 91.6348C254.169 91.6348 235.438 99.3798 221.627 113.166C207.817 126.952 200.058 145.65 200.058 165.147C200.058 205.743 263.008 292.99 273.699 292.99C282.243 292.99 347.341 205.743 347.341 165.147Z" fill="#1B5A96"/>
<path d="M330.844 167.301C330.844 178.546 327.503 189.538 321.245 198.888C314.987 208.238 306.092 215.525 295.685 219.828C285.278 224.131 273.826 225.257 262.778 223.063C251.73 220.87 241.582 215.455 233.616 207.504C225.651 199.552 220.227 189.422 218.029 178.393C215.832 167.364 216.959 155.933 221.27 145.544C225.581 135.155 232.881 126.276 242.247 120.028C251.613 113.781 262.625 110.447 273.889 110.447C281.383 110.394 288.813 111.828 295.748 114.666C302.682 117.505 308.981 121.691 314.281 126.981C319.58 132.271 323.773 138.56 326.617 145.481C329.46 152.403 330.897 159.82 330.844 167.301Z" fill="#FFF6EB"/>
<path d="M328.845 182.253C325.575 194.296 318.427 204.931 308.503 212.518C298.579 220.105 286.431 224.222 273.931 224.234C261.432 224.247 249.275 220.154 239.336 212.587C229.397 205.02 222.227 194.4 218.933 182.363L250.768 178.672L297.93 179.809C311.709 180.498 322.311 181.515 328.845 182.253Z" fill="#FB9100"/>
<path d="M265.516 118.885C263.038 121.878 260.58 124.87 259.101 128.441C256.004 135.912 257.293 145.397 251.617 151.193C247.22 144.905 243.267 138.319 239.787 131.483C238.131 128.556 236.698 125.508 235.5 122.366C233.651 117.17 233.052 111.624 232.502 106.138C232.083 103.205 231.983 100.235 232.203 97.2805C232.595 94.3656 233.438 91.5291 234.701 88.872C239.501 78.3573 248.05 70.0019 258.681 65.432C259.741 64.9831 261.04 64.5941 261.959 65.2824C262.317 65.643 262.586 66.0829 262.742 66.5665C262.898 67.05 262.938 67.5635 262.858 68.0652C262.785 70.7327 262.23 73.365 261.219 75.8354C273.012 67.369 287.441 63.3763 301.917 64.5742C305.004 64.8435 308.641 65.7811 309.691 68.6936C310.94 72.1348 307.692 75.4464 304.854 77.6707C309.591 79.117 315.286 76.2543 319.423 78.9873C322.041 80.7229 322.98 84.3137 322.271 87.3759C321.561 90.438 319.473 93.0613 317.155 95.1659C313.175 98.7726 308.34 101.306 303.106 102.527C295.672 104.253 287.638 103.275 280.574 106.158C274.429 108.691 269.793 113.808 265.516 118.885Z" fill="black"/>
<path d="M309.101 126.656C309.101 126.656 312.169 121.519 316.095 123.663C320.022 125.808 318.144 139.263 308.512 140.021C298.879 140.779 309.101 126.656 309.101 126.656Z" fill="#FFCFC5"/>
<path d="M307.762 140.819C305.854 140.819 304.575 140.191 303.935 138.954C302.027 135.213 307.662 127.234 308.412 126.206C308.671 125.787 310.92 122.296 314.167 122.296C314.968 122.301 315.755 122.507 316.455 122.895C318.454 123.962 319.293 127.363 318.454 131.154C317.534 135.503 314.457 140.32 308.512 140.789L307.762 140.819ZM314.167 123.932C311.729 123.932 309.821 127.044 309.801 127.074V127.134C307.522 130.266 304.335 136.041 305.444 138.216C305.564 138.455 305.934 139.213 307.802 139.213H308.462C313.458 138.814 316.126 134.645 316.925 130.874C317.554 127.882 317.035 125.099 315.716 124.391C315.248 124.107 314.714 123.948 314.167 123.932Z" fill="black"/>
<path d="M288.887 170.783L288.757 178.104L297.91 179.81C297.91 179.81 293.913 193.225 276.477 192.936C259.041 192.647 245.042 179.81 245.042 179.81L250.758 178.672L250.658 143.393C250.658 143.393 243.144 147.682 235.8 139.592C230.274 133.498 230.564 122.287 239.417 121.718C248.27 121.15 249.039 127.324 251.897 127.603C254.755 127.882 251.607 103.934 253.036 97.9389C254.465 91.9443 260.52 87.0967 269.613 87.0967C278.705 87.0967 305.904 94.3681 305.904 94.3681C309.9 99.2257 320.192 162.983 289.047 161.267L288.887 170.783Z" fill="#FFCFC5"/>
<path d="M277.017 193.764H276.507C258.971 193.474 245.112 180.956 244.533 180.428C244.421 180.326 244.339 180.195 244.297 180.05C244.255 179.905 244.255 179.751 244.295 179.605C244.335 179.459 244.415 179.328 244.526 179.225C244.637 179.122 244.774 179.051 244.923 179.021L249.978 178.024L249.889 144.659C248.571 145.129 247.181 145.369 245.782 145.367C243.134 145.367 239.147 144.47 235.24 140.161C231.683 136.231 230.364 130.266 232.103 125.977C232.683 124.505 233.688 123.239 234.99 122.339C236.292 121.438 237.833 120.945 239.417 120.92C239.817 120.92 240.216 120.92 240.596 120.92C242.383 120.849 244.162 121.204 245.785 121.955C247.407 122.706 248.828 123.831 249.929 125.239C250.428 125.921 251.091 126.466 251.857 126.825C252.646 125.498 252.337 117.728 252.127 112.521C251.877 106.347 251.647 100.552 252.287 97.809C253.955 90.8269 260.77 86.3384 269.663 86.3384C278.815 86.3384 305.054 93.3205 306.174 93.6397C306.336 93.6882 306.482 93.7815 306.593 93.909C309.711 97.6893 315.856 132.371 307.213 150.644C303.596 158.304 297.91 162.184 290.316 162.184H289.907L289.647 177.495L298.11 179.081C298.219 179.102 298.322 179.145 298.413 179.208C298.505 179.27 298.582 179.35 298.641 179.444C298.7 179.537 298.739 179.642 298.756 179.751C298.773 179.86 298.767 179.972 298.739 180.079C298.65 180.188 294.403 193.764 277.017 193.764ZM246.871 180.278C250.678 183.34 262.518 191.918 276.507 192.118C290.496 192.317 295.582 183.3 296.811 180.438L288.608 178.952C288.418 178.914 288.247 178.812 288.125 178.663C288.003 178.514 287.937 178.326 287.938 178.134L288.228 161.307C288.23 161.196 288.254 161.087 288.298 160.986C288.343 160.885 288.407 160.794 288.488 160.718C288.57 160.643 288.666 160.585 288.77 160.547C288.875 160.51 288.986 160.493 289.097 160.499C296.581 160.908 302.167 157.357 305.674 149.936C310.5 139.742 310.23 124.89 309.671 116.95C308.851 105.978 306.673 97.1308 305.444 95.1359C302.546 94.3678 278.086 87.9642 269.643 87.9642C261.539 87.9642 255.344 91.954 253.865 98.1781C253.276 100.662 253.516 106.656 253.745 112.452C254.135 122.087 254.185 126.765 252.946 128.052C252.818 128.189 252.664 128.297 252.492 128.371C252.32 128.445 252.134 128.482 251.947 128.481H251.817C250.518 128.351 249.619 127.373 248.67 126.346C247.718 125.112 246.484 124.123 245.07 123.464C243.657 122.804 242.105 122.493 240.546 122.556H239.467C238.192 122.561 236.947 122.95 235.897 123.673C234.847 124.395 234.04 125.417 233.582 126.605C232.083 130.286 233.292 135.642 236.399 139.074C239.217 142.166 242.395 143.742 245.732 143.742C247.295 143.769 248.842 143.427 250.248 142.744C250.372 142.67 250.514 142.631 250.658 142.631C250.802 142.631 250.944 142.67 251.068 142.744C251.191 142.817 251.293 142.921 251.365 143.045C251.437 143.169 251.475 143.309 251.477 143.452L251.577 178.732C251.578 178.921 251.513 179.104 251.392 179.25C251.272 179.396 251.104 179.495 250.918 179.53L246.871 180.278Z" fill="black"/>
<path d="M291.335 130.805C291.225 130.807 291.115 130.783 291.016 130.735C285.74 128.531 286.579 121.16 286.609 120.85C286.618 120.743 286.648 120.638 286.698 120.542C286.747 120.446 286.815 120.361 286.898 120.292C286.98 120.222 287.076 120.17 287.179 120.137C287.282 120.105 287.391 120.093 287.498 120.102C287.605 120.115 287.708 120.148 287.802 120.2C287.895 120.253 287.977 120.323 288.044 120.408C288.11 120.492 288.158 120.589 288.186 120.692C288.214 120.796 288.222 120.904 288.208 121.01C288.208 121.11 287.508 127.464 291.625 129.189C291.802 129.261 291.949 129.392 292.039 129.56C292.13 129.728 292.159 129.923 292.121 130.11C292.083 130.297 291.981 130.465 291.832 130.584C291.683 130.704 291.497 130.768 291.305 130.765L291.335 130.805Z" fill="black"/>
<path d="M287.668 142.525C278.096 142.525 274.809 135.433 274.769 135.363C274.679 135.165 274.671 134.939 274.748 134.735C274.825 134.531 274.98 134.366 275.178 134.276C275.377 134.186 275.603 134.179 275.808 134.255C276.012 134.332 276.177 134.486 276.267 134.685C276.417 135.004 279.815 142.186 290.456 140.67C290.672 140.639 290.891 140.696 291.066 140.827C291.24 140.957 291.355 141.152 291.385 141.368C291.416 141.583 291.359 141.802 291.228 141.976C291.097 142.15 290.902 142.265 290.686 142.295C289.687 142.442 288.678 142.519 287.668 142.525Z" fill="black"/>
<path d="M273.709 137.179C273.537 137.181 273.369 137.129 273.228 137.03C273.088 136.931 272.982 136.791 272.925 136.629C272.869 136.467 272.865 136.291 272.914 136.126C272.964 135.962 273.063 135.817 273.2 135.712L276.727 132.949C276.899 132.817 277.117 132.759 277.333 132.787C277.548 132.815 277.744 132.927 277.876 133.099C278.009 133.271 278.067 133.488 278.039 133.704C278.011 133.919 277.898 134.114 277.726 134.246L274.209 136.999C274.067 137.113 273.891 137.177 273.709 137.179Z" fill="black"/>
<path d="M250.088 136.989C249.947 136.99 249.807 136.954 249.685 136.884C249.562 136.814 249.46 136.712 249.389 136.59C245.622 130.446 242.904 129.239 241.275 129.289C239.207 129.368 238.068 131.563 238.058 131.593C237.956 131.784 237.783 131.929 237.576 131.996C237.369 132.063 237.144 132.047 236.949 131.952C236.756 131.854 236.609 131.683 236.542 131.477C236.475 131.272 236.492 131.048 236.589 130.855C236.649 130.725 238.158 127.783 241.195 127.653C244.233 127.523 247.42 130.246 250.788 135.742C250.897 135.929 250.93 136.15 250.88 136.36C250.829 136.57 250.7 136.752 250.518 136.869C250.387 136.945 250.239 136.987 250.088 136.989Z" fill="black"/>
<path d="M242.275 135.842C242.086 135.841 241.904 135.777 241.755 135.662C241.587 135.524 241.48 135.325 241.457 135.108C241.435 134.892 241.499 134.675 241.635 134.505L244.872 130.516C245.011 130.347 245.21 130.241 245.427 130.218C245.644 130.196 245.861 130.26 246.032 130.396C246.116 130.463 246.186 130.546 246.237 130.64C246.289 130.734 246.321 130.837 246.333 130.944C246.344 131.051 246.334 131.159 246.302 131.262C246.271 131.365 246.22 131.46 246.151 131.543L242.914 135.533C242.838 135.629 242.741 135.708 242.63 135.761C242.519 135.815 242.398 135.842 242.275 135.842Z" fill="black"/>
<path d="M289.577 160.209L289.417 169.725C273.03 166.374 263.188 149.557 263.188 149.557C270.819 155.49 279.959 159.18 289.577 160.209Z" fill="black"/>
<path d="M274.509 107.963C273.04 107.963 269.793 109.09 270.342 111.125C270.572 111.993 271.581 112.382 272.47 112.511C274.018 112.783 275.613 112.515 276.987 111.753C277.605 111.426 278.09 110.893 278.356 110.247C279.175 107.923 276.187 107.624 274.689 107.953" fill="black"/>
<path d="M298.17 107.704C299.629 107.704 302.876 108.841 302.337 110.876C302.107 111.733 301.098 112.122 300.208 112.252C298.658 112.526 297.061 112.262 295.682 111.504C295.065 111.173 294.585 110.636 294.323 109.988C293.504 107.664 296.491 107.375 297.99 107.704" fill="black"/>
<path d="M304.615 85.8695C308.132 87.5253 311.339 89.8593 315.046 91.0563C309.15 93.3312 302.947 94.7162 296.641 95.1658C298.46 97.5197 303.306 96.243 304.285 99.0558C304.445 99.6467 304.42 100.272 304.212 100.848C304.005 101.425 303.626 101.923 303.126 102.278C302.126 102.981 300.971 103.433 299.759 103.594C286.579 106.237 273.19 101.32 260.64 96.4924C260.951 97.9549 261.372 99.3919 261.899 100.791C262.159 101.496 262.255 102.25 262.179 102.997C262.103 103.743 261.856 104.463 261.459 105.1C260.07 106.906 257.123 106.587 255.304 105.21C252.396 103.026 251.407 98.8763 252.366 95.3752C253.488 91.881 255.833 88.9067 258.971 86.9966C265.726 82.558 274.279 82.0792 282.362 82.149C289.946 82.1989 297.75 82.6478 304.615 85.8695Z" fill="black"/>
<path d="M308.602 119.584C308.602 119.584 303.745 116.591 298.739 116.94C293.733 117.29 291.086 122.815 291.086 122.815C291.086 122.815 301.237 131.334 308.602 119.584Z" fill="white"/>
<path d="M291.086 123.633C290.934 123.632 290.786 123.591 290.656 123.514C290.564 123.457 290.484 123.384 290.421 123.297C290.357 123.209 290.312 123.111 290.287 123.006C290.262 122.901 290.257 122.793 290.275 122.686C290.292 122.58 290.33 122.478 290.386 122.387C290.526 122.147 293.963 116.571 298.66 116.123C303.356 115.674 308.761 118.736 308.991 118.866C309.086 118.917 309.169 118.986 309.236 119.069C309.304 119.153 309.354 119.249 309.384 119.352C309.413 119.455 309.422 119.563 309.41 119.67C309.397 119.776 309.364 119.879 309.311 119.973C309.207 120.163 309.033 120.304 308.825 120.366C308.617 120.428 308.393 120.405 308.202 120.302C308.142 120.302 302.856 117.369 298.819 117.748C294.933 118.117 291.825 123.184 291.825 123.234C291.751 123.363 291.643 123.468 291.512 123.539C291.381 123.609 291.234 123.642 291.086 123.633Z" fill="black"/>
<path d="M281.863 85.3908C280.974 85.5662 280.051 85.4251 279.255 84.9918C277.996 84.1041 278.196 82.1291 279.005 80.8225C279.624 79.8442 280.484 79.0406 281.503 78.4884C282.552 77.9099 283.821 77.5508 284.501 76.4935C285.42 75.0073 284.501 73.0324 284.95 71.3666C285.168 70.7851 285.508 70.257 285.947 69.8182C286.387 69.3793 286.916 69.04 287.498 68.8231C288.687 68.4012 289.916 68.1037 291.165 67.9354C292.145 67.6855 293.153 67.5681 294.163 67.5863C294.667 67.6081 295.158 67.7566 295.589 68.0182C296.021 68.2797 296.379 68.6458 296.631 69.0825C296.843 69.7202 296.841 70.4092 296.627 71.046C296.412 71.6827 295.997 72.2328 295.442 72.6134C294.315 73.348 293.117 73.9663 291.865 74.4587C291.24 74.7104 290.68 75.1008 290.228 75.6002C289.777 76.0996 289.444 76.695 289.257 77.3414C289.077 78.3388 289.487 79.3861 289.447 80.4235C289.362 81.2464 289.065 82.0334 288.585 82.708C288.106 83.3826 287.459 83.922 286.709 84.2736C285.185 84.9666 283.537 85.3465 281.863 85.3908Z" fill="black"/>
<path d="M262.378 119.584C262.378 119.584 267.235 116.591 272.231 116.94C277.227 117.29 279.884 122.815 279.884 122.815C279.884 122.815 269.733 131.334 262.378 119.584Z" fill="white"/>
<path d="M279.884 123.633C279.743 123.633 279.604 123.597 279.481 123.527C279.359 123.457 279.257 123.356 279.185 123.234C279.185 123.234 276.028 118.117 272.191 117.748C268.194 117.369 262.858 120.272 262.798 120.302C262.607 120.405 262.383 120.428 262.175 120.366C261.967 120.304 261.793 120.163 261.689 119.973C261.636 119.879 261.603 119.776 261.59 119.67C261.578 119.563 261.587 119.455 261.616 119.352C261.646 119.249 261.696 119.153 261.764 119.069C261.831 118.986 261.914 118.917 262.009 118.865C262.239 118.736 267.804 115.694 272.34 116.122C277.037 116.571 280.474 122.107 280.614 122.386C280.67 122.478 280.708 122.58 280.726 122.686C280.743 122.793 280.738 122.901 280.713 123.006C280.688 123.111 280.643 123.209 280.579 123.296C280.516 123.384 280.436 123.457 280.344 123.514C280.205 123.596 280.046 123.638 279.884 123.633Z" fill="black"/>
<path d="M272.223 124.79C274.314 124.262 275.581 122.141 275.052 120.053C274.524 117.965 272.399 116.7 270.307 117.228C268.215 117.756 266.948 119.877 267.477 121.965C268.006 124.053 270.131 125.318 272.223 124.79Z" fill="black"/>
<path d="M299.469 124.93C301.626 124.93 303.376 123.184 303.376 121.03C303.376 118.876 301.626 117.13 299.469 117.13C297.311 117.13 295.562 118.876 295.562 121.03C295.562 123.184 297.311 124.93 299.469 124.93Z" fill="black"/>
<path d="M428.386 174.732H341.115C335.924 174.732 330.945 172.674 327.274 169.009C323.603 165.345 321.541 160.375 321.541 155.192C321.541 150.01 323.603 145.04 327.274 141.375C330.945 137.711 335.924 135.652 341.115 135.652H428.386C433.577 135.652 438.556 137.711 442.227 141.375C445.898 145.04 447.96 150.01 447.96 155.192C447.96 160.375 445.898 165.345 442.227 169.009C438.556 172.674 433.577 174.732 428.386 174.732ZM341.075 137.288C338.608 137.104 336.128 137.431 333.792 138.247C331.457 139.063 329.315 140.352 327.501 142.033C325.687 143.713 324.24 145.749 323.25 148.014C322.261 150.278 321.75 152.722 321.75 155.192C321.75 157.663 322.261 160.107 323.25 162.371C324.24 164.635 325.687 166.672 327.501 168.352C329.315 170.033 331.457 171.321 333.792 172.138C336.128 172.954 338.608 173.281 341.075 173.097H428.386C430.854 173.281 433.333 172.954 435.669 172.138C438.004 171.321 440.146 170.033 441.96 168.352C443.774 166.672 445.221 164.635 446.211 162.371C447.2 160.107 447.711 157.663 447.711 155.192C447.711 152.722 447.2 150.278 446.211 148.014C445.221 145.749 443.774 143.713 441.96 142.033C440.146 140.352 438.004 139.063 435.669 138.247C433.333 137.431 430.854 137.104 428.386 137.288H341.075Z" fill="black"/>
<path d="M360.56 155.192C360.566 157.655 360.086 160.095 359.147 162.372C358.207 164.649 356.827 166.719 355.084 168.463C353.342 170.207 351.272 171.59 348.994 172.534C346.715 173.478 344.272 173.964 341.805 173.964H341.115C336.141 173.964 331.371 171.992 327.854 168.481C324.336 164.97 322.36 160.208 322.36 155.242C322.36 150.277 324.336 145.515 327.854 142.004C331.371 138.493 336.141 136.52 341.115 136.52H341.805C344.268 136.519 346.708 137.002 348.984 137.942C351.26 138.883 353.328 140.262 355.07 142.001C356.811 143.739 358.193 145.804 359.135 148.076C360.077 150.348 360.561 152.783 360.56 155.242V155.192Z" fill="#FB9100"/>
<path d="M376.427 151.023L374.329 153.187C373.679 152.549 372.803 152.19 371.891 152.19C371.544 152.186 371.202 152.265 370.892 152.419C370.761 152.485 370.652 152.586 370.577 152.712C370.503 152.837 370.466 152.982 370.472 153.128C370.468 153.273 370.509 153.416 370.59 153.538C370.67 153.659 370.786 153.753 370.922 153.806C371.465 154.02 372.027 154.184 372.6 154.295C375.078 154.853 376.317 156.037 376.317 157.845C376.359 158.428 376.247 159.012 375.99 159.537C375.734 160.063 375.344 160.511 374.859 160.838C373.814 161.517 372.588 161.864 371.341 161.835C370.383 161.835 369.43 161.677 368.524 161.366C367.678 161.099 366.906 160.642 366.265 160.03L368.414 157.766C368.765 158.179 369.204 158.51 369.697 158.735C370.191 158.961 370.728 159.076 371.271 159.072C371.62 159.086 371.966 159.003 372.271 158.833C372.404 158.749 372.512 158.631 372.585 158.492C372.657 158.352 372.69 158.195 372.681 158.038C372.672 157.881 372.62 157.73 372.532 157.599C372.444 157.469 372.323 157.364 372.181 157.297C371.594 157.053 370.985 156.866 370.362 156.738C368.104 156.213 366.975 155.086 366.975 153.357C366.946 152.786 367.066 152.218 367.324 151.707C367.581 151.197 367.967 150.761 368.444 150.444C369.439 149.779 370.613 149.431 371.811 149.447C373.496 149.359 375.149 149.923 376.427 151.023Z" fill="black"/>
<path d="M390.106 155.711C390.106 156.13 390.106 156.439 390.106 156.629H381.663C381.694 156.938 381.791 157.237 381.948 157.506C382.105 157.774 382.318 158.006 382.572 158.185C383.103 158.606 383.763 158.832 384.441 158.823C384.938 158.85 385.434 158.753 385.884 158.54C386.334 158.328 386.724 158.007 387.019 157.606L389.687 159.282C389.091 160.112 388.293 160.775 387.367 161.21C386.442 161.645 385.421 161.836 384.401 161.766C382.721 161.818 381.085 161.23 379.825 160.12C379.207 159.55 378.722 158.852 378.405 158.074C378.087 157.297 377.944 156.46 377.986 155.621C377.951 154.785 378.092 153.951 378.4 153.173C378.708 152.394 379.177 151.689 379.775 151.103C380.374 150.533 381.082 150.088 381.855 149.793C382.629 149.499 383.453 149.361 384.281 149.387C385.067 149.354 385.851 149.488 386.582 149.781C387.312 150.073 387.972 150.517 388.518 151.083C389.638 152.356 390.209 154.02 390.106 155.711ZM381.643 154.245H386.579C386.594 153.943 386.545 153.641 386.434 153.359C386.323 153.078 386.153 152.823 385.935 152.613C385.718 152.402 385.457 152.24 385.172 152.138C384.887 152.036 384.583 151.996 384.281 152.02C383.614 152.004 382.964 152.239 382.462 152.679C382.228 152.872 382.035 153.11 381.894 153.379C381.754 153.648 381.668 153.942 381.643 154.245Z" fill="black"/>
<path d="M394.133 153.427L392.195 151.342C393.59 150.017 395.455 149.3 397.381 149.347C398.133 149.274 398.893 149.367 399.606 149.619C400.319 149.87 400.968 150.275 401.507 150.804C402.448 152.178 402.885 153.833 402.746 155.492V161.347H399.229V160.11H399.159C398.845 160.61 398.379 160.998 397.83 161.217C397.203 161.5 396.52 161.639 395.832 161.626C395.176 161.632 394.524 161.527 393.903 161.317C393.269 161.079 392.715 160.668 392.305 160.13C391.823 159.521 391.575 158.76 391.605 157.985C391.605 155.372 394.093 154.065 399.089 154.065V153.876C399.102 153.636 399.054 153.396 398.952 153.178C398.849 152.961 398.693 152.772 398.5 152.629C398.055 152.322 397.521 152.168 396.981 152.19C395.907 152.217 394.885 152.66 394.133 153.427ZM399.229 156.719V156.32H398.739C396.351 156.32 395.162 156.848 395.162 157.906C395.155 158.085 395.197 158.264 395.283 158.422C395.369 158.58 395.497 158.712 395.652 158.803C396.006 159.009 396.411 159.113 396.821 159.102C397.143 159.133 397.468 159.092 397.773 158.984C398.077 158.875 398.354 158.701 398.584 158.473C398.814 158.246 398.991 157.971 399.102 157.667C399.213 157.364 399.257 157.04 399.229 156.719Z" fill="black"/>
<path d="M413.318 149.527L413.148 152.888C412.822 152.803 412.486 152.763 412.149 152.769C411.762 152.74 411.375 152.803 411.017 152.952C410.659 153.101 410.342 153.332 410.09 153.626C409.664 154.125 409.424 154.756 409.411 155.412V161.397H405.574V149.756H409.271V151.442H409.321C409.604 150.842 410.051 150.334 410.61 149.976C411.166 149.614 411.815 149.423 412.478 149.427C412.762 149.415 413.045 149.449 413.318 149.527Z" fill="black"/>
<path d="M424.689 150.953L422.46 153.517C422.237 153.217 421.937 152.983 421.591 152.839C421.227 152.675 420.832 152.59 420.432 152.589C420.054 152.57 419.677 152.638 419.331 152.789C418.984 152.939 418.677 153.168 418.434 153.457C417.933 154.046 417.666 154.799 417.684 155.572C417.664 156.342 417.932 157.091 418.434 157.676C418.68 157.962 418.987 158.188 419.333 158.338C419.679 158.488 420.055 158.559 420.432 158.544C420.823 158.567 421.215 158.501 421.577 158.351C421.938 158.201 422.261 157.97 422.52 157.676L424.649 160.27C424.065 160.791 423.384 161.191 422.645 161.448C421.906 161.705 421.123 161.813 420.342 161.766C418.624 161.825 416.949 161.221 415.666 160.08C414.482 158.885 413.818 157.272 413.818 155.592C413.818 153.911 414.482 152.298 415.666 151.103C416.934 149.955 418.6 149.343 420.312 149.397C421.144 149.397 421.969 149.542 422.75 149.826C423.475 150.047 424.139 150.433 424.689 150.953Z" fill="black"/>
<path d="M437.738 161.387H433.881V155.083C433.881 153.447 433.312 152.629 432.173 152.629C431.882 152.619 431.594 152.677 431.33 152.798C431.066 152.919 430.835 153.101 430.654 153.327C430.266 153.836 430.068 154.464 430.094 155.103V161.387H426.257V143.732H430.094V151.233C430.409 150.699 430.861 150.258 431.403 149.956C432.011 149.608 432.701 149.426 433.402 149.427C434.013 149.379 434.627 149.481 435.19 149.724C435.752 149.968 436.247 150.345 436.629 150.824C437.324 151.808 437.675 152.992 437.628 154.195L437.738 161.387Z" fill="black"/>
<path d="M343.624 161.367C341.681 161.367 339.782 160.792 338.167 159.714C336.551 158.637 335.292 157.106 334.549 155.314C333.806 153.522 333.611 151.551 333.99 149.649C334.369 147.747 335.305 146 336.678 144.629C338.052 143.257 339.802 142.324 341.707 141.945C343.613 141.567 345.588 141.761 347.382 142.503C349.177 143.245 350.711 144.502 351.79 146.114C352.87 147.727 353.446 149.623 353.446 151.562C353.443 154.161 352.407 156.654 350.566 158.492C348.725 160.33 346.228 161.364 343.624 161.367ZM343.624 145.028C342.329 145.028 341.064 145.412 339.987 146.13C338.911 146.847 338.072 147.868 337.577 149.062C337.082 150.255 336.952 151.569 337.205 152.836C337.457 154.104 338.08 155.268 338.996 156.182C339.911 157.095 341.077 157.717 342.347 157.97C343.616 158.222 344.932 158.092 346.128 157.598C347.324 157.103 348.346 156.266 349.065 155.191C349.784 154.117 350.168 152.854 350.168 151.562C350.163 149.832 349.471 148.174 348.245 146.951C347.018 145.729 345.357 145.041 343.624 145.038V145.028Z" fill="#FFF6EB"/>
<path d="M331.913 168.628C331.529 168.632 331.156 168.497 330.864 168.249C330.698 168.112 330.562 167.943 330.462 167.753C330.362 167.562 330.3 167.354 330.281 167.14C330.261 166.926 330.284 166.711 330.348 166.506C330.412 166.301 330.516 166.11 330.654 165.945L337.588 157.656C337.868 157.323 338.269 157.114 338.702 157.076C338.917 157.057 339.134 157.08 339.339 157.145C339.545 157.209 339.736 157.314 339.901 157.452C340.067 157.59 340.203 157.759 340.303 157.95C340.403 158.141 340.464 158.349 340.483 158.564C340.502 158.778 340.478 158.994 340.414 159.2C340.349 159.405 340.245 159.596 340.106 159.761L333.172 168.04C333.018 168.224 332.825 168.372 332.608 168.474C332.39 168.575 332.153 168.628 331.913 168.628Z" fill="#FFF6EB"/>
<path d="M219.912 239.178H206.433L198.19 224.046L182.592 239.008L182.932 239.178H132.522C130.872 239.205 129.296 239.868 128.123 241.028C126.95 242.188 126.271 243.754 126.227 245.402V283.873C126.256 284.666 126.441 285.446 126.774 286.167C127.107 286.888 127.58 287.535 128.166 288.072C128.752 288.608 129.439 289.023 130.186 289.292C130.934 289.561 131.728 289.679 132.522 289.639H219.912C220.683 289.667 221.452 289.539 222.171 289.26C222.89 288.982 223.545 288.56 224.095 288.02C224.645 287.48 225.079 286.834 225.37 286.121C225.661 285.408 225.803 284.643 225.788 283.873V245.402C225.82 244.606 225.692 243.812 225.413 243.066C225.134 242.32 224.708 241.637 224.161 241.057C223.613 240.477 222.956 240.012 222.226 239.69C221.497 239.367 220.71 239.193 219.912 239.178Z" fill="#FB9100"/>
<path d="M219.912 290.307H132.522C128.526 290.307 125.378 287.524 125.378 283.874V245.402C125.415 243.513 126.177 241.71 127.506 240.365C128.835 239.019 130.631 238.234 132.522 238.17H182.083L197.62 223.358C197.716 223.278 197.829 223.222 197.951 223.195C198.072 223.167 198.199 223.168 198.32 223.199C198.437 223.202 198.552 223.234 198.655 223.291C198.758 223.348 198.845 223.43 198.909 223.528L206.903 238.17H219.892C223.659 238.17 226.447 241.532 226.447 245.402V283.874C226.476 284.734 226.326 285.591 226.006 286.39C225.687 287.189 225.205 287.914 224.591 288.519C223.977 289.123 223.244 289.594 222.439 289.902C221.634 290.209 220.774 290.348 219.912 290.307ZM132.522 239.856C131.042 239.904 129.632 240.497 128.564 241.521C127.496 242.545 126.845 243.927 126.737 245.402V283.874C126.737 286.607 129.465 288.791 132.522 288.791H219.912C220.583 288.829 221.253 288.73 221.884 288.5C222.514 288.27 223.091 287.914 223.578 287.453C224.066 286.993 224.454 286.438 224.718 285.822C224.983 285.207 225.119 284.544 225.118 283.874V245.402C225.143 243.983 224.614 242.611 223.642 241.575C222.67 240.54 221.332 239.923 219.912 239.856H206.433C206.294 239.873 206.152 239.85 206.025 239.79C205.898 239.73 205.79 239.635 205.714 239.517L197.98 225.353L183.741 239.048C183.761 239.133 183.761 239.222 183.741 239.308C183.693 239.478 183.587 239.626 183.441 239.726C183.295 239.826 183.118 239.872 182.942 239.856H132.522Z" fill="black"/>
<path d="M146.411 265.341C151.692 265.341 155.974 261.067 155.974 255.795C155.974 250.523 151.692 246.25 146.411 246.25C141.13 246.25 136.849 250.523 136.849 255.795C136.849 261.067 141.13 265.341 146.411 265.341Z" fill="#1B5A96"/>
<path d="M151.497 260.743H140.906C140.906 260.743 142.524 255.336 146.271 255.336C150.018 255.336 151.497 260.743 151.497 260.743Z" fill="white"/>
<path d="M146.281 254.498C147.871 254.498 149.159 253.212 149.159 251.626C149.159 250.039 147.871 248.753 146.281 248.753C144.692 248.753 143.404 250.039 143.404 251.626C143.404 253.212 144.692 254.498 146.281 254.498Z" fill="white"/>
<path d="M186.579 258.149H161.529C160.88 258.149 160.257 257.892 159.798 257.433C159.339 256.975 159.081 256.354 159.081 255.705C159.081 255.057 159.339 254.436 159.798 253.977C160.257 253.519 160.88 253.262 161.529 253.262H186.579C187.228 253.262 187.851 253.519 188.31 253.977C188.769 254.436 189.027 255.057 189.027 255.705C189.027 256.354 188.769 256.975 188.31 257.433C187.851 257.892 187.228 258.149 186.579 258.149Z" fill="#1B5A96"/>
<path d="M171.531 272.832H140.896C140.484 272.799 140.1 272.614 139.82 272.311C139.54 272.009 139.385 271.612 139.385 271.201C139.385 270.789 139.54 270.392 139.82 270.09C140.1 269.788 140.484 269.602 140.896 269.57H171.531C171.756 269.552 171.983 269.581 172.196 269.655C172.41 269.729 172.606 269.847 172.772 270C172.938 270.153 173.07 270.339 173.16 270.545C173.251 270.752 173.298 270.975 173.298 271.201C173.298 271.426 173.251 271.649 173.16 271.856C173.07 272.063 172.938 272.249 172.772 272.402C172.606 272.555 172.41 272.672 172.196 272.746C171.983 272.82 171.756 272.849 171.531 272.832Z" fill="#FFF6EB"/>
<path d="M214.946 272.423H180.194C179.585 272.423 179.085 271.695 179.085 270.787C179.085 269.879 179.585 269.161 180.194 269.161H214.946C215.556 269.161 216.056 269.889 216.056 270.787C216.056 271.685 215.556 272.423 214.946 272.423Z" fill="#FFF6EB"/>
<path d="M196.651 281.19H140.086C139.861 281.208 139.635 281.178 139.421 281.105C139.208 281.031 139.012 280.913 138.846 280.76C138.68 280.607 138.548 280.421 138.457 280.215C138.366 280.008 138.32 279.785 138.32 279.559C138.32 279.334 138.366 279.11 138.457 278.904C138.548 278.697 138.68 278.511 138.846 278.358C139.012 278.205 139.208 278.088 139.421 278.014C139.635 277.94 139.861 277.911 140.086 277.928H196.651C197.062 277.96 197.446 278.146 197.726 278.448C198.006 278.751 198.162 279.147 198.162 279.559C198.162 279.971 198.006 280.367 197.726 280.67C197.446 280.972 197.062 281.158 196.651 281.19Z" fill="#FFF6EB"/>
<path d="M212.009 31.8079L214.876 37.6131C214.982 37.8246 215.137 38.0077 215.328 38.1466C215.519 38.2855 215.742 38.3763 215.976 38.411L222.4 39.3487C222.67 39.3876 222.923 39.5011 223.131 39.6762C223.339 39.8512 223.494 40.081 223.578 40.3394C223.663 40.5978 223.673 40.8745 223.608 41.1384C223.542 41.4022 223.405 41.6426 223.21 41.8323L218.554 46.3507C218.384 46.5148 218.257 46.7178 218.184 46.9421C218.111 47.1664 218.093 47.4051 218.134 47.6375L219.223 54.0211C219.269 54.2892 219.24 54.565 219.137 54.8171C219.035 55.0692 218.863 55.2875 218.643 55.4475C218.422 55.6074 218.161 55.7024 217.89 55.7218C217.618 55.7412 217.346 55.6842 217.105 55.5572L211.369 52.5649C211.159 52.4564 210.926 52.3998 210.69 52.3998C210.453 52.3998 210.22 52.4564 210.01 52.5649L204.265 55.5572C204.024 55.6842 203.752 55.7412 203.48 55.7218C203.208 55.7024 202.947 55.6074 202.727 55.4475C202.506 55.2875 202.335 55.0692 202.233 54.8171C202.13 54.565 202.1 54.2892 202.147 54.0211L203.246 47.6375C203.284 47.4051 203.265 47.1671 203.192 46.9433C203.119 46.7194 202.994 46.5163 202.826 46.3507L198.18 41.8323C197.985 41.6426 197.847 41.4022 197.782 41.1384C197.717 40.8745 197.727 40.5978 197.811 40.3394C197.895 40.081 198.05 39.8512 198.259 39.6762C198.467 39.5011 198.72 39.3876 198.989 39.3487L205.404 38.411C205.639 38.3779 205.862 38.2878 206.053 38.1487C206.245 38.0096 206.399 37.8257 206.503 37.6131L209.381 31.8079C209.5 31.5612 209.687 31.353 209.919 31.2073C210.152 31.0617 210.42 30.9844 210.695 30.9844C210.969 30.9844 211.238 31.0617 211.471 31.2073C211.703 31.353 211.89 31.5612 212.009 31.8079Z" fill="#FB9100"/>
<path d="M240.536 31.8079L243.404 37.6131C243.51 37.8236 243.666 38.0058 243.857 38.1445C244.048 38.2833 244.269 38.3746 244.503 38.411L250.928 39.3486C251.197 39.3876 251.45 39.5011 251.658 39.6761C251.866 39.8512 252.021 40.0809 252.106 40.3393C252.19 40.5977 252.2 40.8745 252.135 41.1383C252.07 41.4022 251.932 41.6425 251.737 41.8323L247.091 46.3507C246.923 46.5163 246.797 46.7194 246.724 46.9432C246.651 47.1671 246.633 47.4051 246.671 47.6374L247.77 54.0211C247.817 54.2892 247.787 54.5649 247.684 54.817C247.582 55.0691 247.411 55.2875 247.19 55.4474C246.97 55.6073 246.709 55.7024 246.437 55.7218C246.165 55.7412 245.893 55.6842 245.652 55.5572L239.906 52.5648C239.696 52.4564 239.463 52.3998 239.227 52.3998C238.991 52.3998 238.758 52.4564 238.548 52.5648L232.802 55.5572C232.561 55.6842 232.289 55.7412 232.017 55.7218C231.745 55.7024 231.484 55.6073 231.264 55.4474C231.043 55.2875 230.872 55.0691 230.77 54.817C230.667 54.5649 230.637 54.2892 230.684 54.0211L231.783 47.6374C231.823 47.4051 231.806 47.1663 231.733 46.9421C231.66 46.7178 231.533 46.5148 231.363 46.3507L226.717 41.8323C226.509 41.6431 226.361 41.3982 226.29 41.1269C226.218 40.8556 226.227 40.5694 226.315 40.3029C226.402 40.0363 226.565 39.8007 226.783 39.6244C227.002 39.448 227.267 39.3384 227.546 39.3087L233.971 38.3711C234.205 38.3347 234.426 38.2434 234.617 38.1046C234.808 37.9659 234.964 37.7837 235.07 37.5732L237.938 31.768C238.064 31.531 238.253 31.3333 238.484 31.1968C238.716 31.0603 238.98 30.9902 239.249 30.9943C239.518 30.9984 239.78 31.0766 240.007 31.2202C240.234 31.3637 240.417 31.5671 240.536 31.8079Z" fill="#FB9100"/>
<path d="M270.932 31.8078L273.799 37.613C273.903 37.8255 274.058 38.0094 274.249 38.1486C274.441 38.2877 274.664 38.3778 274.899 38.4109L281.313 39.3485C281.583 39.3875 281.836 39.5009 282.044 39.676C282.252 39.8511 282.407 40.0808 282.491 40.3392C282.576 40.5976 282.586 40.8744 282.521 41.1382C282.455 41.402 282.318 41.6424 282.123 41.8322L277.506 46.3506C277.339 46.5161 277.213 46.7193 277.14 46.9431C277.067 47.167 277.049 47.405 277.087 47.6373L278.186 54.021C278.232 54.2891 278.203 54.5648 278.1 54.8169C277.998 55.069 277.826 55.2874 277.606 55.4473C277.385 55.6072 277.124 55.7023 276.852 55.7217C276.581 55.7411 276.309 55.684 276.068 55.5571L270.332 52.5647C270.122 52.4563 269.889 52.3997 269.653 52.3997C269.416 52.3997 269.183 52.4563 268.973 52.5647L263.228 55.5571C262.987 55.684 262.715 55.7411 262.443 55.7217C262.171 55.7023 261.91 55.6072 261.69 55.4473C261.469 55.2874 261.298 55.069 261.195 54.8169C261.093 54.5648 261.063 54.2891 261.11 54.021L262.209 47.6373C262.247 47.405 262.228 47.167 262.155 46.9431C262.082 46.7193 261.957 46.5161 261.789 46.3506L257.143 41.8322C256.936 41.6462 256.788 41.4053 256.714 41.1379C256.64 40.8704 256.644 40.5874 256.726 40.3223C256.808 40.0572 256.964 39.821 257.176 39.6414C257.388 39.4618 257.647 39.3463 257.922 39.3086L264.337 38.371C264.572 38.3379 264.794 38.2478 264.986 38.1087C265.178 37.9695 265.332 37.7856 265.436 37.5731L268.304 31.7679C268.429 31.526 268.62 31.3239 268.854 31.1842C269.089 31.0444 269.357 30.9726 269.63 30.9767C269.903 30.9809 270.169 31.0608 270.399 31.2076C270.629 31.3544 270.814 31.5622 270.932 31.8078Z" fill="#FB9100"/>
<path d="M299.489 31.8079L302.357 37.6131C302.462 37.8246 302.617 38.0076 302.808 38.1466C302.999 38.2855 303.222 38.3762 303.456 38.411L309.881 39.3486C310.15 39.3876 310.403 39.5011 310.611 39.6761C310.819 39.8512 310.974 40.0809 311.058 40.3393C311.143 40.5977 311.153 40.8745 311.088 41.1383C311.023 41.4022 310.885 41.6425 310.69 41.8323L306.044 46.3507C305.874 46.5148 305.747 46.7178 305.674 46.9421C305.601 47.1663 305.583 47.4051 305.624 47.6374L306.713 54.0211C306.76 54.2892 306.73 54.5649 306.627 54.817C306.525 55.0691 306.353 55.2875 306.133 55.4474C305.912 55.6073 305.651 55.7024 305.38 55.7218C305.108 55.7412 304.836 55.6842 304.595 55.5572L298.859 52.5648C298.649 52.4564 298.416 52.3998 298.18 52.3998C297.943 52.3998 297.71 52.4564 297.5 52.5648L291.755 55.5572C291.514 55.6842 291.242 55.7412 290.97 55.7218C290.698 55.7024 290.437 55.6073 290.217 55.4474C289.996 55.2875 289.825 55.0691 289.723 54.817C289.62 54.5649 289.59 54.2892 289.637 54.0211L290.736 47.6374C290.774 47.4051 290.755 47.1671 290.682 46.9432C290.609 46.7194 290.484 46.5163 290.316 46.3507L285.67 41.8323C285.462 41.6431 285.314 41.3982 285.243 41.1269C285.171 40.8556 285.18 40.5694 285.267 40.3029C285.355 40.0363 285.518 39.8007 285.736 39.6244C285.955 39.448 286.22 39.3384 286.499 39.3087L292.914 38.3711C293.149 38.338 293.372 38.2479 293.563 38.1088C293.755 37.9697 293.909 37.7857 294.013 37.5732L296.891 31.768C297.017 31.531 297.206 31.3333 297.437 31.1968C297.669 31.0603 297.933 30.9902 298.202 30.9943C298.471 30.9984 298.733 31.0766 298.96 31.2202C299.187 31.3637 299.37 31.5671 299.489 31.8079Z" fill="#FB9100"/>
<path d="M329.845 31.808L332.722 37.6131C332.826 37.8257 332.981 38.0096 333.172 38.1487C333.364 38.2878 333.587 38.3779 333.821 38.4111L340.236 39.3487C340.506 39.3877 340.759 39.5011 340.967 39.6762C341.175 39.8513 341.33 40.081 341.414 40.3394C341.498 40.5978 341.509 40.8745 341.443 41.1384C341.378 41.4022 341.24 41.6426 341.046 41.8323L336.399 46.3508C336.232 46.5163 336.106 46.7195 336.033 46.9433C335.96 47.1671 335.942 47.4051 335.98 47.6375L337.079 54.0212C337.125 54.2893 337.095 54.565 336.993 54.8171C336.89 55.0692 336.719 55.2876 336.499 55.4475C336.278 55.6074 336.017 55.7024 335.745 55.7218C335.473 55.7412 335.202 55.6842 334.96 55.5572L329.215 52.5649C329.005 52.4564 328.772 52.3998 328.536 52.3998C328.299 52.3998 328.066 52.4564 327.856 52.5649L322.121 55.5572C321.88 55.6842 321.608 55.7412 321.336 55.7218C321.064 55.7024 320.803 55.6074 320.583 55.4475C320.362 55.2876 320.191 55.0692 320.088 54.8171C319.986 54.565 319.956 54.2893 320.002 54.0212L321.092 47.6375C321.132 47.4051 321.115 47.1664 321.042 46.9421C320.969 46.7178 320.842 46.5148 320.672 46.3508L316.026 41.8323C315.831 41.6426 315.693 41.4022 315.628 41.1384C315.563 40.8745 315.573 40.5978 315.657 40.3394C315.741 40.081 315.896 39.8513 316.104 39.6762C316.312 39.5011 316.566 39.3877 316.835 39.3487L323.26 38.4111C323.494 38.3763 323.716 38.2856 323.907 38.1466C324.099 38.0077 324.254 37.8247 324.359 37.6131L327.227 31.808C327.347 31.5639 327.533 31.3583 327.765 31.2146C327.996 31.0708 328.263 30.9946 328.536 30.9946C328.808 30.9946 329.075 31.0708 329.307 31.2146C329.538 31.3583 329.724 31.5639 329.845 31.808Z" fill="#FB9100"/>
<path d="M351.247 203.768L373.26 179.61L374.929 211.927L366.565 205.663L361.629 220.306L357.333 218.859L362.349 203.958L351.247 203.768Z" fill="#1B5A96"/>
<path d="M412.239 257.62C412.239 257.62 398.25 257.231 391.455 256.762C388.238 246.858 382.193 242.938 381.223 233.572C380.734 228.764 373.42 229.981 373.09 235.218C372.76 240.454 377.337 251.626 373.609 251.765C369.882 251.905 359.381 251.685 359.381 251.685L360.68 254.678C357.532 255.615 355.244 256.513 355.244 256.513C355.244 256.513 353.616 283.813 359.331 286.357C365.046 288.9 387.309 285.768 387.508 285.728C393.673 285.938 411.619 286.726 411.619 286.726L412.239 257.62Z" fill="#FFCFC5"/>
<path d="M367.434 288.162C363.358 288.162 360.6 287.823 358.991 287.105C356.273 285.898 354.755 280.472 354.325 270.517C354.015 263.415 354.425 256.553 354.425 256.463C354.434 256.307 354.488 256.156 354.58 256.029C354.672 255.902 354.799 255.803 354.944 255.745C355.034 255.745 356.883 254.997 359.561 254.169L358.631 252.015C358.575 251.888 358.552 251.749 358.565 251.612C358.577 251.474 358.624 251.341 358.701 251.227C358.78 251.114 358.884 251.023 359.006 250.96C359.128 250.898 359.264 250.866 359.401 250.868C359.461 250.868 365.566 250.997 370.062 250.997C371.601 250.997 372.78 250.997 373.579 250.997C373.651 251.003 373.723 250.991 373.789 250.963C373.855 250.936 373.913 250.893 373.959 250.838C374.709 249.84 373.959 246.08 373.31 243.028C372.675 240.472 372.339 237.851 372.311 235.218C372.386 233.768 373.01 232.4 374.056 231.392C375.102 230.383 376.492 229.807 377.946 229.782C378.99 229.743 380.007 230.114 380.78 230.815C381.553 231.516 382.021 232.491 382.083 233.532C382.612 238.639 384.661 242.01 387.079 245.91C389.155 249.076 390.852 252.474 392.135 256.034C398.999 256.483 412.209 256.852 412.348 256.852C412.456 256.855 412.562 256.879 412.661 256.922C412.759 256.966 412.848 257.028 412.922 257.106C412.996 257.184 413.054 257.275 413.093 257.376C413.132 257.476 413.151 257.583 413.148 257.69L412.518 286.816C412.518 286.926 412.494 287.036 412.45 287.137C412.405 287.238 412.34 287.329 412.259 287.404C412.178 287.478 412.084 287.536 411.981 287.574C411.878 287.611 411.769 287.628 411.659 287.624C411.479 287.624 393.793 286.806 387.628 286.626C380.932 287.52 374.189 288.033 367.434 288.162ZM356.034 257.092C355.464 267.465 355.944 283.953 359.661 285.609C360.6 286.028 362.718 286.526 367.434 286.526C374.121 286.375 380.794 285.838 387.418 284.92H387.558C392.904 285.1 407.223 285.738 410.85 285.918L411.439 258.438C408.342 258.348 397.201 257.999 391.455 257.6C391.292 257.589 391.135 257.529 391.007 257.428C390.879 257.326 390.784 257.188 390.736 257.032C389.472 253.403 387.767 249.943 385.66 246.728C383.282 242.828 381.034 239.148 380.474 233.672C380.465 233.356 380.393 233.045 380.261 232.758C380.129 232.471 379.94 232.213 379.706 232.001C379.471 231.788 379.196 231.625 378.898 231.522C378.599 231.418 378.282 231.376 377.966 231.397C376.93 231.419 375.941 231.833 375.199 232.555C374.457 233.277 374.017 234.254 373.969 235.287C374.02 237.778 374.356 240.254 374.968 242.669C375.798 246.748 376.517 250.269 375.298 251.815C375.11 252.062 374.866 252.262 374.587 252.399C374.308 252.536 374.001 252.606 373.689 252.603C372.88 252.603 371.691 252.653 370.112 252.653C366.845 252.653 362.738 252.583 360.69 252.543L361.489 254.379C361.536 254.484 361.561 254.598 361.561 254.713C361.561 254.828 361.536 254.942 361.489 255.047C361.439 255.151 361.367 255.243 361.28 255.319C361.192 255.394 361.09 255.451 360.98 255.486C358.671 256.134 356.863 256.753 356.034 257.092Z" fill="black"/>
<path d="M358.492 283.265C358.496 283.232 358.496 283.198 358.492 283.165C358.492 282.995 358.432 266.328 358.991 260.323C358.986 260.237 358.95 260.156 358.89 260.094C358.829 260.032 358.749 259.994 358.662 259.987C358.576 259.98 358.49 260.004 358.42 260.055C358.351 260.105 358.301 260.18 358.282 260.264C357.722 266.298 357.782 282.995 357.782 283.205C357.782 283.251 357.791 283.296 357.809 283.339C357.826 283.381 357.852 283.419 357.885 283.452C357.917 283.484 357.956 283.51 357.998 283.527C358.04 283.545 358.086 283.554 358.132 283.554C358.217 283.558 358.3 283.53 358.366 283.477C358.433 283.424 358.477 283.348 358.492 283.265Z" fill="#3C251D"/>
<path d="M358.442 264.064C358.453 264.025 358.453 263.983 358.442 263.944C358.444 263.907 358.439 263.87 358.427 263.835C358.415 263.8 358.395 263.768 358.37 263.741C358.345 263.714 358.314 263.692 358.28 263.677C358.246 263.663 358.209 263.655 358.172 263.655L349.988 263.176C349.914 263.176 349.843 263.206 349.791 263.258C349.738 263.31 349.709 263.381 349.709 263.456C349.709 263.53 349.738 263.601 349.791 263.653C349.843 263.705 349.914 263.735 349.988 263.735L358.172 264.214C358.227 264.218 358.281 264.206 358.329 264.179C358.377 264.153 358.416 264.113 358.442 264.064Z" fill="#3C251D"/>
<path d="M349.649 251.476L363.088 251.845C364.317 251.959 365.454 252.541 366.265 253.469C367.076 254.397 367.498 255.602 367.444 256.832C367.491 257.832 367.208 258.82 366.64 259.645C366.072 260.47 365.249 261.086 364.297 261.401C365.293 261.746 366.155 262.397 366.758 263.26C367.361 264.124 367.675 265.156 367.654 266.208C367.677 267.007 367.499 267.798 367.138 268.51C366.777 269.222 366.243 269.833 365.586 270.288C366.313 270.756 366.91 271.4 367.321 272.161C367.731 272.921 367.942 273.773 367.934 274.637C367.98 275.649 367.69 276.648 367.108 277.478C366.526 278.308 365.685 278.922 364.717 279.225C365.378 279.645 365.921 280.226 366.295 280.914C366.669 281.601 366.862 282.373 366.855 283.155C366.89 283.69 366.817 284.226 366.64 284.732C366.463 285.237 366.186 285.702 365.825 286.099C365.464 286.496 365.027 286.816 364.54 287.04C364.052 287.264 363.524 287.388 362.988 287.404L350.938 287.065C350.39 287.051 349.853 286.911 349.369 286.656C348.651 286.252 348.056 285.663 347.645 284.951C347.233 284.238 347.021 283.429 347.031 282.606C347.008 281.845 347.19 281.091 347.557 280.423C347.924 279.755 348.464 279.197 349.119 278.806C348.885 278.741 348.658 278.654 348.44 278.547C347.636 278.096 346.97 277.438 346.509 276.641C346.048 275.844 345.811 274.938 345.822 274.018C345.8 273.219 345.979 272.428 346.342 271.715C346.705 271.003 347.241 270.392 347.9 269.939C347.173 269.47 346.576 268.826 346.164 268.066C345.751 267.306 345.538 266.454 345.542 265.59C345.499 264.591 345.783 263.605 346.35 262.78C346.918 261.956 347.739 261.339 348.689 261.022C348.432 260.957 348.183 260.859 347.95 260.732C347.147 260.285 346.48 259.629 346.02 258.833C345.561 258.037 345.327 257.132 345.342 256.214C345.3 255.618 345.379 255.019 345.575 254.454C345.771 253.889 346.08 253.37 346.482 252.927C346.884 252.485 347.372 252.128 347.917 251.878C348.461 251.629 349.05 251.492 349.649 251.476Z" fill="#FFCFC5"/>
<path d="M363.088 288.222H362.968L350.918 287.883C350.246 287.862 349.587 287.692 348.989 287.384C348.139 286.91 347.433 286.216 346.944 285.376C346.456 284.535 346.202 283.579 346.211 282.607C346.192 281.27 346.681 279.976 347.58 278.986C346.775 278.428 346.119 277.682 345.67 276.813C345.22 275.943 344.991 274.977 345.002 273.999C344.973 272.486 345.544 271.023 346.591 269.929C346.003 269.364 345.535 268.688 345.214 267.939C344.893 267.19 344.726 266.385 344.723 265.57C344.707 264.694 344.894 263.827 345.268 263.035C345.642 262.242 346.194 261.547 346.881 261.002C346.141 260.436 345.542 259.706 345.131 258.87C344.72 258.035 344.509 257.115 344.513 256.184C344.495 254.649 345.084 253.169 346.152 252.065C346.593 251.612 347.122 251.251 347.705 251.004C348.288 250.758 348.915 250.63 349.549 250.628H349.679L363.108 250.997C364.548 251.122 365.885 251.791 366.846 252.869C367.807 253.947 368.317 255.351 368.274 256.793C368.287 257.669 368.098 258.537 367.722 259.329C367.346 260.121 366.793 260.816 366.106 261.361C366.849 261.925 367.45 262.654 367.861 263.49C368.272 264.326 368.482 265.247 368.474 266.179C368.502 267.683 367.935 269.139 366.895 270.228C367.484 270.794 367.952 271.472 368.272 272.223C368.591 272.974 368.755 273.781 368.753 274.597C368.778 275.546 368.56 276.486 368.121 277.329C367.683 278.171 367.037 278.889 366.245 279.415C367.167 280.427 367.677 281.747 367.674 283.115C367.688 283.809 367.563 284.499 367.307 285.144C367.052 285.79 366.67 286.378 366.186 286.876C365.786 287.296 365.306 287.631 364.774 287.862C364.241 288.094 363.668 288.216 363.088 288.222ZM349.549 252.314C349.128 252.322 348.713 252.414 348.328 252.586C347.944 252.757 347.598 253.004 347.311 253.312C346.929 253.709 346.632 254.178 346.434 254.692C346.237 255.206 346.144 255.754 346.162 256.304C346.147 257.073 346.341 257.833 346.723 258.501C347.104 259.17 347.659 259.724 348.33 260.104C348.521 260.194 348.718 260.271 348.919 260.334C349.088 260.384 349.235 260.488 349.34 260.629C349.445 260.77 349.502 260.941 349.502 261.117C349.502 261.292 349.445 261.463 349.34 261.604C349.235 261.745 349.088 261.849 348.919 261.9C348.141 262.17 347.472 262.684 347.011 263.365C346.55 264.047 346.322 264.859 346.361 265.68C346.361 266.407 346.543 267.123 346.892 267.761C347.242 268.399 347.746 268.939 348.36 269.331C348.476 269.405 348.572 269.507 348.64 269.627C348.708 269.747 348.745 269.881 348.749 270.019C348.75 270.156 348.716 270.292 348.649 270.412C348.583 270.533 348.486 270.634 348.37 270.707C347.824 271.087 347.381 271.597 347.083 272.191C346.785 272.785 346.64 273.444 346.661 274.108C346.649 274.879 346.845 275.638 347.228 276.307C347.611 276.976 348.168 277.529 348.839 277.909C349.015 277.996 349.199 278.066 349.389 278.118C349.541 278.167 349.676 278.259 349.777 278.383C349.878 278.507 349.941 278.657 349.958 278.816C349.975 278.976 349.943 279.136 349.869 279.278C349.794 279.42 349.679 279.537 349.539 279.614C349.013 279.933 348.582 280.386 348.289 280.925C347.996 281.465 347.851 282.073 347.87 282.686C347.86 283.36 348.031 284.024 348.365 284.61C348.699 285.196 349.183 285.682 349.769 286.018C350.146 286.215 350.562 286.324 350.988 286.337L363.108 286.676C363.471 286.673 363.829 286.597 364.162 286.453C364.495 286.309 364.796 286.1 365.046 285.838C365.709 285.139 366.068 284.207 366.046 283.245C366.053 282.604 365.896 281.972 365.59 281.408C365.284 280.844 364.839 280.368 364.297 280.023C364.158 279.941 364.046 279.82 363.975 279.674C363.905 279.528 363.879 279.365 363.902 279.205C363.924 279.045 363.994 278.895 364.101 278.775C364.209 278.654 364.35 278.568 364.507 278.527C365.301 278.269 365.988 277.757 366.461 277.07C366.935 276.383 367.168 275.559 367.125 274.727C367.127 273.999 366.946 273.283 366.596 272.645C366.247 272.006 365.741 271.467 365.126 271.076C365.008 271.004 364.911 270.902 364.843 270.782C364.775 270.662 364.738 270.526 364.737 270.388C364.737 270.25 364.771 270.115 364.835 269.993C364.9 269.872 364.993 269.767 365.106 269.69C365.649 269.309 366.089 268.8 366.385 268.208C366.682 267.616 366.826 266.96 366.805 266.298C366.825 265.427 366.567 264.571 366.07 263.855C365.573 263.138 364.861 262.597 364.037 262.309C363.867 262.257 363.719 262.153 363.613 262.011C363.506 261.87 363.449 261.698 363.448 261.521C363.446 261.341 363.504 261.167 363.612 261.024C363.721 260.882 363.874 260.779 364.047 260.733C364.823 260.461 365.49 259.946 365.95 259.264C366.409 258.583 366.635 257.772 366.595 256.952C366.647 255.935 366.308 254.937 365.646 254.162C364.985 253.387 364.052 252.894 363.038 252.783L349.549 252.314Z" fill="black"/>
<path d="M413.807 252.202L400.451 251.916L399.602 291.405L412.958 291.692L413.807 252.202Z" fill="#FB9100"/>
<path d="M363.647 262.638H348.45C348.241 262.615 348.049 262.517 347.909 262.361C347.77 262.206 347.692 262.004 347.692 261.795C347.692 261.586 347.77 261.384 347.909 261.229C348.049 261.073 348.241 260.975 348.45 260.952H363.617C363.826 260.975 364.018 261.073 364.158 261.229C364.297 261.384 364.375 261.586 364.375 261.795C364.375 262.004 364.297 262.206 364.158 262.361C364.018 262.517 363.826 262.615 363.617 262.638H363.647Z" fill="black"/>
<path d="M366.115 270.906H348.45C348.241 270.884 348.049 270.785 347.909 270.63C347.77 270.474 347.692 270.273 347.692 270.064C347.692 269.855 347.77 269.653 347.909 269.497C348.049 269.342 348.241 269.243 348.45 269.221H366.085C366.294 269.243 366.486 269.342 366.626 269.497C366.766 269.653 366.843 269.855 366.843 270.064C366.843 270.273 366.766 270.474 366.626 270.63C366.486 270.785 366.294 270.884 366.085 270.906H366.115Z" fill="black"/>
<path d="M364.437 280.532H355.824C355.374 280.532 355.004 279.963 355.004 279.535C355.004 279.106 355.374 278.537 355.824 278.537H364.437C364.896 278.537 365.266 279.096 365.266 279.535C365.266 279.973 364.926 280.532 364.437 280.532Z" fill="black"/>
<path d="M371.811 259.516C371.811 259.516 376.197 269.49 387.398 268.273L371.811 259.516Z" fill="#FFCFC5"/>
<path d="M385.61 269.191C375.318 269.191 371.102 259.955 371.062 259.855C370.977 259.655 370.973 259.429 371.051 259.226C371.129 259.024 371.284 258.859 371.481 258.768C371.68 258.683 371.905 258.68 372.106 258.758C372.308 258.836 372.471 258.99 372.56 259.187C372.74 259.586 376.877 268.553 387.319 267.455C387.536 267.433 387.753 267.497 387.923 267.635C388.092 267.772 388.2 267.972 388.223 268.188C388.245 268.405 388.181 268.622 388.043 268.792C387.905 268.961 387.706 269.069 387.488 269.091C386.865 269.158 386.237 269.191 385.61 269.191Z" fill="black"/>
</g>
</g>
<defs>
<clipPath id="clip0_137_2">
<rect width="570" height="324" fill="white"/>
</clipPath>
<clipPath id="clip1_137_2">
<rect width="325" height="262" fill="white" transform="translate(123 31)"/>
</clipPath>
</defs>
</svg>
