<svg width="570" height="324" viewBox="0 0 570 324" fill="none" xmlns="http://www.w3.org/2000/svg">
<g clip-path="url(#clip0_76_2772)">
<rect width="570" height="324" fill="#FFF6EB"/>
<path d="M188.68 47.8199C191.005 47.8199 192.89 45.935 192.89 43.6099C192.89 41.2848 191.005 39.3999 188.68 39.3999C186.355 39.3999 184.47 41.2848 184.47 43.6099C184.47 45.935 186.355 47.8199 188.68 47.8199Z" fill="#FB9100"/>
<path d="M370.32 253.01C372.176 253.01 373.68 251.506 373.68 249.65C373.68 247.794 372.176 246.29 370.32 246.29C368.464 246.29 366.96 247.794 366.96 249.65C366.96 251.506 368.464 253.01 370.32 253.01Z" fill="#1B5A96"/>
<path d="M375.37 55.3999C377.226 55.3999 378.73 53.8956 378.73 52.0399C378.73 50.1843 377.226 48.6799 375.37 48.6799C373.514 48.6799 372.01 50.1843 372.01 52.0399C372.01 53.8956 373.514 55.3999 375.37 55.3999Z" fill="#FB9100"/>
<path d="M327.02 50.38C328.434 50.38 329.58 49.2339 329.58 47.82C329.58 46.4062 328.434 45.26 327.02 45.26C325.606 45.26 324.46 46.4062 324.46 47.82C324.46 49.2339 325.606 50.38 327.02 50.38Z" fill="#1B5A96"/>
<path d="M290.52 232.74C291.934 232.74 293.08 231.594 293.08 230.18C293.08 228.766 291.934 227.62 290.52 227.62C289.106 227.62 287.96 228.766 287.96 230.18C287.96 231.594 289.106 232.74 290.52 232.74Z" fill="#FB9100"/>
<path d="M389.07 177.62H381.07V196.34H389.07V177.62Z" fill="white"/>
<path d="M404.24 162.77H396.24V196.35H404.24V162.77Z" fill="#FB9100"/>
<path d="M419.4 158.96H411.4V196.34H419.4V158.96Z" fill="#1B5A96"/>
<path d="M434.57 172.19H426.57V196.34H434.57V172.19Z" fill="#E07912"/>
<path d="M435.59 206.57H312.34V209.14H435.59V206.57Z" fill="#FB9100"/>
<path d="M435.59 213.96H312.34V216.53H435.59V213.96Z" fill="#FB9100"/>
<path d="M297.36 220.72V136.37C297.36 132.6 299.93 129.53 303.08 129.53H444.38C447.53 129.53 450.1 132.6 450.1 136.37V220.72C450.1 224.51 447.53 227.59 444.38 227.59H303.05C299.93 227.59 297.36 224.51 297.36 220.72ZM303.05 129.97C300.14 129.97 297.77 132.84 297.77 136.37V220.72C297.77 224.27 300.14 227.15 303.05 227.15H444.35C447.26 227.15 449.62 224.27 449.62 220.72V136.37C449.62 132.84 447.26 129.97 444.35 129.97H303.05Z" fill="black"/>
<path d="M297.53 136.36V148.46H449.83V136.36C449.83 132.7 447.37 129.73 444.32 129.73H303.05C299.99 129.73 297.53 132.7 297.53 136.36Z" fill="#FB9100"/>
<path d="M297.31 136.36C297.31 132.58 299.88 129.5 303.03 129.5H444.32C447.48 129.5 450.06 132.58 450.06 136.36V148.69H297.31V136.36ZM449.61 136.36C449.61 132.82 447.24 129.95 444.32 129.95H303.05C300.14 129.95 297.77 132.82 297.77 136.36V148.24H449.61V136.36Z" fill="#1A004D"/>
<path d="M323.65 140.88C324.462 140.88 325.12 140.222 325.12 139.41C325.12 138.598 324.462 137.94 323.65 137.94C322.838 137.94 322.18 138.598 322.18 139.41C322.18 140.222 322.838 140.88 323.65 140.88Z" fill="#FFF6EB"/>
<path d="M317.26 140.88C318.072 140.88 318.73 140.222 318.73 139.41C318.73 138.598 318.072 137.94 317.26 137.94C316.448 137.94 315.79 138.598 315.79 139.41C315.79 140.222 316.448 140.88 317.26 140.88Z" fill="#FFF6EB"/>
<path d="M310.87 140.88C311.682 140.88 312.34 140.222 312.34 139.41C312.34 138.598 311.682 137.94 310.87 137.94C310.058 137.94 309.4 138.598 309.4 139.41C309.4 140.222 310.058 140.88 310.87 140.88Z" fill="#FFF6EB"/>
<path d="M158.28 186.35V66.46C158.28 61.09 161.92 56.73 166.41 56.73H367.24C371.72 56.73 375.37 61.09 375.37 66.46V186.35C375.37 191.74 371.72 196.12 367.24 196.12H166.41C161.92 196.11 158.28 191.74 158.28 186.35ZM166.41 57.35C162.27 57.35 158.91 61.43 158.91 66.45V186.35C158.91 191.35 162.27 195.49 166.41 195.49H367.24C371.38 195.49 374.74 191.39 374.74 186.35V66.46C374.74 61.46 371.38 57.36 367.24 57.36L166.41 57.35Z" fill="black"/>
<path d="M158.52 66.44V83.65H374.99V66.44C374.99 61.24 371.49 57.02 367.16 57.02H166.34C162.05 57.02 158.52 61.24 158.52 66.44Z" fill="#1B5A96"/>
<path d="M158.2 66.44C158.2 61.07 161.85 56.7 166.34 56.7H367.16C371.65 56.7 375.31 61.07 375.31 66.44V83.9599H158.2V66.44ZM374.68 66.44C374.68 61.44 371.31 57.33 367.16 57.33H166.34C162.2 57.33 158.84 61.42 158.84 66.44V83.33H374.68V66.44Z" fill="black"/>
<path d="M195.64 72.8499C196.789 72.8499 197.72 71.9187 197.72 70.7699C197.72 69.6212 196.789 68.6899 195.64 68.6899C194.491 68.6899 193.56 69.6212 193.56 70.7699C193.56 71.9187 194.491 72.8499 195.64 72.8499Z" fill="white"/>
<path d="M186.56 72.8499C187.709 72.8499 188.64 71.9187 188.64 70.7699C188.64 69.6212 187.709 68.6899 186.56 68.6899C185.411 68.6899 184.48 69.6212 184.48 70.7699C184.48 71.9187 185.411 72.8499 186.56 72.8499Z" fill="white"/>
<path d="M177.48 72.8499C178.629 72.8499 179.56 71.9187 179.56 70.7699C179.56 69.6212 178.629 68.6899 177.48 68.6899C176.331 68.6899 175.4 69.6212 175.4 70.7699C175.4 71.9187 176.331 72.8499 177.48 72.8499Z" fill="white"/>
<path d="M209.35 281.7C219.852 281.237 230.283 279.736 240.49 277.22C251.55 274.5 263.36 269.99 267.07 257.98C270.22 247.79 266.39 236.56 262.07 227.3C260.892 225.027 259.344 222.965 257.49 221.2C243.77 208.4 218.79 220.94 200.91 202.35C178.57 179.11 169.05 170.44 138.19 177.82C112.64 183.94 119.26 215.75 126.67 233.44C135.05 253.44 148.62 270.56 170.15 277.15C182.57 280.96 196.05 282.25 209.35 281.7Z" fill="#2E344D"/>
<g opacity="0.3" style="mix-blend-mode:multiply">
<path d="M194.97 246.34C220.778 246.34 241.7 242.02 241.7 236.69C241.7 231.361 220.778 227.04 194.97 227.04C169.162 227.04 148.24 231.361 148.24 236.69C148.24 242.02 169.162 246.34 194.97 246.34Z" fill="#635242"/>
</g>
<path d="M217.86 157.9C217.86 157.9 234.12 168.74 234.8 169.28C235.48 169.82 221.05 189.2 221.05 189.2C221.05 189.2 207.59 172.4 205.29 169.96C202.99 167.52 217.86 157.9 217.86 157.9Z" fill="#EFC0C1"/>
<path d="M210.46 148.24C216.356 152.498 221.231 158.014 224.73 164.39L213.49 173.26L199.49 159.1L210.46 148.24Z" fill="#E5E6E7"/>
<path d="M201.34 151.25C201.34 151.15 191.66 160.49 185.74 158.25C179.12 155.74 176.74 141.91 176.74 141.91L178.43 128.22V127.99L178.49 127.17L179.8 127.71L184.98 129.87L187.06 130.74L192.38 132.96C192.358 135.126 192.518 137.291 192.86 139.43C192.92 139.74 192.97 140.02 193.04 140.3C193.166 140.768 193.358 141.216 193.61 141.63C193.945 142.202 194.359 142.724 194.84 143.18C196.05 146.11 201.3 151.24 201.34 151.25Z" fill="#EFC0C1"/>
<path d="M193.61 141.63C181.89 144.07 178.61 130.09 178.41 128.22V127.99L178.47 127.17L179.78 127.71C181.19 128.71 183.21 129.97 184.96 129.87L187.04 130.74L192.36 132.96C192.338 135.126 192.498 137.291 192.84 139.43C192.9 139.74 192.95 140.02 193.02 140.3C193.153 140.769 193.351 141.217 193.61 141.63Z" fill="#E5E6E7"/>
<path d="M199.32 124.98C198.27 131.98 196.03 138.98 189.32 138.51C184.63 138.14 179.66 132.04 178.21 126.21C177.5 123.706 176.978 121.152 176.65 118.57C176.54 116.99 176.54 115.99 176.54 115.99L177.42 112.46L177.94 110.39C177.94 110.39 179.35 109.07 180.94 107.58C182.94 105.72 186.28 107.95 186.33 107.83C186.38 107.71 195.63 105.64 198.85 109.15C199.133 109.441 199.363 109.78 199.53 110.15C199.66 110.423 199.738 110.718 199.76 111.02C199.76 111.6 199.85 112.46 199.89 113.55C199.89 114.01 199.89 114.55 199.89 115.04C199.89 115.94 199.89 116.92 199.89 117.95C199.84 120.303 199.65 122.65 199.32 124.98Z" fill="#EFC0C1"/>
<path d="M176.32 118.52C176.32 118.52 171.19 102.89 184.18 102.29C184.18 102.29 191.45 96.3501 198.23 101.06C204.23 105.25 204.34 112.42 200.14 114.06C197.38 115.06 184.36 112.06 182.45 113.35C180.54 114.64 178.37 127.07 178.37 127.07C178.37 127.07 177.67 121.51 176.32 118.52Z" fill="#06000C"/>
<path d="M182.828 107.221C184.404 107.01 185.504 105.508 185.285 103.866C185.065 102.224 183.609 101.063 182.032 101.274C180.456 101.485 179.356 102.987 179.576 104.63C179.795 106.272 181.251 107.432 182.828 107.221Z" fill="#06000C"/>
<path d="M187.123 116.166C190.342 115.736 192.588 112.671 192.14 109.321C191.691 105.97 188.719 103.604 185.5 104.034C182.281 104.465 180.035 107.53 180.483 110.88C180.932 114.23 183.904 116.597 187.123 116.166Z" fill="#06000C"/>
<path d="M196.335 116.264C199.554 115.833 201.8 112.768 201.351 109.418C200.903 106.068 197.931 103.701 194.712 104.132C191.493 104.563 189.247 107.627 189.695 110.978C190.144 114.328 193.116 116.694 196.335 116.264Z" fill="#06000C"/>
<path d="M180.073 111.053C182.268 110.759 183.8 108.671 183.494 106.388C183.189 104.105 181.162 102.493 178.967 102.787C176.772 103.08 175.24 105.169 175.545 107.452C175.851 109.734 177.878 111.347 180.073 111.053Z" fill="#06000C"/>
<path d="M178.6 119.75C178.6 119.75 174.45 117.22 174.71 121.32C174.97 125.42 178.91 127.08 178.91 127.08L178.6 119.75Z" fill="#EFC0C1"/>
<g style="mix-blend-mode:multiply">
<path d="M177.65 121.11C177.65 121.11 174.42 120.24 177.78 124.56L177.65 121.11Z" fill="#EDAA98"/>
</g>
<path d="M196.178 123.551C196.304 122.945 196.12 122.395 195.769 122.323C195.417 122.25 195.031 122.682 194.905 123.288C194.78 123.893 194.963 124.443 195.315 124.516C195.666 124.589 196.053 124.157 196.178 123.551Z" fill="#06000C"/>
<path d="M188.51 122.887C188.636 122.281 188.452 121.731 188.101 121.658C187.749 121.585 187.363 122.017 187.237 122.623C187.112 123.229 187.295 123.779 187.647 123.852C187.998 123.924 188.385 123.492 188.51 122.887Z" fill="#06000C"/>
<path d="M194.44 121.36C194.44 121.36 196.31 119.94 197.93 120.77L194.44 121.36Z" fill="#06000C"/>
<path d="M185.24 119.85C185.943 119.71 186.669 119.733 187.363 119.917C188.056 120.101 188.698 120.44 189.24 120.91L185.24 119.85Z" fill="#06000C"/>
<path d="M191.82 124.03C191.82 124.03 191.4 125.85 192.2 126.36C193 126.87 193.36 128.73 191.2 128.07" stroke="#EDAA98" stroke-width="0.21" stroke-linecap="round" stroke-linejoin="round"/>
<path d="M193.58 132.64C193.494 132.783 193.394 132.917 193.28 133.04C193.002 133.358 192.654 133.608 192.264 133.771C191.874 133.934 191.452 134.005 191.03 133.98C190.58 133.946 190.143 133.82 189.744 133.61C189.345 133.4 188.993 133.111 188.71 132.76C188.581 132.612 188.467 132.451 188.37 132.28" fill="white"/>
<path d="M223.2 206.61C223.2 206.61 213.53 154.89 210.46 148.24C210.46 148.13 194.62 142.62 194.62 142.62C194.62 142.62 194.77 155.26 176.49 140.54C176.49 140.54 159.04 142.86 158.26 144.78C157.48 146.7 164.94 216.61 169.16 219.78C173.38 222.95 223.2 206.61 223.2 206.61Z" fill="#FB9100"/>
<path d="M242.07 267.9L247.96 254.67L260.91 261.91L255.01 275.79L249.5 278.69L242.07 267.9Z" fill="#EFC0C1"/>
<path d="M237.44 273.57C237.44 273.57 234.33 278.57 234.7 279.24C235.76 281.24 236.91 281.89 238.39 283.92C239.965 286.236 242.009 288.195 244.39 289.67C246.62 291.14 253.18 295.76 254.6 293.67C254.72 293.5 256.21 292.07 256.07 291.73C254.43 288.01 237.44 273.57 237.44 273.57Z" fill="#FB9100"/>
<path d="M255.84 292.17C252.84 292.77 235.1 282.51 236.57 275.99C237.38 272.34 242 266.81 242 266.81C245.155 269.724 248.678 272.212 252.48 274.21C253.369 274.779 254.444 274.983 255.48 274.78C255.935 275.953 256.27 277.169 256.48 278.41C256.73 279.11 258.86 291.55 255.84 292.17Z" fill="#2E344D"/>
<path d="M249.34 279.299L249.321 279.377C249.254 279.645 249.417 279.916 249.685 279.983L255.585 281.45C255.853 281.517 256.125 281.354 256.191 281.086L256.211 281.008C256.277 280.74 256.114 280.469 255.846 280.402L249.946 278.934C249.678 278.868 249.407 279.031 249.34 279.299Z" fill="white"/>
<path d="M249.517 281.453L249.498 281.531C249.431 281.799 249.595 282.07 249.863 282.137L255.763 283.604C256.031 283.671 256.302 283.508 256.369 283.24L256.388 283.162C256.455 282.894 256.292 282.623 256.024 282.556L250.123 281.089C249.855 281.022 249.584 281.185 249.517 281.453Z" fill="white"/>
<path d="M249.675 283.845L249.656 283.923C249.589 284.19 249.753 284.462 250.021 284.528L255.921 285.996C256.189 286.063 256.46 285.9 256.527 285.632L256.546 285.554C256.613 285.286 256.449 285.015 256.182 284.948L250.281 283.48C250.013 283.414 249.742 283.577 249.675 283.845Z" fill="white"/>
<path d="M249.182 277.259L249.163 277.337C249.096 277.605 249.259 277.876 249.527 277.943L255.427 279.411C255.695 279.477 255.967 279.314 256.033 279.046L256.053 278.969C256.119 278.701 255.956 278.429 255.688 278.363L249.788 276.895C249.52 276.828 249.249 276.991 249.182 277.259Z" fill="white"/>
<path d="M225.9 208.72C225.9 208.72 228.05 232.4 234.57 237.11C241.09 241.82 257.07 220.76 257.57 220.2L243.33 261.79L260.46 270.32C260.46 270.32 269.76 249.32 276.63 233.58C278.96 228.21 281.18 222.92 282.93 218.38C285.48 211.73 287.47 203.89 285.48 196.82C282.89 187.62 271.35 186.82 263.53 188.73C258.483 190.134 253.617 192.12 249.03 194.65C241.075 198.924 233.354 203.621 225.9 208.72Z" fill="#1B5A96"/>
<path d="M282.33 262.48L273.41 253.23L260.62 262.07L268.57 268.88L275.04 274.73L283.25 265.37L282.33 262.48Z" fill="#EFC0C1"/>
<path d="M308.55 263.32C308.55 263.32 311.74 266.53 305.78 270.48C299.82 274.43 295.03 276.97 291.41 277.99C287.79 279.01 286.17 279.99 282.9 282.1C279.63 284.21 276.27 286.15 273.64 285.34C271.49 284.67 271.35 281.42 271.35 281.42L290.24 271.57L308.55 263.32Z" fill="#FB9100"/>
<path d="M282.33 262.48C282.33 262.48 292.88 263.78 297.51 263.64C302.14 263.5 306.24 259.73 308.51 263.32C310.78 266.91 300.02 271.55 293.66 274.2C287.3 276.85 281.79 276.75 279.1 279.36C276.41 281.97 272.1 282.36 271.31 281.42C270.52 280.48 268.19 270.18 268.53 268.88C268.53 268.88 270.62 271.88 276.68 268.88C282.74 265.88 282.33 262.48 282.33 262.48Z" fill="#2E344D"/>
<path d="M293.64 266.405L293.71 266.409C293.953 266.421 294.159 266.234 294.172 265.991L294.296 263.535C294.308 263.292 294.122 263.085 293.879 263.073L293.809 263.069C293.566 263.057 293.36 263.244 293.347 263.487L293.223 265.943C293.211 266.186 293.397 266.393 293.64 266.405Z" fill="white"/>
<path d="M291.322 266.113L291.392 266.116C291.635 266.128 291.841 265.942 291.854 265.699L291.978 263.242C291.99 262.999 291.804 262.793 291.561 262.78L291.491 262.777C291.248 262.765 291.042 262.951 291.029 263.194L290.905 265.651C290.893 265.894 291.079 266.1 291.322 266.113Z" fill="white"/>
<path d="M288.677 265.896L288.747 265.899C288.99 265.912 289.197 265.725 289.209 265.482L289.333 263.025C289.346 262.783 289.159 262.576 288.916 262.564L288.846 262.56C288.604 262.548 288.397 262.735 288.385 262.977L288.26 265.434C288.248 265.677 288.435 265.884 288.677 265.896Z" fill="white"/>
<path d="M286.063 265.668L286.133 265.671C286.376 265.683 286.583 265.497 286.595 265.254L286.719 262.797C286.732 262.554 286.545 262.348 286.302 262.335L286.232 262.332C285.99 262.32 285.783 262.506 285.771 262.749L285.646 265.206C285.634 265.449 285.821 265.655 286.063 265.668Z" fill="white"/>
<path d="M260.83 140.8L263.92 141.74C264 141.02 266.22 138.74 269.74 137.66C269.74 137.66 270.74 134.05 269.3 133.66C267.86 133.27 260.83 140.8 260.83 140.8Z" fill="#EFC0C1"/>
<path d="M213.06 187.09H268.36V140.28H213.06V187.09Z" fill="#2E344D"/>
<path d="M241.32 165.46C243.601 165.46 245.45 163.611 245.45 161.33C245.45 159.049 243.601 157.2 241.32 157.2C239.039 157.2 237.19 159.049 237.19 161.33C237.19 163.611 239.039 165.46 241.32 165.46Z" fill="white"/>
<path d="M213.05 187.09H268.35L244.35 198.14H189.05L213.05 187.09Z" fill="#1C1B1B"/>
<path d="M185.33 242.34C203.22 243.42 218.85 226.11 218.85 226.11L264.39 267.5L278.85 255.93C278.85 255.93 234.58 195.93 226.98 190.51C220.22 185.68 200.13 194.92 176.56 210.58C173.67 212.5 170.72 214.52 167.74 216.58C167.74 216.58 167.44 241.25 185.33 242.34Z" fill="#1B5A96"/>
<path d="M278.85 255.89C278.85 255.89 234.58 195.89 226.98 190.47" stroke="#313131" stroke-width="0.31" stroke-miterlimit="10"/>
<path d="M164.69 173.11L165.77 187.76L190.27 185.08L193.21 193.76C193.21 193.76 164.95 206.94 156.05 201.27C148.56 196.49 149.62 173.21 149.62 173.21L164.69 173.11Z" fill="#EFC0C1"/>
<path d="M165.18 142.4C165.18 142.4 156.3 143.88 152.32 148.63C147.41 154.51 149.11 178.42 149.11 178.42L168.49 176.65L168.56 153.65L165.18 142.4Z" fill="#FB9100"/>
<path d="M165.15 176.72L164.44 160.69" stroke="#313131" stroke-width="0.31" stroke-miterlimit="10"/>
<path d="M263.05 145.86C263.05 145.86 261.77 146.77 261.92 147.79C262.07 148.81 263.67 148.67 263.67 148.67C263.67 148.67 262.21 149.25 262.54 150.31C262.87 151.37 266.2 150.81 267.64 151.07C268.19 151.17 268.05 152.07 268.05 152.07V155.41C268.05 155.41 271.63 152.74 272.5 151.98C273.37 151.22 272.94 149.35 272.94 149.35C272.94 149.35 273.38 149.19 273.65 148.1C273.686 147.704 273.631 147.306 273.488 146.935C273.346 146.564 273.121 146.23 272.83 145.96C273.299 145.288 273.528 144.478 273.48 143.66C273.463 143.253 273.344 142.857 273.134 142.507C272.925 142.158 272.631 141.867 272.28 141.66C272.581 140.881 272.563 140.015 272.23 139.25C271.68 137.89 269.66 137.67 269.66 137.67C266.14 138.76 263.92 141.03 263.84 141.75C263.821 142.257 263.935 142.76 264.17 143.21C264.17 143.21 262.32 144.08 262.46 144.88C262.6 145.68 263.05 145.86 263.05 145.86Z" fill="#EFC0C1"/>
<path d="M264.25 143.2L264.58 143.04C264.79 142.94 265.1 142.82 265.46 142.67C265.82 142.52 266.26 142.38 266.73 142.23C267.2 142.08 267.73 141.94 268.21 141.83C268.709 141.725 269.213 141.649 269.72 141.6C270.165 141.55 270.613 141.533 271.06 141.55C271.374 141.549 271.688 141.569 272 141.61H272.36L272.01 141.52C271.704 141.428 271.389 141.368 271.07 141.34C270.614 141.303 270.156 141.303 269.7 141.34C269.178 141.367 268.66 141.437 268.15 141.55C267.64 141.658 267.139 141.801 266.65 141.98C266.224 142.138 265.807 142.318 265.4 142.52C265.04 142.7 264.75 142.87 264.56 142.99L264.25 143.2Z" fill="#EDAA98"/>
<path d="M263.05 145.86L263.47 145.77L264.6 145.55C265.07 145.46 265.6 145.38 266.21 145.29C266.82 145.2 267.42 145.12 268.05 145.08C268.666 145.041 269.284 145.041 269.9 145.08C270.182 145.085 270.462 145.112 270.74 145.16C270.991 145.186 271.239 145.236 271.48 145.31C271.688 145.36 271.889 145.434 272.08 145.53C272.238 145.584 272.386 145.662 272.52 145.76L272.87 146.01L272.55 145.71C272.426 145.595 272.284 145.501 272.13 145.43C271.945 145.311 271.742 145.22 271.53 145.16C271.289 145.062 271.037 144.991 270.78 144.95C270.498 144.884 270.21 144.843 269.92 144.83C269.291 144.775 268.659 144.775 268.03 144.83C267.406 144.877 266.785 144.957 266.17 145.07C265.58 145.18 265.03 145.31 264.57 145.43C264.11 145.55 263.73 145.68 263.46 145.76L263.05 145.86Z" fill="#EDAA98"/>
<path d="M263.71 148.67H264.12L265.19 148.57C265.64 148.57 266.19 148.51 266.72 148.47C267.25 148.43 267.87 148.47 268.46 148.47C269.05 148.47 269.65 148.47 270.2 148.56C270.701 148.604 271.196 148.695 271.68 148.83C271.875 148.88 272.066 148.947 272.25 149.03C272.4 149.074 272.541 149.142 272.67 149.23L273.02 149.44L272.7 149.18C272.578 149.08 272.443 148.996 272.3 148.93C272.121 148.823 271.93 148.739 271.73 148.68C271.246 148.498 270.743 148.374 270.23 148.31C269.644 148.225 269.052 148.182 268.46 148.18C267.86 148.18 267.26 148.18 266.7 148.26C266.14 148.34 265.62 148.38 265.17 148.45C264.72 148.52 264.36 148.6 264.11 148.65L263.71 148.67Z" fill="#EDAA98"/>
<path d="M190.27 185.11C192.01 183.845 193.679 182.487 195.27 181.04C197.27 179.2 199.45 177.35 201.21 177.27C202.97 177.19 214.21 178.4 213.11 181.07C213.11 181.07 215.67 182.19 214.78 183.87C215.003 184.115 215.141 184.426 215.173 184.755C215.206 185.085 215.131 185.416 214.96 185.7C214.4 186.84 209.37 184.2 207.33 184.55C205.29 184.9 202.33 185.79 202.33 185.79C202.33 185.79 206.95 186.44 207.91 186.53C208.87 186.62 211.68 187.61 211.57 188.41C211.46 189.21 207.41 187.95 205.57 188.07C203.73 188.19 201.57 188.07 200.81 189.24C200.05 190.41 199.02 192.7 196.9 193.24C195.587 193.55 194.248 193.737 192.9 193.8L190.27 185.11Z" fill="#EFC0C1"/>
<path d="M213.15 181.04L212.71 180.81C212.43 180.67 212.03 180.47 211.53 180.27C211.03 180.07 210.44 179.84 209.79 179.65C209.108 179.45 208.413 179.3 207.71 179.2C207.004 179.104 206.291 179.078 205.58 179.12C204.961 179.151 204.346 179.231 203.74 179.36C203.311 179.444 202.889 179.565 202.48 179.72C202.19 179.83 202.03 179.91 202.03 179.91C202.188 179.868 202.348 179.834 202.51 179.81C202.81 179.75 203.26 179.69 203.78 179.63C204.381 179.571 204.986 179.544 205.59 179.55C206.276 179.553 206.96 179.6 207.64 179.69C208.313 179.78 208.981 179.907 209.64 180.07C210.28 180.22 210.89 180.37 211.4 180.53C211.91 180.69 212.34 180.8 212.64 180.9L213.15 181.04Z" fill="#E7926A"/>
<path d="M214.82 183.84L214.34 183.6C214.03 183.47 213.58 183.26 213.04 183.05C212.5 182.84 211.85 182.59 211.15 182.37C210.416 182.13 209.668 181.936 208.91 181.79C208.14 181.658 207.356 181.634 206.58 181.72C205.906 181.792 205.238 181.909 204.58 182.07C204.01 182.21 203.58 182.37 203.22 182.47L202.72 182.67L203.25 182.57C203.58 182.5 204.06 182.43 204.64 182.35C205.22 182.27 205.88 182.19 206.64 182.15C207.383 182.104 208.128 182.148 208.86 182.28C209.61 182.41 210.36 182.6 211.06 182.78C211.76 182.96 212.42 183.14 212.98 183.31L214.34 183.69L214.82 183.84Z" fill="#E7926A"/>
<path d="M165.92 187.81C162.428 187.802 158.941 188.067 155.49 188.6" stroke="#313131" stroke-width="0.31" stroke-miterlimit="10"/>
<path d="M257.58 220.18L263.35 201.44" stroke="#313131" stroke-width="0.31" stroke-miterlimit="10"/>
<path d="M218.85 226.07L206.4 213.24" stroke="#313131" stroke-width="0.31" stroke-miterlimit="10"/>
<g style="mix-blend-mode:multiply" opacity="0.2">
<path d="M185.33 242.34C203.22 243.42 218.85 226.11 218.85 226.11L206.39 213.28C206.39 213.28 202.77 227.78 187.28 229.35C177.21 230.35 176.1 218.79 176.56 210.58C173.67 212.5 170.72 214.52 167.74 216.58C167.74 216.58 167.44 241.25 185.33 242.34Z" fill="#2E344D"/>
</g>
<path d="M344.76 98.8999H292.7C285.758 98.8999 280.13 104.528 280.13 111.47V113.33C280.13 120.272 285.758 125.9 292.7 125.9H344.76C351.702 125.9 357.33 120.272 357.33 113.33V111.47C357.33 104.528 351.702 98.8999 344.76 98.8999Z" fill="#FB9100"/>
<path d="M296.566 116.297H291.785L290.964 118.63H289.009L293.1 107.195H295.268L299.359 118.63H297.388L296.566 116.297ZM296.041 114.769L294.184 109.462L292.311 114.769H296.041ZM304.868 107.211C306.084 107.211 307.146 107.447 308.055 107.918C308.975 108.378 309.682 109.046 310.175 109.922C310.679 110.787 310.931 111.8 310.931 112.962C310.931 114.123 310.679 115.13 310.175 115.985C309.682 116.839 308.975 117.496 308.055 117.956C307.146 118.405 306.084 118.63 304.868 118.63H301.138V107.211H304.868ZM304.868 117.102C306.204 117.102 307.228 116.74 307.94 116.018C308.652 115.295 309.008 114.276 309.008 112.962C309.008 111.636 308.652 110.601 307.94 109.856C307.228 109.111 306.204 108.739 304.868 108.739H303.011V117.102H304.868ZM316.549 118.745C315.783 118.745 315.093 118.613 314.479 118.351C313.866 118.077 313.384 117.693 313.033 117.2C312.683 116.708 312.508 116.133 312.508 115.475H314.512C314.556 115.968 314.748 116.373 315.087 116.691C315.438 117.009 315.925 117.168 316.549 117.168C317.196 117.168 317.699 117.014 318.061 116.708C318.422 116.39 318.603 115.985 318.603 115.492C318.603 115.108 318.488 114.796 318.258 114.555C318.039 114.314 317.76 114.128 317.42 113.997C317.092 113.865 316.632 113.723 316.04 113.569C315.295 113.372 314.687 113.175 314.216 112.978C313.756 112.77 313.362 112.452 313.033 112.025C312.705 111.598 312.54 111.028 312.54 110.316C312.54 109.659 312.705 109.084 313.033 108.591C313.362 108.098 313.822 107.72 314.413 107.457C315.005 107.195 315.69 107.063 316.467 107.063C317.573 107.063 318.477 107.342 319.178 107.901C319.89 108.449 320.284 109.205 320.361 110.168H318.291C318.258 109.752 318.061 109.396 317.699 109.1C317.338 108.805 316.862 108.657 316.27 108.657C315.733 108.657 315.295 108.794 314.956 109.068C314.616 109.341 314.446 109.736 314.446 110.251C314.446 110.601 314.55 110.891 314.758 111.121C314.978 111.34 315.251 111.516 315.58 111.647C315.909 111.779 316.358 111.921 316.927 112.074C317.683 112.282 318.296 112.491 318.767 112.699C319.249 112.907 319.655 113.23 319.983 113.668C320.323 114.095 320.493 114.67 320.493 115.393C320.493 115.974 320.334 116.521 320.016 117.036C319.709 117.551 319.255 117.967 318.652 118.285C318.061 118.592 317.36 118.745 316.549 118.745Z" fill="#1B5A96"/>
<path d="M340.6 114.68L328.42 129.14H352.79L340.6 114.68Z" fill="#1B5A96"/>
<path d="M347.88 128.43H333.33V141.79H347.88V128.43Z" fill="#1B5A96"/>
<path d="M335.28 114.87L328.01 113.81" stroke="white" stroke-width="1.49" stroke-miterlimit="10"/>
<path d="M337.57 111.22L334.33 105.73" stroke="white" stroke-width="1.49" stroke-miterlimit="10"/>
<path d="M343.68 111.22L346.62 105.17" stroke="white" stroke-width="1.49" stroke-miterlimit="10"/>
<path d="M345.44 114.87L352.19 113.81" stroke="white" stroke-width="1.49" stroke-miterlimit="10"/>
<path d="M301.43 177.77C302.897 177.262 304.228 176.424 305.32 175.32C305.953 174.697 306.498 173.99 306.94 173.22C307.57 172.161 307.997 170.995 308.2 169.78L298.05 168L301.43 177.77Z" fill="#2E344D"/>
<path d="M306.58 159.42C305.488 158.328 304.166 157.494 302.71 156.98C301.6 156.582 300.429 156.379 299.25 156.38V166.74L309.46 168.52C309.748 166.883 309.637 165.201 309.135 163.617C308.634 162.033 307.757 160.593 306.58 159.42Z" fill="#E07912"/>
<path d="M290.67 175.32C289.22 173.868 288.234 172.017 287.837 170.003C287.44 167.99 287.65 165.903 288.441 164.009C289.231 162.115 290.567 160.498 292.278 159.364C293.988 158.231 295.997 157.63 298.05 157.64V168L301.48 177.77C299.631 178.429 297.633 178.548 295.719 178.114C293.805 177.68 292.054 176.711 290.67 175.32Z" fill="#E8EBF7"/>
<path d="M356.04 158.81H312.86C312.484 158.81 312.18 159.115 312.18 159.49V159.6C312.18 159.976 312.484 160.28 312.86 160.28H356.04C356.415 160.28 356.72 159.976 356.72 159.6V159.49C356.72 159.115 356.415 158.81 356.04 158.81Z" fill="#1B5A96"/>
<path d="M356.04 164.03H312.86C312.484 164.03 312.18 164.334 312.18 164.71V164.82C312.18 165.196 312.484 165.5 312.86 165.5H356.04C356.415 165.5 356.72 165.196 356.72 164.82V164.71C356.72 164.334 356.415 164.03 356.04 164.03Z" fill="#1B5A96"/>
<path d="M356.04 169.25H312.86C312.484 169.25 312.18 169.554 312.18 169.93V170.04C312.18 170.416 312.484 170.72 312.86 170.72H356.04C356.415 170.72 356.72 170.416 356.72 170.04V169.93C356.72 169.554 356.415 169.25 356.04 169.25Z" fill="#1B5A96"/>
<path d="M352.3 174.47H312.86C312.484 174.47 312.18 174.774 312.18 175.15V175.26C312.18 175.636 312.484 175.94 312.86 175.94H352.3C352.675 175.94 352.98 175.636 352.98 175.26V175.15C352.98 174.774 352.675 174.47 352.3 174.47Z" fill="#1B5A96"/>
<g opacity="0.9">
<path d="M312.37 30H218.56C217.235 30 216.16 31.0745 216.16 32.4V71.69C216.16 73.0155 217.235 74.09 218.56 74.09H312.37C313.696 74.09 314.77 73.0155 314.77 71.69V32.4C314.77 31.0745 313.696 30 312.37 30Z" fill="#C7CEFD"/>
<path d="M307.68 68.1899H223.23C222.832 68.1899 222.51 68.5123 222.51 68.9099V69.0199C222.51 69.4176 222.832 69.7399 223.23 69.7399H307.68C308.078 69.7399 308.4 69.4176 308.4 69.0199V68.9099C308.4 68.5123 308.078 68.1899 307.68 68.1899Z" fill="#E8EBF7"/>
<path d="M226.71 60.1799L225.82 59.6899C227.61 56.4699 233.96 51.4499 237.08 51.3799C239.88 51.3199 241.83 53.1099 243.73 54.8499C245.63 56.5899 247.38 58.1899 249.91 58.1999C252.97 58.1999 255.21 55.1999 257.58 52.0099C260.15 48.5499 262.81 45.0099 266.88 44.8899C270.24 44.8899 272.73 47.2099 275.12 49.5099C277.34 51.6499 279.42 53.6599 282.03 53.5599C285.27 53.4299 287.22 50.1099 289.29 46.5599C291.36 43.0099 293.52 39.3599 297.2 39.2299C299.63 39.1399 302.2 40.6399 304.94 43.6799L304.19 44.3499C301.69 41.5599 299.34 40.1799 297.19 40.2499C294.07 40.3499 292.19 43.6199 290.12 47.0699C288.05 50.5199 285.82 54.3799 282.03 54.5299C279.03 54.6699 276.65 52.3899 274.38 50.1999C272.11 48.0099 269.82 45.7699 266.86 45.8599C263.29 45.9399 260.78 49.3099 258.35 52.5699C255.92 55.8299 253.44 59.1699 249.87 59.1699C246.96 59.1699 244.95 57.3299 243.01 55.5599C241.07 53.7899 239.51 52.3499 237.19 52.3499H237.07C234.39 52.4599 228.32 57.2799 226.71 60.1799Z" fill="#FB9100"/>
<path d="M304.76 45.79C305.528 45.79 306.15 45.1677 306.15 44.4C306.15 43.6323 305.528 43.01 304.76 43.01C303.992 43.01 303.37 43.6323 303.37 44.4C303.37 45.1677 303.992 45.79 304.76 45.79Z" fill="#EEBA38"/>
<path d="M226.27 61.3301C227.038 61.3301 227.66 60.7077 227.66 59.9401C227.66 59.1724 227.038 58.55 226.27 58.55C225.502 58.55 224.88 59.1724 224.88 59.9401C224.88 60.7077 225.502 61.3301 226.27 61.3301Z" fill="#EEBA38"/>
<path d="M242.06 34.8301H223.12C222.86 34.8301 222.65 35.0405 222.65 35.3001V35.3701C222.65 35.6296 222.86 35.8401 223.12 35.8401H242.06C242.32 35.8401 242.53 35.6296 242.53 35.3701V35.3001C242.53 35.0405 242.32 34.8301 242.06 34.8301Z" fill="#E8EBF7"/>
<path d="M242.06 38.8999H223.12C222.86 38.8999 222.65 39.1103 222.65 39.3699V39.4399C222.65 39.6995 222.86 39.9099 223.12 39.9099H242.06C242.32 39.9099 242.53 39.6995 242.53 39.4399V39.3699C242.53 39.1103 242.32 38.8999 242.06 38.8999Z" fill="#E8EBF7"/>
</g>
<path d="M416.7 99.2201C415.947 95.2603 413.838 91.6866 410.735 89.1134C407.633 86.5402 403.731 85.1282 399.7 85.1201C397.421 85.1083 395.162 85.5457 393.053 86.4074C390.943 87.2692 389.024 88.5383 387.405 90.1422C385.787 91.7462 384.5 93.6535 383.619 95.755C382.737 97.8566 382.279 100.111 382.27 102.39C382.27 102.69 382.27 102.99 382.27 103.28C382.326 104.562 382.527 105.834 382.87 107.07C383.092 107.884 383.376 108.68 383.72 109.45C383.92 109.91 384.13 110.35 384.37 110.78C386.141 114.03 388.904 116.628 392.256 118.195C395.609 119.763 399.375 120.217 403.003 119.492C406.632 118.767 409.935 116.901 412.427 114.166C414.92 111.431 416.474 107.971 416.86 104.29C416.92 103.712 416.95 103.131 416.95 102.55C416.979 101.435 416.895 100.319 416.7 99.2201ZM399.6 116.74C397.209 116.741 394.856 116.14 392.759 114.992C390.661 113.844 388.887 112.185 387.6 110.17C387.251 109.645 386.943 109.093 386.68 108.52C386.253 107.616 385.918 106.671 385.68 105.7C385.433 104.618 385.312 103.51 385.32 102.4C385.32 102.04 385.32 101.68 385.32 101.32C385.488 99.0853 386.18 96.9213 387.339 95.0031C388.498 93.0849 390.091 91.4661 391.992 90.2776C393.892 89.0891 396.045 88.3642 398.277 88.1614C400.508 87.9585 402.757 88.2835 404.84 89.1101C407.135 90.013 409.162 91.486 410.73 93.3901C412.298 95.3231 413.332 97.6331 413.73 100.09C414.003 101.682 414.003 103.308 413.73 104.9C413.155 108.226 411.42 111.24 408.833 113.408C406.247 115.576 402.975 116.756 399.6 116.74Z" fill="#06000C"/>
<path d="M417.86 98.11C417.06 93.8661 414.707 90.0728 411.259 87.4719C407.812 84.8709 403.518 83.6491 399.218 84.0454C394.917 84.4417 390.919 86.4275 388.005 89.6147C385.091 92.802 383.47 96.9614 383.46 101.28C383.46 101.58 383.46 101.88 383.46 102.17C383.52 103.455 383.721 104.729 384.06 105.97C384.282 106.784 384.566 107.58 384.91 108.35C385.11 108.81 385.33 109.25 385.57 109.68C387.348 112.928 390.117 115.522 393.475 117.083C396.832 118.644 400.6 119.09 404.229 118.356C407.858 117.622 411.157 115.746 413.644 113.003C416.13 110.26 417.674 106.793 418.05 103.11C418.11 102.54 418.14 101.97 418.15 101.37C418.151 100.277 418.054 99.1858 417.86 98.11ZM400.75 115.59C398.359 115.589 396.007 114.986 393.911 113.838C391.814 112.69 390.039 111.033 388.75 109.02C388.405 108.492 388.097 107.941 387.83 107.37C387.403 106.466 387.068 105.521 386.83 104.55C386.58 103.468 386.456 102.361 386.46 101.25C386.46 100.88 386.46 100.53 386.46 100.17C386.74 96.6965 388.28 93.4452 390.79 91.0283C393.3 88.6115 396.608 87.196 400.089 87.0485C403.571 86.9009 406.986 88.0316 409.692 90.2274C412.398 92.4232 414.208 95.5326 414.78 98.97C415.047 100.566 415.047 102.194 414.78 103.79C414.194 107.089 412.469 110.077 409.905 112.234C407.34 114.391 404.1 115.578 400.75 115.59Z" fill="#EEBA38"/>
<path d="M400.88 86.9301C403.724 86.944 406.499 87.8006 408.856 89.3918C411.213 90.9829 413.045 93.2371 414.121 95.8694C415.197 98.5017 415.468 101.394 414.901 104.18C414.333 106.967 412.952 109.522 410.932 111.524C408.912 113.526 406.344 114.884 403.553 115.426C400.761 115.968 397.872 115.671 395.249 114.571C392.627 113.472 390.389 111.619 388.82 109.248C387.25 106.877 386.418 104.094 386.43 101.25C386.438 99.3608 386.818 97.4917 387.549 95.7493C388.279 94.007 389.346 92.4258 390.688 91.0959C392.03 89.766 393.621 88.7136 395.369 87.9988C397.118 87.2841 398.991 86.9209 400.88 86.9301ZM413.3 101.37C413.312 98.8999 412.591 96.4816 411.228 94.4211C409.866 92.3605 407.923 90.7503 405.645 89.7941C403.368 88.8378 400.857 88.5784 398.432 89.0487C396.007 89.519 393.776 90.6978 392.021 92.4362C390.266 94.1745 389.066 96.3942 388.572 98.8147C388.078 101.235 388.314 103.748 389.248 106.034C390.182 108.321 391.774 110.28 393.821 111.662C395.869 113.044 398.28 113.788 400.75 113.8C402.391 113.809 404.017 113.495 405.536 112.875C407.055 112.255 408.437 111.342 409.602 110.187C410.768 109.033 411.695 107.66 412.329 106.147C412.964 104.634 413.294 103.011 413.3 101.37Z" fill="#D89F21"/>
<path d="M405.33 113.152C411.862 110.658 415.135 103.341 412.641 96.8088C410.146 90.2769 402.829 87.0038 396.297 89.4981C389.765 91.9924 386.492 99.3095 388.987 105.841C391.481 112.373 398.798 115.646 405.33 113.152Z" fill="#EEBA38"/>
<path d="M402.85 95.78C403.531 96.0484 404.103 96.5341 404.48 97.1616C404.856 97.7891 405.014 98.5233 404.93 99.25V99.51H403.17C403.206 99.135 403.16 98.7567 403.036 98.4011C402.911 98.0456 402.712 97.7211 402.45 97.45L401.67 100.62C403.89 100.97 405.04 101.84 405.03 103.68V103.82C405.03 105.91 403.51 107.19 400.88 107.18H400.08L399.61 109.18H398.17L398.73 106.88C398.053 106.614 397.479 106.139 397.09 105.524C396.702 104.909 396.52 104.186 396.57 103.46V103.36H398.33C398.304 103.714 398.361 104.068 398.499 104.395C398.636 104.722 398.849 105.012 399.12 105.24L399.93 101.9C397.65 101.51 396.7 100.55 396.71 98.9V98.77C396.71 96.77 398.37 95.5 400.83 95.51C401.06 95.51 401.28 95.51 401.49 95.51L401.96 93.51H403.4L402.85 95.78ZM400.29 100.39L401.12 96.97C401.027 96.9601 400.933 96.9601 400.84 96.97H400.77C399.51 96.97 398.52 97.56 398.51 98.62V98.71C398.51 99.57 398.96 100.11 400.29 100.39ZM403.22 103.89V103.8C403.22 102.8 402.63 102.29 401.32 102.02L400.44 105.66H400.85H400.92C402.27 105.68 403.21 105.03 403.22 103.89Z" fill="white"/>
<g style="mix-blend-mode:screen" opacity="0.1">
<path d="M414.69 90.8901L411.88 92.2801C403.78 96.2801 394.83 100.69 386.88 104.55L384.05 105.92C383.711 104.679 383.51 103.405 383.45 102.12L386.55 100.12C392.75 96.2101 399.55 91.9601 405.96 87.9501L409.1 86.1101C411.283 87.2869 413.189 88.9167 414.69 90.8901Z" fill="#F0F1F1"/>
</g>
<g style="mix-blend-mode:screen" opacity="0.1">
<path d="M418.17 101.39C418.17 101.99 418.17 102.56 418.07 103.13L414.88 103.79C407.32 105.34 396.73 107.49 388.79 109.02L385.59 109.63C385.35 109.2 385.13 108.76 384.93 108.3L387.87 107.37C395.96 104.8 407.16 101.37 414.87 98.9701L417.87 98.0601C418.072 99.1585 418.172 100.273 418.17 101.39Z" fill="#F0F1F1"/>
</g>
<path d="M419.05 65.6701C418.739 64.0207 418.055 62.4643 417.05 61.1201C416.074 59.8714 414.844 58.8453 413.44 58.1101C411.768 57.202 409.889 56.7431 407.987 56.7782C406.084 56.8134 404.223 57.3414 402.586 58.3107C400.949 59.28 399.591 60.6574 398.645 62.3084C397.699 63.9593 397.198 65.8274 397.19 67.7301C397.19 67.9201 397.19 68.1101 397.19 68.2901C397.228 69.1049 397.355 69.9131 397.57 70.7001C397.714 71.2156 397.894 71.7202 398.11 72.2101C398.234 72.4979 398.374 72.7783 398.53 73.0501C399.655 75.1067 401.407 76.7503 403.531 77.7411C405.656 78.732 408.041 79.0183 410.339 78.5584C412.638 78.0985 414.729 76.9164 416.309 75.1844C417.888 73.4524 418.873 71.2611 419.12 68.9301C419.16 68.5648 419.18 68.1976 419.18 67.8301C419.211 67.1076 419.168 66.3837 419.05 65.6701ZM408.15 76.7801C406.638 76.7777 405.151 76.3944 403.826 75.6656C402.501 74.9368 401.381 73.886 400.57 72.6101C400.35 72.2932 400.156 71.9587 399.99 71.6101C399.718 71.038 399.51 70.4377 399.37 69.8201C399.207 69.1357 399.13 68.4336 399.14 67.7301C399.14 67.5001 399.14 67.2701 399.14 67.0501C399.241 65.638 399.673 64.2695 400.402 63.0559C401.131 61.8423 402.136 60.8178 403.335 60.0656C404.535 59.3134 405.895 58.8548 407.305 58.727C408.715 58.5992 410.135 58.8059 411.45 59.3301C412.923 59.8987 414.22 60.8449 415.212 62.0736C416.204 63.3023 416.855 64.7702 417.1 66.3301C417.186 66.8321 417.226 67.3409 417.22 67.8501C417.218 68.3628 417.174 68.8744 417.09 69.3801C416.701 71.4648 415.594 73.3472 413.96 74.6994C412.327 76.0516 410.271 76.7879 408.15 76.7801Z" fill="#06000C"/>
<path d="M419.73 64.9401C419.419 63.2907 418.735 61.7343 417.73 60.3901C416.777 59.1299 415.567 58.0868 414.18 57.3301C412.508 56.422 410.629 55.9631 408.727 55.9982C406.824 56.0334 404.963 56.5614 403.326 57.5307C401.689 58.5 400.331 59.8774 399.385 61.5283C398.439 63.1793 397.938 65.0474 397.93 66.9501C397.93 67.1401 397.93 67.3301 397.93 67.5101C397.968 68.3249 398.095 69.1331 398.31 69.9201C398.454 70.4356 398.634 70.9402 398.85 71.4301C398.974 71.7179 399.114 71.9983 399.27 72.2701C400.397 74.3279 402.153 75.9715 404.28 76.9606C406.408 77.9497 408.796 78.2326 411.096 77.7679C413.396 77.3033 415.487 76.1154 417.064 74.3779C418.64 72.6403 419.62 70.4441 419.86 68.1101C419.9 67.7448 419.92 67.3776 419.92 67.0101C419.925 66.3155 419.862 65.6221 419.73 64.9401ZM408.88 76.0501C407.368 76.0477 405.881 75.6644 404.556 74.9356C403.231 74.2068 402.111 73.1559 401.3 71.8801C401.08 71.5631 400.886 71.2287 400.72 70.8801C400.448 70.308 400.24 69.7077 400.1 69.0901C399.937 68.4057 399.86 67.7036 399.87 67.0001C399.87 66.7701 399.87 66.5401 399.87 66.3201C400.054 64.0433 401.09 61.9196 402.771 60.3735C404.453 58.8274 406.656 57.9727 408.94 57.9801C410.049 57.983 411.148 58.1933 412.18 58.6001C413.638 59.1687 414.926 60.1018 415.92 61.3101C416.919 62.5345 417.577 64.0003 417.83 65.5601C417.916 66.0621 417.956 66.5708 417.95 67.0801C417.947 67.5927 417.904 68.1043 417.82 68.6101C417.44 70.7022 416.336 72.5939 414.701 73.954C413.067 75.3142 411.006 76.0562 408.88 76.0501Z" fill="#EEBA38"/>
<path d="M408.96 57.88C410.764 57.8879 412.525 58.4305 414.02 59.4392C415.515 60.4479 416.678 61.8774 417.361 63.5468C418.044 65.2163 418.216 67.0508 417.857 68.8183C417.497 70.5859 416.621 72.2071 415.34 73.4769C414.059 74.7468 412.431 75.6082 410.66 75.9524C408.889 76.2965 407.056 76.1079 405.393 75.4103C403.73 74.7127 402.31 73.5376 401.315 72.0334C400.319 70.5293 399.792 68.7637 399.8 66.96C399.805 65.7623 400.046 64.5774 400.51 63.4729C400.973 62.3684 401.649 61.366 402.499 60.5228C403.35 59.6797 404.358 59.0123 405.467 58.5589C406.575 58.1054 407.762 57.8747 408.96 57.88ZM416.84 67.03C416.846 65.4657 416.388 63.9347 415.525 62.6302C414.662 61.3256 413.432 60.3058 411.99 59.6995C410.548 59.0932 408.959 58.9275 407.423 59.2232C405.887 59.519 404.472 60.263 403.359 61.3615C402.245 62.4599 401.481 63.8635 401.164 65.3953C400.847 66.9272 400.991 68.5186 401.577 69.9688C402.164 71.4191 403.166 72.6632 404.459 73.5444C405.751 74.4255 407.276 74.9042 408.84 74.92C409.884 74.9305 410.92 74.7345 411.889 74.343C412.857 73.9516 413.738 73.3726 414.481 72.6393C415.225 71.906 415.816 71.0329 416.221 70.0702C416.626 69.1075 416.836 68.0743 416.84 67.03Z" fill="#D89F21"/>
<path d="M411.785 74.521C415.928 72.939 418.004 68.2978 416.422 64.1548C414.84 60.0117 410.199 57.9356 406.056 59.5177C401.913 61.0998 399.837 65.7409 401.419 69.884C403.001 74.027 407.642 76.1031 411.785 74.521Z" fill="#EEBA38"/>
<path d="M410.22 63.4901C410.648 63.6638 411.008 63.9728 411.245 64.37C411.481 64.7671 411.581 65.2307 411.53 65.6901V65.8601H410.41C410.434 65.6221 410.407 65.3818 410.329 65.1556C410.251 64.9294 410.125 64.7228 409.96 64.5501L409.47 66.5501C410.87 66.7801 411.6 67.3301 411.6 68.4901V68.5801C411.6 69.9101 410.6 70.7201 408.96 70.7101H408.46L408.16 71.9601H407.24L407.6 70.5001C407.17 70.3324 406.804 70.0311 406.558 69.6406C406.311 69.25 406.196 68.7907 406.23 68.3301V68.2701H407.35C407.333 68.4938 407.37 68.7183 407.457 68.9252C407.544 69.132 407.679 69.3153 407.85 69.4601L408.36 67.3401C406.92 67.1001 406.31 66.4901 406.36 65.4601V65.3701C406.36 64.0701 407.41 63.3001 408.97 63.3101H409.39L409.69 62.0701H410.6L410.22 63.4901ZM408.59 66.4101L409.11 64.2401H408.89C408.09 64.2401 407.46 64.6201 407.46 65.2401C407.46 65.8901 407.74 66.2501 408.59 66.4101ZM410.44 68.6301C410.44 68.0001 410.08 67.6301 409.24 67.5001L408.68 69.8001H408.95C409.85 69.7701 410.44 69.3501 410.44 68.6301Z" fill="white"/>
<g style="mix-blend-mode:screen" opacity="0.1">
<path d="M417.72 60.3901L415.94 61.2701C410.8 63.8201 405.13 66.6001 400.1 69.0501L398.31 69.9201C398.095 69.1331 397.968 68.3249 397.93 67.5101L399.93 66.2801C403.87 63.7901 408.17 61.1001 412.24 58.5601L414.24 57.3301C415.602 58.0949 416.787 59.1374 417.72 60.3901Z" fill="#F0F1F1"/>
</g>
<g style="mix-blend-mode:screen" opacity="0.1">
<path d="M419.92 67.0499C419.921 67.4174 419.9 67.7847 419.86 68.1499L417.86 68.5699C413.07 69.5699 406.35 70.9099 401.32 71.8799L399.32 72.2699C399.164 71.9982 399.024 71.7177 398.9 71.4299L400.77 70.8399C405.89 69.2099 413 67.0299 417.9 65.5199L419.78 64.9399C419.898 65.6368 419.945 66.3437 419.92 67.0499Z" fill="#F0F1F1"/>
</g>
<path d="M252.05 102.57C249.485 102.652 247.053 103.728 245.268 105.571C243.483 107.414 242.484 109.879 242.484 112.445C242.484 115.011 243.483 117.476 245.268 119.319C247.053 121.162 249.485 122.238 252.05 122.32C253.239 122.324 254.418 122.11 255.53 121.69C257.691 120.872 259.496 119.323 260.633 117.311C261.77 115.3 262.166 112.954 261.752 110.681C261.339 108.408 260.141 106.352 258.369 104.87C256.596 103.388 254.36 102.574 252.05 102.57ZM254.74 119.11C253.307 119.681 251.728 119.778 250.236 119.385C248.743 118.993 247.416 118.132 246.45 116.929C245.483 115.726 244.928 114.245 244.866 112.704C244.804 111.162 245.238 109.641 246.104 108.364C246.97 107.087 248.224 106.122 249.679 105.611C251.135 105.099 252.717 105.068 254.191 105.522C255.666 105.976 256.956 106.891 257.872 108.133C258.788 109.374 259.282 110.877 259.28 112.42C259.279 113.861 258.845 115.269 258.036 116.461C257.227 117.654 256.079 118.576 254.74 119.11Z" fill="#E8EBF7"/>
<path d="M255.55 121.69C254.438 122.11 253.259 122.323 252.07 122.32C249.452 122.32 246.942 121.28 245.091 119.429C243.24 117.578 242.2 115.068 242.2 112.45H244.86C244.864 113.626 245.154 114.783 245.707 115.821C246.26 116.86 247.058 117.747 248.032 118.406C249.006 119.066 250.126 119.477 251.295 119.605C252.464 119.733 253.647 119.573 254.74 119.14C254.96 119.85 255.26 120.76 255.55 121.69Z" fill="#E07912"/>
<path d="M261.94 112.45C261.939 114.457 261.328 116.416 260.186 118.067C259.045 119.717 257.428 120.981 255.55 121.69C254.438 122.11 253.259 122.324 252.07 122.32V119.65C253.039 119.686 254.005 119.527 254.911 119.181C255.816 118.835 256.643 118.31 257.341 117.637C258.039 116.965 258.594 116.158 258.974 115.266C259.353 114.374 259.549 113.414 259.549 112.445C259.549 111.476 259.353 110.516 258.974 109.624C258.594 108.732 258.039 107.925 257.341 107.253C256.643 106.58 255.816 106.055 254.911 105.709C254.005 105.364 253.039 105.204 252.07 105.24V102.57C253.367 102.57 254.651 102.826 255.849 103.322C257.048 103.819 258.136 104.547 259.053 105.464C259.969 106.382 260.696 107.471 261.192 108.67C261.687 109.869 261.941 111.153 261.94 112.45Z" fill="#C7CEFD"/>
<path d="M226.12 102.57C223.555 102.652 221.123 103.728 219.338 105.571C217.553 107.414 216.554 109.879 216.554 112.445C216.554 115.011 217.553 117.476 219.338 119.319C221.123 121.162 223.555 122.238 226.12 122.32C227.309 122.324 228.488 122.11 229.6 121.69C231.761 120.872 233.566 119.323 234.703 117.311C235.84 115.3 236.236 112.954 235.822 110.681C235.409 108.408 234.211 106.352 232.439 104.87C230.666 103.388 228.43 102.574 226.12 102.57ZM228.79 119.11C227.357 119.681 225.778 119.778 224.286 119.385C222.793 118.993 221.467 118.132 220.5 116.929C219.533 115.726 218.978 114.245 218.916 112.704C218.854 111.162 219.288 109.641 220.154 108.364C221.021 107.087 222.274 106.122 223.729 105.611C225.185 105.099 226.767 105.068 228.241 105.522C229.716 105.976 231.006 106.891 231.922 108.133C232.838 109.374 233.332 110.877 233.33 112.42C233.329 113.861 232.895 115.269 232.086 116.461C231.277 117.654 230.129 118.576 228.79 119.11Z" fill="#E8EBF7"/>
<path d="M229.6 121.69C228.488 122.11 227.309 122.323 226.12 122.32C223.502 122.32 220.992 121.28 219.141 119.429C217.29 117.578 216.25 115.068 216.25 112.45H218.91C218.914 113.626 219.204 114.783 219.757 115.821C220.31 116.86 221.108 117.747 222.082 118.406C223.056 119.066 224.176 119.477 225.345 119.605C226.514 119.733 227.697 119.573 228.79 119.14C229.05 119.85 229.31 120.76 229.6 121.69Z" fill="#E07912"/>
<path d="M235.99 112.45C235.989 114.457 235.378 116.416 234.236 118.067C233.095 119.717 231.477 120.981 229.6 121.69C228.488 122.11 227.309 122.324 226.12 122.32V119.65C227.089 119.686 228.055 119.527 228.96 119.181C229.866 118.835 230.693 118.31 231.391 117.637C232.089 116.965 232.644 116.158 233.024 115.266C233.403 114.374 233.598 113.414 233.598 112.445C233.598 111.476 233.403 110.516 233.024 109.624C232.644 108.732 232.089 107.925 231.391 107.253C230.693 106.58 229.866 106.055 228.96 105.709C228.055 105.364 227.089 105.204 226.12 105.24V102.57C227.417 102.57 228.701 102.826 229.899 103.322C231.098 103.819 232.186 104.547 233.103 105.464C234.019 106.382 234.746 107.471 235.242 108.67C235.737 109.869 235.991 111.153 235.99 112.45Z" fill="#C7CEFD"/>
<path d="M140.73 89.96V95.36C138.94 95.36 137.223 96.0711 135.957 97.337C134.691 98.6029 133.98 100.32 133.98 102.11H128.58C128.58 98.8876 129.86 95.7972 132.139 93.5186C134.417 91.24 137.508 89.96 140.73 89.96Z" fill="#1B5A96"/>
<path d="M149.3 110.74C147.595 112.429 145.429 113.577 143.074 114.037C140.719 114.498 138.28 114.251 136.065 113.329C133.849 112.406 131.956 110.848 130.625 108.852C129.293 106.856 128.581 104.51 128.58 102.11H133.98C133.975 103.444 134.366 104.75 135.103 105.863C135.84 106.975 136.89 107.844 138.121 108.36C139.351 108.875 140.707 109.015 142.017 108.76C143.327 108.506 144.532 107.869 145.48 106.93L149.3 110.74Z" fill="#2E344D"/>
<path d="M152.89 102.11C152.894 103.715 152.578 105.304 151.962 106.786C151.346 108.267 150.441 109.611 149.3 110.74L145.48 106.93C146.434 105.988 147.086 104.784 147.354 103.47C147.622 102.156 147.493 100.793 146.984 99.5526C146.474 98.3124 145.608 97.2517 144.495 96.5051C143.381 95.7585 142.071 95.3599 140.73 95.36V89.96C142.326 89.9587 143.907 90.272 145.383 90.882C146.858 91.492 148.199 92.3867 149.328 93.5151C150.457 94.6434 151.353 95.9833 151.964 97.4581C152.575 98.9328 152.89 100.514 152.89 102.11Z" fill="#FB9100"/>
<path d="M355.86 62.47C353.92 62.47 352.4 63.93 351.03 65.79C349.37 63.49 347.57 62.5 345.87 62.47H345.67C341.96 62.57 338.82 67.25 338.86 72.79C339.11 79.79 345.57 80.27 348.97 72.96L350.71 69.88C352.62 73.04 355.48 78.79 358.47 78.2C366.37 77.6 361.41 61.41 355.86 62.47ZM347.05 71.8C345.05 74.94 344.35 75.65 343.23 75.65C339.35 75.33 342.04 63.92 346.4 65.14C347.3 65.43 348.28 66.37 349.45 68.01C347.99 70.35 347.05 71.8 347.05 71.8ZM358.49 75.65C357.35 75.65 356.8 74.89 354.63 71.4C354.27 70.8 353.75 69.92 353.24 69.09L352.74 68.3C352.53 67.96 352.33 67.65 352.16 67.41C355.86 61.07 360.27 66.22 360.26 72.88C360.29 74.63 359.71 75.65 358.52 75.65H358.49Z" fill="#FFF6EB"/>
<path d="M471.134 293.996H98.6618C98.4786 293.979 98.3105 293.92 98.1888 293.829C98.0671 293.738 98 293.621 98 293.5C98 293.379 98.0671 293.262 98.1888 293.171C98.3105 293.08 98.4786 293.021 98.6618 293.004H471.134C471.242 292.995 471.352 293.001 471.457 293.021C471.561 293.042 471.657 293.077 471.739 293.124C471.821 293.171 471.887 293.228 471.932 293.293C471.977 293.358 472 293.429 472 293.5C472 293.571 471.977 293.642 471.932 293.707C471.887 293.772 471.821 293.829 471.739 293.876C471.657 293.923 471.561 293.958 471.457 293.979C471.352 293.999 471.242 294.005 471.134 293.996Z" fill="#030047"/>
</g>
<defs>
<clipPath id="clip0_76_2772">
<rect width="570" height="324" fill="white"/>
</clipPath>
</defs>
</svg>
