<svg width="570" height="324" viewBox="0 0 570 324" fill="none" xmlns="http://www.w3.org/2000/svg">
<g clip-path="url(#clip0_114_792)">
<rect width="570" height="324" fill="#FFF6EB"/>
<path d="M486.065 292.996H83.7149C83.517 292.979 83.3354 292.92 83.2039 292.829C83.0725 292.738 83 292.621 83 292.5C83 292.379 83.0725 292.262 83.2039 292.171C83.3354 292.08 83.517 292.021 83.7149 292.004H486.065C486.182 291.995 486.3 292.001 486.413 292.021C486.526 292.042 486.63 292.077 486.718 292.124C486.807 292.171 486.878 292.228 486.926 292.293C486.975 292.358 487 292.429 487 292.5C487 292.571 486.975 292.642 486.926 292.707C486.878 292.772 486.807 292.829 486.718 292.876C486.63 292.923 486.526 292.958 486.413 292.979C486.3 292.999 486.182 293.005 486.065 292.996Z" fill="#1E1E1E"/>
<path d="M334.66 282.08H231.66V291.43H334.66V282.08Z" fill="#2E344D"/>
<path d="M334.66 282.08H231.66L235.46 280.24C244.276 275.981 251.713 269.322 256.917 261.028C262.121 252.734 264.881 243.141 264.88 233.35H301.44C301.437 243.141 304.195 252.733 309.397 261.027C314.599 269.321 322.035 275.981 330.85 280.24L334.66 282.08Z" fill="#1B5A96"/>
<path d="M337.02 279.87H231.66V291.44H337.02V279.87Z" stroke="black" stroke-width="0.83" stroke-miterlimit="10"/>
<path d="M231.66 279.87C231.66 279.87 262.14 265.98 262.4 233.35" stroke="black" stroke-width="0.83" stroke-miterlimit="10"/>
<path d="M316.13 265.88C316.13 265.88 304.23 252.67 303.98 233.35" stroke="black" stroke-width="0.83" stroke-miterlimit="10"/>
<path d="M430.39 50.2798H135.71C129.243 50.2798 124 55.5225 124 61.9898V225.13C124 231.597 129.243 236.84 135.71 236.84H430.39C436.857 236.84 442.1 231.597 442.1 225.13V61.9898C442.1 55.5225 436.857 50.2798 430.39 50.2798Z" fill="#FB9100"/>
<path d="M138.53 46.9399H430.79C434.644 46.9399 438.339 48.4708 441.064 51.1957C443.789 53.9206 445.32 57.6163 445.32 61.4699V222.32C445.32 226.174 443.789 229.869 441.064 232.594C438.339 235.319 434.644 236.85 430.79 236.85H136.25C133.008 236.85 129.898 235.565 127.602 233.276C125.306 230.987 124.011 227.882 124 224.64V61.4699C124 57.6163 125.531 53.9206 128.256 51.1957C130.981 48.4708 134.676 46.9399 138.53 46.9399Z" stroke="#000105" stroke-width="0.5" stroke-miterlimit="10"/>
<path d="M426.92 58.2798H139.18C134.9 58.2798 131.43 61.7496 131.43 66.0298V221.1C131.43 225.38 134.9 228.85 139.18 228.85H426.92C431.2 228.85 434.67 225.38 434.67 221.1V66.0298C434.67 61.7496 431.2 58.2798 426.92 58.2798Z" fill="#FFF6EB" stroke="black" stroke-width="0.5" stroke-miterlimit="10"/>
<path d="M211.61 189.19H146.73V213.01H211.61V189.19Z" fill="#C66A05"/>
<path d="M239.07 103.79H145.73V139.14H239.07V103.79Z" stroke="black" stroke-width="0.5" stroke-miterlimit="10"/>
<path d="M239.06 103.79L145.73 139.14" stroke="black" stroke-width="0.5" stroke-miterlimit="10"/>
<path d="M145.73 103.79L239.06 139.14" stroke="black" stroke-width="0.5" stroke-miterlimit="10"/>
<path d="M239.06 148.5H146.73V153.13H239.06V148.5Z" fill="#FB9100"/>
<path d="M239.06 158.18H146.73V162.81H239.06V158.18Z" fill="#FFF6EB" stroke="black" stroke-width="0.5" stroke-miterlimit="10"/>
<path d="M239.06 167.85H146.73V172.48H239.06V167.85Z" fill="#FFF6EB" stroke="black" stroke-width="0.5" stroke-miterlimit="10"/>
<path d="M239.06 177.53H146.73V182.16H239.06V177.53Z" fill="#FFF6EB" stroke="black" stroke-width="0.5" stroke-miterlimit="10"/>
<path d="M304.92 103.95H247.03V110.17H304.92V103.95Z" fill="#FB9100"/>
<path d="M304.92 114.69H247.03V120.91H304.92V114.69Z" fill="#1B5A96"/>
<path d="M304.92 125.43H247.03V131.65H304.92V125.43Z" fill="#FB9100"/>
<path d="M304.92 136.17H247.03V142.39H304.92V136.17Z" fill="#1B5A96"/>
<path d="M286.36 146.91H247.03V153.13H286.36V146.91Z" fill="#FB9100"/>
<path d="M251.26 167.82C253.596 167.82 255.49 165.926 255.49 163.59C255.49 161.254 253.596 159.36 251.26 159.36C248.924 159.36 247.03 161.254 247.03 163.59C247.03 165.926 248.924 167.82 251.26 167.82Z" fill="#1B5A96"/>
<path d="M261.94 167.82C264.276 167.82 266.17 165.926 266.17 163.59C266.17 161.254 264.276 159.36 261.94 159.36C259.604 159.36 257.71 161.254 257.71 163.59C257.71 165.926 259.604 167.82 261.94 167.82Z" fill="#C66A05"/>
<path d="M272.62 167.82C274.956 167.82 276.85 165.926 276.85 163.59C276.85 161.254 274.956 159.36 272.62 159.36C270.284 159.36 268.39 161.254 268.39 163.59C268.39 165.926 270.284 167.82 272.62 167.82Z" fill="#FB9100"/>
<path d="M421.85 76.5698H316.91C314.243 76.5698 312.08 78.7323 312.08 81.3998V217.49C312.08 220.157 314.243 222.32 316.91 222.32H421.85C424.518 222.32 426.68 220.157 426.68 217.49V81.3998C426.68 78.7323 424.518 76.5698 421.85 76.5698Z" fill="#FFF6EB" stroke="black" stroke-width="0.5" stroke-miterlimit="10"/>
<path d="M413.25 147.29H327.1C326.039 147.29 325.022 147.711 324.272 148.462C323.522 149.212 323.1 150.229 323.1 151.29V202.64C323.1 203.701 323.522 204.718 324.272 205.468C325.022 206.219 326.039 206.64 327.1 206.64H413.25C414.311 206.64 415.328 206.219 416.079 205.468C416.829 204.718 417.25 203.701 417.25 202.64V151.34C417.257 150.811 417.158 150.285 416.96 149.794C416.762 149.303 416.468 148.856 416.096 148.479C415.724 148.102 415.281 147.803 414.792 147.599C414.304 147.395 413.78 147.29 413.25 147.29ZM370.17 184.92C368.362 184.92 366.594 184.384 365.091 183.379C363.588 182.374 362.416 180.946 361.725 179.275C361.033 177.605 360.853 175.766 361.206 173.993C361.56 172.22 362.431 170.591 363.711 169.314C364.99 168.036 366.619 167.166 368.393 166.814C370.167 166.463 372.005 166.645 373.675 167.339C375.345 168.032 376.771 169.205 377.775 170.709C378.778 172.214 379.312 173.982 379.31 175.79C379.31 176.99 379.074 178.178 378.614 179.286C378.155 180.395 377.481 181.402 376.632 182.249C375.784 183.097 374.776 183.77 373.667 184.228C372.558 184.686 371.37 184.921 370.17 184.92Z" fill="#FB9100"/>
<path d="M374.2 175.79L367.87 179.58V171.99L374.2 175.79Z" fill="#1B5A96"/>
<path d="M326.6 199.06H416.37" stroke="#1B5A96" stroke-width="1.66" stroke-linecap="round" stroke-linejoin="round"/>
<path d="M340.02 199.06H416.37" stroke="white" stroke-width="1.66" stroke-linecap="round" stroke-linejoin="round"/>
<path d="M341.66 199.06C341.658 199.388 341.559 199.708 341.375 199.98C341.192 200.251 340.932 200.463 340.628 200.587C340.325 200.711 339.991 200.742 339.67 200.677C339.349 200.612 339.054 200.453 338.823 200.22C338.592 199.988 338.435 199.692 338.371 199.37C338.308 199.049 338.341 198.715 338.467 198.413C338.593 198.11 338.806 197.851 339.079 197.669C339.352 197.487 339.672 197.39 340 197.39C340.219 197.39 340.436 197.433 340.638 197.517C340.84 197.601 341.023 197.725 341.177 197.88C341.332 198.035 341.454 198.219 341.537 198.422C341.619 198.624 341.661 198.841 341.66 199.06Z" fill="#1B5A96"/>
<path d="M139.79 55.79H426.21C428.427 55.79 430.554 56.6708 432.121 58.2386C433.689 59.8064 434.57 61.9328 434.57 64.15V68.72H131.43V64.15C131.43 63.0522 131.646 61.9651 132.066 60.9508C132.486 59.9365 133.102 59.0149 133.879 58.2386C134.655 57.4623 135.576 56.8465 136.591 56.4264C137.605 56.0063 138.692 55.79 139.79 55.79Z" fill="#1B5A96"/>
<path d="M146.85 65.1601C148.385 65.1601 149.63 63.9155 149.63 62.3801C149.63 60.8447 148.385 59.6001 146.85 59.6001C145.315 59.6001 144.07 60.8447 144.07 62.3801C144.07 63.9155 145.315 65.1601 146.85 65.1601Z" fill="#FFF6EB" stroke="black" stroke-width="0.5" stroke-miterlimit="10"/>
<path d="M156.26 65.1601C157.795 65.1601 159.04 63.9155 159.04 62.3801C159.04 60.8447 157.795 59.6001 156.26 59.6001C154.725 59.6001 153.48 60.8447 153.48 62.3801C153.48 63.9155 154.725 65.1601 156.26 65.1601Z" fill="#FFF6EB" stroke="black" stroke-width="0.5" stroke-miterlimit="10"/>
<path d="M165.68 65.1601C167.215 65.1601 168.46 63.9155 168.46 62.3801C168.46 60.8447 167.215 59.6001 165.68 59.6001C164.145 59.6001 162.9 60.8447 162.9 62.3801C162.9 63.9155 164.145 65.1601 165.68 65.1601Z" fill="#FFF6EB" stroke="black" stroke-width="0.5" stroke-miterlimit="10"/>
<path d="M429.01 55.79H139.36C134.98 55.79 131.43 59.3404 131.43 63.72V220.92C131.43 225.3 134.98 228.85 139.36 228.85H429.01C433.39 228.85 436.94 225.3 436.94 220.92V63.72C436.94 59.3404 433.39 55.79 429.01 55.79Z" stroke="black" stroke-width="0.5" stroke-miterlimit="10"/>
<path d="M298.98 221.62H241.09L248.15 180.04H306.04L298.98 221.62Z" fill="#ECECF2"/>
<path d="M295.88 217.06H237.99L245.05 175.48H302.95L295.88 217.06Z" fill="#FFF6EB" stroke="black" stroke-width="0.5" stroke-miterlimit="10"/>
<path d="M276.396 190.364C278.226 188.683 278.562 186.07 277.146 184.529C275.73 182.987 273.099 183.101 271.268 184.782C269.438 186.463 269.102 189.076 270.518 190.617C271.934 192.159 274.566 192.046 276.396 190.364Z" fill="#FB9100"/>
<path d="M244.64 199.49L261.02 186.76L271.37 201.83L283.2 192.22L294.1 205.98L292.91 213.01H242.34L244.64 199.49Z" fill="#1B5A96"/>
<path d="M406.44 138.08H323.3L324.13 80.1699L404.78 81.8299L406.44 138.08Z" fill="#FFF6EB" stroke="black" stroke-width="0.5" stroke-miterlimit="10"/>
<path d="M324.13 80.1699L406.44 138.08" stroke="black" stroke-width="0.5" stroke-miterlimit="10"/>
<path d="M404.78 81.8301L323.3 138.08" stroke="black" stroke-width="0.5" stroke-miterlimit="10"/>
<path d="M409.84 134.48H326.7L327.53 76.5698L408.18 78.2298L409.84 134.48Z" fill="#ECECF2"/>
<path d="M414.64 130.04H331.51L332.34 72.1299L412.98 73.7899L414.64 130.04Z" fill="#1B5A96"/>
<path d="M370.39 115.28H398.54L383.49 95.7798L370.39 115.28Z" fill="#FB9100"/>
<path d="M347.83 115.28H385.33L365.29 89.2998L347.83 115.28Z" fill="#FFF6EB"/>
<path d="M376.57 93.9101C379.613 93.9101 382.08 91.4432 382.08 88.4001C382.08 85.357 379.613 82.8901 376.57 82.8901C373.527 82.8901 371.06 85.357 371.06 88.4001C371.06 91.4432 373.527 93.9101 376.57 93.9101Z" fill="#FB9100"/>
<path d="M237.4 117.03L236.06 116.86L236.48 114.43L139.48 102.43H139.09L133.02 137.22L135.19 137.51L134.91 139.11L146.55 140.64L147.98 145.79L139.91 169.79L147.69 174.51L147.31 175.63L159.53 181.89C160.07 187.75 161.31 194.67 160.89 202.23C160.89 202.23 157.25 210.53 156.49 215.68C156.49 215.68 154.77 243.15 154.07 247.62C153.37 252.09 145.72 260.8 147.34 266.62C148.96 272.44 143.41 269.83 143.96 283.81H146.17L145.74 285.75H145.39L143.66 292.28H147.27C147.27 292.28 149.13 289.1 150.1 292.28H163.84L163.53 291.19C163.333 290.527 162.917 289.95 162.351 289.552C161.785 289.155 161.101 288.96 160.41 289H160.05C158.974 289.046 157.907 288.79 156.97 288.259C156.033 287.729 155.264 286.946 154.75 286L154.59 285.68H154.3L154.73 283.74H157.06L166.06 252L171.74 234.31L172.48 236.75L172.98 236.59L176.82 247.16C176.82 247.16 178.23 253.83 176.82 256.98C173.92 263.56 180.5 265.69 177.95 269.76C174.88 274.64 175.95 283.76 175.95 283.76H178.29V285.7H177.76L176.06 292.27H179.68C179.68 292.27 181.53 289.09 182.51 292.27H197.4L197.08 291.18C196.886 290.517 196.473 289.939 195.908 289.541C195.343 289.143 194.66 288.949 193.97 288.99H193.66C192.584 289.036 191.517 288.78 190.58 288.249C189.643 287.719 188.874 286.936 188.36 285.99L188.2 285.67H188.02L188.07 283.73H189.33L191.33 245.16L183.74 202.16L183.87 181.77L201.98 181.6V180.41L207.62 180.15L217.68 156.88L223.68 150.66L223.55 150.53L231.36 151.53L237.4 117.03ZM133.95 136.49L139.74 103.33L235.51 115.15L235.23 116.76L140.81 105.11L135.3 136.64L133.95 136.49ZM181 145.49C180.981 145.352 180.954 145.215 180.92 145.08H180.97C180.98 145.2 181 145.32 181 145.46V145.49ZM174.83 144.3C174.576 144.549 174.346 144.82 174.14 145.11C170.78 149.79 165.63 149.04 165 152.24C164.737 154.147 165.23 156.081 166.374 157.63C167.517 159.179 169.22 160.22 171.12 160.53C171.392 160.575 171.669 160.575 171.94 160.53L171.16 165.87H170.81L171.05 165.41L151.05 164.63C151.05 163.05 151.05 161.3 150.84 159.39C150.616 154.994 151.172 150.593 152.48 146.39L155.04 141.73L152.93 141.46L174.83 144.3ZM214.01 154.42C212.169 158.43 209.633 162.083 206.52 165.21C205.152 166.493 203.85 167.845 202.62 169.26H202.2V168.97L184.03 166.61C184.03 166.61 181.19 166.15 177.48 165.93L177.66 163.13V162.8L177.76 161.36L181.3 160.98L181.23 156.59L183.18 155.91L179.33 149.22C180.046 148.889 180.657 148.366 181.094 147.71C181.532 147.053 181.78 146.289 181.81 145.5C181.815 145.407 181.815 145.313 181.81 145.22L214.55 149.47L214.01 154.42Z" fill="#ECECF2"/>
<path d="M128.23 138.26L224.77 150.79L230.76 116.2L134.16 104.28L128.23 138.26Z" fill="#1B5A96"/>
<path d="M140.992 124.777L141.841 118.391L139.309 118.055L139.609 115.795L147.588 116.855L147.288 119.115L144.756 118.779L143.907 125.164L140.992 124.777ZM147.196 125.602L148.345 116.956L151.26 117.343L150.111 125.989L147.196 125.602ZM153.392 126.425L154.24 120.039L151.708 119.703L152.009 117.442L159.988 118.503L159.687 120.763L157.155 120.427L156.307 126.812L153.392 126.425ZM159.596 127.249L160.745 118.603L163.66 118.991L162.811 125.376L166.714 125.895L166.414 128.155L159.596 127.249ZM170.609 123.182L174.463 123.695L174.184 125.794L170.33 125.282L170.609 123.182ZM170.377 126.445L174.7 127.019L174.407 129.218L167.219 128.262L168.368 119.617L175.396 120.55L175.104 122.749L170.941 122.196L170.377 126.445ZM185.989 121.958L188.904 122.346L187.755 130.992L184.84 130.604L185.989 121.958ZM182.148 130.246L179.233 129.859L180.382 121.213L183.297 121.6L182.148 130.246ZM185.461 127.444L182.373 127.034L182.692 124.637L185.78 125.048L185.461 127.444ZM192.55 126.098L196.403 126.61L196.124 128.71L192.271 128.198L192.55 126.098ZM192.317 129.361L196.64 129.935L196.348 132.134L189.16 131.178L190.309 122.532L197.337 123.466L197.044 125.665L192.882 125.112L192.317 129.361ZM197.47 132.283L198.619 123.637L202.782 124.19C203.589 124.297 204.267 124.521 204.817 124.863C205.374 125.205 205.781 125.644 206.037 126.181C206.293 126.71 206.377 127.307 206.288 127.974C206.2 128.641 205.963 129.196 205.577 129.64C205.192 130.074 204.687 130.38 204.06 130.557C203.441 130.734 202.728 130.769 201.922 130.662L199.377 130.324L200.833 129.298L200.385 132.67L197.47 132.283ZM202.645 132.971L200.94 129.539L204.027 129.949L205.758 133.384L202.645 132.971ZM200.791 129.619L199.669 128.125L202.028 128.439C202.432 128.493 202.74 128.441 202.954 128.285C203.176 128.13 203.307 127.897 203.349 127.584C203.39 127.271 203.324 127.011 203.151 126.803C202.986 126.597 202.701 126.467 202.298 126.413L199.939 126.1L201.411 124.951L200.791 129.619ZM210.064 128.426L213.917 128.938L213.638 131.038L209.785 130.525L210.064 128.426ZM209.831 131.688L214.154 132.263L213.862 134.461L206.673 133.506L207.822 124.86L214.85 125.794L214.558 127.992L210.396 127.439L209.831 131.688Z" fill="#FFF6EB"/>
<path d="M126.83 136.02L223.36 148.55L229.35 113.96L132.75 102.04L126.83 136.02Z" stroke="#FFB700" stroke-width="0.83" stroke-miterlimit="10"/>
<path d="M201.06 179.39L189.23 179.93L190.36 168.29L200.23 168.48L201.06 179.39Z" fill="#FF7873"/>
<path d="M201.06 179.39L211.12 156.12L217.12 149.9L212.95 145.81L209.62 148.81L207.94 148.59L207.4 153.59C205.565 157.601 203.032 161.254 199.92 164.38C193.13 170.64 190.66 175.96 190.66 175.96L201.06 179.39Z" fill="#FF7873"/>
<path d="M133.27 168.96L141.33 144.96L139.9 139.81L144.8 135.55L146.29 140.64L148.39 140.91L145.84 145.56C144.533 149.763 143.974 154.163 144.19 158.56C145 167.76 143.27 173.32 143.27 173.32L133.27 168.96Z" fill="#FF7873"/>
<path d="M133.27 168.96L154.86 182.06L160.88 166L139.91 163.2L133.27 168.96Z" fill="#FF7873"/>
<path d="M172.07 268.96H181.76L181.41 284.88H171.72L172.07 268.96Z" fill="#FF7873"/>
<path d="M181.58 284.88H171.19L169.5 291.45H173.11C173.11 291.45 174.97 288.27 175.94 291.45H190.83L190.52 290.36C190.325 289.697 189.911 289.121 189.347 288.723C188.782 288.325 188.099 288.13 187.41 288.17H187.05C185.974 288.217 184.907 287.961 183.969 287.431C183.032 286.9 182.263 286.117 181.75 285.17L181.58 284.88Z" fill="black"/>
<path d="M142.61 268.96H151.21L147.7 284.88H139.1L142.61 268.96Z" fill="#FF7873"/>
<path d="M147.98 284.88H138.75L137.05 291.45H140.66C140.66 291.45 142.51 288.27 143.49 291.45H157.22L156.91 290.36C156.715 289.697 156.301 289.121 155.737 288.723C155.172 288.325 154.49 288.13 153.8 288.17H153.44C152.364 288.217 151.297 287.961 150.359 287.431C149.422 286.9 148.653 286.117 148.14 285.17L147.98 284.88Z" fill="black"/>
<path d="M177.16 201.4L184.74 244.4L182.74 282.97H169.44C169.44 282.97 168.36 273.87 171.44 268.97C173.99 264.9 167.44 262.77 170.31 256.19C171.7 253.04 170.31 246.37 170.31 246.37L155.64 206.01L177.16 201.4Z" fill="#1B5A96"/>
<path d="M154.25 201.4C154.25 201.4 150.61 209.7 149.84 214.85H177.38L177.16 201.4H154.25Z" fill="#1B5A96"/>
<path d="M165.64 157.28L164.41 165.74H170.79L171.34 157.28H165.64Z" fill="#FF7873"/>
<path d="M171.13 160.49L167.65 160.86L171.02 162.26L171.13 160.49Z" fill="#FF6259"/>
<path d="M171.66 146.52L176.56 155.04L174.61 155.72L174.67 160.11L167.65 160.86L165.42 150.29L171.66 146.52Z" fill="#FF7873"/>
<path d="M167.23 154.45C168.521 154.115 169.652 153.334 170.423 152.245C171.193 151.156 171.554 149.829 171.44 148.5C171.44 148.5 175.19 147.64 174.26 144.15C173.41 140.94 169.65 141.24 167.49 144.25C164.14 148.93 158.98 148.18 158.35 151.38C158.09 153.288 158.586 155.222 159.731 156.771C160.875 158.319 162.58 159.359 164.48 159.67C164.854 159.736 165.237 159.716 165.602 159.612C165.967 159.508 166.303 159.322 166.586 159.069C166.868 158.815 167.089 158.501 167.232 158.15C167.375 157.798 167.436 157.419 167.41 157.04L167.23 154.45Z" fill="black"/>
<path d="M169.78 141.64C171.44 140.42 174.78 141.71 174.78 144.64C174.78 147.57 171.32 148.51 171.32 148.51" fill="black"/>
<path d="M167.42 153.83C167.755 154.243 167.965 154.743 168.026 155.271C168.087 155.799 167.996 156.334 167.765 156.812C167.533 157.291 167.17 157.694 166.718 157.973C166.266 158.253 165.743 158.398 165.212 158.392C164.68 158.386 164.161 158.229 163.716 157.939C163.27 157.648 162.917 157.237 162.696 156.754C162.476 156.27 162.398 155.733 162.471 155.207C162.544 154.68 162.766 154.185 163.11 153.78C163.692 153.223 164.47 152.916 165.275 152.926C166.081 152.935 166.851 153.26 167.42 153.83Z" fill="#FF7873"/>
<path d="M166.41 155.12C166.632 155.219 166.81 155.396 166.911 155.616C167.012 155.837 167.03 156.087 166.96 156.32C166.894 156.559 166.749 156.77 166.55 156.918C166.351 157.067 166.108 157.145 165.86 157.14" stroke="#000A67" stroke-width="0.42" stroke-miterlimit="10"/>
<path d="M177.38 165.74C177.38 165.74 158.33 162.64 154.49 168.64C150.11 175.54 155.02 187.38 154.25 201.37H177.16L177.38 165.74Z" fill="#FB9100"/>
<path d="M164.41 164.58L144.41 163.8L140.66 174.8L154.86 182.06L164.41 164.58Z" fill="#FB9100"/>
<path d="M149.84 214.85C149.84 214.85 148.12 242.32 147.42 246.79C146.72 251.26 139.08 259.97 140.7 265.79C142.32 271.61 136.76 269 137.32 282.98H150.46L159.46 251.24L172.41 210.94L149.84 214.85Z" fill="#1B5A96"/>
<path d="M166.31 235.82L161.15 218.89H157.23" stroke="white" stroke-width="0.5" stroke-miterlimit="10"/>
<path d="M177.38 165.74L195.56 168.1L195.4 180.83L171.6 181.06L177.38 165.74Z" fill="#FB9100"/>
<g style="mix-blend-mode:multiply">
<path d="M441.36 173.31L440.96 173C441.8 172.92 442.74 172.76 442.52 172.44C442.16 171.94 439.73 171.76 439.33 171.73L437.47 170.27L434.58 172.27L438.58 176.51C438.58 176.51 439.58 178.7 439.82 178.42C440.06 178.14 439.51 176.67 439.51 176.67C439.51 176.67 441.09 178.32 441.4 178.04C441.71 177.76 440.34 175.87 440.34 175.87C440.34 175.87 443.23 177.39 443.23 176.87C443.23 176.35 441.4 174.8 441.4 174.8C441.4 174.8 443.95 176.14 444.19 175.8C444.43 175.46 441.36 173.31 441.36 173.31Z" fill="#ECECF2"/>
</g>
<path d="M172.38 95.0798H152.45C150.228 95.0798 148.096 94.1969 146.525 92.6254C144.953 91.0538 144.07 88.9223 144.07 86.6998C144.07 84.4773 144.953 82.3458 146.525 80.7743C148.096 79.2027 150.228 78.3198 152.45 78.3198H172.38V95.0798Z" fill="#FB9100"/>
<path d="M163.6 90.9001L161.02 88.3301C161.676 87.3817 161.954 86.222 161.799 85.0791C161.644 83.9362 161.067 82.8927 160.181 82.1538C159.295 81.4148 158.165 81.0338 157.013 81.0857C155.861 81.1376 154.77 81.6186 153.954 82.4342C153.139 83.2498 152.658 84.3409 152.606 85.4932C152.554 86.6454 152.935 87.7754 153.674 88.661C154.413 89.5466 155.456 90.1237 156.599 90.279C157.742 90.4343 158.902 90.1564 159.85 89.5001L162.42 92.0801L163.6 90.9001ZM155.13 87.8001C154.703 87.3835 154.41 86.8492 154.288 86.2652C154.167 85.6813 154.222 85.0743 154.446 84.5218C154.671 83.9693 155.056 83.4964 155.551 83.1635C156.046 82.8306 156.629 82.6528 157.225 82.6528C157.822 82.6528 158.405 82.8306 158.9 83.1635C159.394 83.4964 159.779 83.9693 160.004 84.5218C160.229 85.0743 160.284 85.6813 160.162 86.2652C160.04 86.8492 159.747 87.3835 159.32 87.8001C158.76 88.3468 158.008 88.6528 157.225 88.6528C156.442 88.6528 155.69 88.3468 155.13 87.8001Z" fill="white"/>
<path d="M296.54 93.4201H151.66C149.438 93.4201 147.306 92.5372 145.735 90.9657C144.163 89.3941 143.28 87.2627 143.28 85.0401C143.277 83.938 143.492 82.8461 143.912 81.8271C144.332 80.8081 144.949 79.8819 145.727 79.1016C146.506 78.3214 147.431 77.7023 148.449 77.2799C149.467 76.8576 150.558 76.6401 151.66 76.6401H296.54C298.763 76.6401 300.894 77.523 302.466 79.0946C304.037 80.6661 304.92 82.7976 304.92 85.0201C304.923 86.1223 304.708 87.2142 304.288 88.2332C303.868 89.2522 303.251 90.1784 302.473 90.9586C301.694 91.7389 300.77 92.358 299.752 92.7803C298.734 93.2027 297.642 93.4201 296.54 93.4201Z" stroke="black" stroke-width="0.5" stroke-miterlimit="10"/>
<path d="M181.7 88.8797C181.116 88.8797 180.551 88.8133 180.006 88.6803C179.461 88.5474 179.012 88.3746 178.66 88.1619L179.417 86.4471C179.75 86.6398 180.119 86.796 180.524 86.9156C180.936 87.0286 181.335 87.0851 181.72 87.0851C181.946 87.0851 182.123 87.0718 182.249 87.0453C182.382 87.012 182.478 86.9688 182.538 86.9156C182.598 86.8558 182.628 86.786 182.628 86.7063C182.628 86.58 182.558 86.4803 182.418 86.4072C182.279 86.3341 182.093 86.2742 181.86 86.2277C181.634 86.1745 181.385 86.1214 181.112 86.0682C180.84 86.0084 180.564 85.9319 180.285 85.8389C180.012 85.7458 179.76 85.6229 179.527 85.47C179.301 85.3171 179.118 85.1177 178.979 84.8718C178.839 84.6192 178.769 84.3068 178.769 83.9346C178.769 83.5026 178.889 83.1104 179.128 82.7582C179.374 82.3992 179.736 82.1134 180.215 81.9007C180.7 81.688 181.302 81.5817 182.02 81.5817C182.491 81.5817 182.957 81.6315 183.415 81.7312C183.874 81.8309 184.286 81.9838 184.652 82.1899L183.944 83.8947C183.598 83.7219 183.262 83.5923 182.937 83.5059C182.618 83.4195 182.305 83.3763 182 83.3763C181.774 83.3763 181.594 83.3962 181.461 83.4361C181.328 83.476 181.232 83.5292 181.172 83.5956C181.119 83.6621 181.092 83.7352 181.092 83.815C181.092 83.9346 181.162 84.031 181.302 84.1041C181.441 84.1706 181.624 84.2271 181.85 84.2736C182.083 84.3201 182.335 84.37 182.608 84.4231C182.887 84.4763 183.163 84.5494 183.435 84.6425C183.708 84.7355 183.957 84.8585 184.183 85.0114C184.416 85.1642 184.602 85.3636 184.741 85.6096C184.881 85.8555 184.951 86.1612 184.951 86.5268C184.951 86.9522 184.828 87.3444 184.582 87.7033C184.343 88.0555 183.984 88.3414 183.505 88.5607C183.026 88.7734 182.425 88.8797 181.7 88.8797ZM187.804 84.3334H190.915V86.0283H187.804V84.3334ZM187.964 86.9456H191.453V88.7202H185.651V81.7412H191.324V83.5159H187.964V86.9456ZM191.601 88.7202L194.652 81.7412H196.965L200.016 88.7202H197.583L195.33 82.8579H196.247L193.994 88.7202H191.601ZM193.416 87.5039L194.014 85.809H197.225L197.823 87.5039H193.416ZM200.392 88.7202V81.7412H203.752C204.403 81.7412 204.965 81.8476 205.436 82.0603C205.915 82.2729 206.284 82.5787 206.543 82.9775C206.802 83.3696 206.932 83.8349 206.932 84.3733C206.932 84.9117 206.802 85.3769 206.543 85.7691C206.284 86.1546 205.915 86.4504 205.436 86.6564C204.965 86.8625 204.403 86.9655 203.752 86.9655H201.698L202.745 85.9984V88.7202H200.392ZM204.569 88.7202L202.854 86.1779H205.347L207.082 88.7202H204.569ZM202.745 86.2576L201.698 85.1908H203.602C203.928 85.1908 204.167 85.1177 204.32 84.9715C204.479 84.8253 204.559 84.6259 204.559 84.3733C204.559 84.1207 204.479 83.9213 204.32 83.7751C204.167 83.6289 203.928 83.5558 203.602 83.5558H201.698L202.745 82.489V86.2576ZM211.43 88.8797C210.871 88.8797 210.353 88.7933 209.874 88.6205C209.402 88.4411 208.99 88.1885 208.638 87.8628C208.292 87.5371 208.023 87.1516 207.83 86.7063C207.638 86.2609 207.541 85.7691 207.541 85.2307C207.541 84.6923 207.638 84.2005 207.83 83.7552C208.023 83.3098 208.292 82.9243 208.638 82.5986C208.99 82.2729 209.402 82.0237 209.874 81.8509C210.353 81.6714 210.871 81.5817 211.43 81.5817C212.114 81.5817 212.719 81.7013 213.244 81.9406C213.776 82.1799 214.215 82.5255 214.56 82.9775L213.075 84.3035C212.869 84.0443 212.639 83.8449 212.387 83.7053C212.141 83.5591 211.862 83.486 211.549 83.486C211.303 83.486 211.081 83.5258 210.881 83.6056C210.682 83.6854 210.509 83.8017 210.363 83.9546C210.223 84.1074 210.114 84.2935 210.034 84.5129C209.954 84.7256 209.914 84.9648 209.914 85.2307C209.914 85.4966 209.954 85.7392 210.034 85.9585C210.114 86.1712 210.223 86.354 210.363 86.5069C210.509 86.6597 210.682 86.7761 210.881 86.8558C211.081 86.9356 211.303 86.9755 211.549 86.9755C211.862 86.9755 212.141 86.9057 212.387 86.7661C212.639 86.6199 212.869 86.4171 213.075 86.1579L214.56 87.4839C214.215 87.9293 213.776 88.2749 213.244 88.5208C212.719 88.7601 212.114 88.8797 211.43 88.8797ZM219.766 81.7412H222.119V88.7202H219.766V81.7412ZM217.592 88.7202H215.24V81.7412H217.592V88.7202ZM219.925 86.148H217.433V84.2138H219.925V86.148Z" fill="black"/>
<path d="M346.64 215.84H305.88L310.7 247.73H351.45L346.64 215.84Z" fill="#ECECF2"/>
<path d="M349.96 212.52H309.2L314.02 244.4H354.77L349.96 212.52Z" fill="#1B5A96"/>
<path d="M318.51 227.99L324.51 223.99L324.74 225.48L320.54 228.33L325.59 231.13L325.83 232.69L318.57 228.69L318.51 227.99Z" fill="#FFF6EB"/>
<path d="M335.71 222.84L329.8 234.08H328.25L334.14 222.84H335.71Z" fill="#FFF6EB"/>
<path d="M345.43 228.72L339.37 232.72L339.14 231.16L343.34 228.36L338.28 225.51L338.06 224.02L345.32 228.02L345.43 228.72Z" fill="#FFF6EB"/>
<path d="M206.12 34.3198H246.88L242.06 66.2098H201.3L206.12 34.3198Z" fill="#ECECF2"/>
<path d="M202.8 31H243.55L238.74 62.89H197.98L202.8 31Z" fill="#FB9100"/>
<path d="M232.29 48.8299V45.0599L229.66 44.2699C229.484 43.6766 229.246 43.1034 228.95 42.5599L230.28 40.1299L227.62 37.4599L225.18 38.7899C224.635 38.4963 224.062 38.2584 223.47 38.0799L222.66 35.4199H218.89L218.11 38.0799C217.518 38.2584 216.945 38.4963 216.4 38.7899L213.96 37.4599L211.29 40.1299L212.66 42.5599C212.368 43.1054 212.13 43.6781 211.95 44.2699L209.29 45.0599V48.8299L211.95 49.6099C212.129 50.2024 212.366 50.7753 212.66 51.3199L211.33 53.7599L214 56.4299L216.44 55.0999C216.985 55.3936 217.558 55.6314 218.15 55.8099L218.93 58.4699H222.66L223.45 55.8099C224.042 55.6314 224.615 55.3936 225.16 55.0999L227.6 56.4299L230.26 53.7599L228.93 51.3199C229.233 50.7876 229.477 50.2244 229.66 49.6399L232.29 48.8299ZM220.77 52.6399C219.652 52.6419 218.559 52.3122 217.628 51.6926C216.698 51.073 215.972 50.1912 215.543 49.159C215.114 48.1268 215.001 46.9905 215.217 45.8938C215.434 44.7972 215.972 43.7895 216.761 42.9983C217.551 42.2072 218.558 41.668 219.654 41.4492C220.75 41.2304 221.887 41.3417 222.92 41.7691C223.953 42.1964 224.836 42.9206 225.457 43.8499C226.078 44.7793 226.41 45.872 226.41 46.9899C226.41 48.4867 225.816 49.9223 224.759 50.9815C223.701 52.0408 222.267 52.6373 220.77 52.6399Z" fill="#FFF6EB"/>
</g>
<defs>
<clipPath id="clip0_114_792">
<rect width="570" height="324" fill="white"/>
</clipPath>
</defs>
</svg>
