<svg width="570" height="324" viewBox="0 0 570 324" fill="none" xmlns="http://www.w3.org/2000/svg">
<g clip-path="url(#clip0_76_2664)">
<rect width="570" height="324" fill="#FFF6EB"/>
<g clip-path="url(#clip1_76_2664)">
<path d="M401.48 172.22H305.55C301.847 172.204 298.302 170.722 295.689 168.098C293.077 165.474 291.61 161.923 291.61 158.22V56.0999C291.626 52.4077 293.1 48.8711 295.71 46.2603C298.321 43.6495 301.858 42.1757 305.55 42.1599H401.48C405.172 42.1757 408.709 43.6495 411.32 46.2603C413.93 48.8711 415.404 52.4077 415.42 56.0999V158.22C415.42 161.923 413.953 165.474 411.341 168.098C408.728 170.722 405.183 172.204 401.48 172.22ZM305.55 42.9199C302.055 42.9226 298.704 44.312 296.233 46.7832C293.762 49.2543 292.373 52.6052 292.37 56.0999V158.22C292.373 161.715 293.762 165.065 296.233 167.537C298.704 170.008 302.055 171.397 305.55 171.4H401.48C404.975 171.397 408.326 170.008 410.797 167.537C413.268 165.065 414.657 161.715 414.66 158.22V56.0999C414.657 52.6052 413.268 49.2543 410.797 46.7832C408.326 44.312 404.975 42.9226 401.48 42.9199H305.55Z" fill="black"/>
<path d="M406.85 60.8999H300.21C300.109 60.8999 300.013 60.8599 299.941 60.7886C299.87 60.7173 299.83 60.6207 299.83 60.5199C299.83 60.4191 299.87 60.3225 299.941 60.2512C300.013 60.1799 300.109 60.1399 300.21 60.1399H406.85C406.951 60.1399 407.047 60.1799 407.119 60.2512C407.19 60.3225 407.23 60.4191 407.23 60.5199C407.23 60.6207 407.19 60.7173 407.119 60.7886C407.047 60.8599 406.951 60.8999 406.85 60.8999Z" fill="black"/>
<path d="M314.35 51.53C314.346 52.1798 314.15 52.8139 313.786 53.3523C313.422 53.8907 312.907 54.3093 312.305 54.5552C311.704 54.8012 311.043 54.8635 310.406 54.7343C309.769 54.6051 309.185 54.2902 308.727 53.8293C308.269 53.3684 307.957 52.7821 307.832 52.1445C307.707 51.5069 307.773 50.8464 308.022 50.2464C308.272 49.6464 308.694 49.1337 309.234 48.7731C309.775 48.4124 310.41 48.22 311.06 48.22C311.494 48.22 311.923 48.3057 312.324 48.4723C312.724 48.6389 313.088 48.883 313.393 49.1907C313.699 49.4983 313.941 49.8633 314.105 50.2648C314.27 50.6663 314.353 51.0962 314.35 51.53Z" fill="#FB9100"/>
<path d="M326.76 51.53C326.756 52.1798 326.56 52.8139 326.196 53.3523C325.832 53.8907 325.317 54.3093 324.715 54.5552C324.114 54.8012 323.453 54.8635 322.816 54.7343C322.179 54.6051 321.595 54.2902 321.137 53.8293C320.679 53.3684 320.367 52.7821 320.242 52.1445C320.116 51.5069 320.183 50.8464 320.432 50.2464C320.682 49.6464 321.104 49.1337 321.644 48.7731C322.185 48.4124 322.82 48.22 323.47 48.22C323.904 48.22 324.333 48.3057 324.734 48.4723C325.134 48.6389 325.498 48.883 325.803 49.1907C326.109 49.4983 326.351 49.8633 326.515 50.2648C326.679 50.6663 326.763 51.0962 326.76 51.53Z" fill="#1B5A96"/>
<path d="M339.21 51.5301C339.206 52.1787 339.01 52.8116 338.648 53.3493C338.285 53.887 337.772 54.3056 337.172 54.5524C336.572 54.7992 335.913 54.8633 335.277 54.7365C334.641 54.6097 334.056 54.2978 333.597 53.8399C333.138 53.3819 332.824 52.7985 332.695 52.1628C332.567 51.5272 332.629 50.8676 332.874 50.2671C333.119 49.6666 333.536 49.1519 334.073 48.7877C334.609 48.4235 335.241 48.226 335.89 48.2201C336.326 48.2161 336.759 48.2989 337.163 48.4637C337.567 48.6286 337.934 48.8721 338.243 49.1801C338.552 49.4881 338.797 49.8545 338.963 50.258C339.129 50.6614 339.213 51.0938 339.21 51.5301Z" fill="#FB9100"/>
<path d="M282.39 71.1101C282.289 71.1101 282.193 71.0701 282.121 70.9988C282.05 70.9276 282.01 70.8309 282.01 70.7301C282.01 69.2101 282.01 67.9801 282.01 66.8801C282.01 64.9901 282.06 63.5001 282.01 61.5601C281.93 59.8101 282.01 58.0401 282.01 56.3301C282.01 54.6201 282.08 52.9001 282.01 51.1901C281.971 48.5306 282.569 45.9003 283.754 43.5188C284.939 41.1374 286.676 39.0737 288.82 37.5001C292.39 34.8965 296.558 33.2353 300.94 32.6701C305.278 32.0917 309.656 31.8709 314.03 32.0101H324.03C328.6 32.0101 333.1 32.0101 337.86 32.0101C341.11 32.0101 344.47 32.0601 347.86 32.0601C347.961 32.0601 348.057 32.1002 348.129 32.1714C348.2 32.2427 348.24 32.3393 348.24 32.4401C348.24 32.5409 348.2 32.6376 348.129 32.7088C348.057 32.7801 347.961 32.8201 347.86 32.8201C344.48 32.8201 341.12 32.8201 337.86 32.8201C333.1 32.8201 328.6 32.7601 324.03 32.8201H314.03C309.686 32.6799 305.338 32.8973 301.03 33.4701C296.773 34.0175 292.722 35.6269 289.25 38.1501C287.207 39.6549 285.551 41.6239 284.419 43.8947C283.287 46.1655 282.712 48.673 282.74 51.2101C282.81 52.9501 282.74 54.7001 282.74 56.3901C282.74 58.0801 282.66 59.8501 282.74 61.5801C282.82 63.5801 282.8 65.0401 282.74 66.9501C282.74 68.0401 282.74 69.2701 282.74 70.7801C282.729 70.8671 282.688 70.9474 282.624 71.0076C282.56 71.0677 282.477 71.1039 282.39 71.1101Z" fill="black"/>
<path d="M398.79 70.73H308.21C306.925 70.7326 305.694 71.2448 304.787 72.154C303.88 73.0633 303.37 74.2954 303.37 75.58V116.92C303.37 118.205 303.88 119.437 304.787 120.346C305.694 121.255 306.925 121.767 308.21 121.77H398.76C400.046 121.77 401.28 121.259 402.189 120.349C403.099 119.44 403.61 118.206 403.61 116.92V75.58C403.61 74.2989 403.103 73.0698 402.2 72.1611C401.297 71.2524 400.071 70.7379 398.79 70.73ZM384.27 113.73C384.27 114.401 384.003 115.044 383.529 115.519C383.054 115.993 382.411 116.26 381.74 116.26H325.38C324.709 116.26 324.065 115.993 323.591 115.519C323.117 115.044 322.85 114.401 322.85 113.73V110.05C322.849 109.717 322.913 109.387 323.04 109.079C323.166 108.771 323.352 108.491 323.587 108.255C323.823 108.019 324.102 107.831 324.409 107.704C324.717 107.576 325.047 107.51 325.38 107.51H381.74C382.073 107.51 382.403 107.576 382.711 107.704C383.018 107.831 383.297 108.019 383.533 108.255C383.768 108.491 383.954 108.771 384.08 109.079C384.207 109.387 384.271 109.717 384.27 110.05V113.73Z" fill="#1B5A96"/>
<path d="M381.74 116.65H325.38C324.998 116.65 324.619 116.575 324.266 116.428C323.913 116.282 323.593 116.068 323.322 115.798C323.052 115.527 322.838 115.207 322.692 114.854C322.545 114.5 322.47 114.122 322.47 113.74V110.06C322.47 109.287 322.776 108.546 323.322 107.999C323.867 107.451 324.607 107.143 325.38 107.14H381.74C382.513 107.143 383.253 107.451 383.798 107.999C384.344 108.546 384.65 109.287 384.65 110.06V113.74C384.65 114.512 384.343 115.252 383.798 115.798C383.252 116.343 382.512 116.65 381.74 116.65ZM325.38 107.9C324.809 107.903 324.262 108.131 323.859 108.536C323.456 108.941 323.23 109.489 323.23 110.06V113.74C323.23 114.31 323.457 114.857 323.86 115.26C324.263 115.663 324.81 115.89 325.38 115.89H381.74C382.31 115.89 382.857 115.663 383.26 115.26C383.664 114.857 383.89 114.31 383.89 113.74V110.06C383.89 109.489 383.664 108.941 383.261 108.536C382.858 108.131 382.311 107.903 381.74 107.9H325.38Z" fill="black"/>
<path d="M373.11 111.9H367.63C368.822 114.012 369.679 116.296 370.17 118.67C372.73 130.67 366.08 142.9 355.33 145.89C353.512 146.399 351.626 146.618 349.74 146.54L355.36 146.78C357.246 146.858 359.132 146.639 360.95 146.13C371.7 143.13 378.35 130.95 375.79 118.91C375.281 116.444 374.376 114.077 373.11 111.9Z" fill="black"/>
<path d="M356.11 147.22H355.35L349.73 146.98C349.628 146.975 349.533 146.93 349.464 146.855C349.394 146.781 349.357 146.682 349.36 146.58C349.36 146.529 349.37 146.479 349.391 146.432C349.411 146.386 349.441 146.344 349.479 146.31C349.517 146.276 349.562 146.251 349.61 146.235C349.658 146.22 349.709 146.214 349.76 146.22C351.606 146.3 353.453 146.084 355.23 145.58C365.77 142.65 372.31 130.64 369.8 118.81C369.315 116.471 368.472 114.221 367.3 112.14C367.268 112.084 367.252 112.02 367.252 111.955C367.252 111.89 367.268 111.827 367.3 111.77C367.334 111.713 367.382 111.665 367.44 111.632C367.498 111.599 367.563 111.581 367.63 111.58H373.11C373.177 111.579 373.243 111.596 373.301 111.629C373.359 111.663 373.407 111.712 373.44 111.77C374.721 113.983 375.639 116.387 376.16 118.89C378.75 131.11 371.97 143.52 361.05 146.56C359.441 147.002 357.779 147.224 356.11 147.22ZM354.96 146.42H355.38C357.222 146.496 359.065 146.28 360.84 145.78C371.39 142.85 377.93 130.84 375.42 119.01C374.927 116.657 374.073 114.393 372.89 112.3H368.27C369.321 114.285 370.086 116.41 370.54 118.61C373.13 130.83 366.35 143.24 355.43 146.28L354.96 146.42Z" fill="black"/>
<path d="M367.63 111.9H334.01C330.937 117.217 329.94 123.482 331.21 129.49C333.77 141.49 344.55 148.88 355.3 145.89C366.05 142.9 372.7 130.71 370.14 118.67C369.655 116.298 368.809 114.015 367.63 111.9Z" fill="#CBA402"/>
<path d="M350.5 146.94C347.099 146.93 343.767 145.982 340.87 144.2C338.297 142.568 336.084 140.429 334.365 137.914C332.645 135.399 331.456 132.56 330.87 129.57C329.546 123.475 330.548 117.104 333.68 111.71C333.713 111.651 333.761 111.603 333.819 111.569C333.877 111.536 333.943 111.519 334.01 111.52H367.63C367.697 111.521 367.762 111.539 367.82 111.572C367.878 111.605 367.926 111.653 367.96 111.71C369.172 113.856 370.042 116.177 370.54 118.59C373.13 130.81 366.35 143.22 355.43 146.26C353.825 146.707 352.166 146.936 350.5 146.94ZM334.21 112.28C331.26 117.474 330.331 123.574 331.6 129.41C332.164 132.299 333.31 135.042 334.97 137.473C336.629 139.904 338.766 141.972 341.25 143.55C343.317 144.836 345.63 145.677 348.04 146.022C350.45 146.366 352.905 146.205 355.25 145.55C365.79 142.62 372.33 130.61 369.82 118.78C369.346 116.516 368.537 114.336 367.42 112.31L334.21 112.28Z" fill="black"/>
<path d="M359.83 111.9H341.83C339.729 113.935 338.185 116.474 337.345 119.275C336.504 122.076 336.396 125.045 337.03 127.9C338.83 136.4 346.43 141.57 354.03 139.47C361.63 137.37 366.21 128.76 364.43 120.22C363.783 117.042 362.178 114.138 359.83 111.9Z" fill="#FFB902"/>
<path d="M355.63 126.54C355.668 127.106 355.593 127.673 355.41 128.21C355.235 128.696 354.963 129.142 354.61 129.52C354.234 129.902 353.789 130.211 353.3 130.43C352.754 130.678 352.175 130.843 351.58 130.92L351.48 133.21C351.489 133.259 351.489 133.31 351.48 133.36C351.453 133.408 351.411 133.447 351.36 133.47C351.277 133.508 351.19 133.535 351.1 133.55C350.964 133.563 350.826 133.563 350.69 133.55C350.52 133.566 350.35 133.566 350.18 133.55C350.074 133.543 349.969 133.52 349.87 133.48C349.836 133.466 349.805 133.446 349.78 133.42C349.754 133.394 349.734 133.364 349.72 133.33C349.699 133.261 349.699 133.188 349.72 133.12L349.83 130.95C349.554 130.924 349.28 130.88 349.01 130.82C348.773 130.772 348.539 130.709 348.31 130.63C348.124 130.572 347.944 130.498 347.77 130.41C347.641 130.349 347.523 130.268 347.42 130.17C347.323 130.075 347.257 129.953 347.23 129.82C347.18 129.59 347.153 129.355 347.15 129.12C347.15 128.87 347.15 128.68 347.15 128.52C347.152 128.395 347.169 128.271 347.2 128.15C347.223 128.08 347.265 128.018 347.32 127.97C347.371 127.937 347.43 127.92 347.49 127.92C347.631 127.928 347.766 127.977 347.88 128.06C348.05 128.16 348.27 128.26 348.53 128.38C348.855 128.505 349.19 128.605 349.53 128.68C349.96 128.773 350.401 128.807 350.84 128.78C351.456 128.798 352.06 128.604 352.55 128.23C352.725 128.074 352.862 127.881 352.95 127.664C353.039 127.447 353.076 127.213 353.06 126.98C353.058 126.679 352.956 126.387 352.77 126.15C352.585 125.92 352.353 125.733 352.09 125.6C351.79 125.437 351.475 125.303 351.15 125.2L350.08 124.83C349.71 124.698 349.349 124.541 349 124.36C348.633 124.182 348.296 123.949 348 123.67C347.707 123.382 347.47 123.043 347.3 122.67C347.104 122.197 346.995 121.692 346.98 121.18C346.956 120.683 347.017 120.186 347.16 119.71C347.306 119.279 347.529 118.879 347.82 118.53C348.134 118.178 348.515 117.893 348.94 117.69C349.419 117.45 349.931 117.284 350.46 117.2L350.56 115.05C350.55 115.004 350.55 114.956 350.56 114.91C350.589 114.86 350.63 114.819 350.68 114.79C350.76 114.753 350.844 114.726 350.93 114.71H351.35C351.523 114.694 351.697 114.694 351.87 114.71C351.976 114.717 352.081 114.74 352.18 114.78C352.214 114.793 352.245 114.814 352.27 114.84C352.296 114.865 352.316 114.896 352.33 114.93C352.341 114.999 352.341 115.07 352.33 115.14L352.23 117.14L352.82 117.23C353.02 117.267 353.217 117.317 353.41 117.38C353.58 117.434 353.747 117.497 353.91 117.57C354.023 117.616 354.128 117.68 354.22 117.76C354.278 117.807 354.325 117.864 354.36 117.93C354.396 118 354.423 118.073 354.44 118.15C354.448 118.256 354.448 118.363 354.44 118.47C354.44 118.59 354.44 118.73 354.44 118.9C354.449 119.08 354.449 119.26 354.44 119.44C354.458 119.549 354.458 119.661 354.44 119.77C354.428 119.827 354.401 119.879 354.36 119.92C354.321 119.935 354.278 119.935 354.24 119.92C354.105 119.915 353.974 119.873 353.86 119.8C353.69 119.72 353.48 119.63 353.23 119.54C352.953 119.434 352.669 119.347 352.38 119.28C352.036 119.198 351.683 119.167 351.33 119.19C351.031 119.202 350.736 119.252 350.45 119.34C350.234 119.404 350.035 119.517 349.87 119.67C349.723 119.795 349.612 119.957 349.55 120.14C349.487 120.33 349.46 120.53 349.47 120.73C349.474 121.031 349.575 121.322 349.76 121.56C349.951 121.787 350.186 121.974 350.45 122.11C350.771 122.276 351.105 122.413 351.45 122.52L352.54 122.89C352.912 123.022 353.276 123.175 353.63 123.35C353.995 123.525 354.332 123.755 354.63 124.03C354.929 124.315 355.17 124.654 355.34 125.03C355.536 125.509 355.635 126.022 355.63 126.54Z" fill="black"/>
<path d="M392.28 213.09C391.362 213.09 390.465 212.818 389.702 212.308C388.939 211.798 388.344 211.074 387.993 210.226C387.642 209.378 387.55 208.445 387.729 207.545C387.908 206.645 388.35 205.818 388.999 205.169C389.648 204.52 390.475 204.078 391.375 203.899C392.275 203.72 393.208 203.812 394.056 204.163C394.904 204.514 395.628 205.109 396.138 205.872C396.648 206.635 396.92 207.532 396.92 208.45C396.92 209.681 396.431 210.861 395.561 211.731C394.691 212.601 393.511 213.09 392.28 213.09ZM392.28 204.58C391.512 204.58 390.762 204.808 390.123 205.235C389.485 205.661 388.988 206.268 388.694 206.978C388.401 207.687 388.325 208.468 388.475 209.221C388.626 209.974 388.996 210.665 389.54 211.207C390.084 211.749 390.776 212.118 391.529 212.267C392.282 212.415 393.063 212.337 393.772 212.042C394.481 211.747 395.086 211.248 395.511 210.608C395.936 209.969 396.162 209.218 396.16 208.45C396.157 207.423 395.747 206.438 395.02 205.713C394.293 204.987 393.307 204.58 392.28 204.58Z" fill="#1B5A96"/>
<path d="M230.21 106.68C229.292 106.68 228.395 106.408 227.632 105.898C226.869 105.388 226.274 104.663 225.923 103.816C225.572 102.968 225.48 102.035 225.659 101.135C225.838 100.235 226.28 99.4078 226.929 98.7589C227.578 98.11 228.405 97.6681 229.305 97.4891C230.205 97.31 231.138 97.4019 231.986 97.7531C232.834 98.1043 233.558 98.699 234.068 99.4621C234.578 100.225 234.85 101.122 234.85 102.04C234.847 103.27 234.358 104.448 233.488 105.318C232.618 106.188 231.44 106.677 230.21 106.68ZM230.21 98.2199C229.442 98.2199 228.692 98.4477 228.053 98.8745C227.415 99.3013 226.918 99.9079 226.624 100.617C226.331 101.327 226.255 102.108 226.405 102.861C226.556 103.613 226.926 104.305 227.47 104.847C228.014 105.389 228.706 105.758 229.459 105.907C230.213 106.055 230.993 105.977 231.702 105.682C232.411 105.386 233.016 104.888 233.441 104.248C233.866 103.609 234.092 102.858 234.09 102.09C234.087 101.063 233.677 100.078 232.95 99.3528C232.223 98.6273 231.237 98.2199 230.21 98.2199Z" fill="#1B5A96"/>
<path d="M414.34 256.68C413.097 252.384 410.609 248.553 407.189 245.671C403.768 242.79 399.571 240.987 395.126 240.492C390.681 239.996 386.19 240.83 382.219 242.887C378.248 244.945 374.977 248.133 372.818 252.05C370.66 255.967 369.711 260.436 370.093 264.892C370.474 269.347 372.169 273.59 374.962 277.083C377.755 280.576 381.521 283.162 385.784 284.514C390.046 285.866 394.614 285.924 398.91 284.68C401.762 283.855 404.424 282.477 406.743 280.623C409.062 278.77 410.993 276.477 412.426 273.877C413.859 271.277 414.766 268.42 415.094 265.469C415.422 262.518 415.166 259.532 414.34 256.68ZM404.07 256.94L400.76 262.75C400.656 262.953 400.602 263.177 400.602 263.405C400.602 263.633 400.656 263.857 400.76 264.06L403.68 270.06C403.796 270.297 403.843 270.561 403.816 270.823C403.789 271.085 403.689 271.334 403.528 271.543C403.366 271.751 403.15 271.91 402.903 272.001C402.656 272.093 402.388 272.113 402.13 272.06L395.59 270.72C395.367 270.672 395.135 270.68 394.915 270.742C394.695 270.805 394.494 270.921 394.33 271.08L389.51 275.71C389.322 275.894 389.087 276.021 388.83 276.076C388.573 276.132 388.306 276.115 388.059 276.026C387.812 275.938 387.595 275.781 387.432 275.575C387.27 275.369 387.168 275.121 387.14 274.86L386.39 268.21C386.366 267.984 386.287 267.768 386.159 267.579C386.032 267.391 385.861 267.237 385.66 267.13L379.76 263.98C379.529 263.857 379.338 263.672 379.207 263.446C379.076 263.22 379.011 262.961 379.02 262.7C379.028 262.439 379.109 262.185 379.254 261.968C379.399 261.751 379.602 261.578 379.84 261.47L385.94 258.7C386.142 258.607 386.319 258.468 386.458 258.295C386.597 258.121 386.694 257.918 386.74 257.7L387.91 251.11C387.958 250.853 388.076 250.615 388.252 250.421C388.427 250.228 388.653 250.087 388.904 250.014C389.155 249.942 389.422 249.94 389.673 250.01C389.925 250.08 390.152 250.219 390.33 250.41L394.84 255.35C394.994 255.518 395.186 255.647 395.4 255.725C395.614 255.804 395.844 255.829 396.07 255.8L402.7 254.88C402.953 254.855 403.208 254.899 403.438 255.008C403.668 255.117 403.864 255.286 404.005 255.498C404.146 255.71 404.226 255.956 404.238 256.21C404.249 256.464 404.191 256.716 404.07 256.94Z" fill="#FB9100"/>
<path d="M162.41 241.22C162.41 241.22 154.08 257.11 155.55 273.59C157.18 291.89 176.99 290.84 187.48 282.12C204.67 267.83 196.68 252.48 196.68 252.48L162.41 241.22Z" fill="#FFCFC5"/>
<path d="M171.02 288.53C168.659 288.561 166.315 288.129 164.12 287.26C160.46 285.73 155.93 282.13 155.17 273.6C153.7 257.2 161.99 241.18 162.08 241.02C162.121 240.941 162.189 240.879 162.271 240.846C162.354 240.813 162.446 240.811 162.53 240.84L196.79 252.09C196.886 252.122 196.965 252.19 197.01 252.28C197.1 252.44 204.95 268.07 187.72 282.39C183.009 286.269 177.121 288.434 171.02 288.53ZM162.6 241.66C161.51 243.88 154.6 258.56 155.93 273.53C156.5 279.98 159.44 284.53 164.41 286.53C171.02 289.28 180.62 287.28 187.24 281.78C203.13 268.57 197.12 254.29 196.4 252.78L162.6 241.66Z" fill="black"/>
<path d="M236.66 188.89L224.05 184.66C224.05 184.66 200.64 189.66 185.73 204.07C173.21 216.16 162.41 241.22 162.41 241.22L200.46 256.73L221.69 223.83" fill="#FB9100"/>
<path d="M200.46 257.09H200.32L162.27 241.57C162.223 241.551 162.18 241.524 162.144 241.488C162.108 241.453 162.08 241.411 162.06 241.364C162.041 241.318 162.03 241.268 162.03 241.217C162.03 241.167 162.04 241.117 162.06 241.07C162.17 240.82 173.06 215.82 185.46 203.81C200.28 189.5 223.73 184.36 223.97 184.31C224.035 184.291 224.105 184.291 224.17 184.31L236.79 188.54C236.884 188.574 236.961 188.643 237.006 188.732C237.05 188.821 237.059 188.924 237.03 189.02C236.996 189.116 236.926 189.195 236.834 189.24C236.742 189.285 236.637 189.292 236.54 189.26L224.02 185.06C222.34 185.44 200.16 190.67 186.02 204.35C174.51 215.47 164.32 237.91 162.95 241L200.31 256.22L221.37 223.59C221.425 223.505 221.512 223.445 221.611 223.423C221.71 223.4 221.813 223.417 221.9 223.47C221.942 223.497 221.979 223.533 222.007 223.574C222.036 223.616 222.056 223.663 222.066 223.712C222.076 223.761 222.076 223.812 222.067 223.862C222.057 223.911 222.038 223.958 222.01 224L200.78 256.9C200.748 256.957 200.702 257.005 200.646 257.038C200.589 257.072 200.525 257.089 200.46 257.09Z" fill="black"/>
<path d="M359.33 180.22C359.33 180.22 369.08 242.56 348.04 254.4C332.72 263.03 306.6 244.4 306.6 244.4L320.15 210.96C323.753 213.673 326.871 216.976 329.37 220.73C329.37 220.73 336.28 194.73 343.21 178.61" fill="#FFCFC5"/>
<path d="M338.42 257.13C323.94 257.13 307.25 245.38 306.42 244.76C306.351 244.71 306.301 244.639 306.277 244.557C306.254 244.476 306.258 244.389 306.29 244.31L319.84 210.87C319.859 210.817 319.891 210.769 319.933 210.73C319.975 210.692 320.025 210.664 320.08 210.65C320.136 210.634 320.195 210.631 320.252 210.642C320.309 210.652 320.363 210.675 320.41 210.71C323.815 213.284 326.803 216.367 329.27 219.85C330.52 215.27 336.73 192.85 342.9 178.5C342.942 178.409 343.017 178.338 343.111 178.302C343.205 178.267 343.308 178.269 343.4 178.31C343.447 178.328 343.49 178.356 343.525 178.392C343.561 178.427 343.589 178.47 343.608 178.517C343.627 178.564 343.636 178.614 343.634 178.664C343.633 178.715 343.621 178.764 343.6 178.81C336.75 194.72 329.85 220.62 329.78 220.88C329.763 220.952 329.724 221.018 329.668 221.068C329.613 221.118 329.544 221.15 329.47 221.16C329.396 221.171 329.32 221.159 329.253 221.127C329.185 221.095 329.129 221.044 329.09 220.98C326.712 217.403 323.763 214.241 320.36 211.62L307.11 244.31C309.27 245.8 325.11 256.31 338.58 256.31C341.823 256.39 345.032 255.625 347.89 254.09C368.46 242.51 359.09 180.92 358.99 180.3C358.976 180.199 359.001 180.097 359.061 180.015C359.12 179.933 359.21 179.877 359.31 179.86C359.409 179.846 359.51 179.871 359.591 179.931C359.672 179.991 359.725 180.081 359.74 180.18C361.288 191.014 362.04 201.946 361.99 212.89C361.74 235.69 357.12 249.77 348.27 254.76C345.248 256.39 341.853 257.207 338.42 257.13Z" fill="black"/>
<path d="M334.21 234.31C334.111 234.31 334.016 234.271 333.945 234.202C333.874 234.133 333.833 234.039 333.83 233.94C333.71 229.53 329.08 221.05 329.03 220.94C328.983 220.851 328.972 220.747 329 220.65C329.028 220.553 329.093 220.47 329.18 220.42C329.269 220.373 329.373 220.362 329.47 220.39C329.567 220.418 329.65 220.482 329.7 220.57C329.89 220.92 334.46 229.3 334.59 233.89C334.59 233.99 334.552 234.086 334.483 234.159C334.414 234.231 334.32 234.275 334.22 234.28L334.21 234.31Z" fill="black"/>
<path d="M238.15 192.52L257.46 185.65C257.46 185.65 271.28 186.07 288.46 193.2C308.11 201.34 320.11 211.01 320.11 211.01L306.56 244.45C297.9 238.52 290.25 234.13 282.25 226.68" fill="#FB9100"/>
<path d="M306.6 244.83C306.526 244.83 306.453 244.81 306.39 244.77C304.34 243.37 302.34 242.05 300.39 240.77C294.09 236.6 288.15 232.67 282.01 226.96C281.974 226.925 281.946 226.883 281.927 226.836C281.907 226.79 281.897 226.74 281.897 226.69C281.897 226.64 281.907 226.59 281.927 226.544C281.946 226.497 281.974 226.455 282.01 226.42C282.083 226.35 282.179 226.311 282.28 226.311C282.381 226.311 282.477 226.35 282.55 226.42C288.64 232.09 294.55 236.01 300.83 240.15C302.64 241.35 304.51 242.59 306.43 243.89L319.69 211.15C310.022 204.007 299.497 198.104 288.36 193.58C278.552 189.419 268.133 186.88 257.51 186.06L238.28 192.9C238.185 192.933 238.08 192.927 237.989 192.883C237.898 192.839 237.828 192.76 237.795 192.665C237.762 192.57 237.768 192.465 237.812 192.374C237.856 192.283 237.935 192.213 238.03 192.18L257.33 185.32C257.376 185.31 257.424 185.31 257.47 185.32C257.61 185.32 271.55 185.83 288.65 192.9C308.12 200.96 320.27 210.67 320.39 210.77C320.453 210.822 320.498 210.893 320.518 210.972C320.538 211.051 320.531 211.135 320.5 211.21L306.95 244.65C306.929 244.702 306.896 244.749 306.855 244.787C306.813 244.825 306.764 244.853 306.71 244.87L306.6 244.83Z" fill="black"/>
<path d="M184.83 292.06C187.479 268.552 191.414 245.207 196.62 222.13C196.62 222.13 218.17 179.68 255.12 188.96C272.58 193.34 285.7 222.13 285.7 222.13C285.7 222.13 293.75 249.38 292.55 292.06H184.83Z" fill="#FB9100"/>
<path d="M251.67 174.44C251.67 174.44 251.27 180.25 252.42 181.76C251.196 183.395 249.602 184.715 247.767 185.612C245.933 186.51 243.912 186.958 241.87 186.92C234.68 186.92 230.07 181.2 230.07 181.2C230.07 181.2 233.35 172.2 232.86 164.96C232.37 157.72 251.67 174.44 251.67 174.44Z" fill="#FFCFC5"/>
<path d="M241.87 187.3C234.58 187.3 229.97 181.67 229.78 181.43C229.737 181.382 229.708 181.322 229.698 181.259C229.687 181.195 229.695 181.129 229.72 181.07C229.72 180.98 232.96 172.07 232.48 164.98C232.406 164.597 232.451 164.2 232.608 163.842C232.765 163.485 233.027 163.184 233.36 162.98C236.85 161.25 250.36 172.87 251.92 174.2C251.965 174.24 252 174.289 252.022 174.345C252.045 174.4 252.054 174.46 252.05 174.52C251.94 176.09 251.85 180.44 252.73 181.57C252.774 181.635 252.798 181.711 252.798 181.79C252.798 181.868 252.774 181.945 252.73 182.01C251.475 183.696 249.834 185.056 247.944 185.977C246.054 186.897 243.971 187.351 241.87 187.3ZM230.51 181.12C231.31 182.02 235.62 186.54 241.87 186.54C243.807 186.563 245.723 186.142 247.472 185.31C249.221 184.478 250.756 183.257 251.96 181.74C251.02 180.06 251.21 175.69 251.28 174.6C245.4 169.52 235.98 162.48 233.7 163.6C233.57 163.67 233.17 163.87 233.24 164.92C233.69 171.59 230.99 179.71 230.51 181.12Z" fill="black"/>
<path d="M262.05 150.85C262.45 152.52 263.8 153.76 265.05 154.85C266.3 155.94 267.68 157.25 268.05 158.93C268.197 159.778 268.107 160.65 267.79 161.449C267.472 162.249 266.939 162.945 266.25 163.46C265.554 163.963 264.759 164.312 263.917 164.485C263.076 164.657 262.208 164.649 261.37 164.46" fill="#FFCFC5"/>
<path d="M262.73 165.01C262.249 165.01 261.77 164.96 261.3 164.86C261.251 164.851 261.204 164.831 261.163 164.803C261.121 164.775 261.086 164.739 261.059 164.697C261.032 164.655 261.013 164.608 261.005 164.559C260.997 164.509 260.998 164.459 261.01 164.41C261.02 164.361 261.039 164.314 261.067 164.272C261.095 164.23 261.13 164.194 261.172 164.166C261.214 164.138 261.261 164.119 261.311 164.109C261.36 164.1 261.411 164.1 261.46 164.11C262.243 164.291 263.056 164.302 263.844 164.143C264.632 163.985 265.378 163.66 266.03 163.19C266.663 162.722 267.154 162.086 267.447 161.355C267.74 160.624 267.824 159.826 267.69 159.05C267.37 157.53 266.15 156.35 264.83 155.18C263.51 154.01 262.11 152.77 261.68 150.94C261.668 150.891 261.666 150.841 261.674 150.792C261.681 150.742 261.699 150.695 261.725 150.652C261.751 150.609 261.785 150.572 261.825 150.543C261.866 150.513 261.911 150.492 261.96 150.48C262.009 150.468 262.059 150.466 262.108 150.474C262.158 150.481 262.205 150.499 262.248 150.525C262.291 150.551 262.328 150.585 262.357 150.625C262.387 150.666 262.408 150.711 262.42 150.76C262.8 152.36 264.21 153.61 265.34 154.61C266.76 155.87 268.07 157.15 268.43 158.89C268.597 159.808 268.504 160.754 268.161 161.622C267.818 162.49 267.239 163.244 266.49 163.8C265.402 164.603 264.082 165.028 262.73 165.01Z" fill="black"/>
<path d="M242.9 172.72C249.45 179.16 263.73 177.29 264.9 167.4C265.9 158.77 261.9 150.91 262.63 145.53C262.657 145.226 262.711 144.925 262.79 144.63L262.94 143.98C263.55 140.24 263.499 136.422 262.79 132.7C262.79 132.7 238.33 125.41 232.92 136.7C223.21 157.04 242.9 172.72 242.9 172.72Z" fill="#FFCFC5"/>
<path d="M263.85 155.49C263.763 155.491 263.678 155.462 263.61 155.407C263.543 155.352 263.496 155.275 263.48 155.19L263.25 154.14C262.54 150.82 261.92 147.94 262.25 145.48C262.281 145.162 262.337 144.848 262.42 144.54L262.57 143.89C263.162 140.202 263.111 136.44 262.42 132.77C262.402 132.672 262.422 132.571 262.476 132.487C262.529 132.404 262.613 132.344 262.71 132.32C262.759 132.31 262.81 132.309 262.859 132.319C262.909 132.329 262.956 132.348 262.998 132.376C263.04 132.404 263.075 132.44 263.103 132.482C263.131 132.523 263.15 132.57 263.16 132.62C263.884 136.391 263.935 140.261 263.31 144.05L263.16 144.72C263.09 144.999 263.039 145.283 263.01 145.57C262.7 147.91 263.3 150.73 264.01 153.98L264.23 155.03C264.242 155.079 264.244 155.13 264.235 155.18C264.227 155.23 264.209 155.278 264.182 155.321C264.155 155.364 264.12 155.401 264.078 155.43C264.036 155.459 263.99 155.479 263.94 155.49H263.85Z" fill="black"/>
<path d="M254.44 176.78C254.347 176.78 254.257 176.745 254.188 176.682C254.12 176.619 254.078 176.533 254.07 176.44C254.064 176.39 254.069 176.339 254.083 176.291C254.097 176.243 254.121 176.198 254.152 176.159C254.184 176.12 254.223 176.087 254.267 176.064C254.311 176.04 254.36 176.025 254.41 176.02C258.85 175.58 263.84 173.02 264.52 167.36C264.755 165.31 264.755 163.24 264.52 161.19C264.515 161.14 264.519 161.09 264.534 161.041C264.548 160.993 264.571 160.949 264.603 160.91C264.667 160.831 264.759 160.781 264.86 160.77C264.961 160.759 265.062 160.789 265.14 160.853C265.219 160.917 265.269 161.009 265.28 161.11C265.515 163.217 265.515 165.343 265.28 167.45C264.68 172.52 260.44 176.19 254.48 176.78H254.44Z" fill="black"/>
<path d="M262.94 143.98L262.79 144.63C262.711 144.925 262.657 145.226 262.63 145.53C260.312 145.546 257.998 145.74 255.71 146.11C255.639 146.121 255.565 146.11 255.501 146.077C255.437 146.044 255.385 145.991 255.352 145.926C255.32 145.862 255.309 145.788 255.321 145.717C255.334 145.646 255.368 145.58 255.42 145.53C256.429 144.638 257.654 144.026 258.974 143.754C260.293 143.482 261.66 143.56 262.94 143.98Z" fill="black"/>
<path d="M251.91 150.81C251.91 150.81 247.52 143.88 242.35 146.39C237.75 148.63 237.91 158.21 246.77 159.79" fill="white"/>
<path d="M246.77 160.22H246.7C242.44 159.45 239.58 156.75 239.06 152.99C238.65 149.99 239.93 147.19 242.18 146.1C247.6 143.47 252.18 150.58 252.23 150.66C252.264 150.702 252.288 150.75 252.301 150.802C252.315 150.854 252.317 150.908 252.308 150.961C252.299 151.014 252.279 151.065 252.249 151.109C252.22 151.154 252.181 151.192 252.135 151.22C252.09 151.249 252.039 151.267 251.985 151.274C251.932 151.282 251.878 151.278 251.827 151.263C251.775 151.247 251.727 151.222 251.687 151.187C251.646 151.152 251.613 151.109 251.59 151.06C251.59 151 247.32 144.45 242.52 146.78C240.52 147.78 239.45 150.25 239.81 152.89C240.29 156.31 242.91 158.77 246.81 159.47C246.9 159.491 246.979 159.543 247.033 159.618C247.087 159.692 247.112 159.784 247.103 159.876C247.095 159.967 247.053 160.053 246.986 160.116C246.919 160.179 246.832 160.216 246.74 160.22H246.77Z" fill="#22363F"/>
<path d="M248.64 154.97C248.552 154.97 248.467 154.941 248.398 154.886C248.329 154.832 248.28 154.756 248.26 154.67C247.73 152.17 244.67 151.04 244.64 151.03C244.593 151.013 244.549 150.987 244.512 150.953C244.475 150.919 244.445 150.878 244.424 150.833C244.402 150.787 244.39 150.738 244.388 150.688C244.385 150.638 244.393 150.587 244.41 150.54C244.427 150.493 244.453 150.449 244.487 150.412C244.521 150.375 244.562 150.345 244.607 150.324C244.653 150.302 244.702 150.29 244.752 150.288C244.803 150.285 244.853 150.293 244.9 150.31C245.04 150.31 248.39 151.61 249.01 154.51C249.031 154.608 249.012 154.711 248.958 154.795C248.903 154.879 248.818 154.939 248.72 154.96L248.64 154.97Z" fill="#22363F"/>
<path d="M268.73 128.8C267.09 137.8 258.27 140.15 258.27 140.15C257.07 144.55 255.94 154.37 257.27 157.97C258.6 161.57 260.55 162.3 261.9 163.17C266.19 165.91 266.64 168.49 265.8 170.77C264.43 174.49 261.65 177.66 255.21 177.66C248.77 177.66 242.94 172.72 242.94 172.72C242.94 172.72 254.09 167.72 253.99 159.03C253.99 156.43 254.99 152.71 254.48 150.74C253.93 148.47 251.92 149.6 251.35 150.33L245.9 158.59C245.375 159.897 244.519 161.045 243.416 161.921C242.313 162.798 241.002 163.373 239.61 163.59C234.61 164.59 232.92 167.46 232.92 167.46C223.18 162.8 219.44 152.33 219.44 145.46C219.44 138.59 222.34 127.28 233.7 128.4C245.06 129.52 244.41 121.9 249.62 121.73C250.729 121.634 251.835 121.941 252.735 122.595C253.635 123.249 254.269 124.206 254.52 125.29C255.816 123.728 257.562 122.603 259.52 122.07C263.018 120.937 265.937 118.488 267.66 115.24C267.66 115.24 270.36 119.81 268.73 128.8Z" fill="black"/>
<path d="M255.21 178.04C248.7 178.04 242.93 173.22 242.69 173.04C242.64 173 242.602 172.948 242.579 172.888C242.556 172.828 242.549 172.763 242.56 172.7C242.569 172.637 242.593 172.577 242.632 172.526C242.67 172.475 242.721 172.435 242.78 172.41C242.89 172.41 253.71 167.41 253.61 159.07C253.629 157.837 253.736 156.608 253.93 155.39C254.225 153.899 254.285 152.37 254.11 150.86C253.97 150.25 253.7 149.86 253.33 149.86C253.009 149.844 252.688 149.905 252.396 150.039C252.103 150.173 251.847 150.376 251.65 150.63L246.25 158.82C245.701 160.181 244.807 161.376 243.657 162.287C242.507 163.199 241.14 163.796 239.69 164.02C234.91 164.97 233.27 167.68 233.25 167.71C233.203 167.794 233.126 167.856 233.035 167.884C232.944 167.912 232.845 167.903 232.76 167.86C223.34 163.36 219.06 153.14 219.06 145.55C219.06 143.24 219.44 135.37 224.37 130.9C225.635 129.785 227.127 128.959 228.743 128.477C230.36 127.995 232.061 127.87 233.73 128.11C240.48 128.77 242.81 126.34 244.86 124.19C246.18 122.81 247.42 121.51 249.61 121.44C250.674 121.368 251.732 121.638 252.632 122.21C253.531 122.782 254.224 123.626 254.61 124.62C255.94 123.297 257.58 122.327 259.38 121.8C262.771 120.69 265.604 118.315 267.29 115.17C267.322 115.109 267.371 115.059 267.43 115.023C267.489 114.988 267.556 114.969 267.625 114.969C267.694 114.969 267.761 114.988 267.82 115.023C267.879 115.059 267.928 115.109 267.96 115.17C268.08 115.36 270.74 119.94 269.1 128.97C267.59 137.3 259.97 140.11 258.58 140.55C257.36 145.21 256.39 154.6 257.58 157.94C257.883 158.937 258.384 159.862 259.052 160.661C259.72 161.46 260.543 162.116 261.47 162.59L262.05 162.94C265.87 165.39 267.2 168.03 266.05 171C264.35 175.71 260.77 178.04 255.21 178.04ZM243.65 172.8C245.15 173.94 250.01 177.28 255.21 177.28C260.41 177.28 263.77 175.17 265.44 170.64C266.05 168.99 266.32 166.45 261.69 163.49C261.52 163.37 261.33 163.26 261.14 163.15C260.137 162.63 259.247 161.916 258.523 161.049C257.798 160.182 257.253 159.18 256.92 158.1C255.54 154.27 256.8 144.24 257.92 140.1C257.94 140.037 257.975 139.979 258.022 139.932C258.069 139.885 258.126 139.85 258.19 139.83C258.28 139.83 266.8 137.42 268.37 128.78C269.61 121.94 268.28 117.7 267.64 116.16C265.821 119.167 262.982 121.421 259.64 122.51C257.749 123.023 256.061 124.101 254.8 125.6C254.757 125.655 254.7 125.698 254.635 125.725C254.57 125.751 254.499 125.76 254.43 125.75C254.36 125.737 254.295 125.705 254.242 125.657C254.189 125.609 254.151 125.548 254.13 125.48C253.9 124.479 253.316 123.595 252.485 122.99C251.655 122.385 250.633 122.101 249.61 122.19C247.74 122.25 246.7 123.33 245.39 124.7C243.33 126.86 240.76 129.56 233.64 128.86C232.076 128.631 230.481 128.744 228.965 129.191C227.45 129.638 226.049 130.409 224.86 131.45C221.13 134.84 219.8 140.95 219.8 145.54C219.8 152.82 223.86 162.54 232.8 167.02C233.39 166.23 235.31 164.11 239.55 163.27C240.873 163.062 242.12 162.516 243.171 161.686C244.222 160.856 245.041 159.769 245.55 158.53V158.43L251 150.17C251.289 149.801 251.665 149.511 252.095 149.324C252.524 149.137 252.993 149.06 253.46 149.1C253.93 149.2 254.55 149.56 254.82 150.7C255.025 152.302 254.967 153.927 254.65 155.51C254.465 156.692 254.361 157.884 254.34 159.08C254.42 166.85 245.93 171.64 243.61 172.8H243.65Z" fill="black"/>
<path d="M252.54 151.16C252.54 151.16 250.54 145.59 245.54 145.77C240.54 145.95 239.6 151.17 240.77 154.02C241.331 155.469 242.217 156.771 243.36 157.825C244.502 158.878 245.87 159.657 247.36 160.1" fill="#FFCFC5"/>
<path d="M247.33 160.48H247.22C245.677 160.019 244.26 159.212 243.076 158.12C241.893 157.028 240.974 155.681 240.39 154.18C239.999 153.151 239.848 152.046 239.947 150.949C240.045 149.853 240.392 148.793 240.96 147.85C241.449 147.093 242.121 146.471 242.915 146.045C243.709 145.618 244.599 145.4 245.5 145.41C250.8 145.24 252.88 151 252.9 151.06C252.932 151.155 252.924 151.26 252.879 151.35C252.834 151.44 252.755 151.508 252.66 151.54C252.566 151.572 252.463 151.566 252.373 151.523C252.283 151.48 252.214 151.403 252.18 151.31C252.18 151.25 250.31 146.16 245.74 146.16H245.53C244.751 146.149 243.982 146.336 243.294 146.704C242.607 147.071 242.024 147.606 241.6 148.26C241.101 149.099 240.797 150.04 240.709 151.012C240.62 151.985 240.751 152.964 241.09 153.88C241.63 155.277 242.483 156.532 243.584 157.548C244.685 158.563 246.004 159.313 247.44 159.74C247.534 159.761 247.616 159.816 247.671 159.895C247.725 159.974 247.748 160.071 247.734 160.166C247.72 160.261 247.671 160.347 247.596 160.407C247.521 160.468 247.426 160.497 247.33 160.49V160.48Z" fill="black"/>
<path d="M248.58 155.15C248.497 155.15 248.417 155.123 248.352 155.072C248.286 155.021 248.24 154.95 248.22 154.87C247.662 153.134 246.539 151.634 245.03 150.61C244.944 150.557 244.882 150.472 244.859 150.373C244.835 150.275 244.852 150.171 244.905 150.085C244.958 149.999 245.043 149.937 245.142 149.914C245.24 149.89 245.344 149.907 245.43 149.96C247.103 151.081 248.345 152.739 248.95 154.66C248.978 154.757 248.966 154.861 248.917 154.949C248.869 155.037 248.787 155.102 248.69 155.13C248.656 155.146 248.618 155.153 248.58 155.15Z" fill="black"/>
<path d="M252.42 181.76C245.18 185.76 234.42 185.05 230.27 179.38C227.596 180.277 225.37 182.168 224.05 184.66C224.05 184.66 229.12 190.19 240.58 190.19C252.04 190.19 257.46 185.65 257.46 185.65C256.2 183.885 254.447 182.531 252.42 181.76Z" fill="#FFCFC5"/>
<path d="M240.58 190.57C229.09 190.57 223.98 185.15 223.77 184.92C223.715 184.862 223.68 184.789 223.669 184.71C223.658 184.631 223.673 184.55 223.71 184.48C225.08 181.908 227.38 179.955 230.14 179.02C230.217 178.994 230.301 178.994 230.378 179.019C230.456 179.044 230.523 179.094 230.57 179.16C234.46 184.4 244.79 185.49 252.24 181.42C252.292 181.398 252.348 181.386 252.405 181.386C252.462 181.386 252.518 181.398 252.57 181.42C254.658 182.216 256.466 183.606 257.77 185.42C257.822 185.499 257.844 185.594 257.831 185.688C257.818 185.782 257.772 185.868 257.7 185.93C257.47 186.14 252.03 190.57 240.58 190.57ZM224.52 184.57C225.52 185.57 230.65 189.79 240.58 189.79C250.33 189.79 255.68 186.44 256.93 185.56C255.772 184.042 254.224 182.867 252.45 182.16C245.53 185.83 234.69 185.6 230.13 179.82C227.749 180.686 225.758 182.379 224.52 184.59V184.57Z" fill="black"/>
<path d="M292.55 292.44C292.5 292.439 292.451 292.428 292.405 292.407C292.36 292.387 292.319 292.358 292.284 292.322C292.25 292.285 292.223 292.243 292.205 292.196C292.187 292.15 292.179 292.1 292.18 292.05C293.05 248.05 285.42 222.49 285.35 222.24C285.321 222.143 285.332 222.039 285.378 221.95C285.425 221.86 285.504 221.792 285.6 221.76C285.698 221.734 285.802 221.747 285.891 221.795C285.98 221.844 286.048 221.924 286.08 222.02C286.15 222.27 293.81 247.94 292.94 292.02C292.944 292.074 292.937 292.128 292.919 292.178C292.902 292.229 292.874 292.276 292.837 292.315C292.8 292.355 292.756 292.386 292.707 292.408C292.657 292.429 292.604 292.44 292.55 292.44Z" fill="black"/>
<path d="M184.83 292.44C184.78 292.436 184.732 292.423 184.688 292.4C184.644 292.377 184.605 292.345 184.573 292.307C184.541 292.269 184.517 292.225 184.503 292.177C184.489 292.129 184.484 292.079 184.49 292.03C187.151 268.5 191.09 245.132 196.29 222.03C196.316 221.933 196.378 221.85 196.464 221.798C196.55 221.746 196.652 221.729 196.75 221.75C196.848 221.772 196.933 221.831 196.988 221.915C197.042 222 197.061 222.102 197.04 222.2C191.823 245.266 187.874 268.601 185.21 292.1C185.198 292.193 185.153 292.278 185.083 292.341C185.013 292.403 184.924 292.438 184.83 292.44Z" fill="#22363F"/>
<path d="M357.85 183.09C362.68 180.23 366.48 173.3 370.85 166.32C372.02 164.24 372.37 162.16 371.4 160.91C370.973 160.36 370.431 159.909 369.813 159.588C369.196 159.267 368.516 159.084 367.82 159.05L365.66 163.14L354.52 156.3C358.69 148.72 364.33 135.15 360.33 134.3C356.73 133.51 348.96 149.7 346.06 156.05C345.702 155.096 345.246 154.181 344.7 153.32C343.41 151.37 340.32 148.83 337.94 150.97C335.56 153.11 341.23 161.34 340.14 166.16C338.31 174.29 343.95 181.81 343.95 181.81" fill="#FFCFC5"/>
<path d="M357.85 183.47C357.768 183.469 357.689 183.442 357.624 183.392C357.559 183.342 357.512 183.273 357.49 183.194C357.467 183.116 357.471 183.032 357.499 182.956C357.528 182.879 357.581 182.814 357.65 182.77C361.74 180.35 365.15 174.84 368.75 169L370.54 166.12C371.7 164.05 371.92 162.19 371.11 161.12C370.744 160.642 370.283 160.246 369.757 159.955C369.23 159.664 368.649 159.485 368.05 159.43L366.05 163.3C366.027 163.345 365.994 163.384 365.955 163.415C365.915 163.446 365.869 163.468 365.82 163.48C365.773 163.502 365.722 163.514 365.67 163.514C365.618 163.514 365.567 163.502 365.52 163.48L354.38 156.64C354.297 156.588 354.236 156.507 354.21 156.412C354.184 156.318 354.195 156.217 354.24 156.13C357.85 149.59 362.53 138.47 361.12 135.36C361.053 135.186 360.945 135.03 360.803 134.908C360.662 134.786 360.492 134.701 360.31 134.66C358.06 134.17 352.75 142.42 346.46 156.2C346.428 156.266 346.378 156.321 346.317 156.36C346.255 156.399 346.183 156.42 346.11 156.42C346.034 156.419 345.961 156.396 345.898 156.353C345.836 156.311 345.788 156.25 345.76 156.18C345.413 155.252 344.974 154.361 344.45 153.52C343.535 152.033 342.08 150.958 340.39 150.52C340.005 150.467 339.613 150.503 339.244 150.624C338.875 150.746 338.539 150.949 338.26 151.22C337.21 152.16 338.12 154.85 339.08 157.69C340.04 160.53 341.08 163.77 340.57 166.2C338.8 174.06 344.26 181.47 344.32 181.54C344.381 181.621 344.407 181.723 344.393 181.823C344.379 181.923 344.326 182.014 344.245 182.075C344.164 182.136 344.062 182.162 343.962 182.148C343.862 182.134 343.771 182.081 343.71 182C343.47 181.68 337.98 174.24 339.83 166C340.33 163.77 339.28 160.65 338.36 157.9C337.27 154.67 336.36 151.9 337.75 150.61C338.109 150.266 338.541 150.008 339.014 149.856C339.487 149.703 339.988 149.66 340.48 149.73C342.29 149.95 344.1 151.55 345.08 153.03C345.484 153.667 345.835 154.336 346.13 155.03C350.13 146.42 356.89 133.03 360.47 133.86C360.771 133.923 361.051 134.059 361.286 134.256C361.522 134.453 361.705 134.705 361.82 134.99C363.41 138.5 358.6 149.67 355.08 156.12L365.57 162.56L367.57 158.83C367.604 158.766 367.657 158.713 367.721 158.677C367.784 158.642 367.857 158.625 367.93 158.63C368.678 158.665 369.41 158.862 370.075 159.208C370.739 159.553 371.321 160.038 371.78 160.63C372.78 161.94 372.61 164.07 371.27 166.46C370.65 167.46 370.06 168.4 369.47 169.35C365.81 175.27 362.36 180.86 358.11 183.35C358.078 183.388 358.038 183.418 357.993 183.439C357.948 183.459 357.9 183.47 357.85 183.47Z" fill="black"/>
<path d="M362.57 154.22C363.37 154.159 364.174 154.263 364.932 154.524C365.691 154.785 366.387 155.199 366.98 155.74C368.67 157.52 367.98 162.6 364.42 165.74C363.356 166.263 362.177 166.507 360.992 166.449C359.808 166.391 358.658 166.034 357.65 165.41L362.57 154.22Z" fill="#FFCFC5"/>
<path d="M364.42 166.07C364.366 166.071 364.313 166.06 364.265 166.038C364.216 166.015 364.174 165.982 364.14 165.94C364.105 165.906 364.076 165.864 364.057 165.819C364.038 165.773 364.028 165.724 364.028 165.675C364.028 165.626 364.038 165.577 364.057 165.531C364.076 165.486 364.105 165.445 364.14 165.41C366.062 163.727 367.247 161.357 367.44 158.81C367.558 157.807 367.286 156.798 366.68 155.99C366.125 155.494 365.477 155.114 364.772 154.873C364.068 154.633 363.322 154.537 362.58 154.59C362.483 154.587 362.39 154.548 362.321 154.479C362.252 154.41 362.213 154.317 362.21 154.22C362.202 154.118 362.234 154.017 362.299 153.938C362.365 153.86 362.458 153.81 362.56 153.8C363.417 153.731 364.28 153.841 365.093 154.123C365.905 154.406 366.65 154.854 367.28 155.44C367.66 155.908 367.945 156.447 368.116 157.025C368.288 157.604 368.343 158.21 368.28 158.81C368.074 161.564 366.796 164.128 364.72 165.95C364.682 165.991 364.635 166.023 364.583 166.044C364.532 166.064 364.476 166.073 364.42 166.07Z" fill="black"/>
<path d="M353.07 158.72C353.324 157.847 353.659 157 354.07 156.19C358.83 146.09 366.48 149.04 363.41 155.39C362.496 157.327 361.351 159.147 360 160.81" fill="#FFCFC5"/>
<path d="M359.96 161.22C359.914 161.221 359.868 161.212 359.825 161.195C359.782 161.178 359.743 161.152 359.71 161.12C359.675 161.085 359.647 161.044 359.627 160.999C359.608 160.953 359.598 160.904 359.598 160.855C359.598 160.806 359.608 160.757 359.627 160.711C359.647 160.666 359.675 160.624 359.71 160.59C361.034 158.949 362.158 157.156 363.06 155.25C363.88 153.56 363.95 152.01 363.26 150.99C363.006 150.632 362.66 150.35 362.258 150.174C361.857 149.998 361.415 149.934 360.98 149.99C358.66 150.18 356.19 152.56 354.4 156.36C354.02 157.156 353.705 157.982 353.46 158.83C353.448 158.878 353.427 158.924 353.398 158.964C353.368 159.004 353.33 159.038 353.288 159.063C353.245 159.088 353.197 159.104 353.148 159.111C353.098 159.117 353.048 159.113 353 159.1C352.903 159.072 352.82 159.007 352.77 158.92C352.72 158.832 352.705 158.728 352.73 158.63C352.99 157.74 353.325 156.874 353.73 156.04C355.64 151.99 358.34 149.44 360.94 149.24C361.512 149.161 362.095 149.242 362.624 149.473C363.154 149.704 363.609 150.077 363.94 150.55C364.79 151.79 364.74 153.62 363.81 155.55C362.878 157.519 361.713 159.369 360.34 161.06C360.3 161.121 360.242 161.169 360.174 161.198C360.107 161.226 360.032 161.234 359.96 161.22Z" fill="black"/>
<path d="M303.02 292.44C302.919 292.449 302.819 292.418 302.741 292.353C302.663 292.289 302.614 292.196 302.605 292.095C302.596 291.994 302.627 291.894 302.692 291.816C302.756 291.738 302.849 291.689 302.95 291.68C305.801 291.122 308.475 289.887 310.748 288.079C313.021 286.271 314.826 283.942 316.01 281.29C316.665 279.792 317.109 278.21 317.33 276.59C316.38 276.41 315.46 276.2 314.58 275.94C311.973 275.19 309.545 273.921 307.44 272.21C306.442 271.424 305.614 270.444 305.008 269.328C304.401 268.212 304.027 266.985 303.91 265.72C303.845 264.434 304.219 263.164 304.971 262.119C305.724 261.074 306.81 260.316 308.05 259.97C311.13 259.3 313.9 261.73 315.46 264.23C317.614 267.742 318.562 271.86 318.16 275.96C326.69 277.37 337.34 275.73 345.79 271.56C348.13 270.4 351.14 268.31 352.23 266.45C352.255 266.407 352.288 266.368 352.328 266.338C352.367 266.307 352.413 266.285 352.461 266.272C352.509 266.259 352.56 266.256 352.609 266.262C352.659 266.269 352.707 266.285 352.75 266.31C352.836 266.362 352.898 266.446 352.922 266.543C352.947 266.641 352.931 266.744 352.88 266.83C351.55 269.13 348 271.31 346.12 272.24C337.56 276.47 326.74 278.14 318.12 276.72C317.888 278.398 317.427 280.037 316.75 281.59C315.514 284.356 313.632 286.784 311.261 288.67C308.891 290.557 306.103 291.846 303.13 292.43L303.02 292.44ZM309.02 260.62C308.734 260.621 308.45 260.651 308.17 260.71C307.1 261.017 306.166 261.68 305.522 262.589C304.879 263.497 304.564 264.598 304.63 265.71C304.744 266.867 305.092 267.99 305.652 269.009C306.213 270.028 306.974 270.923 307.89 271.64C309.909 273.288 312.244 274.506 314.75 275.22C315.59 275.46 316.47 275.67 317.37 275.84C317.744 271.923 316.831 267.991 314.77 264.64C313.6 262.69 311.44 260.62 309.06 260.62H309.02Z" fill="black"/>
<path d="M159.43 221.58H159.31C159.214 221.548 159.135 221.48 159.088 221.39C159.042 221.301 159.031 221.197 159.06 221.1C161.934 211.688 167.043 203.11 173.95 196.1C176.73 193.29 179.81 190.72 182.8 188.24C185.24 186.24 187.8 184.1 190.11 181.88C196.38 175.88 200 170.09 201.11 164.09C201.58 161.172 201.76 158.214 201.65 155.26C201.589 152.81 201.683 150.358 201.93 147.92C202.594 143.077 204.471 138.48 207.387 134.557C210.303 130.634 214.164 127.511 218.61 125.48C218.656 125.454 218.707 125.437 218.76 125.432C218.812 125.427 218.866 125.432 218.916 125.449C218.967 125.465 219.013 125.492 219.052 125.527C219.092 125.563 219.123 125.606 219.145 125.654C219.167 125.703 219.178 125.755 219.179 125.808C219.179 125.861 219.168 125.913 219.147 125.962C219.126 126.011 219.094 126.054 219.055 126.09C219.016 126.126 218.97 126.153 218.92 126.17C214.59 128.146 210.831 131.186 207.993 135.006C205.155 138.827 203.331 143.304 202.69 148.02C202.442 150.422 202.348 152.836 202.41 155.25C202.521 158.261 202.337 161.275 201.86 164.25C200.67 170.41 196.98 176.36 190.58 182.44C188.23 184.68 185.69 186.79 183.23 188.83C180.23 191.3 177.23 193.83 174.44 196.64C167.612 203.573 162.567 212.059 159.74 221.37C159.712 221.429 159.668 221.48 159.614 221.517C159.559 221.554 159.496 221.576 159.43 221.58Z" fill="black"/>
<path d="M178.62 98.22C174.027 98.2101 169.534 99.5628 165.709 102.107C161.885 104.651 158.901 108.272 157.135 112.513C155.369 116.753 154.9 121.422 155.788 125.928C156.676 130.435 158.88 134.577 162.123 137.831C165.365 141.084 169.5 143.303 174.003 144.206C178.507 145.11 183.177 144.657 187.424 142.906C191.67 141.154 195.301 138.183 197.859 134.367C200.416 130.552 201.784 126.063 201.79 121.47C201.798 115.315 199.362 109.409 195.017 105.049C190.673 100.69 184.775 98.2333 178.62 98.22ZM187.67 129.97H169.47C169.258 129.971 169.048 129.925 168.855 129.835C168.663 129.745 168.492 129.613 168.357 129.45C168.221 129.287 168.123 129.095 168.07 128.889C168.017 128.684 168.01 128.469 168.05 128.26C168.541 125.828 169.859 123.642 171.781 122.074C173.703 120.506 176.109 119.653 178.59 119.66C177.694 119.66 176.817 119.394 176.072 118.896C175.327 118.398 174.746 117.69 174.404 116.861C174.061 116.033 173.972 115.122 174.148 114.243C174.323 113.364 174.756 112.556 175.39 111.923C176.025 111.29 176.833 110.86 177.712 110.686C178.592 110.512 179.503 110.603 180.33 110.948C181.158 111.292 181.865 111.874 182.361 112.621C182.858 113.367 183.122 114.244 183.12 115.14C183.12 115.734 183.003 116.323 182.775 116.872C182.547 117.421 182.213 117.92 181.793 118.34C181.372 118.76 180.872 119.092 180.323 119.319C179.773 119.545 179.184 119.661 178.59 119.66C181.06 119.658 183.455 120.508 185.37 122.068C187.285 123.628 188.602 125.801 189.1 128.22C189.141 128.431 189.136 128.648 189.083 128.856C189.03 129.064 188.932 129.258 188.795 129.424C188.658 129.589 188.486 129.722 188.292 129.813C188.097 129.904 187.885 129.951 187.67 129.95V129.97Z" fill="#1B5A96"/>
<path d="M378.4 112.28H328.72C328.619 112.28 328.523 112.24 328.451 112.169C328.38 112.097 328.34 112.001 328.34 111.9C328.34 111.799 328.38 111.703 328.451 111.631C328.523 111.56 328.619 111.52 328.72 111.52H378.4C378.501 111.52 378.597 111.56 378.669 111.631C378.74 111.703 378.78 111.799 378.78 111.9C378.78 112.001 378.74 112.097 378.669 112.169C378.597 112.24 378.501 112.28 378.4 112.28Z" fill="black"/>
<path d="M333.95 95.7201C333.95 95.9601 333.95 96.1701 333.95 96.3401C333.935 96.488 333.912 96.635 333.88 96.7801C333.856 96.8889 333.815 96.9934 333.76 97.0901C333.698 97.2005 333.62 97.3015 333.53 97.3901C333.342 97.562 333.134 97.7098 332.91 97.8301C332.546 98.0249 332.169 98.1921 331.78 98.3301C331.286 98.5075 330.777 98.6414 330.26 98.7301C329.647 98.8458 329.024 98.9027 328.4 98.9001C327.202 98.919 326.011 98.712 324.89 98.2901C323.868 97.914 322.949 97.3005 322.21 96.5001C321.432 95.6369 320.855 94.6125 320.52 93.5001C320.109 92.1525 319.913 90.7486 319.94 89.3401C319.915 87.8846 320.131 86.4349 320.58 85.0501C320.96 83.8888 321.572 82.817 322.38 81.9001C323.167 81.0584 324.135 80.4054 325.21 79.9901C326.342 79.5388 327.552 79.3145 328.77 79.3301C329.28 79.3298 329.789 79.3766 330.29 79.4701C330.752 79.5468 331.207 79.6605 331.65 79.8101C332.038 79.9373 332.413 80.1014 332.77 80.3001C333.02 80.4285 333.253 80.5899 333.46 80.7801C333.567 80.8714 333.658 80.9794 333.73 81.1001C333.785 81.2076 333.825 81.3219 333.85 81.4401C333.85 81.5801 333.9 81.7401 333.92 81.9201C333.94 82.1001 333.92 82.3401 333.92 82.6101C333.92 82.8801 333.92 83.1501 333.92 83.3601C333.908 83.5304 333.875 83.6984 333.82 83.8601C333.782 83.9657 333.72 84.0614 333.64 84.1401C333.574 84.1913 333.493 84.2194 333.41 84.2201C333.202 84.1975 333.006 84.11 332.85 83.9701C332.572 83.762 332.282 83.5716 331.98 83.4001C331.576 83.1695 331.151 82.9786 330.71 82.8301C330.139 82.6418 329.541 82.5539 328.94 82.5701C328.246 82.5578 327.559 82.7157 326.94 83.0301C326.342 83.3486 325.826 83.8002 325.43 84.3501C324.991 84.9758 324.672 85.6778 324.49 86.4201C324.259 87.3148 324.148 88.2362 324.16 89.1601C324.145 90.1349 324.263 91.1071 324.51 92.0501C324.7 92.7793 325.041 93.4607 325.51 94.0501C325.893 94.5504 326.39 94.9516 326.96 95.2201C327.593 95.486 328.274 95.6188 328.96 95.6101C329.562 95.6222 330.163 95.5413 330.74 95.3701C331.183 95.2309 331.611 95.0501 332.02 94.8301C332.37 94.6401 332.67 94.4601 332.9 94.3101C333.051 94.1822 333.234 94.0991 333.43 94.0701C333.511 94.0643 333.592 94.0854 333.66 94.1301C333.735 94.1919 333.787 94.2761 333.81 94.3701C333.859 94.5294 333.889 94.6938 333.9 94.8601C333.933 95.1001 333.95 95.3868 333.95 95.7201Z" fill="white"/>
<path d="M347.13 96.9801C347.142 97.2266 347.142 97.4736 347.13 97.7201C347.115 97.8876 347.078 98.0524 347.02 98.2101C346.986 98.3209 346.924 98.4209 346.84 98.5001C346.766 98.5591 346.674 98.5909 346.58 98.5901H337.9C337.603 98.5988 337.314 98.4952 337.09 98.3001C336.971 98.1785 336.879 98.0322 336.822 97.8716C336.765 97.7109 336.744 97.5398 336.76 97.3701V80.2201C336.759 80.1226 336.791 80.0276 336.85 79.9501C336.938 79.8602 337.049 79.7947 337.17 79.7601C337.364 79.7085 337.561 79.6717 337.76 79.6501C338.382 79.5834 339.008 79.5834 339.63 79.6501C339.826 79.6724 340.02 79.7092 340.21 79.7601C340.33 79.7974 340.44 79.8625 340.53 79.9501C340.589 80.0276 340.621 80.1226 340.62 80.2201V95.4101H346.62C346.713 95.4105 346.803 95.4384 346.88 95.4901C346.962 95.5591 347.024 95.6489 347.06 95.7501C347.118 95.9078 347.155 96.0726 347.17 96.2401C347.169 96.4873 347.156 96.7343 347.13 96.9801Z" fill="white"/>
<path d="M353.26 98.06C353.263 98.1547 353.231 98.2471 353.17 98.32C353.085 98.4146 352.974 98.4809 352.85 98.51C352.661 98.5697 352.467 98.6099 352.27 98.63C351.648 98.6966 351.022 98.6966 350.4 98.63C350.2 98.6108 350.002 98.5706 349.81 98.51C349.685 98.4835 349.573 98.4167 349.49 98.32C349.429 98.2471 349.397 98.1547 349.4 98.06V80.22C349.399 80.1225 349.431 80.0275 349.49 79.95C349.578 79.8601 349.689 79.7946 349.81 79.76C350.007 79.7094 350.208 79.6727 350.41 79.65C350.716 79.6313 351.024 79.6313 351.33 79.65C351.643 79.6314 351.957 79.6314 352.27 79.65C352.466 79.6723 352.66 79.7091 352.85 79.76C352.97 79.7973 353.08 79.8624 353.17 79.95C353.229 80.0275 353.261 80.1225 353.26 80.22V98.06Z" fill="white"/>
<path d="M370.5 95.72C370.512 95.9265 370.512 96.1335 370.5 96.34C370.493 96.4882 370.473 96.6354 370.44 96.78C370.416 96.8888 370.375 96.9933 370.32 97.09C370.255 97.1981 370.177 97.2988 370.09 97.39C369.9 97.5639 369.689 97.7118 369.46 97.83C369.101 98.0268 368.726 98.194 368.34 98.33C367.842 98.5059 367.33 98.6397 366.81 98.73C366.2 98.8457 365.581 98.9027 364.96 98.9C363.762 98.9198 362.571 98.7129 361.45 98.29C360.43 97.9139 359.515 97.3003 358.78 96.5C358.009 95.6336 357.436 94.6099 357.1 93.5C356.686 92.1531 356.486 90.7491 356.51 89.34C356.488 87.8839 356.707 86.4342 357.16 85.05C357.54 83.8887 358.152 82.8169 358.96 81.9C359.727 81.0574 360.674 80.3978 361.73 79.97C362.866 79.5196 364.078 79.2954 365.3 79.31C365.81 79.3101 366.319 79.357 366.82 79.45C367.282 79.5267 367.737 79.6404 368.18 79.79C368.567 79.9191 368.942 80.0831 369.3 80.28C369.55 80.4084 369.783 80.5698 369.99 80.76C370.091 80.8569 370.181 80.9642 370.26 81.08C370.315 81.1875 370.355 81.3018 370.38 81.42C370.412 81.5782 370.432 81.7387 370.44 81.9C370.452 82.1298 370.452 82.3602 370.44 82.59C370.44 82.89 370.44 83.13 370.44 83.34C370.425 83.5107 370.388 83.6787 370.33 83.84C370.299 83.9465 370.24 84.043 370.16 84.12C370.09 84.1713 370.006 84.1993 369.92 84.2C369.715 84.1754 369.523 84.088 369.37 83.95C369.137 83.7833 368.847 83.5933 368.5 83.38C368.093 83.1477 367.665 82.9567 367.22 82.81C366.653 82.6217 366.057 82.5337 365.46 82.55C364.766 82.5377 364.079 82.6956 363.46 83.01C362.86 83.3258 362.343 83.7779 361.95 84.33C361.508 84.9552 361.186 85.6571 361 86.4C360.778 87.2961 360.67 88.2168 360.68 89.14C360.665 90.1148 360.783 91.087 361.03 92.03C361.216 92.7607 361.557 93.4429 362.03 94.03C362.415 94.5413 362.92 94.95 363.5 95.22C364.133 95.484 364.814 95.6167 365.5 95.61C366.099 95.6222 366.696 95.5412 367.27 95.37C367.714 95.2345 368.143 95.0535 368.55 94.83C368.91 94.64 369.2 94.46 369.43 94.31C369.584 94.1813 369.771 94.0982 369.97 94.07C370.051 94.0656 370.131 94.0866 370.2 94.13C370.275 94.1918 370.327 94.2759 370.35 94.37C370.399 94.5293 370.429 94.6937 370.44 94.86C370.48 95.1 370.5 95.3867 370.5 95.72Z" fill="white"/>
<path d="M387.1 98.0199C387.099 98.1188 387.072 98.2157 387.02 98.2999C386.943 98.4023 386.834 98.4761 386.71 98.5099C386.508 98.57 386.3 98.6102 386.09 98.6299C385.757 98.6485 385.423 98.6485 385.09 98.6299C384.632 98.6397 384.174 98.613 383.72 98.5499C383.506 98.5231 383.301 98.4479 383.12 98.3299C383.001 98.236 382.906 98.1163 382.84 97.9799L377.11 88.9799V97.9799C377.111 98.0791 377.083 98.1764 377.03 98.2599C376.945 98.351 376.838 98.4197 376.72 98.4599C376.528 98.5196 376.33 98.5598 376.13 98.5799C375.512 98.6466 374.888 98.6466 374.27 98.5799C374.067 98.5595 373.866 98.5193 373.67 98.4599C373.552 98.4197 373.445 98.351 373.36 98.2599C373.292 98.1829 373.256 98.0826 373.26 97.9799V80.2199C373.258 80.1175 373.294 80.0179 373.36 79.9399C373.446 79.8521 373.553 79.7869 373.67 79.7499C373.867 79.6994 374.068 79.6626 374.27 79.6399C374.888 79.5732 375.512 79.5732 376.13 79.6399C376.329 79.6625 376.526 79.6993 376.72 79.7499C376.837 79.7869 376.944 79.8521 377.03 79.9399C377.082 80.0242 377.109 80.121 377.11 80.2199V88.2199L382.66 80.2199C382.724 80.0993 382.808 79.9909 382.91 79.8999C383.024 79.8117 383.153 79.744 383.29 79.6999C383.487 79.6503 383.688 79.6168 383.89 79.5999C384.14 79.5999 384.45 79.5999 384.83 79.5999C385.163 79.5803 385.497 79.5803 385.83 79.5999C386.033 79.6204 386.234 79.6606 386.43 79.7199C386.555 79.7511 386.667 79.8211 386.75 79.9199C386.809 79.9936 386.841 80.0855 386.84 80.1799C386.835 80.3618 386.787 80.54 386.7 80.6999C386.551 80.9847 386.387 81.2617 386.21 81.5299L381.01 88.3399L386.68 96.8999C386.825 97.1576 386.952 97.4249 387.06 97.6999C387.092 97.8035 387.105 97.9117 387.1 98.0199Z" fill="white"/>
<path d="M304.37 161.71L308.04 163.71C309.276 164.375 310.609 164.841 311.99 165.09C320.14 166.58 328.54 160.59 330.74 151.71C332.56 144.38 329.58 137.37 323.9 134.31L320.22 132.31C325.9 135.37 328.88 142.37 327.06 149.71C324.86 158.59 316.46 164.58 308.31 163.09C306.932 162.841 305.602 162.375 304.37 161.71Z" fill="black"/>
<path d="M314.49 165.68C313.628 165.679 312.767 165.599 311.92 165.44C310.501 165.187 309.131 164.711 307.86 164.03L304.19 162.03C304.145 162.007 304.105 161.975 304.072 161.936C304.04 161.897 304.015 161.852 304 161.804C303.986 161.755 303.98 161.704 303.986 161.654C303.991 161.603 304.006 161.555 304.03 161.51C304.08 161.423 304.163 161.358 304.26 161.33C304.357 161.302 304.461 161.313 304.55 161.36C305.748 162.004 307.041 162.453 308.38 162.69C316.33 164.15 324.54 158.27 326.69 149.6C328.41 142.6 325.69 135.66 320.04 132.6C319.951 132.551 319.885 132.469 319.857 132.371C319.829 132.274 319.841 132.169 319.89 132.08C319.939 131.991 320.021 131.925 320.119 131.897C320.216 131.869 320.321 131.881 320.41 131.93L324.08 133.93C330.03 137.13 332.92 144.46 331.08 151.75C329.09 159.91 321.96 165.68 314.49 165.68ZM308.49 163.51C309.609 164.075 310.805 164.473 312.04 164.69C319.99 166.15 328.2 160.27 330.35 151.6C332.05 144.75 329.43 137.88 323.97 134.77C325.724 136.8 326.954 139.228 327.554 141.843C328.153 144.457 328.104 147.179 327.41 149.77C325.21 158.76 316.77 164.85 308.51 163.51H308.49Z" fill="black"/>
<path d="M316.28 130.93C308.13 129.44 299.73 135.43 297.53 144.31C295.33 153.19 300.16 161.6 308.31 163.09C316.46 164.58 324.86 158.59 327.06 149.71C329.26 140.83 324.43 132.42 316.28 130.93Z" fill="#CBA402"/>
<path d="M310.81 163.69C309.948 163.693 309.088 163.616 308.24 163.46C306.378 163.122 304.607 162.402 303.036 161.348C301.465 160.293 300.128 158.925 299.11 157.33C297.924 155.387 297.144 153.223 296.818 150.97C296.491 148.716 296.625 146.42 297.21 144.22C299.46 135.16 308.06 129.03 316.4 130.56C318.263 130.899 320.036 131.619 321.607 132.676C323.178 133.732 324.514 135.102 325.53 136.7C326.737 138.633 327.538 140.791 327.881 143.044C328.225 145.296 328.106 147.595 327.53 149.8C325.42 157.92 318.28 163.69 310.81 163.69ZM313.81 131.08C306.69 131.08 299.87 136.62 297.94 144.4C297.382 146.502 297.259 148.695 297.577 150.846C297.895 152.996 298.648 155.06 299.79 156.91C300.752 158.419 302.015 159.712 303.5 160.71C304.985 161.708 306.66 162.389 308.42 162.71C316.37 164.17 324.58 158.29 326.73 149.62C327.288 147.519 327.411 145.325 327.093 143.175C326.775 141.024 326.022 138.96 324.88 137.11C323.919 135.6 322.657 134.304 321.172 133.304C319.687 132.304 318.011 131.622 316.25 131.3C315.431 131.155 314.601 131.082 313.77 131.08H313.81Z" fill="black"/>
<path d="M315.1 135.67C309.36 134.67 303.44 138.84 301.89 145.11C300.34 151.38 303.74 157.29 309.49 158.34C315.24 159.39 321.15 155.17 322.71 148.91C324.27 142.65 320.85 136.72 315.1 135.67Z" fill="#FFB902"/>
<path d="M314.02 149.88C313.857 150.255 313.623 150.595 313.33 150.88C313.046 151.157 312.704 151.368 312.33 151.5C311.954 151.631 311.558 151.695 311.16 151.69C310.714 151.676 310.272 151.595 309.85 151.45L309.04 152.95C309.025 152.986 309.001 153.017 308.97 153.04C308.931 153.052 308.889 153.052 308.85 153.04H308.65L308.36 152.94L308.02 152.77C307.952 152.73 307.891 152.68 307.84 152.62C307.803 152.578 307.782 152.525 307.78 152.47C307.787 152.416 307.808 152.364 307.84 152.32L308.61 150.91C308.43 150.79 308.26 150.68 308.11 150.56C307.965 150.45 307.828 150.33 307.7 150.2C307.595 150.101 307.498 149.994 307.41 149.88C307.343 149.799 307.289 149.708 307.25 149.61C307.224 149.512 307.224 149.408 307.25 149.31C307.294 149.138 307.355 148.971 307.43 148.81C307.5 148.65 307.56 148.51 307.61 148.41C307.655 148.328 307.708 148.251 307.77 148.18C307.806 148.143 307.851 148.115 307.9 148.1C307.946 148.085 307.994 148.085 308.04 148.1C308.129 148.152 308.202 148.228 308.25 148.32C308.351 148.467 308.461 148.607 308.58 148.74C308.743 148.93 308.924 149.105 309.12 149.26C309.382 149.458 309.668 149.622 309.97 149.75C310.375 149.962 310.841 150.03 311.29 149.94C311.459 149.893 311.615 149.807 311.745 149.689C311.876 149.571 311.976 149.424 312.04 149.26C312.133 149.06 312.158 148.835 312.11 148.62C312.06 148.407 311.968 148.207 311.84 148.03C311.69 147.826 311.523 147.635 311.34 147.46C311.14 147.273 310.94 147.073 310.74 146.86C310.54 146.647 310.363 146.433 310.21 146.22C310.04 145.982 309.903 145.723 309.8 145.45C309.696 145.155 309.649 144.843 309.66 144.53C309.681 144.15 309.773 143.777 309.93 143.43C310.075 143.091 310.278 142.78 310.53 142.51C310.761 142.265 311.04 142.071 311.35 141.94C311.666 141.805 312.006 141.734 312.35 141.73C312.75 141.726 313.148 141.783 313.53 141.9L314.29 140.5C314.308 140.466 314.332 140.436 314.36 140.41C314.399 140.398 314.441 140.398 314.48 140.41C314.546 140.397 314.614 140.397 314.68 140.41L314.97 140.52C315.086 140.571 315.2 140.627 315.31 140.69C315.381 140.734 315.445 140.787 315.5 140.85C315.517 140.869 315.531 140.891 315.539 140.915C315.548 140.939 315.552 140.965 315.55 140.99C315.553 141.043 315.553 141.097 315.55 141.15L314.82 142.46C314.948 142.54 315.072 142.627 315.19 142.72C315.313 142.809 315.43 142.906 315.54 143.01C315.635 143.098 315.725 143.192 315.81 143.29C315.872 143.358 315.923 143.436 315.96 143.52C315.987 143.628 315.987 143.742 315.96 143.85C315.96 143.92 315.96 144 315.89 144.08C315.82 144.16 315.81 144.27 315.77 144.38L315.6 144.75C315.565 144.822 315.521 144.889 315.47 144.95C315.442 144.987 315.404 145.015 315.36 145.03C315.331 145.04 315.299 145.04 315.27 145.03C315.182 144.982 315.106 144.914 315.05 144.83C314.96 144.71 314.85 144.59 314.72 144.44C314.59 144.29 314.42 144.15 314.23 143.99C314.025 143.83 313.8 143.699 313.56 143.6C313.357 143.507 313.141 143.443 312.92 143.41C312.758 143.378 312.592 143.378 312.43 143.41C312.29 143.445 312.162 143.518 312.06 143.62C311.957 143.727 311.876 143.853 311.82 143.99C311.721 144.192 311.693 144.42 311.74 144.64C311.794 144.853 311.889 145.054 312.02 145.23C312.173 145.438 312.343 145.632 312.53 145.81L313.14 146.41C313.346 146.622 313.54 146.845 313.72 147.08C313.9 147.312 314.042 147.572 314.14 147.85C314.248 148.137 314.299 148.443 314.29 148.75C314.277 149.141 314.185 149.525 314.02 149.88Z" fill="black"/>
<path d="M208.31 54.79L206.26 60.96H210.37L208.32 54.79H208.31Z" fill="#FB9100"/>
<path d="M222.35 58.31C222.018 58.0505 221.611 57.9065 221.19 57.9C220.836 57.8925 220.491 58.0054 220.21 58.22C219.937 58.4038 219.717 58.6554 219.57 58.95C219.406 59.2658 219.285 59.6021 219.21 59.95C219.129 60.3313 219.089 60.7202 219.09 61.11C219.093 61.5186 219.126 61.9264 219.19 62.33C219.25 62.697 219.361 63.0537 219.52 63.39C219.66 63.6825 219.87 63.9365 220.13 64.13C220.423 64.3326 220.775 64.4312 221.13 64.41C221.32 64.4135 221.509 64.3865 221.69 64.33C221.89 64.2629 222.081 64.1723 222.26 64.06C222.468 63.9113 222.662 63.744 222.84 63.56C223.076 63.3214 223.297 63.0675 223.5 62.8V59.47C223.174 59.0306 222.787 58.64 222.35 58.31Z" fill="#FB9100"/>
<path d="M239.1 40.6399H198.88C197.945 40.6399 197.02 40.8241 196.157 41.1821C195.294 41.54 194.509 42.0646 193.849 42.7259C193.189 43.3872 192.665 44.1722 192.308 45.0359C191.952 45.8997 191.769 46.8254 191.77 47.7599V69.9899C191.769 70.9244 191.952 71.8501 192.308 72.7138C192.665 73.5776 193.189 74.3626 193.849 75.0239C194.509 75.6852 195.294 76.2098 196.157 76.5677C197.02 76.9257 197.945 77.1099 198.88 77.1099H239.1C240.987 77.1072 242.795 76.3559 244.128 75.021C245.461 73.686 246.21 71.8765 246.21 69.9899V47.7599C246.21 45.8733 245.461 44.0638 244.128 42.7288C242.795 41.3939 240.987 40.6425 239.1 40.6399ZM215.1 66.4299C214.972 66.5229 214.818 66.5721 214.66 66.5699C214.46 66.5699 214.17 66.5699 213.8 66.5699C213.43 66.5699 213.12 66.5699 212.91 66.5699C212.745 66.5662 212.581 66.5461 212.42 66.5099C212.331 66.4878 212.251 66.4389 212.19 66.3699C212.134 66.2988 212.093 66.2172 212.07 66.1299L211.07 63.2199H205.62L204.7 66.0499C204.676 66.1462 204.635 66.2376 204.58 66.3199C204.524 66.3986 204.443 66.4552 204.35 66.4799C204.202 66.533 204.047 66.5634 203.89 66.5699H203.11C202.77 66.5699 202.5 66.5699 202.3 66.5699C202.15 66.5672 202.006 66.5063 201.9 66.3999C201.862 66.3489 201.835 66.2905 201.821 66.2285C201.808 66.1664 201.807 66.1021 201.82 66.0399C201.856 65.8249 201.913 65.6139 201.99 65.4099L206.46 52.5399C206.499 52.4328 206.553 52.3317 206.62 52.2399C206.692 52.1514 206.79 52.0883 206.9 52.0599C207.08 52.0119 207.264 51.9851 207.45 51.9799H208.37H209.42C209.626 51.9836 209.83 52.0104 210.03 52.0599C210.153 52.0856 210.264 52.1485 210.35 52.2399C210.419 52.3452 210.473 52.4597 210.51 52.5799L214.99 65.4399C215.066 65.6443 215.123 65.8552 215.16 66.0699C215.172 66.1343 215.168 66.2006 215.149 66.2633C215.13 66.3259 215.096 66.383 215.05 66.4299H215.1ZM226.37 66.1499C226.372 66.2243 226.351 66.2975 226.31 66.3599C226.262 66.4242 226.196 66.4729 226.12 66.4999C226.004 66.5425 225.883 66.5695 225.76 66.5799H225.19H224.61C224.484 66.5682 224.36 66.5413 224.24 66.4999C224.162 66.4725 224.092 66.4241 224.04 66.3599C223.999 66.2975 223.978 66.2243 223.98 66.1499V65.0399C223.515 65.5564 222.968 65.9924 222.36 66.3299C221.783 66.6421 221.136 66.8005 220.48 66.7899C219.81 66.8072 219.146 66.6559 218.55 66.3499C218.012 66.0694 217.552 65.6607 217.21 65.1599C216.867 64.621 216.623 64.0249 216.49 63.3999C216.336 62.7072 216.259 61.9996 216.26 61.2899C216.252 60.4807 216.349 59.6738 216.55 58.8899C216.714 58.238 216.995 57.6213 217.38 57.0699C217.738 56.5827 218.208 56.1884 218.75 55.9199C219.336 55.6392 219.98 55.4989 220.63 55.5099C221.16 55.5049 221.685 55.6248 222.16 55.8599C222.662 56.1174 223.118 56.4552 223.51 56.8599V51.4499C223.512 51.3745 223.536 51.3014 223.58 51.2399C223.636 51.1679 223.713 51.1154 223.8 51.0899C223.939 51.0432 224.084 51.013 224.23 50.9999C224.46 50.9819 224.69 50.9819 224.92 50.9999C225.146 50.9822 225.374 50.9822 225.6 50.9999C225.746 51.013 225.891 51.0432 226.03 51.0899C226.1 51.1182 226.161 51.1628 226.21 51.2199C226.258 51.2789 226.283 51.3537 226.28 51.4299L226.37 66.1499ZM235.92 64.8299C235.711 65.2597 235.403 65.6334 235.02 65.9199C234.606 66.2231 234.137 66.4438 233.64 66.5699C233.08 66.7224 232.501 66.7964 231.92 66.7899C231.562 66.7896 231.204 66.7629 230.85 66.7099C230.538 66.6588 230.231 66.5853 229.93 66.4899C229.682 66.4227 229.441 66.3323 229.21 66.2199C229.068 66.1566 228.937 66.0723 228.82 65.9699C228.723 65.8666 228.658 65.7385 228.63 65.5999C228.574 65.3541 228.55 65.1019 228.56 64.8499C228.56 64.6399 228.56 64.4599 228.56 64.3299C228.573 64.2245 228.596 64.1207 228.63 64.0199C228.65 63.957 228.689 63.9014 228.74 63.8599C228.796 63.8486 228.854 63.8486 228.91 63.8599C229.039 63.8793 229.162 63.9271 229.27 63.9999C229.463 64.1156 229.664 64.2191 229.87 64.3099C230.142 64.4349 230.422 64.5386 230.71 64.6199C231.06 64.7243 231.424 64.7749 231.79 64.7699C232.019 64.7709 232.247 64.7441 232.47 64.6899C232.651 64.6448 232.823 64.5705 232.98 64.4699C233.122 64.3799 233.237 64.2517 233.31 64.0999C233.393 63.9393 233.434 63.7605 233.43 63.5799C233.432 63.3676 233.358 63.1616 233.22 62.9999C233.065 62.8267 232.878 62.6843 232.67 62.5799C232.421 62.4525 232.164 62.3422 231.9 62.2499C231.61 62.1399 231.31 62.0299 231.01 61.8999C230.707 61.7734 230.413 61.6264 230.13 61.4599C229.841 61.3006 229.578 61.0983 229.35 60.8599C229.114 60.6071 228.927 60.3119 228.8 59.9899C228.653 59.6039 228.585 59.1925 228.6 58.7799C228.593 58.3277 228.689 57.8799 228.88 57.4699C229.067 57.0802 229.341 56.7382 229.68 56.4699C230.065 56.1716 230.503 55.9478 230.97 55.8099C231.518 55.6434 232.088 55.5624 232.66 55.5699C232.968 55.5726 233.275 55.5959 233.58 55.6399C233.85 55.6818 234.117 55.7386 234.38 55.8099C234.589 55.8674 234.793 55.941 234.99 56.0299C235.113 56.0842 235.231 56.1513 235.34 56.2299C235.401 56.2759 235.452 56.3338 235.49 56.3999C235.522 56.463 235.546 56.5303 235.56 56.5999C235.56 56.6799 235.56 56.7799 235.56 56.8899C235.56 56.9999 235.56 57.1499 235.56 57.3199C235.56 57.4899 235.56 57.6899 235.56 57.8199C235.549 57.9214 235.529 58.0218 235.5 58.1199C235.48 58.1803 235.442 58.2328 235.39 58.2699C235.341 58.2859 235.289 58.2859 235.24 58.2699C235.126 58.2551 235.016 58.214 234.92 58.1499C234.748 58.0571 234.571 57.9737 234.39 57.8999C234.149 57.8015 233.902 57.718 233.65 57.6499C233.324 57.5619 232.987 57.5215 232.65 57.5299C232.427 57.5281 232.206 57.555 231.99 57.6099C231.824 57.6524 231.667 57.7271 231.53 57.8299C231.416 57.9221 231.324 58.0382 231.26 58.1699C231.202 58.3023 231.171 58.4452 231.17 58.5899C231.166 58.6979 231.183 58.8056 231.221 58.9069C231.259 59.0081 231.316 59.1009 231.39 59.1799C231.55 59.3493 231.74 59.4882 231.95 59.5899C232.206 59.7201 232.47 59.8336 232.74 59.9299C233.03 60.0299 233.33 60.1499 233.63 60.2699C233.938 60.3949 234.239 60.5385 234.53 60.6999C234.82 60.8658 235.086 61.0711 235.32 61.3099C235.56 61.5584 235.75 61.8503 235.88 62.1699C236.029 62.5451 236.1 62.9464 236.09 63.3499C236.133 63.8536 236.057 64.3604 235.87 64.8299H235.92Z" fill="#FB9100"/>
<path d="M182.88 46.48C182.783 46.4802 182.689 46.4429 182.618 46.3759C182.547 46.3089 182.505 46.2173 182.5 46.12C182.474 44.1637 182.914 42.2292 183.783 40.4764C184.653 38.7237 185.927 37.203 187.5 36.04C190.122 34.1296 193.183 32.9089 196.4 32.49C199.571 32.0664 202.772 31.9058 205.97 32.01H213.27C213.371 32.01 213.467 32.0501 213.539 32.1213C213.61 32.1926 213.65 32.2892 213.65 32.39C213.65 32.4908 213.61 32.5875 213.539 32.6587C213.467 32.73 213.371 32.77 213.27 32.77H205.97C202.812 32.6716 199.652 32.8288 196.52 33.24C193.431 33.6407 190.491 34.8097 187.97 36.64C186.491 37.7264 185.292 39.1491 184.471 40.7905C183.65 42.4319 183.232 44.245 183.25 46.08C183.253 46.13 183.246 46.1799 183.229 46.227C183.212 46.2742 183.186 46.3176 183.153 46.3547C183.12 46.3919 183.079 46.4221 183.034 46.4436C182.989 46.4651 182.94 46.4775 182.89 46.48H182.88Z" fill="black"/>
</g>
<path d="M421.625 293.115H148.485C148.351 293.097 148.228 293.031 148.138 292.929C148.049 292.827 148 292.696 148 292.56C148 292.424 148.049 292.293 148.138 292.191C148.228 292.089 148.351 292.023 148.485 292.005H421.625C421.704 291.994 421.785 292.001 421.861 292.024C421.938 292.047 422.009 292.086 422.069 292.138C422.129 292.191 422.177 292.256 422.21 292.329C422.243 292.401 422.26 292.48 422.26 292.56C422.26 292.64 422.243 292.719 422.21 292.791C422.177 292.864 422.129 292.929 422.069 292.982C422.009 293.034 421.938 293.073 421.861 293.096C421.785 293.119 421.704 293.126 421.625 293.115Z" fill="#030047"/>
</g>
<defs>
<clipPath id="clip0_76_2664">
<rect width="570" height="324" fill="white"/>
</clipPath>
<clipPath id="clip1_76_2664">
<rect width="260.43" height="260.43" fill="white" transform="translate(155 32)"/>
</clipPath>
</defs>
</svg>
