<svg width="570" height="324" viewBox="0 0 570 324" fill="none" xmlns="http://www.w3.org/2000/svg">
<g clip-path="url(#clip0_114_796)">
<rect width="570" height="324" fill="#FFF6EB"/>
<path d="M486.065 292.996H83.7149C83.517 292.979 83.3354 292.92 83.2039 292.829C83.0725 292.738 83 292.621 83 292.5C83 292.379 83.0725 292.262 83.2039 292.171C83.3354 292.08 83.517 292.021 83.7149 292.004H486.065C486.182 291.995 486.3 292.001 486.413 292.021C486.526 292.042 486.63 292.077 486.718 292.124C486.807 292.171 486.878 292.228 486.926 292.293C486.975 292.358 487 292.429 487 292.5C487 292.571 486.975 292.642 486.926 292.707C486.878 292.772 486.807 292.829 486.718 292.876C486.63 292.923 486.526 292.958 486.413 292.979C486.3 292.999 486.182 293.005 486.065 292.996Z" fill="#1E1E1E"/>
<g clip-path="url(#clip1_114_796)">
<path d="M400.21 55.6602H191.63C178.662 55.6602 168.15 66.1725 168.15 79.1402V252.98C168.15 265.948 178.662 276.46 191.63 276.46H400.21C413.178 276.46 423.69 265.948 423.69 252.98V79.1402C423.69 66.1725 413.178 55.6602 400.21 55.6602Z" fill="#1B5A96"/>
<path d="M391.25 45.5698H182.67C169.702 45.5698 159.19 56.0822 159.19 69.0498V242.89C159.19 255.857 169.702 266.37 182.67 266.37H391.25C404.218 266.37 414.73 255.857 414.73 242.89V69.0498C414.73 56.0822 404.218 45.5698 391.25 45.5698Z" fill="#FFF6EB" stroke="black" stroke-width="0.5" stroke-miterlimit="10"/>
<path d="M256.18 160.62H177.78V217.73H256.18V160.62Z" fill="#1B5A96"/>
<path d="M228.77 173.97L215.17 197.71L203.86 183.89L184.47 207.83H209.37H223.45H248.35L228.77 173.97Z" fill="#FFF6EB"/>
<path d="M213.21 175.8C215.486 175.8 217.33 173.955 217.33 171.68C217.33 169.405 215.486 167.56 213.21 167.56C210.935 167.56 209.09 169.405 209.09 171.68C209.09 173.955 210.935 175.8 213.21 175.8Z" fill="#FB9100"/>
<path d="M397.4 196.49H319V253.6H397.4V196.49Z" fill="#FB9100"/>
<path d="M369.99 209.84L356.39 233.57L345.09 219.76L325.69 243.69H350.59H364.67H389.57L369.99 209.84Z" fill="#FFF6EB"/>
<path d="M354.43 211.67C356.705 211.67 358.55 209.826 358.55 207.55C358.55 205.275 356.705 203.43 354.43 203.43C352.155 203.43 350.31 205.275 350.31 207.55C350.31 209.826 352.155 211.67 354.43 211.67Z" fill="#FFF6EB"/>
<path d="M431.36 31H251.28C242.615 31 235.59 38.0247 235.59 46.69C235.59 55.3553 242.615 62.38 251.28 62.38H431.36C440.025 62.38 447.05 55.3553 447.05 46.69C447.05 38.0247 440.025 31 431.36 31Z" fill="#1B5A96"/>
<path d="M395.54 40.71H252.21C249.217 40.71 246.79 43.1366 246.79 46.13V47.25C246.79 50.2433 249.217 52.67 252.21 52.67H395.54C398.533 52.67 400.96 50.2433 400.96 47.25V46.13C400.96 43.1366 398.533 40.71 395.54 40.71Z" fill="#FFF6EB"/>
<path d="M439.792 47.3445C440.145 45.1694 438.668 43.1199 436.493 42.7668C434.318 42.4137 432.269 43.8908 431.915 46.0659C431.562 48.2411 433.039 50.2906 435.215 50.6437C437.39 50.9968 439.439 49.5197 439.792 47.3445Z" fill="#FFF6EB"/>
<path d="M429.677 47.6031C430.183 45.4584 428.854 43.3094 426.71 42.8032C424.565 42.2971 422.416 43.6253 421.91 45.77C421.404 47.9147 422.732 50.0637 424.877 50.5699C427.021 51.0761 429.17 49.7478 429.677 47.6031Z" fill="#FFF6EB"/>
<path d="M415.79 50.6802C417.994 50.6802 419.78 48.8938 419.78 46.6902C419.78 44.4866 417.994 42.7002 415.79 42.7002C413.586 42.7002 411.8 44.4866 411.8 46.6902C411.8 48.8938 413.586 50.6802 415.79 50.6802Z" fill="#FFF6EB"/>
<path d="M169.46 269.55H160.75C160.228 269.557 159.712 269.435 159.248 269.196C158.784 268.956 158.386 268.606 158.089 268.176C157.792 267.746 157.606 267.249 157.547 266.73C157.488 266.211 157.558 265.686 157.75 265.2L170.83 231.88H189.04L176.04 265.05C175.518 266.372 174.613 267.507 173.44 268.309C172.267 269.111 170.881 269.543 169.46 269.55Z" fill="#2E344D"/>
<path d="M167.12 292.42H158.41C157.889 292.427 157.374 292.305 156.911 292.066C156.448 291.827 156.051 291.477 155.755 291.049C155.458 290.62 155.272 290.125 155.212 289.608C155.152 289.09 155.22 288.565 155.41 288.08L168.53 254.74H186.74L173.74 287.91C173.221 289.243 172.311 290.386 171.129 291.191C169.947 291.996 168.55 292.425 167.12 292.42Z" fill="#2E344D"/>
<path d="M99.88 250.35C108.65 250.35 115.76 243.24 115.76 234.47C115.76 225.7 108.65 218.59 99.88 218.59C91.1097 218.59 84 225.7 84 234.47C84 243.24 91.1097 250.35 99.88 250.35Z" fill="#2E344D"/>
<path d="M93.03 194.37V274.58C108.44 260.73 140.97 254.03 161.03 254.03V214.91C140.97 214.91 108.44 208.22 93.03 194.37Z" fill="#FB9100"/>
<path d="M104.39 201.98C100.297 199.933 96.4804 197.376 93.03 194.37V274.58C96.4779 271.571 100.295 269.014 104.39 266.97V201.98Z" fill="#C66A05"/>
<path d="M200.57 254.91H186.1V214.29H200.57C201.316 214.29 202.055 214.437 202.744 214.722C203.433 215.008 204.059 215.426 204.586 215.954C205.114 216.481 205.532 217.107 205.818 217.796C206.103 218.486 206.25 219.224 206.25 219.97V249.23C206.25 250.736 205.652 252.181 204.586 253.246C203.521 254.312 202.077 254.91 200.57 254.91Z" fill="#FB9100"/>
<path d="M183.07 204.8H177.62C176.289 204.8 175.21 205.879 175.21 207.21V209.08C175.21 210.411 176.289 211.49 177.62 211.49H183.07C184.401 211.49 185.48 210.411 185.48 209.08V207.21C185.48 205.879 184.401 204.8 183.07 204.8Z" fill="#2E344D"/>
<path d="M188.44 210.09H156.38C154.574 210.09 153.11 211.554 153.11 213.36V255.07C153.11 256.876 154.574 258.34 156.38 258.34H188.44C190.246 258.34 191.71 256.876 191.71 255.07V213.36C191.71 211.554 190.246 210.09 188.44 210.09Z" fill="#C66A05"/>
<path d="M392.45 82.3701H178.48C172.571 82.3701 167.78 87.1607 167.78 93.0701V141.72C167.78 147.63 172.571 152.42 178.48 152.42H392.45C398.359 152.42 403.15 147.63 403.15 141.72V93.0701C403.15 87.1607 398.359 82.3701 392.45 82.3701Z" fill="#1B5A96"/>
<path d="M425.31 73.0298H200.16C197.338 73.0298 195.05 75.3176 195.05 78.1398V137.97C195.05 140.792 197.338 143.08 200.16 143.08H425.31C428.132 143.08 430.42 140.792 430.42 137.97V78.1398C430.42 75.3176 428.132 73.0298 425.31 73.0298Z" fill="#FB9100"/>
<path d="M206.25 96.8401C208.134 96.531 210.041 96.3805 211.95 96.3901C214.89 96.3901 217.04 97.0801 218.41 98.3101C219.073 98.9179 219.596 99.6632 219.942 100.494C220.287 101.325 220.447 102.221 220.41 103.12C220.455 104.017 220.321 104.915 220.015 105.759C219.71 106.604 219.239 107.379 218.63 108.04C217.692 108.909 216.589 109.581 215.387 110.016C214.184 110.451 212.907 110.639 211.63 110.57C210.828 110.594 210.026 110.524 209.24 110.36V119.58H206.24L206.25 96.8401ZM209.25 107.94C210.057 108.117 210.884 108.195 211.71 108.17C215.29 108.17 217.48 106.43 217.48 103.26C217.48 100.09 215.32 98.7401 212.02 98.7401C211.081 98.7121 210.141 98.7927 209.22 98.9801L209.25 107.94Z" fill="#FFF6EB"/>
<path d="M224.41 96.8699C226.291 96.5334 228.199 96.3728 230.11 96.3899C233.29 96.3899 235.34 96.9699 236.77 98.2699C237.366 98.8271 237.836 99.5053 238.148 100.259C238.46 101.013 238.607 101.825 238.58 102.64C238.597 103.958 238.184 105.245 237.402 106.307C236.621 107.368 235.514 108.145 234.25 108.52V108.62C236.02 109.23 237.08 110.87 237.63 113.26C238.03 115.415 238.622 117.53 239.4 119.58H236.32C235.63 117.801 235.114 115.959 234.78 114.08C234.1 110.91 232.87 109.71 230.17 109.61H227.37V119.61H224.37L224.41 96.8699ZM227.41 107.36H230.41C233.59 107.36 235.6 105.61 235.6 102.98C235.6 99.9799 233.45 98.7199 230.31 98.6799C229.322 98.6518 228.335 98.7459 227.37 98.9599L227.41 107.36Z" fill="#FFF6EB"/>
<path d="M254.7 108.79H245.75V117.09H255.75V119.58H242.78V96.5801H255.21V99.0801H245.75V106.35H254.7V108.79Z" fill="#FFF6EB"/>
<path d="M259.17 115.96C260.777 116.927 262.614 117.445 264.49 117.46C267.49 117.46 269.31 115.86 269.31 113.54C269.31 111.38 268.08 110.16 264.97 108.96C261.22 107.63 258.89 105.68 258.89 102.44C258.89 98.8501 261.89 96.1901 266.34 96.1901C268.105 96.1328 269.855 96.5215 271.43 97.3201L270.61 99.7401C269.266 99.0207 267.764 98.6462 266.24 98.6501C263.09 98.6501 261.9 100.53 261.9 102.1C261.9 104.25 263.3 105.31 266.47 106.54C270.37 108.04 272.35 109.92 272.35 113.3C272.35 116.85 269.72 119.92 264.29 119.92C262.239 119.946 260.216 119.44 258.42 118.45L259.17 115.96Z" fill="#FFF6EB"/>
<path d="M276 115.96C277.608 116.925 279.445 117.443 281.32 117.46C284.32 117.46 286.14 115.86 286.14 113.54C286.14 111.38 284.91 110.16 281.8 108.96C278.05 107.63 275.72 105.68 275.72 102.44C275.72 98.8501 278.72 96.1901 283.17 96.1901C284.935 96.1328 286.685 96.5215 288.26 97.3201L287.44 99.7401C286.097 99.0191 284.595 98.6445 283.07 98.6501C279.92 98.6501 278.73 100.53 278.73 102.1C278.73 104.25 280.13 105.31 283.31 106.54C287.2 108.04 289.18 109.92 289.18 113.3C289.18 116.85 286.55 119.92 281.12 119.92C279.069 119.945 277.047 119.439 275.25 118.45L276 115.96Z" fill="#FFF6EB"/>
<path d="M300.48 96.87C302.361 96.5326 304.269 96.372 306.18 96.39C309.35 96.39 311.4 96.97 312.84 98.27C313.434 98.8284 313.903 99.5069 314.215 100.26C314.527 101.014 314.675 101.825 314.65 102.64C314.675 103.961 314.263 105.254 313.478 106.317C312.694 107.38 311.58 108.155 310.31 108.52V108.62C312.09 109.23 313.15 110.87 313.69 113.26C314.091 115.416 314.687 117.531 315.47 119.58H312.39C311.71 117.798 311.198 115.957 310.86 114.08C310.17 110.91 308.95 109.71 306.25 109.61H303.45V119.61H300.45L300.48 96.87ZM303.48 107.36H306.48C309.65 107.36 311.67 105.61 311.67 102.98C311.67 99.98 309.52 98.72 306.37 98.68C305.385 98.6519 304.401 98.7459 303.44 98.96L303.48 107.36Z" fill="#FFF6EB"/>
<path d="M330.76 108.79H321.82V117.09H331.82V119.58H318.82V96.5801H331.32V99.0801H321.82V106.35H330.76V108.79Z" fill="#FFF6EB"/>
<path d="M335.64 96.5601H338.64V117.09H348.48V119.58H335.64V96.5601Z" fill="#FFF6EB"/>
<path d="M363.67 108.79H354.73V117.09H364.73V119.58H351.75V96.5801H364.18V99.0801H354.73V106.35H363.67V108.79Z" fill="#FFF6EB"/>
<path d="M372.32 112.34L369.93 119.58H366.86L374.68 96.5801H378.27L386.12 119.58H382.94L380.49 112.34H372.32ZM379.87 110.02L377.62 103.39C377.1 101.89 376.76 100.53 376.42 99.1901H376.32C375.98 100.56 375.61 101.96 375.16 103.36L372.91 110.02H379.87Z" fill="#FFF6EB"/>
<path d="M389.04 115.96C390.647 116.927 392.485 117.445 394.36 117.46C397.36 117.46 399.18 115.86 399.18 113.54C399.18 111.38 397.95 110.16 394.84 108.96C391.09 107.63 388.76 105.68 388.76 102.44C388.76 98.8502 391.76 96.1902 396.21 96.1902C397.981 96.1296 399.739 96.5183 401.32 97.3202L400.5 99.7402C399.156 99.0208 397.654 98.6463 396.13 98.6502C392.98 98.6502 391.79 100.53 391.79 102.1C391.79 104.25 393.19 105.31 396.36 106.54C400.26 108.04 402.24 109.92 402.24 113.3C402.24 116.85 399.61 119.92 394.18 119.92C392.126 119.945 390.101 119.439 388.3 118.45L389.04 115.96Z" fill="#FFF6EB"/>
<path d="M418.19 108.79H409.25V117.09H419.25V119.58H406.32V96.5801H418.75V99.0801H409.29V106.35H418.23L418.19 108.79Z" fill="#FFF6EB"/>
<path d="M309.93 172.58H273.32C271.729 172.58 270.203 171.948 269.077 170.823C267.952 169.698 267.32 168.171 267.32 166.58C267.32 164.989 267.952 163.463 269.077 162.337C270.203 161.212 271.729 160.58 273.32 160.58H309.93C311.521 160.58 313.047 161.212 314.173 162.337C315.298 163.463 315.93 164.989 315.93 166.58C315.93 168.171 315.298 169.698 314.173 170.823C313.047 171.948 311.521 172.58 309.93 172.58Z" stroke="black" stroke-width="0.5" stroke-miterlimit="10"/>
<g style="mix-blend-mode:multiply">
<path d="M306.38 204.25H268.65C265.657 204.25 263.23 206.677 263.23 209.67V210.79C263.23 213.783 265.657 216.21 268.65 216.21H306.38C309.373 216.21 311.8 213.783 311.8 210.79V209.67C311.8 206.677 309.373 204.25 306.38 204.25Z" stroke="black" stroke-width="0.5" stroke-miterlimit="10"/>
</g>
<g style="mix-blend-mode:multiply">
<path d="M306.38 223.82H216.72C213.727 223.82 211.3 226.246 211.3 229.24V230.36C211.3 233.353 213.727 235.78 216.72 235.78H306.38C309.373 235.78 311.8 233.353 311.8 230.36V229.24C311.8 226.246 309.373 223.82 306.38 223.82Z" stroke="black" stroke-width="0.5" stroke-miterlimit="10"/>
</g>
<g style="mix-blend-mode:multiply">
<path d="M306.38 243.4H216.72C213.727 243.4 211.3 245.827 211.3 248.82V249.94C211.3 252.933 213.727 255.36 216.72 255.36H306.38C309.373 255.36 311.8 252.933 311.8 249.94V248.82C311.8 245.827 309.373 243.4 306.38 243.4Z" stroke="black" stroke-width="0.5" stroke-miterlimit="10"/>
</g>
<g style="mix-blend-mode:multiply">
<path d="M391.93 180.2H272.76C269.767 180.2 267.34 182.627 267.34 185.62V186.74C267.34 189.734 269.767 192.16 272.76 192.16H391.93C394.923 192.16 397.35 189.734 397.35 186.74V185.62C397.35 182.627 394.923 180.2 391.93 180.2Z" stroke="black" stroke-width="0.5" stroke-miterlimit="10"/>
</g>
<path d="M458.23 291.88C455.509 292.635 452.599 292.279 450.141 290.889C447.682 289.5 445.876 287.191 445.12 284.47L419.42 191.74L439.94 186.05L465.64 278.74C466.018 280.089 466.127 281.5 465.959 282.891C465.792 284.283 465.351 285.627 464.662 286.848C463.974 288.069 463.051 289.141 461.948 290.005C460.844 290.868 459.58 291.506 458.23 291.88Z" fill="#2E344D"/>
<path d="M422.49 199.24C442.505 199.24 458.73 183.015 458.73 163C458.73 142.985 442.505 126.76 422.49 126.76C402.475 126.76 386.25 142.985 386.25 163C386.25 183.015 402.475 199.24 422.49 199.24Z" fill="#2E344D"/>
<g style="mix-blend-mode:multiply">
<path d="M435.06 183.16C429.727 184.635 424.128 184.869 418.69 183.847C413.252 182.824 408.121 180.571 403.688 177.259C399.255 173.948 395.639 169.667 393.116 164.742C390.592 159.818 389.229 154.382 389.13 148.85C387.023 153.819 386.053 159.195 386.29 164.587C386.527 169.979 387.965 175.249 390.499 180.014C393.034 184.779 396.6 188.917 400.938 192.128C405.277 195.338 410.277 197.539 415.575 198.569C420.872 199.6 426.333 199.434 431.558 198.084C436.784 196.735 441.642 194.235 445.777 190.768C449.913 187.301 453.222 182.954 455.463 178.044C457.704 173.134 458.82 167.786 458.73 162.39C456.606 167.412 453.373 171.89 449.274 175.486C445.175 179.083 440.316 181.706 435.06 183.16Z" fill="#C4D5F2"/>
</g>
<path d="M471.568 193.177L399.209 213.244L412.688 261.85L485.047 241.783L471.568 193.177Z" fill="#C66A05"/>
<path d="M471.567 193.185L449.606 199.275L463.085 247.881L485.047 241.791L471.567 193.185Z" fill="#FB9100"/>
<path d="M417.1 226.74L410.25 228.64L409.56 226.17L426.23 221.55L426.92 224.02L420.04 225.93L425.59 245.93L422.65 246.75L417.1 226.74Z" fill="#FFF6EB"/>
<path d="M441.32 241.62L427.68 221.14L430.82 220.26L437.4 230.38C439.21 233.16 440.81 235.66 442.14 238.14H442.21C442.12 235.36 442.27 232.26 442.46 229.04L443.18 216.86L446.29 216L444.48 240.74L441.32 241.62Z" fill="#FFF6EB"/>
<path d="M278.94 281.37L278.12 286.31C278.744 288.296 278.942 290.392 278.7 292.46H258.5C260.68 288.37 270.16 288.06 271.15 286.1C272.14 284.14 272.59 278.34 272.59 278.34L278.94 281.37Z" fill="#FF8762"/>
<path d="M274.41 286.57C274.41 285.86 273.92 283.32 272.09 282.57C271.935 283.793 271.619 284.99 271.15 286.13C270.15 288.13 260.68 288.4 258.5 292.49H278.7C278.942 290.422 278.744 288.326 278.12 286.34C278.12 286.34 274.47 287.85 274.41 286.57Z" fill="#2B1710"/>
<path d="M259.04 291.74C258.831 291.979 258.65 292.241 258.5 292.52H278.7C278.7 292.52 278.7 292.22 278.77 291.72L259.04 291.74Z" fill="#1B5A96"/>
<path d="M272.63 287.09C272.607 287.09 272.584 287.084 272.565 287.071C272.545 287.059 272.53 287.041 272.52 287.02C272.36 286.564 272.045 286.178 271.63 285.93C271.507 285.878 271.374 285.851 271.24 285.851C271.106 285.851 270.973 285.878 270.85 285.93C270.836 285.936 270.821 285.939 270.806 285.939C270.791 285.94 270.776 285.937 270.762 285.931C270.749 285.926 270.736 285.917 270.725 285.907C270.714 285.896 270.706 285.884 270.7 285.87C270.694 285.856 270.691 285.842 270.691 285.827C270.69 285.812 270.693 285.797 270.699 285.783C270.704 285.769 270.713 285.756 270.723 285.745C270.734 285.735 270.746 285.726 270.76 285.72C270.916 285.646 271.087 285.608 271.26 285.608C271.433 285.608 271.604 285.646 271.76 285.72C272.231 285.991 272.587 286.425 272.76 286.94C272.77 286.969 272.768 287.001 272.755 287.029C272.742 287.057 272.719 287.079 272.69 287.09H272.63Z" fill="#1B5A96"/>
<path d="M270.72 288.43C270.697 288.43 270.674 288.424 270.655 288.411C270.635 288.399 270.62 288.381 270.61 288.36C270.45 287.904 270.135 287.518 269.72 287.27C269.597 287.218 269.464 287.191 269.33 287.191C269.196 287.191 269.063 287.218 268.94 287.27C268.926 287.276 268.911 287.279 268.896 287.279C268.881 287.279 268.866 287.277 268.853 287.271C268.824 287.26 268.802 287.238 268.79 287.21C268.778 287.182 268.778 287.151 268.789 287.123C268.8 287.094 268.822 287.072 268.85 287.06C269.006 286.986 269.177 286.948 269.35 286.948C269.523 286.948 269.694 286.986 269.85 287.06C270.32 287.333 270.675 287.766 270.85 288.28C270.86 288.309 270.858 288.341 270.845 288.369C270.832 288.397 270.809 288.419 270.78 288.43H270.72Z" fill="#1B5A96"/>
<path d="M267.59 289.33C267.566 289.33 267.542 289.322 267.522 289.307C267.503 289.293 267.488 289.273 267.48 289.25C267.32 288.794 267.005 288.408 266.59 288.16C266.468 288.104 266.335 288.074 266.2 288.074C266.065 288.074 265.932 288.104 265.81 288.16C265.779 288.168 265.747 288.166 265.718 288.153C265.689 288.14 265.665 288.118 265.65 288.09C265.642 288.061 265.645 288.03 265.658 288.003C265.671 287.975 265.693 287.953 265.72 287.94C265.877 287.868 266.047 287.83 266.22 287.83C266.393 287.83 266.563 287.868 266.72 287.94C267.185 288.218 267.539 288.65 267.72 289.16C267.73 289.189 267.728 289.221 267.715 289.249C267.702 289.277 267.679 289.299 267.65 289.31L267.59 289.33Z" fill="#1B5A96"/>
<path d="M305.18 281.37L304.35 286.31C304.98 288.295 305.178 290.392 304.93 292.46H284.74C286.92 288.37 296.39 288.06 297.39 286.1C298.39 284.14 298.82 278.34 298.82 278.34L305.18 281.37Z" fill="#FF8762"/>
<path d="M300.64 286.57C300.64 285.86 300.15 283.32 298.32 282.57C298.163 283.791 297.85 284.988 297.39 286.13C296.39 288.13 286.92 288.4 284.74 292.49H304.93C305.178 290.422 304.98 288.325 304.35 286.34C304.35 286.34 300.71 287.85 300.64 286.57Z" fill="#2B1710"/>
<path d="M285.32 291.74C285.108 291.976 284.926 292.238 284.78 292.52H304.97C304.97 292.52 304.97 292.22 305.04 291.72L285.32 291.74Z" fill="#1B5A96"/>
<path d="M298.86 287.09C298.838 287.09 298.817 287.083 298.8 287.07C298.782 287.058 298.768 287.04 298.76 287.02C298.59 286.567 298.273 286.183 297.86 285.93C297.737 285.878 297.604 285.851 297.47 285.851C297.336 285.851 297.204 285.878 297.08 285.93C297.052 285.942 297.021 285.942 296.993 285.931C296.965 285.92 296.942 285.898 296.93 285.87C296.918 285.842 296.918 285.811 296.929 285.783C296.94 285.755 296.962 285.732 296.99 285.72C297.146 285.646 297.317 285.608 297.49 285.608C297.663 285.608 297.834 285.646 297.99 285.72C298.456 285.997 298.81 286.429 298.99 286.94C299 286.969 298.998 287.001 298.985 287.029C298.972 287.057 298.949 287.079 298.92 287.09H298.86Z" fill="#1B5A96"/>
<path d="M296.95 288.43C296.928 288.429 296.907 288.423 296.889 288.41C296.872 288.398 296.858 288.38 296.85 288.36C296.681 287.909 296.368 287.525 295.96 287.27C295.835 287.216 295.701 287.189 295.565 287.189C295.429 287.189 295.295 287.216 295.17 287.27C295.156 287.276 295.141 287.28 295.126 287.281C295.111 287.281 295.096 287.278 295.082 287.273C295.068 287.267 295.055 287.259 295.044 287.248C295.034 287.237 295.025 287.224 295.02 287.21C295.013 287.196 295.01 287.181 295.009 287.166C295.009 287.151 295.012 287.136 295.017 287.122C295.023 287.108 295.031 287.095 295.042 287.084C295.053 287.074 295.066 287.065 295.08 287.06C295.236 286.986 295.407 286.948 295.58 286.948C295.753 286.948 295.924 286.986 296.08 287.06C296.544 287.339 296.898 287.77 297.08 288.28C297.09 288.309 297.088 288.341 297.075 288.369C297.062 288.397 297.039 288.419 297.01 288.43H296.95Z" fill="#1B5A96"/>
<path d="M293.82 289.33C293.797 289.331 293.774 289.323 293.756 289.308C293.737 289.294 293.725 289.273 293.72 289.25C293.55 288.797 293.233 288.413 292.82 288.16C292.698 288.104 292.565 288.074 292.43 288.074C292.295 288.074 292.162 288.104 292.04 288.16C292.011 288.17 291.979 288.168 291.951 288.155C291.923 288.142 291.901 288.119 291.89 288.09C291.884 288.076 291.88 288.062 291.879 288.046C291.879 288.031 291.882 288.016 291.887 288.002C291.893 287.988 291.901 287.975 291.912 287.965C291.923 287.954 291.936 287.946 291.95 287.94C292.107 287.869 292.278 287.832 292.45 287.832C292.623 287.832 292.793 287.869 292.95 287.94C293.417 288.216 293.772 288.648 293.95 289.16C293.956 289.175 293.96 289.19 293.959 289.206C293.959 289.221 293.956 289.237 293.949 289.251C293.942 289.265 293.933 289.278 293.921 289.288C293.909 289.298 293.895 289.306 293.88 289.31L293.82 289.33Z" fill="#1B5A96"/>
<path d="M269.92 210.91C264.53 232.19 266.92 278.57 268.12 285.08H280.92C279.7 269.97 286.27 235.56 286.27 235.56C287.421 252.155 289.916 268.629 293.73 284.82H308.06L300.64 211.54L285.5 206.42L269.92 210.91Z" fill="#1B5A96"/>
<g style="mix-blend-mode:multiply">
<path d="M270.32 281.15C270.287 281.146 270.256 281.131 270.233 281.107C270.209 281.084 270.194 281.053 270.19 281.02C270.19 280.57 267.13 234.82 272.09 213.23C272.094 213.213 272.101 213.197 272.111 213.182C272.121 213.168 272.134 213.156 272.149 213.147C272.164 213.137 272.181 213.131 272.198 213.128C272.215 213.125 272.233 213.126 272.25 213.13C272.267 213.134 272.283 213.141 272.297 213.151C272.312 213.161 272.324 213.174 272.333 213.189C272.342 213.204 272.349 213.221 272.352 213.238C272.354 213.255 272.354 213.273 272.35 213.29C267.4 234.84 270.42 280.55 270.45 281.01C270.451 281.027 270.449 281.044 270.444 281.06C270.439 281.077 270.43 281.092 270.419 281.105C270.408 281.118 270.394 281.129 270.379 281.136C270.364 281.144 270.347 281.149 270.33 281.15H270.32Z" fill="#BFBFBF"/>
</g>
<g style="mix-blend-mode:multiply">
<path d="M268.52 282.64C268.486 282.64 268.453 282.627 268.428 282.602C268.404 282.578 268.39 282.545 268.39 282.51C268.39 282.476 268.404 282.443 268.428 282.418C268.453 282.394 268.486 282.38 268.52 282.38L279.52 282.24C279.555 282.24 279.588 282.254 279.612 282.278C279.636 282.303 279.65 282.336 279.65 282.37C279.65 282.405 279.636 282.438 279.612 282.462C279.588 282.487 279.555 282.5 279.52 282.5L268.52 282.64Z" fill="#BFBFBF"/>
</g>
<g style="mix-blend-mode:multiply">
<path d="M294 282.09C293.984 282.091 293.967 282.089 293.951 282.084C293.935 282.079 293.921 282.07 293.909 282.059C293.896 282.047 293.887 282.034 293.88 282.018C293.873 282.003 293.87 281.987 293.87 281.97C293.87 281.935 293.883 281.9 293.908 281.874C293.932 281.848 293.965 281.833 294 281.83L306.46 281.56C306.496 281.56 306.53 281.573 306.556 281.597C306.582 281.622 306.598 281.655 306.6 281.69C306.6 281.725 306.586 281.758 306.562 281.782C306.538 281.806 306.505 281.82 306.47 281.82L294 282.09Z" fill="#BFBFBF"/>
</g>
<path d="M289.32 168.51C289.32 168.51 288.11 207.88 297.55 203.26C306.99 198.64 306 189 289.32 168.51Z" fill="#C66A05"/>
<path d="M279.54 160.81C274.26 167.31 269.44 198.64 268.84 215.32H301.18C299.57 186.79 289.57 163.82 285.23 159.44C280.89 158.47 279.54 160.81 279.54 160.81Z" fill="#FB9100"/>
<path d="M284.79 155.34C284.557 156.721 284.709 158.14 285.23 159.44C284.45 161.33 279.91 161.72 279.54 160.81C279.27 159.49 279.13 157.89 279.13 157.89C278.22 158.64 274.79 158.66 274.86 153.2C274.296 152.942 273.85 152.482 273.61 151.91C274.019 151.752 274.383 151.497 274.672 151.168C274.961 150.839 275.166 150.445 275.27 150.02C275.4 149.07 275.17 144.49 279.27 143.75C283.37 143.01 285.27 144.53 286.14 146.46C287.01 148.39 288.32 149.74 284.79 155.34Z" fill="#FF8762"/>
<path d="M278.42 144.11C278.467 144.146 278.522 144.17 278.58 144.18C278.33 144.66 278.35 146.75 281.05 146.01C279.83 147.71 280.59 148.01 280.59 148.01C279.5 150.01 280.08 150.93 280.79 151.14C281.5 151.35 281.63 152.51 281.55 152.79C281.25 154.24 280.18 156.96 283.89 156.45C284.53 156.8 285.16 156.27 285.64 154.72C286.12 153.17 291.36 148.72 287.37 145.85C288.08 144.4 286.15 144.4 286.15 144.33C285.9 141.23 283.92 143.21 283.84 142.88C280.9 138.31 274.51 139.72 276.12 144.07C276.173 144.21 276.26 144.335 276.372 144.434C276.484 144.534 276.618 144.605 276.763 144.641C276.909 144.677 277.061 144.678 277.206 144.643C277.352 144.608 277.487 144.538 277.6 144.44C277.82 144.25 278.18 143.93 278.42 144.11Z" fill="#2B1710"/>
<path d="M277.79 148.88C277.375 148.627 276.923 148.442 276.45 148.33C276.406 148.32 276.366 148.295 276.338 148.26C276.31 148.224 276.294 148.18 276.294 148.135C276.294 148.09 276.31 148.046 276.338 148.01C276.366 147.975 276.406 147.95 276.45 147.94C276.754 147.87 277.071 147.897 277.36 148.015C277.648 148.133 277.892 148.337 278.06 148.6C278.084 148.638 278.095 148.683 278.09 148.727C278.086 148.772 278.067 148.814 278.035 148.846C278.004 148.879 277.963 148.9 277.919 148.906C277.874 148.912 277.829 148.903 277.79 148.88Z" fill="#2B1710"/>
<path d="M276.95 150.46C277.176 150.46 277.36 150.129 277.36 149.72C277.36 149.311 277.176 148.98 276.95 148.98C276.724 148.98 276.54 149.311 276.54 149.72C276.54 150.129 276.724 150.46 276.95 150.46Z" fill="#2B1710"/>
<g style="mix-blend-mode:multiply">
<path d="M276.89 150.82C276.988 150.821 277.084 150.796 277.17 150.75C277.287 150.689 277.39 150.605 277.474 150.504C277.558 150.403 277.621 150.286 277.66 150.16C277.668 150.148 277.673 150.134 277.673 150.12C277.673 150.106 277.668 150.092 277.66 150.08C277.648 150.072 277.634 150.067 277.62 150.067C277.606 150.067 277.592 150.072 277.58 150.08C277.552 150.189 277.501 150.291 277.43 150.379C277.36 150.467 277.271 150.539 277.17 150.59C277.108 150.622 277.04 150.638 276.97 150.638C276.901 150.638 276.832 150.622 276.77 150.59C276.757 150.581 276.741 150.576 276.725 150.576C276.709 150.576 276.693 150.581 276.68 150.59C276.67 150.601 276.665 150.615 276.665 150.63C276.665 150.645 276.67 150.659 276.68 150.67C276.737 150.736 276.809 150.788 276.89 150.82Z" fill="#E0B3A8"/>
</g>
<path d="M277.47 153.95C278.348 153.95 279.06 153.27 279.06 152.43C279.06 151.591 278.348 150.91 277.47 150.91C276.592 150.91 275.88 151.591 275.88 152.43C275.88 153.27 276.592 153.95 277.47 153.95Z" fill="#FF7557"/>
<path d="M281.895 153.071C282.723 152.875 283.235 152.046 283.04 151.218C282.845 150.39 282.015 149.878 281.187 150.073C280.36 150.268 279.847 151.098 280.042 151.926C280.238 152.753 281.067 153.266 281.895 153.071Z" fill="#FF7A52"/>
<g style="mix-blend-mode:multiply">
<path d="M280.44 151.56C280.44 151.734 280.482 151.906 280.562 152.061C280.642 152.216 280.758 152.349 280.9 152.45C280.908 152.454 280.916 152.456 280.925 152.456C280.934 152.456 280.942 152.454 280.95 152.45C280.956 152.444 280.961 152.437 280.965 152.429C280.968 152.422 280.97 152.413 280.97 152.405C280.97 152.396 280.968 152.388 280.965 152.38C280.961 152.372 280.956 152.365 280.95 152.36C280.833 152.275 280.736 152.166 280.665 152.04C280.594 151.914 280.551 151.774 280.54 151.63C280.594 151.741 280.677 151.836 280.781 151.903C280.885 151.97 281.006 152.007 281.13 152.01C281.305 152.01 281.473 151.94 281.597 151.816C281.72 151.693 281.79 151.525 281.79 151.35C281.79 151.175 281.72 151.007 281.597 150.883C281.473 150.759 281.305 150.69 281.13 150.69C281.262 150.63 281.405 150.599 281.55 150.6C281.696 150.602 281.84 150.637 281.971 150.701C282.102 150.764 282.218 150.856 282.31 150.97C282.315 150.976 282.322 150.982 282.329 150.986C282.336 150.99 282.345 150.992 282.353 150.993C282.361 150.994 282.37 150.994 282.378 150.991C282.386 150.989 282.393 150.985 282.4 150.98C282.406 150.975 282.412 150.968 282.416 150.961C282.42 150.953 282.423 150.945 282.424 150.937C282.425 150.928 282.424 150.92 282.421 150.912C282.419 150.904 282.415 150.896 282.41 150.89C282.309 150.758 282.178 150.652 282.029 150.579C281.88 150.506 281.716 150.469 281.55 150.47C281.406 150.468 281.262 150.496 281.128 150.55C280.994 150.604 280.872 150.684 280.769 150.785C280.666 150.886 280.584 151.007 280.527 151.14C280.471 151.273 280.441 151.415 280.44 151.56ZM280.64 151.34C280.64 151.235 280.671 151.132 280.73 151.044C280.789 150.957 280.872 150.889 280.97 150.849C281.067 150.809 281.174 150.8 281.277 150.821C281.38 150.842 281.475 150.894 281.548 150.969C281.622 151.044 281.672 151.139 281.691 151.243C281.71 151.346 281.698 151.453 281.657 151.55C281.615 151.646 281.546 151.728 281.457 151.785C281.369 151.842 281.265 151.872 281.16 151.87C281.091 151.87 281.022 151.856 280.959 151.829C280.895 151.802 280.837 151.763 280.789 151.714C280.74 151.665 280.702 151.606 280.677 151.542C280.651 151.478 280.639 151.409 280.64 151.34Z" fill="#E0B3A8"/>
</g>
<path d="M276.74 154.44C276.346 154.499 275.966 154.632 275.62 154.83C275.59 155.17 276.52 155.74 276.74 154.44Z" fill="white"/>
<g style="mix-blend-mode:multiply">
<path d="M276.2 155.68C276.263 155.692 276.327 155.692 276.39 155.68C276.478 155.648 276.559 155.598 276.626 155.532C276.693 155.467 276.746 155.388 276.78 155.3C276.786 155.295 276.791 155.289 276.795 155.282C276.798 155.275 276.8 155.268 276.8 155.26C276.8 155.252 276.798 155.245 276.795 155.238C276.791 155.231 276.786 155.225 276.78 155.22C276.768 155.212 276.754 155.208 276.74 155.208C276.726 155.208 276.712 155.212 276.7 155.22C276.672 155.289 276.63 155.351 276.576 155.402C276.523 155.454 276.46 155.494 276.39 155.52C276.331 155.548 276.266 155.563 276.2 155.563C276.134 155.563 276.069 155.548 276.01 155.52C276.003 155.511 275.994 155.503 275.984 155.498C275.974 155.493 275.963 155.491 275.951 155.491C275.94 155.492 275.929 155.495 275.919 155.501C275.909 155.506 275.901 155.514 275.894 155.524C275.888 155.533 275.885 155.544 275.884 155.556C275.883 155.567 275.885 155.578 275.889 155.589C275.894 155.599 275.901 155.609 275.91 155.616C275.918 155.623 275.929 155.628 275.94 155.63C276.022 155.665 276.111 155.682 276.2 155.68Z" fill="#E0B3A8"/>
</g>
<path d="M284.16 143.13C284.175 143.125 284.189 143.115 284.2 143.103C284.21 143.091 284.217 143.076 284.22 143.06C284.196 142.892 284.208 142.721 284.257 142.559C284.305 142.397 284.388 142.247 284.5 142.12C284.612 142.028 284.742 141.962 284.882 141.926C285.022 141.89 285.168 141.884 285.31 141.91C285.328 141.909 285.345 141.903 285.359 141.892C285.373 141.881 285.384 141.867 285.39 141.85C285.398 141.838 285.403 141.825 285.403 141.811C285.404 141.797 285.4 141.783 285.392 141.771C285.385 141.759 285.374 141.75 285.361 141.744C285.348 141.739 285.334 141.737 285.32 141.74C285.158 141.709 284.991 141.716 284.831 141.759C284.672 141.802 284.524 141.881 284.4 141.99C284.279 142.125 284.189 142.283 284.134 142.456C284.078 142.628 284.06 142.81 284.08 142.99C284.061 143 284.048 143.018 284.042 143.039C284.037 143.059 284.039 143.081 284.05 143.1C284.061 143.118 284.078 143.132 284.099 143.138C284.119 143.143 284.141 143.14 284.16 143.13Z" fill="#2B1710"/>
<path d="M275.52 143.48C275.537 143.477 275.552 143.469 275.563 143.456C275.574 143.443 275.58 143.427 275.58 143.41C275.511 143.076 275.517 142.73 275.597 142.399C275.676 142.067 275.827 141.757 276.04 141.49C276.424 141.132 276.878 140.858 277.374 140.686C277.87 140.514 278.397 140.447 278.92 140.49C278.937 140.487 278.952 140.479 278.963 140.466C278.974 140.453 278.98 140.437 278.98 140.42C278.98 140.404 278.974 140.389 278.962 140.377C278.951 140.366 278.936 140.36 278.92 140.36C278.372 140.32 277.822 140.396 277.306 140.582C276.789 140.768 276.317 141.06 275.92 141.44C275.698 141.718 275.539 142.04 275.455 142.386C275.37 142.731 275.362 143.091 275.43 143.44C275.432 143.449 275.436 143.458 275.442 143.466C275.448 143.473 275.456 143.479 275.465 143.483C275.473 143.487 275.483 143.489 275.493 143.488C275.502 143.488 275.512 143.485 275.52 143.48Z" fill="#2B1710"/>
<path d="M280.2 148.13C280.209 148.129 280.218 148.126 280.225 148.121C280.233 148.116 280.24 148.11 280.244 148.102C280.249 148.094 280.252 148.086 280.253 148.077C280.254 148.068 280.253 148.058 280.25 148.05V147.94C280.15 147.59 280 147.07 281.14 146.47C281.15 146.459 281.155 146.445 281.155 146.43C281.155 146.415 281.15 146.401 281.14 146.39C281.134 146.384 281.127 146.378 281.12 146.375C281.112 146.371 281.104 146.37 281.095 146.37C281.086 146.37 281.078 146.371 281.07 146.375C281.063 146.378 281.056 146.384 281.05 146.39C279.81 147.03 279.99 147.64 280.1 148.01C280.105 148.043 280.105 148.077 280.1 148.11C280.112 148.124 280.128 148.134 280.146 148.138C280.165 148.142 280.184 148.139 280.2 148.13Z" fill="#2B1710"/>
<path d="M279.97 150.95C279.978 150.954 279.986 150.955 279.995 150.955C280.004 150.955 280.012 150.954 280.02 150.95C280.027 150.944 280.032 150.937 280.035 150.93C280.039 150.922 280.04 150.913 280.04 150.905C280.04 150.896 280.039 150.888 280.035 150.88C280.032 150.873 280.027 150.866 280.02 150.86C280.02 150.86 279.67 150.51 279.87 149.63C279.871 149.613 279.867 149.596 279.858 149.582C279.849 149.567 279.836 149.556 279.82 149.55C279.812 149.547 279.802 149.546 279.793 149.547C279.784 149.548 279.776 149.551 279.768 149.556C279.76 149.56 279.754 149.567 279.749 149.575C279.744 149.582 279.741 149.591 279.74 149.6C279.53 150.6 279.92 150.94 279.94 150.96L279.97 150.95Z" fill="#2B1710"/>
<path d="M279.79 151.23H279.85C279.861 151.217 279.866 151.201 279.866 151.185C279.866 151.168 279.861 151.152 279.85 151.14C279.761 151.069 279.695 150.973 279.663 150.864C279.631 150.754 279.633 150.638 279.67 150.53C279.678 150.518 279.683 150.504 279.683 150.49C279.683 150.476 279.678 150.462 279.67 150.45C279.659 150.44 279.645 150.435 279.63 150.435C279.615 150.435 279.601 150.44 279.59 150.45C279.539 150.584 279.534 150.732 279.575 150.869C279.617 151.007 279.703 151.126 279.82 151.21L279.79 151.23Z" fill="#2B1710"/>
<path d="M289.14 149.66C289.149 149.665 289.159 149.668 289.17 149.668C289.18 149.668 289.191 149.665 289.2 149.66C289.385 149.028 289.356 148.354 289.12 147.74C288.981 147.36 288.758 147.017 288.467 146.736C288.176 146.455 287.825 146.244 287.44 146.12C287.427 146.109 287.411 146.104 287.395 146.104C287.378 146.104 287.363 146.109 287.35 146.12C287.342 146.132 287.337 146.146 287.337 146.16C287.337 146.174 287.342 146.188 287.35 146.2C287.719 146.315 288.056 146.514 288.335 146.781C288.614 147.049 288.828 147.377 288.96 147.74C289.19 148.324 289.218 148.968 289.04 149.57C289.03 149.581 289.025 149.595 289.025 149.61C289.025 149.625 289.03 149.639 289.04 149.65L289.14 149.66Z" fill="#2B1710"/>
<path d="M284.39 143C284.399 143.005 284.41 143.007 284.42 143.007C284.43 143.007 284.441 143.005 284.45 143C284.475 142.896 284.522 142.8 284.588 142.716C284.654 142.633 284.738 142.565 284.833 142.517C284.929 142.469 285.033 142.443 285.14 142.44C285.246 142.437 285.352 142.458 285.45 142.5C285.464 142.5 285.478 142.496 285.489 142.489C285.501 142.481 285.51 142.47 285.516 142.457C285.521 142.444 285.522 142.43 285.52 142.416C285.517 142.402 285.51 142.39 285.5 142.38C285.388 142.341 285.27 142.325 285.152 142.333C285.035 142.341 284.92 142.372 284.814 142.425C284.709 142.479 284.615 142.552 284.539 142.643C284.462 142.733 284.405 142.837 284.37 142.95C284.36 142.961 284.355 142.975 284.355 142.99C284.355 143.005 284.36 143.019 284.37 143.03L284.39 143Z" fill="#2B1710"/>
<path d="M254.87 195.02C253.99 194.02 253.97 194.13 252.28 194.13C250.59 194.13 247.56 193.04 247.02 191.93C246.339 191.732 245.758 191.286 245.39 190.68C244.44 190.61 243.04 189.61 243.9 189.08C244.76 188.55 253.74 187.38 254.9 185.83C256.06 184.28 255.41 181.2 256.8 182.02C258.19 182.84 257.24 187.22 258.24 189.17C259.54 190.96 260.58 192.33 260.58 192.33L254.87 195.02Z" fill="#FF8762"/>
<g style="mix-blend-mode:multiply">
<path d="M250.32 190.68C250.326 190.666 250.33 190.651 250.33 190.635C250.33 190.62 250.326 190.604 250.32 190.59C250.313 190.562 250.296 190.537 250.272 190.521C250.248 190.504 250.219 190.497 250.19 190.5C248.658 190.764 247.092 190.764 245.56 190.5C245.545 190.493 245.529 190.49 245.513 190.49C245.497 190.49 245.481 190.494 245.466 190.501C245.451 190.509 245.439 190.519 245.428 190.532C245.418 190.544 245.411 190.559 245.407 190.575C245.404 190.591 245.403 190.607 245.407 190.623C245.41 190.639 245.417 190.654 245.427 190.667C245.436 190.68 245.449 190.69 245.463 190.698C245.478 190.705 245.494 190.71 245.51 190.71C247.071 190.986 248.669 190.986 250.23 190.71C250.236 190.719 250.245 190.725 250.255 190.728C250.265 190.731 250.276 190.731 250.286 190.728C250.296 190.724 250.304 190.718 250.31 190.709C250.317 190.701 250.32 190.691 250.32 190.68Z" fill="#E0B3A8"/>
</g>
<g style="mix-blend-mode:multiply">
<path d="M250.96 192.52C250.97 192.494 250.97 192.466 250.96 192.44C250.962 192.426 250.96 192.412 250.956 192.399C250.951 192.386 250.944 192.373 250.935 192.363C250.925 192.353 250.914 192.344 250.901 192.339C250.888 192.333 250.874 192.33 250.86 192.33C249.646 192.283 248.441 192.116 247.26 191.83C247.232 191.824 247.203 191.829 247.179 191.844C247.155 191.859 247.137 191.883 247.13 191.91C247.126 191.923 247.124 191.937 247.125 191.951C247.126 191.965 247.13 191.978 247.136 191.991C247.143 192.003 247.152 192.014 247.163 192.022C247.174 192.031 247.187 192.037 247.2 192.04C248.396 192.331 249.62 192.499 250.85 192.54C250.869 192.547 250.889 192.549 250.908 192.545C250.927 192.542 250.945 192.533 250.96 192.52Z" fill="#E0B3A8"/>
</g>
<path d="M285.62 164.29C285.217 163.861 284.719 163.533 284.165 163.333C283.612 163.133 283.019 163.065 282.435 163.136C281.851 163.207 281.292 163.415 280.803 163.742C280.314 164.069 279.909 164.507 279.62 165.02C276.53 170.37 277.21 179.96 276.83 187.95C276.38 197.44 269.9 198.64 260.71 191.41L253.07 195.74C258.79 201.92 268.29 213.97 284.41 209.74C298.32 206.15 293.32 172.54 285.62 164.29Z" fill="#C66A05"/>
<g style="mix-blend-mode:multiply">
<path d="M286.82 233.94H286.75C286.726 233.931 286.704 233.918 286.686 233.9C286.667 233.883 286.652 233.862 286.642 233.838C286.632 233.815 286.626 233.79 286.626 233.764C286.626 233.739 286.63 233.714 286.64 233.69C287.81 230.69 289.07 227.87 290.17 225.42C291.78 221.84 293.05 219.02 293.41 217C293.414 216.975 293.422 216.951 293.435 216.929C293.449 216.908 293.466 216.889 293.486 216.874C293.507 216.859 293.53 216.848 293.555 216.842C293.579 216.837 293.605 216.836 293.63 216.84C293.68 216.852 293.724 216.882 293.754 216.925C293.784 216.967 293.796 217.019 293.79 217.07C293.43 219.13 292.15 221.98 290.52 225.57C289.42 228.02 288.17 230.8 287 233.83C286.982 233.863 286.956 233.89 286.925 233.909C286.893 233.929 286.857 233.939 286.82 233.94Z" fill="#BFBFBF"/>
</g>
<path d="M446.92 100.74C451.3 97.9202 448.42 92.6202 446.72 88.3002C445.02 83.9802 443.91 83.6502 444.72 79.7902C444.72 79.7902 442.54 75.3402 441.99 74.5902C437.12 72.2002 432.54 74.1602 431.89 81.3602C430.51 85.8802 425.73 88.2402 423.11 89.0202C420.49 89.8002 419.51 93.0202 421.02 94.0202C418.73 97.0202 422.79 105.41 431.62 101.54C436.734 101.799 441.861 101.531 446.92 100.74Z" fill="#2B1710"/>
<path d="M462.79 168.44C463.488 166.79 463.773 164.995 463.62 163.21C463.49 162.26 463.33 161.07 463.15 159.7C463.06 159.01 462.96 158.29 462.86 157.53L467.41 158.75C467.33 159.56 467.26 160.33 467.19 161.03C467.041 162.524 467.099 164.031 467.36 165.51C467.413 165.852 467.504 166.187 467.63 166.51C467.99 167.24 470.63 169.77 471.79 171.95C471.9 172.21 474.6 172.64 474.19 173.25C473.95 173.39 469.25 173.76 468.72 173.25C467.856 172.318 466.763 171.628 465.55 171.25C465.476 172.007 465.445 172.769 465.46 173.53H463.46C463.46 173.53 463.22 171.53 463.13 170.91C463.04 170.29 462.32 169.37 462.79 168.44Z" fill="#FF8762"/>
<path d="M471.81 172C471.118 172.158 470.406 172.205 469.7 172.14C469.26 171.95 466.36 168.35 463.17 167.46C463.071 167.803 462.944 168.138 462.79 168.46C462.32 169.39 463.01 170.32 463.1 170.92C463.19 171.52 463.43 173.54 463.43 173.54H465.43C465.415 172.779 465.445 172.018 465.52 171.26C466.733 171.639 467.826 172.328 468.69 173.26C469.22 173.77 473.92 173.4 474.16 173.26C474.59 172.68 472.06 172.28 471.81 172Z" fill="#2B1710"/>
<path d="M446.97 117.24L447.97 120.83C458.28 122.33 477.75 123.68 478.62 129.44C479.49 135.2 471.62 150.86 471.62 150.86L471.14 163.35H461.83L456.25 137.74C456.25 137.74 433.25 138.96 429.41 132.45C426.32 127.18 430.32 120.74 430.32 120.74L442.71 112.86L446.97 117.24Z" fill="#1B5A96"/>
<g style="mix-blend-mode:multiply">
<path d="M471.37 150.21C471.386 150.21 471.401 150.207 471.416 150.201C471.431 150.195 471.444 150.186 471.455 150.175C471.466 150.164 471.475 150.15 471.481 150.136C471.487 150.121 471.49 150.106 471.49 150.09C471.49 149.32 471.02 131.19 469.1 128C467.18 124.81 448.3 123 447.49 123C447.474 122.999 447.458 123 447.443 123.005C447.428 123.01 447.414 123.018 447.402 123.028C447.39 123.038 447.38 123.051 447.373 123.065C447.366 123.079 447.361 123.094 447.36 123.11C447.359 123.126 447.36 123.142 447.365 123.157C447.37 123.172 447.378 123.186 447.388 123.198C447.398 123.21 447.411 123.22 447.425 123.227C447.439 123.234 447.454 123.239 447.47 123.24C447.67 123.24 467.03 125.06 468.89 128.18C470.75 131.3 471.24 149.96 471.25 150.18C471.265 150.195 471.285 150.206 471.306 150.212C471.327 150.217 471.349 150.216 471.37 150.21Z" fill="#E0C9C0"/>
</g>
<g style="mix-blend-mode:multiply">
<path d="M456.43 137.63C456.895 137.493 457.334 137.28 457.73 137C457.745 136.992 457.758 136.982 457.769 136.969C457.78 136.956 457.787 136.94 457.792 136.924C457.796 136.908 457.797 136.891 457.795 136.874C457.792 136.858 457.786 136.842 457.777 136.827C457.767 136.813 457.755 136.801 457.741 136.792C457.727 136.783 457.711 136.777 457.694 136.774C457.678 136.772 457.661 136.773 457.644 136.777C457.628 136.782 457.613 136.789 457.6 136.8C457.25 137.029 456.878 137.224 456.49 137.38C456.531 137.076 456.594 136.775 456.68 136.48C456.803 136.063 456.883 135.634 456.92 135.2C456.92 135.168 456.907 135.138 456.885 135.115C456.862 135.093 456.832 135.08 456.8 135.08C456.768 135.08 456.738 135.093 456.715 135.115C456.693 135.138 456.68 135.168 456.68 135.2C456.638 135.613 456.558 136.022 456.44 136.42C456.26 137.14 456.19 137.42 456.28 137.56C456.31 137.598 456.352 137.623 456.4 137.63H456.43Z" fill="#E0C9C0"/>
</g>
<g style="mix-blend-mode:multiply">
<path d="M435.94 127.21C436.592 126.868 437.092 126.294 437.34 125.6C437.594 125.016 437.718 124.383 437.705 123.746C437.691 123.109 437.539 122.483 437.26 121.91C437.255 121.895 437.246 121.88 437.235 121.869C437.223 121.857 437.21 121.848 437.194 121.842C437.179 121.836 437.163 121.834 437.146 121.835C437.13 121.837 437.114 121.842 437.1 121.85C437.084 121.855 437.07 121.864 437.058 121.875C437.047 121.887 437.038 121.9 437.032 121.916C437.026 121.931 437.024 121.948 437.025 121.964C437.027 121.98 437.032 121.996 437.04 122.01C437.299 122.555 437.44 123.148 437.454 123.752C437.468 124.355 437.354 124.954 437.12 125.51C436.891 126.136 436.444 126.658 435.86 126.98C435.828 126.98 435.798 126.993 435.775 127.015C435.753 127.038 435.74 127.068 435.74 127.1C435.74 127.132 435.753 127.162 435.775 127.185C435.798 127.207 435.828 127.22 435.86 127.22L435.94 127.21Z" fill="#E0C9C0"/>
</g>
<g style="mix-blend-mode:multiply">
<path d="M464.52 163.09C464.552 163.083 464.58 163.065 464.6 163.04C464.62 163.014 464.631 162.983 464.63 162.95C464.37 160.27 462.08 136.78 460.72 136.15C460.34 135.97 460.13 135.8 460.08 135.62C460.03 135.44 460.23 135.12 460.48 134.77C460.6 134.6 460.74 134.42 460.86 134.21C460.879 134.179 460.89 134.142 460.89 134.105C460.89 134.068 460.879 134.032 460.86 134C460.55 133.36 455.31 132.65 447.35 131.63C444.01 131.2 441.13 130.83 439.83 130.57C438.122 130.245 436.583 129.328 435.486 127.979C434.388 126.631 433.802 124.938 433.83 123.2C433.83 123.168 433.817 123.138 433.795 123.115C433.772 123.093 433.742 123.08 433.71 123.08C433.678 123.08 433.648 123.093 433.625 123.115C433.603 123.138 433.59 123.168 433.59 123.2C433.582 124.996 434.201 126.739 435.34 128.128C436.479 129.517 438.067 130.466 439.83 130.81C441.14 131.07 444.03 131.44 447.37 131.87C452.52 132.53 460.29 133.53 460.68 134.1C460.57 134.29 460.44 134.46 460.32 134.63C460.04 135.01 459.8 135.34 459.89 135.68C459.98 136.02 460.19 136.16 460.65 136.37C461.59 136.81 463.42 152.52 464.42 162.97C464.421 162.998 464.432 163.025 464.45 163.047C464.468 163.068 464.493 163.084 464.52 163.09Z" fill="#E0C9C0"/>
</g>
<path d="M476.51 98.46C477.15 97.9796 477.845 97.5768 478.58 97.26C479.191 97.0896 479.737 96.7415 480.15 96.26C480.15 96.26 481.15 96.61 481.53 96.34C482.195 95.5801 482.641 94.6537 482.82 93.66C482.87 92.98 481.82 92.11 481.82 92.11L482.46 91.71C482.985 91.7696 483.506 91.8597 484.02 91.98C484.81 92.17 485.37 91.98 485.34 91.62C485.34 91.62 482.85 90.68 482.6 90.62C481.856 90.5776 481.111 90.7005 480.42 90.98C479.76 91.34 475.85 94.86 475.06 95.33C470.85 98.2 463.23 99.92 463.23 99.92L464.87 106.23C469.9 104.51 476.51 98.46 476.51 98.46Z" fill="#FF8762"/>
<g style="mix-blend-mode:multiply">
<path d="M481.42 96.1398C481.42 96.1398 481.42 96.0798 481.42 96.0698C481.506 96.0119 481.578 95.9349 481.63 95.8447C481.683 95.7546 481.713 95.6537 481.72 95.5498C481.72 94.9298 480.91 94.1298 480.36 93.5498L480.25 93.4498C480.211 93.4075 480.19 93.3522 480.19 93.2948C480.19 93.2375 480.211 93.1822 480.25 93.1398C480.586 92.7156 481.067 92.4306 481.6 92.3398C481.6 92.3398 481.6 92.3398 481.6 92.3998C481.6 92.4598 481.6 92.3998 481.54 92.3998C481.057 92.505 480.622 92.7648 480.3 93.1398C480.24 93.2498 480.3 93.3098 480.3 93.3398L480.4 93.4398C481.01 94.0098 481.84 94.7998 481.8 95.4398C481.79 95.5571 481.755 95.6708 481.696 95.7728C481.637 95.8748 481.557 95.9626 481.46 96.0298L481.42 96.1398Z" fill="#E0B3A8"/>
</g>
<path d="M461.54 99.6599C461.92 98.3099 463.76 97.6599 464.95 99.7299C466.14 101.8 466.76 106.51 465.44 107.73C465.222 107.92 464.963 108.057 464.684 108.13C464.404 108.203 464.111 108.21 463.828 108.151C463.545 108.092 463.28 107.968 463.053 107.789C462.826 107.61 462.644 107.381 462.52 107.12C462.26 106.58 461.54 99.6599 461.54 99.6599Z" fill="#C66A05"/>
<path d="M446.86 92.2402C451.4 94.4402 455.61 99.9202 462.98 99.6702C465.62 103.07 464.62 106.4 463.42 107.67C459.52 109.5 450.94 107.88 447.05 105.22C443.84 103 442.58 98.2802 446.86 92.2402Z" fill="#C66A05"/>
<path d="M448.16 120.88H430.22C427.421 111.872 426.834 102.323 428.51 93.0401C429.993 91.9844 431.708 91.2986 433.51 91.0401L441 90.8301C443.014 90.9959 444.991 91.4715 446.86 92.2401C448.67 97.7101 451.48 102.24 451.37 105.16C451.26 108.08 447.11 114.8 448.16 120.88Z" fill="#FB9100"/>
<path d="M437.23 86.1898C436.604 86.3342 435.95 86.3056 435.339 86.1069C434.728 85.9082 434.183 85.5469 433.762 85.0619C433.34 84.5768 433.059 83.9862 432.948 83.3534C432.836 82.7206 432.899 82.0695 433.13 81.4698C432.87 76.6998 434.9 72.0098 442.03 74.5598C445.58 74.9998 446.94 79.6898 444.03 80.9098C441.897 82.836 439.624 84.6009 437.23 86.1898Z" fill="#2B1710"/>
<path d="M440.07 88.0199C439.85 89.3499 440.32 90.7699 443.33 91.1399C446.72 103.14 431.89 92.3699 431.91 91.4799C431.91 91.3699 434.56 90.6299 435.14 89.5999C435.72 88.5699 436 85.9699 435.78 82.4799C437.14 82.8399 437.61 81.7599 437.63 79.9099C437.65 78.0599 438.55 75.0799 442.15 75.5599C443.51 77.2199 444.23 78.2699 444.15 80.4299C444.07 82.5899 444.28 84.1299 444.02 85.1599C443.793 86.0193 443.275 86.7737 442.556 87.295C441.836 87.8164 440.957 88.0725 440.07 88.0199Z" fill="#FF8762"/>
<g style="mix-blend-mode:multiply">
<path d="M439.79 84.8202C441.43 84.1202 443.01 84.1502 442.88 84.7302C442.97 86.1402 441.21 87.6302 439.79 84.8202Z" fill="#E0B3A8"/>
</g>
<path d="M438.06 80.0601C438.051 80.0666 438.041 80.0701 438.03 80.0701C438.019 80.0701 438.009 80.0666 438 80.0601C438 80.0601 438 80.0001 438 79.9701C438.63 79.1001 439.93 78.4201 440.48 79.5401C440.48 79.5401 440.54 79.5401 440.53 79.6201C440.517 79.6291 440.501 79.634 440.485 79.634C440.469 79.634 440.453 79.6291 440.44 79.6201C439.625 79.4816 438.788 79.63 438.07 80.0401L438.06 80.0601Z" fill="#2B1710"/>
<path d="M443.84 80.1301H443.78C443.78 80.1301 443.49 79.7501 442.57 79.8701C442.57 79.8701 442.5 79.8701 442.5 79.8101C442.5 79.7501 442.5 79.7601 442.56 79.7301C443.06 78.6301 443.86 80.0001 443.9 80.0501C443.911 80.0643 443.918 80.0819 443.918 80.1001C443.918 80.1182 443.911 80.1359 443.9 80.1501L443.84 80.1301Z" fill="#2B1710"/>
<path d="M442.2 83.8999C442.191 83.9043 442.18 83.9066 442.17 83.9066C442.16 83.9066 442.149 83.9043 442.14 83.8999C442.129 83.8857 442.122 83.868 442.122 83.8499C442.122 83.8317 442.129 83.814 442.14 83.7999C442.452 83.5694 442.743 83.3117 443.01 83.0299H442.7C442.459 83.0468 442.217 83.0127 441.99 82.9299C441.61 82.7099 441.99 81.1099 442.31 80.3599C442.31 80.3599 442.36 80.3599 442.4 80.3599C442.411 80.3741 442.418 80.3917 442.418 80.4099C442.418 80.428 442.411 80.4457 442.4 80.4599C442.01 81.3299 441.79 82.7099 442.01 82.8399C442.218 82.9144 442.439 82.9451 442.66 82.9299C442.95 82.9299 443.12 82.9299 443.12 83.0699C443.12 83.2099 442.62 83.6399 442.19 83.9799L442.2 83.8999Z" fill="#2B1710"/>
<path d="M440.04 81.5298C440.04 81.9498 439.85 82.2898 439.62 82.2898C439.39 82.2898 439.19 81.9498 439.19 81.5298C439.19 81.1098 439.38 80.7598 439.62 80.7598C439.86 80.7598 440.04 81.1098 440.04 81.5298Z" fill="#2B1710"/>
<g style="mix-blend-mode:multiply">
<path d="M439.52 82.5499C439.37 82.5499 439.04 82.4799 438.94 81.9399C439.04 82.4599 439.35 82.4899 439.48 82.4799L439.52 82.5499Z" fill="#E0B3A8"/>
</g>
<path d="M443.32 81.6199C443.32 82.0399 443.12 82.3799 442.89 82.3799C442.66 82.3799 442.46 82.0399 442.46 81.6199C442.46 81.1999 442.65 80.8599 442.89 80.8599C443.13 80.8599 443.32 81.1999 443.32 81.6199Z" fill="#2B1710"/>
<g style="mix-blend-mode:multiply">
<path d="M442.77 82.64C442.62 82.64 442.29 82.58 442.19 82.04C442.29 82.57 442.6 82.6 442.73 82.59L442.77 82.64Z" fill="#E0B3A8"/>
</g>
<g style="mix-blend-mode:multiply">
<path d="M441.46 87C441.668 87.0021 441.874 86.9682 442.07 86.9C442.08 86.889 442.085 86.8747 442.085 86.86C442.085 86.8452 442.08 86.831 442.07 86.82C442.061 86.8108 442.048 86.8057 442.035 86.8057C442.022 86.8057 442.009 86.8108 442 86.82C441.708 86.9215 441.394 86.9457 441.09 86.89C441.081 86.886 441.071 86.8843 441.061 86.8852C441.051 86.886 441.042 86.8893 441.033 86.8948C441.025 86.9002 441.018 86.9077 441.013 86.9164C441.009 86.9252 441.006 86.935 441.006 86.945C441.006 86.9549 441.009 86.9647 441.013 86.9735C441.018 86.9823 441.025 86.9897 441.033 86.9952C441.042 87.0006 441.051 87.0039 441.061 87.0047C441.071 87.0056 441.081 87.0039 441.09 87C441.213 87.0095 441.337 87.0095 441.46 87Z" fill="#E0B3A8"/>
</g>
<path d="M439.79 84.82L442.88 84.73C442.88 86.11 440.86 86.74 439.79 84.82Z" fill="#2B1710"/>
<path d="M442.32 85.7398C442.062 85.381 441.718 85.0923 441.32 84.8998L440.32 84.7598H439.76C440.5 86.1198 441.63 86.2398 442.32 85.7398Z" fill="#7D2727"/>
<path d="M442.88 84.7402L439.79 84.8302C440.51 85.3202 442.41 85.4602 442.88 84.7402Z" fill="white"/>
<path d="M425.65 115.2C424.55 120.51 424.44 130.55 424.94 132.57C425.44 134.59 424.49 136.03 422.8 136.33C421.11 136.63 420.27 138.08 419.31 137.66C418.35 137.24 419.93 135.56 420.74 135.34C418.38 135.53 417.38 138.34 416.32 138.45C416.225 138.47 416.127 138.47 416.032 138.449C415.938 138.427 415.849 138.386 415.772 138.327C415.695 138.268 415.631 138.193 415.586 138.107C415.541 138.021 415.515 137.927 415.51 137.83C415.317 137.836 415.129 137.77 414.982 137.644C414.836 137.518 414.742 137.342 414.72 137.15C414.01 136.42 415.21 134.35 416.72 133.58C418.23 132.81 420.17 131.58 420.18 130.58C420.19 129.58 417.29 116.87 417.43 115.03C417.57 113.19 425.65 115.2 425.65 115.2Z" fill="#FF8762"/>
<path d="M426.14 112.67C427.51 113.34 427.86 115.44 425.39 116.3C422.92 117.16 417.79 116.91 416.7 115.24C415.61 113.57 417.25 112.41 417.92 112.24C418.59 112.07 426.14 112.67 426.14 112.67Z" fill="#C66A05"/>
<path d="M428.8 92.9302C433.03 98.8402 430.87 107.12 428.46 108.93C427.75 109.511 427.181 110.244 426.793 111.075C426.405 111.906 426.209 112.813 426.22 113.73C423.54 116.19 417.37 114.13 417.22 113.73C418.26 105.47 422.68 95.3502 428.8 92.9302Z" fill="#C66A05"/>
<g style="mix-blend-mode:multiply">
<path d="M415.56 137.55C415.56 137.55 415.62 137.55 415.63 137.5C415.991 136.235 416.731 135.111 417.75 134.28C417.761 134.268 417.767 134.252 417.767 134.235C417.767 134.219 417.761 134.203 417.75 134.19C417.745 134.184 417.738 134.179 417.73 134.175C417.722 134.172 417.714 134.17 417.705 134.17C417.697 134.17 417.688 134.172 417.68 134.175C417.673 134.179 417.666 134.184 417.66 134.19C416.615 135.039 415.854 136.187 415.48 137.48C415.477 137.497 415.48 137.515 415.49 137.53C415.499 137.545 415.513 137.556 415.53 137.56L415.56 137.55Z" fill="#E0B3A8"/>
</g>
<g style="mix-blend-mode:multiply">
<path d="M414.84 136.89C414.855 136.889 414.87 136.884 414.882 136.875C414.895 136.866 414.904 136.854 414.91 136.84C415.081 136.104 415.424 135.418 415.91 134.84C415.916 134.834 415.922 134.827 415.925 134.819C415.929 134.812 415.93 134.803 415.93 134.795C415.93 134.786 415.929 134.778 415.925 134.77C415.922 134.762 415.916 134.755 415.91 134.75C415.904 134.743 415.897 134.738 415.89 134.735C415.882 134.731 415.874 134.729 415.865 134.729C415.857 134.729 415.848 134.731 415.84 134.735C415.833 134.738 415.826 134.743 415.82 134.75C415.33 135.353 414.988 136.062 414.82 136.82C414.819 136.837 414.823 136.854 414.832 136.868C414.841 136.882 414.854 136.893 414.87 136.9L414.84 136.89Z" fill="#E0B3A8"/>
</g>
<path d="M442.15 75.5598C440.672 77.3407 438.603 78.5299 436.32 78.9098L436.91 74.5898L442.15 75.5598Z" fill="#2B1710"/>
<path d="M437.76 83.65C437.748 83.882 437.806 84.1123 437.926 84.311C438.047 84.5097 438.224 84.6677 438.435 84.7645C438.647 84.8613 438.882 84.8924 439.111 84.8539C439.34 84.8153 439.552 84.7088 439.72 84.5482C439.888 84.3876 440.004 84.1803 440.053 83.9531C440.101 83.7259 440.081 83.4894 439.994 83.2741C439.906 83.0588 439.756 82.8746 439.563 82.7455C439.37 82.6164 439.142 82.5483 438.91 82.55C438.612 82.5446 438.324 82.6572 438.109 82.8632C437.893 83.0692 437.768 83.352 437.76 83.65Z" fill="#FF7557"/>
<path d="M434.91 84.2202C435.612 84.2202 436.18 83.6516 436.18 82.9502C436.18 82.2488 435.612 81.6802 434.91 81.6802C434.209 81.6802 433.64 82.2488 433.64 82.9502C433.64 83.6516 434.209 84.2202 434.91 84.2202Z" fill="#FF7A52"/>
<g style="mix-blend-mode:multiply">
<path d="M434.91 82.0398C434.772 82.0389 434.636 82.069 434.511 82.1279C434.387 82.1867 434.277 82.2728 434.19 82.3798C434.18 82.3908 434.175 82.405 434.175 82.4198C434.175 82.4345 434.18 82.4488 434.19 82.4598C434.201 82.4696 434.215 82.4751 434.23 82.4751C434.245 82.4751 434.259 82.4696 434.27 82.4598C434.346 82.3654 434.442 82.2894 434.551 82.2375C434.66 82.1855 434.779 82.159 434.9 82.1598C435.017 82.1569 435.134 82.1809 435.24 82.2298C435.097 82.2298 434.96 82.2867 434.858 82.3879C434.757 82.4892 434.7 82.6266 434.7 82.7698C434.7 82.9139 434.757 83.0523 434.858 83.1552C434.959 83.2581 435.096 83.3172 435.24 83.3198C435.343 83.3201 435.443 83.291 435.53 83.2361C435.617 83.1812 435.686 83.1027 435.73 83.0098C435.725 83.1285 435.693 83.2444 435.635 83.3485C435.578 83.4526 435.498 83.542 435.4 83.6098V83.6798C435.556 83.5681 435.673 83.4099 435.734 83.2279C435.794 83.0458 435.796 82.8493 435.738 82.6662C435.681 82.4832 435.567 82.323 435.413 82.2087C435.258 82.0944 435.072 82.0318 434.88 82.0298L434.91 82.0398ZM435.21 83.1998C435.123 83.1998 435.038 83.174 434.966 83.1256C434.893 83.0773 434.837 83.0086 434.804 82.9282C434.77 82.8478 434.762 82.7593 434.779 82.6739C434.796 82.5886 434.837 82.5102 434.899 82.4487C434.96 82.3871 435.039 82.3452 435.124 82.3282C435.21 82.3113 435.298 82.32 435.378 82.3533C435.459 82.3866 435.528 82.443 435.576 82.5153C435.624 82.5877 435.65 82.6728 435.65 82.7598C435.651 82.8179 435.641 82.8758 435.619 82.9298C435.598 82.9838 435.565 83.0328 435.524 83.074C435.483 83.1151 435.434 83.1475 435.38 83.1691C435.326 83.1907 435.268 83.2012 435.21 83.1998Z" fill="#E0B3A8"/>
</g>
<path d="M439.71 87.96C438.907 87.6498 438.19 87.1536 437.616 86.5121C437.042 85.8707 436.629 85.1023 436.41 84.27C437.06 88.65 438.59 90.74 439.71 87.96Z" fill="#FF7557"/>
</g>
</g>
<defs>
<clipPath id="clip0_114_796">
<rect width="570" height="324" fill="white"/>
</clipPath>
<clipPath id="clip1_114_796">
<rect width="401.37" height="261.48" fill="white" transform="translate(84 31)"/>
</clipPath>
</defs>
</svg>
