<svg width="570" height="324" viewBox="0 0 570 324" fill="none" xmlns="http://www.w3.org/2000/svg">
<g clip-path="url(#clip0_107_397)">
<rect width="570" height="324" fill="#FFF6EB"/>
<path d="M486.065 292.996H83.7149C83.517 292.979 83.3354 292.92 83.2039 292.829C83.0725 292.738 83 292.621 83 292.5C83 292.379 83.0725 292.262 83.2039 292.171C83.3354 292.08 83.517 292.021 83.7149 292.004H486.065C486.182 291.995 486.3 292.001 486.413 292.021C486.526 292.042 486.63 292.077 486.718 292.124C486.807 292.171 486.878 292.228 486.926 292.293C486.975 292.358 487 292.429 487 292.5C487 292.571 486.975 292.642 486.926 292.707C486.878 292.772 486.807 292.829 486.718 292.876C486.63 292.923 486.526 292.958 486.413 292.979C486.3 292.999 486.182 293.005 486.065 292.996Z" fill="#1E1E1E"/>
<g clip-path="url(#clip1_107_397)">
<path d="M415.675 165.621H218.09C218.006 165.621 217.926 165.588 217.867 165.529C217.808 165.47 217.775 165.39 217.775 165.307V32.3146C217.775 32.2311 217.808 32.1511 217.867 32.0921C217.926 32.0331 218.006 32 218.09 32H415.675C415.759 32 415.839 32.0331 415.898 32.0921C415.957 32.1511 415.99 32.2311 415.99 32.3146V165.307C415.99 165.39 415.957 165.47 415.898 165.529C415.839 165.588 415.759 165.621 415.675 165.621ZM218.414 164.992H415.361V32.6291H218.414V164.992Z" fill="black"/>
<path d="M407.733 157.885H225.738C225.655 157.882 225.576 157.848 225.518 157.79C225.46 157.731 225.426 157.653 225.423 157.57V40.0607C225.426 39.978 225.46 39.8994 225.518 39.841C225.576 39.7825 225.655 39.7486 225.738 39.7461H407.733C407.815 39.7486 407.894 39.7825 407.953 39.841C408.011 39.8994 408.045 39.978 408.047 40.0607V157.59C408.04 157.669 408.004 157.743 407.946 157.797C407.888 157.851 407.812 157.883 407.733 157.885ZM226.052 157.246H407.389V40.3752H226.052V157.246Z" fill="black"/>
<path d="M348.074 207.596H285.711C285.628 207.596 285.548 207.562 285.489 207.503C285.43 207.444 285.397 207.364 285.397 207.281V165.306C285.397 165.223 285.43 165.143 285.489 165.084C285.548 165.025 285.628 164.992 285.711 164.992H348.074C348.156 164.994 348.235 165.028 348.293 165.087C348.352 165.145 348.386 165.224 348.388 165.306V207.281C348.388 207.364 348.355 207.444 348.296 207.503C348.237 207.562 348.157 207.596 348.074 207.596ZM286.026 206.966H347.759V165.621H286.026V206.966Z" fill="black"/>
<path d="M387.168 226.745H246.597C246.536 226.744 246.475 226.726 246.423 226.693C246.371 226.66 246.329 226.614 246.302 226.558C246.277 226.502 246.269 226.439 246.28 226.377C246.29 226.316 246.319 226.259 246.361 226.214L247.895 224.573C253.048 219.033 259.285 214.612 266.218 211.584C273.151 208.555 280.633 206.984 288.198 206.967H345.449C353.023 206.977 360.514 208.545 367.456 211.574C374.398 214.603 380.643 219.027 385.802 224.573L387.335 226.214C387.374 226.262 387.399 226.319 387.408 226.379C387.417 226.44 387.409 226.502 387.384 226.558C387.366 226.604 387.336 226.645 387.299 226.678C387.261 226.71 387.216 226.733 387.168 226.745ZM247.334 226.116H386.451L385.409 224.995C380.308 219.515 374.135 215.142 367.272 212.148C360.41 209.155 353.005 207.605 345.518 207.596H288.267C280.779 207.606 273.373 209.156 266.509 212.15C259.645 215.143 253.47 219.515 248.367 224.995L247.334 226.116Z" fill="black"/>
<path d="M380.857 50.854H255.179V134.921H380.857V50.854Z" fill="#FB9100"/>
<path d="M380.995 135.236H254.678C254.594 135.236 254.514 135.203 254.455 135.144C254.396 135.085 254.363 135.005 254.363 134.921V50.8736C254.363 50.7902 254.396 50.7102 254.455 50.6512C254.514 50.5922 254.594 50.5591 254.678 50.5591H380.995C381.078 50.5591 381.158 50.5922 381.217 50.6512C381.276 50.7102 381.309 50.7902 381.309 50.8736V134.921C381.309 135.005 381.276 135.085 381.217 135.144C381.158 135.203 381.078 135.236 380.995 135.236ZM255.022 134.607H380.68V51.1882H255.022V134.607Z" fill="black"/>
<path d="M319.468 108.331C328.735 108.331 336.248 100.836 336.248 91.5903C336.248 82.3447 328.735 74.8496 319.468 74.8496C310.201 74.8496 302.688 82.3447 302.688 91.5903C302.688 100.836 310.201 108.331 319.468 108.331Z" fill="#FFF6EB"/>
<path d="M326.752 91.8263L316.263 85.7808V97.862L326.752 91.8263Z" fill="#1B5A96"/>
<path d="M270.868 55.7593H260.812V62.9844H270.868V55.7593Z" fill="#FFF6EB"/>
<path d="M288.346 55.7593H278.29V62.9844H288.346V55.7593Z" fill="#FFF6EB"/>
<path d="M305.755 55.7593H295.699V62.9844H305.755V55.7593Z" fill="#FFF6EB"/>
<path d="M323.233 55.7593H313.177V62.9844H323.233V55.7593Z" fill="#FFF6EB"/>
<path d="M340.259 55.7593H330.203V62.9844H340.259V55.7593Z" fill="#FFF6EB"/>
<path d="M357.747 55.7593H347.69V62.9844H357.747V55.7593Z" fill="#FFF6EB"/>
<path d="M375.225 55.7593H365.168V62.9844H375.225V55.7593Z" fill="#FFF6EB"/>
<path d="M270.868 123.391H260.812V130.616H270.868V123.391Z" fill="#FFF6EB"/>
<path d="M288.346 123.391H278.29V130.616H288.346V123.391Z" fill="#FFF6EB"/>
<path d="M305.755 123.391H295.699V130.616H305.755V123.391Z" fill="#FFF6EB"/>
<path d="M323.233 123.391H313.177V130.616H323.233V123.391Z" fill="#FFF6EB"/>
<path d="M340.259 123.391H330.203V130.616H340.259V123.391Z" fill="#FFF6EB"/>
<path d="M357.747 123.391H347.69V130.616H357.747V123.391Z" fill="#FFF6EB"/>
<path d="M375.225 123.391H365.168V130.616H375.225V123.391Z" fill="#FFF6EB"/>
<path d="M373.268 275.257C395.973 275.257 414.378 256.887 414.378 234.226C414.378 211.565 395.973 193.195 373.268 193.195C350.564 193.195 332.159 211.565 332.159 234.226C332.159 256.887 350.564 275.257 373.268 275.257Z" fill="black"/>
<path d="M367.38 272.425C390.084 272.425 408.49 254.055 408.49 231.394C408.49 208.733 390.084 190.363 367.38 190.363C344.676 190.363 326.271 208.733 326.271 231.394C326.271 254.055 344.676 272.425 367.38 272.425Z" fill="#FFF6EB"/>
<path d="M367.429 272.75C359.228 272.756 351.209 270.332 344.386 265.783C337.562 261.234 332.24 254.764 329.092 247.191C327.012 242.171 325.944 236.791 325.949 231.357C325.953 225.923 327.03 220.544 329.118 215.528C331.206 210.511 334.263 205.956 338.115 202.124C341.966 198.291 346.537 195.257 351.563 193.194C361.709 189.027 373.092 189.047 383.224 193.248C393.355 197.45 401.411 205.493 405.629 215.617C408.215 221.9 409.213 228.723 408.537 235.483C407.861 242.243 405.531 248.733 401.753 254.38C397.975 260.026 392.864 264.656 386.873 267.86C380.882 271.063 374.194 272.743 367.4 272.75H367.429ZM367.321 190.688C361.3 190.692 355.354 192.032 349.913 194.61C344.471 197.188 339.669 200.941 335.852 205.598C332.035 210.255 329.299 215.7 327.839 221.542C326.38 227.384 326.234 233.477 327.412 239.382C328.59 245.287 331.062 250.857 334.652 255.692C338.241 260.526 342.858 264.505 348.17 267.341C353.482 270.176 359.356 271.799 365.37 272.092C371.385 272.385 377.389 271.34 382.951 269.034C391.676 265.441 398.882 258.928 403.336 250.61C407.79 242.291 409.216 232.684 407.37 223.43C405.524 214.177 400.521 205.852 393.216 199.879C385.91 193.907 376.757 190.658 367.321 190.688Z" fill="black"/>
<path d="M366.495 249.718C366.215 250.046 365.916 250.358 365.601 250.652C362.376 249.978 359.364 248.527 356.827 246.425C354.29 244.323 352.304 241.634 351.042 238.59C350.459 237.185 350.04 235.717 349.794 234.216C351.876 232.11 354.696 230.897 357.656 230.833C360.617 230.769 363.486 231.86 365.657 233.874C367.828 235.888 369.131 238.667 369.289 241.624C369.447 244.581 368.449 247.484 366.505 249.718H366.495Z" fill="#1B5A96"/>
<path d="M356.931 254.83C353.82 254.829 350.824 253.652 348.543 251.536C346.263 249.419 344.866 246.519 344.633 243.417C344.508 241.806 344.704 240.187 345.21 238.653C345.716 237.119 346.523 235.701 347.582 234.481C347.769 234.275 347.976 234.049 348.192 233.842C350.4 231.652 353.352 230.374 356.46 230.263C359.568 230.152 362.603 231.216 364.962 233.243C366.183 234.298 367.184 235.584 367.908 237.027C368.631 238.47 369.063 240.041 369.178 241.651C369.293 243.261 369.089 244.878 368.578 246.409C368.067 247.94 367.259 249.355 366.201 250.573C365.89 250.918 365.562 251.246 365.218 251.556C362.961 253.643 360.005 254.811 356.931 254.83ZM356.931 230.884C355.395 230.879 353.873 231.178 352.452 231.764C351.032 232.349 349.741 233.209 348.654 234.295C348.454 234.488 348.263 234.691 348.084 234.904C347.078 236.059 346.312 237.402 345.827 238.855C345.343 240.308 345.15 241.842 345.261 243.369C345.371 244.897 345.783 246.387 346.471 247.755C347.16 249.123 348.112 250.341 349.273 251.34C351.442 253.22 354.227 254.235 357.097 254.194C359.967 254.152 362.721 253.056 364.834 251.114C365.16 250.804 365.469 250.476 365.758 250.131C367.227 248.442 368.178 246.365 368.497 244.149C368.815 241.933 368.488 239.673 367.554 237.638C366.621 235.603 365.12 233.881 363.232 232.678C361.344 231.475 359.15 230.842 356.911 230.854L356.931 230.884Z" fill="black"/>
<path d="M381.899 246.454C380.332 246.104 378.855 245.433 377.56 244.484C376.265 243.535 375.18 242.328 374.373 240.94C373.566 239.552 373.055 238.012 372.872 236.417C372.689 234.822 372.837 233.206 373.308 231.671C373.779 230.136 374.562 228.715 375.608 227.497C376.654 226.279 377.941 225.29 379.388 224.593C380.834 223.896 382.409 223.506 384.013 223.446C385.618 223.387 387.217 223.66 388.711 224.248C389.935 228.206 389.94 232.44 388.725 236.4C387.51 240.361 385.132 243.864 381.899 246.454Z" fill="#1B5A96"/>
<path d="M385.369 247.712C384.46 247.712 383.554 247.613 382.666 247.418C380.683 246.968 378.841 246.04 377.299 244.714C375.115 242.813 373.672 240.201 373.224 237.34C372.777 234.479 373.353 231.551 374.852 229.074C376.351 226.596 378.677 224.727 381.419 223.795C384.161 222.864 387.144 222.93 389.842 223.982C391.153 224.482 392.365 225.211 393.42 226.135C394.643 227.189 395.646 228.474 396.371 229.916C397.096 231.358 397.529 232.929 397.646 234.539C397.763 236.149 397.561 237.767 397.052 239.298C396.543 240.83 395.736 242.246 394.678 243.466C393.521 244.799 392.091 245.868 390.485 246.601C388.879 247.333 387.135 247.712 385.369 247.712ZM385.369 223.756C383.692 223.756 382.034 224.115 380.508 224.811C378.982 225.506 377.622 226.521 376.522 227.787C375.201 229.313 374.299 231.156 373.904 233.135C373.509 235.115 373.635 237.163 374.269 239.079C374.903 240.995 376.024 242.714 377.522 244.067C379.02 245.42 380.843 246.361 382.813 246.798C384.59 247.201 386.437 247.181 388.205 246.741C389.973 246.302 391.614 245.454 392.996 244.266C394.378 243.079 395.462 241.584 396.162 239.902C396.862 238.219 397.159 236.397 397.028 234.579C396.924 233.051 396.517 231.559 395.83 230.19C395.143 228.821 394.19 227.603 393.027 226.607C392.016 225.74 390.866 225.048 389.626 224.562C388.27 224.03 386.826 223.757 385.369 223.756Z" fill="black"/>
<path d="M368.54 221.761C366.591 224.005 363.831 225.384 360.865 225.596C357.9 225.808 354.972 224.835 352.723 222.891C352.189 222.436 351.702 221.929 351.269 221.377C353.071 217.874 355.875 214.986 359.323 213.079C362.771 211.173 366.708 210.335 370.634 210.672C371.301 212.54 371.459 214.552 371.091 216.501C370.723 218.449 369.842 220.265 368.54 221.761Z" fill="#1B5A96"/>
<path d="M359.899 225.703C356.948 225.72 354.09 224.673 351.849 222.754C351.269 222.249 350.736 221.693 350.256 221.092C348.512 218.905 347.563 216.19 347.563 213.393C347.564 210.596 348.514 207.881 350.259 205.695C352.004 203.508 354.44 201.979 357.167 201.357C359.895 200.736 362.752 201.059 365.272 202.274C367.792 203.489 369.825 205.524 371.037 208.045C372.249 210.566 372.569 213.424 371.945 216.151C371.321 218.878 369.789 221.312 367.601 223.054C365.412 224.797 362.697 225.745 359.899 225.742V225.703ZM352.261 222.233C354.529 224.185 357.462 225.188 360.45 225.034C363.439 224.881 366.253 223.582 368.309 221.408C370.365 219.234 371.505 216.352 371.492 213.36C371.479 210.368 370.314 207.495 368.239 205.34C366.164 203.184 363.338 201.91 360.349 201.782C357.359 201.655 354.435 202.684 352.185 204.655C349.934 206.627 348.529 209.39 348.261 212.37C347.993 215.35 348.884 218.319 350.748 220.66C351.201 221.231 351.708 221.758 352.261 222.233Z" fill="black"/>
<path d="M321.729 216.138V230.716H337.732V216.138H321.729Z" fill="#020202"/>
<path d="M330.419 232.417L330.674 232.702C333.623 236.015 336.572 236.437 341.173 238.718L351.003 221.859L356.115 194.944L354.227 189.862L350.118 190.737L342.51 204.775L334.184 213.877L330.635 215.43L330.134 218.271L331.933 221.053L334.724 221.555C335.855 224.504 336.543 225.162 336.307 226.47C336.248 227.122 335.973 227.736 335.526 228.215C335.079 228.693 334.486 229.01 333.84 229.114L331.49 229.448C331.168 229.492 330.863 229.623 330.61 229.827C330.357 230.032 330.164 230.301 330.054 230.608C329.943 230.914 329.919 231.244 329.983 231.563C330.048 231.882 330.198 232.178 330.419 232.417Z" fill="#FB9100"/>
<path d="M341.173 239.033C341.128 239.046 341.08 239.046 341.035 239.033C339.728 238.384 338.519 237.882 337.457 237.43C334.724 236.28 332.542 235.366 330.438 232.958L330.183 232.663C329.932 232.381 329.762 232.036 329.691 231.665C329.621 231.295 329.653 230.912 329.783 230.557C329.913 230.203 330.137 229.891 330.431 229.654C330.724 229.417 331.077 229.264 331.451 229.212L333.79 228.868C334.368 228.783 334.9 228.504 335.298 228.077C335.696 227.65 335.938 227.101 335.983 226.519C336.065 225.642 335.85 224.763 335.373 224.022C335.127 223.472 334.832 222.793 334.479 221.899L331.874 221.437C331.787 221.419 331.71 221.37 331.657 221.299L329.858 218.517C329.813 218.447 329.796 218.363 329.809 218.281L330.32 215.44C330.331 215.391 330.353 215.344 330.383 215.303C330.414 215.262 330.453 215.229 330.497 215.204L333.987 213.681L342.244 204.666L349.833 190.659C349.854 190.619 349.883 190.584 349.919 190.557C349.955 190.53 349.996 190.511 350.04 190.501L354.149 189.626C354.223 189.61 354.301 189.62 354.367 189.657C354.434 189.693 354.486 189.752 354.512 189.823L356.4 194.915C356.419 194.969 356.419 195.028 356.4 195.082L351.249 221.997C351.253 222.03 351.253 222.063 351.249 222.095L341.468 238.954C341.429 238.99 341.382 239.016 341.33 239.03C341.279 239.044 341.225 239.045 341.173 239.033ZM330.655 232.21L330.91 232.496C332.945 234.806 335.049 235.69 337.703 236.811C338.686 237.234 339.826 237.706 341.055 238.305L350.659 221.741L355.79 194.944L354.021 190.196L350.374 191.012L342.844 204.922L342.795 204.981L334.459 214.084L334.361 214.153L330.969 215.637L330.507 218.193L332.178 220.758L334.823 221.23C334.877 221.24 334.927 221.264 334.97 221.298C335.013 221.332 335.047 221.376 335.068 221.427C335.432 222.41 335.747 223.118 336.051 223.688C336.579 224.543 336.807 225.549 336.7 226.548C336.632 227.266 336.326 227.94 335.831 228.463C335.336 228.987 334.68 229.33 333.967 229.438L331.628 229.782C331.365 229.818 331.117 229.924 330.91 230.09C330.704 230.256 330.547 230.476 330.455 230.724C330.364 230.973 330.343 231.242 330.394 231.503C330.444 231.763 330.565 232.004 330.743 232.201L330.655 232.21Z" fill="black"/>
<path d="M354.227 189.862V191.573C354.29 196.215 353.821 200.848 352.831 205.384L352.438 207.203C350.475 216.272 347.508 225.095 343.591 233.508L341.163 238.718L343.129 241.874L349.135 244.115L353.598 237.411L355.761 225.556L354.444 223.668L354.886 221.171L356.803 219.844C358.68 209.473 360.676 198.346 360.597 198.218C360.519 198.09 358.631 191.632 358.631 191.632L356.921 190.324L354.227 189.862Z" fill="#020202"/>
<path d="M337.644 215.312C337.584 215.314 337.526 215.298 337.475 215.267C337.424 215.235 337.384 215.19 337.359 215.135L335.825 211.793C335.792 211.717 335.79 211.632 335.819 211.554C335.849 211.477 335.908 211.415 335.983 211.38C336.019 211.362 336.059 211.352 336.1 211.349C336.141 211.347 336.182 211.353 336.22 211.366C336.259 211.38 336.294 211.402 336.324 211.429C336.355 211.457 336.379 211.49 336.396 211.528L337.929 214.87C337.963 214.947 337.965 215.034 337.936 215.113C337.907 215.192 337.848 215.256 337.772 215.293C337.731 215.309 337.688 215.315 337.644 215.312Z" fill="black"/>
<path d="M339.826 213.052C339.767 213.051 339.709 213.034 339.659 213.003C339.609 212.972 339.568 212.927 339.541 212.875L338.018 209.532C337.998 209.495 337.987 209.455 337.984 209.413C337.982 209.371 337.988 209.33 338.003 209.291C338.018 209.251 338.041 209.216 338.071 209.187C338.1 209.157 338.136 209.134 338.175 209.12C338.212 209.101 338.251 209.091 338.292 209.088C338.333 209.086 338.374 209.092 338.413 209.106C338.451 209.119 338.487 209.141 338.517 209.168C338.547 209.196 338.571 209.23 338.588 209.267L340.111 212.609C340.13 212.646 340.14 212.686 340.143 212.727C340.145 212.768 340.139 212.808 340.125 212.847C340.112 212.885 340.09 212.921 340.062 212.951C340.035 212.981 340.001 213.005 339.964 213.022C339.921 213.041 339.874 213.051 339.826 213.052Z" fill="black"/>
<path d="M342.018 210.79C341.959 210.791 341.901 210.774 341.85 210.743C341.8 210.712 341.759 210.667 341.733 210.613L340.2 207.271C340.166 207.194 340.164 207.107 340.193 207.028C340.222 206.949 340.281 206.885 340.357 206.848C340.433 206.815 340.519 206.813 340.596 206.842C340.673 206.872 340.736 206.93 340.77 207.006L342.303 210.348C342.337 210.424 342.339 210.509 342.31 210.587C342.28 210.664 342.221 210.726 342.146 210.761C342.106 210.78 342.063 210.79 342.018 210.79Z" fill="black"/>
<path d="M310.503 270.184L319.881 258.998L332.149 269.241L322.781 280.427L310.503 270.184Z" fill="#020202"/>
<path d="M314.504 269.191L314.268 269.486C311.515 272.946 311.623 275.935 310.178 280.87L328.531 287.525L355.977 287.869L360.666 285.116L359.074 281.184L343.896 276.171L333.466 269.653L331.313 266.439H328.413L325.985 268.67V271.492C323.243 273.133 322.741 273.91 321.375 273.91C320.722 273.966 320.069 273.803 319.519 273.447C318.969 273.091 318.553 272.562 318.337 271.944L317.59 269.703C317.486 269.4 317.301 269.131 317.056 268.924C316.812 268.717 316.515 268.58 316.199 268.528C315.883 268.476 315.559 268.51 315.26 268.626C314.962 268.743 314.7 268.938 314.504 269.191Z" fill="#FB9100"/>
<path d="M355.977 288.183L328.531 287.839H328.433L310.07 281.164C309.996 281.136 309.936 281.081 309.899 281.01C309.863 280.939 309.854 280.858 309.874 280.781C310.287 279.375 310.582 278.107 310.857 276.977C311.515 274.097 312.036 271.816 314.032 269.29L314.278 268.995C314.508 268.704 314.812 268.48 315.157 268.346C315.503 268.211 315.877 268.17 316.244 268.228C316.632 268.281 316.997 268.443 317.296 268.695C317.595 268.948 317.817 269.28 317.935 269.653L318.682 271.895C318.868 272.448 319.237 272.922 319.728 273.238C320.22 273.554 320.804 273.694 321.385 273.635C322.258 273.574 323.087 273.229 323.744 272.651C324.245 272.317 324.855 271.895 325.71 271.403V268.67C325.711 268.582 325.747 268.497 325.808 268.434L328.237 266.173C328.265 266.145 328.299 266.123 328.336 266.108C328.373 266.092 328.413 266.085 328.453 266.085H331.353C331.404 266.087 331.454 266.101 331.499 266.127C331.543 266.153 331.581 266.189 331.608 266.232L333.722 269.378L344.073 275.915L359.211 280.909C359.255 280.924 359.296 280.949 359.329 280.981C359.363 281.014 359.39 281.052 359.408 281.096L360.991 284.978C361.018 285.047 361.02 285.123 360.996 285.193C360.973 285.264 360.926 285.323 360.863 285.362L356.174 288.114C356.118 288.158 356.048 288.182 355.977 288.183ZM328.581 287.2L355.889 287.534L360.263 284.969L358.838 281.449L343.798 276.534H343.729L333.299 269.948C333.262 269.924 333.229 269.894 333.201 269.86L331.146 266.704H328.541L326.3 268.798V271.482C326.301 271.536 326.287 271.59 326.259 271.637C326.231 271.683 326.191 271.722 326.143 271.747C325.258 272.278 324.609 272.73 324.088 273.074C323.337 273.747 322.381 274.148 321.375 274.215C320.659 274.273 319.943 274.091 319.341 273.698C318.74 273.305 318.286 272.722 318.052 272.042L317.296 269.801C317.219 269.547 317.072 269.32 316.872 269.146C316.672 268.972 316.427 268.858 316.165 268.818C315.905 268.768 315.635 268.791 315.387 268.884C315.139 268.978 314.922 269.139 314.759 269.349L314.523 269.643C312.607 272.062 312.095 274.273 311.456 277.085C311.221 278.137 310.945 279.326 310.572 280.634L328.581 287.2Z" fill="black"/>
<path d="M360.666 285.116L358.975 285.441C354.407 286.316 349.753 286.669 345.105 286.492L340.996 286.335C333.206 286.048 325.472 284.901 317.935 282.914L310.188 280.87L307.416 283.416L306.256 289.707L313.649 292.921L325.73 292.971L327.362 291.339H329.888L331.539 292.99L353.529 292.921L359.673 289.805L360.656 287.898L360.666 285.116Z" fill="#020202"/>
<path d="M332.945 273.585C332.894 273.585 332.845 273.573 332.8 273.549C332.755 273.525 332.717 273.49 332.69 273.448C332.644 273.38 332.626 273.296 332.641 273.215C332.656 273.135 332.701 273.063 332.768 273.015L335.796 270.921C335.866 270.875 335.95 270.857 336.033 270.872C336.115 270.886 336.189 270.932 336.238 271C336.262 271.035 336.279 271.074 336.287 271.115C336.296 271.156 336.296 271.199 336.287 271.24C336.279 271.281 336.263 271.32 336.239 271.355C336.216 271.39 336.185 271.42 336.15 271.442L333.132 273.526C333.077 273.565 333.012 273.585 332.945 273.585Z" fill="black"/>
<path d="M335.56 275.296C335.51 275.298 335.46 275.288 335.416 275.265C335.371 275.243 335.333 275.209 335.304 275.168C335.258 275.099 335.24 275.014 335.255 274.931C335.269 274.849 335.315 274.775 335.383 274.726L338.411 272.642C338.445 272.618 338.483 272.6 338.524 272.591C338.565 272.582 338.607 272.581 338.648 272.588C338.69 272.596 338.729 272.611 338.764 272.634C338.799 272.657 338.83 272.686 338.853 272.721C338.877 272.754 338.893 272.793 338.901 272.833C338.91 272.874 338.91 272.915 338.902 272.956C338.893 272.996 338.877 273.035 338.853 273.069C338.83 273.102 338.8 273.131 338.765 273.153L335.747 275.247C335.691 275.283 335.626 275.3 335.56 275.296Z" fill="black"/>
<path d="M338.175 277.055C338.124 277.055 338.074 277.043 338.03 277.019C337.985 276.995 337.947 276.96 337.919 276.918C337.873 276.848 337.855 276.763 337.87 276.681C337.884 276.598 337.93 276.525 337.998 276.475L341.025 274.391C341.06 274.368 341.098 274.352 341.139 274.343C341.179 274.335 341.221 274.335 341.262 274.342C341.302 274.35 341.341 274.366 341.375 274.389C341.41 274.411 341.44 274.441 341.463 274.475C341.486 274.509 341.502 274.548 341.511 274.588C341.519 274.629 341.52 274.67 341.512 274.711C341.504 274.752 341.488 274.79 341.466 274.825C341.443 274.859 341.414 274.889 341.379 274.912L338.362 276.996C338.307 277.035 338.242 277.055 338.175 277.055Z" fill="black"/>
<path d="M323.548 254.908L280.295 220.119L242.941 257.405H224.922V289.313H229.65C236.86 289.315 243.775 286.454 248.878 281.361L280.472 249.855L308.891 272.701L323.548 254.908Z" fill="#1B5A96"/>
<path d="M280.472 250.18C280.4 250.181 280.331 250.156 280.275 250.111L275.046 245.914C274.988 245.855 274.955 245.775 274.955 245.692C274.955 245.61 274.988 245.53 275.046 245.471C275.099 245.408 275.175 245.368 275.257 245.359C275.339 245.35 275.422 245.372 275.488 245.422L280.708 249.62C280.759 249.66 280.796 249.716 280.814 249.779C280.832 249.841 280.83 249.908 280.808 249.97C280.787 250.031 280.747 250.084 280.693 250.122C280.64 250.16 280.577 250.18 280.511 250.18H280.472Z" fill="black"/>
<path d="M324.059 212.934L264.537 213.012C260.206 213.019 256.053 214.74 252.987 217.8L225.531 245.196H215.259V262.979H230.643C235.064 262.981 239.305 261.231 242.439 258.113L263.653 236.939C264.592 236.002 265.706 235.259 266.932 234.753C268.159 234.247 269.473 233.988 270.799 233.99H324.078L324.059 212.934Z" fill="#1B5A96"/>
<g opacity="0.2" style="mix-blend-mode:multiply">
<path d="M270.347 213.002H264.537C260.206 213.009 256.053 214.73 252.987 217.79L250.107 220.66C253.701 221.51 257.467 221.263 260.92 219.952C265.275 218.439 268.666 215.804 270.347 213.002Z" fill="#2E344D"/>
</g>
<path d="M230.554 263.264H229.935C229.852 263.264 229.772 263.231 229.713 263.172C229.654 263.113 229.621 263.033 229.621 262.949C229.621 262.866 229.654 262.786 229.713 262.727C229.772 262.668 229.852 262.635 229.935 262.635H230.554C232.736 262.643 234.898 262.218 236.915 261.385C238.931 260.551 240.762 259.325 242.301 257.779L263.407 236.723C264.374 235.75 265.524 234.978 266.791 234.454C268.059 233.929 269.418 233.661 270.789 233.665H323.744V213.248L264.537 213.327C262.432 213.324 260.346 213.738 258.401 214.545C256.456 215.351 254.689 216.534 253.203 218.026L243.226 228.023C243.165 228.079 243.086 228.11 243.004 228.11C242.922 228.11 242.843 228.079 242.783 228.023C242.753 227.994 242.729 227.96 242.713 227.922C242.696 227.884 242.688 227.843 242.688 227.802C242.688 227.76 242.696 227.719 242.713 227.681C242.729 227.643 242.753 227.609 242.783 227.581L252.761 217.554C254.306 215.997 256.143 214.762 258.168 213.918C260.192 213.075 262.364 212.64 264.557 212.639L324.078 212.56C324.162 212.559 324.243 212.591 324.305 212.649C324.333 212.678 324.356 212.714 324.371 212.753C324.387 212.792 324.394 212.833 324.393 212.875V233.921C324.393 234.004 324.36 234.084 324.301 234.143C324.242 234.202 324.162 234.236 324.078 234.236H270.75C269.463 234.254 268.193 234.527 267.012 235.038C265.831 235.55 264.763 236.289 263.869 237.214L242.773 258.27C241.167 259.868 239.261 261.132 237.163 261.989C235.066 262.847 232.82 263.28 230.554 263.264Z" fill="black"/>
<path d="M185.65 217.455C190.678 217.455 194.753 213.472 194.753 208.559C194.753 203.646 190.678 199.663 185.65 199.663C180.623 199.663 176.548 203.646 176.548 208.559C176.548 213.472 180.623 217.455 185.65 217.455Z" fill="#06000C"/>
<path d="M188.216 216.148H181.188V224.975H188.216V216.148Z" fill="#FFCFC5"/>
<path d="M181.187 218.812V216.158H188.177V222.056C186.817 222.333 185.405 222.171 184.143 221.593C182.882 221.015 181.836 220.052 181.158 218.841L181.187 218.812Z" fill="black"/>
<path d="M185.65 220.316C188.772 220.316 191.303 217.526 191.303 214.084C191.303 210.642 188.772 207.852 185.65 207.852C182.529 207.852 179.998 210.642 179.998 214.084C179.998 217.526 182.529 220.316 185.65 220.316Z" fill="#FFCFC5"/>
<path d="M183.262 216.787C183.712 217.202 184.262 217.494 184.859 217.634C185.455 217.773 186.077 217.756 186.665 217.584C187.253 217.412 187.786 217.09 188.213 216.651C188.64 216.212 188.946 215.669 189.101 215.077L183.262 216.787Z" fill="white"/>
<path d="M227.006 243.722L225.541 245.196H215.259L224.922 289.334H229.65C233.326 289.33 236.964 288.584 240.345 287.141L227.006 243.722Z" fill="#020202"/>
<path d="M233.562 204.873L236.512 190.275C236.352 189.347 236.458 188.393 236.818 187.523C237.178 186.653 237.778 185.903 238.546 185.36C239.176 184.878 240.512 184.013 241.712 183.296C243.038 182.475 244.251 181.483 245.319 180.347L246.538 179.039C246.837 178.727 247.243 178.541 247.675 178.519C248.106 178.497 248.53 178.641 248.858 178.921L248.996 179.049C249.327 179.335 249.533 179.738 249.569 180.174C249.606 180.609 249.471 181.042 249.192 181.379L245.467 185.891L248.121 186.874C249.478 187.404 250.955 187.543 252.387 187.277L258.197 186.294C258.663 186.217 259.141 186.312 259.544 186.559C259.946 186.806 260.246 187.19 260.389 187.641L260.438 187.808L263.505 186.982C263.933 186.899 264.375 186.979 264.747 187.205C265.119 187.432 265.393 187.788 265.516 188.206C265.639 188.624 265.602 189.072 265.412 189.464C265.222 189.856 264.892 190.162 264.488 190.324L245.673 197.097L243.707 206.78L233.562 204.873Z" fill="#FFCFC5"/>
<path d="M248.583 186.628H285.888L303.435 156.577H266.13L248.583 186.628Z" fill="black"/>
<path d="M285.888 186.628H218.817V190.422H285.888V186.628Z" fill="black"/>
<path d="M278.788 172.615C279.181 171.18 278.396 169.715 277.035 169.342C275.673 168.969 274.251 169.829 273.858 171.264C273.465 172.699 274.25 174.164 275.611 174.537C276.973 174.91 278.395 174.049 278.788 172.615Z" fill="white"/>
<path d="M243.717 207.212H243.648L233.503 205.197C233.42 205.18 233.346 205.13 233.297 205.06C233.256 204.988 233.238 204.906 233.248 204.824L236.197 190.285C236.03 189.312 236.14 188.311 236.514 187.397C236.887 186.483 237.51 185.692 238.31 185.114C238.831 184.721 239.903 184.023 241.495 183.04C242.796 182.239 243.986 181.271 245.034 180.16L246.263 178.853C246.612 178.473 247.096 178.246 247.611 178.221C248.126 178.195 248.63 178.372 249.015 178.715L249.153 178.843C249.549 179.179 249.797 179.658 249.841 180.175C249.885 180.693 249.723 181.207 249.389 181.605L245.939 185.783L248.18 186.658C249.485 187.158 250.904 187.288 252.279 187.031L258.098 186.048C258.617 185.96 259.149 186.055 259.605 186.317C260.061 186.579 260.411 186.991 260.595 187.483L263.377 186.736C263.878 186.643 264.396 186.738 264.831 187.003C265.266 187.268 265.587 187.684 265.734 188.172C265.88 188.66 265.841 189.185 265.624 189.646C265.406 190.107 265.026 190.471 264.557 190.668L245.88 197.382L243.982 206.888C243.988 206.966 243.964 207.043 243.914 207.103C243.865 207.163 243.794 207.203 243.717 207.212ZM233.936 204.627L243.461 206.524L245.339 197.146C245.35 197.092 245.374 197.042 245.411 197.001C245.447 196.959 245.493 196.928 245.545 196.91L264.36 190.147C264.697 190.017 264.972 189.765 265.132 189.441C265.291 189.117 265.322 188.745 265.219 188.399C265.116 188.053 264.887 187.759 264.576 187.574C264.266 187.39 263.897 187.33 263.544 187.405L260.497 188.23C260.418 188.252 260.333 188.241 260.261 188.201C260.19 188.16 260.137 188.093 260.114 188.014L260.064 187.857C259.943 187.479 259.689 187.156 259.35 186.949C259.011 186.742 258.609 186.663 258.216 186.726L252.407 187.709C250.92 187.992 249.383 187.849 247.973 187.297L245.319 186.314C245.273 186.295 245.232 186.265 245.2 186.228C245.167 186.19 245.144 186.146 245.132 186.097C245.119 186.05 245.118 186 245.128 185.952C245.139 185.905 245.16 185.86 245.191 185.822L248.927 181.3C249.151 181.026 249.259 180.675 249.227 180.323C249.196 179.97 249.028 179.643 248.76 179.413L248.622 179.285C248.355 179.057 248.01 178.941 247.659 178.959C247.308 178.977 246.977 179.129 246.735 179.383L245.516 180.681C244.43 181.836 243.197 182.844 241.849 183.679C240.286 184.662 239.205 185.34 238.704 185.714C237.98 186.212 237.412 186.905 237.064 187.711C236.716 188.518 236.603 189.407 236.738 190.275C236.747 190.317 236.747 190.361 236.738 190.403L233.936 204.627Z" fill="black"/>
<path d="M244.346 187.562C244.274 187.559 244.204 187.532 244.15 187.483C244.12 187.455 244.096 187.421 244.079 187.383C244.063 187.345 244.054 187.304 244.054 187.262C244.054 187.221 244.063 187.18 244.079 187.142C244.096 187.104 244.12 187.07 244.15 187.041L245.29 185.684C245.318 185.654 245.353 185.631 245.391 185.614C245.429 185.598 245.47 185.589 245.511 185.589C245.552 185.589 245.593 185.598 245.631 185.614C245.669 185.631 245.704 185.654 245.732 185.684C245.79 185.743 245.823 185.823 245.823 185.906C245.823 185.988 245.79 186.068 245.732 186.127L244.592 187.483C244.559 187.513 244.52 187.535 244.477 187.549C244.435 187.563 244.39 187.567 244.346 187.562Z" fill="black"/>
<path d="M251.473 189.43L253.124 189.026C254.175 188.77 255.128 188.213 255.867 187.424L259.937 183.148C260.219 182.851 260.605 182.675 261.015 182.659C261.424 182.642 261.824 182.786 262.129 183.06C262.418 183.323 262.597 183.687 262.63 184.077C262.662 184.467 262.547 184.855 262.306 185.163L258.266 190.403C257.935 190.826 257.524 191.18 257.056 191.445L254.55 192.86L251.473 189.43Z" fill="#FFCFC5"/>
<path d="M257.037 191.73C256.981 191.729 256.927 191.715 256.879 191.687C256.831 191.66 256.79 191.62 256.762 191.573C256.723 191.498 256.714 191.411 256.738 191.33C256.762 191.25 256.816 191.182 256.889 191.14C257.319 190.89 257.693 190.555 257.99 190.157L262.04 184.918C262.24 184.666 262.334 184.346 262.302 184.027C262.271 183.707 262.116 183.412 261.871 183.204C261.627 182.996 261.31 182.891 260.99 182.912C260.669 182.933 260.369 183.077 260.153 183.315L257.057 186.638C256.996 186.697 256.915 186.73 256.83 186.73C256.746 186.73 256.665 186.697 256.604 186.638C256.546 186.579 256.513 186.499 256.513 186.417C256.513 186.334 256.546 186.254 256.604 186.196L259.701 182.873C260.021 182.495 260.479 182.26 260.973 182.219C261.467 182.179 261.957 182.336 262.335 182.657C262.713 182.977 262.948 183.435 262.989 183.929C263.03 184.423 262.872 184.913 262.552 185.291L258.502 190.54C258.146 190.995 257.705 191.375 257.204 191.661C257.154 191.696 257.097 191.72 257.037 191.73Z" fill="black"/>
<path d="M247.403 191.346L248.966 190.678C249.959 190.25 250.806 189.543 251.404 188.643L254.687 183.728C254.907 183.393 255.248 183.156 255.639 183.066C256.029 182.976 256.439 183.041 256.783 183.246C257.127 183.452 257.379 183.783 257.484 184.169C257.59 184.556 257.543 184.968 257.351 185.321L254.225 191.16C253.984 191.631 253.65 192.049 253.242 192.388L251.001 194.197L247.403 191.346Z" fill="#FFCFC5"/>
<path d="M252.407 193.715C252.313 193.709 252.225 193.667 252.161 193.597C252.105 193.537 252.074 193.458 252.074 193.376C252.074 193.294 252.105 193.215 252.161 193.155C253.116 192.394 253.895 191.435 254.442 190.344L257.027 185.183C257.162 184.902 257.188 184.581 257.099 184.283C257.009 183.984 256.811 183.73 256.544 183.57C256.277 183.41 255.959 183.355 255.654 183.417C255.349 183.479 255.078 183.653 254.894 183.905L251.611 188.82C251.011 189.776 250.147 190.537 249.124 191.012L245.801 192.152C245.761 192.173 245.716 192.185 245.671 192.187C245.626 192.189 245.58 192.181 245.538 192.164C245.496 192.147 245.459 192.121 245.428 192.088C245.397 192.055 245.373 192.015 245.359 191.972C245.344 191.929 245.339 191.883 245.344 191.838C245.349 191.793 245.364 191.75 245.387 191.711C245.411 191.672 245.442 191.639 245.48 191.613C245.517 191.587 245.56 191.57 245.604 191.563L248.898 190.432C249.822 190.024 250.613 189.363 251.178 188.525L254.461 183.61C254.722 183.184 255.141 182.878 255.627 182.761C256.113 182.644 256.625 182.725 257.052 182.986C257.478 183.246 257.783 183.666 257.9 184.152C258.017 184.637 257.937 185.15 257.676 185.576L255.022 190.629C254.433 191.799 253.598 192.829 252.574 193.647C252.525 193.683 252.468 193.707 252.407 193.715Z" fill="black"/>
<path d="M225.531 245.147H224.597C221.904 245.149 219.319 244.09 217.402 242.198L199.973 224.907H169.499C165.747 224.904 162.147 226.392 159.491 229.042C156.834 231.693 155.339 235.29 155.334 239.042V240.576L191.853 277.085C199.864 285.084 210.721 289.578 222.042 289.579H235.214L225.531 245.147Z" fill="#FB9100"/>
<path d="M187.115 272.681C187.072 272.682 187.03 272.674 186.991 272.657C186.952 272.64 186.917 272.614 186.889 272.583L167.583 253.286C167.534 253.226 167.509 253.149 167.513 253.072C167.517 252.994 167.55 252.921 167.605 252.866C167.66 252.811 167.733 252.778 167.811 252.774C167.888 252.77 167.964 252.795 168.025 252.844L187.331 272.14C187.361 272.169 187.385 272.203 187.402 272.241C187.418 272.279 187.426 272.32 187.426 272.361C187.426 272.403 187.418 272.444 187.402 272.482C187.385 272.52 187.361 272.554 187.331 272.583C187.305 272.614 187.272 272.639 187.234 272.656C187.197 272.673 187.156 272.682 187.115 272.681Z" fill="black"/>
<path d="M248.141 201.884L231.085 198.503L225.826 224.907H193.839V241.5H227.645C231.188 241.503 234.623 240.276 237.364 238.03C240.104 235.784 241.981 232.658 242.675 229.183L248.141 201.884Z" fill="#FB9100"/>
<path d="M216.684 241.815C216.643 241.815 216.602 241.806 216.564 241.791C216.526 241.775 216.491 241.752 216.462 241.722C216.432 241.693 216.409 241.659 216.393 241.62C216.378 241.582 216.37 241.541 216.37 241.5C216.37 241.459 216.378 241.418 216.393 241.38C216.409 241.341 216.432 241.307 216.462 241.278C216.491 241.248 216.526 241.225 216.564 241.209C216.602 241.194 216.643 241.185 216.684 241.185H227.655C231.126 241.184 234.491 239.983 237.178 237.785C239.866 235.586 241.71 232.527 242.4 229.124L247.787 202.13L231.321 198.877L226.121 224.966C226.107 225.037 226.07 225.101 226.014 225.148C225.959 225.194 225.889 225.22 225.816 225.221H193.377C193.293 225.221 193.213 225.188 193.154 225.129C193.095 225.07 193.062 224.99 193.062 224.907C193.062 224.823 193.095 224.743 193.154 224.684C193.213 224.625 193.293 224.592 193.377 224.592H225.541L230.741 198.444C230.749 198.403 230.766 198.364 230.789 198.33C230.812 198.296 230.842 198.266 230.877 198.243C230.911 198.22 230.95 198.205 230.991 198.197C231.032 198.189 231.074 198.19 231.115 198.198L248.17 201.57C248.25 201.591 248.32 201.64 248.367 201.708C248.391 201.741 248.408 201.78 248.416 201.82C248.425 201.861 248.425 201.903 248.416 201.944L242.97 229.242C242.245 232.781 240.324 235.963 237.53 238.252C234.735 240.542 231.238 241.8 227.625 241.815H216.684Z" fill="black"/>
<path d="M224.883 229.94H224.814C224.733 229.923 224.663 229.876 224.617 229.808C224.571 229.74 224.553 229.657 224.568 229.576L225.551 224.838C225.559 224.797 225.575 224.759 225.599 224.724C225.622 224.69 225.652 224.66 225.686 224.637C225.721 224.614 225.76 224.599 225.801 224.591C225.842 224.583 225.884 224.584 225.925 224.592C225.965 224.6 226.004 224.617 226.038 224.64C226.073 224.663 226.102 224.693 226.125 224.728C226.148 224.763 226.164 224.801 226.172 224.842C226.179 224.883 226.179 224.925 226.17 224.966L225.187 229.694C225.17 229.763 225.131 229.824 225.076 229.868C225.021 229.913 224.953 229.938 224.883 229.94Z" fill="black"/>
<path d="M225.531 245.462H224.597C223.222 245.465 221.859 245.197 220.587 244.672C219.315 244.147 218.159 243.377 217.185 242.404L210.875 236.152C210.83 236.09 210.81 236.014 210.816 235.938C210.823 235.861 210.856 235.79 210.91 235.736C210.964 235.682 211.036 235.648 211.112 235.642C211.188 235.635 211.264 235.656 211.327 235.7L217.628 241.952C218.543 242.867 219.629 243.593 220.825 244.087C222.021 244.581 223.303 244.835 224.597 244.832H225.531C225.615 244.832 225.695 244.866 225.754 244.925C225.813 244.984 225.846 245.064 225.846 245.147C225.843 245.23 225.809 245.308 225.751 245.367C225.693 245.425 225.614 245.459 225.531 245.462Z" fill="black"/>
<path d="M223.949 274.568H205.37V289.736H223.949V274.568Z" fill="#FFCFC5"/>
<path d="M240.63 279.287L242.282 281.066C242.686 281.5 242.926 282.061 242.962 282.653C242.998 283.244 242.827 283.83 242.478 284.31L240.866 286.561L236.934 282.187H212.28V277.036H235.479C236.447 277.036 237.404 277.236 238.29 277.623C239.177 278.01 239.973 278.577 240.63 279.287Z" fill="#FFCFC5"/>
<path d="M239.873 276.073L240.807 277.056C241.212 277.491 241.453 278.054 241.489 278.647C241.525 279.241 241.353 279.828 241.004 280.309L239.382 282.551L235.45 278.186H212.28V274.598H216.212C217.844 274.598 220.744 273.035 224.42 273.035H232.953C234.254 273.037 235.54 273.308 236.731 273.831C237.922 274.354 238.992 275.117 239.873 276.073Z" fill="#FFCFC5"/>
<path d="M241.26 282.747L243.226 284.88C243.628 285.316 243.869 285.878 243.906 286.47C243.944 287.063 243.776 287.65 243.432 288.134L241.81 290.375L237.878 286.001H222.582V280.85H236.885C237.706 280.844 238.519 281.01 239.273 281.337C240.026 281.663 240.703 282.144 241.26 282.747Z" fill="#FFCFC5"/>
<path d="M240.483 286.492L242.547 288.724C242.776 288.95 242.955 289.22 243.076 289.518C243.196 289.816 243.255 290.136 243.248 290.457C243.241 290.778 243.169 291.095 243.036 291.387C242.903 291.68 242.712 291.942 242.474 292.158C242.236 292.375 241.957 292.54 241.653 292.645C241.35 292.75 241.028 292.792 240.707 292.769C240.387 292.746 240.074 292.657 239.789 292.51C239.504 292.362 239.252 292.157 239.048 291.909L237.927 290.66C237.668 290.357 237.347 290.112 236.986 289.943C236.625 289.773 236.232 289.683 235.833 289.677H223.054C219.692 289.677 217.333 289.491 214.099 284.526H236.118C236.942 284.537 237.754 284.718 238.505 285.056C239.256 285.394 239.929 285.883 240.483 286.492Z" fill="#FFCFC5"/>
<path d="M211.14 274.568H205.37V289.736H213.194L211.14 274.568Z" fill="#020202"/>
<path d="M242.547 284.507C242.491 284.504 242.437 284.487 242.39 284.458C242.319 284.416 242.267 284.349 242.245 284.27C242.223 284.191 242.233 284.107 242.272 284.035C242.494 283.588 242.587 283.089 242.542 282.593C242.497 282.097 242.315 281.622 242.016 281.223C241.562 280.596 241.03 280.028 240.434 279.533C239.1 278.254 237.362 277.482 235.519 277.35H230.938C230.854 277.35 230.774 277.317 230.715 277.258C230.656 277.199 230.623 277.119 230.623 277.036C230.623 276.952 230.656 276.872 230.715 276.813C230.774 276.754 230.854 276.721 230.938 276.721H235.479C237.481 276.834 239.377 277.656 240.827 279.041C241.482 279.579 242.061 280.204 242.547 280.899C242.911 281.391 243.13 281.975 243.178 282.585C243.227 283.195 243.104 283.806 242.822 284.349C242.794 284.397 242.754 284.436 242.705 284.464C242.657 284.491 242.603 284.506 242.547 284.507Z" fill="black"/>
<path d="M242.754 289.314C242.69 289.314 242.628 289.293 242.577 289.255C242.542 289.231 242.513 289.201 242.49 289.166C242.467 289.13 242.452 289.091 242.444 289.05C242.437 289.009 242.438 288.967 242.447 288.926C242.456 288.885 242.474 288.846 242.498 288.812L243.137 287.937C243.438 287.514 243.585 287 243.553 286.481C243.521 285.962 243.311 285.47 242.96 285.087L240.994 282.953C240.47 282.387 239.834 281.934 239.127 281.625C238.42 281.315 237.657 281.155 236.885 281.155H230.918C230.835 281.155 230.755 281.121 230.696 281.062C230.637 281.003 230.604 280.923 230.604 280.84C230.604 280.757 230.637 280.677 230.696 280.618C230.755 280.559 230.835 280.525 230.918 280.525H236.885C237.741 280.522 238.588 280.695 239.375 281.033C240.161 281.372 240.87 281.868 241.456 282.491L243.422 284.625C243.864 285.119 244.127 285.747 244.168 286.409C244.209 287.071 244.026 287.727 243.648 288.272L243.009 289.146C242.985 289.194 242.949 289.235 242.904 289.264C242.859 289.294 242.807 289.311 242.754 289.314Z" fill="black"/>
<path d="M240.807 293.01C240.436 293.004 240.069 292.921 239.731 292.767C239.393 292.613 239.09 292.391 238.841 292.115L237.721 290.867C237.487 290.604 237.201 290.394 236.881 290.25C236.561 290.106 236.214 290.031 235.863 290.031H221.599C220.334 290.032 219.087 289.724 217.968 289.133C216.849 288.542 215.892 287.686 215.18 286.64C215.156 286.605 215.14 286.566 215.131 286.525C215.123 286.484 215.123 286.441 215.131 286.4C215.139 286.359 215.156 286.319 215.179 286.285C215.203 286.25 215.233 286.22 215.269 286.197C215.302 286.174 215.341 286.157 215.381 286.149C215.422 286.141 215.463 286.141 215.504 286.149C215.544 286.157 215.583 286.174 215.616 286.197C215.65 286.221 215.679 286.251 215.701 286.286C216.355 287.248 217.234 288.034 218.262 288.578C219.291 289.121 220.436 289.404 221.599 289.402H235.794C236.233 289.403 236.668 289.497 237.069 289.676C237.47 289.856 237.83 290.117 238.124 290.444L239.244 291.692C239.419 291.914 239.637 292.097 239.885 292.231C240.133 292.364 240.406 292.446 240.687 292.469C240.967 292.493 241.25 292.458 241.517 292.368C241.784 292.278 242.03 292.134 242.238 291.944C242.447 291.755 242.615 291.525 242.731 291.268C242.847 291.011 242.909 290.733 242.913 290.452C242.917 290.17 242.863 289.89 242.755 289.63C242.646 289.37 242.485 289.135 242.282 288.94L240.217 286.709C239.682 286.133 239.034 285.674 238.313 285.36C237.593 285.045 236.816 284.882 236.03 284.88H231.066C230.982 284.88 230.902 284.847 230.843 284.788C230.784 284.729 230.751 284.649 230.751 284.566C230.751 284.482 230.784 284.402 230.843 284.343C230.902 284.284 230.982 284.251 231.066 284.251H236.03C236.903 284.254 237.766 284.436 238.566 284.786C239.365 285.136 240.085 285.647 240.679 286.286L242.744 288.507C243.087 288.882 243.317 289.346 243.407 289.846C243.496 290.346 243.442 290.862 243.251 291.332C243.059 291.803 242.738 292.209 242.325 292.504C241.911 292.8 241.423 292.971 240.915 293L240.807 293.01Z" fill="black"/>
<path d="M226.514 290.061H205.37C205.286 290.061 205.206 290.028 205.147 289.969C205.088 289.91 205.055 289.83 205.055 289.746V274.569C205.055 274.485 205.088 274.405 205.147 274.346C205.206 274.287 205.286 274.254 205.37 274.254H215.475C216.771 274.217 218.056 273.995 219.289 273.596C221.137 273.029 223.058 272.738 224.991 272.73H232.953C234.295 272.731 235.621 273.008 236.851 273.544C238.081 274.08 239.186 274.864 240.1 275.847L241.083 276.83C241.478 277.233 241.741 277.748 241.836 278.305C241.931 278.862 241.853 279.434 241.613 279.946C241.577 280.022 241.513 280.081 241.434 280.11C241.355 280.139 241.268 280.137 241.191 280.103C241.153 280.085 241.119 280.06 241.092 280.029C241.064 279.998 241.042 279.962 241.029 279.923C241.015 279.883 241.009 279.842 241.012 279.8C241.014 279.758 241.025 279.718 241.043 279.68C241.228 279.281 241.287 278.834 241.212 278.4C241.136 277.966 240.93 277.566 240.621 277.252L239.697 276.269C238.843 275.344 237.808 274.605 236.657 274.098C235.505 273.59 234.261 273.326 233.002 273.32H225.04C223.163 273.325 221.298 273.61 219.505 274.166C218.233 274.576 216.91 274.805 215.573 274.844H205.743V289.383H226.514C226.598 289.383 226.678 289.416 226.737 289.475C226.796 289.534 226.829 289.614 226.829 289.697C226.836 289.743 226.833 289.789 226.821 289.833C226.808 289.877 226.786 289.918 226.756 289.952C226.726 289.987 226.689 290.015 226.647 290.033C226.606 290.052 226.56 290.062 226.514 290.061Z" fill="black"/>
<path d="M194.438 224.848H175.24C176.332 226.376 177.772 227.621 179.442 228.48C181.111 229.339 182.962 229.788 184.839 229.788C186.717 229.788 188.568 229.339 190.237 228.48C191.907 227.621 193.347 226.376 194.438 224.848Z" fill="#FFCFC5"/>
<path d="M194.891 225.221L188.334 225.162C188.251 225.162 188.171 225.129 188.112 225.07C188.053 225.011 188.02 224.931 188.02 224.848C188.02 224.764 188.053 224.684 188.112 224.625C188.171 224.566 188.251 224.533 188.334 224.533L194.881 224.592C194.964 224.592 195.044 224.625 195.103 224.684C195.162 224.743 195.196 224.823 195.196 224.907C195.193 224.988 195.161 225.065 195.104 225.123C195.048 225.181 194.972 225.216 194.891 225.221Z" fill="black"/>
<path d="M176.056 272.357L175.24 224.985L169.48 224.907C165.727 224.904 162.127 226.392 159.471 229.042C156.815 231.693 155.32 235.29 155.314 239.042V273.733C155.316 276.006 155.765 278.256 156.636 280.355C157.507 282.455 158.784 284.362 160.392 285.967C162.001 287.573 163.91 288.846 166.011 289.714C168.111 290.582 170.362 291.027 172.635 291.024H208.82V272.347L176.056 272.357Z" fill="#FB9100"/>
<path d="M155.383 275.325C155.778 279.627 157.767 283.625 160.959 286.535C164.151 289.445 168.316 291.057 172.635 291.053H173.736C171.921 287.312 169.354 283.985 166.197 281.279C163.039 278.573 159.358 276.546 155.383 275.325Z" fill="#C66A05"/>
<path d="M208.82 291.338H172.635C167.963 291.338 163.482 289.484 160.176 286.184C156.869 282.883 155.008 278.405 155 273.733V239.042C155.008 235.204 156.54 231.525 159.258 228.815C161.977 226.106 165.661 224.587 169.499 224.592H181.089C181.173 224.592 181.253 224.625 181.312 224.684C181.371 224.743 181.404 224.823 181.404 224.906C181.404 224.99 181.371 225.07 181.312 225.129C181.253 225.188 181.173 225.221 181.089 225.221H169.499C165.831 225.221 162.313 226.676 159.716 229.267C157.119 231.858 155.657 235.374 155.649 239.042V273.733C155.659 278.237 157.455 282.554 160.643 285.736C163.831 288.918 168.151 290.707 172.655 290.709H208.564V272.671H176.056C175.973 272.671 175.893 272.638 175.834 272.579C175.775 272.52 175.742 272.44 175.742 272.356V261.474C175.744 261.392 175.778 261.313 175.836 261.255C175.895 261.196 175.974 261.162 176.056 261.16C176.14 261.16 176.22 261.193 176.279 261.252C176.338 261.311 176.371 261.391 176.371 261.474V272.042H208.81C208.893 272.044 208.971 272.078 209.03 272.137C209.088 272.195 209.122 272.274 209.125 272.356V291.034C209.122 291.114 209.089 291.19 209.033 291.246C208.976 291.303 208.9 291.336 208.82 291.338Z" fill="black"/>
<path d="M176.164 272.671H170.079C169.996 272.671 169.916 272.638 169.857 272.579C169.798 272.52 169.765 272.44 169.765 272.357C169.765 272.273 169.798 272.193 169.857 272.134C169.916 272.075 169.996 272.042 170.079 272.042H176.164C176.248 272.042 176.328 272.075 176.387 272.134C176.446 272.193 176.479 272.273 176.479 272.357C176.479 272.44 176.446 272.52 176.387 272.579C176.328 272.638 176.248 272.671 176.164 272.671Z" fill="black"/>
<path d="M219.633 142.609C219.557 142.608 219.484 142.58 219.427 142.53L185.719 112.971C185.663 112.911 185.632 112.832 185.632 112.75C185.632 112.668 185.663 112.589 185.719 112.528C185.748 112.498 185.784 112.474 185.822 112.458C185.861 112.441 185.903 112.433 185.945 112.433C185.987 112.433 186.029 112.441 186.068 112.458C186.107 112.474 186.142 112.498 186.171 112.528L219.869 142.088C219.925 142.148 219.956 142.227 219.956 142.309C219.956 142.391 219.925 142.47 219.869 142.53C219.837 142.559 219.8 142.58 219.759 142.594C219.719 142.607 219.676 142.612 219.633 142.609Z" fill="black"/>
<path d="M222.27 146.481C223.813 145.795 224.509 143.992 223.826 142.454C223.142 140.916 221.337 140.226 219.794 140.912C218.251 141.598 217.555 143.4 218.238 144.938C218.922 146.476 220.727 147.167 222.27 146.481Z" fill="#020202"/>
<path d="M185.545 114.272C187.087 113.585 187.783 111.782 187.099 110.244C186.415 108.707 184.609 108.017 183.067 108.703C181.524 109.39 180.828 111.193 181.513 112.73C182.197 114.268 184.002 114.958 185.545 114.272Z" fill="#020202"/>
<path d="M218.453 132.906C217.186 132.865 215.924 132.723 214.679 132.484C214.597 132.469 214.524 132.423 214.476 132.355C214.428 132.287 214.409 132.202 214.423 132.12C214.44 132.037 214.488 131.964 214.558 131.916C214.628 131.869 214.713 131.85 214.797 131.864C216.009 132.101 217.239 132.239 218.473 132.277C218.555 132.285 218.631 132.322 218.687 132.381C218.744 132.441 218.776 132.52 218.778 132.602C218.773 132.684 218.736 132.762 218.676 132.819C218.616 132.875 218.536 132.907 218.453 132.906ZM222.199 132.739C222.122 132.74 222.047 132.712 221.989 132.662C221.931 132.611 221.894 132.541 221.884 132.464C221.876 132.381 221.9 132.298 221.951 132.232C222.002 132.166 222.077 132.122 222.159 132.11C223.382 131.962 224.592 131.718 225.777 131.383C225.817 131.371 225.859 131.367 225.9 131.371C225.942 131.376 225.982 131.388 226.019 131.408C226.055 131.429 226.088 131.456 226.114 131.489C226.14 131.521 226.159 131.559 226.17 131.599C226.182 131.638 226.186 131.68 226.181 131.721C226.177 131.762 226.164 131.801 226.144 131.837C226.124 131.873 226.096 131.904 226.064 131.929C226.031 131.954 225.994 131.972 225.954 131.982C224.734 132.334 223.488 132.587 222.228 132.739H222.199ZM211.11 131.501H211.002C209.813 131.067 208.659 130.541 207.552 129.928C207.479 129.888 207.425 129.822 207.401 129.743C207.377 129.664 207.386 129.578 207.424 129.505C207.465 129.432 207.534 129.378 207.614 129.354C207.695 129.33 207.782 129.338 207.857 129.377C208.934 129.978 210.059 130.491 211.218 130.911C211.288 130.937 211.345 130.986 211.382 131.05C211.419 131.114 211.432 131.188 211.419 131.261C211.406 131.333 211.368 131.399 211.312 131.447C211.255 131.494 211.184 131.52 211.11 131.52V131.501ZM229.375 130.695C229.315 130.693 229.256 130.675 229.206 130.642C229.155 130.609 229.115 130.562 229.09 130.508C229.056 130.432 229.054 130.346 229.084 130.269C229.113 130.192 229.172 130.129 229.247 130.095C230.363 129.572 231.438 128.964 232.461 128.276C232.496 128.253 232.535 128.236 232.576 128.228C232.618 128.219 232.66 128.219 232.701 128.227C232.743 128.235 232.782 128.252 232.816 128.276C232.851 128.299 232.881 128.33 232.904 128.365C232.927 128.399 232.944 128.437 232.952 128.478C232.961 128.518 232.961 128.56 232.952 128.6C232.944 128.641 232.928 128.679 232.904 128.713C232.88 128.747 232.85 128.776 232.815 128.797C231.765 129.505 230.66 130.13 229.512 130.665C229.469 130.684 229.422 130.694 229.375 130.695ZM204.573 127.883C204.503 127.883 204.435 127.863 204.377 127.824C203.381 127.042 202.448 126.184 201.585 125.259C201.526 125.198 201.493 125.117 201.493 125.033C201.493 124.948 201.526 124.867 201.585 124.806C201.644 124.748 201.723 124.716 201.806 124.716C201.889 124.716 201.968 124.748 202.027 124.806C202.871 125.709 203.785 126.544 204.76 127.303C204.792 127.329 204.819 127.361 204.839 127.397C204.859 127.433 204.872 127.473 204.876 127.514C204.881 127.555 204.877 127.597 204.866 127.637C204.854 127.676 204.835 127.713 204.809 127.746C204.784 127.786 204.749 127.819 204.708 127.843C204.667 127.867 204.621 127.881 204.573 127.883ZM235.578 126.527C235.533 126.525 235.489 126.515 235.449 126.496C235.408 126.478 235.372 126.451 235.342 126.419C235.283 126.36 235.251 126.28 235.251 126.197C235.251 126.115 235.283 126.035 235.342 125.976L235.558 126.212L235.361 125.966C236.268 125.124 237.109 124.214 237.878 123.243C237.9 123.205 237.931 123.171 237.968 123.145C238.004 123.119 238.046 123.101 238.09 123.093C238.134 123.084 238.18 123.085 238.223 123.096C238.267 123.106 238.308 123.126 238.343 123.154C238.379 123.181 238.408 123.216 238.429 123.256C238.449 123.296 238.461 123.339 238.464 123.384C238.466 123.429 238.459 123.474 238.443 123.516C238.427 123.558 238.401 123.595 238.369 123.627C237.587 124.624 236.725 125.558 235.794 126.419C235.767 126.45 235.734 126.476 235.697 126.495C235.66 126.514 235.619 126.524 235.578 126.527ZM199.471 122.428C199.421 122.428 199.371 122.415 199.326 122.391C199.282 122.367 199.244 122.332 199.216 122.29C198.508 121.239 197.884 120.135 197.348 118.987C197.33 118.95 197.319 118.909 197.317 118.867C197.314 118.826 197.32 118.784 197.334 118.745C197.347 118.706 197.369 118.669 197.396 118.638C197.424 118.607 197.458 118.582 197.496 118.564C197.573 118.531 197.66 118.528 197.739 118.557C197.818 118.587 197.882 118.646 197.918 118.722C198.438 119.84 199.046 120.915 199.737 121.936C199.76 121.97 199.777 122.008 199.785 122.049C199.794 122.089 199.794 122.131 199.785 122.171C199.777 122.212 199.761 122.25 199.737 122.284C199.714 122.318 199.683 122.347 199.648 122.369C199.598 122.408 199.536 122.429 199.471 122.428ZM240.217 120.629C240.169 120.642 240.118 120.642 240.07 120.629C239.997 120.589 239.943 120.523 239.919 120.443C239.895 120.364 239.904 120.279 239.942 120.206C240.549 119.129 241.068 118.004 241.495 116.844C241.508 116.805 241.529 116.768 241.557 116.737C241.585 116.706 241.619 116.681 241.656 116.663C241.694 116.646 241.735 116.636 241.777 116.635C241.818 116.634 241.86 116.642 241.898 116.657C241.976 116.686 242.04 116.745 242.075 116.82C242.11 116.896 242.114 116.982 242.085 117.06C241.645 118.25 241.112 119.404 240.493 120.511C240.461 120.552 240.419 120.585 240.371 120.606C240.322 120.626 240.27 120.634 240.217 120.629ZM196.326 115.655C196.257 115.655 196.191 115.633 196.136 115.593C196.081 115.552 196.04 115.494 196.021 115.428C195.674 114.208 195.424 112.962 195.274 111.703C195.266 111.62 195.289 111.537 195.341 111.471C195.392 111.405 195.467 111.361 195.549 111.349C195.632 111.34 195.715 111.364 195.781 111.416C195.847 111.467 195.891 111.542 195.903 111.624C196.046 112.851 196.289 114.064 196.631 115.252C196.652 115.332 196.642 115.418 196.601 115.492C196.561 115.565 196.494 115.62 196.414 115.645L196.326 115.655ZM242.793 113.62H242.734C242.654 113.603 242.583 113.556 242.537 113.488C242.491 113.42 242.474 113.337 242.488 113.256C242.727 112.044 242.868 110.814 242.911 109.58C242.911 109.538 242.919 109.497 242.935 109.459C242.951 109.421 242.974 109.386 243.003 109.357C243.032 109.328 243.067 109.305 243.105 109.289C243.143 109.273 243.184 109.265 243.225 109.265C243.267 109.265 243.308 109.273 243.346 109.289C243.384 109.305 243.419 109.328 243.448 109.357C243.477 109.386 243.5 109.421 243.516 109.459C243.532 109.497 243.54 109.538 243.54 109.58C243.499 110.844 243.354 112.103 243.107 113.344C243.096 113.42 243.058 113.489 243 113.54C242.943 113.59 242.869 113.618 242.793 113.62ZM195.441 108.233C195.399 108.233 195.358 108.224 195.32 108.208C195.281 108.191 195.247 108.167 195.218 108.137C195.19 108.106 195.168 108.07 195.154 108.031C195.14 107.992 195.134 107.95 195.136 107.908C195.185 106.644 195.333 105.385 195.579 104.143C195.593 104.061 195.64 103.988 195.708 103.94C195.776 103.893 195.86 103.874 195.942 103.888C196.025 103.905 196.098 103.953 196.146 104.023C196.194 104.093 196.213 104.178 196.198 104.261C195.955 105.473 195.811 106.703 195.766 107.938C195.76 108.02 195.724 108.096 195.663 108.151C195.603 108.206 195.523 108.236 195.441 108.233ZM243.078 106.149C243.001 106.149 242.926 106.122 242.868 106.071C242.81 106.02 242.773 105.95 242.763 105.874C242.615 104.651 242.372 103.441 242.036 102.256C242.024 102.216 242.021 102.174 242.025 102.133C242.03 102.091 242.043 102.051 242.063 102.015C242.083 101.978 242.11 101.946 242.142 101.92C242.175 101.894 242.212 101.875 242.252 101.863C242.292 101.851 242.334 101.848 242.376 101.852C242.417 101.857 242.457 101.87 242.494 101.89C242.53 101.91 242.562 101.937 242.588 101.969C242.614 102.002 242.634 102.039 242.645 102.079C242.988 103.3 243.237 104.546 243.393 105.805C243.401 105.887 243.377 105.969 243.325 106.033C243.274 106.097 243.199 106.139 243.117 106.149H243.078ZM196.876 100.909H196.768C196.692 100.879 196.63 100.82 196.595 100.745C196.56 100.67 196.555 100.585 196.581 100.506C197.022 99.3165 197.554 98.1629 198.174 97.0559C198.192 97.0188 198.218 96.986 198.25 96.9596C198.282 96.9332 198.319 96.9138 198.359 96.9027C198.399 96.8916 198.441 96.889 198.482 96.895C198.522 96.9011 198.562 96.9158 198.597 96.938C198.669 96.9775 198.723 97.0441 198.747 97.1231C198.771 97.2022 198.763 97.2876 198.724 97.3607C198.114 98.436 197.594 99.5606 197.171 100.723C197.148 100.779 197.108 100.826 197.057 100.86C197.006 100.893 196.947 100.91 196.886 100.909H196.876ZM241.023 98.9433C240.963 98.9441 240.903 98.9268 240.852 98.8935C240.802 98.8602 240.762 98.8126 240.738 98.7566C240.216 97.638 239.604 96.563 238.91 95.5421C238.865 95.4728 238.849 95.3886 238.866 95.3077C238.882 95.2268 238.93 95.1556 238.998 95.1096C239.067 95.0636 239.15 95.0461 239.231 95.0608C239.312 95.0755 239.383 95.1212 239.431 95.1882C240.145 96.2365 240.773 97.3411 241.309 98.4911C241.342 98.5682 241.345 98.6554 241.315 98.7343C241.286 98.8132 241.227 98.8775 241.151 98.9138C241.117 98.9419 241.076 98.962 241.033 98.9728L241.023 98.9433ZM200.523 94.3625C200.455 94.3604 200.39 94.3362 200.337 94.2937C200.303 94.2686 200.276 94.2372 200.255 94.2014C200.234 94.1655 200.22 94.1259 200.215 94.0848C200.21 94.0437 200.212 94.0019 200.223 93.9618C200.234 93.9217 200.252 93.8842 200.278 93.8513C201.062 92.8615 201.92 91.9316 202.843 91.0694C202.904 91.0105 202.985 90.9776 203.069 90.9776C203.154 90.9776 203.235 91.0105 203.295 91.0694C203.354 91.1283 203.386 91.2078 203.386 91.2906C203.386 91.3734 203.354 91.4529 203.295 91.5118C202.405 92.3416 201.58 93.2388 200.828 94.1954C200.801 94.2518 200.76 94.2999 200.708 94.3346C200.656 94.3692 200.595 94.3891 200.533 94.392L200.523 94.3625ZM236.836 92.7504C236.793 92.7513 236.751 92.7429 236.712 92.726C236.673 92.709 236.638 92.6838 236.61 92.6521C235.766 91.7491 234.852 90.9142 233.877 90.1552C233.845 90.1294 233.818 90.0975 233.798 90.0613C233.778 90.025 233.765 89.9853 233.761 89.9442C233.756 89.9031 233.76 89.8615 233.771 89.8219C233.783 89.7822 233.802 89.7451 233.828 89.7128C233.854 89.6806 233.886 89.6537 233.922 89.6338C233.958 89.6138 233.998 89.6012 234.039 89.5966C234.08 89.5921 234.121 89.5957 234.161 89.6072C234.201 89.6187 234.238 89.6379 234.27 89.6637C235.266 90.4449 236.203 91.2992 237.072 92.2195C237.131 92.2801 237.164 92.3612 237.164 92.4456C237.164 92.5301 237.131 92.6112 237.072 92.6717C237.013 92.7349 236.932 92.7735 236.846 92.7798L236.836 92.7504ZM206.009 89.2803C205.956 89.2812 205.905 89.2691 205.858 89.245C205.812 89.221 205.772 89.1858 205.743 89.1427C205.721 89.0765 205.722 89.0048 205.745 88.939C205.768 88.8731 205.812 88.8168 205.871 88.779C206.923 88.0729 208.027 87.4485 209.174 86.9112C209.251 86.8775 209.338 86.8751 209.417 86.9044C209.496 86.9338 209.56 86.9926 209.597 87.0685C209.63 87.1442 209.632 87.23 209.603 87.3072C209.573 87.3845 209.514 87.4471 209.439 87.4814C208.322 88.0023 207.247 88.6104 206.225 89.3C206.159 89.3264 206.086 89.3299 206.018 89.3098L206.009 89.2803ZM230.948 88.1597C230.896 88.1744 230.842 88.1744 230.79 88.1597C229.709 87.5684 228.586 87.0591 227.428 86.636C227.389 86.6227 227.352 86.6017 227.321 86.5742C227.29 86.5467 227.264 86.5132 227.246 86.4757C227.227 86.4382 227.217 86.3974 227.214 86.3557C227.212 86.314 227.218 86.2723 227.232 86.233C227.263 86.1564 227.321 86.0945 227.396 86.0598C227.471 86.0251 227.556 86.0202 227.635 86.0462C228.829 86.4722 229.986 86.9949 231.095 87.6092C231.168 87.6506 231.223 87.7189 231.246 87.7996C231.27 87.8803 231.262 87.9671 231.223 88.0417C231.194 88.0861 231.155 88.1227 231.108 88.1484C231.062 88.1741 231.01 88.1881 230.957 88.1892L230.948 88.1597ZM212.752 86.1543C212.674 86.1571 212.598 86.1311 212.539 86.0812C212.479 86.0314 212.44 85.9613 212.429 85.8844C212.418 85.8076 212.436 85.7294 212.479 85.6648C212.523 85.6003 212.588 85.5541 212.664 85.535C213.881 85.1896 215.123 84.9365 216.379 84.7781C216.462 84.7696 216.546 84.7935 216.611 84.8448C216.677 84.896 216.721 84.9707 216.733 85.0534C216.739 85.0947 216.736 85.1368 216.725 85.177C216.714 85.2173 216.695 85.255 216.67 85.2879C216.644 85.3209 216.612 85.3484 216.576 85.3689C216.539 85.3893 216.499 85.4024 216.458 85.4072C215.231 85.5553 214.018 85.8019 212.831 86.1445L212.752 86.1543ZM223.89 85.653H223.831C222.618 85.4174 221.389 85.2794 220.154 85.2401C220.112 85.2402 220.071 85.2317 220.033 85.2152C219.994 85.1987 219.96 85.1745 219.931 85.144C219.903 85.1136 219.881 85.0777 219.867 85.0384C219.853 84.9991 219.847 84.9574 219.849 84.9157C219.851 84.8744 219.86 84.8338 219.877 84.7961C219.894 84.7584 219.918 84.7244 219.948 84.6961C219.979 84.6678 220.014 84.6457 220.053 84.6311C220.091 84.6165 220.132 84.6097 220.174 84.611C221.441 84.6529 222.703 84.7943 223.949 85.0337C224.022 85.0519 224.086 85.0958 224.129 85.1572C224.173 85.2187 224.193 85.2938 224.185 85.3687C224.178 85.4437 224.145 85.5136 224.09 85.5658C224.036 85.6179 223.965 85.6489 223.89 85.653Z" fill="black"/>
<path d="M208.633 126.949L202.558 121.611L197.594 127.224L203.679 132.562L208.633 126.949Z" fill="white"/>
<path d="M203.669 132.877C203.631 132.878 203.593 132.872 203.558 132.859C203.522 132.845 203.49 132.825 203.463 132.798L197.388 127.471C197.355 127.445 197.328 127.412 197.309 127.374C197.291 127.337 197.281 127.296 197.279 127.254C197.274 127.213 197.278 127.171 197.292 127.132C197.305 127.093 197.328 127.057 197.358 127.028L202.273 121.405C202.332 121.347 202.412 121.314 202.494 121.314C202.577 121.314 202.657 121.347 202.716 121.405L208.8 126.733C208.859 126.792 208.897 126.868 208.909 126.95C208.908 127.031 208.88 127.111 208.83 127.176L203.905 132.769C203.877 132.804 203.841 132.833 203.8 132.851C203.759 132.87 203.714 132.879 203.669 132.877ZM198.007 127.205L203.61 132.12L208.152 126.979L202.548 122.064L198.007 127.205Z" fill="#020202"/>
<path d="M171.672 160.539C174.847 163.852 189.238 156.98 189.238 156.98C189.238 156.98 194.488 142.864 195.038 138.46C195.107 137.939 195.156 137.477 195.186 137.163L182.967 149.617L184.402 151.072L180.942 154.641L177.521 151.151L180.971 147.622L182.406 149.077L194.37 136.553L193.475 136.652C189.199 137.133 178.445 138.677 175.024 142.166C170.807 146.433 168.516 157.206 171.672 160.539Z" fill="#020202"/>
<path d="M194.547 138.913L196.287 137.143C196.363 137.066 196.406 136.962 196.406 136.853C196.406 136.745 196.363 136.64 196.287 136.563C196.25 136.526 196.206 136.496 196.158 136.476C196.11 136.456 196.059 136.446 196.006 136.446C195.954 136.446 195.903 136.456 195.855 136.476C195.806 136.496 195.763 136.526 195.726 136.563L193.986 138.342C193.949 138.38 193.919 138.424 193.899 138.473C193.879 138.522 193.868 138.575 193.868 138.627C193.868 138.68 193.879 138.733 193.899 138.782C193.919 138.831 193.949 138.875 193.986 138.913C194.023 138.95 194.066 138.979 194.115 138.999C194.163 139.019 194.214 139.03 194.266 139.03C194.319 139.03 194.37 139.019 194.418 138.999C194.466 138.979 194.51 138.95 194.547 138.913Z" fill="#020202"/>
<path d="M177.354 161.954L155.197 185.684V169.17L169.696 155.26L170.217 154.759L170.256 154.719L173.107 157.629L174.228 158.769L175.417 159.988L176.646 161.237L177.354 161.954Z" fill="#020202"/>
<path d="M170.532 157.796C173.697 161.109 188.334 155.005 188.334 155.005C188.334 155.005 193.74 141.164 194.33 136.829C194.399 136.317 194.448 135.846 194.488 135.561L182.082 147.671L183.507 149.126L179.998 152.557L176.577 149.067L180.086 145.636L181.522 147.101L194.075 134.892L192.816 135.01C188.501 135.423 174.139 140.181 174.139 140.181C174.139 140.181 167.356 154.484 170.532 157.796Z" fill="#1B5A96"/>
<path d="M193.829 137.32L195.589 135.6C195.627 135.563 195.658 135.519 195.679 135.47C195.7 135.421 195.711 135.368 195.711 135.315C195.711 135.261 195.7 135.209 195.679 135.16C195.658 135.111 195.627 135.066 195.589 135.03C195.551 134.992 195.507 134.963 195.458 134.942C195.409 134.922 195.357 134.912 195.304 134.912C195.251 134.912 195.198 134.922 195.149 134.942C195.1 134.963 195.056 134.992 195.019 135.03L193.259 136.75C193.213 136.785 193.175 136.829 193.148 136.879C193.121 136.929 193.104 136.985 193.1 137.042C193.096 137.099 193.104 137.156 193.124 137.21C193.144 137.264 193.175 137.313 193.215 137.354C193.255 137.395 193.303 137.427 193.357 137.447C193.41 137.468 193.467 137.477 193.525 137.474C193.582 137.471 193.638 137.455 193.688 137.429C193.739 137.402 193.784 137.365 193.819 137.32H193.829Z" fill="#8C7BFF"/>
<path d="M192.708 136.18L194.478 134.45C194.515 134.413 194.544 134.37 194.565 134.322C194.585 134.274 194.595 134.222 194.595 134.17C194.595 134.118 194.585 134.066 194.565 134.018C194.544 133.97 194.515 133.926 194.478 133.89C194.401 133.816 194.299 133.775 194.193 133.775C194.086 133.775 193.984 133.816 193.908 133.89L192.109 135.6C192.071 135.637 192.04 135.681 192.019 135.729C191.998 135.778 191.987 135.83 191.986 135.883C191.985 135.936 191.994 135.989 192.014 136.038C192.033 136.087 192.062 136.132 192.099 136.17C192.136 136.208 192.18 136.239 192.228 136.26C192.277 136.281 192.329 136.292 192.382 136.293C192.435 136.294 192.487 136.285 192.537 136.265C192.586 136.246 192.631 136.217 192.669 136.18H192.708Z" fill="#8C7BFF"/>
<path d="M175.977 159.399L175.417 159.988L174.07 161.394L155.197 181.035V165.395L169.224 152.518L169.824 153.127L170.296 153.609L173.677 157.059L175.299 158.701L175.977 159.399Z" fill="#C66A05"/>
<path d="M173.677 157.059L173.107 157.629L172.114 158.602L171.053 159.635L155.197 175.166V165.395L169.224 152.518L169.824 153.127L170.296 153.609L173.677 157.059Z" fill="#FB9100"/>
<path d="M382.351 185.114C382.31 185.115 382.268 185.108 382.23 185.093C382.191 185.077 382.155 185.055 382.125 185.026C382.068 184.965 382.036 184.884 382.037 184.8V180.297C380.46 179.905 378.95 179.282 377.554 178.449L374.389 181.654C374.359 181.683 374.324 181.706 374.285 181.721C374.246 181.736 374.205 181.743 374.163 181.742C374.123 181.744 374.083 181.737 374.045 181.721C374.008 181.706 373.974 181.683 373.947 181.654L368.54 176.267C368.481 176.206 368.448 176.125 368.448 176.041C368.448 175.957 368.481 175.875 368.54 175.815L371.705 172.62C370.87 171.22 370.241 169.707 369.838 168.128H365.345C365.265 168.124 365.189 168.092 365.129 168.039C365.069 167.979 365.034 167.898 365.031 167.813V160.185C365.031 160.101 365.064 160.021 365.123 159.962C365.182 159.904 365.262 159.87 365.345 159.87H369.828C370.222 158.285 370.844 156.765 371.676 155.358L368.491 152.193C368.461 152.164 368.437 152.129 368.42 152.09C368.404 152.051 368.395 152.009 368.395 151.967C368.395 151.925 368.404 151.883 368.42 151.844C368.437 151.805 368.461 151.77 368.491 151.741L373.839 146.334C373.867 146.303 373.902 146.277 373.941 146.26C373.98 146.243 374.022 146.235 374.065 146.236C374.106 146.235 374.148 146.242 374.187 146.257C374.225 146.273 374.261 146.295 374.291 146.324L377.476 149.5C378.868 148.658 380.374 148.023 381.948 147.612V143.11C381.947 143.069 381.954 143.028 381.969 142.99C381.983 142.952 382.006 142.917 382.034 142.888C382.063 142.859 382.097 142.835 382.134 142.82C382.172 142.804 382.212 142.795 382.253 142.795H389.852C389.937 142.797 390.018 142.832 390.078 142.894C390.106 142.922 390.129 142.956 390.144 142.993C390.159 143.03 390.167 143.07 390.166 143.11V147.622C391.744 148.008 393.255 148.628 394.649 149.46L397.814 146.265C397.874 146.204 397.955 146.169 398.04 146.167C398.123 146.17 398.2 146.206 398.257 146.265L403.644 151.633C403.702 151.692 403.734 151.771 403.734 151.854C403.734 151.937 403.702 152.016 403.644 152.075L400.508 155.25C401.341 156.651 401.97 158.164 402.375 159.743H406.858C406.943 159.745 407.024 159.78 407.084 159.841C407.144 159.897 407.179 159.975 407.182 160.057V167.685C407.182 167.769 407.149 167.849 407.09 167.908C407.031 167.967 406.951 168 406.868 168H402.385C401.991 169.586 401.369 171.105 400.537 172.512L403.722 175.687C403.78 175.746 403.813 175.825 403.813 175.908C403.813 175.991 403.78 176.071 403.722 176.129L398.375 181.546C398.313 181.603 398.232 181.635 398.148 181.634C398.107 181.635 398.065 181.628 398.027 181.613C397.988 181.598 397.952 181.575 397.922 181.546L394.737 178.371C393.347 179.216 391.84 179.852 390.265 180.258V184.76C390.266 184.801 390.259 184.842 390.244 184.88C390.23 184.918 390.207 184.953 390.179 184.982C390.151 185.011 390.117 185.035 390.079 185.051C390.041 185.067 390.001 185.075 389.96 185.075H382.361L382.351 185.114ZM377.486 177.742C377.54 177.728 377.598 177.728 377.653 177.742C379.116 178.654 380.72 179.319 382.401 179.708C382.47 179.723 382.532 179.762 382.577 179.817C382.621 179.872 382.646 179.941 382.646 180.012V184.456H389.606V180.012C389.604 179.942 389.627 179.873 389.67 179.818C389.713 179.762 389.774 179.723 389.842 179.708C391.52 179.312 393.123 178.648 394.59 177.742C394.646 177.699 394.716 177.675 394.787 177.675C394.858 177.675 394.927 177.699 394.983 177.742L398.119 180.868L403.034 175.893L399.898 172.777C399.851 172.725 399.82 172.659 399.811 172.589C399.803 172.518 399.816 172.447 399.849 172.384C400.76 170.909 401.424 169.295 401.815 167.607C401.832 167.538 401.871 167.477 401.926 167.433C401.981 167.388 402.049 167.363 402.12 167.361H406.543V160.372H402.12C402.049 160.371 401.98 160.347 401.925 160.302C401.869 160.257 401.831 160.195 401.815 160.126C401.418 158.445 400.754 156.839 399.849 155.368C399.806 155.312 399.783 155.243 399.783 155.172C399.783 155.101 399.806 155.031 399.849 154.975L402.975 151.819L398.06 146.904L394.944 150.05C394.888 150.095 394.819 150.119 394.747 150.119C394.676 150.119 394.606 150.095 394.551 150.05C393.08 149.144 391.474 148.48 389.793 148.084C389.724 148.068 389.664 148.029 389.621 147.974C389.578 147.918 389.555 147.849 389.557 147.779V143.346H382.597V147.779C382.599 147.849 382.577 147.918 382.534 147.974C382.491 148.029 382.43 148.068 382.361 148.084C380.683 148.48 379.08 149.144 377.613 150.05C377.552 150.088 377.48 150.104 377.408 150.095C377.336 150.086 377.27 150.053 377.22 150.001L374.084 146.875L369.169 151.849L372.305 154.975C372.353 155.025 372.384 155.089 372.393 155.159C372.402 155.228 372.388 155.298 372.354 155.358C371.444 156.833 370.78 158.447 370.388 160.136C370.371 160.204 370.332 160.265 370.277 160.31C370.222 160.354 370.154 160.379 370.083 160.382H365.66V167.381H370.083C370.154 167.379 370.222 167.401 370.278 167.444C370.333 167.487 370.372 167.548 370.388 167.617C370.783 169.301 371.447 170.911 372.354 172.384C372.392 172.444 372.407 172.515 372.398 172.585C372.389 172.655 372.356 172.719 372.305 172.768L369.189 175.923L374.104 180.838L377.22 177.683C377.266 177.672 377.314 177.672 377.36 177.682C377.405 177.692 377.449 177.712 377.486 177.742ZM386.067 173.878C383.434 173.878 380.909 172.832 379.047 170.97C377.185 169.108 376.139 166.583 376.139 163.95C376.139 161.317 377.185 158.791 379.047 156.929C380.909 155.067 383.434 154.021 386.067 154.021C388.677 154.027 391.18 155.062 393.03 156.903C394.88 158.744 395.928 161.242 395.947 163.852C395.957 166.476 394.929 168.997 393.088 170.866C391.246 172.736 388.74 173.801 386.116 173.829L386.067 173.878ZM386.067 173.249C387.905 173.232 389.697 172.673 391.217 171.64C392.738 170.608 393.919 169.149 394.613 167.447C395.306 165.745 395.481 163.875 395.115 162.074C394.749 160.273 393.858 158.621 392.555 157.324C391.702 156.473 390.688 155.798 389.573 155.339C388.458 154.88 387.263 154.646 386.057 154.651C384.219 154.665 382.427 155.222 380.905 156.254C379.384 157.285 378.202 158.743 377.508 160.445C376.814 162.147 376.64 164.017 377.007 165.818C377.373 167.618 378.265 169.271 379.57 170.566C380.423 171.419 381.436 172.095 382.551 172.555C383.666 173.016 384.861 173.252 386.067 173.249Z" fill="#FB9100"/>
<path d="M207.139 63.083V53.5969H201.241C200.732 51.4583 199.878 49.4166 198.715 47.5514L202.873 43.3441L196.149 36.6793L191.991 40.8767C190.126 39.7302 188.088 38.8936 185.955 38.3995V32.5015H176.508V38.3995C174.372 38.9325 172.337 39.8089 170.483 40.9947L166.305 36.8267L159.669 43.5604L163.847 47.7284C162.701 49.6001 161.864 51.645 161.37 53.7837H155.472V63.2698H161.37C161.883 65.4026 162.732 67.4401 163.887 69.3055L159.738 73.5128L166.442 80.1875L170.591 75.9998C172.456 77.1447 174.494 77.9811 176.626 78.477V84.3751H186.083V78.477C188.218 77.9561 190.254 77.0894 192.109 75.9114L196.296 80.0793L202.922 73.3359L198.734 69.1777C199.878 67.3 200.718 65.2529 201.221 63.1125L207.139 63.083ZM181.296 70.4163C178.93 70.426 176.614 69.7339 174.641 68.4274C172.668 67.121 171.127 65.2589 170.213 63.0766C169.298 60.8943 169.052 58.4899 169.504 56.1674C169.956 53.8449 171.086 51.7086 172.753 50.0286C174.419 48.3487 176.546 47.2006 178.865 46.7294C181.183 46.2583 183.59 46.4853 185.779 47.3818C187.969 48.2782 189.844 49.8039 191.166 51.7658C192.489 53.7277 193.2 56.0378 193.21 58.4039C193.221 59.9764 192.922 61.5356 192.329 62.9919C191.735 64.4481 190.86 65.7727 189.752 66.8892C188.645 68.0056 187.328 68.8921 185.876 69.4974C184.425 70.1028 182.868 70.4151 181.296 70.4163Z" fill="#1B5A96"/>
<path d="M275.203 274.028V269.25H272.254C271.992 268.175 271.564 267.147 270.986 266.203L273.07 264.089L269.698 260.728L267.614 262.841C266.674 262.267 265.649 261.846 264.576 261.593V258.644H259.819V261.593C258.745 261.857 257.72 262.288 256.781 262.871L254.648 260.806L251.296 264.198L253.4 266.291C252.826 267.239 252.405 268.271 252.151 269.349H249.202V274.126H252.151C252.403 275.205 252.832 276.234 253.419 277.173L251.325 279.287L254.697 282.649L256.791 280.535C257.729 281.113 258.755 281.534 259.829 281.784V284.733H264.586V281.784C265.657 281.522 266.679 281.091 267.614 280.506L269.718 282.6L273.07 279.208L270.966 277.114C271.544 276.169 271.965 275.137 272.214 274.057L275.203 274.028ZM262.217 277.724C261.025 277.734 259.856 277.389 258.859 276.734C257.863 276.079 257.083 275.143 256.618 274.045C256.154 272.947 256.026 271.735 256.25 270.564C256.475 269.392 257.042 268.314 257.879 267.465C258.717 266.616 259.788 266.035 260.956 265.795C262.125 265.556 263.338 265.668 264.442 266.118C265.547 266.568 266.493 267.336 267.161 268.324C267.828 269.312 268.188 270.476 268.194 271.668C268.2 272.459 268.051 273.243 267.754 273.975C267.457 274.708 267.018 275.374 266.463 275.937C265.907 276.499 265.247 276.947 264.518 277.254C263.79 277.56 263.008 277.72 262.217 277.724Z" fill="black"/>
</g>
</g>
<defs>
<clipPath id="clip0_107_397">
<rect width="570" height="324" fill="white"/>
</clipPath>
<clipPath id="clip1_107_397">
<rect width="261" height="261" fill="white" transform="translate(155 32)"/>
</clipPath>
</defs>
</svg>
