<svg width="570" height="324" viewBox="0 0 570 324" fill="none" xmlns="http://www.w3.org/2000/svg">
<g clip-path="url(#clip0_105_83)">
<rect width="570" height="324" fill="#FFF6EB"/>
<path d="M471.134 293.996H98.6618C98.4786 293.979 98.3105 293.92 98.1888 293.829C98.0671 293.738 98 293.621 98 293.5C98 293.379 98.0671 293.262 98.1888 293.171C98.3105 293.08 98.4786 293.021 98.6618 293.004H471.134C471.242 292.995 471.352 293.001 471.457 293.021C471.561 293.042 471.657 293.077 471.739 293.124C471.821 293.171 471.887 293.228 471.932 293.293C471.977 293.358 472 293.429 472 293.5C472 293.571 471.977 293.642 471.932 293.707C471.887 293.772 471.821 293.829 471.739 293.876C471.657 293.923 471.561 293.958 471.457 293.979C471.352 293.999 471.242 294.005 471.134 293.996Z" fill="#030047"/>
<g clip-path="url(#clip1_105_83)">
<path d="M348.566 70.2733C348.765 51.7408 337.451 33.0298 320.307 33.0298C309.38 33.0298 293.835 44.5382 291.551 57.2569C291.303 57.1804 291.078 57.0441 290.895 56.8601C286.851 53.5604 281.738 51.8519 276.52 52.0566C271.302 52.2613 266.339 54.3649 262.566 57.9712C259.062 61.3111 256.367 65.407 254.69 69.9459C249.579 70.6445 244.889 73.1534 241.474 77.0155C238.059 80.8777 236.147 85.8362 236.085 90.9883C235.946 102.953 246.088 112.745 258.067 112.745H351.009C364.429 112.745 375.772 101.832 375.673 88.389C375.574 75.3528 364.141 62.0984 348.566 70.2733Z" fill="black"/>
<path d="M268.735 52.0881H276.741L277.486 62.902H265.06L268.735 52.0881Z" fill="#040A2E"/>
<path d="M311.476 33.0298H320.307V49.2903C320.307 49.2903 303.868 50.7884 303.868 50.342C303.868 49.8955 311.476 33.0298 311.476 33.0298Z" fill="#040A2E"/>
<path d="M346.957 67.783H357.208L356.532 83.0911L332.276 86.6726L346.957 67.783Z" fill="#040A2E"/>
<path d="M328.462 120.613L317.049 133.986L314.546 131.049L309.887 125.583L305.646 120.613H310.781V112.725H323.326V120.613H328.462Z" fill="black"/>
<path d="M313.224 133.996H317.049L319.214 128.43L310.662 125.434L313.224 133.996Z" fill="#040A2E"/>
<path d="M302.269 120.821H307.155V112.507H249.236C246.33 112.493 243.455 111.906 240.775 110.781C238.096 109.656 235.665 108.014 233.622 105.949C231.631 103.995 230.052 101.661 228.981 99.0857C227.909 96.5107 227.366 93.747 227.384 90.9585C227.466 85.8643 229.366 80.9666 232.743 77.1472C236.119 73.3278 240.749 70.8374 245.8 70.1244H245.929V70.0054C247.604 65.4973 250.28 61.427 253.756 58.1001C257.719 54.3035 263.005 52.1939 268.496 52.217C273.357 52.203 278.068 53.8956 281.807 56.9989C282.015 57.2139 282.28 57.3653 282.571 57.4354H282.77V57.2469C285.045 44.5183 300.649 33.1885 311.307 33.1885C314.501 33.2219 317.654 33.9 320.578 35.1821C323.502 36.4642 326.137 38.3238 328.323 40.6491C335.276 47.6533 339.477 58.993 339.358 70.2534V70.6105L339.666 70.4419C342.505 68.8757 345.681 68.0212 348.924 67.9517C359.661 67.9517 366.386 78.5374 366.465 88.3394C366.488 91.4713 365.885 94.5763 364.691 97.4724C363.497 100.369 361.736 102.997 359.512 105.205C354.883 109.859 348.598 112.491 342.03 112.527H319.184V120.841H324.071L317.982 127.974L315.479 130.95L313.125 133.698L302.269 120.821Z" fill="#FFF6EB"/>
<path d="M311.427 33.4167C314.597 33.4473 317.728 34.1199 320.63 35.3937C323.532 36.6675 326.146 38.5161 328.313 40.8277C335.196 47.7724 339.408 59.0625 339.289 70.2732V70.9876L339.914 70.6502C342.72 69.0947 345.864 68.2467 349.072 68.1799C359.681 68.1799 366.326 78.6565 366.396 88.3592C366.412 91.4577 365.809 94.5283 364.624 97.3917C363.439 100.255 361.694 102.854 359.492 105.036C354.904 109.652 348.671 112.263 342.159 112.299H319.065V121.029H323.734L317.953 127.815L315.439 130.791L313.254 133.351L302.765 121.049H307.404V112.318H249.236C246.357 112.306 243.508 111.726 240.854 110.611C238.2 109.496 235.793 107.868 233.771 105.82C231.811 103.872 230.263 101.551 229.215 98.9953C228.168 96.4395 227.643 93.7002 227.672 90.9387C227.738 85.8984 229.61 81.0485 232.948 77.2682C236.286 73.4879 240.87 71.0274 245.869 70.3328H246.127L246.217 70.0947C247.877 65.6218 250.529 61.5822 253.974 58.2787C257.906 54.5266 263.138 52.4396 268.576 52.4551C273.385 52.4446 278.046 54.1192 281.747 57.1874C281.989 57.43 282.296 57.5986 282.631 57.6736H283.028L283.098 57.2767C285.363 44.6473 300.818 33.3968 311.427 33.3968V33.4167ZM311.427 33C300.5 33 284.955 44.5084 282.681 57.2271C282.43 57.1565 282.201 57.0234 282.015 56.8402C278.243 53.7038 273.484 51.9965 268.576 52.0186C263.026 52.0073 257.687 54.1403 253.676 57.9712C250.176 61.3145 247.482 65.4093 245.8 69.9459C240.689 70.6445 235.999 73.1533 232.584 77.0155C229.169 80.8776 227.257 85.8362 227.195 90.9883C227.056 102.953 237.198 112.745 249.187 112.745H306.947V120.682H301.811L313.224 134.065L315.737 131.089L318.241 128.113L324.627 120.622H319.492V112.686H342.129C355.549 112.686 366.902 101.772 366.793 88.3295C366.713 78.1307 359.631 67.7533 349.043 67.7533C345.769 67.8156 342.56 68.6774 339.696 70.2633C339.894 51.7408 328.581 33.0298 311.427 33.0298V33Z" fill="black"/>
<path d="M249.058 91.415L254.402 90.8992C254.579 92.4133 255.282 93.8175 256.388 94.8676C257.517 95.7516 258.928 96.1989 260.361 96.1275C261.776 96.2241 263.18 95.8279 264.335 95.0065C264.743 94.6989 265.077 94.3022 265.309 93.8466C265.541 93.3911 265.667 92.8886 265.675 92.3774C265.691 91.7814 265.49 91.2 265.109 90.7404C264.562 90.1944 263.885 89.7952 263.143 89.5797C262.497 89.3614 261.027 88.9646 258.742 88.3991C255.795 87.6649 253.729 86.7687 252.544 85.7105C251.751 85.0388 251.115 84.2008 250.682 83.256C250.25 82.3112 250.031 81.2828 250.041 80.244C250.032 78.8488 250.444 77.4832 251.223 76.3252C252.05 75.0834 253.234 74.1216 254.62 73.5671C256.32 72.8827 258.141 72.5454 259.974 72.575C263.391 72.575 265.96 73.3224 267.682 74.8172C268.533 75.5591 269.216 76.4738 269.686 77.5003C270.155 78.5268 270.4 79.6414 270.404 80.7698L264.911 81.0178C264.79 79.8742 264.253 78.8148 263.401 78.0415C262.376 77.3586 261.153 77.0373 259.924 77.1288C258.599 77.0554 257.285 77.4027 256.17 78.1209C255.894 78.3066 255.67 78.5583 255.517 78.8529C255.365 79.1476 255.288 79.4758 255.296 79.8075C255.298 80.1266 255.374 80.4409 255.517 80.7263C255.66 81.0117 255.866 81.2608 256.12 81.4543C256.805 82.0298 258.494 82.635 261.166 83.2699C263.225 83.6888 265.226 84.355 267.126 85.2541C268.348 85.8907 269.377 86.8432 270.106 88.0121C270.851 89.3493 271.224 90.8611 271.187 92.3909C271.151 93.9207 270.705 95.4129 269.897 96.7129C269.015 98.0798 267.731 99.1404 266.222 99.7487C264.319 100.466 262.294 100.803 260.262 100.741C256.825 100.741 254.176 99.9471 252.316 98.3598C250.383 96.5441 249.218 94.06 249.058 91.415Z" fill="black"/>
<path d="M279.651 86.6032L274.923 85.75C275.307 84.0614 276.278 82.5638 277.664 81.5236C279.411 80.4911 281.43 80.0104 283.455 80.1446C285.227 80.0473 286.998 80.3315 288.65 80.978C289.654 81.4021 290.497 82.1355 291.054 83.0713C291.629 84.5514 291.867 86.1409 291.749 87.7243L291.69 93.8059C291.659 95.081 291.745 96.3562 291.948 97.6155C292.144 98.5318 292.458 99.4188 292.882 100.255H287.727C287.587 99.9073 287.419 99.4013 287.22 98.7168C287.131 98.4092 287.071 98.2009 287.031 98.1017C286.218 98.9406 285.25 99.6144 284.18 100.086C283.154 100.525 282.049 100.748 280.932 100.741C279.18 100.834 277.46 100.244 276.135 99.0938C275.201 98.1811 274.596 96.9845 274.416 95.6917C274.237 94.3989 274.492 93.083 275.141 91.9506C275.674 91.0836 276.452 90.3933 277.376 89.9664C278.701 89.389 280.092 88.9791 281.518 88.7461C283.242 88.4759 284.937 88.0509 286.584 87.4763V86.9504C286.624 86.5629 286.578 86.1715 286.452 85.8032C286.325 85.4349 286.119 85.0986 285.849 84.8174C285.013 84.2989 284.028 84.0721 283.048 84.1726C282.284 84.1256 281.524 84.3162 280.873 84.7182C280.284 85.2088 279.858 85.866 279.651 86.6032ZM286.604 90.8196C285.563 91.1454 284.506 91.4136 283.436 91.6232C282.447 91.7734 281.488 92.0781 280.595 92.526C280.29 92.7255 280.039 92.9977 279.865 93.3182C279.692 93.6386 279.601 93.9972 279.601 94.3614C279.599 94.7172 279.672 95.0694 279.814 95.3957C279.956 95.7219 280.164 96.0151 280.426 96.2564C280.701 96.5208 281.027 96.7273 281.383 96.8636C281.74 97 282.12 97.0633 282.502 97.05C283.475 97.0379 284.418 96.7145 285.194 96.1274C285.785 95.7022 286.22 95.0961 286.435 94.4011C286.602 93.5654 286.669 92.7128 286.634 91.8613L286.604 90.8196Z" fill="black"/>
<path d="M300.788 86.6032L296.05 85.7499C296.442 84.062 297.416 82.5656 298.802 81.5236C300.545 80.4913 302.561 80.0105 304.583 80.1446C306.358 80.0465 308.133 80.3307 309.788 80.9779C310.789 81.402 311.628 82.1357 312.182 83.0713C312.757 84.5513 312.994 86.1409 312.877 87.7242L312.807 93.786C312.773 95.0674 312.856 96.3492 313.056 97.6155C313.256 98.5304 313.57 99.4169 313.989 100.254H308.834C308.695 99.9072 308.536 99.4013 308.337 98.7167C308.248 98.4092 308.188 98.2008 308.149 98.1016C307.33 98.9386 306.359 99.612 305.288 100.086C304.262 100.525 303.156 100.748 302.04 100.741C300.29 100.836 298.572 100.245 297.252 99.0937C296.678 98.5627 296.225 97.9154 295.921 97.1951C295.618 96.4748 295.473 95.6981 295.494 94.917C295.475 93.8701 295.75 92.839 296.289 91.9407C296.827 91.0778 297.603 90.3887 298.524 89.9565C299.852 89.3792 301.246 88.9693 302.676 88.7362C304.399 88.4633 306.094 88.0383 307.741 87.4663V86.9405C307.782 86.5521 307.736 86.1597 307.607 85.791C307.478 85.4224 307.27 85.0866 306.997 84.8075C306.16 84.2889 305.175 84.0621 304.195 84.1626C303.435 84.117 302.678 84.3076 302.03 84.7082C301.43 85.1961 300.996 85.8583 300.788 86.6032ZM307.741 90.8196C306.697 91.145 305.636 91.4133 304.563 91.6232C303.578 91.7747 302.623 92.0793 301.732 92.526C301.425 92.7234 301.173 92.9953 300.999 93.3162C300.826 93.6371 300.736 93.9966 300.739 94.3614C300.735 94.7165 300.805 95.0685 300.946 95.3948C301.086 95.7211 301.293 96.0145 301.553 96.2563C301.829 96.5193 302.155 96.725 302.512 96.8612C302.868 96.9975 303.248 97.0616 303.629 97.05C304.602 97.0393 305.546 96.7158 306.321 96.1273C306.915 95.7053 307.352 95.0981 307.563 94.4011C307.74 93.5667 307.81 92.7133 307.771 91.8613L307.741 90.8196Z" fill="black"/>
<path d="M316.671 91.4148L322.005 90.8989C322.187 92.4116 322.889 93.8143 323.992 94.8673C325.121 95.7514 326.532 96.1987 327.965 96.1273C329.379 96.2206 330.782 95.8247 331.938 95.0062C332.347 94.6986 332.68 94.302 332.913 93.8464C333.145 93.3909 333.27 92.8884 333.279 92.3772C333.294 91.7812 333.093 91.1997 332.713 90.7402C332.162 90.1838 331.479 89.7774 330.726 89.5596C330.091 89.3413 328.621 88.9445 326.336 88.379C323.389 87.6449 321.323 86.7487 320.138 85.6904C319.344 85.0187 318.709 84.1807 318.276 83.2359C317.843 82.2912 317.624 81.2628 317.635 80.2239C317.631 78.8433 318.039 77.4927 318.807 76.3448C319.633 75.103 320.818 74.1413 322.204 73.5868C323.904 72.9015 325.725 72.5642 327.558 72.5947C330.975 72.5947 333.518 73.3387 335.266 74.8368C336.117 75.5788 336.8 76.4935 337.269 77.5199C337.739 78.5464 337.983 79.661 337.987 80.7894L332.494 81.0375C332.371 79.8949 331.834 78.8367 330.985 78.0612C329.957 77.3768 328.73 77.0555 327.498 77.1484C326.176 77.0765 324.866 77.4238 323.753 78.1405C323.478 78.3262 323.254 78.5779 323.101 78.8726C322.949 79.1672 322.872 79.4954 322.879 79.8271C322.882 80.1451 322.957 80.4584 323.098 80.7436C323.239 81.0287 323.443 81.2784 323.694 81.474C324.356 82.0494 326.038 82.6546 328.74 83.2895C330.798 83.7112 332.799 84.3773 334.7 85.2737C335.922 85.9104 336.951 86.8628 337.679 88.0318C338.426 89.3688 338.8 90.8815 338.761 92.412C338.723 93.9424 338.274 95.4345 337.461 96.7325C336.584 98.1039 335.299 99.1658 333.786 99.7683C331.899 100.48 329.892 100.817 327.876 100.76C324.429 100.76 321.797 99.9668 319.929 98.3794C317.988 96.5619 316.822 94.0681 316.671 91.4148Z" fill="black"/>
<path d="M366.535 139.998C367.588 139.998 368.599 140.416 369.344 141.161C370.089 141.905 370.508 142.914 370.508 143.967V240.548C370.508 240.943 370.429 241.334 370.276 241.698C370.124 242.063 369.9 242.393 369.618 242.67C369.336 242.947 369.001 243.165 368.634 243.312C368.267 243.458 367.874 243.531 367.478 243.524H233.264C232.474 243.524 231.716 243.21 231.157 242.652C230.598 242.094 230.284 241.337 230.284 240.548V143.977C230.284 142.924 230.703 141.915 231.448 141.17C232.193 140.426 233.204 140.008 234.258 140.008L366.535 139.998ZM366.535 139.582H234.218C233.051 139.582 231.932 140.045 231.106 140.869C230.281 141.693 229.818 142.811 229.818 143.977V240.558C229.818 241.471 230.181 242.346 230.827 242.992C231.473 243.638 232.35 244 233.264 244H367.488C368.403 244 369.281 243.638 369.929 242.993C370.577 242.347 370.942 241.472 370.945 240.558V143.977C370.945 143.399 370.831 142.826 370.609 142.292C370.387 141.759 370.062 141.274 369.653 140.865C369.243 140.457 368.757 140.134 368.222 139.913C367.687 139.693 367.113 139.58 366.535 139.582Z" fill="black"/>
<path d="M366.535 139.572H234.218C233.639 139.572 233.066 139.686 232.532 139.907C231.997 140.129 231.512 140.453 231.103 140.862C230.694 141.271 230.37 141.757 230.15 142.292C229.929 142.826 229.816 143.398 229.818 143.976V154.731H370.945V143.976C370.945 143.398 370.831 142.825 370.609 142.291C370.388 141.756 370.063 141.271 369.653 140.862C369.244 140.453 368.757 140.128 368.222 139.907C367.687 139.685 367.114 139.572 366.535 139.572ZM238.489 149.493C238.027 149.495 237.575 149.359 237.189 149.104C236.804 148.849 236.504 148.486 236.325 148.06C236.147 147.634 236.1 147.165 236.188 146.712C236.277 146.259 236.499 145.843 236.825 145.516C237.151 145.189 237.567 144.966 238.02 144.875C238.473 144.784 238.943 144.83 239.37 145.006C239.797 145.182 240.162 145.481 240.419 145.865C240.676 146.248 240.813 146.7 240.813 147.161C240.811 147.776 240.565 148.365 240.13 148.8C239.694 149.235 239.105 149.48 238.489 149.483V149.493ZM247.429 149.493C246.967 149.493 246.516 149.356 246.132 149.1C245.748 148.843 245.449 148.479 245.272 148.053C245.095 147.627 245.049 147.159 245.139 146.706C245.229 146.254 245.452 145.839 245.778 145.513C246.105 145.186 246.52 144.964 246.973 144.874C247.426 144.785 247.895 144.831 248.322 145.007C248.748 145.184 249.113 145.482 249.369 145.866C249.626 146.249 249.763 146.7 249.763 147.161C249.76 147.774 249.516 148.362 249.083 148.796C248.65 149.231 248.062 149.477 247.449 149.483L247.429 149.493ZM256.368 149.493C255.907 149.493 255.455 149.356 255.071 149.1C254.688 148.843 254.388 148.479 254.212 148.053C254.035 147.627 253.989 147.159 254.079 146.706C254.169 146.254 254.391 145.839 254.718 145.513C255.044 145.186 255.46 144.964 255.913 144.874C256.366 144.785 256.835 144.831 257.262 145.007C257.688 145.184 258.053 145.482 258.309 145.866C258.566 146.249 258.703 146.7 258.703 147.161C258.7 147.769 258.46 148.352 258.033 148.786C257.606 149.22 257.027 149.47 256.418 149.483L256.368 149.493Z" fill="#1B5A96"/>
<path d="M359.84 145.455L360.992 144.304L362.641 145.951L364.29 144.304L365.442 145.455L363.793 147.102L365.442 148.749L364.29 149.899L362.641 148.253L360.992 149.899L359.84 148.749L361.489 147.102L359.84 145.455Z" fill="white"/>
<path d="M300.63 188.512L299.04 184.891C298.966 184.726 298.844 184.587 298.69 184.492C298.536 184.396 298.357 184.349 298.176 184.355H280.297C280.1 184.357 279.907 184.407 279.734 184.5C279.561 184.594 279.413 184.728 279.303 184.891L276.83 188.502C276.544 188.916 276.361 189.392 276.294 189.891L270.9 233.801C270.869 233.992 270.881 234.186 270.934 234.372C270.988 234.557 271.081 234.728 271.208 234.873C271.335 235.018 271.493 235.133 271.67 235.21C271.847 235.287 272.038 235.325 272.231 235.319H326.713C327.131 235.309 327.531 235.151 327.842 234.872C328.154 234.594 328.355 234.215 328.412 233.801L333.667 190.665C333.697 190.475 333.686 190.28 333.632 190.095C333.579 189.909 333.486 189.738 333.358 189.593C333.231 189.448 333.074 189.333 332.897 189.256C332.72 189.179 332.528 189.142 332.336 189.147H301.643C301.43 189.155 301.219 189.099 301.038 188.985C300.858 188.872 300.715 188.707 300.63 188.512Z" fill="#1B5A96"/>
<path d="M327.409 167.876H284.985V220.329H327.409V167.876Z" fill="#FFF6EB"/>
<path d="M327.131 168.134V220.041H285.243V168.124H327.131V168.134ZM327.667 167.589H284.697V220.577H327.667V167.579V167.589Z" fill="black"/>
<path d="M324.27 174.593H288.65V175.555H324.27V174.593Z" fill="#040A2E"/>
<path d="M324.27 178.234H288.65V179.196H324.27V178.234Z" fill="#040A2E"/>
<path d="M324.27 181.875H288.65V182.837H324.27V181.875Z" fill="#040A2E"/>
<path d="M324.27 185.516H288.65V186.478H324.27V185.516Z" fill="#040A2E"/>
<path d="M324.28 189.157H288.66V190.119H324.28V189.157Z" fill="#040A2E"/>
<path d="M324.27 193.195H288.65V194.157H324.27V193.195Z" fill="#040A2E"/>
<path d="M324.27 196.826H288.65V197.788H324.27V196.826Z" fill="#040A2E"/>
<path d="M324.27 200.467H288.65V201.429H324.27V200.467Z" fill="#040A2E"/>
<path d="M324.27 204.108H288.65V205.07H324.27V204.108Z" fill="#040A2E"/>
<path d="M324.27 207.749H288.65V208.711H324.27V207.749Z" fill="#040A2E"/>
<path d="M325.79 173.362L319.88 167.598L282.82 167.618L282.849 220.606L325.819 220.587L325.79 173.362Z" fill="#1B5A96"/>
<path d="M279.949 165.684L316.631 165.664L322.383 171.269L322.403 218.116L279.979 218.136L279.949 165.684Z" fill="#FFF6EB"/>
<path d="M316.512 165.971L322.105 171.418V191.617V217.878H280.217V185.05V165.971H316.512ZM316.731 165.436H279.681V218.424H322.651V171.15L316.691 165.396L316.731 165.436Z" fill="black"/>
<path d="M319.244 172.39H283.624V173.352H319.244V172.39Z" fill="black"/>
<path d="M319.244 176.031H283.624V176.994H319.244V176.031Z" fill="black"/>
<path d="M319.254 179.672H283.634V180.635H319.254V179.672Z" fill="black"/>
<path d="M319.254 183.313H283.634V184.276H319.254V183.313Z" fill="black"/>
<path d="M319.254 186.954H283.634V187.917H319.254V186.954Z" fill="black"/>
<path d="M319.244 190.992H283.624V191.955H319.244V190.992Z" fill="#040A2E"/>
<path d="M319.244 194.623H283.624V195.586H319.244V194.623Z" fill="#040A2E"/>
<path d="M319.244 198.264H283.624V199.226H319.244V198.264Z" fill="#040A2E"/>
<path d="M319.244 201.905H283.624V202.868H319.244V201.905Z" fill="#040A2E"/>
<path d="M319.254 205.546H283.634V206.509H319.254V205.546Z" fill="#040A2E"/>
<path d="M316.741 165.396L316.989 170.654L322.651 171.16L316.741 165.396Z" fill="black"/>
<path d="M322.671 216.648H279.701V183.303H286.078C286.273 183.312 286.464 183.365 286.636 183.458C286.808 183.551 286.956 183.681 287.071 183.839L288.124 185.218L288.849 186.21L289.733 187.381C289.871 187.569 290.05 187.723 290.257 187.831C290.463 187.94 290.692 187.999 290.925 188.006H320.823C321.239 188.023 321.637 188.177 321.955 188.445C322.273 188.712 322.494 189.078 322.581 189.484L322.661 189.871L322.671 216.648Z" fill="#1B5A96"/>
<path d="M286.654 189.782L284.002 186.27C283.887 186.112 283.738 185.982 283.566 185.89C283.394 185.797 283.203 185.744 283.008 185.734H265.586C265.412 185.727 265.241 185.775 265.097 185.872C264.952 185.968 264.842 186.107 264.781 186.27L263.49 189.772C263.34 190.209 263.31 190.678 263.401 191.131L271.715 233.791C271.803 234.199 272.024 234.566 272.345 234.834C272.665 235.101 273.065 235.255 273.483 235.27H326.475C326.66 235.277 326.843 235.241 327.012 235.165C327.18 235.089 327.328 234.974 327.444 234.831C327.56 234.687 327.64 234.518 327.679 234.337C327.718 234.157 327.714 233.97 327.667 233.791L319.502 191.835C319.412 191.429 319.19 191.063 318.87 190.795C318.55 190.528 318.151 190.374 317.734 190.357H287.836C287.608 190.356 287.384 190.303 287.179 190.204C286.975 190.104 286.795 189.96 286.654 189.782Z" fill="#FB9100"/>
<path d="M191.427 98.1512L185.755 94.9665L183.431 98.3694C181.598 97.812 179.681 97.5836 177.769 97.6948L176.319 93.8455L170.061 95.6015L170.836 99.6393C169.145 100.543 167.626 101.735 166.346 103.161L162.591 101.485L159.413 107.15L162.82 109.421C162.271 111.254 162.043 113.167 162.144 115.076L158.3 116.525L160.048 122.775L164.101 122.001C165.003 123.692 166.197 125.21 167.627 126.486L165.919 130.256L171.591 133.43L173.905 130.037C175.743 130.586 177.661 130.814 179.577 130.712L181.027 134.551L187.275 132.805L186.51 128.757C188.2 127.854 189.72 126.662 191 125.236L194.744 126.932L197.933 121.267L194.526 118.956C195.083 117.125 195.312 115.211 195.201 113.301L199.055 111.852L197.297 105.602L193.254 106.366C192.349 104.677 191.156 103.16 189.728 101.881L191.427 98.1512ZM188.904 119.977C187.767 122 186.056 123.641 183.986 124.692C181.916 125.743 179.58 126.158 177.274 125.883C174.968 125.608 172.795 124.657 171.031 123.148C169.267 121.64 167.99 119.643 167.362 117.41C166.733 115.177 166.783 112.808 167.503 110.603C168.223 108.398 169.581 106.456 171.406 105.022C173.232 103.588 175.442 102.727 177.757 102.547C180.073 102.368 182.389 102.879 184.414 104.014C187.12 105.537 189.112 108.069 189.954 111.055C190.795 114.041 190.418 117.239 188.904 119.948V119.977Z" fill="#040A2E"/>
<path d="M160.495 101.604L162.591 101.465V104.203C161.735 104.268 160.875 104.268 160.019 104.203C160.048 104.074 160.495 101.604 160.495 101.604Z" fill="#040A2E"/>
<path d="M174.223 93.9844L176.329 93.8455L175.584 95.3832L174.133 95.8991L174.223 93.9844Z" fill="#040A2E"/>
<path d="M183.659 95.1055L185.755 94.9766L185.596 97.1195L184.046 97.2981L183.659 95.1055Z" fill="#040A2E"/>
<path d="M195.201 105.751L197.307 105.612L196.602 108.201L194.675 108.856L195.201 105.751Z" fill="#040A2E"/>
<path d="M192.648 127.081L194.754 126.952L194.069 125.623L192.211 125.146L192.648 127.081Z" fill="#040A2E"/>
<path d="M178.931 134.71L181.027 134.571L180.808 133.768L179.338 133.708H179.289L178.931 134.71Z" fill="#040A2E"/>
<path d="M169.495 133.579L171.59 133.45L171.183 132.448L168.889 131.635L169.495 133.579Z" fill="#040A2E"/>
<path d="M157.943 122.944L160.048 122.805L159.919 121.962H157.903L157.943 122.944Z" fill="#040A2E"/>
<path d="M189.321 98.2802L183.679 95.1054L181.335 98.5084C179.502 97.9515 177.585 97.7231 175.673 97.8337L174.223 93.9844L167.965 95.7404L168.73 99.7782C167.041 100.68 165.524 101.872 164.25 103.3L160.495 101.604L157.307 107.269L160.714 109.58C160.155 111.414 159.927 113.332 160.038 115.245L156.185 116.694L157.943 122.944L161.985 122.17C162.89 123.858 164.084 125.376 165.512 126.654L163.813 130.394L169.485 133.579L171.809 130.176C173.642 130.734 175.558 130.962 177.471 130.851L178.921 134.7L185.179 132.944L184.414 128.906C186.103 128.005 187.619 126.812 188.894 125.384L192.619 127.081L195.797 121.416L192.4 119.104C192.953 117.27 193.182 115.353 193.075 113.439L196.929 111.991L195.171 105.741L191.119 106.515C190.216 104.825 189.022 103.307 187.592 102.03L189.321 98.2802ZM186.808 120.106C185.671 122.129 183.96 123.77 181.89 124.821C179.82 125.872 177.484 126.287 175.178 126.012C172.872 125.737 170.7 124.786 168.935 123.277C167.171 121.769 165.894 119.772 165.266 117.539C164.638 115.306 164.687 112.937 165.407 110.732C166.127 108.527 167.485 106.585 169.311 105.151C171.136 103.717 173.346 102.856 175.661 102.676C177.977 102.497 180.293 103.008 182.318 104.143C185.024 105.666 187.016 108.198 187.858 111.184C188.699 114.17 188.322 117.368 186.808 120.077V120.106Z" fill="#FB9100"/>
<path d="M416.656 145.078L410.448 141.605L407.915 145.316C405.911 144.714 403.817 144.466 401.727 144.582L400.138 140.375L393.264 142.29L394.109 146.715C392.258 147.699 390.597 149.002 389.202 150.564L385.109 148.709L381.623 154.899L385.348 157.429C384.742 159.434 384.49 161.529 384.603 163.62L380.391 165.197L382.318 172.033L386.738 171.19C387.723 173.038 389.028 174.697 390.592 176.091L388.735 180.188L394.933 183.66L397.476 179.95C399.479 180.557 401.574 180.806 403.664 180.684L405.253 184.891L412.087 182.976L411.253 178.561C413.096 177.57 414.752 176.268 416.15 174.712L420.252 176.557L423.738 170.366L420.083 167.836C420.69 165.832 420.939 163.736 420.818 161.646L425.03 160.068L423.063 153.233L418.643 154.076C417.651 152.232 416.347 150.574 414.789 149.175L416.656 145.078ZM413.895 168.888C412.652 171.099 410.781 172.892 408.519 174.04C406.256 175.189 403.703 175.641 401.182 175.341C398.662 175.04 396.288 174 394.359 172.351C392.431 170.702 391.035 168.52 390.349 166.079C389.663 163.638 389.717 161.049 390.504 158.639C391.291 156.228 392.776 154.105 394.771 152.538C396.766 150.971 399.182 150.03 401.712 149.834C404.243 149.638 406.775 150.196 408.988 151.437C410.465 152.261 411.765 153.369 412.812 154.696C413.859 156.024 414.632 157.545 415.088 159.173C415.544 160.8 415.674 162.502 415.469 164.179C415.264 165.857 414.729 167.477 413.895 168.948V168.888Z" fill="black"/>
<path d="M382.835 148.858L385.139 148.709V151.685C384.203 151.754 383.264 151.754 382.328 151.685C382.338 151.556 382.835 148.858 382.835 148.858Z" fill="#040A2E"/>
<path d="M397.843 140.524L400.148 140.375L399.333 142.062L397.744 142.617L397.843 140.524Z" fill="#040A2E"/>
<path d="M408.164 141.754L410.458 141.605L410.279 143.957L408.581 144.145L408.164 141.754Z" fill="#040A2E"/>
<path d="M420.779 153.381L423.073 153.233L422.318 156.07L420.202 156.784L420.779 153.381Z" fill="#040A2E"/>
<path d="M417.987 176.716L420.292 176.567L419.547 175.109L417.51 174.593L417.987 176.716Z" fill="#040A2E"/>
<path d="M402.989 185.04L405.283 184.891L405.045 184.018L403.435 183.958H403.386L402.989 185.04Z" fill="#040A2E"/>
<path d="M392.668 183.819L394.973 183.67L394.526 182.579L392.023 181.686L392.668 183.819Z" fill="#040A2E"/>
<path d="M380.053 172.182L382.348 172.033L382.199 171.12H380.004L380.053 172.182Z" fill="#040A2E"/>
<path d="M414.352 145.226L408.154 141.754L405.621 145.465C403.613 144.862 401.516 144.614 399.423 144.73L397.843 140.524L391 142.439L391.844 146.863C389.994 147.847 388.333 149.151 386.937 150.713L382.835 148.858L379.358 155.058L383.073 157.588C382.475 159.594 382.227 161.688 382.338 163.779L378.126 165.356L380.044 172.192L384.474 171.349C385.459 173.196 386.764 174.856 388.328 176.249L386.47 180.347L392.668 183.819L395.201 180.109C397.208 180.715 399.306 180.963 401.399 180.843L402.989 185.049L409.823 183.135L408.978 178.72C410.826 177.732 412.486 176.429 413.885 174.87L417.987 176.716L421.464 170.525L417.749 167.956C418.356 165.951 418.604 163.855 418.484 161.765L422.696 160.187L420.779 153.352L416.358 154.195C415.367 152.351 414.063 150.693 412.504 149.294L414.352 145.226ZM411.6 169.037C410.358 171.248 408.487 173.041 406.224 174.189C403.961 175.338 401.408 175.79 398.888 175.49C396.368 175.189 393.993 174.149 392.065 172.5C390.136 170.851 388.741 168.669 388.055 166.228C387.368 163.787 387.422 161.198 388.209 158.788C388.996 156.377 390.481 154.254 392.476 152.687C394.471 151.12 396.887 150.179 399.418 149.983C401.948 149.787 404.48 150.345 406.694 151.586C408.166 152.41 409.46 153.516 410.504 154.84C411.547 156.165 412.319 157.682 412.775 159.305C413.231 160.928 413.361 162.624 413.16 164.298C412.958 165.971 412.429 167.588 411.6 169.057V169.037Z" fill="#1B5A96"/>
<path d="M173.378 201.012C183.391 188.958 194.526 195.179 197.357 198.611C223.182 229.783 261.861 236.033 265.695 255.479C267.761 265.995 258.861 292.355 205.482 292.732C149.768 293.119 136.756 260.925 149.49 240.349C162.224 219.773 163.356 213.086 173.378 201.012Z" fill="#C66A05"/>
<path d="M199.899 291.81V291.284C208.839 291.284 214.998 285.331 217.779 279.706C220.759 273.843 221.146 265.866 215.385 261.253C211.044 257.781 205.452 257.205 200.068 256.65C191.824 255.806 183.301 254.933 178.712 244.04C171.203 226.242 183.123 196.836 183.242 196.538L183.858 196.707C183.739 197.004 171.938 226.242 179.328 243.871C183.788 254.447 191.735 255.261 200.187 256.124C205.69 256.689 211.382 257.275 215.882 260.876C221.136 265.082 222.129 272.553 218.414 279.904C215.524 285.659 209.127 291.81 199.899 291.81Z" fill="black"/>
<path d="M244.578 284.527L244.359 284.031C252.971 281.482 256.706 272.215 256.537 264.675C256.378 258.167 253.398 250.488 245.462 248.415C241.019 247.29 236.446 246.766 231.864 246.857C224.911 246.768 218.842 246.699 207.349 238.365C189.688 225.567 189.539 197.431 189.539 197.153H190.185C190.185 197.431 190.344 225.339 207.786 237.968C219.1 246.173 225.02 246.242 231.874 246.332C236.519 246.243 241.155 246.774 245.661 247.909C253.925 250.062 257.034 257.979 257.183 264.666C257.362 272.384 253.498 281.898 244.578 284.527Z" fill="black"/>
<path d="M192.132 290.758C187.417 290.327 182.757 289.42 178.226 288.049C173.817 286.742 169.592 284.882 165.651 282.513C161.928 280.285 158.67 277.362 156.055 273.902C153.656 270.666 152.004 266.939 151.218 262.989C150.837 261.071 150.647 259.12 150.652 257.165C150.652 256.173 150.652 255.181 150.731 254.249C150.811 253.316 150.9 252.314 151.059 251.352C151.627 247.463 152.626 243.65 154.039 239.982C155.471 236.249 157.161 232.619 159.095 229.119C161.081 225.587 163.207 222.174 165.502 218.741C163.306 222.174 161.24 225.686 159.383 229.218C157.514 232.741 155.888 236.387 154.516 240.131C153.83 241.976 153.274 243.851 152.748 245.736C152.255 247.61 151.873 249.512 151.605 251.431C151.447 252.423 151.387 253.356 151.298 254.308C151.208 255.26 151.188 256.233 151.228 257.195C151.235 259.121 151.431 261.042 151.814 262.929C152.561 266.827 154.166 270.511 156.512 273.714C159.08 277.125 162.268 280.022 165.909 282.256C169.781 284.64 173.94 286.526 178.285 287.871C182.79 289.303 187.43 290.27 192.132 290.758Z" fill="black"/>
<path d="M189.698 245.845C189.619 246.51 196.562 251.352 197.108 251.371C206.525 253.256 231.387 248.246 238.211 252.651C238.702 252.962 239.127 253.367 239.462 253.842C244.896 261.362 252.375 280.42 252.951 281.938C252.951 281.938 252.951 281.938 252.951 281.988L256.388 280.728C256.388 280.728 262.348 261.064 260.689 242.869C259.11 225.636 227.384 227.71 227.384 227.71C223.868 227.764 220.448 228.862 217.56 230.865C216.756 229.873 210.875 238.623 210.875 238.623L199.075 235.518C196.585 235.954 194.312 237.206 192.614 239.076C190.916 240.946 189.89 243.328 189.698 245.845Z" fill="#1B5A96"/>
<path d="M238.211 252.651C238.749 252.897 239.19 253.317 239.462 253.842C246.058 266.283 252.375 280.629 252.951 281.938C252.951 281.938 252.951 281.938 252.951 281.988C253.14 281.879 258.067 264.805 250.677 239.536C244.041 216.807 212.614 239.536 211.392 241.341L188.248 245.806C188.179 246.471 191.357 247.393 191.466 248.127L238.211 252.651Z" fill="black"/>
<path d="M257.054 279.706L257.759 286.561L254.65 287.434L251.114 280.638L257.054 279.706Z" fill="#FFCFC5"/>
<path d="M256.835 285.5C256.835 285.5 271.238 285.807 273.84 292.99L250.935 292.514C250.935 292.514 249.177 287.464 253.19 285.639C253.21 285.639 254.402 287.008 256.835 285.5Z" fill="black"/>
<path d="M250.836 291.73L266.589 292.067C266.595 290.496 266.984 288.951 267.722 287.563C267.791 287.424 267.99 287.563 267.92 287.682C267.207 289.035 266.832 290.539 266.828 292.067L273.671 292.216C273.703 292.216 273.733 292.229 273.756 292.251C273.778 292.273 273.791 292.304 273.791 292.335C273.791 292.367 273.778 292.397 273.756 292.419C273.733 292.442 273.703 292.454 273.671 292.454L266.828 292.305C266.818 292.484 266.818 292.663 266.828 292.841C266.828 292.99 266.589 292.99 266.579 292.841C266.569 292.692 266.579 292.484 266.579 292.305L250.826 291.968C250.794 291.967 250.764 291.953 250.743 291.93C250.721 291.906 250.71 291.876 250.711 291.844C250.713 291.813 250.727 291.783 250.75 291.761C250.773 291.74 250.804 291.729 250.836 291.73Z" fill="white"/>
<path d="M259.169 288.595C259.169 288.744 259.418 288.754 259.408 288.595C259.383 288.065 259.494 287.537 259.731 287.061C259.967 286.586 260.321 286.178 260.759 285.877H260.818C261.213 285.968 261.615 286.025 262.02 286.045C261.642 286.363 261.342 286.762 261.14 287.212C260.939 287.662 260.843 288.152 260.858 288.645C260.858 288.676 260.871 288.707 260.893 288.729C260.915 288.751 260.946 288.764 260.977 288.764C261.009 288.764 261.039 288.751 261.062 288.729C261.084 288.707 261.096 288.676 261.096 288.645C261.079 288.168 261.175 287.695 261.375 287.262C261.575 286.83 261.874 286.45 262.249 286.155C262.257 286.139 262.261 286.122 262.261 286.105C262.261 286.088 262.257 286.071 262.249 286.055C262.743 286.054 263.224 285.901 263.629 285.619C263.929 285.411 264.161 285.12 264.296 284.781C264.43 284.442 264.461 284.07 264.384 283.714C264.572 283.341 264.642 282.92 264.583 282.507C264.525 282.094 264.341 281.708 264.056 281.402C262.139 279.934 260.083 284.329 260.381 285.738C260.386 285.757 260.396 285.775 260.41 285.789C260.424 285.803 260.442 285.812 260.461 285.817C260.041 286.145 259.705 286.568 259.48 287.051C259.256 287.534 259.149 288.063 259.169 288.595ZM264.305 283.426C263.758 282.801 262.646 283.039 262.06 283.426C261.382 283.865 260.882 284.529 260.649 285.301C260.697 284.393 261.008 283.517 261.543 282.781C262.06 281.898 263.749 280.301 264.325 282.137C264.455 282.561 264.43 283.018 264.255 283.426H264.305ZM261.851 283.932C262.211 283.552 262.7 283.322 263.222 283.287C263.407 283.251 263.599 283.268 263.775 283.336C263.951 283.405 264.104 283.522 264.215 283.674C263.609 284.666 261.971 285.202 260.898 285.559C261.004 284.93 261.323 284.355 261.802 283.932H261.851ZM261.305 285.668C262.368 285.331 263.699 284.914 264.285 284.002V284.081C264.24 284.475 264.072 284.844 263.805 285.136C263.537 285.429 263.184 285.629 262.795 285.708C262.284 285.799 261.761 285.786 261.255 285.668H261.305Z" fill="black"/>
<path d="M259.169 281.72C259.322 281.604 259.45 281.458 259.544 281.291C259.638 281.123 259.696 280.939 259.716 280.748C259.735 280.557 259.715 280.365 259.657 280.182C259.599 279.999 259.504 279.83 259.378 279.686C259.382 279.216 259.291 278.75 259.11 278.317C258.861 277.94 249.912 279.726 249.793 281.055C249.673 282.384 250.607 282.484 250.607 282.484C250.607 282.484 249.803 283.625 250.995 283.585C252.186 283.545 256.458 283.406 259.169 281.72Z" fill="black"/>
<path d="M247.458 244.526C245.243 262.671 235.817 280.807 235.817 280.807L232.201 281.382C232.201 281.382 232.201 281.382 232.201 281.323C231.923 279.716 228.337 259.576 224.493 251.133C224.18 250.427 223.691 249.812 223.073 249.347C217.848 245.379 203.485 251.51 193.791 251.679C179.517 245.845 186.54 232.75 186.54 232.75C189.42 230.597 194.883 229.694 194.883 229.694L216.736 227.71C227.702 228.236 249.902 224.505 247.458 244.526Z" fill="#1B5A96"/>
<path d="M234.844 278.684C234.252 279.824 233.332 280.761 232.201 281.373C232.201 281.373 232.201 281.373 232.201 281.313C232.201 281.254 232.072 280.758 231.913 280.123C230.562 274.537 224.96 252.145 224.374 251.778C218.116 247.036 204.677 255.112 195.926 251.778C195.926 251.778 194.695 253.296 188.556 248.484C190.771 249.08 195.38 251.987 204.121 250.191C215.593 247.84 229.291 237.165 232.589 245.885C235.886 254.606 234.863 278.257 234.844 278.684Z" fill="black"/>
<path d="M236.631 279.894L235.986 286.75L232.768 287.008L230.632 279.646L236.631 279.894Z" fill="#FFCFC5"/>
<path d="M236.105 285.252C236.105 285.252 250.508 285.768 252.991 292.99L230.145 292.167C230.145 292.167 228.457 287.097 232.499 285.331C232.46 285.331 233.652 286.75 236.105 285.252Z" fill="black"/>
<path d="M230.016 291.383L245.76 291.958C245.791 290.385 246.203 288.843 246.962 287.464C247.031 287.335 247.24 287.464 247.16 287.593C246.428 288.938 246.03 290.438 245.998 291.968L252.842 292.216C252.874 292.216 252.904 292.229 252.926 292.251C252.949 292.273 252.961 292.304 252.961 292.335C252.961 292.367 252.949 292.397 252.926 292.419C252.904 292.442 252.874 292.454 252.842 292.454L245.998 292.206C245.998 292.385 245.998 292.554 245.998 292.742C245.998 292.931 245.76 292.881 245.76 292.742C245.76 292.603 245.76 292.385 245.76 292.206L230.006 291.641C229.972 291.64 229.94 291.625 229.916 291.6C229.893 291.574 229.881 291.541 229.882 291.507C229.883 291.473 229.898 291.44 229.923 291.417C229.949 291.394 229.982 291.382 230.016 291.383Z" fill="white"/>
<path d="M238.31 288.377C238.31 288.408 238.323 288.439 238.345 288.461C238.367 288.483 238.398 288.496 238.429 288.496C238.461 288.496 238.491 288.483 238.514 288.461C238.536 288.439 238.549 288.408 238.549 288.377C238.53 287.848 238.648 287.324 238.889 286.854C239.131 286.383 239.489 285.982 239.929 285.688H239.989C240.381 285.784 240.779 285.85 241.181 285.887C240.799 286.196 240.492 286.588 240.284 287.033C240.076 287.478 239.971 287.965 239.979 288.456C239.979 288.615 240.227 288.625 240.217 288.456C240.208 287.978 240.313 287.503 240.521 287.073C240.73 286.642 241.038 286.266 241.419 285.976C241.428 285.961 241.432 285.944 241.432 285.926C241.432 285.909 241.428 285.892 241.419 285.877C241.914 285.893 242.401 285.75 242.81 285.47C243.115 285.268 243.352 284.98 243.492 284.642C243.632 284.305 243.667 283.933 243.594 283.575C243.786 283.204 243.861 282.784 243.81 282.37C243.758 281.956 243.583 281.567 243.306 281.254C241.409 279.755 239.254 284.121 239.562 285.539C239.566 285.559 239.576 285.576 239.59 285.59C239.604 285.604 239.622 285.614 239.641 285.619C239.215 285.939 238.871 286.356 238.64 286.836C238.408 287.316 238.295 287.844 238.31 288.377ZM243.515 283.287C242.989 282.652 241.866 282.871 241.28 283.287C240.595 283.718 240.082 284.374 239.83 285.143C239.895 284.237 240.219 283.369 240.764 282.642C241.3 281.76 243.008 280.182 243.555 282.037C243.704 282.441 243.704 282.884 243.555 283.287H243.515ZM241.062 283.754C241.426 283.379 241.92 283.156 242.442 283.129C242.628 283.099 242.819 283.12 242.994 283.19C243.169 283.26 243.321 283.376 243.436 283.525C242.81 284.518 241.171 285.024 240.088 285.361C240.227 284.723 240.586 284.154 241.101 283.754H241.062ZM240.485 285.48C241.558 285.162 242.889 284.756 243.465 283.853C243.465 283.853 243.465 283.902 243.465 283.942C243.414 284.333 243.24 284.698 242.969 284.985C242.698 285.271 242.343 285.466 241.956 285.539C241.48 285.614 240.993 285.594 240.525 285.48H240.485Z" fill="black"/>
<path d="M238.31 282.265C238.488 282.183 238.645 282.063 238.773 281.915C238.901 281.767 238.996 281.594 239.053 281.407C239.109 281.219 239.125 281.022 239.1 280.828C239.075 280.634 239.009 280.448 238.906 280.281C238.998 279.823 238.998 279.351 238.906 278.892C238.727 278.476 229.609 278.476 229.222 279.755C228.834 281.035 229.748 281.313 229.748 281.313C229.748 281.313 228.755 282.305 229.907 282.474C231.059 282.642 235.33 283.406 238.31 282.265Z" fill="black"/>
<path d="M252.931 209.277C259.428 204.971 251.71 182.936 246.843 178.333L242.869 177.51C242.869 177.51 243.624 180.932 244.161 185.04C244.747 189.663 246.624 194.623 244.737 196.637C243.515 197.947 241.31 196.855 238.648 195.099C233.572 191.736 226.818 185.893 222.06 189.415C207.895 199.852 243.326 215.666 252.931 209.277Z" fill="#FFCFC5"/>
<path d="M221.325 196.518C221.632 197.809 222.079 199.063 222.656 200.258C224.116 203.483 226.492 206.208 229.49 208.096C233.115 210.298 237.804 192.679 234.009 189.772C228.238 185.357 220.63 179.771 216.13 179.156C211.63 178.541 221.325 196.518 221.325 196.518Z" fill="#FB9100"/>
<path d="M215.931 180.416C215.931 180.416 220.788 185.307 222.636 189.177C224.483 193.046 227.722 198.393 227.97 202.887C228.105 204.302 228.155 205.723 228.119 207.143L224.672 204.366C224.672 204.366 220.947 201.25 221.057 200.209C221.166 199.167 215.931 180.416 215.931 180.416Z" fill="#1B5A96"/>
<path d="M225.725 223.384C225.536 223.97 217.312 228.672 212.733 230.399C204.786 233.375 191.327 235.706 187.9 235.051C186.49 234.784 185.586 234.407 185.368 233.96C184.702 232.522 186.997 218.583 186.718 209.316C186.669 207.521 186.629 205.695 186.629 203.919C186.579 194.594 187.235 185.863 189.351 184.246C189.827 183.869 190.344 183.482 190.999 183.065C192.025 182.368 193.09 181.728 194.188 181.151C196.275 180.05 198.486 179.201 200.774 178.621C205.066 177.489 209.569 177.417 213.895 178.412C215.125 178.684 216.334 179.045 217.511 179.494L218.395 179.811C222.517 181.478 221.931 190.447 221.265 197.967C220.922 200.838 220.756 203.727 220.769 206.618C220.816 207.283 220.899 207.946 221.017 208.602C221.961 214.168 225.03 219.356 225.725 223.384Z" fill="#E2AAC7"/>
<path d="M227.483 223.593C227.294 224.188 216.478 229.248 210.349 231.758C202.492 234.982 191.327 235.726 187.89 235.051C186.48 234.784 185.576 234.407 185.358 233.96C184.692 232.522 186.987 218.583 186.708 209.316C186.659 207.521 186.619 205.695 186.619 203.919C186.569 194.594 187.225 185.863 189.341 184.246C189.817 183.869 190.334 183.482 190.99 183.065C192.015 182.368 193.08 181.728 194.178 181.151C196.265 180.05 198.476 179.201 200.764 178.621C205.056 177.489 209.559 177.417 213.885 178.412C215.115 178.684 216.324 179.045 217.501 179.494L218.385 179.811C222.507 181.478 221.921 190.447 221.255 197.967C220.967 201.479 228.377 223.176 227.483 223.593Z" fill="#FB9100"/>
<path d="M210.269 173.809V177.877C210.269 177.877 211.263 179.623 210.269 179.811C208.174 180.228 205.144 177.877 205.144 177.877V171.726L210.269 173.809Z" fill="#FFCFC5"/>
<path d="M211.203 163.461C212.498 165.71 213.474 168.128 214.104 170.644C214.63 173.144 210.26 176.805 206.227 173.541C202.194 170.277 202.85 164.761 202.85 164.761L211.203 163.461Z" fill="#FFCFC5"/>
<path d="M198.3 206.965C202.512 200.883 201.012 189.564 194.109 183.948C192.122 182.371 192.241 194.534 189.271 199.108C188.258 200.637 187.371 202.246 186.619 203.919C186.619 205.695 186.619 207.521 186.708 209.316C186.987 218.583 184.722 232.522 185.358 233.96C185.576 234.407 186.48 234.784 187.89 235.051C189.132 231.232 190.781 221.38 191.288 217.531C191.993 212.164 195.42 211.092 198.3 206.965Z" fill="#1B5A96"/>
<path d="M210.299 158.67C209.697 158.93 209.14 159.285 208.65 159.721C207.746 160.323 206.734 160.747 205.67 160.971C204.306 161.195 203.083 161.942 202.263 163.055C201.032 165.039 201.499 168.858 203.098 170.803C203.163 171.032 203.29 171.238 203.466 171.399C203.641 171.56 203.857 171.67 204.091 171.716C204.29 171.769 204.498 171.782 204.702 171.754C204.906 171.725 205.102 171.656 205.279 171.551C205.456 171.445 205.61 171.306 205.732 171.14C205.854 170.974 205.941 170.785 205.988 170.585C206.336 169.335 205.551 167.906 205.283 166.706C205.223 166.438 205.174 166.09 205.084 165.713C208.372 165.426 212.723 164.86 214.213 162.062C215.703 159.265 212.842 157.806 210.299 158.67Z" fill="black"/>
<path d="M218.633 224.902L199.492 226.063L217.809 231.192L218.633 224.902Z" fill="#040A2E"/>
<path d="M199.492 226.063L199.393 227.879L217.818 233.504L217.809 231.192L199.492 226.063Z" fill="#030047"/>
<path d="M257.421 228.801L217.809 231.192L217.818 233.504L257.411 230.855L257.421 228.801Z" fill="#FB9100"/>
<path d="M257.421 228.801L217.809 231.192L220.858 209.703C220.904 209.341 221.074 209.006 221.341 208.756C221.608 208.506 221.953 208.357 222.318 208.334L258.742 206.142C258.973 206.126 259.205 206.162 259.42 206.247C259.635 206.333 259.829 206.464 259.987 206.633C260.144 206.803 260.263 207.005 260.333 207.225C260.403 207.445 260.423 207.679 260.391 207.908L257.421 228.801Z" fill="#030047"/>
<path d="M174.6 225.825C179.944 233.315 203.674 226.281 203.674 226.281L203.336 222.134C203.336 222.134 189.43 223.265 186.609 218.642C186.103 217.799 187.602 208.185 190.165 205.695C191.327 204.594 192.549 203.493 193.602 202.58C196.191 200.37 197.943 197.342 198.568 193.998C199.067 191.303 198.83 188.524 197.883 185.952C197.622 185.269 197.201 184.657 196.656 184.168C196.111 183.678 195.457 183.326 194.749 183.139C194.04 182.952 193.298 182.935 192.582 183.092C191.866 183.248 191.198 183.572 190.632 184.038C185.934 187.857 178.375 197.649 178.186 197.927C171.511 206.648 169.236 218.315 174.6 225.825Z" fill="#FFCFC5"/>
<path d="M190.185 207.759C191.248 206.767 198.926 199.544 199.393 192.54C199.591 189.564 198.549 183.472 194.844 182.619C188.884 181.25 180.937 189.851 175.494 196.359C178.007 202.004 183.51 205.963 190.185 207.759Z" fill="#FB9100"/>
<path d="M215.534 221.172C214.506 220.854 213.427 220.74 212.355 220.835C212.226 220.835 212.097 220.835 211.968 220.765C212.045 220.654 212.114 220.538 212.177 220.418C212.534 219.634 212.584 218.315 211.62 217.928C210.657 217.541 209.952 218.811 209.435 219.446C208.838 220.207 208.104 220.85 207.27 221.34C206.383 221.635 205.467 221.831 204.538 221.926C203.883 222.045 202.79 222.075 202.393 222.729C202.096 223.414 202.03 224.177 202.204 224.902C202.383 225.636 203.028 225.984 203.674 226.281C204.226 226.522 204.807 226.693 205.402 226.787C206.442 227.156 207.565 227.222 208.64 226.976C208.87 226.91 209.093 226.824 209.306 226.718C210.246 227.112 211.279 227.236 212.286 227.075C212.388 227.059 212.484 227.02 212.569 226.961C212.653 226.902 212.723 226.825 212.773 226.735C212.822 226.645 212.851 226.545 212.856 226.442C212.861 226.339 212.843 226.237 212.802 226.142C213.013 226.089 213.205 225.979 213.359 225.825C213.525 225.652 213.618 225.42 213.617 225.18C213.811 225.074 213.988 224.94 214.143 224.783C214.395 224.541 214.571 224.232 214.651 223.892C214.73 223.552 214.709 223.197 214.59 222.868C215.582 223.384 216.465 224.085 217.193 224.932C217.276 225.023 217.381 225.091 217.498 225.13C217.616 225.169 217.741 225.178 217.862 225.155C217.984 225.132 218.097 225.079 218.192 225C218.287 224.921 218.36 224.819 218.405 224.704C219.169 223.126 216.766 221.589 215.534 221.172Z" fill="#FFCFC5"/>
<path d="M243.098 170.277C243.911 169.17 244.921 168.222 246.078 167.479C246.525 167.172 247.399 167.975 246.992 168.64C246.415 169.563 245.611 170.386 245.124 171.368C244.872 171.904 244.76 172.494 244.796 173.085C244.941 172.86 245.144 172.679 245.382 172.559C246.088 172.212 246.465 172.559 246.674 173.134C246.844 172.937 247.069 172.795 247.32 172.726C247.571 172.657 247.837 172.665 248.084 172.747C248.3 172.813 248.491 172.944 248.632 173.121C248.772 173.298 248.855 173.514 248.869 173.739C249.213 173.771 249.537 173.914 249.792 174.147C250.046 174.38 250.218 174.69 250.279 175.029C250.379 175.585 250.352 176.157 250.201 176.701C250.049 177.245 249.778 177.749 249.405 178.174V178.234C249.303 178.341 249.194 178.44 249.077 178.531C248.267 179.237 247.228 179.627 246.152 179.627C245.077 179.627 244.037 179.237 243.227 178.531C241.101 176.388 242.065 172.589 243.098 170.277Z" fill="#FFCFC5"/>
<path d="M201.419 222.521L204.121 222.303L203.902 226.093C203.455 226.084 203.01 226.161 202.591 226.321C201.866 226.589 200.376 225.656 200.605 224.733C200.794 223.968 201.067 223.226 201.419 222.521Z" fill="#1B5A96"/>
<path d="M243.326 178.333L243.545 179.553L247.359 181.121L247.617 179.722C247.618 179.57 247.648 179.42 247.708 179.28C247.768 179.14 247.855 179.014 247.965 178.908C248.362 178.492 248.958 177.509 247.389 177.569C246.015 177.703 244.655 177.958 243.326 178.333Z" fill="#FFCFC5"/>
<path d="M364.21 292.127L365.025 292.107L363.863 266.838L363.038 266.858L364.21 292.127Z" fill="black"/>
<path d="M345.377 265.39C345.377 263.654 356.691 263.515 360.168 263.515C363.644 263.515 374.958 263.654 374.958 265.39C374.958 267.126 363.634 267.255 360.168 267.255C356.701 267.255 345.377 267.166 345.377 265.39ZM360.168 264.338C352.549 264.338 347.602 264.913 346.401 265.39C347.602 265.866 352.549 266.441 360.168 266.441C367.786 266.441 372.733 265.866 373.935 265.39C372.733 264.913 367.786 264.338 360.168 264.338Z" fill="black"/>
<path d="M374.133 252.225C375.052 254.507 375.397 256.98 375.137 259.427C374.876 261.873 374.019 264.218 372.64 266.257C371.261 268.296 369.402 269.965 367.227 271.119C365.051 272.274 362.626 272.877 360.163 272.877C357.699 272.877 355.274 272.274 353.098 271.119C350.923 269.965 349.064 268.296 347.685 266.257C346.306 264.218 345.449 261.873 345.189 259.427C344.928 256.98 345.273 254.507 346.192 252.225H374.133Z" fill="#C66A05"/>
<path d="M346.192 252.225C346.192 253.445 352.45 254.437 360.168 254.437C367.885 254.437 374.133 253.445 374.133 252.225C374.133 251.004 367.876 250.022 360.168 250.022C352.46 250.022 346.192 251.004 346.192 252.225Z" fill="black"/>
<path d="M347.573 252.225C347.573 253.128 353.205 253.862 360.168 253.862C367.131 253.862 372.763 253.128 372.763 252.225C372.763 251.322 367.121 250.598 360.168 250.598C353.215 250.598 347.573 251.292 347.573 252.225Z" fill="#835F59"/>
<path opacity="0.42" d="M347.573 257.304C347.596 257.087 347.698 256.887 347.861 256.741C348.023 256.595 348.233 256.515 348.452 256.515C348.67 256.515 348.88 256.595 349.043 256.741C349.205 256.887 349.308 257.087 349.331 257.304C349.251 259.973 349.599 262.642 351.526 264.646C352.311 265.459 351.069 266.699 350.284 265.886C348.03 263.544 347.473 260.439 347.573 257.304Z" fill="white"/>
<path d="M360.168 267.255C363.634 267.255 374.958 267.126 374.958 265.39H374.133C374.132 265.339 374.15 265.29 374.183 265.251C373.686 265.747 368.541 266.441 360.168 266.441C351.794 266.441 346.639 265.747 346.152 265.251C346.167 265.296 346.167 265.345 346.152 265.39H345.338C345.377 267.166 356.691 267.255 360.168 267.255Z" fill="black"/>
<path d="M377.064 292.107L377.888 292.058L374.759 265.608L373.945 265.658L377.064 292.107Z" fill="black"/>
<path d="M343.997 292.117L346.609 265.767L345.795 265.707L343.172 292.048L343.997 292.117Z" fill="black"/>
<path d="M358.012 292.117L358.529 266.858L357.704 266.838L357.188 292.097L358.012 292.117Z" fill="black"/>
<path d="M360.158 253.534H359.383C358.777 253.534 358.191 253.534 357.625 253.534H356.88C356.492 253.534 356.125 253.534 355.767 253.534C355.41 253.534 355.251 253.534 355.012 253.534C349.817 253.227 348.179 252.621 347.92 252.373C348.169 252.125 349.718 251.55 354.565 251.223H354.943H355.33L356.582 251.163H356.959H357.347C358.27 251.163 359.095 251.163 359.87 251.163H360.654C362.095 251.163 363.455 251.163 364.707 251.282H365.541C370.557 251.59 372.147 252.195 372.405 252.443C372.067 252.8 369.664 253.435 364.31 253.653H363.932H363.515C362.393 253.653 361.26 253.713 360.168 253.713L360.158 253.534Z" fill="white"/>
<path d="M360.654 251.292C362.085 251.292 363.446 251.342 364.687 251.401H365.442H365.522C367.586 251.452 369.638 251.732 371.64 252.235C369.237 252.798 366.778 253.094 364.31 253.118H363.912H363.465C362.333 253.118 361.211 253.177 360.118 253.177H359.333C358.737 253.177 358.151 253.177 357.595 253.177C357.347 253.177 357.098 253.177 356.86 253.177C356.502 253.177 356.145 253.177 355.777 253.177H355.012C352.885 253.133 350.769 252.85 348.705 252.334C350.635 251.858 352.609 251.585 354.595 251.52H354.983H355.37C355.777 251.52 356.194 251.471 356.612 251.461H356.999H357.376C358.29 251.461 359.105 251.461 359.89 251.461L360.654 251.292ZM360.654 250.647H359.87C358.996 250.647 358.151 250.647 357.337 250.647C357.078 250.647 356.83 250.647 356.572 250.647L355.32 250.707H354.546C350.404 250.985 347.593 251.54 347.593 252.185C347.593 252.83 350.622 253.415 354.983 253.663H355.767L356.88 253.713H357.645H359.393H360.188C361.35 253.713 362.482 253.713 363.545 253.653H364.349C369.256 253.425 372.773 252.83 372.773 252.116C372.773 251.401 369.793 250.895 365.581 250.627H364.747C363.475 250.558 362.105 250.518 360.674 250.518L360.654 250.647Z" fill="black"/>
<path d="M359.979 237.601C359.433 237.274 358.935 236.873 358.499 236.411C357.863 235.776 356.87 234.734 356.88 233.752C356.88 232.948 357.734 232.76 358.29 233.246C358.709 233.728 359.075 234.254 359.383 234.813C359.933 235.452 360.637 235.94 361.429 236.232C362.446 234.581 362.771 232.595 362.333 230.706C361.568 227.78 360.217 225.039 358.36 222.65C358.095 223.342 357.762 224.007 357.367 224.634C356.969 225.299 356.373 226.559 355.569 226.827C354.764 227.095 354.575 226.361 354.714 225.755C354.706 225.723 354.706 225.689 354.714 225.656C354.714 225.597 354.714 225.547 354.764 225.498C354.78 225.451 354.811 225.413 354.853 225.388C355.3 224.535 355.847 223.712 356.204 222.829C356.472 222.185 356.687 221.522 356.85 220.845C355.046 218.732 352.802 217.039 350.274 215.884C350.747 216.938 351.138 218.026 351.446 219.138C351.774 220.2 352.648 222.452 351.844 223.493C351.73 223.64 351.571 223.745 351.392 223.794C351.213 223.842 351.023 223.831 350.851 223.761C350.284 223.444 350.354 222.293 350.344 221.777C350.394 220.56 350.243 219.344 349.897 218.176C349.514 217.114 348.983 216.112 348.318 215.2C346.721 214.817 345.057 214.817 343.46 215.2C343.969 215.599 344.321 216.164 344.454 216.797C344.553 217.382 344.195 218.731 343.46 218.781C342.467 218.841 342.378 216.489 342.259 215.567C341.282 215.92 340.352 216.39 339.487 216.965C337.955 217.986 336.678 219.344 335.752 220.934C335.762 220.966 335.762 221.001 335.752 221.033C336.08 223.603 339.358 224.486 341.315 225.478C341.921 225.785 344.195 226.847 343.897 227.76C343.748 228.246 342.904 228.256 342.557 228.176C341.575 227.869 340.677 227.34 339.934 226.629C338.144 225.349 336.481 223.9 334.968 222.303C333.578 225.56 332.923 229.083 333.051 232.621C333.079 232.609 333.109 232.603 333.14 232.603C333.171 232.603 333.201 232.609 333.229 232.621C334.384 233.102 335.638 233.3 336.885 233.196C337.668 233.056 338.465 233.01 339.259 233.057C339.914 233.147 340.947 233.95 340.202 234.615C339.457 235.28 338.156 235.042 337.391 234.942C335.892 234.725 334.439 234.262 333.09 233.573C333.09 234.426 333.21 235.161 333.299 235.726C333.542 237.151 334.073 238.512 334.86 239.725C335.648 240.937 336.675 241.977 337.878 242.78C338.686 243.305 339.557 243.725 340.471 244.03C342.254 242.587 343.602 240.677 344.364 238.514C344.672 237.601 345.358 235.061 346.639 235.141C347.225 235.141 347.632 235.895 347.742 236.401C347.776 236.834 347.721 237.269 347.581 237.68C347.441 238.091 347.218 238.469 346.927 238.792C346.232 239.784 345.467 240.706 344.781 241.708C344.096 242.71 343.441 243.633 342.725 244.556C344.39 244.78 346.084 244.645 347.692 244.159C350.215 243.375 352.857 240.766 351.456 238.077C354.238 238.623 357.565 239.02 359.979 237.601ZM337.749 230.458H337.64C337.62 230.481 337.596 230.5 337.568 230.512C337.541 230.525 337.511 230.531 337.481 230.531C337.451 230.531 337.421 230.525 337.393 230.512C337.366 230.5 337.341 230.481 337.322 230.458L337.222 230.349C336.957 230.141 336.774 229.846 336.706 229.516C336.694 229.489 336.687 229.46 336.687 229.431C336.687 229.402 336.694 229.373 336.706 229.347C336.667 229.184 336.647 229.018 336.646 228.851C336.646 228.464 336.825 228.017 337.292 228.097C337.572 228.16 337.826 228.305 338.022 228.514C338.219 228.723 338.348 228.985 338.395 229.268C338.439 229.51 338.399 229.76 338.281 229.976C338.164 230.193 337.976 230.363 337.749 230.458ZM354.208 231.093C354.146 231.175 354.068 231.243 353.978 231.293C353.888 231.343 353.789 231.373 353.687 231.381C353.584 231.39 353.481 231.376 353.384 231.342C353.288 231.308 353.199 231.253 353.125 231.182C352.956 231.015 352.835 230.804 352.778 230.573C352.72 230.342 352.727 230.1 352.797 229.873C352.804 229.841 352.82 229.812 352.843 229.789C352.866 229.766 352.895 229.751 352.927 229.744C353.133 229.648 353.36 229.607 353.587 229.626C353.813 229.645 354.031 229.724 354.218 229.853C354.377 230.021 354.465 230.244 354.464 230.475C354.462 230.706 354.37 230.928 354.208 231.093Z" fill="#1B5A96"/>
<path d="M381.464 222.769C382.836 223.27 384.263 223.603 385.715 223.761C386.394 220.925 386.519 217.984 386.083 215.1C385.074 216.17 383.879 217.047 382.557 217.69C381.394 218.225 379.408 219.138 378.365 217.938C378.327 217.897 378.306 217.844 378.306 217.789C378.306 217.734 378.327 217.68 378.365 217.64C379.487 216.708 380.987 216.797 382.338 216.39C383.76 215.939 385.022 215.088 385.973 213.94L385.884 213.225C385.616 211.092 385.248 208.979 384.821 206.876L384.762 206.995C384.583 207.362 384.245 208.136 383.768 208.215C383.292 208.294 383.152 207.759 383.252 207.412C383.381 206.886 383.897 206.419 384.106 205.943C384.235 205.626 384.344 205.318 384.444 204.951C384.086 203.284 383.699 201.618 383.311 199.991C383.311 199.872 383.162 199.832 383.053 199.842C381.404 200.07 379.726 200.308 378.087 200.576C376.214 202.257 375.031 204.573 374.769 207.074C374.7 207.818 375.166 211.717 373.388 211.241C371.61 210.765 372.395 207.273 372.763 206.072C373.353 204.278 374.239 202.594 375.385 201.092C371.582 201.752 367.899 202.976 364.459 204.723C363.82 205.992 363.533 207.408 363.63 208.825C363.726 210.242 364.201 211.608 365.005 212.779C365.372 213.344 367.478 216.003 365.78 216.301C364.349 216.549 363.227 213.741 362.989 212.699C362.755 211.131 362.755 209.536 362.989 207.967C363.041 207.045 363.218 206.134 363.515 205.259L363.396 205.328C360.833 206.856 358.429 208.83 357.605 211.836C357.278 213.166 357.197 214.545 357.367 215.904C358.011 216.88 358.746 217.794 359.562 218.632C360.421 219.357 361.357 219.986 362.353 220.507C363.048 220.974 364.24 222.422 363.207 223.166C362.383 223.771 360.833 223.037 360.038 222.7C359.711 222.571 359.403 222.422 359.095 222.273C358.966 230.408 366.048 226.242 366.048 226.242C365.998 233.692 373.597 233.762 378.285 232.016C377.809 231.926 377.342 231.837 376.875 231.768C375.941 231.609 374.988 231.559 374.064 231.371C373.14 231.182 371.65 230.547 371.859 229.258C372.038 228.146 373.478 229.039 374.004 229.337C375.829 230.48 377.93 231.107 380.083 231.153C380.31 231.023 380.529 230.881 380.739 230.726C382.382 229.588 383.741 228.087 384.712 226.341C382.905 226.308 381.102 226.146 379.318 225.855C378.017 225.627 375.971 225.279 375.345 223.93C375.328 223.897 375.32 223.861 375.321 223.824C375.323 223.787 375.333 223.751 375.352 223.719C375.371 223.688 375.397 223.661 375.429 223.643C375.461 223.624 375.497 223.614 375.534 223.613C377.068 223.526 378.596 223.869 379.944 224.605C381.504 225.459 383.293 225.806 385.06 225.597C385.271 225.162 385.457 224.714 385.616 224.257C385.616 224.257 385.616 224.208 385.616 224.178C384.17 224.02 382.749 223.687 381.384 223.186C381.096 223.077 381.216 222.67 381.464 222.769ZM378.663 207.481C378.664 207.451 378.675 207.422 378.692 207.397C378.71 207.372 378.734 207.353 378.762 207.342C378.79 207.165 378.877 207.002 379.008 206.88C379.14 206.758 379.308 206.683 379.487 206.667C379.695 206.634 379.908 206.668 380.096 206.763C380.284 206.859 380.436 207.011 380.531 207.199C380.626 207.387 380.659 207.6 380.625 207.807C380.591 208.015 380.492 208.206 380.341 208.354C380.182 208.497 379.99 208.597 379.781 208.646C379.573 208.694 379.356 208.689 379.15 208.632C378.653 208.463 378.593 207.927 378.663 207.481ZM369.505 227.482C369.364 227.596 369.189 227.659 369.008 227.659C368.827 227.659 368.651 227.596 368.511 227.482C368.485 227.465 368.463 227.441 368.448 227.413C368.432 227.386 368.424 227.355 368.424 227.323C368.424 227.291 368.432 227.26 368.448 227.233C368.463 227.205 368.485 227.181 368.511 227.164C368.508 226.884 368.607 226.613 368.789 226.4C368.855 226.327 368.938 226.27 369.03 226.236C369.123 226.201 369.222 226.19 369.32 226.202C369.418 226.215 369.511 226.252 369.592 226.309C369.673 226.366 369.738 226.441 369.783 226.529C369.866 226.694 369.884 226.884 369.833 227.061C369.781 227.238 369.664 227.388 369.505 227.482ZM370.359 211.489C370.339 211.778 370.255 212.06 370.115 212.313C369.974 212.567 369.779 212.787 369.544 212.957C368.958 213.245 368.71 212.511 368.64 212.074C368.635 212.042 368.635 212.008 368.64 211.975C368.382 211.51 368.267 210.978 368.313 210.447C368.332 210.288 368.394 210.137 368.492 210.01C368.59 209.882 368.719 209.783 368.868 209.722C369.017 209.662 369.179 209.642 369.338 209.665C369.497 209.687 369.647 209.752 369.773 209.852C370.017 210.031 370.203 210.278 370.307 210.562C370.411 210.847 370.429 211.155 370.359 211.449V211.489ZM375.961 219.426C375.833 219.552 375.669 219.637 375.492 219.669C375.315 219.7 375.132 219.678 374.968 219.604C374.752 219.513 374.577 219.348 374.471 219.139C374.366 218.93 374.338 218.691 374.392 218.464C374.398 218.428 374.412 218.395 374.433 218.366C374.454 218.336 374.481 218.312 374.512 218.295C374.544 218.278 374.579 218.268 374.615 218.266C374.651 218.265 374.686 218.271 374.719 218.285C374.778 218.201 374.854 218.131 374.943 218.079C375.032 218.028 375.131 217.996 375.233 217.987C375.335 217.977 375.438 217.99 375.534 218.025C375.631 218.059 375.719 218.114 375.792 218.186C375.94 218.336 376.036 218.53 376.067 218.739C376.097 218.947 376.06 219.16 375.961 219.347V219.426Z" fill="#FB9100"/>
<path d="M345.497 254.556C345.902 255.391 346.199 256.275 346.381 257.185C344.532 257.763 342.592 257.992 340.659 257.86C341.316 257.176 341.838 256.375 342.199 255.499C342.507 254.745 343.013 253.435 342.199 252.84C342.139 252.84 342.04 252.79 342 252.84C341.434 253.594 341.573 254.536 341.355 255.399C341.119 256.328 340.618 257.169 339.914 257.82H339.438C338.007 257.761 336.587 257.632 335.176 257.473H335.246C335.484 257.344 335.981 257.086 336.011 256.778C336.04 256.471 335.683 256.411 335.454 256.491C335.226 256.57 334.849 256.947 334.521 257.106C334.193 257.265 334.114 257.284 333.905 257.364C332.782 257.225 331.66 257.066 330.538 256.907C330.502 256.9 330.471 256.88 330.451 256.85C330.431 256.82 330.423 256.784 330.428 256.749C330.498 255.687 330.567 254.626 330.667 253.554C331.717 252.276 333.189 251.414 334.819 251.123C335.315 251.054 337.918 251.123 337.511 250.052C337.103 248.98 334.809 249.625 334.054 249.913C332.889 250.38 331.809 251.033 330.856 251.848C331.119 249.412 331.752 247.03 332.733 244.784C333.549 244.318 334.472 244.068 335.412 244.057C336.352 244.047 337.28 244.276 338.107 244.724C338.504 244.923 340.361 246.113 340.481 245.032C340.58 244.109 338.663 243.554 337.958 243.454C336.907 243.375 335.85 243.445 334.819 243.663C334.211 243.743 333.616 243.903 333.051 244.139C333.047 244.109 333.047 244.079 333.051 244.05C333.816 242.246 335.266 240.819 337.083 240.081C337.949 239.805 338.857 239.684 339.765 239.724C340.44 240.08 341.081 240.495 341.682 240.964C342.202 241.472 342.665 242.034 343.063 242.641C343.401 243.058 344.424 243.732 344.861 243.048C345.298 242.363 344.662 241.55 344.404 241.064L344.076 240.488C349.46 240.002 347.056 244.695 347.056 244.685C352.023 244.278 352.4 249.08 351.476 252.125L351.238 251.242C351.089 250.667 351.009 250.072 350.841 249.496C350.672 248.921 350.175 248.008 349.331 248.207C348.486 248.405 349.271 249.199 349.49 249.566C350.337 250.644 350.857 251.942 350.99 253.306C350.91 253.455 350.831 253.604 350.741 253.743C350.049 254.838 349.119 255.763 348.02 256.451C347.913 255.31 347.717 254.179 347.434 253.068C347.225 252.264 346.897 250.985 345.973 250.667C345.952 250.654 345.927 250.648 345.902 250.648C345.876 250.649 345.852 250.656 345.83 250.669C345.809 250.682 345.792 250.701 345.78 250.723C345.769 250.746 345.763 250.771 345.765 250.796C345.785 251.777 346.096 252.73 346.659 253.534C347.298 254.466 347.619 255.58 347.573 256.709C347.295 256.868 347.006 257.007 346.708 257.126H346.659C346.47 256.219 346.17 255.339 345.765 254.506C345.685 254.268 345.417 254.397 345.497 254.556ZM335.216 253.564C335.198 253.567 335.18 253.575 335.166 253.587C335.152 253.6 335.142 253.616 335.137 253.633C335.022 253.656 334.919 253.716 334.843 253.804C334.768 253.892 334.724 254.003 334.719 254.12C334.703 254.261 334.733 254.404 334.807 254.526C334.88 254.648 334.992 254.743 335.124 254.795C335.257 254.847 335.403 254.854 335.54 254.814C335.677 254.775 335.797 254.691 335.882 254.576C335.967 254.47 336.023 254.345 336.046 254.211C336.068 254.077 336.056 253.94 336.011 253.812C335.872 253.504 335.514 253.495 335.216 253.564ZM348.01 246.768C348.091 246.68 348.136 246.565 348.136 246.446C348.136 246.326 348.091 246.211 348.01 246.123C347.998 246.107 347.982 246.093 347.964 246.084C347.946 246.075 347.926 246.07 347.905 246.07C347.885 246.07 347.865 246.075 347.847 246.084C347.829 246.093 347.813 246.107 347.801 246.123C347.618 246.135 347.445 246.213 347.314 246.341C347.275 246.385 347.246 246.438 347.23 246.495C347.214 246.551 347.212 246.611 347.223 246.669C347.235 246.727 347.26 246.782 347.297 246.828C347.333 246.874 347.38 246.912 347.434 246.937C347.535 246.975 347.646 246.98 347.75 246.949C347.854 246.919 347.945 246.855 348.01 246.768ZM337.451 248.117C337.64 248.088 337.82 248.021 337.981 247.918C338.141 247.816 338.279 247.681 338.385 247.522C338.554 247.135 338.047 247.026 337.759 246.996H337.689C337.376 246.864 337.033 246.82 336.696 246.867C336.585 246.877 336.48 246.92 336.393 246.989C336.306 247.059 336.242 247.152 336.208 247.258C336.174 247.364 336.172 247.477 336.202 247.584C336.233 247.691 336.294 247.787 336.378 247.859C336.511 248.003 336.685 248.105 336.875 248.151C337.066 248.197 337.267 248.185 337.451 248.117ZM342.964 251.252C343.045 251.163 343.095 251.051 343.107 250.931C343.12 250.812 343.094 250.691 343.033 250.588C342.953 250.459 342.833 250.361 342.691 250.307C342.549 250.254 342.394 250.247 342.249 250.29C342.225 250.292 342.203 250.3 342.183 250.313C342.163 250.326 342.147 250.343 342.136 250.364C342.125 250.385 342.12 250.408 342.12 250.432C342.121 250.455 342.128 250.478 342.139 250.498C342.088 250.539 342.046 250.591 342.017 250.651C341.988 250.71 341.974 250.775 341.974 250.841C341.974 250.907 341.988 250.972 342.017 251.031C342.046 251.09 342.088 251.142 342.139 251.183C342.242 251.295 342.381 251.368 342.532 251.388C342.682 251.408 342.835 251.374 342.964 251.292V251.252Z" fill="#FB9100"/>
<path d="M388.208 237.145L386.718 237.046C385.725 236.956 384.285 237.125 383.44 236.44C383.415 236.419 383.395 236.392 383.381 236.362C383.367 236.332 383.36 236.3 383.36 236.267C383.36 236.234 383.367 236.201 383.381 236.171C383.395 236.141 383.415 236.115 383.44 236.093C385.01 234.774 386.728 236.222 388.407 236.292C388.594 235.04 388.624 233.77 388.496 232.512C388.425 231.582 388.21 230.668 387.861 229.803C387.032 231.133 386.03 232.348 384.881 233.414C384.394 233.801 383.133 234.982 382.487 234.506C381.841 234.03 383.013 233.147 383.391 232.899C384.998 231.953 386.44 230.754 387.662 229.347C387.074 228.104 386.079 227.1 384.841 226.499C383.911 226.053 382.93 225.72 381.921 225.507C382.149 227.075 381.921 229.416 380.451 229.803C379.457 230.081 378.772 228.881 378.702 227.938C378.703 227.398 378.839 226.866 379.097 226.391C379.356 225.917 379.729 225.514 380.182 225.22C378.648 225.06 377.101 225.043 375.564 225.17L374.739 225.249C374.738 225.279 374.738 225.309 374.739 225.339C373.878 226.77 373.299 228.353 373.031 230.002C372.971 230.597 373.229 231.4 372.912 231.986C372.405 232.879 371.471 232.135 371.332 231.42C371.074 230.101 371.69 228.444 372.117 227.204C372.296 226.678 372.484 226.132 372.693 225.587C370.8 225.932 369 226.668 367.409 227.75C366.877 228.127 366.382 228.552 365.929 229.019C365.679 230.586 365.833 232.191 366.376 233.682C366.803 234.674 367.985 236.659 366.833 237.76C366.028 238.504 365.561 237.075 365.402 236.48C364.901 234.574 364.624 232.616 364.578 230.646C363.763 231.831 363.096 233.11 362.591 234.456C362.095 235.782 361.693 237.141 361.389 238.524C362.383 239.218 363.515 239.516 364.578 240.101C365.074 240.379 366.048 240.984 365.571 241.738C364.578 243.296 362.363 241.49 361.111 240.151C361.054 240.735 361.131 241.324 361.336 241.874C361.541 242.424 361.868 242.921 362.293 243.326C363.169 244.346 364.4 244.999 365.737 245.151C367.075 245.304 368.42 244.946 369.505 244.149C369.446 244.673 369.506 245.204 369.681 245.702C369.857 246.2 370.142 246.653 370.516 247.025C370.89 247.398 371.343 247.682 371.842 247.855C372.341 248.029 372.873 248.088 373.398 248.028C374.184 247.9 374.911 247.529 375.474 246.967C374.95 247.021 374.422 247.041 373.895 247.026C373.219 247.026 372.077 246.947 371.799 246.143C371.521 245.339 372.246 245.33 372.743 245.508C373.259 245.817 373.834 246.016 374.431 246.093C375.227 246.075 376.011 245.896 376.736 245.568C377.508 244.533 378.485 243.668 379.606 243.028C380.071 242.793 380.549 242.585 381.037 242.403C380.093 242.323 378.702 242.155 378.385 241.292C377.868 239.853 380.063 239.764 380.798 239.883C381.792 240.042 382.725 240.349 383.729 240.419C384.569 240.469 385.412 240.379 386.222 240.151C386.394 240.03 386.56 239.901 386.718 239.764C387.471 239.063 387.991 238.149 388.208 237.145ZM370.418 238.196C369.971 238.196 369.763 237.651 369.713 237.204C369.66 236.818 369.722 236.425 369.892 236.073C369.883 236.037 369.883 236 369.892 235.964C369.922 235.815 369.986 235.675 370.079 235.554C370.172 235.434 370.292 235.337 370.428 235.27C370.536 235.247 370.647 235.255 370.751 235.291C370.854 235.328 370.945 235.393 371.014 235.478C371.185 235.688 371.308 235.932 371.375 236.194C371.442 236.456 371.451 236.73 371.402 236.996C371.412 237.502 370.965 238.216 370.418 238.196ZM375.971 232.859C375.87 232.613 375.855 232.339 375.929 232.084C376.003 231.828 376.161 231.605 376.378 231.45C376.416 231.423 376.461 231.405 376.507 231.4C376.59 231.329 376.689 231.279 376.795 231.253C376.902 231.228 377.013 231.227 377.119 231.252C377.226 231.278 377.325 231.327 377.408 231.398C377.492 231.468 377.557 231.558 377.6 231.658C377.718 231.915 377.742 232.204 377.667 232.476C377.593 232.749 377.425 232.986 377.193 233.147C377.103 233.227 376.995 233.284 376.878 233.314C376.761 233.343 376.638 233.343 376.521 233.315C376.404 233.287 376.295 233.231 376.205 233.151C376.114 233.072 376.044 232.971 376.001 232.859H375.971ZM375.097 242.929C375.043 243.043 374.962 243.144 374.862 243.222C374.762 243.3 374.646 243.354 374.521 243.379C374.397 243.404 374.268 243.4 374.145 243.366C374.023 243.333 373.91 243.271 373.815 243.187C373.684 243.023 373.601 242.826 373.575 242.617C373.548 242.409 373.58 242.197 373.666 242.006C373.644 241.987 373.625 241.964 373.613 241.937C373.6 241.911 373.593 241.882 373.593 241.852C373.593 241.823 373.6 241.794 373.613 241.767C373.625 241.741 373.644 241.717 373.666 241.698C373.846 241.578 374.059 241.519 374.275 241.531C374.49 241.543 374.696 241.624 374.861 241.763C375.026 241.902 375.141 242.091 375.189 242.302C375.237 242.512 375.215 242.732 375.127 242.929H375.097Z" fill="#1B5A96"/>
<path d="M363.525 253.802H364.329C364.608 252.988 364.906 252.195 365.263 251.411L365.561 250.776C367.501 246.825 370.309 243.362 373.776 240.647C374.163 240.329 373.607 239.784 373.219 240.091C369.685 242.869 366.825 246.41 364.856 250.449C364.807 250.542 364.764 250.638 364.727 250.736C364.257 251.73 363.856 252.754 363.525 253.802Z" fill="black"/>
<path d="M359.373 253.852H360.158C360.297 252.76 360.466 251.669 360.654 250.588C360.982 248.703 361.36 246.828 361.767 244.972C362.651 241.004 363.694 237.145 364.747 233.256C365.8 229.367 366.872 225.666 369.217 222.442C369.525 222.045 368.839 221.648 368.551 222.055C366.286 225.15 365.164 228.752 364.171 232.412C362.989 236.758 361.826 241.103 360.873 245.498C360.505 247.185 360.158 248.881 359.88 250.588C359.681 251.679 359.492 252.77 359.373 253.852Z" fill="black"/>
<path d="M350.066 235.974C351.075 238.043 351.925 240.185 352.609 242.383C352.708 242.69 352.797 243.008 352.887 243.315C353.59 245.759 354.14 248.244 354.536 250.756C354.695 251.748 354.834 252.74 354.953 253.733H355.737C355.608 252.74 355.469 251.748 355.31 250.697C354.96 248.454 354.489 246.232 353.9 244.04C353.781 243.633 353.671 243.226 353.542 242.819C352.808 240.324 351.864 237.895 350.721 235.557C350.552 235.121 349.847 235.518 350.066 235.974Z" fill="black"/>
<path d="M342.825 247.939C344.811 246.599 346.858 245.23 348.884 243.921C350.026 243.187 351.149 242.641 352.509 243.137L352.887 243.316C353.251 243.516 353.586 243.766 353.88 244.06C354.26 244.446 354.593 244.876 354.873 245.339C355.783 246.98 356.345 248.79 356.522 250.657C356.671 251.649 356.751 252.76 356.81 253.802H357.575C357.506 252.75 357.426 251.669 357.287 250.598C356.949 247.959 356.244 245.409 354.556 243.653C354.237 243.33 353.884 243.044 353.503 242.8C353.207 242.612 352.89 242.459 352.559 242.343C351.72 242.031 350.796 242.031 349.957 242.343C348.782 242.915 347.67 243.606 346.639 244.407L342.447 247.324C342.05 247.552 342.417 248.207 342.825 247.939Z" fill="black"/>
<path d="M290.051 132.111L283.664 124.63L281.161 121.674L278.648 118.737L267.235 132.111H272.37V139.998H284.916V132.111H290.051Z" fill="#1B5A96"/>
<path d="M282.482 267.295C282.045 266.655 281.472 266.119 280.803 265.727C280.515 265.559 279.969 265.271 279.115 264.834L278.996 264.785C278.56 264.584 278.147 264.338 277.764 264.051C277.434 263.815 277.176 263.492 277.019 263.118C276.924 262.858 276.903 262.576 276.959 262.304C277.008 262.028 277.132 261.771 277.317 261.56C277.501 261.346 277.742 261.188 278.012 261.104C278.197 261.037 278.392 261.003 278.588 261.005C278.687 260.995 278.787 260.995 278.886 261.005C279.307 261.061 279.692 261.269 279.969 261.59C280.197 261.861 280.349 262.187 280.408 262.536C280.468 262.885 280.433 263.244 280.307 263.574L281.846 263.525C282.084 263.513 282.308 263.41 282.472 263.237C282.552 263.151 282.614 263.049 282.653 262.938C282.692 262.827 282.709 262.71 282.701 262.592C282.666 261.64 282.297 260.73 281.658 260.023C281.025 259.296 280.15 258.823 279.194 258.693C278.526 258.596 277.845 258.661 277.208 258.882C276.57 259.112 276 259.497 275.549 260.003C275.085 260.524 274.773 261.162 274.645 261.848C274.528 262.514 274.593 263.2 274.834 263.832C275.123 264.618 275.629 265.306 276.294 265.817C276.841 266.205 277.427 266.538 278.042 266.809C279.035 267.305 279.423 267.523 279.572 267.612C279.959 267.837 280.297 268.137 280.565 268.495C280.761 268.797 280.874 269.144 280.893 269.503C280.912 269.861 280.837 270.218 280.674 270.539C280.509 270.861 280.258 271.132 279.949 271.323C279.654 271.517 279.309 271.624 278.956 271.63C278.67 271.643 278.384 271.598 278.116 271.497C277.848 271.397 277.603 271.243 277.396 271.045C276.945 270.648 276.661 270.095 276.602 269.497C276.587 269.352 276.587 269.206 276.602 269.061C276.61 268.943 276.594 268.825 276.555 268.714C276.516 268.603 276.454 268.502 276.373 268.416C276.294 268.328 276.197 268.258 276.09 268.209C275.982 268.159 275.866 268.132 275.748 268.128H274.446C274.306 268.699 274.279 269.293 274.367 269.874C274.5 271.018 275.044 272.075 275.897 272.851C276.708 273.598 277.772 274.012 278.876 274.011H279.035C279.805 273.985 280.553 273.752 281.201 273.337C281.849 272.928 282.38 272.356 282.74 271.68C283.1 270.997 283.268 270.23 283.226 269.459C283.184 268.689 282.934 267.944 282.502 267.305L282.482 267.295Z" fill="#1B5A96"/>
<path d="M299.199 265.509C299.131 264.79 298.957 264.084 298.683 263.416C298.113 262.026 297.141 260.838 295.892 260.003C294.63 259.127 293.127 258.662 291.591 258.673C290.585 258.671 289.588 258.867 288.658 259.25C287.728 259.634 286.884 260.197 286.173 260.908C285.462 261.619 284.899 262.464 284.516 263.393C284.133 264.322 283.938 265.318 283.942 266.322C283.943 266.917 284.009 267.509 284.141 268.088C284.137 268.128 284.137 268.168 284.141 268.207C284.392 269.199 284.84 270.131 285.457 270.947C286.075 271.763 286.85 272.447 287.737 272.96C288.47 273.406 289.283 273.706 290.13 273.843C291.887 274.164 293.701 273.87 295.266 273.009C296.537 272.294 297.572 271.226 298.246 269.934L297.689 268.942C297.611 268.808 297.499 268.698 297.365 268.621C297.231 268.545 297.079 268.505 296.925 268.505C296.769 268.504 296.615 268.544 296.481 268.623C296.346 268.702 296.235 268.815 296.16 268.951C295.777 269.616 295.256 270.191 294.632 270.638C294.008 271.084 293.295 271.392 292.542 271.539C291.789 271.687 291.012 271.671 290.266 271.494C289.519 271.316 288.819 270.98 288.213 270.509C287.295 269.816 286.632 268.839 286.326 267.731C286.331 267.682 286.331 267.632 286.326 267.582C286.264 267.317 286.218 267.049 286.187 266.779H297.888C298.188 266.802 298.487 266.729 298.742 266.57C298.914 266.457 299.049 266.297 299.13 266.108C299.211 265.919 299.235 265.711 299.199 265.509ZM286.545 264.517C286.817 263.758 287.257 263.071 287.832 262.506C288.407 261.941 289.103 261.513 289.867 261.255C290.632 260.996 291.444 260.913 292.245 261.013C293.046 261.112 293.813 261.391 294.491 261.828C295.481 262.461 296.23 263.408 296.617 264.517H286.545Z" fill="#1B5A96"/>
<path d="M315.986 266.58V265.291L314.297 264.676L315.708 263.683L315.251 262.473H314.049C313.95 262.295 313.84 262.116 313.731 261.947L314.357 260.955L313.483 259.963L312.39 260.41C312.156 260.209 311.907 260.026 311.645 259.864L311.824 258.733L310.642 258.207L309.837 259.04C309.513 258.944 309.18 258.874 308.844 258.832L308.546 257.751H307.255L306.867 258.822C306.602 258.852 306.34 258.901 306.083 258.971L305.407 258.088L304.215 258.584L304.265 259.715C304.066 259.824 303.878 259.953 303.689 260.082L302.696 259.517L301.772 260.41L302.229 261.402C302.03 261.652 301.85 261.917 301.692 262.195L300.58 262.056L300.083 263.247L300.937 264.021C300.872 264.279 300.823 264.541 300.788 264.805L299.696 265.102V266.392L301.384 266.997L299.974 267.989L300.431 269.2H302.298L301.305 270.727L302.169 271.72L303.301 271.253C303.533 271.432 303.772 271.6 304.017 271.759L303.828 272.95L305.01 273.476L305.874 272.573C306.161 272.652 306.453 272.712 306.748 272.751L307.076 273.932H308.367L308.794 272.751C309.023 272.751 309.241 272.672 309.46 272.612L310.215 273.604L311.407 273.108L311.327 271.253L312.887 272.176L313.82 271.283L313.403 270.142C313.578 269.922 313.737 269.69 313.88 269.448L315.102 269.596L315.598 268.406L314.675 267.573C314.734 267.344 314.784 267.106 314.824 266.868L315.986 266.58ZM305.606 262.354C306.402 261.857 307.343 261.644 308.276 261.75C309.209 261.857 310.078 262.275 310.742 262.938C311.406 263.601 311.825 264.47 311.932 265.401C312.038 266.333 311.825 267.273 311.327 268.069C311.036 268.588 310.606 269.017 310.086 269.309C309.29 269.806 308.348 270.018 307.415 269.912C306.483 269.806 305.613 269.387 304.949 268.724C304.285 268.061 303.866 267.193 303.76 266.261C303.654 265.33 303.867 264.389 304.364 263.594C304.653 263.073 305.084 262.643 305.606 262.354Z" fill="#1B5A96"/>
<path d="M310.513 261.134C309.481 260.579 308.297 260.371 307.137 260.54C305.978 260.71 304.904 261.248 304.074 262.075C303.245 262.903 302.704 263.975 302.533 265.133C302.362 266.291 302.568 267.473 303.123 268.505C303.572 269.431 304.321 270.179 305.248 270.628C306.28 271.179 307.462 271.384 308.619 271.213C309.777 271.041 310.848 270.503 311.675 269.676C312.503 268.85 313.042 267.78 313.214 266.624C313.385 265.468 313.18 264.287 312.628 263.257C312.179 262.334 311.435 261.587 310.513 261.134ZM310.086 269.309C309.289 269.805 308.348 270.018 307.415 269.912C306.482 269.806 305.613 269.387 304.949 268.724C304.285 268.061 303.866 267.193 303.76 266.261C303.654 265.329 303.867 264.389 304.364 263.594C304.653 263.072 305.084 262.643 305.606 262.354C306.402 261.857 307.343 261.644 308.276 261.75C309.209 261.856 310.078 262.275 310.742 262.938C311.406 263.601 311.825 264.47 311.932 265.401C312.038 266.333 311.825 267.273 311.327 268.068C311.036 268.588 310.606 269.017 310.086 269.309Z" fill="#1B5A96"/>
<path d="M319.323 258.128L319.572 257.493L319.085 257.066L319.145 256.788L319.75 256.63V255.945L319.154 255.727L319.095 255.399L319.592 255.032L319.353 254.397H318.767C318.689 254.251 318.6 254.112 318.499 253.981L318.807 253.455L318.33 252.969L317.774 253.276C317.634 253.168 317.488 253.069 317.337 252.979L317.396 252.393L316.761 252.145L316.363 252.602C316.226 252.566 316.087 252.539 315.946 252.522L315.777 251.957H315.092L314.903 252.532C314.782 252.545 314.663 252.568 314.546 252.602L314.188 252.135L313.552 252.393V252.998C313.404 253.085 313.261 253.181 313.125 253.286L312.609 253.008L312.132 253.495L312.41 254.05C312.322 254.162 312.246 254.281 312.182 254.407L311.586 254.338L311.337 254.973L311.804 255.389C311.804 255.489 311.804 255.588 311.744 255.687L311.158 255.836V256.52L311.754 256.749L311.814 257.066L311.317 257.433L311.556 258.078H312.201C312.281 258.217 312.37 258.346 312.46 258.475L312.142 259.021L312.619 259.507L313.225 259.229C313.349 259.326 313.482 259.413 313.622 259.487L313.552 260.132L314.188 260.38L314.625 259.884L314.983 259.943L315.171 260.568H315.857L316.075 259.933L316.363 259.874L316.761 260.39L317.396 260.132V259.467C317.525 259.39 317.648 259.304 317.764 259.209L318.34 259.527L318.807 259.03L318.519 258.435C318.588 258.336 318.658 258.237 318.727 258.118L319.323 258.128ZM314.794 254.07C315.293 253.962 315.814 254.03 316.269 254.261C316.724 254.493 317.085 254.874 317.29 255.341C317.496 255.808 317.534 256.331 317.398 256.823C317.261 257.314 316.959 257.744 316.542 258.038C316.393 258.152 316.22 258.23 316.036 258.267C315.536 258.378 315.012 258.313 314.555 258.083C314.097 257.852 313.734 257.471 313.526 257.003C313.319 256.535 313.281 256.009 313.418 255.516C313.555 255.023 313.858 254.593 314.277 254.298C314.431 254.186 314.607 254.108 314.794 254.07Z" fill="#1B5A96"/>
<path d="M317.774 254.506C317.377 253.987 316.817 253.617 316.183 253.455C315.55 253.294 314.88 253.351 314.283 253.618C313.687 253.884 313.197 254.345 312.895 254.924C312.593 255.503 312.495 256.167 312.619 256.808C312.679 257.222 312.854 257.61 313.125 257.929C313.521 258.449 314.082 258.819 314.715 258.98C315.349 259.141 316.019 259.084 316.615 258.818C317.212 258.551 317.702 258.091 318.004 257.512C318.306 256.933 318.403 256.269 318.28 255.627C318.229 255.211 318.052 254.82 317.774 254.506ZM316.075 258.306C315.575 258.418 315.052 258.353 314.594 258.123C314.137 257.892 313.773 257.51 313.566 257.042C313.359 256.574 313.32 256.049 313.457 255.556C313.594 255.063 313.898 254.632 314.317 254.338C314.471 254.229 314.648 254.154 314.834 254.12C315.333 254.012 315.854 254.079 316.309 254.311C316.764 254.542 317.124 254.924 317.33 255.391C317.536 255.858 317.574 256.381 317.437 256.873C317.301 257.364 316.999 257.793 316.582 258.088C316.432 258.198 316.258 258.273 316.075 258.306Z" fill="#1B5A96"/>
<path d="M310.592 255.866L310.761 255.439L310.433 255.151C310.433 255.082 310.433 255.022 310.433 254.963L310.841 254.854V254.387L310.433 254.238C310.438 254.166 310.438 254.093 310.433 254.02L310.771 253.772L310.612 253.346H310.185C310.132 253.249 310.073 253.156 310.006 253.068L310.215 252.711L309.887 252.383L309.51 252.552C309.417 252.483 309.321 252.42 309.221 252.363V251.957L308.784 251.788L308.516 252.096L308.238 252.046L308.119 251.669H307.662L307.533 252.056H307.294L307.046 251.738L306.619 251.917V252.324L306.331 252.522L305.983 252.334L305.656 252.661L305.844 253.038C305.786 253.113 305.732 253.193 305.685 253.276H305.288L305.119 253.703L305.437 253.981C305.433 254.047 305.433 254.113 305.437 254.179L305.04 254.288V254.754L305.447 254.903C305.443 254.976 305.443 255.049 305.447 255.121L305.109 255.369L305.268 255.796H305.715C305.766 255.886 305.822 255.972 305.884 256.054L305.665 256.431L305.993 256.758L306.4 256.57L306.669 256.748L306.619 257.185L307.056 257.354L307.354 257.006L307.592 257.056L307.722 257.473H308.178L308.327 257.036H308.516L308.794 257.393L309.221 257.215V256.758C309.308 256.708 309.391 256.652 309.47 256.59L309.857 256.798L310.185 256.471L309.986 256.064L310.125 255.856L310.592 255.866ZM308.506 253.197C308.775 253.303 309.005 253.486 309.169 253.723C309.334 253.96 309.424 254.241 309.428 254.529C309.433 254.817 309.352 255.1 309.196 255.342C309.04 255.585 308.815 255.775 308.55 255.89C308.286 256.005 307.993 256.039 307.709 255.988C307.425 255.937 307.163 255.802 306.955 255.602C306.747 255.402 306.603 255.145 306.542 254.864C306.48 254.582 306.504 254.289 306.609 254.02C306.678 253.841 306.782 253.677 306.915 253.538C307.049 253.399 307.208 253.288 307.385 253.211C307.561 253.135 307.752 253.094 307.944 253.091C308.137 253.089 308.328 253.125 308.506 253.197Z" fill="#1B5A96"/>
<path d="M309.668 253.564C309.41 253.174 309.023 252.889 308.574 252.756C308.125 252.624 307.644 252.655 307.216 252.842C306.787 253.029 306.439 253.362 306.231 253.78C306.024 254.199 305.972 254.678 306.083 255.131C306.115 255.288 306.179 255.437 306.271 255.568C306.53 255.957 306.917 256.243 307.366 256.375C307.815 256.508 308.296 256.477 308.724 256.29C309.153 256.103 309.501 255.77 309.708 255.351C309.916 254.933 309.968 254.454 309.857 254C309.825 253.843 309.761 253.695 309.668 253.564ZM307.444 255.915C307.174 255.811 306.942 255.628 306.776 255.392C306.61 255.155 306.519 254.875 306.513 254.586C306.507 254.297 306.587 254.013 306.743 253.77C306.899 253.527 307.123 253.335 307.388 253.22C307.653 253.104 307.947 253.07 308.231 253.121C308.516 253.172 308.779 253.306 308.987 253.507C309.195 253.707 309.338 253.965 309.4 254.247C309.461 254.529 309.437 254.823 309.331 255.092C309.189 255.45 308.911 255.738 308.557 255.892C308.204 256.047 307.803 256.055 307.444 255.915Z" fill="#1B5A96"/>
</g>
</g>
<defs>
<clipPath id="clip0_105_83">
<rect width="570" height="324" fill="white"/>
</clipPath>
<clipPath id="clip1_105_83">
<rect width="280" height="260" fill="white" transform="translate(145 33)"/>
</clipPath>
</defs>
</svg>
