<svg width="570" height="324" viewBox="0 0 570 324" fill="none" xmlns="http://www.w3.org/2000/svg">
<g clip-path="url(#clip0_105_83)">
<rect width="570" height="324" fill="#FFF6EB"/>
<g clip-path="url(#clip1_105_83)">
<path d="M471.134 293.996H98.6618C98.4786 293.979 98.3105 293.92 98.1888 293.829C98.0671 293.738 98 293.621 98 293.5C98 293.379 98.0671 293.262 98.1888 293.171C98.3105 293.08 98.4786 293.021 98.6618 293.004H471.134C471.242 292.995 471.352 293.001 471.457 293.021C471.561 293.042 471.657 293.077 471.739 293.124C471.821 293.171 471.887 293.228 471.932 293.293C471.977 293.358 472 293.429 472 293.5C472 293.571 471.977 293.642 471.932 293.707C471.887 293.772 471.821 293.829 471.739 293.876C471.657 293.923 471.561 293.958 471.457 293.979C471.352 293.999 471.242 294.005 471.134 293.996Z" fill="#030047"/>
<path d="M349 69.54C349.2 50.86 337.81 32 320.55 32C309.55 32 293.9 43.6 291.6 56.42C291.35 56.3429 291.124 56.2055 290.94 56.02C286.868 52.6941 281.721 50.972 276.468 51.1783C271.215 51.3846 266.218 53.505 262.42 57.14C258.891 60.5065 256.179 64.635 254.49 69.21C249.344 69.9142 244.623 72.443 241.185 76.3359C237.748 80.2288 235.822 85.2269 235.76 90.42C235.62 102.48 245.83 112.35 257.89 112.35H351.46C364.97 112.35 376.39 101.35 376.29 87.8C376.19 74.66 364.68 61.3 349 69.54Z" fill="black"/>
<path d="M268.62 51.21H276.69L277.44 62.11H264.93L268.62 51.21Z" fill="#040A2E"/>
<path d="M311.66 32H320.55V48.39C320.55 48.39 304 49.9 304 49.45C304 49 311.66 32 311.66 32Z" fill="#040A2E"/>
<path d="M347.38 67.02H357.7L357.01 82.45L332.6 86.07L347.38 67.02Z" fill="#040A2E"/>
<path d="M328.75 120.28L317.27 133.76L314.74 130.79L310.05 125.29L305.79 120.28H310.95V112.33H323.58V120.28H328.75Z" fill="black"/>
<path d="M313.42 133.76H317.27L319.44 128.16L310.83 125.14L313.42 133.76Z" fill="#040A2E"/>
<path d="M302.39 120.49H307.31V112.11H249C246.074 112.095 243.179 111.504 240.482 110.37C237.785 109.236 235.337 107.581 233.28 105.5C231.275 103.53 229.687 101.177 228.608 98.5817C227.529 95.9862 226.982 93.2006 227 90.3899C227.083 85.2551 228.996 80.3184 232.395 76.4686C235.794 72.6188 240.455 70.1086 245.54 69.3899H245.67V69.2699C247.356 64.726 250.051 60.6233 253.55 57.2699C257.54 53.443 262.861 51.3167 268.39 51.3399C273.284 51.3259 278.027 53.0319 281.79 56.1599C282 56.3766 282.267 56.5292 282.56 56.5999H282.76V56.4099C285.05 43.5799 300.76 32.1599 311.49 32.1599C314.705 32.1936 317.88 32.8771 320.824 34.1694C323.767 35.4618 326.419 37.3362 328.62 39.6799C335.62 46.7399 339.85 58.1699 339.73 69.5199V69.8799L340.04 69.7099C342.898 68.1313 346.096 67.27 349.36 67.1999C360.17 67.1999 366.94 77.8699 367.02 87.7499C367.043 90.9068 366.436 94.0365 365.234 96.9557C364.032 99.8748 362.259 102.525 360.02 104.75C355.36 109.44 349.032 112.094 342.42 112.13H319.42V120.51H324.34L318.21 127.7L315.69 130.7L313.32 133.47L302.39 120.49Z" fill="#FFF6EB"/>
<path d="M311.61 32.39C314.801 32.4209 317.954 33.0988 320.876 34.3827C323.798 35.6667 326.429 37.53 328.61 39.86C335.54 46.86 339.78 58.24 339.66 69.54V70.26L340.29 69.92C343.115 68.352 346.28 67.4973 349.51 67.43C360.19 67.43 366.88 77.99 366.95 87.77C366.966 90.8931 366.36 93.9882 365.167 96.8744C363.973 99.7606 362.217 102.38 360 104.58C355.381 109.232 349.106 111.864 342.55 111.9H319.3V120.7H324L318.18 127.54L315.65 130.54L313.45 133.12L302.89 120.72H307.56V111.92H249C246.101 111.908 243.233 111.323 240.561 110.199C237.889 109.075 235.466 107.434 233.43 105.37C231.458 103.406 229.898 101.067 228.844 98.4907C227.789 95.9145 227.261 93.1534 227.29 90.37C227.356 85.2895 229.241 80.401 232.602 76.5906C235.963 72.7802 240.578 70.3001 245.61 69.6H245.87L245.96 69.36C247.631 64.8515 250.301 60.7798 253.77 57.45C257.728 53.6679 262.996 51.5644 268.47 51.58C273.312 51.5694 278.004 53.2574 281.73 56.35C281.974 56.5945 282.283 56.7644 282.62 56.84H283.02L283.09 56.44C285.37 43.71 300.93 32.37 311.61 32.37V32.39ZM311.61 31.97C300.61 31.97 284.96 43.57 282.67 56.39C282.417 56.3188 282.187 56.1846 282 56C278.202 52.8386 273.411 51.1177 268.47 51.14C262.883 51.1286 257.508 53.2786 253.47 57.14C249.946 60.5099 247.234 64.6373 245.54 69.21C240.394 69.9142 235.673 72.443 232.235 76.3359C228.798 80.2288 226.872 85.2268 226.81 90.42C226.67 102.48 236.88 112.35 248.95 112.35H307.1V120.35H301.93L313.42 133.84L315.95 130.84L318.47 127.84L324.9 120.29H319.73V112.29H342.52C356.03 112.29 367.46 101.29 367.35 87.74C367.27 77.46 360.14 67 349.48 67C346.184 67.0628 342.953 67.9314 340.07 69.53C340.27 50.86 328.88 32 311.61 32V31.97Z" fill="black"/>
<path d="M248.82 90.85L254.2 90.33C254.378 91.8562 255.086 93.2715 256.2 94.33C257.337 95.221 258.757 95.672 260.2 95.6C261.624 95.6973 263.038 95.2979 264.2 94.47C264.612 94.1599 264.947 93.7601 265.181 93.3009C265.415 92.8417 265.541 92.3352 265.55 91.82C265.565 91.2192 265.363 90.6332 264.98 90.17C264.429 89.6196 263.748 89.2172 263 89C262.35 88.78 260.87 88.38 258.57 87.81C255.603 87.07 253.523 86.1666 252.33 85.1C251.531 84.423 250.891 83.5783 250.456 82.626C250.02 81.6737 249.8 80.6371 249.81 79.59C249.801 78.1837 250.216 76.8072 251 75.64C251.832 74.3883 253.025 73.4189 254.42 72.86C256.132 72.1701 257.965 71.83 259.81 71.86C263.25 71.86 265.837 72.6133 267.57 74.12C268.427 74.8678 269.115 75.7898 269.587 76.8244C270.06 77.8591 270.306 78.9826 270.31 80.12L264.78 80.37C264.659 79.2173 264.118 78.1494 263.26 77.37C262.229 76.6816 260.997 76.3577 259.76 76.45C258.426 76.376 257.103 76.7261 255.98 77.45C255.703 77.6372 255.477 77.8909 255.323 78.1879C255.17 78.4848 255.093 78.8156 255.1 79.15C255.103 79.4716 255.179 79.7884 255.323 80.0761C255.467 80.3638 255.674 80.6148 255.93 80.81C256.62 81.39 258.32 82 261.01 82.64C263.083 83.0622 265.098 83.7337 267.01 84.64C268.241 85.2817 269.277 86.2417 270.01 87.42C270.76 88.7677 271.136 90.2916 271.099 91.8336C271.062 93.3756 270.614 94.8797 269.8 96.19C268.913 97.5678 267.62 98.6368 266.1 99.25C264.185 99.9725 262.146 100.312 260.1 100.25C256.64 100.25 253.973 99.45 252.1 97.85C250.155 96.0199 248.981 93.516 248.82 90.85Z" fill="black"/>
<path d="M279.62 86L274.86 85.14C275.247 83.438 276.225 81.9284 277.62 80.88C279.379 79.8392 281.411 79.3547 283.45 79.49C285.233 79.3919 287.017 79.6784 288.68 80.33C289.691 80.7575 290.539 81.4968 291.1 82.44C291.679 83.9318 291.918 85.5341 291.8 87.13L291.74 93.26C291.709 94.5453 291.796 95.8307 292 97.1C292.197 98.0236 292.513 98.9177 292.94 99.76H287.75C287.61 99.41 287.44 98.9 287.24 98.21C287.15 97.9 287.09 97.69 287.05 97.59C286.231 98.4356 285.257 99.1148 284.18 99.59C283.147 100.033 282.034 100.257 280.91 100.25C279.146 100.344 277.414 99.749 276.08 98.59C275.14 97.6701 274.531 96.4639 274.35 95.1608C274.169 93.8577 274.426 92.5314 275.08 91.39C275.616 90.5161 276.399 89.8203 277.33 89.39C278.663 88.808 280.064 88.3948 281.5 88.16C283.235 87.8876 284.942 87.4592 286.6 86.88V86.35C286.64 85.9594 286.594 85.5649 286.466 85.1936C286.339 84.8224 286.132 84.4834 285.86 84.2C285.018 83.6773 284.026 83.4488 283.04 83.55C282.271 83.5027 281.506 83.6948 280.85 84.1C280.257 84.5946 279.829 85.257 279.62 86ZM286.62 90.25C285.572 90.5783 284.507 90.8487 283.43 91.06C282.435 91.2114 281.47 91.5185 280.57 91.97C280.263 92.171 280.01 92.4454 279.836 92.7684C279.661 93.0914 279.57 93.4528 279.57 93.82C279.568 94.1786 279.641 94.5336 279.784 94.8625C279.927 95.1913 280.137 95.4868 280.4 95.73C280.677 95.9965 281.005 96.2047 281.364 96.3421C281.723 96.4795 282.106 96.5434 282.49 96.53C283.47 96.5178 284.419 96.1919 285.2 95.6C285.795 95.1714 286.234 94.5605 286.45 93.86C286.618 93.0176 286.685 92.1583 286.65 91.3L286.62 90.25Z" fill="black"/>
<path d="M300.9 86L296.13 85.14C296.524 83.4386 297.505 81.9303 298.9 80.88C300.655 79.8394 302.684 79.3548 304.72 79.49C306.507 79.3911 308.294 79.6775 309.96 80.33C310.968 80.7574 311.813 81.497 312.37 82.44C312.949 83.9318 313.188 85.534 313.07 87.13L313 93.24C312.965 94.5316 313.049 95.8236 313.25 97.1C313.452 98.0222 313.767 98.9158 314.19 99.76H309C308.86 99.41 308.7 98.9 308.5 98.21C308.41 97.9 308.35 97.69 308.31 97.59C307.486 98.4336 306.508 99.1124 305.43 99.59C304.397 100.033 303.284 100.257 302.16 100.25C300.398 100.346 298.669 99.7502 297.34 98.59C296.762 98.0547 296.305 97.4023 296 96.6762C295.695 95.9502 295.548 95.1673 295.57 94.38C295.551 93.3248 295.828 92.2854 296.37 91.38C296.911 90.5102 297.693 89.8156 298.62 89.38C299.957 88.7981 301.361 88.3849 302.8 88.15C304.534 87.8749 306.241 87.4466 307.9 86.87V86.34C307.94 85.9485 307.894 85.5529 307.765 85.1814C307.635 84.8098 307.425 84.4713 307.15 84.19C306.308 83.6673 305.316 83.4387 304.33 83.54C303.564 83.4941 302.803 83.6862 302.15 84.09C301.545 84.5817 301.109 85.2492 300.9 86ZM307.9 90.25C306.849 90.578 305.781 90.8484 304.7 91.06C303.708 91.2127 302.747 91.5197 301.85 91.97C301.541 92.169 301.287 92.443 301.112 92.7664C300.937 93.0899 300.847 93.4523 300.85 93.82C300.846 94.1779 300.917 94.5327 301.058 94.8616C301.199 95.1905 301.408 95.4863 301.67 95.73C301.948 95.9951 302.276 96.2024 302.635 96.3397C302.994 96.477 303.376 96.5417 303.76 96.53C304.74 96.5192 305.69 96.1931 306.47 95.6C307.068 95.1746 307.508 94.5625 307.72 93.86C307.898 93.019 307.969 92.1588 307.93 91.3L307.9 90.25Z" fill="black"/>
<path d="M316.89 90.8501L322.26 90.3301C322.443 91.8548 323.15 93.2686 324.26 94.3301C325.397 95.2211 326.817 95.6721 328.26 95.6001C329.684 95.6941 331.096 95.295 332.26 94.4701C332.672 94.16 333.007 93.7602 333.241 93.301C333.475 92.8418 333.601 92.3354 333.61 91.8201C333.625 91.2193 333.423 90.6333 333.04 90.1701C332.486 89.6093 331.797 89.1996 331.04 88.9801C330.4 88.7601 328.92 88.3601 326.62 87.7901C323.653 87.0501 321.573 86.1468 320.38 85.0801C319.581 84.4031 318.941 83.5584 318.506 82.6061C318.07 81.6538 317.85 80.6172 317.86 79.5701C317.856 78.1784 318.267 76.8172 319.04 75.6601C319.872 74.4084 321.065 73.439 322.46 72.8801C324.172 72.1894 326.005 71.8493 327.85 71.8801C331.29 71.8801 333.85 72.6301 335.61 74.1401C336.467 74.8879 337.155 75.8099 337.627 76.8446C338.1 77.8792 338.346 79.0027 338.35 80.1401L332.82 80.3901C332.695 79.2385 332.155 78.1718 331.3 77.3901C330.265 76.7002 329.03 76.3764 327.79 76.4701C326.459 76.3976 325.14 76.7476 324.02 77.4701C323.743 77.6573 323.517 77.911 323.363 78.208C323.21 78.505 323.133 78.8357 323.14 79.1701C323.143 79.4907 323.218 79.8064 323.36 80.0938C323.502 80.3813 323.707 80.6329 323.96 80.8301C324.627 81.4101 326.32 82.0201 329.04 82.6601C331.113 83.0851 333.127 83.7566 335.04 84.6601C336.271 85.3018 337.307 86.2618 338.04 87.4401C338.792 88.7878 339.168 90.3125 339.129 91.8552C339.09 93.3978 338.638 94.9018 337.82 96.2101C336.938 97.5924 335.643 98.6627 334.12 99.2701C332.221 99.9874 330.2 100.327 328.17 100.27C324.7 100.27 322.05 99.4701 320.17 97.8701C318.216 96.0381 317.041 93.5245 316.89 90.8501Z" fill="black"/>
<path d="M367.09 139.82C368.151 139.82 369.168 140.241 369.918 140.991C370.669 141.742 371.09 142.759 371.09 143.82V241.17C371.09 241.568 371.011 241.962 370.857 242.33C370.703 242.697 370.478 243.03 370.194 243.309C369.91 243.588 369.573 243.808 369.203 243.956C368.834 244.104 368.438 244.177 368.04 244.17H232.92C232.124 244.17 231.361 243.854 230.799 243.291C230.236 242.729 229.92 241.966 229.92 241.17V143.83C229.92 142.769 230.341 141.752 231.092 141.001C231.842 140.251 232.859 139.83 233.92 139.83L367.09 139.82ZM367.09 139.4H233.88C232.705 139.4 231.578 139.867 230.747 140.697C229.917 141.528 229.45 142.655 229.45 143.83V241.18C229.45 242.1 229.816 242.983 230.466 243.634C231.117 244.284 232 244.65 232.92 244.65H368.05C368.971 244.65 369.855 244.285 370.507 243.634C371.16 242.984 371.527 242.101 371.53 241.18V143.83C371.53 143.247 371.415 142.67 371.192 142.132C370.969 141.594 370.641 141.105 370.229 140.694C369.816 140.282 369.327 139.956 368.788 139.734C368.25 139.512 367.673 139.399 367.09 139.4Z" fill="black"/>
<path d="M367.09 139.39H233.88C233.297 139.39 232.72 139.505 232.182 139.728C231.644 139.951 231.155 140.279 230.744 140.691C230.332 141.103 230.006 141.593 229.784 142.132C229.562 142.67 229.449 143.247 229.45 143.83V154.67H371.53V143.83C371.53 143.247 371.415 142.669 371.192 142.131C370.969 141.592 370.642 141.103 370.23 140.69C369.817 140.278 369.328 139.951 368.789 139.728C368.25 139.505 367.673 139.39 367.09 139.39ZM238.18 149.39C237.715 149.392 237.259 149.256 236.872 148.999C236.484 148.742 236.181 148.375 236.002 147.946C235.822 147.517 235.774 147.044 235.864 146.588C235.953 146.131 236.176 145.711 236.505 145.382C236.833 145.052 237.252 144.827 237.708 144.736C238.164 144.644 238.637 144.69 239.067 144.868C239.497 145.045 239.865 145.347 240.123 145.733C240.382 146.12 240.52 146.575 240.52 147.04C240.517 147.66 240.27 148.253 239.832 148.692C239.393 149.13 238.8 149.377 238.18 149.38V149.39ZM247.18 149.39C246.715 149.39 246.261 149.252 245.874 148.994C245.488 148.736 245.187 148.369 245.009 147.939C244.831 147.51 244.784 147.037 244.875 146.581C244.966 146.126 245.19 145.707 245.518 145.378C245.847 145.05 246.266 144.826 246.722 144.735C247.177 144.644 247.65 144.691 248.079 144.869C248.509 145.047 248.876 145.348 249.134 145.734C249.392 146.121 249.53 146.575 249.53 147.04C249.527 147.658 249.281 148.25 248.845 148.688C248.409 149.126 247.818 149.375 247.2 149.38L247.18 149.39ZM256.18 149.39C255.715 149.39 255.261 149.252 254.874 148.994C254.488 148.736 254.187 148.369 254.009 147.939C253.831 147.51 253.784 147.037 253.875 146.581C253.966 146.126 254.19 145.707 254.518 145.378C254.847 145.05 255.266 144.826 255.722 144.735C256.177 144.644 256.65 144.691 257.079 144.869C257.509 145.047 257.876 145.348 258.134 145.734C258.392 146.121 258.53 146.575 258.53 147.04C258.527 147.653 258.286 148.241 257.856 148.678C257.426 149.115 256.843 149.367 256.23 149.38L256.18 149.39Z" fill="#1B5A96"/>
<path d="M360.35 145.32L361.51 144.16L363.17 145.81L364.83 144.16L365.99 145.32L364.33 146.98L365.99 148.63L364.83 149.8L363.17 148.14L361.51 149.8L360.35 148.63L362.01 146.98L360.35 145.32Z" fill="white"/>
<path d="M300.74 188.72L299.14 185.07C299.065 184.904 298.942 184.764 298.787 184.668C298.632 184.572 298.452 184.524 298.27 184.53H280.27C280.072 184.532 279.877 184.582 279.703 184.677C279.529 184.771 279.38 184.906 279.27 185.07L276.78 188.71C276.492 189.128 276.307 189.607 276.24 190.11L270.81 234.37C270.779 234.562 270.791 234.758 270.844 234.945C270.898 235.132 270.992 235.304 271.12 235.45C271.248 235.596 271.407 235.713 271.585 235.79C271.763 235.868 271.956 235.906 272.15 235.9H327C327.42 235.89 327.823 235.73 328.136 235.45C328.45 235.169 328.653 234.787 328.71 234.37L334 190.89C334.031 190.698 334.019 190.502 333.966 190.315C333.912 190.129 333.818 189.956 333.69 189.81C333.562 189.664 333.403 189.548 333.225 189.47C333.047 189.392 332.854 189.355 332.66 189.36H301.76C301.545 189.368 301.333 189.311 301.151 189.197C300.969 189.083 300.826 188.917 300.74 188.72Z" fill="#1B5A96"/>
<path d="M327.7 167.92H284.99V220.79H327.7V167.92Z" fill="#FFF6EB"/>
<path d="M327.42 168.18V220.5H285.25V168.17H327.42V168.18ZM327.96 167.63H284.7V221.04H327.96V167.62V167.63Z" fill="black"/>
<path d="M324.53 174.69H288.67V175.66H324.53V174.69Z" fill="#040A2E"/>
<path d="M324.54 178.36H288.68V179.33H324.54V178.36Z" fill="#040A2E"/>
<path d="M324.54 182.03H288.68V183H324.54V182.03Z" fill="#040A2E"/>
<path d="M324.54 185.7H288.68V186.67H324.54V185.7Z" fill="#040A2E"/>
<path d="M324.54 189.37H288.68V190.34H324.54V189.37Z" fill="#040A2E"/>
<path d="M324.53 193.43H288.67V194.4H324.53V193.43Z" fill="#040A2E"/>
<path d="M324.53 197.1H288.67V198.07H324.53V197.1Z" fill="#040A2E"/>
<path d="M324.54 200.77H288.68V201.74H324.54V200.77Z" fill="#040A2E"/>
<path d="M324.54 204.44H288.68V205.41H324.54V204.44Z" fill="#040A2E"/>
<path d="M324.54 208.11H288.68V209.08H324.54V208.11Z" fill="#040A2E"/>
<path d="M326.07 173.44L320.12 167.64L282.81 167.66L282.84 221.07L326.09 221.05L326.07 173.44Z" fill="#1B5A96"/>
<path d="M279.92 165.71L316.84 165.69L322.63 171.34L322.66 218.56L279.95 218.58L279.92 165.71Z" fill="#FFF6EB"/>
<path d="M316.73 166L322.36 171.49V191.85V218.32H280.19V185.23V166H316.73ZM316.95 165.46H279.65V218.87H322.91V171.22L316.91 165.42L316.95 165.46Z" fill="black"/>
<path d="M319.48 172.47H283.62V173.44H319.48V172.47Z" fill="black"/>
<path d="M319.48 176.14H283.62V177.11H319.48V176.14Z" fill="black"/>
<path d="M319.48 179.81H283.62V180.78H319.48V179.81Z" fill="black"/>
<path d="M319.48 183.48H283.62V184.45H319.48V183.48Z" fill="black"/>
<path d="M319.49 187.15H283.63V188.12H319.49V187.15Z" fill="black"/>
<path d="M319.47 191.21H283.61V192.18H319.47V191.21Z" fill="#040A2E"/>
<path d="M319.48 194.88H283.62V195.85H319.48V194.88Z" fill="#040A2E"/>
<path d="M319.48 198.55H283.62V199.52H319.48V198.55Z" fill="#040A2E"/>
<path d="M319.48 202.22H283.62V203.19H319.48V202.22Z" fill="#040A2E"/>
<path d="M319.48 205.89H283.62V206.86H319.48V205.89Z" fill="#040A2E"/>
<path d="M316.95 165.42L317.21 170.71L322.91 171.22L316.95 165.42Z" fill="black"/>
<path d="M322.93 217.08H279.67V183.47H286.09C286.287 183.479 286.479 183.532 286.652 183.626C286.825 183.719 286.975 183.851 287.09 184.01L288.15 185.4L288.88 186.4L289.77 187.58C289.909 187.77 290.089 187.925 290.297 188.034C290.505 188.143 290.735 188.203 290.97 188.21H321.07C321.488 188.227 321.889 188.383 322.21 188.652C322.53 188.922 322.752 189.291 322.84 189.7L322.92 190.09L322.93 217.08Z" fill="#1B5A96"/>
<path d="M286.67 190L284 186.46C283.884 186.301 283.734 186.17 283.561 186.077C283.388 185.984 283.196 185.93 283 185.92H265.46C265.285 185.913 265.113 185.962 264.968 186.059C264.822 186.156 264.711 186.296 264.65 186.46L263.35 189.99C263.199 190.431 263.168 190.903 263.26 191.36L271.63 234.36C271.719 234.771 271.942 235.141 272.264 235.411C272.587 235.68 272.99 235.835 273.41 235.85H326.76C326.946 235.858 327.131 235.822 327.3 235.745C327.47 235.668 327.619 235.552 327.736 235.407C327.852 235.263 327.933 235.092 327.972 234.91C328.011 234.729 328.007 234.54 327.96 234.36L319.74 192.07C319.65 191.66 319.426 191.291 319.104 191.022C318.782 190.752 318.38 190.597 317.96 190.58H287.86C287.631 190.579 287.405 190.526 287.199 190.425C286.993 190.325 286.812 190.18 286.67 190Z" fill="#FB9100"/>
<path d="M190.8 97.64L185.09 94.43L182.75 97.86C180.905 97.2982 178.975 97.0679 177.05 97.18L175.59 93.3L169.29 95.07L170.07 99.14C168.368 100.051 166.839 101.253 165.55 102.69L161.77 101L158.57 106.71L162 109C161.448 110.847 161.218 112.775 161.32 114.7L157.45 116.16L159.21 122.46L163.29 121.68C164.198 123.384 165.4 124.914 166.84 126.2L165.12 130L170.83 133.2L173.16 129.78C175.01 130.333 176.942 130.563 178.87 130.46L180.33 134.33L186.62 132.57L185.85 128.49C187.552 127.579 189.081 126.377 190.37 124.94L194.14 126.65L197.35 120.94L193.92 118.61C194.481 116.765 194.711 114.835 194.6 112.91L198.48 111.45L196.71 105.15L192.64 105.92C191.729 104.218 190.527 102.689 189.09 101.4L190.8 97.64ZM188.26 119.64C187.116 121.679 185.393 123.333 183.309 124.392C181.225 125.452 178.873 125.87 176.552 125.593C174.23 125.316 172.043 124.357 170.267 122.836C168.49 121.316 167.205 119.303 166.572 117.053C165.94 114.802 165.99 112.414 166.714 110.191C167.439 107.968 168.807 106.011 170.645 104.565C172.482 103.12 174.707 102.252 177.038 102.071C179.369 101.891 181.702 102.405 183.74 103.55C186.465 105.085 188.47 107.636 189.317 110.646C190.164 113.657 189.784 116.88 188.26 119.61V119.64Z" fill="#040A2E"/>
<path d="M159.66 101.12L161.77 100.98V103.74C160.908 103.805 160.042 103.805 159.18 103.74C159.21 103.61 159.66 101.12 159.66 101.12Z" fill="#040A2E"/>
<path d="M173.48 93.44L175.59 93.3L174.84 94.85L173.38 95.36L173.48 93.44Z" fill="#040A2E"/>
<path d="M182.97 94.5699L185.09 94.4299L184.92 96.5999L183.37 96.7799L182.97 94.5699Z" fill="#040A2E"/>
<path d="M194.6 105.29L196.71 105.16L196.01 107.76L194.06 108.43L194.6 105.29Z" fill="#040A2E"/>
<path d="M192.03 126.8L194.14 126.66L193.46 125.32L191.58 124.84L192.03 126.8Z" fill="#040A2E"/>
<path d="M178.21 134.48L180.33 134.34L180.1 133.53L178.63 133.48H178.57L178.21 134.48Z" fill="#040A2E"/>
<path d="M168.71 133.35L170.83 133.21L170.42 132.21L168.11 131.38L168.71 133.35Z" fill="#040A2E"/>
<path d="M157.09 122.63L159.21 122.49L159.07 121.64H157.05L157.09 122.63Z" fill="#040A2E"/>
<path d="M188.68 97.7699L183 94.5699L180.64 97.9999C178.795 97.4387 176.865 97.2085 174.94 97.3199L173.48 93.4399L167.18 95.2099L167.95 99.2799C166.25 100.189 164.723 101.391 163.44 102.83L159.66 101.12L156.45 106.83L159.88 109.16C159.318 111.008 159.087 112.941 159.2 114.87L155.32 116.33L157.09 122.63L161.16 121.85C162.071 123.552 163.273 125.081 164.71 126.37L163 130.14L168.71 133.35L171.05 129.92C172.895 130.482 174.825 130.712 176.75 130.6L178.21 134.48L184.51 132.71L183.74 128.64C185.44 127.731 186.967 126.529 188.25 125.09L192 126.8L195.2 121.09L191.78 118.76C192.337 116.911 192.567 114.978 192.46 113.05L196.34 111.59L194.57 105.29L190.49 106.07C189.581 104.367 188.38 102.836 186.94 101.55L188.68 97.7699ZM186.15 119.77C185.006 121.809 183.283 123.463 181.199 124.522C179.115 125.582 176.763 126 174.442 125.723C172.12 125.446 169.933 124.486 168.157 122.966C166.38 121.446 165.095 119.433 164.462 117.183C163.83 114.932 163.88 112.544 164.604 110.321C165.329 108.098 166.697 106.14 168.535 104.695C170.372 103.25 172.597 102.382 174.928 102.201C177.259 102.02 179.592 102.535 181.63 103.68C184.355 105.215 186.36 107.766 187.207 110.776C188.054 113.786 187.674 117.01 186.15 119.74V119.77Z" fill="#FB9100"/>
<path d="M417.55 144.94L411.3 141.44L408.75 145.18C406.732 144.574 404.624 144.323 402.52 144.44L400.92 140.2L394 142.13L394.85 146.59C392.987 147.582 391.315 148.895 389.91 150.47L385.79 148.6L382.28 154.84L386.03 157.39C385.42 159.411 385.166 161.522 385.28 163.63L381.04 165.22L382.98 172.11L387.43 171.26C388.422 173.123 389.735 174.795 391.31 176.2L389.44 180.33L395.68 183.83L398.24 180.09C400.257 180.702 402.366 180.952 404.47 180.83L406.07 185.07L412.95 183.14L412.11 178.69C413.965 177.691 415.633 176.378 417.04 174.81L421.17 176.67L424.68 170.43L421 167.88C421.611 165.859 421.861 163.747 421.74 161.64L425.98 160.05L424 153.16L419.55 154.01C418.552 152.152 417.239 150.48 415.67 149.07L417.55 144.94ZM414.77 168.94C413.519 171.168 411.635 172.976 409.357 174.133C407.079 175.291 404.509 175.747 401.972 175.444C399.434 175.141 397.044 174.092 395.102 172.431C393.161 170.769 391.756 168.569 391.065 166.109C390.374 163.648 390.428 161.039 391.221 158.609C392.013 156.18 393.508 154.04 395.517 152.46C397.525 150.88 399.957 149.932 402.505 149.734C405.053 149.536 407.602 150.099 409.83 151.35C411.317 152.181 412.625 153.297 413.679 154.635C414.733 155.974 415.512 157.507 415.972 159.147C416.431 160.788 416.561 162.503 416.355 164.194C416.148 165.885 415.61 167.518 414.77 169V168.94Z" fill="black"/>
<path d="M383.5 148.75L385.82 148.6V151.6C384.878 151.67 383.932 151.67 382.99 151.6C383 151.47 383.5 148.75 383.5 148.75Z" fill="#040A2E"/>
<path d="M398.61 140.35L400.92 140.2L400.11 141.9L398.51 142.46L398.61 140.35Z" fill="#040A2E"/>
<path d="M408.99 141.59L411.3 141.44L411.12 143.81L409.42 144L408.99 141.59Z" fill="#040A2E"/>
<path d="M421.7 153.31L424.01 153.16L423.24 156.01L421.12 156.74L421.7 153.31Z" fill="#040A2E"/>
<path d="M418.89 176.82L421.2 176.67L420.45 175.21L418.4 174.68L418.89 176.82Z" fill="#040A2E"/>
<path d="M403.79 185.22L406.1 185.07L405.85 184.19L404.24 184.13H404.18L403.79 185.22Z" fill="#040A2E"/>
<path d="M393.4 183.98L395.71 183.83L395.27 182.74L392.74 181.84L393.4 183.98Z" fill="#040A2E"/>
<path d="M380.69 172.26L383.01 172.11L382.86 171.18H380.65L380.69 172.26Z" fill="#040A2E"/>
<path d="M415.23 145.09L408.99 141.59L406.44 145.33C404.419 144.723 402.307 144.473 400.2 144.59L398.61 140.35L391.72 142.28L392.57 146.74C390.707 147.732 389.035 149.046 387.63 150.62L383.5 148.75L380 155L383.74 157.55C383.138 159.572 382.888 161.683 383 163.79L378.76 165.38L380.69 172.27L385.15 171.42C386.142 173.283 387.455 174.955 389.03 176.36L387.16 180.49L393.4 183.99L395.95 180.25C397.971 180.861 400.083 181.111 402.19 180.99L403.79 185.23L410.67 183.3L409.82 178.85C411.68 177.854 413.352 176.541 414.76 174.97L418.89 176.83L422.39 170.59L418.65 168C419.261 165.98 419.511 163.867 419.39 161.76L423.63 160.17L421.7 153.28L417.25 154.13C416.252 152.272 414.939 150.6 413.37 149.19L415.23 145.09ZM412.46 169.09C411.209 171.318 409.325 173.126 407.047 174.283C404.769 175.441 402.199 175.897 399.662 175.594C397.124 175.291 394.734 174.242 392.792 172.581C390.851 170.919 389.446 168.719 388.755 166.259C388.064 163.798 388.118 161.189 388.911 158.759C389.703 156.33 391.198 154.19 393.207 152.61C395.215 151.03 397.647 150.082 400.195 149.884C402.743 149.686 405.292 150.249 407.52 151.5C409.002 152.331 410.305 153.446 411.356 154.781C412.406 156.116 413.183 157.645 413.642 159.281C414.101 160.916 414.233 162.626 414.03 164.313C413.827 166 413.294 167.63 412.46 169.11V169.09Z" fill="#1B5A96"/>
<path d="M172.63 201.32C182.71 189.17 193.92 195.44 196.77 198.9C222.77 230.32 261.71 236.62 265.57 256.22C267.65 266.82 258.69 293.39 204.95 293.77C148.86 294.16 135.76 261.71 148.58 240.97C161.4 220.23 162.54 213.49 172.63 201.32Z" fill="#C66A05"/>
<path d="M199.33 292.84V292.31C208.33 292.31 214.53 286.31 217.33 280.64C220.33 274.73 220.72 266.69 214.92 262.04C210.55 258.54 204.92 257.96 199.5 257.4C191.2 256.55 182.62 255.67 178 244.69C170.44 226.75 182.44 197.11 182.56 196.81L183.18 196.98C183.06 197.28 171.18 226.75 178.62 244.52C183.11 255.18 191.11 256 199.62 256.87C205.16 257.44 210.89 258.03 215.42 261.66C220.71 265.9 221.71 273.43 217.97 280.84C215.06 286.64 208.62 292.84 199.33 292.84Z" fill="black"/>
<path d="M244.31 285.5L244.09 285C252.76 282.43 256.52 273.09 256.35 265.49C256.19 258.93 253.19 251.19 245.2 249.1C240.728 247.966 236.123 247.438 231.51 247.53C224.51 247.44 218.4 247.37 206.83 238.97C189.05 226.07 188.9 197.71 188.9 197.43H189.55C189.55 197.71 189.71 225.84 207.27 238.57C218.66 246.84 224.62 246.91 231.52 247C236.197 246.911 240.865 247.446 245.4 248.59C253.72 250.76 256.85 258.74 257 265.48C257.18 273.26 253.29 282.85 244.31 285.5Z" fill="black"/>
<path d="M191.51 291.78C186.763 291.346 182.072 290.431 177.51 289.05C173.071 287.732 168.818 285.857 164.85 283.47C161.102 281.224 157.822 278.277 155.19 274.79C152.774 271.528 151.111 267.771 150.32 263.79C149.936 261.857 149.745 259.891 149.75 257.92C149.75 256.92 149.75 255.92 149.83 254.98C149.91 254.04 150 253.03 150.16 252.06C150.731 248.14 151.737 244.297 153.16 240.6C154.602 236.837 156.303 233.178 158.25 229.65C160.25 226.09 162.39 222.65 164.7 219.19C162.49 222.65 160.41 226.19 158.54 229.75C156.658 233.301 155.021 236.976 153.64 240.75C152.95 242.61 152.39 244.5 151.86 246.4C151.364 248.289 150.98 250.206 150.71 252.14C150.55 253.14 150.49 254.08 150.4 255.04C150.31 256 150.29 256.98 150.33 257.95C150.337 259.891 150.534 261.827 150.92 263.73C151.672 267.659 153.288 271.372 155.65 274.6C158.235 278.038 161.444 280.959 165.11 283.21C169.009 285.613 173.195 287.515 177.57 288.87C182.105 290.313 186.776 291.288 191.51 291.78Z" fill="black"/>
<path d="M189.06 246.51C188.98 247.18 195.97 252.06 196.52 252.08C206 253.98 231.03 248.93 237.9 253.37C238.395 253.684 238.823 254.091 239.16 254.57C244.63 262.15 252.16 281.36 252.74 282.89C252.74 282.89 252.74 282.89 252.74 282.94L256.2 281.67C256.2 281.67 262.2 261.85 260.53 243.51C258.94 226.14 227 228.23 227 228.23C223.461 228.284 220.018 229.391 217.11 231.41C216.3 230.41 210.38 239.23 210.38 239.23L198.5 236.1C195.993 236.539 193.705 237.801 191.995 239.686C190.286 241.572 189.253 243.973 189.06 246.51Z" fill="#1B5A96"/>
<path d="M237.9 253.37C238.442 253.618 238.886 254.041 239.16 254.57C245.8 267.11 252.16 281.57 252.74 282.89C252.74 282.89 252.74 282.89 252.74 282.94C252.93 282.83 257.89 265.62 250.45 240.15C243.77 217.24 212.13 240.15 210.9 241.97L187.6 246.47C187.53 247.14 190.73 248.07 190.84 248.81L237.9 253.37Z" fill="black"/>
<path d="M256.86 280.63L257.58 287.54L254.45 288.43L250.89 281.57L256.86 280.63Z" fill="#FFCFC5"/>
<path d="M256.65 286.48C256.65 286.48 271.15 286.79 273.77 294.03L250.71 293.55C250.71 293.55 248.94 288.46 252.98 286.62C253 286.62 254.2 288 256.65 286.48Z" fill="black"/>
<path d="M250.61 292.76L266.47 293.1C266.476 291.517 266.867 289.958 267.61 288.56C267.68 288.42 267.88 288.56 267.81 288.68C267.092 290.043 266.715 291.559 266.71 293.1L273.6 293.25C273.632 293.25 273.662 293.263 273.685 293.285C273.707 293.308 273.72 293.338 273.72 293.37C273.72 293.402 273.707 293.432 273.685 293.455C273.662 293.477 273.632 293.49 273.6 293.49L266.71 293.34C266.7 293.52 266.7 293.7 266.71 293.88C266.71 294.03 266.47 294.03 266.46 293.88C266.45 293.73 266.46 293.52 266.46 293.34L250.6 293C250.568 292.999 250.538 292.985 250.517 292.961C250.495 292.938 250.484 292.907 250.485 292.875C250.486 292.843 250.5 292.813 250.524 292.792C250.547 292.77 250.578 292.759 250.61 292.76Z" fill="white"/>
<path d="M259 289.6C259 289.75 259.25 289.76 259.24 289.6C259.215 289.065 259.327 288.533 259.565 288.054C259.803 287.575 260.159 287.164 260.6 286.86H260.66C261.058 286.952 261.462 287.009 261.87 287.03C261.49 287.35 261.187 287.752 260.984 288.206C260.782 288.66 260.685 289.153 260.7 289.65C260.7 289.682 260.713 289.712 260.735 289.735C260.758 289.757 260.788 289.77 260.82 289.77C260.852 289.77 260.882 289.757 260.905 289.735C260.927 289.712 260.94 289.682 260.94 289.65C260.923 289.17 261.019 288.693 261.22 288.257C261.422 287.821 261.723 287.438 262.1 287.14C262.108 287.125 262.112 287.107 262.112 287.09C262.112 287.073 262.108 287.056 262.1 287.04C262.597 287.039 263.082 286.885 263.49 286.6C263.792 286.391 264.026 286.097 264.161 285.755C264.296 285.414 264.327 285.039 264.25 284.68C264.44 284.304 264.509 283.88 264.45 283.463C264.391 283.047 264.206 282.658 263.92 282.35C261.99 280.87 259.92 285.3 260.22 286.72C260.225 286.739 260.235 286.757 260.249 286.771C260.263 286.785 260.281 286.795 260.3 286.8C259.877 287.131 259.539 287.557 259.313 288.044C259.087 288.53 258.98 289.064 259 289.6ZM264.17 284.39C263.62 283.76 262.5 284 261.91 284.39C261.228 284.832 260.724 285.502 260.49 286.28C260.538 285.364 260.851 284.482 261.39 283.74C261.91 282.85 263.61 281.24 264.19 283.09C264.321 283.518 264.297 283.979 264.12 284.39H264.17ZM261.7 284.9C262.062 284.517 262.555 284.285 263.08 284.25C263.267 284.213 263.46 284.23 263.637 284.3C263.814 284.369 263.968 284.487 264.08 284.64C263.47 285.64 261.82 286.18 260.74 286.54C260.847 285.905 261.168 285.326 261.65 284.9H261.7ZM261.15 286.65C262.22 286.31 263.56 285.89 264.15 284.97V285.05C264.105 285.447 263.936 285.819 263.667 286.114C263.397 286.408 263.041 286.61 262.65 286.69C262.136 286.782 261.609 286.768 261.1 286.65H261.15Z" fill="black"/>
<path d="M259 282.67C259.154 282.553 259.282 282.406 259.377 282.238C259.471 282.069 259.53 281.883 259.55 281.691C259.57 281.498 259.55 281.304 259.491 281.12C259.433 280.936 259.337 280.766 259.21 280.62C259.214 280.147 259.122 279.677 258.94 279.24C258.69 278.86 249.68 280.66 249.56 282C249.44 283.34 250.38 283.44 250.38 283.44C250.38 283.44 249.57 284.59 250.77 284.55C251.97 284.51 256.27 284.37 259 282.67Z" fill="black"/>
<path d="M247.21 245.18C244.98 263.47 235.49 281.75 235.49 281.75L231.85 282.33C231.85 282.33 231.85 282.33 231.85 282.27C231.57 280.65 227.96 260.35 224.09 251.84C223.774 251.128 223.282 250.508 222.66 250.04C217.4 246.04 202.94 252.22 193.18 252.39C178.81 246.51 185.88 233.31 185.88 233.31C188.78 231.14 194.28 230.23 194.28 230.23L216.28 228.23C227.32 228.76 249.67 225 247.21 245.18Z" fill="#1B5A96"/>
<path d="M234.51 279.61C233.915 280.759 232.988 281.704 231.85 282.32C231.85 282.32 231.85 282.32 231.85 282.26C231.85 282.2 231.72 281.7 231.56 281.06C230.2 275.43 224.56 252.86 223.97 252.49C217.67 247.71 204.14 255.85 195.33 252.49C195.33 252.49 194.09 254.02 187.91 249.17C190.14 249.77 194.78 252.7 203.58 250.89C215.13 248.52 228.92 237.76 232.24 246.55C235.56 255.34 234.53 279.18 234.51 279.61Z" fill="black"/>
<path d="M236.31 280.82L235.66 287.74L232.41 288L230.27 280.57L236.31 280.82Z" fill="#FFCFC5"/>
<path d="M235.78 286.23C235.78 286.23 250.28 286.75 252.78 294.03L229.78 293.2C229.78 293.2 228.08 288.09 232.15 286.31C232.11 286.31 233.31 287.74 235.78 286.23Z" fill="black"/>
<path d="M229.65 292.41L245.5 292.99C245.531 291.404 245.946 289.85 246.71 288.46C246.78 288.33 246.99 288.46 246.91 288.59C246.173 289.945 245.771 291.458 245.74 293L252.63 293.25C252.662 293.25 252.692 293.263 252.715 293.285C252.737 293.308 252.75 293.338 252.75 293.37C252.75 293.402 252.737 293.432 252.715 293.455C252.692 293.477 252.662 293.49 252.63 293.49L245.74 293.24C245.74 293.42 245.74 293.59 245.74 293.78C245.74 293.97 245.5 293.92 245.5 293.78C245.5 293.64 245.5 293.42 245.5 293.24L229.64 292.67C229.606 292.669 229.573 292.654 229.55 292.628C229.526 292.603 229.514 292.57 229.515 292.535C229.516 292.501 229.531 292.468 229.557 292.445C229.582 292.421 229.616 292.409 229.65 292.41Z" fill="white"/>
<path d="M238 289.38C238 289.412 238.013 289.442 238.035 289.465C238.058 289.487 238.088 289.5 238.12 289.5C238.152 289.5 238.182 289.487 238.205 289.465C238.227 289.442 238.24 289.412 238.24 289.38C238.222 288.847 238.34 288.319 238.583 287.845C238.826 287.37 239.187 286.966 239.63 286.67H239.69C240.084 286.767 240.486 286.834 240.89 286.87C240.505 287.182 240.197 287.577 239.987 288.026C239.777 288.475 239.672 288.965 239.68 289.46C239.68 289.62 239.93 289.63 239.92 289.46C239.911 288.978 240.016 288.5 240.226 288.065C240.436 287.631 240.746 287.252 241.13 286.96C241.139 286.945 241.143 286.928 241.143 286.91C241.143 286.893 241.139 286.875 241.13 286.86C241.628 286.876 242.119 286.732 242.53 286.45C242.837 286.247 243.076 285.956 243.217 285.616C243.357 285.275 243.393 284.901 243.32 284.54C243.513 284.166 243.588 283.743 243.536 283.325C243.485 282.908 243.308 282.516 243.03 282.2C241.12 280.69 238.95 285.09 239.26 286.52C239.265 286.539 239.275 286.557 239.289 286.571C239.303 286.585 239.321 286.595 239.34 286.6C238.911 286.923 238.565 287.343 238.332 287.827C238.099 288.311 237.985 288.843 238 289.38ZM243.24 284.25C242.71 283.61 241.58 283.83 240.99 284.25C240.3 284.684 239.783 285.345 239.53 286.12C239.596 285.207 239.922 284.333 240.47 283.6C241.01 282.71 242.73 281.12 243.28 282.99C243.43 283.397 243.43 283.843 243.28 284.25H243.24ZM240.77 284.72C241.137 284.342 241.634 284.117 242.16 284.09C242.347 284.06 242.539 284.082 242.715 284.152C242.891 284.223 243.045 284.339 243.16 284.49C242.53 285.49 240.88 286 239.79 286.34C239.93 285.697 240.291 285.124 240.81 284.72H240.77ZM240.19 286.46C241.27 286.14 242.61 285.73 243.19 284.82C243.19 284.82 243.19 284.87 243.19 284.91C243.138 285.304 242.963 285.672 242.69 285.961C242.418 286.25 242.06 286.446 241.67 286.52C241.191 286.595 240.701 286.575 240.23 286.46H240.19Z" fill="black"/>
<path d="M238 283.22C238.179 283.136 238.337 283.016 238.466 282.867C238.595 282.718 238.691 282.543 238.748 282.354C238.804 282.166 238.82 281.967 238.795 281.771C238.769 281.576 238.703 281.388 238.6 281.22C238.693 280.758 238.693 280.282 238.6 279.82C238.42 279.4 229.24 279.4 228.85 280.69C228.46 281.98 229.38 282.26 229.38 282.26C229.38 282.26 228.38 283.26 229.54 283.43C230.7 283.6 235 284.37 238 283.22Z" fill="black"/>
<path d="M252.72 209.65C259.26 205.31 251.49 183.1 246.59 178.46L242.59 177.63C242.59 177.63 243.35 181.08 243.89 185.22C244.48 189.88 246.37 194.88 244.47 196.91C243.24 198.23 241.02 197.13 238.34 195.36C233.23 191.97 226.43 186.08 221.64 189.63C207.38 200.15 243.05 216.09 252.72 209.65Z" fill="#FFCFC5"/>
<path d="M220.9 196.79C221.21 198.091 221.659 199.355 222.24 200.56C223.71 203.81 226.102 206.557 229.12 208.46C232.77 210.68 237.49 192.92 233.67 189.99C227.86 185.54 220.2 179.91 215.67 179.29C211.14 178.67 220.9 196.79 220.9 196.79Z" fill="#FB9100"/>
<path d="M215.47 180.56C215.47 180.56 220.36 185.49 222.22 189.39C224.08 193.29 227.34 198.68 227.59 203.21C227.726 204.636 227.776 206.068 227.74 207.5L224.27 204.7C224.27 204.7 220.52 201.56 220.63 200.51C220.74 199.46 215.47 180.56 215.47 180.56Z" fill="#1B5A96"/>
<path d="M225.33 223.87C225.14 224.46 216.86 229.2 212.25 230.94C204.25 233.94 190.7 236.29 187.25 235.63C185.83 235.36 184.92 234.98 184.7 234.53C184.03 233.08 186.34 219.03 186.06 209.69C186.01 207.88 185.97 206.04 185.97 204.25C185.92 194.85 186.58 186.05 188.71 184.42C189.19 184.04 189.71 183.65 190.37 183.23C191.403 182.527 192.474 181.882 193.58 181.3C195.681 180.19 197.907 179.334 200.21 178.75C204.531 177.609 209.065 177.537 213.42 178.54C214.658 178.813 215.875 179.178 217.06 179.63L217.95 179.95C222.1 181.63 221.51 190.67 220.84 198.25C220.495 201.144 220.328 204.056 220.34 206.97C220.388 207.641 220.471 208.308 220.59 208.97C221.54 214.58 224.63 219.81 225.33 223.87Z" fill="#E2AAC7"/>
<path d="M227.1 224.08C226.91 224.68 216.02 229.78 209.85 232.31C201.94 235.56 190.7 236.31 187.24 235.63C185.82 235.36 184.91 234.98 184.69 234.53C184.02 233.08 186.33 219.03 186.05 209.69C186 207.88 185.96 206.04 185.96 204.25C185.91 194.85 186.57 186.05 188.7 184.42C189.18 184.04 189.7 183.65 190.36 183.23C191.393 182.527 192.464 181.882 193.57 181.3C195.671 180.19 197.897 179.334 200.2 178.75C204.521 177.609 209.055 177.537 213.41 178.54C214.648 178.813 215.865 179.178 217.05 179.63L217.94 179.95C222.09 181.63 221.5 190.67 220.83 198.25C220.54 201.79 228 223.66 227.1 224.08Z" fill="#FB9100"/>
<path d="M209.77 173.9V178C209.77 178 210.77 179.76 209.77 179.95C207.66 180.37 204.61 178 204.61 178V171.8L209.77 173.9Z" fill="#FFCFC5"/>
<path d="M210.71 163.47C212.013 165.737 212.996 168.173 213.63 170.71C214.16 173.23 209.76 176.92 205.7 173.63C201.64 170.34 202.3 164.78 202.3 164.78L210.71 163.47Z" fill="#FFCFC5"/>
<path d="M197.72 207.32C201.96 201.19 200.45 189.78 193.5 184.12C191.5 182.53 191.62 194.79 188.63 199.4C187.61 200.941 186.717 202.563 185.96 204.25C185.96 206.04 185.96 207.88 186.05 209.69C186.33 219.03 184.05 233.08 184.69 234.53C184.91 234.98 185.82 235.36 187.24 235.63C188.49 231.78 190.15 221.85 190.66 217.97C191.37 212.56 194.82 211.48 197.72 207.32Z" fill="#1B5A96"/>
<path d="M209.8 158.64C209.193 158.902 208.633 159.26 208.14 159.7C207.229 160.307 206.211 160.734 205.14 160.96C203.766 161.185 202.535 161.939 201.71 163.06C200.47 165.06 200.94 168.91 202.55 170.87C202.616 171.101 202.744 171.309 202.92 171.471C203.097 171.633 203.315 171.744 203.55 171.79C203.75 171.844 203.959 171.857 204.165 171.828C204.37 171.8 204.568 171.73 204.746 171.624C204.924 171.518 205.079 171.377 205.202 171.209C205.324 171.042 205.412 170.852 205.46 170.65C205.81 169.39 205.02 167.95 204.75 166.74C204.69 166.47 204.64 166.12 204.55 165.74C207.86 165.45 212.24 164.88 213.74 162.06C215.24 159.24 212.36 157.77 209.8 158.64Z" fill="black"/>
<path d="M218.18 225.4L198.91 226.56L217.36 231.74L218.18 225.4Z" fill="#040A2E"/>
<path d="M198.91 226.56L198.81 228.39L217.36 234.06V231.74L198.91 226.56Z" fill="#030047"/>
<path d="M257.24 229.33L217.36 231.74V234.06L257.23 231.4L257.24 229.33Z" fill="#FB9100"/>
<path d="M257.24 229.33L217.36 231.74L220.43 210.08C220.476 209.715 220.648 209.377 220.916 209.125C221.185 208.873 221.533 208.723 221.9 208.7L258.57 206.49C258.803 206.475 259.036 206.511 259.252 206.597C259.469 206.682 259.664 206.815 259.823 206.986C259.982 207.156 260.101 207.36 260.171 207.582C260.242 207.804 260.262 208.039 260.23 208.27L257.24 229.33Z" fill="#030047"/>
<path d="M173.86 226.33C179.24 233.88 203.13 226.79 203.13 226.79L202.79 222.61C202.79 222.61 188.79 223.75 185.95 219.09C185.44 218.24 186.95 208.55 189.53 206.04C190.7 204.93 191.93 203.82 192.99 202.9C195.596 200.673 197.361 197.62 197.99 194.25C198.491 191.534 198.253 188.733 197.3 186.14C197.037 185.451 196.613 184.834 196.065 184.341C195.516 183.848 194.858 183.492 194.145 183.304C193.431 183.115 192.684 183.099 191.963 183.257C191.242 183.414 190.569 183.741 190 184.21C185.27 188.06 177.66 197.93 177.47 198.21C170.75 207 168.46 218.76 173.86 226.33Z" fill="#FFCFC5"/>
<path d="M189.55 208.12C190.62 207.12 198.35 199.84 198.82 192.78C199.02 189.78 197.97 183.64 194.24 182.78C188.24 181.4 180.24 190.07 174.76 196.63C177.29 202.32 182.83 206.31 189.55 208.12Z" fill="#FB9100"/>
<path d="M215.07 221.64C214.036 221.32 212.949 221.204 211.87 221.3C211.74 221.3 211.61 221.3 211.48 221.23C211.557 221.118 211.627 221.001 211.69 220.88C212.05 220.09 212.1 218.76 211.13 218.37C210.16 217.98 209.45 219.26 208.93 219.9C208.329 220.667 207.59 221.315 206.75 221.81C205.858 222.107 204.936 222.305 204 222.4C203.34 222.52 202.24 222.55 201.84 223.21C201.542 223.9 201.475 224.669 201.65 225.4C201.83 226.14 202.48 226.49 203.13 226.79C203.686 227.033 204.271 227.205 204.87 227.3C205.916 227.672 207.047 227.738 208.13 227.49C208.361 227.424 208.585 227.337 208.8 227.23C209.747 227.628 210.786 227.752 211.8 227.59C211.902 227.574 212 227.535 212.085 227.475C212.17 227.416 212.24 227.338 212.29 227.247C212.34 227.156 212.369 227.056 212.374 226.952C212.379 226.848 212.361 226.745 212.32 226.65C212.532 226.596 212.726 226.485 212.88 226.33C213.048 226.155 213.141 225.922 213.14 225.68C213.335 225.573 213.514 225.438 213.67 225.28C213.923 225.036 214.101 224.724 214.181 224.382C214.261 224.039 214.239 223.681 214.12 223.35C215.118 223.87 216.007 224.576 216.74 225.43C216.824 225.522 216.93 225.591 217.048 225.63C217.166 225.669 217.292 225.678 217.414 225.655C217.536 225.632 217.651 225.578 217.746 225.498C217.842 225.419 217.915 225.316 217.96 225.2C218.73 223.61 216.31 222.06 215.07 221.64Z" fill="#FFCFC5"/>
<path d="M242.82 170.34C243.639 169.224 244.656 168.268 245.82 167.52C246.27 167.21 247.15 168.02 246.74 168.69C246.16 169.62 245.35 170.45 244.86 171.44C244.606 171.98 244.493 172.575 244.53 173.17C244.676 172.944 244.88 172.761 245.12 172.64C245.83 172.29 246.21 172.64 246.42 173.22C246.591 173.021 246.818 172.878 247.071 172.809C247.323 172.739 247.591 172.747 247.84 172.83C248.058 172.897 248.25 173.028 248.391 173.207C248.532 173.385 248.616 173.603 248.63 173.83C248.976 173.862 249.303 174.006 249.559 174.241C249.816 174.476 249.988 174.788 250.05 175.13C250.15 175.691 250.123 176.267 249.971 176.815C249.819 177.364 249.545 177.871 249.17 178.3V178.36C249.067 178.468 248.957 178.568 248.84 178.66C248.024 179.372 246.978 179.764 245.895 179.764C244.812 179.764 243.766 179.372 242.95 178.66C240.81 176.5 241.78 172.67 242.82 170.34Z" fill="#FFCFC5"/>
<path d="M200.86 223L203.58 222.78L203.36 226.6C202.909 226.591 202.461 226.669 202.04 226.83C201.31 227.1 199.81 226.16 200.04 225.23C200.231 224.459 200.506 223.711 200.86 223Z" fill="#1B5A96"/>
<path d="M243.05 178.46L243.27 179.69L247.11 181.27L247.37 179.86C247.37 179.707 247.401 179.555 247.462 179.414C247.522 179.274 247.61 179.146 247.72 179.04C248.12 178.62 248.72 177.63 247.14 177.69C245.757 177.825 244.388 178.082 243.05 178.46Z" fill="#FFCFC5"/>
<path d="M364.74 293.15L365.57 293.14L364.39 267.67L363.57 267.69L364.74 293.15Z" fill="black"/>
<path d="M345.79 266.21C345.79 264.46 357.18 264.32 360.68 264.32C364.18 264.32 375.57 264.46 375.57 266.21C375.57 267.96 364.17 268.09 360.68 268.09C357.19 268.09 345.79 268 345.79 266.21ZM360.68 265.15C353.01 265.15 348.03 265.73 346.82 266.21C348.03 266.69 353.01 267.27 360.68 267.27C368.35 267.27 373.33 266.69 374.54 266.21C373.33 265.73 368.35 265.15 360.68 265.15Z" fill="black"/>
<path d="M374.74 252.94C375.665 255.241 376.012 257.733 375.75 260.199C375.488 262.665 374.625 265.029 373.237 267.084C371.848 269.139 369.977 270.822 367.787 271.985C365.597 273.149 363.155 273.757 360.675 273.757C358.195 273.757 355.753 273.149 353.563 271.985C351.373 270.822 349.502 269.139 348.113 267.084C346.725 265.029 345.862 262.665 345.6 260.199C345.338 257.733 345.685 255.241 346.61 252.94H374.74Z" fill="#C66A05"/>
<path d="M346.61 252.94C346.61 254.17 352.91 255.17 360.68 255.17C368.45 255.17 374.74 254.17 374.74 252.94C374.74 251.71 368.44 250.72 360.68 250.72C352.92 250.72 346.61 251.71 346.61 252.94Z" fill="black"/>
<path d="M348 252.94C348 253.85 353.67 254.59 360.68 254.59C367.69 254.59 373.36 253.85 373.36 252.94C373.36 252.03 367.68 251.3 360.68 251.3C353.68 251.3 348 252 348 252.94Z" fill="#835F59"/>
<path opacity="0.42" d="M348 258.06C348.023 257.841 348.126 257.639 348.29 257.492C348.453 257.345 348.665 257.264 348.885 257.264C349.105 257.264 349.317 257.345 349.48 257.492C349.643 257.639 349.747 257.841 349.77 258.06C349.69 260.75 350.04 263.44 351.98 265.46C352.77 266.28 351.52 267.53 350.73 266.71C348.46 264.35 347.9 261.22 348 258.06Z" fill="white"/>
<path d="M360.68 268.09C364.17 268.09 375.57 267.96 375.57 266.21H374.74C374.739 266.159 374.757 266.109 374.79 266.07C374.29 266.57 369.11 267.27 360.68 267.27C352.25 267.27 347.06 266.57 346.57 266.07C346.585 266.115 346.585 266.165 346.57 266.21H345.75C345.79 268 357.18 268.09 360.68 268.09Z" fill="black"/>
<path d="M377.69 293.14L378.51 293.08L375.37 266.43L374.54 266.48L377.69 293.14Z" fill="black"/>
<path d="M344.39 293.14L347.02 266.59L346.2 266.53L343.57 293.08L344.39 293.14Z" fill="black"/>
<path d="M358.5 293.15L359.02 267.69L358.2 267.67L357.68 293.13L358.5 293.15Z" fill="black"/>
<path d="M360.67 254.26H359.89C359.28 254.26 358.69 254.26 358.12 254.26H357.37C356.98 254.26 356.61 254.26 356.25 254.26C355.89 254.26 355.73 254.26 355.49 254.26C350.26 253.95 348.61 253.34 348.35 253.09C348.6 252.84 350.16 252.26 355.04 251.93H355.42H355.81L357.07 251.87H357.45H357.84C358.77 251.87 359.6 251.87 360.38 251.87H361.17C362.62 251.87 363.99 251.87 365.25 251.99H366.09C371.14 252.3 372.74 252.91 373 253.16C372.66 253.52 370.24 254.16 364.85 254.38H364.47H364.05C362.92 254.38 361.78 254.44 360.68 254.44L360.67 254.26Z" fill="white"/>
<path d="M361.17 252C362.61 252 363.98 252.05 365.23 252.11H365.99H366.07C368.148 252.161 370.214 252.443 372.23 252.95C369.81 253.518 367.335 253.817 364.85 253.84H364.45H364C362.86 253.84 361.73 253.9 360.63 253.9H359.84C359.24 253.9 358.65 253.9 358.09 253.9C357.84 253.9 357.59 253.9 357.35 253.9C356.99 253.9 356.63 253.9 356.26 253.9H355.49C353.348 253.855 351.218 253.57 349.14 253.05C351.083 252.57 353.07 252.295 355.07 252.23H355.46H355.85C356.26 252.23 356.68 252.18 357.1 252.17H357.49H357.87C358.79 252.17 359.61 252.17 360.4 252.17L361.17 252ZM361.17 251.35H360.38C359.5 251.35 358.65 251.35 357.83 251.35C357.57 251.35 357.32 251.35 357.06 251.35L355.8 251.41H355.02C350.85 251.69 348.02 252.25 348.02 252.9C348.02 253.55 351.07 254.14 355.46 254.39H356.25L357.37 254.44H358.14H359.9H360.7C361.87 254.44 363.01 254.44 364.08 254.38H364.89C369.83 254.15 373.37 253.55 373.37 252.83C373.37 252.11 370.37 251.6 366.13 251.33H365.29C364.01 251.26 362.63 251.22 361.19 251.22L361.17 251.35Z" fill="black"/>
<path d="M360.49 238.2C359.941 237.87 359.439 237.466 359 237C358.36 236.36 357.36 235.31 357.37 234.32C357.37 233.51 358.23 233.32 358.79 233.81C359.211 234.296 359.58 234.826 359.89 235.39C360.444 236.034 361.153 236.526 361.95 236.82C362.974 235.155 363.301 233.154 362.86 231.25C362.09 228.3 360.729 225.538 358.86 223.13C358.593 223.828 358.258 224.498 357.86 225.13C357.46 225.8 356.86 227.07 356.05 227.34C355.24 227.61 355.05 226.87 355.19 226.26C355.182 226.227 355.182 226.193 355.19 226.16C355.19 226.1 355.19 226.05 355.24 226C355.256 225.954 355.288 225.914 355.33 225.89C355.78 225.03 356.33 224.2 356.69 223.31C356.959 222.662 357.176 221.993 357.34 221.31C355.524 219.181 353.265 217.474 350.72 216.31C351.195 217.372 351.59 218.469 351.9 219.59C352.23 220.66 353.11 222.93 352.3 223.98C352.185 224.128 352.026 224.234 351.845 224.282C351.665 224.331 351.473 224.32 351.3 224.25C350.73 223.93 350.8 222.77 350.79 222.25C350.84 221.024 350.688 219.797 350.34 218.62C349.955 217.55 349.42 216.54 348.75 215.62C347.143 215.234 345.467 215.234 343.86 215.62C344.372 216.022 344.726 216.592 344.86 217.23C344.96 217.82 344.6 219.18 343.86 219.23C342.86 219.29 342.77 216.92 342.65 215.99C341.667 216.347 340.73 216.82 339.86 217.4C338.318 218.429 337.032 219.797 336.1 221.4C336.109 221.433 336.109 221.467 336.1 221.5C336.43 224.09 339.73 224.98 341.7 225.98C342.31 226.29 344.6 227.36 344.3 228.28C344.15 228.77 343.3 228.78 342.95 228.7C341.961 228.391 341.058 227.857 340.31 227.14C338.508 225.85 336.833 224.39 335.31 222.78C333.91 226.063 333.252 229.614 333.38 233.18C333.408 233.168 333.439 233.162 333.47 233.162C333.501 233.162 333.532 233.168 333.56 233.18C334.722 233.665 335.985 233.864 337.24 233.76C338.028 233.619 338.831 233.572 339.63 233.62C340.29 233.71 341.33 234.52 340.58 235.19C339.83 235.86 338.52 235.62 337.75 235.52C336.241 235.301 334.778 234.835 333.42 234.14C333.42 235 333.54 235.74 333.63 236.31C333.874 237.746 334.409 239.118 335.202 240.34C335.995 241.563 337.028 242.611 338.24 243.42C339.053 243.949 339.93 244.372 340.85 244.68C342.646 243.225 344.003 241.3 344.77 239.12C345.08 238.2 345.77 235.64 347.06 235.72C347.65 235.72 348.06 236.48 348.17 236.99C348.204 237.426 348.149 237.865 348.008 238.279C347.867 238.694 347.643 239.075 347.35 239.4C346.65 240.4 345.88 241.33 345.19 242.34C344.5 243.35 343.84 244.28 343.12 245.21C344.796 245.436 346.501 245.3 348.12 244.81C350.66 244.02 353.32 241.39 351.91 238.68C354.71 239.23 358.06 239.63 360.49 238.2ZM338.11 231H338C337.98 231.023 337.956 231.042 337.928 231.055C337.9 231.067 337.87 231.074 337.84 231.074C337.81 231.074 337.779 231.067 337.752 231.055C337.724 231.042 337.7 231.023 337.68 231L337.58 230.89C337.312 230.681 337.128 230.383 337.06 230.05C337.048 230.023 337.041 229.994 337.041 229.965C337.041 229.936 337.048 229.907 337.06 229.88C337.021 229.716 337.001 229.548 337 229.38C337 228.99 337.18 228.54 337.65 228.62C337.931 228.684 338.187 228.83 338.385 229.041C338.583 229.251 338.713 229.515 338.76 229.8C338.804 230.044 338.764 230.296 338.646 230.514C338.528 230.733 338.339 230.904 338.11 231ZM354.68 231.64C354.618 231.723 354.539 231.792 354.449 231.842C354.358 231.892 354.258 231.922 354.155 231.931C354.052 231.939 353.949 231.926 353.851 231.891C353.754 231.856 353.665 231.802 353.59 231.73C353.419 231.561 353.298 231.349 353.24 231.116C353.182 230.883 353.189 230.639 353.26 230.41C353.267 230.378 353.283 230.349 353.306 230.326C353.329 230.303 353.358 230.287 353.39 230.28C353.597 230.183 353.827 230.142 354.055 230.162C354.283 230.181 354.502 230.26 354.69 230.39C354.851 230.559 354.939 230.784 354.937 231.017C354.936 231.25 354.843 231.474 354.68 231.64Z" fill="#1B5A96"/>
<path d="M382.12 223.25C383.501 223.755 384.938 224.091 386.4 224.25C387.084 221.391 387.209 218.427 386.77 215.52C385.754 216.598 384.552 217.482 383.22 218.13C382.05 218.67 380.05 219.59 379 218.38C378.962 218.339 378.941 218.286 378.941 218.23C378.941 218.174 378.962 218.121 379 218.08C380.13 217.14 381.64 217.23 383 216.82C384.432 216.365 385.703 215.508 386.66 214.35L386.57 213.63C386.3 211.48 385.93 209.35 385.5 207.23L385.44 207.35C385.26 207.72 384.92 208.5 384.44 208.58C383.96 208.66 383.82 208.12 383.92 207.77C384.05 207.24 384.57 206.77 384.78 206.29C384.91 205.97 385.02 205.66 385.12 205.29C384.76 203.61 384.37 201.93 383.98 200.29C383.98 200.17 383.83 200.13 383.72 200.14C382.06 200.37 380.37 200.61 378.72 200.88C376.834 202.574 375.644 204.908 375.38 207.43C375.31 208.18 375.78 212.11 373.99 211.63C372.2 211.15 372.99 207.63 373.36 206.42C373.954 204.611 374.846 202.914 376 201.4C372.172 202.065 368.464 203.299 365 205.06C364.357 206.339 364.069 207.767 364.165 209.195C364.262 210.623 364.74 211.999 365.55 213.18C365.92 213.75 368.04 216.43 366.33 216.73C364.89 216.98 363.76 214.15 363.52 213.1C363.285 211.519 363.285 209.911 363.52 208.33C363.573 207.4 363.751 206.482 364.05 205.6L363.93 205.67C361.35 207.21 358.93 209.2 358.1 212.23C357.771 213.57 357.689 214.96 357.86 216.33C358.509 217.314 359.249 218.235 360.07 219.08C360.935 219.81 361.877 220.444 362.88 220.97C363.58 221.44 364.78 222.9 363.74 223.65C362.91 224.26 361.35 223.52 360.55 223.18C360.22 223.05 359.91 222.9 359.6 222.75C359.47 230.95 366.6 226.75 366.6 226.75C366.55 234.26 374.2 234.33 378.92 232.57C378.44 232.48 377.97 232.39 377.5 232.32C376.56 232.16 375.6 232.11 374.67 231.92C373.74 231.73 372.24 231.09 372.45 229.79C372.63 228.67 374.08 229.57 374.61 229.87C376.447 231.022 378.562 231.654 380.73 231.7C380.958 231.569 381.179 231.426 381.39 231.27C383.044 230.122 384.413 228.61 385.39 226.85C383.571 226.817 381.756 226.653 379.96 226.36C378.65 226.13 376.59 225.78 375.96 224.42C375.943 224.387 375.935 224.35 375.936 224.313C375.937 224.276 375.948 224.239 375.967 224.207C375.986 224.176 376.013 224.149 376.045 224.13C376.077 224.111 376.113 224.101 376.15 224.1C377.694 224.012 379.232 224.359 380.59 225.1C382.161 225.961 383.961 226.31 385.74 226.1C385.953 225.661 386.14 225.211 386.3 224.75C386.3 224.75 386.3 224.7 386.3 224.67C384.845 224.511 383.414 224.175 382.04 223.67C381.75 223.56 381.87 223.15 382.12 223.25ZM379.3 207.84C379.302 207.809 379.312 207.78 379.33 207.755C379.347 207.731 379.372 207.711 379.4 207.7C379.428 207.521 379.516 207.357 379.648 207.234C379.78 207.111 379.95 207.036 380.13 207.02C380.339 206.986 380.554 207.02 380.743 207.116C380.932 207.213 381.085 207.367 381.181 207.556C381.277 207.745 381.31 207.96 381.275 208.169C381.241 208.378 381.141 208.571 380.99 208.72C380.83 208.864 380.636 208.965 380.426 209.014C380.216 209.063 379.997 209.058 379.79 209C379.29 208.83 379.23 208.29 379.3 207.84ZM370.08 228C369.939 228.115 369.762 228.178 369.58 228.178C369.398 228.178 369.221 228.115 369.08 228C369.053 227.983 369.031 227.959 369.016 227.931C369.001 227.903 368.993 227.872 368.993 227.84C368.993 227.808 369.001 227.777 369.016 227.749C369.031 227.721 369.053 227.697 369.08 227.68C369.077 227.398 369.176 227.124 369.36 226.91C369.426 226.836 369.509 226.779 369.602 226.744C369.696 226.709 369.796 226.698 369.894 226.71C369.993 226.723 370.087 226.76 370.168 226.817C370.249 226.875 370.315 226.951 370.36 227.04C370.444 227.205 370.462 227.397 370.41 227.575C370.358 227.754 370.24 227.906 370.08 228ZM370.94 211.88C370.92 212.172 370.836 212.455 370.694 212.711C370.553 212.967 370.357 213.188 370.12 213.36C369.53 213.65 369.28 212.91 369.21 212.47C369.205 212.437 369.205 212.403 369.21 212.37C368.949 211.901 368.835 211.365 368.88 210.83C368.9 210.669 368.962 210.517 369.06 210.389C369.159 210.26 369.29 210.16 369.439 210.099C369.589 210.038 369.752 210.018 369.912 210.041C370.072 210.064 370.224 210.129 370.35 210.23C370.596 210.41 370.783 210.659 370.888 210.946C370.993 211.232 371.011 211.543 370.94 211.84V211.88ZM376.58 219.88C376.451 220.007 376.286 220.092 376.108 220.125C375.929 220.157 375.745 220.134 375.58 220.06C375.363 219.967 375.186 219.801 375.08 219.591C374.974 219.38 374.946 219.139 375 218.91C375.006 218.874 375.02 218.841 375.041 218.811C375.062 218.782 375.09 218.758 375.122 218.74C375.153 218.723 375.189 218.713 375.225 218.711C375.261 218.709 375.297 218.716 375.33 218.73C375.389 218.645 375.466 218.574 375.555 218.523C375.645 218.471 375.744 218.439 375.847 218.429C375.95 218.42 376.053 218.433 376.151 218.467C376.248 218.502 376.336 218.558 376.41 218.63C376.559 218.782 376.656 218.977 376.686 219.187C376.717 219.397 376.68 219.612 376.58 219.8V219.88Z" fill="#FB9100"/>
<path d="M345.91 255.29C346.318 256.132 346.617 257.022 346.8 257.94C344.939 258.522 342.986 258.753 341.04 258.62C341.701 257.93 342.226 257.123 342.59 256.24C342.9 255.48 343.41 254.16 342.59 253.56C342.53 253.56 342.43 253.51 342.39 253.56C341.82 254.32 341.96 255.27 341.74 256.14C341.502 257.076 340.999 257.924 340.29 258.58H339.81C338.37 258.52 336.94 258.39 335.52 258.23H335.59C335.83 258.1 336.33 257.84 336.36 257.53C336.39 257.22 336.03 257.16 335.8 257.24C335.57 257.32 335.19 257.7 334.86 257.86C334.53 258.02 334.45 258.04 334.24 258.12C333.11 257.98 331.98 257.82 330.85 257.66C330.814 257.653 330.783 257.632 330.763 257.602C330.742 257.572 330.734 257.536 330.74 257.5C330.81 256.43 330.88 255.36 330.98 254.28C332.037 252.992 333.519 252.123 335.16 251.83C335.66 251.76 338.28 251.83 337.87 250.75C337.46 249.67 335.15 250.32 334.39 250.61C333.218 251.08 332.13 251.739 331.17 252.56C331.435 250.105 332.072 247.704 333.06 245.44C333.882 244.97 334.81 244.718 335.757 244.708C336.704 244.697 337.638 244.928 338.47 245.38C338.87 245.58 340.74 246.78 340.86 245.69C340.96 244.76 339.03 244.2 338.32 244.1C337.262 244.02 336.198 244.09 335.16 244.31C334.548 244.391 333.95 244.552 333.38 244.79C333.376 244.76 333.376 244.73 333.38 244.7C334.151 242.882 335.611 241.443 337.44 240.7C338.312 240.421 339.226 240.299 340.14 240.34C340.819 240.699 341.465 241.117 342.07 241.59C342.593 242.102 343.059 242.668 343.46 243.28C343.8 243.7 344.83 244.38 345.27 243.69C345.71 243 345.07 242.18 344.81 241.69L344.48 241.11C349.9 240.62 347.48 245.35 347.48 245.34C352.48 244.93 352.86 249.77 351.93 252.84L351.69 251.95C351.54 251.37 351.46 250.77 351.29 250.19C351.12 249.61 350.62 248.69 349.77 248.89C348.92 249.09 349.71 249.89 349.93 250.26C350.783 251.347 351.307 252.655 351.44 254.03C351.36 254.18 351.28 254.33 351.19 254.47C350.493 255.574 349.556 256.507 348.45 257.2C348.343 256.05 348.145 254.909 347.86 253.79C347.65 252.98 347.32 251.69 346.39 251.37C346.368 251.357 346.343 251.351 346.318 251.351C346.292 251.351 346.268 251.359 346.246 251.372C346.224 251.385 346.207 251.404 346.195 251.427C346.184 251.449 346.178 251.475 346.18 251.5C346.2 252.489 346.514 253.449 347.08 254.26C347.724 255.199 348.046 256.322 348 257.46C347.72 257.62 347.429 257.76 347.13 257.88H347.08C346.89 256.966 346.588 256.079 346.18 255.24C346.1 255 345.83 255.13 345.91 255.29ZM335.56 254.29C335.541 254.293 335.524 254.301 335.51 254.313C335.496 254.326 335.485 254.342 335.48 254.36C335.365 254.382 335.261 254.443 335.185 254.532C335.108 254.621 335.065 254.733 335.06 254.85C335.043 254.993 335.074 255.137 335.148 255.26C335.222 255.383 335.334 255.478 335.468 255.531C335.601 255.583 335.748 255.59 335.886 255.55C336.024 255.51 336.145 255.426 336.23 255.31C336.316 255.203 336.372 255.077 336.395 254.942C336.418 254.807 336.406 254.669 336.36 254.54C336.22 254.23 335.86 254.22 335.56 254.29ZM348.44 247.44C348.521 247.351 348.567 247.235 348.567 247.115C348.567 246.995 348.521 246.879 348.44 246.79C348.428 246.773 348.412 246.76 348.394 246.751C348.376 246.741 348.355 246.737 348.335 246.737C348.314 246.737 348.294 246.741 348.276 246.751C348.258 246.76 348.242 246.773 348.23 246.79C348.045 246.802 347.872 246.88 347.74 247.01C347.7 247.054 347.671 247.107 347.655 247.164C347.639 247.222 347.637 247.282 347.648 247.34C347.66 247.399 347.685 247.453 347.722 247.5C347.759 247.547 347.806 247.585 347.86 247.61C347.962 247.649 348.074 247.653 348.179 247.623C348.283 247.592 348.375 247.528 348.44 247.44ZM337.81 248.8C338 248.771 338.181 248.702 338.343 248.599C338.505 248.496 338.644 248.36 338.75 248.2C338.92 247.81 338.41 247.7 338.12 247.67H338.05C337.735 247.537 337.389 247.492 337.05 247.54C336.938 247.55 336.832 247.593 336.745 247.663C336.657 247.733 336.593 247.827 336.559 247.934C336.524 248.041 336.522 248.155 336.553 248.263C336.583 248.371 336.645 248.467 336.73 248.54C336.864 248.685 337.038 248.787 337.231 248.834C337.423 248.88 337.624 248.868 337.81 248.8ZM343.36 251.96C343.441 251.87 343.492 251.757 343.505 251.636C343.517 251.516 343.491 251.395 343.43 251.29C343.349 251.161 343.228 251.061 343.085 251.007C342.943 250.953 342.786 250.947 342.64 250.99C342.616 250.992 342.594 251 342.574 251.013C342.554 251.026 342.538 251.044 342.527 251.065C342.516 251.086 342.51 251.109 342.511 251.133C342.511 251.156 342.518 251.179 342.53 251.2C342.478 251.241 342.436 251.294 342.407 251.353C342.378 251.413 342.363 251.479 342.363 251.545C342.363 251.611 342.378 251.677 342.407 251.737C342.436 251.796 342.478 251.849 342.53 251.89C342.633 252.003 342.773 252.076 342.925 252.096C343.077 252.117 343.231 252.082 343.36 252V251.96Z" fill="#FB9100"/>
<path d="M388.91 237.74L387.41 237.64C386.41 237.55 384.96 237.72 384.11 237.03C384.085 237.008 384.064 236.982 384.05 236.951C384.037 236.921 384.029 236.888 384.029 236.855C384.029 236.822 384.037 236.789 384.05 236.759C384.064 236.728 384.085 236.702 384.11 236.68C385.69 235.35 387.42 236.81 389.11 236.88C389.298 235.619 389.328 234.339 389.2 233.07C389.128 232.133 388.912 231.212 388.56 230.34C387.725 231.681 386.717 232.905 385.56 233.98C385.07 234.37 383.8 235.56 383.15 235.08C382.5 234.6 383.68 233.71 384.06 233.46C385.678 232.507 387.13 231.298 388.36 229.88C387.768 228.628 386.766 227.615 385.52 227.01C384.583 226.56 383.596 226.225 382.58 226.01C382.81 227.59 382.58 229.95 381.1 230.34C380.1 230.62 379.41 229.41 379.34 228.46C379.341 227.915 379.477 227.379 379.737 226.901C379.998 226.422 380.373 226.016 380.83 225.72C379.285 225.559 377.728 225.542 376.18 225.67L375.35 225.75C375.349 225.78 375.349 225.81 375.35 225.84C374.483 227.283 373.9 228.878 373.63 230.54C373.57 231.14 373.83 231.95 373.51 232.54C373 233.44 372.06 232.69 371.92 231.97C371.66 230.64 372.28 228.97 372.71 227.72C372.89 227.19 373.08 226.64 373.29 226.09C371.384 226.438 369.572 227.18 367.97 228.27C367.435 228.65 366.936 229.079 366.48 229.55C366.229 231.129 366.384 232.747 366.93 234.25C367.36 235.25 368.55 237.25 367.39 238.36C366.58 239.11 366.11 237.67 365.95 237.07C365.445 235.149 365.167 233.176 365.12 231.19C364.3 232.384 363.628 233.674 363.12 235.03C362.62 236.366 362.216 237.736 361.91 239.13C362.91 239.83 364.05 240.13 365.12 240.72C365.62 241 366.6 241.61 366.12 242.37C365.12 243.94 362.89 242.12 361.63 240.77C361.573 241.359 361.65 241.953 361.856 242.507C362.062 243.062 362.392 243.562 362.82 243.97C363.702 244.999 364.941 245.656 366.287 245.81C367.634 245.964 368.988 245.603 370.08 244.8C370.021 245.329 370.082 245.864 370.258 246.366C370.434 246.868 370.722 247.324 371.098 247.699C371.475 248.075 371.931 248.361 372.434 248.536C372.936 248.711 373.471 248.77 374 248.71C374.792 248.581 375.523 248.207 376.09 247.64C375.562 247.695 375.031 247.715 374.5 247.7C373.82 247.7 372.67 247.62 372.39 246.81C372.11 246 372.84 245.99 373.34 246.17C373.86 246.481 374.439 246.682 375.04 246.76C375.841 246.742 376.63 246.561 377.36 246.23C378.137 245.187 379.121 244.316 380.25 243.67C380.718 243.434 381.199 243.223 381.69 243.04C380.74 242.96 379.34 242.79 379.02 241.92C378.5 240.47 380.71 240.38 381.45 240.5C382.45 240.66 383.39 240.97 384.4 241.04C385.246 241.091 386.094 241 386.91 240.77C387.083 240.649 387.25 240.519 387.41 240.38C388.168 239.674 388.691 238.753 388.91 237.74ZM371 238.8C370.55 238.8 370.34 238.25 370.29 237.8C370.237 237.411 370.299 237.014 370.47 236.66C370.461 236.624 370.461 236.586 370.47 236.55C370.5 236.4 370.565 236.258 370.658 236.137C370.752 236.016 370.872 235.917 371.01 235.85C371.118 235.827 371.23 235.835 371.335 235.872C371.439 235.909 371.531 235.974 371.6 236.06C371.772 236.271 371.896 236.518 371.963 236.782C372.031 237.046 372.04 237.322 371.99 237.59C372 238.1 371.55 238.82 371 238.8ZM376.59 233.42C376.488 233.172 376.473 232.896 376.548 232.639C376.622 232.381 376.782 232.156 377 232C377.038 231.972 377.083 231.955 377.13 231.95C377.214 231.878 377.313 231.828 377.42 231.802C377.527 231.776 377.639 231.775 377.746 231.801C377.853 231.826 377.953 231.876 378.037 231.947C378.121 232.019 378.187 232.109 378.23 232.21C378.349 232.468 378.373 232.76 378.298 233.035C378.223 233.309 378.054 233.548 377.82 233.71C377.73 233.791 377.621 233.849 377.503 233.878C377.385 233.908 377.262 233.908 377.144 233.88C377.026 233.851 376.917 233.795 376.825 233.715C376.734 233.634 376.664 233.533 376.62 233.42H376.59ZM375.71 243.57C375.655 243.686 375.575 243.787 375.474 243.866C375.373 243.945 375.256 243.999 375.13 244.024C375.005 244.049 374.876 244.045 374.752 244.011C374.629 243.978 374.515 243.916 374.42 243.83C374.288 243.665 374.204 243.466 374.178 243.256C374.151 243.046 374.183 242.833 374.27 242.64C374.247 242.621 374.228 242.598 374.216 242.571C374.203 242.544 374.196 242.515 374.196 242.485C374.196 242.455 374.203 242.426 374.216 242.399C374.228 242.372 374.247 242.349 374.27 242.33C374.45 242.209 374.665 242.15 374.882 242.161C375.099 242.173 375.307 242.255 375.473 242.395C375.639 242.536 375.755 242.726 375.803 242.938C375.851 243.15 375.829 243.372 375.74 243.57H375.71Z" fill="#1B5A96"/>
<path d="M364.06 254.53H364.87C365.15 253.71 365.45 252.91 365.81 252.12L366.11 251.48C368.063 247.497 370.89 244.007 374.38 241.27C374.77 240.95 374.21 240.4 373.82 240.71C370.261 243.51 367.383 247.079 365.4 251.15C365.351 251.244 365.307 251.341 365.27 251.44C364.797 252.442 364.393 253.474 364.06 254.53Z" fill="black"/>
<path d="M359.88 254.58H360.67C360.81 253.48 360.98 252.38 361.17 251.29C361.5 249.39 361.88 247.5 362.29 245.63C363.18 241.63 364.23 237.74 365.29 233.82C366.35 229.9 367.43 226.17 369.79 222.92C370.1 222.52 369.41 222.12 369.12 222.53C366.84 225.65 365.71 229.28 364.71 232.97C363.52 237.35 362.35 241.73 361.39 246.16C361.02 247.86 360.67 249.57 360.39 251.29C360.19 252.39 360 253.49 359.88 254.58Z" fill="black"/>
<path d="M350.51 236.56C351.526 238.645 352.382 240.805 353.07 243.02C353.17 243.33 353.26 243.65 353.35 243.96C354.058 246.423 354.612 248.928 355.01 251.46C355.17 252.46 355.31 253.46 355.43 254.46H356.22C356.09 253.46 355.95 252.46 355.79 251.4C355.437 249.14 354.963 246.9 354.37 244.69C354.25 244.28 354.14 243.87 354.01 243.46C353.27 240.945 352.32 238.496 351.17 236.14C351 235.7 350.29 236.1 350.51 236.56Z" fill="black"/>
<path d="M343.22 248.62C345.22 247.27 347.28 245.89 349.32 244.57C350.47 243.83 351.6 243.28 352.97 243.78L353.35 243.96C353.717 244.162 354.054 244.414 354.35 244.71C354.733 245.099 355.068 245.532 355.35 246C356.266 247.653 356.831 249.478 357.01 251.36C357.16 252.36 357.24 253.48 357.3 254.53H358.07C358 253.47 357.92 252.38 357.78 251.3C357.44 248.64 356.73 246.07 355.03 244.3C354.71 243.975 354.354 243.686 353.97 243.44C353.672 243.251 353.353 243.096 353.02 242.98C352.175 242.665 351.245 242.665 350.4 242.98C349.218 243.556 348.098 244.253 347.06 245.06L342.84 248C342.44 248.23 342.81 248.89 343.22 248.62Z" fill="black"/>
<path d="M290.09 131.87L283.66 124.32L281.14 121.35L278.61 118.38L267.12 131.87H272.29V139.82H284.92V131.87H290.09Z" fill="#1B5A96"/>
</g>
</g>
<defs>
<clipPath id="clip0_105_83">
<rect width="570" height="324" fill="white"/>
</clipPath>
<clipPath id="clip1_105_83">
<rect width="570" height="324" fill="white" transform="translate(0 1)"/>
</clipPath>
</defs>
</svg>
