<svg width="570" height="324" viewBox="0 0 570 324" fill="none" xmlns="http://www.w3.org/2000/svg">
<g clip-path="url(#clip0_105_2)">
<rect width="570" height="324" fill="#FFF6EB"/>
<path d="M421.625 293.115H148.485C148.351 293.097 148.228 293.031 148.138 292.929C148.049 292.827 148 292.696 148 292.56C148 292.424 148.049 292.293 148.138 292.191C148.228 292.089 148.351 292.023 148.485 292.005H421.625C421.704 291.994 421.785 292.001 421.861 292.024C421.938 292.047 422.009 292.086 422.069 292.138C422.129 292.191 422.177 292.256 422.21 292.329C422.243 292.401 422.26 292.48 422.26 292.56C422.26 292.64 422.243 292.719 422.21 292.791C422.177 292.864 422.129 292.929 422.069 292.982C422.009 293.034 421.938 293.073 421.861 293.096C421.785 293.119 421.704 293.126 421.625 293.115Z" fill="#030047"/>
<g clip-path="url(#clip1_105_2)">
<path d="M365.401 173.844H268.225C265.465 173.841 262.819 172.746 260.867 170.798C258.915 168.851 257.818 166.21 257.815 163.456V68.4397H375.853V163.467C375.85 164.833 375.577 166.185 375.051 167.446C374.524 168.708 373.753 169.853 372.782 170.816C371.812 171.78 370.66 172.544 369.394 173.063C368.127 173.582 366.771 173.848 365.401 173.844ZM258.279 68.9436V163.467C258.281 166.087 259.326 168.599 261.183 170.452C263.04 172.305 265.558 173.347 268.184 173.35H365.401C368.027 173.344 370.543 172.301 372.399 170.449C374.256 168.597 375.301 166.086 375.306 163.467V68.9436H258.279Z" fill="black"/>
<path d="M355.197 78.6418H280.728C278.183 78.6418 276.12 80.7 276.12 83.2389V103.571C276.12 106.11 278.183 108.168 280.728 108.168H355.197C357.742 108.168 359.804 106.11 359.804 103.571V83.2389C359.804 80.7 357.742 78.6418 355.197 78.6418Z" fill="#FB9100"/>
<path d="M355.197 108.425H280.738C280.1 108.427 279.467 108.302 278.877 108.059C278.287 107.817 277.75 107.46 277.299 107.01C276.847 106.56 276.488 106.026 276.244 105.437C275.999 104.849 275.873 104.218 275.873 103.581V83.2492C275.873 81.9618 276.386 80.7271 277.298 79.8168C278.21 78.9064 279.448 78.395 280.738 78.395H355.197C356.487 78.395 357.725 78.9064 358.637 79.8168C359.55 80.7271 360.062 81.9618 360.062 83.2492V103.581C360.062 104.218 359.936 104.849 359.692 105.437C359.447 106.026 359.088 106.56 358.637 107.01C358.185 107.46 357.648 107.817 357.058 108.059C356.468 108.302 355.836 108.427 355.197 108.425ZM280.738 78.8989C279.582 78.8989 278.473 79.3573 277.655 80.1731C276.837 80.9889 276.378 82.0955 276.378 83.2492V103.581C276.378 104.152 276.491 104.717 276.71 105.245C276.929 105.772 277.251 106.251 277.656 106.654C278.061 107.057 278.541 107.376 279.07 107.594C279.599 107.811 280.166 107.923 280.738 107.921H355.197C355.769 107.923 356.336 107.811 356.865 107.594C357.394 107.376 357.874 107.057 358.279 106.654C358.684 106.251 359.006 105.772 359.225 105.245C359.444 104.717 359.557 104.152 359.557 103.581V83.2492C359.557 82.6779 359.444 82.1122 359.225 81.5844C359.006 81.0566 358.685 80.5771 358.28 80.1731C357.875 79.7692 357.395 79.4487 356.866 79.2301C356.337 79.0115 355.77 78.8989 355.197 78.8989H280.738Z" fill="black"/>
<path d="M305.29 96.7011C305.307 97.3657 305.165 98.0247 304.877 98.6243C304.62 99.1644 304.243 99.6392 303.775 100.013C303.283 100.386 302.728 100.668 302.136 100.846C301.486 101.034 300.813 101.128 300.136 101.123C299.686 101.126 299.238 101.085 298.796 101C298.426 100.934 298.06 100.842 297.704 100.722C297.43 100.627 297.165 100.51 296.91 100.373C296.742 100.283 296.586 100.172 296.446 100.044C296.345 99.9307 296.277 99.7917 296.25 99.6424C296.202 99.3917 296.182 99.1365 296.188 98.8814C296.188 98.6654 296.188 98.4803 296.188 98.326C296.201 98.2041 296.226 98.0836 296.261 97.9661C296.283 97.8852 296.329 97.8133 296.395 97.7604C296.447 97.7189 296.513 97.6971 296.58 97.6987C296.736 97.7196 296.882 97.7837 297.003 97.8838C297.188 97.9969 297.425 98.1306 297.714 98.2746C298.046 98.4326 298.391 98.5633 298.745 98.6654C299.195 98.7877 299.66 98.8465 300.126 98.8403C300.439 98.8439 300.752 98.8023 301.053 98.7168C301.304 98.6468 301.539 98.528 301.744 98.3672C301.935 98.2232 302.084 98.0317 302.177 97.8118C302.281 97.579 302.334 97.3264 302.332 97.0714C302.342 96.7791 302.251 96.4922 302.074 96.2589C301.886 96.0209 301.659 95.8158 301.404 95.6521C301.1 95.4649 300.783 95.2999 300.456 95.1585L299.435 94.6751C299.059 94.5023 298.694 94.3065 298.343 94.0889C297.996 93.8715 297.681 93.6086 297.405 93.3073C297.124 93.0032 296.894 92.6559 296.724 92.2789C296.546 91.7987 296.458 91.2895 296.467 90.7774C296.455 90.1739 296.582 89.5757 296.838 89.029C297.08 88.5343 297.433 88.1015 297.869 87.764C298.309 87.4208 298.813 87.1691 299.353 87.0236C299.943 86.8561 300.553 86.773 301.167 86.7768C301.512 86.773 301.856 86.797 302.198 86.8487C302.512 86.8932 302.822 86.962 303.125 87.0544C303.386 87.131 303.641 87.2273 303.888 87.3424C304.049 87.407 304.199 87.4973 304.331 87.6098C304.387 87.6651 304.436 87.7273 304.475 87.7949C304.501 87.8585 304.521 87.9238 304.537 87.9903C304.546 88.0964 304.546 88.203 304.537 88.3091C304.537 88.4325 304.537 88.5868 304.537 88.7719C304.537 88.957 304.537 89.1524 304.537 89.2964C304.529 89.4175 304.512 89.5378 304.486 89.6564C304.468 89.7322 304.433 89.8028 304.383 89.862C304.327 89.905 304.257 89.9269 304.187 89.9238C304.053 89.9021 303.926 89.8492 303.816 89.7695C303.641 89.6666 303.424 89.5638 303.177 89.4404C302.893 89.3119 302.6 89.2053 302.301 89.1216C301.965 89.0288 301.618 88.9804 301.27 88.9776C300.997 88.9689 300.725 89.0072 300.466 89.0907C300.254 89.1513 300.057 89.2565 299.889 89.3993C299.737 89.5325 299.618 89.6976 299.538 89.8826C299.464 90.0692 299.426 90.2681 299.425 90.4688C299.416 90.7577 299.507 91.0408 299.683 91.271C299.867 91.5131 300.099 91.7159 300.363 91.8675C300.669 92.0567 300.989 92.2218 301.321 92.3611L302.424 92.8548C302.795 93.0296 303.156 93.225 303.517 93.441C303.872 93.6554 304.194 93.9185 304.475 94.2226C304.756 94.5267 304.986 94.874 305.156 95.251C305.296 95.7207 305.342 96.2137 305.29 96.7011Z" fill="white"/>
<path d="M317.287 99.7658C317.299 99.9404 317.299 100.116 317.287 100.29C317.274 100.406 317.247 100.521 317.205 100.63C317.178 100.702 317.131 100.766 317.071 100.815C317.021 100.855 316.959 100.877 316.896 100.877H309.897C309.677 100.884 309.463 100.806 309.299 100.661C309.21 100.573 309.141 100.467 309.098 100.349C309.055 100.232 309.039 100.106 309.052 99.9818V87.8566C309.041 87.7323 309.057 87.6071 309.1 87.4898C309.143 87.3725 309.211 87.266 309.299 87.1778C309.464 87.0346 309.679 86.9609 309.897 86.9721H316.854C316.908 86.9533 316.966 86.9533 317.019 86.9721C317.081 87.0191 317.128 87.0836 317.153 87.1572C317.191 87.271 317.219 87.3881 317.236 87.5069C317.236 87.6406 317.236 87.8154 317.236 88.0314C317.236 88.2474 317.236 88.4016 317.236 88.5456C317.219 88.6611 317.192 88.7748 317.153 88.885C317.122 88.9556 317.077 89.0188 317.019 89.0701C316.973 89.1094 316.915 89.1312 316.854 89.1318H311.804V92.5256H316.009C316.076 92.5256 316.141 92.5473 316.195 92.5874C316.252 92.6387 316.298 92.7019 316.329 92.7725C316.368 92.8788 316.396 92.9891 316.411 93.1016C316.411 93.2456 316.411 93.4101 316.411 93.6158C316.411 93.8215 316.411 93.9963 316.411 94.13C316.395 94.2422 316.367 94.3524 316.329 94.4591C316.298 94.5267 316.252 94.5865 316.195 94.6339C316.134 94.6492 316.07 94.6492 316.009 94.6339H311.804V98.6757H316.823C316.887 98.6756 316.949 98.6974 316.999 98.7374C317.059 98.786 317.105 98.8499 317.133 98.9225C317.175 99.0316 317.202 99.1457 317.215 99.2619C317.25 99.428 317.275 99.5964 317.287 99.7658Z" fill="white"/>
<path d="M333.5 93.7596C333.512 94.8031 333.37 95.8427 333.078 96.8449C332.817 97.6981 332.377 98.4867 331.789 99.1588C331.226 99.7969 330.52 100.294 329.728 100.609C328.8 100.958 327.813 101.129 326.821 101.113C325.859 101.132 324.9 100.986 323.987 100.681C323.203 100.432 322.494 99.9897 321.926 99.3954C321.36 98.7557 320.948 97.9961 320.72 97.174C320.433 96.1395 320.298 95.0692 320.318 93.9961C320.3 92.9691 320.443 91.9456 320.74 90.9623C321 90.1143 321.439 89.3321 322.029 88.6688C322.595 88.0339 323.3 87.5377 324.09 87.2188C325.02 86.8636 326.011 86.6924 327.007 86.7148C327.954 86.6976 328.898 86.8366 329.8 87.1262C330.584 87.3815 331.292 87.8267 331.862 88.422C332.433 89.0489 332.853 89.7983 333.088 90.6126C333.384 91.6348 333.523 92.6958 333.5 93.7596ZM330.532 93.9139C330.536 93.2448 330.477 92.5769 330.357 91.9187C330.262 91.3715 330.063 90.8477 329.769 90.376C329.504 89.9381 329.122 89.5821 328.666 89.3476C328.127 89.1001 327.538 88.9804 326.945 88.9979C326.338 88.9882 325.738 89.1334 325.203 89.4196C324.751 89.6707 324.363 90.0227 324.069 90.448C323.772 90.9164 323.566 91.4362 323.461 91.9804C323.344 92.5905 323.285 93.2104 323.286 93.8316C323.276 94.5213 323.335 95.2103 323.461 95.8884C323.555 96.4342 323.751 96.9575 324.038 97.4311C324.297 97.8741 324.681 98.2317 325.141 98.4595C325.685 98.7044 326.277 98.8205 326.873 98.7989C327.477 98.8181 328.077 98.6836 328.615 98.4081C329.071 98.1628 329.461 97.8097 329.749 97.3797C330.049 96.8946 330.256 96.3573 330.357 95.7959C330.475 95.1755 330.533 94.5453 330.532 93.9139Z" fill="white"/>
<path d="M373.441 69.1391H252.847C249.26 69.1391 245.821 67.7175 243.285 65.1871C240.748 62.6567 239.324 59.2247 239.324 55.6461C239.324 52.0675 240.748 48.6355 243.285 46.1051C245.821 43.5747 249.26 42.1531 252.847 42.1531H373.441C377.027 42.1531 380.467 43.5747 383.003 46.1051C385.539 48.6355 386.964 52.0675 386.964 55.6461C386.964 59.2247 385.539 62.6567 383.003 65.1871C380.467 67.7175 377.027 69.1391 373.441 69.1391ZM252.847 42.6673C249.459 42.7624 246.242 44.1721 243.879 46.5967C241.517 49.0213 240.195 52.2696 240.195 55.6512C240.195 59.0329 241.517 62.2812 243.879 64.7058C246.242 67.1303 249.459 68.54 252.847 68.6352H373.441C375.18 68.684 376.912 68.3843 378.534 67.7538C380.156 67.1233 381.634 66.1747 382.882 64.9642C384.13 63.7537 385.121 62.3058 385.799 60.7062C386.476 59.1066 386.825 57.3877 386.825 55.6512C386.825 53.9147 386.476 52.1958 385.799 50.5962C385.121 48.9966 384.13 47.5488 382.882 46.3383C381.634 45.1278 380.156 44.1792 378.534 43.5487C376.912 42.9181 375.18 42.6184 373.441 42.6673H252.847Z" fill="black"/>
<path d="M239.654 55.6462C239.662 59.1441 241.057 62.4965 243.535 64.9709C246.013 67.4453 249.372 68.8403 252.878 68.8512H255.114C258.633 68.8512 262.007 67.4567 264.494 64.9745C266.982 62.4923 268.38 59.1257 268.38 55.6153C268.38 52.1049 266.982 48.7383 264.494 46.2561C262.007 43.7739 258.633 42.3794 255.114 42.3794H252.847C249.336 42.3984 245.975 43.8056 243.502 46.2924C241.029 48.7792 239.645 52.1429 239.654 55.6462Z" fill="#1B5A96"/>
<path d="M255.114 69.1391H252.836C249.25 69.1391 245.81 67.7175 243.274 65.1871C240.738 62.6567 239.313 59.2247 239.313 55.6461C239.313 52.0675 240.738 48.6355 243.274 46.1051C245.81 43.5747 249.25 42.1531 252.836 42.1531H255.114C258.701 42.1531 262.141 43.5747 264.677 46.1051C267.213 48.6355 268.637 52.0675 268.637 55.6461C268.637 59.2247 267.213 62.6567 264.677 65.1871C262.141 67.7175 258.701 69.1391 255.114 69.1391ZM252.847 42.6673C249.459 42.7624 246.242 44.1721 243.879 46.5967C241.517 49.0213 240.195 52.2696 240.195 55.6512C240.195 59.0329 241.517 62.2812 243.879 64.7058C246.242 67.1303 249.459 68.54 252.847 68.6352H255.114C256.854 68.684 258.586 68.3843 260.207 67.7538C261.829 67.1233 263.307 66.1747 264.555 64.9642C265.803 63.7537 266.795 62.3058 267.472 60.7062C268.15 59.1066 268.499 57.3877 268.499 55.6512C268.499 53.9147 268.15 52.1958 267.472 50.5962C266.795 48.9966 265.803 47.5488 264.555 46.3383C263.307 45.1278 261.829 44.1792 260.207 43.5487C258.586 42.9181 256.854 42.6184 255.114 42.6673H252.847Z" fill="black"/>
<path d="M292.828 61.3951C292.806 61.498 292.764 61.5957 292.705 61.683C292.643 61.7657 292.556 61.8268 292.457 61.8579C292.323 61.8981 292.185 61.9223 292.045 61.9298H291.406H290.705C290.565 61.9232 290.427 61.899 290.293 61.8579C290.2 61.8262 290.12 61.7647 290.066 61.683C290.014 61.5941 289.979 61.4965 289.963 61.3951L288.376 55.1319L286.871 61.3951C286.852 61.496 286.818 61.5933 286.768 61.683C286.712 61.7566 286.637 61.8135 286.551 61.8476C286.419 61.8968 286.28 61.9246 286.139 61.9298H285.469H284.758C284.618 61.9232 284.479 61.899 284.345 61.8579C284.253 61.8262 284.173 61.7647 284.119 61.683C284.068 61.5927 284.03 61.4958 284.005 61.3951L281.758 52.7768C281.718 52.6355 281.691 52.491 281.676 52.3449C281.673 52.3011 281.68 52.2571 281.696 52.2163C281.712 52.1754 281.737 52.1385 281.769 52.1083C281.856 52.0387 281.966 52.0022 282.078 52.0055H282.686H283.263C283.366 51.9954 283.47 51.9954 283.572 52.0055C283.603 52.0156 283.632 52.0316 283.657 52.0528C283.682 52.074 283.702 52.0999 283.717 52.1289C283.752 52.1995 283.773 52.2764 283.779 52.3552L285.521 59.9141L287.324 52.4066C287.339 52.3251 287.363 52.2457 287.396 52.17C287.438 52.1073 287.5 52.0603 287.572 52.0363C287.673 51.9923 287.781 51.9678 287.891 51.9644H288.448H289.035C289.148 51.9701 289.26 51.9944 289.365 52.0363C289.438 52.0636 289.5 52.1143 289.54 52.1803C289.58 52.2542 289.608 52.3341 289.623 52.4169L291.488 59.9244L293.251 52.3963C293.264 52.3258 293.285 52.2568 293.313 52.1906C293.326 52.1593 293.345 52.1312 293.37 52.1081C293.395 52.085 293.425 52.0676 293.457 52.0569C293.554 52.0112 293.659 51.9867 293.766 51.9849H294.323H294.849C294.948 51.9831 295.044 52.02 295.117 52.0878C295.148 52.1195 295.172 52.1588 295.184 52.202C295.197 52.2451 295.198 52.2907 295.189 52.3346C295.175 52.4842 295.147 52.6323 295.106 52.7768L292.828 61.3951Z" fill="#C5CDE3"/>
<path d="M309.371 61.3949C309.349 61.4978 309.307 61.5956 309.248 61.6829C309.188 61.7677 309.1 61.8295 309 61.8577C308.866 61.898 308.728 61.9221 308.588 61.9297H307.949H307.248C307.108 61.9221 306.97 61.898 306.836 61.8577C306.753 61.8107 306.688 61.7386 306.65 61.652C306.599 61.5631 306.564 61.4655 306.547 61.3641L304.96 55.1009L303.455 61.3641C303.437 61.465 303.402 61.5623 303.352 61.652C303.296 61.7256 303.221 61.7825 303.135 61.8166C303.003 61.8658 302.864 61.8936 302.723 61.8988H302.053H301.342C301.202 61.8913 301.064 61.8671 300.93 61.8269C300.837 61.7952 300.757 61.7337 300.703 61.652C300.652 61.5617 300.614 61.4648 300.59 61.3641L298.343 52.7458C298.303 52.6045 298.275 52.46 298.26 52.3139C298.257 52.2701 298.264 52.2261 298.28 52.1853C298.296 52.1444 298.321 52.1075 298.353 52.0773C298.441 52.0077 298.55 51.9712 298.662 51.9745H299.27H299.848C299.95 51.9635 300.054 51.9635 300.157 51.9745C300.22 51.9983 300.274 52.0415 300.311 52.0979C300.337 52.1718 300.358 52.2474 300.373 52.3242L302.105 59.8831L303.909 52.3756C303.922 52.2925 303.95 52.2124 303.991 52.139C304.026 52.0745 304.085 52.0264 304.156 52.0053C304.257 51.9613 304.365 51.9368 304.475 51.9333H305.032H305.62C305.733 51.9391 305.844 51.9634 305.949 52.0053C306.024 52.0294 306.087 52.0809 306.125 52.1493C306.165 52.2232 306.192 52.3031 306.207 52.3859L308.073 59.8934L309.742 52.3961C309.742 52.3139 309.742 52.2522 309.804 52.1905C309.834 52.1292 309.885 52.0814 309.949 52.0568C310.045 52.0111 310.151 51.9865 310.258 51.9848H310.814H311.34C311.439 51.9829 311.536 52.0198 311.608 52.0876C311.64 52.1194 311.663 52.1587 311.676 52.2018C311.688 52.2449 311.69 52.2906 311.68 52.3344C311.666 52.4841 311.639 52.6321 311.598 52.7767L309.371 61.3949Z" fill="#C5CDE3"/>
<path d="M325.914 61.3949C325.892 61.4978 325.85 61.5956 325.791 61.6829C325.731 61.7677 325.643 61.8295 325.543 61.8577C325.409 61.898 325.271 61.9221 325.131 61.9297H324.492H323.791C323.651 61.9221 323.513 61.898 323.379 61.8577C323.277 61.8203 323.193 61.7472 323.142 61.652C323.09 61.5631 323.055 61.4655 323.039 61.3641L321.451 55.1009L319.947 61.3641C319.928 61.465 319.893 61.5623 319.843 61.652C319.788 61.7256 319.713 61.7825 319.627 61.8166C319.495 61.8658 319.356 61.8936 319.215 61.8988H318.545H317.834C317.694 61.8913 317.555 61.8671 317.421 61.8269C317.328 61.7952 317.249 61.7337 317.195 61.652C317.144 61.5617 317.105 61.4648 317.081 61.3641L314.834 52.7458C314.791 52.6056 314.767 52.4604 314.762 52.3139C314.754 52.2707 314.758 52.2263 314.772 52.1849C314.787 52.1435 314.812 52.1065 314.844 52.0773C314.932 52.0077 315.042 51.9712 315.154 51.9745H315.762H316.339C316.445 51.9645 316.552 51.9645 316.659 51.9745C316.717 52.0011 316.767 52.0439 316.803 52.0979C316.829 52.1718 316.849 52.2474 316.865 52.3242L318.596 59.8831L320.4 52.3756C320.413 52.2925 320.441 52.2124 320.483 52.139C320.518 52.0745 320.577 52.0264 320.647 52.0053C320.748 51.9613 320.857 51.9368 320.967 51.9333H321.524H322.111C322.224 51.9391 322.336 51.9634 322.441 52.0053C322.515 52.0294 322.578 52.0809 322.616 52.1493C322.656 52.2232 322.684 52.3031 322.699 52.3859L324.564 59.8934L326.327 52.3961C326.327 52.3139 326.327 52.2522 326.389 52.1905C326.418 52.1292 326.469 52.0814 326.533 52.0568C326.63 52.0111 326.735 51.9865 326.842 51.9848H327.399H327.924C328.024 51.9829 328.12 52.0198 328.192 52.0876C328.241 52.1206 328.278 52.1687 328.296 52.2244C328.315 52.2802 328.315 52.3406 328.295 52.3961C328.287 52.5464 328.259 52.695 328.213 52.8384L325.914 61.3949Z" fill="#C5CDE3"/>
<path d="M247.899 58.7622C247.345 58.2092 246.905 57.5526 246.605 56.83C246.305 56.1074 246.15 55.3329 246.15 54.5507C246.15 53.7686 246.305 52.994 246.605 52.2714C246.905 51.5488 247.345 50.8923 247.899 50.3393C248.453 49.7849 249.111 49.345 249.835 49.0448C250.559 48.7446 251.336 48.5901 252.12 48.5901C252.904 48.5901 253.681 48.7446 254.405 49.0448C255.13 49.345 255.787 49.7849 256.341 50.3393C256.895 50.8924 257.335 51.5489 257.635 52.2715C257.935 52.9941 258.089 53.7686 258.089 54.5507C258.089 55.3329 257.935 56.1073 257.635 56.8299C257.335 57.5525 256.895 58.2091 256.341 58.7622C255.787 59.3152 255.129 59.7539 254.404 60.0532C253.68 60.3525 252.904 60.5066 252.12 60.5066C251.336 60.5066 250.56 60.3525 249.836 60.0532C249.112 59.7539 248.454 59.3152 247.899 58.7622ZM249.961 52.3962C249.397 52.9724 249.082 53.7456 249.082 54.5507C249.082 55.3558 249.397 56.129 249.961 56.7053C250.39 57.1444 250.941 57.4458 251.543 57.571C252.145 57.6963 252.77 57.6397 253.34 57.4084C253.909 57.1771 254.397 56.7817 254.74 56.2727C255.083 55.7637 255.266 55.1642 255.266 54.5507C255.266 53.9373 255.083 53.3378 254.74 52.8287C254.397 52.3197 253.909 51.9243 253.34 51.6931C252.77 51.4618 252.145 51.4052 251.543 51.5304C250.941 51.6557 250.39 51.9571 249.961 52.3962Z" fill="white"/>
<path d="M258.815 62.6806C259.103 62.6818 259.385 62.5974 259.625 62.4382C259.865 62.2789 260.053 62.052 260.163 61.7863C260.274 61.5205 260.302 61.228 260.246 60.9459C260.189 60.6638 260.05 60.4049 259.845 60.2021L256.32 56.6848C256.186 56.548 256.026 56.4393 255.849 56.3651C255.672 56.2909 255.482 56.2527 255.29 56.2527C255.098 56.2527 254.908 56.2909 254.731 56.3651C254.554 56.4393 254.393 56.548 254.259 56.6848C253.987 56.9584 253.834 57.328 253.834 57.7133C253.834 58.0985 253.987 58.4682 254.259 58.7417L257.784 62.2589C258.06 62.5277 258.429 62.6789 258.815 62.6806Z" fill="white"/>
<path d="M204.259 113.125C204.259 113.125 216.978 128.973 224.193 131.842C233.139 135.421 262 118.853 262 118.853L259.031 109.217L231.026 115.727L215.122 98.2437L204.259 113.125Z" fill="#FFCFC5"/>
<path d="M192.612 97.7603L205.547 114.215L205.918 114.699L208.433 117.876C210.123 117.611 211.739 116.995 213.174 116.066C214.05 115.583 214.968 115.038 215.885 114.39C221.451 110.616 227.275 104.918 225.852 103.077C225.852 103.077 214.184 88.9158 209.155 86.2522C204.527 83.8148 191.509 83.5269 191.509 83.5269L192.612 97.7603Z" fill="#FB9100"/>
<path d="M205.918 114.647L208.433 117.825C210.123 117.56 211.739 116.943 213.174 116.015C214.05 115.532 214.968 114.986 215.885 114.339L210.227 101.555L205.918 114.647Z" fill="black"/>
<path d="M249.59 137.262C248.706 137.263 247.841 137.008 247.1 136.528C246.359 136.047 245.773 135.363 245.414 134.557C245.055 133.752 244.938 132.859 245.077 131.989C245.217 131.118 245.606 130.306 246.199 129.652L279.336 91.8263C279.359 91.7958 279.388 91.7713 279.422 91.7552C279.457 91.739 279.494 91.7316 279.532 91.7338C279.568 91.7349 279.603 91.7437 279.635 91.7597C279.667 91.7757 279.695 91.7984 279.718 91.8263L279.882 91.9909L285.819 97.3284C285.904 97.4034 285.993 97.4721 286.087 97.5341C286.117 97.5537 286.143 97.5794 286.163 97.6095C286.182 97.6397 286.195 97.6735 286.201 97.7089C286.206 97.7456 286.203 97.783 286.192 97.8185C286.182 97.854 286.164 97.8868 286.139 97.9146L253.053 135.751C252.616 136.233 252.081 136.617 251.484 136.878C250.887 137.139 250.241 137.27 249.59 137.262ZM279.532 92.3611L246.549 129.991C246.192 130.387 245.916 130.849 245.738 131.351C245.559 131.853 245.482 132.385 245.509 132.917C245.537 133.449 245.67 133.971 245.899 134.451C246.129 134.932 246.451 135.363 246.848 135.72C247.245 136.076 247.708 136.351 248.211 136.529C248.714 136.707 249.247 136.785 249.78 136.757C250.314 136.729 250.836 136.597 251.318 136.368C251.8 136.139 252.232 135.817 252.589 135.421L285.572 97.7809L285.479 97.7089L279.542 92.3714L279.532 92.3611Z" fill="black"/>
<path d="M275.543 95.1274C275.607 95.2102 275.68 95.2861 275.76 95.3537L282.501 101.411L282.841 101.668C283.614 102.233 284.57 102.49 285.523 102.389C286.476 102.288 287.357 101.837 287.994 101.123L290.921 98.0379C286.081 95.119 281.799 91.3652 278.275 86.9514L275.481 89.9339C274.837 90.6496 274.486 91.5807 274.497 92.5427C274.509 93.5046 274.882 94.4272 275.543 95.1274Z" fill="#242B2B"/>
<g opacity="0.2">
<path d="M315.174 100.342C308.636 102.057 301.735 101.799 295.343 99.6011C288.952 97.4028 283.358 93.3626 279.268 87.9916C275.178 82.6205 272.776 76.1599 272.366 69.4269C271.957 62.6938 273.557 55.9907 276.966 50.1654C280.375 44.3401 285.438 39.6543 291.516 36.7006C297.594 33.7469 304.413 32.658 311.111 33.5716C317.81 34.4852 324.086 37.3603 329.146 41.8333C334.207 46.3062 337.824 52.1761 339.54 58.7005C340.703 63.0314 340.993 67.5491 340.395 71.9927C339.798 76.4362 338.323 80.7176 336.058 84.5894C333.792 88.4613 330.78 91.8468 327.196 94.5505C323.611 97.2542 319.525 99.2225 315.174 100.342Z" fill="white"/>
</g>
<path d="M306.423 101.761C300.34 101.743 294.371 100.11 289.128 97.03L289.035 96.9683L288.613 96.7215C285.156 94.6294 282.096 91.9452 279.573 88.7923C279.213 88.3501 278.872 87.8873 278.543 87.3833C276.083 83.9734 274.28 80.1375 273.224 76.0706C271.424 69.142 271.841 61.825 274.417 55.1449C276.994 48.4647 281.6 42.7562 287.591 38.8191C293.582 34.8821 300.657 32.9138 307.825 33.1901C314.994 33.4664 321.896 35.9735 327.564 40.36C333.233 44.7465 337.384 50.7926 339.436 57.6511C341.488 64.5097 341.339 71.837 339.008 78.6064C336.677 85.3757 332.282 91.2479 326.439 95.4001C320.596 99.5523 313.597 101.776 306.423 101.761ZM273.667 75.9678C274.713 79.9682 276.492 83.7409 278.914 87.0954C279.264 87.589 279.604 88.0415 279.944 88.4838C282.425 91.5925 285.44 94.2356 288.85 96.2896L289.262 96.5364L289.355 96.5981C296.13 100.551 304.068 102.038 311.819 100.805C319.569 99.5723 326.651 95.6962 331.858 89.8372C337.065 83.9782 340.075 76.499 340.375 68.674C340.674 60.8489 338.245 53.1623 333.502 46.9239C328.758 40.6855 321.993 36.2814 314.36 34.4621C306.726 32.6427 298.697 33.5206 291.639 36.9463C284.582 40.372 278.933 46.1334 275.656 53.2487C272.379 60.3641 271.676 68.3932 273.667 75.9678Z" fill="#242B2B"/>
<path d="M259.031 109.217L260.247 113.166L266.875 109.988C266.875 109.988 271.884 113.074 272.028 111.192C272.131 109.906 270.06 107.222 268.637 106.224C268.284 105.978 267.873 105.824 267.444 105.78C267.015 105.735 266.581 105.799 266.184 105.967L259.031 109.217Z" fill="#FFCFC5"/>
<path d="M272.874 120.602C272.622 120.97 272.266 121.256 271.851 121.423C271.437 121.589 270.982 121.629 270.544 121.538C270.544 121.538 270.606 123.214 269.431 123.595C269.16 123.724 268.851 123.755 268.56 123.682C268.268 123.609 268.011 123.436 267.833 123.193C267.833 123.193 267.957 124.767 266.957 124.993C265.957 125.219 264.69 124.047 264.69 124.047C264.69 124.047 263.834 125.898 262.628 125.158C261.422 124.417 257.361 121.435 259.814 120.252C259.351 119.882 259.433 117.311 261.257 118.473C261.115 118.277 261.03 118.044 261.013 117.803C260.995 117.561 261.047 117.319 261.161 117.104C261.274 116.89 261.446 116.712 261.656 116.59C261.867 116.469 262.107 116.408 262.35 116.416C262.35 116.416 260.938 113.938 262.35 113.783C263.762 113.629 265.442 117.085 268.39 117.691C268.576 117.691 269.142 117.362 269.709 116.951C270.276 116.54 271.08 115.922 271.08 115.922C271.08 115.922 273.894 119.296 272.874 120.602Z" fill="#FFCFC5"/>
<path d="M270.575 118.627C269.843 118.75 268.421 117.599 268.421 117.599C268.606 117.599 269.173 117.27 269.74 116.858C270.062 117.426 270.342 118.017 270.575 118.627Z" fill="#FC9B88"/>
<path d="M261.299 118.452C262.948 119.933 264.607 121.538 266.772 122.155C264.514 121.867 262.649 120.16 261.299 118.452Z" fill="#FC9B88"/>
<path d="M259.866 120.273C260.946 121.528 262.3 122.52 263.824 123.173C262.993 123.005 262.208 122.659 261.525 122.158C260.841 121.657 260.275 121.014 259.866 120.273Z" fill="#FC9B88"/>
<path d="M262.401 116.159C264.226 117.732 266.081 119.666 268.586 120.005C266.05 120.005 263.948 117.948 262.401 116.159Z" fill="#FC9B88"/>
<path d="M264.391 277.818L249.538 273.303L246.446 271.041L232.016 276.131L233.459 287.444C233.457 287.588 233.488 287.731 233.55 287.862C233.611 287.993 233.7 288.108 233.812 288.2C233.924 288.292 234.055 288.357 234.195 288.392C234.335 288.427 234.482 288.43 234.624 288.4L265.854 282.086C266.106 282.034 266.326 281.884 266.467 281.67C266.608 281.456 266.659 281.195 266.607 280.944L266.38 279.813C266.29 279.318 266.052 278.863 265.697 278.506C265.341 278.15 264.886 277.91 264.391 277.818Z" fill="black"/>
<path d="M246.446 271.041L244.385 259.862L229.759 262.71L232.088 276.131C238.479 277.427 243.91 275.566 246.446 271.041Z" fill="#FFCFC5"/>
<path d="M251.218 278.147L250.734 278.003C250.925 277.351 251.267 276.754 251.732 276.259C252.198 275.764 252.774 275.386 253.414 275.154L253.558 275.638C252.997 275.842 252.493 276.176 252.086 276.612C251.679 277.048 251.382 277.574 251.218 278.147Z" fill="white"/>
<path d="M254.475 279.186L253.991 279.042C254.182 278.39 254.524 277.793 254.99 277.298C255.455 276.803 256.031 276.424 256.671 276.193L256.825 276.676C256.264 276.882 255.759 277.216 255.35 277.652C254.942 278.087 254.642 278.613 254.475 279.186Z" fill="white"/>
<path d="M195.085 287.526L182.902 277.91L180.841 274.671L165.565 274.167L162.793 285.192C162.749 285.326 162.733 285.468 162.747 285.609C162.761 285.749 162.803 285.885 162.872 286.009C162.94 286.132 163.034 286.24 163.146 286.326C163.258 286.412 163.387 286.474 163.525 286.508L194.9 292.021C195.152 292.05 195.406 291.985 195.613 291.839C195.821 291.693 195.967 291.476 196.023 291.229L196.219 290.097C196.314 289.605 196.257 289.095 196.054 288.635C195.852 288.176 195.514 287.789 195.085 287.526Z" fill="black"/>
<path d="M180.83 274.671L182.964 263.502L168.307 260.828L165.565 274.198C171.069 277.715 176.78 277.931 180.83 274.671Z" fill="#FFCFC5"/>
<path d="M182.665 283.022L182.263 282.713C182.676 282.173 183.212 281.74 183.827 281.448C184.442 281.156 185.118 281.016 185.798 281.037V281.541C185.196 281.522 184.598 281.647 184.053 281.904C183.508 282.162 183.032 282.545 182.665 283.022Z" fill="white"/>
<path d="M185.324 285.181L184.922 284.873C185.337 284.332 185.875 283.898 186.492 283.606C187.108 283.315 187.786 283.174 188.468 283.197V283.69C187.863 283.672 187.262 283.798 186.716 284.057C186.169 284.316 185.692 284.702 185.324 285.181Z" fill="white"/>
<path d="M249.693 260.078L239.386 262.659L226.368 265.919L212.968 204.213L176.223 153.995C176.924 145.233 192.508 142.806 202.754 138.517C202.754 138.517 230.398 181.022 236.469 196.695C241.983 210.929 247.229 243.582 249.043 255.583C249.456 258.391 249.693 260.078 249.693 260.078Z" fill="#1B5A96"/>
<path d="M249.693 260.077L239.386 262.659L229.882 263.739L249.002 255.511C249.456 258.391 249.693 260.077 249.693 260.077Z" fill="black"/>
<path d="M190.777 138.476C190.777 138.476 202.362 184.755 202.713 200.603C203.135 219.115 188.149 268.634 188.149 268.634L164.256 267.76L174.564 204.542C168.853 179.798 157.268 144.749 165.648 140.029L190.777 138.476Z" fill="#1B5A96"/>
<path d="M189.829 262.865L173.45 265.919L188.437 266.814L189.829 262.865Z" fill="black"/>
<path d="M201.136 188.417C199.517 178.04 196.693 164.917 194.601 155.733L195.096 155.62C197.157 164.814 200.012 177.947 201.641 188.334L201.136 188.417Z" fill="white"/>
<path d="M208.072 147.259C202.455 150.55 162.298 153.491 161.525 145.665C161.278 143.248 162.71 139.741 162.71 139.741C162.71 139.741 160.103 93.3585 164.772 87.1057C167.081 84.0204 176.11 82.4263 178.748 82.0561C188.705 80.6163 202.197 82.0561 208.546 87.0748C215.545 92.5975 206.629 137.015 206.629 137.015C207.198 137.664 207.722 138.351 208.196 139.072C208.32 139.371 212.267 144.801 208.072 147.259Z" fill="#FB9100"/>
<path d="M204.259 138.332L181.294 126.762L175.11 105.864L177.563 95.1479C177.563 95.1479 180.583 103.314 181.469 106.183C183.016 111.191 186.314 125.209 186.314 125.209L204.259 138.332Z" fill="black"/>
<path d="M187.087 46.0303C187.205 46.4663 187.268 46.9155 187.272 47.3672C187.138 46.925 187.087 46.4828 187.087 46.0303Z" fill="#FFCFC5"/>
<path d="M181.995 78.6419L184.675 84.2365L192.416 85.049L196.673 86.0157L195.446 79.3104L195.549 77.6443L195.848 73.2323L182.799 64.8403C182.799 65.4163 182.882 65.9922 182.902 66.5578C183.087 70.6076 182.783 74.6648 181.995 78.6419Z" fill="#FFCFC5"/>
<path d="M182.799 64.8403C182.799 65.4163 182.882 65.9922 182.902 66.5578H183.15C183.294 66.9401 183.398 67.3365 183.459 67.7405C185.201 73.6848 190.993 77.5312 195.549 77.6134L195.848 73.2015L182.799 64.8403Z" fill="#FC9B88"/>
<path d="M181.995 78.6418C183.325 81.7888 188.344 83.5783 192.405 85.0387C192.405 85.0387 191.189 92.2377 189.963 92.2377C188.736 92.2377 178.563 87.6818 178.697 82.0871C180.009 81.162 181.129 79.992 181.995 78.6418Z" fill="#C66A05"/>
<path d="M192.416 85.0489C192.416 85.0489 194.735 90.5099 196.332 90.9624C198.157 91.4766 199.6 86.3653 199.332 83.6606L195.446 79.3103C195.786 81.1923 196.436 82.8275 192.416 85.0489Z" fill="#C66A05"/>
<path d="M195.075 75.9678C190.457 76.1735 184.294 72.2655 182.48 66.0949C182.433 65.688 182.329 65.2898 182.17 64.9122C181.553 64.8279 180.959 64.6172 180.427 64.2934C179.895 63.9695 179.436 63.5395 179.078 63.0302C177.738 61.251 177.728 58.9884 179.078 58.0012C179.48 57.7279 179.948 57.5658 180.433 57.5315C180.918 57.4972 181.404 57.5918 181.841 57.8058C182.593 51.3575 186.19 46.421 190.839 46.1125C193.931 45.8965 196.848 47.7786 198.93 50.9153C199.191 51.2968 199.431 51.6916 199.651 52.098C201.034 54.7116 201.839 57.5909 202.012 60.5414C202.548 68.8511 199.93 75.7416 195.075 75.9678Z" fill="#FFCFC5"/>
<path d="M173.461 65.9098C173.87 66.7878 174.456 67.5718 175.183 68.2125C175.911 68.8532 176.763 69.3368 177.687 69.6328C179.635 70.3115 181.356 71.4839 183.314 70.7949L183.108 70.4555C183.022 68.9869 182.812 67.5282 182.48 66.095C182.425 65.6907 182.325 65.2939 182.181 64.9123C181.563 64.828 180.97 64.6173 180.438 64.2934C179.906 63.9696 179.446 63.5395 179.089 63.0302C177.759 61.2408 177.738 58.9885 179.089 58.0012C179.491 57.7279 179.958 57.5659 180.443 57.5316C180.928 57.4972 181.414 57.5919 181.851 57.8058C181.851 57.8058 184.087 58.9885 183.912 61.0248L185.448 61.611L186.314 57.9498C186.314 57.9498 188.932 56.1912 187.798 54.0932C189.4 54.6965 191.087 55.0436 192.797 55.1216C193.532 55.2205 194.279 55.0836 194.931 54.7308C195.204 54.5592 195.414 54.3047 195.531 54.0047C195.648 53.7047 195.665 53.3752 195.58 53.0647C195.209 52.7974 194.838 52.5197 194.467 52.2317L195.498 52.8282C195.553 52.8989 195.595 52.9791 195.621 53.0647C196.586 53.8069 197.647 54.4157 198.775 54.8748C199.543 55.2153 200.373 55.3912 201.213 55.3912C202.053 55.3912 202.883 55.2153 203.651 54.8748C204.258 54.5958 204.748 54.1112 205.032 53.507C205.165 53.2038 205.203 52.8675 205.14 52.5425C205.077 52.2175 204.917 51.919 204.681 51.6866C204.572 51.5931 204.446 51.5199 204.31 51.4707C203.867 51.6352 203.413 51.7689 202.97 51.8923C203.114 51.682 203.324 51.526 203.567 51.4495C203.81 51.3729 204.072 51.3804 204.31 51.4707C204.743 51.3207 205.155 51.1169 205.537 50.8639C205.932 50.6187 206.263 50.2844 206.505 49.8878C206.747 49.4912 206.892 49.0435 206.928 48.5808C206.916 48.0442 206.715 47.5291 206.361 47.1251C206.007 46.7211 205.522 46.4537 204.99 46.3697C204.456 46.3164 203.918 46.4421 203.463 46.727C203.008 47.0118 202.66 47.4397 202.476 47.9432C202.267 46.1277 201.581 44.3996 200.486 42.9347C199.966 42.1548 199.257 41.5182 198.425 41.0835C198.005 40.8704 197.54 40.7593 197.069 40.7593C196.598 40.7593 196.134 40.8704 195.714 41.0835C195.31 41.3186 194.998 41.6839 194.829 42.1194C194.661 42.5549 194.646 43.0346 194.786 43.4798C193.314 42.121 191.476 41.2203 189.499 40.8881C188.511 40.7395 187.501 40.863 186.578 41.2455C185.655 41.6279 184.854 42.2547 184.263 43.0581C183.754 43.878 183.477 44.8195 183.459 45.7835C182.796 46.2927 182.25 46.9365 181.855 47.6722C181.461 48.408 181.227 49.2189 181.171 50.0514C180.016 48.9305 177.728 49.2287 176.522 50.288C175.934 50.8396 175.566 51.5845 175.484 52.3856C175.403 53.1868 175.614 53.9903 176.079 54.6485C175.743 54.2519 175.274 53.9919 174.759 53.918C174.244 53.844 173.72 53.9613 173.286 54.2474C172.865 54.5487 172.517 54.9392 172.265 55.3909C172.014 55.8425 171.866 56.3442 171.832 56.8597C171.741 57.802 171.901 58.7517 172.298 59.6117C172.694 60.4718 173.313 61.2114 174.09 61.755C172.657 63.0199 172.729 64.1307 173.461 65.9098Z" fill="black"/>
<path d="M194.477 52.2317C194.848 52.5197 195.219 52.7973 195.59 53.0647C195.564 52.9791 195.522 52.8989 195.467 52.8282L194.477 52.2317Z" fill="black"/>
<path d="M198.342 61.6829L199.662 66.8662L197.085 67.1747L198.342 61.6829Z" fill="#FC9B88"/>
<path d="M208.144 139.113C204.351 140.018 199.043 141.386 196.807 141.582C201.259 140.893 206.537 137.015 206.537 137.015C207.121 137.676 207.659 138.377 208.144 139.113Z" fill="black"/>
<path d="M162.545 136.429C164.277 140.018 176.223 142.353 176.512 142.394C166.565 142.908 162.71 139.741 162.71 139.741V140.111C162.716 140.032 162.716 139.953 162.71 139.874L162.545 136.429Z" fill="black"/>
<path d="M224.11 267.791C224.272 268.443 224.668 269.014 225.223 269.395C225.488 269.579 225.787 269.707 226.102 269.77C226.418 269.834 226.743 269.832 227.058 269.765L250.6 264.253C251.238 264.071 251.778 263.644 252.103 263.066C252.427 262.488 252.509 261.806 252.331 261.168C252.182 260.501 251.784 259.916 251.218 259.532C250.956 259.345 250.657 259.214 250.341 259.151C250.024 259.087 249.698 259.091 249.384 259.162L225.852 264.685C225.209 264.867 224.664 265.296 224.338 265.878C224.011 266.461 223.929 267.148 224.11 267.791Z" fill="#1B5A96"/>
<path d="M162.35 265.837C162.255 266.515 162.416 267.204 162.803 267.77C162.977 268.042 163.206 268.275 163.476 268.452C163.746 268.629 164.051 268.747 164.37 268.799L188.324 272.141C188.987 272.201 189.648 271.997 190.162 271.573C190.675 271.149 191 270.54 191.065 269.878C191.169 269.201 191.011 268.51 190.622 267.945C190.448 267.672 190.217 267.439 189.945 267.261C189.673 267.084 189.366 266.966 189.045 266.917L165.102 263.574C164.437 263.514 163.775 263.718 163.26 264.141C162.744 264.565 162.417 265.174 162.35 265.837Z" fill="#1B5A96"/>
<path d="M206.341 139.638L201.795 149.233C201.795 149.233 172.605 143.135 168.812 138.178C163.71 131.483 160.69 109.947 160.69 109.947L178.913 108.446C178.913 109.104 181.5 123.728 182.005 124.201C182.511 124.674 206.341 139.638 206.341 139.638Z" fill="#FFCFC5"/>
<path d="M181.995 113.413C181.995 114.544 162.566 121.003 160.02 117.609C160.02 117.609 156.495 101.349 158.763 93.4305C161.03 85.5116 171.533 83.5679 171.533 83.5679C176.223 87.9387 180.532 102.008 181.995 113.413Z" fill="#FB9100"/>
<path d="M205.64 139.134C205.64 139.134 213.886 135.534 215.277 137.509C216.669 139.484 211.783 142.271 211.783 142.271" fill="#FFCFC5"/>
<path d="M211.989 160.957H233.892C234.655 160.962 235.392 160.686 235.963 160.181C236.534 159.676 236.898 158.978 236.984 158.222L240.684 129.364C240.747 128.924 240.713 128.476 240.586 128.05C240.459 127.625 240.241 127.231 239.947 126.897C239.654 126.563 239.291 126.297 238.885 126.115C238.478 125.934 238.037 125.842 237.592 125.847H215.648C214.885 125.842 214.148 126.119 213.577 126.624C213.006 127.129 212.642 127.826 212.556 128.582L208.907 157.44C208.845 157.879 208.878 158.326 209.005 158.751C209.132 159.176 209.349 159.569 209.641 159.903C209.933 160.237 210.295 160.504 210.7 160.686C211.105 160.868 211.545 160.96 211.989 160.957Z" fill="#F7F2EB"/>
<path d="M233.892 161.214H211.989C211.508 161.214 211.033 161.111 210.596 160.914C210.158 160.716 209.767 160.428 209.449 160.068C209.131 159.708 208.894 159.285 208.753 158.826C208.611 158.368 208.569 157.885 208.629 157.409L212.288 128.551C212.391 127.735 212.789 126.985 213.408 126.441C214.027 125.898 214.824 125.598 215.648 125.6H237.592C238.073 125.597 238.548 125.697 238.987 125.893C239.426 126.089 239.817 126.377 240.136 126.736C240.454 127.096 240.691 127.519 240.832 127.977C240.973 128.436 241.014 128.919 240.952 129.395L237.293 158.253C237.192 159.078 236.788 159.836 236.161 160.383C235.533 160.93 234.725 161.226 233.892 161.214ZM215.648 126.104C214.948 126.103 214.271 126.358 213.745 126.82C213.219 127.282 212.881 127.92 212.793 128.613L209.134 157.471C209.085 157.875 209.121 158.286 209.242 158.675C209.363 159.064 209.564 159.423 209.834 159.729C210.104 160.035 210.435 160.281 210.806 160.45C211.178 160.619 211.581 160.708 211.989 160.711H233.892C234.593 160.709 235.27 160.452 235.796 159.988C236.321 159.524 236.659 158.885 236.747 158.191L240.396 129.333C240.449 128.929 240.414 128.518 240.295 128.127C240.175 127.737 239.974 127.377 239.703 127.071C239.433 126.766 239.1 126.521 238.727 126.354C238.354 126.187 237.949 126.102 237.541 126.104H215.648Z" fill="#242B2B"/>
<path d="M213.102 160.957H235.005C235.61 160.961 236.203 160.788 236.711 160.459C237.218 160.13 237.618 159.66 237.86 159.106C237.706 159.117 237.551 159.117 237.396 159.106H215.493C215.048 159.11 214.607 159.019 214.201 158.838C213.794 158.656 213.432 158.389 213.138 158.056C212.845 157.722 212.627 157.328 212.5 156.903C212.373 156.477 212.339 156.029 212.401 155.589L216.05 126.731C216.089 126.429 216.172 126.135 216.297 125.857C215.623 125.954 215 126.271 214.524 126.759C214.049 127.246 213.748 127.876 213.669 128.551L210.01 157.409C209.943 157.851 209.973 158.303 210.098 158.732C210.223 159.162 210.44 159.559 210.734 159.897C211.028 160.234 211.392 160.504 211.801 160.687C212.21 160.87 212.654 160.962 213.102 160.957Z" fill="#E5E8FF"/>
<path d="M235.005 161.214H213.102C212.622 161.214 212.147 161.111 211.71 160.914C211.272 160.716 210.882 160.427 210.565 160.067C210.248 159.707 210.012 159.284 209.872 158.826C209.732 158.367 209.691 157.884 209.752 157.409L213.401 128.551C213.506 127.736 213.905 126.987 214.524 126.444C215.142 125.901 215.937 125.601 216.761 125.6H238.623C239.103 125.599 239.577 125.7 240.015 125.897C240.452 126.093 240.842 126.381 241.159 126.74C241.477 127.099 241.713 127.522 241.853 127.98C241.994 128.438 242.034 128.92 241.973 129.395L238.324 158.253C238.22 159.062 237.827 159.807 237.218 160.351C236.608 160.895 235.823 161.201 235.005 161.214ZM216.761 126.104C216.061 126.105 215.386 126.361 214.861 126.823C214.335 127.284 213.996 127.921 213.906 128.613L210.257 157.471C210.203 157.875 210.236 158.287 210.355 158.677C210.474 159.068 210.677 159.428 210.948 159.733C211.217 160.039 211.548 160.285 211.92 160.453C212.291 160.622 212.694 160.709 213.102 160.71H235.005C235.707 160.708 236.383 160.452 236.909 159.988C237.434 159.524 237.772 158.885 237.86 158.191L241.519 129.333C241.57 128.929 241.535 128.519 241.415 128.129C241.295 127.74 241.093 127.38 240.823 127.075C240.553 126.769 240.22 126.525 239.848 126.357C239.476 126.19 239.072 126.103 238.664 126.104H216.761Z" fill="#242B2B"/>
<path d="M226.718 147.948C227.657 147.923 228.558 147.571 229.264 146.953C229.97 146.335 230.437 145.49 230.583 144.564C230.659 144.143 230.639 143.71 230.525 143.298C230.412 142.886 230.207 142.504 229.926 142.18C229.646 141.857 229.296 141.6 228.904 141.429C228.511 141.258 228.084 141.176 227.656 141.191C226.72 141.215 225.822 141.566 225.117 142.182C224.413 142.798 223.948 143.641 223.801 144.564C223.726 144.985 223.746 145.417 223.859 145.829C223.972 146.241 224.175 146.623 224.454 146.947C224.734 147.271 225.082 147.529 225.473 147.702C225.865 147.875 226.29 147.959 226.718 147.948Z" fill="#E5E8FF"/>
<path d="M226.718 147.948C227.587 147.941 228.428 147.636 229.099 147.084C228.742 147.198 228.37 147.257 227.996 147.259C227.568 147.27 227.142 147.185 226.75 147.012C226.359 146.839 226.01 146.582 225.73 146.258C225.45 145.934 225.245 145.553 225.131 145.141C225.017 144.729 224.996 144.296 225.069 143.875C225.225 142.883 225.752 141.987 226.543 141.366C225.835 141.596 225.205 142.017 224.722 142.581C224.238 143.145 223.92 143.831 223.801 144.564C223.726 144.985 223.746 145.417 223.859 145.829C223.972 146.241 224.175 146.623 224.454 146.947C224.734 147.271 225.082 147.529 225.473 147.702C225.865 147.875 226.29 147.959 226.718 147.948Z" fill="#C5CDE3"/>
<path d="M211.824 142.271C211.824 142.271 221.4 144.77 221.101 146.58C220.853 147.958 218.936 147.793 217.627 147.351C219.111 148.092 221.245 150.262 220.925 150.899C220.06 152.596 216.803 150.2 215.834 149.603C216.782 150.21 219.122 152.75 218.699 153.254C217.895 154.19 215.081 152.36 213.782 151.64C214.906 152.308 215.761 154.55 215.246 154.818C213.391 155.795 201.177 149.151 201.136 148.74C199.363 147.896 203.908 138.301 205.691 139.134" fill="#FFCFC5"/>
<path d="M309.186 146.127H268.442V153.923H309.186V146.127Z" fill="#E5E8FF"/>
<path d="M306.042 158.314H271.596V160.659H306.042V158.314Z" fill="#E5E8FF"/>
<path d="M306.042 163.127H271.596V165.472H306.042V163.127Z" fill="#E5E8FF"/>
<path d="M275.255 135.524V140.389C275.241 140.653 275.127 140.901 274.935 141.083C274.743 141.265 274.489 141.366 274.224 141.366H269.379C269.115 141.366 268.86 141.265 268.668 141.083C268.476 140.901 268.362 140.653 268.349 140.389V135.524C268.365 135.262 268.48 135.016 268.672 134.837C268.863 134.657 269.116 134.557 269.379 134.558H274.224C274.487 134.557 274.74 134.657 274.932 134.837C275.123 135.016 275.239 135.262 275.255 135.524Z" fill="white"/>
<path d="M274.275 141.613H269.431C269.269 141.614 269.108 141.583 268.958 141.522C268.808 141.462 268.672 141.372 268.557 141.258C268.442 141.144 268.351 141.009 268.288 140.86C268.226 140.71 268.194 140.55 268.194 140.389V135.524C268.197 135.199 268.328 134.888 268.56 134.658C268.792 134.429 269.105 134.301 269.431 134.301H274.275C274.602 134.301 274.915 134.429 275.146 134.658C275.378 134.888 275.51 135.199 275.512 135.524V140.389C275.512 140.55 275.48 140.71 275.418 140.86C275.356 141.009 275.264 141.144 275.149 141.258C275.034 141.372 274.898 141.462 274.748 141.522C274.598 141.583 274.437 141.614 274.275 141.613ZM269.431 134.804C269.239 134.804 269.054 134.88 268.917 135.015C268.78 135.149 268.702 135.333 268.699 135.524V140.389C268.699 140.484 268.718 140.579 268.755 140.667C268.792 140.755 268.846 140.835 268.914 140.902C268.982 140.969 269.063 141.021 269.152 141.057C269.24 141.092 269.335 141.11 269.431 141.109H274.275C274.467 141.109 274.65 141.033 274.786 140.898C274.921 140.763 274.997 140.58 274.997 140.389V135.524C274.997 135.333 274.921 135.15 274.786 135.015C274.65 134.88 274.467 134.804 274.275 134.804H269.431Z" fill="#242B2B"/>
<path d="M286.572 128.726V140.389C286.559 140.644 286.452 140.885 286.271 141.066C286.09 141.246 285.848 141.353 285.593 141.366H280.738C280.482 141.353 280.24 141.246 280.059 141.066C279.878 140.885 279.771 140.644 279.759 140.389V128.726C279.758 128.462 279.86 128.208 280.042 128.017C280.225 127.825 280.474 127.711 280.738 127.698H285.593C285.857 127.711 286.106 127.825 286.288 128.017C286.471 128.208 286.572 128.462 286.572 128.726Z" fill="#FB9100"/>
<path d="M285.593 141.613H280.738C280.576 141.614 280.415 141.583 280.265 141.522C280.115 141.461 279.979 141.372 279.864 141.258C279.749 141.144 279.658 141.009 279.595 140.859C279.533 140.71 279.501 140.55 279.501 140.389V128.726C279.501 128.564 279.533 128.404 279.595 128.254C279.657 128.104 279.749 127.968 279.863 127.854C279.978 127.739 280.115 127.648 280.265 127.586C280.415 127.524 280.576 127.492 280.738 127.492H285.593C285.755 127.492 285.915 127.524 286.064 127.586C286.214 127.648 286.35 127.74 286.464 127.854C286.578 127.969 286.668 128.105 286.729 128.255C286.79 128.404 286.821 128.565 286.819 128.726V140.389C286.819 140.713 286.69 141.025 286.46 141.254C286.23 141.484 285.918 141.613 285.593 141.613ZM280.738 127.996C280.544 127.996 280.358 128.073 280.221 128.21C280.083 128.347 280.006 128.533 280.006 128.726V140.389C280.006 140.484 280.025 140.579 280.062 140.667C280.099 140.755 280.153 140.834 280.221 140.901C280.289 140.968 280.37 141.021 280.459 141.057C280.547 141.092 280.642 141.11 280.738 141.109H285.593C285.784 141.109 285.968 141.033 286.103 140.898C286.238 140.763 286.314 140.58 286.314 140.389V128.726C286.314 128.534 286.238 128.35 286.103 128.214C285.968 128.077 285.785 127.999 285.593 127.996H280.738Z" fill="#242B2B"/>
<path d="M297.879 120.53V140.389C297.88 140.517 297.856 140.645 297.807 140.764C297.758 140.883 297.686 140.992 297.595 141.083C297.504 141.174 297.395 141.246 297.276 141.294C297.157 141.343 297.029 141.367 296.9 141.366H292.055C291.926 141.367 291.798 141.343 291.679 141.294C291.56 141.246 291.451 141.174 291.36 141.083C291.269 140.992 291.197 140.883 291.148 140.764C291.099 140.645 291.075 140.517 291.076 140.389V120.53C291.076 120.402 291.101 120.275 291.151 120.157C291.2 120.039 291.272 119.932 291.364 119.843C291.455 119.753 291.563 119.682 291.681 119.634C291.8 119.586 291.927 119.562 292.055 119.563H296.9C297.028 119.562 297.155 119.586 297.274 119.634C297.392 119.682 297.5 119.753 297.591 119.843C297.682 119.932 297.755 120.039 297.804 120.157C297.853 120.275 297.879 120.402 297.879 120.53Z" fill="#C66A05"/>
<path d="M296.9 141.613H292.055C291.893 141.614 291.733 141.583 291.583 141.522C291.433 141.462 291.296 141.372 291.181 141.258C291.066 141.144 290.975 141.009 290.913 140.86C290.85 140.71 290.818 140.55 290.818 140.389V120.53C290.818 120.368 290.85 120.208 290.913 120.059C290.975 119.91 291.066 119.775 291.181 119.661C291.296 119.547 291.433 119.457 291.583 119.396C291.733 119.335 291.893 119.305 292.055 119.306H296.9C297.062 119.305 297.222 119.335 297.372 119.396C297.522 119.457 297.659 119.547 297.774 119.661C297.889 119.775 297.98 119.91 298.042 120.059C298.104 120.208 298.137 120.368 298.136 120.53V140.389C298.137 140.55 298.104 140.71 298.042 140.86C297.98 141.009 297.889 141.144 297.774 141.258C297.659 141.372 297.522 141.462 297.372 141.522C297.222 141.583 297.062 141.614 296.9 141.613ZM292.055 119.81C291.863 119.81 291.678 119.885 291.541 120.02C291.404 120.155 291.326 120.338 291.323 120.53V140.389C291.323 140.484 291.342 140.579 291.379 140.667C291.416 140.755 291.47 140.835 291.538 140.902C291.607 140.968 291.687 141.021 291.776 141.057C291.865 141.092 291.96 141.11 292.055 141.109H296.9C296.995 141.11 297.09 141.092 297.179 141.057C297.268 141.021 297.348 140.968 297.416 140.902C297.485 140.835 297.539 140.755 297.576 140.667C297.612 140.579 297.631 140.484 297.631 140.389V120.53C297.629 120.338 297.55 120.155 297.414 120.02C297.277 119.885 297.092 119.81 296.9 119.81H292.055Z" fill="#242B2B"/>
<path d="M309.196 116.231V140.389C309.183 140.652 309.068 140.901 308.877 141.083C308.685 141.265 308.43 141.366 308.165 141.366H303.311C303.055 141.353 302.813 141.246 302.632 141.066C302.451 140.885 302.344 140.644 302.332 140.389V116.231C302.344 115.976 302.451 115.734 302.632 115.554C302.813 115.373 303.055 115.266 303.311 115.254H308.165C308.43 115.254 308.685 115.355 308.877 115.537C309.068 115.719 309.183 115.967 309.196 116.231Z" fill="#1B5A96"/>
<path d="M308.217 141.613H303.362C303.037 141.613 302.725 141.484 302.495 141.254C302.265 141.025 302.136 140.713 302.136 140.389V116.231C302.136 115.906 302.265 115.595 302.495 115.366C302.725 115.136 303.037 115.007 303.362 115.007H308.217C308.542 115.007 308.854 115.136 309.084 115.366C309.314 115.595 309.443 115.906 309.443 116.231V140.389C309.443 140.713 309.314 141.025 309.084 141.254C308.854 141.484 308.542 141.613 308.217 141.613ZM303.362 115.511C303.171 115.511 302.987 115.587 302.852 115.722C302.717 115.857 302.641 116.04 302.641 116.231V140.389C302.641 140.58 302.717 140.763 302.852 140.898C302.987 141.033 303.171 141.109 303.362 141.109H308.217C308.408 141.109 308.592 141.033 308.727 140.898C308.862 140.763 308.938 140.58 308.938 140.389V116.231C308.938 116.04 308.862 115.857 308.727 115.722C308.592 115.587 308.408 115.511 308.217 115.511H303.362Z" fill="#242B2B"/>
<path d="M403.466 182.421H326.523C325.35 182.421 324.225 181.956 323.396 181.128C322.567 180.301 322.101 179.179 322.101 178.009V119.779C322.101 118.609 322.567 117.487 323.396 116.659C324.225 115.832 325.35 115.367 326.523 115.367H403.466C404.637 115.37 405.759 115.836 406.586 116.663C407.413 117.49 407.877 118.611 407.877 119.779V178.009C407.877 179.177 407.413 180.298 406.586 181.125C405.759 181.952 404.637 182.418 403.466 182.421ZM326.523 115.871C325.484 115.871 324.487 116.283 323.753 117.016C323.018 117.748 322.606 118.742 322.606 119.779V178.009C322.606 179.045 323.018 180.039 323.753 180.772C324.487 181.505 325.484 181.917 326.523 181.917H403.466C404.503 181.914 405.496 181.501 406.229 180.768C406.961 180.036 407.372 179.043 407.372 178.009V119.779C407.372 118.744 406.961 117.752 406.229 117.019C405.496 116.287 404.503 115.874 403.466 115.871H326.523Z" fill="black"/>
<path d="M386.253 131.174L375.523 145.572L369.071 154.201H364.948V122.155C368.923 122.159 372.857 122.96 376.517 124.509C380.176 126.058 383.487 128.325 386.253 131.174Z" fill="#E07912"/>
<path d="M386.253 131.174L375.523 145.572L369.071 154.2H364.948V153.121H367.463L373.915 144.492L381.717 134.064C382.134 133.509 382.436 132.877 382.606 132.204C382.776 131.532 382.81 130.833 382.708 130.147C382.605 129.462 382.367 128.803 382.008 128.21C381.649 127.616 381.175 127.1 380.615 126.69C382.664 127.959 384.556 129.464 386.253 131.174Z" fill="#C66A05"/>
<path d="M395.55 154.149H369.071L375.523 145.521L386.253 131.123C392.27 137.277 395.611 145.551 395.55 154.149Z" fill="#007AFD"/>
<path d="M395.807 154.406H368.566L386.232 130.752L386.438 130.968C392.503 137.148 395.871 145.47 395.807 154.118V154.406ZM369.576 153.902H395.344C395.325 145.575 392.079 137.578 386.284 131.585L369.576 153.902Z" fill="black"/>
<path d="M364.989 122.155V154.149H360.866L357.382 149.84L354.187 145.881L342.952 131.945C345.738 128.87 349.138 126.411 352.933 124.725C356.728 123.039 360.835 122.163 364.989 122.155Z" fill="#FB9100"/>
<path d="M364.989 122.155V154.149H360.866L359.99 153.069H363.34V122.216C363.896 122.175 364.443 122.155 364.989 122.155Z" fill="#DD7B05"/>
<path d="M360.907 154.149H334.48C334.458 148.091 336.113 142.144 339.262 136.964C339.406 136.738 339.54 136.511 339.685 136.295L340.118 135.637L340.551 135.01V134.948C340.685 134.753 340.819 134.568 340.963 134.383C341.107 134.197 341.241 134.012 341.385 133.838L341.818 133.292C341.913 133.191 342.003 133.085 342.086 132.974L342.478 132.521L342.973 131.976L354.208 145.911L357.403 149.871L360.907 154.149Z" fill="white"/>
<path d="M360.907 154.149H358.186L354.847 150.035L351.641 146.066L341.571 133.591L341.808 133.282C341.903 133.181 341.992 133.074 342.076 132.963L342.468 132.511L342.963 131.966L354.197 145.901L357.393 149.861L360.907 154.149Z" fill="#E5E8FF"/>
<path d="M395.55 154.149H369.071L375.523 145.521L386.253 131.123C392.27 137.277 395.611 145.551 395.55 154.149Z" fill="#2169A5"/>
<path d="M395.55 154.149H369.071L369.885 153.069H376.193C378.673 153.071 381.101 152.364 383.192 151.033C385.282 149.702 386.948 147.803 387.991 145.558C389.035 143.313 389.413 140.818 389.081 138.366C388.749 135.913 387.721 133.607 386.119 131.719L386.016 131.585L386.294 131.205C392.276 137.345 395.6 145.586 395.55 154.149Z" fill="#1B5A96"/>
<path d="M369.205 154.406H364.742V121.897H364.989C368.993 121.904 372.955 122.713 376.639 124.276C380.324 125.84 383.656 128.126 386.438 130.999L386.583 131.153L369.205 154.406ZM365.247 153.902H368.947L385.923 131.194C380.47 125.648 373.033 122.489 365.247 122.412V153.902Z" fill="black"/>
<path d="M365.247 154.406H360.784L342.653 131.935L342.808 131.781C345.606 128.676 349.026 126.192 352.847 124.489C356.668 122.787 360.804 121.904 364.989 121.897H365.247V154.406ZM361.031 153.902H364.742V122.412C360.705 122.447 356.72 123.312 353.035 124.954C349.349 126.597 346.043 128.98 343.323 131.956L361.031 153.902Z" fill="black"/>
<path d="M361.433 154.406H334.17V154.149C334.156 148.044 335.825 142.053 338.994 136.83L339.417 136.162L339.85 135.504L340.293 134.866L340.365 134.773L340.777 134.198L341.21 133.642L341.643 133.107L341.891 132.819L342.313 132.326C342.468 132.141 342.633 131.956 342.798 131.781L343.004 131.554L361.433 154.406ZM334.686 153.902H360.382L342.983 132.305C342.88 132.408 342.787 132.521 342.694 132.624C342.602 132.727 342.426 132.922 342.303 133.077C342.179 133.231 342.117 133.303 342.035 133.395L341.602 133.93L341.19 134.475L340.777 135.031L340.705 135.133C340.561 135.329 340.417 135.534 340.283 135.74C340.149 135.946 339.984 136.172 339.85 136.398C339.716 136.625 339.571 136.841 339.427 137.067C336.345 142.145 334.706 147.965 334.686 153.902Z" fill="black"/>
<path d="M395.807 154.406H368.566L386.232 130.752L386.438 130.968C392.503 137.148 395.871 145.47 395.807 154.118V154.406ZM369.576 153.902H395.344C395.325 145.575 392.079 137.578 386.284 131.585L369.576 153.902Z" fill="black"/>
<g opacity="0.1">
<path d="M377.77 152.648C377.771 153.15 377.74 153.651 377.677 154.149H352.352C352.298 153.65 352.271 153.149 352.27 152.648C352.274 149.934 353.149 147.292 354.767 145.111C356.385 142.929 358.661 141.322 361.261 140.525C363.862 139.728 366.649 139.783 369.216 140.682C371.782 141.581 373.993 143.277 375.523 145.521C376.972 147.618 377.755 150.101 377.77 152.648Z" fill="black"/>
</g>
<path d="M364.989 163.95C371.245 163.95 376.317 158.89 376.317 152.648C376.317 146.405 371.245 141.345 364.989 141.345C358.733 141.345 353.661 146.405 353.661 152.648C353.661 158.89 358.733 163.95 364.989 163.95Z" fill="white"/>
<path d="M364.989 164.207C362.698 164.207 360.458 163.529 358.552 162.259C356.647 160.989 355.162 159.184 354.286 157.071C353.409 154.959 353.179 152.635 353.626 150.393C354.073 148.15 355.177 146.09 356.797 144.474C358.417 142.857 360.481 141.756 362.729 141.31C364.976 140.864 367.305 141.093 369.422 141.968C371.539 142.843 373.349 144.325 374.622 146.226C375.895 148.127 376.574 150.361 376.574 152.648C376.571 155.713 375.35 158.651 373.178 160.819C371.006 162.986 368.061 164.205 364.989 164.207ZM364.989 141.582C362.797 141.582 360.655 142.23 358.833 143.445C357.011 144.66 355.591 146.386 354.752 148.407C353.913 150.427 353.694 152.65 354.122 154.794C354.549 156.939 355.604 158.909 357.154 160.455C358.704 162.001 360.678 163.054 362.827 163.481C364.977 163.907 367.204 163.688 369.229 162.851C371.254 162.015 372.984 160.598 374.202 158.78C375.419 156.962 376.069 154.824 376.069 152.637C376.064 149.708 374.894 146.9 372.817 144.83C370.74 142.759 367.925 141.595 364.989 141.592V141.582Z" fill="black"/>
<path d="M364.989 159.775C368.934 159.775 372.132 156.584 372.132 152.648C372.132 148.711 368.934 145.521 364.989 145.521C361.044 145.521 357.846 148.711 357.846 152.648C357.846 156.584 361.044 159.775 364.989 159.775Z" fill="#E5E8FF"/>
<path d="M366.154 154.293L362.216 151.516C362.182 151.494 362.154 151.465 362.132 151.431C362.111 151.396 362.097 151.358 362.092 151.318C362.087 151.277 362.091 151.237 362.104 151.198C362.116 151.16 362.137 151.124 362.165 151.095L375.564 136.327C375.609 136.273 375.672 136.238 375.742 136.229C375.811 136.22 375.881 136.237 375.938 136.277C375.995 136.317 376.035 136.378 376.05 136.446C376.065 136.514 376.053 136.585 376.018 136.645L366.556 154.211C366.537 154.245 366.511 154.275 366.48 154.298C366.448 154.322 366.412 154.338 366.374 154.345C366.336 154.353 366.296 154.353 366.258 154.344C366.22 154.335 366.184 154.317 366.154 154.293Z" fill="black"/>
<path d="M369.771 152.648C369.771 153.591 369.491 154.514 368.965 155.299C368.44 156.084 367.693 156.695 366.819 157.056C365.945 157.418 364.984 157.512 364.056 157.328C363.128 157.144 362.276 156.689 361.607 156.022C360.938 155.355 360.483 154.504 360.298 153.579C360.114 152.653 360.208 151.693 360.57 150.822C360.932 149.95 361.545 149.204 362.332 148.68C363.118 148.156 364.043 147.876 364.989 147.876C366.257 147.876 367.474 148.378 368.371 149.273C369.268 150.168 369.771 151.382 369.771 152.648Z" fill="black"/>
<path d="M388.623 168.434H343.22C341.877 168.434 340.788 169.521 340.788 170.861V173.237C340.788 174.577 341.877 175.664 343.22 175.664H388.623C389.967 175.664 391.056 174.577 391.056 173.237V170.861C391.056 169.521 389.967 168.434 388.623 168.434Z" fill="#E5E8FF"/>
<path d="M388.634 175.911H343.22C342.509 175.911 341.828 175.629 341.325 175.128C340.823 174.626 340.54 173.946 340.54 173.237V170.861C340.54 170.151 340.822 169.47 341.325 168.967C341.827 168.464 342.508 168.18 343.22 168.177H388.634C389.345 168.18 390.027 168.464 390.529 168.967C391.031 169.47 391.313 170.151 391.313 170.861V173.237C391.313 173.946 391.031 174.626 390.529 175.128C390.026 175.629 389.344 175.911 388.634 175.911ZM343.22 168.712C342.643 168.712 342.09 168.94 341.682 169.347C341.274 169.754 341.045 170.306 341.045 170.882V173.257C341.045 173.542 341.102 173.825 341.211 174.088C341.32 174.351 341.48 174.59 341.682 174.792C341.884 174.993 342.124 175.153 342.388 175.262C342.652 175.371 342.935 175.427 343.22 175.427H388.634C388.919 175.427 389.202 175.371 389.466 175.262C389.73 175.153 389.969 174.993 390.171 174.792C390.373 174.59 390.534 174.351 390.643 174.088C390.752 173.825 390.808 173.542 390.808 173.257V170.882C390.808 170.306 390.579 169.754 390.171 169.347C389.764 168.94 389.21 168.712 388.634 168.712H343.22Z" fill="#242B2B"/>
<path d="M270.833 228.854C270.3 228.854 269.781 228.689 269.347 228.381C268.913 228.073 268.586 227.639 268.411 227.137L267.792 225.306C267.679 224.984 267.486 224.694 267.233 224.464C266.979 224.235 266.672 224.072 266.339 223.99C265.762 223.846 265.164 223.661 264.525 223.435C264.204 223.317 263.859 223.281 263.521 223.329C263.183 223.378 262.862 223.509 262.587 223.712L261.041 224.864C260.583 225.21 260.021 225.391 259.446 225.378C258.872 225.365 258.319 225.159 257.877 224.792L254.465 221.974C254.024 221.609 253.718 221.106 253.597 220.547C253.475 219.988 253.545 219.404 253.795 218.889L254.64 217.171C254.792 216.863 254.864 216.522 254.849 216.179C254.835 215.836 254.735 215.502 254.558 215.207C254.236 214.668 253.944 214.112 253.682 213.541C253.535 213.231 253.315 212.961 253.04 212.755C252.765 212.549 252.444 212.413 252.105 212.358L250.198 212.091C249.63 212.01 249.105 211.741 248.709 211.327C248.312 210.913 248.067 210.378 248.013 209.808L247.6 205.396C247.542 204.826 247.68 204.253 247.991 203.771C248.301 203.288 248.767 202.926 249.311 202.743L251.136 202.126C251.459 202.012 251.749 201.82 251.979 201.567C252.21 201.314 252.373 201.007 252.455 200.675C252.62 200.058 252.795 199.472 253.012 198.865C253.13 198.545 253.166 198.201 253.117 197.864C253.069 197.526 252.937 197.206 252.733 196.932L251.579 195.389C251.234 194.931 251.054 194.37 251.069 193.796C251.084 193.223 251.293 192.672 251.661 192.232L254.486 188.828C254.851 188.386 255.355 188.08 255.916 187.959C256.476 187.838 257.062 187.908 257.578 188.159L259.309 189.013C259.618 189.161 259.958 189.23 260.3 189.214C260.642 189.198 260.975 189.097 261.268 188.92C261.812 188.597 262.373 188.302 262.948 188.036C263.258 187.893 263.528 187.675 263.733 187.403C263.938 187.13 264.072 186.81 264.123 186.473L264.401 184.57C264.478 184.002 264.747 183.476 265.163 183.08C265.578 182.684 266.117 182.441 266.689 182.39L271.111 181.968C271.682 181.915 272.254 182.056 272.735 182.367C273.216 182.679 273.577 183.144 273.76 183.686L274.389 185.506C274.501 185.831 274.692 186.122 274.946 186.354C275.2 186.586 275.508 186.75 275.842 186.833C276.419 186.977 277.007 187.152 277.646 187.378C277.968 187.497 278.315 187.534 278.655 187.486C278.995 187.437 279.318 187.305 279.594 187.1L281.13 185.948C281.589 185.604 282.152 185.424 282.726 185.439C283.301 185.454 283.853 185.662 284.294 186.031L287.716 188.848C288.157 189.214 288.462 189.718 288.581 190.277C288.701 190.837 288.628 191.42 288.376 191.934L287.53 193.662C287.382 193.969 287.313 194.309 287.329 194.65C287.345 194.991 287.446 195.323 287.623 195.616C287.943 196.159 288.235 196.719 288.499 197.292C288.643 197.603 288.863 197.873 289.139 198.078C289.414 198.283 289.736 198.415 290.076 198.464L291.983 198.732C292.551 198.814 293.074 199.083 293.47 199.497C293.866 199.911 294.112 200.445 294.168 201.015L294.581 205.427C294.638 205.998 294.499 206.572 294.186 207.055C293.873 207.537 293.405 207.899 292.859 208.08L291.045 208.707C290.72 208.819 290.428 209.011 290.196 209.264C289.963 209.517 289.798 209.824 289.716 210.158C289.564 210.767 289.378 211.368 289.159 211.957C289.039 212.279 289.002 212.625 289.051 212.964C289.099 213.304 289.232 213.626 289.437 213.901L290.592 215.433C290.937 215.891 291.117 216.452 291.104 217.025C291.091 217.597 290.885 218.149 290.52 218.591L287.695 222.005C287.328 222.443 286.823 222.746 286.263 222.866C285.703 222.985 285.118 222.914 284.603 222.663L282.882 221.82C282.572 221.67 282.23 221.6 281.886 221.616C281.542 221.632 281.208 221.734 280.913 221.913C280.408 222.211 279.882 222.499 279.243 222.787C278.932 222.931 278.661 223.15 278.456 223.425C278.251 223.699 278.117 224.021 278.068 224.36L277.79 226.263C277.711 226.83 277.442 227.355 277.027 227.751C276.611 228.146 276.074 228.39 275.502 228.443L271.08 228.854H270.833ZM263.803 222.807C264.109 222.807 264.412 222.86 264.7 222.962C265.276 223.175 265.865 223.353 266.463 223.496C266.878 223.6 267.26 223.806 267.575 224.095C267.89 224.385 268.128 224.748 268.266 225.152L268.895 226.972C269.047 227.405 269.34 227.775 269.726 228.022C270.113 228.27 270.571 228.382 271.029 228.34L275.44 227.929C275.899 227.885 276.331 227.69 276.665 227.373C277 227.056 277.218 226.636 277.285 226.181L277.553 224.278C277.612 223.854 277.779 223.452 278.036 223.111C278.294 222.769 278.635 222.498 279.027 222.324C279.581 222.063 280.121 221.775 280.645 221.46C281.012 221.242 281.427 221.119 281.854 221.101C282.28 221.083 282.704 221.171 283.088 221.357L284.82 222.2C285.234 222.401 285.704 222.457 286.154 222.36C286.604 222.263 287.009 222.019 287.304 221.666L290.128 218.262C290.419 217.907 290.584 217.466 290.595 217.007C290.606 216.549 290.463 216.1 290.19 215.732L289.035 214.189C288.781 213.847 288.615 213.447 288.554 213.025C288.493 212.603 288.538 212.172 288.685 211.772C288.881 211.237 289.066 210.661 289.231 210.024C289.331 209.608 289.535 209.224 289.823 208.908C290.111 208.591 290.475 208.353 290.88 208.214L292.705 207.597C293.138 207.445 293.509 207.153 293.757 206.768C294.005 206.382 294.117 205.924 294.075 205.468L293.663 201.056C293.617 200.6 293.42 200.172 293.103 199.84C292.785 199.508 292.366 199.292 291.911 199.225L290.004 198.958C289.58 198.896 289.179 198.729 288.837 198.472C288.495 198.215 288.223 197.876 288.046 197.487C287.785 196.931 287.496 196.389 287.18 195.862C286.961 195.497 286.837 195.082 286.819 194.657C286.801 194.231 286.89 193.808 287.077 193.425L287.922 191.697C288.12 191.285 288.176 190.818 288.078 190.371C287.981 189.924 287.738 189.522 287.386 189.229L283.974 186.411C283.62 186.119 283.178 185.953 282.719 185.94C282.26 185.927 281.809 186.067 281.439 186.339L279.893 187.491C279.551 187.748 279.15 187.914 278.727 187.975C278.303 188.036 277.871 187.99 277.471 187.841C276.852 187.625 276.275 187.45 275.718 187.306C275.302 187.204 274.919 187.001 274.602 186.713C274.285 186.426 274.045 186.064 273.904 185.66L273.286 183.84C273.136 183.405 272.844 183.034 272.457 182.784C272.071 182.534 271.611 182.421 271.152 182.462L266.73 182.884C266.273 182.929 265.844 183.126 265.512 183.443C265.179 183.76 264.962 184.178 264.896 184.632L264.628 186.534C264.566 186.957 264.398 187.358 264.141 187.699C263.883 188.041 263.544 188.312 263.154 188.489C262.599 188.742 262.059 189.027 261.536 189.342C261.168 189.562 260.752 189.688 260.323 189.708C259.895 189.727 259.469 189.641 259.083 189.455L257.351 188.602C256.938 188.404 256.47 188.349 256.022 188.446C255.574 188.542 255.171 188.786 254.877 189.136L252.022 192.551C251.731 192.905 251.566 193.347 251.555 193.805C251.544 194.264 251.687 194.713 251.96 195.081L253.115 196.613C253.369 196.955 253.535 197.355 253.596 197.777C253.657 198.199 253.612 198.63 253.465 199.03C253.254 199.607 253.071 200.194 252.919 200.789C252.816 201.202 252.612 201.583 252.324 201.898C252.036 202.212 251.673 202.45 251.27 202.588L249.445 203.216C249.014 203.367 248.645 203.657 248.396 204.041C248.148 204.424 248.035 204.879 248.075 205.334L248.487 209.746C248.532 210.201 248.728 210.628 249.043 210.959C249.359 211.291 249.776 211.508 250.229 211.577L252.146 211.854C252.569 211.914 252.97 212.08 253.312 212.335C253.654 212.59 253.927 212.927 254.104 213.315C254.361 213.871 254.647 214.413 254.96 214.94C255.179 215.305 255.305 215.719 255.325 216.144C255.344 216.57 255.258 216.993 255.073 217.377L254.228 219.105C254.026 219.517 253.968 219.985 254.063 220.434C254.158 220.884 254.401 221.288 254.754 221.583L258.176 224.401C258.531 224.692 258.973 224.856 259.433 224.867C259.892 224.878 260.342 224.736 260.711 224.463L262.247 223.311C262.696 222.978 263.243 222.801 263.803 222.807Z" fill="#242B2B"/>
<path d="M279.099 195.749C277.185 194.168 274.843 193.189 272.371 192.935C269.899 192.682 267.407 193.166 265.21 194.326C263.014 195.486 261.211 197.269 260.031 199.452C258.85 201.634 258.345 204.116 258.579 206.585C258.812 209.053 259.774 211.398 261.343 213.321C262.912 215.244 265.017 216.659 267.393 217.389C269.768 218.118 272.307 218.128 274.688 217.417C277.069 216.707 279.185 215.308 280.769 213.397C281.822 212.129 282.614 210.667 283.099 209.094C283.585 207.52 283.756 205.867 283.6 204.228C283.445 202.589 282.968 200.996 282.196 199.541C281.423 198.087 280.371 196.798 279.099 195.749ZM279.099 212.009C277.79 213.584 276.042 214.738 274.076 215.323C272.11 215.908 270.015 215.899 268.054 215.296C266.094 214.694 264.356 213.526 263.061 211.938C261.765 210.351 260.97 208.417 260.776 206.379C260.582 204.341 260.997 202.292 261.97 200.49C262.942 198.687 264.428 197.213 266.24 196.253C268.051 195.293 270.108 194.89 272.149 195.095C274.19 195.3 276.124 196.104 277.708 197.405C278.76 198.273 279.631 199.339 280.27 200.543C280.909 201.747 281.304 203.065 281.432 204.421C281.56 205.777 281.419 207.146 281.017 208.448C280.615 209.75 279.96 210.96 279.089 212.009H279.099Z" fill="#C5CDE3"/>
<path d="M271.07 216.02C268.267 215.885 265.627 214.663 263.715 212.613C261.803 210.562 260.771 207.848 260.838 205.048C260.905 202.249 262.067 199.586 264.075 197.63C266.083 195.674 268.779 194.579 271.585 194.579C274.392 194.579 277.087 195.674 279.095 197.63C281.103 199.586 282.265 202.249 282.333 205.048C282.4 207.848 281.367 210.562 279.455 212.613C277.543 214.663 274.904 215.885 272.101 216.02C271.75 215.999 271.41 216.02 271.07 216.02ZM271.07 195.297C269.025 195.293 267.026 195.907 265.338 197.058C263.649 198.209 262.349 199.843 261.608 201.745C260.868 203.647 260.721 205.728 261.188 207.715C261.655 209.702 262.714 211.501 264.225 212.876C265.736 214.251 267.629 215.137 269.655 215.419C271.68 215.7 273.744 215.364 275.574 214.453C277.404 213.543 278.915 212.101 279.909 210.317C280.902 208.533 281.331 206.492 281.14 204.46C280.906 201.956 279.745 199.629 277.882 197.934C276.02 196.239 273.591 195.299 271.07 195.297Z" fill="#242B2B"/>
<path d="M307.351 234.757C307.18 234.754 307.011 234.73 306.846 234.685L303.754 233.832C303.341 233.718 302.978 233.468 302.725 233.123C302.473 232.777 302.345 232.357 302.362 231.929V230.551C302.371 230.318 302.321 230.087 302.217 229.878C302.112 229.67 301.957 229.491 301.765 229.358C301.363 229.07 301.012 228.793 300.734 228.515C300.556 228.368 300.344 228.267 300.117 228.222C299.89 228.177 299.656 228.19 299.435 228.258L298.095 228.638C297.685 228.755 297.247 228.73 296.852 228.568C296.457 228.406 296.129 228.115 295.92 227.744L294.354 224.977C294.14 224.606 294.06 224.174 294.125 223.752C294.191 223.329 294.399 222.942 294.715 222.653L295.745 221.707C295.916 221.545 296.044 221.345 296.117 221.122C296.191 220.9 296.208 220.662 296.168 220.431C296.086 219.986 296.031 219.536 296.003 219.084C295.985 218.851 295.91 218.626 295.785 218.428C295.659 218.231 295.486 218.068 295.281 217.953L294.075 217.284C293.7 217.076 293.407 216.747 293.242 216.352C293.077 215.956 293.052 215.516 293.168 215.104L294.024 212.019C294.139 211.609 294.388 211.25 294.732 210.998C295.076 210.746 295.494 210.617 295.92 210.63H297.302C297.537 210.641 297.771 210.592 297.982 210.487C298.193 210.383 298.374 210.227 298.508 210.034C298.765 209.664 299.054 209.304 299.342 209.006C299.499 208.831 299.608 208.619 299.66 208.391C299.713 208.162 299.706 207.925 299.641 207.699L299.27 206.373C299.148 205.963 299.169 205.524 299.33 205.127C299.491 204.731 299.783 204.401 300.157 204.193L302.929 202.629C303.303 202.417 303.737 202.338 304.162 202.403C304.587 202.468 304.977 202.675 305.269 202.989L306.207 204.018C306.367 204.19 306.568 204.319 306.792 204.393C307.015 204.467 307.254 204.483 307.485 204.439C307.932 204.361 308.383 204.306 308.835 204.275C309.069 204.257 309.295 204.182 309.493 204.057C309.691 203.931 309.854 203.759 309.969 203.555L310.649 202.352C310.855 201.977 311.183 201.683 311.578 201.519C311.973 201.354 312.413 201.329 312.824 201.447L315.916 202.3C316.33 202.411 316.693 202.659 316.948 203.003C317.202 203.346 317.333 203.766 317.318 204.193L317.267 205.571C317.259 205.805 317.31 206.037 317.414 206.247C317.518 206.457 317.673 206.638 317.864 206.774C318.266 207.052 318.617 207.329 318.947 207.607C319.121 207.764 319.333 207.873 319.562 207.925C319.791 207.978 320.03 207.971 320.256 207.905L321.585 207.525C321.997 207.411 322.436 207.437 322.831 207.599C323.227 207.761 323.557 208.05 323.77 208.419L325.337 211.196C325.549 211.567 325.628 211.999 325.563 212.421C325.497 212.843 325.291 213.23 324.976 213.52L323.946 214.456C323.772 214.615 323.642 214.816 323.568 215.039C323.494 215.262 323.479 215.501 323.523 215.732C323.606 216.215 323.657 216.657 323.688 217.079C323.701 217.312 323.773 217.538 323.897 217.736C324.022 217.934 324.194 218.097 324.399 218.21L325.605 218.889C325.981 219.094 326.277 219.42 326.443 219.814C326.61 220.208 326.638 220.647 326.522 221.059L325.667 224.144C325.557 224.545 325.317 224.899 324.986 225.152C324.655 225.405 324.249 225.542 323.832 225.543H323.76L322.379 225.491C322.144 225.481 321.911 225.531 321.701 225.637C321.491 225.744 321.313 225.902 321.183 226.098C320.936 226.437 320.658 226.787 320.338 227.127C320.183 227.302 320.074 227.513 320.022 227.742C319.97 227.97 319.976 228.207 320.039 228.433L320.421 229.759C320.54 230.17 320.517 230.61 320.354 231.006C320.191 231.402 319.898 231.731 319.524 231.94L316.751 233.503C316.379 233.712 315.947 233.79 315.524 233.725C315.102 233.66 314.714 233.455 314.422 233.143L313.474 232.114C313.312 231.944 313.111 231.817 312.888 231.743C312.665 231.67 312.427 231.652 312.196 231.693C311.749 231.775 311.298 231.834 310.845 231.868C310.612 231.88 310.385 231.952 310.186 232.076C309.988 232.2 309.825 232.373 309.711 232.577L309.042 233.78C308.873 234.079 308.627 234.327 308.33 234.498C308.032 234.67 307.695 234.76 307.351 234.757ZM299.817 227.661C300.282 227.662 300.733 227.83 301.084 228.134C301.394 228.402 301.734 228.669 302.115 228.947C302.379 229.126 302.592 229.369 302.734 229.653C302.877 229.938 302.944 230.254 302.929 230.572V231.95C302.918 232.265 303.014 232.574 303.201 232.828C303.388 233.082 303.655 233.265 303.96 233.349L307.052 234.202C307.356 234.285 307.679 234.262 307.969 234.139C308.259 234.016 308.499 233.799 308.65 233.523L309.32 232.32C309.465 232.053 309.674 231.824 309.927 231.654C310.18 231.484 310.47 231.377 310.773 231.343C311.247 231.343 311.67 231.251 312.082 231.179C312.396 231.121 312.719 231.144 313.022 231.245C313.325 231.346 313.597 231.521 313.814 231.754L314.752 232.783C314.967 233.013 315.254 233.165 315.566 233.213C315.878 233.261 316.197 233.204 316.473 233.05L319.246 231.487C319.52 231.333 319.735 231.09 319.855 230.799C319.974 230.508 319.992 230.185 319.905 229.883L319.524 228.556C319.436 228.25 319.427 227.926 319.497 227.615C319.568 227.304 319.715 227.016 319.926 226.777C320.217 226.45 320.489 226.106 320.74 225.748C320.924 225.49 321.168 225.28 321.452 225.138C321.736 224.996 322.051 224.927 322.369 224.936L323.75 224.987C324.065 224.999 324.376 224.903 324.63 224.716C324.884 224.53 325.068 224.263 325.152 223.959L325.997 220.874C326.082 220.572 326.062 220.249 325.941 219.96C325.819 219.67 325.603 219.431 325.327 219.28L324.121 218.601C323.844 218.447 323.61 218.226 323.441 217.958C323.271 217.69 323.172 217.384 323.152 217.068C323.119 216.631 323.064 216.195 322.987 215.762C322.931 215.449 322.954 215.127 323.055 214.825C323.156 214.523 323.331 214.251 323.564 214.035L324.595 213.099C324.827 212.886 324.979 212.602 325.028 212.292C325.076 211.982 325.018 211.664 324.863 211.392L323.296 208.615C323.14 208.342 322.896 208.13 322.605 208.013C322.313 207.895 321.99 207.879 321.688 207.967L320.359 208.347C320.051 208.433 319.726 208.44 319.415 208.368C319.103 208.296 318.815 208.147 318.576 207.936C318.246 207.651 317.902 207.384 317.545 207.134C317.284 206.95 317.073 206.704 316.931 206.419C316.789 206.133 316.72 205.817 316.731 205.499V204.131C316.746 203.815 316.651 203.504 316.464 203.249C316.276 202.995 316.006 202.812 315.7 202.732L312.608 201.879C312.303 201.795 311.98 201.815 311.688 201.936C311.397 202.057 311.154 202.272 311 202.547L310.33 203.75C310.176 204.028 309.955 204.263 309.687 204.434C309.418 204.604 309.111 204.705 308.794 204.727C308.359 204.754 307.925 204.806 307.495 204.882C307.181 204.939 306.857 204.917 306.553 204.818C306.249 204.72 305.974 204.547 305.754 204.316L304.816 203.287C304.601 203.06 304.316 202.91 304.006 202.861C303.696 202.813 303.379 202.869 303.105 203.02L300.322 204.594C300.047 204.745 299.832 204.986 299.714 205.276C299.596 205.566 299.581 205.888 299.672 206.188L300.043 207.514C300.133 207.821 300.143 208.145 300.073 208.456C300.002 208.767 299.854 209.055 299.641 209.294C299.363 209.623 299.085 209.962 298.837 210.322C298.655 210.583 298.411 210.794 298.127 210.938C297.843 211.081 297.527 211.153 297.209 211.145H295.817C295.504 211.136 295.196 211.232 294.943 211.419C294.691 211.605 294.509 211.871 294.426 212.173L293.57 215.258C293.487 215.561 293.508 215.882 293.629 216.171C293.751 216.46 293.966 216.7 294.24 216.852L295.446 217.521C295.726 217.676 295.962 217.898 296.134 218.167C296.305 218.437 296.405 218.745 296.426 219.064C296.426 219.506 296.508 219.928 296.58 220.359C296.637 220.673 296.614 220.995 296.514 221.297C296.413 221.599 296.237 221.871 296.003 222.087L294.972 223.033C294.741 223.246 294.589 223.531 294.542 223.842C294.495 224.152 294.556 224.469 294.715 224.741L296.281 227.507C296.434 227.78 296.675 227.994 296.965 228.114C297.255 228.233 297.577 228.251 297.879 228.165L299.208 227.785C299.403 227.709 299.608 227.667 299.817 227.661Z" fill="#242B2B"/>
<path d="M312.247 209.376C310.529 208.898 308.707 208.94 307.013 209.495C305.318 210.05 303.827 211.094 302.727 212.495C301.627 213.896 300.968 215.591 300.834 217.366C300.699 219.14 301.095 220.915 301.971 222.465C302.847 224.015 304.165 225.271 305.756 226.075C307.348 226.878 309.142 227.192 310.913 226.978C312.684 226.763 314.351 226.03 315.704 224.87C317.057 223.71 318.035 222.176 318.514 220.462C319.154 218.163 318.853 215.704 317.678 213.626C316.504 211.547 314.55 210.019 312.247 209.376ZM317.009 220.03C316.613 221.448 315.804 222.716 314.685 223.675C313.566 224.633 312.187 225.239 310.723 225.415C309.258 225.591 307.774 225.33 306.459 224.664C305.144 223.998 304.056 222.958 303.334 221.675C302.611 220.392 302.287 218.924 302.401 217.457C302.515 215.99 303.063 214.589 303.976 213.433C304.888 212.277 306.124 211.417 307.527 210.962C308.93 210.507 310.436 210.477 311.855 210.877C313.753 211.412 315.362 212.676 316.328 214.391C317.294 216.107 317.539 218.135 317.009 220.03Z" fill="#C5CDE3"/>
<path d="M309.835 225.738C309.138 225.738 308.444 225.641 307.774 225.45C306.799 225.181 305.887 224.722 305.09 224.1C304.293 223.479 303.627 222.706 303.129 221.828C302.631 220.949 302.312 219.981 302.189 218.979C302.067 217.977 302.143 216.961 302.414 215.989C302.962 214.024 304.27 212.356 306.051 211.354C307.831 210.351 309.937 210.094 311.907 210.641C313.373 211.051 314.685 211.885 315.676 213.037C316.668 214.19 317.296 215.61 317.48 217.118C317.664 218.626 317.396 220.155 316.711 221.511C316.025 222.868 314.953 223.992 313.628 224.741C312.471 225.394 311.164 225.737 309.835 225.738ZM302.888 216.122C302.562 217.052 302.431 218.039 302.502 219.022C302.574 220.004 302.847 220.961 303.304 221.834C303.761 222.708 304.393 223.478 305.161 224.097C305.929 224.717 306.815 225.172 307.767 225.436C308.718 225.7 309.713 225.766 310.691 225.63C311.669 225.495 312.609 225.16 313.452 224.648C314.295 224.135 315.024 223.456 315.593 222.651C316.162 221.846 316.56 220.933 316.762 219.969C317.268 218.133 317.026 216.172 316.087 214.515C315.148 212.857 313.59 211.638 311.752 211.124C309.913 210.618 307.947 210.86 306.286 211.797C304.625 212.734 303.403 214.289 302.888 216.122Z" fill="#242B2B"/>
<path d="M366.597 240.764C366.597 240.764 371.008 238.213 371.606 233.894C372.204 229.574 365.154 226.777 365.154 226.777C365.154 226.777 366.762 234.912 364.721 234.83C362.68 234.747 363.453 225.574 363.453 225.574C363.453 225.574 357.073 222.437 353.342 222.437C353.342 222.437 357.166 229.636 355.723 230.325C354.28 231.014 349.26 222.015 349.26 222.015C347.587 222.046 345.94 222.435 344.431 223.156C342.921 223.876 341.584 224.911 340.509 226.191C337.026 230.51 341.54 234.84 341.54 234.84C341.54 234.84 349.353 232.269 350.033 233.966C350.713 235.663 342.643 237.637 342.643 237.637C342.643 237.637 346.209 242.358 348.59 243.129C350.971 243.9 354.063 239.221 356.506 238.882C358.949 238.542 361.423 239.396 360.825 240.661C360.227 241.926 353.352 242.296 352.332 246.112C352.321 246.122 363.34 249.999 366.597 240.764Z" fill="#00887D"/>
<path d="M371.39 266.968C371.39 266.752 369.875 246.039 366.38 240.897C362.886 235.755 347.023 228.556 346.859 228.556L347.075 228.104C347.724 228.391 363.237 235.395 366.803 240.65C370.369 245.906 371.833 266.104 371.895 266.958L371.39 266.968Z" fill="black"/>
<path d="M382.923 251.706C382.923 251.706 378.986 248.703 379.089 244.857C379.192 241.01 386.582 239.869 386.582 239.869C386.582 239.869 383.696 246.615 385.717 246.914C387.737 247.212 388.448 239.149 388.448 239.149C388.448 239.149 395.21 237.586 398.889 238.265C398.889 238.265 393.973 243.808 395.292 244.661C396.611 245.515 402.971 238.645 402.971 238.645C402.971 238.645 408.506 237.689 411.217 242.059C413.927 246.43 408.825 249.351 408.825 249.351C408.825 249.351 401.219 247.5 400.281 248.847C399.343 250.194 407.29 251.572 407.29 251.572C407.29 251.572 402.693 256.797 400.239 257.023C397.786 257.249 395.478 252.663 393.138 251.881C390.798 251.099 388.211 251.428 388.592 252.642C388.974 253.856 395.684 255.398 396.075 258.885C396.065 258.926 384.583 260.283 382.923 251.706Z" fill="#00887D"/>
<path d="M378.141 265.662H377.636C377.636 265.25 378.347 255.47 382.728 251.552C387.108 247.633 403.445 244.353 404.136 244.271L404.239 244.764C404.063 244.764 387.314 248.117 383.057 251.963C378.801 255.809 378.151 265.559 378.141 265.662Z" fill="black"/>
<path d="M374.966 244.414C374.966 244.414 369.246 241.124 368.473 235.519C367.7 229.914 376.842 226.263 376.842 226.263C376.842 226.263 374.781 236.804 377.389 236.701C379.996 236.598 379.048 224.73 379.048 224.73C379.048 224.73 387.294 220.668 392.138 220.668C392.138 220.668 387.191 229.996 389.046 230.88C390.901 231.765 397.415 220.113 397.415 220.113C397.415 220.113 404.239 217.264 408.753 222.859C413.268 228.453 407.434 234.058 407.434 234.058C407.434 234.058 397.302 233.4 396.426 235.601C395.55 237.802 406.001 237.658 406.001 237.658C406.001 237.658 401.373 246.44 398.291 247.428C395.21 248.415 391.21 242.378 388.046 241.936C384.882 241.494 381.676 242.594 382.449 244.25C383.222 245.906 394.004 245.34 395.323 250.287C395.292 250.349 379.151 256.385 374.966 244.414Z" fill="#04B5A4"/>
<path d="M371.637 265.971C371.575 265.364 370.142 251.079 374.729 244.281C379.316 237.483 399.415 228.423 400.26 228.042L400.466 228.505C400.26 228.597 379.677 237.884 375.152 244.559C370.627 251.233 372.06 265.775 372.111 265.919L371.637 265.971Z" fill="black"/>
<path d="M390.365 262.145H360.557C359.948 262.145 359.454 262.637 359.454 263.245V267.03C359.454 267.638 359.948 268.13 360.557 268.13H390.365C390.974 268.13 391.468 267.638 391.468 267.03V263.245C391.468 262.637 390.974 262.145 390.365 262.145Z" fill="#E28324"/>
<path d="M390.365 268.367H360.557C360.203 268.361 359.865 268.219 359.615 267.969C359.365 267.72 359.222 267.383 359.217 267.03V263.224C359.217 262.866 359.359 262.522 359.612 262.268C359.865 262.014 360.208 261.87 360.567 261.867H390.376C390.735 261.87 391.078 262.014 391.331 262.268C391.584 262.522 391.726 262.866 391.726 263.224V266.999C391.727 267.178 391.693 267.356 391.625 267.521C391.557 267.687 391.457 267.838 391.331 267.965C391.204 268.093 391.054 268.193 390.888 268.262C390.723 268.331 390.545 268.367 390.365 268.367ZM360.557 262.402C360.332 262.404 360.117 262.496 359.959 262.655C359.8 262.815 359.712 263.031 359.712 263.255V267.03C359.712 267.254 359.8 267.47 359.959 267.63C360.117 267.789 360.332 267.881 360.557 267.883H390.365C390.59 267.881 390.805 267.789 390.964 267.63C391.122 267.47 391.21 267.254 391.21 267.03V263.224C391.21 263 391.122 262.784 390.964 262.624C390.805 262.465 390.59 262.374 390.365 262.371L360.557 262.402Z" fill="#242B2B"/>
<path d="M389.221 268.13L386.768 289.861C386.713 290.344 386.481 290.789 386.119 291.113C385.756 291.438 385.286 291.618 384.799 291.619H366.432C366.101 291.62 365.775 291.538 365.484 291.382C365.193 291.226 364.945 291 364.762 290.725C364.595 290.464 364.49 290.168 364.453 289.861L362.278 270.537L362.01 268.13H389.221Z" fill="#E07912"/>
<path d="M389.221 268.058L386.768 289.779C386.715 290.262 386.484 290.709 386.121 291.034C385.758 291.358 385.287 291.538 384.799 291.537H366.432C366.101 291.537 365.775 291.456 365.484 291.3C365.193 291.144 364.945 290.918 364.762 290.642C377.213 287.341 382.614 280.769 385.665 270.382L362.278 270.454L362.01 268.058H389.221Z" fill="#C66A05"/>
<path d="M384.799 291.794H366.432C366.063 291.823 365.694 291.752 365.362 291.589C365.03 291.427 364.748 291.178 364.546 290.869C364.36 290.573 364.244 290.239 364.206 289.892L361.722 267.883H389.551L387.077 289.892C387.025 290.444 386.756 290.954 386.33 291.31C385.904 291.666 385.354 291.84 384.799 291.794ZM362.309 268.367L364.731 289.809C364.761 290.079 364.849 290.339 364.989 290.57C365.151 290.809 365.369 291.004 365.624 291.138C365.88 291.273 366.164 291.343 366.453 291.342H384.851C385.276 291.34 385.685 291.183 386.002 290.901C386.319 290.618 386.522 290.23 386.572 289.809L388.933 268.367H362.309Z" fill="#242B2B"/>
</g>
</g>
<defs>
<clipPath id="clip0_105_2">
<rect width="570" height="324" fill="white"/>
</clipPath>
<clipPath id="clip1_105_2">
<rect width="254" height="259" fill="white" transform="translate(158 33)"/>
</clipPath>
</defs>
</svg>
