<svg width="570" height="324" viewBox="0 0 570 324" fill="none" xmlns="http://www.w3.org/2000/svg">
<g clip-path="url(#clip0_3459_3937)">
<path d="M550 0H20C8.95431 0 0 8.95431 0 20V304C0 315.046 8.9543 324 20 324H550C561.046 324 570 315.046 570 304V20C570 8.95431 561.046 0 550 0Z" fill="#F7F2EB"/>
<path d="M362.999 171.37H268.719C266.041 171.367 263.474 170.302 261.58 168.409C259.687 166.515 258.622 163.948 258.619 161.27V68.8799H373.139V161.28C373.137 162.608 372.872 163.923 372.361 165.15C371.85 166.376 371.102 167.489 370.16 168.426C369.219 169.364 368.101 170.106 366.873 170.611C365.644 171.116 364.328 171.374 362.999 171.37ZM259.069 69.3699V161.28C259.072 163.828 260.085 166.271 261.887 168.072C263.688 169.874 266.131 170.887 268.679 170.89H362.999C365.546 170.885 367.988 169.87 369.789 168.069C371.59 166.268 372.604 163.827 372.609 161.28V69.3699H259.069Z" fill="black"/>
<path d="M353.101 78.8101H280.851C278.382 78.8101 276.381 80.8113 276.381 83.2801V103.05C276.381 105.519 278.382 107.52 280.851 107.52H353.101C355.57 107.52 357.571 105.519 357.571 103.05V83.2801C357.571 80.8113 355.57 78.8101 353.101 78.8101Z" fill="#FB9100"/>
<path d="M353.101 107.76H280.861C280.241 107.761 279.628 107.641 279.055 107.404C278.483 107.168 277.962 106.822 277.524 106.384C277.085 105.947 276.737 105.427 276.5 104.855C276.263 104.283 276.141 103.669 276.141 103.05V83.2801C276.141 82.0282 276.638 80.8277 277.523 79.9425C278.408 79.0573 279.609 78.5601 280.861 78.5601H353.101C354.352 78.5601 355.553 79.0573 356.438 79.9425C357.323 80.8277 357.821 82.0282 357.821 83.2801V103.05C357.821 103.669 357.698 104.283 357.461 104.855C357.224 105.427 356.876 105.947 356.438 106.384C355.999 106.822 355.479 107.168 354.906 107.404C354.334 107.641 353.72 107.761 353.101 107.76ZM280.861 79.0501C279.739 79.0501 278.663 79.4957 277.87 80.289C277.076 81.0823 276.631 82.1582 276.631 83.2801V103.05C276.631 103.605 276.74 104.155 276.953 104.667C277.165 105.18 277.477 105.646 277.87 106.038C278.263 106.43 278.729 106.74 279.243 106.952C279.756 107.163 280.306 107.271 280.861 107.27H353.101C353.656 107.271 354.205 107.163 354.719 106.952C355.232 106.74 355.698 106.43 356.091 106.038C356.484 105.646 356.796 105.18 357.008 104.667C357.221 104.155 357.331 103.605 357.331 103.05V83.2801C357.331 82.7246 357.221 82.1745 357.009 81.6613C356.796 81.1481 356.484 80.6818 356.092 80.289C355.699 79.8962 355.233 79.5846 354.719 79.372C354.206 79.1595 353.656 79.0501 353.101 79.0501H280.861Z" fill="black"/>
<path d="M304.681 96.3601C304.697 97.0063 304.56 97.6471 304.281 98.2301C304.031 98.7553 303.665 99.2169 303.211 99.5801C302.734 99.9433 302.195 100.218 301.621 100.39C300.991 100.573 300.337 100.664 299.681 100.66C299.245 100.663 298.809 100.623 298.381 100.54C298.021 100.476 297.667 100.386 297.321 100.27C297.056 100.177 296.798 100.064 296.551 99.9301C296.388 99.8427 296.237 99.7352 296.101 99.6101C296.002 99.5004 295.937 99.3653 295.911 99.2201C295.864 98.9763 295.844 98.7282 295.851 98.4801C295.851 98.2701 295.851 98.0901 295.851 97.9401C295.863 97.8215 295.887 97.7044 295.921 97.5901C295.942 97.5115 295.988 97.4415 296.051 97.3901C296.102 97.3498 296.166 97.3285 296.231 97.3301C296.382 97.3504 296.524 97.4128 296.641 97.5101C296.821 97.6201 297.051 97.7501 297.331 97.8901C297.653 98.0437 297.988 98.1708 298.331 98.2701C298.767 98.389 299.218 98.4462 299.671 98.4401C299.975 98.4436 300.278 98.4032 300.571 98.3201C300.814 98.252 301.042 98.1364 301.241 97.9801C301.426 97.8401 301.571 97.6539 301.661 97.4401C301.762 97.2137 301.813 96.9681 301.811 96.7201C301.821 96.4359 301.732 96.157 301.561 95.9301C301.378 95.6987 301.159 95.4993 300.911 95.3401C300.616 95.1581 300.309 94.9976 299.991 94.8601L299.001 94.3901C298.636 94.222 298.282 94.0317 297.941 93.8201C297.605 93.6087 297.299 93.3531 297.031 93.0601C296.758 92.7644 296.536 92.4267 296.371 92.0601C296.197 91.5932 296.113 91.0981 296.121 90.6001C296.109 90.0133 296.232 89.4317 296.481 88.9001C296.716 88.419 297.058 87.9982 297.481 87.6701C297.908 87.3364 298.398 87.0916 298.921 86.9501C299.493 86.7872 300.086 86.7064 300.681 86.7101C301.015 86.7064 301.35 86.7298 301.681 86.7801C301.986 86.8233 302.286 86.8902 302.581 86.9801C302.834 87.0546 303.082 87.1482 303.321 87.2601C303.477 87.323 303.622 87.4108 303.751 87.5201C303.805 87.5738 303.852 87.6343 303.891 87.7001C303.915 87.762 303.935 87.8255 303.951 87.8901C303.959 87.9933 303.959 88.0969 303.951 88.2001C303.951 88.3201 303.951 88.4701 303.951 88.6501C303.951 88.8301 303.951 89.0201 303.951 89.1601C303.943 89.2778 303.926 89.3948 303.901 89.5101C303.884 89.5838 303.85 89.6524 303.801 89.7101C303.747 89.7519 303.679 89.7732 303.611 89.7701C303.481 89.749 303.357 89.6976 303.251 89.6201C303.081 89.5201 302.871 89.4201 302.631 89.3001C302.356 89.1752 302.072 89.0715 301.781 88.9901C301.455 88.8998 301.119 88.8528 300.781 88.8501C300.516 88.8416 300.253 88.8788 300.001 88.9601C299.795 89.019 299.604 89.1213 299.441 89.2601C299.294 89.3896 299.178 89.5502 299.101 89.7301C299.029 89.9115 298.991 90.1049 298.991 90.3001C298.983 90.581 299.071 90.8563 299.241 91.0801C299.42 91.3155 299.644 91.5127 299.901 91.6601C300.198 91.8441 300.509 92.0046 300.831 92.1401L301.901 92.6201C302.261 92.7901 302.611 92.9801 302.961 93.1901C303.305 93.3986 303.618 93.6544 303.891 93.9501C304.163 94.2458 304.386 94.5835 304.551 94.9501C304.687 95.4068 304.731 95.8861 304.681 96.3601Z" fill="white"/>
<path d="M316.32 99.34C316.332 99.5097 316.332 99.6802 316.32 99.85C316.308 99.9629 316.281 100.074 316.24 100.18C316.214 100.251 316.169 100.313 316.11 100.36C316.062 100.399 316.002 100.42 315.94 100.42H309.15C308.937 100.427 308.729 100.352 308.57 100.21C308.483 100.125 308.417 100.022 308.375 99.9073C308.333 99.7931 308.318 99.6709 308.33 99.55V87.76C308.32 87.6391 308.336 87.5174 308.377 87.4033C308.418 87.2893 308.484 87.1857 308.57 87.1C308.73 86.9607 308.938 86.8891 309.15 86.9H315.9C315.952 86.8817 316.008 86.8817 316.06 86.9C316.12 86.9457 316.166 87.0084 316.19 87.08C316.227 87.1906 316.254 87.3044 316.27 87.42C316.27 87.55 316.27 87.72 316.27 87.93C316.27 88.14 316.27 88.29 316.27 88.43C316.254 88.5423 316.227 88.6528 316.19 88.76C316.16 88.8286 316.116 88.89 316.06 88.94C316.016 88.9781 315.959 88.9994 315.9 89H311V92.3H315.08C315.145 92.3 315.208 92.321 315.26 92.36C315.316 92.4099 315.36 92.4713 315.39 92.54C315.429 92.6433 315.456 92.7506 315.47 92.86C315.47 93 315.47 93.16 315.47 93.36C315.47 93.56 315.47 93.73 315.47 93.86C315.454 93.969 315.428 94.0762 315.39 94.18C315.36 94.2457 315.316 94.3038 315.26 94.35C315.201 94.3648 315.139 94.3648 315.08 94.35H311V98.28H315.87C315.932 98.2799 315.992 98.3011 316.04 98.34C316.099 98.3872 316.144 98.4494 316.17 98.52C316.211 98.6261 316.238 98.737 316.25 98.85C316.285 99.0115 316.308 99.1752 316.32 99.34Z" fill="white"/>
<path d="M332.05 93.5001C332.061 94.5148 331.923 95.5256 331.64 96.5001C331.386 97.3297 330.96 98.0965 330.39 98.7501C329.843 99.3705 329.158 99.8535 328.39 100.16C327.489 100.5 326.532 100.666 325.57 100.65C324.636 100.669 323.705 100.527 322.82 100.23C322.059 99.9878 321.371 99.5579 320.82 98.9801C320.271 98.3581 319.871 97.6195 319.65 96.8201C319.372 95.8142 319.24 94.7735 319.26 93.7301C319.243 92.7315 319.381 91.7363 319.67 90.7801C319.921 89.9556 320.348 89.195 320.92 88.5501C321.469 87.9327 322.154 87.4502 322.92 87.1401C323.822 86.7947 324.783 86.6283 325.75 86.6501C326.669 86.6333 327.584 86.7685 328.46 87.0501C329.22 87.2983 329.907 87.7312 330.46 88.3101C331.014 88.9196 331.421 89.6483 331.65 90.4401C331.937 91.4341 332.072 92.4657 332.05 93.5001ZM329.17 93.6501C329.174 92.9995 329.117 92.35 329 91.7101C328.908 91.178 328.715 90.6687 328.43 90.2101C328.172 89.7842 327.802 89.438 327.36 89.2101C326.837 88.9694 326.265 88.853 325.69 88.8701C325.101 88.8606 324.519 89.0018 324 89.2801C323.561 89.5242 323.184 89.8665 322.9 90.2801C322.612 90.7355 322.411 91.2409 322.31 91.7701C322.196 92.3633 322.139 92.966 322.14 93.5701C322.13 94.2407 322.187 94.9107 322.31 95.5701C322.401 96.1007 322.591 96.6096 322.87 97.0701C323.121 97.5009 323.493 97.8485 323.94 98.0701C324.467 98.3082 325.042 98.4211 325.62 98.4001C326.206 98.4188 326.788 98.288 327.31 98.0201C327.752 97.7816 328.13 97.4382 328.41 97.0201C328.701 96.5484 328.902 96.0259 329 95.4801C329.114 94.8768 329.171 94.2641 329.17 93.6501Z" fill="white"/>
<path d="M370.8 69.5601H253.8C250.32 69.5601 246.983 68.1778 244.522 65.7173C242.062 63.2568 240.68 59.9197 240.68 56.4401C240.68 52.9604 242.062 49.6233 244.522 47.1628C246.983 44.7023 250.32 43.3201 253.8 43.3201H370.8C374.279 43.3201 377.616 44.7023 380.077 47.1628C382.537 49.6233 383.92 52.9604 383.92 56.4401C383.92 59.9197 382.537 63.2568 380.077 65.7173C377.616 68.1778 374.279 69.5601 370.8 69.5601ZM253.8 43.8201C250.513 43.9126 247.392 45.2833 245.1 47.6408C242.807 49.9984 241.525 53.1569 241.525 56.4451C241.525 59.7332 242.807 62.8917 245.1 65.2493C247.392 67.6068 250.513 68.9776 253.8 69.0701H370.8C372.488 69.1176 374.168 68.8262 375.741 68.2131C377.314 67.6 378.749 66.6776 379.959 65.5006C381.17 64.3236 382.132 62.9157 382.789 61.3603C383.446 59.8049 383.785 58.1336 383.785 56.4451C383.785 54.7566 383.446 53.0852 382.789 51.5298C382.132 49.9744 381.17 48.5666 379.959 47.3895C378.749 46.2125 377.314 45.2902 375.741 44.6771C374.168 44.064 372.488 43.7726 370.8 43.8201H253.8Z" fill="black"/>
<path d="M241 56.44C241.008 59.8413 242.362 63.1011 244.766 65.507C247.17 67.913 250.429 69.2695 253.83 69.28H256C259.413 69.28 262.687 67.9241 265.101 65.5105C267.514 63.0969 268.87 59.8234 268.87 56.41C268.87 52.9967 267.514 49.7232 265.101 47.3096C262.687 44.896 259.413 43.54 256 43.54H253.8C250.394 43.5586 247.134 44.9268 244.734 47.3449C242.335 49.7629 240.992 53.0336 241 56.44Z" fill="#1B5A96"/>
<path d="M256 69.5601H253.79C250.31 69.5601 246.973 68.1778 244.513 65.7173C242.052 63.2568 240.67 59.9197 240.67 56.4401C240.67 52.9604 242.052 49.6233 244.513 47.1628C246.973 44.7023 250.31 43.3201 253.79 43.3201H256C259.48 43.3201 262.817 44.7023 265.277 47.1628C267.738 49.6233 269.12 52.9604 269.12 56.4401C269.12 59.9197 267.738 63.2568 265.277 65.7173C262.817 68.1778 259.48 69.5601 256 69.5601ZM253.8 43.8201C250.513 43.9126 247.392 45.2833 245.1 47.6408C242.808 49.9984 241.525 53.1569 241.525 56.4451C241.525 59.7332 242.808 62.8917 245.1 65.2493C247.392 67.6068 250.513 68.9776 253.8 69.0701H256C257.688 69.1176 259.368 68.8262 260.941 68.2131C262.515 67.6 263.949 66.6776 265.16 65.5006C266.37 64.3236 267.332 62.9157 267.99 61.3603C268.647 59.8049 268.985 58.1336 268.985 56.4451C268.985 54.7566 268.647 53.0852 267.99 51.5298C267.332 49.9744 266.37 48.5666 265.16 47.3895C263.949 46.2125 262.515 45.2902 260.941 44.6771C259.368 44.064 257.688 43.7726 256 43.8201H253.8Z" fill="black"/>
<path d="M292.59 62.0301C292.568 62.1302 292.528 62.2252 292.47 62.3101C292.41 62.3905 292.326 62.4499 292.23 62.4801C292.1 62.5192 291.966 62.5427 291.83 62.5501H291.21H290.53C290.394 62.5436 290.26 62.5201 290.13 62.4801C290.04 62.4494 289.963 62.3896 289.91 62.3101C289.86 62.2236 289.826 62.1288 289.81 62.0301L288.27 55.9401L286.81 62.0301C286.792 62.1283 286.759 62.2229 286.71 62.3101C286.656 62.3816 286.584 62.437 286.5 62.4701C286.372 62.518 286.237 62.545 286.1 62.5501H285.45H284.76C284.624 62.5436 284.49 62.5201 284.36 62.4801C284.27 62.4494 284.193 62.3896 284.14 62.3101C284.091 62.2223 284.054 62.1281 284.03 62.0301L281.85 53.6501C281.811 53.5127 281.785 53.3722 281.77 53.2301C281.767 53.1875 281.774 53.1448 281.789 53.105C281.805 53.0653 281.829 53.0295 281.86 53.0001C281.945 52.9324 282.052 52.8969 282.16 52.9001H282.75H283.31C283.41 52.8903 283.51 52.8903 283.61 52.9001C283.64 52.9099 283.668 52.9255 283.692 52.9461C283.716 52.9667 283.736 52.9919 283.75 53.0201C283.785 53.0887 283.805 53.1635 283.81 53.2401L285.5 60.5901L287.25 53.2901C287.264 53.2109 287.288 53.1337 287.32 53.0601C287.361 52.9991 287.421 52.9534 287.49 52.9301C287.588 52.8873 287.693 52.8635 287.8 52.8601H288.34H288.91C289.02 52.8657 289.128 52.8893 289.23 52.9301C289.301 52.9566 289.361 53.0059 289.4 53.0701C289.439 53.142 289.466 53.2196 289.48 53.3001L291.29 60.6001L293 53.2801C293.013 53.2115 293.033 53.1445 293.06 53.0801C293.073 53.0497 293.092 53.0223 293.116 52.9999C293.14 52.9775 293.169 52.9605 293.2 52.9501C293.294 52.9057 293.396 52.8818 293.5 52.8801H294.04H294.55C294.647 52.8783 294.74 52.9142 294.81 52.9801C294.841 53.011 294.864 53.0492 294.876 53.0911C294.888 53.1331 294.89 53.1774 294.88 53.2201C294.867 53.3656 294.84 53.5095 294.8 53.6501L292.59 62.0301Z" fill="#C5CDE3"/>
<path d="M308.64 62.0301C308.618 62.1302 308.577 62.2252 308.52 62.3101C308.462 62.3926 308.377 62.4526 308.28 62.4801C308.15 62.5192 308.016 62.5427 307.88 62.5501H307.26H306.58C306.444 62.5427 306.31 62.5192 306.18 62.4801C306.1 62.4344 306.037 62.3643 306 62.2801C305.95 62.1936 305.916 62.0987 305.9 62.0001L304.36 55.9101L302.9 62.0001C302.882 62.0983 302.848 62.1929 302.8 62.2801C302.746 62.3516 302.673 62.407 302.59 62.4401C302.462 62.488 302.327 62.515 302.19 62.5201H301.54H300.85C300.714 62.5127 300.58 62.4892 300.45 62.4501C300.36 62.4193 300.283 62.3595 300.23 62.2801C300.181 62.1923 300.144 62.098 300.12 62.0001L297.94 53.6201C297.901 53.4827 297.874 53.3421 297.86 53.2001C297.857 53.1575 297.864 53.1148 297.879 53.075C297.895 53.0353 297.919 52.9994 297.95 52.9701C298.035 52.9023 298.141 52.8669 298.25 52.8701H298.84H299.4C299.5 52.8594 299.6 52.8594 299.7 52.8701C299.761 52.8932 299.814 52.9352 299.85 52.9901C299.875 53.0619 299.895 53.1354 299.91 53.2101L301.59 60.5601L303.34 53.2601C303.353 53.1793 303.38 53.1014 303.42 53.0301C303.454 52.9673 303.512 52.9205 303.58 52.9001C303.678 52.8572 303.783 52.8335 303.89 52.8301H304.43H305C305.11 52.8357 305.218 52.8593 305.32 52.9001C305.392 52.9235 305.453 52.9735 305.49 53.0401C305.529 53.1119 305.556 53.1896 305.57 53.2701L307.38 60.5701L309 53.2801C309 53.2001 309 53.1401 309.06 53.0801C309.089 53.0205 309.139 52.9741 309.2 52.9501C309.294 52.9057 309.396 52.8818 309.5 52.8801H310.04H310.55C310.646 52.8783 310.74 52.9141 310.81 52.9801C310.841 53.011 310.864 53.0492 310.876 53.0911C310.888 53.1331 310.889 53.1774 310.88 53.2201C310.867 53.3656 310.84 53.5095 310.8 53.6501L308.64 62.0301Z" fill="#C5CDE3"/>
<path d="M324.691 62.0301C324.669 62.1302 324.628 62.2252 324.571 62.3101C324.513 62.3926 324.428 62.4526 324.331 62.4801C324.201 62.5192 324.067 62.5427 323.931 62.5501H323.311H322.631C322.495 62.5427 322.361 62.5192 322.231 62.4801C322.132 62.4437 322.051 62.3726 322.001 62.2801C321.951 62.1936 321.917 62.0987 321.901 62.0001L320.361 55.9101L318.901 62.0001C318.883 62.0983 318.849 62.1929 318.801 62.2801C318.747 62.3516 318.674 62.407 318.591 62.4401C318.463 62.488 318.328 62.515 318.191 62.5201H317.541H316.851C316.715 62.5127 316.581 62.4892 316.451 62.4501C316.361 62.4193 316.283 62.3595 316.231 62.2801C316.182 62.1923 316.145 62.098 316.121 62.0001L313.941 53.6201C313.899 53.4837 313.876 53.3425 313.871 53.2001C313.864 53.1581 313.867 53.1149 313.881 53.0747C313.895 53.0344 313.919 52.9984 313.951 52.9701C314.036 52.9023 314.142 52.8669 314.251 52.8701H314.841H315.401C315.504 52.8604 315.608 52.8604 315.711 52.8701C315.768 52.896 315.817 52.9376 315.851 52.9901C315.876 53.0619 315.896 53.1354 315.911 53.2101L317.591 60.5601L319.341 53.2601C319.354 53.1793 319.381 53.1014 319.421 53.0301C319.455 52.9673 319.513 52.9205 319.581 52.9001C319.679 52.8572 319.784 52.8335 319.891 52.8301H320.431H321.001C321.111 52.8357 321.219 52.8593 321.321 52.9001C321.393 52.9235 321.454 52.9735 321.491 53.0401C321.53 53.1119 321.557 53.1896 321.571 53.2701L323.381 60.5701L325.091 53.2801C325.091 53.2001 325.091 53.1401 325.151 53.0801C325.179 53.0205 325.23 52.9741 325.291 52.9501C325.385 52.9057 325.487 52.8818 325.591 52.8801H326.131H326.641C326.737 52.8783 326.831 52.9141 326.901 52.9801C326.948 53.0121 326.984 53.0589 327.002 53.1131C327.02 53.1674 327.02 53.226 327.001 53.2801C326.993 53.4262 326.966 53.5707 326.921 53.7101L324.691 62.0301Z" fill="#C5CDE3"/>
<path d="M248.999 59.47C248.462 58.9323 248.035 58.2939 247.744 57.5913C247.453 56.8886 247.303 56.1355 247.303 55.375C247.303 54.6144 247.453 53.8613 247.744 53.1587C248.035 52.456 248.462 51.8176 248.999 51.28C249.536 50.7409 250.175 50.3131 250.877 50.0212C251.58 49.7294 252.334 49.5791 253.094 49.5791C253.855 49.5791 254.609 49.7294 255.312 50.0212C256.014 50.3131 256.652 50.7409 257.189 51.28C257.727 51.8177 258.154 52.4561 258.445 53.1588C258.736 53.8614 258.886 54.6145 258.886 55.375C258.886 56.1355 258.736 56.8885 258.445 57.5912C258.154 58.2938 257.727 58.9322 257.189 59.47C256.652 60.0077 256.013 60.4343 255.311 60.7253C254.608 61.0164 253.855 61.1662 253.094 61.1662C252.334 61.1662 251.581 61.0164 250.878 60.7253C250.176 60.4343 249.537 60.0077 248.999 59.47ZM250.999 53.28C250.453 53.8403 250.147 54.5921 250.147 55.375C250.147 56.1578 250.453 56.9096 250.999 57.47C251.416 57.8969 251.95 58.19 252.534 58.3118C253.118 58.4336 253.725 58.3785 254.278 58.1536C254.83 57.9288 255.303 57.5443 255.636 57.0494C255.969 56.5544 256.147 55.9715 256.147 55.375C256.147 54.7785 255.969 54.1955 255.636 53.7006C255.303 53.2056 254.83 52.8212 254.278 52.5963C253.725 52.3714 253.118 52.3164 252.534 52.4381C251.95 52.5599 251.416 52.853 250.999 53.28Z" fill="white"/>
<path d="M259.59 63.28C259.869 63.2812 260.143 63.1991 260.376 63.0443C260.609 62.8894 260.791 62.6688 260.898 62.4104C261.005 62.152 261.033 61.8676 260.978 61.5933C260.923 61.319 260.788 61.0672 260.59 60.87L257.17 57.45C257.039 57.3169 256.884 57.2113 256.712 57.1391C256.54 57.067 256.356 57.0298 256.17 57.0298C255.983 57.0298 255.799 57.067 255.627 57.1391C255.456 57.2113 255.3 57.3169 255.17 57.45C254.906 57.716 254.758 58.0754 254.758 58.45C254.758 58.8246 254.906 59.184 255.17 59.45L258.59 62.87C258.857 63.1313 259.216 63.2783 259.59 63.28Z" fill="white"/>
<path d="M206.66 112.33C206.66 112.33 219 127.74 226 130.53C234.68 134.01 262.68 117.9 262.68 117.9L259.8 108.53L232.63 114.86L217.2 97.8601L206.66 112.33Z" fill="#FFCFC5"/>
<path d="M195.359 97.3901L207.909 113.39L208.269 113.86L210.709 116.95C212.349 116.692 213.916 116.093 215.309 115.19C216.159 114.72 217.049 114.19 217.939 113.56C223.339 109.89 228.989 104.35 227.609 102.56C227.609 102.56 216.289 88.7901 211.409 86.2001C206.919 83.8301 194.289 83.55 194.289 83.55L195.359 97.3901Z" fill="#FB9100"/>
<path d="M208.27 113.81L210.71 116.9C212.349 116.642 213.917 116.043 215.31 115.14C216.16 114.67 217.05 114.14 217.94 113.51L212.45 101.08L208.27 113.81Z" fill="black"/>
<path d="M250.64 135.8C249.783 135.8 248.944 135.552 248.225 135.085C247.506 134.619 246.937 133.953 246.589 133.17C246.241 132.386 246.127 131.519 246.262 130.672C246.397 129.825 246.775 129.036 247.35 128.4L279.5 91.6199C279.522 91.5902 279.55 91.5664 279.584 91.5507C279.617 91.535 279.653 91.5278 279.69 91.5299C279.725 91.531 279.759 91.5396 279.79 91.5551C279.821 91.5706 279.848 91.5927 279.87 91.6199L280.03 91.7799L285.79 96.9699C285.872 97.0428 285.959 97.1096 286.05 97.1699C286.079 97.189 286.104 97.214 286.123 97.2432C286.142 97.2725 286.155 97.3054 286.16 97.3399C286.165 97.3756 286.162 97.4119 286.152 97.4464C286.142 97.481 286.124 97.5128 286.1 97.5399L254 134.33C253.576 134.799 253.057 135.173 252.478 135.426C251.899 135.68 251.272 135.807 250.64 135.8ZM279.69 92.1399L247.69 128.73C247.343 129.115 247.076 129.564 246.903 130.052C246.73 130.54 246.655 131.058 246.681 131.575C246.708 132.092 246.837 132.599 247.06 133.067C247.283 133.534 247.595 133.953 247.98 134.3C248.365 134.647 248.814 134.914 249.302 135.087C249.79 135.26 250.308 135.335 250.825 135.308C251.342 135.282 251.849 135.153 252.317 134.93C252.784 134.707 253.203 134.395 253.55 134.01L285.55 97.4099L285.46 97.3399L279.7 92.1499L279.69 92.1399Z" fill="black"/>
<path d="M275.82 94.8299C275.882 94.9104 275.952 94.9841 276.03 95.0499L282.57 100.94L282.9 101.19C283.65 101.739 284.578 101.988 285.502 101.89C286.426 101.792 287.281 101.354 287.9 100.66L290.74 97.6599C286.043 94.8217 281.889 91.1716 278.47 86.8799L275.76 89.7799C275.135 90.4758 274.794 91.3812 274.805 92.3166C274.816 93.2519 275.178 94.149 275.82 94.8299Z" fill="#242B2B"/>
<g opacity="0.2">
<path d="M314.271 99.8999C307.928 101.568 301.232 101.317 295.031 99.1799C288.83 97.0423 283.402 93.1138 279.434 87.8913C275.466 82.6687 273.136 76.3867 272.739 69.8398C272.341 63.2929 273.894 56.7751 277.201 51.1108C280.508 45.4466 285.421 40.8903 291.318 38.0182C297.214 35.1462 303.83 34.0874 310.329 34.9757C316.828 35.8641 322.917 38.6597 327.826 43.009C332.736 47.3583 336.245 53.0659 337.911 59.4099C339.038 63.6211 339.32 68.0139 338.74 72.3347C338.16 76.6554 336.73 80.8184 334.532 84.5832C332.334 88.348 329.412 91.64 325.934 94.2689C322.456 96.8979 318.492 98.8117 314.271 99.8999Z" fill="white"/>
</g>
<path d="M305.779 101.28C299.877 101.262 294.086 99.6747 288.999 96.68L288.909 96.62L288.499 96.38C285.145 94.3458 282.177 91.7358 279.729 88.67C279.379 88.24 279.049 87.79 278.729 87.3C276.343 83.9843 274.594 80.2544 273.569 76.3C271.823 69.5629 272.227 62.4482 274.727 55.9527C277.226 49.4573 281.696 43.9065 287.508 40.0783C293.32 36.2501 300.185 34.3363 307.139 34.6049C314.094 34.8736 320.79 37.3114 326.29 41.5766C331.79 45.8418 335.817 51.7208 337.808 58.3897C339.799 65.0587 339.654 72.1834 337.393 78.7657C335.131 85.3479 330.867 91.0577 325.198 95.0951C319.529 99.1325 312.739 101.295 305.779 101.28ZM273.999 76.2C275.014 80.0898 276.74 83.7582 279.089 87.02C279.429 87.5 279.759 87.94 280.089 88.37C282.496 91.3928 285.422 93.9629 288.729 95.96L289.129 96.2L289.219 96.26C295.792 100.104 303.495 101.549 311.014 100.351C318.533 99.152 325.404 95.383 330.456 89.686C335.508 83.989 338.428 76.7165 338.719 69.1078C339.009 61.4991 336.653 54.025 332.051 47.9591C327.448 41.8932 320.885 37.6108 313.479 35.8417C306.073 34.0726 298.283 34.9263 291.436 38.2573C284.589 41.5882 279.109 47.1904 275.929 54.1091C272.75 61.0277 272.068 68.8348 273.999 76.2Z" fill="#242B2B"/>
<path d="M259.801 108.53L260.981 112.37L267.411 109.28C267.411 109.28 272.271 112.28 272.411 110.45C272.511 109.2 270.501 106.59 269.121 105.62C268.778 105.38 268.379 105.231 267.963 105.188C267.547 105.144 267.126 105.207 266.741 105.37L259.801 108.53Z" fill="#FFCFC5"/>
<path d="M273.231 119.6C272.987 119.958 272.641 120.236 272.239 120.398C271.837 120.56 271.395 120.599 270.971 120.51C270.971 120.51 271.031 122.14 269.891 122.51C269.628 122.636 269.328 122.666 269.045 122.595C268.762 122.524 268.513 122.356 268.341 122.12C268.341 122.12 268.461 123.65 267.491 123.87C266.521 124.09 265.291 122.95 265.291 122.95C265.291 122.95 264.461 124.75 263.291 124.03C262.121 123.31 258.181 120.41 260.561 119.26C260.111 118.9 260.191 116.4 261.961 117.53C261.822 117.339 261.74 117.113 261.723 116.878C261.707 116.643 261.756 116.408 261.867 116.199C261.977 115.991 262.144 115.818 262.348 115.699C262.552 115.581 262.785 115.522 263.021 115.53C263.021 115.53 261.651 113.12 263.021 112.97C264.391 112.82 266.021 116.18 268.881 116.77C269.061 116.77 269.611 116.45 270.161 116.05C270.711 115.65 271.491 115.05 271.491 115.05C271.491 115.05 274.221 118.33 273.231 119.6Z" fill="#FFCFC5"/>
<path d="M271 117.68C270.29 117.8 268.91 116.68 268.91 116.68C269.09 116.68 269.64 116.36 270.19 115.96C270.503 116.512 270.774 117.087 271 117.68Z" fill="#FC9B88"/>
<path d="M262 117.51C263.6 118.95 265.21 120.51 267.31 121.11C265.12 120.83 263.31 119.17 262 117.51Z" fill="#FC9B88"/>
<path d="M260.609 119.28C261.658 120.501 262.971 121.465 264.449 122.1C263.643 121.937 262.882 121.6 262.219 121.113C261.556 120.626 261.007 120.001 260.609 119.28Z" fill="#FC9B88"/>
<path d="M263.07 115.28C264.84 116.81 266.64 118.69 269.07 119.02C266.61 119.02 264.57 117.02 263.07 115.28Z" fill="#FC9B88"/>
<path d="M265 272.47L250.59 268.08L247.59 265.88L233.59 270.83L234.99 281.83C234.988 281.97 235.018 282.109 235.078 282.236C235.137 282.364 235.224 282.476 235.332 282.565C235.441 282.654 235.568 282.718 235.704 282.752C235.84 282.786 235.982 282.788 236.12 282.76L266.42 276.62C266.664 276.569 266.878 276.424 267.015 276.216C267.151 276.008 267.2 275.754 267.15 275.51L266.93 274.41C266.843 273.929 266.612 273.486 266.267 273.139C265.922 272.793 265.48 272.56 265 272.47Z" fill="black"/>
<path d="M247.59 265.88L245.59 255.01L231.4 257.78L233.66 270.83C239.86 272.09 245.13 270.28 247.59 265.88Z" fill="#FFCFC5"/>
<path d="M252.22 272.79L251.75 272.65C251.935 272.016 252.267 271.435 252.719 270.954C253.171 270.473 253.729 270.105 254.35 269.88L254.49 270.35C253.946 270.549 253.457 270.873 253.062 271.297C252.668 271.722 252.379 272.233 252.22 272.79Z" fill="white"/>
<path d="M255.38 273.8L254.91 273.66C255.095 273.026 255.427 272.446 255.879 271.964C256.331 271.483 256.89 271.115 257.51 270.89L257.66 271.36C257.115 271.56 256.625 271.884 256.229 272.308C255.833 272.732 255.542 273.243 255.38 273.8Z" fill="white"/>
<path d="M197.76 281.91L185.94 272.56L183.94 269.41L169.12 268.92L166.43 279.64C166.387 279.771 166.372 279.909 166.385 280.045C166.399 280.182 166.44 280.314 166.506 280.435C166.573 280.555 166.664 280.66 166.773 280.743C166.882 280.827 167.007 280.887 167.14 280.92L197.58 286.28C197.825 286.308 198.071 286.246 198.272 286.103C198.473 285.961 198.615 285.75 198.67 285.51L198.86 284.41C198.952 283.931 198.897 283.435 198.7 282.988C198.504 282.542 198.176 282.166 197.76 281.91Z" fill="black"/>
<path d="M183.929 269.41L185.999 258.55L171.779 255.95L169.119 268.95C174.459 272.37 179.999 272.58 183.929 269.41Z" fill="#FFCFC5"/>
<path d="M185.71 277.53L185.32 277.23C185.721 276.705 186.241 276.283 186.838 276C187.434 275.716 188.09 275.579 188.75 275.6V276.09C188.166 276.072 187.585 276.193 187.057 276.443C186.528 276.694 186.067 277.066 185.71 277.53Z" fill="white"/>
<path d="M188.29 279.63L187.9 279.33C188.303 278.804 188.825 278.382 189.423 278.098C190.021 277.815 190.679 277.678 191.34 277.7V278.18C190.753 278.162 190.171 278.285 189.64 278.537C189.11 278.789 188.647 279.164 188.29 279.63Z" fill="white"/>
<path d="M250.741 255.22L240.741 257.73L228.111 260.9L215.111 200.9L179.461 152.07C180.141 143.55 195.261 141.19 205.201 137.02C205.201 137.02 232.021 178.35 237.911 193.59C243.261 207.43 248.351 239.18 250.111 250.85C250.511 253.58 250.741 255.22 250.741 255.22Z" fill="#1B5A96"/>
<path d="M250.74 255.22L240.74 257.73L231.52 258.78L250.07 250.78C250.51 253.58 250.74 255.22 250.74 255.22Z" fill="black"/>
<path d="M193.579 136.98C193.579 136.98 204.819 181.98 205.159 197.39C205.569 215.39 191.029 263.54 191.029 263.54L167.849 262.69L177.849 201.22C172.309 177.16 161.069 143.08 169.199 138.49L193.579 136.98Z" fill="#1B5A96"/>
<path d="M192.67 257.94L176.77 260.91L191.32 261.78L192.67 257.94Z" fill="black"/>
<path d="M203.629 185.54C202.059 175.45 199.319 162.69 197.289 153.76L197.769 153.65C199.769 162.59 202.539 175.36 204.119 185.46L203.629 185.54Z" fill="white"/>
<path d="M210.36 145.52C204.91 148.72 165.95 151.58 165.2 143.97C164.96 141.62 166.35 138.21 166.35 138.21C166.35 138.21 163.82 93.1101 168.35 87.0301C170.59 84.0301 179.35 82.4801 181.91 82.1201C191.57 80.7201 204.66 82.1201 210.82 87.0001C217.61 92.3701 208.96 135.56 208.96 135.56C209.512 136.191 210.02 136.859 210.48 137.56C210.6 137.85 214.43 143.13 210.36 145.52Z" fill="#FB9100"/>
<path d="M206.661 136.84L184.381 125.59L178.381 105.27L180.761 94.8501C180.761 94.8501 183.691 102.79 184.551 105.58C186.051 110.45 189.251 124.08 189.251 124.08L206.661 136.84Z" fill="black"/>
<path d="M190 47.0901C190.115 47.514 190.175 47.9509 190.18 48.3901C190.05 47.9601 190 47.5301 190 47.0901Z" fill="#FFCFC5"/>
<path d="M185.061 78.7999L187.661 84.2399L195.171 85.0299L199.301 85.9699L198.111 79.4499L198.211 77.8299L198.501 73.5399L185.841 65.3799C185.841 65.9399 185.921 66.4999 185.941 67.0499C186.12 70.9877 185.825 74.9328 185.061 78.7999Z" fill="#FFCFC5"/>
<path d="M185.84 65.3799C185.84 65.9399 185.92 66.4999 185.94 67.0499H186.18C186.32 67.4216 186.421 67.8071 186.48 68.1999C188.17 73.9799 193.79 77.7199 198.21 77.7999L198.5 73.5099L185.84 65.3799Z" fill="#FC9B88"/>
<path d="M185.061 78.8C186.351 81.86 191.221 83.6001 195.161 85.0201C195.161 85.0201 193.981 92.0201 192.791 92.0201C191.601 92.0201 181.731 87.5901 181.861 82.1501C183.134 81.2505 184.22 80.1129 185.061 78.8Z" fill="#C66A05"/>
<path d="M195.17 85.03C195.17 85.03 197.42 90.34 198.97 90.78C200.74 91.28 202.14 86.31 201.88 83.68L198.11 79.45C198.44 81.28 199.07 82.87 195.17 85.03Z" fill="#C66A05"/>
<path d="M197.751 76.1999C193.271 76.3999 187.291 72.5999 185.531 66.5999C185.486 66.2043 185.385 65.8171 185.231 65.4499C184.632 65.3679 184.056 65.1631 183.54 64.8482C183.023 64.5333 182.578 64.1151 182.231 63.6199C180.931 61.8899 180.921 59.6899 182.231 58.7299C182.621 58.4642 183.074 58.3066 183.545 58.2732C184.016 58.2399 184.487 58.3319 184.911 58.5399C185.641 52.2699 189.131 47.4699 193.641 47.1699C196.641 46.9599 199.471 48.7899 201.491 51.8399C201.744 52.2109 201.977 52.5947 202.191 52.9899C203.532 55.5313 204.313 58.3309 204.481 61.1999C205.001 69.2799 202.461 75.9799 197.751 76.1999Z" fill="#FFCFC5"/>
<path d="M176.78 66.4199C177.177 67.2735 177.746 68.0359 178.451 68.6589C179.157 69.2819 179.984 69.7521 180.88 70.0399C182.77 70.6999 184.44 71.8399 186.34 71.1699L186.14 70.8399C186.057 69.4119 185.852 67.9935 185.53 66.5999C185.477 66.2068 185.38 65.821 185.24 65.4499C184.641 65.3679 184.065 65.1631 183.549 64.8482C183.033 64.5332 182.587 64.1151 182.24 63.6199C180.95 61.8799 180.93 59.6899 182.24 58.7299C182.63 58.4642 183.084 58.3066 183.554 58.2732C184.025 58.2399 184.496 58.3319 184.92 58.5399C184.92 58.5399 187.09 59.6899 186.92 61.6699L188.41 62.2399L189.25 58.6799C189.25 58.6799 191.79 56.9699 190.69 54.9299C192.244 55.5165 193.881 55.854 195.54 55.9299C196.253 56.026 196.978 55.8929 197.61 55.5499C197.875 55.383 198.079 55.1355 198.192 54.8438C198.306 54.5522 198.323 54.2318 198.24 53.9299C197.88 53.6699 197.52 53.3999 197.16 53.1199L198.16 53.6999C198.214 53.7686 198.254 53.8466 198.28 53.9299C199.216 54.6515 200.246 55.2435 201.34 55.6899C202.085 56.021 202.89 56.1921 203.705 56.1921C204.52 56.1921 205.326 56.021 206.07 55.6899C206.66 55.4186 207.134 54.9475 207.41 54.3599C207.539 54.0651 207.576 53.7381 207.515 53.4221C207.454 53.106 207.299 52.8158 207.07 52.5899C206.964 52.4989 206.842 52.4278 206.71 52.3799C206.28 52.5399 205.84 52.6699 205.41 52.7899C205.549 52.5853 205.753 52.4336 205.989 52.3592C206.225 52.2849 206.479 52.2921 206.71 52.3799C207.13 52.2341 207.53 52.0359 207.9 51.7899C208.283 51.5515 208.605 51.2264 208.84 50.8408C209.074 50.4552 209.215 50.0198 209.25 49.5699C209.238 49.0482 209.043 48.5473 208.699 48.1544C208.356 47.7616 207.886 47.5016 207.37 47.4199C206.851 47.3681 206.33 47.4903 205.888 47.7673C205.447 48.0443 205.109 48.4603 204.93 48.9499C204.728 47.1846 204.062 45.5043 203 44.0799C202.495 43.3216 201.807 42.7026 201 42.2799C200.593 42.0726 200.142 41.9646 199.685 41.9646C199.228 41.9646 198.777 42.0726 198.37 42.2799C197.978 42.5085 197.675 42.8637 197.512 43.2871C197.348 43.7105 197.333 44.177 197.47 44.6099C196.042 43.2887 194.259 42.4129 192.34 42.0899C191.381 41.9453 190.402 42.0655 189.506 42.4374C188.611 42.8092 187.834 43.4187 187.26 44.1999C186.767 44.9971 186.497 45.9125 186.48 46.8499C185.837 47.345 185.307 47.971 184.924 48.6864C184.542 49.4019 184.315 50.1904 184.26 50.9999C183.14 49.9099 180.92 50.1999 179.75 51.2299C179.18 51.7663 178.822 52.4906 178.743 53.2696C178.664 54.0486 178.869 54.8299 179.32 55.4699C178.995 55.0842 178.539 54.8314 178.039 54.7595C177.54 54.6876 177.031 54.8016 176.61 55.0799C176.202 55.3728 175.864 55.7525 175.62 56.1917C175.376 56.6309 175.233 57.1186 175.2 57.6199C175.111 58.5361 175.267 59.4596 175.652 60.2959C176.037 61.1322 176.636 61.8513 177.39 62.3799C176 63.6099 176.07 64.6899 176.78 66.4199Z" fill="black"/>
<path d="M197.17 53.1201C197.53 53.4001 197.89 53.6701 198.25 53.9301C198.224 53.8468 198.184 53.7689 198.13 53.7001L197.17 53.1201Z" fill="black"/>
<path d="M200.929 62.3101L202.199 67.3601L199.699 67.6601L200.929 62.3101Z" fill="#FC9B88"/>
<path d="M210.43 137.6C206.75 138.48 201.6 139.81 199.43 140C203.75 139.33 208.87 135.56 208.87 135.56C209.437 136.202 209.958 136.884 210.43 137.6Z" fill="black"/>
<path d="M166.189 134.99C167.869 138.48 179.459 140.75 179.739 140.79C170.089 141.29 166.349 138.21 166.349 138.21V138.57C166.355 138.493 166.355 138.417 166.349 138.34L166.189 134.99Z" fill="black"/>
<path d="M225.92 262.72C226.076 263.355 226.461 263.91 227 264.28C227.256 264.459 227.546 264.583 227.852 264.645C228.158 264.707 228.474 264.705 228.78 264.64L251.62 259.28C252.239 259.103 252.763 258.688 253.078 258.126C253.392 257.564 253.472 256.901 253.3 256.28C253.155 255.632 252.769 255.063 252.22 254.69C251.965 254.507 251.675 254.381 251.368 254.319C251.061 254.257 250.745 254.261 250.44 254.33L227.61 259.7C226.985 259.877 226.457 260.294 226.14 260.861C225.823 261.427 225.744 262.095 225.92 262.72Z" fill="#1B5A96"/>
<path d="M166 260.82C165.908 261.48 166.065 262.15 166.44 262.7C166.609 262.965 166.831 263.19 167.093 263.363C167.355 263.535 167.651 263.65 167.96 263.7L191.2 266.95C191.844 267.009 192.485 266.81 192.984 266.398C193.482 265.986 193.797 265.393 193.86 264.75C193.961 264.091 193.807 263.419 193.43 262.87C193.261 262.604 193.037 262.378 192.773 262.205C192.509 262.033 192.212 261.919 191.9 261.87L168.67 258.62C168.025 258.561 167.383 258.759 166.883 259.171C166.383 259.583 166.066 260.176 166 260.82Z" fill="#1B5A96"/>
<path d="M208.681 138.11L204.271 147.44C204.271 147.44 175.951 141.51 172.271 136.69C167.321 130.18 164.391 109.24 164.391 109.24L182.071 107.78C182.071 108.42 184.581 122.64 185.071 123.1C185.561 123.56 208.681 138.11 208.681 138.11Z" fill="#FFCFC5"/>
<path d="M185.059 112.61C185.059 113.71 166.209 119.99 163.739 116.69C163.739 116.69 160.319 100.88 162.519 93.1801C164.719 85.4801 174.909 83.5901 174.909 83.5901C179.459 87.8401 183.639 101.52 185.059 112.61Z" fill="#FB9100"/>
<path d="M208 137.62C208 137.62 216 134.12 217.35 136.04C218.7 137.96 213.96 140.67 213.96 140.67" fill="#FFCFC5"/>
<path d="M214.16 158.84H235.41C236.15 158.845 236.866 158.576 237.42 158.085C237.974 157.594 238.326 156.915 238.41 156.18L242 128.12C242.061 127.692 242.028 127.257 241.905 126.843C241.781 126.429 241.57 126.046 241.285 125.722C241 125.397 240.649 125.138 240.254 124.961C239.86 124.785 239.432 124.696 239 124.7H217.71C216.97 124.695 216.254 124.964 215.701 125.455C215.147 125.946 214.794 126.625 214.71 127.36L211.17 155.42C211.11 155.847 211.142 156.282 211.265 156.695C211.388 157.108 211.598 157.49 211.882 157.815C212.166 158.139 212.516 158.399 212.909 158.576C213.302 158.753 213.729 158.843 214.16 158.84Z" fill="#F7F2EB"/>
<path d="M235.411 159.09H214.161C213.694 159.089 213.234 158.99 212.809 158.797C212.384 158.605 212.005 158.325 211.696 157.975C211.388 157.625 211.158 157.214 211.021 156.768C210.883 156.322 210.843 155.853 210.901 155.39L214.451 127.33C214.551 126.536 214.937 125.807 215.538 125.278C216.138 124.75 216.911 124.459 217.711 124.46H239.001C239.467 124.458 239.928 124.555 240.354 124.745C240.78 124.936 241.16 125.215 241.468 125.565C241.777 125.914 242.008 126.326 242.144 126.772C242.281 127.218 242.321 127.688 242.261 128.15L238.711 156.21C238.612 157.012 238.221 157.75 237.612 158.282C237.003 158.813 236.219 159.101 235.411 159.09ZM217.711 124.95C217.031 124.95 216.374 125.197 215.864 125.646C215.354 126.096 215.026 126.716 214.941 127.39L211.391 155.45C211.343 155.843 211.378 156.242 211.495 156.62C211.613 156.999 211.808 157.348 212.07 157.646C212.331 157.943 212.653 158.182 213.013 158.346C213.374 158.511 213.765 158.597 214.161 158.6H235.411C236.091 158.598 236.748 158.348 237.258 157.897C237.767 157.446 238.096 156.825 238.181 156.15L241.721 128.09C241.772 127.697 241.739 127.297 241.623 126.918C241.507 126.538 241.311 126.188 241.049 125.891C240.786 125.593 240.463 125.356 240.102 125.193C239.74 125.031 239.347 124.948 238.951 124.95H217.711Z" fill="#242B2B"/>
<path d="M215.239 158.84H236.489C237.076 158.844 237.652 158.676 238.144 158.356C238.637 158.036 239.024 157.578 239.259 157.04C239.109 157.05 238.959 157.05 238.809 157.04H217.559C217.127 157.044 216.699 156.955 216.305 156.779C215.911 156.603 215.559 156.343 215.274 156.018C214.989 155.694 214.778 155.311 214.655 154.897C214.531 154.483 214.499 154.048 214.559 153.62L218.099 125.56C218.137 125.266 218.218 124.98 218.339 124.71C217.685 124.805 217.08 125.113 216.619 125.587C216.158 126.06 215.866 126.673 215.789 127.33L212.239 155.39C212.174 155.82 212.203 156.259 212.324 156.677C212.445 157.094 212.656 157.481 212.941 157.809C213.227 158.137 213.58 158.399 213.977 158.577C214.373 158.755 214.804 158.845 215.239 158.84Z" fill="#E5E8FF"/>
<path d="M236.49 159.09H215.24C214.774 159.09 214.313 158.99 213.889 158.798C213.465 158.605 213.086 158.325 212.779 157.975C212.471 157.625 212.242 157.213 212.106 156.767C211.97 156.322 211.93 155.852 211.99 155.39L215.53 127.33C215.632 126.537 216.019 125.809 216.619 125.281C217.219 124.752 217.991 124.461 218.79 124.46H240C240.465 124.459 240.926 124.557 241.35 124.749C241.775 124.94 242.153 125.219 242.461 125.569C242.769 125.918 242.998 126.329 243.134 126.774C243.27 127.219 243.31 127.688 243.25 128.15L239.71 156.21C239.609 156.997 239.228 157.721 238.637 158.25C238.045 158.779 237.283 159.077 236.49 159.09ZM218.79 124.95C218.111 124.952 217.455 125.2 216.946 125.649C216.436 126.098 216.107 126.717 216.02 127.39L212.48 155.45C212.427 155.843 212.459 156.243 212.575 156.623C212.69 157.003 212.887 157.353 213.15 157.65C213.411 157.948 213.732 158.186 214.093 158.35C214.453 158.514 214.844 158.599 215.24 158.6H236.49C237.17 158.598 237.827 158.348 238.337 157.897C238.847 157.446 239.175 156.825 239.26 156.15L242.81 128.09C242.86 127.697 242.825 127.298 242.709 126.919C242.592 126.541 242.396 126.191 242.134 125.894C241.872 125.597 241.55 125.359 241.189 125.197C240.828 125.034 240.436 124.95 240.04 124.95H218.79Z" fill="#242B2B"/>
<path d="M228.45 146.19C229.361 146.166 230.234 145.824 230.919 145.223C231.604 144.622 232.057 143.8 232.2 142.9C232.273 142.491 232.254 142.07 232.143 141.669C232.033 141.268 231.835 140.897 231.562 140.582C231.29 140.268 230.951 140.018 230.57 139.852C230.189 139.685 229.775 139.606 229.36 139.62C228.451 139.644 227.58 139.985 226.897 140.584C226.214 141.183 225.762 142.003 225.62 142.9C225.547 143.309 225.566 143.729 225.675 144.13C225.785 144.531 225.983 144.902 226.253 145.217C226.524 145.532 226.862 145.783 227.242 145.951C227.622 146.119 228.034 146.201 228.45 146.19Z" fill="#E5E8FF"/>
<path d="M228.45 146.19C229.293 146.183 230.109 145.887 230.76 145.35C230.414 145.461 230.053 145.518 229.69 145.52C229.274 145.531 228.861 145.449 228.481 145.281C228.101 145.112 227.763 144.862 227.491 144.547C227.219 144.232 227.021 143.861 226.91 143.461C226.799 143.06 226.778 142.64 226.85 142.23C227.001 141.265 227.512 140.394 228.28 139.79C227.593 140.014 226.982 140.423 226.513 140.971C226.044 141.52 225.735 142.187 225.62 142.9C225.547 143.309 225.566 143.729 225.675 144.13C225.785 144.531 225.983 144.902 226.253 145.217C226.524 145.532 226.862 145.783 227.242 145.951C227.622 146.119 228.034 146.201 228.45 146.19Z" fill="#C5CDE3"/>
<path d="M213.999 140.67C213.999 140.67 223.289 143.1 222.999 144.86C222.759 146.2 220.899 146.04 219.629 145.61C221.069 146.33 223.139 148.44 222.829 149.06C221.989 150.71 218.829 148.38 217.889 147.8C218.809 148.39 221.079 150.86 220.669 151.35C219.889 152.26 217.159 150.48 215.899 149.78C216.989 150.43 217.819 152.61 217.319 152.87C215.519 153.82 203.669 147.36 203.629 146.96C201.909 146.14 206.319 136.81 208.049 137.62" fill="#FFCFC5"/>
<path d="M308.46 144.42H268.93V152H308.46V144.42Z" fill="#E5E8FF"/>
<path d="M305.41 156.27H271.99V158.55H305.41V156.27Z" fill="#E5E8FF"/>
<path d="M305.41 160.96H271.99V163.24H305.41V160.96Z" fill="#E5E8FF"/>
<path d="M275.54 134.11V138.84C275.527 139.096 275.416 139.338 275.23 139.515C275.044 139.692 274.797 139.79 274.54 139.79H269.84C269.583 139.79 269.336 139.692 269.15 139.515C268.964 139.338 268.853 139.096 268.84 138.84V134.11C268.855 133.855 268.967 133.616 269.153 133.441C269.339 133.267 269.585 133.169 269.84 133.17H274.54C274.795 133.169 275.041 133.267 275.227 133.441C275.412 133.616 275.525 133.855 275.54 134.11Z" fill="white"/>
<path d="M274.589 140.03H269.889C269.732 140.031 269.577 140.001 269.431 139.942C269.285 139.883 269.153 139.796 269.042 139.685C268.93 139.574 268.841 139.443 268.781 139.298C268.721 139.153 268.689 138.997 268.689 138.84V134.11C268.692 133.793 268.82 133.491 269.044 133.268C269.269 133.045 269.573 132.92 269.889 132.92H274.589C274.906 132.92 275.21 133.045 275.434 133.268C275.659 133.491 275.787 133.793 275.789 134.11V138.84C275.789 138.997 275.758 139.153 275.698 139.298C275.637 139.443 275.549 139.574 275.437 139.685C275.326 139.796 275.193 139.883 275.048 139.942C274.902 140.001 274.747 140.031 274.589 140.03ZM269.889 133.41C269.703 133.41 269.524 133.483 269.391 133.614C269.258 133.745 269.182 133.923 269.179 134.11V138.84C269.179 138.933 269.198 139.025 269.234 139.11C269.269 139.196 269.322 139.273 269.388 139.338C269.454 139.404 269.532 139.455 269.618 139.49C269.705 139.524 269.797 139.541 269.889 139.54H274.589C274.775 139.54 274.953 139.466 275.084 139.335C275.216 139.204 275.289 139.026 275.289 138.84V134.11C275.289 133.924 275.216 133.746 275.084 133.615C274.953 133.484 274.775 133.41 274.589 133.41H269.889Z" fill="#242B2B"/>
<path d="M286.52 127.5V138.84C286.508 139.088 286.404 139.323 286.228 139.498C286.053 139.674 285.818 139.778 285.57 139.79H280.86C280.612 139.778 280.377 139.674 280.202 139.498C280.026 139.323 279.922 139.088 279.91 138.84V127.5C279.91 127.243 280.008 126.996 280.185 126.81C280.362 126.624 280.604 126.513 280.86 126.5H285.57C285.827 126.513 286.068 126.624 286.245 126.81C286.422 126.996 286.52 127.243 286.52 127.5Z" fill="#FB9100"/>
<path d="M285.57 140.03H280.86C280.703 140.031 280.547 140.002 280.402 139.942C280.256 139.883 280.124 139.796 280.012 139.685C279.901 139.574 279.812 139.443 279.752 139.298C279.691 139.153 279.66 138.997 279.66 138.84V127.5C279.66 127.342 279.691 127.186 279.751 127.041C279.812 126.895 279.9 126.763 280.012 126.652C280.123 126.54 280.255 126.452 280.401 126.391C280.547 126.331 280.703 126.3 280.86 126.3H285.57C285.727 126.3 285.883 126.331 286.028 126.392C286.173 126.452 286.305 126.541 286.415 126.652C286.526 126.764 286.613 126.896 286.672 127.042C286.732 127.187 286.761 127.343 286.76 127.5V138.84C286.76 139.156 286.635 139.458 286.412 139.682C286.188 139.905 285.886 140.03 285.57 140.03ZM280.86 126.79C280.672 126.79 280.491 126.865 280.358 126.998C280.225 127.131 280.15 127.312 280.15 127.5V138.84C280.15 138.933 280.169 139.025 280.204 139.11C280.24 139.196 280.293 139.273 280.359 139.339C280.425 139.404 280.503 139.455 280.589 139.49C280.675 139.524 280.767 139.541 280.86 139.54H285.57C285.756 139.54 285.934 139.466 286.065 139.335C286.196 139.204 286.27 139.026 286.27 138.84V127.5C286.27 127.313 286.197 127.134 286.066 127.002C285.935 126.869 285.757 126.793 285.57 126.79H280.86Z" fill="#242B2B"/>
<path d="M297.491 119.53V138.84C297.492 138.965 297.468 139.089 297.421 139.205C297.374 139.321 297.304 139.426 297.215 139.515C297.127 139.603 297.022 139.673 296.906 139.72C296.79 139.768 296.666 139.791 296.541 139.79H291.841C291.716 139.791 291.591 139.768 291.476 139.72C291.36 139.673 291.254 139.603 291.166 139.515C291.077 139.426 291.008 139.321 290.96 139.205C290.913 139.089 290.889 138.965 290.891 138.84V119.53C290.891 119.406 290.915 119.283 290.963 119.168C291.011 119.053 291.081 118.949 291.17 118.862C291.258 118.774 291.363 118.705 291.478 118.659C291.593 118.612 291.716 118.589 291.841 118.59H296.541C296.665 118.589 296.788 118.612 296.903 118.659C297.019 118.705 297.123 118.774 297.212 118.862C297.3 118.949 297.37 119.053 297.418 119.168C297.466 119.283 297.491 119.406 297.491 119.53Z" fill="#C66A05"/>
<path d="M296.541 140.03H291.841C291.683 140.031 291.528 140.001 291.382 139.942C291.237 139.883 291.104 139.796 290.993 139.685C290.881 139.574 290.793 139.443 290.732 139.298C290.672 139.153 290.641 138.997 290.641 138.84V119.53C290.641 119.373 290.672 119.217 290.732 119.072C290.793 118.927 290.881 118.796 290.993 118.685C291.104 118.574 291.237 118.487 291.382 118.428C291.528 118.368 291.683 118.339 291.841 118.34H296.541C296.698 118.339 296.854 118.368 296.999 118.428C297.145 118.487 297.277 118.574 297.389 118.685C297.5 118.796 297.589 118.927 297.649 119.072C297.71 119.217 297.741 119.373 297.741 119.53V138.84C297.741 138.997 297.71 139.153 297.649 139.298C297.589 139.443 297.5 139.574 297.389 139.685C297.277 139.796 297.145 139.883 296.999 139.942C296.854 140.001 296.698 140.031 296.541 140.03ZM291.841 118.83C291.654 118.83 291.475 118.903 291.342 119.034C291.209 119.165 291.133 119.343 291.131 119.53V138.84C291.131 138.933 291.149 139.025 291.185 139.11C291.221 139.196 291.273 139.273 291.339 139.338C291.405 139.404 291.484 139.455 291.57 139.489C291.656 139.524 291.748 139.541 291.841 139.54H296.541C296.633 139.541 296.725 139.524 296.812 139.489C296.898 139.455 296.976 139.404 297.042 139.338C297.108 139.273 297.161 139.196 297.196 139.11C297.232 139.025 297.251 138.933 297.251 138.84V119.53C297.248 119.343 297.172 119.165 297.039 119.034C296.906 118.903 296.727 118.83 296.541 118.83H291.841Z" fill="#242B2B"/>
<path d="M308.471 115.35V138.84C308.458 139.096 308.347 139.338 308.161 139.515C307.974 139.692 307.727 139.79 307.471 139.79H302.761C302.513 139.778 302.278 139.674 302.102 139.498C301.927 139.323 301.823 139.088 301.811 138.84V115.35C301.823 115.102 301.927 114.867 302.102 114.692C302.278 114.516 302.513 114.412 302.761 114.4H307.471C307.727 114.4 307.974 114.498 308.161 114.675C308.347 114.852 308.458 115.093 308.471 115.35Z" fill="#1B5A96"/>
<path d="M307.519 140.03H302.809C302.494 140.03 302.191 139.905 301.968 139.681C301.745 139.458 301.619 139.156 301.619 138.84V115.35C301.619 115.034 301.745 114.732 301.968 114.508C302.191 114.285 302.494 114.16 302.809 114.16H307.519C307.835 114.16 308.137 114.285 308.361 114.508C308.584 114.732 308.709 115.034 308.709 115.35V138.84C308.709 139.156 308.584 139.458 308.361 139.681C308.137 139.905 307.835 140.03 307.519 140.03ZM302.809 114.65C302.623 114.65 302.445 114.724 302.314 114.855C302.183 114.986 302.109 115.164 302.109 115.35V138.84C302.109 139.026 302.183 139.204 302.314 139.335C302.445 139.466 302.623 139.54 302.809 139.54H307.519C307.705 139.54 307.883 139.466 308.014 139.335C308.145 139.204 308.219 139.026 308.219 138.84V115.35C308.219 115.164 308.145 114.986 308.014 114.855C307.883 114.724 307.705 114.65 307.519 114.65H302.809Z" fill="#242B2B"/>
<path d="M399.93 179.71H325.28C324.142 179.71 323.051 179.258 322.247 178.453C321.442 177.649 320.99 176.558 320.99 175.42V118.8C320.99 117.662 321.442 116.571 322.247 115.767C323.051 114.962 324.142 114.51 325.28 114.51H399.93C401.066 114.513 402.155 114.966 402.957 115.77C403.76 116.574 404.21 117.664 404.21 118.8V175.42C404.21 176.556 403.76 177.646 402.957 178.45C402.155 179.254 401.066 179.707 399.93 179.71ZM325.28 115C324.272 115 323.306 115.4 322.593 116.113C321.881 116.826 321.48 117.792 321.48 118.8V175.42C321.48 176.428 321.881 177.394 322.593 178.107C323.306 178.82 324.272 179.22 325.28 179.22H399.93C400.936 179.217 401.9 178.816 402.611 178.103C403.321 177.391 403.72 176.426 403.72 175.42V118.8C403.72 117.794 403.321 116.829 402.611 116.117C401.9 115.404 400.936 115.003 399.93 115H325.28Z" fill="black"/>
<path d="M383.231 129.88L372.821 143.88L366.561 152.27H362.561V121.11C366.417 121.114 370.234 121.893 373.785 123.399C377.335 124.906 380.547 127.11 383.231 129.88Z" fill="#E07912"/>
<path d="M383.231 129.88L372.821 143.88L366.561 152.27H362.561V151.22H365.001L371.261 142.83L378.831 132.69C379.234 132.15 379.527 131.536 379.692 130.882C379.857 130.228 379.891 129.549 379.791 128.882C379.692 128.215 379.461 127.575 379.113 126.998C378.764 126.421 378.304 125.918 377.761 125.52C379.749 126.754 381.584 128.217 383.231 129.88Z" fill="#C66A05"/>
<path d="M392.251 152.22H366.561L372.821 143.83L383.231 129.83C389.069 135.814 392.31 143.86 392.251 152.22Z" fill="#007AFD"/>
<path d="M392.5 152.47H366.07L383.21 129.47L383.41 129.68C389.294 135.688 392.562 143.781 392.5 152.19V152.47ZM367.05 151.98H392.05C392.033 143.883 388.883 136.107 383.26 130.28L367.05 151.98Z" fill="black"/>
<path d="M362.601 121.11V152.22H358.601L355.221 148.03L352.121 144.18L341.221 130.63C343.924 127.64 347.222 125.249 350.904 123.609C354.586 121.97 358.57 121.118 362.601 121.11Z" fill="#FB9100"/>
<path d="M362.6 121.11V152.22H358.6L357.75 151.17H361V121.17C361.54 121.13 362.07 121.11 362.6 121.11Z" fill="#DD7B05"/>
<path d="M358.64 152.22H333C332.979 146.329 334.585 140.547 337.64 135.51C337.78 135.29 337.91 135.07 338.05 134.86L338.47 134.22L338.89 133.61V133.55C339.02 133.36 339.15 133.18 339.29 133C339.43 132.82 339.56 132.64 339.7 132.47L340.12 131.94C340.212 131.841 340.299 131.738 340.38 131.63L340.76 131.19L341.24 130.66L352.14 144.21L355.24 148.06L358.64 152.22Z" fill="white"/>
<path d="M358.641 152.22H356.001L352.761 148.22L349.651 144.36L339.881 132.23L340.111 131.93C340.203 131.831 340.29 131.728 340.371 131.62L340.751 131.18L341.231 130.65L352.131 144.2L355.231 148.05L358.641 152.22Z" fill="#E5E8FF"/>
<path d="M392.251 152.22H366.561L372.821 143.83L383.231 129.83C389.069 135.814 392.31 143.86 392.251 152.22Z" fill="#2169A5"/>
<path d="M392.251 152.22H366.561L367.351 151.17H373.471C375.877 151.171 378.233 150.484 380.261 149.19C382.289 147.896 383.905 146.049 384.917 143.866C385.93 141.684 386.297 139.257 385.975 136.873C385.653 134.488 384.656 132.246 383.101 130.41L383.001 130.28L383.271 129.91C389.074 135.881 392.3 143.893 392.251 152.22Z" fill="#1B5A96"/>
<path d="M366.689 152.47H362.359V120.86H362.599C366.484 120.866 370.328 121.653 373.903 123.173C377.477 124.693 380.71 126.916 383.409 129.71L383.549 129.86L366.689 152.47ZM362.849 151.98H366.439L382.909 129.9C377.619 124.507 370.404 121.436 362.849 121.36V151.98Z" fill="black"/>
<path d="M362.85 152.47H358.52L340.93 130.62L341.08 130.47C343.794 127.451 347.112 125.036 350.819 123.38C354.526 121.725 358.54 120.866 362.6 120.86H362.85V152.47ZM358.76 151.98H362.36V121.36C358.444 121.394 354.577 122.236 351.002 123.833C347.426 125.429 344.219 127.747 341.58 130.64L358.76 151.98Z" fill="black"/>
<path d="M359.149 152.47H332.699V152.22C332.686 146.284 334.305 140.458 337.379 135.38L337.789 134.73L338.209 134.09L338.639 133.47L338.709 133.38L339.109 132.82L339.529 132.28L339.949 131.76L340.189 131.48L340.599 131C340.749 130.82 340.909 130.64 341.069 130.47L341.269 130.25L359.149 152.47ZM333.199 151.98H358.129L341.249 130.98C341.149 131.08 341.059 131.19 340.969 131.29C340.879 131.39 340.709 131.58 340.589 131.73C340.469 131.88 340.409 131.95 340.329 132.04L339.909 132.56L339.509 133.09L339.109 133.63L339.039 133.73C338.899 133.92 338.759 134.12 338.629 134.32C338.499 134.52 338.339 134.74 338.209 134.96C338.079 135.18 337.939 135.39 337.799 135.61C334.809 140.548 333.219 146.207 333.199 151.98Z" fill="black"/>
<path d="M392.5 152.47H366.07L383.21 129.47L383.41 129.68C389.294 135.688 392.562 143.781 392.5 152.19V152.47ZM367.05 151.98H392.05C392.033 143.883 388.883 136.107 383.26 130.28L367.05 151.98Z" fill="black"/>
<g opacity="0.1">
<path d="M375 150.76C375.001 151.248 374.971 151.736 374.91 152.22H350.34C350.287 151.735 350.261 151.248 350.26 150.76C350.264 148.121 351.113 145.553 352.683 143.431C354.253 141.31 356.461 139.748 358.983 138.973C361.506 138.198 364.21 138.251 366.701 139.125C369.191 140 371.335 141.648 372.82 143.83C374.225 145.869 374.985 148.284 375 150.76Z" fill="black"/>
</g>
<path d="M362.599 161.75C368.669 161.75 373.589 156.83 373.589 150.76C373.589 144.69 368.669 139.77 362.599 139.77C356.53 139.77 351.609 144.69 351.609 150.76C351.609 156.83 356.53 161.75 362.599 161.75Z" fill="white"/>
<path d="M362.599 162C360.376 162 358.203 161.341 356.355 160.106C354.506 158.871 353.066 157.115 352.215 155.061C351.364 153.008 351.142 150.748 351.575 148.567C352.009 146.387 353.08 144.384 354.652 142.812C356.223 141.24 358.226 140.17 360.407 139.736C362.587 139.302 364.847 139.525 366.901 140.376C368.955 141.226 370.71 142.667 371.945 144.515C373.18 146.364 373.839 148.537 373.839 150.76C373.837 153.74 372.652 156.598 370.544 158.705C368.437 160.812 365.58 161.997 362.599 162ZM362.599 140C360.473 140 358.395 140.631 356.627 141.812C354.859 142.993 353.481 144.672 352.668 146.636C351.854 148.6 351.641 150.762 352.056 152.847C352.471 154.933 353.495 156.848 354.998 158.351C356.501 159.855 358.417 160.879 360.502 161.293C362.587 161.708 364.749 161.495 366.713 160.682C368.678 159.868 370.356 158.49 371.538 156.722C372.719 154.955 373.349 152.876 373.349 150.75C373.344 147.901 372.209 145.171 370.194 143.158C368.179 141.145 365.448 140.013 362.599 140.01V140Z" fill="black"/>
<path d="M362.6 157.69C366.427 157.69 369.53 154.587 369.53 150.76C369.53 146.933 366.427 143.83 362.6 143.83C358.773 143.83 355.67 146.933 355.67 150.76C355.67 154.587 358.773 157.69 362.6 157.69Z" fill="#E5E8FF"/>
<path d="M363.729 152.36L359.909 149.66C359.877 149.638 359.849 149.61 359.828 149.577C359.807 149.543 359.794 149.506 359.789 149.467C359.784 149.427 359.788 149.388 359.8 149.35C359.812 149.313 359.833 149.279 359.859 149.25L372.859 134.89C372.903 134.838 372.964 134.804 373.032 134.795C373.099 134.786 373.167 134.803 373.222 134.842C373.278 134.881 373.317 134.94 373.331 135.006C373.345 135.072 373.334 135.141 373.299 135.2L364.119 152.28C364.101 152.313 364.076 152.342 364.046 152.365C364.015 152.387 363.98 152.403 363.943 152.411C363.906 152.418 363.868 152.418 363.831 152.409C363.794 152.4 363.759 152.383 363.729 152.36Z" fill="black"/>
<path d="M367.241 150.76C367.241 151.678 366.969 152.575 366.459 153.338C365.949 154.101 365.224 154.696 364.377 155.047C363.529 155.398 362.596 155.49 361.696 155.311C360.796 155.132 359.969 154.69 359.32 154.041C358.671 153.392 358.229 152.565 358.05 151.665C357.871 150.765 357.963 149.832 358.314 148.984C358.665 148.137 359.26 147.412 360.023 146.902C360.786 146.392 361.683 146.12 362.601 146.12C363.832 146.12 365.012 146.609 365.882 147.479C366.752 148.349 367.241 149.53 367.241 150.76Z" fill="black"/>
<path d="M385.529 166.11H341.479C340.176 166.11 339.119 167.167 339.119 168.47V170.78C339.119 172.083 340.176 173.14 341.479 173.14H385.529C386.833 173.14 387.889 172.083 387.889 170.78V168.47C387.889 167.167 386.833 166.11 385.529 166.11Z" fill="#E5E8FF"/>
<path d="M385.541 173.38H341.481C340.791 173.38 340.13 173.106 339.642 172.619C339.155 172.131 338.881 171.47 338.881 170.78V168.47C338.881 167.78 339.154 167.117 339.642 166.628C340.129 166.139 340.79 165.863 341.481 165.86H385.541C386.231 165.863 386.893 166.139 387.38 166.628C387.867 167.117 388.141 167.78 388.141 168.47V170.78C388.141 171.47 387.867 172.131 387.379 172.619C386.892 173.106 386.23 173.38 385.541 173.38ZM341.481 166.38C340.921 166.38 340.385 166.602 339.989 166.998C339.593 167.394 339.371 167.931 339.371 168.49V170.8C339.371 171.077 339.425 171.352 339.531 171.608C339.638 171.864 339.793 172.096 339.989 172.292C340.185 172.488 340.417 172.643 340.673 172.749C340.929 172.856 341.204 172.91 341.481 172.91H385.541C385.818 172.91 386.092 172.856 386.348 172.749C386.604 172.643 386.837 172.488 387.033 172.292C387.229 172.096 387.384 171.864 387.49 171.608C387.596 171.352 387.651 171.077 387.651 170.8V168.49C387.651 167.931 387.429 167.394 387.033 166.998C386.637 166.602 386.1 166.38 385.541 166.38H341.481Z" fill="#242B2B"/>
<path d="M271.25 224.86C270.733 224.86 270.23 224.699 269.809 224.4C269.388 224.1 269.07 223.678 268.9 223.19L268.3 221.41C268.19 221.096 268.003 220.815 267.757 220.591C267.511 220.368 267.213 220.209 266.89 220.13C266.33 219.99 265.75 219.81 265.13 219.59C264.819 219.476 264.484 219.44 264.156 219.488C263.828 219.535 263.516 219.663 263.25 219.86L261.75 220.98C261.305 221.316 260.76 221.493 260.203 221.48C259.645 221.467 259.109 221.266 258.68 220.91L255.37 218.17C254.942 217.814 254.645 217.326 254.528 216.782C254.41 216.238 254.478 215.671 254.72 215.17L255.54 213.5C255.687 213.2 255.757 212.868 255.743 212.535C255.729 212.201 255.632 211.876 255.46 211.59C255.148 211.066 254.864 210.525 254.61 209.97C254.468 209.668 254.254 209.406 253.987 209.205C253.721 209.005 253.409 208.873 253.08 208.82L251.23 208.56C250.679 208.482 250.17 208.22 249.785 207.817C249.401 207.415 249.163 206.894 249.11 206.34L248.71 202.05C248.653 201.495 248.787 200.938 249.088 200.469C249.39 200.001 249.842 199.648 250.37 199.47L252.14 198.87C252.454 198.76 252.735 198.573 252.959 198.327C253.182 198.081 253.341 197.783 253.42 197.46C253.58 196.86 253.75 196.29 253.96 195.7C254.074 195.389 254.109 195.054 254.062 194.726C254.015 194.398 253.887 194.086 253.69 193.82L252.57 192.32C252.235 191.874 252.06 191.328 252.075 190.771C252.089 190.214 252.292 189.678 252.65 189.25L255.39 185.94C255.744 185.511 256.233 185.213 256.777 185.095C257.321 184.977 257.89 185.046 258.39 185.29L260.07 186.12C260.369 186.264 260.7 186.331 261.031 186.315C261.363 186.3 261.686 186.202 261.97 186.03C262.498 185.716 263.042 185.429 263.6 185.17C263.901 185.031 264.163 184.819 264.362 184.554C264.561 184.289 264.691 183.978 264.74 183.65L265.01 181.8C265.085 181.247 265.345 180.736 265.749 180.351C266.152 179.966 266.674 179.729 267.23 179.68L271.52 179.27C272.074 179.218 272.629 179.355 273.095 179.658C273.562 179.961 273.912 180.413 274.09 180.94L274.7 182.71C274.809 183.026 274.995 183.309 275.241 183.534C275.487 183.76 275.786 183.92 276.11 184C276.67 184.14 277.24 184.31 277.86 184.53C278.172 184.646 278.509 184.682 278.839 184.635C279.169 184.588 279.482 184.459 279.75 184.26L281.24 183.14C281.686 182.805 282.231 182.63 282.789 182.645C283.346 182.659 283.882 182.862 284.31 183.22L287.63 185.96C288.058 186.316 288.353 186.805 288.469 187.349C288.585 187.893 288.515 188.461 288.27 188.96L287.45 190.64C287.306 190.939 287.239 191.27 287.255 191.601C287.27 191.933 287.368 192.256 287.54 192.54C287.85 193.069 288.134 193.613 288.39 194.17C288.53 194.472 288.743 194.735 289.01 194.934C289.277 195.133 289.59 195.262 289.92 195.31L291.77 195.57C292.321 195.65 292.828 195.912 293.213 196.314C293.597 196.717 293.835 197.236 293.89 197.79L294.29 202.08C294.346 202.636 294.211 203.194 293.907 203.663C293.604 204.132 293.15 204.483 292.62 204.66L290.86 205.27C290.544 205.379 290.261 205.565 290.036 205.811C289.81 206.057 289.65 206.356 289.57 206.68C289.422 207.273 289.242 207.857 289.03 208.43C288.914 208.743 288.878 209.079 288.925 209.409C288.972 209.739 289.101 210.052 289.3 210.32L290.42 211.81C290.755 212.255 290.93 212.8 290.917 213.357C290.905 213.914 290.705 214.45 290.35 214.88L287.61 218.2C287.253 218.626 286.764 218.921 286.22 219.037C285.677 219.153 285.11 219.083 284.61 218.84L282.94 218.02C282.639 217.874 282.307 217.806 281.973 217.822C281.64 217.838 281.315 217.937 281.03 218.11C280.54 218.4 280.03 218.68 279.41 218.96C279.108 219.1 278.845 219.313 278.646 219.58C278.447 219.847 278.317 220.16 278.27 220.49L278 222.34C277.923 222.892 277.662 223.402 277.259 223.787C276.856 224.172 276.335 224.409 275.78 224.46L271.49 224.86H271.25ZM264.43 218.98C264.726 218.98 265.021 219.031 265.3 219.13C265.859 219.337 266.43 219.511 267.01 219.65C267.413 219.751 267.784 219.951 268.09 220.233C268.395 220.514 268.626 220.867 268.76 221.26L269.37 223.03C269.517 223.451 269.801 223.81 270.176 224.051C270.551 224.292 270.996 224.401 271.44 224.36L275.72 223.96C276.165 223.918 276.584 223.727 276.909 223.419C277.233 223.111 277.445 222.703 277.51 222.26L277.77 220.41C277.827 219.998 277.989 219.607 278.239 219.275C278.489 218.942 278.82 218.679 279.2 218.51C279.737 218.257 280.261 217.976 280.77 217.67C281.126 217.458 281.529 217.338 281.942 217.321C282.356 217.304 282.768 217.389 283.14 217.57L284.82 218.39C285.222 218.585 285.678 218.64 286.115 218.545C286.551 218.451 286.944 218.213 287.23 217.87L289.97 214.56C290.253 214.215 290.412 213.786 290.423 213.34C290.434 212.895 290.296 212.458 290.03 212.1L288.91 210.6C288.663 210.267 288.502 209.878 288.443 209.468C288.384 209.058 288.427 208.639 288.57 208.25C288.76 207.73 288.94 207.17 289.1 206.55C289.197 206.146 289.394 205.772 289.674 205.465C289.954 205.157 290.307 204.925 290.7 204.79L292.47 204.19C292.891 204.042 293.25 203.759 293.491 203.384C293.732 203.009 293.841 202.564 293.8 202.12L293.4 197.83C293.356 197.386 293.164 196.97 292.856 196.647C292.548 196.325 292.141 196.115 291.7 196.05L289.85 195.79C289.439 195.73 289.049 195.567 288.717 195.318C288.385 195.068 288.122 194.738 287.95 194.36C287.697 193.819 287.417 193.292 287.11 192.78C286.897 192.424 286.777 192.021 286.76 191.608C286.742 191.194 286.828 190.782 287.01 190.41L287.83 188.73C288.022 188.329 288.076 187.875 287.982 187.441C287.887 187.006 287.651 186.615 287.31 186.33L284 183.59C283.656 183.306 283.228 183.144 282.782 183.132C282.336 183.119 281.899 183.256 281.54 183.52L280.04 184.64C279.708 184.889 279.319 185.051 278.908 185.111C278.498 185.17 278.079 185.125 277.69 184.98C277.09 184.77 276.53 184.6 275.99 184.46C275.586 184.361 275.214 184.163 274.907 183.884C274.599 183.604 274.367 183.252 274.23 182.86L273.63 181.09C273.484 180.667 273.201 180.306 272.826 180.063C272.451 179.82 272.005 179.71 271.56 179.75L267.27 180.16C266.826 180.204 266.41 180.396 266.087 180.704C265.765 181.012 265.555 181.419 265.49 181.86L265.23 183.71C265.17 184.121 265.007 184.511 264.758 184.843C264.508 185.175 264.178 185.438 263.8 185.61C263.261 185.857 262.737 186.134 262.23 186.44C261.873 186.654 261.469 186.776 261.054 186.795C260.638 186.815 260.225 186.73 259.85 186.55L258.17 185.72C257.769 185.527 257.315 185.474 256.881 185.568C256.446 185.662 256.055 185.899 255.77 186.24L253 189.56C252.717 189.905 252.558 190.334 252.547 190.78C252.536 191.225 252.674 191.662 252.94 192.02L254.06 193.51C254.307 193.843 254.467 194.232 254.527 194.642C254.586 195.052 254.543 195.471 254.4 195.86C254.195 196.421 254.018 196.991 253.87 197.57C253.771 197.972 253.572 198.343 253.293 198.649C253.013 198.954 252.662 199.185 252.27 199.32L250.5 199.93C250.081 200.077 249.723 200.359 249.482 200.732C249.241 201.105 249.132 201.548 249.17 201.99L249.57 206.28C249.614 206.722 249.804 207.137 250.11 207.46C250.416 207.782 250.82 207.993 251.26 208.06L253.12 208.33C253.53 208.388 253.92 208.549 254.252 208.797C254.584 209.045 254.848 209.373 255.02 209.75C255.269 210.29 255.546 210.818 255.85 211.33C256.063 211.685 256.185 212.087 256.204 212.501C256.223 212.915 256.139 213.327 255.96 213.7L255.14 215.38C254.944 215.781 254.887 216.236 254.98 216.673C255.072 217.11 255.308 217.503 255.65 217.79L258.97 220.53C259.315 220.813 259.744 220.972 260.19 220.983C260.635 220.994 261.072 220.856 261.43 220.59L262.92 219.47C263.356 219.146 263.887 218.973 264.43 218.98Z" fill="#242B2B"/>
<path d="M279.27 192.67C277.412 191.133 275.141 190.181 272.742 189.934C270.344 189.688 267.926 190.158 265.795 191.286C263.664 192.414 261.915 194.148 260.77 196.27C259.624 198.392 259.134 200.806 259.361 203.206C259.587 205.607 260.521 207.886 262.043 209.756C263.565 211.626 265.607 213.002 267.912 213.711C270.216 214.42 272.679 214.43 274.989 213.739C277.299 213.048 279.353 211.688 280.89 209.83C281.911 208.597 282.679 207.176 283.151 205.646C283.622 204.116 283.787 202.508 283.637 200.914C283.486 199.321 283.023 197.772 282.274 196.357C281.524 194.943 280.504 193.69 279.27 192.67ZM279.27 208.48C277.999 210.012 276.303 211.134 274.396 211.703C272.489 212.272 270.456 212.263 268.554 211.677C266.652 211.091 264.966 209.955 263.709 208.412C262.452 206.868 261.681 204.987 261.493 203.006C261.304 201.025 261.707 199.032 262.651 197.279C263.594 195.527 265.036 194.093 266.793 193.16C268.551 192.226 270.546 191.834 272.526 192.034C274.507 192.233 276.383 193.015 277.92 194.28C278.941 195.124 279.785 196.161 280.405 197.332C281.025 198.502 281.408 199.784 281.533 201.102C281.657 202.421 281.521 203.752 281.13 205.017C280.74 206.283 280.105 207.46 279.26 208.48H279.27Z" fill="#C5CDE3"/>
<path d="M271.481 212.38C268.761 212.249 266.2 211.06 264.345 209.067C262.49 207.074 261.488 204.434 261.554 201.712C261.619 198.99 262.746 196.401 264.695 194.499C266.643 192.597 269.258 191.532 271.981 191.532C274.704 191.532 277.319 192.597 279.267 194.499C281.215 196.401 282.343 198.99 282.408 201.712C282.473 204.434 281.471 207.074 279.616 209.067C277.761 211.06 275.201 212.249 272.481 212.38C272.141 212.36 271.811 212.38 271.481 212.38ZM271.481 192.23C269.497 192.227 267.558 192.824 265.919 193.943C264.281 195.062 263.02 196.651 262.301 198.5C261.583 200.35 261.441 202.373 261.894 204.305C262.347 206.237 263.374 207.986 264.84 209.323C266.306 210.66 268.142 211.522 270.108 211.796C272.073 212.07 274.075 211.742 275.851 210.857C277.626 209.972 279.092 208.569 280.056 206.835C281.02 205.101 281.436 203.115 281.251 201.14C281.024 198.705 279.897 196.442 278.09 194.794C276.283 193.146 273.926 192.232 271.481 192.23Z" fill="#242B2B"/>
<path d="M306.679 230.6C306.514 230.596 306.349 230.573 306.19 230.53L303.19 229.7C302.789 229.59 302.437 229.347 302.192 229.011C301.946 228.675 301.822 228.266 301.839 227.85V226.51C301.848 226.283 301.799 226.058 301.698 225.856C301.597 225.653 301.446 225.479 301.26 225.35C300.87 225.07 300.53 224.8 300.26 224.53C300.087 224.387 299.881 224.289 299.661 224.245C299.441 224.202 299.214 224.214 299 224.28L297.7 224.65C297.301 224.764 296.876 224.74 296.493 224.582C296.11 224.424 295.792 224.141 295.589 223.78L294.07 221.09C293.863 220.729 293.784 220.309 293.848 219.899C293.912 219.488 294.113 219.111 294.42 218.83L295.42 217.91C295.585 217.753 295.709 217.558 295.78 217.342C295.852 217.125 295.869 216.894 295.829 216.67C295.75 216.237 295.697 215.799 295.67 215.36C295.653 215.133 295.58 214.914 295.458 214.722C295.335 214.53 295.168 214.371 294.97 214.26L293.799 213.61C293.436 213.407 293.151 213.088 292.991 212.703C292.831 212.318 292.806 211.891 292.92 211.49L293.75 208.49C293.861 208.092 294.103 207.742 294.437 207.497C294.77 207.253 295.176 207.127 295.589 207.14H296.929C297.158 207.15 297.385 207.102 297.589 207.001C297.794 206.899 297.969 206.748 298.1 206.56C298.35 206.2 298.63 205.85 298.91 205.56C299.061 205.39 299.167 205.184 299.218 204.962C299.269 204.74 299.262 204.509 299.2 204.29L298.839 203C298.721 202.601 298.741 202.174 298.897 201.789C299.054 201.404 299.337 201.083 299.7 200.88L302.39 199.36C302.752 199.154 303.173 199.076 303.585 199.14C303.997 199.204 304.376 199.404 304.66 199.71L305.57 200.71C305.725 200.878 305.92 201.003 306.137 201.075C306.353 201.147 306.585 201.162 306.809 201.12C307.243 201.043 307.68 200.99 308.119 200.96C308.346 200.943 308.565 200.87 308.757 200.748C308.949 200.626 309.108 200.458 309.22 200.26L309.88 199.09C310.079 198.726 310.397 198.44 310.78 198.28C311.164 198.12 311.59 198.095 311.989 198.21L314.989 199.04C315.391 199.148 315.743 199.389 315.99 199.723C316.237 200.057 316.364 200.465 316.35 200.88L316.299 202.22C316.292 202.448 316.341 202.674 316.442 202.878C316.544 203.082 316.694 203.258 316.88 203.39C317.27 203.66 317.609 203.93 317.929 204.2C318.099 204.352 318.305 204.459 318.527 204.51C318.749 204.56 318.981 204.554 319.2 204.49L320.489 204.12C320.889 204.009 321.315 204.035 321.698 204.192C322.082 204.35 322.403 204.63 322.609 204.99L324.13 207.69C324.335 208.051 324.412 208.471 324.348 208.881C324.285 209.291 324.084 209.668 323.78 209.95L322.78 210.86C322.611 211.015 322.485 211.21 322.413 211.427C322.341 211.644 322.326 211.875 322.369 212.1C322.449 212.57 322.5 213 322.53 213.41C322.542 213.637 322.612 213.857 322.732 214.049C322.853 214.242 323.021 214.4 323.22 214.51L324.39 215.17C324.754 215.369 325.041 215.686 325.203 216.07C325.364 216.453 325.391 216.879 325.279 217.28L324.45 220.28C324.342 220.67 324.11 221.014 323.789 221.26C323.467 221.506 323.074 221.639 322.67 221.64H322.6L321.26 221.59C321.032 221.58 320.805 221.629 320.602 221.732C320.398 221.835 320.225 221.99 320.1 222.18C319.86 222.51 319.59 222.85 319.28 223.18C319.129 223.35 319.023 223.556 318.973 223.778C318.922 224 318.928 224.231 318.989 224.45L319.359 225.74C319.476 226.14 319.453 226.567 319.295 226.952C319.137 227.337 318.853 227.657 318.489 227.86L315.799 229.38C315.438 229.583 315.019 229.659 314.609 229.596C314.199 229.533 313.822 229.333 313.54 229.03L312.619 228.03C312.463 227.865 312.267 227.741 312.051 227.669C311.835 227.597 311.604 227.581 311.38 227.62C310.946 227.7 310.509 227.757 310.07 227.79C309.843 227.802 309.623 227.872 309.43 227.993C309.238 228.114 309.079 228.281 308.97 228.48L308.32 229.65C308.156 229.94 307.917 230.181 307.629 230.348C307.34 230.515 307.013 230.602 306.679 230.6ZM299.369 223.7C299.821 223.7 300.258 223.864 300.6 224.16C300.9 224.42 301.23 224.68 301.6 224.95C301.855 225.124 302.062 225.36 302.2 225.637C302.339 225.914 302.404 226.221 302.39 226.53V227.87C302.379 228.176 302.471 228.477 302.653 228.724C302.834 228.971 303.094 229.149 303.39 229.23L306.39 230.06C306.684 230.14 306.998 230.119 307.279 229.999C307.56 229.879 307.793 229.668 307.94 229.4L308.589 228.23C308.731 227.97 308.933 227.748 309.178 227.582C309.424 227.417 309.705 227.313 310 227.28C310.46 227.28 310.869 227.19 311.269 227.12C311.574 227.064 311.888 227.087 312.181 227.185C312.475 227.282 312.739 227.453 312.95 227.68L313.859 228.68C314.069 228.904 314.347 229.051 314.65 229.098C314.952 229.145 315.262 229.09 315.53 228.94L318.22 227.42C318.486 227.27 318.694 227.034 318.81 226.751C318.927 226.468 318.944 226.154 318.859 225.86L318.489 224.57C318.404 224.272 318.396 223.957 318.464 223.655C318.532 223.353 318.675 223.073 318.88 222.84C319.162 222.522 319.426 222.188 319.67 221.84C319.847 221.588 320.085 221.384 320.36 221.247C320.636 221.109 320.941 221.041 321.25 221.05L322.589 221.1C322.896 221.111 323.197 221.018 323.443 220.837C323.69 220.655 323.869 220.395 323.95 220.1L324.769 217.1C324.852 216.806 324.833 216.493 324.715 216.211C324.597 215.93 324.387 215.697 324.119 215.55L322.95 214.89C322.681 214.74 322.454 214.525 322.29 214.265C322.125 214.004 322.029 213.707 322.01 213.4C321.978 212.974 321.924 212.55 321.85 212.13C321.795 211.825 321.818 211.512 321.915 211.219C322.013 210.925 322.183 210.661 322.41 210.45L323.41 209.54C323.634 209.333 323.782 209.057 323.829 208.755C323.876 208.454 323.82 208.145 323.67 207.88L322.149 205.18C321.998 204.915 321.762 204.709 321.479 204.595C321.196 204.481 320.883 204.465 320.589 204.55L319.299 204.92C319.001 205.003 318.686 205.01 318.384 204.94C318.082 204.87 317.802 204.726 317.57 204.52C317.25 204.243 316.916 203.983 316.57 203.74C316.316 203.561 316.112 203.322 315.974 203.045C315.836 202.767 315.769 202.46 315.78 202.15V200.82C315.794 200.513 315.703 200.21 315.521 199.963C315.339 199.715 315.077 199.538 314.78 199.46L311.78 198.63C311.484 198.548 311.17 198.568 310.887 198.686C310.605 198.804 310.369 199.013 310.22 199.28L309.57 200.45C309.42 200.72 309.206 200.948 308.945 201.114C308.685 201.28 308.387 201.378 308.079 201.4C307.657 201.426 307.236 201.476 306.82 201.55C306.514 201.606 306.2 201.585 305.905 201.489C305.61 201.393 305.343 201.225 305.13 201L304.22 200C304.011 199.778 303.735 199.633 303.434 199.586C303.133 199.539 302.826 199.593 302.559 199.74L299.859 201.27C299.593 201.417 299.385 201.651 299.27 201.933C299.156 202.216 299.141 202.529 299.23 202.82L299.589 204.11C299.676 204.408 299.686 204.723 299.618 205.025C299.55 205.328 299.406 205.608 299.2 205.84C298.93 206.16 298.66 206.49 298.42 206.84C298.243 207.093 298.006 207.299 297.73 207.439C297.454 207.578 297.148 207.648 296.839 207.64H295.489C295.185 207.631 294.886 207.725 294.642 207.907C294.397 208.088 294.22 208.346 294.14 208.64L293.309 211.64C293.228 211.934 293.249 212.246 293.366 212.527C293.484 212.808 293.693 213.042 293.959 213.19L295.13 213.84C295.401 213.99 295.63 214.206 295.796 214.469C295.962 214.731 296.06 215.03 296.079 215.34C296.079 215.77 296.16 216.18 296.23 216.6C296.285 216.904 296.263 217.218 296.165 217.512C296.067 217.805 295.897 218.07 295.67 218.28L294.67 219.2C294.445 219.407 294.298 219.684 294.252 219.986C294.207 220.288 294.266 220.596 294.42 220.86L295.94 223.55C296.088 223.816 296.322 224.024 296.603 224.14C296.884 224.256 297.197 224.274 297.489 224.19L298.78 223.82C298.968 223.747 299.167 223.706 299.369 223.7Z" fill="#242B2B"/>
<path d="M311.43 205.92C309.763 205.456 307.996 205.496 306.352 206.036C304.708 206.576 303.261 207.591 302.194 208.953C301.127 210.316 300.487 211.964 300.357 213.689C300.226 215.415 300.611 217.14 301.461 218.648C302.311 220.155 303.589 221.376 305.133 222.157C306.677 222.938 308.418 223.244 310.136 223.035C311.854 222.827 313.471 222.114 314.784 220.986C316.097 219.858 317.045 218.367 317.51 216.7C318.131 214.464 317.84 212.074 316.7 210.053C315.56 208.032 313.665 206.545 311.43 205.92ZM316.05 216.28C315.666 217.658 314.881 218.892 313.795 219.824C312.71 220.756 311.372 221.345 309.951 221.516C308.531 221.687 307.091 221.433 305.815 220.786C304.539 220.138 303.483 219.127 302.783 217.879C302.082 216.632 301.767 215.204 301.878 213.778C301.989 212.351 302.52 210.989 303.406 209.865C304.291 208.741 305.49 207.905 306.851 207.462C308.212 207.02 309.673 206.991 311.05 207.38C312.892 207.9 314.452 209.129 315.389 210.797C316.327 212.465 316.564 214.437 316.05 216.28Z" fill="#C5CDE3"/>
<path d="M309.09 221.83C308.414 221.83 307.741 221.736 307.09 221.55C306.145 221.288 305.26 220.842 304.487 220.237C303.714 219.633 303.067 218.882 302.584 218.027C302.101 217.173 301.791 216.232 301.672 215.258C301.553 214.284 301.627 213.296 301.89 212.35C302.422 210.439 303.692 208.818 305.419 207.843C307.146 206.868 309.19 206.619 311.1 207.15C312.523 207.549 313.795 208.359 314.758 209.48C315.72 210.601 316.329 211.982 316.507 213.448C316.686 214.914 316.426 216.401 315.761 217.72C315.096 219.039 314.056 220.132 312.77 220.86C311.648 221.495 310.38 221.829 309.09 221.83ZM302.35 212.48C302.034 213.384 301.907 214.344 301.976 215.299C302.045 216.254 302.31 217.185 302.754 218.034C303.198 218.883 303.811 219.632 304.556 220.234C305.3 220.837 306.161 221.28 307.084 221.536C308.007 221.793 308.972 221.857 309.921 221.725C310.87 221.593 311.781 221.268 312.599 220.77C313.417 220.271 314.125 219.611 314.677 218.828C315.229 218.045 315.615 217.158 315.81 216.22C316.302 214.435 316.067 212.528 315.156 210.916C314.245 209.305 312.733 208.119 310.95 207.62C309.166 207.128 307.259 207.363 305.647 208.274C304.035 209.185 302.85 210.697 302.35 212.48Z" fill="#242B2B"/>
<path d="M364.161 238.44C364.161 238.44 368.441 235.96 369.021 231.76C369.601 227.56 362.761 224.84 362.761 224.84C362.761 224.84 364.321 232.75 362.341 232.67C360.361 232.59 361.111 223.67 361.111 223.67C361.111 223.67 354.921 220.62 351.301 220.62C351.301 220.62 355.011 227.62 353.611 228.29C352.211 228.96 347.341 220.21 347.341 220.21C347.341 220.21 342.231 218.07 338.851 222.27C335.471 226.47 339.851 230.68 339.851 230.68C339.851 230.68 347.431 230.18 348.091 231.83C348.751 233.48 340.921 233.4 340.921 233.4C340.921 233.4 344.381 239.99 346.691 240.74C349.001 241.49 352.001 236.94 354.371 236.61C356.741 236.28 359.141 237.11 358.561 238.34C357.981 239.57 351.311 239.93 350.321 243.64C350.311 243.65 361.001 247.42 364.161 238.44Z" fill="#00887D"/>
<path d="M368.81 263.92C368.81 263.71 367.34 243.57 363.95 238.57C360.56 233.57 345.17 226.57 345.01 226.57L345.22 226.13C345.85 226.41 360.9 233.22 364.36 238.33C367.82 243.44 369.24 263.08 369.3 263.91L368.81 263.92Z" fill="black"/>
<path d="M379.999 249.08C379.999 249.08 376.179 246.16 376.279 242.42C376.379 238.68 383.549 237.57 383.549 237.57C383.549 237.57 380.749 244.13 382.709 244.42C384.669 244.71 385.359 236.87 385.359 236.87C385.359 236.87 391.919 235.35 395.489 236.01C395.489 236.01 390.719 241.4 391.999 242.23C393.279 243.06 399.449 236.38 399.449 236.38C399.449 236.38 404.819 235.45 407.449 239.7C410.079 243.95 405.129 246.79 405.129 246.79C405.129 246.79 397.749 244.99 396.839 246.3C395.929 247.61 403.639 248.95 403.639 248.95C403.639 248.95 399.179 254.03 396.799 254.25C394.419 254.47 392.179 250.01 389.909 249.25C387.639 248.49 385.129 248.81 385.499 249.99C385.869 251.17 392.379 252.67 392.759 256.06C392.749 256.1 381.609 257.42 379.999 249.08Z" fill="#00887D"/>
<path d="M375.359 262.65H374.869C374.869 262.25 375.559 252.74 379.809 248.93C384.059 245.12 399.909 241.93 400.579 241.85L400.679 242.33C400.509 242.33 384.259 245.59 380.129 249.33C375.999 253.07 375.369 262.55 375.359 262.65Z" fill="black"/>
<path d="M372.281 241.99C372.281 241.99 366.731 238.79 365.981 233.34C365.231 227.89 374.101 224.34 374.101 224.34C374.101 224.34 372.101 234.59 374.631 234.49C377.161 234.39 376.241 222.85 376.241 222.85C376.241 222.85 384.241 218.9 388.941 218.9C388.941 218.9 384.141 227.97 385.941 228.83C387.741 229.69 394.061 218.36 394.061 218.36C394.061 218.36 400.681 215.59 405.061 221.03C409.441 226.47 403.781 231.92 403.781 231.92C403.781 231.92 393.951 231.28 393.101 233.42C392.251 235.56 402.391 235.42 402.391 235.42C402.391 235.42 397.901 243.96 394.911 244.92C391.921 245.88 388.041 240.01 384.971 239.58C381.901 239.15 378.791 240.22 379.541 241.83C380.291 243.44 390.751 242.89 392.031 247.7C392.001 247.76 376.341 253.63 372.281 241.99Z" fill="#04B5A4"/>
<path d="M369.051 262.95C368.991 262.36 367.601 248.47 372.051 241.86C376.501 235.25 396.001 226.44 396.821 226.07L397.021 226.52C396.821 226.61 376.851 235.64 372.461 242.13C368.071 248.62 369.461 262.76 369.511 262.9L369.051 262.95Z" fill="black"/>
<path d="M387.22 259.24H358.3C357.71 259.24 357.23 259.719 357.23 260.31V263.99C357.23 264.581 357.71 265.06 358.3 265.06H387.22C387.811 265.06 388.29 264.581 388.29 263.99V260.31C388.29 259.719 387.811 259.24 387.22 259.24Z" fill="#E28324"/>
<path d="M387.22 265.28H358.3C357.957 265.275 357.629 265.136 357.386 264.893C357.144 264.651 357.005 264.323 357 263.98V260.28C357 259.932 357.138 259.597 357.383 259.35C357.628 259.103 357.962 258.963 358.31 258.96H387.23C387.578 258.963 387.912 259.103 388.157 259.35C388.402 259.597 388.54 259.932 388.54 260.28V263.95C388.541 264.124 388.508 264.297 388.442 264.458C388.377 264.619 388.28 264.766 388.157 264.89C388.034 265.013 387.888 265.112 387.727 265.179C387.567 265.245 387.394 265.28 387.22 265.28ZM358.3 259.48C358.082 259.483 357.873 259.571 357.72 259.727C357.566 259.882 357.48 260.092 357.48 260.31V263.98C357.48 264.198 357.566 264.408 357.72 264.563C357.873 264.719 358.082 264.807 358.3 264.81H387.22C387.438 264.807 387.647 264.719 387.8 264.563C387.954 264.408 388.04 264.198 388.04 263.98V260.28C388.04 260.062 387.954 259.852 387.8 259.697C387.647 259.541 387.438 259.453 387.22 259.45L358.3 259.48Z" fill="#242B2B"/>
<path d="M386.111 265.05L383.731 286.18C383.677 286.649 383.453 287.083 383.101 287.398C382.749 287.713 382.293 287.888 381.821 287.89H364.001C363.68 287.89 363.364 287.811 363.081 287.659C362.799 287.507 362.558 287.288 362.381 287.02C362.219 286.766 362.116 286.479 362.081 286.18L359.971 267.39L359.711 265.05H386.111Z" fill="#E07912"/>
<path d="M386.111 265.05L383.731 286.18C383.677 286.649 383.453 287.083 383.101 287.398C382.749 287.713 382.293 287.888 381.821 287.89H364.001C363.68 287.89 363.364 287.811 363.081 287.659C362.799 287.507 362.558 287.288 362.381 287.02C374.461 283.81 379.701 277.42 382.661 267.32L359.971 267.39L359.711 265.05H386.111Z" fill="#C66A05"/>
<path d="M381.82 288.14H364C363.636 288.135 363.28 288.041 362.961 287.867C362.642 287.693 362.37 287.443 362.17 287.14C361.989 286.852 361.877 286.528 361.84 286.19L359.43 264.79H386.43L384.03 286.19C383.972 286.733 383.713 287.234 383.304 287.595C382.895 287.956 382.365 288.151 381.82 288.14ZM360 265.28L362.35 286.13C362.378 286.392 362.464 286.644 362.6 286.87C362.757 287.102 362.969 287.291 363.216 287.422C363.464 287.553 363.74 287.621 364.02 287.62H381.87C382.282 287.618 382.679 287.465 382.987 287.191C383.294 286.917 383.491 286.539 383.54 286.13L385.83 265.28H360Z" fill="#242B2B"/>
<line x1="146" y1="287.75" x2="412" y2="287.75" stroke="black" stroke-width="0.5"/>
</g>
<defs>
<clipPath id="clip0_3459_3937">
<rect width="570" height="324" fill="white"/>
</clipPath>
</defs>
</svg>
