<svg width="570" height="324" viewBox="0 0 570 324" fill="none" xmlns="http://www.w3.org/2000/svg">
<g clip-path="url(#clip0_118_267)">
<rect width="570" height="324" fill="#FFF6EB"/>
<path d="M486.065 292.996H83.7149C83.517 292.979 83.3354 292.92 83.2039 292.829C83.0725 292.738 83 292.621 83 292.5C83 292.379 83.0725 292.262 83.2039 292.171C83.3354 292.08 83.517 292.021 83.7149 292.004H486.065C486.182 291.995 486.3 292.001 486.413 292.021C486.526 292.042 486.63 292.077 486.718 292.124C486.807 292.171 486.878 292.228 486.926 292.293C486.975 292.358 487 292.429 487 292.5C487 292.571 486.975 292.642 486.926 292.707C486.878 292.772 486.807 292.829 486.718 292.876C486.63 292.923 486.526 292.958 486.413 292.979C486.3 292.999 486.182 293.005 486.065 292.996Z" fill="#1E1E1E"/>
<g clip-path="url(#clip1_118_267)">
<path d="M186.158 72.6955C190.209 55.6191 179.643 38.4935 162.558 34.4444C145.473 30.3954 128.339 40.9562 124.288 58.0326C120.236 75.109 130.803 92.2346 147.888 96.2836C164.973 100.333 182.107 89.7719 186.158 72.6955Z" fill="#1B5A96"/>
<path d="M437.99 79.127H360.587C358.625 79.127 357.035 80.7166 357.035 82.6775V130.378C357.035 132.339 358.625 133.929 360.587 133.929H437.99C439.952 133.929 441.542 132.339 441.542 130.378V82.6775C441.542 80.7166 439.952 79.127 437.99 79.127Z" fill="#1B5A96"/>
<path d="M436.12 80.7993H356.395C354.542 80.7993 353.04 82.3009 353.04 84.1531V133.486C353.04 135.339 354.542 136.84 356.395 136.84H436.12C437.973 136.84 439.476 135.339 439.476 133.486V84.1531C439.476 82.3009 437.973 80.7993 436.12 80.7993Z" fill="#FB9100"/>
<path d="M435.559 135.325H356.838C356.551 135.326 356.266 135.271 356.001 135.162C355.735 135.052 355.494 134.892 355.291 134.689C355.087 134.486 354.927 134.244 354.817 133.979C354.708 133.713 354.652 133.429 354.654 133.142V87.7524C354.652 87.5273 354.696 87.3041 354.781 87.0959C354.867 86.8877 354.993 86.6985 355.152 86.5394C355.311 86.3802 355.501 86.2542 355.709 86.1687C355.917 86.0831 356.141 86.0397 356.366 86.041H436.071C436.52 86.0488 436.948 86.2325 437.263 86.5526C437.578 86.8727 437.754 87.3036 437.754 87.7524V133.152C437.753 133.438 437.695 133.722 437.584 133.986C437.473 134.251 437.311 134.491 437.107 134.693C436.903 134.894 436.662 135.054 436.396 135.163C436.131 135.271 435.846 135.326 435.559 135.325Z" fill="#FFF6EB"/>
<path d="M432.509 87.3887H360.282C359.746 87.3887 359.216 87.4943 358.721 87.6996C358.226 87.9048 357.776 88.2056 357.398 88.5847C357.02 88.9639 356.72 89.4139 356.516 89.9091C356.311 90.4042 356.207 90.9347 356.208 91.4703V91.549C356.208 92.6289 356.637 93.6645 357.401 94.4281C358.165 95.1917 359.202 95.6207 360.282 95.6207H432.509C433.589 95.6207 434.626 95.1917 435.39 94.4281C436.154 93.6645 436.583 92.6289 436.583 91.549V91.4703C436.583 90.3895 436.154 89.3528 435.39 88.5876C434.626 87.8225 433.59 87.3913 432.509 87.3887ZM421.931 92.1194C421.931 92.2236 421.91 92.3267 421.87 92.4228C421.83 92.5189 421.771 92.6061 421.697 92.6793C421.623 92.7525 421.535 92.8102 421.438 92.8492C421.341 92.8881 421.238 92.9075 421.134 92.9062H373.143C372.934 92.9062 372.734 92.8233 372.587 92.6758C372.439 92.5282 372.356 92.3281 372.356 92.1194V90.5654C372.356 90.3568 372.439 90.1566 372.587 90.0091C372.734 89.8615 372.934 89.7786 373.143 89.7786H421.134C421.238 89.7773 421.341 89.7967 421.438 89.8357C421.535 89.8746 421.623 89.9324 421.697 90.0056C421.771 90.0788 421.83 90.1659 421.87 90.2621C421.91 90.3582 421.931 90.4613 421.931 90.5654V92.1194Z" fill="#1B5A96"/>
<path d="M374.176 89.7686H359.81C359.408 89.7686 359.082 90.0944 359.082 90.4964V92.1782C359.082 92.5801 359.408 92.906 359.81 92.906H374.176C374.579 92.906 374.905 92.5801 374.905 92.1782V90.4964C374.905 90.0944 374.579 89.7686 374.176 89.7686Z" fill="#DEF6F8"/>
<path d="M376.656 91.3423H392.942" stroke="#1B5A96" stroke-width="0.39" stroke-miterlimit="10"/>
<path d="M361.237 91.3423H372.356" stroke="#1B5A96" stroke-width="0.39" stroke-miterlimit="10"/>
<path d="M421.134 89.7784H416.263V92.906H421.134C421.238 92.9073 421.341 92.8879 421.438 92.8489C421.535 92.81 421.623 92.7522 421.697 92.679C421.771 92.6058 421.83 92.5187 421.87 92.4226C421.91 92.3264 421.931 92.2233 421.931 92.1192V90.5652C421.931 90.461 421.91 90.3579 421.87 90.2618C421.83 90.1657 421.771 90.0785 421.697 90.0053C421.623 89.9321 421.535 89.8744 421.438 89.8354C421.341 89.7965 421.238 89.7771 421.134 89.7784Z" fill="#FB9100"/>
<path d="M419.284 91.0376C419.284 91.201 419.235 91.3607 419.144 91.4966C419.054 91.6324 418.925 91.7383 418.774 91.8009C418.622 91.8634 418.456 91.8797 418.296 91.8479C418.136 91.816 417.988 91.7373 417.873 91.6218C417.757 91.5062 417.678 91.359 417.647 91.1988C417.615 91.0385 417.631 90.8724 417.694 90.7214C417.756 90.5705 417.862 90.4414 417.998 90.3507C418.134 90.2599 418.294 90.2114 418.457 90.2114C418.676 90.214 418.884 90.3018 419.039 90.4562C419.193 90.6106 419.281 90.8193 419.284 91.0376Z" stroke="white" stroke-width="0.26" stroke-miterlimit="10"/>
<path d="M419.097 91.5586L419.973 92.4339" stroke="white" stroke-width="0.26" stroke-miterlimit="10"/>
<path d="M425.857 89.1689H427.707L428.593 91.7851H432.381L432.794 89.7197" stroke="white" stroke-width="0.58" stroke-miterlimit="10" stroke-linecap="round"/>
<path d="M430.413 90.6541C430.848 90.6541 431.2 90.2578 431.2 89.769C431.2 89.2801 430.848 88.8838 430.413 88.8838C429.978 88.8838 429.626 89.2801 429.626 89.769C429.626 90.2578 429.978 90.6541 430.413 90.6541Z" fill="#FB9100"/>
<path d="M429.714 93.2504C429.712 93.4322 429.639 93.6058 429.51 93.7344C429.381 93.863 429.208 93.9363 429.026 93.9389C428.845 93.9363 428.672 93.8626 428.545 93.7338C428.418 93.6049 428.347 93.4313 428.347 93.2504C428.347 93.0704 428.418 92.8978 428.546 92.7705C428.673 92.6433 428.846 92.5718 429.026 92.5718C429.207 92.5718 429.38 92.6429 429.509 92.7699C429.638 92.8969 429.712 93.0695 429.714 93.2504Z" fill="white"/>
<path d="M432.253 93.2504C432.253 93.4313 432.182 93.6049 432.055 93.7338C431.928 93.8626 431.755 93.9363 431.574 93.9389C431.392 93.9363 431.219 93.863 431.09 93.7344C430.961 93.6058 430.888 93.4322 430.885 93.2504C430.888 93.0695 430.962 92.8969 431.091 92.7699C431.219 92.6429 431.393 92.5718 431.574 92.5718C431.754 92.5718 431.927 92.6433 432.054 92.7705C432.182 92.8978 432.253 93.0704 432.253 93.2504Z" fill="white"/>
<path d="M424.902 128.49H398.875C398.348 128.49 397.921 128.917 397.921 129.444V131.755C397.921 132.282 398.348 132.709 398.875 132.709H424.902C425.43 132.709 425.857 132.282 425.857 131.755V129.444C425.857 128.917 425.43 128.49 424.902 128.49Z" fill="#374C7F"/>
<path d="M424.902 127.988H398.875C398.348 127.988 397.921 128.415 397.921 128.942V131.254C397.921 131.78 398.348 132.208 398.875 132.208H424.902C425.43 132.208 425.857 131.78 425.857 131.254V128.942C425.857 128.415 425.43 127.988 424.902 127.988Z" fill="#1B5A96"/>
<path d="M412.484 113.059L413.025 114.16L414.236 114.327L413.36 115.183L413.567 116.393L412.484 115.822L411.392 116.393L411.608 115.183L410.723 114.327L411.933 114.16L412.484 113.059Z" fill="#FB9100"/>
<path d="M416.322 113.059L416.863 114.16L418.073 114.327L417.198 115.183L417.404 116.393L416.322 115.822L415.239 116.393L415.446 115.183L414.57 114.327L415.781 114.16L416.322 113.059Z" fill="#FB9100"/>
<path d="M420.16 113.059L420.701 114.16L421.911 114.327L421.035 115.183L421.242 116.393L420.16 115.822L419.077 116.393L419.284 115.183L418.408 114.327L419.618 114.16L420.16 113.059Z" fill="#FB9100"/>
<path d="M423.997 113.059L424.538 114.16L425.759 114.327L424.873 115.183L425.089 116.393L423.997 115.822L422.925 116.393L423.131 115.183L422.246 114.327L423.456 114.16L423.997 113.059Z" fill="#FB9100"/>
<path d="M427.845 113.059L428.386 114.16L429.596 114.327L428.721 115.183L428.927 116.393L427.845 115.822L426.762 116.393L426.969 115.183L426.093 114.327L427.304 114.16L427.845 113.059Z" fill="#FB9100"/>
<path d="M428.77 120.288H396.435C395.783 120.288 395.254 120.816 395.254 121.468V124.35C395.254 125.001 395.783 125.53 396.435 125.53H428.77C429.422 125.53 429.951 125.001 429.951 124.35V121.468C429.951 120.816 429.422 120.288 428.77 120.288Z" fill="#FB9100"/>
<path d="M420.474 121.281H419.854V124.546H420.474V121.281Z" fill="#1B5A96"/>
<path d="M421.793 122.599H418.526V123.218H421.793V122.599Z" fill="#1B5A96"/>
<path d="M419.201 121.514L418.763 121.952L421.073 124.261L421.511 123.822L419.201 121.514Z" fill="#1B5A96"/>
<path d="M421.11 121.563L418.8 123.872L419.238 124.31L421.548 122.001L421.11 121.563Z" fill="#1B5A96"/>
<path d="M415.249 121.281H414.629V124.546H415.249V121.281Z" fill="#1B5A96"/>
<path d="M416.568 122.599H413.301V123.218H416.568V122.599Z" fill="#1B5A96"/>
<path d="M413.988 121.511L413.55 121.949L415.86 124.258L416.298 123.82L413.988 121.511Z" fill="#1B5A96"/>
<path d="M415.88 121.538L413.57 123.847L414.008 124.285L416.318 121.976L415.88 121.538Z" fill="#1B5A96"/>
<path d="M410.024 121.281H409.404V124.546H410.024V121.281Z" fill="#1B5A96"/>
<path d="M411.353 122.599H408.086V123.218H411.353V122.599Z" fill="#1B5A96"/>
<path d="M408.778 121.536L408.34 121.974L410.65 124.283L411.089 123.844L408.778 121.536Z" fill="#1B5A96"/>
<path d="M410.67 121.572L408.36 123.881L408.798 124.319L411.108 122.01L410.67 121.572Z" fill="#1B5A96"/>
<path d="M404.799 121.281H404.179V124.546H404.799V121.281Z" fill="#1B5A96"/>
<path d="M406.128 122.599H402.861V123.218H406.128V122.599Z" fill="#1B5A96"/>
<path d="M403.539 121.511L403.1 121.949L405.41 124.258L405.849 123.82L403.539 121.511Z" fill="#1B5A96"/>
<path d="M405.447 121.56L403.137 123.869L403.575 124.307L405.885 121.998L405.447 121.56Z" fill="#1B5A96"/>
<path d="M358.481 83.5726C358.481 83.7982 358.414 84.0188 358.289 84.2064C358.164 84.394 357.985 84.5403 357.777 84.6266C357.568 84.713 357.339 84.7356 357.117 84.6915C356.896 84.6475 356.692 84.5389 356.533 84.3793C356.373 84.2197 356.264 84.0165 356.22 83.7951C356.176 83.5738 356.199 83.3444 356.285 83.136C356.372 82.9275 356.518 82.7493 356.706 82.624C356.894 82.4986 357.114 82.4317 357.34 82.4317C357.49 82.4304 357.639 82.459 357.778 82.5159C357.917 82.5727 358.044 82.6567 358.15 82.7629C358.256 82.8691 358.34 82.9954 358.397 83.1344C358.454 83.2734 358.483 83.4224 358.481 83.5726Z" fill="#1B5A96"/>
<path d="M363.037 83.5726C363.036 83.7958 362.968 84.0135 362.842 84.1982C362.716 84.383 362.539 84.5264 362.332 84.6105C362.125 84.6946 361.898 84.7156 361.679 84.6708C361.46 84.6261 361.26 84.5176 361.102 84.359C360.945 84.2005 360.838 83.9989 360.795 83.7798C360.752 83.5607 360.775 83.3338 360.861 83.1277C360.947 82.9216 361.092 82.7455 361.278 82.6216C361.464 82.4978 361.682 82.4317 361.906 82.4317C362.056 82.4303 362.204 82.459 362.343 82.516C362.481 82.573 362.607 82.6571 362.713 82.7635C362.818 82.8698 362.901 82.9962 362.957 83.1352C363.013 83.2741 363.04 83.4229 363.037 83.5726Z" fill="#C66A05"/>
<path d="M367.603 83.5727C367.603 83.7971 367.537 84.0165 367.413 84.2034C367.289 84.3903 367.112 84.5365 366.905 84.6236C366.698 84.7108 366.47 84.735 366.25 84.6934C366.029 84.6517 365.826 84.5459 365.665 84.3893C365.504 84.2327 365.393 84.0322 365.346 83.8128C365.299 83.5935 365.317 83.3651 365.399 83.1562C365.481 82.9473 365.623 82.7671 365.806 82.6383C365.99 82.5095 366.208 82.4376 366.432 82.4318C366.585 82.4265 366.737 82.4522 366.88 82.5073C367.022 82.5623 367.152 82.6457 367.262 82.7523C367.371 82.8589 367.458 82.9866 367.516 83.1276C367.575 83.2686 367.605 83.42 367.603 83.5727Z" fill="#FFF6EB"/>
<path d="M395.254 100.165H429.951" stroke="#1B5A96" stroke-width="0.79" stroke-miterlimit="10" stroke-linecap="round"/>
<path d="M395.254 105.19H429.951" stroke="#1B5A96" stroke-width="0.79" stroke-miterlimit="10" stroke-linecap="round"/>
<path d="M395.254 110.207H429.951" stroke="#1B5A96" stroke-width="0.79" stroke-miterlimit="10" stroke-linecap="round"/>
<path d="M395.254 115.232H408.342" stroke="#1B5A96" stroke-width="0.79" stroke-miterlimit="10" stroke-linecap="round"/>
<path d="M379.411 123.159L373.734 122.382L368.056 123.159L361.758 117.396C360.913 116.616 360.238 115.67 359.776 114.617C359.314 113.565 359.074 112.428 359.072 111.278V106.931C359.074 104.647 359.983 102.457 361.599 100.842C363.215 99.2266 365.406 98.318 367.692 98.3154H379.775C382.061 98.318 384.252 99.2266 385.868 100.842C387.484 102.457 388.393 104.647 388.395 106.931V111.357C388.393 112.507 388.152 113.645 387.688 114.698C387.224 115.751 386.547 116.696 385.699 117.474L379.411 123.159ZM367.692 102.417C366.503 102.419 365.363 102.893 364.522 103.733C363.681 104.574 363.207 105.713 363.205 106.902V111.357C363.205 111.934 363.326 112.504 363.558 113.032C363.79 113.56 364.128 114.035 364.553 114.425L369.384 118.832L373.704 118.242L378.024 118.832L382.885 114.376C383.308 113.985 383.645 113.51 383.875 112.982C384.105 112.454 384.224 111.884 384.223 111.308V106.931C384.223 105.743 383.752 104.604 382.912 103.763C382.073 102.922 380.934 102.449 379.746 102.446L367.692 102.417Z" fill="#1B5A96"/>
<g opacity="0.53" style="mix-blend-mode:multiply">
<path d="M382.816 103.646C383.269 104.066 383.63 104.574 383.877 105.139C384.124 105.704 384.252 106.315 384.253 106.931V111.357C384.253 111.933 384.135 112.503 383.904 113.031C383.674 113.559 383.337 114.034 382.915 114.426L379.628 117.435L381.271 118.576L383.81 116.285C384.483 115.675 385.02 114.931 385.388 114.101C385.756 113.271 385.946 112.373 385.945 111.465V108.869C385.955 107.795 385.669 106.739 385.117 105.817C384.564 104.896 383.768 104.145 382.816 103.646Z" fill="#440000"/>
</g>
<path d="M373.734 112.458C371.622 112.457 369.56 113.096 367.82 114.291C366.079 115.485 364.741 117.179 363.984 119.148C363.226 121.118 363.083 123.271 363.575 125.323C364.067 127.376 365.169 129.231 366.737 130.644C368.936 131.635 371.321 132.148 373.734 132.148C376.146 132.148 378.531 131.635 380.73 130.644C382.298 129.231 383.401 127.376 383.892 125.323C384.384 123.271 384.241 121.118 383.484 119.148C382.726 117.179 381.388 115.485 379.648 114.291C377.907 113.096 375.845 112.457 373.734 112.458Z" fill="#1B5A96"/>
<path d="M383.977 124.93C379.256 126.635 374.189 127.162 369.217 126.464C367.253 126.186 365.328 125.681 363.48 124.959C363.56 125.369 363.665 125.773 363.795 126.169C365.504 126.735 367.254 127.166 369.03 127.457C370.496 127.732 371.988 127.841 373.478 127.782C376.927 127.696 380.348 127.133 383.643 126.11C383.78 125.724 383.891 125.33 383.977 124.93Z" fill="#DEF6F8"/>
<path opacity="0.31" d="M378.742 113.727C376.566 112.547 374.042 112.175 371.618 112.678C369.193 113.18 367.025 114.524 365.497 116.471C366.481 118.35 369.807 119.078 373.232 118.074C376.046 117.258 378.152 115.507 378.742 113.727Z" fill="#9BABB8"/>
<g opacity="0.53" style="mix-blend-mode:multiply">
<path d="M374.196 132.139C376.452 132.082 378.674 131.573 380.73 130.644C381.815 129.665 382.682 128.469 383.275 127.134C383.868 125.799 384.175 124.354 384.174 122.894C384.174 122.776 384.174 122.658 384.174 122.54C381.488 123.159 375.436 125.343 374.196 132.139Z" fill="#440000"/>
</g>
<path d="M252.572 56.4961H153.501C150.99 56.4961 148.955 58.5304 148.955 61.04V122.087C148.955 124.597 150.99 126.631 153.501 126.631H252.572C255.083 126.631 257.118 124.597 257.118 122.087V61.04C257.118 58.5304 255.083 56.4961 252.572 56.4961Z" fill="#FB9100"/>
<path d="M256.616 52.3853H155.626C153.279 52.3853 151.375 54.2875 151.375 56.6341V119.137C151.375 121.483 153.279 123.386 155.626 123.386H256.616C258.964 123.386 260.867 121.483 260.867 119.137V56.6341C260.867 54.2875 258.964 52.3853 256.616 52.3853Z" fill="#1B5A96"/>
<path d="M255.917 121.458H156.187C155.823 121.459 155.463 121.389 155.126 121.25C154.789 121.112 154.484 120.909 154.226 120.652C153.968 120.395 153.763 120.09 153.624 119.754C153.484 119.418 153.412 119.058 153.412 118.694V61.1975C153.412 60.621 153.641 60.0682 154.049 59.6606C154.457 59.2529 155.01 59.0239 155.587 59.0239H256.518C256.803 59.0239 257.085 59.0802 257.348 59.1896C257.612 59.2989 257.851 59.4592 258.052 59.6611C258.253 59.8631 258.412 60.1028 258.52 60.3665C258.629 60.6301 258.684 60.9125 258.682 61.1975V118.714C258.677 119.443 258.384 120.141 257.866 120.655C257.348 121.169 256.647 121.458 255.917 121.458Z" fill="#FFF6EB"/>
<path d="M252.04 60.7354H160.527C159.157 60.7354 157.843 61.2794 156.874 62.2477C155.905 63.216 155.361 64.5294 155.361 65.8988V66.007C155.361 67.3765 155.905 68.6898 156.874 69.6581C157.843 70.6265 159.157 71.1705 160.527 71.1705H252.04C253.41 71.1705 254.724 70.6265 255.693 69.6581C256.662 68.6898 257.206 67.3765 257.206 66.007V65.8988C257.206 64.5294 256.662 63.216 255.693 62.2477C254.724 61.2794 253.41 60.7354 252.04 60.7354ZM238.648 66.725C238.648 66.9858 238.544 67.236 238.36 67.4204C238.175 67.6049 237.925 67.7085 237.664 67.7085H176.842C176.581 67.7085 176.331 67.6049 176.146 67.4204C175.961 67.236 175.858 66.9858 175.858 66.725V64.7579C175.858 64.4971 175.961 64.2469 176.146 64.0625C176.331 63.878 176.581 63.7744 176.842 63.7744H237.644C237.905 63.7744 238.155 63.878 238.34 64.0625C238.525 64.2469 238.628 64.4971 238.628 64.7579L238.648 66.725Z" fill="#FB9100"/>
<path d="M178.151 63.7549H159.956C159.445 63.7549 159.031 64.1688 159.031 64.6794V66.8038C159.031 67.3144 159.445 67.7283 159.956 67.7283H178.151C178.661 67.7283 179.076 67.3144 179.076 66.8038V64.6794C179.076 64.1688 178.661 63.7549 178.151 63.7549Z" fill="#DEF6F8"/>
<path d="M181.29 65.7412H201.924" stroke="#1B5A96" stroke-width="0.49" stroke-miterlimit="10"/>
<path d="M161.757 65.7412H175.848" stroke="#1B5A96" stroke-width="0.49" stroke-miterlimit="10"/>
<path d="M237.644 63.7549H231.465V67.689H237.644C237.905 67.689 238.155 67.5853 238.34 67.4009C238.525 67.2164 238.628 66.9663 238.628 66.7054V64.7384C238.628 64.4776 238.525 64.2274 238.34 64.043C238.155 63.8585 237.905 63.7549 237.644 63.7549Z" fill="#1B5A96"/>
<path d="M234.249 66.4005C234.825 66.4005 235.292 65.9337 235.292 65.358C235.292 64.7822 234.825 64.3154 234.249 64.3154C233.673 64.3154 233.206 64.7822 233.206 65.358C233.206 65.9337 233.673 66.4005 234.249 66.4005Z" stroke="white" stroke-width="0.33" stroke-miterlimit="10"/>
<path d="M235.056 66.0166L236.168 67.128" stroke="white" stroke-width="0.33" stroke-miterlimit="10"/>
<path d="M243.627 62.9976H245.969L247.091 66.3022H251.893L252.404 63.686" stroke="white" stroke-width="0.73" stroke-miterlimit="10" stroke-linecap="round"/>
<path d="M249.393 64.8759C249.948 64.8759 250.397 64.3695 250.397 63.7448C250.397 63.1202 249.948 62.6138 249.393 62.6138C248.839 62.6138 248.39 63.1202 248.39 63.7448C248.39 64.3695 248.839 64.8759 249.393 64.8759Z" fill="#1B5A96"/>
<path d="M248.508 68.1609C248.508 68.3321 248.457 68.4994 248.362 68.6418C248.267 68.7841 248.131 68.895 247.973 68.9605C247.815 69.026 247.641 69.0432 247.473 69.0098C247.305 68.9764 247.151 68.894 247.03 68.7729C246.908 68.6519 246.826 68.4976 246.793 68.3298C246.759 68.1619 246.776 67.9878 246.842 67.8297C246.907 67.6716 247.018 67.5364 247.161 67.4413C247.303 67.3462 247.471 67.2954 247.642 67.2954C247.871 67.2954 248.092 67.3866 248.254 67.5489C248.417 67.7112 248.508 67.9314 248.508 68.1609Z" fill="white"/>
<path d="M251.726 68.1609C251.726 68.3905 251.634 68.6106 251.472 68.7729C251.31 68.9352 251.089 69.0264 250.86 69.0264C250.63 69.0264 250.41 68.9352 250.247 68.7729C250.085 68.6106 249.994 68.3905 249.994 68.1609C249.994 67.9314 250.085 67.7112 250.247 67.5489C250.41 67.3866 250.63 67.2954 250.86 67.2954C251.089 67.2954 251.31 67.3866 251.472 67.5489C251.634 67.7112 251.726 67.9314 251.726 68.1609Z" fill="white"/>
<path d="M242.427 112.803H209.432C208.769 112.803 208.232 113.34 208.232 114.003V116.953C208.232 117.616 208.769 118.153 209.432 118.153H242.427C243.09 118.153 243.627 117.616 243.627 116.953V114.003C243.627 113.34 243.09 112.803 242.427 112.803Z" fill="#1B5A96"/>
<path d="M242.427 112.164H209.432C208.769 112.164 208.232 112.701 208.232 113.363V116.314C208.232 116.977 208.769 117.514 209.432 117.514H242.427C243.09 117.514 243.627 116.977 243.627 116.314V113.363C243.627 112.701 243.09 112.164 242.427 112.164Z" fill="#FB9100"/>
<path d="M226.672 93.2603L227.361 94.647L228.896 94.8634L227.784 95.9453L228.05 97.4795L226.672 96.7517L225.305 97.4795L225.56 95.9453L224.458 94.8634L225.984 94.647L226.672 93.2603Z" fill="#FB9100"/>
<path d="M231.543 93.2603L232.222 94.647L233.757 94.8634L232.655 95.9453L232.911 97.4795L231.543 96.7517L230.166 97.4795L230.431 95.9453L229.319 94.8634L230.855 94.647L231.543 93.2603Z" fill="#FB9100"/>
<path d="M236.404 93.2603L237.093 94.647L238.628 94.8634L237.516 95.9453L237.772 97.4795L236.404 96.7517L235.037 97.4795L235.292 95.9453L234.19 94.8634L235.716 94.647L236.404 93.2603Z" fill="#FB9100"/>
<path d="M241.275 93.2603L241.954 94.647L243.489 94.8634L242.377 95.9453L242.643 97.4795L241.275 96.7517L239.898 97.4795L240.163 95.9453L239.051 94.8634L240.586 94.647L241.275 93.2603Z" fill="#FB9100"/>
<path d="M246.136 93.2603L246.825 94.647L248.36 94.8634L247.248 95.9453L247.514 97.4795L246.136 96.7517L244.768 97.4795L245.024 95.9453L243.912 94.8634L245.447 94.647L246.136 93.2603Z" fill="#FB9100"/>
<path d="M247.307 102.417H206.353C205.526 102.417 204.857 103.086 204.857 103.912V107.571C204.857 108.396 205.526 109.066 206.353 109.066H247.307C248.133 109.066 248.803 108.396 248.803 107.571V103.912C248.803 103.086 248.133 102.417 247.307 102.417Z" fill="#1B5A96"/>
<path d="M236.798 103.666H236.011V107.807H236.798V103.666Z" fill="#FB9100"/>
<path d="M238.481 105.348H234.338V106.134H238.481V105.348Z" fill="#FB9100"/>
<path d="M235.214 103.994L234.658 104.55L237.587 107.478L238.144 106.922L235.214 103.994Z" fill="#FB9100"/>
<path d="M237.587 104.001L234.658 106.929L235.214 107.486L238.144 104.558L237.587 104.001Z" fill="#FB9100"/>
<path d="M230.185 103.666H229.398V107.807H230.185V103.666Z" fill="#FB9100"/>
<path d="M231.858 105.348H227.715V106.134H231.858V105.348Z" fill="#FB9100"/>
<path d="M228.61 104.006L228.053 104.562L230.982 107.49L231.539 106.934L228.61 104.006Z" fill="#FB9100"/>
<path d="M230.973 103.983L228.043 106.911L228.6 107.467L231.529 104.54L230.973 103.983Z" fill="#FB9100"/>
<path d="M223.573 103.666H222.786V107.807H223.573V103.666Z" fill="#FB9100"/>
<path d="M225.246 105.348H221.103V106.134H225.246V105.348Z" fill="#FB9100"/>
<path d="M221.989 103.995L221.432 104.551L224.361 107.479L224.918 106.923L221.989 103.995Z" fill="#FB9100"/>
<path d="M224.368 103.995L221.439 106.923L221.995 107.479L224.925 104.551L224.368 103.995Z" fill="#FB9100"/>
<path d="M216.95 103.666H216.163V107.807H216.95V103.666Z" fill="#FB9100"/>
<path d="M218.633 105.348H214.49V106.134H218.633V105.348Z" fill="#FB9100"/>
<path d="M215.374 104.006L214.818 104.562L217.747 107.49L218.303 106.934L215.374 104.006Z" fill="#FB9100"/>
<path d="M217.737 103.984L214.808 106.912L215.364 107.468L218.294 104.54L217.737 103.984Z" fill="#FB9100"/>
<path d="M189.811 113.295C193.37 108.962 193.636 103.301 190.405 100.651C187.175 98.001 181.672 99.3651 178.113 103.698C174.555 108.031 174.289 113.692 177.519 116.342C180.75 118.992 186.253 117.628 189.811 113.295Z" fill="#374C7F"/>
<path d="M189.803 113.285C193.361 108.952 193.954 103.559 191.127 101.24C188.3 98.9203 183.123 100.553 179.565 104.886C176.007 109.218 175.414 114.611 178.241 116.931C181.068 119.25 186.244 117.618 189.803 113.285Z" fill="#28355F"/>
<path d="M190.677 113.998C194.236 109.665 194.829 104.272 192.002 101.953C189.175 99.6337 183.998 101.266 180.44 105.599C176.881 109.932 176.289 115.325 179.116 117.644C181.943 119.963 187.119 118.331 190.677 113.998Z" fill="#374C7F"/>
<path d="M182.697 107.423C179.922 110.807 179.558 115.095 181.88 117.003C184.202 118.911 188.355 117.721 191.13 114.347C193.905 110.974 194.269 106.676 191.937 104.768C189.605 102.86 185.472 104.069 182.697 107.423Z" fill="#9BABB8"/>
<path d="M183.956 108.495C181.181 111.878 180.542 115.93 182.52 117.553C184.497 119.176 188.355 117.75 191.13 114.376C193.905 111.003 194.554 106.931 192.566 105.308C190.579 103.685 186.741 105.111 183.956 108.495Z" fill="#DEF6F8"/>
<path d="M186.279 103.823L190.825 102.633C190.825 102.633 196.375 87.202 186.229 77.3274C180.798 72.0558 177.373 73.8949 176.389 74.2883C175.405 74.6818 173.604 75.5472 173.604 75.5472C173.604 75.5472 177.088 74.8981 180.66 78.4191C183.149 80.8633 185.032 83.8553 186.158 87.1563C187.283 90.4573 187.621 93.9757 187.144 97.4306C186.288 102.928 186.279 103.823 186.279 103.823Z" fill="#28355F"/>
<path d="M186.83 89.5526C185.89 85.3265 183.752 81.4608 180.67 78.4191C177.098 74.8981 173.614 75.5472 173.614 75.5472C173.614 75.5472 175.445 74.6818 176.399 74.2883C177.354 73.8949 180.798 72.0558 186.239 77.3274C189.203 80.2369 191.184 83.9983 191.907 88.0871L186.83 89.5526Z" fill="#1B5A96"/>
<path d="M186.279 103.823C186.534 103.823 187.017 101.601 187.076 101.394C187.613 99.3666 187.917 97.2844 187.981 95.1881C188.074 92.38 187.661 89.5782 186.761 86.9167C185.595 83.6519 183.677 80.7072 181.162 78.3207C179.686 76.9044 178.101 75.4587 175.976 75.262C174.4 75.1562 172.841 75.636 171.597 76.6094C170.358 77.5672 169.385 78.827 168.773 80.2681C168.413 81.0942 168.149 81.9587 167.986 82.8449C167.843 83.822 167.771 84.808 167.769 85.7954L172.453 85.5201C172.453 85.5201 172.876 78.006 175.809 75.9111C178.131 76.4815 191.405 83.9858 185.649 103.922L186.279 103.823Z" fill="#44555F"/>
<path d="M175.809 75.8815C172.857 77.9764 172.453 85.4905 172.453 85.4905L167.769 85.7659L168.399 85.5003C169.098 75.6258 175.809 75.8815 175.809 75.8815Z" fill="#28355F"/>
<path d="M162.574 89.2477C159.021 93.585 158.588 99.0829 161.59 101.601C164.591 104.119 169.973 102.584 173.526 98.2666C177.078 93.9489 177.511 88.4314 174.51 85.9037C171.508 83.3761 166.136 84.9104 162.574 89.2477Z" fill="#1B5A96"/>
<path d="M174.485 99.0207C178.044 94.6877 178.47 89.1581 175.437 86.6699C172.404 84.1817 167.061 85.6771 163.502 90.01C159.944 94.3429 159.518 99.8726 162.551 102.361C165.584 104.849 170.927 103.354 174.485 99.0207Z" fill="#28355F"/>
<path d="M175.151 99.5634C178.709 95.2305 179.302 89.8378 176.475 87.5184C173.648 85.1991 168.472 86.8314 164.913 91.1643C161.355 95.4972 160.762 100.89 163.589 103.209C166.416 105.529 171.593 103.896 175.151 99.5634Z" fill="#1B5A96"/>
<path d="M167.533 93.3097C165.437 95.8668 165.083 99.0436 166.756 100.411C168.429 101.778 171.469 100.824 173.565 98.2666C175.661 95.7095 176.015 92.5327 174.352 91.1656C172.689 89.7985 169.629 90.7624 167.533 93.3097Z" fill="#28355F"/>
<path d="M173.053 97.8436C175.021 95.4242 175.454 92.4441 174.037 90.959C174.133 91.0189 174.225 91.0846 174.313 91.1557C175.976 92.5228 175.622 95.6995 173.526 98.2567C171.43 100.814 168.379 101.768 166.716 100.401C166.63 100.331 166.548 100.255 166.47 100.175C168.222 101.256 171.066 100.263 173.053 97.8436Z" fill="#9BABB8"/>
<path d="M185.954 109.99C184.429 111.859 183.986 114.022 184.97 114.849C185.954 115.675 188.02 114.849 189.546 112.96C191.071 111.072 191.514 108.918 190.53 108.102C189.546 107.285 187.479 108.131 185.954 109.99Z" fill="#C66A05"/>
<path d="M156.827 57.3323C157.62 57.3323 158.264 56.6894 158.264 55.8964C158.264 55.1033 157.62 54.4604 156.827 54.4604C156.033 54.4604 155.39 55.1033 155.39 55.8964C155.39 56.6894 156.033 57.3323 156.827 57.3323Z" fill="#FB9100"/>
<path d="M162.613 57.3323C163.406 57.3323 164.05 56.6894 164.05 55.8964C164.05 55.1033 163.406 54.4604 162.613 54.4604C161.819 54.4604 161.176 55.1033 161.176 55.8964C161.176 56.6894 161.819 57.3323 162.613 57.3323Z" fill="#C66A05"/>
<path d="M168.389 57.3323C169.183 57.3323 169.826 56.6894 169.826 55.8964C169.826 55.1033 169.183 54.4604 168.389 54.4604C167.596 54.4604 166.953 55.1033 166.953 55.8964C166.953 56.6894 167.596 57.3323 168.389 57.3323Z" fill="#FFF6EB"/>
<path d="M204.857 76.9141H248.803" stroke="#1B5A96" stroke-miterlimit="10" stroke-linecap="round"/>
<path d="M204.857 83.2773H248.803" stroke="#1B5A96" stroke-miterlimit="10" stroke-linecap="round"/>
<path d="M204.857 89.6411H248.803" stroke="#1B5A96" stroke-miterlimit="10" stroke-linecap="round"/>
<path d="M204.857 96.0044H221.428" stroke="#1B5A96" stroke-miterlimit="10" stroke-linecap="round"/>
<path d="M241.511 183.243H106.209C102.78 183.243 100 186.021 100 189.449V272.822C100 276.249 102.78 279.028 106.209 279.028H241.511C244.941 279.028 247.721 276.249 247.721 272.822V189.449C247.721 186.021 244.941 183.243 241.511 183.243Z" fill="#1B5A96"/>
<path d="M245.014 275.398H108.768C107.253 275.398 105.8 274.799 104.725 273.733C103.65 272.666 103.041 271.217 103.031 269.704V185.347C103.031 182.18 105.599 179.613 108.059 180.597H244.316C248.183 179.613 250.751 182.18 250.751 185.347V269.704C250.741 271.217 250.132 272.666 249.057 273.733C247.982 274.799 246.529 275.398 245.014 275.398Z" fill="#FB9100"/>
<path d="M244.08 272.802H109.525C109.034 272.802 108.548 272.705 108.094 272.517C107.641 272.329 107.228 272.054 106.881 271.707C106.534 271.36 106.259 270.948 106.071 270.495C105.883 270.041 105.786 269.555 105.786 269.064V191.465C105.786 190.682 106.097 189.932 106.651 189.378C107.204 188.825 107.955 188.514 108.738 188.514H244.887C245.669 188.514 246.42 188.825 246.974 189.378C247.528 189.932 247.839 190.682 247.839 191.465V269.064C247.839 269.557 247.741 270.044 247.552 270.499C247.363 270.954 247.086 271.367 246.736 271.714C246.387 272.061 245.973 272.336 245.517 272.523C245.061 272.71 244.572 272.804 244.08 272.802Z" fill="#FFF6EB"/>
<path d="M238.855 190.875H115.42C114.505 190.875 113.599 191.055 112.753 191.405C111.908 191.754 111.14 192.267 110.493 192.914C109.846 193.561 109.333 194.328 108.983 195.173C108.633 196.018 108.453 196.923 108.453 197.838V197.976C108.453 199.822 109.187 201.593 110.493 202.899C111.8 204.205 113.572 204.939 115.42 204.939H238.855C240.702 204.939 242.474 204.205 243.781 202.899C245.087 201.593 245.821 199.822 245.821 197.976V197.838C245.821 196.923 245.641 196.018 245.291 195.173C244.941 194.328 244.428 193.561 243.781 192.914C243.134 192.267 242.366 191.754 241.521 191.405C240.675 191.055 239.77 190.875 238.855 190.875ZM220.798 198.949C220.799 199.127 220.765 199.303 220.698 199.468C220.631 199.632 220.532 199.782 220.407 199.908C220.281 200.034 220.132 200.135 219.968 200.203C219.804 200.271 219.628 200.306 219.45 200.306H137.403C137.042 200.306 136.697 200.163 136.442 199.909C136.188 199.654 136.045 199.309 136.045 198.949V196.294C136.047 195.935 136.191 195.593 136.446 195.34C136.7 195.088 137.044 194.946 137.403 194.946H219.42C219.778 194.946 220.121 195.088 220.374 195.341C220.626 195.594 220.768 195.936 220.768 196.294L220.798 198.949Z" fill="#1B5A96"/>
<path d="M139.154 194.946H114.613C113.922 194.946 113.363 195.506 113.363 196.195V199.048C113.363 199.737 113.922 200.297 114.613 200.297H139.154C139.844 200.297 140.404 199.737 140.404 199.048V196.195C140.404 195.506 139.844 194.946 139.154 194.946Z" fill="#DEF6F8"/>
<path d="M143.395 197.622H171.233" stroke="#1B5A96" stroke-width="0.66" stroke-miterlimit="10"/>
<path d="M117.033 197.622H136.054" stroke="#1B5A96" stroke-width="0.66" stroke-miterlimit="10"/>
<path d="M219.42 194.956H211.095V200.316H219.42C219.598 200.316 219.774 200.281 219.938 200.213C220.103 200.144 220.252 200.044 220.377 199.918C220.502 199.792 220.601 199.642 220.669 199.478C220.736 199.313 220.77 199.137 220.768 198.959V196.313C220.77 196.136 220.736 195.959 220.669 195.795C220.601 195.63 220.502 195.48 220.377 195.354C220.252 195.228 220.103 195.128 219.938 195.06C219.774 194.991 219.598 194.956 219.42 194.956Z" fill="#FB9100"/>
<path d="M214.845 198.507C215.622 198.507 216.252 197.877 216.252 197.1C216.252 196.324 215.622 195.694 214.845 195.694C214.067 195.694 213.437 196.324 213.437 197.1C213.437 197.877 214.067 198.507 214.845 198.507Z" stroke="white" stroke-width="0.44" stroke-miterlimit="10"/>
<path d="M215.937 197.995L217.432 199.5" stroke="white" stroke-width="0.44" stroke-miterlimit="10"/>
<path d="M227.489 193.914H230.648L232.173 198.379H238.648L239.347 194.858" stroke="white" stroke-width="0.99" stroke-miterlimit="10" stroke-linecap="round"/>
<path d="M235.273 196.461C236.023 196.461 236.631 195.778 236.631 194.937C236.631 194.095 236.023 193.412 235.273 193.412C234.523 193.412 233.915 194.095 233.915 194.937C233.915 195.778 234.523 196.461 235.273 196.461Z" fill="#FB9100"/>
<path d="M232.911 202.057C233.558 202.057 234.082 201.533 234.082 200.887C234.082 200.24 233.558 199.716 232.911 199.716C232.264 199.716 231.74 200.24 231.74 200.887C231.74 201.533 232.264 202.057 232.911 202.057Z" fill="white"/>
<path d="M237.26 202.057C237.907 202.057 238.431 201.533 238.431 200.887C238.431 200.24 237.907 199.716 237.26 199.716C236.614 199.716 236.089 200.24 236.089 200.887C236.089 201.533 236.614 202.057 237.26 202.057Z" fill="white"/>
<path d="M225.866 261.108H181.358C180.462 261.108 179.735 261.834 179.735 262.731V266.704C179.735 267.6 180.462 268.327 181.358 268.327H225.866C226.762 268.327 227.489 267.6 227.489 266.704V262.731C227.489 261.834 226.762 261.108 225.866 261.108Z" fill="#374C7F"/>
<path d="M225.866 260.252H181.358C180.462 260.252 179.735 260.979 179.735 261.875V265.848C179.735 266.744 180.462 267.471 181.358 267.471H225.866C226.762 267.471 227.489 266.744 227.489 265.848V261.875C227.489 260.979 226.762 260.252 225.866 260.252Z" fill="#1B5A96"/>
<path d="M204.621 234.75L205.546 236.618L207.622 236.923L206.116 238.379L206.471 240.434L204.621 239.47L202.771 240.434L203.125 238.379L201.629 236.923L203.696 236.618L204.621 234.75Z" fill="#FB9100"/>
<path d="M211.184 234.75L212.109 236.618L214.185 236.923L212.69 238.379L213.044 240.434L211.184 239.47L209.334 240.434L209.688 238.379L208.193 236.923L210.259 236.618L211.184 234.75Z" fill="#FB9100"/>
<path d="M217.757 234.75L218.682 236.618L220.749 236.923L219.253 238.379L219.607 240.434L217.757 239.47L215.897 240.434L216.252 238.379L214.756 236.923L216.822 236.618L217.757 234.75Z" fill="#FB9100"/>
<path d="M224.321 234.75L225.246 236.618L227.312 236.923L225.816 238.379L226.171 240.434L224.321 239.47L222.461 240.434L222.815 238.379L221.319 236.923L223.396 236.618L224.321 234.75Z" fill="#FB9100"/>
<path d="M230.884 234.75L231.809 236.618L233.875 236.923L232.38 238.379L232.734 240.434L230.884 239.47L229.034 240.434L229.388 238.379L227.883 236.923L229.959 236.618L230.884 234.75Z" fill="#FB9100"/>
<path d="M232.468 247.103H177.206C176.092 247.103 175.189 248.005 175.189 249.119V254.046C175.189 255.16 176.092 256.062 177.206 256.062H232.468C233.582 256.062 234.486 255.16 234.486 254.046V249.119C234.486 248.005 233.582 247.103 232.468 247.103Z" fill="#FB9100"/>
<path d="M218.289 248.794H217.226V254.38H218.289V248.794Z" fill="#1B5A96"/>
<path d="M220.552 251.056H214.963V252.118H220.552V251.056Z" fill="#1B5A96"/>
<path d="M216.147 249.239L215.395 249.99L219.348 253.94L220.099 253.189L216.147 249.239Z" fill="#1B5A96"/>
<path d="M219.348 249.249L215.395 253.199L216.147 253.95L220.099 250L219.348 249.249Z" fill="#1B5A96"/>
<path d="M209.364 248.794H208.301V254.38H209.364V248.794Z" fill="#1B5A96"/>
<path d="M211.627 251.056H206.038V252.118H211.627V251.056Z" fill="#1B5A96"/>
<path d="M207.228 249.232L206.477 249.983L210.429 253.934L211.18 253.182L207.228 249.232Z" fill="#1B5A96"/>
<path d="M210.429 249.252L206.477 253.202L207.228 253.953L211.18 250.003L210.429 249.252Z" fill="#1B5A96"/>
<path d="M200.429 248.794H199.366V254.38H200.429V248.794Z" fill="#1B5A96"/>
<path d="M202.692 251.056H197.103V252.118H202.692V251.056Z" fill="#1B5A96"/>
<path d="M198.3 249.236L197.548 249.987L201.501 253.937L202.252 253.186L198.3 249.236Z" fill="#1B5A96"/>
<path d="M201.501 249.246L197.548 253.196L198.3 253.947L202.252 249.997L201.501 249.246Z" fill="#1B5A96"/>
<path d="M191.504 248.794H190.441V254.38H191.504V248.794Z" fill="#1B5A96"/>
<path d="M193.767 251.056H188.178V252.118H193.767V251.056Z" fill="#1B5A96"/>
<path d="M189.371 249.229L188.62 249.98L192.572 253.931L193.324 253.18L189.371 249.229Z" fill="#1B5A96"/>
<path d="M192.572 249.249L188.62 253.199L189.371 253.95L193.324 250L192.572 249.249Z" fill="#1B5A96"/>
<path d="M110.391 186.281C111.462 186.281 112.33 185.414 112.33 184.344C112.33 183.274 111.462 182.406 110.391 182.406C109.321 182.406 108.453 183.274 108.453 184.344C108.453 185.414 109.321 186.281 110.391 186.281Z" fill="#1B5A96"/>
<path d="M118.194 186.281C119.265 186.281 120.133 185.414 120.133 184.344C120.133 183.274 119.265 182.406 118.194 182.406C117.124 182.406 116.256 183.274 116.256 184.344C116.256 185.414 117.124 186.281 118.194 186.281Z" fill="#C66A05"/>
<path d="M125.988 186.281C127.058 186.281 127.926 185.414 127.926 184.344C127.926 183.274 127.058 182.406 125.988 182.406C124.917 182.406 124.049 183.274 124.049 184.344C124.049 185.414 124.917 186.281 125.988 186.281Z" fill="#FFF6EB"/>
<path d="M175.189 212.708H234.486" stroke="#1B5A96" stroke-width="1.34" stroke-miterlimit="10" stroke-linecap="round"/>
<path d="M175.189 221.285H234.486" stroke="#1B5A96" stroke-width="1.34" stroke-miterlimit="10" stroke-linecap="round"/>
<path d="M175.189 229.871H234.486" stroke="#1B5A96" stroke-width="1.34" stroke-miterlimit="10" stroke-linecap="round"/>
<path d="M175.189 238.457H197.555" stroke="#1B5A96" stroke-width="1.34" stroke-miterlimit="10" stroke-linecap="round"/>
<path d="M134.539 221.747L132.817 213.496L140.817 209.434L145.954 211.912L147.863 217.489V221.747L142.027 235.89H138.406L134.539 221.747Z" fill="#C66A05"/>
<path d="M130.495 217.066C130.495 217.066 118.893 220.302 116.797 224.295L110.706 238.379L122.317 242.185L124.226 238.566L124.03 265.396H156.778V237.248L158.874 240.985L170.101 238.035L164.01 223.38C164.01 223.38 159.474 217.676 149.988 217.105L144.31 221.669L140.374 233.471L137.235 221.669L136.487 221.787L130.465 217.105" fill="#FB9100"/>
<path d="M137.275 221.629L134.854 222.898L140.433 233.727L146.2 222.977L144.31 221.629L140.345 232.842L137.275 221.629Z" fill="white"/>
<path d="M153.176 232.084H144.989V233.353H153.176V232.084Z" fill="white"/>
<path d="M164.01 223.341C164.01 223.341 159.474 217.636 149.988 217.066L147.361 219.18C147.529 219.188 147.697 219.208 147.863 219.24C149.831 219.623 160.074 225.711 160.074 225.711L166.549 238.939L170.101 237.956L164.01 223.341Z" fill="#C66A05"/>
<path d="M130.495 217.066C130.495 217.066 118.893 220.302 116.797 224.295L110.706 238.379L115.725 240.021C116.777 237.454 118.499 233.205 121.363 226.173C123.036 225.19 130.81 222.8 135.926 221.256L130.495 217.066Z" fill="#C66A05"/>
<path d="M148.335 212.994C152.714 220.98 148.502 224.639 148.502 224.639L144.31 221.629C145.093 220.869 145.654 219.91 145.934 218.856C146.918 215.286 145.009 211.489 141.22 210.85C139.327 210.658 137.433 211.216 135.946 212.404C133.978 214.017 133.811 217.095 134.962 219.22C135.11 219.495 136.773 221.865 137.225 221.629L131.498 224.639C130.664 222.731 130.344 220.638 130.568 218.568C130.792 216.498 131.554 214.522 132.778 212.837C133.659 211.687 134.799 210.761 136.105 210.134C137.411 209.507 138.847 209.196 140.295 209.227C140.295 209.227 145.57 209.031 148.335 212.994Z" fill="white"/>
<path d="M425.542 238.831C425.542 238.831 447.958 184.226 469.203 199.126C476.78 205.096 427.825 242.145 427.825 242.145L425.542 238.831Z" fill="#04B5A4"/>
<path d="M461.4 201.497C461.4 201.497 435.313 223.822 428.425 234.297" stroke="white" stroke-width="0.48" stroke-miterlimit="10"/>
<path d="M442.831 218.403C442.831 218.403 444.681 215.138 444.435 208.765" stroke="white" stroke-width="0.48" stroke-miterlimit="10"/>
<path d="M434.329 237.12L452.878 199.412C437.872 208.903 425.582 238.831 425.582 238.831L427.55 241.782L429.675 240.798C430.807 239.864 432.361 238.625 434.329 237.12Z" fill="#7590AA"/>
<path d="M420.553 242.264C420.553 242.264 420.77 155.271 456.785 162.707C469.99 166.238 425.355 245.322 425.355 245.322L420.553 242.264Z" fill="#00887D"/>
<path d="M448.893 168.322C448.893 168.322 427.382 212.079 423.869 239.136" stroke="white" stroke-width="0.48" stroke-miterlimit="10"/>
<path d="M455.269 175.905C455.269 175.905 446.138 179.397 442.536 182.17" stroke="white" stroke-width="0.48" stroke-miterlimit="10"/>
<path d="M431.82 184.718C431.82 184.718 434.841 193.225 435.363 199.471" stroke="white" stroke-width="0.48" stroke-miterlimit="10"/>
<path d="M439.564 209.935C439.564 209.935 433.709 211.135 430.088 214.125" stroke="white" stroke-width="0.48" stroke-miterlimit="10"/>
<path d="M450.841 210.88C454.851 209.58 459.074 209.063 463.279 209.355" stroke="white" stroke-width="0.48" stroke-miterlimit="10"/>
<path d="M423.859 238.103C423.859 238.103 401.66 207.319 390.61 219.809C386.762 224.678 422.925 240.522 422.925 240.522L423.859 238.103Z" fill="#A4BDDA"/>
<path d="M395.844 220.125C395.844 220.125 415.525 230.176 421.35 235.703" stroke="white" stroke-width="0.31" stroke-miterlimit="10"/>
<path d="M409.985 227.914C408.689 226.226 407.846 224.236 407.535 222.131" stroke="white" stroke-width="0.31" stroke-miterlimit="10"/>
<path d="M418.132 238.339L400.873 217.577C411.697 221.275 423.85 238.143 423.85 238.143L423.023 240.267L421.547 239.952C420.72 239.539 419.569 238.998 418.132 238.339Z" fill="#7590AA"/>
<path d="M427.441 239.51C427.441 239.51 414.305 185.121 392.892 195.183C385.129 199.372 424.932 242.165 424.932 242.165L427.441 239.51Z" fill="#B4D1ED"/>
<path d="M398.688 197.513C398.688 197.513 418.703 221.649 424.952 238.064" stroke="white" stroke-width="0.31" stroke-miterlimit="10"/>
<path d="M395.844 203.208C395.844 203.208 402.073 204.024 404.701 205.175" stroke="white" stroke-width="0.31" stroke-miterlimit="10"/>
<path d="M411.825 205.205C411.488 208.451 411.488 211.724 411.825 214.971" stroke="white" stroke-width="0.31" stroke-miterlimit="10"/>
<path d="M410.762 222.141C413.005 222.081 415.237 222.486 417.316 223.331" stroke="white" stroke-width="0.31" stroke-miterlimit="10"/>
<path d="M403.825 224.462C401.122 224.249 398.403 224.556 395.815 225.367" stroke="white" stroke-width="0.31" stroke-miterlimit="10"/>
<path d="M439.19 237.69H408.765V291.508H439.19V237.69Z" fill="#FB9100"/>
<path d="M439.19 246.64H408.765V263.134H439.19V246.64Z" fill="#C66A05"/>
<path d="M381.114 249.05C381.114 249.05 363.579 206.345 346.968 217.99C341.064 222.662 379.323 251.636 379.323 251.636L381.114 249.05Z" fill="#00887D"/>
<path d="M353.069 219.888C353.069 219.888 373.478 237.346 378.821 245.538" stroke="white" stroke-width="0.38" stroke-miterlimit="10"/>
<path d="M367.593 233.107C367.593 233.107 366.147 230.55 366.334 225.573" stroke="white" stroke-width="0.38" stroke-miterlimit="10"/>
<path d="M374.304 247.742L359.8 218.236C371.539 225.662 381.153 249.07 381.153 249.07L379.579 251.351L377.916 250.545C376.991 249.886 375.751 248.922 374.304 247.742Z" fill="#7590AA"/>
<path d="M384.981 251.764C384.981 251.764 384.814 183.734 356.651 189.547C346.329 192.31 381.252 254.193 381.252 254.193L384.981 251.764Z" fill="#04B5A4"/>
<path d="M362.85 193.973C362.85 193.973 379.667 228.189 382.423 249.364" stroke="white" stroke-width="0.38" stroke-miterlimit="10"/>
<path d="M357.861 199.874C357.861 199.874 365.005 202.598 367.82 204.792" stroke="white" stroke-width="0.38" stroke-miterlimit="10"/>
<path d="M376.194 206.758C374.879 210.499 373.952 214.365 373.429 218.295" stroke="white" stroke-width="0.38" stroke-miterlimit="10"/>
<path d="M370.142 226.488C370.142 226.488 374.718 227.422 377.561 229.763" stroke="white" stroke-width="0.38" stroke-miterlimit="10"/>
<path d="M361.325 227.226C358.188 226.208 354.884 225.8 351.593 226.026" stroke="white" stroke-width="0.38" stroke-miterlimit="10"/>
<path d="M382.423 248.518C382.423 248.518 399.79 224.462 408.43 234.208C411.431 238.014 383.161 250.407 383.161 250.407L382.423 248.518Z" fill="#A4BDDA"/>
<path d="M404.337 234.454C404.337 234.454 388.956 242.322 384.391 246.64" stroke="white" stroke-width="0.24" stroke-miterlimit="10"/>
<path d="M393.276 240.552C394.285 239.23 394.942 237.673 395.185 236.028" stroke="white" stroke-width="0.24" stroke-miterlimit="10"/>
<path d="M386.91 248.696L400.391 232.428C391.948 235.32 382.423 248.519 382.423 248.519L383.072 250.181L384.223 249.925C384.883 249.63 385.798 249.217 386.91 248.696Z" fill="#7590AA"/>
<path d="M379.598 249.611C379.598 249.611 389.901 207.103 406.639 214.951C412.681 218.226 381.586 251.696 381.586 251.696L379.598 249.611Z" fill="#B4D1ED"/>
<path d="M402.103 216.771C402.103 216.771 386.457 235.644 381.566 248.479" stroke="white" stroke-width="0.24" stroke-miterlimit="10"/>
<path d="M404.337 221.226C401.971 221.516 399.641 222.039 397.38 222.79" stroke="white" stroke-width="0.24" stroke-miterlimit="10"/>
<path d="M391.84 222.79C392.1 225.327 392.1 227.885 391.84 230.422" stroke="white" stroke-width="0.24" stroke-miterlimit="10"/>
<path d="M392.666 236.028C390.908 236.002 389.163 236.337 387.539 237.011" stroke="white" stroke-width="0.24" stroke-miterlimit="10"/>
<path d="M398.068 237.808C400.184 237.638 402.312 237.879 404.337 238.516" stroke="white" stroke-width="0.24" stroke-miterlimit="10"/>
<path d="M394.231 248.194H370.437V290.289H394.231V248.194Z" fill="#C92D3C"/>
<path d="M394.231 255.187H370.437V268.081H394.231V255.187Z" fill="#FF4747"/>
<path d="M392.017 151.534H391.79C388.827 151.534 385.986 152.709 383.89 154.803C381.793 156.896 380.615 159.735 380.612 162.697V175.079H403.195V162.697C403.192 159.735 402.014 156.896 399.918 154.803C397.821 152.709 394.98 151.534 392.017 151.534Z" stroke="#CE7A2E" stroke-width="1.56" stroke-miterlimit="10"/>
<path d="M395.795 151.534H395.569C392.607 151.534 389.766 152.71 387.672 154.803C385.577 156.897 384.4 159.736 384.4 162.697V175.079H406.974V162.697C406.971 159.735 405.792 156.896 403.696 154.803C401.6 152.709 398.758 151.534 395.795 151.534Z" stroke="#CE7A2E" stroke-width="1.56" stroke-miterlimit="10"/>
<path d="M427.825 241.742H353.945V292H427.825V241.742Z" fill="#1B5A96"/>
<path d="M382.167 241.742H353.945V292H382.167V241.742Z" fill="#28355F"/>
<path d="M421.153 218.669H368.056V241.742H421.153V218.669Z" fill="#1B5A96"/>
<path d="M421.144 218.669H404.73V241.742H421.144V218.669Z" fill="#1B5A96"/>
<path d="M412.681 172.001H375.239L372.927 218.669H414.993L412.681 172.001Z" fill="#FB9100"/>
<g opacity="0.53" style="mix-blend-mode:multiply">
<path d="M368.046 241.742L404.73 232.458L421.153 241.742H368.046Z" fill="#440000"/>
</g>
<path d="M372.917 218.669C372.917 218.669 397.222 209.375 400.036 172.001H412.681L414.994 218.669H372.917Z" fill="#C66A05"/>
<path d="M289.649 167.84H279.278V186.537H289.649V167.84Z" fill="#C66A05"/>
<path d="M306.752 240.365L300.916 292H277.576C277.576 292 277.123 286.315 282.387 284.968C288.695 239.106 288.833 237.896 288.833 237.896L306.752 240.365Z" fill="#FF8076"/>
<path d="M293.615 276.47C293.615 276.47 293.261 280.404 297.738 280.719" stroke="#A50000" stroke-width="0.6" stroke-miterlimit="10"/>
<g opacity="0.42" style="mix-blend-mode:overlay">
<path d="M294.707 238.703L288.803 237.896C288.803 237.896 288.665 239.106 282.358 284.968C277.093 286.315 277.546 292 277.546 292H287.268L294.707 238.703Z" fill="white"/>
</g>
<path d="M331.795 238.919L333.084 292.029H309.645C309.4 290.569 309.67 289.069 310.41 287.786C311.149 286.504 312.312 285.518 313.699 284.997V238.919H331.795Z" fill="#FF8076"/>
<path d="M331.795 238.919H313.699V243.365C318.619 248.528 326.944 249.355 332.041 249.315L331.795 238.919Z" fill="#440000"/>
<g opacity="0.42" style="mix-blend-mode:overlay">
<path d="M322.476 238.919H313.699V284.968C312.312 285.488 311.149 286.474 310.41 287.757C309.67 289.04 309.4 290.54 309.645 292H321.266L322.476 238.919Z" fill="white"/>
</g>
<path d="M288.193 242.608C293.187 246.709 299.238 249.321 305.65 250.141L306.752 240.365L288.833 237.896C288.833 237.896 288.803 238.142 288.193 242.608Z" fill="#440000"/>
<path d="M287.927 279.795H287.711C286.37 279.795 285.083 280.327 284.135 281.275C283.186 282.223 282.653 283.509 282.653 284.85V284.968H293.015V284.85C293.015 284.183 292.883 283.524 292.627 282.908C292.371 282.293 291.996 281.735 291.523 281.265C291.05 280.795 290.489 280.423 289.872 280.171C289.255 279.919 288.594 279.791 287.927 279.795Z" fill="#28355F"/>
<path d="M277.576 292H300.916L301.713 284.968H282.387C277.123 286.315 277.576 292 277.576 292Z" fill="#1B5A96"/>
<path d="M313.295 176.967L308.562 244.201C308.562 244.201 299.706 247.427 286.697 241.191L298.653 175.286L313.295 176.967Z" fill="#1B5A96"/>
<path d="M302.885 245.027C304.791 245.034 306.689 244.755 308.513 244.201L316.68 176.073H309.566L302.885 245.027Z" fill="#28355F"/>
<path d="M292.159 286.05C292.159 286.192 292.131 286.332 292.076 286.464C292.022 286.595 291.942 286.714 291.842 286.815C291.741 286.915 291.622 286.995 291.49 287.049C291.359 287.104 291.218 287.132 291.076 287.132H282.879C282.737 287.132 282.597 287.104 282.465 287.049C282.334 286.995 282.215 286.915 282.114 286.815C282.014 286.714 281.934 286.595 281.879 286.464C281.825 286.332 281.797 286.192 281.797 286.05C281.797 285.763 281.911 285.488 282.114 285.285C282.317 285.082 282.592 284.968 282.879 284.968H291.076C291.363 284.968 291.639 285.082 291.842 285.285C292.045 285.488 292.159 285.763 292.159 286.05Z" fill="white"/>
<path d="M309.645 292H333.084L332.907 284.968H313.699C312.312 285.488 311.149 286.474 310.41 287.757C309.67 289.04 309.4 290.54 309.645 292Z" fill="#1B5A96"/>
<path d="M324.061 286.05C324.061 286.335 323.948 286.609 323.747 286.811C323.546 287.014 323.273 287.129 322.988 287.132H314.781C314.495 287.129 314.221 287.014 314.019 286.812C313.816 286.609 313.701 286.336 313.699 286.05C313.699 285.908 313.727 285.767 313.781 285.636C313.836 285.504 313.915 285.385 314.016 285.285C314.116 285.184 314.236 285.105 314.367 285.05C314.498 284.996 314.639 284.968 314.781 284.968H322.988C323.13 284.968 323.27 284.996 323.401 285.05C323.531 285.105 323.65 285.185 323.75 285.285C323.85 285.386 323.928 285.505 323.982 285.636C324.035 285.768 324.062 285.908 324.061 286.05Z" fill="white"/>
<path d="M319.003 279.794H318.767C317.424 279.794 316.137 280.327 315.187 281.274C314.237 282.222 313.701 283.508 313.699 284.85V284.968H324.061V284.85C324.061 283.509 323.528 282.223 322.579 281.275C321.631 280.327 320.344 279.794 319.003 279.794Z" fill="#28355F"/>
<path d="M325.812 276.47C325.812 276.47 325.458 280.404 329.935 280.719" stroke="#A50000" stroke-width="0.6" stroke-miterlimit="10"/>
<path d="M329.581 175.286L334.058 242.529C334.058 242.529 325.773 246.925 311.987 242.529V194.72C311.987 194.72 306.732 185.868 307.598 178L308.179 173.083L329.581 175.286Z" fill="#1B5A96"/>
<path d="M328.597 244.063C330.486 243.812 332.327 243.278 334.058 242.48L329.581 175.286L325.812 174.902L328.597 244.063Z" fill="#28355F"/>
<path d="M325.812 174.853L318.038 174.057C318.245 178.453 319.514 188.249 326.471 191.229L325.812 174.853Z" fill="#28355F"/>
<path d="M330.073 182.643L329.581 175.237L308.178 173.043L307.795 176.328L298.653 175.286C298.653 175.286 308.976 184.619 330.073 182.643Z" fill="#072847"/>
<path d="M305.541 114.593C305.541 114.593 300.562 115.576 297.039 127.919C293.517 140.263 289.305 155.458 289.305 155.458C289.305 155.458 260.395 153.796 258.053 165.608H302.471L305.541 114.593Z" fill="#FF8076"/>
<path d="M293.556 140.223C296.869 141.483 300.345 142.264 303.878 142.544L305.541 114.593C305.541 114.593 300.562 115.576 297.039 127.919C295.898 131.922 294.678 136.23 293.556 140.223Z" fill="#C66A05"/>
<path d="M300.405 135.64L295.495 161.615H298.988L300.405 135.64Z" fill="#440000"/>
<path d="M324.543 110.708L337.335 122.648L329.581 175.286C329.581 175.286 310.963 182.033 298.653 175.286C299.529 141.01 299.037 134.096 305.541 114.642C317.792 110.462 318.609 110.708 318.609 110.708H324.543Z" fill="#FB9100"/>
<path d="M323.942 98.2466L324.543 110.708L316.365 122.648L315.047 112.901L315.854 105.505L321.473 98.0303L323.942 98.2466Z" fill="#FF8076"/>
<path d="M322.152 100.194L320.184 99.7515L315.854 105.505L315.037 112.901C321.099 108.879 322.152 100.194 322.152 100.194Z" fill="black"/>
<path d="M311.75 93.3489C311.75 93.3489 305.846 93.3489 304.862 88.805C304.498 87.1921 307.263 85.2152 309.615 87.3396C308.385 82.9433 309.714 81.8516 312.744 81.8516C315.775 81.8516 318.491 86.7692 318.57 86.9757C318.934 83.5334 321.935 83.317 322.506 87.9592C325.143 89.3558 326.983 89.7394 326.796 93.6735C326.609 97.6075 325.359 103.292 324.041 104.561C323.633 104.319 323.286 103.988 323.025 103.593C322.765 103.198 322.597 102.749 322.535 102.279L322.211 99.8008L321.069 97.2436L317.231 92.326L311.75 93.3489Z" fill="black"/>
<path d="M319.77 90.7521C319.77 90.7521 312.567 85.9623 311.751 81.9004C309.448 82.1659 308.552 83.474 309.635 87.3393C307.283 85.2148 304.518 87.1917 304.882 88.8047C305.866 93.3486 311.77 93.3486 311.77 93.3486L315.45 92.6601L319.77 90.7521Z" fill="black"/>
<path d="M310.688 92.4733C310.106 97.0655 309.754 101.684 309.635 106.311C309.63 106.962 309.792 107.603 310.107 108.173C310.422 108.742 310.878 109.221 311.432 109.563C311.986 109.905 312.618 110.099 313.269 110.125C313.919 110.152 314.566 110.01 315.145 109.714C318.698 107.865 321.738 104.797 322.545 97.9122L321.473 98.0105L321.758 91.1751C321.758 91.1751 316.68 89.8178 312.902 90.1916C312.328 90.263 311.796 90.5281 311.393 90.943C310.99 91.358 310.742 91.8978 310.688 92.4733Z" fill="#FF8076"/>
<path d="M321.473 98.0402L321.571 95.6011C321.571 95.6011 321.177 100.184 319.121 101.846C317.064 103.509 313.63 102.643 311.701 102.623C310.993 102.623 310.324 102.623 309.733 102.692C309.664 103.922 309.615 105.151 309.605 106.312C309.6 106.962 309.763 107.603 310.078 108.173C310.392 108.742 310.849 109.221 311.402 109.563C311.956 109.905 312.589 110.099 313.239 110.125C313.89 110.152 314.536 110.01 315.116 109.715C318.668 107.866 321.709 104.797 322.516 97.9123L321.473 98.0402Z" fill="black"/>
<path d="M317.231 98.3057C317.217 98.4126 317.162 98.5099 317.078 98.5775C316.993 98.6452 316.887 98.6781 316.779 98.6696C316.671 98.6781 316.564 98.6452 316.48 98.5775C316.396 98.5099 316.341 98.4126 316.326 98.3057V97.1255C316.339 97.0167 316.393 96.917 316.477 96.8474C316.562 96.7777 316.67 96.7434 316.779 96.7517C316.888 96.7434 316.996 96.7777 317.081 96.8474C317.165 96.917 317.219 97.0167 317.231 97.1255V98.3057Z" fill="#7A0000"/>
<path d="M311.75 99.0238C311.738 99.1318 311.684 99.2305 311.599 99.2987C311.514 99.3668 311.406 99.3988 311.298 99.3877C311.19 99.3988 311.082 99.3668 310.997 99.2987C310.912 99.2305 310.858 99.1318 310.845 99.0238V97.8633C310.86 97.7563 310.915 97.6591 310.999 97.5914C311.083 97.5238 311.19 97.4908 311.298 97.4994C311.406 97.4908 311.512 97.5238 311.597 97.5914C311.681 97.6591 311.736 97.7563 311.75 97.8633V99.0238Z" fill="#7A0000"/>
<path d="M313.128 98.2466L312.764 102.141H314.624" stroke="#BA4A4A" stroke-width="0.3" stroke-miterlimit="10"/>
<path d="M311.75 103.754H315.687C315.162 104.271 314.455 104.56 313.719 104.56C312.982 104.56 312.275 104.271 311.75 103.754Z" fill="white"/>
<path d="M325.773 133.781L322.545 158.074L334.747 161.615L325.773 133.781Z" fill="#440000"/>
<path d="M322.545 97.9417L323.057 94.9911C323.057 94.9911 327.308 93.5355 326.796 97.1253C326.353 99.6137 322.24 99.8104 322.24 99.8104L322.545 97.9417Z" fill="#FF8076"/>
<path d="M321.099 115.734L323.293 124.231L326.904 112.901L324.543 110.708L321.099 115.734Z" fill="#C66A05"/>
<path d="M315.667 117.474L311.75 121.291L313.374 112.026L315.204 111.485L315.047 112.901L315.667 117.474Z" fill="#C66A05"/>
<g opacity="0.42" style="mix-blend-mode:overlay">
<path d="M319.77 90.7524C317.528 90.2722 315.23 90.1001 312.941 90.2409C312.368 90.3019 311.832 90.5562 311.423 90.962C311.013 91.3678 310.754 91.9009 310.688 92.4735C310.105 97.0657 309.754 101.684 309.635 106.312C309.631 106.849 309.742 107.382 309.96 107.873C310.178 108.365 310.498 108.804 310.899 109.163C311.301 109.521 311.774 109.79 312.287 109.951C312.8 110.112 313.342 110.162 313.876 110.098C314.417 109.341 315.204 108.131 316.356 106.331C319.101 101.984 319.662 93.1128 319.77 90.7524Z" fill="white"/>
</g>
<path d="M315.037 95.1386C315.037 95.1386 316.661 93.6436 318.275 94.7157" stroke="#050000" stroke-width="1.19" stroke-miterlimit="10" stroke-linecap="round"/>
<path d="M312.046 95.1389C312.046 95.1389 310.668 94.5979 309.891 95.1389" stroke="#050000" stroke-width="1.19" stroke-miterlimit="10" stroke-linecap="round"/>
<path d="M322.447 98.6698L325.773 96.752" stroke="#020000" stroke-width="0.6" stroke-miterlimit="10"/>
<path d="M325.773 182.643L328.597 244.063" stroke="#80C8D4" stroke-width="0.6" stroke-miterlimit="10"/>
<path d="M308.552 186.537L302.894 245.017" stroke="#80C8D4" stroke-width="0.6" stroke-miterlimit="10"/>
<path d="M287.052 186.537H282.378V292H287.052V186.537Z" fill="#FB9100"/>
<path d="M289.649 170.063H279.278V173.044H289.649V170.063Z" fill="#E37427"/>
<path d="M302.894 289.689H265.718V292H302.894V289.689Z" fill="#C66A05"/>
<path d="M322.24 165.618H246.914V170.063H322.24V165.618Z" fill="#FB9100"/>
<path d="M299.952 161.615H269.487V165.618H299.952V161.615Z" fill="#28355F"/>
<path d="M269.487 161.615H247.888V165.618H269.487V161.615Z" fill="#28355F"/>
<path d="M249.216 133.24H227.617L249.216 161.615H270.825L249.216 133.24Z" fill="#374C7F"/>
<path d="M247.888 133.24H226.289L247.888 161.615H269.487L247.888 133.24Z" fill="#28355F"/>
<path d="M303.79 165.618L313.246 170.063H320.784L309.33 165.618H303.79Z" fill="#E37427"/>
<path d="M248.449 146.764C250.515 147.649 251.775 149.36 251.253 150.58C250.732 151.799 248.626 152.075 246.559 151.199C244.493 150.324 243.224 148.603 243.745 147.383C244.267 146.164 246.382 145.888 248.449 146.764Z" fill="#DEF6F8"/>
<path d="M279.278 162.588H272.301V164.506H279.278V162.588Z" fill="#FB9100"/>
<path d="M288.203 162.588H281.226V164.506H288.203V162.588Z" fill="#FB9100"/>
<path d="M337.345 122.648C337.345 122.648 339.844 126.749 340.228 137.106C340.464 143.174 340.425 156.255 340.346 166.051C340.331 167.419 339.986 168.763 339.341 169.969C338.696 171.175 337.769 172.209 336.639 172.981C335.509 173.753 334.21 174.241 332.851 174.405C331.492 174.568 330.114 174.401 328.833 173.919L299.942 161.615H289.305C289.305 161.615 287.071 158.979 294.304 157.219C297.226 156.528 300.182 155.993 303.16 155.616C306.543 155.185 309.974 155.338 313.305 156.068L325.763 158.782V133.781C325.763 133.781 325.871 124.605 337.345 122.648Z" fill="#FF8076"/>
<path d="M340.228 137.106C339.844 126.749 337.345 122.648 337.345 122.648C325.871 124.615 325.773 133.781 325.773 133.781V148.642C330.699 148.635 335.606 148.028 340.385 146.833C340.366 142.928 340.316 139.476 340.228 137.106Z" fill="#C66A05"/>
<path d="M325.773 158.782L331.795 160.248" stroke="#A50000" stroke-width="0.6" stroke-miterlimit="10" stroke-linecap="round"/>
<path opacity="0.49" d="M328.833 173.948C330.086 174.42 331.432 174.591 332.763 174.445C334.094 174.299 335.372 173.842 336.493 173.109C337.613 172.377 338.546 171.391 339.213 170.231C339.881 169.072 340.266 167.771 340.336 166.434C339.05 165.865 337.648 165.607 336.244 165.679C334.839 165.751 333.471 166.152 332.25 166.85C331.029 167.548 329.989 168.522 329.215 169.696C328.44 170.869 327.952 172.208 327.79 173.604L328.833 173.948Z" fill="#B0322F"/>
<path d="M289.679 159.294C289.679 159.294 296.567 157.327 299.982 157.661" stroke="#A50000" stroke-width="0.6" stroke-miterlimit="10" stroke-linecap="round"/>
<path d="M167.179 51.7264C167.169 51.6499 167.132 51.5796 167.074 51.5288C167.016 51.4781 166.941 51.4504 166.864 51.451L164 51.2444C164 51.2444 162.101 49.3462 161.865 49.1495C161.629 48.9528 161.265 49.0118 161.098 49.0512L160.025 49.3856C159.385 47.5267 158.273 45.8351 156.286 45.8351H156.099C155.892 45.5316 155.619 45.2792 155.3 45.0968C154.981 44.9145 154.625 44.8071 154.259 44.7827C149.653 44.7827 147.439 50.5363 146.751 53.4574C144.95 54.0278 143.68 54.4409 143.533 54.4409C142.549 54.7556 142.549 54.7753 142.382 55.7194C142.273 56.4276 139.666 76.6389 139.666 76.6389L160.005 80.4451L171.046 78.065C171.046 78.065 167.198 51.9132 167.179 51.7264ZM158.903 49.6806C158.401 49.8183 157.791 50.015 157.181 50.2216V49.8478C157.21 48.9029 157.07 47.9603 156.768 47.0645C157.811 47.1923 158.46 48.3431 158.903 49.6806ZM155.489 47.2907C155.827 48.284 155.984 49.3301 155.951 50.3789V50.5855C154.82 50.9395 153.629 51.2936 152.399 51.6969C153.088 49.061 154.367 47.7628 155.489 47.2809V47.2907ZM154.15 46.0023C154.364 46.0051 154.572 46.0776 154.741 46.2088C153.255 46.8973 151.69 48.6283 151.041 52.1099C150.057 52.4247 149.073 52.7 148.217 52.9951C148.965 50.3789 150.854 46.0023 154.15 46.0023Z" fill="#95BF47"/>
<path d="M166.864 51.4117L164 51.2052C164 51.2052 162.101 49.2971 161.865 49.1103C161.795 49.0372 161.7 48.9918 161.599 48.9824L160.074 80.455L171.115 78.0749C171.115 78.0749 167.248 51.9035 167.228 51.7166C167.192 51.643 167.141 51.5778 167.079 51.5252C167.016 51.4727 166.943 51.434 166.864 51.4117Z" fill="#5E8E3E"/>
<path d="M156.286 57.5096L154.947 61.5518C154.12 61.1426 153.213 60.921 152.291 60.9027C150.136 60.9027 150.037 62.26 150.037 62.5944C150.037 64.4335 154.839 65.1417 154.839 69.479C154.839 72.882 152.694 75.0851 149.781 75.0851C148.8 75.1152 147.823 74.937 146.916 74.5623C146.009 74.1877 145.191 73.625 144.517 72.9115L145.501 69.8134C145.501 69.8134 147.341 71.4067 148.896 71.4067C149.076 71.4093 149.255 71.3762 149.423 71.3093C149.59 71.2423 149.743 71.1429 149.872 71.0168C150.001 70.8906 150.104 70.7402 150.174 70.5742C150.245 70.4081 150.282 70.2298 150.283 70.0494C150.283 67.6497 146.347 67.5415 146.347 63.5779C146.347 60.2536 148.728 57.0276 153.56 57.0276C154.495 56.9569 155.432 57.1226 156.286 57.5096Z" fill="white"/>
<path d="M159.257 146.154C159.25 146.11 159.228 146.069 159.193 146.04C159.159 146.012 159.115 145.996 159.07 145.997L157.417 145.878C157.417 145.878 156.315 144.777 156.177 144.669C156.115 144.622 156.041 144.593 155.964 144.582C155.886 144.572 155.807 144.581 155.735 144.61L155.115 144.797C154.741 143.725 154.131 142.741 152.95 142.741H152.842C152.72 142.568 152.562 142.425 152.378 142.321C152.194 142.217 151.99 142.156 151.779 142.141C149.122 142.141 147.843 145.465 147.439 147.157C146.396 147.482 145.658 147.698 145.58 147.737C144.999 147.914 144.989 147.934 144.91 148.475C144.832 149.016 143.336 160.572 143.336 160.572L155.144 162.775L161.531 161.389C161.531 161.389 159.267 146.262 159.257 146.154ZM154.465 144.964L153.481 145.279V145.062C153.497 144.518 153.417 143.975 153.245 143.459C153.845 143.528 154.229 144.197 154.475 144.964H154.465ZM152.497 143.587C152.692 144.163 152.782 144.769 152.763 145.377V145.505C152.104 145.701 151.415 145.908 150.706 146.144C150.795 145.611 151.002 145.105 151.312 144.663C151.622 144.22 152.027 143.853 152.497 143.587ZM151.72 142.839C151.841 142.842 151.958 142.884 152.054 142.957C151.198 143.361 150.293 144.364 149.919 146.39L148.286 146.901C148.719 145.357 149.811 142.83 151.72 142.83V142.839Z" fill="#95BF47"/>
<path d="M159.071 145.967L157.417 145.849C157.417 145.849 156.315 144.747 156.178 144.639C156.159 144.618 156.136 144.601 156.111 144.59C156.085 144.578 156.058 144.571 156.03 144.57L155.144 162.775L161.531 161.388C161.531 161.388 159.287 146.262 159.277 146.154C159.258 146.11 159.229 146.071 159.194 146.039C159.158 146.006 159.116 145.982 159.071 145.967Z" fill="#5E8E3E"/>
<path d="M152.95 149.498L152.182 151.829C151.704 151.594 151.18 151.467 150.647 151.455C149.398 151.455 149.339 152.242 149.339 152.438C149.339 153.501 152.123 153.914 152.123 156.373C152.165 156.784 152.119 157.2 151.989 157.592C151.86 157.985 151.649 158.346 151.37 158.652C151.092 158.958 150.753 159.203 150.374 159.369C149.995 159.535 149.585 159.62 149.171 159.618C148.604 159.635 148.04 159.531 147.516 159.314C146.992 159.097 146.52 158.772 146.131 158.359L146.672 156.569C147.227 157.056 147.91 157.373 148.64 157.484C148.748 157.489 148.856 157.473 148.957 157.435C149.058 157.397 149.151 157.339 149.229 157.265C149.307 157.19 149.37 157.101 149.412 157.001C149.455 156.902 149.477 156.795 149.476 156.687C149.476 155.3 147.203 155.241 147.203 152.94C147.203 151.022 148.581 149.163 151.376 149.163C151.92 149.137 152.463 149.252 152.95 149.498Z" fill="white"/>
<path d="M168.94 153.884C168.301 153.55 167.956 153.245 167.956 152.852C167.956 152.458 168.409 152.016 169.127 152.016C169.668 152.027 170.203 152.14 170.702 152.35L171.282 150.58C170.637 150.237 169.904 150.093 169.176 150.167C166.982 150.167 165.467 151.426 165.467 153.186C165.51 153.684 165.686 154.161 165.977 154.567C166.268 154.974 166.663 155.295 167.12 155.497C167.897 155.92 168.163 156.235 168.163 156.687C168.163 157.14 167.769 157.553 167.061 157.553C166.343 157.522 165.641 157.334 165.004 157.002L164.384 158.782C165.135 159.21 165.99 159.425 166.854 159.402C169.098 159.402 170.731 158.291 170.731 156.294C170.676 155.769 170.48 155.268 170.165 154.845C169.85 154.421 169.427 154.089 168.94 153.884ZM177.914 150.137C177.4 150.142 176.894 150.265 176.434 150.497C175.975 150.729 175.576 151.063 175.267 151.475L176.251 146.449H173.742L171.302 159.235H173.801L174.638 154.858C174.962 153.206 175.828 152.173 176.606 152.173C177.167 152.173 177.383 152.557 177.383 153.157C177.391 153.53 177.354 153.903 177.275 154.268L176.34 159.284H178.839L179.823 154.111C179.938 153.57 180.001 153.02 180.01 152.468C180.01 151.022 179.262 150.176 177.944 150.176L177.914 150.137ZM185.639 150.137C182.618 150.137 180.62 152.861 180.62 155.891C180.586 156.355 180.651 156.821 180.811 157.257C180.971 157.694 181.223 158.092 181.548 158.424C181.874 158.757 182.267 159.016 182.701 159.184C183.135 159.353 183.6 159.427 184.064 159.402C187.017 159.402 188.985 156.756 188.985 153.648C189.026 153.191 188.968 152.731 188.817 152.297C188.666 151.864 188.424 151.468 188.107 151.136C187.79 150.803 187.406 150.542 186.981 150.37C186.555 150.198 186.098 150.118 185.639 150.137ZM184.389 157.494C183.523 157.494 183.179 156.766 183.179 155.842C183.179 154.406 183.917 152.075 185.285 152.075C186.16 152.075 186.465 152.852 186.465 153.589C186.465 155.124 185.708 157.523 184.389 157.523V157.494ZM195.43 150.137C194.902 150.166 194.389 150.317 193.929 150.578C193.47 150.839 193.077 151.203 192.783 151.642L192.93 150.294H190.707C190.598 151.209 190.392 152.596 190.195 153.619L188.463 162.795H190.972L191.671 159.087H191.73C192.183 159.32 192.688 159.432 193.196 159.412C196.148 159.412 198.067 156.392 198.067 153.343C198.047 151.681 197.28 150.137 195.45 150.137H195.43ZM193.029 157.514C192.651 157.518 192.284 157.385 191.996 157.14L192.399 154.809C192.694 153.235 193.521 152.212 194.367 152.212C195.213 152.212 195.351 152.92 195.351 153.589C195.351 155.202 194.367 157.523 192.99 157.523L193.029 157.514ZM201.609 146.547C201.419 146.547 201.23 146.585 201.054 146.658C200.878 146.732 200.718 146.839 200.583 146.974C200.449 147.11 200.342 147.27 200.27 147.447C200.198 147.623 200.162 147.812 200.163 148.003C200.149 148.166 200.17 148.33 200.224 148.484C200.278 148.639 200.364 148.78 200.476 148.899C200.589 149.018 200.725 149.112 200.876 149.174C201.027 149.237 201.19 149.267 201.354 149.262C201.548 149.27 201.741 149.238 201.922 149.168C202.103 149.098 202.268 148.991 202.405 148.854C202.543 148.718 202.651 148.554 202.722 148.374C202.794 148.193 202.827 148 202.82 147.806C202.832 147.644 202.81 147.48 202.756 147.326C202.701 147.173 202.615 147.032 202.503 146.913C202.391 146.795 202.255 146.701 202.105 146.638C201.954 146.575 201.792 146.544 201.629 146.547H201.609ZM198.165 159.235H200.675L202.367 150.334H199.848M208.753 150.334H207.012L207.09 149.921C207.238 149.065 207.75 148.318 208.596 148.318C208.867 148.319 209.136 148.362 209.393 148.445L209.875 146.478C209.44 146.309 208.974 146.236 208.507 146.262C207.616 146.242 206.746 146.534 206.047 147.088C205.251 147.84 204.739 148.844 204.601 149.931L204.532 150.344H203.351L202.977 152.242H204.07L202.731 159.254H205.241L206.569 152.242H208.301L208.665 150.334H208.753ZM214.785 150.334C214.785 150.334 213.211 154.268 212.522 156.451C212.522 155.753 211.912 150.334 211.912 150.334H209.275L210.79 158.477C210.823 158.619 210.798 158.767 210.721 158.89C210.396 159.496 209.93 160.015 209.364 160.405C208.923 160.705 208.443 160.944 207.937 161.113L208.635 163.247C209.55 162.995 210.391 162.526 211.086 161.88C212.469 160.434 213.582 158.752 214.372 156.914L217.432 150.324H214.815L214.785 150.334Z" fill="black"/>
</g>
</g>
<defs>
<clipPath id="clip0_118_267">
<rect width="570" height="324" fill="white"/>
</clipPath>
<clipPath id="clip1_118_267">
<rect width="370" height="259" fill="white" transform="translate(100 33)"/>
</clipPath>
</defs>
</svg>
