<svg width="570" height="324" viewBox="0 0 570 324" fill="none" xmlns="http://www.w3.org/2000/svg">
<g clip-path="url(#clip0_107_10)">
<rect width="570" height="324" fill="#FFF6EB"/>
<path d="M486.065 292.996H83.7149C83.517 292.979 83.3354 292.92 83.2039 292.829C83.0725 292.738 83 292.621 83 292.5C83 292.379 83.0725 292.262 83.2039 292.171C83.3354 292.08 83.517 292.021 83.7149 292.004H486.065C486.182 291.995 486.3 292.001 486.413 292.021C486.526 292.042 486.63 292.077 486.718 292.124C486.807 292.171 486.878 292.228 486.926 292.293C486.975 292.358 487 292.429 487 292.5C487 292.571 486.975 292.642 486.926 292.707C486.878 292.772 486.807 292.829 486.718 292.876C486.63 292.923 486.526 292.958 486.413 292.979C486.3 292.999 486.182 293.005 486.065 292.996Z" fill="#1E1E1E"/>
<g clip-path="url(#clip1_107_10)">
<path d="M345.22 293.06H249.89L257.98 234.06H345.22V293.06Z" fill="#1B5A96"/>
<path d="M226.82 149.76H206.5C202.64 149.76 198.5 146.34 197.24 142.12L186.02 104.22C184.77 100 186.89 96.5801 190.76 96.5801H211.08C214.95 96.5801 219.08 100 220.34 104.22L231.56 142.09C232.81 146.34 230.69 149.76 226.82 149.76Z" fill="#1B5A96"/>
<path d="M229.75 149.76H225.44C229.31 149.76 231.44 146.34 230.18 142.12L218.92 104.22C217.67 99.9998 213.52 96.5898 209.66 96.5898H213.96C217.83 96.5898 221.96 99.9998 223.23 104.22L234.44 142.09C235.69 146.34 233.57 149.76 229.75 149.76Z" fill="#FB9100"/>
<path d="M261.88 211.06L234.43 237.73C231.401 239.542 227.987 240.612 224.467 240.856C220.946 241.099 217.417 240.507 214.168 239.129C210.919 237.751 208.041 235.626 205.769 232.925C203.496 230.225 201.893 227.027 201.09 223.59L185.98 162.08L183.88 140.22C183.882 137.926 184.4 135.662 185.395 133.595C186.39 131.528 187.838 129.712 189.63 128.28C195.46 123.62 204.27 117.28 208.89 117.54C216.18 117.94 216.97 119.78 215.03 123.16C215.03 123.16 222.42 123.78 222.93 125.99C223.44 128.2 221.66 129.81 219.52 129.88C220.11 129.88 224.6 129.96 225.09 132.44C225.45 134.24 224.7 135.29 221.09 135.94L223.83 136.68C224.489 137.007 225.019 137.546 225.334 138.211C225.649 138.876 225.73 139.628 225.565 140.345C225.399 141.062 224.997 141.702 224.423 142.162C223.848 142.622 223.136 142.875 222.4 142.88C222.267 142.89 222.133 142.89 222 142.88L217 143.47L212.52 147.47L212.46 156.62L222.09 191.53L233.75 177.39L261.88 211.06Z" fill="#FFCFC5"/>
<path d="M222.96 241.63C219.846 241.622 216.765 240.99 213.9 239.77C210.541 238.368 207.565 236.185 205.219 233.402C202.873 230.62 201.225 227.318 200.41 223.77L185.3 162.22C185.3 162.22 185.3 162.15 185.3 162.12L183.21 140.27C183.196 137.862 183.729 135.482 184.768 133.31C185.807 131.138 187.326 129.23 189.21 127.73C195.6 122.62 204.21 116.59 208.94 116.83C213.26 117.07 215.54 117.83 216.33 119.29C216.555 119.813 216.653 120.381 216.619 120.949C216.584 121.517 216.417 122.069 216.13 122.56C218.59 122.85 223.13 123.67 223.62 125.82C223.749 126.353 223.756 126.909 223.642 127.445C223.528 127.982 223.295 128.486 222.96 128.92C222.791 129.136 222.6 129.334 222.39 129.51C223.9 129.88 225.46 130.66 225.78 132.29C225.893 132.692 225.922 133.113 225.863 133.526C225.805 133.939 225.66 134.336 225.44 134.69C225.022 135.253 224.449 135.681 223.79 135.92L224.06 135.99H224.19C225.098 136.442 225.801 137.223 226.156 138.173C226.51 139.124 226.49 140.174 226.1 141.11C225.774 141.882 225.21 142.53 224.491 142.96C223.772 143.39 222.934 143.579 222.1 143.5L217.37 144.06L213.28 147.67V156.42L222.52 189.93L233.28 176.87C233.345 176.79 233.427 176.724 233.521 176.679C233.614 176.635 233.716 176.611 233.82 176.61C233.921 176.61 234.021 176.633 234.113 176.676C234.204 176.719 234.285 176.782 234.35 176.86L262.51 210.53C262.575 210.598 262.625 210.678 262.657 210.766C262.69 210.854 262.705 210.947 262.7 211.041C262.695 211.134 262.672 211.226 262.63 211.31C262.589 211.394 262.531 211.469 262.46 211.53L234.92 238.22L234.79 238.32C231.22 240.476 227.13 241.62 222.96 241.63ZM186.67 161.97L201.75 223.43C202.521 226.759 204.066 229.859 206.26 232.479C208.454 235.099 211.234 237.164 214.376 238.507C217.518 239.851 220.932 240.434 224.342 240.211C227.752 239.987 231.061 238.963 234 237.22L260.93 211.06L233.75 178.48L222.67 191.94C222.588 192.038 222.481 192.111 222.361 192.152C222.241 192.194 222.111 192.201 221.987 192.175C221.862 192.148 221.747 192.088 221.655 192.001C221.562 191.913 221.495 191.803 221.46 191.68L211.84 156.78C211.83 156.717 211.83 156.653 211.84 156.59L211.89 147.43C211.892 147.332 211.914 147.234 211.955 147.145C211.997 147.055 212.056 146.975 212.13 146.91L216.6 142.91C216.711 142.818 216.847 142.759 216.99 142.74L221.99 142.16H222.15C222.746 142.226 223.346 142.083 223.848 141.754C224.35 141.426 224.721 140.932 224.899 140.36C225.076 139.787 225.049 139.17 224.821 138.615C224.593 138.061 224.179 137.603 223.65 137.32L220.97 136.6C220.817 136.561 220.682 136.47 220.589 136.342C220.496 136.214 220.45 136.058 220.46 135.9C220.464 135.741 220.524 135.589 220.627 135.469C220.731 135.348 220.874 135.268 221.03 135.24C222.84 134.91 223.91 134.47 224.3 133.9C224.415 133.7 224.486 133.479 224.509 133.249C224.531 133.02 224.504 132.788 224.43 132.57C224.04 130.57 219.74 130.57 219.55 130.57C219.364 130.57 219.186 130.496 219.055 130.365C218.924 130.234 218.85 130.056 218.85 129.87C218.85 129.685 218.924 129.506 219.055 129.375C219.186 129.244 219.364 129.17 219.55 129.17C219.999 129.169 220.443 129.069 220.849 128.877C221.255 128.685 221.614 128.406 221.9 128.06C222.107 127.789 222.251 127.475 222.32 127.141C222.39 126.807 222.383 126.461 222.3 126.13C222.06 125.13 218.35 124.13 215.02 123.85C214.909 123.837 214.803 123.798 214.71 123.736C214.617 123.674 214.541 123.59 214.487 123.492C214.433 123.394 214.403 123.285 214.4 123.173C214.398 123.062 214.421 122.951 214.47 122.85C215.25 121.49 215.47 120.58 215.15 120C214.63 119 212.53 118.46 208.9 118.26C205.53 118.07 198.9 121.85 190.12 128.86C188.4 130.213 187.008 131.938 186.048 133.905C185.089 135.873 184.587 138.031 184.58 140.22L186.67 161.97Z" fill="black"/>
<path d="M283.05 146.22L263.62 148.46C256.681 149.561 250.301 152.929 245.48 158.04L228.1 179.72L255.35 213.36C255.35 213.36 285.84 181.65 285.97 181.26C286.1 180.87 283.05 146.22 283.05 146.22Z" fill="#FB9100"/>
<path d="M255.35 214.01C255.252 214.008 255.156 213.984 255.068 213.941C254.98 213.898 254.902 213.836 254.84 213.76L227.55 180.11C227.453 179.984 227.4 179.829 227.4 179.67C227.4 179.511 227.453 179.356 227.55 179.23L244.94 157.55C245.057 157.405 245.226 157.313 245.411 157.293C245.595 157.274 245.78 157.328 245.925 157.445C246.07 157.562 246.162 157.731 246.181 157.916C246.201 158.1 246.147 158.285 246.03 158.43L229.03 179.67L255.4 212.22C263.97 203.31 284.46 181.95 285.4 180.81C285.482 180.677 285.607 180.576 285.754 180.523C285.901 180.471 286.062 180.469 286.21 180.52C286.384 180.579 286.528 180.705 286.611 180.87C286.693 181.034 286.707 181.225 286.65 181.4C286.59 181.59 286.47 181.95 255.88 213.76C255.814 213.836 255.733 213.898 255.642 213.941C255.55 213.984 255.451 214.008 255.35 214.01Z" fill="black"/>
<path d="M336.19 146.72C343.59 148.89 348.3 157.36 349.39 165.3L348.13 264.22L249.89 264.91L253.75 166.39C254.038 162.475 255.467 158.73 257.859 155.616C260.25 152.503 263.501 150.158 267.21 148.87C278.8 145.03 323.31 142.95 336.19 146.72Z" fill="#FB9100"/>
<path d="M249.89 265.62C249.798 265.617 249.707 265.596 249.623 265.558C249.538 265.52 249.463 265.465 249.4 265.397C249.338 265.329 249.29 265.249 249.259 265.162C249.228 265.075 249.215 264.982 249.22 264.89L253.1 176.89C253.104 176.798 253.126 176.708 253.165 176.624C253.203 176.541 253.258 176.466 253.326 176.404C253.394 176.341 253.473 176.293 253.56 176.262C253.646 176.23 253.738 176.216 253.83 176.22C253.922 176.224 254.011 176.246 254.094 176.285C254.177 176.324 254.252 176.379 254.313 176.447C254.374 176.515 254.422 176.594 254.452 176.68C254.483 176.767 254.495 176.858 254.49 176.95L250.61 264.95C250.607 265.041 250.587 265.131 250.549 265.215C250.511 265.298 250.457 265.373 250.39 265.436C250.323 265.498 250.245 265.546 250.159 265.578C250.073 265.61 249.981 265.624 249.89 265.62Z" fill="black"/>
<path d="M215.12 123.22L213.12 123.31C211.388 123.382 209.721 123.99 208.35 125.05L201.11 130.64" fill="#FFCFC5"/>
<path d="M201.09 131.31C200.984 131.308 200.88 131.283 200.785 131.237C200.69 131.19 200.606 131.123 200.54 131.04C200.48 130.967 200.435 130.883 200.409 130.792C200.383 130.701 200.376 130.606 200.388 130.512C200.4 130.418 200.431 130.328 200.48 130.247C200.528 130.166 200.593 130.095 200.67 130.04L207.9 124.45C209.384 123.296 211.192 122.635 213.07 122.56L215.07 122.47C215.242 122.482 215.403 122.557 215.523 122.68C215.644 122.803 215.714 122.966 215.721 123.138C215.729 123.31 215.673 123.479 215.564 123.612C215.454 123.745 215.3 123.834 215.13 123.86L213.13 123.95C211.543 124.021 210.017 124.58 208.76 125.55L201.52 131.14C201.4 131.244 201.248 131.304 201.09 131.31Z" fill="black"/>
<path d="M219.61 129.9L216.15 129.71C215.111 129.66 214.086 129.971 213.25 130.59L205.36 136.45" fill="#FFCFC5"/>
<path d="M205.36 137.15C205.251 137.151 205.144 137.126 205.046 137.077C204.949 137.029 204.865 136.958 204.8 136.87C204.742 136.796 204.699 136.711 204.674 136.62C204.65 136.529 204.644 136.434 204.657 136.34C204.67 136.247 204.702 136.157 204.75 136.076C204.799 135.995 204.864 135.925 204.94 135.87L212.83 130C213.799 129.286 214.988 128.932 216.19 129L219.65 129.18C219.742 129.185 219.832 129.208 219.915 129.248C219.998 129.288 220.072 129.344 220.134 129.413C220.195 129.482 220.242 129.562 220.272 129.649C220.303 129.736 220.315 129.828 220.31 129.92C220.306 130.012 220.284 130.103 220.244 130.187C220.205 130.27 220.149 130.345 220.08 130.407C220.011 130.468 219.93 130.515 219.843 130.545C219.755 130.575 219.662 130.587 219.57 130.58L216.11 130.39C215.235 130.342 214.371 130.604 213.67 131.13L205.77 136.99C205.654 137.086 205.51 137.142 205.36 137.15Z" fill="black"/>
<path d="M221.21 135.96H217.99C217.028 135.962 216.089 136.259 215.3 136.81L208.1 141.89" fill="#FFCFC5"/>
<path d="M208.11 142.59C207.997 142.59 207.886 142.564 207.785 142.514C207.685 142.464 207.597 142.39 207.53 142.3C207.473 142.224 207.432 142.137 207.41 142.045C207.388 141.953 207.385 141.857 207.401 141.764C207.416 141.67 207.451 141.581 207.503 141.501C207.554 141.421 207.621 141.353 207.7 141.3L214.9 136.21C215.801 135.564 216.881 135.215 217.99 135.21H221.21C221.396 135.21 221.574 135.284 221.705 135.415C221.836 135.546 221.91 135.724 221.91 135.91C221.91 136.096 221.836 136.274 221.705 136.405C221.574 136.536 221.396 136.61 221.21 136.61H217.99C217.171 136.61 216.372 136.861 215.7 137.33L208.51 142.42C208.396 142.514 208.257 142.573 208.11 142.59Z" fill="black"/>
<path d="M225.31 199.55C225.175 199.551 225.043 199.512 224.929 199.44C224.816 199.367 224.726 199.263 224.67 199.14L221.46 191.78C221.424 191.696 221.405 191.605 221.403 191.512C221.402 191.42 221.42 191.329 221.454 191.243C221.488 191.158 221.539 191.08 221.604 191.014C221.668 190.949 221.745 190.896 221.83 190.86C221.913 190.822 222.003 190.802 222.094 190.8C222.186 190.797 222.276 190.813 222.361 190.847C222.446 190.881 222.524 190.931 222.589 190.995C222.654 191.059 222.705 191.136 222.74 191.22L225.95 198.58C225.988 198.664 226.009 198.755 226.011 198.847C226.013 198.939 225.997 199.03 225.964 199.116C225.93 199.202 225.88 199.28 225.816 199.346C225.752 199.412 225.675 199.464 225.59 199.5C225.501 199.537 225.406 199.554 225.31 199.55Z" fill="black"/>
<path d="M416.18 138.33C415.875 139.442 415.389 140.497 414.74 141.45C412.58 144.7 409.02 153.87 407.86 156.58L392.42 209.39C390.982 213.319 388.373 216.712 384.945 219.111C381.516 221.509 377.434 222.797 373.25 222.8C372.8 222.8 372.34 222.8 371.89 222.75C368.161 222.506 364.57 221.243 361.509 219.099C358.448 216.954 356.034 214.011 354.53 210.59L341.19 188.65L360.99 167.1L374.41 183.39L387.14 145.08L401.28 109.93C401.61 109.249 402.133 108.681 402.784 108.295C403.435 107.909 404.184 107.723 404.94 107.76C405.523 107.782 406.094 107.937 406.609 108.211C407.124 108.485 407.571 108.873 407.915 109.344C408.26 109.815 408.493 110.358 408.598 110.933C408.702 111.507 408.676 112.097 408.52 112.66L405.1 125.08C405.1 125.08 408.52 124.89 409.59 127.97H409.66C410.12 127.88 412.55 127.62 413.8 131.18C414.59 131.22 417.32 134.06 416.18 138.33Z" fill="#FFCFC5"/>
<path d="M373.25 223.5C372.78 223.5 372.31 223.5 371.85 223.45C367.985 223.209 364.26 221.909 361.085 219.692C357.91 217.475 355.407 214.426 353.85 210.88L340.56 189.01C340.479 188.882 340.443 188.732 340.458 188.581C340.472 188.431 340.536 188.29 340.64 188.18L360.43 166.63C360.494 166.562 360.572 166.508 360.658 166.471C360.744 166.434 360.836 166.415 360.93 166.415C361.024 166.415 361.116 166.434 361.202 166.471C361.288 166.508 361.366 166.562 361.43 166.63L374.05 181.94L386.39 144.83L400.54 109.64C401.025 108.595 401.886 107.771 402.952 107.332C404.018 106.894 405.209 106.873 406.289 107.274C407.37 107.676 408.259 108.469 408.78 109.497C409.301 110.525 409.415 111.712 409.1 112.82L405.91 124.4C406.757 124.492 407.568 124.796 408.267 125.284C408.966 125.771 409.531 126.427 409.91 127.19C410.91 127.19 413 127.48 414.22 130.57C414.79 130.905 415.281 131.358 415.66 131.9C416.319 132.845 416.758 133.926 416.945 135.063C417.132 136.199 417.062 137.364 416.74 138.47C416.418 139.659 415.897 140.785 415.2 141.8C413.5 144.36 410.88 150.75 409.32 154.56C408.93 155.5 408.61 156.29 408.38 156.82L392.97 209.56C391.491 213.614 388.811 217.12 385.288 219.611C381.764 222.101 377.565 223.458 373.25 223.5ZM342.06 188.74L355.13 210.22C356.575 213.546 358.908 216.409 361.874 218.496C364.839 220.582 368.322 221.812 371.94 222.05C372.37 222.05 372.81 222.05 373.25 222.05C377.28 222.039 381.211 220.798 384.517 218.493C387.823 216.188 390.347 212.928 391.75 209.15L407.17 156.38L408.12 154.06C409.71 150.2 412.36 143.74 414.12 141.06C414.73 140.172 415.186 139.189 415.47 138.15C416.47 134.37 414.13 132 413.67 131.86C413.539 131.851 413.415 131.802 413.313 131.72C413.211 131.637 413.137 131.526 413.1 131.4C412.04 128.35 410.1 128.57 409.76 128.64C409.677 128.677 409.586 128.696 409.495 128.696C409.404 128.696 409.313 128.677 409.23 128.64C409.067 128.553 408.945 128.406 408.89 128.23C408.59 127.481 408.064 126.845 407.384 126.411C406.704 125.977 405.905 125.767 405.1 125.81C404.989 125.819 404.878 125.8 404.777 125.754C404.675 125.709 404.587 125.639 404.52 125.55C404.451 125.464 404.403 125.363 404.381 125.255C404.358 125.148 404.361 125.036 404.39 124.93L407.8 112.5C407.984 111.83 407.944 111.119 407.686 110.474C407.428 109.83 406.965 109.287 406.37 108.93C405.917 108.656 405.4 108.504 404.87 108.49C404.25 108.458 403.635 108.61 403.101 108.927C402.567 109.243 402.139 109.711 401.87 110.27L387.75 145.34L375.03 183.61C374.993 183.728 374.924 183.834 374.83 183.915C374.736 183.996 374.622 184.05 374.5 184.07C374.377 184.095 374.25 184.085 374.132 184.043C374.014 184.001 373.909 183.927 373.83 183.83L360.92 168.16L342.06 188.74Z" fill="black"/>
<path d="M406.37 140.22C406.37 140.22 406.05 147.62 411.82 143.13C413.523 141.765 414.998 140.138 416.19 138.31C417.32 134.05 414.59 131.19 413.8 131.15L406.37 140.22Z" fill="#FFCFC5"/>
<path d="M408.69 145.28C408.291 145.283 407.896 145.19 407.54 145.01C405.54 144.01 405.65 140.59 405.67 140.2C405.678 140.05 405.734 139.906 405.83 139.79L413.26 130.72C413.328 130.635 413.415 130.568 413.514 130.525C413.614 130.481 413.722 130.462 413.83 130.47C414.67 130.47 415.52 131.57 415.76 131.89C416.43 132.838 416.876 133.924 417.067 135.069C417.257 136.214 417.187 137.386 416.86 138.5C416.841 138.582 416.808 138.66 416.76 138.73C415.526 140.633 413.989 142.322 412.21 143.73C411.235 144.613 410 145.157 408.69 145.28ZM407.06 140.49C407.06 141.38 407.26 143.3 408.18 143.77C408.84 144.11 409.98 143.69 411.39 142.59C413.003 141.289 414.406 139.748 415.55 138.02C415.861 136.973 415.88 135.86 415.605 134.803C415.33 133.745 414.772 132.783 413.99 132.02L407.06 140.49Z" fill="black"/>
<path d="M401.44 137.22H401.52C404.44 136.28 409.59 127.96 409.59 127.96C408.53 124.88 405.1 125.07 405.1 125.07L398.7 133.07C398.353 133.501 398.151 134.031 398.125 134.584C398.099 135.137 398.249 135.684 398.554 136.146C398.859 136.608 399.303 136.961 399.822 137.154C400.341 137.347 400.907 137.37 401.44 137.22Z" fill="#FFCFC5"/>
<path d="M400.69 138.07C400.157 138.069 399.633 137.935 399.165 137.68C398.697 137.425 398.3 137.057 398.01 136.61C397.606 136.029 397.402 135.332 397.429 134.625C397.456 133.918 397.713 133.239 398.16 132.69L404.55 124.69C404.613 124.615 404.691 124.553 404.778 124.508C404.866 124.463 404.962 124.437 405.06 124.43C406.17 124.364 407.272 124.655 408.206 125.259C409.14 125.863 409.856 126.75 410.25 127.79C410.281 127.889 410.291 127.994 410.279 128.098C410.267 128.201 410.233 128.301 410.18 128.39C409.64 129.26 404.81 136.96 401.74 137.95H401.64C401.33 138.033 401.011 138.074 400.69 138.07ZM405.44 125.78L399.26 133.56C399.005 133.88 398.86 134.273 398.846 134.682C398.831 135.091 398.949 135.493 399.18 135.83C399.394 136.166 399.713 136.422 400.087 136.559C400.461 136.697 400.869 136.707 401.25 136.59H401.31C403.42 135.91 407.31 130.36 408.82 127.92C408.51 127.284 408.028 126.746 407.429 126.368C406.83 125.99 406.138 125.786 405.43 125.78H405.44Z" fill="black"/>
<path d="M403.86 140.43C407.69 142.07 413.8 131.16 413.8 131.16C412.56 127.6 410.12 127.86 409.66 127.95C409.66 127.95 400.06 138.79 403.86 140.43Z" fill="#FFCFC5"/>
<path d="M404.67 141.29C404.296 141.291 403.925 141.216 403.58 141.07C403.265 140.942 402.987 140.738 402.771 140.477C402.554 140.215 402.406 139.903 402.34 139.57C401.57 136.16 408.34 128.37 409.14 127.49C409.244 127.378 409.38 127.301 409.53 127.27C409.88 127.2 412.99 126.73 414.46 130.93C414.502 131.019 414.524 131.116 414.524 131.215C414.524 131.314 414.502 131.411 414.46 131.5C413.81 132.58 408.8 141.29 404.67 141.29ZM410.01 128.61C407.26 131.76 403.25 137.26 403.7 139.27C403.722 139.385 403.773 139.492 403.848 139.581C403.923 139.671 404.021 139.739 404.13 139.78C406.45 140.78 410.74 135.1 413.03 131.1C412.1 128.74 410.63 128.58 410.01 128.61Z" fill="black"/>
<path d="M386.24 148.22L385.42 130.41C385.406 129.092 385.903 127.82 386.808 126.861C387.712 125.902 388.953 125.332 390.27 125.27L399.27 124.84C399.488 124.829 399.705 124.865 399.908 124.945C400.111 125.026 400.293 125.149 400.444 125.306C400.595 125.464 400.71 125.652 400.782 125.858C400.854 126.064 400.88 126.283 400.86 126.5C400.757 127.589 400.291 128.612 399.536 129.405C398.782 130.197 397.783 130.713 396.7 130.87L392.27 131.52L393.48 133.81C395.71 135.88 395.83 138.19 395.08 141.51" fill="#FFCFC5"/>
<path d="M386.23 148.92C386.052 148.92 385.881 148.852 385.752 148.729C385.624 148.606 385.548 148.438 385.54 148.26L384.75 130.44C384.725 128.937 385.286 127.484 386.315 126.388C387.344 125.292 388.759 124.64 390.26 124.57L399.26 124.14C399.578 124.126 399.894 124.18 400.189 124.298C400.484 124.417 400.75 124.598 400.969 124.828C401.188 125.059 401.355 125.333 401.459 125.634C401.562 125.934 401.6 126.254 401.57 126.57C401.453 127.815 400.921 128.985 400.06 129.892C399.199 130.798 398.058 131.389 396.82 131.57L393.37 132.07L394.06 133.38C396.52 135.73 396.53 138.38 395.78 141.67C395.737 141.85 395.625 142.006 395.467 142.103C395.31 142.201 395.12 142.232 394.94 142.19C394.851 142.17 394.767 142.132 394.693 142.08C394.619 142.027 394.556 141.96 394.507 141.883C394.459 141.806 394.426 141.72 394.411 141.63C394.396 141.54 394.399 141.449 394.42 141.36C395.21 137.86 394.85 136.02 393.02 134.36C392.959 134.308 392.912 134.243 392.88 134.17L391.67 131.88C391.616 131.782 391.587 131.672 391.587 131.56C391.587 131.448 391.616 131.338 391.67 131.24C391.719 131.14 391.792 131.054 391.883 130.989C391.974 130.924 392.079 130.884 392.19 130.87L396.62 130.22C397.549 130.087 398.405 129.644 399.051 128.963C399.697 128.283 400.095 127.404 400.18 126.47C400.195 126.354 400.183 126.235 400.145 126.124C400.107 126.013 400.044 125.912 399.96 125.83C399.88 125.744 399.782 125.677 399.673 125.634C399.564 125.591 399.447 125.572 399.33 125.58L390.33 126.01C389.193 126.059 388.12 126.549 387.338 127.376C386.555 128.203 386.126 129.302 386.14 130.44L386.96 148.23C386.965 148.321 386.953 148.413 386.922 148.499C386.892 148.586 386.844 148.665 386.783 148.733C386.722 148.801 386.647 148.856 386.564 148.895C386.481 148.934 386.392 148.956 386.3 148.96L386.23 148.92Z" fill="black"/>
<path d="M372.75 189.35C372.68 189.36 372.61 189.36 372.54 189.35C372.364 189.292 372.217 189.168 372.131 189.004C372.045 188.839 372.026 188.648 372.08 188.47L373.64 183.47C373.659 183.373 373.697 183.282 373.754 183.201C373.81 183.121 373.883 183.053 373.967 183.002C374.051 182.952 374.145 182.919 374.243 182.907C374.341 182.896 374.44 182.904 374.534 182.933C374.628 182.962 374.714 183.011 374.788 183.076C374.862 183.14 374.922 183.22 374.963 183.309C375.004 183.398 375.026 183.495 375.027 183.594C375.029 183.692 375.009 183.79 374.97 183.88L373.41 188.88C373.365 189.019 373.277 189.139 373.158 189.224C373.039 189.308 372.896 189.353 372.75 189.35Z" fill="black"/>
<path d="M322.75 144.53L342.9 146.63C348.799 147.248 354.269 150.001 358.28 154.37L373.61 171.05C373.61 171.05 344.35 201.58 344.35 201.22C344.35 200.86 334.82 188.99 329.03 181.74C326.202 178.206 324.533 173.887 324.25 169.37L322.75 144.53Z" fill="#FB9100"/>
<g opacity="0.4">
<path d="M341.92 170.27C341.734 170.27 341.556 170.196 341.425 170.065C341.294 169.934 341.22 169.756 341.22 169.57V163.22C341.22 163.034 341.294 162.856 341.425 162.725C341.556 162.594 341.734 162.52 341.92 162.52C342.106 162.52 342.284 162.594 342.415 162.725C342.546 162.856 342.62 163.034 342.62 163.22V169.58C342.617 169.764 342.542 169.939 342.411 170.069C342.28 170.198 342.104 170.27 341.92 170.27Z" fill="#F9BD75"/>
</g>
<g opacity="0.4">
<path d="M354.05 179.99C353.958 179.99 353.867 179.972 353.783 179.936C353.699 179.9 353.623 179.847 353.56 179.78L348.61 174.84C348.477 174.707 348.403 174.527 348.403 174.34C348.403 174.152 348.477 173.973 348.61 173.84C348.743 173.707 348.922 173.633 349.11 173.633C349.298 173.633 349.477 173.707 349.61 173.84L354.55 178.84C354.619 178.904 354.674 178.981 354.712 179.067C354.75 179.153 354.769 179.246 354.769 179.34C354.769 179.434 354.75 179.527 354.712 179.613C354.674 179.699 354.619 179.776 354.55 179.84C354.481 179.897 354.401 179.94 354.315 179.966C354.229 179.991 354.139 180 354.05 179.99Z" fill="#F9BD75"/>
</g>
<g opacity="0.4">
<path d="M358.8 169.3C358.614 169.3 358.436 169.226 358.305 169.095C358.174 168.964 358.1 168.786 358.1 168.6V165.36C358.1 165.175 358.174 164.996 358.305 164.865C358.436 164.734 358.614 164.66 358.8 164.66C358.986 164.66 359.164 164.734 359.295 164.865C359.426 164.996 359.5 165.175 359.5 165.36V168.6C359.5 168.786 359.426 168.964 359.295 169.095C359.164 169.226 358.986 169.3 358.8 169.3Z" fill="#F9BD75"/>
</g>
<g opacity="0.4">
<path d="M343.11 186.29C342.927 186.287 342.753 186.216 342.62 186.09L341.25 184.71C341.117 184.577 341.043 184.398 341.043 184.21C341.043 184.023 341.117 183.843 341.25 183.71C341.383 183.577 341.562 183.503 341.75 183.503C341.938 183.503 342.117 183.577 342.25 183.71L343.63 185.08C343.762 185.213 343.836 185.393 343.836 185.58C343.836 185.767 343.762 185.947 343.63 186.08C343.491 186.216 343.304 186.291 343.11 186.29Z" fill="#F9BD75"/>
</g>
<g opacity="0.4">
<path d="M343.89 154.22C343.797 154.22 343.705 154.201 343.619 154.165C343.533 154.129 343.455 154.076 343.39 154.01C343.322 153.945 343.268 153.868 343.231 153.782C343.195 153.696 343.176 153.603 343.176 153.51C343.176 153.416 343.195 153.324 343.231 153.238C343.268 153.152 343.322 153.074 343.39 153.01L345.2 151.2C345.333 151.067 345.513 150.993 345.7 150.993C345.888 150.993 346.067 151.067 346.2 151.2C346.333 151.332 346.407 151.512 346.407 151.7C346.407 151.887 346.333 152.067 346.2 152.2L344.39 154C344.326 154.069 344.249 154.124 344.163 154.162C344.077 154.2 343.984 154.22 343.89 154.22Z" fill="#F9BD75"/>
</g>
<g opacity="0.4">
<path d="M334.41 161.78C334.224 161.779 334.046 161.707 333.91 161.58L331.75 159.39C331.617 159.258 331.543 159.078 331.543 158.89C331.543 158.703 331.617 158.523 331.75 158.39C331.883 158.258 332.062 158.183 332.25 158.183C332.438 158.183 332.617 158.258 332.75 158.39L334.93 160.57C335.062 160.703 335.136 160.883 335.136 161.07C335.136 161.258 335.062 161.437 334.93 161.57C334.862 161.639 334.781 161.693 334.692 161.729C334.602 161.765 334.506 161.782 334.41 161.78Z" fill="#F9BD75"/>
</g>
<g opacity="0.4">
<path d="M285.52 174.34C285.427 174.34 285.335 174.322 285.249 174.286C285.163 174.25 285.085 174.197 285.02 174.13C284.952 174.066 284.898 173.988 284.861 173.902C284.825 173.816 284.806 173.724 284.806 173.63C284.806 173.537 284.825 173.444 284.861 173.358C284.898 173.272 284.952 173.195 285.02 173.13L289.53 168.62C289.663 168.488 289.842 168.413 290.03 168.413C290.218 168.413 290.397 168.488 290.53 168.62C290.663 168.753 290.737 168.933 290.737 169.12C290.737 169.308 290.663 169.488 290.53 169.62L286.02 174.12C285.956 174.189 285.879 174.245 285.793 174.283C285.707 174.32 285.614 174.34 285.52 174.34Z" fill="#F9BD75"/>
</g>
<g opacity="0.4">
<path d="M273.2 178.51C273.107 178.51 273.015 178.491 272.929 178.455C272.843 178.419 272.765 178.366 272.7 178.3L267.98 173.58C267.912 173.515 267.858 173.438 267.821 173.352C267.785 173.266 267.766 173.173 267.766 173.08C267.766 172.986 267.785 172.894 267.821 172.808C267.858 172.722 267.912 172.644 267.98 172.58C268.113 172.448 268.293 172.374 268.48 172.374C268.667 172.374 268.847 172.448 268.98 172.58L273.7 177.31C273.796 177.408 273.861 177.532 273.887 177.666C273.913 177.801 273.9 177.94 273.847 178.067C273.795 178.193 273.707 178.302 273.594 178.379C273.48 178.456 273.347 178.498 273.21 178.5L273.2 178.51Z" fill="#F9BD75"/>
</g>
<g opacity="0.4">
<path d="M288.05 203.22C287.867 203.22 287.691 203.148 287.56 203.02L284.32 199.78C284.187 199.647 284.113 199.467 284.113 199.28C284.113 199.092 284.187 198.912 284.32 198.78C284.453 198.647 284.632 198.573 284.82 198.573C285.008 198.573 285.187 198.647 285.32 198.78L288.55 202.02C288.618 202.084 288.672 202.162 288.709 202.248C288.745 202.334 288.764 202.426 288.764 202.52C288.764 202.613 288.745 202.706 288.709 202.792C288.672 202.878 288.618 202.955 288.55 203.02C288.484 203.085 288.406 203.136 288.32 203.17C288.234 203.204 288.142 203.221 288.05 203.22Z" fill="#F9BD75"/>
</g>
<g opacity="0.4">
<path d="M299.75 185.64C299.612 185.637 299.478 185.595 299.364 185.517C299.25 185.439 299.161 185.33 299.108 185.203C299.055 185.076 299.04 184.936 299.066 184.8C299.091 184.665 299.155 184.54 299.25 184.44L301.05 182.65C301.183 182.517 301.362 182.443 301.55 182.443C301.738 182.443 301.917 182.517 302.05 182.65C302.183 182.783 302.257 182.962 302.257 183.15C302.257 183.337 302.183 183.517 302.05 183.65L300.25 185.44C300.185 185.506 300.107 185.558 300.021 185.592C299.935 185.627 299.843 185.643 299.75 185.64Z" fill="#F9BD75"/>
</g>
<g opacity="0.4">
<path d="M276.83 191.48C276.737 191.48 276.645 191.462 276.559 191.426C276.473 191.389 276.395 191.337 276.33 191.27L275.16 190.1C275.027 189.968 274.953 189.788 274.953 189.6C274.953 189.413 275.027 189.233 275.16 189.1C275.293 188.968 275.472 188.893 275.66 188.893C275.848 188.893 276.027 188.968 276.16 189.1L277.33 190.27C277.425 190.369 277.489 190.494 277.514 190.628C277.54 190.763 277.526 190.902 277.474 191.029C277.422 191.156 277.335 191.265 277.222 191.343C277.11 191.422 276.977 191.466 276.84 191.47L276.83 191.48Z" fill="#F9BD75"/>
</g>
<g opacity="0.4">
<path d="M263.75 160.6C263.564 160.599 263.386 160.527 263.25 160.4C263.118 160.267 263.044 160.087 263.044 159.9C263.044 159.713 263.118 159.533 263.25 159.4L265.69 156.96C265.823 156.827 266.002 156.753 266.19 156.753C266.378 156.753 266.557 156.827 266.69 156.96C266.823 157.093 266.897 157.273 266.897 157.46C266.897 157.648 266.823 157.827 266.69 157.96L264.25 160.4C264.184 160.465 264.106 160.516 264.02 160.55C263.934 160.584 263.842 160.601 263.75 160.6Z" fill="#F9BD75"/>
</g>
<g opacity="0.4">
<path d="M245.31 173.39C245.124 173.39 244.946 173.316 244.815 173.185C244.684 173.054 244.61 172.876 244.61 172.69V169.85C244.63 169.68 244.712 169.523 244.84 169.41C244.969 169.296 245.134 169.233 245.305 169.233C245.476 169.233 245.641 169.296 245.77 169.41C245.898 169.523 245.98 169.68 246 169.85V172.69C246.001 172.781 245.984 172.872 245.95 172.957C245.916 173.042 245.866 173.119 245.801 173.184C245.737 173.249 245.661 173.301 245.576 173.336C245.492 173.372 245.401 173.39 245.31 173.39Z" fill="#F9BD75"/>
</g>
<g opacity="0.4">
<path d="M245.91 185.71C245.818 185.71 245.728 185.691 245.644 185.655C245.559 185.619 245.483 185.566 245.42 185.5L244.42 184.5C244.354 184.434 244.302 184.356 244.267 184.271C244.231 184.185 244.213 184.093 244.213 184C244.213 183.907 244.231 183.815 244.267 183.729C244.302 183.644 244.354 183.566 244.42 183.5C244.486 183.434 244.564 183.382 244.649 183.347C244.735 183.311 244.827 183.293 244.92 183.293C245.013 183.293 245.105 183.311 245.191 183.347C245.276 183.382 245.354 183.434 245.42 183.5L246.42 184.5C246.515 184.6 246.579 184.725 246.604 184.861C246.63 184.996 246.615 185.136 246.562 185.263C246.509 185.391 246.42 185.5 246.306 185.577C246.192 185.655 246.058 185.697 245.92 185.7L245.91 185.71Z" fill="#F9BD75"/>
</g>
<g opacity="0.4">
<path d="M237.75 179.53C237.567 179.529 237.391 179.457 237.26 179.33C237.128 179.197 237.054 179.017 237.054 178.83C237.054 178.643 237.128 178.463 237.26 178.33L238.35 177.22C238.483 177.087 238.662 177.013 238.85 177.013C239.038 177.013 239.217 177.087 239.35 177.22C239.483 177.352 239.557 177.532 239.557 177.72C239.557 177.907 239.483 178.087 239.35 178.22L238.28 179.3C238.212 179.372 238.129 179.429 238.038 179.469C237.947 179.508 237.849 179.529 237.75 179.53Z" fill="#F9BD75"/>
</g>
<g opacity="0.4">
<path d="M263.26 205.6C263.169 205.6 263.078 205.582 262.994 205.546C262.909 205.511 262.833 205.459 262.769 205.394C262.704 205.329 262.654 205.252 262.62 205.167C262.586 205.082 262.569 204.991 262.57 204.9V198.77C262.558 198.672 262.567 198.572 262.597 198.477C262.626 198.383 262.676 198.296 262.741 198.222C262.807 198.148 262.888 198.089 262.978 198.048C263.068 198.007 263.166 197.986 263.265 197.986C263.364 197.986 263.462 198.007 263.552 198.048C263.642 198.089 263.723 198.148 263.789 198.222C263.854 198.296 263.904 198.383 263.933 198.477C263.963 198.572 263.972 198.672 263.96 198.77V204.9C263.96 205.085 263.886 205.264 263.755 205.395C263.624 205.526 263.446 205.6 263.26 205.6Z" fill="#F9BD75"/>
</g>
<g opacity="0.4">
<path d="M279.34 211.41C279.247 211.41 279.155 211.391 279.069 211.355C278.983 211.319 278.905 211.266 278.84 211.2L275.52 207.88C275.387 207.747 275.313 207.567 275.313 207.38C275.313 207.192 275.387 207.013 275.52 206.88C275.653 206.747 275.832 206.673 276.02 206.673C276.208 206.673 276.387 206.747 276.52 206.88L279.84 210.21C279.908 210.274 279.962 210.352 279.999 210.438C280.036 210.524 280.055 210.616 280.055 210.71C280.055 210.803 280.036 210.896 279.999 210.982C279.962 211.068 279.908 211.146 279.84 211.21C279.775 211.276 279.697 211.327 279.611 211.362C279.525 211.396 279.433 211.412 279.34 211.41Z" fill="#F9BD75"/>
</g>
<g opacity="0.4">
<path d="M260.46 252.55C260.368 252.551 260.277 252.532 260.193 252.496C260.109 252.46 260.033 252.407 259.97 252.34C259.902 252.276 259.848 252.198 259.811 252.112C259.775 252.026 259.755 251.934 259.755 251.84C259.755 251.747 259.775 251.654 259.811 251.568C259.848 251.482 259.902 251.405 259.97 251.34L262.41 248.89C262.543 248.758 262.722 248.683 262.91 248.683C263.098 248.683 263.277 248.758 263.41 248.89C263.543 249.023 263.617 249.203 263.617 249.39C263.617 249.578 263.543 249.758 263.41 249.89L260.97 252.33C260.905 252.4 260.825 252.455 260.738 252.493C260.65 252.531 260.556 252.55 260.46 252.55Z" fill="#F9BD75"/>
</g>
<g opacity="0.4">
<path d="M292.94 238.61H286.94C286.842 238.622 286.742 238.612 286.648 238.583C286.553 238.553 286.466 238.504 286.392 238.439C286.318 238.373 286.259 238.292 286.218 238.202C286.177 238.112 286.156 238.014 286.156 237.915C286.156 237.816 286.177 237.718 286.218 237.628C286.259 237.537 286.318 237.457 286.392 237.391C286.466 237.325 286.553 237.276 286.648 237.247C286.742 237.217 286.842 237.208 286.94 237.22H292.94C293.038 237.208 293.138 237.217 293.232 237.247C293.327 237.276 293.414 237.325 293.488 237.391C293.562 237.457 293.621 237.537 293.662 237.628C293.703 237.718 293.724 237.816 293.724 237.915C293.724 238.014 293.703 238.112 293.662 238.202C293.621 238.292 293.562 238.373 293.488 238.439C293.414 238.504 293.327 238.553 293.232 238.583C293.138 238.612 293.038 238.622 292.94 238.61Z" fill="#F9BD75"/>
</g>
<g opacity="0.4">
<path d="M288.83 220.41C288.737 220.412 288.646 220.395 288.56 220.361C288.474 220.326 288.396 220.275 288.33 220.21C288.198 220.077 288.124 219.897 288.124 219.71C288.124 219.522 288.198 219.343 288.33 219.21L291.86 215.68C291.993 215.547 292.172 215.473 292.36 215.473C292.548 215.473 292.727 215.547 292.86 215.68C292.993 215.812 293.067 215.992 293.067 216.18C293.067 216.367 292.993 216.547 292.86 216.68L289.32 220.22C289.188 220.345 289.012 220.414 288.83 220.41Z" fill="#F9BD75"/>
</g>
<g opacity="0.4">
<path d="M256.94 221.59C256.803 221.588 256.67 221.546 256.556 221.469C256.443 221.392 256.355 221.283 256.303 221.156C256.25 221.03 256.237 220.89 256.263 220.756C256.289 220.622 256.354 220.498 256.45 220.4L258.1 218.74C258.233 218.607 258.412 218.533 258.6 218.533C258.788 218.533 258.967 218.607 259.1 218.74C259.233 218.872 259.307 219.052 259.307 219.24C259.307 219.427 259.233 219.607 259.1 219.74L257.45 221.39C257.383 221.456 257.303 221.507 257.215 221.542C257.128 221.576 257.034 221.592 256.94 221.59Z" fill="#F9BD75"/>
</g>
<g opacity="0.4">
<path d="M337.52 221.46C337.429 221.462 337.338 221.446 337.254 221.411C337.17 221.377 337.093 221.325 337.03 221.26L333.53 217.76C333.397 217.627 333.323 217.447 333.323 217.26C333.323 217.072 333.397 216.892 333.53 216.76C333.663 216.627 333.842 216.553 334.03 216.553C334.218 216.553 334.397 216.627 334.53 216.76L338.03 220.26C338.098 220.324 338.152 220.402 338.189 220.488C338.225 220.574 338.244 220.666 338.244 220.76C338.244 220.853 338.225 220.946 338.189 221.032C338.152 221.118 338.098 221.195 338.03 221.26C337.964 221.328 337.885 221.381 337.797 221.415C337.709 221.45 337.614 221.465 337.52 221.46Z" fill="#F9BD75"/>
</g>
<g opacity="0.4">
<path d="M323.58 201.65C323.442 201.647 323.308 201.605 323.194 201.527C323.08 201.449 322.991 201.34 322.938 201.213C322.885 201.086 322.87 200.946 322.896 200.81C322.921 200.675 322.985 200.55 323.08 200.45L325.44 198.09C325.573 197.957 325.752 197.883 325.94 197.883C326.128 197.883 326.307 197.957 326.44 198.09C326.573 198.223 326.647 198.402 326.647 198.59C326.647 198.777 326.573 198.957 326.44 199.09L324.08 201.45C324.014 201.515 323.936 201.566 323.85 201.6C323.764 201.634 323.672 201.651 323.58 201.65Z" fill="#F9BD75"/>
</g>
<g opacity="0.4">
<path d="M329.75 246.15C329.564 246.148 329.386 246.077 329.25 245.95L325.44 242.22C325.307 242.087 325.233 241.907 325.233 241.72C325.233 241.532 325.307 241.352 325.44 241.22C325.573 241.087 325.752 241.013 325.94 241.013C326.128 241.013 326.307 241.087 326.44 241.22L330.21 244.99C330.342 245.123 330.416 245.303 330.416 245.49C330.416 245.677 330.342 245.857 330.21 245.99C330.08 246.096 329.917 246.152 329.75 246.15Z" fill="#F9BD75"/>
</g>
<g opacity="0.4">
<path d="M317.14 223.58C316.954 223.58 316.776 223.506 316.645 223.375C316.514 223.243 316.44 223.065 316.44 222.88V219.96C316.44 219.774 316.514 219.596 316.645 219.465C316.776 219.334 316.954 219.26 317.14 219.26C317.326 219.26 317.504 219.334 317.635 219.465C317.766 219.596 317.84 219.774 317.84 219.96V222.88C317.84 223.065 317.766 223.243 317.635 223.375C317.504 223.506 317.326 223.58 317.14 223.58Z" fill="#F9BD75"/>
</g>
<g opacity="0.4">
<path d="M312.45 254.94C312.358 254.94 312.268 254.921 312.184 254.885C312.099 254.849 312.023 254.796 311.96 254.73L307.49 250.22C307.357 250.087 307.283 249.907 307.283 249.72C307.283 249.532 307.357 249.352 307.49 249.22C307.623 249.087 307.802 249.013 307.99 249.013C308.178 249.013 308.357 249.087 308.49 249.22L312.97 253.7C313.038 253.764 313.092 253.842 313.129 253.928C313.165 254.014 313.185 254.106 313.185 254.2C313.185 254.293 313.165 254.386 313.129 254.472C313.092 254.558 313.038 254.635 312.97 254.7C312.905 254.774 312.825 254.834 312.736 254.875C312.646 254.917 312.549 254.939 312.45 254.94Z" fill="#F9BD75"/>
</g>
<g opacity="0.4">
<path d="M341.02 237.54C340.928 237.54 340.838 237.522 340.753 237.486C340.669 237.45 340.593 237.397 340.53 237.33C340.461 237.266 340.406 237.189 340.368 237.103C340.33 237.017 340.311 236.924 340.311 236.83C340.311 236.736 340.33 236.643 340.368 236.557C340.406 236.471 340.461 236.394 340.53 236.33L346.1 230.76C346.233 230.627 346.413 230.553 346.6 230.553C346.788 230.553 346.967 230.627 347.1 230.76C347.233 230.892 347.307 231.072 347.307 231.26C347.307 231.447 347.233 231.627 347.1 231.76L341.53 237.33C341.465 237.399 341.386 237.454 341.298 237.49C341.21 237.526 341.115 237.543 341.02 237.54Z" fill="#F9BD75"/>
</g>
<g opacity="0.4">
<path d="M314.62 191.74C314.437 191.739 314.261 191.667 314.13 191.54C313.998 191.407 313.924 191.227 313.924 191.04C313.924 190.853 313.998 190.673 314.13 190.54L316.29 188.38C316.423 188.247 316.602 188.173 316.79 188.173C316.978 188.173 317.157 188.247 317.29 188.38C317.423 188.513 317.497 188.692 317.497 188.88C317.497 189.067 317.423 189.247 317.29 189.38L315.13 191.54C314.992 191.669 314.809 191.741 314.62 191.74Z" fill="#F9BD75"/>
</g>
<g opacity="0.4">
<path d="M313.01 169.29C312.918 169.292 312.826 169.275 312.74 169.241C312.654 169.206 312.576 169.155 312.51 169.09L309.16 165.74C309.094 165.674 309.042 165.596 309.007 165.51C308.971 165.425 308.953 165.333 308.953 165.24C308.953 165.147 308.971 165.055 309.007 164.969C309.042 164.883 309.094 164.805 309.16 164.74C309.226 164.674 309.304 164.622 309.389 164.587C309.475 164.551 309.567 164.533 309.66 164.533C309.753 164.533 309.845 164.551 309.931 164.587C310.016 164.622 310.094 164.674 310.16 164.74L313.51 168.09C313.642 168.223 313.716 168.403 313.716 168.59C313.716 168.777 313.642 168.957 313.51 169.09C313.445 169.156 313.367 169.209 313.281 169.243C313.195 169.278 313.103 169.294 313.01 169.29Z" fill="#F9BD75"/>
</g>
<path d="M344.28 201.92C344.218 201.935 344.152 201.935 344.09 201.92C344.005 201.888 343.927 201.838 343.861 201.775C343.796 201.711 343.744 201.635 343.71 201.55C343.24 200.8 337.57 193.61 328.48 182.23C328.413 182.16 328.361 182.076 328.328 181.985C328.295 181.894 328.282 181.796 328.288 181.7C328.295 181.603 328.322 181.508 328.367 181.422C328.412 181.336 328.474 181.261 328.55 181.2C328.626 181.139 328.714 181.095 328.807 181.07C328.901 181.046 328.999 181.04 329.095 181.056C329.191 181.071 329.283 181.105 329.365 181.158C329.446 181.21 329.516 181.279 329.57 181.36C339.84 194.22 343.29 198.57 344.45 200.22C347.45 197.3 362.29 181.85 372.6 171.08L357.75 154.84C357.684 154.774 357.632 154.696 357.597 154.611C357.561 154.525 357.543 154.433 357.543 154.34C357.543 154.247 357.561 154.155 357.597 154.069C357.632 153.984 357.684 153.906 357.75 153.84C357.816 153.774 357.894 153.722 357.979 153.687C358.065 153.651 358.157 153.633 358.25 153.633C358.343 153.633 358.435 153.651 358.521 153.687C358.606 153.722 358.684 153.774 358.75 153.84L374.07 170.53C374.192 170.658 374.26 170.828 374.26 171.005C374.26 171.182 374.192 171.352 374.07 171.48C374.07 171.48 366.83 179.05 359.56 186.61C346.32 200.41 344.86 201.92 344.28 201.92Z" fill="black"/>
<path d="M281.75 88.4501C281.75 88.4501 283.45 108.74 293.2 115.19C302.95 121.64 330.34 123.32 329.82 101.06C329.751 100.22 329.614 99.3876 329.41 98.5701C328.527 93.8936 326.705 89.4446 324.054 85.4915C321.404 81.5385 317.981 78.1635 313.99 75.5701L313.89 75.5001C310.207 72.9972 305.872 71.6275 301.42 71.5601L292.51 73.2301L282.81 86.9201L281.75 88.4501Z" fill="black"/>
<path d="M287.68 146.4L289.9 121.96L315.19 112.96L313.73 144.96C313.73 144.96 306.3 156.34 295.73 155.26C287.3 154.41 287.68 146.4 287.68 146.4Z" fill="#FFCFC5"/>
<path d="M297.2 156.05C296.71 156.05 296.2 156.05 295.7 155.97C286.7 155.04 286.97 146.46 286.98 146.37L289.2 121.93C289.214 121.799 289.265 121.674 289.346 121.57C289.427 121.465 289.536 121.386 289.66 121.34L314.96 112.34C315.068 112.304 315.184 112.294 315.297 112.312C315.41 112.329 315.517 112.373 315.61 112.44C315.702 112.508 315.775 112.597 315.824 112.7C315.873 112.803 315.896 112.916 315.89 113.03L314.42 145.03C314.42 145.155 314.382 145.278 314.31 145.38C314.01 145.81 307.21 156.05 297.2 156.05ZM288.37 146.45C288.283 148.519 289.021 150.537 290.422 152.061C291.823 153.586 293.772 154.492 295.84 154.58C305.17 155.53 312.11 146.06 313.04 144.74L314.45 114.01L290.55 122.47L288.37 146.45Z" fill="black"/>
<path d="M315.25 113.56C317.506 109.698 318.584 105.261 318.352 100.794C318.119 96.3279 316.585 92.0267 313.94 88.4202L279.24 82.7402C278.77 83.3602 269.17 95.8702 271.76 115.84C273.9 132.29 291.43 137.67 306.45 127.71" fill="#FFCFC5"/>
<path d="M290.92 133.42C287.867 133.443 284.846 132.808 282.06 131.56C275.92 128.76 272.06 123.21 271.06 115.93C268.52 96.3199 277.62 83.6998 278.67 82.3198C278.747 82.2182 278.849 82.1393 278.967 82.0918C279.086 82.0442 279.214 82.0297 279.34 82.0499L314.04 87.7299C314.208 87.7603 314.36 87.8488 314.47 87.9799C317.18 91.7051 318.752 96.1356 318.997 100.736C319.242 105.336 318.149 109.908 315.85 113.9C315.753 114.048 315.604 114.155 315.432 114.197C315.259 114.24 315.077 114.216 314.923 114.129C314.768 114.043 314.651 113.901 314.597 113.732C314.543 113.563 314.554 113.38 314.63 113.22C316.826 109.528 317.893 105.273 317.699 100.982C317.506 96.6902 316.06 92.5492 313.54 89.0698L279.54 83.4898C277.8 85.9098 270.11 97.7799 272.45 115.75C273.33 122.53 276.94 127.69 282.62 130.29C289.55 133.44 298.3 132.29 306.05 127.12C306.128 127.064 306.216 127.026 306.31 127.006C306.403 126.986 306.5 126.985 306.593 127.004C306.687 127.022 306.776 127.06 306.854 127.115C306.933 127.169 306.999 127.239 307.05 127.32C307.106 127.397 307.145 127.485 307.166 127.578C307.187 127.671 307.188 127.767 307.171 127.861C307.153 127.954 307.116 128.043 307.063 128.122C307.009 128.201 306.94 128.269 306.86 128.32C302.16 131.543 296.618 133.316 290.92 133.42Z" fill="black"/>
<path d="M300.75 71.7599C301.57 70.3099 300.6 68.4499 299.32 67.3699C296.32 64.8399 292.09 64.6199 288.17 64.5099C283.71 64.3899 279.03 64.3199 275.06 66.3699C272.732 67.6653 270.794 69.561 269.446 71.8595C268.099 74.1581 267.393 76.7756 267.4 79.4399C267.469 82.0961 268.117 84.7053 269.298 87.0854C270.479 89.4654 272.166 91.559 274.24 93.2199C278.463 96.5112 283.676 98.2738 289.03 98.2199C292.504 98.1607 295.969 97.8263 299.39 97.2199C301.03 96.9699 302.98 96.8499 304.04 98.1199C305.1 99.3899 304.69 101.12 304.43 102.75C304.17 104.38 304.35 106.36 305.83 106.98C306.343 107.142 306.893 107.148 307.409 106.997C307.926 106.845 308.386 106.544 308.73 106.13C309.43 105.38 309.53 104.34 310.13 103.58C310.758 102.987 311.46 102.48 312.22 102.07C313.866 100.917 315.641 99.96 317.51 99.2199C319.402 98.4926 321.396 98.0674 323.42 97.9599C324.02 97.9599 329.34 98.0199 329.42 98.6099C330.87 65.1499 304.74 71.4499 300.16 70.8799C293.81 70.0999 284.57 70.8199 278.81 73.9899C268.88 79.4599 273.42 94.9899 273.42 94.9899C273.531 94.7127 273.665 94.4451 273.82 94.1899" fill="black"/>
<path d="M322.34 93.0801C322.52 93.4501 322.7 93.8201 322.85 94.1901C323 94.5601 323.09 94.7201 323.22 94.9801C322.93 94.3201 322.63 93.6801 322.34 93.0801Z" fill="#030047"/>
<path d="M280.83 105.84C280.73 107.06 279.99 108 279.17 107.93C278.35 107.86 277.77 106.82 277.86 105.6C277.95 104.38 278.7 103.45 279.52 103.51C280.34 103.57 280.92 104.62 280.83 105.84Z" fill="black"/>
<path d="M277.47 101.53C278.189 101.156 279.003 101.003 279.809 101.09C280.615 101.177 281.377 101.501 282 102.02" fill="white"/>
<path d="M281.99 102.72C281.834 102.719 281.683 102.666 281.56 102.57C281.048 102.135 280.418 101.861 279.75 101.785C279.083 101.708 278.407 101.832 277.81 102.14C277.651 102.21 277.472 102.219 277.308 102.165C277.143 102.111 277.004 101.998 276.918 101.847C276.832 101.696 276.805 101.519 276.842 101.349C276.88 101.18 276.979 101.031 277.12 100.93C277.958 100.482 278.912 100.294 279.857 100.39C280.803 100.486 281.699 100.862 282.43 101.47C282.504 101.527 282.566 101.599 282.612 101.681C282.658 101.763 282.687 101.853 282.697 101.947C282.707 102.04 282.699 102.134 282.672 102.224C282.645 102.314 282.6 102.398 282.54 102.47C282.474 102.552 282.39 102.617 282.295 102.66C282.199 102.704 282.095 102.724 281.99 102.72Z" fill="black"/>
<path d="M294.53 108.13C294.62 109.35 294.04 110.39 293.22 110.45C292.4 110.51 291.66 109.58 291.56 108.36C291.46 107.14 292.06 106.1 292.87 106.04C293.68 105.98 294.43 106.91 294.53 108.13Z" fill="black"/>
<path d="M291.04 104.11C291.747 103.713 292.555 103.534 293.363 103.597C294.171 103.659 294.943 103.959 295.58 104.46" fill="white"/>
<path d="M295.58 105.16C295.431 105.162 295.286 105.113 295.17 105.02C294.644 104.602 294.007 104.349 293.337 104.294C292.668 104.238 291.997 104.383 291.41 104.71C291.332 104.766 291.243 104.806 291.149 104.827C291.055 104.847 290.957 104.848 290.863 104.829C290.768 104.81 290.679 104.772 290.6 104.717C290.521 104.661 290.454 104.591 290.404 104.508C290.353 104.426 290.32 104.335 290.307 104.239C290.294 104.144 290.3 104.047 290.326 103.954C290.352 103.861 290.397 103.775 290.458 103.7C290.519 103.625 290.594 103.564 290.68 103.52C291.503 103.048 292.447 102.833 293.393 102.9C294.339 102.968 295.243 103.316 295.99 103.9C296.068 103.954 296.135 104.023 296.185 104.103C296.236 104.184 296.269 104.273 296.283 104.367C296.297 104.461 296.292 104.557 296.267 104.649C296.242 104.74 296.199 104.826 296.14 104.9C296.073 104.983 295.987 105.05 295.89 105.095C295.793 105.14 295.687 105.162 295.58 105.16Z" fill="black"/>
<path d="M309.08 103.22C309.08 103.22 314.91 95.5401 318.87 96.3601C322.83 97.1801 323.24 110.71 318.92 112.57C316.349 113.707 313.468 113.936 310.75 113.22" fill="#FFCFC5"/>
<path d="M313.96 114.32C312.796 114.34 311.636 114.181 310.52 113.85C310.344 113.792 310.198 113.668 310.113 113.503C310.029 113.338 310.013 113.146 310.07 112.97C310.131 112.795 310.259 112.651 310.425 112.568C310.592 112.486 310.784 112.472 310.96 112.53C313.511 113.202 316.214 113.005 318.64 111.97C320.73 111.07 321.64 106.35 321.21 102.5C320.91 99.4998 319.91 97.3298 318.73 97.0798C315.85 96.4798 311.18 101.64 309.63 103.68C309.574 103.755 309.503 103.819 309.422 103.867C309.341 103.914 309.251 103.945 309.158 103.957C309.064 103.97 308.969 103.963 308.879 103.937C308.788 103.912 308.704 103.869 308.63 103.81C308.555 103.753 308.493 103.682 308.446 103.601C308.399 103.519 308.369 103.43 308.357 103.337C308.345 103.244 308.351 103.149 308.376 103.059C308.4 102.969 308.442 102.884 308.5 102.81C309.13 101.99 314.74 94.8098 319 95.6998C320.85 96.0798 322.19 98.5598 322.58 102.34C323.04 106.82 322.01 112.01 319.17 113.23C317.526 113.944 315.753 114.315 313.96 114.32Z" fill="black"/>
<path d="M317.51 107.1C317.44 107.11 317.37 107.11 317.3 107.1C317.212 107.074 317.131 107.03 317.06 106.972C316.989 106.914 316.93 106.842 316.888 106.761C316.845 106.68 316.819 106.592 316.81 106.501C316.802 106.409 316.812 106.317 316.84 106.23C317.072 105.446 317.147 104.623 317.06 103.81C317.063 103.514 316.952 103.227 316.75 103.01C316.684 102.98 316.612 102.965 316.54 102.965C316.468 102.965 316.396 102.98 316.33 103.01C316.1 103.097 315.894 103.237 315.73 103.42C315.404 103.756 315.149 104.154 314.98 104.59C314.902 104.745 314.769 104.865 314.607 104.927C314.445 104.99 314.266 104.99 314.104 104.927C313.942 104.865 313.809 104.745 313.731 104.59C313.653 104.436 313.634 104.257 313.68 104.09C313.916 103.473 314.277 102.911 314.74 102.44C315.055 102.096 315.45 101.835 315.89 101.68C316.154 101.588 316.435 101.555 316.713 101.582C316.991 101.61 317.259 101.698 317.5 101.84C317.786 102.051 318.019 102.325 318.182 102.641C318.345 102.956 318.433 103.305 318.44 103.66C318.558 104.668 318.466 105.689 318.17 106.66C318.119 106.792 318.028 106.906 317.91 106.984C317.791 107.063 317.652 107.103 317.51 107.1Z" fill="black"/>
<path d="M285.22 108.47L283.51 113.47C283.076 114.432 282.904 115.491 283.01 116.54C283.133 117.085 283.43 117.574 283.855 117.935C284.281 118.296 284.813 118.508 285.37 118.54" fill="#FFCFC5"/>
<path d="M285.37 119.3C284.651 119.26 283.966 118.982 283.423 118.509C282.879 118.037 282.509 117.397 282.37 116.69C282.24 115.521 282.419 114.338 282.89 113.26L284.6 108.26C284.626 108.169 284.671 108.083 284.731 108.01C284.792 107.936 284.866 107.876 284.951 107.832C285.035 107.788 285.128 107.762 285.223 107.755C285.318 107.748 285.413 107.761 285.503 107.792C285.593 107.824 285.676 107.873 285.746 107.937C285.816 108.002 285.872 108.08 285.911 108.166C285.95 108.253 285.971 108.347 285.973 108.442C285.974 108.537 285.956 108.632 285.92 108.72L284.21 113.72C283.829 114.57 283.668 115.502 283.74 116.43C283.82 116.831 284.03 117.194 284.338 117.463C284.645 117.732 285.032 117.893 285.44 117.92C285.625 117.93 285.798 118.012 285.923 118.149C286.049 118.285 286.115 118.465 286.11 118.65C286.097 118.834 286.012 119.005 285.874 119.127C285.735 119.249 285.554 119.311 285.37 119.3Z" fill="black"/>
<path d="M290.75 125.36C290.242 125.364 289.736 125.289 289.25 125.14C289.162 125.116 289.079 125.074 289.007 125.018C288.934 124.961 288.874 124.891 288.83 124.811C288.785 124.731 288.757 124.643 288.746 124.552C288.736 124.46 288.744 124.368 288.77 124.28C288.823 124.102 288.944 123.952 289.107 123.863C289.27 123.773 289.461 123.751 289.64 123.8C290.242 123.974 290.876 124.007 291.493 123.898C292.11 123.789 292.694 123.54 293.2 123.17C293.699 122.788 294.104 122.298 294.387 121.737C294.669 121.176 294.821 120.558 294.83 119.93C294.83 119.747 294.903 119.572 295.032 119.442C295.162 119.313 295.337 119.24 295.52 119.24C295.611 119.24 295.702 119.258 295.786 119.294C295.871 119.329 295.947 119.381 296.011 119.446C296.076 119.511 296.126 119.588 296.16 119.673C296.194 119.758 296.211 119.849 296.21 119.94C296.202 121.384 295.622 122.765 294.596 123.782C293.571 124.798 292.184 125.366 290.74 125.36H290.75Z" fill="black"/>
<path d="M156.51 120.85L170.08 120.34C170.588 120.32 171.084 120.177 171.526 119.925C171.967 119.673 172.342 119.318 172.617 118.89C172.893 118.462 173.062 117.975 173.109 117.468C173.157 116.962 173.081 116.451 172.89 115.98L167.75 103.41L156.51 120.85Z" fill="#1B5A96"/>
<path d="M172.22 90.6299C171.545 83.8992 168.89 77.5197 164.589 72.2983C160.289 67.0769 154.536 63.2481 148.059 61.2961C141.583 59.3442 134.673 59.3567 128.203 61.3322C121.733 63.3076 115.995 67.1572 111.713 72.3942C107.432 77.6312 104.799 84.0202 104.149 90.7534C103.499 97.4865 104.86 104.261 108.06 110.221C111.26 116.18 116.156 121.057 122.128 124.234C128.099 127.411 134.879 128.746 141.61 128.07C146.079 127.622 150.415 126.299 154.372 124.175C158.329 122.051 161.828 119.168 164.671 115.691C167.514 112.214 169.643 108.211 170.939 103.911C172.234 99.6114 172.669 95.0983 172.22 90.6299ZM147.75 104.11C142.05 105.49 132.75 106.82 132.75 106.82L127.36 88.6399L132.2 86.9899C136.63 84.9899 136.35 81.7899 134.99 77.1299C134.78 76.4099 134.55 75.6699 134.31 74.9299C134.122 74.3524 134.138 73.728 134.354 73.1605C134.571 72.5931 134.975 72.1167 135.499 71.8107C136.024 71.5046 136.637 71.3872 137.238 71.478C137.838 71.5689 138.389 71.8624 138.8 72.3099L138.89 72.4199C141.85 75.9299 143.06 84.2199 143.06 84.2199L153.87 80.5399C154.452 80.337 155.085 80.3257 155.674 80.5078C156.263 80.6899 156.779 81.0557 157.145 81.5518C157.512 82.0479 157.71 82.6483 157.711 83.2651C157.712 83.8819 157.515 84.4828 157.15 84.9799L157.08 85.0699C157.64 85.0103 158.204 85.1353 158.686 85.426C159.168 85.7167 159.542 86.157 159.75 86.6799C159.898 87.2227 159.866 87.7987 159.658 88.3216C159.451 88.8445 159.08 89.286 158.6 89.5799C158.6 89.5799 160.94 89.3699 161.42 91.0699C162.05 93.2899 159.04 94.3799 159.04 94.3799C159.04 94.3799 162.04 93.6399 162.4 96.3799C162.85 100.07 153.45 102.72 147.75 104.11Z" fill="#1B5A96"/>
<path d="M147.75 104.81C147.593 104.808 147.441 104.754 147.318 104.656C147.195 104.559 147.108 104.423 147.07 104.27C147.028 104.09 147.059 103.9 147.157 103.743C147.254 103.585 147.41 103.473 147.59 103.43C160.25 100.36 161.86 97.7302 161.7 96.4302C161.689 96.2054 161.629 95.9859 161.523 95.7871C161.418 95.5883 161.27 95.4152 161.09 95.2802C160.505 94.9785 159.83 94.8969 159.19 95.0502C159.016 95.0934 158.833 95.0675 158.678 94.9779C158.523 94.8884 158.409 94.7422 158.36 94.5702C158.306 94.4004 158.321 94.2163 158.401 94.0573C158.482 93.8984 158.621 93.7773 158.79 93.7202C158.79 93.7202 161.17 92.8202 160.75 91.2202C160.43 90.1002 158.68 90.2202 158.66 90.2202C158.504 90.2307 158.349 90.1894 158.218 90.1026C158.088 90.0158 157.99 89.8884 157.94 89.7402C157.89 89.5897 157.892 89.4267 157.946 89.2777C158.001 89.1287 158.104 89.0027 158.24 88.9202C158.591 88.7131 158.864 88.3964 159.018 88.0188C159.172 87.6412 159.197 87.2236 159.09 86.8302C158.942 86.4477 158.671 86.1253 158.32 85.9135C157.969 85.7017 157.557 85.6126 157.15 85.6602C157.014 85.6693 156.878 85.6385 156.76 85.5716C156.641 85.5047 156.544 85.4046 156.481 85.2835C156.419 85.1624 156.393 85.0257 156.407 84.8901C156.421 84.7545 156.474 84.626 156.56 84.5202L156.62 84.4402C156.904 84.0855 157.059 83.6446 157.059 83.1902C157.059 82.7358 156.904 82.2949 156.62 81.9402C156.345 81.5405 155.948 81.2412 155.487 81.0878C155.027 80.9344 154.53 80.9353 154.07 81.0902L143.27 84.7702C143.173 84.8039 143.069 84.8152 142.967 84.803C142.865 84.7909 142.767 84.7557 142.68 84.7002C142.591 84.6498 142.514 84.5792 142.457 84.4942C142.4 84.4091 142.363 84.3119 142.35 84.2102C142.35 84.1302 141.14 76.1302 138.35 72.8002L138.27 72.7102C137.993 72.3676 137.6 72.138 137.166 72.0644C136.731 71.9907 136.285 72.0781 135.91 72.3102C135.499 72.5227 135.178 72.8759 135.005 73.3054C134.832 73.735 134.82 74.2123 134.97 74.6502C135.027 74.8253 135.013 75.0158 134.931 75.1805C134.848 75.3453 134.704 75.4709 134.53 75.5302C134.352 75.5872 134.159 75.572 133.993 75.4878C133.826 75.4035 133.699 75.2571 133.64 75.0802C133.386 74.3344 133.405 73.5226 133.695 72.7898C133.984 72.057 134.525 71.451 135.22 71.0802C135.878 70.6917 136.653 70.5497 137.405 70.6798C138.158 70.8099 138.841 71.2035 139.33 71.7902L139.41 71.8802C141.91 74.8802 143.18 80.9502 143.58 83.1702L153.58 79.7602C154.339 79.5073 155.16 79.5135 155.914 79.7778C156.669 80.042 157.315 80.5494 157.75 81.2202C158.092 81.6823 158.313 82.223 158.391 82.7927C158.47 83.3624 158.404 83.9426 158.2 84.4802C158.705 84.5968 159.172 84.8423 159.554 85.1928C159.936 85.5433 160.22 85.9869 160.38 86.4802C160.52 86.9038 160.565 87.3535 160.509 87.7963C160.454 88.2392 160.3 88.6642 160.06 89.0402C160.53 89.1386 160.964 89.3627 161.316 89.6885C161.668 90.0143 161.925 90.4296 162.06 90.8902C162.206 91.4085 162.203 91.9575 162.051 92.4741C161.899 92.9907 161.604 93.4538 161.2 93.8102C161.435 93.8912 161.657 94.0058 161.86 94.1502C162.204 94.395 162.491 94.7128 162.698 95.081C162.906 95.4492 163.029 95.8587 163.06 96.2802C163.47 99.4802 158.65 102.19 147.9 104.8L147.75 104.81Z" fill="#030047"/>
<path d="M130.027 85.9086L119.087 90.0576L127.112 111.217L138.052 107.068L130.027 85.9086Z" fill="#FB9100"/>
<path d="M149.75 88.8398C149.614 88.8408 149.48 88.8014 149.366 88.7267C149.253 88.6519 149.163 88.5451 149.11 88.4198C149.039 88.2485 149.039 88.0564 149.108 87.8845C149.177 87.7126 149.31 87.5745 149.48 87.4998L156.8 84.3798C156.885 84.3435 156.976 84.3243 157.068 84.3233C157.16 84.3223 157.251 84.3394 157.337 84.3738C157.422 84.4082 157.5 84.4591 157.566 84.5236C157.632 84.5881 157.684 84.665 157.72 84.7498C157.756 84.8337 157.775 84.9241 157.776 85.0154C157.777 85.1068 157.76 85.1975 157.725 85.2821C157.691 85.3668 157.64 85.4438 157.576 85.5086C157.511 85.5734 157.434 85.6248 157.35 85.6598L150.03 88.7898C149.941 88.8266 149.846 88.8437 149.75 88.8398Z" fill="#030047"/>
<path d="M151.85 92.66C151.707 92.6614 151.567 92.6177 151.451 92.5351C151.334 92.4525 151.246 92.3353 151.2 92.2C151.139 92.0262 151.149 91.8353 151.227 91.6687C151.306 91.5021 151.447 91.3732 151.62 91.31L158.35 88.92C158.525 88.8577 158.718 88.8674 158.886 88.9471C159.053 89.0268 159.183 89.1699 159.245 89.345C159.307 89.52 159.298 89.7127 159.218 89.8805C159.138 90.0484 158.995 90.1777 158.82 90.24L152.09 92.62C152.013 92.6479 151.932 92.6614 151.85 92.66Z" fill="#030047"/>
<path d="M153.1 97.2702C152.934 97.2718 152.773 97.2146 152.646 97.1087C152.518 97.0028 152.433 96.8551 152.404 96.6918C152.375 96.5286 152.405 96.3605 152.489 96.2174C152.572 96.0742 152.704 95.9654 152.86 95.9102L158.75 93.7302C158.924 93.6654 159.116 93.6722 159.285 93.749C159.454 93.8259 159.585 93.9666 159.65 94.1402C159.712 94.314 159.704 94.5053 159.627 94.6733C159.551 94.8413 159.412 94.9729 159.24 95.0402L153.34 97.2202C153.264 97.251 153.182 97.268 153.1 97.2702Z" fill="#030047"/>
<path d="M190.25 237.79L170.54 203.04C169.97 202.035 169.207 201.151 168.295 200.441C167.383 199.73 166.34 199.206 165.226 198.899C164.111 198.591 162.947 198.507 161.8 198.649C160.653 198.792 159.545 199.159 158.54 199.73L119.88 221.65C118.875 222.221 117.993 222.985 117.284 223.897C116.574 224.809 116.051 225.852 115.745 226.967C115.438 228.081 115.354 229.245 115.498 230.391C115.641 231.538 116.009 232.645 116.58 233.65L136.28 268.41C136.851 269.415 137.615 270.297 138.527 271.006C139.439 271.716 140.482 272.239 141.597 272.545C142.711 272.852 143.875 272.936 145.021 272.792C146.168 272.649 147.275 272.281 148.28 271.71L186.94 249.79C188.969 248.636 190.457 246.724 191.077 244.475C191.698 242.225 191.4 239.821 190.25 237.79ZM150.39 220.22C151.229 219.621 152.23 219.29 153.261 219.271C154.292 219.252 155.305 219.546 156.165 220.115C157.025 220.683 157.693 221.499 158.081 222.455C158.468 223.41 158.556 224.461 158.335 225.468C158.113 226.475 157.591 227.391 156.837 228.095C156.084 228.8 155.135 229.259 154.116 229.413C153.096 229.567 152.054 229.408 151.126 228.958C150.199 228.508 149.429 227.786 148.92 226.89C148.236 225.809 148.006 224.502 148.282 223.252C148.557 222.003 149.315 220.913 150.39 220.22ZM142.75 263C142.75 263 135.54 237.09 141.8 233.54C145.8 231.28 156.21 243.77 160.35 241.82C162.87 240.63 159.67 231.46 162.1 230.08C167.05 227.27 184.52 239.31 184.52 239.31L142.75 263Z" fill="#FB9100"/>
<path d="M236.19 30.4199C231.883 29.5864 227.426 30.048 223.382 31.7466C219.337 33.4451 215.887 36.3043 213.466 39.963C211.046 43.6216 209.765 47.9155 209.784 52.3021C209.803 56.6888 211.122 60.9714 213.574 64.6088C216.026 68.2462 219.501 71.0753 223.56 72.7386C227.619 74.4019 232.08 74.8248 236.379 73.9539C240.679 73.0829 244.623 70.9572 247.715 67.8452C250.807 64.7333 252.907 60.7748 253.75 56.4699C254.311 53.6062 254.301 50.6599 253.722 47.7999C253.142 44.9398 252.005 42.2222 250.374 39.8025C248.742 37.3827 246.65 35.3085 244.216 33.6985C241.782 32.0885 239.055 30.9744 236.19 30.4199ZM228.34 43.9499C228.538 42.9607 229.024 42.0523 229.738 41.3396C230.452 40.627 231.361 40.1421 232.351 39.9462C233.341 39.7503 234.366 39.8523 235.298 40.2393C236.229 40.6263 237.025 41.2808 237.585 42.1202C238.144 42.9595 238.442 43.9459 238.441 44.9547C238.44 45.9635 238.14 46.9493 237.578 47.7874C237.017 48.6255 236.22 49.2783 235.287 49.6632C234.355 50.0482 233.329 50.1479 232.34 49.9499C231.014 49.6845 229.848 48.9033 229.098 47.7781C228.348 46.653 228.075 45.276 228.34 43.9499ZM237.27 65.0899L222.09 62.0899C221.541 61.9754 221.03 61.7246 220.604 61.3607C220.177 60.9967 219.849 60.5313 219.65 60.0074C219.451 59.4834 219.387 58.9177 219.464 58.3624C219.541 57.8071 219.756 57.2801 220.09 56.8299C221.42 55.0044 223.243 53.5966 225.346 52.7721C227.449 51.9475 229.743 51.7405 231.959 52.1753C234.176 52.6102 236.222 53.6688 237.857 55.2268C239.492 56.7848 240.648 58.7772 241.19 60.9699C241.335 61.5211 241.337 62.1003 241.196 62.6525C241.054 63.2047 240.773 63.7114 240.38 64.1243C239.987 64.5373 239.495 64.8429 238.951 65.0119C238.406 65.1809 237.828 65.2078 237.27 65.0899Z" fill="#FB9100"/>
<path d="M397.18 232.76L382.25 230.13C381.673 230.032 381.081 230.08 380.527 230.269C379.973 230.458 379.475 230.782 379.078 231.212C378.681 231.642 378.397 232.164 378.253 232.731C378.108 233.298 378.107 233.892 378.25 234.46L382.4 250.75L397.18 232.76Z" fill="#1B5A96"/>
<path d="M438.22 252.02C437.239 246.263 434.574 240.925 430.56 236.683C426.546 232.441 421.365 229.484 415.671 228.186C409.976 226.888 404.025 227.308 398.57 229.393C393.114 231.477 388.399 235.132 385.021 239.896C381.643 244.66 379.753 250.319 379.591 256.157C379.428 261.995 381.001 267.75 384.109 272.694C387.217 277.638 391.721 281.55 397.053 283.934C402.384 286.319 408.303 287.069 414.06 286.09C417.884 285.44 421.542 284.042 424.825 281.978C428.109 279.914 430.954 277.223 433.197 274.059C435.441 270.896 437.039 267.321 437.901 263.539C438.763 259.758 438.871 255.843 438.22 252.02ZM410.34 273.22C410.34 273.22 395.17 267.32 392.72 256.84C392.379 255.448 392.326 254.001 392.565 252.588C392.804 251.175 393.329 249.826 394.108 248.624C394.887 247.421 395.904 246.39 397.096 245.595C398.288 244.8 399.63 244.257 401.04 244C403.407 243.611 405.836 244.067 407.9 245.29C409.91 243.577 412.503 242.703 415.14 242.85C417.661 243.007 420.039 244.078 421.828 245.861C423.617 247.645 424.695 250.019 424.86 252.54C425.57 263.99 410.34 273.22 410.34 273.22Z" fill="#1B5A96"/>
<path d="M369.38 123.03L363.85 126.22C362.567 126.92 361.072 127.127 359.647 126.803C358.222 126.479 356.964 125.646 356.11 124.46L352.49 119.22C352.087 118.662 351.807 118.024 351.669 117.349C351.531 116.675 351.538 115.978 351.691 115.306C351.843 114.635 352.137 114.003 352.552 113.454C352.968 112.904 353.495 112.45 354.1 112.12L359.64 108.94C360.923 108.241 362.418 108.033 363.843 108.357C365.268 108.681 366.526 109.514 367.38 110.7L371 115.96C371.396 116.519 371.67 117.155 371.803 117.826C371.937 118.498 371.927 119.19 371.774 119.858C371.621 120.526 371.328 121.153 370.916 121.7C370.503 122.247 369.98 122.7 369.38 123.03Z" fill="#1B5A96"/>
<path d="M163.67 170.38L159.83 172.57C158.942 173.056 157.906 173.2 156.919 172.975C155.932 172.75 155.061 172.172 154.47 171.35L151.96 167.71C151.682 167.323 151.489 166.88 151.395 166.413C151.301 165.945 151.307 165.463 151.413 164.998C151.518 164.533 151.722 164.096 152.009 163.715C152.297 163.334 152.662 163.019 153.08 162.79L156.91 160.59C157.8 160.104 158.837 159.96 159.826 160.184C160.815 160.409 161.687 160.987 162.28 161.81L164.79 165.46C165.068 165.848 165.261 166.29 165.355 166.757C165.449 167.225 165.443 167.707 165.337 168.172C165.232 168.637 165.028 169.075 164.741 169.455C164.453 169.836 164.088 170.151 163.67 170.38Z" fill="#1B5A96"/>
<path d="M321.85 46.0201L317.85 48.3201C316.916 48.8328 315.826 48.9857 314.787 48.7499C313.748 48.514 312.831 47.9058 312.21 47.0401L309.55 43.2201C309.259 42.8123 309.058 42.3471 308.96 41.8555C308.863 41.3639 308.871 40.8572 308.984 40.3691C309.098 39.8809 309.314 39.4226 309.619 39.0244C309.923 38.6263 310.309 38.2976 310.75 38.0601L314.75 35.7401C315.685 35.2284 316.776 35.0771 317.815 35.3148C318.854 35.5525 319.77 36.1628 320.39 37.0301L323.02 40.8501C323.314 41.2564 323.518 41.7206 323.619 42.212C323.72 42.7033 323.715 43.2105 323.604 43.6996C323.493 44.1888 323.279 44.6488 322.977 45.0489C322.675 45.449 322.29 45.7801 321.85 46.0201Z" fill="#FB9100"/>
<path d="M426.02 191.59L423.02 193.29C422.331 193.669 421.526 193.781 420.759 193.606C419.992 193.431 419.317 192.98 418.86 192.34L416.92 189.53C416.705 189.23 416.555 188.888 416.481 188.526C416.408 188.165 416.412 187.792 416.493 187.431C416.574 187.071 416.731 186.733 416.953 186.438C417.175 186.143 417.457 185.898 417.78 185.72L420.78 184.01C421.476 183.638 422.283 183.535 423.05 183.719C423.817 183.903 424.489 184.363 424.94 185.01L426.88 187.83C427.085 188.129 427.227 188.467 427.295 188.823C427.363 189.179 427.356 189.545 427.275 189.899C427.194 190.252 427.041 190.585 426.825 190.876C426.609 191.167 426.335 191.41 426.02 191.59Z" fill="#FB9100"/>
</g>
</g>
<defs>
<clipPath id="clip0_107_10">
<rect width="570" height="324" fill="white"/>
</clipPath>
<clipPath id="clip1_107_10">
<rect width="361.5" height="264.45" fill="white" transform="translate(104 30)"/>
</clipPath>
</defs>
</svg>
