<svg width="570" height="324" viewBox="0 0 570 324" fill="none" xmlns="http://www.w3.org/2000/svg">
<g clip-path="url(#clip0_92_4422)">
<rect width="570" height="324" fill="#FFF6EB"/>
<path d="M471.134 292.996H98.6618C98.4786 292.979 98.3105 292.92 98.1888 292.829C98.0671 292.738 98 292.621 98 292.5C98 292.379 98.0671 292.262 98.1888 292.171C98.3105 292.08 98.4786 292.021 98.6618 292.004H471.134C471.242 291.995 471.352 292.001 471.457 292.021C471.561 292.042 471.657 292.077 471.739 292.124C471.821 292.171 471.887 292.228 471.932 292.293C471.977 292.358 472 292.429 472 292.5C472 292.571 471.977 292.642 471.932 292.707C471.887 292.772 471.821 292.829 471.739 292.876C471.657 292.923 471.561 292.958 471.457 292.979C471.352 292.999 471.242 293.005 471.134 292.996Z" fill="#030047"/>
<path d="M251.6 238.535L255.69 218.715H323.34L328.34 236.485C328.34 236.485 269.48 251.025 251.6 238.535Z" fill="#FF9A90"/>
<path d="M252.77 232.875C266.65 235.465 296.77 239.145 326.51 230.085L325.01 224.695L254.69 223.585L252.77 232.875Z" fill="#F0766B"/>
<path d="M258.39 79.4653C258.39 79.4653 252.89 79.9853 251.76 75.7453C251.76 75.7453 249.02 75.3853 248.69 68.6053C248.36 61.8253 247.09 59.8753 250.31 56.4653C253.53 53.0553 261.46 49.4653 263.23 45.6353C265 41.8053 268.57 33.3553 277.62 32.5453C286.67 31.7353 289.09 31.2753 293.29 35.3153C297.49 39.3553 306.7 39.5153 309.12 44.2053C311.54 48.8953 312.62 55.7553 312.62 55.7553C312.733 56.74 312.526 57.7348 312.031 58.5935C311.536 59.4521 310.779 60.1292 309.87 60.5253L258.39 79.4653Z" fill="#FB9100"/>
<path d="M307.67 115.715C307.67 119.775 304.88 123.075 301.45 123.075C298.02 123.075 295.23 119.775 295.23 115.715C295.23 111.655 298.01 108.355 301.45 108.355C304.89 108.355 307.67 111.645 307.67 115.715Z" fill="#00265F"/>
<path d="M267.27 101.075C267.27 101.075 263.09 103.345 264.05 110.775C265.01 118.205 268.24 124.185 274.87 122.895C281.5 121.605 281.17 101.565 267.27 101.075Z" fill="#00265F"/>
<path d="M335.02 129.835C323.42 123.075 309.62 121.015 309.62 121.015C302.04 118.245 274.86 117.245 270.62 118.725C270.62 118.725 257.01 122.385 246.62 129.835C246.62 129.835 247.07 153.835 248.79 158.385C250.51 162.935 253.53 164.855 252.88 169.165C252.23 173.475 251.59 182.305 255.47 188.555C256.292 192.086 256.438 195.74 255.9 199.325L249.44 228.195C249.44 228.195 263.56 232.645 284.98 233.195H296.64C318.06 232.635 332.19 228.195 332.19 228.195L325.73 199.325C325.192 195.74 325.338 192.086 326.16 188.555C330.04 182.305 329.39 173.465 328.74 169.165C328.09 164.865 331.11 162.915 332.84 158.385C334.57 153.855 335.02 129.835 335.02 129.835Z" fill="#1B5A96"/>
<path d="M335.02 129.835C331.145 127.627 327.062 125.804 322.83 124.395C320.83 133.265 317.6 150.725 321.44 160.595C326.73 174.215 316.36 186.235 316.36 186.235C316.36 186.235 328.3 222.535 299.83 233.095C319.46 232.205 332.2 228.195 332.2 228.195L328.91 213.465L328.09 209.845L325.74 199.315C325.202 195.73 325.348 192.076 326.17 188.545C330.05 182.295 329.4 173.455 328.75 169.155C328.1 164.855 331.12 162.905 332.85 158.375C334.58 153.845 335.02 129.835 335.02 129.835Z" fill="#9D1356"/>
<path d="M255.91 199.325C256.448 195.74 256.302 192.086 255.48 188.555C251.6 182.305 252.25 173.465 252.89 169.165C253.53 164.865 250.52 162.915 248.8 158.385C247.08 153.855 246.63 129.835 246.63 129.835C250.504 127.625 254.587 125.803 258.82 124.395C260.82 133.265 264.04 150.725 260.21 160.595C254.92 174.215 265.29 186.235 265.29 186.235L255.23 229.675C251.5 228.845 249.45 228.195 249.45 228.195L255.91 199.325Z" fill="#9D1356"/>
<path d="M268.75 186.235C269.052 186.649 269.412 187.016 269.82 187.325C270.219 187.636 270.64 187.917 271.08 188.165C271.966 188.641 272.911 188.998 273.89 189.225C275.853 189.696 277.876 189.865 279.89 189.725C281.904 189.633 283.91 189.396 285.89 189.015C287.89 188.655 289.89 188.165 291.94 187.765C294.044 187.361 296.19 187.217 298.33 187.335L299.92 187.515C300.43 187.575 300.92 187.645 301.44 187.695C302.44 187.805 303.44 187.895 304.44 187.955C306.468 188.089 308.504 188.072 310.53 187.905C311.541 187.811 312.544 187.641 313.53 187.395C314.53 187.165 315.486 186.773 316.36 186.235C315.59 186.955 314.691 187.521 313.71 187.905C312.737 188.3 311.734 188.615 310.71 188.845C308.645 189.259 306.546 189.47 304.44 189.475C303.39 189.475 302.34 189.475 301.29 189.385L298.23 189.165C296.237 189.107 294.244 189.278 292.29 189.675C290.29 190.015 288.29 190.505 286.19 190.815C284.108 191.15 281.998 191.29 279.89 191.235C277.752 191.228 275.631 190.852 273.62 190.125C272.617 189.757 271.671 189.248 270.81 188.615C269.943 187.998 269.237 187.182 268.75 186.235Z" fill="#8C0346"/>
<path d="M277.79 158.155C287.658 154.03 298.708 153.724 308.79 157.295C298.508 155.435 287.953 155.727 277.79 158.155Z" fill="#8C0346"/>
<path d="M300.62 156.485H285.8C283.707 156.485 282.01 158.182 282.01 160.275V186.285C282.01 188.379 283.707 190.075 285.8 190.075H300.62C302.713 190.075 304.41 188.379 304.41 186.285V160.275C304.41 158.182 302.713 156.485 300.62 156.485Z" fill="#FB9100"/>
<path d="M302.51 156.465H283.92C283.405 156.489 282.919 156.709 282.564 157.082C282.208 157.455 282.009 157.95 282.01 158.465V160.395C282.009 159.88 282.208 159.385 282.564 159.012C282.919 158.639 283.405 158.419 283.92 158.395H302.51C303.023 158.421 303.506 158.643 303.86 159.015C304.214 159.388 304.411 159.882 304.41 160.395V158.465C304.411 157.952 304.214 157.458 303.86 157.085C303.506 156.713 303.023 156.491 302.51 156.465Z" fill="#C66A05"/>
<path d="M302.01 159.675H299.89C299.426 159.675 299.05 160.051 299.05 160.515V160.665C299.05 161.129 299.426 161.505 299.89 161.505H302.01C302.474 161.505 302.85 161.129 302.85 160.665V160.515C302.85 160.051 302.474 159.675 302.01 159.675Z" fill="#1B5A96"/>
<path d="M282.01 169.165L298.3 166.255L282.01 173.255L299.74 170.095L285.95 177.315L300.23 175.995L304.41 176.195V185.565C304.41 185.565 300.24 184.395 299.74 183.915L295.53 183.305H287.84L282.01 185.565V169.165Z" fill="#FB9100"/>
<path d="M304.42 162.055C304.42 162.055 309.65 166.125 312.63 167.055C315.61 167.985 316.84 170.515 317.99 172.545C319.14 174.575 336.18 187.005 339.64 188.295C339.64 188.295 337.59 196.895 331.28 199.805C331.28 199.805 329.92 198.135 327.92 196.025C325.34 193.305 322.5 189.495 321.05 188.905C318.54 187.905 313.05 186.735 310.46 183.275L299.74 183.885C299.74 183.885 298.25 182.935 299.74 182.185L295.53 183.275C295.53 183.275 294.04 182.935 294.04 181.715C294.04 180.495 297.12 179.965 297.12 179.965L310.6 176.755L310.46 175.965C310.46 175.965 297.09 178.315 294.78 178.245C292.47 178.175 292 176.895 293.36 176.415C294.72 175.935 309.92 171.125 311.14 170.645C311.14 170.645 305.03 167.395 304.42 166.105V162.055Z" fill="#FF9A90"/>
<path d="M313.84 170.965C314.276 171.281 314.579 171.748 314.69 172.275C314.745 172.543 314.745 172.818 314.69 173.085C314.643 173.347 314.541 173.596 314.39 173.815C314.5 173.328 314.5 172.823 314.39 172.335C314.346 172.094 314.272 171.859 314.17 171.635C314.081 171.402 313.971 171.178 313.84 170.965Z" fill="#F0766B"/>
<path d="M315.43 175.985C315.714 176.319 315.861 176.748 315.84 177.185C315.829 177.399 315.792 177.61 315.73 177.815C315.658 178.019 315.557 178.211 315.43 178.385C315.62 177.597 315.62 176.774 315.43 175.985Z" fill="#F0766B"/>
<path d="M315.71 180.615C315.929 180.945 316.025 181.342 315.98 181.735C315.954 181.933 315.896 182.125 315.81 182.305C315.72 182.48 315.589 182.63 315.43 182.745C315.575 182.428 315.669 182.091 315.71 181.745C315.725 181.569 315.725 181.392 315.71 181.215C315.73 180.995 315.73 180.805 315.71 180.615Z" fill="#F0766B"/>
<path d="M299.74 182.205C301.74 181.635 303.74 181.205 305.74 180.725C306.74 180.525 307.74 180.335 308.74 180.195C309.745 180.004 310.772 179.957 311.79 180.055C310.784 180.016 309.778 180.093 308.79 180.285C307.79 180.435 306.79 180.645 305.79 180.865C303.71 181.255 301.73 181.745 299.74 182.205Z" fill="#F0766B"/>
<path d="M254.76 182.745C254.76 182.745 267.08 178.205 271.36 173.925C271.36 173.925 273.26 170.055 274.55 169.315C275.84 168.575 281.13 165.105 282.01 163.135V169.785C282.01 169.785 297.28 166.595 298.3 166.255C299.32 165.915 299.86 168.095 299.05 168.425C298.24 168.755 282.76 173.285 282.76 173.285L282.9 173.725L298.64 170.265C298.64 170.265 300.34 169.585 300.64 170.805C300.94 172.025 299.42 172.635 298.47 173.285C297.52 173.935 284.47 177.655 283.27 178.205C283.27 178.205 298.06 176.275 299.76 175.985C301.46 175.695 301.59 178.065 299.89 178.475C298.19 178.885 290.73 181.935 289.24 182.205C289.24 182.205 284.83 185.735 284.35 185.875C282.878 186.313 281.346 186.519 279.81 186.485C277.16 186.485 272.54 186.415 272.07 186.885C271.6 187.355 256.46 198.085 256.46 198.085L254.91 183.575L254.76 182.745Z" fill="#FF9A90"/>
<path d="M289.21 182.205C288.14 182.495 287.06 182.695 285.98 182.905C284.892 183.1 283.793 183.231 282.69 183.295C283.78 183.135 284.87 182.985 285.95 182.775L289.21 182.205Z" fill="#F0766B"/>
<path d="M282.01 169.785C281.41 169.925 280.8 169.985 280.19 170.095C279.58 170.205 278.97 170.245 278.35 170.265C278.96 170.125 279.57 170.055 280.17 169.955C280.77 169.855 281.39 169.805 282.01 169.785Z" fill="#F0766B"/>
<path d="M275.91 171.955C275.865 172.176 275.865 172.404 275.91 172.625C275.928 172.84 275.972 173.051 276.04 173.255C276.15 173.685 276.34 174.085 276.48 174.535C276.321 174.368 276.18 174.183 276.06 173.985C275.944 173.779 275.85 173.561 275.78 173.335C275.694 173.111 275.661 172.869 275.683 172.63C275.706 172.391 275.784 172.16 275.91 171.955Z" fill="#F0766B"/>
<path d="M276.45 175.985C276.45 176.225 276.5 176.455 276.54 176.685C276.577 176.917 276.634 177.144 276.71 177.365C276.854 177.807 277.063 178.225 277.33 178.605C277.118 178.477 276.934 178.307 276.79 178.105C276.644 177.904 276.529 177.681 276.45 177.445C276.295 176.971 276.295 176.46 276.45 175.985Z" fill="#F0766B"/>
<path d="M277.87 181.125C277.931 181.339 278.005 181.55 278.09 181.755C278.162 181.96 278.252 182.157 278.36 182.345C278.563 182.745 278.862 183.089 279.23 183.345C278.997 183.305 278.778 183.209 278.59 183.065C278.386 182.9 278.216 182.696 278.09 182.465C277.877 182.053 277.8 181.584 277.87 181.125Z" fill="#F0766B"/>
<path d="M313.42 121.745C311.42 133.275 300.24 141.635 286.89 141.635C273.78 141.635 262.78 133.555 260.46 122.335C263.775 120.93 267.171 119.724 270.63 118.725C274.86 117.245 302.03 118.245 309.63 121.015C309.62 121.015 311.09 121.235 313.42 121.745Z" fill="#E1207E"/>
<path d="M246.63 129.835C246.63 129.835 236.73 137.925 230.7 155.835C224.67 173.745 213.9 229.945 226.39 221.755C238.88 213.565 260.46 195.255 260.46 195.255V180.255L244.92 186.635C244.92 186.635 253.63 160.135 253.45 148.495C253.41 141.672 250.999 135.076 246.63 129.835Z" fill="#1B5A96"/>
<path d="M335.02 129.835C335.02 129.835 344.91 137.925 350.94 155.835C356.97 173.745 367.75 229.945 355.25 221.755C342.75 213.565 327.92 196.055 327.92 196.055L330.79 182.775L336.73 186.645C336.73 186.645 329.63 159.925 329.81 148.295C329.99 136.665 335.02 129.835 335.02 129.835Z" fill="#1B5A96"/>
<path d="M313.42 121.745C311.42 133.275 300.24 141.635 286.89 141.635C273.78 141.635 262.78 133.555 260.46 122.335C263.775 120.93 267.171 119.724 270.63 118.725C274.86 117.245 302.03 118.245 309.63 121.015C309.62 121.015 311.09 121.235 313.42 121.745Z" fill="#E1207E"/>
<path d="M309.62 121.015C307.97 130.495 298.41 137.755 286.89 137.755C275.37 137.755 265.84 130.515 264.17 121.055C269.17 119.355 276.17 116.595 276.17 116.595V111.595H297.77V116.595C297.77 116.595 304.63 119.305 309.62 121.015Z" fill="#FF9A90"/>
<path d="M299.55 117.285C298.05 122.385 292.99 126.125 286.96 126.125C280.93 126.125 275.86 122.385 274.37 117.285L276.16 116.595V111.595H297.76V116.595L299.55 117.285Z" fill="#F0766B"/>
<path d="M258.39 79.4651L309.87 60.5252C310.779 60.1291 311.536 59.452 312.031 58.5933C312.526 57.7347 312.733 56.7399 312.62 55.7551C312.62 55.7551 311.55 48.8852 309.12 44.2052C308.723 43.4544 308.171 42.7966 307.5 42.2752C303.69 41.7552 299.29 41.9751 293.61 42.1051C286.34 42.2651 280.69 43.3951 276.48 46.9451C272.27 50.4951 268.08 51.9451 262.48 53.7351C258.598 55.1461 254.969 57.1719 251.73 59.7351C251.14 63.4051 251.5 71.4652 251.73 75.8652C252.99 79.9752 258.39 79.4651 258.39 79.4651Z" fill="#FB9100"/>
<path d="M309.87 56.8054C308.81 56.6554 279.37 50.9854 255.96 73.3954C255.96 73.3954 252.8 76.7354 257.96 77.4854C259.3 77.6854 263.32 76.9654 268.57 75.7154L309.86 60.5254C310.335 60.2693 310.775 59.9534 311.17 59.5854C311.8 57.4654 310.71 56.9254 309.87 56.8054Z" fill="#FFBF00"/>
<path d="M355.01 292.915C353.72 275.015 329.81 238.425 329.81 238.425V238.355C287.46 252.955 260.81 248.575 252.55 246.535C243.19 258.535 237.05 292.915 237.05 292.915H355.01Z" fill="#FB9100"/>
<path d="M303.52 271.785H283.7C286.227 273.148 289.031 273.921 291.9 274.045V292.915H294.47V274.045H294.26C297.46 273.875 300.601 273.108 303.52 271.785Z" fill="#C25400"/>
<path d="M265.6 247.115C265.55 247.575 265.49 248.025 265.43 248.465C262.17 271.465 242.79 280.335 239.43 281.715C239.55 281.205 239.68 280.715 239.81 280.145C244.61 278.005 261.18 269.145 264.15 248.365C264.22 247.905 264.28 247.445 264.33 246.975L265.6 247.115Z" fill="#6C3506"/>
<path d="M348.19 271.465C329.25 270.225 319.61 247.025 317.79 242.125C317.59 241.575 317.48 241.255 317.47 241.225L318.7 240.825C318.7 240.825 318.82 241.185 319.04 241.825C320.86 246.685 329.98 268.465 347.57 270.175C347.78 270.565 347.99 271.005 348.19 271.465Z" fill="#6C3506"/>
<path d="M311.42 84.5952C311.42 96.1652 307.03 106.345 300.42 112.255C296.777 115.663 291.998 117.595 287.01 117.675C278.69 117.675 271.34 112.065 266.93 103.485C266.45 102.565 266.01 101.615 265.61 100.635C263.564 95.55 262.525 90.1163 262.55 84.6352C262.484 77.77 264.138 70.9975 267.36 64.9352C277.046 59.2217 288.065 56.1591 299.31 56.0552C306.54 61.7552 311.42 72.4052 311.42 84.5952Z" fill="#FF9A90"/>
<path d="M284.17 69.4653C282.67 70.8453 281.42 73.4653 280.11 75.2053C276.67 79.7053 272.46 83.5853 269.11 88.0953C267.469 90.355 266.479 93.0219 266.25 95.8053C266 98.4453 266.98 100.875 266.93 103.455C266.93 103.455 266.85 107.525 265.93 109.615C265.93 109.615 264.46 100.345 262.62 96.2553C260.78 92.1653 265.11 82.0653 273.62 77.4853C277.469 75.2792 281.015 72.5834 284.17 69.4653Z" fill="#F0766B"/>
<path d="M304.21 108.055C303.081 109.583 301.798 110.991 300.38 112.255C300.08 112.515 299.79 112.775 299.48 113.015C298.18 107.405 302.68 99.0754 304.93 91.1154C307.58 81.7454 295.09 74.0554 290.09 70.1754C285.09 66.2954 285.09 57.7354 285.09 57.7354C291.7 74.3254 299.8 66.3353 306.75 78.7353C311.24 86.7953 307.46 99.8053 304.21 108.055Z" fill="#F0766B"/>
<path d="M255.96 73.3953C255.96 73.3953 276.68 51.6353 309.87 56.8053C309.87 56.8053 311.76 63.5953 311.41 66.6653C311.203 68.0758 311.488 69.5145 312.216 70.74C312.944 71.9655 314.072 72.9031 315.41 73.3953C318.15 74.3953 322.35 77.3253 322.52 81.2053C322.69 85.0853 322.52 88.9653 325.75 91.3853C327.592 92.6565 329.078 94.3778 330.067 96.3854C331.056 98.3931 331.515 100.62 331.4 102.855C331.4 108.675 334.8 112.225 338.67 114.855C342.54 117.485 345.46 127.295 339.97 130.365C334.48 133.435 332.86 129.725 330.97 137.795C329.08 145.865 328.35 154.405 316.09 154.565C303.83 154.725 303.17 144.565 304.94 139.215C306.71 133.865 307.21 125.645 304.3 123.215C301.39 120.785 298.8 111.925 301.55 105.285C304.3 98.6453 315.09 81.1553 294.09 71.4653C294.09 71.4653 288.27 69.6953 286.17 61.2953C286.17 61.2953 286.49 70.9253 276.8 78.0653C273.31 80.6353 269.05 83.1553 266.8 86.9853C265.34 89.7441 264.803 92.8988 265.27 95.9853C265.77 100.485 268.85 104.105 267.82 108.825C267.52 110.185 266.96 111.485 266.7 112.825C265.8 117.505 270.22 118.615 272.13 122.025C274.39 126.025 276.82 139.965 270.52 145.935C264.22 151.905 259.37 154.505 249.03 151.275C238.69 148.045 235.78 137.535 237.55 130.585C239.32 123.635 240.78 122.835 243.55 118.585C246.32 114.335 244.36 107.105 249.37 101.295C252.47 97.6853 250.27 92.3653 251.42 85.9953C252.09 82.2053 257.56 77.9153 255.96 73.3953Z" fill="black"/>
<path d="M285.21 86.1052C285.21 86.1052 287.15 102.265 284.09 106.465L288.94 105.285" stroke="#311001" stroke-width="0.84" stroke-linecap="round" stroke-linejoin="round"/>
<path d="M282 110.465C281.27 112.535 286.86 115.625 292.68 113.105C298.34 110.525 298.92 106.045 297.46 105.325C294.51 109.365 288.32 111.975 282 110.465Z" fill="#9D1456"/>
<path d="M282.87 112.335C285.629 112.841 288.472 112.641 291.133 111.752C293.794 110.864 296.187 109.317 298.09 107.255C298.186 106.896 298.177 106.516 298.064 106.161C297.95 105.807 297.737 105.492 297.45 105.255C294.5 109.335 288.31 111.945 281.99 110.395C281.958 110.767 282.023 111.141 282.177 111.48C282.331 111.82 282.57 112.114 282.87 112.335Z" fill="white"/>
<path d="M306.45 78.1054C304.488 76.9486 302.287 76.2569 300.016 76.0835C297.745 75.9102 295.465 76.2597 293.35 77.1054C293.01 76.2154 292.68 75.3254 292.35 74.4454C294.864 73.5389 297.553 73.219 300.21 73.5101C302.867 73.8013 305.422 74.6958 307.68 76.1254L306.45 78.1054Z" fill="#311001"/>
<path d="M267.09 78.1052C269.054 76.9482 271.256 76.2566 273.529 76.0832C275.801 75.9099 278.083 76.2595 280.2 77.1052C280.53 76.2152 280.87 75.3252 281.2 74.4452C278.687 73.5388 276 73.219 273.345 73.5102C270.69 73.8013 268.136 74.6958 265.88 76.1252C266.27 76.7852 266.68 77.4652 267.09 78.1052Z" fill="#311001"/>
<path d="M299.21 93.1652C299.21 94.0252 298.73 94.7252 298.14 94.7252C297.55 94.7252 297.09 94.0252 297.09 93.1652C297.09 92.3052 297.57 91.6052 298.17 91.6052C298.77 91.6052 299.21 92.2952 299.21 93.1652Z" fill="#311001"/>
<path d="M277.43 93.1652C277.43 94.0252 276.94 94.7252 276.35 94.7252C275.76 94.7252 275.27 94.0252 275.27 93.1652C275.27 92.3052 275.75 91.6052 276.35 91.6052C276.95 91.6052 277.43 92.2952 277.43 93.1652Z" fill="#311001"/>
<path d="M336.73 186.615C338.08 187.245 339.41 187.935 340.73 188.615C342.05 189.295 343.33 190.065 344.64 190.785C345.95 191.505 347.21 192.295 348.48 193.085C349.75 193.875 351.01 194.675 352.23 195.535C350.87 194.905 349.55 194.215 348.23 193.535C346.91 192.855 345.62 192.085 344.32 191.365C343.02 190.645 341.74 189.855 340.48 189.065C339.22 188.275 337.95 187.465 336.73 186.615Z" fill="#FF5AA9"/>
<path d="M244.89 186.615C242.64 187.615 240.33 188.485 238 189.285C235.67 190.085 233.32 190.805 230.91 191.355C233.159 190.345 235.459 189.45 237.8 188.675C240.09 187.895 242.48 187.165 244.89 186.615Z" fill="#FF5AA9"/>
<path d="M253.4 58.4653V74.5553H252.75V58.9253L253.4 58.4653Z" fill="#C66A05"/>
<path d="M255.34 72.2054H254.7L254.63 57.6454C254.84 57.5154 255.05 57.3754 255.28 57.2454L255.34 72.2054Z" fill="#C66A05"/>
<path d="M257.7 70.1554H257.06L256.69 56.3754C256.896 56.2436 257.11 56.1234 257.33 56.0154L257.7 70.1554Z" fill="#C66A05"/>
<path d="M260.09 67.7853H259.44C259.38 63.6153 259.15 59.4153 258.76 55.2653L259.38 54.9653C259.77 59.2253 260 63.5353 260.09 67.7853Z" fill="#C66A05"/>
<path d="M263.43 65.4054H262.78C262.56 61.5954 262.19 57.7554 261.69 53.9754C261.9 53.8954 262.1 53.8254 262.31 53.7654C262.83 57.6354 263.2 61.5354 263.43 65.4054Z" fill="#C66A05"/>
<path d="M266.45 63.2252L265.81 63.2952L264.62 53.0552L265.24 52.8452L266.45 63.2252Z" fill="#C66A05"/>
<path d="M269.19 61.9353L268.55 62.0153C268.13 58.7453 267.66 55.4453 267.13 52.1753L267.75 51.9453C268.28 55.2653 268.76 58.6053 269.19 61.9353Z" fill="#C66A05"/>
<path d="M271.93 60.5152L271.29 60.6152L269.85 51.0752L270.46 50.7952L271.93 60.5152Z" fill="#C66A05"/>
<path d="M274.09 59.7953H273.44C273.25 56.4453 272.91 53.0853 272.44 49.7953C272.64 49.6853 272.84 49.5753 273.04 49.4453C273.51 52.8653 273.87 56.3553 274.09 59.7953Z" fill="#C66A05"/>
<path d="M276.89 58.3853L276.25 58.4453C275.927 55.0579 275.39 51.6944 274.64 48.3753C274.833 48.2487 275.023 48.1087 275.21 47.9553C275.994 51.3921 276.555 54.8761 276.89 58.3853Z" fill="#C66A05"/>
<path d="M280.61 57.8253L279.97 57.9353C279.255 54.0757 278.252 50.2751 276.97 46.5653L277.51 46.1453C278.842 49.9532 279.878 53.8581 280.61 57.8253Z" fill="#C66A05"/>
<path d="M283.33 56.5253L282.7 56.6853L280.26 47.5653C280.03 46.6953 279.79 45.8053 279.51 44.9253L280.08 44.6353C280.38 45.5653 280.63 46.5053 280.88 47.4153L283.33 56.5253Z" fill="#C66A05"/>
<path d="M286.79 55.9052L286.15 55.9952C285.517 51.7379 284.451 47.5563 282.97 43.5152L283.59 43.3352C285.078 47.4065 286.15 51.6179 286.79 55.9052Z" fill="#C66A05"/>
<path d="M290.57 54.9952L289.93 55.1352C289.01 50.9652 287.93 46.7652 286.72 42.6752C286.94 42.6752 287.15 42.5952 287.36 42.5752C288.57 46.6652 289.64 50.8352 290.57 54.9952Z" fill="#C66A05"/>
<path d="M292.7 54.8252L292.07 54.9352C291.359 50.693 290.428 46.4906 289.28 42.3452L289.93 42.2852C291.072 46.4139 291.997 50.5996 292.7 54.8252Z" fill="#C66A05"/>
<path d="M294.53 54.6053L293.89 54.7153C293.17 50.5453 292.37 46.3453 291.49 42.1853C291.7 42.1853 291.92 42.1853 292.14 42.1853C293.01 46.2853 293.81 50.4653 294.53 54.6053Z" fill="#C66A05"/>
<path d="M296.51 54.5152L295.87 54.5752C295.446 50.3573 294.653 46.1847 293.5 42.1052H293.61H294.17C295.307 46.1665 296.09 50.3187 296.51 54.5152Z" fill="#C66A05"/>
<path d="M298.62 54.4654L297.98 54.5654C297.28 50.3954 296.51 46.1754 295.67 42.0154H296.33C297.16 46.1754 297.92 50.3554 298.62 54.4654Z" fill="#C66A05"/>
<path d="M301.25 54.3854L300.61 54.5054C299.79 50.3354 298.84 46.1254 297.8 41.9954H298.46C299.49 46.0854 300.43 50.2454 301.25 54.3854Z" fill="#C66A05"/>
<path d="M303.42 54.2553L302.79 54.4053C301.87 50.2553 300.85 46.0853 299.79 41.9553H300.45C301.5 46.0353 302.51 50.1653 303.42 54.2553Z" fill="#C66A05"/>
<path d="M304.93 54.4653L304.3 54.5853L301.98 41.9353C302.2 41.9353 302.43 41.9353 302.64 41.9353L304.93 54.4653Z" fill="#C66A05"/>
<path d="M307.38 55.0153L306.75 55.1253C305.956 50.6661 304.836 46.2711 303.4 41.9753H304.09C305.497 46.2379 306.596 50.5957 307.38 55.0153Z" fill="#C66A05"/>
<path d="M308.48 54.9251L307.84 55.0251C307.17 50.6751 306.27 46.3151 305.18 42.0251H305.87C306.94 46.3251 307.82 50.6351 308.48 54.9251Z" fill="#C66A05"/>
<path d="M310.39 55.3353H309.75C309.65 50.7953 308.21 46.4253 306.75 42.1853L307.46 42.2653C308.9 46.4653 310.29 50.8053 310.39 55.3353Z" fill="#C66A05"/>
<path d="M311.77 55.9153H311.12C310.82 51.9416 310.151 48.0046 309.12 44.1553C309.711 45.3178 310.219 46.5208 310.64 47.7553C311.194 50.4478 311.571 53.1736 311.77 55.9153Z" fill="#C66A05"/>
<path d="M253.09 74.7453C256.292 70.398 260.298 66.7047 264.89 63.8653C266 63.0953 267.2 62.4753 268.37 61.7953C269.54 61.1153 270.76 60.5453 272.01 60.0353C273.26 59.5253 274.48 58.9653 275.76 58.5253L277.66 57.8453L279.6 57.2753C280.89 56.8753 282.2 56.5753 283.51 56.2753C284.82 55.9753 286.14 55.7153 287.46 55.4453C288.78 55.1753 290.12 55.0153 291.46 54.8053C292.8 54.5953 294.13 54.4653 295.46 54.4053C300.832 53.8618 306.257 54.323 311.46 55.7653C310.174 55.3928 308.86 55.1286 307.53 54.9753C306.2 54.8053 304.86 54.7053 303.53 54.6553C300.861 54.5506 298.188 54.6307 295.53 54.8953C290.203 55.3921 284.936 56.3967 279.8 57.8953C274.62 59.3224 269.668 61.4736 265.09 64.2853C262.801 65.6661 260.633 67.2384 258.61 68.9853C256.566 70.6987 254.715 72.6302 253.09 74.7453Z" fill="white"/>
<path d="M265.49 71.1252C263.87 73.9652 260.49 75.4652 258.87 78.2952C257.871 80.3442 257.436 82.6224 257.61 84.8952C257.72 93.4352 259.9 102.565 255.92 110.115C255.15 111.585 254.17 112.935 253.47 114.435C252.708 116.078 252.302 117.864 252.28 119.675C252.28 122.545 253.02 125.935 250.92 127.895C249.979 128.569 248.974 129.148 247.92 129.625C244.08 131.975 243.62 137.275 243.59 141.785" fill="black"/>
<path d="M302.35 62.1653C304.48 63.0853 305.72 65.3253 306.54 67.4953C307.36 69.6653 307.92 72.0153 309.34 73.8553C310.76 75.6953 312.71 76.7253 314.09 78.4653C317.78 82.9453 316.24 89.5653 317.18 95.2953C317.969 99.9029 320.43 104.058 324.09 106.965C325.666 108.031 327.17 109.2 328.59 110.465C331.76 113.695 332.35 118.595 332.75 123.105" fill="black"/>
<path d="M311.28 101.465C311.67 107.105 317.98 110.465 320.04 115.705C322.59 122.245 317.98 129.755 319.86 136.515C320.33 138.225 321.21 139.815 321.64 141.515C322.07 143.215 321.98 145.265 320.73 146.515" fill="black"/>
<path d="M257.68 147.525C256.834 146.087 256.44 144.427 256.549 142.762C256.658 141.096 257.264 139.502 258.29 138.185C260.18 135.845 263.36 134.565 264.61 131.815C265.61 129.725 265.14 127.265 264.4 125.095C263.66 122.925 262.61 120.815 262.33 118.535C261.6 112.785 265.78 106.675 263.27 101.455" fill="black"/>
<path d="M309.87 56.8053C276.68 51.6353 255.96 73.3953 255.96 73.3953C255.96 73.3953 280.83 53.6953 310.71 60.2753C310.29 58.3353 309.87 56.8053 309.87 56.8053Z" fill="#003682"/>
<path d="M329.81 238.355V230.995C277.81 247.155 249.81 236.165 249.81 236.165L252.57 246.465C260.77 248.575 287.46 252.955 329.81 238.355Z" fill="#C66A05"/>
<path d="M300.39 98.4253C305.626 98.4253 309.87 94.181 309.87 88.9453C309.87 83.7097 305.626 79.4653 300.39 79.4653C295.154 79.4653 290.91 83.7097 290.91 88.9453C290.91 94.181 295.154 98.4253 300.39 98.4253Z" stroke="white" stroke-width="1.29" stroke-miterlimit="10"/>
<path d="M273.53 98.4253C278.766 98.4253 283.01 94.181 283.01 88.9453C283.01 83.7097 278.766 79.4653 273.53 79.4653C268.294 79.4653 264.05 83.7097 264.05 88.9453C264.05 94.181 268.294 98.4253 273.53 98.4253Z" stroke="white" stroke-width="1.29" stroke-miterlimit="10"/>
<path d="M282.99 89.5853C284.225 88.9817 285.58 88.6639 286.954 88.6552C288.329 88.6466 289.688 88.9473 290.93 89.5353" stroke="white" stroke-width="1.29" stroke-miterlimit="10"/>
<g style="mix-blend-mode:screen" opacity="0.4">
<path d="M269.711 79.5703L267.657 82.063L281.425 93.4082L283.479 90.9155L269.711 79.5703Z" fill="white"/>
<path d="M265.628 84.685L263.573 87.1777L277.341 98.523L279.395 96.0303L265.628 84.685Z" fill="white"/>
</g>
<g style="mix-blend-mode:screen" opacity="0.4">
<path d="M296.579 79.5637L294.525 82.0564L308.292 93.4016L310.347 90.9089L296.579 79.5637Z" fill="white"/>
<path d="M292.489 84.6863L290.435 87.179L304.203 98.5242L306.257 96.0315L292.489 84.6863Z" fill="white"/>
</g>
<path d="M340.22 135.465C344.528 140.896 347.957 146.97 350.38 153.465C351.586 156.712 352.621 160.02 353.48 163.375C354.38 166.715 355.19 170.075 355.95 173.445C357.41 180.205 358.71 186.995 359.65 193.845C360.733 200.679 361.175 207.599 360.97 214.515C361.022 211.065 360.858 207.615 360.48 204.185C360.14 200.745 359.7 197.322 359.16 193.915C358.12 187.102 356.84 180.325 355.32 173.585C354.58 170.215 353.79 166.865 352.91 163.525C352.03 160.185 351.08 156.875 349.91 153.645C348.744 150.403 347.347 147.248 345.73 144.205C344.136 141.146 342.293 138.223 340.22 135.465Z" fill="#FF92C2"/>
<path d="M241.32 135.465C239.244 138.223 237.398 141.146 235.8 144.205C234.183 147.248 232.786 150.403 231.62 153.645C230.45 156.875 229.49 160.185 228.62 163.525C227.75 166.865 226.95 170.215 226.22 173.585C224.71 180.315 223.41 187.105 222.37 193.915C221.83 197.325 221.37 200.745 221.05 204.185C220.682 207.616 220.518 211.065 220.56 214.515C220.36 207.599 220.802 200.68 221.88 193.845C222.82 186.995 224.12 180.205 225.59 173.445C226.343 170.079 227.167 166.722 228.06 163.375C228.919 160.02 229.954 156.712 231.16 153.465C233.575 146.967 237.005 140.891 241.32 135.465Z" fill="#FF92C2"/>
<path d="M270.69 248.725C267.46 248.645 264.61 248.435 262.12 248.165L260.38 238.925V238.635C263.601 239.131 266.845 239.464 270.1 239.635L270.69 248.725Z" fill="#FB9100"/>
<path d="M298.71 238.165L296.39 246.875C293.8 247.295 291.31 247.625 288.93 247.875L287.93 239.365C291.32 239.115 294.91 238.715 298.71 238.165Z" fill="#FB9100"/>
<path d="M325.37 232.315L324.64 240.065C322.833 240.632 321.053 241.172 319.3 241.685L316.78 234.615C319.56 233.935 322.43 233.175 325.37 232.315Z" fill="#FB9100"/>
<path d="M234.02 112.305V101.405C234.004 100.606 233.676 99.8444 233.106 99.2837C232.536 98.723 231.77 98.4077 230.97 98.4053H171.89C171.091 98.4077 170.324 98.723 169.754 99.2837C169.184 99.8444 168.856 100.606 168.84 101.405V129.305C168.856 130.105 169.184 130.866 169.754 131.427C170.324 131.988 171.091 132.303 171.89 132.305H230.97C231.77 132.303 232.536 131.988 233.106 131.427C233.676 130.866 234.004 130.105 234.02 129.305V122.465L241.28 117.365L234.02 112.305Z" fill="#E6E6E6"/>
<path d="M234.02 109.855V103.225H168.84V126.855C168.84 127.254 168.919 127.648 169.073 128.015C169.227 128.382 169.452 128.715 169.736 128.995C170.02 129.274 170.357 129.494 170.727 129.641C171.096 129.789 171.492 129.862 171.89 129.855H230.97C231.368 129.862 231.764 129.789 232.133 129.641C232.503 129.494 232.84 129.274 233.124 128.995C233.408 128.715 233.633 128.382 233.787 128.015C233.941 127.648 234.02 127.254 234.02 126.855V120.045L241.28 114.945L234.02 109.855Z" fill="white"/>
<path d="M234.02 98.9553C234.02 98.557 233.941 98.1628 233.787 97.7955C233.633 97.4283 233.408 97.0953 233.124 96.8161C232.84 96.5368 232.503 96.3169 232.133 96.1691C231.764 96.0213 231.368 95.9486 230.97 95.9553H171.89C171.492 95.9486 171.096 96.0213 170.727 96.1691C170.357 96.3169 170.02 96.5368 169.736 96.8161C169.452 97.0953 169.227 97.4283 169.073 97.7955C168.919 98.1628 168.84 98.557 168.84 98.9553V103.225H234.02V98.9553Z" fill="#FB9100"/>
<path d="M208.63 108.195H194.29C193.478 108.195 192.82 108.853 192.82 109.665V109.955C192.82 110.767 193.478 111.425 194.29 111.425H208.63C209.442 111.425 210.1 110.767 210.1 109.955V109.665C210.1 108.853 209.442 108.195 208.63 108.195Z" fill="#7298C3"/>
<path d="M226.04 114.945H194.29C193.478 114.945 192.82 115.603 192.82 116.415V116.705C192.82 117.517 193.478 118.175 194.29 118.175H226.04C226.852 118.175 227.51 117.517 227.51 116.705V116.415C227.51 115.603 226.852 114.945 226.04 114.945Z" fill="#C3D4E6"/>
<path d="M213.24 121.405H194.29C193.478 121.405 192.82 122.063 192.82 122.875V123.165C192.82 123.977 193.478 124.635 194.29 124.635H213.24C214.052 124.635 214.71 123.977 214.71 123.165V122.875C214.71 122.063 214.052 121.405 213.24 121.405Z" fill="#C3D4E6"/>
<path d="M226.04 121.405H218.02C217.208 121.405 216.55 122.063 216.55 122.875V123.165C216.55 123.977 217.208 124.635 218.02 124.635H226.04C226.852 124.635 227.51 123.977 227.51 123.165V122.875C227.51 122.063 226.852 121.405 226.04 121.405Z" fill="#C3D4E6"/>
<path d="M179.92 123.015C184.012 123.015 187.33 119.698 187.33 115.605C187.33 111.513 184.012 108.195 179.92 108.195C175.828 108.195 172.51 111.513 172.51 115.605C172.51 119.698 175.828 123.015 179.92 123.015Z" fill="#752994"/>
<path d="M183.15 113.335C183.15 113.974 182.96 114.599 182.606 115.13C182.251 115.661 181.746 116.075 181.156 116.319C180.566 116.564 179.916 116.628 179.29 116.503C178.663 116.379 178.088 116.071 177.636 115.619C177.184 115.167 176.877 114.592 176.752 113.965C176.627 113.339 176.691 112.689 176.936 112.099C177.18 111.509 177.594 111.004 178.125 110.65C178.657 110.295 179.281 110.105 179.92 110.105C180.777 110.105 181.598 110.446 182.204 111.051C182.81 111.657 183.15 112.479 183.15 113.335Z" fill="#FB9100"/>
<path d="M179.92 123.025C181.16 123.025 182.38 122.714 183.469 122.12C184.557 121.526 185.479 120.668 186.15 119.625C185.684 118.006 184.609 116.629 183.15 115.785C182.778 116.288 182.293 116.696 181.735 116.977C181.177 117.259 180.56 117.405 179.935 117.405C179.31 117.405 178.693 117.259 178.135 116.977C177.577 116.696 177.092 116.288 176.72 115.785C175.258 116.626 174.182 118.004 173.72 119.625C174.388 120.664 175.305 121.52 176.388 122.114C177.471 122.707 178.685 123.021 179.92 123.025Z" fill="#FB9100"/>
<path d="M158.9 236.255V238.965V239.965V242.095H239.27V236.285L158.9 236.255Z" fill="#E6E6E6"/>
<path d="M239.27 187.335H158.9V239.835H239.27V187.335Z" fill="#1B5A96"/>
<path d="M239.27 229.855H158.9V239.835H239.27V229.855Z" fill="#FB9100"/>
<path d="M162.59 233.155H161.31V237.445H162.59V233.155Z" fill="#FFF6EB"/>
<path d="M164.77 233.155H163.49V237.445H164.77V233.155Z" fill="#FFF6EB"/>
<path d="M166.95 233.155H165.67V237.445H166.95V233.155Z" fill="#FFF6EB"/>
<path d="M169.13 233.155H167.85V237.445H169.13V233.155Z" fill="#FFF6EB"/>
<path d="M171.32 233.155H170.04V237.445H171.32V233.155Z" fill="#FFF6EB"/>
<path d="M234.18 237.565C235.428 237.565 236.44 236.553 236.44 235.305C236.44 234.057 235.428 233.045 234.18 233.045C232.932 233.045 231.92 234.057 231.92 235.305C231.92 236.553 232.932 237.565 234.18 237.565Z" fill="#FFF6EB"/>
<path d="M194.72 203.705V215.955L203.45 209.835L194.72 203.705Z" fill="#FFF6EB"/>
<path d="M208.7 203.705H235.79C235.9 203.705 235.58 203.045 235.54 202.995C235.343 202.767 235.076 202.612 234.78 202.555C234.286 202.45 233.775 202.45 233.28 202.555C232.75 202.635 232.56 202.865 232.38 202.395C232.301 201.791 232.301 201.179 232.38 200.575C232.38 199.525 232.27 197.955 230.98 197.695C228.38 197.175 227.37 201.145 227.2 201.855C227.39 200.975 228.37 195.785 224.88 195.785C221.19 195.785 220.43 200.345 220.38 200.635C220.38 200.345 221.02 195.785 216.97 195.785C212.92 195.785 213.91 202.075 213.91 202.075C213.91 202.075 210.57 199.705 208.57 201.225C207.38 202.165 208.02 203.115 208.7 203.705Z" fill="#FFF6EB"/>
<path d="M179.59 217.685C177.26 215.905 173.36 218.685 173.36 218.685C173.36 218.685 174.68 211.345 169.79 211.345C165.05 211.345 165.79 216.665 165.79 217.005C165.74 216.665 164.85 211.345 160.54 211.345C159.941 211.324 159.351 211.5 158.86 211.845V220.595H179.49C180.28 219.885 181.03 218.775 179.59 217.685Z" fill="#FFF6EB"/>
<path d="M239.27 229.855H158.9V230.635H239.27V229.855Z" fill="#FF2C00"/>
<path d="M423.27 183.355H350.44V193.795H423.27V183.355Z" fill="#E6E6E6"/>
<path d="M423.29 109.985H350.46V191.335H423.29V109.985Z" fill="white"/>
<mask id="mask0_92_4422" style="mask-type:luminance" maskUnits="userSpaceOnUse" x="356" y="125" width="62" height="56">
<path d="M417.4 125.625H356.34V180.565H417.4V125.625Z" fill="white"/>
</mask>
<g mask="url(#mask0_92_4422)">
<path d="M417.4 125.625H356.34V180.565H417.4V125.625Z" fill="#FB9100"/>
<path d="M417.39 163.435H356.33V180.565H417.39V163.435Z" fill="#1B5A96"/>
<path d="M406.63 168.465L406.91 157.465C406.91 157.465 407.07 152.575 407.84 150.775C408.738 148.353 408.738 145.688 407.84 143.265C406.84 140.875 404.84 138.145 403.49 137.655C403.49 137.655 396.25 144.895 394.29 147.175C392.33 149.455 388.73 153.975 387.48 155.715C386.23 157.455 382.53 162.355 377.48 160.825C377.013 160.572 376.492 160.435 375.961 160.427C375.43 160.418 374.905 160.538 374.43 160.775C373.07 161.645 366.16 163.975 363.06 165.775C363.06 165.775 361.53 166.775 362.67 167.775C363.81 168.775 380.12 170.555 385.36 169.905C390.6 169.255 391.03 166.645 391.03 166.645C391.03 166.645 395.93 157.725 398.49 156.255C401.05 154.785 402.14 153.395 404.58 154.185C404.58 154.185 405.24 154.465 405.18 156.095C405.12 157.725 404.9 168.225 404.9 168.225L405.39 168.665L406.63 168.465Z" fill="#450113"/>
<path d="M382.85 164.395C381.5 164.525 380.139 164.331 378.88 163.828C377.62 163.325 376.499 162.529 375.61 161.505C374.2 159.705 377.61 161.885 381.14 160.855H381.19C384.31 159.975 386.56 156.985 387.48 155.705C388.73 153.965 392.33 149.455 394.29 147.165C395.98 145.165 401.62 139.525 403.12 138.025C403.29 138.095 403.33 138.315 403.12 138.795C402.36 140.425 391.46 156.195 391.46 156.195C391.46 156.195 386.01 164.175 382.85 164.395Z" fill="#F5E9B6"/>
<path d="M358.64 143.975C358.496 146.151 358.739 148.335 359.36 150.425C360.281 148.447 360.84 146.32 361.01 144.145C361.156 141.97 360.915 139.787 360.3 137.695C359.373 139.672 358.811 141.799 358.64 143.975Z" fill="#00CCBE"/>
<path d="M359.76 156.465C357.702 157.189 355.789 158.273 354.11 159.665C358.52 159.821 362.828 158.323 366.19 155.465C364.005 155.416 361.827 155.754 359.76 156.465Z" fill="#00CCBE"/>
<path d="M353.74 162.885C351.561 162.722 349.371 162.945 347.27 163.545C351.233 165.47 355.771 165.851 360 164.615C358.032 163.673 355.913 163.087 353.74 162.885Z" fill="#00CCBE"/>
<path d="M364.15 149.145C362.091 149.868 360.178 150.951 358.5 152.345C362.902 152.521 367.211 151.045 370.58 148.205C368.398 148.136 366.221 148.455 364.15 149.145Z" fill="#00CCBE"/>
<path d="M367.29 143.465C365.148 143.882 363.096 144.674 361.23 145.805C365.559 146.621 370.036 145.787 373.78 143.465C371.634 143.081 369.436 143.081 367.29 143.465Z" fill="#00CCBE"/>
<path d="M336.27 164.965C346.82 165.155 351.96 162.025 354.7 159.145C359.79 153.815 358.57 146.305 365.12 142.145C366.644 141.148 368.258 140.295 369.94 139.595" stroke="#FD165D" stroke-width="0.56" stroke-linecap="round" stroke-linejoin="round"/>
<path d="M374.51 137.645C372.366 138.057 370.314 138.849 368.45 139.985C372.779 140.792 377.253 139.957 381 137.645C378.854 137.259 376.656 137.259 374.51 137.645Z" fill="#00CCBE"/>
<path d="M368.92 133.575C368.62 135.737 368.708 137.935 369.18 140.065C371.338 136.24 371.991 131.747 371.01 127.465C369.958 129.362 369.25 131.431 368.92 133.575Z" fill="#00CCBE"/>
<path d="M419.68 178.255C421.67 179.151 423.485 180.394 425.04 181.925C420.637 181.721 416.468 179.881 413.35 176.765C415.532 176.881 417.676 177.385 419.68 178.255Z" fill="#00CCBE"/>
<path d="M415.92 170.615C417.908 171.516 419.722 172.758 421.28 174.285C416.878 174.085 412.709 172.248 409.59 169.135C411.771 169.25 413.914 169.751 415.92 170.615Z" fill="#00CCBE"/>
<path d="M413.27 164.725C415.37 165.322 417.347 166.287 419.11 167.575C414.728 168.011 410.341 166.803 406.8 164.185C408.972 163.982 411.162 164.165 413.27 164.725Z" fill="#00CCBE"/>
<path d="M442.36 188.755C431.83 188.045 426.97 184.495 424.48 181.395C419.87 175.655 421.73 168.265 415.55 163.595C414.116 162.47 412.579 161.482 410.96 160.645" stroke="#FD165D" stroke-width="0.56" stroke-linecap="round" stroke-linejoin="round"/>
<path d="M406.58 158.275C408.68 158.872 410.657 159.837 412.42 161.125C408.032 161.566 403.636 160.358 400.09 157.735C402.268 157.53 404.466 157.713 406.58 158.275Z" fill="#00CCBE"/>
<path d="M412.5 154.705C412.608 156.883 412.331 159.064 411.68 161.145C410.787 159.155 410.255 157.022 410.11 154.845C410.002 152.664 410.28 150.48 410.93 148.395C411.822 150.389 412.353 152.526 412.5 154.705Z" fill="#00CCBE"/>
</g>
<path d="M362.95 118.165C362.95 118.818 362.756 119.457 362.393 120C362.03 120.543 361.514 120.966 360.911 121.215C360.307 121.464 359.643 121.529 359.003 121.401C358.362 121.273 357.774 120.958 357.313 120.495C356.852 120.033 356.538 119.444 356.412 118.803C356.286 118.162 356.353 117.498 356.604 116.895C356.855 116.293 357.28 115.778 357.824 115.417C358.368 115.055 359.007 114.863 359.66 114.865C360.093 114.865 360.522 114.951 360.921 115.117C361.321 115.283 361.684 115.526 361.99 115.832C362.296 116.139 362.538 116.503 362.703 116.903C362.867 117.303 362.951 117.732 362.95 118.165Z" fill="#FB9100"/>
<path d="M385.64 116.805H366.86C366.17 116.805 365.61 117.365 365.61 118.055V118.285C365.61 118.976 366.17 119.535 366.86 119.535H385.64C386.33 119.535 386.89 118.976 386.89 118.285V118.055C386.89 117.365 386.33 116.805 385.64 116.805Z" fill="#FB9100"/>
<path d="M362.38 184.095C361.38 182.805 359.84 184.855 359.84 184.855C359.84 184.855 358.31 182.855 357.3 184.085C356.29 185.315 359.84 187.725 359.84 187.725C359.84 187.725 363.39 185.375 362.38 184.095Z" stroke="#003682" stroke-width="0.34" stroke-miterlimit="10"/>
<path d="M368.74 185.465C368.742 185.091 368.633 184.725 368.426 184.412C368.22 184.1 367.925 183.857 367.58 183.712C367.235 183.567 366.855 183.528 366.487 183.6C366.12 183.672 365.782 183.851 365.517 184.115C365.252 184.379 365.071 184.716 364.997 185.083C364.923 185.45 364.96 185.83 365.103 186.176C365.246 186.522 365.488 186.818 365.799 187.026C366.11 187.234 366.476 187.345 366.85 187.345C367.036 187.344 367.221 187.317 367.4 187.265L368.16 187.695L368.03 186.935C368.25 186.758 368.428 186.535 368.551 186.28C368.674 186.026 368.738 185.748 368.74 185.465Z" stroke="#003682" stroke-width="0.34" stroke-miterlimit="10"/>
<path d="M371.15 184.055L372.85 185.635L372.29 188.135L376.41 184.065L371.15 184.055Z" stroke="#003682" stroke-width="0.34" stroke-miterlimit="10"/>
<path d="M372.85 185.635L376.41 184.065" stroke="#003682" stroke-width="0.34" stroke-miterlimit="10"/>
<path d="M373.78 237.005C370.638 236.999 367.596 238.112 365.2 240.145L355.52 237.975L360.74 247.605C360.18 250.298 360.468 253.098 361.564 255.62C362.66 258.142 364.51 260.263 366.861 261.691C369.211 263.119 371.946 263.783 374.69 263.593C377.434 263.404 380.051 262.369 382.182 260.631C384.314 258.893 385.854 256.537 386.593 253.888C387.331 251.239 387.23 248.426 386.305 245.836C385.38 243.247 383.675 241.007 381.425 239.426C379.175 237.844 376.49 236.999 373.74 237.005H373.78Z" fill="#E6E6E6"/>
<path d="M373.78 234.575C370.638 234.569 367.596 235.682 365.2 237.715L355.52 235.545L360.74 245.175C360.559 246.067 360.468 246.975 360.47 247.885C360.47 250.518 361.251 253.091 362.713 255.28C364.176 257.469 366.254 259.175 368.687 260.182C371.119 261.189 373.795 261.453 376.377 260.939C378.959 260.426 381.33 259.158 383.192 257.297C385.053 255.435 386.321 253.064 386.834 250.482C387.348 247.9 387.084 245.224 386.077 242.792C385.069 240.36 383.363 238.281 381.175 236.818C378.986 235.356 376.412 234.575 373.78 234.575Z" fill="#1B5A96"/>
<path d="M378.25 239.845L377.97 239.755L377.33 239.565L373.43 252.625C372.815 251.798 371.943 251.2 370.95 250.925C368.95 250.325 366.95 251.015 366.5 252.465C366.05 253.915 367.36 255.585 369.38 256.185C371.4 256.785 373.38 256.105 373.83 254.655L377.01 244.005C378.24 242.765 380.42 247.765 380.42 247.765C381.42 244.385 378.25 239.845 378.25 239.845Z" fill="#FFF6EB"/>
<path d="M276.96 140.955C273.24 139.345 272.31 145.645 272.31 145.645C272.31 145.645 266.52 142.985 265.84 146.985C265.16 150.985 275.72 151.935 275.72 151.935C275.72 151.935 280.68 142.565 276.96 140.955Z" fill="#FB9100"/>
<path d="M263.98 135.555C262.76 132.875 259.19 135.825 259.19 135.825C259.19 135.825 257.36 131.585 255.05 133.405C252.74 135.225 257.98 140.885 257.98 140.885C257.98 140.885 265.21 138.235 263.98 135.555Z" fill="#FB9100"/>
<path d="M237.51 75.9053C235.01 74.3453 233.65 78.7553 233.65 78.7553C233.65 78.7553 229.79 76.2153 228.86 79.0053C227.93 81.7953 235.4 83.6553 235.4 83.6553C235.4 83.6553 240 77.4653 237.51 75.9053Z" fill="#1B5A96"/>
<path d="M338.94 51.3653C336.39 49.8853 335.17 54.3653 335.17 54.3653C335.17 54.3653 331.23 51.9453 330.39 54.7653C329.55 57.5853 337.09 59.1953 337.09 59.1953C337.09 59.1953 341.48 52.8553 338.94 51.3653Z" fill="#FB9100"/>
<path d="M208.97 162.465C206.42 160.975 205.2 165.465 205.2 165.465C205.2 165.465 201.26 163.055 200.42 165.875C199.58 168.695 207.12 170.305 207.12 170.305C207.12 170.305 211.51 163.985 208.97 162.465Z" fill="#FB9100"/>
<path d="M347.76 230.555C347.43 227.635 343.13 229.325 343.13 229.325C343.13 229.325 342.71 224.715 339.94 225.735C337.17 226.755 340.39 233.735 340.39 233.735C340.39 233.735 348.09 233.465 347.76 230.555Z" fill="#1B5A96"/>
<path d="M363.78 78.6852C362.42 74.8652 357.18 78.4652 357.18 78.4652C357.18 78.4652 355.18 72.4652 351.8 74.6552C348.42 76.8452 354.9 85.2552 354.9 85.2552C354.9 85.2552 365.14 82.4652 363.78 78.6852Z" fill="#1B5A96"/>
<path d="M183.54 156.485C183.54 146.119 175.136 137.715 164.77 137.715C154.404 137.715 146 146.119 146 156.485C146 166.852 154.404 175.255 164.77 175.255C175.136 175.255 183.54 166.852 183.54 156.485Z" fill="black"/>
<path d="M175.93 150.665C174.426 150.665 172.984 150.068 171.921 149.005C170.857 147.941 170.26 146.499 170.26 144.995H166V161.465C166.002 162.153 165.8 162.825 165.419 163.397C165.039 163.969 164.497 164.415 163.863 164.679C163.228 164.943 162.53 165.013 161.856 164.879C161.182 164.746 160.562 164.415 160.076 163.929C159.591 163.443 159.26 162.824 159.126 162.15C158.993 161.476 159.062 160.777 159.326 160.143C159.59 159.508 160.036 158.967 160.608 158.586C161.181 158.205 161.853 158.003 162.54 158.005C162.909 158.004 163.276 158.054 163.63 158.155V153.825C163.269 153.774 162.905 153.747 162.54 153.745C161.013 153.745 159.521 154.198 158.251 155.046C156.982 155.895 155.992 157.1 155.408 158.511C154.823 159.922 154.671 161.474 154.968 162.971C155.266 164.469 156.002 165.845 157.081 166.924C158.161 168.004 159.536 168.739 161.034 169.037C162.532 169.335 164.084 169.182 165.494 168.598C166.905 168.013 168.111 167.024 168.959 165.754C169.807 164.485 170.26 162.992 170.26 161.465V152.755C171.862 154.057 173.866 154.763 175.93 154.755V150.665Z" fill="#FF0B53"/>
<path d="M174.73 149.465C173.985 149.466 173.246 149.321 172.557 149.036C171.868 148.752 171.242 148.335 170.714 147.808C170.187 147.281 169.768 146.656 169.483 145.967C169.197 145.279 169.05 144.541 169.05 143.795H164.8V160.255C164.8 160.941 164.597 161.612 164.215 162.183C163.834 162.754 163.292 163.198 162.658 163.461C162.024 163.724 161.326 163.792 160.653 163.658C159.98 163.525 159.362 163.194 158.876 162.709C158.391 162.224 158.061 161.605 157.927 160.932C157.793 160.259 157.862 159.561 158.124 158.927C158.387 158.293 158.832 157.751 159.402 157.37C159.973 156.989 160.644 156.785 161.33 156.785C161.699 156.786 162.066 156.84 162.42 156.945V152.615C160.862 152.393 159.274 152.652 157.867 153.358C156.461 154.064 155.304 155.183 154.551 156.564C153.798 157.946 153.486 159.525 153.655 161.089C153.825 162.654 154.468 164.129 155.499 165.318C156.531 166.506 157.901 167.351 159.426 167.739C160.951 168.127 162.558 168.04 164.032 167.49C165.506 166.939 166.777 165.951 167.673 164.658C168.57 163.365 169.051 161.829 169.05 160.255V151.545C170.658 152.844 172.663 153.55 174.73 153.545V149.465Z" fill="#00F0E9"/>
<path d="M174.73 150.535C173.467 150.055 172.319 149.313 171.363 148.359C170.406 147.404 169.662 146.258 169.18 144.995H166V161.465C165.888 162.218 165.569 162.925 165.079 163.508C164.588 164.09 163.946 164.525 163.223 164.763C162.5 165.002 161.725 165.035 160.985 164.859C160.244 164.683 159.567 164.305 159.029 163.767C158.49 163.229 158.112 162.551 157.936 161.811C157.76 161.07 157.793 160.295 158.032 159.572C158.271 158.849 158.705 158.207 159.288 157.717C159.87 157.226 160.577 156.907 161.33 156.795C161.699 156.797 162.066 156.85 162.42 156.955V153.755C160.964 153.657 159.513 154.006 158.262 154.757C157.011 155.507 156.02 156.623 155.423 157.954C154.825 159.285 154.65 160.767 154.92 162.201C155.19 163.635 155.893 164.951 156.934 165.974C157.975 166.996 159.304 167.675 160.743 167.918C162.181 168.162 163.66 167.96 164.979 167.338C166.299 166.716 167.397 165.705 168.125 164.441C168.852 163.176 169.175 161.719 169.05 160.265V151.555C170.658 152.854 172.663 153.561 174.73 153.555V150.535Z" fill="white"/>
</g>
<defs>
<clipPath id="clip0_92_4422">
<rect width="570" height="324" fill="white"/>
</clipPath>
</defs>
</svg>
