<svg width="570" height="324" viewBox="0 0 570 324" fill="none" xmlns="http://www.w3.org/2000/svg">
<g clip-path="url(#clip0_134_1241)">
<rect width="570" height="324" fill="#FFF6EB"/>
<path d="M486.065 292.996H83.7149C83.517 292.979 83.3354 292.92 83.2039 292.829C83.0725 292.738 83 292.621 83 292.5C83 292.379 83.0725 292.262 83.2039 292.171C83.3354 292.08 83.517 292.021 83.7149 292.004H486.065C486.182 291.995 486.3 292.001 486.413 292.021C486.526 292.042 486.63 292.077 486.718 292.124C486.807 292.171 486.878 292.228 486.926 292.293C486.975 292.358 487 292.429 487 292.5C487 292.571 486.975 292.642 486.926 292.707C486.878 292.772 486.807 292.829 486.718 292.876C486.63 292.923 486.526 292.958 486.413 292.979C486.3 292.999 486.182 293.005 486.065 292.996Z" fill="#1E1E1E"/>
<g clip-path="url(#clip1_134_1241)">
<path opacity="0.4" d="M193.285 56.8768C193.285 56.8768 193.868 59.9042 195.072 65.1505C196.277 70.3969 198.113 77.8719 200.611 86.7669C203.108 95.662 206.267 105.967 210.088 116.854C213.909 127.741 218.41 139.22 223.465 150.433C228.4 161.428 233.975 172.127 240.159 182.473C243.121 187.403 246.191 192.068 249.242 196.377C252.293 200.687 255.343 204.651 258.295 208.211C261.247 211.771 264.11 214.858 266.726 217.53L268.641 219.453C269.263 220.065 269.885 220.637 270.468 221.199C271.633 222.323 272.758 223.299 273.755 224.157L274.486 224.818L275.197 225.41L276.48 226.484C277.27 227.165 277.971 227.707 278.534 228.151L280.271 229.512C280.336 229.562 280.39 229.625 280.431 229.697C280.471 229.768 280.497 229.847 280.507 229.928C280.517 230.01 280.511 230.093 280.489 230.172C280.467 230.251 280.43 230.325 280.38 230.39C280.329 230.454 280.266 230.509 280.195 230.549C280.123 230.59 280.044 230.616 279.963 230.626C279.881 230.636 279.798 230.63 279.719 230.608C279.64 230.586 279.566 230.549 279.501 230.498L277.754 229.117C277.191 228.664 276.48 228.131 275.68 227.431C275.285 227.086 274.851 226.721 274.387 226.337L273.676 225.725L272.946 225.064C271.958 224.157 270.803 223.171 269.638 222.037C269.056 221.465 268.424 220.893 267.802 220.272L265.877 218.299C263.251 215.597 260.378 212.452 257.416 208.882C254.455 205.312 251.404 201.318 248.354 196.979C245.303 192.64 242.252 187.936 239.281 182.966C233.115 172.569 227.564 161.822 222.656 150.778C217.621 139.506 213.148 127.998 209.367 117.071C205.586 106.145 202.457 95.8198 199.989 86.9148C195.052 69.0853 192.762 56.9458 192.762 56.9458C192.75 56.8779 192.765 56.8082 192.804 56.7512C192.843 56.6942 192.902 56.6544 192.969 56.6401C193.006 56.633 193.043 56.6337 193.08 56.6421C193.116 56.6504 193.15 56.6662 193.18 56.6885C193.209 56.7108 193.234 56.7391 193.252 56.7715C193.271 56.8039 193.282 56.8398 193.285 56.8768Z" fill="white"/>
<path opacity="0.4" d="M166.008 104.803C166.008 104.803 166.63 107.091 167.864 111.046C168.486 113.018 169.236 115.424 170.154 118.156C171.072 120.888 172.129 123.974 173.323 127.317C174.518 130.66 175.86 134.22 177.351 138.066C178.842 141.912 180.441 145.827 182.159 149.9C183.877 153.973 185.743 158.184 187.727 162.404L189.208 165.58L190.758 168.755C191.745 170.875 192.861 172.986 193.937 175.096C194.203 175.619 194.47 176.151 194.746 176.674L195.576 178.242L197.244 181.368C198.37 183.429 199.535 185.48 200.67 187.512L202.437 190.47L203.306 191.959L203.75 192.699L204.194 193.429L205.991 196.318C206.583 197.304 207.166 198.231 207.788 199.148C210.197 202.876 212.625 206.406 215.024 209.69C215.636 210.499 216.229 211.308 216.821 212.096L217.7 213.28C217.986 213.664 218.302 214.039 218.598 214.414L220.355 216.613L221.205 217.688C221.491 218.043 221.757 218.388 222.054 218.674L225.371 222.53L225.766 222.993L226.17 223.427L226.96 224.275L228.48 225.903L229.902 227.431L231.284 228.792L233.723 231.198C234.088 231.563 234.453 231.888 234.799 232.184L235.786 233.042L237.306 234.403L238.6 235.665C238.689 235.767 238.738 235.897 238.738 236.032C238.738 236.167 238.688 236.297 238.598 236.398C238.508 236.499 238.384 236.563 238.25 236.579C238.115 236.595 237.98 236.561 237.869 236.484L236.596 235.34L235.036 233.989L234.049 233.111C233.703 232.806 233.338 232.48 232.972 232.125L230.524 229.689L229.132 228.319L227.74 226.741L226.2 225.114L225.41 224.256L225.005 223.812L224.61 223.348L221.293 219.453C220.997 219.118 220.721 218.763 220.434 218.408L219.585 217.323L217.868 215.085C217.571 214.71 217.265 214.335 216.969 213.941C216.673 213.546 216.387 213.152 216.1 212.747L214.264 210.321C211.865 207.018 209.446 203.418 207.038 199.71C206.416 198.783 205.843 197.827 205.251 196.86L203.454 193.951L203.01 193.222L202.575 192.472C202.279 191.979 201.993 191.486 201.697 190.973L199.939 188.015C198.814 185.973 197.659 183.912 196.533 181.832L194.875 178.696L194.045 177.118C193.769 176.595 193.512 176.063 193.246 175.53C192.18 173.42 191.094 171.299 190.087 169.169L188.547 165.945C188.053 164.88 187.559 163.815 187.076 162.75C185.101 158.519 183.285 154.298 181.547 150.206C179.809 146.113 178.23 142.109 176.779 138.303C175.327 134.496 173.995 130.877 172.83 127.524C171.665 124.171 170.589 121.085 169.69 118.343C168.792 115.602 168.042 113.196 167.42 111.213C166.205 107.269 165.583 104.951 165.583 104.951C165.568 104.891 165.577 104.828 165.609 104.774C165.64 104.721 165.691 104.682 165.751 104.665C165.803 104.658 165.856 104.668 165.902 104.693C165.948 104.717 165.985 104.756 166.008 104.803Z" fill="white"/>
<path d="M239.241 31.5028C235.992 31.716 232.941 33.1355 230.686 35.4823C228.432 37.829 227.138 40.9332 227.059 44.1847C226.072 85.3958 222.725 227.608 224.304 277.902C224.384 280.472 225.44 282.916 227.26 284.735C229.079 286.555 231.525 287.613 234.098 287.694C260.526 288.562 336.534 290.751 379.756 288.937C384.091 288.76 388.195 286.938 391.233 283.844C394.27 280.749 396.012 276.614 396.104 272.281C397.003 229.019 398.987 107.357 394.278 51.6202C393.997 48.3838 392.59 45.3479 390.302 43.04C388.013 40.7322 384.987 39.2983 381.75 38.9877C353.011 36.1081 276.579 29.0769 239.241 31.5028Z" fill="black"/>
<path d="M244.079 46.463C242.455 46.6167 240.943 47.3527 239.821 48.5349C238.699 49.7171 238.044 51.2653 237.978 52.8927C236.734 81.3727 231.373 209.779 233.426 248.85C233.518 250.609 234.253 252.272 235.493 253.523C236.733 254.774 238.39 255.526 240.15 255.635C262.056 256.966 336.376 261.039 374.247 257.262C376.288 257.049 378.187 256.116 379.602 254.63C381.018 253.145 381.856 251.204 381.967 249.156C383.625 218.674 389.865 100.04 387.811 60.92C387.697 58.9098 386.863 57.0075 385.463 55.5596C384.062 54.1116 382.187 53.2142 380.18 53.0308C355.667 50.7626 273.953 43.7117 244.079 46.463Z" fill="#FFF6EB"/>
<path d="M292.365 38.7316C292.364 39.3403 292.597 39.9261 293.016 40.3683C293.435 40.8105 294.007 41.0753 294.616 41.1082C300.855 41.4336 318.438 42.3507 326.296 42.8142C326.658 42.8345 327.02 42.7719 327.354 42.6312C327.688 42.4905 327.986 42.2754 328.224 42.0024C328.462 41.7293 328.634 41.4055 328.728 41.0557C328.822 40.7059 328.834 40.3393 328.764 39.984L328.715 39.7276C328.634 39.2095 328.382 38.7333 327.999 38.3742C327.617 38.0152 327.125 37.794 326.602 37.7454C321.291 37.2523 305.268 35.9112 294.645 36.2859C294.019 36.3116 293.429 36.5828 293.002 37.0407C292.575 37.4985 292.346 38.1061 292.365 38.7316Z" fill="#FFF6EB"/>
<path d="M188.616 237.115C184.262 212.461 192.654 189.287 208.193 178.291C203.047 176.889 197.657 176.62 192.397 177.502C164.932 182.039 152.65 210.893 158.219 242.47C163.787 274.046 188.122 296.156 212.517 291.856C217.782 290.923 222.771 288.824 227.118 285.713C208.775 280.683 192.969 261.789 188.616 237.115Z" fill="#222B54"/>
<path d="M208.193 178.291C203.047 176.889 197.657 176.62 192.397 177.502C167.716 181.585 155.257 205.381 157.083 233.131C157.409 237.993 161.506 241.592 165.8 240.833L181.083 238.151C185.131 237.431 187.994 233.466 187.658 228.881C186.276 207.363 194.401 188.054 208.193 178.291Z" fill="url(#paint0_linear_134_1241)"/>
<path d="M208.193 178.291C203.047 176.889 197.657 176.62 192.397 177.502C167.716 181.585 155.257 205.381 157.083 233.131C157.409 237.993 161.506 241.592 165.8 240.833L181.083 238.151C185.131 237.431 187.994 233.466 187.658 228.881C186.276 207.363 194.401 188.054 208.193 178.291Z" fill="#1B5A96"/>
<path d="M173.004 231.443C176.859 230.764 179.564 227.832 179.046 224.892C178.528 221.953 174.982 220.12 171.127 220.799C167.271 221.477 164.566 224.41 165.084 227.349C165.603 230.288 169.148 232.121 173.004 231.443Z" fill="#FFF6EB"/>
<path d="M231.373 229.59C235.727 254.244 226.229 281.038 210.641 292.033C218.104 290.87 222.231 290.14 227.572 289.203C252.016 284.903 267.318 255.812 261.75 224.236C256.182 192.659 231.896 170.55 207.452 174.82C202.111 175.757 190.491 176.792 184.667 178.833C208.834 181.526 227.029 204.917 231.373 229.59Z" fill="#1B5A96"/>
<path d="M183.808 181.871H184.015C188.796 181.123 193.69 181.756 198.123 183.695C203.106 185.882 207.581 189.079 211.263 193.083C215.615 197.756 219.209 203.08 221.915 208.862C225.037 215.409 227.242 222.354 228.471 229.502C229.773 236.689 230.164 244.011 229.636 251.296C229.223 257.677 227.852 263.96 225.568 269.934C223.696 274.949 220.771 279.505 216.989 283.296C213.638 286.64 209.348 288.886 204.688 289.736C199.846 290.519 194.881 289.896 190.383 287.941C185.211 285.713 180.545 282.459 176.67 278.375C172.124 273.675 168.34 268.295 165.455 262.429C162.203 255.89 159.915 248.914 158.663 241.72C157.397 234.591 157.188 227.314 158.041 220.124C158.768 213.7 160.473 207.425 163.095 201.515C165.266 196.505 168.375 191.956 172.257 188.113C175.403 184.936 179.424 182.767 183.808 181.881V181.871ZM183.324 179.1C164.991 182.324 150.745 211.061 156.185 242.144C161.624 273.228 184.519 296.116 205.182 292.438C225.845 288.759 237.682 260.329 232.173 229.107C226.664 197.886 204.263 175.629 183.561 179.011L183.324 179.06V179.1Z" fill="#7D97F4"/>
<path d="M177.358 214.885C181.213 214.206 183.919 211.274 183.4 208.334C182.882 205.395 179.336 203.562 175.481 204.24C171.625 204.919 168.92 207.852 169.439 210.791C169.957 213.73 173.503 215.563 177.358 214.885Z" fill="#FFF6EB"/>
<path d="M184.565 199.335C188.42 198.657 191.177 196.016 190.722 193.436C190.267 190.856 186.773 189.314 182.917 189.992C179.062 190.671 176.305 193.312 176.76 195.892C177.215 198.472 180.71 200.014 184.565 199.335Z" fill="#FFF6EB"/>
<path d="M223.248 272.084L268.997 264.628C272.817 263.997 274.348 260.743 273.696 256.818L262.836 191.279C262.557 189.45 261.577 187.801 260.104 186.68C258.63 185.559 256.778 185.055 254.938 185.273L208.271 191.288C207.314 191.43 206.396 191.764 205.572 192.273C204.749 192.781 204.039 193.451 203.484 194.244C202.929 195.036 202.543 195.933 202.347 196.88C202.152 197.826 202.152 198.803 202.348 199.75L215.182 266.295C215.506 268.119 216.531 269.745 218.037 270.827C219.544 271.908 221.413 272.359 223.248 272.084Z" fill="#222B54"/>
<path d="M269.253 262.281C269.954 262.151 270.621 261.884 271.218 261.496C271.815 261.107 272.33 260.605 272.732 260.018C273.135 259.431 273.418 258.77 273.564 258.074C273.711 257.378 273.719 256.659 273.587 255.96L263.014 192.058C262.815 190.653 262.073 189.383 260.947 188.518C259.822 187.654 258.402 187.264 256.992 187.433L212.22 193.172H212.082C211.377 193.289 210.705 193.551 210.106 193.942C209.508 194.332 208.998 194.842 208.607 195.44C207.786 196.676 207.488 198.186 207.778 199.641L220.247 264.559C220.475 265.954 221.244 267.204 222.388 268.036C223.532 268.868 224.958 269.217 226.358 269.007L269.253 262.281Z" fill="#1B5A96"/>
<path d="M269.204 257.765C269.479 257.712 269.723 257.553 269.882 257.323C270.041 257.092 270.102 256.808 270.053 256.532L259.48 192.64C259.463 192.502 259.418 192.37 259.349 192.25C259.28 192.129 259.188 192.025 259.077 191.941C258.967 191.857 258.841 191.797 258.706 191.762C258.572 191.728 258.432 191.721 258.295 191.742L212.882 197.58C212.743 197.602 212.611 197.652 212.493 197.729C212.376 197.805 212.276 197.906 212.201 198.024C212.12 198.142 212.064 198.276 212.036 198.417C212.009 198.558 212.011 198.703 212.043 198.843L224.531 263.721C224.546 263.859 224.59 263.992 224.66 264.112C224.73 264.232 224.824 264.336 224.937 264.417C225.049 264.498 225.178 264.554 225.314 264.582C225.45 264.61 225.59 264.609 225.726 264.579L269.204 257.765Z" fill="#FB9100"/>
<path d="M259.529 252.854C259.036 253.333 258.749 253.985 258.729 254.671C258.708 255.358 258.957 256.025 259.421 256.532C259.643 256.783 259.913 256.986 260.215 257.13C260.518 257.273 260.846 257.355 261.181 257.368C261.516 257.382 261.85 257.328 262.163 257.21C262.476 257.092 262.762 256.912 263.004 256.68C263.496 256.2 263.781 255.548 263.8 254.861C263.818 254.175 263.568 253.508 263.103 253.002C262.881 252.753 262.611 252.551 262.31 252.408C262.008 252.266 261.681 252.185 261.347 252.171C261.014 252.157 260.681 252.211 260.369 252.328C260.056 252.445 259.771 252.624 259.529 252.854Z" fill="#222B54"/>
<path d="M252.65 258.875C254.03 258.632 254.946 257.288 254.696 255.872C254.446 254.456 253.125 253.505 251.745 253.747C250.365 253.99 249.449 255.335 249.699 256.751C249.948 258.167 251.27 259.118 252.65 258.875Z" fill="white"/>
<path d="M243.595 260.393C244.975 260.151 245.891 258.806 245.641 257.39C245.392 255.974 244.07 255.023 242.69 255.265C241.31 255.508 240.394 256.853 240.644 258.269C240.893 259.685 242.215 260.636 243.595 260.393Z" fill="black"/>
<path opacity="0.61" d="M232.331 257.44C231.841 257.921 231.557 258.573 231.539 259.259C231.521 259.945 231.769 260.611 232.232 261.118C232.454 261.369 232.724 261.572 233.027 261.715C233.329 261.859 233.658 261.94 233.992 261.954C234.327 261.968 234.661 261.914 234.974 261.796C235.288 261.678 235.574 261.497 235.816 261.266C236.307 260.786 236.593 260.133 236.611 259.447C236.63 258.76 236.38 258.093 235.914 257.588C235.692 257.337 235.422 257.134 235.12 256.99C234.817 256.847 234.489 256.765 234.154 256.752C233.819 256.738 233.485 256.792 233.172 256.91C232.859 257.028 232.573 257.208 232.331 257.44Z" fill="white"/>
<path d="M230.03 198.053C229.712 198.369 229.527 198.795 229.514 199.243C229.501 199.691 229.661 200.126 229.961 200.46C230.107 200.623 230.285 200.756 230.483 200.849C230.681 200.943 230.896 200.996 231.115 201.005C231.334 201.014 231.553 200.98 231.758 200.903C231.964 200.826 232.152 200.709 232.311 200.558C232.629 200.243 232.814 199.817 232.827 199.369C232.84 198.921 232.68 198.485 232.38 198.152C232.234 197.989 232.057 197.856 231.858 197.762C231.66 197.669 231.445 197.616 231.226 197.606C231.007 197.597 230.788 197.632 230.583 197.709C230.377 197.786 230.19 197.903 230.03 198.053Z" fill="#FFF6EB"/>
<path d="M224.107 199.06C223.789 199.373 223.604 199.798 223.592 200.244C223.579 200.69 223.738 201.124 224.038 201.456C224.183 201.621 224.36 201.754 224.558 201.849C224.757 201.943 224.972 201.997 225.191 202.006C225.411 202.015 225.63 201.98 225.836 201.902C226.041 201.825 226.229 201.706 226.387 201.555C226.707 201.239 226.891 200.812 226.902 200.363C226.913 199.915 226.75 199.479 226.447 199.148C226.302 198.985 226.125 198.852 225.927 198.759C225.729 198.665 225.514 198.612 225.296 198.604C225.077 198.596 224.859 198.632 224.655 198.71C224.45 198.789 224.264 198.907 224.107 199.06Z" fill="#FFF6EB"/>
<path d="M219.63 202.968C220.532 202.81 221.131 201.929 220.967 201.001C220.804 200.073 219.94 199.449 219.038 199.608C218.136 199.767 217.537 200.648 217.701 201.576C217.864 202.504 218.728 203.127 219.63 202.968Z" fill="#FFF6EB"/>
<path d="M260.714 223.812C261.656 228.724 260.64 233.808 257.883 237.982C255.126 242.157 250.846 245.09 245.955 246.158C242.201 246.978 238.287 246.65 234.722 245.219C231.156 243.787 228.105 241.318 225.963 238.131C225.247 237.064 224.642 235.927 224.156 234.738C223.666 233.552 223.296 232.32 223.051 231.06C222.812 229.799 222.697 228.517 222.705 227.234C222.735 224.374 223.406 221.557 224.668 218.99C225.931 216.423 227.753 214.171 230.001 212.399C232.249 210.628 234.865 209.382 237.659 208.752C240.452 208.123 243.351 208.127 246.142 208.763C251.021 209.872 255.272 212.841 257.989 217.037C259.325 219.099 260.25 221.4 260.714 223.812ZM258.196 224.295C257.99 223.259 257.682 222.245 257.278 221.268C256.859 220.292 256.343 219.36 255.738 218.487C254.507 216.732 252.927 215.248 251.098 214.128C249.252 212.998 247.203 212.238 245.066 211.889C242.924 211.55 240.737 211.617 238.619 212.087C234.445 212.999 230.777 215.468 228.362 218.99C227.213 220.675 226.401 222.567 225.973 224.561C225.56 226.524 225.544 228.549 225.923 230.518C226.303 232.487 227.072 234.361 228.184 236.03C229.323 237.725 230.782 239.182 232.479 240.32C236.082 242.702 240.46 243.62 244.719 242.887C248.977 242.154 252.795 239.825 255.393 236.375C256.669 234.65 257.583 232.684 258.078 230.597C258.319 229.565 258.448 228.51 258.463 227.451C258.483 226.393 258.393 225.335 258.196 224.295Z" fill="white"/>
<path d="M245.51 217.363C244.469 217.58 243.496 218.046 242.674 218.721C241.852 219.396 241.206 220.259 240.791 221.238C240.04 220.483 239.117 219.92 238.101 219.599C237.085 219.278 236.006 219.208 234.957 219.394C231.235 220.104 228.875 224.078 229.685 228.269C229.758 228.636 229.881 228.991 230.05 229.325L231.511 229.039L234.266 224.552C234.347 224.419 234.46 224.309 234.594 224.232C234.729 224.154 234.881 224.111 235.036 224.108C235.191 224.106 235.344 224.141 235.483 224.21C235.622 224.278 235.743 224.378 235.835 224.502L239.854 230.163L241.729 224.414C241.783 224.244 241.884 224.094 242.02 223.98C242.157 223.867 242.323 223.795 242.499 223.773C242.673 223.754 242.849 223.781 243.008 223.852C243.168 223.923 243.306 224.035 243.408 224.177L245.155 226.79L248.472 226.1C248.609 226.028 248.76 225.99 248.914 225.987C249.068 225.984 249.221 226.018 249.36 226.085C249.498 226.152 249.62 226.25 249.714 226.372C249.808 226.494 249.872 226.636 249.901 226.788C249.93 226.939 249.923 227.095 249.881 227.243C249.838 227.391 249.762 227.527 249.658 227.64C249.554 227.754 249.424 227.841 249.28 227.896C249.136 227.95 248.981 227.97 248.828 227.954L244.879 228.703C244.693 228.746 244.499 228.732 244.323 228.661C244.146 228.591 243.996 228.468 243.891 228.309L242.904 226.79L241.048 232.48C240.992 232.638 240.896 232.779 240.77 232.889C240.644 232.999 240.491 233.076 240.327 233.111C240.154 233.134 239.978 233.111 239.816 233.043C239.655 232.976 239.515 232.866 239.409 232.727L235.135 226.692L232.903 230.321C232.833 230.43 232.743 230.525 232.636 230.6C232.529 230.674 232.409 230.727 232.281 230.754L231.156 230.971C233.782 234.285 239.261 237.963 242.904 239.413C243.354 239.594 243.849 239.631 244.321 239.52C244.793 239.409 245.219 239.154 245.54 238.792C248.61 235.33 254.425 227.263 253.714 223.585C252.895 219.453 249.222 216.643 245.51 217.363Z" fill="white"/>
<path d="M287.764 63.0795L287.3 63.9079C287.282 63.9259 287.257 63.9361 287.231 63.9361C287.205 63.9361 287.181 63.9259 287.162 63.9079C287.147 63.89 287.138 63.8673 287.138 63.8438C287.138 63.8203 287.147 63.7975 287.162 63.7797L287.636 62.9513C287.652 62.9368 287.673 62.9287 287.695 62.9287C287.717 62.9287 287.738 62.9368 287.754 62.9513C287.77 62.9692 287.778 62.9919 287.778 63.0154C287.778 63.0389 287.77 63.0616 287.754 63.0795H287.764Z" fill="#1B5A96"/>
<path d="M286.313 65.89L285.928 66.7578C285.923 66.7718 285.915 66.7845 285.904 66.7951C285.894 66.8058 285.881 66.8142 285.867 66.8197C285.853 66.8253 285.838 66.8279 285.823 66.8274C285.808 66.827 285.794 66.8234 285.78 66.817C285.753 66.8023 285.732 66.7782 285.721 66.7492C285.71 66.7202 285.71 66.6882 285.721 66.6592L286.126 65.7914C286.144 65.7733 286.169 65.7632 286.195 65.7632C286.221 65.7632 286.245 65.7733 286.264 65.7914C286.29 65.8023 286.31 65.8228 286.321 65.8485C286.332 65.8742 286.333 65.9032 286.323 65.9294L286.313 65.89Z" fill="#1B5A96"/>
<path d="M285.109 68.8088L284.793 69.7062C284.787 69.7226 284.778 69.7377 284.767 69.7507C284.755 69.7636 284.741 69.7741 284.726 69.7814C284.71 69.7888 284.693 69.7929 284.676 69.7936C284.658 69.7942 284.641 69.7913 284.625 69.7851C284.608 69.7796 284.593 69.7708 284.58 69.7593C284.567 69.7478 284.557 69.7338 284.55 69.7181C284.542 69.7024 284.538 69.6854 284.537 69.6681C284.537 69.6508 284.54 69.6336 284.546 69.6174L284.872 68.72C284.876 68.704 284.884 68.689 284.894 68.6761C284.905 68.6633 284.918 68.6528 284.933 68.6453C284.948 68.6379 284.964 68.6336 284.981 68.6329C284.998 68.6322 285.014 68.635 285.03 68.6411C285.061 68.6543 285.087 68.6788 285.101 68.7098C285.116 68.7407 285.119 68.776 285.109 68.8088Z" fill="#1B5A96"/>
<path d="M284.141 71.8167L283.904 72.7338C283.893 72.7724 283.867 72.8051 283.832 72.8253C283.797 72.8454 283.756 72.8515 283.717 72.8423C283.679 72.8329 283.646 72.8091 283.626 72.7758C283.605 72.7426 283.599 72.7027 283.608 72.6648L283.865 71.7477C283.869 71.7291 283.877 71.7117 283.889 71.6965C283.901 71.6813 283.915 71.6687 283.932 71.6595C283.949 71.6502 283.967 71.6445 283.986 71.6427C284.005 71.6409 284.024 71.6431 284.042 71.6491C284.061 71.6535 284.078 71.6618 284.094 71.6734C284.109 71.6849 284.121 71.6995 284.131 71.7162C284.14 71.7329 284.146 71.7513 284.147 71.7703C284.149 71.7893 284.147 71.8084 284.141 71.8266V71.8167Z" fill="#1B5A96"/>
<path d="M283.42 74.8934L283.252 75.8204C283.243 75.8634 283.217 75.9009 283.18 75.9249C283.143 75.9489 283.098 75.9574 283.055 75.9486C283.032 75.9465 283.01 75.9394 282.99 75.9279C282.97 75.9164 282.953 75.9007 282.94 75.882C282.927 75.8632 282.918 75.8418 282.914 75.8192C282.91 75.7967 282.911 75.7735 282.917 75.7514L283.104 74.7652C283.108 74.7443 283.116 74.7244 283.127 74.7065C283.139 74.6887 283.153 74.6733 283.171 74.6614C283.188 74.6494 283.208 74.6411 283.229 74.6369C283.25 74.6327 283.271 74.6328 283.292 74.637C283.313 74.6406 283.333 74.6483 283.351 74.6597C283.369 74.6711 283.384 74.686 283.396 74.7035C283.408 74.721 283.416 74.7407 283.42 74.7615C283.425 74.7822 283.425 74.8036 283.42 74.8244V74.8934Z" fill="#1B5A96"/>
<path d="M282.927 78.0097L282.818 78.9959C282.816 79.0202 282.808 79.0438 282.797 79.0652C282.785 79.0865 282.768 79.1052 282.749 79.12C282.729 79.1348 282.707 79.1454 282.683 79.1512C282.66 79.157 282.635 79.1579 282.611 79.1537C282.587 79.1526 282.563 79.1465 282.542 79.1357C282.521 79.1249 282.502 79.1096 282.487 79.0909C282.472 79.0722 282.461 79.0506 282.455 79.0274C282.449 79.0042 282.449 78.98 282.453 78.9565L282.561 77.9703C282.555 77.9428 282.555 77.9142 282.561 77.8867C282.567 77.8591 282.58 77.8333 282.597 77.8112C282.615 77.7891 282.637 77.7712 282.662 77.7589C282.688 77.7466 282.716 77.7402 282.744 77.7402C282.772 77.7402 282.8 77.7466 282.826 77.7589C282.851 77.7712 282.873 77.7891 282.891 77.8112C282.909 77.8333 282.921 77.8591 282.927 77.8867C282.933 77.9142 282.933 77.9428 282.927 77.9703V78.0097Z" fill="#1B5A96"/>
<path d="M282.65 81.1356L282.601 82.1217C282.599 82.1749 282.576 82.2251 282.537 82.2618C282.498 82.2985 282.447 82.319 282.394 82.3189C282.366 82.3177 282.34 82.3111 282.315 82.2995C282.29 82.2879 282.268 82.2715 282.25 82.2514C282.232 82.2312 282.217 82.2077 282.208 82.182C282.199 82.1564 282.195 82.1292 282.196 82.102L282.256 81.1159C282.257 81.0899 282.263 81.0645 282.274 81.0411C282.285 81.0176 282.301 80.9966 282.32 80.9792C282.34 80.9618 282.362 80.9484 282.386 80.9397C282.411 80.931 282.437 80.9272 282.463 80.9285C282.514 80.9334 282.562 80.9574 282.597 80.9957C282.632 81.034 282.651 81.0839 282.65 81.1356Z" fill="#1B5A96"/>
<path d="M282.581 84.3016V85.2877C282.581 85.3462 282.559 85.4024 282.518 85.4447C282.478 85.487 282.423 85.512 282.364 85.5145C282.335 85.5159 282.305 85.5112 282.278 85.5009C282.25 85.4906 282.225 85.4749 282.204 85.4546C282.183 85.4343 282.166 85.4099 282.154 85.3829C282.143 85.356 282.137 85.3269 282.137 85.2976V84.3114C282.137 84.2539 282.16 84.1987 282.201 84.158C282.241 84.1173 282.297 84.0945 282.354 84.0945C282.382 84.0931 282.41 84.0975 282.437 84.1073C282.463 84.1171 282.487 84.1322 282.507 84.1515C282.527 84.1709 282.544 84.1942 282.555 84.22C282.566 84.2458 282.571 84.2735 282.571 84.3016H282.581Z" fill="#1B5A96"/>
<path d="M282.71 87.4568L282.789 88.4429C282.794 88.5068 282.775 88.5704 282.734 88.6201C282.693 88.6698 282.635 88.7017 282.571 88.7092C282.539 88.7119 282.507 88.7081 282.477 88.698C282.447 88.6879 282.418 88.6718 282.394 88.6506C282.371 88.6294 282.351 88.6036 282.337 88.5747C282.324 88.5458 282.316 88.5144 282.315 88.4824L282.246 87.4962C282.257 87.4429 282.286 87.3951 282.328 87.3607C282.37 87.3264 282.423 87.3076 282.478 87.3076C282.532 87.3076 282.585 87.3264 282.627 87.3607C282.669 87.3951 282.699 87.4429 282.71 87.4962V87.4568Z" fill="#1B5A96"/>
<path d="M283.025 90.6028L283.154 91.589C283.162 91.6582 283.143 91.7279 283.101 91.7832C283.058 91.8385 282.996 91.875 282.927 91.8848C282.893 91.8889 282.859 91.8863 282.826 91.8771C282.793 91.8679 282.763 91.8523 282.736 91.8312C282.709 91.8101 282.687 91.7839 282.671 91.7542C282.654 91.7245 282.644 91.6918 282.64 91.658L282.512 90.6718C282.504 90.6053 282.522 90.538 282.562 90.4846C282.603 90.4311 282.663 90.3957 282.729 90.3859C282.795 90.3798 282.862 90.3988 282.914 90.4389C282.967 90.479 283.003 90.5375 283.016 90.6028H283.025Z" fill="#1B5A96"/>
<path d="M283.539 93.7094L283.736 94.6364C283.744 94.672 283.744 94.7087 283.737 94.7443C283.729 94.7799 283.715 94.8138 283.695 94.844C283.675 94.8743 283.649 94.9002 283.619 94.9204C283.589 94.9406 283.555 94.9547 283.519 94.9618C283.484 94.9689 283.447 94.969 283.411 94.9619C283.375 94.9549 283.342 94.9409 283.311 94.9207C283.281 94.9006 283.255 94.8747 283.235 94.8445C283.215 94.8143 283.201 94.7805 283.193 94.7449L283.016 93.7587C283.008 93.7244 283.008 93.689 283.015 93.6545C283.021 93.6201 283.034 93.5872 283.054 93.5579C283.073 93.5286 283.098 93.5034 283.127 93.4837C283.156 93.464 283.189 93.4502 283.223 93.4432C283.294 93.4315 283.366 93.4476 283.425 93.488C283.484 93.5285 283.525 93.5902 283.539 93.6601V93.7094Z" fill="#1B5A96"/>
<path d="M284.23 96.7861L284.467 97.7032C284.485 97.779 284.472 97.8588 284.431 97.9253C284.391 97.9918 284.325 98.0395 284.25 98.0582C284.213 98.0686 284.174 98.0714 284.136 98.0666C284.098 98.0617 284.061 98.0492 284.028 98.0299C283.995 98.0106 283.966 97.9848 283.943 97.9541C283.92 97.9234 283.903 97.8884 283.894 97.8511L283.667 96.9242C283.649 96.851 283.661 96.7736 283.7 96.709C283.739 96.6444 283.801 96.5976 283.874 96.579C283.948 96.5611 284.025 96.5728 284.09 96.6116C284.155 96.6503 284.201 96.7131 284.22 96.7861H284.23Z" fill="#1B5A96"/>
<path d="M285.089 99.8726L285.365 100.78C285.39 100.86 285.382 100.946 285.343 101.02C285.304 101.094 285.238 101.149 285.158 101.174C285.078 101.199 284.992 101.191 284.918 101.152C284.844 101.113 284.788 101.047 284.763 100.967L284.487 100.05C284.472 99.9758 284.485 99.8986 284.524 99.8337C284.563 99.7687 284.625 99.7205 284.698 99.6984C284.77 99.6763 284.848 99.6818 284.917 99.714C284.986 99.7462 285.04 99.8027 285.069 99.8726H285.089Z" fill="#1B5A96"/>
<path d="M286.086 102.831L286.412 103.719C286.442 103.8 286.439 103.889 286.403 103.968C286.366 104.047 286.3 104.108 286.219 104.138C286.138 104.168 286.048 104.164 285.97 104.128C285.891 104.092 285.83 104.026 285.8 103.945L285.474 103.048C285.445 102.967 285.45 102.878 285.487 102.8C285.524 102.723 285.59 102.663 285.671 102.634C285.751 102.605 285.839 102.608 285.917 102.643C285.994 102.678 286.055 102.742 286.086 102.821V102.831Z" fill="#1B5A96"/>
<path d="M287.221 105.789L287.596 106.667C287.63 106.752 287.629 106.847 287.594 106.931C287.559 107.016 287.493 107.084 287.409 107.121C287.367 107.138 287.322 107.148 287.276 107.148C287.23 107.148 287.185 107.139 287.143 107.122C287.1 107.104 287.062 107.079 287.03 107.046C286.997 107.014 286.972 106.975 286.955 106.933L286.589 106.046C286.557 105.962 286.558 105.869 286.593 105.786C286.628 105.703 286.694 105.637 286.777 105.602C286.818 105.584 286.863 105.575 286.908 105.575C286.953 105.575 286.997 105.584 287.039 105.602C287.08 105.619 287.118 105.645 287.149 105.677C287.18 105.709 287.205 105.747 287.221 105.789Z" fill="#1B5A96"/>
<path d="M288.485 108.65L288.89 109.508C288.931 109.594 288.936 109.693 288.905 109.783C288.873 109.874 288.808 109.948 288.722 109.991C288.632 110.029 288.532 110.032 288.44 109.999C288.349 109.966 288.273 109.9 288.228 109.813L287.833 108.936C287.814 108.893 287.803 108.847 287.801 108.8C287.8 108.753 287.808 108.706 287.824 108.662C287.841 108.618 287.866 108.578 287.898 108.544C287.93 108.509 287.968 108.482 288.011 108.462C288.054 108.443 288.1 108.432 288.147 108.43C288.194 108.429 288.241 108.436 288.285 108.453C288.329 108.469 288.369 108.494 288.403 108.526C288.438 108.558 288.465 108.597 288.485 108.64V108.65Z" fill="#1B5A96"/>
<path d="M289.867 111.489L290.301 112.338C290.325 112.382 290.339 112.431 290.344 112.481C290.348 112.531 290.342 112.582 290.327 112.63C290.311 112.677 290.286 112.722 290.253 112.76C290.219 112.798 290.179 112.828 290.134 112.85C290.043 112.895 289.939 112.903 289.842 112.872C289.746 112.84 289.667 112.772 289.62 112.683L289.196 111.825C289.174 111.781 289.16 111.733 289.157 111.684C289.153 111.635 289.16 111.585 289.175 111.539C289.191 111.492 289.215 111.449 289.248 111.411C289.28 111.374 289.319 111.344 289.364 111.322C289.408 111.3 289.456 111.287 289.505 111.283C289.554 111.28 289.603 111.286 289.65 111.301C289.697 111.317 289.74 111.342 289.777 111.374C289.814 111.406 289.845 111.445 289.867 111.489Z" fill="#1B5A96"/>
<path d="M291.348 114.28L291.812 115.109C291.838 115.155 291.854 115.205 291.86 115.257C291.867 115.31 291.862 115.363 291.847 115.413C291.833 115.464 291.808 115.511 291.775 115.552C291.742 115.593 291.7 115.626 291.654 115.651C291.562 115.702 291.454 115.715 291.353 115.687C291.251 115.659 291.165 115.593 291.111 115.503L290.657 114.665C290.626 114.619 290.605 114.568 290.596 114.514C290.586 114.46 290.588 114.404 290.601 114.351C290.614 114.298 290.639 114.248 290.672 114.204C290.706 114.161 290.748 114.125 290.796 114.099C290.845 114.072 290.898 114.057 290.953 114.052C291.007 114.048 291.063 114.055 291.115 114.073C291.166 114.091 291.214 114.119 291.254 114.157C291.294 114.194 291.326 114.24 291.348 114.29V114.28Z" fill="#1B5A96"/>
<path d="M292.898 117.022L293.392 117.83C293.42 117.878 293.439 117.93 293.447 117.984C293.455 118.039 293.451 118.094 293.438 118.147C293.424 118.201 293.4 118.251 293.366 118.294C293.333 118.338 293.291 118.375 293.244 118.402C293.197 118.432 293.146 118.453 293.091 118.462C293.037 118.472 292.981 118.47 292.927 118.457C292.874 118.444 292.823 118.42 292.779 118.387C292.735 118.354 292.698 118.312 292.671 118.264L292.187 117.436C292.159 117.39 292.141 117.338 292.133 117.284C292.125 117.231 292.128 117.176 292.142 117.124C292.156 117.071 292.18 117.022 292.213 116.979C292.246 116.936 292.288 116.9 292.335 116.874C292.429 116.819 292.54 116.803 292.645 116.828C292.75 116.854 292.841 116.92 292.898 117.012V117.022Z" fill="#1B5A96"/>
<path d="M294.576 119.714L295.09 120.513C295.151 120.611 295.171 120.729 295.145 120.842C295.119 120.955 295.05 121.053 294.951 121.114C294.853 121.176 294.735 121.196 294.622 121.17C294.509 121.144 294.411 121.074 294.349 120.976L293.846 120.167C293.815 120.12 293.795 120.066 293.785 120.011C293.775 119.955 293.777 119.898 293.79 119.842C293.803 119.787 293.827 119.735 293.86 119.689C293.893 119.644 293.935 119.605 293.984 119.576C294.08 119.516 294.196 119.496 294.306 119.52C294.417 119.544 294.514 119.61 294.576 119.704V119.714Z" fill="#1B5A96"/>
<path d="M296.304 122.357L296.837 123.146C296.902 123.247 296.925 123.369 296.901 123.487C296.877 123.605 296.808 123.709 296.709 123.777C296.659 123.81 296.603 123.833 296.544 123.845C296.485 123.856 296.425 123.856 296.366 123.844C296.307 123.832 296.252 123.809 296.202 123.775C296.152 123.742 296.11 123.699 296.077 123.649L295.554 122.85C295.521 122.801 295.499 122.746 295.488 122.688C295.477 122.63 295.477 122.57 295.489 122.513C295.501 122.455 295.524 122.4 295.557 122.351C295.59 122.303 295.633 122.261 295.682 122.229C295.731 122.196 295.786 122.174 295.844 122.163C295.902 122.152 295.962 122.152 296.02 122.164C296.077 122.176 296.132 122.199 296.181 122.232C296.23 122.265 296.272 122.308 296.304 122.357Z" fill="#1B5A96"/>
<path d="M236.981 94.5474L237.573 95.287C237.595 95.3082 237.612 95.3335 237.624 95.3614C237.636 95.3894 237.642 95.4194 237.642 95.4498C237.642 95.4801 237.636 95.5101 237.624 95.5381C237.612 95.566 237.595 95.5913 237.573 95.6125C237.529 95.6541 237.471 95.6773 237.41 95.6773C237.349 95.6773 237.291 95.6541 237.247 95.6125L236.665 94.863C236.637 94.8155 236.627 94.7596 236.638 94.7055C236.648 94.6515 236.678 94.603 236.721 94.5693C236.765 94.5355 236.819 94.5186 236.874 94.5219C236.929 94.5251 236.981 94.5482 237.02 94.5869L236.981 94.5474Z" fill="#1B5A96"/>
<path d="M238.975 97.0127L239.577 97.7424C239.6 97.7637 239.619 97.7896 239.632 97.8184C239.645 97.8473 239.651 97.8785 239.651 97.9101C239.651 97.9416 239.645 97.9728 239.632 98.0017C239.619 98.0306 239.6 98.0565 239.577 98.0777C239.555 98.1013 239.528 98.1201 239.498 98.1329C239.469 98.1458 239.437 98.1524 239.404 98.1524C239.372 98.1524 239.34 98.1458 239.31 98.1329C239.281 98.1201 239.254 98.1013 239.232 98.0777L238.6 97.3085C238.58 97.2839 238.566 97.2557 238.557 97.2256C238.549 97.1954 238.546 97.1638 238.55 97.1327C238.557 97.0698 238.589 97.0125 238.639 96.9732C238.689 96.934 238.752 96.9161 238.815 96.9235C238.878 96.9309 238.936 96.963 238.975 97.0127Z" fill="#1B5A96"/>
<path d="M241.009 99.4288L241.631 100.149C241.655 100.173 241.674 100.201 241.687 100.232C241.7 100.264 241.707 100.297 241.707 100.331C241.707 100.365 241.7 100.399 241.687 100.43C241.674 100.461 241.655 100.49 241.631 100.514C241.581 100.56 241.516 100.586 241.448 100.586C241.38 100.586 241.315 100.56 241.265 100.514L240.653 99.7838C240.629 99.7608 240.61 99.7332 240.597 99.7027C240.584 99.6722 240.578 99.6395 240.578 99.6063C240.578 99.5732 240.584 99.5404 240.597 99.5099C240.61 99.4794 240.629 99.4518 240.653 99.4288C240.701 99.383 240.765 99.3574 240.831 99.3574C240.897 99.3574 240.961 99.383 241.009 99.4288Z" fill="#1B5A96"/>
<path d="M243.101 101.845L243.743 102.555C243.793 102.605 243.82 102.672 243.82 102.742C243.82 102.812 243.793 102.88 243.743 102.929C243.691 102.979 243.622 103.007 243.551 103.007C243.479 103.007 243.41 102.979 243.358 102.929L242.726 102.219C242.699 102.194 242.678 102.164 242.664 102.13C242.649 102.096 242.642 102.059 242.642 102.023C242.643 101.986 242.651 101.949 242.666 101.916C242.681 101.882 242.703 101.852 242.731 101.828C242.758 101.803 242.79 101.784 242.825 101.773C242.86 101.761 242.897 101.757 242.934 101.76C242.971 101.764 243.006 101.775 243.038 101.793C243.071 101.811 243.099 101.835 243.121 101.864L243.101 101.845Z" fill="#1B5A96"/>
<path d="M245.244 104.143L245.886 104.833C245.912 104.859 245.933 104.889 245.947 104.923C245.961 104.957 245.968 104.993 245.968 105.03C245.968 105.067 245.961 105.103 245.947 105.137C245.933 105.171 245.912 105.202 245.886 105.227C245.86 105.254 245.829 105.274 245.795 105.289C245.761 105.303 245.725 105.31 245.688 105.31C245.651 105.31 245.615 105.303 245.581 105.289C245.547 105.274 245.516 105.254 245.491 105.227L244.839 104.527C244.789 104.476 244.761 104.407 244.761 104.335C244.761 104.263 244.789 104.194 244.839 104.143C244.864 104.117 244.894 104.096 244.927 104.082C244.96 104.068 244.996 104.061 245.032 104.061C245.068 104.061 245.103 104.068 245.136 104.082C245.169 104.096 245.199 104.117 245.224 104.143H245.244Z" fill="#1B5A96"/>
<path d="M247.426 106.441L248.087 107.121C248.139 107.177 248.168 107.251 248.168 107.328C248.168 107.405 248.139 107.479 248.087 107.535C248.032 107.589 247.957 107.62 247.88 107.62C247.802 107.62 247.728 107.589 247.672 107.535L247.021 106.845C246.967 106.791 246.937 106.719 246.937 106.643C246.937 106.567 246.967 106.494 247.021 106.441C247.076 106.386 247.151 106.356 247.228 106.356C247.306 106.356 247.38 106.386 247.435 106.441H247.426Z" fill="#1B5A96"/>
<path d="M249.647 108.689L250.328 109.35C250.357 109.378 250.38 109.412 250.395 109.449C250.411 109.486 250.419 109.526 250.419 109.567C250.419 109.607 250.411 109.647 250.395 109.684C250.38 109.721 250.357 109.755 250.328 109.784C250.301 109.812 250.268 109.834 250.231 109.85C250.195 109.865 250.155 109.873 250.116 109.873C250.076 109.873 250.037 109.865 250.001 109.85C249.964 109.834 249.931 109.812 249.904 109.784L249.222 109.113C249.166 109.057 249.135 108.98 249.135 108.901C249.135 108.821 249.166 108.745 249.222 108.689C249.279 108.633 249.355 108.601 249.435 108.601C249.514 108.601 249.591 108.633 249.647 108.689Z" fill="#1B5A96"/>
<path d="M251.927 110.888L252.619 111.539C252.678 111.6 252.711 111.681 252.711 111.766C252.711 111.85 252.678 111.932 252.619 111.992C252.559 112.051 252.48 112.084 252.396 112.084C252.313 112.084 252.233 112.051 252.174 111.992L251.493 111.332C251.433 111.275 251.397 111.198 251.395 111.115C251.392 111.033 251.422 110.953 251.478 110.893C251.535 110.833 251.612 110.797 251.695 110.795C251.777 110.792 251.857 110.822 251.918 110.878L251.927 110.888Z" fill="#1B5A96"/>
<path d="M254.237 113.047L254.938 113.688C254.97 113.718 254.996 113.753 255.014 113.792C255.032 113.831 255.043 113.873 255.044 113.916C255.046 113.959 255.04 114.002 255.025 114.043C255.01 114.083 254.987 114.12 254.958 114.152C254.929 114.184 254.894 114.209 254.855 114.227C254.816 114.246 254.773 114.256 254.73 114.258C254.687 114.26 254.644 114.253 254.604 114.238C254.563 114.223 254.526 114.201 254.494 114.172L253.793 113.521C253.761 113.492 253.736 113.457 253.719 113.418C253.701 113.379 253.692 113.337 253.692 113.294C253.692 113.251 253.701 113.209 253.719 113.17C253.736 113.131 253.761 113.096 253.793 113.067C253.854 113.008 253.935 112.975 254.02 112.975C254.105 112.975 254.187 113.008 254.247 113.067L254.237 113.047Z" fill="#1B5A96"/>
<path d="M256.597 115.158L257.318 115.779C257.381 115.844 257.417 115.93 257.417 116.021C257.417 116.111 257.381 116.198 257.318 116.262C257.287 116.295 257.249 116.321 257.207 116.338C257.166 116.356 257.121 116.365 257.076 116.365C257.031 116.365 256.986 116.356 256.945 116.338C256.903 116.321 256.865 116.295 256.834 116.262L256.123 115.631C256.061 115.568 256.025 115.483 256.025 115.395C256.025 115.306 256.061 115.221 256.123 115.158C256.186 115.095 256.271 115.06 256.36 115.06C256.449 115.06 256.534 115.095 256.597 115.158Z" fill="#1B5A96"/>
<path d="M258.996 117.219L259.726 117.831C259.798 117.892 259.843 117.978 259.852 118.072C259.862 118.166 259.834 118.26 259.776 118.334C259.743 118.367 259.704 118.393 259.66 118.411C259.617 118.429 259.571 118.438 259.524 118.438C259.477 118.438 259.431 118.429 259.388 118.411C259.345 118.393 259.305 118.367 259.272 118.334L258.542 117.712C258.48 117.645 258.446 117.557 258.446 117.466C258.446 117.374 258.48 117.286 258.542 117.219C258.608 117.155 258.697 117.12 258.789 117.12C258.881 117.12 258.969 117.155 259.035 117.219H258.996Z" fill="#1B5A96"/>
<path d="M261.445 119.231L262.185 119.832C262.259 119.894 262.306 119.982 262.316 120.079C262.325 120.175 262.296 120.271 262.234 120.345C262.173 120.419 262.085 120.466 261.989 120.477C261.894 120.488 261.798 120.462 261.721 120.404L260.981 119.803C260.921 119.738 260.886 119.655 260.883 119.567C260.88 119.479 260.909 119.393 260.964 119.325C261.019 119.257 261.097 119.211 261.183 119.195C261.27 119.18 261.359 119.196 261.435 119.241L261.445 119.231Z" fill="#1B5A96"/>
<path d="M263.922 121.203L264.673 121.785C264.712 121.814 264.746 121.851 264.771 121.893C264.796 121.936 264.812 121.983 264.819 122.032C264.825 122.08 264.822 122.13 264.809 122.177C264.795 122.225 264.773 122.269 264.742 122.308C264.712 122.348 264.674 122.381 264.631 122.407C264.587 122.432 264.539 122.448 264.49 122.455C264.44 122.461 264.39 122.457 264.341 122.444C264.293 122.431 264.248 122.408 264.209 122.377L263.458 121.785C263.413 121.757 263.374 121.72 263.344 121.676C263.314 121.632 263.294 121.583 263.285 121.53C263.276 121.478 263.278 121.424 263.291 121.373C263.304 121.322 263.328 121.274 263.361 121.232C263.394 121.191 263.436 121.157 263.483 121.132C263.53 121.108 263.582 121.094 263.635 121.091C263.688 121.089 263.741 121.097 263.791 121.116C263.84 121.136 263.885 121.165 263.922 121.203Z" fill="#1B5A96"/>
<path d="M266.44 123.116L267.2 123.678C267.242 123.708 267.278 123.747 267.305 123.791C267.333 123.835 267.351 123.884 267.359 123.936C267.368 123.987 267.366 124.04 267.354 124.09C267.341 124.141 267.319 124.188 267.289 124.23C267.224 124.312 267.131 124.366 267.028 124.38C266.925 124.395 266.821 124.37 266.736 124.309L265.976 123.737C265.893 123.676 265.839 123.584 265.824 123.482C265.809 123.381 265.835 123.277 265.897 123.195C265.958 123.112 266.05 123.058 266.152 123.043C266.254 123.028 266.357 123.055 266.44 123.116Z" fill="#1B5A96"/>
<path d="M268.997 124.98L269.767 125.532C269.842 125.599 269.89 125.691 269.901 125.791C269.911 125.891 269.885 125.991 269.825 126.072C269.766 126.154 269.679 126.21 269.581 126.23C269.482 126.251 269.38 126.234 269.293 126.183L268.523 125.631C268.437 125.568 268.38 125.474 268.363 125.368C268.346 125.263 268.372 125.155 268.434 125.069C268.465 125.027 268.503 124.991 268.547 124.964C268.592 124.936 268.641 124.918 268.692 124.91C268.744 124.902 268.796 124.904 268.847 124.916C268.897 124.928 268.945 124.95 268.987 124.98H268.997Z" fill="#1B5A96"/>
<path d="M271.593 126.794L272.373 127.327C272.464 127.391 272.526 127.487 272.546 127.596C272.566 127.704 272.543 127.817 272.482 127.909C272.42 127.998 272.325 128.06 272.218 128.08C272.111 128.101 272 128.078 271.909 128.017L271.119 127.475C271.03 127.413 270.969 127.319 270.95 127.213C270.931 127.106 270.954 126.997 271.016 126.908C271.077 126.819 271.172 126.758 271.278 126.739C271.385 126.719 271.494 126.743 271.583 126.804L271.593 126.794Z" fill="#1B5A96"/>
<path d="M274.219 128.56L275.009 129.073C275.09 129.141 275.143 129.237 275.159 129.342C275.174 129.447 275.15 129.554 275.092 129.642C275.033 129.731 274.945 129.795 274.842 129.823C274.74 129.851 274.63 129.84 274.535 129.793L273.746 129.27C273.698 129.241 273.657 129.202 273.624 129.157C273.592 129.111 273.57 129.06 273.559 129.005C273.548 128.95 273.548 128.894 273.56 128.839C273.572 128.785 273.594 128.733 273.627 128.688C273.688 128.594 273.783 128.529 273.892 128.505C274.001 128.481 274.115 128.5 274.21 128.56H274.219Z" fill="#1B5A96"/>
<path d="M276.885 130.266L277.685 130.769C277.734 130.798 277.778 130.837 277.812 130.883C277.846 130.93 277.871 130.982 277.885 131.038C277.899 131.094 277.901 131.153 277.892 131.21C277.883 131.267 277.863 131.321 277.833 131.37C277.77 131.469 277.67 131.54 277.555 131.566C277.44 131.592 277.32 131.571 277.221 131.508L276.411 130.995C276.316 130.931 276.25 130.833 276.226 130.72C276.202 130.608 276.222 130.491 276.283 130.394C276.345 130.3 276.442 130.233 276.553 130.21C276.663 130.186 276.779 130.206 276.875 130.266H276.885Z" fill="#1B5A96"/>
<path d="M220.306 148.125L221.293 148.026C221.33 148.022 221.367 148.025 221.402 148.035C221.437 148.046 221.469 148.063 221.498 148.086C221.526 148.109 221.55 148.137 221.567 148.169C221.585 148.201 221.596 148.236 221.599 148.273C221.603 148.345 221.58 148.416 221.534 148.472C221.489 148.529 221.424 148.566 221.353 148.578L220.365 148.667C220.3 148.662 220.239 148.634 220.192 148.589C220.146 148.543 220.117 148.482 220.111 148.417C220.105 148.352 220.122 148.287 220.16 148.233C220.198 148.18 220.253 148.141 220.316 148.125H220.306Z" fill="#1B5A96"/>
<path d="M223.465 147.809L224.452 147.73C224.491 147.728 224.53 147.733 224.567 147.745C224.604 147.757 224.639 147.777 224.668 147.803C224.697 147.828 224.721 147.86 224.738 147.894C224.756 147.929 224.766 147.967 224.768 148.006C224.772 148.045 224.769 148.083 224.757 148.12C224.746 148.157 224.727 148.191 224.703 148.221C224.678 148.25 224.647 148.275 224.613 148.292C224.578 148.309 224.54 148.319 224.502 148.322L223.515 148.391C223.445 148.385 223.379 148.355 223.329 148.306C223.279 148.256 223.248 148.191 223.243 148.121C223.237 148.051 223.256 147.981 223.297 147.924C223.337 147.867 223.397 147.826 223.465 147.809Z" fill="#1B5A96"/>
<path d="M226.634 147.573L227.622 147.513C227.661 147.511 227.701 147.516 227.739 147.529C227.776 147.542 227.811 147.563 227.84 147.589C227.87 147.616 227.894 147.648 227.91 147.684C227.927 147.721 227.936 147.76 227.937 147.799C227.94 147.84 227.935 147.88 227.922 147.918C227.909 147.956 227.889 147.991 227.862 148.021C227.835 148.052 227.803 148.076 227.767 148.094C227.731 148.112 227.691 148.122 227.651 148.125H226.664C226.593 148.112 226.53 148.075 226.484 148.02C226.438 147.965 226.413 147.896 226.413 147.824C226.413 147.752 226.438 147.683 226.484 147.628C226.53 147.573 226.593 147.536 226.664 147.523L226.634 147.573Z" fill="#1B5A96"/>
<path d="M229.813 147.395H230.8C230.843 147.392 230.885 147.398 230.925 147.412C230.965 147.426 231.002 147.448 231.033 147.477C231.064 147.505 231.09 147.54 231.107 147.578C231.125 147.617 231.135 147.659 231.136 147.701C231.137 147.742 231.131 147.784 231.116 147.822C231.101 147.861 231.079 147.897 231.051 147.927C231.022 147.957 230.988 147.981 230.95 147.999C230.912 148.016 230.872 148.025 230.83 148.026H229.843C229.759 148.026 229.679 147.993 229.619 147.934C229.56 147.875 229.527 147.794 229.527 147.711C229.527 147.627 229.56 147.547 229.619 147.488C229.679 147.428 229.759 147.395 229.843 147.395H229.813Z" fill="#1B5A96"/>
<path d="M232.992 147.287H233.979C234.066 147.287 234.149 147.321 234.21 147.382C234.271 147.443 234.305 147.526 234.305 147.612C234.305 147.699 234.271 147.781 234.21 147.842C234.149 147.903 234.066 147.938 233.979 147.938H232.992C232.905 147.938 232.821 147.904 232.758 147.843C232.696 147.782 232.659 147.699 232.656 147.612C232.656 147.569 232.665 147.525 232.682 147.485C232.699 147.445 232.724 147.409 232.755 147.379C232.787 147.348 232.824 147.324 232.864 147.309C232.905 147.293 232.949 147.285 232.992 147.287Z" fill="#1B5A96"/>
<path d="M236.171 147.208H237.158C237.25 147.208 237.338 147.244 237.403 147.309C237.467 147.374 237.504 147.462 237.504 147.553C237.504 147.645 237.467 147.732 237.403 147.797C237.338 147.862 237.25 147.898 237.158 147.898H236.171C236.082 147.898 235.997 147.863 235.934 147.8C235.871 147.737 235.835 147.652 235.835 147.563C235.835 147.474 235.871 147.389 235.934 147.326C235.997 147.263 236.082 147.228 236.171 147.228V147.208Z" fill="#1B5A96"/>
<path d="M239.35 147.208H240.337C240.431 147.208 240.522 147.245 240.588 147.312C240.655 147.379 240.692 147.469 240.692 147.563C240.69 147.658 240.65 147.748 240.582 147.815C240.514 147.881 240.422 147.918 240.327 147.918H239.34C239.289 147.927 239.237 147.924 239.187 147.91C239.137 147.897 239.091 147.872 239.051 147.839C239.012 147.806 238.98 147.764 238.959 147.717C238.937 147.671 238.926 147.62 238.926 147.568C238.926 147.516 238.937 147.465 238.959 147.419C238.98 147.372 239.012 147.33 239.051 147.297C239.091 147.264 239.137 147.239 239.187 147.226C239.237 147.212 239.289 147.209 239.34 147.218L239.35 147.208Z" fill="#1B5A96"/>
<path d="M242.549 147.326H243.536C243.633 147.326 243.726 147.365 243.794 147.433C243.863 147.501 243.901 147.594 243.901 147.691C243.901 147.788 243.863 147.881 243.794 147.949C243.726 148.017 243.633 148.056 243.536 148.056H242.549C242.452 148.056 242.359 148.017 242.29 147.949C242.222 147.881 242.183 147.788 242.183 147.691C242.183 147.594 242.222 147.501 242.29 147.433C242.359 147.365 242.452 147.326 242.549 147.326Z" fill="#1B5A96"/>
<path d="M245.708 147.474L246.695 147.533C246.785 147.548 246.867 147.594 246.927 147.664C246.986 147.733 247.019 147.822 247.019 147.913C247.019 148.004 246.986 148.093 246.927 148.162C246.867 148.232 246.785 148.278 246.695 148.293L245.708 148.224C245.658 148.221 245.608 148.209 245.563 148.187C245.518 148.165 245.477 148.134 245.444 148.097C245.411 148.059 245.386 148.015 245.37 147.967C245.354 147.92 245.348 147.869 245.352 147.819C245.363 147.73 245.404 147.647 245.469 147.584C245.534 147.521 245.618 147.482 245.708 147.474Z" fill="#1B5A96"/>
<path d="M248.877 147.691L249.864 147.77C249.958 147.791 250.04 147.845 250.097 147.922C250.153 147.999 250.18 148.095 250.171 148.19C250.163 148.285 250.12 148.374 250.051 148.44C249.982 148.506 249.891 148.545 249.795 148.549L248.808 148.47C248.707 148.458 248.614 148.407 248.55 148.328C248.485 148.249 248.454 148.148 248.462 148.046C248.466 147.996 248.48 147.946 248.503 147.901C248.526 147.856 248.557 147.816 248.596 147.783C248.634 147.75 248.679 147.724 248.727 147.709C248.775 147.693 248.826 147.687 248.877 147.691Z" fill="#1B5A96"/>
<path d="M252.046 147.987L253.033 148.085C253.086 148.09 253.138 148.106 253.185 148.131C253.233 148.156 253.274 148.19 253.308 148.231C253.342 148.272 253.368 148.32 253.383 148.371C253.399 148.422 253.404 148.476 253.398 148.529C253.386 148.635 253.333 148.733 253.25 148.801C253.167 148.869 253.061 148.902 252.954 148.894L251.967 148.776C251.914 148.771 251.863 148.755 251.817 148.73C251.771 148.705 251.73 148.67 251.698 148.629C251.665 148.587 251.642 148.539 251.629 148.488C251.615 148.437 251.613 148.384 251.621 148.332C251.626 148.281 251.641 148.232 251.665 148.187C251.689 148.142 251.722 148.103 251.761 148.071C251.801 148.039 251.846 148.015 251.895 148C251.944 147.986 251.995 147.981 252.046 147.987Z" fill="#1B5A96"/>
<path d="M255.215 148.352L256.202 148.48C256.312 148.496 256.411 148.554 256.478 148.643C256.545 148.732 256.573 148.843 256.557 148.953C256.542 149.063 256.483 149.162 256.394 149.229C256.305 149.295 256.194 149.324 256.084 149.308L255.096 149.17C254.988 149.155 254.89 149.098 254.823 149.012C254.756 148.925 254.727 148.815 254.741 148.707C254.758 148.597 254.817 148.499 254.906 148.433C254.994 148.367 255.105 148.337 255.215 148.352Z" fill="#1B5A96"/>
<path d="M258.345 148.815L259.332 148.963C259.444 148.983 259.544 149.045 259.61 149.137C259.677 149.229 259.704 149.344 259.687 149.456C259.679 149.512 259.659 149.566 259.63 149.614C259.6 149.663 259.561 149.705 259.515 149.738C259.469 149.771 259.417 149.794 259.362 149.807C259.307 149.82 259.249 149.821 259.194 149.811L258.256 149.654C258.144 149.634 258.044 149.572 257.977 149.48C257.911 149.387 257.883 149.273 257.9 149.16C257.919 149.059 257.975 148.967 258.057 148.904C258.139 148.84 258.241 148.809 258.345 148.815Z" fill="#1B5A96"/>
<path d="M261.504 149.358L262.442 149.545C262.557 149.569 262.658 149.637 262.722 149.735C262.787 149.833 262.81 149.953 262.787 150.068C262.776 150.124 262.755 150.178 262.723 150.226C262.691 150.274 262.65 150.316 262.603 150.348C262.555 150.38 262.501 150.402 262.445 150.413C262.388 150.425 262.33 150.424 262.274 150.413L261.346 150.226C261.289 150.215 261.236 150.193 261.188 150.162C261.14 150.13 261.1 150.089 261.068 150.041C261.037 149.993 261.016 149.939 261.006 149.883C260.996 149.826 260.997 149.769 261.01 149.713C261.032 149.602 261.095 149.504 261.186 149.438C261.278 149.372 261.392 149.343 261.504 149.358Z" fill="#1B5A96"/>
<path d="M264.623 150.008L265.561 150.225C265.678 150.256 265.779 150.33 265.841 150.433C265.904 150.537 265.924 150.66 265.897 150.778C265.869 150.894 265.796 150.994 265.694 151.057C265.593 151.119 265.47 151.14 265.354 151.113L264.426 150.896C264.368 150.883 264.313 150.859 264.264 150.825C264.216 150.79 264.174 150.746 264.143 150.696C264.112 150.645 264.091 150.589 264.082 150.53C264.073 150.471 264.076 150.411 264.09 150.354C264.118 150.239 264.189 150.14 264.288 150.076C264.387 150.011 264.507 149.987 264.623 150.008Z" fill="#1B5A96"/>
<path d="M267.723 150.778L268.641 151.034C268.76 151.067 268.862 151.146 268.923 151.253C268.984 151.36 269 151.487 268.967 151.606C268.934 151.725 268.856 151.826 268.748 151.887C268.641 151.948 268.514 151.964 268.394 151.932L267.486 151.675C267.427 151.659 267.372 151.631 267.324 151.594C267.275 151.556 267.235 151.51 267.205 151.457C267.174 151.404 267.155 151.345 267.147 151.284C267.14 151.224 267.144 151.162 267.16 151.103C267.177 151.044 267.204 150.989 267.242 150.941C267.279 150.893 267.326 150.852 267.379 150.822C267.432 150.792 267.491 150.772 267.552 150.765C267.612 150.757 267.674 150.762 267.733 150.778H267.723Z" fill="#1B5A96"/>
<path d="M347.759 90.9972L346.9 91.4114C346.846 91.4351 346.785 91.4371 346.73 91.4169C346.675 91.3966 346.629 91.3558 346.604 91.3029C346.58 91.2506 346.579 91.1911 346.599 91.1375C346.619 91.0839 346.66 91.0406 346.712 91.0169L347.581 90.6126C347.606 90.6012 347.634 90.595 347.661 90.5943C347.689 90.5936 347.717 90.5985 347.742 90.6086C347.768 90.6187 347.792 90.6338 347.811 90.6532C347.831 90.6725 347.847 90.6956 347.858 90.7211C347.869 90.7457 347.876 90.7723 347.877 90.7995C347.879 90.8267 347.875 90.8539 347.866 90.8796C347.856 90.9052 347.842 90.9288 347.824 90.949C347.806 90.9692 347.784 90.9856 347.759 90.9972Z" fill="#1B5A96"/>
<path d="M344.926 92.3779L344.096 92.8315C344.07 92.8545 344.038 92.8713 344.005 92.8808C343.971 92.8902 343.935 92.8919 343.9 92.8859C343.866 92.8799 343.833 92.8662 343.804 92.8459C343.775 92.8256 343.752 92.7992 343.734 92.7685C343.717 92.7379 343.707 92.7038 343.705 92.6687C343.702 92.6337 343.708 92.5985 343.721 92.5658C343.734 92.5332 343.754 92.5038 343.779 92.4798C343.805 92.4558 343.836 92.4378 343.869 92.4272L344.718 91.9735C344.771 91.9452 344.832 91.9387 344.89 91.9553C344.947 91.9719 344.995 92.0103 345.024 92.0623C345.053 92.1162 345.06 92.1791 345.043 92.2379C345.027 92.2968 344.988 92.3469 344.935 92.3779H344.926Z" fill="#1B5A96"/>
<path d="M342.191 93.9559L341.391 94.4588C341.364 94.4768 341.333 94.4891 341.3 94.4948C341.267 94.5006 341.234 94.4998 341.202 94.4924C341.17 94.4851 341.139 94.4713 341.112 94.452C341.086 94.4327 341.063 94.4082 341.046 94.3799C341.015 94.3242 341.006 94.259 341.021 94.1971C341.035 94.1351 341.072 94.0808 341.125 94.0446L341.934 93.5516C341.989 93.5288 342.049 93.526 342.105 93.5439C342.161 93.5618 342.209 93.599 342.24 93.649C342.271 93.699 342.283 93.7583 342.274 93.8164C342.265 93.8745 342.236 93.9275 342.191 93.9658V93.9559Z" fill="#1B5A96"/>
<path d="M339.545 95.6716L338.775 96.214C338.748 96.2347 338.716 96.2497 338.682 96.258C338.649 96.2662 338.614 96.2676 338.58 96.2621C338.546 96.2566 338.513 96.2442 338.484 96.2258C338.455 96.2074 338.43 96.1832 338.41 96.1548C338.389 96.1265 338.374 96.0942 338.365 96.0599C338.357 96.0256 338.355 95.99 338.361 95.9551C338.366 95.9202 338.379 95.8868 338.397 95.8568C338.416 95.8267 338.44 95.8007 338.469 95.7801L339.259 95.2377C339.287 95.2109 339.32 95.1905 339.357 95.178C339.394 95.1654 339.433 95.161 339.471 95.165C339.51 95.169 339.547 95.1814 339.58 95.2012C339.613 95.221 339.642 95.2479 339.664 95.2798C339.685 95.3118 339.7 95.3482 339.706 95.3863C339.713 95.4245 339.711 95.4636 339.7 95.5009C339.69 95.5382 339.672 95.5728 339.647 95.6023C339.621 95.6318 339.59 95.6554 339.555 95.6716H339.545Z" fill="#1B5A96"/>
<path d="M336.998 97.5355L336.258 98.1173C336.203 98.1659 336.133 98.1927 336.06 98.1927C335.987 98.1927 335.917 98.1659 335.863 98.1173C335.818 98.058 335.798 97.9837 335.808 97.9101C335.817 97.8365 335.854 97.7694 335.912 97.7229L336.672 97.1312C336.724 97.0812 336.793 97.0532 336.865 97.0532C336.937 97.0532 337.006 97.0812 337.057 97.1312C337.102 97.1905 337.122 97.2648 337.112 97.3384C337.103 97.412 337.066 97.4791 337.008 97.5257L336.998 97.5355Z" fill="#1B5A96"/>
<path d="M334.56 99.5375L333.849 100.159C333.793 100.213 333.719 100.243 333.642 100.243C333.564 100.243 333.49 100.213 333.434 100.159C333.379 100.102 333.349 100.026 333.349 99.9468C333.349 99.8677 333.379 99.7917 333.434 99.7348L334.155 99.1036C334.21 99.0494 334.285 99.019 334.362 99.019C334.44 99.019 334.514 99.0494 334.57 99.1036C334.623 99.1572 334.653 99.23 334.653 99.3058C334.653 99.3816 334.623 99.4543 334.57 99.5079L334.56 99.5375Z" fill="#1B5A96"/>
<path d="M332.23 101.658L331.549 102.319C331.488 102.377 331.407 102.41 331.323 102.409C331.239 102.408 331.158 102.374 331.099 102.314C331.04 102.253 331.008 102.172 331.009 102.088C331.01 102.004 331.044 101.924 331.104 101.865L331.795 101.204C331.825 101.176 331.859 101.153 331.897 101.138C331.935 101.123 331.975 101.115 332.016 101.116C332.057 101.116 332.097 101.125 332.135 101.141C332.172 101.157 332.206 101.18 332.235 101.209C332.263 101.238 332.286 101.273 332.301 101.311C332.316 101.348 332.324 101.389 332.323 101.43C332.323 101.47 332.314 101.511 332.298 101.548C332.282 101.585 332.259 101.619 332.23 101.648V101.658Z" fill="#1B5A96"/>
<path d="M330.008 103.906L329.367 104.606C329.337 104.638 329.302 104.663 329.263 104.682C329.224 104.7 329.182 104.71 329.139 104.712C329.096 104.714 329.053 104.707 329.012 104.692C328.972 104.677 328.934 104.655 328.903 104.626C328.871 104.597 328.845 104.562 328.827 104.522C328.809 104.483 328.799 104.441 328.797 104.398C328.795 104.355 328.802 104.312 328.816 104.272C328.831 104.231 328.854 104.194 328.883 104.162L329.534 103.462C329.593 103.398 329.675 103.36 329.762 103.356C329.849 103.353 329.934 103.384 329.998 103.442C330.063 103.501 330.101 103.583 330.104 103.67C330.108 103.757 330.077 103.842 330.018 103.906H330.008Z" fill="#1B5A96"/>
<path d="M327.915 106.273L327.313 106.993C327.247 107.057 327.158 107.092 327.066 107.092C326.974 107.092 326.886 107.057 326.82 106.993C326.787 106.96 326.761 106.922 326.743 106.88C326.725 106.837 326.716 106.792 326.716 106.746C326.716 106.7 326.725 106.655 326.743 106.612C326.761 106.57 326.787 106.532 326.82 106.5L327.432 105.77C327.463 105.737 327.5 105.711 327.542 105.694C327.584 105.676 327.628 105.667 327.674 105.667C327.719 105.667 327.763 105.676 327.805 105.694C327.846 105.711 327.884 105.737 327.915 105.77C327.948 105.8 327.973 105.837 327.991 105.878C328.009 105.918 328.018 105.962 328.018 106.006C328.018 106.051 328.009 106.095 327.991 106.135C327.973 106.176 327.948 106.213 327.915 106.243V106.273Z" fill="#1B5A96"/>
<path d="M325.951 108.748L325.388 109.507C325.36 109.546 325.324 109.579 325.283 109.605C325.241 109.63 325.196 109.646 325.148 109.654C325.1 109.661 325.051 109.659 325.005 109.647C324.958 109.636 324.914 109.615 324.875 109.586C324.836 109.557 324.804 109.521 324.78 109.479C324.756 109.438 324.74 109.392 324.733 109.344C324.727 109.296 324.73 109.248 324.743 109.202C324.755 109.155 324.776 109.112 324.806 109.073L325.378 108.314C325.437 108.239 325.522 108.191 325.616 108.178C325.71 108.165 325.805 108.189 325.882 108.245C325.919 108.272 325.951 108.307 325.975 108.347C325.999 108.386 326.015 108.431 326.021 108.477C326.028 108.523 326.025 108.57 326.013 108.615C326.001 108.66 325.98 108.702 325.951 108.738V108.748Z" fill="#1B5A96"/>
<path d="M324.114 111.302L323.591 112.091C323.564 112.132 323.529 112.168 323.488 112.196C323.447 112.224 323.401 112.243 323.352 112.253C323.304 112.264 323.253 112.264 323.205 112.255C323.156 112.245 323.11 112.227 323.068 112.199C323.027 112.172 322.991 112.137 322.963 112.096C322.935 112.055 322.915 112.009 322.905 111.961C322.895 111.912 322.895 111.862 322.904 111.813C322.913 111.765 322.932 111.718 322.959 111.677L323.502 110.878C323.561 110.805 323.645 110.756 323.738 110.742C323.831 110.727 323.925 110.748 324.004 110.8C324.082 110.852 324.137 110.932 324.16 111.023C324.182 111.114 324.17 111.21 324.124 111.292L324.114 111.302Z" fill="#1B5A96"/>
<path d="M322.426 113.955L321.943 114.773C321.916 114.818 321.881 114.857 321.839 114.888C321.798 114.919 321.75 114.942 321.7 114.955C321.649 114.967 321.597 114.97 321.545 114.963C321.494 114.955 321.444 114.938 321.4 114.911C321.355 114.885 321.316 114.85 321.285 114.808C321.254 114.766 321.231 114.719 321.218 114.669C321.205 114.618 321.202 114.566 321.21 114.514C321.217 114.463 321.235 114.414 321.261 114.369L321.755 113.55C321.81 113.462 321.898 113.398 321.999 113.372C322.1 113.347 322.207 113.361 322.298 113.412C322.384 113.467 322.446 113.553 322.47 113.653C322.494 113.752 322.478 113.857 322.426 113.945V113.955Z" fill="#1B5A96"/>
<path d="M320.876 116.706L320.442 117.544C320.385 117.626 320.299 117.684 320.202 117.708C320.105 117.732 320.003 117.72 319.914 117.674C319.825 117.629 319.755 117.552 319.718 117.46C319.681 117.367 319.679 117.264 319.712 117.17L320.166 116.322C320.19 116.274 320.223 116.232 320.263 116.198C320.304 116.164 320.351 116.138 320.402 116.123C320.452 116.107 320.506 116.102 320.558 116.107C320.611 116.112 320.662 116.128 320.709 116.154C320.804 116.202 320.876 116.287 320.91 116.388C320.943 116.49 320.935 116.601 320.886 116.696L320.876 116.706Z" fill="#1B5A96"/>
<path d="M319.484 119.527L319.099 120.384C319.052 120.488 318.966 120.568 318.859 120.608C318.753 120.648 318.635 120.644 318.532 120.597C318.428 120.549 318.348 120.463 318.308 120.357C318.268 120.251 318.272 120.133 318.319 120.029L318.714 119.162C318.767 119.072 318.852 119.004 318.951 118.972C319.051 118.94 319.159 118.947 319.254 118.989C319.35 119.032 319.426 119.109 319.468 119.204C319.511 119.3 319.517 119.407 319.484 119.507V119.527Z" fill="#1B5A96"/>
<path d="M318.24 122.416L317.905 123.294C317.883 123.348 317.852 123.398 317.811 123.44C317.77 123.482 317.722 123.516 317.668 123.539C317.615 123.562 317.557 123.575 317.498 123.576C317.44 123.577 317.382 123.567 317.327 123.545C317.273 123.524 317.223 123.492 317.181 123.452C317.139 123.411 317.105 123.363 317.082 123.309C317.058 123.255 317.046 123.198 317.045 123.139C317.044 123.081 317.054 123.023 317.076 122.968L317.431 122.081C317.475 121.973 317.56 121.887 317.667 121.84C317.774 121.794 317.895 121.792 318.004 121.834C318.108 121.88 318.191 121.963 318.237 122.067C318.282 122.171 318.287 122.289 318.25 122.396L318.24 122.416Z" fill="#1B5A96"/>
<path d="M317.164 125.365L316.878 126.262C316.831 126.365 316.748 126.448 316.645 126.494C316.541 126.54 316.425 126.546 316.316 126.512C316.208 126.478 316.117 126.406 316.058 126.309C316 126.212 315.979 126.097 315.999 125.986L316.305 125.079C316.344 124.965 316.425 124.871 316.533 124.818C316.64 124.764 316.764 124.755 316.878 124.793C316.992 124.831 317.087 124.912 317.142 125.019C317.197 125.126 317.209 125.25 317.174 125.365H317.164Z" fill="#1B5A96"/>
<path d="M294.142 190.598C287.097 188.392 280.885 184.108 276.322 178.311C270.687 171.334 268.001 162.435 268.839 153.509C269.25 149.234 270.548 145.092 272.65 141.347C274.753 137.601 277.614 134.334 281.051 131.755C284.607 129.098 288.664 127.188 292.979 126.141C297.294 125.093 301.777 124.93 306.156 125.66C315.305 127.072 323.576 131.901 329.297 139.171C334.918 146.153 337.586 155.053 336.731 163.972C336.332 168.248 335.044 172.395 332.95 176.146C330.856 179.897 328.001 183.17 324.569 185.756C321.012 188.411 316.954 190.319 312.639 191.367C308.325 192.414 303.843 192.579 299.463 191.851C297.66 191.57 295.881 191.151 294.142 190.598ZM309.938 131.587C308.527 131.148 307.085 130.819 305.623 130.601C302.011 130.012 298.317 130.159 294.763 131.031C291.209 131.904 287.868 133.485 284.941 135.68C281.997 137.908 279.551 140.726 277.76 143.952C275.968 147.178 274.87 150.742 274.535 154.416C273.798 162.076 276.087 169.72 280.913 175.717C285.61 181.724 292.418 185.722 299.957 186.9C303.576 187.5 307.281 187.36 310.845 186.487C314.408 185.614 317.757 184.026 320.689 181.821C323.633 179.594 326.079 176.776 327.871 173.55C329.663 170.324 330.761 166.759 331.094 163.085C331.831 155.425 329.543 147.781 324.717 141.784C320.932 136.981 315.779 133.436 309.938 131.617V131.587Z" fill="#FB9100"/>
<path d="M298.091 178.133C288.998 175.303 282.887 165.718 283.884 155.856C284.116 153.177 284.904 150.576 286.2 148.219C287.495 145.862 289.269 143.802 291.407 142.169C293.67 140.454 296.31 139.305 299.109 138.82C301.907 138.334 304.781 138.525 307.489 139.378C316.582 142.218 322.683 151.793 321.696 161.665C321.462 164.343 320.673 166.943 319.377 169.3C318.082 171.657 316.31 173.718 314.173 175.352C312.288 176.792 310.132 177.836 307.833 178.422C305.534 179.009 303.141 179.125 300.796 178.765C299.88 178.621 298.976 178.41 298.091 178.133Z" fill="#FB9100"/>
<path d="M326.593 174.495L326.997 178.528L329.85 177.374L329.446 174.495H326.593Z" fill="url(#paint1_linear_134_1241)"/>
<path d="M310.747 156.576L316.345 156.517L315.95 157.503C320.254 159.673 323.325 165.166 323.325 171.605C323.325 177.877 320.412 183.261 316.266 185.539V186.703H312.317H311.823C305.485 186.703 300.342 179.948 300.342 171.605C300.362 163.755 304.923 157.296 310.747 156.576Z" fill="#222B54"/>
<path d="M315.831 186.703C322.173 186.703 327.313 179.944 327.313 171.605C327.313 163.267 322.173 156.507 315.831 156.507C309.49 156.507 304.35 163.267 304.35 171.605C304.35 179.944 309.49 186.703 315.831 186.703Z" fill="#1B5A96"/>
<path d="M307.154 184.681C307.21 184.682 307.265 184.669 307.315 184.643C307.365 184.617 307.408 184.579 307.44 184.533C307.47 184.496 307.492 184.453 307.505 184.407C307.518 184.361 307.522 184.312 307.517 184.265C307.511 184.217 307.497 184.171 307.473 184.129C307.45 184.087 307.419 184.05 307.381 184.021C307.322 184.021 302.346 179.987 302.859 169.919C303.373 159.85 310.382 157.7 310.451 157.681C310.531 157.642 310.595 157.577 310.632 157.495C310.668 157.414 310.674 157.323 310.649 157.238C310.625 157.152 310.57 157.079 310.496 157.03C310.422 156.981 310.332 156.96 310.244 156.971C310.165 156.971 302.662 159.337 302.129 169.889C301.596 180.441 306.71 184.435 306.927 184.602C306.992 184.652 307.072 184.679 307.154 184.681Z" fill="#FFF6EB"/>
<path d="M372.628 181.092C372.825 181.092 375.698 176.664 374.227 175.431C372.756 174.199 367.583 173.784 367.178 173.972C366.773 174.159 366.546 181.092 366.546 181.092H372.628Z" fill="url(#paint2_linear_134_1241)"/>
<path d="M385.195 177.098H384.8L315.604 170.875C315.604 170.875 314.064 171.536 315.604 172.779C317.145 174.021 383.092 180.569 383.092 180.569L385.195 177.098Z" fill="#222B54"/>
<path d="M326.592 174.879C326.592 174.879 326.01 173.735 327.491 173.735C328.972 173.735 329.288 173.282 329.288 173.282C329.288 173.282 328.103 172.364 328.833 172.295C329.564 172.226 330.482 172.394 330.808 172.936C331.134 173.479 330.324 174.84 330.324 174.84C330.324 174.84 326.968 175.638 326.592 174.879Z" fill="url(#paint3_linear_134_1241)"/>
<path d="M364.443 187.364L367.188 192.857C367.188 192.857 378.186 215.163 373.98 214.996C369.775 214.828 356.674 196.091 356.674 196.091L364.443 187.364Z" fill="url(#paint4_linear_134_1241)"/>
<path d="M324.973 227.244C323.769 227.244 302.366 225.36 300.184 229.729C298.002 234.097 301.586 279.48 301.586 279.48H307.173L310.254 241.503L324.973 244.245V227.244Z" fill="url(#paint5_linear_134_1241)"/>
<path d="M329.169 251.838C329.169 251.838 342.438 286.748 345.508 286.423C348.578 286.097 381.908 280.279 381.908 280.279L381.098 274.628L350.365 273.977L346.209 246.513L329.169 251.838Z" fill="url(#paint6_linear_134_1241)"/>
<path d="M326.316 248.653L329.258 253.958L349.605 249.964V244.087L326.316 248.653Z" fill="#1B5A96"/>
<path d="M348.42 169.426C348.42 169.426 323.186 170.639 321.528 184.682C319.869 198.724 325.171 225.114 325.171 225.114L351.135 222.688C351.135 222.688 348.46 196.062 353.11 193.103L357.059 198.271L366.605 187.61C366.605 187.61 357.157 172.335 348.42 169.426Z" fill="#FB9100"/>
<path d="M351.145 222.757C351.145 222.757 359.547 247.963 342.309 249.659C325.072 251.355 321.982 245.537 321.982 245.537V225.183L351.461 222.757H351.145Z" fill="#1B5A96"/>
<path d="M342.606 153.687L347.028 169.248C347.028 169.248 339.476 173.302 333.888 172.207L332.388 158.49L342.606 153.687Z" fill="url(#paint7_linear_134_1241)"/>
<path d="M331.4 142.908C331.282 143.125 328.745 159.022 328.745 159.022L337.857 160.284L342.507 145.571C342.507 145.571 333.375 139.318 331.4 142.908Z" fill="url(#paint8_linear_134_1241)"/>
<path d="M339.446 148.075L337.61 156.014C337.584 156.113 337.548 156.209 337.502 156.3C337.186 156.862 335.991 158.706 334.165 157.365C332.516 156.152 330.986 155.057 329.683 154.978C329.396 154.961 329.112 155.053 328.891 155.236C328.669 155.419 328.525 155.68 328.488 155.965C328.074 158.478 327.853 161.02 327.827 163.568C327.831 163.852 327.942 164.124 328.137 164.331C328.333 164.537 328.599 164.662 328.883 164.682C331.733 164.936 334.602 164.853 337.433 164.436C337.635 164.402 337.824 164.313 337.979 164.179C338.134 164.045 338.249 163.871 338.311 163.676C338.953 161.704 340.908 155.856 341.707 154.298C342.507 152.74 344.669 152.631 345.656 152.612C345.809 152.609 345.959 152.575 346.099 152.512C346.238 152.45 346.363 152.359 346.466 152.247C347.196 151.438 348.539 149.456 346.12 147.523C346.001 147.427 345.903 147.308 345.83 147.173C345.758 147.038 345.713 146.89 345.698 146.738C345.683 146.585 345.699 146.432 345.744 146.285C345.79 146.139 345.864 146.003 345.962 145.886C346.266 145.601 346.506 145.255 346.666 144.871C346.827 144.487 346.905 144.074 346.895 143.658C346.884 143.242 346.786 142.833 346.607 142.457C346.428 142.081 346.171 141.748 345.854 141.478C345.197 140.824 344.339 140.407 343.418 140.295C342.497 140.182 341.565 140.38 340.769 140.857C340.528 140.973 340.254 141.001 339.994 140.936C339.735 140.871 339.506 140.718 339.348 140.502C339.237 140.352 339.083 140.24 338.906 140.182C338.729 140.124 338.539 140.122 338.361 140.176C338.208 140.204 338.052 140.201 337.901 140.165C337.75 140.13 337.608 140.064 337.484 139.972C337.359 139.879 337.256 139.762 337.179 139.627C337.102 139.493 337.054 139.344 337.038 139.19C337.004 138.39 336.689 137.627 336.147 137.037C335.605 136.447 334.871 136.067 334.076 135.965C330.068 135.196 328.073 139.2 328.152 142.011C328.231 144.821 332.615 145.423 335.113 144.969C337.008 144.614 338.637 146.35 339.308 147.198C339.391 147.326 339.446 147.471 339.47 147.622C339.493 147.773 339.486 147.928 339.446 148.075Z" fill="black"/>
<path d="M341.016 157.158C341.016 157.158 341.095 152.227 343.089 151.784C345.084 151.34 347.226 152.77 345.518 155.728C343.405 159.357 341.016 157.158 341.016 157.158Z" fill="url(#paint9_linear_134_1241)"/>
<path d="M372.322 214.325C370.137 210.249 368.778 205.782 368.323 201.18C367.751 194.03 368.323 181.23 368.323 181.23C368.323 181.23 363.713 180.944 363.831 178.4C363.95 175.856 365.49 171.25 366.546 173.311C367.149 174.48 367.66 175.693 368.076 176.94C368.076 176.94 373.013 178.913 372.934 181.309C372.855 183.705 383.231 220.183 372.322 214.325Z" fill="url(#paint10_linear_134_1241)"/>
<path d="M392.758 160.028L399.668 159.958L399.165 161.28C404.476 164.238 408.247 171.644 408.247 180.342C408.247 188.823 404.664 196.121 399.569 199.178V200.755H394.712H394.1C386.291 200.755 379.963 191.614 379.963 180.342C379.973 169.692 385.58 161.014 392.758 160.028Z" fill="#222B54"/>
<path d="M399.026 200.716C406.834 200.716 413.164 191.577 413.164 180.303C413.164 169.029 406.834 159.89 399.026 159.89C391.219 159.89 384.889 169.029 384.889 180.303C384.889 191.577 391.219 200.716 399.026 200.716Z" fill="#1B5A96"/>
<path d="M388.335 197.876C388.409 197.873 388.48 197.848 388.54 197.804C388.6 197.76 388.646 197.699 388.671 197.63C388.696 197.56 388.7 197.484 388.683 197.412C388.665 197.34 388.626 197.275 388.572 197.225C388.503 197.176 382.322 191.742 382.964 178.055C383.606 164.367 392.294 161.408 392.382 161.379C392.474 161.347 392.55 161.281 392.595 161.195C392.639 161.108 392.648 161.008 392.619 160.915C392.586 160.825 392.519 160.75 392.433 160.707C392.348 160.663 392.248 160.653 392.155 160.679C392.057 160.679 382.885 163.854 382.224 178.015C381.562 192.176 387.831 197.561 388.098 197.738C388.126 197.776 388.162 197.807 388.202 197.831C388.243 197.855 388.288 197.87 388.335 197.876Z" fill="#FFF6EB"/>
<path d="M400.596 179.248C400.596 179.248 398.167 179.898 399.135 181.22C400.102 182.541 402.541 182.571 402.541 182.571L414.102 183.695C414.102 183.695 416.125 181.279 414.102 180.628C412.078 179.977 400.596 179.248 400.596 179.248Z" fill="#222B54"/>
<path d="M366.546 175.333C366.546 175.333 366.704 172.374 369.409 172.788C372.114 173.202 375.5 175.234 373.911 176.033C372.321 176.831 367.553 176.388 366.546 175.333Z" fill="url(#paint11_linear_134_1241)"/>
<path d="M382.036 280.279C382.036 280.279 381.69 275.229 381.157 274.628C382.579 272.803 384.484 270.752 386.794 271.719C389.105 272.685 388.117 291.955 388.117 291.955C388.117 291.955 379.43 293.651 378.946 291.955C378.462 290.258 382.036 288.68 382.036 288.68V280.279Z" fill="#222B54"/>
<path d="M307.539 287.172C307.539 287.172 309.079 292.527 307.539 292.507C305.999 292.487 286.422 293 286.422 293C286.422 293 285.494 286.995 293.115 287.172C300.737 287.35 300.944 285.9 300.944 285.9C300.944 285.9 306.502 287.823 307.539 287.172Z" fill="#222B54"/>
<path d="M369.528 274.421L370.515 282.31L372.213 282.014L372.825 281.916L373.171 281.847L373.783 281.748L381.937 280.328C381.937 280.328 382.51 275.397 381.128 274.677L373.23 274.51H371.838L369.528 274.421Z" fill="white"/>
<path d="M372.795 274.451L373.151 281.798L373.753 281.689L373.21 274.461L372.795 274.451Z" fill="#222B54"/>
<path d="M371.828 274.431L372.183 281.965L372.795 281.856L372.233 274.441L371.828 274.431Z" fill="#222B54"/>
<path d="M300.944 285.9C300.944 285.9 305.771 288.917 307.618 287.468L307.391 280.762V280.17V279.776V279.194V277.971L301.329 277.616V278.602V279.056V279.579V280.022L300.944 285.9Z" fill="white"/>
<path d="M301.181 279.026L307.351 279.776L307.331 279.194L301.201 278.583L301.181 279.026Z" fill="#222B54"/>
<path d="M301.151 280.002L307.391 280.752L307.371 280.17L301.161 279.559L301.151 280.002Z" fill="#222B54"/>
<path d="M330.591 172.729C330.591 172.729 330.354 172.197 330.877 172.246C331.312 171.447 329.169 171.408 327.511 171.26C325.852 171.112 325.536 172.354 326.257 172.611C326.978 172.867 329.9 173.37 330.591 172.729Z" fill="url(#paint12_linear_134_1241)"/>
<path d="M329.288 173.4C329.309 173.398 329.329 173.391 329.347 173.379C329.364 173.367 329.378 173.35 329.386 173.331C329.397 173.321 329.406 173.308 329.412 173.295C329.417 173.281 329.42 173.267 329.42 173.252C329.42 173.237 329.417 173.222 329.412 173.209C329.406 173.195 329.397 173.183 329.386 173.173C329.031 172.986 328.656 172.68 328.656 172.542C328.656 172.404 328.735 172.463 328.774 172.443C329.377 172.197 330.384 172.709 330.393 172.709C330.422 172.724 330.456 172.727 330.487 172.718C330.518 172.709 330.545 172.688 330.561 172.66C330.568 172.646 330.572 172.631 330.572 172.615C330.573 172.599 330.57 172.584 330.565 172.569C330.559 172.554 330.551 172.541 330.54 172.529C330.529 172.518 330.516 172.509 330.502 172.502C329.949 172.186 329.298 172.088 328.676 172.226C328.468 172.315 328.419 172.443 328.419 172.532C328.419 172.907 329.13 173.311 329.278 173.38L329.288 173.4Z" fill="url(#paint13_linear_134_1241)"/>
<path d="M333.375 249.876C337.958 249.782 342.51 249.103 346.92 247.854C346.956 247.845 346.989 247.829 347.018 247.806C347.048 247.784 347.072 247.755 347.09 247.723C347.107 247.69 347.118 247.654 347.121 247.618C347.124 247.581 347.119 247.544 347.107 247.509C347.097 247.474 347.08 247.441 347.057 247.413C347.034 247.385 347.005 247.362 346.973 247.345C346.941 247.329 346.905 247.319 346.869 247.317C346.832 247.314 346.796 247.319 346.762 247.331C346.643 247.331 334.145 251.089 326.158 248.317C326.124 248.305 326.089 248.3 326.053 248.301C326.017 248.303 325.982 248.312 325.95 248.328C325.917 248.344 325.888 248.365 325.865 248.393C325.841 248.42 325.824 248.451 325.812 248.485C325.79 248.554 325.795 248.63 325.826 248.696C325.857 248.762 325.912 248.814 325.98 248.84C328.371 249.592 330.87 249.942 333.375 249.876Z" fill="#222B54"/>
<path d="M311.883 62.9809C311.883 75.8797 299.779 86.3329 286.866 86.3329C280.666 86.3329 274.719 83.8726 270.335 79.4933C265.951 75.1139 263.488 69.1742 263.488 62.9809C263.488 56.7876 265.951 50.8479 270.335 46.4685C274.719 42.0892 280.666 39.6289 286.866 39.6289C299.809 39.6289 311.883 50.0919 311.883 62.9809Z" fill="#FB9100"/>
<path d="M306.769 62.9808C306.778 65.4385 306.305 67.874 305.377 70.1501C303.485 74.8183 299.831 78.5565 295.205 80.5582C290.578 82.5599 285.35 82.6646 280.646 80.8498C278.269 79.9181 276.098 78.5274 274.259 76.7573C272.41 74.9768 270.942 72.8397 269.945 70.4756C268.942 68.1038 268.425 65.5554 268.424 62.9808C268.435 58.5408 269.989 54.2423 272.82 50.8198C275.652 47.3973 279.586 45.0633 283.949 44.2168C288.312 43.3702 292.835 44.0636 296.743 46.1784C300.651 48.2933 303.703 51.6983 305.377 55.8115C306.304 58.0878 306.777 60.5233 306.769 62.9808ZM304.212 62.9808C304.212 61.9238 304.103 60.8696 303.886 59.835C303.666 58.7967 303.335 57.785 302.899 56.8174C302.025 54.8589 300.755 53.1028 299.167 51.6598C297.569 50.1985 295.701 49.0629 293.668 48.3168C291.626 47.5921 289.466 47.2576 287.3 47.3307C283.034 47.4455 278.97 49.1723 275.927 52.1628C274.475 53.5983 273.318 55.3034 272.521 57.1823C271.746 59.0329 271.347 61.0191 271.347 63.0252C271.347 65.0313 271.746 67.0175 272.521 68.8681C273.322 70.742 274.479 72.4432 275.927 73.8778C278.965 76.8749 283.032 78.6029 287.3 78.7099C289.466 78.788 291.627 78.4533 293.668 77.7238C295.699 76.9772 297.566 75.8454 299.167 74.3906C300.753 72.9421 302.023 71.1832 302.899 69.2232C303.332 68.2747 303.663 67.283 303.886 66.2647C304.112 65.1849 304.221 64.084 304.212 62.9808Z" fill="#FFF6EB"/>
<path d="M282.285 68.3158L277.388 68.4539L276.776 60.5154L281.663 60.2393L282.285 68.3158Z" fill="#FFF6EB"/>
<path d="M289.492 68.1088L284.2 68.2666L283.262 56.1468L288.534 55.7622L289.492 68.1088Z" fill="#FFF6EB"/>
<path d="M297.064 67.892L291.555 68.0497L290.321 52.0445L295.8 51.5811L297.064 67.892Z" fill="#FFF6EB"/>
<path d="M298.328 71.521L276.668 71.8761L276.53 70.101L298.18 69.6079L298.328 71.521Z" fill="#FFF6EB"/>
<path d="M376.596 84.8042C376.596 97.6932 364.493 108.146 351.579 108.146C348.47 108.21 345.378 107.653 342.487 106.509C339.595 105.364 336.961 103.655 334.739 101.48C332.517 99.3061 330.752 96.7108 329.547 93.8464C328.342 90.9821 327.721 87.9063 327.721 84.7993C327.721 81.6923 328.342 78.6165 329.547 75.7521C330.752 72.8878 332.517 70.2924 334.739 68.1181C336.961 65.9438 339.595 64.2343 342.487 63.0897C345.378 61.945 348.47 61.3884 351.579 61.4522C364.493 61.4128 376.596 71.9054 376.596 84.8042Z" fill="#FB9100"/>
<path d="M371.482 84.8045C371.492 87.2654 371.019 89.7043 370.09 91.9837C369.015 94.6217 367.365 96.9871 365.259 98.9073C363.153 100.828 360.644 102.254 357.917 103.084C355.189 103.913 352.31 104.125 349.49 103.702C346.67 103.28 343.98 102.235 341.616 100.642C339.251 99.0502 337.272 96.9513 335.823 94.4985C334.373 92.0457 333.49 89.3008 333.237 86.4637C332.983 83.6267 333.367 80.769 334.359 78.0987C335.351 75.4284 336.928 73.0129 338.973 71.028C340.815 69.2641 342.985 67.8772 345.36 66.9453C350.063 65.1279 355.293 65.2314 359.92 67.2334C364.547 69.2354 368.2 72.9752 370.09 77.6451C371.017 79.9181 371.49 82.3502 371.482 84.8045ZM368.925 84.8045C368.926 83.7442 368.817 82.6867 368.6 81.6488C368.378 80.6109 368.047 79.5994 367.612 78.6312C366.734 76.6756 365.464 74.9203 363.881 73.4737C362.285 72.0119 360.416 70.8792 358.382 70.1405C356.341 69.4109 354.18 69.0762 352.014 69.1543C347.746 69.2613 343.679 70.9893 340.641 73.9865C339.189 75.4184 338.032 77.1203 337.235 78.9961C336.46 80.8468 336.061 82.8329 336.061 84.839C336.061 86.8452 336.46 88.8313 337.235 90.6819C338.035 92.5593 339.191 94.264 340.641 95.7014C343.68 98.695 347.747 100.419 352.014 100.524C354.18 100.597 356.34 100.262 358.382 99.5376C360.415 98.7915 362.283 97.6559 363.881 96.1945C365.473 94.7401 366.744 92.9701 367.612 90.9975C368.047 90.0294 368.378 89.0178 368.6 87.9799C368.815 86.9353 368.921 85.8711 368.916 84.8045H368.925Z" fill="#FFF6EB"/>
<path d="M366.053 85.1295C364.711 83.0155 362.857 81.2744 360.661 80.068C358.466 78.8616 356.001 78.229 353.495 78.229C350.989 78.229 348.524 78.8616 346.329 80.068C344.133 81.2744 342.279 83.0155 340.937 85.1295C340.873 85.236 340.851 85.3625 340.874 85.4845C340.898 85.6065 340.966 85.7154 341.066 85.7902L346.653 89.932C346.742 90.0011 346.851 89.932 346.959 89.932H360.03C360.139 89.932 360.248 90.0405 360.337 89.932L365.954 85.7113C365.999 85.6799 366.037 85.6398 366.067 85.5934C366.096 85.547 366.116 85.4952 366.125 85.4411C366.134 85.3869 366.133 85.3315 366.12 85.278C366.108 85.2245 366.085 85.174 366.053 85.1295Z" fill="#FFF6EB"/>
<path d="M350.632 89.4491L347.532 82.7926C347.517 82.7598 347.491 82.733 347.459 82.7169C347.427 82.7007 347.39 82.6961 347.354 82.7039C347.317 82.7111 347.283 82.7326 347.261 82.7638C347.239 82.7951 347.23 82.8337 347.236 82.8715L347.68 89.3702C347.68 89.4141 347.696 89.4565 347.725 89.4893C347.754 89.5221 347.794 89.5429 347.838 89.5478H350.494C350.523 89.5441 350.551 89.5332 350.575 89.516C350.6 89.4988 350.619 89.4758 350.632 89.4491C350.662 89.4984 350.662 89.3998 350.632 89.4491Z" fill="#1B5A96"/>
<path d="M203.582 80.0117C203.582 92.9105 215.696 103.364 228.599 103.364C234.799 103.364 240.745 100.903 245.13 96.524C249.514 92.1447 251.977 86.205 251.977 80.0117C251.977 73.8183 249.514 67.8787 245.13 63.4993C240.745 59.12 234.799 56.6597 228.599 56.6597C215.696 56.6597 203.582 67.1128 203.582 80.0117Z" fill="#FB9100"/>
<path d="M210.088 72.8425C211.018 70.5573 212.379 68.4717 214.096 66.6988C217.599 63.0855 222.381 60.9893 227.414 60.8608C231.916 60.7547 236.311 62.2339 239.831 65.0392C243.35 67.8446 245.77 71.7973 246.665 76.2053C247.179 78.727 247.179 81.3262 246.665 83.8479C246.403 85.1028 246.016 86.3284 245.51 87.5065C244.51 89.8692 243.043 92.0059 241.196 93.7883C239.37 95.563 237.206 96.9532 234.831 97.8764C232.457 98.7997 229.921 99.2371 227.375 99.1628C224.276 99.0879 221.241 98.2638 218.531 96.7612C215.82 95.2585 213.515 93.1221 211.811 90.5348C210.108 87.9476 209.058 84.9865 208.751 81.9053C208.444 78.824 208.889 75.7143 210.049 72.8425H210.088ZM211.589 83.1576C211.813 84.1948 212.144 85.206 212.576 86.1752C213.459 88.1312 214.728 89.8889 216.308 91.3427C217.911 92.7986 219.782 93.9305 221.817 94.6758C223.854 95.4046 226.012 95.7393 228.174 95.662C232.451 95.5755 236.533 93.8612 239.587 90.8693C241.036 89.4334 242.19 87.7282 242.983 85.8498C243.765 84.0026 244.168 82.0174 244.168 80.0118C244.168 78.0062 243.765 76.021 242.983 74.1738C242.19 72.2954 241.036 70.5902 239.587 69.1543C236.525 66.1704 232.441 64.4607 228.164 64.3715C226.005 64.3004 223.852 64.6349 221.817 65.3576C219.782 66.103 217.911 67.2349 216.308 68.6908C214.728 70.1446 213.459 71.9023 212.576 73.8582C212.144 74.8275 211.813 75.8387 211.589 76.8759C211.141 78.9492 211.141 81.0941 211.589 83.1675V83.1576Z" fill="#FFF6EB"/>
<path d="M227.928 68.3157C227.835 68.1987 227.717 68.1042 227.583 68.0392C227.449 67.9742 227.302 67.9404 227.153 67.9404C227.003 67.9404 226.856 67.9742 226.722 68.0392C226.588 68.1042 226.47 68.1987 226.378 68.3157C224.285 71.2741 218.667 79.5084 218.667 83.315C218.742 85.5129 219.669 87.5958 221.252 89.1241C222.835 90.6524 224.951 91.5067 227.153 91.5067C229.354 91.5067 231.47 90.6524 233.053 89.1241C234.636 87.5958 235.563 85.5129 235.638 83.315C235.638 79.469 230.021 71.2741 227.928 68.3157ZM225.469 89.1234C225.451 89.2296 225.395 89.3256 225.311 89.3943C225.228 89.463 225.123 89.4998 225.015 89.4981H224.907C224.101 89.3733 223.331 89.0772 222.65 88.6297C221.969 88.1823 221.392 87.594 220.958 86.9046C220.158 85.3026 219.982 83.4613 220.464 81.7371C220.501 81.6168 220.584 81.516 220.695 81.4568C220.806 81.3976 220.936 81.385 221.056 81.4216C221.177 81.4582 221.278 81.5411 221.337 81.6521C221.396 81.763 221.409 81.893 221.372 82.0133C220.961 83.4857 221.105 85.0578 221.777 86.4312C222.143 87.0021 222.626 87.489 223.195 87.8596C223.763 88.2301 224.404 88.4761 225.074 88.581C225.136 88.5906 225.195 88.6123 225.248 88.6448C225.302 88.6772 225.348 88.7199 225.385 88.7703C225.421 88.8207 225.448 88.8778 225.462 88.9384C225.477 88.999 225.479 89.0619 225.469 89.1234Z" fill="#FFF6EB"/>
<path d="M190.136 139.318C190.136 152.207 202.24 162.661 215.153 162.661C221.268 162.535 227.091 160.02 231.372 155.655C235.653 151.291 238.05 145.424 238.05 139.313C238.05 133.203 235.653 127.336 231.372 122.972C227.091 118.607 221.268 116.092 215.153 115.966C202.24 115.927 190.136 126.38 190.136 139.318Z" fill="#FB9100"/>
<path d="M196.642 132.11C197.566 129.824 198.924 127.738 200.64 125.966C202.361 124.177 204.417 122.743 206.692 121.745C208.997 120.728 211.48 120.175 213.999 120.117C216.518 120.06 219.023 120.499 221.372 121.41C224.98 122.815 228.079 125.277 230.26 128.473C232.441 131.67 233.604 135.45 233.594 139.318C233.594 140.6 233.465 141.879 233.209 143.135C232.441 146.928 230.542 150.401 227.76 153.095C225.019 155.742 221.551 157.512 217.798 158.18C214.045 158.847 210.178 158.382 206.692 156.842C202.138 154.843 198.543 151.151 196.667 146.549C194.791 141.947 194.782 136.797 196.642 132.189V132.11ZM198.123 142.425C198.344 143.463 198.675 144.474 199.11 145.442C199.983 147.401 201.254 149.157 202.842 150.6C204.439 152.061 206.307 153.197 208.341 153.943C210.382 154.668 212.543 155.003 214.708 154.929C218.97 154.843 223.04 153.14 226.091 150.166C227.537 148.728 228.69 147.023 229.487 145.147C230.269 143.298 230.672 141.311 230.672 139.304C230.672 137.297 230.269 135.31 229.487 133.461C228.69 131.584 227.537 129.88 226.091 128.441C223.052 125.448 218.985 123.723 214.718 123.619C212.552 123.541 210.391 123.876 208.35 124.605C206.316 125.344 204.447 126.477 202.851 127.938C201.261 129.385 199.988 131.144 199.11 133.106C198.675 134.074 198.344 135.085 198.123 136.123C197.675 138.2 197.675 140.348 198.123 142.425Z" fill="#FFF6EB"/>
<path d="M207.739 133.352C207.739 132.138 206.753 131.153 205.537 131.153C204.321 131.153 203.335 132.138 203.335 133.352V145.906C203.335 147.121 204.321 148.105 205.537 148.105C206.753 148.105 207.739 147.121 207.739 145.906V133.352Z" fill="#FFF6EB"/>
<path d="M202.704 137.435C202.704 136.999 202.352 136.646 201.919 136.646C201.485 136.646 201.134 136.999 201.134 137.435V141.823C201.134 142.259 201.485 142.612 201.919 142.612C202.352 142.612 202.704 142.259 202.704 141.823V137.435Z" fill="#FFF6EB"/>
<path d="M225.963 133.352C225.963 132.138 224.977 131.153 223.761 131.153C222.545 131.153 221.56 132.138 221.56 133.352V145.906C221.56 147.121 222.545 148.105 223.761 148.105C224.977 148.105 225.963 147.121 225.963 145.906V133.352Z" fill="#FFF6EB"/>
<path d="M228.155 137.435C228.155 136.999 227.803 136.646 227.37 136.646C226.936 136.646 226.585 136.999 226.585 137.435V141.823C226.585 142.259 226.936 142.612 227.37 142.612C227.803 142.612 228.155 142.259 228.155 141.823V137.435Z" fill="#FFF6EB"/>
<path d="M219.733 138.362H209.555C208.895 138.362 208.36 138.896 208.36 139.555C208.36 140.214 208.895 140.748 209.555 140.748H219.733C220.393 140.748 220.928 140.214 220.928 139.555C220.928 138.896 220.393 138.362 219.733 138.362Z" fill="#FFF6EB"/>
</g>
</g>
<defs>
<linearGradient id="paint0_linear_134_1241" x1="165.384" y1="252.365" x2="200.442" y2="137.328" gradientUnits="userSpaceOnUse">
<stop stop-color="#09005D"/>
<stop offset="1" stop-color="#1A0F91"/>
</linearGradient>
<linearGradient id="paint1_linear_134_1241" x1="328.202" y1="176.398" x2="328.615" y2="179.1" gradientUnits="userSpaceOnUse">
<stop stop-color="#FEBBBA"/>
<stop offset="1" stop-color="#FF928E"/>
</linearGradient>
<linearGradient id="paint2_linear_134_1241" x1="370.426" y1="177.65" x2="371.234" y2="182.906" gradientUnits="userSpaceOnUse">
<stop stop-color="#FEBBBA"/>
<stop offset="1" stop-color="#FF928E"/>
</linearGradient>
<linearGradient id="paint3_linear_134_1241" x1="327.984" y1="171.566" x2="329.314" y2="176.004" gradientUnits="userSpaceOnUse">
<stop stop-color="#FEBBBA"/>
<stop offset="1" stop-color="#FF928E"/>
</linearGradient>
<linearGradient id="paint4_linear_134_1241" x1="379.775" y1="178.498" x2="365.623" y2="205.561" gradientUnits="userSpaceOnUse">
<stop stop-color="#FEBBBA"/>
<stop offset="1" stop-color="#FF928E"/>
</linearGradient>
<linearGradient id="paint5_linear_134_1241" x1="324.973" y1="253.16" x2="299.473" y2="253.16" gradientUnits="userSpaceOnUse">
<stop stop-color="#FEBBBA"/>
<stop offset="1" stop-color="#FF928E"/>
</linearGradient>
<linearGradient id="paint6_linear_134_1241" x1="381.908" y1="266.463" x2="329.169" y2="266.463" gradientUnits="userSpaceOnUse">
<stop stop-color="#FEBBBA"/>
<stop offset="1" stop-color="#FF928E"/>
</linearGradient>
<linearGradient id="paint7_linear_134_1241" x1="272.102" y1="106.091" x2="304.996" y2="186.726" gradientUnits="userSpaceOnUse">
<stop stop-color="#FEBBBA"/>
<stop offset="1" stop-color="#FF928E"/>
</linearGradient>
<linearGradient id="paint8_linear_134_1241" x1="380.868" y1="101.956" x2="385.388" y2="132.328" gradientUnits="userSpaceOnUse">
<stop stop-color="#FEBBBA"/>
<stop offset="1" stop-color="#FF928E"/>
</linearGradient>
<linearGradient id="paint9_linear_134_1241" x1="395.401" y1="131.967" x2="389.667" y2="111.481" gradientUnits="userSpaceOnUse">
<stop stop-color="#FEBBBA"/>
<stop offset="1" stop-color="#FF928E"/>
</linearGradient>
<linearGradient id="paint10_linear_134_1241" x1="371.532" y1="181.674" x2="367.513" y2="232.806" gradientUnits="userSpaceOnUse">
<stop stop-color="#FEBBBA"/>
<stop offset="1" stop-color="#FF928E"/>
</linearGradient>
<linearGradient id="paint11_linear_134_1241" x1="370.327" y1="174.721" x2="370.751" y2="177.492" gradientUnits="userSpaceOnUse">
<stop stop-color="#FEBBBA"/>
<stop offset="1" stop-color="#FF928E"/>
</linearGradient>
<linearGradient id="paint12_linear_134_1241" x1="328.222" y1="171.487" x2="329.552" y2="175.935" gradientUnits="userSpaceOnUse">
<stop stop-color="#FEBBBA"/>
<stop offset="1" stop-color="#FF928E"/>
</linearGradient>
<linearGradient id="paint13_linear_134_1241" x1="329.406" y1="173.419" x2="329.485" y2="171.723" gradientUnits="userSpaceOnUse">
<stop stop-color="#FEBBBA"/>
<stop offset="1" stop-color="#FF928E"/>
</linearGradient>
<clipPath id="clip0_134_1241">
<rect width="570" height="324" fill="white"/>
</clipPath>
<clipPath id="clip1_134_1241">
<rect width="260" height="262" fill="white" transform="translate(155 31)"/>
</clipPath>
</defs>
</svg>
