<svg width="570" height="324" viewBox="0 0 570 324" fill="none" xmlns="http://www.w3.org/2000/svg">
<g clip-path="url(#clip0_118_2)">
<rect width="570" height="324" fill="#FFF6EB"/>
<path d="M486.065 292.996H83.7149C83.517 292.979 83.3354 292.92 83.2039 292.829C83.0725 292.738 83 292.621 83 292.5C83 292.379 83.0725 292.262 83.2039 292.171C83.3354 292.08 83.517 292.021 83.7149 292.004H486.065C486.182 291.995 486.3 292.001 486.413 292.021C486.526 292.042 486.63 292.077 486.718 292.124C486.807 292.171 486.878 292.228 486.926 292.293C486.975 292.358 487 292.429 487 292.5C487 292.571 486.975 292.642 486.926 292.707C486.878 292.772 486.807 292.829 486.718 292.876C486.63 292.923 486.526 292.958 486.413 292.979C486.3 292.999 486.182 293.005 486.065 292.996Z" fill="#1E1E1E"/>
<g clip-path="url(#clip1_118_2)">
<path d="M495.12 141.16C494.89 141.51 494.65 141.86 494.4 142.16V141.16H495.12Z" fill="#DCEAFB"/>
<path d="M209.39 77.0801C209.39 77.3201 209.34 77.5601 209.31 77.7901C209.058 79.7746 208.592 81.726 207.92 83.6101C206.782 86.9205 204.872 89.9128 202.35 92.3401C199.474 94.8499 195.91 96.4354 192.12 96.8901C184.29 98.0901 175.39 95.9501 170.12 89.7301C168.528 88.0591 167.355 86.0334 166.7 83.8201C165.976 81.3685 166.113 78.7426 167.09 76.3801C167.98 74.3801 169.46 73.1501 171 71.6901C171.672 71.1493 172.228 70.4779 172.633 69.7166C173.039 68.9552 173.286 68.1196 173.36 67.2601C173.373 65.842 173.741 64.4497 174.43 63.2101C175.577 61.7067 177.21 60.6467 179.05 60.2101C182.14 59.2101 185.05 58.8701 187.11 56.2101C187.876 55.0535 188.837 54.0384 189.95 53.2101C190.658 52.6826 191.486 52.3391 192.36 52.2101C193.402 52.1119 194.449 52.3352 195.36 52.8501C195.92 53.1516 196.416 53.5592 196.82 54.0501C197.02 54.2925 197.192 54.5577 197.33 54.8401C198.055 54.6196 198.836 54.6681 199.528 54.9767C200.221 55.2853 200.779 55.8333 201.1 56.5201C201.53 57.6301 201.1 58.7801 200.96 59.9001C200.828 60.96 201.1 62.0308 201.72 62.9001C202.77 64.4301 204.44 65.2601 205.72 66.5601C207.073 67.932 208.104 69.5876 208.739 71.407C209.374 73.2265 209.596 75.1642 209.39 77.0801Z" fill="black"/>
<path d="M198.71 64.8098C198.337 65.7595 197.624 66.5366 196.71 66.9898C196.502 67.0931 196.284 67.1768 196.06 67.2398C195.304 67.4344 194.51 67.4219 193.76 67.2038C193.011 66.9856 192.333 66.5697 191.8 65.9998C191.949 66.6551 192.247 67.2674 192.67 67.7898C193.116 68.2908 193.659 68.6968 194.265 68.9837C194.872 69.2706 195.53 69.4325 196.2 69.4598L196.5 74.1898L188.2 73.0198C188.552 72.0701 188.853 71.102 189.1 70.1198C189.458 68.9867 189.65 67.8078 189.67 66.6198C189.661 65.9091 189.573 65.2015 189.41 64.5098C189.083 64.5374 188.756 64.4699 188.467 64.3156C188.177 64.1612 187.939 63.9265 187.78 63.6398C187.708 63.4671 187.671 63.2819 187.671 63.0948C187.671 62.9077 187.708 62.7225 187.78 62.5498C187.887 62.3449 188.041 62.1678 188.228 62.0324C188.415 61.897 188.632 61.8071 188.86 61.7698C189.55 61.6598 189.75 62.1798 190.67 62.4398C191.178 62.6091 191.722 62.6438 192.248 62.5404C192.774 62.437 193.264 62.199 193.67 61.8498C193.961 61.5086 194.17 61.1048 194.28 60.6698C194.63 59.6698 194.37 59.3198 194.72 58.3198C194.845 57.7761 195.139 57.286 195.56 56.9198C196.075 56.5594 196.709 56.4125 197.33 56.5098C197.81 58.2198 198.28 59.9198 198.76 61.6198C199.147 62.6513 199.129 63.791 198.71 64.8098Z" fill="#FFCFC5"/>
<path d="M190.56 62.3898C190.751 62.5034 190.956 62.5908 191.17 62.6498C191.679 62.8181 192.222 62.8523 192.748 62.7489C193.273 62.6456 193.763 62.4082 194.17 62.0598C194.462 61.7203 194.668 61.3156 194.77 60.8798C195.13 59.8798 194.87 59.5298 195.21 58.5298C195.339 57.9854 195.636 57.4955 196.06 57.1298C196.45 56.8402 196.925 56.6888 197.41 56.6998C197.387 56.6382 197.371 56.5746 197.36 56.5098C196.739 56.4125 196.105 56.5594 195.59 56.9198C195.169 57.286 194.875 57.7761 194.75 58.3198C194.4 59.3198 194.66 59.6398 194.31 60.6698C194.2 61.1048 193.991 61.5086 193.7 61.8498C193.294 62.199 192.804 62.437 192.278 62.5404C191.752 62.6438 191.208 62.6091 190.7 62.4398L190.56 62.3898Z" fill="#FF797D"/>
<path d="M196.2 69.46C195.53 69.4327 194.872 69.2708 194.265 68.9839C193.659 68.697 193.116 68.291 192.67 67.79C192.247 67.2676 191.949 66.6553 191.8 66C192.333 66.5699 193.01 66.9858 193.76 67.2039C194.51 67.4221 195.304 67.4346 196.06 67.24C196.11 67.98 196.15 68.72 196.2 69.46Z" fill="#FF797D"/>
<path d="M400.78 98.14V232.7H151.56V98.14C151.559 97.3696 151.709 96.6065 152.003 95.8944C152.297 95.1823 152.729 94.5351 153.273 93.9899C153.817 93.4447 154.464 93.0122 155.175 92.717C155.887 92.4219 156.65 92.27 157.42 92.27H394.91C396.467 92.27 397.96 92.8885 399.061 93.9893C400.162 95.0901 400.78 96.5832 400.78 98.14Z" fill="#1D3557"/>
<path d="M400.78 98.14V232.7H151.56V98.14C151.559 97.3696 151.709 96.6065 152.003 95.8944C152.297 95.1823 152.729 94.5351 153.273 93.9899C153.817 93.4447 154.464 93.0122 155.175 92.717C155.887 92.4219 156.65 92.27 157.42 92.27H394.91C396.467 92.27 397.96 92.8885 399.061 93.9893C400.162 95.0901 400.78 96.5832 400.78 98.14Z" fill="#1B5A96"/>
<path d="M389.81 101.38H162.56C161.533 101.38 160.7 102.213 160.7 103.24V221.73C160.7 222.757 161.533 223.59 162.56 223.59H389.81C390.837 223.59 391.67 222.757 391.67 221.73V103.24C391.67 102.213 390.837 101.38 389.81 101.38Z" fill="#FFF6EB"/>
<path d="M334.56 150.14V117.84C334.56 112.974 330.616 109.03 325.75 109.03H301.94C297.074 109.03 293.13 112.974 293.13 117.84V150.14C293.13 155.005 297.074 158.95 301.94 158.95H325.75C330.616 158.95 334.56 155.005 334.56 150.14Z" stroke="#231F20" stroke-width="0.5" stroke-miterlimit="10"/>
<path d="M306.16 128.73H301.54V139.67H306.16V128.73Z" fill="#122A4F"/>
<path d="M313.31 123.37H308.69V139.66H313.31V123.37Z" fill="#C66A05"/>
<path d="M320.46 115.99H315.84V139.67H320.46V115.99Z" fill="#FB9100"/>
<path d="M327.6 126.34H322.98V139.66H327.6V126.34Z" fill="#1B5A96"/>
<g opacity="0.5">
<path d="M329.21 142.45H298.58V116.43H299.07V141.96H329.21V142.45Z" fill="white"/>
</g>
<path d="M328.06 144.23H299.49C298.789 144.23 298.22 144.799 298.22 145.5V145.94C298.22 146.641 298.789 147.21 299.49 147.21H328.06C328.761 147.21 329.33 146.641 329.33 145.94V145.5C329.33 144.799 328.761 144.23 328.06 144.23Z" fill="#FB9100"/>
<path d="M328.06 149.7H299.49C298.789 149.7 298.22 150.269 298.22 150.97V151.41C298.22 152.112 298.789 152.68 299.49 152.68H328.06C328.761 152.68 329.33 152.112 329.33 151.41V150.97C329.33 150.269 328.761 149.7 328.06 149.7Z" fill="#FB9100"/>
<path d="M223.29 109.03H175.38C170.514 109.03 166.57 112.974 166.57 117.84V207.13C166.57 211.995 170.514 215.94 175.38 215.94H223.29C228.156 215.94 232.1 211.995 232.1 207.13V117.84C232.1 112.974 228.156 109.03 223.29 109.03Z" stroke="#231F20" stroke-width="0.5" stroke-miterlimit="10"/>
<path d="M219.98 115.94H178.67C175.522 115.94 172.97 118.492 172.97 121.64V146.26C172.97 149.408 175.522 151.96 178.67 151.96H219.98C223.128 151.96 225.68 149.408 225.68 146.26V121.64C225.68 118.492 223.128 115.94 219.98 115.94Z" fill="#9EBEFF"/>
<path d="M215.56 129.45C217.631 129.45 219.31 127.771 219.31 125.7C219.31 123.629 217.631 121.95 215.56 121.95C213.489 121.95 211.81 123.629 211.81 125.7C211.81 127.771 213.489 129.45 215.56 129.45Z" fill="white"/>
<path d="M213.11 151.96H175.56C174.884 151.96 174.235 151.692 173.757 151.213C173.279 150.735 173.01 150.087 173.01 149.41V141.51L186.01 128.51C186.458 128.062 186.993 127.711 187.582 127.479C188.171 127.246 188.802 127.137 189.435 127.159C190.068 127.18 190.69 127.332 191.262 127.604C191.834 127.876 192.344 128.263 192.76 128.74L204.85 142.55L213.11 151.96Z" fill="#7B95BF"/>
<path d="M225.68 140.99V149.41C225.68 150.085 225.413 150.732 224.937 151.21C224.461 151.687 223.815 151.957 223.14 151.96H213.14L204.87 142.51L213.58 134.37C214.034 133.947 214.568 133.62 215.151 133.408C215.733 133.196 216.353 133.103 216.972 133.134C217.591 133.166 218.198 133.322 218.756 133.593C219.314 133.863 219.812 134.243 220.22 134.71L225.68 140.99Z" fill="#305EBB"/>
<path d="M206.16 160.46H175.35C174.036 160.46 172.97 161.526 172.97 162.84V164.16C172.97 165.474 174.036 166.54 175.35 166.54H206.16C207.474 166.54 208.54 165.474 208.54 164.16V162.84C208.54 161.526 207.474 160.46 206.16 160.46Z" fill="#9EBEFF"/>
<path d="M192.78 171.94H174.04C173.455 171.94 172.98 172.415 172.98 173C172.98 173.585 173.455 174.06 174.04 174.06H192.78C193.365 174.06 193.84 173.585 193.84 173C193.84 172.415 193.365 171.94 192.78 171.94Z" fill="#1B5A96"/>
<path d="M214.5 177.05H174.04C173.455 177.05 172.98 177.524 172.98 178.11C172.98 178.695 173.455 179.17 174.04 179.17H214.5C215.085 179.17 215.56 178.695 215.56 178.11C215.56 177.524 215.085 177.05 214.5 177.05Z" fill="#1B5A96"/>
<path d="M214.5 182.16H174.04C173.455 182.16 172.98 182.635 172.98 183.22C172.98 183.806 173.455 184.28 174.04 184.28H214.5C215.085 184.28 215.56 183.806 215.56 183.22C215.56 182.635 215.085 182.16 214.5 182.16Z" fill="#1B5A96"/>
<path d="M207.91 187.28H174.04C173.455 187.28 172.98 187.754 172.98 188.34C172.98 188.925 173.455 189.4 174.04 189.4H207.91C208.495 189.4 208.97 188.925 208.97 188.34C208.97 187.754 208.495 187.28 207.91 187.28Z" fill="#1B5A96"/>
<path d="M213.52 198.97H185.44C184.126 198.97 183.06 200.036 183.06 201.35V203.46C183.06 204.775 184.126 205.84 185.44 205.84H213.52C214.834 205.84 215.9 204.775 215.9 203.46V201.35C215.9 200.036 214.834 198.97 213.52 198.97Z" fill="#FB9100"/>
<path d="M376.98 168.74H250.7C245.834 168.74 241.89 172.685 241.89 177.55V207.13C241.89 211.996 245.834 215.94 250.7 215.94H376.98C381.846 215.94 385.79 211.996 385.79 207.13V177.55C385.79 172.685 381.846 168.74 376.98 168.74Z" stroke="#231F20" stroke-width="0.5" stroke-miterlimit="10"/>
<path d="M284.102 198.365C287.421 189.447 282.881 179.527 273.962 176.208C265.044 172.89 255.124 177.429 251.805 186.348C248.487 195.266 253.027 205.186 261.945 208.505C270.864 211.823 280.784 207.284 284.102 198.365Z" fill="#305EBB"/>
<path d="M272.79 186.71C272.79 189.38 270.63 192.26 267.97 192.26C265.31 192.26 263.14 189.38 263.14 186.71C263.197 185.468 263.73 184.296 264.628 183.437C265.527 182.579 266.722 182.1 267.965 182.1C269.208 182.1 270.403 182.579 271.302 183.437C272.2 184.296 272.733 185.468 272.79 186.71Z" fill="white"/>
<path d="M261.98 202.52H273.76C274.367 202.519 274.958 202.324 275.447 201.964C275.936 201.605 276.298 201.099 276.48 200.52L277.11 198.52C277.334 197.821 277.28 197.062 276.96 196.401C276.64 195.74 276.078 195.228 275.39 194.97C270.574 193.303 265.329 193.36 260.55 195.13C259.865 195.366 259.295 195.854 258.957 196.495C258.619 197.136 258.538 197.881 258.73 198.58L259.22 200.38C259.379 200.992 259.736 201.533 260.235 201.92C260.735 202.308 261.348 202.518 261.98 202.52Z" fill="white"/>
<path d="M351.81 178.92H291.19C290.433 178.92 289.82 179.533 289.82 180.29C289.82 181.047 290.433 181.66 291.19 181.66H351.81C352.567 181.66 353.18 181.047 353.18 180.29C353.18 179.533 352.567 178.92 351.81 178.92Z" fill="#FB9100"/>
<path d="M351.81 186.95H291.19C290.433 186.95 289.82 187.564 289.82 188.32C289.82 189.077 290.433 189.69 291.19 189.69H351.81C352.567 189.69 353.18 189.077 353.18 188.32C353.18 187.564 352.567 186.95 351.81 186.95Z" fill="#FB9100"/>
<path d="M337.34 194.99H291.19C290.433 194.99 289.82 195.604 289.82 196.36C289.82 197.117 290.433 197.73 291.19 197.73H337.34C338.097 197.73 338.71 197.117 338.71 196.36C338.71 195.604 338.097 194.99 337.34 194.99Z" fill="#FB9100"/>
<path d="M337.34 203.02H291.19C290.433 203.02 289.82 203.633 289.82 204.39C289.82 205.147 290.433 205.76 291.19 205.76H337.34C338.097 205.76 338.71 205.147 338.71 204.39C338.71 203.633 338.097 203.02 337.34 203.02Z" fill="#FB9100"/>
<path d="M283.32 150.13V117.83C283.32 112.964 279.376 109.02 274.51 109.02H250.7C245.834 109.02 241.89 112.964 241.89 117.83V150.13C241.89 154.996 245.834 158.94 250.7 158.94H274.51C279.376 158.94 283.32 154.996 283.32 150.13Z" stroke="#231F20" stroke-width="0.5" stroke-miterlimit="10"/>
<path d="M276.56 127.73C276.56 130.499 275.739 133.206 274.201 135.508C272.662 137.81 270.476 139.605 267.918 140.664C265.359 141.724 262.544 142.001 259.829 141.461C257.113 140.921 254.618 139.587 252.661 137.629C250.703 135.672 249.369 133.177 248.829 130.461C248.289 127.746 248.566 124.931 249.626 122.372C250.685 119.814 252.48 117.628 254.782 116.089C257.084 114.551 259.791 113.73 262.56 113.73V118.66C260.762 118.66 259.005 119.193 257.51 120.192C256.015 121.191 254.85 122.61 254.162 124.271C253.474 125.932 253.294 127.76 253.645 129.523C253.995 131.287 254.861 132.906 256.132 134.178C257.404 135.449 259.023 136.315 260.787 136.665C262.55 137.016 264.378 136.836 266.039 136.148C267.7 135.46 269.119 134.295 270.118 132.8C271.117 131.305 271.65 129.548 271.65 127.75L276.56 127.73Z" fill="#FB9100"/>
<path d="M267.84 127.73C267.84 128.778 267.529 129.803 266.947 130.675C266.364 131.546 265.537 132.226 264.568 132.627C263.6 133.028 262.534 133.133 261.506 132.928C260.478 132.724 259.534 132.219 258.792 131.478C258.051 130.737 257.546 129.792 257.342 128.764C257.137 127.736 257.242 126.67 257.643 125.702C258.045 124.734 258.724 123.906 259.595 123.323C260.467 122.741 261.492 122.43 262.54 122.43C263.055 122.431 263.566 122.505 264.06 122.65C264.9 122.907 265.663 123.365 266.284 123.986C266.905 124.607 267.364 125.371 267.62 126.21C267.764 126.704 267.838 127.216 267.84 127.73Z" fill="#C66A05"/>
<path d="M276.48 126.21H271.48C271.166 124.351 270.281 122.636 268.947 121.303C267.614 119.969 265.899 119.084 264.04 118.77V113.77C267.223 114.109 270.194 115.528 272.458 117.792C274.722 120.056 276.141 123.027 276.48 126.21Z" fill="#1B5A96"/>
<path d="M276.83 144.23H248.26C247.559 144.23 246.99 144.799 246.99 145.5V145.94C246.99 146.641 247.559 147.21 248.26 147.21H276.83C277.531 147.21 278.1 146.641 278.1 145.94V145.5C278.1 144.799 277.531 144.23 276.83 144.23Z" fill="#1B5A96"/>
<path d="M276.83 149.7H248.26C247.559 149.7 246.99 150.269 246.99 150.97V151.41C246.99 152.112 247.559 152.68 248.26 152.68H276.83C277.531 152.68 278.1 152.112 278.1 151.41V150.97C278.1 150.269 277.531 149.7 276.83 149.7Z" fill="#1B5A96"/>
<path d="M385.79 150.13V117.83C385.79 112.964 381.846 109.02 376.98 109.02H353.17C348.304 109.02 344.36 112.964 344.36 117.83V150.13C344.36 154.996 348.304 158.94 353.17 158.94H376.98C381.846 158.94 385.79 154.996 385.79 150.13Z" stroke="#231F20" stroke-width="0.5" stroke-miterlimit="10"/>
<path d="M379.03 127.73C379.03 130.499 378.209 133.206 376.671 135.508C375.132 137.81 372.946 139.605 370.388 140.664C367.829 141.724 365.015 142.001 362.299 141.461C359.583 140.921 357.088 139.587 355.131 137.629C353.173 135.672 351.839 133.177 351.299 130.461C350.759 127.746 351.036 124.931 352.096 122.372C353.155 119.814 354.95 117.628 357.252 116.089C359.554 114.551 362.261 113.73 365.03 113.73V118.66C363.232 118.66 361.475 119.193 359.98 120.192C358.485 121.191 357.32 122.61 356.632 124.271C355.944 125.932 355.764 127.76 356.115 129.523C356.465 131.287 357.331 132.906 358.602 134.178C359.874 135.449 361.493 136.315 363.257 136.665C365.02 137.016 366.848 136.836 368.509 136.148C370.17 135.46 371.589 134.295 372.588 132.8C373.587 131.305 374.12 129.548 374.12 127.75L379.03 127.73Z" fill="#FB9100"/>
<path d="M370.31 127.73C370.31 128.778 369.999 129.803 369.417 130.675C368.834 131.546 368.007 132.226 367.038 132.627C366.07 133.028 365.004 133.133 363.976 132.928C362.948 132.724 362.004 132.219 361.262 131.478C360.521 130.737 360.016 129.792 359.812 128.764C359.607 127.736 359.712 126.67 360.113 125.702C360.515 124.734 361.194 123.906 362.065 123.323C362.937 122.741 363.962 122.43 365.01 122.43C365.525 122.431 366.036 122.505 366.53 122.65C367.37 122.907 368.133 123.365 368.754 123.986C369.375 124.607 369.833 125.371 370.09 126.21C370.234 126.704 370.308 127.216 370.31 127.73Z" fill="#9EBEFF"/>
<path d="M378.95 126.21H373.95C373.636 124.351 372.751 122.636 371.417 121.303C370.084 119.969 368.369 119.084 366.51 118.77V113.77C369.693 114.109 372.664 115.528 374.928 117.792C377.192 120.056 378.611 123.027 378.95 126.21Z" fill="#305EBB"/>
<path d="M379.3 144.23H350.73C350.029 144.23 349.46 144.799 349.46 145.5V145.94C349.46 146.641 350.029 147.21 350.73 147.21H379.3C380.001 147.21 380.57 146.641 380.57 145.94V145.5C380.57 144.799 380.001 144.23 379.3 144.23Z" fill="#FB9100"/>
<path d="M379.3 149.7H350.73C350.029 149.7 349.46 150.269 349.46 150.97V151.41C349.46 152.112 350.029 152.68 350.73 152.68H379.3C380.001 152.68 380.57 152.112 380.57 151.41V150.97C380.57 150.269 380.001 149.7 379.3 149.7Z" fill="#FB9100"/>
<path d="M227.02 105.32C229.493 105.32 231.864 106.301 233.614 108.049C235.363 109.797 236.347 112.167 236.35 114.64V160.51C236.354 161.383 236.186 162.249 235.855 163.057C235.525 163.865 235.038 164.601 234.423 165.221C233.809 165.841 233.078 166.334 232.273 166.672C231.467 167.01 230.603 167.186 229.73 167.19H167.2C164.728 167.19 162.358 166.208 160.61 164.46C158.862 162.712 157.88 160.342 157.88 157.87C157.88 158.705 158.045 159.532 158.364 160.304C158.684 161.075 159.152 161.776 159.743 162.367C160.333 162.958 161.035 163.426 161.806 163.746C162.578 164.065 163.405 164.23 164.24 164.23H227.02C227.855 164.23 228.682 164.065 229.454 163.746C230.225 163.426 230.927 162.958 231.517 162.367C232.108 161.776 232.576 161.075 232.896 160.304C233.215 159.532 233.38 158.705 233.38 157.87V111.68C233.38 110.845 233.215 110.018 232.896 109.246C232.576 108.474 232.108 107.773 231.517 107.183C230.927 106.592 230.225 106.124 229.454 105.804C228.682 105.484 227.855 105.32 227.02 105.32Z" fill="#1B5A96"/>
<path d="M233.38 111.68V157.87C233.38 158.705 233.215 159.532 232.896 160.304C232.576 161.075 232.108 161.776 231.517 162.367C230.927 162.958 230.225 163.426 229.454 163.746C228.682 164.065 227.855 164.23 227.02 164.23H164.24C163.405 164.23 162.578 164.065 161.806 163.746C161.035 163.426 160.333 162.958 159.743 162.367C159.152 161.776 158.684 161.075 158.364 160.304C158.045 159.532 157.88 158.705 157.88 157.87V112C157.872 110.238 158.564 108.545 159.803 107.292C161.042 106.04 162.728 105.33 164.49 105.32H227.02C228.707 105.32 230.324 105.99 231.517 107.183C232.71 108.375 233.38 109.993 233.38 111.68Z" fill="#646D78"/>
<path d="M227.02 105.32H164.24C160.727 105.32 157.88 108.167 157.88 111.68V157.87C157.88 161.382 160.727 164.23 164.24 164.23H227.02C230.533 164.23 233.38 161.382 233.38 157.87V111.68C233.38 108.167 230.533 105.32 227.02 105.32Z" fill="#FB9100"/>
<path d="M183.01 144.61C182.778 144.61 182.548 144.561 182.336 144.466C182.124 144.372 181.935 144.233 181.78 144.06L173.9 135.63C173.567 135.271 173.382 134.8 173.382 134.31C173.382 133.82 173.567 133.349 173.9 132.99L181.9 124.41C182.057 124.238 182.247 124.101 182.46 124.007C182.673 123.913 182.902 123.864 183.135 123.864C183.368 123.864 183.597 123.913 183.81 124.007C184.023 124.101 184.213 124.238 184.37 124.41C184.691 124.775 184.867 125.244 184.867 125.73C184.867 126.216 184.691 126.685 184.37 127.05L177.56 134.31L184.2 141.42C184.533 141.779 184.718 142.25 184.718 142.74C184.718 143.23 184.533 143.701 184.2 144.06C184.05 144.228 183.867 144.364 183.662 144.458C183.457 144.553 183.235 144.605 183.01 144.61Z" fill="#FFF6EB"/>
<path d="M208.25 144.61C208.018 144.609 207.789 144.559 207.577 144.464C207.365 144.37 207.176 144.232 207.02 144.06C206.699 143.695 206.523 143.226 206.523 142.74C206.523 142.254 206.699 141.785 207.02 141.42L213.67 134.31L206.89 127.08C206.569 126.715 206.393 126.246 206.393 125.76C206.393 125.274 206.569 124.805 206.89 124.44C207.046 124.268 207.237 124.131 207.45 124.037C207.663 123.943 207.892 123.894 208.125 123.894C208.357 123.894 208.587 123.943 208.8 124.037C209.013 124.131 209.203 124.268 209.36 124.44L217.36 133.02C217.681 133.385 217.857 133.854 217.857 134.34C217.857 134.826 217.681 135.295 217.36 135.66L209.49 144.08C209.331 144.25 209.139 144.384 208.926 144.476C208.712 144.567 208.482 144.613 208.25 144.61Z" fill="#FFF6EB"/>
<path d="M191.72 146.93C191.493 146.927 191.269 146.879 191.06 146.79C190.615 146.586 190.264 146.22 190.078 145.767C189.893 145.314 189.886 144.808 190.06 144.35L197.89 123.79C197.968 123.571 198.09 123.371 198.249 123.201C198.407 123.032 198.598 122.896 198.81 122.802C199.023 122.709 199.252 122.659 199.484 122.657C199.716 122.655 199.946 122.7 200.16 122.79C200.607 122.992 200.959 123.357 201.145 123.811C201.331 124.265 201.336 124.772 201.16 125.23L193.34 145.79C193.217 146.121 192.996 146.408 192.707 146.611C192.418 146.815 192.074 146.926 191.72 146.93Z" fill="#FFF6EB"/>
<path d="M214.56 84.9502C213.866 83.4643 213.032 82.0479 212.07 80.7202C210.322 78.3058 208.109 76.2657 205.56 74.7202C203.165 73.3155 200.547 72.3313 197.82 71.8102L197.44 71.7402C197.198 72.5164 196.773 73.2229 196.2 73.8002C195.626 74.3452 194.944 74.7632 194.198 75.0268C193.452 75.2904 192.659 75.3938 191.87 75.3302C191.26 75.3302 188.58 75.2002 187.97 73.5202C187.797 72.9767 187.818 72.3899 188.03 71.8602C186.739 72.0645 185.46 72.3416 184.2 72.6902L183.89 72.8002C181.409 73.7132 179.095 75.0274 177.04 76.6902C176.55 77.0902 175.88 77.6902 175.12 78.4102C172.863 80.6508 171.054 83.3016 169.79 86.2202C169.938 86.5539 170.13 86.8666 170.36 87.1502C170.551 87.3883 170.769 87.6031 171.01 87.7902C171.16 87.4002 171.32 87.0202 171.49 86.6402C175.088 87.68 178.362 89.6213 181 92.2802C180.87 92.4702 180.74 92.6802 180.61 92.9002C181.48 93.2802 181.75 93.0802 181.75 93.0702L182.32 92.2402H202.58C202.58 92.3002 202.67 92.3702 202.72 92.4402L202.88 92.2502C202.88 92.3102 202.77 92.3702 202.72 92.4402C203.055 92.4572 203.392 92.4303 203.72 92.3602C203.7 92.3181 203.677 92.278 203.65 92.2402L203.34 91.7102C205.373 89.4846 207.827 87.6833 210.56 86.4102C211.25 86.0802 211.92 85.8102 212.56 85.5702C213.2 85.3302 213.92 85.0802 214.56 84.9502Z" fill="#FB9100"/>
<path d="M212.56 85.5702C212.84 86.0002 213.15 86.4902 213.46 87.0402C214.012 86.4577 214.392 85.7346 214.56 84.9502C213.92 85.0802 213.24 85.3202 212.56 85.5702Z" fill="#F44D5E"/>
<path d="M199 129.19C199.71 129.39 200.29 127.82 200.43 127.33C200.75 126.26 201.8 126.27 201.32 127.55C200.496 129.578 200.026 131.733 199.93 133.92C199.93 134.6 199.93 137.74 201.08 137.71C201.2 137.71 201.37 137.48 201.35 137.14C201.51 133.14 205.16 130.48 206.42 126.94C207.28 124.52 207.84 121.94 209.23 119.76C212.23 114.96 214.92 110.33 216.01 104.65C216.835 100.554 216.698 96.3234 215.61 92.2898C215.223 90.8872 214.704 89.5244 214.06 88.2198C213.85 87.7998 213.64 87.4098 213.44 87.0398C213.13 86.4898 212.82 86.0398 212.54 85.5698C211.89 85.8098 211.22 86.0798 210.54 86.4098C207.828 87.7056 205.398 89.5236 203.39 91.7598L203.7 92.2898C203.727 92.3276 203.75 92.3677 203.77 92.4098C205.831 96.1272 207.05 100.252 207.341 104.493C207.631 108.734 206.986 112.986 205.45 116.95C204.704 119.021 203.619 120.954 202.24 122.67C200.88 124.31 199.24 125.89 198.67 128.01C198.56 128.45 198.56 129.08 199 129.19Z" fill="#FFCFC5"/>
<path d="M169.29 99.7899C169.831 104.885 171.231 109.852 173.43 114.48C175.27 118.48 177.61 123.23 181.02 126.07C182.012 127.011 183.323 127.543 184.69 127.56C183.26 125.953 182.064 124.152 181.14 122.21C180.858 121.498 180.728 120.735 180.76 119.97C180.76 119.31 180.94 119.22 181 119.19C181.24 119.1 181.51 119.54 182.4 120.3C182.842 120.728 183.381 121.043 183.97 121.22C184.19 121.22 184.59 121.37 184.72 121.22C184.85 121.07 184.26 120.22 184.08 119.95C178.76 113.47 176.08 102.95 179.56 95.0199C179.87 94.3051 180.231 93.6134 180.64 92.9499C180.77 92.7299 180.9 92.5199 181.03 92.3299C179.796 91.086 178.42 89.9918 176.93 89.0699C175.243 88.0345 173.423 87.2338 171.52 86.6899C171.35 87.0699 171.19 87.4499 171.04 87.8399C170.464 89.294 170.019 90.7967 169.71 92.3299C169.207 94.7828 169.065 97.2961 169.29 99.7899Z" fill="#FFCFC5"/>
<path d="M182.35 92.2898L185.62 87.5298L182.35 92.2898Z" fill="black"/>
<path d="M215.01 108.47C215.431 107.221 215.765 105.945 216.01 104.65C216.835 100.554 216.698 96.3234 215.61 92.2898C215.223 90.8872 214.704 89.5244 214.06 88.2198C213.85 87.7998 213.64 87.4098 213.44 87.0398C213.13 86.4898 212.82 86.0398 212.54 85.5698C211.89 85.8098 211.22 86.0798 210.54 86.4098L210.21 86.5698L210.03 86.6598C218.42 93.5198 215.08 108.16 215.01 108.47Z" fill="#FF797D"/>
<path d="M180.56 114.19C177.82 108.19 177.04 100.85 179.56 95.0101C179.87 94.2952 180.231 93.6035 180.64 92.9401C180.77 92.7201 180.91 92.5101 181.03 92.3201C180.399 91.6937 179.731 91.1059 179.03 90.5601C173.29 99.7101 180.3 113.72 180.56 114.19Z" fill="#FF797D"/>
<path opacity="0.5" d="M169.79 86.23C169.938 86.5637 170.13 86.8763 170.36 87.16C170.551 87.398 170.769 87.6128 171.01 87.8C171.16 87.41 171.32 87.03 171.49 86.65C170.89 86.47 170.32 86.34 169.79 86.23Z" fill="#C62C43"/>
<path opacity="0.5" d="M180.64 92.9398C181.51 93.3198 181.78 93.1098 181.78 93.1098L181.03 92.3198C180.9 92.5098 180.77 92.7198 180.64 92.9398Z" fill="#C62C43"/>
<path opacity="0.5" d="M212.56 85.5702C212.84 86.0002 213.15 86.4902 213.46 87.0402C214.012 86.4577 214.392 85.7346 214.56 84.9502C213.92 85.0802 213.24 85.3202 212.56 85.5702Z" fill="#C62C43"/>
<path opacity="0.5" d="M202.75 92.4898C203.085 92.5067 203.422 92.4798 203.75 92.4098C203.73 92.3677 203.707 92.3275 203.68 92.2898L203.37 91.7598L202.91 92.2898C202.86 92.3498 202.81 92.4198 202.75 92.4898Z" fill="#C62C43"/>
<path d="M202.61 92.2901H200.27C200.183 91.7069 200.063 91.1293 199.91 90.5601C199.324 88.3786 198.303 86.3379 196.91 84.5601C198.297 86.3134 199.69 88.1734 201.09 90.1401C201.62 90.8401 202.12 91.5701 202.61 92.2901Z" fill="#C62C43"/>
<path d="M185.62 87.5298C185.07 88.7189 184.657 89.967 184.39 91.2498C184.31 91.5998 184.25 91.9498 184.2 92.2498H182.35L185.62 87.5298Z" fill="#C62C43"/>
<path d="M197.44 71.7501C197.198 72.5262 196.773 73.2328 196.2 73.8101C195.626 74.3551 194.944 74.773 194.198 75.0366C193.452 75.3003 192.659 75.4037 191.87 75.3401C191.26 75.3401 188.58 75.2101 187.97 73.5301C187.797 72.9865 187.818 72.3997 188.03 71.8701C191 71.3218 194.039 71.2576 197.03 71.6801L197.44 71.7501Z" fill="#FFCFC5"/>
<path d="M374.93 246.08V278.65C374.93 280.16 374.331 281.608 373.264 282.677C372.197 283.746 370.75 284.347 369.24 284.35H336.67C334.47 284.347 332.362 283.472 330.807 281.915C329.253 280.359 328.38 278.25 328.38 276.05C328.38 277.464 328.942 278.819 329.941 279.819C330.941 280.818 332.296 281.38 333.71 281.38H366.64C368.054 281.38 369.409 280.818 370.409 279.819C371.408 278.819 371.97 277.464 371.97 276.05V243.08C371.97 241.666 371.408 240.311 370.409 239.311C369.409 238.312 368.054 237.75 366.64 237.75C367.732 237.75 368.813 237.966 369.822 238.385C370.83 238.804 371.746 239.418 372.516 240.192C373.286 240.966 373.896 241.885 374.31 242.895C374.725 243.906 374.935 244.988 374.93 246.08Z" fill="#1B5A96"/>
<path d="M358.29 263.96C358.29 264.75 358.93 265.32 360.04 265.32C360.542 265.349 361.039 265.214 361.456 264.934C361.873 264.654 362.187 264.245 362.35 263.77V262.61H360.35C358.83 262.61 358.29 263.15 358.29 263.96Z" fill="#FB9100"/>
<path d="M341.07 261.11H345.51L343.29 255.59L341.07 261.11Z" fill="#FB9100"/>
<path d="M366.64 237.75H333.71C333.01 237.749 332.316 237.886 331.669 238.153C331.021 238.42 330.433 238.813 329.938 239.308C329.443 239.803 329.05 240.391 328.783 241.039C328.516 241.686 328.379 242.38 328.38 243.08V276.01C328.38 277.424 328.942 278.779 329.941 279.779C330.941 280.778 332.296 281.34 333.71 281.34H366.64C368.054 281.34 369.409 280.778 370.409 279.779C371.408 278.779 371.97 277.424 371.97 276.01V243.08C371.97 241.666 371.408 240.311 370.409 239.311C369.409 238.312 368.054 237.75 366.64 237.75ZM348.29 268.08L346.93 264.73H339.65L338.29 268.08H333.29L340.9 250.85H345.7L353.36 268.08H348.29ZM367.03 268.08H362.67V266.36C362.01 267.64 360.67 268.3 358.73 268.3C355.53 268.3 353.73 266.51 353.73 264.19C353.73 261.87 355.52 260.19 359.66 260.19H362.32C362.25 258.84 361.32 258.07 359.49 258.07C358.192 258.071 356.927 258.477 355.87 259.23L354.32 256.08C356.102 255.027 358.14 254.487 360.21 254.52C364.54 254.52 367.03 256.45 367.03 260.68V268.08Z" fill="#FB9100"/>
<path d="M477.31 169.9V202.47C477.31 203.979 476.711 205.426 475.643 206.493C474.576 207.56 473.129 208.16 471.62 208.16H439.06C436.86 208.16 434.751 207.287 433.195 205.732C431.638 204.178 430.763 202.069 430.76 199.87C430.76 201.283 431.322 202.639 432.321 203.639C433.321 204.638 434.676 205.2 436.09 205.2H469.02C470.434 205.2 471.789 204.638 472.789 203.639C473.788 202.639 474.35 201.283 474.35 199.87V166.94C474.351 166.24 474.214 165.546 473.947 164.899C473.68 164.251 473.287 163.663 472.792 163.168C472.297 162.673 471.709 162.28 471.061 162.013C470.414 161.746 469.72 161.609 469.02 161.61C470.109 161.61 471.187 161.824 472.192 162.241C473.198 162.658 474.112 163.268 474.882 164.038C475.652 164.808 476.262 165.722 476.679 166.727C477.096 167.733 477.31 168.811 477.31 169.9Z" fill="#1B5A96"/>
<path d="M469.02 161.61H436.09C433.146 161.61 430.76 163.996 430.76 166.94V199.87C430.76 202.814 433.146 205.2 436.09 205.2H469.02C471.964 205.2 474.35 202.814 474.35 199.87V166.94C474.35 163.996 471.964 161.61 469.02 161.61Z" fill="#FB9100"/>
<path d="M465.94 183.9C465.94 187.613 464.465 191.174 461.839 193.799C459.214 196.425 455.653 197.9 451.94 197.9C448.227 197.9 444.666 196.425 442.04 193.799C439.415 191.174 437.94 187.613 437.94 183.9C437.94 180.187 439.415 176.626 442.04 174C444.666 171.375 448.227 169.9 451.94 169.9V175.02C449.585 175.02 447.326 175.955 445.661 177.621C443.996 179.286 443.06 181.545 443.06 183.9C443.06 186.255 443.996 188.514 445.661 190.179C447.326 191.844 449.585 192.78 451.94 192.78C454.294 192.777 456.551 191.841 458.216 190.176C459.881 188.511 460.817 186.254 460.82 183.9H465.94Z" fill="white"/>
<path d="M455.16 177.2C455.409 177.45 455.561 177.779 455.59 178.13C455.64 178.7 455.26 178.98 455.4 179.61C455.493 179.97 455.692 180.294 455.97 180.54C456.262 180.802 456.601 181.006 456.97 181.14C457.316 181.343 457.584 181.656 457.73 182.03L454.31 185.45L454.06 185.58C453.7 185.768 453.317 185.906 452.92 185.99C452.61 186.06 452.52 186.04 452.23 186.1C451.806 186.188 451.401 186.347 451.03 186.57L449.97 187.63C449.766 187.834 449.489 187.949 449.2 187.949C448.911 187.949 448.634 187.834 448.43 187.63C448.224 187.422 448.106 187.143 448.1 186.85C448.104 186.56 448.223 186.283 448.43 186.08L449.49 185.02C449.707 184.648 449.862 184.242 449.95 183.82C450.01 183.54 449.95 183.44 450.06 183.13C450.144 182.736 450.282 182.356 450.47 182L450.6 181.74L455.16 177.2Z" fill="#E7E9EE"/>
<path d="M459.05 173.31L462.76 177.02L457.76 182.02C457.614 181.646 457.346 181.333 457 181.13C456.631 180.996 456.292 180.792 456 180.53C455.722 180.284 455.523 179.96 455.43 179.6C455.29 178.97 455.67 178.69 455.62 178.12C455.591 177.769 455.439 177.439 455.19 177.19L459.05 173.31Z" fill="white"/>
<path d="M464.63 175.92C464.79 176.138 464.861 176.409 464.828 176.677C464.795 176.946 464.66 177.192 464.452 177.364C464.244 177.537 463.977 177.623 463.707 177.606C463.437 177.588 463.184 177.468 463 177.27L458.81 173.07C458.699 172.966 458.614 172.838 458.56 172.696C458.507 172.554 458.486 172.401 458.5 172.25C458.535 172.307 458.579 172.357 458.63 172.4L462.82 176.6C462.88 176.662 462.947 176.715 463.02 176.76C463.177 176.852 463.354 176.903 463.536 176.908C463.717 176.912 463.897 176.871 464.058 176.787C464.219 176.703 464.356 176.579 464.456 176.427C464.556 176.276 464.616 176.101 464.63 175.92Z" fill="#434A54"/>
<path d="M460.31 171.57L464.5 175.77C464.549 175.815 464.592 175.866 464.63 175.92C464.612 176.177 464.502 176.418 464.32 176.6C464.222 176.7 464.106 176.779 463.977 176.833C463.848 176.887 463.71 176.915 463.57 176.915C463.43 176.915 463.292 176.887 463.163 176.833C463.034 176.779 462.918 176.7 462.82 176.6L458.63 172.4C458.579 172.357 458.535 172.307 458.5 172.25C458.515 171.979 458.634 171.725 458.831 171.539C459.028 171.353 459.289 171.25 459.56 171.25C459.7 171.251 459.839 171.279 459.967 171.334C460.096 171.389 460.213 171.469 460.31 171.57Z" fill="#1B5A96"/>
<path d="M467.17 171.39C467.167 172.05 466.905 172.682 466.44 173.15L464.16 175.42L460.65 171.91L461.06 171.5C461.291 171.794 461.552 172.062 461.84 172.3C462.263 172.667 462.756 172.943 463.29 173.11C464.145 173.32 465.048 173.203 465.82 172.78C466.395 172.457 466.864 171.974 467.17 171.39Z" fill="#434A54"/>
<path d="M466.44 169.63C466.672 169.861 466.855 170.135 466.981 170.437C467.106 170.739 467.17 171.063 467.17 171.39C466.864 171.974 466.395 172.457 465.82 172.78C465.048 173.203 464.145 173.32 463.29 173.11C462.756 172.943 462.263 172.667 461.84 172.3C461.552 172.062 461.291 171.794 461.06 171.5L462.93 169.63C463.16 169.399 463.434 169.216 463.735 169.091C464.036 168.967 464.359 168.902 464.685 168.902C465.011 168.902 465.334 168.967 465.635 169.091C465.936 169.216 466.21 169.399 466.44 169.63Z" fill="#1B5A96"/>
<path d="M176.92 240.13C179.12 240.133 181.228 241.008 182.783 242.564C184.337 244.121 185.21 246.23 185.21 248.43V281.36C185.21 282.773 184.648 284.129 183.649 285.129C182.649 286.128 181.294 286.69 179.88 286.69H146.95C144.75 286.687 142.642 285.812 141.087 284.255C139.533 282.699 138.66 280.589 138.66 278.39C138.66 279.455 138.979 280.496 139.576 281.379C140.173 282.261 141.021 282.944 142.01 283.34C142.645 283.6 143.324 283.733 144.01 283.73H176.94C178.355 283.727 179.71 283.163 180.709 282.162C181.709 281.161 182.27 279.804 182.27 278.39V245.46C182.273 244.774 182.14 244.094 181.88 243.46C181.486 242.472 180.805 241.624 179.924 241.027C179.043 240.43 178.004 240.11 176.94 240.11L176.92 240.13Z" fill="#FB9100"/>
<path d="M160.46 256.35C159.356 256.348 158.276 256.674 157.357 257.286C156.438 257.898 155.721 258.768 155.298 259.788C154.874 260.807 154.762 261.93 154.976 263.013C155.19 264.096 155.721 265.091 156.501 265.872C157.281 266.654 158.275 267.186 159.358 267.402C160.44 267.618 161.563 267.508 162.583 267.086C163.603 266.664 164.475 265.949 165.089 265.031C165.702 264.113 166.03 263.034 166.03 261.93C166.03 260.452 165.443 259.034 164.399 257.988C163.355 256.942 161.938 256.353 160.46 256.35Z" fill="#1B5A96"/>
<path d="M181.86 243.48C181.466 242.492 180.785 241.644 179.904 241.047C179.023 240.45 177.984 240.13 176.92 240.13H143.99C143.29 240.13 142.597 240.268 141.95 240.536C141.304 240.803 140.716 241.196 140.221 241.691C139.726 242.186 139.334 242.774 139.066 243.42C138.798 244.067 138.66 244.76 138.66 245.46V278.39C138.66 279.455 138.979 280.496 139.576 281.379C140.173 282.261 141.021 282.944 142.01 283.34C142.645 283.6 143.324 283.733 144.01 283.73H176.94C178.355 283.727 179.71 283.163 180.709 282.162C181.709 281.161 182.27 279.804 182.27 278.39V245.46C182.264 244.779 182.124 244.107 181.86 243.48ZM173.01 263.39C173.01 263.607 172.924 263.816 172.77 263.97C172.616 264.123 172.407 264.21 172.19 264.21H170.39C170.137 265.316 169.697 266.371 169.09 267.33L170.37 268.61C170.446 268.686 170.507 268.776 170.548 268.876C170.589 268.975 170.61 269.082 170.61 269.19C170.61 269.298 170.589 269.404 170.548 269.504C170.507 269.603 170.446 269.694 170.37 269.77L168.3 271.84C168.224 271.916 168.133 271.977 168.034 272.018C167.934 272.059 167.828 272.08 167.72 272.08C167.612 272.08 167.506 272.059 167.406 272.018C167.307 271.977 167.216 271.916 167.14 271.84L165.86 270.57C164.899 271.17 163.844 271.605 162.74 271.86V273.66C162.737 273.878 162.649 274.087 162.493 274.24C162.338 274.394 162.128 274.48 161.91 274.48H158.99C158.773 274.48 158.564 274.393 158.41 274.24C158.256 274.086 158.17 273.877 158.17 273.66V271.86C157.066 271.604 156.012 271.168 155.05 270.57L153.78 271.84C153.625 271.994 153.414 272.081 153.195 272.081C152.976 272.081 152.765 271.994 152.61 271.84L150.56 269.77C150.481 269.695 150.419 269.605 150.376 269.505C150.333 269.406 150.311 269.298 150.311 269.19C150.311 269.081 150.333 268.974 150.376 268.874C150.419 268.775 150.481 268.685 150.56 268.61L151.83 267.33C151.223 266.371 150.783 265.316 150.53 264.21H148.73C148.513 264.21 148.304 264.123 148.15 263.97C147.996 263.816 147.91 263.607 147.91 263.39V260.47C147.91 260.251 147.996 260.042 148.15 259.886C148.303 259.731 148.512 259.643 148.73 259.64H150.56C150.815 258.534 151.255 257.48 151.86 256.52L150.56 255.25C150.482 255.174 150.421 255.083 150.378 254.982C150.336 254.882 150.315 254.774 150.315 254.665C150.315 254.556 150.336 254.448 150.378 254.348C150.421 254.247 150.482 254.156 150.56 254.08L152.62 252.02C152.696 251.942 152.787 251.88 152.888 251.838C152.988 251.796 153.096 251.774 153.205 251.774C153.314 251.774 153.422 251.796 153.522 251.838C153.623 251.88 153.714 251.942 153.79 252.02L155.06 253.29C156.022 252.689 157.076 252.249 158.18 251.99V250.2C158.18 249.981 158.266 249.772 158.42 249.616C158.573 249.461 158.782 249.373 159 249.37H161.92C162.14 249.37 162.351 249.457 162.507 249.613C162.663 249.769 162.75 249.98 162.75 250.2V251.99C163.855 252.248 164.909 252.687 165.87 253.29L167.15 252.02C167.225 251.941 167.315 251.879 167.414 251.836C167.514 251.793 167.621 251.771 167.73 251.771C167.839 251.771 167.946 251.793 168.046 251.836C168.145 251.879 168.235 251.941 168.31 252.02L170.38 254.08C170.535 254.235 170.621 254.446 170.621 254.665C170.621 254.884 170.535 255.094 170.38 255.25L169.1 256.52C169.705 257.48 170.145 258.534 170.4 259.64H172.2C172.418 259.643 172.627 259.731 172.78 259.886C172.934 260.042 173.02 260.251 173.02 260.47L173.01 263.39Z" fill="#1B5A96"/>
<path d="M123.3 131.62H76.96L74 128.66H121.23L123.3 131.62Z" fill="#FB9100"/>
<path d="M132.34 106.29V128.66H126.82V136.67L123.3 131.62L121.23 128.66H74V106.29H132.34Z" fill="#1B5A96"/>
<path d="M120.91 119.29C121.943 119.29 122.78 118.453 122.78 117.42C122.78 116.387 121.943 115.55 120.91 115.55C119.877 115.55 119.04 116.387 119.04 117.42C119.04 118.453 119.877 119.29 120.91 119.29Z" fill="#FFF6EB"/>
<path d="M112.09 119.29C113.123 119.29 113.96 118.453 113.96 117.42C113.96 116.387 113.123 115.55 112.09 115.55C111.057 115.55 110.22 116.387 110.22 117.42C110.22 118.453 111.057 119.29 112.09 119.29Z" fill="#FFF6EB"/>
<path d="M103.7 119.249C104.706 119.012 105.328 118.005 105.091 116.999C104.854 115.994 103.846 115.372 102.841 115.609C101.836 115.846 101.214 116.853 101.451 117.859C101.688 118.864 102.695 119.486 103.7 119.249Z" fill="#FFF6EB"/>
<path d="M94.8763 119.245C95.8814 119.008 96.504 118.001 96.2667 116.996C96.0295 115.99 95.0223 115.368 94.0172 115.605C93.012 115.842 92.3895 116.85 92.6267 117.855C92.864 118.86 93.8711 119.482 94.8763 119.245Z" fill="#FFF6EB"/>
<path d="M85.63 119.29C86.6628 119.29 87.5 118.453 87.5 117.42C87.5 116.387 86.6628 115.55 85.63 115.55C84.5972 115.55 83.76 116.387 83.76 117.42C83.76 118.453 84.5972 119.29 85.63 119.29Z" fill="#FFF6EB"/>
<path d="M135.3 109.25V131.62H129.78V139.64L126.82 136.67V128.66H132.34V106.29L135.3 109.25Z" fill="#FB9100"/>
<path d="M320.34 155.82C320.341 153.835 319.951 151.87 319.193 150.036C318.434 148.202 317.321 146.536 315.917 145.133C314.514 143.729 312.848 142.616 311.014 141.858C309.18 141.099 307.215 140.709 305.23 140.71H266.56C262.965 140.697 259.513 142.111 256.96 144.643C254.408 147.174 252.966 150.615 252.95 154.21V206.36C252.95 210.627 254.645 214.72 257.663 217.737C260.68 220.755 264.773 222.45 269.04 222.45H306.76C308.541 222.457 310.305 222.112 311.953 221.437C313.601 220.762 315.099 219.768 316.363 218.514C317.627 217.259 318.631 215.768 319.319 214.125C320.006 212.483 320.363 210.721 320.37 208.94L320.34 155.82Z" fill="#1B5A96"/>
<path d="M304.37 140.71H265.93C258.745 140.71 252.92 146.535 252.92 153.72V206.48C252.92 213.665 258.745 219.49 265.93 219.49H304.37C311.555 219.49 317.38 213.665 317.38 206.48V153.72C317.38 146.535 311.555 140.71 304.37 140.71Z" fill="#FB9100"/>
<path d="M304.37 144.16H265.94C263.405 144.16 260.973 145.167 259.18 146.96C257.387 148.753 256.38 151.185 256.38 153.72V206.47C256.38 209.006 257.387 211.437 259.18 213.23C260.973 215.023 263.405 216.03 265.94 216.03H304.37C306.904 216.028 309.333 215.019 311.123 213.227C312.914 211.434 313.92 209.004 313.92 206.47V153.72C313.92 151.186 312.914 148.756 311.123 146.964C309.333 145.171 306.904 144.163 304.37 144.16Z" fill="#FFF6EB"/>
<path d="M303.39 216.08H265.94C264.685 216.08 263.441 215.833 262.282 215.352C261.122 214.872 260.068 214.168 259.18 213.28C258.292 212.392 257.588 211.338 257.108 210.178C256.627 209.019 256.38 207.775 256.38 206.52V197.88L266.08 188C266.67 187.399 267.373 186.92 268.149 186.592C268.924 186.264 269.757 186.092 270.6 186.087C271.442 186.083 272.277 186.245 273.056 186.565C273.835 186.884 274.544 187.355 275.14 187.95L277.93 190.72L303.39 216.08Z" fill="#1B5A96"/>
<path d="M313.92 187.14V206.47C313.92 209.004 312.914 211.434 311.123 213.226C309.333 215.019 306.904 216.027 304.37 216.03H303.37L277.91 190.67L293.27 175.41C294.352 174.338 295.807 173.729 297.33 173.71C298.852 173.691 300.322 174.265 301.43 175.31L313.92 187.14Z" fill="#FB9100"/>
<path d="M274.51 176.49C278.459 176.49 281.66 173.289 281.66 169.34C281.66 165.391 278.459 162.19 274.51 162.19C270.561 162.19 267.36 165.391 267.36 169.34C267.36 173.289 270.561 176.49 274.51 176.49Z" fill="#1B5A96"/>
<path d="M449.05 88.1401C450.14 88.1388 451.22 88.3526 452.228 88.7693C453.235 89.1859 454.151 89.7972 454.922 90.5682C455.693 91.3392 456.304 92.2547 456.721 93.2623C457.138 94.2699 457.351 95.3498 457.35 96.4401V131.08C457.365 131.812 457.235 132.54 456.967 133.222C456.7 133.905 456.301 134.527 455.793 135.055C455.285 135.582 454.678 136.005 454.006 136.297C453.335 136.59 452.612 136.747 451.88 136.76H346.56C344.359 136.76 342.248 135.886 340.691 134.329C339.134 132.773 338.26 130.661 338.26 128.46C338.26 129.876 338.823 131.235 339.824 132.236C340.825 133.238 342.184 133.8 343.6 133.8H449.05C450.466 133.8 451.825 133.238 452.826 132.236C453.827 131.235 454.39 129.876 454.39 128.46V93.4801C454.39 92.0639 453.827 90.7056 452.826 89.7042C451.825 88.7027 450.466 88.1401 449.05 88.1401Z" fill="#FB9100"/>
<path d="M454.39 93.4801V128.42C454.39 129.836 453.827 131.195 452.826 132.196C451.825 133.198 450.466 133.76 449.05 133.76H343.64C342.224 133.76 340.865 133.198 339.864 132.196C338.863 131.195 338.3 129.836 338.3 128.42V93.8201C338.276 92.388 338.802 91.001 339.769 89.9445C340.736 88.888 342.071 88.2422 343.5 88.1401H449.05C450.466 88.1401 451.825 88.7027 452.826 89.7042C453.827 90.7056 454.39 92.0639 454.39 93.4801Z" fill="#646D78"/>
<path d="M454.39 93.4801V128.42C454.39 129.836 453.827 131.195 452.826 132.196C451.825 133.198 450.466 133.76 449.05 133.76H343.64C342.224 133.76 340.865 133.198 339.864 132.196C338.863 131.195 338.3 129.836 338.3 128.42V93.4801C338.3 92.0878 338.843 90.7504 339.814 89.7528C340.786 88.7553 342.108 88.1766 343.5 88.1401H449.05C450.466 88.1401 451.825 88.7027 452.826 89.7042C453.827 90.7056 454.39 92.0639 454.39 93.4801Z" fill="#1B5A96"/>
<path d="M361.98 94.29C358.685 94.2881 355.463 95.2635 352.721 97.0929C349.98 98.9223 347.844 101.524 346.581 104.568C345.319 107.612 344.987 110.962 345.629 114.194C346.271 117.426 347.857 120.396 350.186 122.727C352.516 125.058 355.484 126.646 358.716 127.289C361.948 127.933 365.298 127.603 368.343 126.343C371.388 125.082 373.991 122.947 375.822 120.207C377.653 117.467 378.63 114.246 378.63 110.95C378.63 106.533 376.876 102.297 373.754 99.1732C370.632 96.0491 366.397 94.2927 361.98 94.29ZM361.98 101.11C362.578 101.08 363.177 101.172 363.739 101.379C364.301 101.586 364.816 101.905 365.252 102.316C365.688 102.727 366.037 103.221 366.277 103.77C366.517 104.319 366.644 104.911 366.65 105.51C366.65 108.09 364.56 110.87 361.98 110.87C359.4 110.87 357.32 108.09 357.32 105.51C357.32 104.907 357.444 104.31 357.682 103.757C357.921 103.203 358.27 102.704 358.708 102.289C359.146 101.875 359.663 101.554 360.229 101.346C360.795 101.138 361.398 101.047 362 101.08L361.98 101.11ZM370.82 116.96L370.21 118.88C370.03 119.436 369.679 119.92 369.206 120.263C368.733 120.606 368.164 120.791 367.58 120.79H356.22C355.618 120.794 355.031 120.6 354.549 120.239C354.067 119.878 353.716 119.369 353.55 118.79L353.08 117.05C352.895 116.375 352.973 115.655 353.3 115.036C353.627 114.418 354.178 113.947 354.84 113.72C359.457 112.002 364.528 111.949 369.18 113.57C369.838 113.815 370.378 114.303 370.687 114.934C370.996 115.564 371.051 116.29 370.84 116.96H370.82Z" fill="#FFF6EB"/>
<path d="M446.04 97.9702H387.46C386.725 97.9702 386.13 98.5634 386.13 99.2952C386.13 100.027 386.725 100.62 387.46 100.62H446.04C446.775 100.62 447.37 100.027 447.37 99.2952C447.37 98.5634 446.775 97.9702 446.04 97.9702Z" fill="#FFF6EB"/>
<path d="M446.04 105.74H387.46C386.725 105.74 386.13 106.333 386.13 107.065C386.13 107.797 386.725 108.39 387.46 108.39H446.04C446.775 108.39 447.37 107.797 447.37 107.065C447.37 106.333 446.775 105.74 446.04 105.74Z" fill="#FFF6EB"/>
<path d="M432.06 113.51H387.46C386.725 113.51 386.13 114.103 386.13 114.835C386.13 115.567 386.725 116.16 387.46 116.16H432.06C432.795 116.16 433.39 115.567 433.39 114.835C433.39 114.103 432.795 113.51 432.06 113.51Z" fill="#FFF6EB"/>
<path d="M432.06 121.28H387.46C386.725 121.28 386.13 121.873 386.13 122.605C386.13 123.337 386.725 123.93 387.46 123.93H432.06C432.795 123.93 433.39 123.337 433.39 122.605C433.39 121.873 432.795 121.28 432.06 121.28Z" fill="#FFF6EB"/>
<path d="M481.38 238.82V261.19H434.16L428.56 269.21L425.6 266.24L428.56 262L431.19 258.23H478.42V235.86L481.38 238.82Z" fill="#FB9100"/>
<path d="M425.6 258.23V261.19H423.04L420.08 258.23H425.6Z" fill="#FB9100"/>
<path d="M478.42 235.86V258.23H431.19L428.56 262L425.6 266.24V258.23H420.08V235.86H478.42Z" fill="#1B5A96"/>
<path d="M431.5 248.86C432.533 248.86 433.37 248.023 433.37 246.99C433.37 245.957 432.533 245.12 431.5 245.12C430.467 245.12 429.63 245.957 429.63 246.99C429.63 248.023 430.467 248.86 431.5 248.86Z" fill="white"/>
<path d="M440.32 248.86C441.353 248.86 442.19 248.023 442.19 246.99C442.19 245.957 441.353 245.12 440.32 245.12C439.287 245.12 438.45 245.957 438.45 246.99C438.45 248.023 439.287 248.86 440.32 248.86Z" fill="white"/>
<path d="M451.01 247.31C451.176 246.29 450.483 245.33 449.464 245.164C448.444 244.999 447.484 245.691 447.318 246.71C447.153 247.73 447.845 248.69 448.865 248.856C449.884 249.021 450.845 248.329 451.01 247.31Z" fill="white"/>
<path d="M459.766 247.405C460.004 246.4 459.381 245.393 458.376 245.156C457.371 244.919 456.364 245.541 456.126 246.546C455.889 247.551 456.512 248.559 457.517 248.796C458.522 249.033 459.529 248.41 459.766 247.405Z" fill="white"/>
<path d="M468.593 247.401C468.83 246.396 468.207 245.389 467.202 245.151C466.197 244.914 465.19 245.537 464.953 246.542C464.715 247.547 465.338 248.554 466.343 248.791C467.348 249.029 468.355 248.406 468.593 247.401Z" fill="white"/>
<path d="M335.07 39.29V71.86C335.067 73.37 334.466 74.8173 333.397 75.884C332.328 76.9508 330.88 77.55 329.37 77.55H296.81C294.618 77.5394 292.52 76.6614 290.974 75.1078C289.428 73.5543 288.56 71.4517 288.56 69.26C288.56 70.6736 289.122 72.0293 290.121 73.0289C291.121 74.0284 292.476 74.59 293.89 74.59H326.82C328.234 74.59 329.589 74.0284 330.589 73.0289C331.588 72.0293 332.15 70.6736 332.15 69.26V36.33C332.15 34.9164 331.588 33.5607 330.589 32.5611C329.589 31.5616 328.234 31 326.82 31C329.012 31.0106 331.11 31.8887 332.656 33.4422C334.202 34.9957 335.07 37.0983 335.07 39.29Z" fill="#1B5A96"/>
<path d="M326.78 31.0002H293.85C292.443 31.0107 291.098 31.5769 290.107 32.5753C289.116 33.5738 288.56 34.9234 288.56 36.3302V69.2602C288.56 70.6738 289.122 72.0295 290.121 73.029C291.121 74.0286 292.476 74.5902 293.89 74.5902H326.82C328.234 74.5902 329.589 74.0286 330.589 73.029C331.588 72.0295 332.15 70.6738 332.15 69.2602V36.3302C332.15 35.6268 332.011 34.9305 331.74 34.2812C331.47 33.6319 331.074 33.0425 330.575 32.5471C330.076 32.0516 329.483 31.6598 328.832 31.3943C328.181 31.1288 327.483 30.9949 326.78 31.0002ZM322.87 54.2602C322.87 54.4776 322.784 54.6862 322.63 54.84C322.476 54.9938 322.267 55.0802 322.05 55.0802H320.25C319.99 56.1843 319.551 57.2383 318.95 58.2001L320.22 59.4701C320.298 59.5465 320.359 59.6375 320.402 59.738C320.444 59.8384 320.465 59.9462 320.465 60.0551C320.465 60.1641 320.444 60.2719 320.402 60.3723C320.359 60.4728 320.298 60.5638 320.22 60.6402L318.16 62.7001C318.005 62.8546 317.794 62.9414 317.575 62.9414C317.356 62.9414 317.145 62.8546 316.99 62.7001L315.72 61.4301C314.748 62.0381 313.679 62.4744 312.56 62.7201V64.5202C312.56 64.7403 312.473 64.9514 312.317 65.1071C312.161 65.2627 311.95 65.3501 311.73 65.3501H308.81C308.592 65.3475 308.383 65.2589 308.23 65.1035C308.076 64.9482 307.99 64.7386 307.99 64.5202V62.7201C306.884 62.4701 305.829 62.0339 304.87 61.4301L303.6 62.7001C303.445 62.8546 303.234 62.9414 303.015 62.9414C302.796 62.9414 302.585 62.8546 302.43 62.7001L300.37 60.6402C300.292 60.5638 300.231 60.4728 300.188 60.3723C300.146 60.2719 300.125 60.1641 300.125 60.0551C300.125 59.9462 300.146 59.8384 300.188 59.738C300.231 59.6375 300.292 59.5465 300.37 59.4701L301.64 58.2001C301.035 57.2405 300.595 56.1857 300.34 55.0802H298.56C298.343 55.0802 298.134 54.9938 297.98 54.84C297.826 54.6862 297.74 54.4776 297.74 54.2602V51.3302C297.74 51.1127 297.826 50.9041 297.98 50.7503C298.134 50.5965 298.343 50.5102 298.56 50.5102H300.36C300.613 49.4039 301.053 48.3489 301.66 47.3902L300.41 46.0801C300.332 46.0038 300.271 45.9128 300.228 45.8123C300.186 45.7119 300.165 45.6041 300.165 45.4952C300.165 45.3862 300.186 45.2784 300.228 45.178C300.271 45.0775 300.332 44.9865 300.41 44.9102L302.47 42.8502C302.625 42.6957 302.836 42.6089 303.055 42.6089C303.274 42.6089 303.484 42.6957 303.64 42.8502L304.91 44.1301C305.869 43.5229 306.924 43.0833 308.03 42.8301V41.0801C308.03 40.8627 308.116 40.6541 308.27 40.5003C308.424 40.3465 308.633 40.2601 308.85 40.2601H311.77C311.982 40.2679 312.183 40.3577 312.331 40.5107C312.478 40.6636 312.56 40.8678 312.56 41.0801V42.8801C313.666 43.1333 314.721 43.5729 315.68 44.1801L316.95 42.9001C317.106 42.7457 317.316 42.6589 317.535 42.6589C317.754 42.6589 317.964 42.7457 318.12 42.9001L320.18 44.9602C320.258 45.0365 320.319 45.1275 320.362 45.228C320.404 45.3284 320.425 45.4362 320.425 45.5451C320.425 45.6541 320.404 45.7619 320.362 45.8623C320.319 45.9628 320.258 46.0538 320.18 46.1301L318.91 47.4102C319.513 48.3711 319.952 49.4254 320.21 50.5302H322.01C322.227 50.5302 322.436 50.6165 322.59 50.7703C322.744 50.9241 322.83 51.1327 322.83 51.3502L322.87 54.2602Z" fill="#FB9100"/>
<path d="M310.32 47.2202C309.216 47.2182 308.135 47.5441 307.216 48.1565C306.297 48.7688 305.58 49.6402 305.157 50.6602C304.733 51.6802 304.622 52.803 304.837 53.8864C305.052 54.9697 305.583 55.9649 306.364 56.7459C307.145 57.5268 308.141 58.0585 309.224 58.2735C310.307 58.4885 311.43 58.3771 312.45 57.9535C313.47 57.53 314.341 56.8132 314.954 55.8941C315.566 54.9749 315.892 53.8947 315.89 52.7902C315.89 51.313 315.303 49.8962 314.259 48.8516C313.214 47.8071 311.797 47.2202 310.32 47.2202Z" fill="#FB9100"/>
<path d="M365.39 122.18L369.73 140.83L370.48 143.96L376.11 168.08L376.86 171.2L382.48 195.36L383.23 198.49L388.86 222.65L389.61 225.77L395.23 249.93L395.98 253.05L401.61 277.18L402.33 280.31L405.05 291.9C405.133 292.245 405.328 292.552 405.605 292.773C405.882 292.994 406.225 293.116 406.58 293.12C406.693 293.136 406.807 293.136 406.92 293.12C407.324 293.022 407.673 292.771 407.895 292.42C408.117 292.07 408.194 291.646 408.11 291.24L405.56 280.35L404.84 277.22L399.2 253.08L398.45 249.96L392.83 225.8L392.08 222.68L386.45 198.52L385.73 195.39L380.07 171.23L379.36 168.08L373.7 143.92L372.98 140.79L368.45 121.45C368.355 121.045 368.104 120.694 367.753 120.471C367.401 120.249 366.977 120.173 366.57 120.26C366.16 120.359 365.806 120.617 365.585 120.977C365.364 121.336 365.294 121.769 365.39 122.18Z" fill="black"/>
<path d="M401.05 122.18L405.39 140.83L406.14 143.96L411.77 168.08L412.52 171.2L418.14 195.36L418.89 198.49L424.56 222.69L425.31 225.81L430.93 249.97L431.68 253.09L437.31 277.22L438.03 280.35L440.75 291.94C440.833 292.285 441.028 292.592 441.305 292.813C441.582 293.034 441.925 293.156 442.28 293.16C442.393 293.175 442.507 293.175 442.62 293.16C442.82 293.113 443.008 293.027 443.175 292.907C443.341 292.787 443.482 292.635 443.59 292.461C443.698 292.286 443.77 292.092 443.803 291.889C443.835 291.686 443.828 291.479 443.78 291.28L441.25 280.38L440.5 277.25L434.83 253.08L434.11 249.96L428.45 225.8L427.74 222.68L422.08 198.52L421.36 195.39L415.73 171.23L414.98 168.11L409.36 143.95L408.61 140.82L404.11 121.48C404.073 121.271 403.993 121.072 403.877 120.895C403.761 120.717 403.61 120.565 403.433 120.448C403.256 120.331 403.058 120.25 402.849 120.212C402.64 120.174 402.426 120.178 402.219 120.224C402.012 120.271 401.817 120.359 401.645 120.483C401.473 120.608 401.328 120.765 401.219 120.947C401.11 121.129 401.038 121.331 401.009 121.541C400.98 121.751 400.994 121.965 401.05 122.17V122.18Z" fill="black"/>
<path d="M369.73 140.83L370.48 143.96H409.36L408.61 140.83H369.73Z" fill="black"/>
<path d="M376.11 168.12L376.86 171.24H415.74L414.99 168.12H376.11Z" fill="black"/>
<path d="M382.48 195.4L383.23 198.53H422.08L421.36 195.4H382.48Z" fill="black"/>
<path d="M388.86 222.69L389.61 225.81H428.45L427.74 222.69H388.86Z" fill="black"/>
<path d="M395.23 249.97L395.98 253.1H434.83L434.11 249.97H395.23Z" fill="black"/>
<path d="M401.61 277.22L402.33 280.35H441.21L440.46 277.22H401.61Z" fill="black"/>
<path d="M417.72 119.47C417.404 119.795 417.07 120.102 416.72 120.39C415.546 121.427 414.19 122.237 412.72 122.78H412.62C412.488 122.275 412.321 121.781 412.12 121.3C411.778 120.466 411.341 119.675 410.82 118.94C410.7 120.52 410.63 121.94 410.58 123.33C410.53 124.72 410.51 126.12 410.5 127.26C410.49 128.4 410.5 129.37 410.5 130.52C410.5 131.67 410.59 133.11 410.72 134.65C410.95 137.37 411.3 139.65 411.6 141.31L411.15 141.56C410.007 142.182 408.8 142.679 407.55 143.04C404.863 143.75 402.062 143.917 399.31 143.53C396.533 143.281 393.798 142.683 391.17 141.75L390.54 141.52C390.54 140.66 390.62 139.19 390.68 137.37C390.87 131.53 390.88 130.25 391.07 127.79C391.22 125.73 391.31 124.5 391.52 123.16C391.57 122.82 391.63 122.48 391.7 122.16C392.115 119.972 392.727 117.827 393.53 115.75C392.534 116.699 391.718 117.821 391.12 119.06C390.66 120.039 390.343 121.08 390.18 122.15C388.421 120.597 387.124 118.591 386.43 116.35C386.258 115.786 386.124 115.212 386.03 114.63C386.81 114.04 387.93 113.22 389.3 112.27C390.923 111.005 392.685 109.929 394.55 109.06C395.944 108.556 397.418 108.309 398.9 108.33C399.49 108.33 400.09 108.33 400.72 108.33C401.87 108.344 403.016 108.447 404.15 108.64C408.531 109.331 412.474 111.693 415.15 115.23C416.188 116.525 417.052 117.95 417.72 119.47Z" fill="#FB9100"/>
<path d="M393.63 115.73C392.827 117.807 392.215 119.952 391.8 122.14C391.73 122.51 391.67 122.85 391.62 123.14L390.95 122.64C390.73 122.47 390.51 122.28 390.28 122.08C390.443 121.01 390.76 119.969 391.22 118.99C391.823 117.769 392.639 116.665 393.63 115.73Z" fill="#2E997F"/>
<path d="M412.69 122.81C412.041 123.052 411.371 123.236 410.69 123.36C410.74 122.02 410.81 120.55 410.93 118.97C411.451 119.705 411.887 120.497 412.23 121.33C412.417 121.812 412.571 122.307 412.69 122.81Z" fill="#2E997F"/>
<path d="M416.94 124.84C416.693 125.837 416.277 126.784 415.71 127.64C414.433 129.217 412.608 130.256 410.6 130.55C410.6 129.4 410.6 128.34 410.6 127.29C410.6 126.24 410.6 124.84 410.68 123.36C411.361 123.236 412.031 123.052 412.68 122.81H412.78C414.249 122.267 415.606 121.457 416.78 120.42C416.963 121.093 417.077 121.783 417.12 122.48C417.165 123.271 417.104 124.065 416.94 124.84Z" fill="#FFCFC5"/>
<path d="M390.95 122.69C389.754 123.969 388.259 124.931 386.6 125.49C385.524 125.888 384.362 125.999 383.23 125.81C382.245 125.58 381.319 125.147 380.51 124.54C379.098 123.603 377.817 122.483 376.7 121.21C375.666 120.069 374.71 118.86 373.84 117.59C373.418 116.86 372.904 116.188 372.31 115.59C371.7 115.051 371.056 114.553 370.38 114.1C369.96 113.82 369.76 113.72 369.32 113.39C368.836 113.076 368.409 112.68 368.06 112.22C367.749 111.842 367.56 111.378 367.52 110.89C367.552 110.447 367.682 110.017 367.9 109.63C368.08 109.217 368.304 108.824 368.57 108.46C368.174 108.047 367.8 107.613 367.45 107.16C367.182 106.803 366.991 106.395 366.89 105.96C366.83 105.68 366.76 105.36 366.89 105.26C367.02 105.16 367.43 105.26 368.54 106.2C372.16 109.62 375.09 112.33 377.11 114.2C378.216 115.157 379.4 116.02 380.65 116.78C381.51 117.455 382.558 117.847 383.65 117.9C384.266 117.901 384.871 117.735 385.4 117.42C385.865 117.129 386.248 116.722 386.51 116.24C387.204 118.481 388.501 120.487 390.26 122.04C390.56 122.33 390.73 122.52 390.95 122.69Z" fill="#FFCFC5"/>
<path d="M405.18 164.85L404.57 163.32C403.57 160.92 402.68 158.9 401.98 157.42C402.626 154.299 403.46 151.22 404.48 148.2C404.48 150.1 404.48 152.04 404.56 154.01C404.67 157.75 404.88 161.37 405.18 164.85Z" fill="#122A4F"/>
<path d="M420.47 189.34C420.295 189.428 420.115 189.505 419.93 189.57C418.97 189.935 417.956 190.141 416.93 190.18C416.26 190.211 415.589 190.164 414.93 190.04C414.64 189.99 414.39 189.93 414.16 189.87C413.69 188.43 412.96 186.2 411.99 183.49C410.33 178.83 409.92 178.17 408.12 173.26C406.44 168.69 406.12 167.4 405.12 164.85C404.82 161.37 404.61 157.75 404.5 154.01C404.44 152.01 404.42 150.1 404.42 148.2C403.4 151.22 402.566 154.299 401.92 157.42C401.78 158.05 401.67 158.65 401.57 159.2C400.915 163.066 400.481 166.965 400.27 170.88C399.93 175.39 399.85 178.96 399.8 181.2C399.74 184.31 399.74 186.98 399.8 189.07L399.4 189.21C398.415 189.551 397.367 189.671 396.33 189.56C395.718 189.496 395.116 189.355 394.54 189.14C394.274 189.038 394.013 188.921 393.76 188.79C393 183.4 392.49 178.69 392.15 174.88C391.83 171.27 391.35 165.88 391.15 158.88C391.08 155.88 391.08 153.22 391.09 151.01C391.09 147.32 391.09 144.17 391.2 141.77C393.828 142.703 396.563 143.301 399.34 143.55C402.092 143.937 404.893 143.771 407.58 143.06C408.83 142.699 410.037 142.203 411.18 141.58C411.66 143.5 412.18 145.88 412.71 148.58C413.47 152.69 413.37 153.49 414.29 159.46C414.67 161.86 415.29 165.14 416.46 171.7C417.6 177.9 417.91 179.38 418.2 180.7C419.07 184.35 419.88 187.3 420.47 189.34Z" fill="#1B5A96"/>
<path d="M399.77 195.4H386.77C386.609 195.401 386.452 195.357 386.315 195.273C386.178 195.189 386.068 195.068 385.996 194.924C385.924 194.781 385.894 194.62 385.909 194.46C385.924 194.3 385.983 194.148 386.08 194.02C386.702 193.306 387.493 192.76 388.38 192.43C389.154 192.076 389.971 191.824 390.81 191.68C392.15 191.43 392.81 191.56 393.81 191.04C394.056 190.902 394.29 190.745 394.51 190.57C395.881 191.206 397.421 191.381 398.9 191.07C399.173 191.007 399.44 190.924 399.7 190.82C399.92 192.03 400.21 193.18 400.44 194.12C400.44 194.22 400.49 194.32 400.52 194.42C400.549 194.535 400.551 194.655 400.527 194.771C400.503 194.887 400.453 194.996 400.381 195.09C400.309 195.184 400.216 195.261 400.111 195.315C400.005 195.368 399.888 195.397 399.77 195.4Z" fill="black"/>
<path d="M399.72 190.81C399.46 190.914 399.193 190.998 398.92 191.06C397.441 191.372 395.901 191.196 394.53 190.56C394.53 190.33 394.53 190.09 394.53 189.86C394.53 189.63 394.53 189.4 394.53 189.18C395.106 189.395 395.708 189.537 396.32 189.6C397.357 189.711 398.405 189.591 399.39 189.25C399.39 189.47 399.48 189.7 399.52 189.94C399.6 190.39 399.66 190.69 399.68 190.83L399.72 190.81Z" fill="#FFCFC5"/>
<path d="M420.66 195.4H409.14C409.023 195.401 408.908 195.371 408.806 195.312C408.704 195.253 408.62 195.169 408.562 195.067C408.504 194.965 408.474 194.85 408.476 194.733C408.477 194.615 408.51 194.501 408.57 194.4C408.685 194.202 408.823 194.017 408.98 193.85C409.57 193.25 410.55 192.94 412.49 192.36C413.59 192.03 414.49 191.81 415.2 191.67L415.48 191.75C416.419 192.01 417.407 192.041 418.36 191.84C419.095 191.691 419.794 191.403 420.42 190.99C420.65 191.69 421 192.74 421.3 193.81L421.46 194.39C421.489 194.511 421.49 194.636 421.463 194.758C421.436 194.879 421.382 194.992 421.305 195.089C421.228 195.187 421.13 195.265 421.018 195.319C420.907 195.373 420.784 195.401 420.66 195.4Z" fill="black"/>
<path d="M420.42 190.98C419.794 191.392 419.095 191.681 418.36 191.83C417.407 192.03 416.419 191.999 415.48 191.74C415.43 191.57 415.38 191.41 415.34 191.25L414.98 190.04C415.639 190.164 416.31 190.211 416.98 190.18C418.006 190.141 419.02 189.935 419.98 189.57C420.09 189.9 420.22 190.27 420.36 190.67L420.42 190.98Z" fill="#FFCFC5"/>
<path d="M404.25 108.65C403.116 108.458 401.97 108.354 400.82 108.34C400.19 108.34 399.59 108.34 399 108.34C398.723 107.933 398.498 107.493 398.33 107.03C398.033 106.173 397.91 105.265 397.97 104.36C397.97 103.7 397.97 102.87 398.12 101.9C398.276 102.263 398.453 102.617 398.65 102.96C398.709 102.73 398.856 102.532 399.06 102.41C399.244 102.347 399.442 102.339 399.63 102.387C399.818 102.435 399.989 102.537 400.12 102.68C400.63 103.22 400.23 104.18 400.18 104.3C400.05 104.61 399.851 104.887 399.6 105.11C399.53 105.435 399.525 105.77 399.587 106.096C399.649 106.423 399.776 106.733 399.96 107.01C400.239 107.4 400.63 107.696 401.08 107.86C401.888 108.115 402.764 108.043 403.52 107.66C403.704 107.578 403.881 107.481 404.05 107.37C404.05 107.56 404.05 107.76 404.12 107.96C404.19 108.16 404.2 108.42 404.25 108.65Z" fill="#FFCFC5"/>
<path d="M408.29 101.77C407.64 103 406.66 103.98 405.97 105.2C405.659 105.78 405.257 106.307 404.78 106.76C404.559 106.98 404.314 107.175 404.05 107.34C403.881 107.451 403.704 107.548 403.52 107.63C402.764 108.013 401.888 108.085 401.08 107.83C400.63 107.666 400.239 107.37 399.96 106.98C399.769 106.707 399.635 106.397 399.566 106.071C399.498 105.745 399.495 105.408 399.56 105.08C399.811 104.857 400.01 104.58 400.14 104.27C400.19 104.15 400.59 103.19 400.08 102.65C399.949 102.507 399.778 102.405 399.59 102.357C399.402 102.31 399.204 102.317 399.02 102.38C398.816 102.502 398.669 102.7 398.61 102.93C398.413 102.587 398.236 102.233 398.08 101.87C397.937 101.545 397.813 101.211 397.71 100.87C397.336 99.938 397.185 98.9311 397.27 97.9302C397.394 96.9671 397.781 96.057 398.39 95.3002C398.792 94.7606 399.309 94.3179 399.904 94.0046C400.5 93.6914 401.158 93.5156 401.83 93.4902C402.152 93.5277 402.467 93.6049 402.77 93.7202C403.096 93.8064 403.435 93.8335 403.77 93.8002C404.774 93.8049 405.753 94.1115 406.58 94.6802C407.488 95.1103 408.241 95.8083 408.74 96.6802C409.253 98.1131 409.196 99.6884 408.58 101.08C408.49 101.35 408.4 101.56 408.29 101.77Z" fill="black"/>
<path d="M218.95 293.16H234.47C234.669 293.176 234.868 293.133 235.042 293.035C235.216 292.937 235.357 292.789 235.446 292.611C235.535 292.432 235.569 292.231 235.543 292.033C235.517 291.835 235.432 291.65 235.3 291.5C234.561 290.642 233.619 289.982 232.56 289.58C231.636 289.159 230.661 288.86 229.66 288.69C228.06 288.39 227.26 288.54 226.12 287.92C225.822 287.758 225.541 287.567 225.28 287.35V287.4C223.641 288.161 221.799 288.372 220.03 288C219.689 287.927 219.355 287.827 219.03 287.7C218.78 289.14 218.43 290.52 218.15 291.7C218.15 291.807 218.12 291.927 218.06 292.06C218.046 292.191 218.058 292.323 218.095 292.449C218.133 292.575 218.194 292.692 218.277 292.795C218.36 292.897 218.462 292.982 218.577 293.044C218.693 293.107 218.819 293.146 218.95 293.16Z" fill="black"/>
<path d="M219 287.67C219.325 287.797 219.659 287.897 220 287.97C221.769 288.341 223.611 288.131 225.25 287.37V287.32C225.25 287.04 225.25 286.76 225.25 286.48V285.67C224.558 285.929 223.835 286.101 223.1 286.18C221.861 286.304 220.609 286.161 219.43 285.76C219.43 286.02 219.33 286.29 219.28 286.59C219.18 287.12 219.12 287.48 219.09 287.64L219 287.67Z" fill="#FFCFC5"/>
<path d="M241.92 293.16H257.43C257.629 293.176 257.828 293.133 258.002 293.035C258.176 292.937 258.317 292.789 258.406 292.61C258.495 292.432 258.529 292.231 258.503 292.033C258.477 291.835 258.392 291.649 258.26 291.5C257.515 290.646 256.57 289.99 255.51 289.59C254.585 289.17 253.611 288.871 252.61 288.7C251.01 288.4 250.21 288.55 249.06 287.93C248.765 287.767 248.487 287.577 248.23 287.36V287.41C246.587 288.171 244.742 288.381 242.97 288.01C242.629 287.936 242.295 287.836 241.97 287.71C241.72 289.15 241.37 290.53 241.09 291.71C241.09 291.817 241.06 291.937 241 292.07C240.988 292.202 241.002 292.335 241.042 292.462C241.081 292.589 241.146 292.706 241.231 292.808C241.317 292.909 241.422 292.993 241.54 293.053C241.659 293.113 241.788 293.15 241.92 293.16Z" fill="black"/>
<path d="M241.97 287.67C242.295 287.796 242.629 287.896 242.97 287.97C244.742 288.341 246.587 288.131 248.23 287.37V287.32V286.48C248.23 286.21 248.23 285.94 248.23 285.67C247.538 285.929 246.815 286.101 246.08 286.18C244.841 286.304 243.589 286.161 242.41 285.76C242.41 286.02 242.31 286.29 242.25 286.59C242.16 287.12 242.09 287.48 242.07 287.64L241.97 287.67Z" fill="#FFCFC5"/>
<path d="M238.56 180.3C238.555 180.943 238.375 181.572 238.04 182.12C237.88 182.386 237.693 182.634 237.48 182.86C237.021 183.324 236.469 183.685 235.86 183.92C235.364 184.125 234.836 184.244 234.3 184.27C234.224 185.435 234.451 186.599 234.96 187.65C235.61 188.99 236.67 190.31 236.84 191.82C236.887 192.152 236.887 192.488 236.84 192.82C236.802 193.02 236.748 193.218 236.68 193.41C236.05 195.27 234.05 196.41 233.62 198.36C233.19 200.31 234.52 202.74 234.99 204.71C235.81 208.2 235.6 211.82 232.3 213.92C231.079 214.66 229.716 215.133 228.3 215.31C227.8 215.37 227.3 215.42 226.81 215.44C224.935 215.505 223.06 215.33 221.23 214.92C216.203 213.91 211.707 211.128 208.56 207.08C205.46 202.93 203.86 196.08 208.56 192.39C210.96 190.53 214.14 190.34 217.04 189.98C218.054 189.915 219.046 189.653 219.96 189.21C222.08 188.03 222.39 185.45 223.09 183.36C223.84 181.12 225.16 179.1 227.68 178.86C228.576 178.771 229.481 178.894 230.32 179.22C230.689 178.636 231.168 178.13 231.73 177.73C232.624 177.026 233.744 176.671 234.88 176.73C235.876 176.788 236.814 177.216 237.51 177.93C238.137 178.565 238.511 179.408 238.56 180.3Z" fill="black"/>
<path d="M238.9 190.86C238.669 191.185 238.361 191.447 238.003 191.621C237.644 191.796 237.248 191.878 236.85 191.86C236.68 190.35 235.62 189.03 234.97 187.69C234.461 186.639 234.234 185.475 234.31 184.31C234.846 184.284 235.374 184.165 235.87 183.96C236.479 183.725 237.031 183.364 237.49 182.9C237.905 183.939 238.262 185.001 238.56 186.08C238.76 186.84 239 187.6 239.15 188.38C239.28 188.788 239.325 189.219 239.282 189.646C239.239 190.072 239.109 190.485 238.9 190.86Z" fill="#FFCFC5"/>
<path d="M265.75 192.56C265.373 192.366 265.011 192.142 264.67 191.89C264.38 191.67 264.12 191.45 263.88 191.23C263.223 192.946 262.25 194.524 261.01 195.88C259.806 197.454 258.265 198.739 256.5 199.64C255.07 200.383 253.481 200.767 251.87 200.76C249.99 200.636 248.169 200.06 246.56 199.08C245.94 198.77 244.82 198.08 242.56 196.58C241.427 195.796 240.252 195.075 239.04 194.42C238.65 194.22 238.27 194.04 237.91 193.89C237.55 193.74 237.02 193.51 236.65 193.37C236.02 195.23 234.02 196.37 233.59 198.32C233.16 200.27 234.49 202.7 234.96 204.67C235.78 208.16 235.57 211.77 232.27 213.88C231.049 214.62 229.686 215.093 228.27 215.27C227.79 215.33 227.32 215.37 226.84 215.39C227.399 217.775 227.467 220.248 227.04 222.66C227.541 222.864 228.056 223.035 228.58 223.17C228.5 223.88 228.39 224.54 228.26 225.17L227.96 225.54L228.16 225.62C232.814 227.375 237.906 227.606 242.7 226.28C243.06 226.18 243.41 226.06 243.75 225.94C245.128 225.456 246.452 224.829 247.7 224.07L248.28 223.71C247.507 221.257 246.67 218.75 245.77 216.19C244.66 213.04 243.51 210.02 242.35 207.13C244.926 208.056 247.619 208.615 250.35 208.79C252.89 208.94 254.47 209.01 256.35 208.23C258.35 207.37 259.47 206.01 261.35 203.69C262.739 202.148 263.833 200.366 264.58 198.43C264.83 197.73 265.58 195.54 265.58 195.43C265.818 194.582 266.119 193.753 266.48 192.95C266.23 192.833 265.986 192.703 265.75 192.56ZM228.7 218.49C228.7 218.57 228.7 218.66 228.7 218.74C228.7 218.65 228.7 218.57 228.7 218.49C228.7 217.93 228.6 217.38 228.53 216.86C228.56 217.38 228.66 217.92 228.7 218.49Z" fill="#FB9100"/>
<path opacity="0.45" d="M235.35 199.24C235.26 203.13 238.19 206.37 237.79 210.34C237.33 214.87 233.12 218.26 228.7 218.49C228.622 217.412 228.475 216.339 228.26 215.28C229.676 215.103 231.039 214.63 232.26 213.89C235.56 211.79 235.77 208.17 234.95 204.68C234.48 202.68 233.14 200.36 233.58 198.33C234.02 196.3 236.01 195.24 236.64 193.38C237.01 193.52 237.44 193.69 237.9 193.9C237.143 194.577 236.528 195.398 236.09 196.314C235.652 197.231 235.401 198.225 235.35 199.24Z" fill="#DC8923"/>
<path opacity="0.45" d="M266.47 192.91C266.109 193.713 265.808 194.542 265.57 195.39C265.52 195.53 264.8 197.72 264.57 198.39C263.816 200.324 262.718 202.106 261.33 203.65C259.43 205.97 258.33 207.33 256.33 208.19C254.5 208.97 252.92 208.9 250.33 208.75C247.599 208.574 244.906 208.016 242.33 207.09C243.49 209.98 244.64 213 245.75 216.15C246.65 218.71 247.487 221.216 248.26 223.67C246.93 221.83 245.78 220.3 244.9 219.15C244.02 218 243.64 217.54 243.19 216.86C242.17 215.317 241.344 213.655 240.73 211.91C239.661 209.522 239.135 206.926 239.19 204.31C239.23 203.573 239.327 202.841 239.48 202.12C240.676 202.98 241.96 203.711 243.31 204.3C245.332 205.259 247.533 205.784 249.77 205.84C251.992 205.842 254.19 205.375 256.22 204.47C258.269 203.618 260.096 202.308 261.56 200.64C262.665 199.26 263.577 197.736 264.27 196.11C265.27 194.11 265.35 193.34 265.74 192.53C265.976 192.669 266.22 192.796 266.47 192.91Z" fill="#DC8923"/>
<path d="M270.48 187.66C270.408 188.176 270.194 188.661 269.86 189.06C268.21 189.622 266.811 190.748 265.91 192.24C265.851 192.34 265.797 192.444 265.75 192.55C265.373 192.356 265.011 192.132 264.67 191.88C264.38 191.66 264.12 191.44 263.88 191.22C263.88 191.12 263.96 191.02 263.99 190.92C264.69 188.8 264.41 187.74 265.55 185.82C266 185.06 266.9 183.82 266.97 183.7C267.58 182.83 268.13 182.13 268.52 181.64C268.91 181.15 269.09 180.64 269.24 180.73C269.39 180.82 269.34 180.82 269.24 181.65C269.168 182.419 269.037 183.181 268.85 183.93C268.77 184.29 268.68 184.59 268.63 184.8C268.82 184.99 269.13 185.29 269.54 185.64C269.793 185.823 270.022 186.038 270.22 186.28C270.466 186.695 270.559 187.184 270.48 187.66Z" fill="#FFCFC5"/>
<path d="M269.86 189.08C269.82 189.124 269.784 189.171 269.75 189.22C269.3 189.746 268.801 190.228 268.26 190.66C267.791 191.114 267.356 191.602 266.96 192.12C266.776 192.374 266.613 192.641 266.47 192.92C266.224 192.816 265.984 192.699 265.75 192.57C265.797 192.464 265.851 192.36 265.91 192.26C266.811 190.768 268.21 189.642 269.86 189.08Z" fill="#FF797D"/>
<path opacity="0.45" d="M228.56 223.18C228.036 223.045 227.521 222.874 227.02 222.67C227.447 220.258 227.379 217.785 226.82 215.4C227.3 215.4 227.77 215.34 228.25 215.28C228.47 216.339 228.617 217.411 228.69 218.49C228.69 218.57 228.69 218.65 228.69 218.74C228.786 220.221 228.743 221.707 228.56 223.18Z" fill="#DC8923"/>
<path d="M227.3 219.08C227.336 220.296 227.245 221.513 227.03 222.71L226.41 222.45L226.21 222.36C225.685 222.109 225.18 221.818 224.7 221.49C223.602 220.789 222.703 219.817 222.089 218.668C221.474 217.52 221.165 216.233 221.19 214.93C222.964 215.331 224.782 215.505 226.6 215.45H226.83C227.113 216.64 227.27 217.857 227.3 219.08Z" fill="#FB9100"/>
<path d="M247.64 285.08C246.646 282.395 245.939 279.613 245.53 276.78C244.94 272.58 245.12 268.52 245.48 260.4C245.77 253.86 246.25 251.28 246.24 244.2C246.322 240.389 246.047 236.58 245.42 232.82C245.017 230.478 244.456 228.166 243.74 225.9C243.4 226.02 243.05 226.14 242.69 226.24C237.896 227.566 232.804 227.335 228.15 225.58L227.95 225.5C226.97 226.744 226.178 228.126 225.6 229.6C224.776 231.798 224.375 234.133 224.42 236.48C224.3 240.55 223.75 244.61 223.87 248.68C224 253.33 223.22 263.16 219.31 285.68C219.942 286.018 220.614 286.277 221.31 286.45C222.579 286.779 223.908 286.807 225.19 286.53C225.33 286.07 225.45 285.61 225.57 285.16C225.57 284.33 225.52 283.45 225.52 282.52C225.52 276.7 226.42 272.89 227.52 266.92C227.52 266.92 229.09 258.56 230.36 249.18C230.91 245.08 231.59 239.11 231.93 231.72C231.939 233.094 232.251 234.449 232.844 235.688C233.437 236.927 234.296 238.021 235.36 238.89C235.76 240.43 236.21 242.15 236.64 244.04C237.007 245.62 237.373 247.317 237.74 249.13C237.99 250.4 238.69 254.04 239.39 259.13C240.03 263.74 240.26 266.65 240.74 271.91C241.04 275.31 241.49 280.06 242.07 285.91V286.19C242.825 286.427 243.609 286.555 244.4 286.57C245.604 286.584 246.797 286.342 247.9 285.86C247.83 285.61 247.73 285.36 247.64 285.08ZM231.93 231.69C231.93 231.35 231.93 231.06 231.93 230.83C231.96 231.15 231.94 231.43 231.93 231.72V231.69Z" fill="#1B5A96"/>
<path d="M249.85 246.52C249.85 246.52 249.24 252.87 248.59 262.09L248.91 250.42C248.73 254.78 248.587 259.193 248.48 263.66C248.48 265.66 248.4 267.72 248.37 269.77C248.37 272.857 248.37 275.97 248.37 279.11C248.37 281.31 248.387 283.497 248.42 285.67L247.96 285.86C246.813 282.963 246.008 279.943 245.56 276.86C244.97 272.66 245.15 268.6 245.51 260.48C245.8 253.94 246.28 251.36 246.27 244.28C246.352 240.469 246.077 236.659 245.45 232.9C245.047 230.558 244.486 228.246 243.77 225.98C245.148 225.496 246.472 224.869 247.72 224.11C248.188 225.027 248.583 225.98 248.9 226.96C249.56 228.998 249.897 231.127 249.9 233.27C250.112 237.684 250.095 242.107 249.85 246.52Z" fill="#122A4F"/>
<path d="M248.91 250.42L248.56 262.08C248.56 262.6 248.49 263.08 248.45 263.65C248.57 259.19 248.723 254.78 248.91 250.42Z" fill="#122A4F"/>
<path d="M236.64 244.08C235.91 246.08 234.96 248.86 233.96 252.08C231.9 258.83 230.83 263.8 229.96 267.5C228.96 271.88 227.53 277.85 225.51 285.16C225.51 284.33 225.46 283.45 225.46 282.52C225.46 276.7 226.36 272.9 227.46 266.92C227.46 266.92 229.03 258.56 230.29 249.18C230.85 245.08 231.53 239.11 231.87 231.72C231.879 233.094 232.191 234.449 232.784 235.688C233.377 236.928 234.236 238.021 235.3 238.89C235.753 240.477 236.2 242.207 236.64 244.08Z" fill="#122A4F"/>
<path d="M248.91 250.42L248.56 262.08L248.34 269.76C248.34 267.71 248.4 265.67 248.45 263.65C248.57 259.19 248.723 254.78 248.91 250.42Z" fill="#122A4F"/>
<path d="M127.39 218.75C125.451 221.531 123.976 224.608 123.02 227.86H94.18C93.7621 226.448 93.251 225.065 92.65 223.72C90.31 218.49 86.2 214.37 83.58 209.32C78.2 198.93 78.81 186.32 86.22 177.11C88.9139 173.775 92.3162 171.081 96.1801 169.223C100.044 167.366 104.273 166.391 108.56 166.37C106.56 166.85 94.99 169.73 89.04 180.71C86.6396 185.147 85.5147 190.163 85.79 195.2C86.36 204.51 91.79 210.63 94.19 213.35C95.7138 215.135 97.493 216.685 99.47 217.95C102.482 219.648 105.792 220.751 109.22 221.2C113.06 221.7 119.4 220.95 127.39 218.75Z" fill="#EF941E"/>
<path d="M122.56 239.91C122.186 243.447 120.516 246.72 117.872 249.099C115.228 251.478 111.797 252.794 108.24 252.794C104.683 252.794 101.252 251.478 98.6085 249.099C95.9645 246.72 94.2944 243.447 93.92 239.91H122.56Z" fill="#1B5A96"/>
<path d="M124.62 237.58C124.619 238.156 124.407 238.711 124.023 239.141C123.64 239.57 123.112 239.844 122.54 239.91H93.9C93.3117 239.834 92.7741 239.537 92.395 239.081C92.016 238.624 91.8236 238.042 91.8566 237.449C91.8895 236.857 92.1452 236.299 92.5725 235.887C92.9997 235.476 93.5668 235.241 94.16 235.23H122.28C122.902 235.233 123.497 235.481 123.935 235.922C124.374 236.362 124.62 236.958 124.62 237.58Z" fill="#2E599C"/>
<path d="M122.24 232.56H94.2V235.23H122.24V232.56Z" fill="#FB9100"/>
<path d="M136.99 198.25C136.557 202.116 135.415 205.869 133.62 209.32C131.88 212.67 129.48 215.62 127.39 218.75C119.39 220.95 113.06 221.75 109.26 221.2C105.832 220.751 102.522 219.648 99.51 217.95C97.533 216.685 95.7538 215.135 94.23 213.35C91.82 210.63 86.4 204.51 85.83 195.2C85.5547 190.163 86.6796 185.147 89.08 180.71C95.08 169.71 106.57 166.85 108.6 166.37C112.892 166.38 117.127 167.347 120.999 169.199C124.87 171.052 128.28 173.744 130.98 177.08C133.336 180.034 135.081 183.427 136.112 187.061C137.144 190.696 137.443 194.499 136.99 198.25Z" fill="#FB9100"/>
<g opacity="0.45">
<path d="M127.4 191.5C127.166 191.501 126.939 191.414 126.765 191.257C126.591 191.1 126.482 190.883 126.46 190.65C126.042 186.869 124.421 183.322 121.836 180.532C119.251 177.742 115.838 175.855 112.1 175.15C111.977 175.128 111.859 175.082 111.753 175.014C111.648 174.947 111.557 174.858 111.486 174.755C111.415 174.652 111.366 174.535 111.341 174.412C111.316 174.289 111.315 174.163 111.34 174.04C111.397 173.798 111.543 173.586 111.748 173.445C111.953 173.305 112.204 173.246 112.45 173.28C116.591 174.059 120.372 176.148 123.235 179.24C126.098 182.332 127.891 186.261 128.35 190.45C128.353 190.691 128.268 190.925 128.112 191.109C127.956 191.293 127.738 191.414 127.5 191.45L127.4 191.5Z" fill="white"/>
</g>
<path d="M113.05 228.81C112.793 228.811 112.546 228.712 112.36 228.535C112.174 228.358 112.063 228.117 112.05 227.86C112.05 226.36 112.05 223.86 112.05 220.97C112.05 213.58 112.05 203.46 112.05 199.67C112.05 198.67 112.05 197.78 112.05 196.83C110.904 197.033 109.744 197.144 108.58 197.16C107.41 197.144 106.243 197.033 105.09 196.83C105.09 197.78 105.09 198.72 105.09 199.67C105.04 203.46 105.09 213.58 105.09 220.97C105.09 223.88 105.09 226.36 105.09 227.86C105.09 228.112 104.99 228.354 104.812 228.532C104.634 228.71 104.392 228.81 104.14 228.81C103.888 228.81 103.646 228.71 103.468 228.532C103.29 228.354 103.19 228.112 103.19 227.86C103.19 226.36 103.19 223.86 103.19 220.98C103.19 213.58 103.19 203.45 103.19 199.64C103.19 198.54 103.19 197.46 103.19 196.37C102.145 196.053 101.139 195.621 100.19 195.08C97.73 193.66 94.72 190.41 96.54 187.22C96.9954 186.452 97.6803 185.845 98.4983 185.487C99.3163 185.128 100.226 185.035 101.1 185.22C101.376 185.278 101.645 185.369 101.9 185.49C104.45 186.67 104.74 189.73 104.9 191.75C104.99 192.7 105.04 193.7 105.08 194.81C107.387 195.302 109.773 195.302 112.08 194.81C112.08 193.7 112.17 192.7 112.26 191.75C112.45 189.75 112.74 186.67 115.26 185.49C115.519 185.369 115.79 185.278 116.07 185.22C116.942 185.034 117.851 185.127 118.668 185.486C119.484 185.845 120.167 186.452 120.62 187.22C122.44 190.41 119.44 193.66 116.97 195.08C116.022 195.622 115.016 196.055 113.97 196.37C113.97 197.46 113.97 198.54 113.97 199.64C114.03 203.45 113.97 213.58 113.97 220.98C113.97 223.89 113.97 226.36 113.97 227.86C113.959 228.103 113.859 228.334 113.689 228.509C113.52 228.684 113.293 228.791 113.05 228.81ZM117.05 187.07C116.884 187.056 116.716 187.056 116.55 187.07C116.411 187.1 116.277 187.147 116.15 187.21C114.59 187.92 114.38 190.14 114.21 191.92C114.14 192.66 114.09 193.43 114.06 194.27C114.752 194.018 115.421 193.707 116.06 193.34C117.53 192.5 120.18 190.11 119.06 188.08C118.835 187.752 118.529 187.487 118.171 187.312C117.814 187.137 117.417 187.057 117.02 187.08L117.05 187.07ZM100.21 187.07C99.8101 187.066 99.4158 187.164 99.0654 187.357C98.7149 187.55 98.4203 187.83 98.21 188.17C97.05 190.17 99.69 192.59 101.21 193.43C101.867 193.802 102.557 194.113 103.27 194.36C103.27 193.52 103.18 192.75 103.11 192.01C102.94 190.23 102.73 188.01 101.18 187.3C101.049 187.239 100.911 187.192 100.77 187.16C100.577 187.113 100.379 187.086 100.18 187.08L100.21 187.07Z" fill="#FFF6EB"/>
<path d="M124.62 230.21C124.621 230.831 124.376 231.428 123.94 231.87C123.498 232.307 122.902 232.555 122.28 232.56H94.16C93.5367 232.56 92.939 232.312 92.4983 231.872C92.0576 231.431 91.81 230.833 91.81 230.21C91.8126 229.587 92.0611 228.991 92.5012 228.551C92.9413 228.111 93.5375 227.862 94.16 227.86H122.28C122.902 227.863 123.497 228.111 123.935 228.552C124.374 228.992 124.62 229.588 124.62 230.21Z" fill="#2E599C"/>
</g>
</g>
<defs>
<clipPath id="clip0_118_2">
<rect width="570" height="324" fill="white"/>
</clipPath>
<clipPath id="clip1_118_2">
<rect width="421.12" height="262.16" fill="white" transform="translate(74 31)"/>
</clipPath>
</defs>
</svg>
