<svg width="570" height="324" viewBox="0 0 570 324" fill="none" xmlns="http://www.w3.org/2000/svg">
<rect width="570" height="324" fill="#FFF6EB"/>
<path d="M543.831 292.996H40.8937C40.6462 292.979 40.4193 292.92 40.2549 292.829C40.0906 292.738 40 292.621 40 292.5C40 292.379 40.0906 292.262 40.2549 292.171C40.4193 292.08 40.6462 292.021 40.8937 292.004H543.831C543.977 291.995 544.125 292.001 544.266 292.021C544.407 292.042 544.537 292.077 544.648 292.124C544.758 292.171 544.847 292.228 544.908 292.293C544.969 292.358 545 292.429 545 292.5C545 292.571 544.969 292.642 544.908 292.707C544.847 292.772 544.758 292.829 544.648 292.876C544.537 292.923 544.407 292.958 544.266 292.979C544.125 292.999 543.977 293.005 543.831 292.996Z" fill="#1E1E1E"/>
<g clip-path="url(#clip0_141_288)">
<path d="M418.18 33.4302H394.51V57.1002H418.18V33.4302Z" fill="#FB9100"/>
<path d="M429.5 61.5698H421.05V70.0198H429.5V61.5698Z" fill="#1B5A96"/>
<path d="M402.19 49.4702H379.02V73.4802H402.19V49.4702Z" fill="#1B5A96"/>
<path d="M379.02 49.4702L402.19 73.4802" stroke="#FFF6EB" stroke-width="0.41" stroke-miterlimit="10"/>
<path d="M402.19 49.4702L378.91 73.6002" stroke="#FFF6EB" stroke-width="0.41" stroke-miterlimit="10"/>
<path d="M320.22 49.4702H297.05V73.4802H320.22V49.4702Z" fill="#FB9100"/>
<path d="M297.05 49.4702L320.22 73.4802" stroke="#FFF6EB" stroke-width="0.41" stroke-miterlimit="10"/>
<path d="M320.22 49.4702L297.05 73.4802" stroke="#FFF6EB" stroke-width="0.41" stroke-miterlimit="10"/>
<path d="M181.75 98.79H136.98V132.1H181.75V98.79Z" stroke="black" stroke-width="0.41" stroke-linecap="round" stroke-linejoin="round"/>
<path d="M178.55 103.58H140.18V107.84H178.55V103.58Z" fill="#FB9100"/>
<path d="M139.78 113.18H161.5" stroke="black" stroke-width="0.41" stroke-miterlimit="10"/>
<path d="M139.78 118.24H161.5" stroke="black" stroke-width="0.41" stroke-miterlimit="10"/>
<path d="M139.78 123.3H161.5" stroke="black" stroke-width="0.41" stroke-miterlimit="10"/>
<path d="M139.78 128.63H161.5" stroke="black" stroke-width="0.41" stroke-miterlimit="10"/>
<path d="M178.55 113.18H164.16V128.64H178.55V113.18Z" fill="#1B5A96"/>
<path d="M164.16 113.18L178.55 128.63" stroke="#FFF6EB" stroke-width="0.41" stroke-miterlimit="10"/>
<path d="M178.55 113.18L164.16 128.63" stroke="#FFF6EB" stroke-width="0.41" stroke-miterlimit="10"/>
<path d="M270.13 45.96H182.83C181.886 45.96 181.12 46.7256 181.12 47.67V72.19C181.12 73.1344 181.886 73.9 182.83 73.9H270.13C271.075 73.9 271.84 73.1344 271.84 72.19V47.67C271.84 46.7256 271.075 45.96 270.13 45.96Z" fill="#1B5A96"/>
<path d="M187.26 52.46H265.72" stroke="#FFF6EB" stroke-width="0.41" stroke-miterlimit="10"/>
<path d="M187.26 57.54H265.72" stroke="#FFF6EB" stroke-width="0.41" stroke-miterlimit="10"/>
<path d="M187.26 62.6099H265.72" stroke="#FFF6EB" stroke-width="0.41" stroke-miterlimit="10"/>
<path d="M187.26 67.6802H265.72" stroke="#FFF6EB" stroke-width="0.41" stroke-miterlimit="10"/>
<path d="M174.49 176.81V178.56H172.74" stroke="#2E176C" stroke-width="0.62" stroke-linecap="round" stroke-linejoin="round"/>
<path d="M169.18 178.56H156.72" stroke="#2E176C" stroke-width="0.62" stroke-linecap="round" stroke-linejoin="round" stroke-dasharray="3.56 3.56"/>
<path d="M154.94 178.56H153.19V176.81" stroke="#2E176C" stroke-width="0.62" stroke-linecap="round" stroke-linejoin="round"/>
<path d="M153.19 173.25V160.8" stroke="#2E176C" stroke-width="0.62" stroke-linecap="round" stroke-linejoin="round" stroke-dasharray="3.56 3.56"/>
<path d="M153.19 159.02V157.27H154.94" stroke="#2E176C" stroke-width="0.62" stroke-linecap="round" stroke-linejoin="round"/>
<path d="M158.5 157.27H170.96" stroke="#2E176C" stroke-width="0.62" stroke-linecap="round" stroke-linejoin="round" stroke-dasharray="3.56 3.56"/>
<path d="M172.74 157.27H174.49V159.02" stroke="#2E176C" stroke-width="0.62" stroke-linecap="round" stroke-linejoin="round"/>
<path d="M174.49 162.58V175.03" stroke="#2E176C" stroke-width="0.62" stroke-linecap="round" stroke-linejoin="round" stroke-dasharray="3.56 3.56"/>
<path d="M371.28 195.43V89.2202C371.28 87.8941 370.753 86.6224 369.816 85.6847C368.878 84.747 367.606 84.2202 366.28 84.2202H193.57C192.244 84.2202 190.972 84.747 190.035 85.6847C189.097 86.6224 188.57 87.8941 188.57 89.2202V195.43H371.28Z" fill="#1B5A96"/>
<path d="M188.21 195.63V210.99C188.213 212.408 188.777 213.767 189.78 214.77C190.783 215.773 192.142 216.337 193.56 216.34H366C367.418 216.337 368.777 215.773 369.78 214.77C370.783 213.767 371.347 212.408 371.35 210.99V195.63H188.21Z" fill="#FB9100"/>
<path d="M284.55 204.66C284.55 205.604 284.27 206.526 283.746 207.31C283.222 208.095 282.477 208.706 281.605 209.067C280.734 209.428 279.775 209.523 278.849 209.338C277.924 209.154 277.074 208.7 276.407 208.033C275.74 207.366 275.286 206.516 275.102 205.591C274.918 204.665 275.012 203.706 275.373 202.835C275.734 201.963 276.346 201.218 277.13 200.694C277.914 200.17 278.837 199.89 279.78 199.89C280.406 199.89 281.027 200.014 281.605 200.253C282.184 200.493 282.71 200.844 283.153 201.287C283.596 201.73 283.947 202.256 284.187 202.835C284.427 203.413 284.55 204.034 284.55 204.66Z" fill="white"/>
<path d="M311.32 238.96C311.32 238.96 310 238.3 308.47 237.73C306.94 237.16 304.89 236.35 303.74 235.8C301.74 234.8 301.55 234.19 300.79 230.89C299.97 227.28 299.2 219.66 298.88 216.34H260.68C260.37 219.66 259.6 227.28 258.77 230.89C258.02 234.19 257.85 234.83 255.83 235.8C254.69 236.34 252.76 237.1 251.15 237.71C249.6 238.29 248.33 238.71 248.33 238.71C248.33 238.71 247.11 239.39 249.08 239.49H310.49C312.34 239.55 311.32 238.96 311.32 238.96Z" fill="#1B5A96"/>
<path d="M300.06 225.39C299.89 223.81 298.98 217.39 298.88 216.39H260.68C260.58 217.39 260.68 217.91 260.5 219.48L300.06 225.39Z" fill="black"/>
<path d="M362.52 92.8101H197.05V185.99H362.52V92.8101Z" fill="#FFF6EB"/>
<path d="M362.52 92.8101H197.05V102.05H362.52V92.8101Z" fill="#FFF6EB"/>
<path d="M359.41 104.03H324.62V149.29H359.41V104.03Z" stroke="#010002" stroke-width="0.41" stroke-miterlimit="10"/>
<path d="M323.05 104.09H198.8V184.06H323.05V104.09Z" fill="#FFF6EB"/>
<path d="M323.46 95.2202H211.64V99.6602H323.46V95.2202Z" fill="#1B5A96"/>
<path d="M208.59 95.2202H203.84V99.6602H208.59V95.2202Z" fill="#FB9100"/>
<path d="M341.48 99.32V99.06C341.48 98.6463 341.316 98.2495 341.023 97.9569C340.731 97.6644 340.334 97.5 339.92 97.5H338.36C337.95 97.5053 337.558 97.6719 337.27 97.9639C336.982 98.2559 336.82 98.6497 336.82 99.06V99.32H341.48Z" fill="#1B5A96"/>
<path d="M340.18 95.6802C340.18 95.878 340.121 96.0713 340.011 96.2357C339.902 96.4002 339.745 96.5284 339.563 96.6041C339.38 96.6797 339.179 96.6996 338.985 96.661C338.791 96.6224 338.613 96.5271 338.473 96.3873C338.333 96.2474 338.238 96.0692 338.199 95.8753C338.161 95.6813 338.18 95.4802 338.256 95.2975C338.332 95.1148 338.46 94.9586 338.624 94.8487C338.789 94.7388 338.982 94.6802 339.18 94.6802C339.445 94.6802 339.7 94.7855 339.887 94.9731C340.075 95.1606 340.18 95.415 340.18 95.6802Z" fill="#1B5A96"/>
<path d="M342.69 99.2198C342.692 99.4952 342.612 99.7649 342.461 99.9948C342.309 100.225 342.093 100.404 341.839 100.511C341.585 100.618 341.305 100.647 341.035 100.594C340.765 100.542 340.516 100.41 340.321 100.216C340.125 100.022 339.992 99.7746 339.938 99.5047C339.883 99.2348 339.91 98.9548 340.015 98.7002C340.12 98.4457 340.298 98.228 340.527 98.0748C340.756 97.9216 341.025 97.8399 341.3 97.8398C341.667 97.8398 342.019 97.9849 342.279 98.2434C342.54 98.5019 342.687 98.8529 342.69 99.2198Z" fill="#FB9100"/>
<path d="M350.6 94.8999H346.36C346.254 94.8999 346.152 94.942 346.077 95.0171C346.002 95.0921 345.96 95.1938 345.96 95.2999V98.6199C345.96 98.672 345.97 98.7235 345.991 98.7715C346.011 98.8195 346.04 98.8629 346.078 98.8993C346.115 98.9356 346.159 98.9641 346.208 98.9831C346.256 99.0021 346.308 99.0112 346.36 99.0099H346.62V99.9399L347.55 99.0099H350.55C350.602 99.0112 350.654 99.0021 350.702 98.9831C350.751 98.9641 350.795 98.9356 350.832 98.8993C350.869 98.8629 350.899 98.8195 350.919 98.7715C350.94 98.7235 350.95 98.672 350.95 98.6199V95.2999C350.951 95.2019 350.915 95.1071 350.851 95.0334C350.786 94.9596 350.697 94.9121 350.6 94.8999Z" fill="#1B5A96"/>
<path d="M352.31 99.2198C352.312 99.4952 352.232 99.7649 352.081 99.9948C351.929 100.225 351.713 100.404 351.459 100.511C351.205 100.618 350.925 100.647 350.655 100.594C350.385 100.542 350.136 100.41 349.941 100.216C349.745 100.022 349.612 99.7746 349.557 99.5047C349.503 99.2348 349.53 98.9548 349.635 98.7002C349.74 98.4457 349.918 98.228 350.147 98.0748C350.376 97.9216 350.645 97.8399 350.92 97.8398C351.287 97.8398 351.639 97.9849 351.899 98.2434C352.16 98.5019 352.307 98.8529 352.31 99.2198Z" fill="#FB9100"/>
<path d="M359.41 151.13H324.62V183.64H359.41V151.13Z" stroke="black" stroke-width="0.41" stroke-miterlimit="10"/>
<path d="M344.41 112.55H336.1V114.47H344.41V112.55Z" fill="#FB9100"/>
<path d="M335.27 106.32H326.96V108.24H335.27V106.32Z" fill="#1B5A96"/>
<path d="M335.27 144.69H326.96V146.61H335.27V144.69Z" fill="#1B5A96"/>
<path d="M346.84 106.32H344V108.24H346.84V106.32Z" fill="#1B5A96"/>
<path d="M351.2 106.32H348.36V108.24H351.2V106.32Z" fill="#1B5A96"/>
<path d="M335.27 153.41H326.96V155.33H335.27V153.41Z" fill="#FB9100"/>
<path d="M346.84 153.41H344V155.33H346.84V153.41Z" fill="#FB9100"/>
<path d="M351.2 153.41H348.36V155.33H351.2V153.41Z" fill="#FB9100"/>
<path d="M350.78 116.15H336.1V118.07H350.78V116.15Z" fill="#1B5A96"/>
<path d="M333.82 115.22C333.822 115.893 333.624 116.552 333.251 117.113C332.878 117.673 332.347 118.111 331.726 118.369C331.104 118.628 330.42 118.696 329.759 118.565C329.099 118.434 328.492 118.11 328.016 117.634C327.54 117.158 327.216 116.551 327.085 115.891C326.954 115.23 327.022 114.546 327.281 113.924C327.539 113.303 327.977 112.772 328.537 112.399C329.098 112.026 329.757 111.828 330.43 111.83C331.329 111.83 332.191 112.187 332.827 112.823C333.463 113.459 333.82 114.321 333.82 115.22Z" fill="#FB9100"/>
<path d="M344.41 123.63H336.1V125.55H344.41V123.63Z" fill="#FB9100"/>
<path d="M350.78 127.23H336.1V129.15H350.78V127.23Z" fill="#1B5A96"/>
<path d="M333.82 126.22C333.822 126.893 333.624 127.552 333.251 128.113C332.878 128.673 332.347 129.111 331.726 129.369C331.104 129.628 330.42 129.696 329.759 129.565C329.099 129.434 328.492 129.11 328.016 128.634C327.54 128.158 327.216 127.551 327.085 126.891C326.954 126.23 327.022 125.546 327.281 124.924C327.539 124.303 327.977 123.772 328.537 123.399C329.098 123.026 329.757 122.828 330.43 122.83C331.328 122.833 332.189 123.191 332.824 123.826C333.459 124.461 333.817 125.322 333.82 126.22Z" fill="#FB9100"/>
<path d="M344.41 134.71H336.1V136.63H344.41V134.71Z" fill="#FB9100"/>
<path d="M350.78 138.31H336.1V140.23H350.78V138.31Z" fill="#1B5A96"/>
<path d="M333.82 137.33C333.822 138.003 333.624 138.662 333.251 139.223C332.878 139.783 332.347 140.221 331.726 140.479C331.104 140.738 330.42 140.806 329.759 140.675C329.099 140.544 328.492 140.22 328.016 139.744C327.54 139.268 327.216 138.661 327.085 138.001C326.954 137.34 327.022 136.656 327.281 136.034C327.539 135.413 327.977 134.882 328.537 134.509C329.098 134.136 329.757 133.938 330.43 133.94C331.328 133.943 332.189 134.301 332.824 134.936C333.459 135.571 333.817 136.432 333.82 137.33Z" fill="#FB9100"/>
<path d="M344.41 160.47H336.1V162.39H344.41V160.47Z" fill="#FB9100"/>
<path d="M350.78 164.08H336.1V166H350.78V164.08Z" fill="#1B5A96"/>
<path d="M333.75 159.35H327.1V166H333.75V159.35Z" fill="#1B5A96"/>
<path d="M344.41 172.87H336.1V174.79H344.41V172.87Z" fill="#FB9100"/>
<path d="M350.78 176.48H336.1V178.4H350.78V176.48Z" fill="#1B5A96"/>
<path d="M333.75 171.75H327.1V178.4H333.75V171.75Z" fill="#1B5A96"/>
<path d="M319.32 105.28H203.19V141.37H319.32V105.28Z" stroke="black" stroke-width="0.5" stroke-miterlimit="10"/>
<path d="M293.2 111.55H253.02V114.27H293.2V111.55Z" fill="#FB9100"/>
<path d="M298.85 117.37H253.02V119.4H298.85V117.37Z" fill="#FB9100"/>
<path d="M292.84 122.13H252.83V124.18H292.84V122.13Z" fill="#FB9100"/>
<path d="M297.38 126.73H252.83V128.77H297.38V126.73Z" fill="#FB9100"/>
<path d="M262.78 131.69H252.83V133.72H262.78V131.69Z" fill="#FB9100"/>
<path d="M249.25 111.69H208.82V135.59H249.25V111.69Z" fill="#FB9100"/>
<path d="M208.82 111.69L249.25 135.59" stroke="white" stroke-width="0.29" stroke-miterlimit="10"/>
<path d="M249.25 111.69L208.82 135.59" stroke="white" stroke-width="0.29" stroke-miterlimit="10"/>
<path d="M136.75 79.6898C139.061 80.7195 141.656 80.9256 144.101 80.2736C146.546 79.6216 148.693 78.151 150.185 76.1071C151.676 74.0632 152.422 71.5697 152.298 69.0424C152.173 66.5151 151.186 64.107 149.5 62.2198C147.82 60.3298 144.57 59.2198 142.91 61.0798C142.562 61.5571 142.314 62.1001 142.182 62.6759C142.049 63.2517 142.035 63.8483 142.14 64.4298C142.357 65.9147 142.869 67.3413 143.645 68.6258C144.422 69.9102 145.447 71.0268 146.66 71.9098C149.112 73.6523 151.956 74.7619 154.94 75.1398C157.767 75.6624 160.682 75.4137 163.38 74.4198C164.719 73.9062 165.916 73.0801 166.871 72.0103C167.826 70.9406 168.511 69.6581 168.87 68.2698" stroke="black" stroke-width="0.44" stroke-linecap="round" stroke-linejoin="round"/>
<path d="M381.58 97.1401C382.58 98.2201 383.58 99.2901 384.58 100.36" stroke="black" stroke-width="0.44" stroke-linecap="round" stroke-linejoin="round"/>
<path d="M362.53 127.41L365.89 130.24" stroke="#2E176C" stroke-width="0.44" stroke-linecap="round" stroke-linejoin="round"/>
<path d="M151.67 268.62L149.34 285.76L154.58 285.18L158.94 270.65L151.67 268.62Z" fill="white" stroke="#2E176C" stroke-width="0.44" stroke-miterlimit="10"/>
<path d="M178.7 279.66L179.39 284.73C179.478 285.006 179.469 285.304 179.365 285.574C179.262 285.845 179.07 286.073 178.82 286.22C178.211 286.558 177.512 286.698 176.82 286.62C176.32 286.62 175.66 286.82 175.49 286.34L174.33 281.4C174.03 280.58 174.74 280.64 175.61 280.6L177.12 280.52C177.73 280.49 178.53 279.08 178.7 279.66Z" fill="white" stroke="#2E176C" stroke-width="0.44" stroke-miterlimit="10"/>
<path d="M174.34 284.89V292.06L179 292.15C179 292.15 179.27 291.44 179.67 291.45C180.07 291.46 180.41 292.18 180.86 292.19H183.36L192.7 292.38C192.7 292.38 192.94 291.32 192.7 290.95C192.274 290.631 191.793 290.394 191.28 290.25C188.89 289.45 182.17 286.71 180.73 284.55C180.15 283.68 179.96 282.98 179.57 283.39C177.82 285.28 174.34 284.89 174.34 284.89Z" fill="black"/>
<path d="M148.76 283.73L147.9 292.35L152.56 292.44C152.56 292.44 152.83 291.73 153.23 291.74C153.63 291.75 153.97 292.47 154.42 292.48L156.92 292.53L166.26 292.72C166.26 292.72 166.5 291.66 166.26 291.29C165.834 290.971 165.352 290.734 164.84 290.59C162.45 289.79 156.04 287.51 155.16 284.89C154.91 284.12 152.93 284.52 152.26 284.6C149.63 284.89 148.76 283.73 148.76 283.73Z" fill="black"/>
<path d="M179.28 281.4L174.34 282.86L169.4 264.86C169.23 263.13 168.75 258.72 169.1 257.02L170.85 248.3L162.22 213.13L178.99 205.54C178.99 205.54 183.23 248.52 179.28 281.4Z" fill="#1B5A96"/>
<path d="M178.91 142.98C181.81 146.45 177.52 152.76 178.41 155.58C181.21 164.47 172.2 166.42 167.41 163.13C165.41 161.74 169.27 153.45 168.53 151.13C168.117 149.967 168.018 148.715 168.245 147.501C168.471 146.288 169.015 145.156 169.82 144.22C170.51 143.533 171.352 143.019 172.279 142.721C173.205 142.422 174.189 142.346 175.15 142.5C177.083 142.834 178.822 143.875 180.03 145.42" fill="black"/>
<path d="M169.6 155.51C171.23 165.42 168.8 176.35 161.6 183.36C154.4 190.37 142.15 192.36 134.08 186.36C131.83 184.7 129.85 182.13 130.24 179.36C130.595 177.584 131.633 176.018 133.13 175C135.424 173.287 138.287 172.518 141.13 172.85C137.28 169.38 137.69 162.33 141.92 159.34C144.53 157.48 147.92 157.22 151.06 156.65C154.551 156.154 157.864 154.797 160.7 152.7C162.877 150.803 164.432 148.294 165.16 145.5C168.06 146.84 169.12 152.54 169.6 155.51Z" fill="black"/>
<path d="M174.56 190.01C174.56 190.16 173.87 190.34 172.98 190.41L162.98 191.19C162.1 191.26 161.37 191.19 161.36 191.04L161.31 190.47C161.31 190.32 162.01 190.15 162.89 190.08L172.89 189.29C173.77 189.22 174.5 189.29 174.51 189.44L174.56 190.01Z" fill="#14100C"/>
<path d="M195.1 166.73L203.92 161.91L207.69 158.58C208.282 158.186 208.979 157.98 209.69 157.99L212.5 157.72C212.42 157.63 212.97 157.82 213.02 157.84L214.92 158.68C214.98 158.7 215.032 158.738 215.069 158.789C215.106 158.84 215.126 158.902 215.126 158.965C215.126 159.028 215.106 159.09 215.069 159.141C215.032 159.192 214.98 159.23 214.92 159.25L211.82 160.22C211.424 160.34 211.057 160.54 210.742 160.808C210.427 161.077 210.171 161.408 209.99 161.78L209.93 161.89C209.904 161.943 209.891 162.002 209.893 162.061C209.894 162.12 209.91 162.178 209.938 162.23C209.966 162.282 210.007 162.326 210.056 162.359C210.105 162.392 210.161 162.413 210.22 162.42L211.96 162.61C212.11 162.623 212.25 162.693 212.349 162.807C212.448 162.921 212.498 163.069 212.49 163.22C212.482 163.342 212.437 163.458 212.36 163.553C212.282 163.648 212.178 163.717 212.06 163.75L210 164.32C209.789 164.38 209.569 164.4 209.35 164.38L205.09 164.17L197.64 169.8C197.32 170 195.1 166.85 195.1 166.73Z" fill="#FFCFC5"/>
<path d="M210.54 159.51L214.77 158.68" stroke="#2E176C" stroke-width="0.21" stroke-miterlimit="10"/>
<path d="M210.24 158.85L214.02 158.29" stroke="#2E176C" stroke-width="0.21" stroke-miterlimit="10"/>
<path d="M209.48 158.44L213.26 157.88" stroke="black" stroke-width="0.21" stroke-miterlimit="10"/>
<path d="M160.26 166.49C160.26 165.27 161.6 162.02 166.39 162.49C177.11 163.49 187.39 169.73 187.39 169.73C187.39 169.73 189.85 172.93 188.87 175.33C187.5 178.75 183.14 176.18 166.15 172.51C161.21 171.44 160.33 168.56 160.26 166.49Z" fill="#FB9100"/>
<path d="M203.61 168.56C203.255 166.946 202.467 165.459 201.33 164.26C196.99 165.73 191.08 167.82 186.97 170.26C185.44 171.16 185.48 176.26 186.48 176.87C187.48 177.48 195.48 173.59 198.74 171.55C200.49 170.42 202.66 169.57 203.61 168.56Z" fill="#FB9100"/>
<path d="M181.7 150.35C181.33 155.43 176.44 158.63 171.7 158.28C166.96 157.93 163.38 153.53 163.7 148.45C163.809 146.084 164.847 143.856 166.588 142.25C168.329 140.644 170.633 139.789 173 139.87C177.82 140.22 182.07 145.27 181.7 150.35Z" fill="black"/>
<path d="M160.23 163.92C160.23 163.92 163.68 171.39 168.39 172.84C173.1 174.29 175.46 173.42 176.28 171.55C177.1 169.68 177.4 165.89 176.37 164.85C175.229 163.747 174.318 162.428 173.69 160.97C173.01 159.47 173.44 156.83 174.14 154.81C174.84 152.79 176.49 152.81 174.91 151.71C173.33 150.61 174.1 149.71 172.43 149.88C170.76 150.05 169.86 149.34 169.74 150.88C169.53 153.75 169.48 157.8 167.74 159.54C165.82 161.5 163.45 162.01 160.23 163.92Z" fill="#FFCFC5"/>
<path d="M175.99 143.84L175.57 143.71C174.84 145.813 173.382 147.586 171.46 148.71C170.942 149.042 170.4 149.336 169.84 149.59L169.72 151.22C169.706 152.359 170.127 153.46 170.897 154.299C171.667 155.138 172.728 155.651 173.864 155.734C175 155.817 176.125 155.463 177.008 154.745C177.892 154.027 178.469 152.999 178.62 151.87L178.88 148.29C177.517 147.109 176.515 145.566 175.99 143.84Z" fill="#FFCFC5"/>
<path d="M172.63 152.36C172.554 152.429 172.46 152.475 172.359 152.493C172.259 152.511 172.155 152.499 172.06 152.46C171.58 152.3 170.66 150.93 171.76 150.61C172.4 150.42 173.38 151.65 172.63 152.36Z" fill="#FF9A79"/>
<path d="M176.99 147.22C176.883 147.211 176.775 147.227 176.675 147.265C176.575 147.303 176.484 147.363 176.41 147.44C176.442 147.488 176.486 147.527 176.536 147.555C176.586 147.582 176.642 147.598 176.7 147.6C176.816 147.61 176.933 147.61 177.05 147.6C177.169 147.585 177.29 147.585 177.41 147.6H177.56C177.83 147.6 177.56 147.38 177.51 147.33C177.349 147.25 177.17 147.212 176.99 147.22Z" fill="black"/>
<path d="M176.56 148.99C176.56 148.99 176.56 148.99 176.62 148.99C176.673 148.935 176.738 148.893 176.809 148.866C176.88 148.839 176.956 148.827 177.031 148.832C177.107 148.837 177.181 148.858 177.248 148.894C177.315 148.929 177.374 148.979 177.42 149.04C177.431 149.056 177.447 149.067 177.466 149.07C177.485 149.074 177.504 149.07 177.52 149.06C177.536 149.049 177.547 149.033 177.551 149.014C177.555 148.995 177.551 148.976 177.54 148.96C177.481 148.881 177.406 148.815 177.32 148.767C177.233 148.719 177.138 148.689 177.04 148.68C176.943 148.676 176.847 148.692 176.757 148.729C176.668 148.765 176.587 148.82 176.52 148.89C176.513 148.896 176.508 148.904 176.504 148.913C176.501 148.921 176.499 148.93 176.499 148.94C176.499 148.949 176.501 148.958 176.504 148.967C176.508 148.975 176.513 148.983 176.52 148.99H176.56Z" fill="black"/>
<path d="M173.98 147.32C173.761 147.235 173.519 147.235 173.3 147.32C173.16 147.4 173.05 147.55 172.89 147.57C172.912 147.48 172.955 147.397 173.016 147.328C173.077 147.258 173.154 147.204 173.24 147.17C173.417 147.109 173.602 147.072 173.79 147.06C174.03 147.06 174.58 146.86 174.65 147.19C174.72 147.52 174.18 147.38 173.98 147.32Z" fill="black"/>
<path d="M173.4 149.02C173.522 148.921 173.666 148.853 173.82 148.82C173.9 148.797 173.984 148.795 174.065 148.814C174.145 148.833 174.219 148.873 174.28 148.93C174.287 148.936 174.294 148.942 174.303 148.945C174.311 148.949 174.321 148.951 174.33 148.951C174.339 148.951 174.349 148.949 174.357 148.945C174.366 148.942 174.374 148.936 174.38 148.93C174.387 148.923 174.392 148.916 174.396 148.907C174.399 148.898 174.401 148.889 174.401 148.88C174.401 148.871 174.399 148.861 174.396 148.853C174.392 148.844 174.387 148.836 174.38 148.83C174.306 148.748 174.21 148.689 174.104 148.659C173.998 148.629 173.886 148.629 173.78 148.66C173.603 148.695 173.438 148.774 173.3 148.89C173.289 148.904 173.282 148.922 173.282 148.94C173.282 148.958 173.289 148.976 173.3 148.99C173.298 148.996 173.297 149.003 173.298 149.01C173.299 149.017 173.301 149.024 173.304 149.03C173.307 149.036 173.312 149.041 173.317 149.045C173.322 149.05 173.328 149.053 173.335 149.055C173.342 149.057 173.348 149.057 173.355 149.057C173.362 149.056 173.369 149.054 173.375 149.051C173.381 149.048 173.386 149.043 173.39 149.038C173.395 149.032 173.398 149.026 173.4 149.02Z" fill="black"/>
<path d="M175.55 151.45C175.695 151.469 175.843 151.446 175.976 151.384C176.109 151.322 176.221 151.224 176.3 151.1C176.307 151.093 176.312 151.086 176.316 151.077C176.319 151.069 176.321 151.059 176.321 151.05C176.321 151.041 176.319 151.031 176.316 151.023C176.312 151.014 176.307 151.006 176.3 151C176.286 150.989 176.268 150.982 176.25 150.982C176.232 150.982 176.214 150.989 176.2 151C176.134 151.103 176.039 151.184 175.927 151.234C175.815 151.284 175.691 151.3 175.57 151.28C175.552 151.279 175.534 151.285 175.519 151.296C175.505 151.307 175.495 151.322 175.49 151.34C175.487 151.349 175.486 151.359 175.487 151.369C175.489 151.379 175.493 151.388 175.499 151.396C175.505 151.404 175.512 151.41 175.521 151.414C175.53 151.419 175.54 151.421 175.55 151.42V151.45Z" fill="black"/>
<path d="M175.24 153.9C175.403 153.926 175.569 153.906 175.72 153.84C175.727 153.834 175.732 153.826 175.736 153.817C175.739 153.809 175.741 153.799 175.741 153.79C175.741 153.781 175.739 153.772 175.736 153.763C175.732 153.754 175.727 153.747 175.72 153.74C175.706 153.729 175.688 153.723 175.67 153.723C175.652 153.723 175.634 153.729 175.62 153.74C175.505 153.787 175.38 153.806 175.256 153.794C175.133 153.781 175.014 153.739 174.91 153.67C174.688 153.532 174.506 153.339 174.38 153.11C174.367 153.1 174.352 153.094 174.335 153.094C174.319 153.094 174.303 153.1 174.29 153.11C174.284 153.116 174.279 153.123 174.275 153.13C174.272 153.138 174.27 153.147 174.27 153.155C174.27 153.164 174.272 153.172 174.275 153.18C174.279 153.188 174.284 153.195 174.29 153.2C174.427 153.453 174.627 153.667 174.87 153.82C174.987 153.87 175.113 153.897 175.24 153.9Z" fill="black"/>
<path d="M177.18 152.14C177.154 152.269 177.154 152.401 177.18 152.53C177.202 152.591 177.237 152.646 177.281 152.692C177.326 152.739 177.38 152.776 177.44 152.8C177.536 152.813 177.634 152.8 177.723 152.763C177.813 152.726 177.891 152.667 177.95 152.59C178.21 152.29 178.64 151.15 178.05 150.97C177.46 150.79 177.21 151.76 177.18 152.14Z" fill="#FF9A79"/>
<path d="M175.22 191.43C175.22 191.59 174.45 191.79 173.46 191.87L162.33 192.74C161.33 192.82 160.54 192.74 160.53 192.58L160.48 191.95C160.48 191.78 161.25 191.58 162.23 191.5L173.36 190.63C174.36 190.55 175.15 190.63 175.17 190.79L175.22 191.43Z" fill="#14100C"/>
<path d="M180.73 173.93C180.25 168.69 178.47 167.26 176.54 164.93C176.06 164.34 174.26 162.24 173.94 161.69C177.87 171.46 167.6 166.9 164.1 162.21C159.1 163.05 156.57 166.87 156.61 167.21C156.97 170.85 161.69 185.43 161.69 185.43C161.84 186.88 160.69 191.34 159.8 195.12L175.23 190.88C176.23 190.81 177.46 178.88 177.46 178.88C177.46 178.88 177.46 178.63 177.4 178.51C178.29 177.1 180.89 175.66 180.73 173.93Z" fill="#FB9100"/>
<path d="M176.08 189.84C176.08 189.84 175.2 191.69 169.4 192.17C166.469 192.226 163.542 191.934 160.68 191.3C160.68 191.3 159 195.69 158.32 197.52C156.778 201.645 155.77 205.949 155.32 210.33C155.263 211.168 155.3 212.01 155.43 212.84L158.62 238.38L153.97 249.14C153.06 250.882 152.387 252.739 151.97 254.66L149.64 281.4L156.04 282.57C159.57 272.27 166.51 257.51 169.99 241.57C172.119 231.612 173.48 221.506 174.06 211.34L179.29 209.02L179.01 208.12C179.187 207.765 179.283 207.376 179.29 206.98C179.57 196.82 176.93 191.39 176.08 189.84Z" fill="#1B5A96"/>
<path d="M165.82 199.27C165.602 201.152 164.795 202.918 163.515 204.315C162.235 205.712 160.546 206.669 158.69 207.05" fill="black"/>
<path d="M307.65 138.927L192.548 154.347L197.34 190.117L312.442 174.698L307.65 138.927Z" stroke="black" stroke-width="0.5" stroke-miterlimit="10"/>
<path d="M282.599 148.6L242.775 153.935L243.136 156.631L282.96 151.296L282.599 148.6Z" fill="#1B5A96"/>
<path d="M288.97 153.619L243.545 159.704L243.815 161.716L289.239 155.631L288.97 153.619Z" fill="#1B5A96"/>
<path d="M283.648 159.134L243.992 164.446L244.265 166.478L283.92 161.166L283.648 159.134Z" fill="#1B5A96"/>
<path d="M288.758 163.095L244.603 169.01L244.874 171.032L289.029 165.117L288.758 163.095Z" fill="#1B5A96"/>
<path d="M255.125 172.598L245.263 173.919L245.532 175.931L255.394 174.61L255.125 172.598Z" fill="#1B5A96"/>
<path d="M239.055 154.573L198.983 159.941L202.157 183.629L242.229 178.261L239.055 154.573Z" fill="#1B5A96"/>
<path d="M198.98 159.96L242.23 178.29" stroke="white" stroke-width="0.29" stroke-miterlimit="10"/>
<path d="M239.05 154.59L202.15 183.65" stroke="white" stroke-width="0.29" stroke-miterlimit="10"/>
<path d="M192.27 181.82L201.17 177.15L206.03 175.85C206.689 175.575 207.25 175.108 207.64 174.51L209.41 172.31C209.41 172.43 209.59 171.87 209.6 171.81L209.96 169.81C209.97 169.748 209.96 169.685 209.934 169.629C209.907 169.572 209.863 169.525 209.809 169.494C209.755 169.462 209.693 169.448 209.631 169.453C209.568 169.458 209.509 169.481 209.46 169.52L206.97 171.57C206.653 171.834 206.286 172.029 205.89 172.145C205.494 172.26 205.079 172.292 204.67 172.24H204.54C204.482 172.233 204.426 172.211 204.378 172.177C204.331 172.144 204.292 172.099 204.265 172.046C204.238 171.994 204.225 171.936 204.226 171.878C204.227 171.819 204.242 171.761 204.27 171.71L205.07 170.15C205.138 170.029 205.161 169.889 205.134 169.753C205.107 169.617 205.033 169.495 204.924 169.409C204.816 169.324 204.68 169.28 204.541 169.285C204.403 169.291 204.271 169.346 204.17 169.44L202.56 170.84C202.397 170.983 202.259 171.152 202.15 171.34L199.96 175.01L191.14 178.09C190.82 178.16 192.17 181.75 192.27 181.82Z" fill="#FFCFC5"/>
<path d="M206.84 172.96L209.87 169.91" stroke="black" stroke-width="0.21" stroke-miterlimit="10"/>
<path d="M207.22 173.58L209.78 170.75" stroke="black" stroke-width="0.21" stroke-miterlimit="10"/>
<path d="M207.14 174.44L209.7 171.61" stroke="black" stroke-width="0.21" stroke-miterlimit="10"/>
<path d="M156.24 167.93C156.62 166.77 159.9 162.26 163.07 164.6C169.315 169.358 175.162 174.619 180.55 180.33C180.55 180.33 181.76 184.18 180.01 186.1C177.54 188.83 173.53 185.79 159.62 176.46C155.45 173.66 155.59 169.89 156.24 167.93Z" fill="#FB9100"/>
<path d="M195.68 180.99C195.544 179.343 194.963 177.763 194 176.42C189.51 177.29 183.36 178.56 179 180.42C177.37 181.1 176.72 186.13 177.62 186.91C178.52 187.69 187.01 184.91 190.49 183.3C192.33 182.41 194.6 181.86 195.68 180.99Z" fill="#FB9100"/>
<path d="M160.9 212.35C161.9 220.977 162.9 229.6 163.9 238.22C164.158 239.827 164.202 241.461 164.03 243.08C163.64 245.61 162.22 247.85 160.97 250.08C156.03 258.94 154.2 269.99 153.74 280.28" fill="black"/>
<path d="M355.63 240.67H192.38C192.115 240.67 191.86 240.565 191.673 240.377C191.485 240.189 191.38 239.935 191.38 239.67C191.38 239.405 191.485 239.15 191.673 238.963C191.86 238.775 192.115 238.67 192.38 238.67H355.63C355.895 238.67 356.149 238.775 356.337 238.963C356.525 239.15 356.63 239.405 356.63 239.67C356.63 239.935 356.525 240.189 356.337 240.377C356.149 240.565 355.895 240.67 355.63 240.67Z" fill="black"/>
<path d="M343.88 246.32H224.2C223.935 246.32 223.68 246.214 223.493 246.027C223.305 245.839 223.2 245.585 223.2 245.32C223.2 245.055 223.305 244.8 223.493 244.613C223.68 244.425 223.935 244.32 224.2 244.32H343.88C344.145 244.32 344.4 244.425 344.587 244.613C344.775 244.8 344.88 245.055 344.88 245.32C344.88 245.585 344.775 245.839 344.587 246.027C344.4 246.214 344.145 246.32 343.88 246.32Z" fill="black"/>
<path d="M354.355 218.088L331.625 228.547L346.302 260.443L369.031 249.984L354.355 218.088Z" fill="white"/>
<path d="M354.31 218.22L368.91 249.93L346.36 260.31L331.76 228.6L354.31 218.22ZM354.41 217.95L331.5 228.5L346.26 260.57L369.17 250.03L354.41 217.95Z" fill="#231F20"/>
<path d="M335.49 230.54L353.37 222.31" stroke="black" stroke-width="0.2" stroke-miterlimit="10"/>
<path d="M336.81 233.41L354.7 225.18" stroke="black" stroke-width="0.2" stroke-miterlimit="10"/>
<path d="M338.14 236.29L356.02 228.06" stroke="black" stroke-width="0.2" stroke-miterlimit="10"/>
<path d="M339.46 239.17L357.34 230.94" stroke="black" stroke-width="0.2" stroke-miterlimit="10"/>
<path d="M340.78 242.04L358.67 233.81" stroke="black" stroke-width="0.2" stroke-miterlimit="10"/>
<path d="M342.11 244.92L359.99 236.69" stroke="black" stroke-width="0.2" stroke-miterlimit="10"/>
<path d="M343.43 247.8L361.32 239.57" stroke="black" stroke-width="0.2" stroke-miterlimit="10"/>
<path d="M344.76 250.67L362.64 242.44" stroke="black" stroke-width="0.2" stroke-miterlimit="10"/>
<path d="M346.08 253.55L363.96 245.32" stroke="black" stroke-width="0.2" stroke-miterlimit="10"/>
<path d="M347.4 256.43L365.29 248.2" stroke="black" stroke-width="0.2" stroke-miterlimit="10"/>
<path d="M375.82 141.83C363.88 145.74 361.36 161.5 356.76 179.73C354.3 189.47 353.38 197.45 352.82 209.01L348.65 216.5C348.403 216.833 348.233 217.216 348.15 217.622C348.067 218.028 348.074 218.447 348.17 218.85L348.58 223.14C348.41 223.04 348.86 223.8 348.9 223.87L350.7 226.47C350.755 226.547 350.831 226.606 350.92 226.639C351.008 226.672 351.105 226.678 351.197 226.655C351.289 226.633 351.371 226.583 351.434 226.512C351.497 226.442 351.538 226.354 351.55 226.26L352.05 221.38C352.112 220.76 352.301 220.159 352.605 219.615C352.91 219.072 353.323 218.597 353.82 218.22L353.97 218.1C354.042 218.046 354.125 218.011 354.213 217.996C354.302 217.981 354.392 217.988 354.477 218.015C354.563 218.043 354.64 218.09 354.703 218.154C354.766 218.217 354.813 218.295 354.84 218.38L355.62 220.94C355.687 221.158 355.836 221.342 356.035 221.454C356.234 221.566 356.469 221.596 356.69 221.54C356.87 221.492 357.031 221.389 357.151 221.246C357.271 221.103 357.344 220.926 357.36 220.74L357.62 217.51C357.643 217.173 357.609 216.835 357.52 216.51L356.05 210.44C364.29 193.64 368.74 186.63 372.05 172.44C374.29 162.87 379.48 144.9 375.82 141.83Z" fill="#FFCFC5"/>
<path d="M383.71 286.69V292.18L379.25 292.35C379.25 292.35 378.98 291.68 378.6 291.7C378.22 291.72 377.9 292.41 377.47 292.42L375.07 292.52L366.07 292.87C366.07 292.87 365.83 291.87 366.07 291.5C366.475 291.189 366.932 290.952 367.42 290.8C369.69 290 376.2 287.51 377.25 285.03C378.54 282.02 383.71 286.69 383.71 286.69Z" fill="black"/>
<path d="M366.01 291.72C365.971 292.105 365.998 292.494 366.09 292.87L375.09 292.52L377.49 292.42C377.92 292.42 378.3 291.71 378.62 291.7C378.94 291.69 379.27 292.35 379.27 292.35L383.73 292.18L383.89 291.02L366.01 291.72Z" fill="#FB9100"/>
<path d="M376.26 286.64L383.61 286.69L383.3 253.33C383.168 251.242 382.723 249.186 381.98 247.23L378.66 238.54L379.52 224.54L375.82 201.14L360.28 189.14C359.21 188.7 365.27 248.3 376.26 286.64Z" fill="#1B5A96"/>
<path d="M419.15 290.79C419.37 291.398 419.432 292.052 419.33 292.69C419.33 292.69 412.5 293.8 410.27 293.32C409.389 293.029 408.546 292.632 407.76 292.14C407.6 292.05 407.31 291.48 407.15 291.39C406.99 291.3 406.74 291.53 406.5 291.39C406.117 291.166 405.752 290.912 405.41 290.63C404.68 287.18 405.41 285.75 405.41 285.75C405.41 285.75 409.73 283.43 410.88 284.88C413.61 288.28 418.12 289.22 419.15 290.79Z" fill="black"/>
<path d="M419.52 291.71C417.065 292.176 414.584 292.49 412.09 292.65C409.553 292.251 407.168 291.185 405.18 289.56C405.238 290.038 405.321 290.512 405.43 290.98C405.775 291.228 406.14 291.449 406.52 291.64C406.76 291.78 406.9 291.51 407.18 291.64C407.46 291.77 407.63 292.22 407.79 292.3C408.59 292.726 409.435 293.061 410.31 293.3C412.56 293.72 419.46 292.7 419.46 292.7C419.522 292.374 419.542 292.041 419.52 291.71Z" fill="#FB9100"/>
<path d="M389.62 194.22L379.47 192.01V191.94L377.88 190.94L360.45 187.13C360.45 187.13 359.85 188.73 360.96 198.56L371.58 205.65C375.06 214.85 378.92 225.82 384.14 234.24C386.738 238.491 388.439 243.228 389.14 248.16C391.41 263.73 405.39 285.73 405.39 285.73L412.12 285.47L389.62 194.22Z" fill="#1B5A96"/>
<path d="M375.51 208.16C378.386 215.965 382.072 223.446 386.51 230.48C387.633 232.157 388.635 233.911 389.51 235.73C390.398 238.018 391.068 240.386 391.51 242.8C394.586 256.513 399.045 269.878 404.82 282.69" stroke="white" stroke-width="0.44" stroke-miterlimit="10"/>
<path d="M360.42 165.41C361.766 166.122 363.184 166.688 364.65 167.1C367.22 167.84 369.1 168.24 369.1 168.24L376.33 141.73C376.33 141.73 376.33 140.81 372.61 142.93C368.89 145.05 368.13 145 364.53 152.39C362.449 156.473 361.06 160.872 360.42 165.41Z" fill="#C66A05"/>
<path d="M387.14 142.09C387.14 142.09 374.03 136.29 367.03 149.99C360.03 163.69 359.97 191.22 359.97 191.22L390.08 194.84L391.82 160.72C391.82 160.72 391.57 143.75 387.14 142.09Z" fill="#FB9100"/>
<path d="M373.32 137.22C372.571 137.277 371.821 137.117 371.16 136.76C368.49 133.08 371.16 122.9 371.16 122.9L375.23 121.07L380.54 124.2L381.01 130.96C381.061 131.871 380.885 132.78 380.498 133.605C380.11 134.431 379.523 135.147 378.79 135.69C377.136 136.68 375.247 137.208 373.32 137.22Z" fill="#FFB78F"/>
<path d="M376.64 171.21L369.96 171.68L367.52 158.27L376.92 157.6L376.64 171.21Z" fill="#1B5A96"/>
<path d="M377.03 166.55L368.82 167.09L367.78 161.1L377.18 160.43L377.03 166.55Z" fill="#2E176C"/>
<path d="M377.206 157.056L367.181 157.77L367.233 158.498L377.257 157.784L377.206 157.056Z" fill="#2E176C"/>
<path d="M401.22 165.11C398.814 165.833 396.357 166.374 393.87 166.73C391.336 167.085 388.764 167.085 386.23 166.73L389.09 175.73L378.31 171.13L378.05 163.51L370.94 161.66C370.836 161.63 370.726 161.622 370.618 161.635C370.511 161.649 370.407 161.685 370.313 161.74C370.22 161.795 370.138 161.869 370.074 161.956C370.01 162.044 369.964 162.144 369.94 162.25L369.27 165.17C369.221 165.387 369.234 165.613 369.306 165.823C369.379 166.033 369.508 166.219 369.68 166.36L375.68 171.3V178.55C375.68 178.55 397.49 195 400.45 195.19C403.41 195.38 405.74 195.46 404.66 183.56C403.994 177.33 402.844 171.161 401.22 165.11Z" fill="#FFCFC5"/>
<path d="M394.03 166.8C396.541 166.447 399.022 165.902 401.45 165.17C399.09 156.33 395.97 148.07 393.22 145.6C384.3 137.6 374.56 141.97 375.02 142.07H375.09L385.54 164.32L386.32 166.76C388.876 167.129 391.471 167.142 394.03 166.8Z" fill="#FB9100"/>
<path d="M378.14 170.93C378.01 171.18 378.06 175.14 378.06 175.14L380.3 171.93L378.14 170.93Z" fill="black"/>
<path d="M380.76 196.96C381.558 198.425 382.706 199.67 384.102 200.585C385.498 201.499 387.098 202.054 388.76 202.2" stroke="white" stroke-width="0.44" stroke-miterlimit="10"/>
<path d="M381.92 133.85L381.53 130.85L376.34 135.44V137.69V141.69C376.5 143.28 377.49 144.69 379.08 144.75H379.85C382.05 144.55 383.52 142.75 382.95 140.75L381.92 133.85Z" fill="#FFCFC5"/>
<path d="M373.32 137.22C372.571 137.277 371.821 137.117 371.16 136.76C368.49 133.08 371.16 122.9 371.16 122.9L375.23 121.07L380.54 124.2L381.01 130.96C381.061 131.871 380.885 132.78 380.498 133.605C380.11 134.431 379.523 135.147 378.79 135.69C377.136 136.68 375.247 137.208 373.32 137.22Z" fill="#FFCFC5"/>
<path d="M375.76 131.46C375.858 131.532 375.973 131.577 376.094 131.591C376.215 131.605 376.338 131.588 376.45 131.54C377.08 131.36 378.54 129.93 377.25 129.64C376.49 129.47 374.98 130.76 375.76 131.46Z" fill="#FF9A79"/>
<path d="M370.71 130.59C370.743 130.951 370.702 131.315 370.59 131.66C370.578 131.732 370.539 131.797 370.48 131.84C370.39 131.84 370.26 131.79 370.2 131.66C370.146 131.531 370.122 131.39 370.13 131.25C370.13 130.96 370.13 130.25 370.3 130.07C370.47 129.89 370.68 130.29 370.71 130.59Z" fill="#FF9A79"/>
<path d="M371.22 125.48C371.36 125.479 371.499 125.51 371.626 125.57C371.752 125.631 371.863 125.72 371.95 125.83C371.903 125.89 371.842 125.938 371.772 125.969C371.703 126.001 371.626 126.015 371.55 126.01C371.395 126.002 371.241 125.979 371.09 125.94C370.934 125.925 370.776 125.925 370.62 125.94C370.554 125.95 370.486 125.95 370.42 125.94C370.08 125.86 370.42 125.66 370.51 125.6C370.733 125.5 370.977 125.459 371.22 125.48Z" fill="black"/>
<path d="M371.58 127.87C371.568 127.877 371.554 127.881 371.54 127.881C371.526 127.881 371.512 127.877 371.5 127.87C371.439 127.79 371.36 127.725 371.27 127.68C371.18 127.634 371.081 127.611 370.98 127.61C370.88 127.608 370.78 127.629 370.688 127.67C370.596 127.712 370.515 127.773 370.45 127.85C370.442 127.859 370.432 127.866 370.42 127.87C370.409 127.875 370.397 127.878 370.385 127.878C370.373 127.878 370.361 127.875 370.35 127.87C370.339 127.866 370.329 127.859 370.32 127.85C370.302 127.831 370.292 127.806 370.292 127.78C370.292 127.754 370.302 127.729 370.32 127.71C370.403 127.613 370.506 127.536 370.621 127.482C370.737 127.429 370.863 127.401 370.99 127.4C371.119 127.404 371.245 127.436 371.361 127.493C371.476 127.55 371.578 127.631 371.66 127.73C371.669 127.738 371.676 127.748 371.681 127.76C371.685 127.771 371.688 127.783 371.688 127.795C371.688 127.807 371.685 127.819 371.681 127.83C371.676 127.841 371.669 127.852 371.66 127.86C371.66 127.86 371.6 127.87 371.58 127.87Z" fill="black"/>
<path d="M375.15 125.97C375.445 125.877 375.764 125.902 376.04 126.04C376.22 126.15 376.34 126.36 376.55 126.41C376.528 126.289 376.477 126.176 376.402 126.079C376.327 125.981 376.231 125.903 376.12 125.85C375.9 125.743 375.663 125.675 375.42 125.65C375.11 125.59 374.42 125.3 374.27 125.72C374.12 126.14 374.87 126.02 375.15 125.97Z" fill="black"/>
<path d="M375.73 128.22C375.704 128.23 375.676 128.23 375.65 128.22C375.505 128.076 375.326 127.969 375.13 127.91C375.026 127.873 374.914 127.863 374.805 127.882C374.696 127.901 374.595 127.949 374.51 128.02C374.502 128.029 374.492 128.036 374.48 128.041C374.469 128.045 374.457 128.048 374.445 128.048C374.433 128.048 374.421 128.045 374.41 128.041C374.399 128.036 374.388 128.029 374.38 128.02C374.371 128.012 374.364 128.002 374.36 127.991C374.355 127.979 374.352 127.967 374.352 127.955C374.352 127.943 374.355 127.931 374.36 127.92C374.364 127.909 374.371 127.899 374.38 127.89C374.486 127.793 374.617 127.727 374.758 127.699C374.899 127.671 375.045 127.682 375.18 127.73C375.41 127.798 375.619 127.922 375.79 128.09C375.805 128.111 375.813 128.135 375.813 128.16C375.813 128.185 375.805 128.21 375.79 128.23L375.73 128.22Z" fill="black"/>
<path d="M372.65 131.22C372.448 131.242 372.244 131.202 372.066 131.106C371.887 131.009 371.742 130.861 371.65 130.68C371.634 130.662 371.626 130.639 371.626 130.615C371.626 130.591 371.634 130.568 371.65 130.55C371.674 130.54 371.701 130.539 371.725 130.549C371.749 130.558 371.769 130.576 371.78 130.6C371.859 130.739 371.974 130.853 372.113 130.931C372.253 131.008 372.411 131.046 372.57 131.04C372.583 131.039 372.595 131.04 372.607 131.044C372.62 131.048 372.631 131.054 372.64 131.063C372.65 131.071 372.657 131.081 372.662 131.093C372.667 131.105 372.67 131.117 372.67 131.13C372.673 131.142 372.673 131.155 372.671 131.167C372.668 131.179 372.663 131.19 372.655 131.2C372.647 131.21 372.637 131.217 372.626 131.223C372.615 131.228 372.602 131.23 372.59 131.23L372.65 131.22Z" fill="black"/>
<path d="M372.82 134.45C372.602 134.47 372.382 134.425 372.19 134.32C372.18 134.313 372.17 134.305 372.163 134.295C372.156 134.285 372.151 134.273 372.148 134.261C372.145 134.249 372.145 134.237 372.147 134.224C372.149 134.212 372.154 134.2 372.16 134.19C372.167 134.179 372.175 134.17 372.185 134.163C372.195 134.156 372.207 134.151 372.219 134.148C372.231 134.145 372.243 134.145 372.256 134.147C372.268 134.149 372.28 134.153 372.29 134.16C372.435 134.237 372.596 134.277 372.76 134.277C372.924 134.277 373.085 134.237 373.23 134.16C373.534 134.001 373.793 133.767 373.98 133.48C373.987 133.47 373.996 133.462 374.007 133.455C374.017 133.449 374.029 133.445 374.041 133.443C374.053 133.441 374.065 133.442 374.077 133.445C374.089 133.447 374.1 133.453 374.11 133.46C374.12 133.467 374.128 133.476 374.135 133.487C374.141 133.497 374.145 133.509 374.147 133.521C374.149 133.533 374.148 133.545 374.145 133.557C374.143 133.569 374.137 133.58 374.13 133.59C373.922 133.901 373.641 134.155 373.31 134.33C373.155 134.397 372.989 134.438 372.82 134.45Z" fill="black"/>
<path d="M383.06 117.57C382.789 117.493 382.506 117.47 382.227 117.503C381.947 117.537 381.677 117.625 381.433 117.764C381.188 117.902 380.973 118.088 380.801 118.311C380.629 118.533 380.503 118.788 380.43 119.06C380.405 118.167 380.066 117.311 379.474 116.642C378.882 115.973 378.073 115.533 377.19 115.4C376.579 115.357 375.967 115.482 375.423 115.763C374.878 116.043 374.42 116.468 374.1 116.99C373.8 116.87 373.51 116.77 373.23 116.68C372.639 116.492 372.019 116.41 371.4 116.44C370.468 116.404 369.557 116.722 368.85 117.33C368.612 117.542 368.407 117.788 368.24 118.06C367.579 118.747 367.198 119.656 367.17 120.61C367.26 124.15 371.43 124.61 373.74 124.89C375.3 125.09 377.03 125.25 378.34 125.32C378.896 126.2 379.393 127.115 379.83 128.06L380.98 132.06C381.9 131.17 383.82 130.22 384.44 129.06C385.571 127.186 386.079 125.001 385.89 122.82C385.82 120.65 384.71 118.03 383.06 117.57Z" fill="black"/>
<path d="M380.74 131.38C381.341 131.08 381.844 130.615 382.19 130.04C382.405 129.715 382.507 129.328 382.48 128.939C382.453 128.551 382.298 128.182 382.04 127.89C381.51 127.45 380.48 127.69 379.62 128.68" fill="#FFCFC5"/>
<path d="M383.01 140.84C386.82 141.84 390.82 143.06 393.59 145.9C395.462 148.028 396.844 150.54 397.64 153.26C398.99 157.11 400.57 161.15 401.21 165.17" fill="#C66A05"/>
<path d="M376.99 222.57C376.858 228.329 376.212 234.065 375.06 239.71C380.3 251.93 380.83 265.4 380.98 278.71" stroke="white" stroke-width="0.44" stroke-miterlimit="10"/>
<path d="M412.58 211.14L418.9 213.27" stroke="black" stroke-width="0.44" stroke-miterlimit="10"/>
<path d="M413.26 147.07C415.11 145.93 415.74 145.62 417.59 144.47" stroke="black" stroke-width="0.44" stroke-miterlimit="10"/>
<path d="M435.58 175.66C437.75 175.53 438.46 175.55 440.63 175.41" stroke="black" stroke-width="0.44" stroke-miterlimit="10"/>
<path d="M350.68 219.68L350.64 226.23" stroke="black" stroke-width="0.32" stroke-miterlimit="10"/>
<path d="M349.6 219.42L349.84 225.22" stroke="black" stroke-width="0.32" stroke-miterlimit="10"/>
<path d="M348.77 218.4L349.02 224.2" stroke="black" stroke-width="0.32" stroke-miterlimit="10"/>
<path d="M401.76 101.85C404.082 104.705 407.25 106.75 410.807 107.692C414.365 108.634 418.13 108.423 421.56 107.09C423.36 106.34 425.26 104.27 424.07 102.73C421.846 102.11 419.49 102.15 417.288 102.845C415.086 103.54 413.133 104.86 411.668 106.644C410.203 108.428 409.288 110.6 409.034 112.895C408.78 115.19 409.199 117.509 410.24 119.57C411.5 122.07 414.35 124.24 416.95 123.21" stroke="black" stroke-width="0.44" stroke-linecap="round" stroke-linejoin="round"/>
<path d="M289.12 52.02C288.882 53.6306 288.988 55.2733 289.43 56.84" stroke="black" stroke-width="0.44" stroke-miterlimit="10"/>
<path d="M163.08 38.5098C164.248 40.2315 165.588 41.8298 167.08 43.2798" stroke="black" stroke-width="0.44" stroke-miterlimit="10"/>
<path d="M220.64 31.0898C221.11 32.0898 222.34 36.3798 222.38 35.0198" stroke="black" stroke-width="0.44" stroke-miterlimit="10"/>
<path d="M129.09 212.9C130.573 212.163 132.232 211.858 133.88 212.02" stroke="black" stroke-width="0.44" stroke-miterlimit="10"/>
<path d="M133.89 147.03C135.211 147.26 136.57 147.139 137.83 146.68" stroke="black" stroke-width="0.44" stroke-miterlimit="10"/>
<path d="M227.88 222.57L225.15 224.57" stroke="black" stroke-width="0.44" stroke-miterlimit="10"/>
<path d="M190.39 270.52C192.512 269.318 194.454 267.823 196.16 266.08" stroke="black" stroke-width="0.44" stroke-miterlimit="10"/>
<path d="M364.73 66.5L368.47 60.5" stroke="black" stroke-width="0.44" stroke-miterlimit="10"/>
<path d="M347.32 56.9401C346.256 56.8989 345.205 57.1747 344.298 57.7325C343.392 58.2903 342.671 59.1048 342.229 60.0728C341.786 61.0408 341.641 62.1185 341.812 63.169C341.983 64.2195 342.462 65.1956 343.189 65.9731C343.916 66.7507 344.858 67.2947 345.894 67.5361C346.931 67.7775 348.016 67.7054 349.011 67.3289C350.007 66.9525 350.868 66.2887 351.486 65.4218C352.103 64.5549 352.449 63.524 352.48 62.4601C352.504 61.7587 352.39 61.0595 352.143 60.4024C351.897 59.7453 351.523 59.1432 351.044 58.6305C350.565 58.1179 349.989 57.7047 349.35 57.4146C348.711 57.1246 348.021 56.9633 347.32 56.9401ZM349.32 62.4101L345.74 64.4101H345.68V64.3501L345.82 60.2201V60.1601H345.88L349.35 62.3201C349.366 62.3147 349.384 62.3147 349.4 62.3201L349.32 62.4101Z" fill="#1B5A96"/>
</g>
<defs>
<clipPath id="clip0_141_288">
<rect width="311.65" height="262.44" fill="white" transform="translate(129 31)"/>
</clipPath>
</defs>
</svg>
