<svg width="60" height="60" viewBox="0 0 60 60" fill="none" xmlns="http://www.w3.org/2000/svg">
<path fill-rule="evenodd" clip-rule="evenodd" d="M49.4558 20.1792C50.1314 21.6106 50.6568 23.1099 51.0237 24.6589L55.4725 26.3711V33.637L51.0237 35.3492C50.4603 37.72 49.5164 39.981 48.2432 42.0591L50.1749 46.42L45.0383 51.5567L40.6772 49.625C38.6065 50.9055 36.3382 51.842 33.9675 52.4055L32.2552 56.8543H24.9892L23.2771 52.4055C20.899 51.842 18.6379 50.8982 16.5599 49.625L12.1989 51.5567L7.06229 46.42L9.00135 42.0591C7.72077 39.9883 6.78418 37.72 6.21347 35.3492L1.76465 33.637V26.3711L6.21347 24.6589C6.78418 22.2808 7.72077 20.0198 9.00135 17.9417L7.06229 13.5808L12.1989 8.44405L16.5599 10.3831C18.6379 9.10263 20.899 8.16605 23.2697 7.60264L24.9892 3.14652H32.2552L33.9675 7.60264C36.3382 8.16605 38.5991 9.10263 40.6772 10.3831L45.0383 8.44405L46.2623 9.66816L38.2183 18.7004C35.6306 16.5008 32.2774 15.1739 28.6143 15.1739C20.4245 15.1739 13.7922 21.8063 13.7922 29.9962C13.7922 38.1859 20.4245 44.8269 28.6143 44.8269C36.8042 44.8269 43.445 38.1859 43.445 29.9962C43.445 29.0472 43.3558 28.1191 43.1855 27.2199L49.4558 20.1792ZM54.3948 11.7989C54.3677 11.832 54.3399 11.8649 54.3112 11.8971L38.9541 29.1409C37.9877 30.2259 36.3529 30.3936 35.1864 29.5272L30.9401 26.3736L24.4629 32.8508C23.3681 33.9456 21.5903 33.9456 20.4955 32.8508C19.4006 31.7558 19.4006 29.9782 20.4955 28.8833L28.6849 20.6938C29.6685 19.7102 31.2245 19.5959 32.3412 20.4253L36.4711 23.4925L50.1212 8.16546C50.1403 8.14416 50.1595 8.12311 50.1791 8.1024L48.1465 6.32028C47.9832 6.17699 47.9135 5.95452 47.9659 5.74369C48.0184 5.53287 48.1843 5.36899 48.3957 5.31911L57.5214 3.16205C57.7041 3.11887 57.8963 3.16675 58.0375 3.29052C58.1786 3.41428 58.2512 3.59864 58.2323 3.78534L57.2863 13.1148C57.2643 13.3309 57.1236 13.5166 56.9214 13.5962C56.7192 13.6758 56.4896 13.6358 56.3262 13.4925L54.3948 11.7989Z" fill="#FFD79F"/>
</svg>
