<svg width="60" height="60" viewBox="0 0 60 60" fill="none" xmlns="http://www.w3.org/2000/svg">
<path fill-rule="evenodd" clip-rule="evenodd" d="M54.5142 20.625V50.625C54.5142 52.1175 53.9221 53.5481 52.8664 54.6019C51.8107 55.6575 50.3799 56.25 48.8875 56.25H18.8785C17.3861 56.25 15.9553 55.6575 14.8996 54.6019C13.844 53.5481 13.2518 52.1175 13.2518 50.625V37.2525C14.1655 37.4156 15.106 37.5 16.0652 37.5C24.8643 37.5 32.0075 30.3581 32.0075 21.5625C32.0075 12.7669 24.8643 5.625 16.0652 5.625C15.5802 5.625 15.1006 5.64749 14.629 5.68874C15.6606 4.50187 17.1825 3.75 18.8785 3.75H37.6341V15C37.6341 16.4925 38.2263 17.9231 39.282 18.9769C40.3376 20.0325 41.7684 20.625 43.2608 20.625H54.5142ZM24.5052 46.875V45C24.5052 43.965 23.6639 43.125 22.6296 43.125C21.5954 43.125 20.7541 43.965 20.7541 45V46.875C20.7541 47.91 21.5954 48.75 22.6296 48.75C23.6639 48.75 24.5052 47.91 24.5052 46.875ZM32.0075 46.875V39.375C32.0075 38.34 31.1661 37.5 30.1319 37.5C29.0977 37.5 28.2563 38.34 28.2563 39.375V46.875C28.2563 47.91 29.0977 48.75 30.1319 48.75C31.1661 48.75 32.0075 47.91 32.0075 46.875ZM39.5097 46.875V41.25C39.5097 40.215 38.6684 39.375 37.6341 39.375C36.5999 39.375 35.7586 40.215 35.7586 41.25V46.875C35.7586 47.91 36.5999 48.75 37.6341 48.75C38.6684 48.75 39.5097 47.91 39.5097 46.875ZM47.0119 46.875V33.75C47.0119 32.715 46.1706 31.875 45.1364 31.875C44.1021 31.875 43.2608 32.715 43.2608 33.75V46.875C43.2608 47.91 44.1021 48.75 45.1364 48.75C46.1706 48.75 47.0119 47.91 47.0119 46.875ZM41.3853 3.78562C42.733 3.93937 43.9896 4.57688 44.9113 5.59125L53.0513 14.5406C53.6595 15.2119 54.0935 16.0125 54.324 16.875H43.2608C42.7625 16.875 42.2855 16.6781 41.9345 16.3256C41.5835 15.975 41.3853 15.4969 41.3853 15V3.78562ZM28.1116 23.4375C27.2087 29.2744 22.1554 33.75 16.0652 33.75C9.33728 33.75 3.87402 28.2881 3.87402 21.5625C3.87402 15.4744 8.35123 10.4213 14.1896 9.51938V19.6875C14.1896 21.7594 15.8696 23.4375 17.9407 23.4375H28.1116ZM17.9407 9.51938C23.1682 10.3275 27.3051 14.4619 28.1116 19.6875H17.9407V9.51938Z" fill="#FFD79F"/>
</svg>
