<svg width="60" height="60" viewBox="0 0 60 60" fill="none" xmlns="http://www.w3.org/2000/svg">
<g clip-path="url(#clip0_4393_4697)">
<path d="M23.3299 45.8728L23.3299 45.8737L23.2666 46.9252H36.7374L35.8858 32.8271H24.115L23.3299 45.8728Z" fill="#FFD79F"/>
<path d="M24.2936 27.3485H35.7099C37.3563 27.3485 38.6959 26.0089 38.6959 24.3625V19.6088C38.6959 19.2796 38.428 19.0117 38.0987 19.0117H36.3645C36.1536 19.0117 35.9871 19.098 35.8696 19.2683L34.6347 21.045C34.4531 21.3112 34.1609 21.4656 33.8352 21.4656H32.992C32.4822 21.4656 32.0569 21.0683 32.024 20.5612L31.8803 18.6884C31.8552 18.3711 31.5964 18.1309 31.2784 18.1309H28.7251C28.4051 18.1309 28.1465 18.3699 28.1233 18.6868L27.9792 20.5666C27.9398 21.071 27.5133 21.4656 27.008 21.4656H26.1648C25.8457 21.4656 25.5551 21.3135 25.3675 21.0482L24.1345 19.2691C24.0152 19.099 23.848 19.0117 23.639 19.0117H21.9048C21.5755 19.0117 21.3076 19.2796 21.3076 19.6088V24.3625C21.3076 26.0089 22.6471 27.3485 24.2936 27.3485Z" fill="#FFD79F"/>
<path d="M21.3076 31.2231C21.3076 31.5902 21.6062 31.8888 21.9733 31.8888H38.0302C38.3972 31.8888 38.6959 31.5902 38.6959 31.2231V28.9509C38.6959 28.5838 38.3972 28.2852 38.0302 28.2852H21.9733C21.6062 28.2852 21.3076 28.5838 21.3076 28.9509V31.2231Z" fill="#FFD79F"/>
<path d="M41.2447 54.6963H19.4486C19.4481 54.6963 19.4477 54.6964 19.4472 54.6964C19.4466 54.6964 19.4461 54.6963 19.4455 54.6963H18.7546C18.1759 54.6963 17.7051 55.1686 17.7051 55.7493V58.9503C17.7051 59.5291 18.1759 59.9999 18.7546 59.9999H41.2447C41.8252 59.9999 42.2976 59.5291 42.2976 58.9503V55.7493C42.2976 55.1686 41.8252 54.6963 41.2447 54.6963Z" fill="#FFD79F"/>
<path d="M59.5979 26.097L56.3298 24.0861C55.9966 23.8797 55.7641 23.6057 55.6173 23.2478L52.8897 16.6585C52.7394 16.2967 52.7108 15.9381 52.8024 15.5628L53.6894 11.8331C53.7611 11.5325 53.6833 11.2581 53.4644 11.0392L48.9642 6.53555C48.7496 6.32126 48.4672 6.24137 48.1684 6.31113L44.4349 7.20171C44.0578 7.29006 43.7012 7.26128 43.3428 7.11428L36.7506 4.38211C36.3913 4.23271 36.1186 3.99959 35.9166 3.6692L33.9055 0.404262C33.7451 0.143508 33.4888 0 33.184 0H26.8161C26.5091 0 26.2606 0.139734 26.0979 0.404144L24.0861 3.67051C23.8842 4.0009 23.6097 4.2343 23.248 4.38273L16.6588 7.11363C16.3042 7.26109 15.9472 7.29021 15.5682 7.20238L11.8327 6.31053C11.5318 6.24095 11.2563 6.31855 11.0392 6.5357L6.53572 11.0392C6.31863 11.2563 6.24104 11.5318 6.31141 11.8359L7.20177 15.565C7.29023 15.9469 7.26116 16.3038 7.11364 16.6591L4.38217 23.2495C4.2342 23.6097 4.00085 23.8842 3.6692 24.0868L0.40432 26.0979C0.139734 26.2606 0 26.5089 0 26.816V33.184C0 33.4889 0.143508 33.7451 0.404086 33.9055L3.67057 35.9174C3.99959 36.1185 4.23271 36.3911 4.38193 36.75L7.11375 43.3412C7.26149 43.7014 7.29022 44.0581 7.20221 44.4332L6.31061 48.1707C6.24159 48.4672 6.32136 48.7498 6.53571 48.9642L11.0391 53.4642C11.2581 53.6833 11.533 53.761 11.8326 53.6894L15.5654 52.8017C15.9454 52.709 16.3055 52.7383 16.6641 52.892L18.7611 53.7589H19.0912L20.61 48.2996C20.8286 47.5085 21.5119 46.9682 22.3268 46.9287L22.3737 46.1496C16.1476 43.2055 12.1411 36.9041 12.1411 30C12.1411 20.1526 20.1526 12.1411 30 12.1411C39.8493 12.1411 47.8624 20.1526 47.8624 30C47.8624 36.9026 43.8558 43.2041 37.6296 46.1497L37.6766 46.9287C38.4874 46.9683 39.1704 47.5077 39.3931 48.2982L40.9091 53.7589H41.2421L43.3414 52.8898C43.6997 52.7381 44.0599 52.7091 44.4385 52.8027L48.1703 53.6893C48.4669 53.7606 48.7482 53.6806 48.9643 53.4644L53.4644 48.9643C53.6806 48.748 53.7606 48.4665 53.6897 48.1716L52.8017 44.4346C52.7109 44.0669 52.7392 43.7085 52.8891 43.3429L55.6178 36.7508C55.7656 36.3951 55.9979 36.123 56.3284 35.9181L59.5993 33.9055C59.8572 33.7455 60 33.4889 60 33.184V26.816C60 26.5089 59.861 26.2603 59.5979 26.097Z" fill="#FFD79F"/>
<path d="M21.5135 48.55L20.0645 53.7589H39.9362L38.4902 48.5505C38.3727 48.1331 38.0158 47.8623 37.5813 47.8623H22.4224C21.9857 47.8623 21.629 48.1323 21.5135 48.55Z" fill="#FFD79F"/>
</g>
<defs>
<clipPath id="clip0_4393_4697">
<rect width="60" height="60" fill="white"/>
</clipPath>
</defs>
</svg>
