<svg width="60" height="60" viewBox="0 0 60 60" fill="none" xmlns="http://www.w3.org/2000/svg">
<path d="M46.7119 23.3432L43.0125 24.8375C42.5363 25.0307 42.0356 25.1282 41.5256 25.1282C40.4325 25.1282 39.375 24.6669 38.6269 23.8625C37.8825 23.0638 37.4981 21.9782 37.575 20.885L37.8544 16.9063L35.2875 13.8538C34.7175 13.175 34.4325 12.3444 34.3931 11.4932H10.0688C5.6625 11.4932 2.0625 15.0932 2.0625 19.5182V41.8307C2.0625 46.2557 5.6625 49.8369 10.0688 49.8369H16.1625L16.0313 53.5682C15.9938 55.0869 16.8 56.4744 18.15 57.1869C18.7313 57.4869 19.35 57.6369 19.9875 57.6369C20.8125 57.6369 21.6375 57.3557 22.3312 56.8307L31.6313 49.8369H42.3563C46.7625 49.8369 50.3625 46.2557 50.3625 41.8307V24.8188L46.7119 23.3432ZM27.1444 36.6182H17.3025C16.3706 36.6182 15.615 35.8625 15.615 34.9307C15.615 33.9988 16.3706 33.2432 17.3025 33.2432H27.1444C28.0763 33.2432 28.8319 33.9988 28.8319 34.9307C28.8319 35.8625 28.0763 36.6182 27.1444 36.6182ZM35.8687 28.0944H17.3062C16.3744 28.0944 15.6187 27.3388 15.6187 26.4069C15.6187 25.475 16.3744 24.7194 17.3062 24.7194H35.8687C36.8006 24.7194 37.5563 25.475 37.5563 26.4069C37.5563 27.3388 36.8006 28.0944 35.8687 28.0944Z" fill="#FFD79F"/>
<path d="M47.6871 4.60098L50.4039 8.9491L55.3783 10.1885C56.2033 10.3947 56.5277 11.3922 55.9821 12.0447L52.6858 15.971L53.0439 21.0841C53.1039 21.9316 52.2546 22.5504 51.4652 22.2316L46.7121 20.3097L41.9589 22.2316C41.1714 22.5504 40.3202 21.9335 40.3802 21.0841L40.7383 15.971L37.4421 12.0447C36.8946 11.3941 37.2208 10.3947 38.0458 10.1885L43.0202 8.9491L45.7371 4.60098C46.1852 3.8791 47.2371 3.8791 47.6871 4.60098Z" fill="#FFD79F"/>
</svg>
