<svg width="60" height="60" viewBox="0 0 60 60" fill="none" xmlns="http://www.w3.org/2000/svg">
<path fill-rule="evenodd" clip-rule="evenodd" d="M39.375 10V6.25C39.375 4.525 37.975 3.125 36.25 3.125C33.425 3.125 26.575 3.125 23.75 3.125C22.025 3.125 20.625 4.525 20.625 6.25V10C20.625 11.725 22.025 13.125 23.75 13.125H36.25C37.975 13.125 39.375 11.725 39.375 10Z" fill="#FFD79F"/>
<path fill-rule="evenodd" clip-rule="evenodd" d="M41.875 6.25V10C41.875 13.1075 39.3575 15.625 36.25 15.625C33.425 15.625 26.575 15.625 23.75 15.625C20.6425 15.625 18.125 13.1075 18.125 10V6.25H16.25C14.4275 6.25 12.6775 6.975 11.3875 8.2625C10.1 9.5525 9.375 11.3025 9.375 13.125V50C9.375 51.8225 10.1 53.5725 11.3875 54.8625C12.6775 56.15 14.4275 56.875 16.25 56.875H43.75C45.5725 56.875 47.3225 56.15 48.6125 54.8625C49.9 53.5725 50.625 51.8225 50.625 50C50.625 40.99 50.625 22.135 50.625 13.125C50.625 11.3025 49.9 9.5525 48.6125 8.2625C47.3225 6.975 45.5725 6.25 43.75 6.25H41.875ZM20 49.375H22.5C23.535 49.375 24.375 48.535 24.375 47.5C24.375 46.465 23.535 45.625 22.5 45.625H20C18.965 45.625 18.125 46.465 18.125 47.5C18.125 48.535 18.965 49.375 20 49.375ZM27.5 49.375H40C41.035 49.375 41.875 48.535 41.875 47.5C41.875 46.465 41.035 45.625 40 45.625H27.5C26.465 45.625 25.625 46.465 25.625 47.5C25.625 48.535 26.465 49.375 27.5 49.375ZM20 41.875H22.5C23.535 41.875 24.375 41.035 24.375 40C24.375 38.965 23.535 38.125 22.5 38.125H20C18.965 38.125 18.125 38.965 18.125 40C18.125 41.035 18.965 41.875 20 41.875ZM27.5 41.875H40C41.035 41.875 41.875 41.035 41.875 40C41.875 38.965 41.035 38.125 40 38.125H27.5C26.465 38.125 25.625 38.965 25.625 40C25.625 41.035 26.465 41.875 27.5 41.875ZM20 34.375H22.5C23.535 34.375 24.375 33.535 24.375 32.5C24.375 31.465 23.535 30.625 22.5 30.625H20C18.965 30.625 18.125 31.465 18.125 32.5C18.125 33.535 18.965 34.375 20 34.375ZM27.5 34.375H40C41.035 34.375 41.875 33.535 41.875 32.5C41.875 31.465 41.035 30.625 40 30.625H27.5C26.465 30.625 25.625 31.465 25.625 32.5C25.625 33.535 26.465 34.375 27.5 34.375ZM23.75 26.875H36.25C37.285 26.875 38.125 26.035 38.125 25C38.125 23.965 37.285 23.125 36.25 23.125H23.75C22.715 23.125 21.875 23.965 21.875 25C21.875 26.035 22.715 26.875 23.75 26.875Z" fill="#FFD79F"/>
</svg>
