<svg width="70" height="70" viewBox="0 0 70 70" fill="none" xmlns="http://www.w3.org/2000/svg">
<path fill-rule="evenodd" clip-rule="evenodd" d="M8.84201 28.8767L21.707 17.6171C21.5287 17.1301 21.4315 16.6042 21.4315 16.0556C21.4315 13.5471 23.465 11.5137 25.9734 11.5137C28.4339 11.5137 30.4373 13.4701 30.5132 15.9122L40.6812 19.4721C41.5142 18.4941 42.7546 17.8738 44.1398 17.8738C44.9214 17.8738 45.6568 18.0712 46.299 18.4189L58.0211 8.40357C57.8549 7.93135 57.7641 7.42357 57.7641 6.89447C57.7641 4.38609 59.7976 2.35254 62.306 2.35254C64.8147 2.35254 66.8482 4.38609 66.8482 6.89447C66.8482 9.40313 64.8147 11.4367 62.306 11.4367C61.5245 11.4367 60.789 11.2393 60.147 10.8916L48.4248 20.9069C48.5911 21.3791 48.6819 21.8869 48.6819 22.416C48.6819 24.9244 46.6483 26.958 44.1396 26.958C41.6793 26.958 39.6761 25.0015 39.6002 22.5596L29.4321 18.9997C28.599 19.9776 27.3588 20.5979 25.9734 20.5979C25.2107 20.5979 24.4921 20.4097 23.861 20.0774L10.996 31.3371C11.1743 31.8239 11.2715 32.3499 11.2715 32.8985C11.2715 35.4072 9.23795 37.4404 6.7293 37.4404C4.22105 37.4402 2.1875 35.4069 2.1875 32.8982C2.1875 30.3896 4.22105 28.3563 6.72943 28.3563C7.49219 28.3563 8.21092 28.5444 8.84201 28.8767ZM58.8509 20.4064C57.7214 20.4064 56.8001 21.3276 56.8001 22.4572V64.3106C56.8001 65.4402 57.7214 66.3614 58.8509 66.3614H65.7617C66.8914 66.3614 67.8126 65.4402 67.8126 64.3106V22.4572C67.8126 21.3276 66.8916 20.4064 65.7617 20.4064H58.8509ZM40.6844 37.1312C39.5548 37.1312 38.6337 38.0524 38.6337 39.182V64.7394C38.6337 65.8691 39.5549 66.7901 40.6844 66.7901H47.5955C48.7251 66.7901 49.6461 65.8689 49.6461 64.7394C49.6461 56.2204 49.6461 47.7012 49.6461 39.182C49.6461 38.0524 48.7251 37.1312 47.5955 37.1312C45.2916 37.1312 42.9882 37.1312 40.6844 37.1312ZM22.5181 31.1269C21.3884 31.1269 20.4672 32.0481 20.4672 33.1777V65.1681C20.4672 66.2977 21.3883 67.2189 22.5181 67.2189H29.429C30.5584 67.2189 31.4798 66.2977 31.4798 65.1681V33.1777C31.4798 32.0481 30.5584 31.1269 29.429 31.1269H22.5181ZM4.35176 48.7796H11.2625C12.3921 48.7796 13.3134 49.7008 13.3134 50.8304V65.5967C13.3134 66.7263 12.3921 67.6475 11.2625 67.6475H4.35176C3.22219 67.6475 2.30084 66.7263 2.30084 65.5967V50.8304C2.30098 49.7007 3.22232 48.7796 4.35176 48.7796Z" fill="#FFD79F"/>
</svg>
