<svg width="40" height="40" viewBox="0 0 40 40" fill="none" xmlns="http://www.w3.org/2000/svg">
<g clip-path="url(#clip0_3693_1158)">
<path d="M39.604 20.7373C39.1191 20.3089 38.3784 20.3549 37.9499 20.8399L37.931 20.8612V20.04C37.931 15.2506 36.0658 10.7477 32.6789 7.36085C29.2924 3.97431 24.7895 2.10938 20.0001 2.10938C17.107 2.10938 14.2322 2.81494 11.6862 4.14948C9.22277 5.44068 7.0606 7.31904 5.4334 9.58192C5.05559 10.1071 5.17522 10.8396 5.70073 11.2174C6.22625 11.5955 6.95867 11.4758 7.33648 10.9503C8.75189 8.98194 10.6324 7.34803 12.7744 6.22529C14.986 5.06592 17.4845 4.45313 20.0001 4.45313C28.5948 4.45313 35.5873 11.4456 35.5873 20.0403V20.8615L35.568 20.8402C35.1396 20.3549 34.3989 20.3092 33.914 20.7376C33.4287 21.1661 33.383 21.9068 33.8114 22.3917L35.8805 24.7342C36.103 24.986 36.4228 25.13 36.7588 25.13C37.0948 25.13 37.4147 24.986 37.6371 24.7342L39.7062 22.3917C40.135 21.9065 40.0892 21.1658 39.604 20.7373Z" fill="#323232"/>
<path d="M34.2994 28.8583C33.7739 28.4805 33.0418 28.5998 32.6637 29.1253C31.2483 31.0934 29.3678 32.7273 27.2257 33.8504C25.0141 35.0097 22.5153 35.6225 20.0001 35.6225C11.4054 35.6225 4.41289 28.63 4.41289 20.0353V19.2141L4.43212 19.2358C4.86058 19.7207 5.60125 19.7668 6.08617 19.338C6.5714 18.9096 6.61718 18.1689 6.18871 17.684L4.11962 15.3414C3.89684 15.0897 3.57732 14.9453 3.24132 14.9453C2.90532 14.9453 2.58519 15.0897 2.36302 15.3414L0.293622 17.684C-0.134846 18.1692 -0.0890693 18.9096 0.396161 19.338C0.61894 19.5352 0.895735 19.6319 1.17161 19.6319C1.49571 19.6319 1.81859 19.4979 2.05022 19.2358L2.06914 19.2141V20.0353C2.06914 24.8251 3.93437 29.3277 7.32122 32.7145C10.7078 36.1014 15.2106 37.9663 20.0001 37.9663C22.8928 37.9663 25.7679 37.2607 28.314 35.9262C30.7771 34.635 32.9392 32.7563 34.5664 30.4937C34.9443 29.9682 34.8249 29.2361 34.2994 28.8583Z" fill="#323232"/>
<path d="M8.44138 23.038C8.36081 23.338 8.40293 23.6579 8.55857 23.927L10.9023 27.9868C11.0577 28.256 11.3137 28.4522 11.6137 28.5327C11.914 28.613 12.2338 28.5712 12.503 28.4156L14.2263 27.4207C14.9145 27.9584 15.6771 28.3997 16.4846 28.7274V30.7145C16.4846 31.3614 17.0092 31.8863 17.6565 31.8863H22.344C22.991 31.8863 23.5159 31.3614 23.5159 30.7145V28.7274C24.3234 28.3997 25.086 27.9584 25.7742 27.4207L27.4975 28.4156C27.7664 28.5709 28.0865 28.613 28.3865 28.5327C28.6868 28.4522 28.9428 28.256 29.0982 27.9868L31.4419 23.927C31.5972 23.6579 31.6394 23.338 31.5591 23.038C31.4785 22.7378 31.282 22.4817 31.0131 22.3264L29.2861 21.3294C29.3453 20.9015 29.3752 20.4685 29.3752 20.0354C29.3752 19.5972 29.3447 19.1599 29.284 18.7271L31.0131 17.7289C31.2823 17.5736 31.4785 17.3175 31.5591 17.0172C31.6394 16.7169 31.5972 16.3971 31.4419 16.1279L29.0982 12.0685C28.7747 11.5082 28.0578 11.3162 27.4975 11.6397L25.7629 12.6413C25.0775 12.1076 24.3188 11.6693 23.5159 11.3434V9.34082C23.5159 8.69385 22.9913 8.16895 22.344 8.16895H17.6565C17.0092 8.16895 16.4846 8.69385 16.4846 9.34082V11.3434C15.682 11.6693 14.923 12.1076 14.2379 12.6413L12.503 11.6397C11.9427 11.3159 11.2258 11.5082 10.9023 12.0685L8.55857 16.1279C8.40323 16.3971 8.36112 16.7172 8.44138 17.0172C8.52195 17.3175 8.71817 17.5736 8.98734 17.7289L10.7165 18.7271C10.6557 19.1599 10.6252 19.5972 10.6252 20.0354C10.6252 20.4685 10.6551 20.9012 10.7143 21.3294L8.98764 22.3264C8.71817 22.4817 8.52195 22.7378 8.44138 23.038ZM20.0002 16.5198C21.9418 16.5198 23.5159 18.0939 23.5159 20.0354C23.5159 21.977 21.9418 23.5511 20.0002 23.5511C18.0584 23.5511 16.4846 21.977 16.4846 20.0354C16.4846 18.0939 18.0587 16.5198 20.0002 16.5198Z" fill="#323232"/>
</g>
<defs>
<clipPath id="clip0_3693_1158">
<rect width="40" height="40" fill="white"/>
</clipPath>
</defs>
</svg>
