<svg width="40" height="40" viewBox="0 0 40 40" fill="none" xmlns="http://www.w3.org/2000/svg">
<path d="M35.816 7.94839C35.646 5.72617 33.7752 4.01677 31.5643 3.84582C28.163 3.50394 23.401 3.33301 19.6595 3.33301C15.918 3.33301 11.3262 3.50394 7.92484 3.84582C6.73437 3.84582 5.88402 4.35864 5.03369 5.21336C4.35341 5.89711 3.84321 6.92276 3.84321 7.94839C3.67314 10.6834 3.33301 14.4441 3.33301 17.3502C3.33301 20.256 3.67314 24.0168 3.84321 26.7518C4.01327 28.974 5.88402 30.6835 8.09491 30.8543C11.4963 31.1963 16.2582 31.3672 19.9997 31.3672C23.7412 31.3672 28.503 31.0253 31.9045 30.8543C34.1153 30.6835 35.816 28.974 36.1562 26.7518C36.4963 24.0168 36.6663 20.256 36.6663 17.3502C36.6663 14.4441 36.1562 10.6834 35.816 7.94839ZM27.4827 13.9313L22.3807 19.0595C21.8703 19.5723 21.02 19.5723 20.5098 19.0595L18.129 16.6663L13.8772 20.9398C13.5371 21.1108 13.367 21.2817 13.0269 21.2817C12.6867 21.2817 12.3466 21.1108 12.1765 20.9398C11.6663 20.427 11.6663 19.5723 12.1765 19.0595L17.2785 13.9313C17.7888 13.4185 18.6392 13.4185 19.1493 13.9313L21.5303 16.3245L25.782 12.051C26.2922 11.5381 27.1425 11.5381 27.6527 12.051C27.9928 12.7347 27.9928 13.4185 27.4827 13.9313Z" fill="#323232"/>
<path d="M26.632 36.6666H13.0266C12.3463 36.6666 11.666 36.1538 11.666 35.2991C11.666 34.4445 12.1762 33.9316 13.0266 33.9316H26.632C27.3123 33.9316 27.9925 34.4445 27.9925 35.2991C27.9925 36.1538 27.3123 36.6666 26.632 36.6666Z" fill="#323232"/>
</svg>
