<svg width="40" height="40" viewBox="0 0 40 40" fill="none" xmlns="http://www.w3.org/2000/svg">
<g clip-path="url(#clip0_3693_1159)">
<path d="M20 8.67188C13.7537 8.67188 8.67188 13.7537 8.67188 20C8.67188 26.2463 13.7537 31.3281 20 31.3281C26.2463 31.3281 31.3281 26.2463 31.3281 20C31.3281 13.7537 26.2463 8.67188 20 8.67188ZM27.9253 20.5555H25.5816V18.3847L20 23.9663L17.5 21.4663L13.3286 25.6377L11.6713 23.9805L17.5 18.1518L20 20.6518L23.9243 16.7275H21.7534V14.3837H27.9253V20.5555Z" fill="#323232"/>
<path d="M40 22.5V17.5H37.3215C37.1223 16.108 36.7599 14.769 36.2534 13.5029L38.5705 12.1651L36.0705 7.83492L33.7504 9.17445C32.8941 8.0882 31.9118 7.10594 30.8255 6.24961L32.1651 3.92945L27.8349 1.42945L26.4971 3.74664C25.231 3.24008 23.892 2.87766 22.5 2.67852V0H17.5V2.67852C16.108 2.87766 14.769 3.24008 13.5029 3.74664L12.1651 1.42945L7.83492 3.92945L9.17445 6.24961C8.0882 7.10594 7.10594 8.0882 6.24961 9.17445L3.92945 7.83492L1.42945 12.1651L3.74664 13.5029C3.24008 14.769 2.87766 16.108 2.67852 17.5H0V22.5H2.67852C2.87766 23.892 3.24008 25.231 3.74664 26.4971L1.42945 27.8349L3.92945 32.1651L6.24961 30.8255C7.10594 31.9118 8.0882 32.8941 9.17445 33.7504L7.83492 36.0705L12.1651 38.5705L13.5029 36.2534C14.769 36.7599 16.108 37.1223 17.5 37.3215V40H22.5V37.3215C23.892 37.1223 25.231 36.7599 26.4971 36.2534L27.8349 38.5705L32.1651 36.0705L30.8255 33.7504C31.9118 32.8941 32.8941 31.9118 33.7504 30.8255L36.0705 32.1651L38.5705 27.8349L36.2534 26.4971C36.7599 25.231 37.1223 23.892 37.3215 22.5H40ZM20 33.6719C12.4613 33.6719 6.32812 27.5387 6.32812 20C6.32812 12.4613 12.4613 6.32812 20 6.32812C27.5387 6.32812 33.6719 12.4613 33.6719 20C33.6719 27.5387 27.5387 33.6719 20 33.6719Z" fill="#323232"/>
</g>
<defs>
<clipPath id="clip0_3693_1159">
<rect width="40" height="40" fill="white"/>
</clipPath>
</defs>
</svg>
