<svg width="40" height="40" viewBox="0 0 40 40" fill="none" xmlns="http://www.w3.org/2000/svg">
<path d="M35.04 5.7598C35.04 3.0398 32.8 0.799805 30.08 0.799805H17.44C16.16 0.799805 14.88 1.2798 14.08 2.2398L6.55996 9.2798C5.59996 10.0798 4.95996 11.5198 4.95996 12.9598V34.3998C4.95996 37.1198 7.19996 39.3598 9.91996 39.3598H30.08C32.8 39.3598 35.04 37.1198 35.04 34.3998V5.7598ZM8.15996 12.7998C8.15996 12.3198 8.47996 11.8398 8.79996 11.5198L16.16 4.4798C16.32 4.3198 16.8 3.9998 17.44 3.9998H17.6V10.0798C17.6 11.6798 16.32 13.1198 14.56 13.1198L8.15996 12.7998ZM29.76 25.9198L23.68 32.7998C23.36 33.1198 22.88 33.2798 22.56 33.2798H22.4C21.92 33.2798 21.44 32.9598 21.12 32.6398L17.76 27.5198L12.64 32.9598C12 33.5998 11.04 33.5998 10.4 32.9598C9.75996 32.3198 9.75996 31.3598 10.4 30.7198L16.96 23.8398C17.28 23.5198 17.76 23.3598 18.24 23.3598C18.72 23.3598 19.2 23.6798 19.52 23.9998L22.88 29.1198L27.52 23.8398C28.16 23.1998 29.12 23.1998 29.76 23.6798C30.4 24.1598 30.4 25.2798 29.76 25.9198ZM29.28 16.1598H22.4C21.44 16.1598 20.8 15.5198 20.8 14.5598C20.8 13.5998 21.44 12.9598 22.4 12.9598H29.28C30.08 12.9598 30.88 13.5998 30.88 14.5598C30.88 15.5198 30.24 16.1598 29.28 16.1598ZM29.28 9.7598H22.4C21.44 9.7598 20.8 9.1198 20.8 8.1598C20.8 7.1998 21.44 6.5598 22.4 6.5598H29.28C30.08 6.5598 30.88 7.1998 30.88 8.1598C30.88 9.1198 30.24 9.7598 29.28 9.7598Z" fill="#323232"/>
</svg>
