<svg width="40" height="40" viewBox="0 0 40 40" fill="none" xmlns="http://www.w3.org/2000/svg">
<path d="M27.7379 23.4879C29.6684 20.5076 30.4275 16.9183 29.8689 13.4116C29.3103 9.90497 27.4737 6.72912 24.7128 4.49609C21.9519 2.26307 18.4623 1.13091 14.9163 1.31779C11.3704 1.50466 8.01906 2.99735 5.50821 5.50821C2.99735 8.01906 1.50466 11.3704 1.31779 14.9163C1.13091 18.4623 2.26307 21.9519 4.49609 24.7128C6.72912 27.4737 9.90497 29.3103 13.4116 29.8689C16.9183 30.4275 20.5076 29.6684 23.4879 27.7379L33.6192 37.8754C34.1828 38.4398 34.9475 38.7572 35.7451 38.7578C36.5427 38.7584 37.3079 38.4421 37.8723 37.8785C38.4367 37.315 38.7541 36.5502 38.7547 35.7526C38.7553 34.955 38.439 34.1898 37.8754 33.6254L27.7379 23.4879ZM6.35042 24.9567C4.52119 23.1186 3.27744 20.7798 2.77613 18.2356C2.27482 15.6913 2.53843 13.0556 3.53369 10.661C4.52895 8.26637 6.21124 6.22026 8.36827 4.78086C10.5253 3.34147 13.0604 2.5733 15.6535 2.5733C18.2467 2.5733 20.7818 3.34147 22.9388 4.78086C25.0958 6.22026 26.7781 8.26637 27.7734 10.661C28.7687 13.0556 29.0323 15.6913 28.531 18.2356C28.0297 20.7798 26.7859 23.1186 24.9567 24.9567C22.4861 27.418 19.1409 28.8 15.6535 28.8C12.1662 28.8 8.82095 27.418 6.35042 24.9567ZM36.9754 36.9879C36.812 37.1535 36.6174 37.2849 36.4028 37.3746C36.1883 37.4643 35.958 37.5105 35.7254 37.5105C35.4928 37.5105 35.2626 37.4643 35.048 37.3746C34.8334 37.2849 34.6388 37.1535 34.4754 36.9879L24.4754 26.9879C24.9418 26.6295 25.3844 26.2412 25.8004 25.8254C26.2143 25.4076 26.6025 24.9651 26.9629 24.5004L36.9629 34.5004C37.129 34.6615 37.2614 34.8539 37.3527 35.0665C37.4439 35.2791 37.492 35.5076 37.4944 35.739C37.4967 35.9703 37.4531 36.1998 37.3662 36.4141C37.2793 36.6285 37.1507 36.8235 36.9879 36.9879H36.9754Z" fill="white"/>
<path d="M23.5189 7.7877C21.9631 6.23158 19.9808 5.17176 17.8227 4.74228C15.6646 4.31281 13.4276 4.53296 11.3946 5.37491C9.36164 6.21686 7.624 7.64278 6.40145 9.47233C5.1789 11.3019 4.52637 13.4529 4.52637 15.6533C4.52637 17.8538 5.1789 20.0048 6.40145 21.8343C7.624 23.6639 9.36164 25.0898 11.3946 25.9317C13.4276 26.7737 15.6646 26.9938 17.8227 26.5644C19.9808 26.1349 21.9631 25.0751 23.5189 23.5189C25.6016 21.4311 26.7712 18.6024 26.7712 15.6533C26.7712 12.7043 25.6016 9.87559 23.5189 7.7877ZM18.4751 23.3814C18.4411 23.4574 18.3947 23.5271 18.3376 23.5877L18.2439 23.6627C18.2095 23.6984 18.1694 23.728 18.1251 23.7502L18.0064 23.7877H17.8814C17.779 23.7872 17.6783 23.7615 17.5882 23.713C17.4981 23.6645 17.4212 23.5946 17.3644 23.5094C17.3077 23.4242 17.2727 23.3264 17.2625 23.2245C17.2524 23.1227 17.2675 23.0199 17.3064 22.9252C17.3349 22.8463 17.382 22.7756 17.4439 22.7189C17.5009 22.6605 17.5689 22.6138 17.6439 22.5814C17.7589 22.5353 17.8851 22.5244 18.0064 22.5502L18.1251 22.5814L18.2314 22.6439C18.2656 22.665 18.297 22.6902 18.3251 22.7189C18.3843 22.7778 18.431 22.848 18.4626 22.9252C18.5207 23.0782 18.5207 23.2472 18.4626 23.4002L18.4751 23.3814ZM15.0001 23.7502H14.9314C14.4564 23.7002 10.2126 23.1252 8.38137 19.5127C7.77691 18.3104 7.50706 16.9677 7.60012 15.6252C7.61255 15.4594 7.69032 15.3054 7.81632 15.197C7.94232 15.0886 8.10623 15.0346 8.27199 15.0471C8.43775 15.0595 8.59179 15.1373 8.7002 15.2633C8.80862 15.3893 8.86255 15.5532 8.85012 15.7189C8.75846 16.843 8.97451 17.9708 9.47512 18.9815C10.9939 22.0002 14.6251 22.5002 15.0376 22.5002C15.1197 22.5027 15.2005 22.5213 15.2754 22.5549C15.3503 22.5886 15.4178 22.6367 15.4741 22.6965C15.5304 22.7563 15.5743 22.8266 15.6035 22.9033C15.6326 22.9801 15.6463 23.0619 15.6439 23.1439C15.6414 23.226 15.6228 23.3068 15.5891 23.3817C15.5554 23.4566 15.5073 23.5241 15.4476 23.5804C15.3878 23.6367 15.3175 23.6807 15.2407 23.7098C15.164 23.7389 15.0822 23.7527 15.0001 23.7502Z" fill="white"/>
</svg>
