<svg width="40" height="40" viewBox="0 0 40 40" fill="none" xmlns="http://www.w3.org/2000/svg">
<path d="M31.9619 35.3125H5.39941C4.75223 35.3125 4.22754 35.8372 4.22754 36.4844V38.8281C4.22754 39.4753 4.75223 40 5.39941 40H31.9619C32.6091 40 33.1338 39.4753 33.1338 38.8281V36.4844C33.1338 35.8372 32.6091 35.3125 31.9619 35.3125Z" fill="#323232"/>
<path d="M7.35254 30.625V32.9688H30.0088V30.625C30.0088 29.9778 29.4841 29.4531 28.8369 29.4531H8.52441C7.87723 29.4531 7.35254 29.9778 7.35254 30.625Z" fill="#323232"/>
<path d="M4.93783 21.9366L6.929 22.7899C6.57595 18.2339 7.33884 14.0532 9.15103 10.6567C11.046 7.10516 14.0007 4.41 17.9625 2.60938C17.736 2.62203 17.5101 2.63883 17.2854 2.66172C14.9913 2.8957 12.9177 3.65695 11.1225 4.9243C9.13314 6.32867 7.54025 8.32305 6.38822 10.8521C5.14962 13.5712 4.42314 16.9184 4.229 20.8009C4.20462 21.2904 4.48736 21.7434 4.93783 21.9366Z" fill="#323232"/>
<path d="M35.0572 13.616L28.3851 6.27674L27.6537 1.01072C27.5918 0.565173 27.2803 0.194314 26.8521 0.0564231C26.4239 -0.0814675 25.9546 0.0380637 25.6444 0.363767L22.7511 3.4015C17.2909 4.83799 13.412 7.64885 11.2186 11.7599C9.52272 14.9383 8.87014 18.9422 9.33139 23.3388C9.48787 24.8305 9.74537 26.1275 9.98326 27.1093H26.8835V24.7656C26.8835 24.5213 26.8072 24.2831 26.6652 24.0844L23.8682 20.1685C23.503 19.6572 23.5109 18.9759 23.8879 18.4733C24.2765 17.9553 24.9678 17.7615 25.569 18.0019L30.4501 19.9543C31.5766 20.405 32.843 20.0711 33.6008 19.1237L35.169 17.1635C36.0133 16.1081 35.9663 14.6161 35.0572 13.616ZM24.5398 12.5781C23.8926 12.5781 23.3679 12.0534 23.3679 11.4062C23.3679 10.759 23.8926 10.2343 24.5398 10.2343C25.1869 10.2343 25.7116 10.759 25.7116 11.4062C25.7116 12.0535 25.1869 12.5781 24.5398 12.5781Z" fill="#323232"/>
</svg>
