<svg width="60" height="60" viewBox="0 0 60 60" fill="none" xmlns="http://www.w3.org/2000/svg">
<g clip-path="url(#clip0_5706_19)">
<path d="M59.406 31.106C58.6786 30.4633 57.5676 30.5324 56.9249 31.2598L56.8965 31.2919V30.06C56.8965 22.8759 54.0987 16.1215 49.0184 11.0413C43.9386 5.96146 37.1843 3.16406 30.0001 3.16406C25.6605 3.16406 21.3484 4.22241 17.5292 6.22422C13.8342 8.16102 10.5909 10.9786 8.1501 14.3729C7.58339 15.1607 7.76283 16.2593 8.5511 16.826C9.33937 17.3932 10.438 17.2138 11.0047 16.4255C13.1278 13.4729 15.9486 11.022 19.1616 9.33793C22.479 7.59888 26.2268 6.67969 30.0001 6.67969C42.8921 6.67969 53.3809 17.1684 53.3809 30.0605V31.2923L53.352 31.2603C52.7093 30.5324 51.5984 30.4638 50.871 31.1065C50.1431 31.7492 50.0745 32.8602 50.7172 33.5875L53.8208 37.1013C54.1545 37.479 54.6342 37.6951 55.1382 37.6951C55.6422 37.6951 56.122 37.479 56.4557 37.1013L59.5593 33.5875C60.2025 32.8597 60.1338 31.7487 59.406 31.106Z" fill="#FFD79F"/>
<path d="M51.4491 43.2874C50.6609 42.7207 49.5627 42.8997 48.9955 43.688C46.8724 46.6401 44.0517 49.091 40.8386 50.7756C37.5212 52.5146 33.773 53.4338 30.0001 53.4338C17.1081 53.4338 6.61934 42.945 6.61934 30.053V28.8212L6.64818 28.8537C7.29088 29.5811 8.40187 29.6502 9.12926 29.007C9.85711 28.3643 9.92577 27.2533 9.28307 26.5259L6.17943 23.0121C5.84526 22.6345 5.36598 22.418 4.86198 22.418C4.35798 22.418 3.87779 22.6345 3.54453 23.0121L0.440433 26.5259C-0.202269 27.2538 -0.133604 28.3643 0.594241 29.007C0.92841 29.3027 1.3436 29.4479 1.75742 29.4479C2.24357 29.4479 2.72788 29.2469 3.07532 28.8537L3.10371 28.8212V30.053C3.10371 37.2376 5.90156 43.9915 10.9818 49.0718C16.0616 54.152 22.816 56.9494 30.0001 56.9494C34.3393 56.9494 38.6519 55.8911 42.471 53.8893C46.1656 51.9525 49.4089 49.1345 51.8497 45.7406C52.4164 44.9523 52.2374 43.8542 51.4491 43.2874Z" fill="#FFD79F"/>
<path d="M12.6621 34.5566C12.5412 35.0066 12.6044 35.4863 12.8379 35.8901L16.3535 41.9797C16.5865 42.3834 16.9705 42.6778 17.4205 42.7986C17.871 42.919 18.3507 42.8563 18.7545 42.6229L21.3395 41.1305C22.3717 41.9371 23.5157 42.599 24.7269 43.0907V46.0712C24.7269 47.0416 25.5138 47.829 26.4847 47.829H33.516C34.4864 47.829 35.2738 47.0416 35.2738 46.0712V43.0907C36.485 42.599 37.629 41.9371 38.6613 41.1305L41.2463 42.6229C41.6495 42.8559 42.1297 42.919 42.5797 42.7986C43.0302 42.6778 43.4142 42.3834 43.6472 41.9797L47.1629 35.8901C47.3959 35.4863 47.459 35.0066 47.3386 34.5566C47.2178 34.1061 46.923 33.7221 46.5197 33.4891L43.9292 31.9936C44.018 31.3518 44.0629 30.7022 44.0629 30.0526C44.0629 29.3953 44.0171 28.7393 43.926 28.0902L46.5197 26.5929C46.9235 26.3599 47.2178 25.9758 47.3386 25.5254C47.459 25.0749 47.3959 24.5952 47.1629 24.1914L43.6472 18.1022C43.162 17.2618 42.0867 16.9739 41.2463 17.4591L38.6443 18.9615C37.6162 18.1608 36.4782 17.5035 35.2738 17.0146V14.0107C35.2738 13.0403 34.4869 12.2529 33.516 12.2529H26.4847C25.5138 12.2529 24.7269 13.0403 24.7269 14.0107V17.0146C23.523 17.5035 22.3845 18.1608 21.3568 18.9615L18.7545 17.4591C17.914 16.9734 16.8387 17.2618 16.3535 18.1022L12.8379 24.1914C12.6048 24.5952 12.5417 25.0754 12.6621 25.5254C12.7829 25.9758 13.0773 26.3599 13.481 26.5929L16.0747 28.0902C15.9836 28.7393 15.9378 29.3953 15.9378 30.0526C15.9378 30.7022 15.9827 31.3513 16.0715 31.9936L13.4815 33.4891C13.0773 33.7221 12.7829 34.1061 12.6621 34.5566ZM30.0004 24.7792C32.9127 24.7792 35.2738 27.1403 35.2738 30.0526C35.2738 32.9649 32.9127 35.3261 30.0004 35.3261C27.0876 35.3261 24.7269 32.9649 24.7269 30.0526C24.7269 27.1403 27.0881 24.7792 30.0004 24.7792Z" fill="#FFD79F"/>
</g>
<defs>
<clipPath id="clip0_5706_19">
<rect width="60" height="60" fill="white"/>
</clipPath>
</defs>
</svg>
