<svg width="48" height="60" viewBox="0 0 48 60" fill="none" xmlns="http://www.w3.org/2000/svg">
<path d="M41.6017 52.9688H1.75793C0.787153 52.9688 0.00012207 53.7558 0.00012207 54.7266V58.2422C0.00012207 59.213 0.787153 60 1.75793 60H41.6017C42.5725 60 43.3595 59.213 43.3595 58.2422V54.7266C43.3595 53.7558 42.5725 52.9688 41.6017 52.9688Z" fill="#FFD79F"/>
<path d="M4.68762 45.9375V49.4531H38.672V45.9375C38.672 44.9667 37.885 44.1797 36.9142 44.1797H6.44543C5.47465 44.1797 4.68762 44.9667 4.68762 45.9375Z" fill="#FFD79F"/>
<path d="M1.06543 32.9048L4.05219 34.1849C3.52262 27.3509 4.66696 21.0798 7.38524 15.9851C10.2277 10.6577 14.6598 6.615 20.6025 3.91406C20.2626 3.93305 19.9238 3.95824 19.5868 3.99258C16.1456 4.34355 13.0353 5.48543 10.3425 7.38645C7.3584 9.49301 4.96906 12.4846 3.24102 16.2782C1.38313 20.3569 0.293401 25.3777 0.00218969 31.2014C-0.0343728 31.9356 0.389729 32.6152 1.06543 32.9048Z" fill="#FFD79F"/>
<path d="M46.2444 20.424L36.2363 9.4151L35.1392 1.51608C35.0464 0.84776 34.5791 0.291471 33.9368 0.0846347C33.2945 -0.122201 32.5906 0.0570956 32.1252 0.54565L27.7853 5.10225C19.5951 7.25698 13.7767 11.4733 10.4866 17.6398C7.94277 22.4074 6.9639 28.4133 7.65578 35.0083C7.8905 37.2457 8.27675 39.1913 8.63359 40.664H33.9839V37.1483C33.9839 36.782 33.8695 36.4247 33.6565 36.1266L29.461 30.2527C28.9131 29.4858 28.9251 28.4638 29.4905 27.7099C30.0734 26.9329 31.1104 26.6423 32.0121 27.0028L39.3339 29.9315C41.0236 30.6075 42.9231 30.1067 44.06 28.6855L46.4123 25.7452C47.6787 24.1621 47.6082 21.9242 46.2444 20.424ZM30.4683 18.8671C29.4975 18.8671 28.7105 18.0801 28.7105 17.1093C28.7105 16.1385 29.4975 15.3515 30.4683 15.3515C31.4391 15.3515 32.2261 16.1385 32.2261 17.1093C32.2261 18.0802 31.4391 18.8671 30.4683 18.8671Z" fill="#FFD79F"/>
</svg>
