<svg width="60" height="60" viewBox="0 0 60 60" fill="none" xmlns="http://www.w3.org/2000/svg">
<path d="M53.724 11.9221C53.469 8.58877 50.6628 6.02467 47.3465 5.76825C42.2445 5.25542 35.1015 4.99902 29.4893 4.99902C23.8771 4.99902 16.9893 5.25542 11.8873 5.76825C10.1016 5.76825 8.82604 6.53747 7.55054 7.81955C6.53011 8.84517 5.76481 10.3836 5.76481 11.9221C5.50971 16.0247 4.99951 21.6657 4.99951 26.0248C4.99951 30.3835 5.50971 36.0248 5.76481 40.1273C6.01991 43.4605 8.82604 46.0248 12.1424 46.281C17.2444 46.794 24.3873 47.0503 29.9995 47.0503C35.6118 47.0503 42.7545 46.5375 47.8568 46.281C51.173 46.0248 53.724 43.4605 54.2343 40.1273C54.7445 36.0248 54.9995 30.3835 54.9995 26.0248C54.9995 21.6657 54.2343 16.0247 53.724 11.9221ZM41.224 20.8964L33.571 28.5888C32.8055 29.358 31.53 29.358 30.7648 28.5888L27.1935 24.999L20.8158 31.4093C20.3056 31.6658 20.0505 31.922 19.5403 31.922C19.0301 31.922 18.5199 31.6658 18.2648 31.4093C17.4995 30.64 17.4995 29.358 18.2648 28.5888L25.9178 20.8964C26.6833 20.1272 27.9588 20.1272 28.724 20.8964L32.2955 24.4862L38.673 18.0759C39.4383 17.3067 40.7138 17.3067 41.479 18.0759C41.9893 19.1016 41.9893 20.1272 41.224 20.8964Z" fill="#FEDBA9"/>
<path d="M39.948 55H19.5398C18.5194 55 17.499 54.2307 17.499 52.9487C17.499 51.6667 18.2643 50.8975 19.5398 50.8975H39.948C40.9685 50.8975 41.9888 51.6667 41.9888 52.9487C41.9888 54.2307 40.9685 55 39.948 55Z" fill="#FEDBA9"/>
</svg>
