<svg width="30" height="30" viewBox="0 0 30 30" fill="none" xmlns="http://www.w3.org/2000/svg">
<g clip-path="url(#clip0_4644_889)">
<path d="M13.1496 0.942383C6.41913 0.942383 0.935547 6.41865 0.935547 13.1491C0.935547 19.8795 6.41913 25.3539 13.1496 25.3539C16.1766 25.3539 18.944 24.2414 21.0795 22.4105L22.145 23.476L21.4812 24.1399C21.3051 24.316 21.2062 24.5548 21.2062 24.8038C21.2062 25.0527 21.3051 25.2915 21.4812 25.4676L24.2963 28.2846C24.9121 28.9008 25.7044 29.2 26.4401 29.1667C27.1758 29.1348 27.8321 28.8041 28.3162 28.3212C28.8004 27.8384 29.1307 27.1844 29.1654 26.4488C29.2 25.7131 28.9009 24.9194 28.2851 24.3031L25.4663 21.4825C25.3776 21.3938 25.272 21.3237 25.1558 21.2764C25.0396 21.2292 24.915 21.2057 24.7896 21.2074C24.545 21.2108 24.3114 21.3095 24.1385 21.4825L23.4728 22.1482L22.4073 21.0827C24.2407 18.947 25.3563 16.178 25.3563 13.1491C25.3563 6.41865 19.88 0.942383 13.1496 0.942383ZM15.0202 8.44869H18.7779C18.9019 8.44822 19.0246 8.47228 19.1392 8.51948C19.2538 8.56669 19.3579 8.63611 19.4455 8.72373C19.5332 8.81136 19.6026 8.91546 19.6498 9.03004C19.697 9.14462 19.721 9.26741 19.7206 9.39134V13.1491C19.7233 13.2741 19.7011 13.3985 19.6552 13.5148C19.6092 13.6312 19.5405 13.7372 19.453 13.8266C19.3656 13.916 19.2611 13.9871 19.1458 14.0356C19.0305 14.0841 18.9067 14.1091 18.7816 14.1091C18.6565 14.1091 18.5327 14.0841 18.4174 14.0356C18.3021 13.9871 18.1976 13.916 18.1102 13.8266C18.0227 13.7372 17.954 13.6312 17.908 13.5148C17.8621 13.3985 17.8398 13.2741 17.8426 13.1491V11.6562L13.808 15.6854C13.4417 16.0494 12.8501 16.0494 12.4839 15.6854L11.2716 14.4713L8.1796 17.5634C7.29764 18.5089 5.90725 17.1262 6.84816 16.2393L10.6059 12.4834C10.9722 12.1194 11.5638 12.1194 11.93 12.4834L13.1422 13.7029L16.5185 10.3266H15.0202C14.8951 10.3295 14.7707 10.3072 14.6543 10.2613C14.538 10.2154 14.4319 10.1467 14.3425 10.0592C14.253 9.97173 14.182 9.86727 14.1334 9.75195C14.0849 9.63663 14.0599 9.51278 14.0599 9.38767C14.0599 9.26256 14.0849 9.1387 14.1334 9.02338C14.182 8.90806 14.253 8.8036 14.3425 8.71613C14.4319 8.62866 14.538 8.55995 14.6543 8.51402C14.7707 8.4681 14.8951 8.44588 15.0202 8.44869Z" fill="black"/>
</g>
<defs>
<clipPath id="clip0_4644_889">
<rect width="30" height="30" fill="white"/>
</clipPath>
</defs>
</svg>
