<svg width="37" height="30" viewBox="0 0 37 30" fill="none" xmlns="http://www.w3.org/2000/svg">
<path fill-rule="evenodd" clip-rule="evenodd" d="M18.6059 0.00792504C15.6886 -0.0892282 12.7412 0.706698 10.1965 2.40528C7.33845 4.31505 5.34111 7.13523 4.42112 10.2879C4.16706 10.2569 3.86283 10.2706 3.50158 10.3728C2.15284 10.7554 1.13843 11.8606 0.682316 12.834C0.0907302 14.1024 -0.158767 15.78 0.104414 17.5119C0.36577 19.2383 1.0951 20.6614 2.00734 21.5449C2.92231 22.4289 3.95542 22.7162 4.98169 22.5005C6.50969 22.1744 7.2673 21.9304 7.05338 20.5068L6.01753 13.6062C6.22644 9.87149 8.15992 6.35573 11.3938 4.19373C15.7224 1.30239 21.3974 1.48757 25.5262 4.65714C28.3984 6.85928 30.0659 10.1588 30.2584 13.6226L29.5341 18.4497C27.9185 22.8709 23.9133 25.9333 19.2787 26.3679H16.1926C15.3962 26.3679 14.7549 27.0092 14.7549 27.8047V28.5628C14.7549 29.3587 15.3962 30 16.1926 30H20.0838C20.8797 30 21.5183 29.3587 21.5183 28.5628V28.1664C25.013 27.3135 28.0636 25.1656 30.05 22.1703L31.2965 22.501C32.3109 22.7641 33.3564 22.4289 34.2709 21.5454C35.1831 20.6614 35.912 19.2388 36.1738 17.5124C36.4379 15.7805 36.1811 14.1056 35.5964 12.8344C35.0093 11.5632 34.135 10.7559 33.1256 10.4663C32.7027 10.3445 32.2439 10.2998 31.8503 10.2879C31.0183 7.43718 29.3056 4.84461 26.8371 2.95171C24.4101 1.08938 21.5233 0.10371 18.6059 0.00792504Z" fill="black"/>
<path fill-rule="evenodd" clip-rule="evenodd" d="M23.1604 12.4225C24.189 12.4225 25.0228 13.2562 25.0251 14.2875C25.0228 15.3161 24.189 16.1521 23.1604 16.1521C22.1292 16.1521 21.2931 15.3161 21.2931 14.2875C21.2931 13.2567 22.1296 12.4225 23.1604 12.4225ZM18.1386 12.4225C19.1694 12.4225 20.0032 13.2562 20.0032 14.2875C20.0032 15.3161 19.1694 16.1521 18.1386 16.1521C17.1068 16.1521 16.273 15.3161 16.273 14.2875C16.273 13.2567 17.1068 12.4225 18.1386 12.4225ZM13.1185 12.4225C14.1471 12.4225 14.9831 13.2562 14.9831 14.2875C14.9831 15.3161 14.1471 16.1521 13.1185 16.1521C12.0877 16.1521 11.2535 15.3161 11.2535 14.2875C11.2535 13.2567 12.0877 12.4225 13.1185 12.4225ZM18.1386 4.41211C12.6697 4.41211 8.2627 8.67408 8.2627 14.2875C8.2627 16.9836 9.28212 19.3664 10.9428 21.1147L10.3535 23.7566C10.1592 24.6259 10.7622 25.2107 11.5436 24.7755L14.1234 23.3365C15.3494 23.8688 16.7054 24.163 18.1386 24.163C23.6093 24.163 28.0135 19.9037 28.0135 14.2875C28.0135 8.67408 23.6093 4.41211 18.1386 4.41211Z" fill="black"/>
</svg>
