<svg width="30" height="30" viewBox="0 0 30 30" fill="none" xmlns="http://www.w3.org/2000/svg">
<path d="M24.9407 7.83535L23.6422 7.29804C23.5527 6.98461 23.4183 6.67118 23.284 6.40252L23.8661 5.10401C23.9556 4.92491 23.9109 4.7458 23.7765 4.61147L22.3437 3.17864C22.2094 3.04431 22.0303 2.99953 21.8512 3.08909L20.5527 3.6264C20.284 3.49207 19.9706 3.35774 19.6571 3.26819L19.1198 1.96968C18.9855 1.79058 18.8064 1.65625 18.6273 1.65625H16.5676C16.3885 1.65625 16.2094 1.79058 16.1646 1.92491L15.6273 3.22341C15.3139 3.31297 15.0004 3.44729 14.7318 3.58162L13.4333 3.08909C13.2542 2.99953 13.075 3.04431 12.9407 3.17864L11.5079 4.61147C11.3736 4.7458 11.3288 4.92491 11.4183 5.10401L12.0004 6.40252C11.8661 6.67118 11.7318 6.98461 11.6422 7.29804L10.2989 7.83535C10.1198 7.88013 10.0303 8.05924 10.0303 8.23834V10.298C10.0303 10.4771 10.1646 10.6562 10.2989 10.701L11.5974 11.2383C11.687 11.5518 11.8213 11.8652 11.9556 12.1339L11.4183 13.4324C11.3288 13.6115 11.3736 13.7906 11.5079 13.9249L12.9407 15.4025C13.075 15.5368 13.2542 15.5816 13.4333 15.4921L14.7318 14.91C15.0452 15.0443 15.3139 15.1786 15.6273 15.2682L16.1646 16.5667C16.2094 16.7458 16.3885 16.8354 16.5676 16.8354H18.6273C18.8064 16.8354 18.9855 16.7458 19.0303 16.5667L19.5676 15.2682C19.881 15.1786 20.1945 15.0443 20.4631 14.91L21.7616 15.4473C21.9407 15.5368 22.1198 15.4921 22.2542 15.3577L23.687 13.8801C23.8213 13.7458 23.8661 13.5667 23.7765 13.3876L23.1945 12.0891C23.3288 11.8204 23.4631 11.507 23.5527 11.1936L24.8512 10.6562C25.0303 10.6115 25.1198 10.4324 25.1198 10.2533V8.19356C25.2094 8.05924 25.1198 7.92491 24.9407 7.83535ZM17.5974 12.716C15.6721 12.716 14.1497 11.1488 14.1497 9.26819C14.1497 7.38759 15.6721 5.82043 17.5974 5.82043C19.478 5.82043 21.0452 7.38759 21.0452 9.26819C21.0452 11.1936 19.5228 12.716 17.5974 12.716Z" fill="black"/>
<path d="M5.86589 16.6558C5.86589 16.9244 5.86589 25.9692 5.86589 25.5214C5.86589 25.7901 5.64201 25.9692 5.41813 25.9692H2.01514C1.74649 25.9692 1.56738 25.7453 1.56738 25.5214V16.6558C1.56738 16.3871 1.79126 16.208 2.01514 16.208H5.41813C5.68679 16.208 5.86589 16.3871 5.86589 16.6558Z" fill="black"/>
<path d="M27.9408 20.9993L17.1498 27.7605C16.0304 28.4769 14.5528 28.5217 13.3886 27.85L6.76172 24.1336V17.8202H7.70202C10.5229 17.7754 12.7617 17.7306 13.5229 19.3874C13.7468 19.8799 14.2841 20.1933 14.8662 20.1933H17.8214C18.3587 20.1933 18.7617 20.5963 18.7617 21.1336C18.7617 21.6262 18.3587 22.0739 17.8214 22.0739H12.5826C12.314 22.0739 12.1349 22.253 12.1349 22.5217C12.1349 22.7903 12.314 22.9694 12.5826 22.9694H17.8214C18.5378 22.9694 19.1647 22.5665 19.4781 21.9396L27.0901 19.253C27.5378 19.0739 28.0752 19.2083 28.299 19.656C28.5677 20.1038 28.4334 20.7306 27.9408 20.9993Z" fill="black"/>
</svg>
