<svg width="65" height="65" viewBox="0 0 65 65" fill="none" xmlns="http://www.w3.org/2000/svg">
<path d="M38.4219 33.8708H26.5785V32.4489C26.5785 32.3842 26.5785 32.3194 26.5747 32.2585H38.4219V33.8708ZM31.7543 39.5494H33.2448C34.6705 39.5494 35.9654 38.9667 36.901 38.0272C37.4914 37.4407 37.937 36.7133 38.1896 35.9046H26.8108C27.066 36.7146 27.5128 37.4407 28.0994 38.0272C29.0363 38.9667 30.3287 39.5494 31.7543 39.5494ZM24.3365 27.7022C24.5955 27.9941 24.8621 28.2887 25.1858 28.6708C25.6073 29.1608 25.9272 29.6788 26.157 30.226H31.4839V22.7941L30.3858 21.696C29.9897 21.2999 29.9897 20.6563 30.3858 20.2602C30.7857 19.8641 31.4255 19.8641 31.8254 20.2602L32.4983 20.9368L33.1749 20.2602C33.571 19.8641 34.2147 19.8641 34.6108 20.2602C35.0069 20.6563 35.0069 21.2999 34.6108 21.696L33.5126 22.7941V30.226H38.8421C39.0694 29.6788 39.3931 29.1608 39.8108 28.6708C40.1383 28.2899 40.4011 27.9941 40.6601 27.7022C42.5999 25.5363 44.291 23.646 44.291 19.3461C44.291 16.0923 42.9707 13.1419 40.8366 11.0078C38.7025 8.87754 35.7546 7.55723 32.4983 7.55723C29.2445 7.55723 26.2941 8.87754 24.16 11.0078C22.0297 13.1419 20.7094 16.0923 20.7094 19.3461C20.7094 23.6473 22.4004 25.5363 24.3365 27.7022ZM25.7368 44.4612C25.7368 46.3287 26.4921 48.0172 27.716 49.2436C28.9398 50.4674 30.6308 51.2228 32.4983 51.2228C34.3658 51.2228 36.0568 50.4674 37.2806 49.2436C38.5044 48.0159 39.2636 46.3287 39.2636 44.4612C39.2636 43.5726 39.091 42.7271 38.7812 41.9526H26.2154C25.9056 42.7271 25.7368 43.5726 25.7368 44.4612ZM52.0249 41.9539H40.9305C41.1679 42.7461 41.2936 43.5878 41.2936 44.4625C41.2936 46.8886 40.311 49.0874 38.7165 50.6807C37.1257 52.2714 34.9269 53.254 32.4983 53.254C30.0697 53.254 27.8708 52.2714 26.2801 50.6807C24.6894 49.0861 23.703 46.8873 23.703 44.4625C23.703 43.5878 23.8325 42.7461 24.0661 41.9539H12.9754V41.9577C12.4143 41.9577 11.9611 42.4109 11.9611 42.9695V46.7984C11.9319 47.2517 12.2099 47.6833 12.6631 47.8318L14.9483 48.5732L15.8408 48.8652C16.0388 49.6206 16.2864 50.3519 16.5784 51.0526C16.8729 51.7687 17.2195 52.4593 17.608 53.1258L17.1801 53.9637L16.1074 56.0686C15.8915 56.457 15.9449 56.9534 16.2762 57.2848L17.9748 58.9872L19.6773 60.6846C19.9794 60.9867 20.4542 61.0769 20.8541 60.8712L22.9984 59.7807L23.8363 59.3528C24.5015 59.7413 25.1934 60.0866 25.9056 60.3824C26.6115 60.6744 27.3415 60.9182 28.0968 61.12L28.385 62.0125L29.1086 64.2367C29.2204 64.676 29.6203 64.9997 30.0951 64.9997H34.9066C35.3306 64.9997 35.7305 64.7268 35.8714 64.2977L36.6128 62.0125L36.9048 61.12C37.6564 60.9182 38.3915 60.6731 39.0922 60.3824C39.8044 60.0841 40.4989 59.7413 41.1654 59.3528L42.0033 59.7807L44.1082 60.8534C44.4928 61.0692 44.993 61.0159 45.3244 60.6846L47.023 58.9859L48.7254 57.2835C49.0276 56.9813 49.1177 56.5065 48.9121 56.1066L47.8177 53.9624L47.3937 53.1245C47.7822 52.4593 48.1237 51.7674 48.4195 51.0514C48.7115 50.3493 48.959 49.6193 49.1571 48.864L50.0496 48.572L52.3385 47.8306V47.8268C52.7448 47.6973 53.0368 47.3164 53.0368 46.8657V43.0584C53.0406 43.0254 53.0406 42.9975 53.0406 42.9683C53.0406 42.4071 52.5861 41.9539 52.0249 41.9539ZM14.1675 20.3617H17.2334C17.7946 20.3617 18.2516 19.9085 18.2516 19.3474C18.2516 18.7862 17.7946 18.333 17.2334 18.333H14.1675C13.6102 18.333 13.1532 18.7862 13.1532 19.3474C13.1519 19.9085 13.6089 20.3617 14.1675 20.3617ZM47.7644 20.3617H50.8303C51.3915 20.3617 51.8447 19.9085 51.8447 19.3474C51.8447 18.7862 51.3915 18.333 50.8303 18.333H47.7644C47.2033 18.333 46.75 18.7862 46.75 19.3474C46.75 19.9085 47.2033 20.3617 47.7644 20.3617ZM20.2562 33.0291L22.422 30.8595C22.8219 30.4634 22.8219 29.8197 22.422 29.4236C22.0259 29.0275 21.3861 29.0275 20.9862 29.4236L18.8204 31.5933C18.4243 31.9894 18.4243 32.6292 18.8204 33.0291C19.2165 33.4239 19.8601 33.4239 20.2562 33.0291ZM44.0104 9.26983L46.18 7.10401C46.5761 6.70791 46.5761 6.06426 46.18 5.66817C45.7801 5.27207 45.1403 5.27207 44.7442 5.66817L42.5746 7.83399C42.1785 8.23008 42.1785 8.87373 42.5746 9.26983C42.9706 9.66973 43.6156 9.66973 44.0104 9.26983ZM32.4983 5.09942C33.0594 5.09942 33.5126 4.64239 33.5126 4.08125V1.01533C33.5126 0.45801 33.0594 0.000979201 32.4983 0.000979201C31.9372 -0.00029033 31.4839 0.456741 31.4839 1.01533V4.08125C31.4839 4.64239 31.9372 5.09942 32.4983 5.09942ZM44.0104 29.4224C43.6143 29.0263 42.9706 29.0263 42.5746 29.4224C42.1785 29.8185 42.1785 30.4621 42.5746 30.8582L44.7442 33.0278C45.1403 33.4239 45.7801 33.4239 46.18 33.0278C46.5761 32.6279 46.5761 31.9881 46.18 31.592L44.0104 29.4224ZM20.9862 9.26983C21.3861 9.66973 22.0259 9.66973 22.422 9.26983C22.8219 8.87373 22.8219 8.23008 22.422 7.83399L20.2562 5.66817C19.8601 5.27207 19.2165 5.27207 18.8204 5.66817C18.4243 6.06426 18.4243 6.70791 18.8204 7.10401L20.9862 9.26983Z" fill="#FFD79F"/>
</svg>
