<svg width="65" height="65" viewBox="0 0 65 65" fill="none" xmlns="http://www.w3.org/2000/svg">
<path d="M34.075 25.3621C31.1125 25.7809 28.525 28.5621 28.5 28.5871C28.4628 28.6257 28.4208 28.6593 28.375 28.6871C24.35 31.2996 22.0813 29.3121 21.9875 29.1934C19.4125 26.8746 21.775 22.9871 21.875 22.8246C22.9298 21.0715 24.2071 19.4623 25.675 18.0371H14.7438L10 33.6871C10.051 33.7154 10.0973 33.7512 10.1375 33.7934C17.5 42.1184 27.275 49.5059 31.1313 52.2934C31.5326 52.5901 32.0316 52.7234 32.5275 52.6662C33.0233 52.609 33.4789 52.3656 33.8021 51.9852C34.1253 51.6048 34.292 51.1159 34.2684 50.6173C34.2448 50.1187 34.0327 49.6478 33.675 49.2996L28.3688 43.9934C28.2523 43.8763 28.187 43.7179 28.187 43.5527C28.187 43.3876 28.2523 43.2292 28.3688 43.1121C28.4269 43.0535 28.496 43.007 28.5721 42.9753C28.6483 42.9436 28.73 42.9272 28.8125 42.9272C28.895 42.9272 28.9767 42.9436 29.0529 42.9753C29.129 43.007 29.1982 43.0535 29.2563 43.1121L32.0813 45.9371L34.5813 48.4371L35.8313 49.7184C36.2797 50.1551 36.8813 50.3988 37.5073 50.3973C38.1332 50.3958 38.7337 50.1491 39.1799 49.7102C39.6262 49.2713 39.8828 48.675 39.8947 48.0492C39.9067 47.4233 39.673 46.8177 39.2438 46.3621L34.375 41.2809L33.45 40.3246C33.3914 40.2665 33.3449 40.1974 33.3132 40.1212C33.2815 40.0451 33.2651 39.9634 33.2651 39.8809C33.2651 39.7984 33.2815 39.7167 33.3132 39.6405C33.3449 39.5643 33.3914 39.4952 33.45 39.4371C33.5081 39.3785 33.5772 39.332 33.6534 39.3003C33.7296 39.2686 33.8112 39.2522 33.8938 39.2522C33.9763 39.2522 34.058 39.2686 34.1341 39.3003C34.2103 39.332 34.2794 39.3785 34.3375 39.4371L41.4438 46.8121C41.7879 47.1527 42.2234 47.386 42.6976 47.4837C43.1718 47.5815 43.6642 47.5394 44.1149 47.3627C44.5656 47.186 44.9554 46.8822 45.2367 46.4882C45.5181 46.0943 45.6791 45.6271 45.7 45.1434C45.7104 44.8026 45.649 44.4635 45.5197 44.148C45.3905 43.8325 45.1964 43.5477 44.95 43.3121L40.6875 39.1871L37.7188 36.3059C37.6527 36.2507 37.5987 36.1825 37.5602 36.1056C37.5217 36.0286 37.4995 35.9445 37.495 35.8585C37.4905 35.7726 37.5038 35.6866 37.5341 35.6061C37.5644 35.5255 37.611 35.452 37.671 35.3903C37.731 35.3286 37.8031 35.2799 37.8827 35.2474C37.9624 35.2148 38.048 35.1991 38.134 35.2011C38.22 35.2032 38.3047 35.223 38.3828 35.2593C38.4608 35.2956 38.5305 35.3476 38.5875 35.4121L47.025 43.5809C47.2463 43.8081 47.5113 43.9883 47.8041 44.1104C48.0968 44.2325 48.4113 44.2941 48.7285 44.2915C49.0457 44.2888 49.359 44.222 49.6497 44.095C49.9404 43.968 50.2024 43.7834 50.4198 43.5525C50.6372 43.3215 50.8057 43.0489 50.915 42.7511C51.0242 42.4533 51.0721 42.1365 51.0556 41.8197C51.0392 41.5029 50.9588 41.1927 50.8192 40.9079C50.6797 40.623 50.484 40.3693 50.2438 40.1621L34.075 25.3621Z" fill="#FFD79F"/>
<path d="M12.8375 14.3748C9.59287 12.9161 6.0549 12.2273 2.5 12.3623V36.8748H6.31875C6.72632 36.8758 7.1231 36.7439 7.44902 36.4992C7.77494 36.2545 8.01224 35.9102 8.125 35.5186L13.8625 16.6248C13.9936 16.1893 13.962 15.7209 13.7734 15.3069C13.5848 14.893 13.2522 14.5617 12.8375 14.3748Z" fill="#FFD79F"/>
<path d="M36.0996 15.5873C34.7518 15.0325 33.2457 14.9991 31.8746 15.4936C29.4809 16.3686 25.9871 18.4686 22.9184 23.4811C22.9184 23.5186 20.9996 26.6061 22.8059 28.2686C22.8684 28.3248 24.4809 29.6748 27.6059 27.6811C28.0559 27.2123 30.8746 24.3873 34.2059 24.0811C34.292 24.0738 34.3786 24.0846 34.4604 24.1125C34.5422 24.1405 34.6172 24.1851 34.6809 24.2436L51.0621 39.2436C51.1371 39.3123 51.2059 39.3873 51.2746 39.4623C53.1496 39.1748 54.3996 37.4623 54.7621 36.8373L48.8246 20.6561L36.0996 15.5873Z" fill="#FFD79F"/>
<path d="M61.2501 15.3434C57.6852 15.3197 54.1493 15.9861 50.8376 17.3059C50.3922 17.4967 50.0381 17.8526 49.8493 18.2989C49.6605 18.7451 49.6519 19.2471 49.8251 19.6996L56.7813 38.6309C56.9171 38.9961 57.1609 39.3113 57.4802 39.5346C57.7995 39.7579 58.1792 39.8787 58.5688 39.8809H62.5001V15.3746C62.1876 15.3559 61.7563 15.3434 61.2501 15.3434Z" fill="#FFD79F"/>
</svg>
