<svg width="65" height="65" viewBox="0 0 65 65" fill="none" xmlns="http://www.w3.org/2000/svg">
<g clip-path="url(#clip0_5218_114)">
<path d="M63.0948 61.1909H61.0636V23.6133C61.0636 22.5616 60.211 21.709 59.1594 21.709H51.5423C50.4906 21.709 49.638 22.5616 49.638 23.6133V61.1909H45.8295V36.3084C45.8295 35.2567 44.9768 34.4041 43.9252 34.4041H36.3081C35.2564 34.4041 34.4038 35.2567 34.4038 36.3084V61.1909H30.5953V43.2907C30.5953 42.2391 29.7427 41.3865 28.691 41.3865H21.0739C20.0223 41.3865 19.1697 42.2391 19.1697 43.2907V61.1909H15.3611V47.861C15.3611 46.8093 14.5085 45.9567 13.4568 45.9567H5.83976C4.7881 45.9567 3.93549 46.8093 3.93549 47.861V61.1909H1.90427C0.852606 61.1909 0 62.0435 0 63.0951C0 64.1468 0.852606 64.9994 1.90427 64.9994H63.0948C64.1465 64.9994 64.9991 64.1468 64.9991 63.0951C64.9991 62.0435 64.1465 61.1909 63.0948 61.1909Z" fill="#FFD79F"/>
<path d="M1.90427 40.9173C13.7892 40.9173 26.6776 36.649 38.1954 28.8985C47.2159 22.8283 54.7353 15.0737 59.4061 7.13329L61.2556 14.0353C61.4836 14.8861 62.5844 15.6211 63.5878 15.3817C64.6108 15.1377 65.2064 14.0653 64.9342 13.0495L61.8159 1.41184C61.5436 0.396102 60.5 -0.206917 59.4837 0.065394L47.8461 3.1837C46.8302 3.45588 46.2274 4.50006 46.4996 5.51593C46.7719 6.53179 47.8156 7.13481 48.8318 6.86237L56.329 4.85349C51.9714 12.4256 44.7697 19.8838 36.069 25.7386C25.1731 33.0709 13.0398 37.1088 1.90427 37.1088C0.852605 37.1088 0 37.9614 0 39.0131C0 40.0647 0.852605 40.9173 1.90427 40.9173Z" fill="#FFD79F"/>
</g>
<defs>
<clipPath id="clip0_5218_114">
<rect width="65" height="65" fill="white"/>
</clipPath>
</defs>
</svg>
