<svg width="65" height="65" viewBox="0 0 65 65" fill="none" xmlns="http://www.w3.org/2000/svg">
<path fill-rule="evenodd" clip-rule="evenodd" d="M22.6862 48.4121L28.7235 56.2584C29.2715 56.9706 29.1754 57.9789 28.5098 58.5827L26.4336 60.4669C26.0628 60.8034 25.6165 60.953 25.1179 60.908C24.6193 60.8629 24.2086 60.6345 23.9025 60.2383L17.2092 51.5741L22.6862 48.4121ZM55.8043 28.275H61.9531C62.9366 28.275 63.7324 27.4718 63.7304 26.4896C63.7284 25.5061 62.9264 24.7113 61.9442 24.7113H55.7954C54.8119 24.7113 54.0161 25.5146 54.0181 26.4967C54.02 27.4805 54.822 28.275 55.8043 28.275ZM48.5059 12.0857L51.5804 6.76081C52.0715 5.9101 51.7844 4.8183 50.9335 4.32471C50.084 3.83188 48.9904 4.11943 48.4987 4.97115L45.4243 10.2961C44.9331 11.1468 45.2202 12.2386 46.0711 12.7322C46.9207 13.225 48.0141 12.9375 48.5059 12.0857ZM55.6199 18.4641L60.6679 15.5497C61.5248 15.0549 61.8184 13.9594 61.3236 13.1024C60.8289 12.2454 59.7334 11.9519 58.8763 12.4467L53.8284 15.3613C52.9715 15.856 52.678 16.9515 53.1727 17.8085C53.6675 18.6653 54.7629 18.9588 55.6199 18.4641ZM47.6805 26.4835L53.6346 36.7964C54.7525 38.7326 54.0829 41.2314 52.1467 42.3493C50.3399 43.3925 48.0433 42.879 46.836 41.2323H46.8357C40.2451 40.2297 31.66 41.3067 23.1233 44.6345L14.9163 30.4197C22.0693 24.6968 27.3107 17.8367 29.7379 11.6278L29.7381 11.6276C28.8854 9.75018 29.5859 7.47772 31.4067 6.42642C33.343 5.30847 35.8417 5.97815 36.9597 7.91431L42.9138 18.2272C43.0832 18.0962 43.2634 17.975 43.4541 17.8649C45.7547 16.5366 48.6967 17.3248 50.025 19.6256C51.3534 21.9264 50.5651 24.8684 48.2643 26.1967C48.0738 26.3068 47.8787 26.4022 47.6805 26.4835ZM21.0597 46.1382L12.46 31.2433L5.62345 35.1904C1.46929 37.5888 0.032939 42.9499 2.43121 47.104L2.43134 47.1041C4.82974 51.2581 10.1907 52.6946 14.3449 50.2963L21.1814 46.3492L21.0597 46.1382Z" fill="#FFD79F"/>
</svg>
