<svg width="65" height="65" viewBox="0 0 65 65" fill="none" xmlns="http://www.w3.org/2000/svg">
<path fill-rule="evenodd" clip-rule="evenodd" d="M21.1171 4.5957H48.2878C49.8944 4.5957 51.2048 5.9061 51.2048 7.51277V23.9376C51.2048 25.5443 49.8944 26.8547 48.2878 26.8547H46.7288C46.6624 26.8547 46.6083 26.9088 46.6083 26.9752V34.5447C46.6083 34.5941 46.5805 34.6362 46.535 34.6556C46.4896 34.675 46.4398 34.6657 46.4043 34.6316L38.3558 26.8885C38.3325 26.866 38.3046 26.8548 38.2722 26.8548H34.8115C34.745 26.8548 34.6909 26.8007 34.6909 26.7343V21.1524C34.6909 19.3803 33.249 17.9383 31.477 17.9383H18.3204C18.254 17.9383 18.1999 17.8842 18.1999 17.8177V7.51277C18.1999 5.9061 19.5105 4.5957 21.1171 4.5957ZM11.839 56.8202V42.1989C11.839 41.7816 11.4947 41.4372 11.0774 41.4372H5.50972C5.09242 41.4372 4.74805 41.7816 4.74805 42.1989V59.642C4.74805 60.0593 5.09255 60.4037 5.50972 60.4037H11.0774C11.4947 60.4037 11.839 60.0593 11.839 59.642V56.8202ZM13.5263 44.6383V56.3638C13.5263 56.401 13.5414 56.4329 13.57 56.4567C13.5987 56.4804 13.6329 56.4892 13.6694 56.4822C14.4577 56.331 15.2792 56.1683 16.1149 56.0026C21.206 54.9937 25.705 54.3393 28.1323 55.0442C29.7574 55.5159 31.0572 55.8811 32.8634 55.6839C38.1213 55.1097 40.7561 54.9545 43.1972 53.8391C47.7827 51.7438 51.4688 47.0111 59.6281 39.1526C61.0088 37.8228 60.0698 34.556 57.0695 36.4422C56.9354 36.5264 56.8119 36.6293 56.6802 36.7208C56.679 36.7216 56.678 36.7223 56.6768 36.7233L45.9531 44.7318C45.914 44.7609 45.8969 44.8077 45.9077 44.8551C45.9388 44.9914 45.936 45.127 45.8983 45.2654C45.4544 46.9003 43.9252 48.0725 42.2121 48.0725H33.8561C33.3902 48.0725 33.0125 47.6949 33.0125 47.2289C33.0125 46.763 33.3902 46.3854 33.8561 46.3854H42.2121C43.1971 46.3854 43.9975 45.7438 44.2795 44.8083C44.2816 44.8015 44.2838 44.7959 44.2869 44.7895L44.386 44.5903C44.4004 44.5612 44.4027 44.5312 44.3928 44.5001C44.3663 44.4168 44.3533 44.3306 44.3535 44.2447H44.3528C44.3528 43.0689 43.3878 42.1041 42.2122 42.1041H31.2697C31.1079 42.1041 30.9568 42.0585 30.8285 41.9795C30.8254 41.9776 30.8225 41.976 30.8193 41.9743L26.9882 40.0588C24.6731 38.9013 22.1365 39.0378 19.9557 40.4397L13.5819 44.5372C13.5461 44.5598 13.5263 44.5961 13.5263 44.6383ZM31.477 19.5209H16.2815C15.383 19.5209 14.6501 20.2537 14.6501 21.1524V30.338C14.6501 31.2366 15.383 31.9694 16.2815 31.9694H17.1003C17.1667 31.9694 17.2208 32.0235 17.2208 32.0899V36.1463C17.2208 36.1956 17.2486 36.2377 17.294 36.2571C17.3393 36.2764 17.389 36.2675 17.4246 36.2333L21.8456 32.0028C21.8689 31.9805 21.8967 31.9694 21.929 31.9694H31.4771C32.3756 31.9694 33.1085 31.2366 33.1085 30.338V21.1524C33.1085 20.2537 32.3755 19.5209 31.477 19.5209ZM20.429 26.6272L27.3492 26.5439C27.8133 26.5384 28.1851 26.1578 28.1796 25.6937C28.1742 25.2296 27.7935 24.8578 27.3294 24.8632L20.4093 24.9466C19.9452 24.952 19.5734 25.3327 19.5788 25.7968C19.5843 26.2609 19.9649 26.6327 20.429 26.6272ZM23.8181 13.1116L45.5869 13.0283C46.051 13.0283 46.4272 12.6521 46.4272 12.188C46.4272 11.7239 46.051 11.3476 45.5869 11.3476L23.8181 11.431C23.354 11.431 22.9778 11.8072 22.9778 12.2713C22.9778 12.7354 23.354 13.1116 23.8181 13.1116ZM38.2263 20.4445L45.5934 20.3612C46.0575 20.3576 46.4307 19.9783 46.4271 19.5142C46.4235 19.0501 46.0442 18.6769 45.5801 18.6806L38.213 18.7639C37.7489 18.7675 37.3757 19.1467 37.3794 19.6108C37.383 20.0748 37.7622 20.4482 38.2263 20.4445Z" fill="#FFD79F"/>
</svg>
