<svg width="125" height="64" viewBox="0 0 125 64" fill="none" xmlns="http://www.w3.org/2000/svg">
<path d="M1.19 23.905V20.755L13.265 4.97H18.13L6.23 20.755L3.955 20.055H23.38V23.905H1.19ZM14.63 29.47V23.905L14.77 20.055V15.12H19.04V29.47H14.63ZM28.7085 29.715C27.9151 29.715 27.2385 29.4467 26.6785 28.91C26.1185 28.35 25.8385 27.65 25.8385 26.81C25.8385 25.9233 26.1185 25.2233 26.6785 24.71C27.2385 24.1733 27.9151 23.905 28.7085 23.905C29.5018 23.905 30.1785 24.1733 30.7385 24.71C31.2985 25.2233 31.5785 25.9233 31.5785 26.81C31.5785 27.65 31.2985 28.35 30.7385 28.91C30.1785 29.4467 29.5018 29.715 28.7085 29.715ZM42.7834 4.62C45.0234 4.62 46.9251 5.09833 48.4884 6.055C50.0751 6.98833 51.2884 8.35333 52.1284 10.15C52.9684 11.9467 53.3884 14.1633 53.3884 16.8C53.3884 19.6 52.8751 21.9683 51.8484 23.905C50.8451 25.8417 49.4451 27.3117 47.6484 28.315C45.8517 29.3183 43.7634 29.82 41.3834 29.82C40.1467 29.82 38.9684 29.6917 37.8484 29.435C36.7284 29.1783 35.7601 28.7817 34.9434 28.245L36.6234 24.815C37.3001 25.2583 38.0351 25.5733 38.8284 25.76C39.6217 25.9233 40.4384 26.005 41.2784 26.005C43.5884 26.005 45.4201 25.2933 46.7734 23.87C48.1267 22.4467 48.8034 20.3467 48.8034 17.57C48.8034 17.1267 48.7917 16.6133 48.7684 16.03C48.7451 15.4233 48.6634 14.8167 48.5234 14.21L49.9234 15.75C49.5267 16.7067 48.9551 17.5117 48.2084 18.165C47.4617 18.795 46.5867 19.2733 45.5834 19.6C44.5801 19.9267 43.4717 20.09 42.2584 20.09C40.6717 20.09 39.2367 19.7867 37.9534 19.18C36.6934 18.55 35.6901 17.675 34.9434 16.555C34.1967 15.4117 33.8234 14.0817 33.8234 12.565C33.8234 10.9317 34.2201 9.53167 35.0134 8.365C35.8067 7.175 36.8801 6.25333 38.2334 5.6C39.6101 4.94667 41.1267 4.62 42.7834 4.62ZM43.0284 8.19C42.0951 8.19 41.2667 8.365 40.5434 8.715C39.8201 9.04167 39.2484 9.52 38.8284 10.15C38.4317 10.7567 38.2334 11.4917 38.2334 12.355C38.2334 13.6383 38.6767 14.6533 39.5634 15.4C40.4501 16.1467 41.6401 16.52 43.1334 16.52C44.1134 16.52 44.9767 16.345 45.7234 15.995C46.4701 15.6217 47.0534 15.12 47.4734 14.49C47.8934 13.8367 48.1034 13.1133 48.1034 12.32C48.1034 11.55 47.9051 10.8617 47.5084 10.255C47.1117 9.625 46.5401 9.12333 45.7934 8.75C45.0467 8.37667 44.1251 8.19 43.0284 8.19ZM53.1932 32.97L64.7432 -1.13249e-06H68.6632L57.1132 32.97H53.1932ZM76.8914 29.82C75.1648 29.82 73.4731 29.575 71.8164 29.085C70.1831 28.5717 68.8064 27.8717 67.6864 26.985L69.6114 23.45C70.4981 24.1733 71.5714 24.7567 72.8314 25.2C74.1148 25.6433 75.4448 25.865 76.8214 25.865C78.4314 25.865 79.6914 25.5267 80.6014 24.85C81.5348 24.1733 82.0014 23.2633 82.0014 22.12C82.0014 21.35 81.8031 20.6733 81.4064 20.09C81.0331 19.5067 80.3564 19.0633 79.3764 18.76C78.4198 18.4567 77.1014 18.305 75.4214 18.305H69.5064L70.7664 4.97H85.1514V8.785H72.4464L74.8264 6.615L73.8814 16.59L71.5014 14.455H76.4364C78.8631 14.455 80.8114 14.7817 82.2814 15.435C83.7748 16.065 84.8598 16.9517 85.5364 18.095C86.2364 19.215 86.5864 20.4983 86.5864 21.945C86.5864 23.3683 86.2364 24.675 85.5364 25.865C84.8364 27.055 83.7631 28.0117 82.3164 28.735C80.8931 29.4583 79.0848 29.82 76.8914 29.82Z" fill="black"/>
<path d="M9.44799 44.47L11.5692 50.9984H18.4336L12.8802 55.0332L15.0014 61.5616L9.44799 57.5268L3.8946 61.5616L6.01581 55.0332L0.462418 50.9984H7.32678L9.44799 44.47Z" fill="#FBB004"/>
<path d="M35.9744 44.47L38.0956 50.9984H44.9599L39.4065 55.0332L41.5277 61.5616L35.9744 57.5268L30.421 61.5616L32.5422 55.0332L26.9888 50.9984H33.8531L35.9744 44.47Z" fill="#FBB004"/>
<path d="M62.4997 44.47L64.621 50.9984H71.4853L65.9319 55.0332L68.0531 61.5616L62.4997 57.5268L56.9464 61.5616L59.0676 55.0332L53.5142 50.9984H60.3785L62.4997 44.47Z" fill="#FBB004"/>
<path d="M89.0261 44.47L91.1473 50.9984H98.0117L92.4583 55.0332L94.5795 61.5616L89.0261 57.5268L83.4727 61.5616L85.5939 55.0332L80.0405 50.9984H86.9049L89.0261 44.47Z" fill="#FBB004"/>
<path d="M115.552 44.47L117.674 50.9984H124.538L118.985 55.0332L121.106 61.5616L115.552 57.5268L109.999 61.5616L112.12 55.0332L106.567 50.9984H113.431L115.552 44.47Z" fill="#FBB004"/>
</svg>
