<svg width="70" height="70" viewBox="0 0 70 70" fill="none" xmlns="http://www.w3.org/2000/svg">
<path fill-rule="evenodd" clip-rule="evenodd" d="M38.2817 53.5938V58.0475C38.2817 58.4369 38.4895 58.7978 38.8275 58.9936C40.1291 59.7472 41.1889 60.8727 41.8605 62.2234C42.03 62.5647 42.3658 62.7933 42.7453 62.8261C43.1248 62.8589 43.4945 62.6926 43.7198 62.3853C44.7163 61.0345 46.3197 60.1562 48.1255 60.1562C48.8506 60.1562 49.5441 60.2973 50.1773 60.5544C50.5908 60.7228 51.0644 60.6222 51.375 60.3017C52.7673 58.8634 54.7175 57.9688 56.8755 57.9688C60.7298 57.9688 63.9225 60.8234 64.4541 64.5312H5.54688C6.07844 60.8234 9.27109 57.9688 13.1255 57.9688C15.2834 57.9688 17.2336 58.8634 18.6259 60.3017C18.9366 60.6222 19.4102 60.7228 19.8236 60.5544C20.4569 60.2973 21.1503 60.1562 21.8755 60.1562C23.6813 60.1562 25.2847 61.0345 26.2811 62.3853C26.5064 62.6926 26.8761 62.8589 27.2556 62.8261C27.6352 62.7933 27.9709 62.5647 28.1405 62.2234C28.812 60.8727 29.8719 59.7472 31.1734 58.9936C31.5114 58.7978 31.7192 58.4369 31.7192 58.0475V53.5938H38.2817Z" fill="#FED090"/>
<path fill-rule="evenodd" clip-rule="evenodd" d="M47.6548 43.0372C46.7919 46.7155 45.8534 49.72 45.2891 51.4065H55.7814V47.3597C55.7814 46.9276 55.5266 46.535 55.1317 46.36L47.6548 43.0372Z" fill="#FED090"/>
<path fill-rule="evenodd" clip-rule="evenodd" d="M26.3926 49.2188H43.7066C43.408 50.1638 43.1554 50.9086 42.9815 51.4062H27.0488C26.8902 50.8998 26.6627 50.1539 26.3926 49.2188Z" fill="#FED090"/>
<path fill-rule="evenodd" clip-rule="evenodd" d="M22.6297 43.3135L14.9067 46.4033C14.4911 46.5685 14.2188 46.971 14.2188 47.4183V51.4061H24.7647C24.2692 49.7633 23.4358 46.8408 22.6297 43.3135Z" fill="#FED090"/>
<path fill-rule="evenodd" clip-rule="evenodd" d="M42.3579 12.0315C39.8718 8.98108 37.0751 6.96201 35.569 5.99186L35.5646 5.98967C35.2157 5.77858 34.7793 5.77858 34.426 5.99515C32.9177 6.9664 30.1254 8.98436 27.6426 12.0315H42.3579Z" fill="#FED090"/>
<path fill-rule="evenodd" clip-rule="evenodd" d="M43.9532 14.2188H26.0485C24.6212 16.4248 23.4574 19.0389 22.9543 22.0544C21.6812 29.6953 24.0765 40.6591 25.7849 47.0312H33.9071V39.375C33.9071 38.7712 34.3971 38.2812 35.0009 38.2812C35.6046 38.2812 36.0946 38.7712 36.0946 39.375V47.0312H44.3689C46.1221 40.9631 48.466 30.5714 47.0474 22.0544C46.5443 19.0389 45.3806 16.4259 43.9532 14.2188ZM35.0009 18.5938C30.7757 18.5938 27.3446 22.0248 27.3446 26.25C27.3446 30.4752 30.7757 33.9062 35.0009 33.9062C39.226 33.9062 42.6571 30.4752 42.6571 26.25C42.6571 22.0248 39.226 18.5938 35.0009 18.5938ZM35.0009 20.7812C38.0196 20.7812 40.4696 23.2312 40.4696 26.25C40.4696 29.2688 38.0196 31.7188 35.0009 31.7188C31.9821 31.7188 29.5321 29.2688 29.5321 26.25C29.5321 23.2312 31.9821 20.7812 35.0009 20.7812Z" fill="#FED090"/>
</svg>
