<svg width="60" height="60" viewBox="0 0 60 60" fill="none" xmlns="http://www.w3.org/2000/svg">
<path fill-rule="evenodd" clip-rule="evenodd" d="M45.4748 47.2049L43.4887 45.2188L45.2192 43.4883L47.2053 45.4744C46.8456 45.6716 46.5136 45.9202 46.2178 46.216C45.9192 46.5132 45.672 46.8465 45.4748 47.2049Z" fill="#FED090"/>
<path fill-rule="evenodd" clip-rule="evenodd" d="M33.9333 18.5027V31.0413H36.668C37.061 31.0413 37.3791 31.3593 37.3791 31.7524C37.3791 32.1454 37.0596 32.4635 36.6666 32.4635H33.2222H27.3751H21.528H15.6809H10.5421C10.1491 32.4635 9.83103 32.1454 9.83103 31.7524V15.4555C9.83103 15.0624 10.1491 14.7444 10.5421 14.7444C10.9352 14.7444 11.2532 15.0624 11.2532 15.4555V31.0413H14.9698V24.2886C14.9698 23.8956 15.2879 23.5775 15.6809 23.5775C16.074 23.5775 16.392 23.8956 16.392 24.2886V31.0413H20.8169V18.5027C20.8169 18.1096 21.135 17.7916 21.528 17.7916C21.9211 17.7916 22.2391 18.1096 22.2391 18.5027V31.0413H26.664V24.2886C26.664 23.8956 26.9821 23.5775 27.3751 23.5775C27.7682 23.5775 28.0862 23.8956 28.0862 24.2886V31.0413H32.5111V18.5027C32.5111 18.1096 32.8292 17.7916 33.2222 17.7916C33.6153 17.7916 33.9333 18.1096 33.9333 18.5027ZM20.6739 14.7138L27.0321 19.9735C27.164 20.0832 27.3251 20.1373 27.4862 20.1373C27.6723 20.1373 27.8571 20.0651 27.9973 19.9207L33.8444 13.8875C34.118 13.6055 34.1097 13.1555 33.8292 12.8819C33.5472 12.6083 33.0972 12.6167 32.8236 12.8972L27.4348 18.4582L21.0989 13.2166C20.8225 12.9875 20.4211 13 20.1586 13.2458C14.7809 18.304 14.6629 18.7763 14.6059 19.004C14.5101 19.3846 14.742 19.7707 15.124 19.8651C15.4698 19.9512 15.8212 19.7679 15.9531 19.4485C16.2545 18.9901 18.4961 16.7749 20.6739 14.7138ZM10.3241 10.3237C3.00062 17.6471 3.00062 29.5621 10.3241 36.8842C13.8726 40.4328 18.5878 42.3841 23.6044 42.3841C28.6209 42.3841 33.3361 40.43 36.8846 36.8842C40.4332 33.3357 42.3845 28.6205 42.3845 23.6039C42.3845 18.5874 40.4304 13.8722 36.8846 10.3237C29.5626 3.00019 17.6475 3.00019 10.3241 10.3237Z" fill="#FED090"/>
<path fill-rule="evenodd" clip-rule="evenodd" d="M43.8068 23.6035C43.8068 29.0006 41.7054 34.0741 37.8902 37.8893C34.075 41.7059 29.0015 43.8059 23.6044 43.8059C18.2073 43.8059 13.1338 41.7045 9.31856 37.8893C1.44233 30.0131 1.44233 17.1939 9.31856 9.31769C17.1962 1.44008 30.014 1.44146 37.8902 9.31769C41.7054 13.1329 43.8068 18.2064 43.8068 23.6035ZM6.90611 6.90524C-2.30204 16.1134 -2.30204 31.0936 6.90611 40.3004C11.3657 44.76 17.2976 47.2169 23.603 47.2169C26.9571 47.2169 30.2029 46.5225 33.1792 45.2017C33.2431 45.1586 33.3125 45.1281 33.3847 45.1086C35.9264 43.9503 38.2666 42.3337 40.2999 40.299C49.508 31.0909 49.508 16.1106 40.2999 6.90385C31.0959 -2.30152 16.1143 -2.30152 6.90611 6.90524Z" fill="#FED090"/>
<path fill-rule="evenodd" clip-rule="evenodd" d="M47.2317 47.2308C46.6803 47.7836 46.3748 48.5224 46.3748 49.3099C46.3748 50.0974 46.6789 50.8377 47.2317 51.3891L48.2483 52.4057L50.4399 50.2141C50.7177 49.9363 51.1677 49.9363 51.4455 50.2141C51.7233 50.4919 51.7233 50.9418 51.4455 51.2196L49.2539 53.4112L55.7371 59.8944C55.8287 59.9861 55.9371 60 55.9926 60C56.0496 60 56.1579 59.9861 56.2482 59.8944L59.8939 56.2501C60.0328 56.1112 60.0328 55.8765 59.8939 55.7362L57.0551 52.8974L54.8621 55.0904C54.7246 55.2293 54.5426 55.2973 54.3607 55.2973C54.1788 55.2973 53.9968 55.2279 53.8579 55.0904C53.5802 54.8126 53.5802 54.3626 53.8579 54.0848L56.0509 51.8918L51.3899 47.2308C50.8163 46.6572 50.0636 46.3711 49.3108 46.3711C48.558 46.3697 47.8039 46.6572 47.2317 47.2308Z" fill="#FED090"/>
<path fill-rule="evenodd" clip-rule="evenodd" d="M46.0081 34.7842C44.8345 37.1383 43.2693 39.3466 41.3096 41.3063C39.3735 43.2423 37.175 44.8229 34.7958 46.0131L35.0056 46.2228C35.7291 46.9464 36.6972 47.3464 37.7305 47.3464C38.7624 47.3464 39.7318 46.9478 40.4554 46.2228L46.2262 40.4521C46.9498 39.7285 47.3497 38.7605 47.3497 37.7272C47.3497 36.6939 46.9511 35.7258 46.2262 35.0022L46.0081 34.7842Z" fill="#FED090"/>
</svg>
