<svg width="60" height="60" viewBox="0 0 60 60" fill="none" xmlns="http://www.w3.org/2000/svg">
<path fill-rule="evenodd" clip-rule="evenodd" d="M54.5143 20.625V50.625C54.5143 52.1175 53.9222 53.5481 52.8665 54.6019C51.8108 55.6575 50.38 56.25 48.8876 56.25H18.8786C17.3862 56.25 15.9554 55.6575 14.8997 54.6019C13.844 53.5481 13.2519 52.1175 13.2519 50.625V37.2525C14.1656 37.4156 15.1061 37.5 16.0653 37.5C24.8643 37.5 32.0076 30.3581 32.0076 21.5625C32.0076 12.7669 24.8643 5.625 16.0653 5.625C15.5803 5.625 15.1007 5.64749 14.6291 5.68874C15.6607 4.50187 17.1825 3.75 18.8786 3.75H37.6342V15C37.6342 16.4925 38.2264 17.9231 39.282 18.9769C40.3377 20.0325 41.7685 20.625 43.2609 20.625H54.5143ZM24.5053 46.875V45C24.5053 43.965 23.664 43.125 22.6297 43.125C21.5955 43.125 20.7542 43.965 20.7542 45V46.875C20.7542 47.91 21.5955 48.75 22.6297 48.75C23.664 48.75 24.5053 47.91 24.5053 46.875ZM32.0076 46.875V39.375C32.0076 38.34 31.1662 37.5 30.132 37.5C29.0978 37.5 28.2564 38.34 28.2564 39.375V46.875C28.2564 47.91 29.0978 48.75 30.132 48.75C31.1662 48.75 32.0076 47.91 32.0076 46.875ZM39.5098 46.875V41.25C39.5098 40.215 38.6685 39.375 37.6342 39.375C36.6 39.375 35.7587 40.215 35.7587 41.25V46.875C35.7587 47.91 36.6 48.75 37.6342 48.75C38.6685 48.75 39.5098 47.91 39.5098 46.875ZM47.012 46.875V33.75C47.012 32.715 46.1707 31.875 45.1365 31.875C44.1022 31.875 43.2609 32.715 43.2609 33.75V46.875C43.2609 47.91 44.1022 48.75 45.1365 48.75C46.1707 48.75 47.012 47.91 47.012 46.875ZM41.3854 3.78562C42.7331 3.93937 43.9897 4.57688 44.9114 5.59125L53.0514 14.5406C53.6596 15.2119 54.0936 16.0125 54.3241 16.875H43.2609C42.7626 16.875 42.2856 16.6781 41.9346 16.3256C41.5836 15.975 41.3854 15.4969 41.3854 15V3.78562ZM28.1117 23.4375C27.2088 29.2744 22.1555 33.75 16.0653 33.75C9.33737 33.75 3.87411 28.2881 3.87411 21.5625C3.87411 15.4744 8.35133 10.4213 14.1897 9.51938V19.6875C14.1897 21.7594 15.8697 23.4375 17.9408 23.4375H28.1117ZM17.9408 9.51938C23.1683 10.3275 27.3052 14.4619 28.1117 19.6875H17.9408V9.51938Z" fill="#FED090"/>
</svg>
