<svg width="60" height="60" viewBox="0 0 60 60" fill="none" xmlns="http://www.w3.org/2000/svg">
<g clip-path="url(#clip0_4048_156)">
<path fill-rule="evenodd" clip-rule="evenodd" d="M20.0953 29.3466L26.1094 36.2784C26.3179 36.5172 26.6126 36.6636 26.9289 36.6856C27.2452 36.7075 27.5573 36.6032 27.7969 36.3955C27.8241 36.3762 27.8491 36.3537 27.8712 36.3286L39.8066 25.3868C40.0354 25.1719 40.1703 24.8755 40.182 24.5618C40.1937 24.2481 40.0813 23.9424 39.8691 23.7111C39.6569 23.4798 39.362 23.3414 39.0485 23.326C38.735 23.3107 38.428 23.4195 38.1942 23.629L27.1127 33.7838L21.9047 27.7895C21.8024 27.6707 21.6778 27.5732 21.5379 27.5026C21.398 27.4319 21.2455 27.3896 21.0892 27.3778C20.9329 27.3661 20.7758 27.3853 20.6269 27.4343C20.478 27.4833 20.3403 27.5611 20.2215 27.6634C20.1026 27.7656 20.0051 27.8902 19.9345 28.0302C19.8639 28.1701 19.8215 28.3226 19.8098 28.4789C19.7981 28.6352 19.8172 28.7922 19.8662 28.9411C19.9152 29.09 19.9931 29.2278 20.0953 29.3466ZM30 11.9417C34.1788 11.9411 38.2285 13.3895 41.459 16.0401C44.6896 18.6907 46.9011 22.3794 47.7169 26.4778C48.5326 30.5762 47.902 34.8306 45.9325 38.5162C43.963 42.2017 40.7765 45.0904 36.916 46.6899C33.0555 48.2894 28.7598 48.5008 24.7608 47.2881C20.7619 46.0754 17.3072 43.5137 14.9853 40.0393C12.6634 36.565 11.6181 32.393 12.0274 28.2343C12.4367 24.0757 14.2754 20.1876 17.2301 17.2326C18.9044 15.5519 20.8947 14.2192 23.0864 13.3111C25.278 12.4031 27.6277 11.9377 30 11.9417ZM41.0727 18.9236C43.6334 21.4852 45.2268 24.8554 45.5813 28.46C45.9358 32.0647 45.0295 35.6807 43.0169 38.6921C41.0042 41.7035 38.0097 43.9239 34.5436 44.9749C31.0774 46.026 27.354 45.8428 24.0078 44.4565C20.6616 43.0701 17.8995 40.5664 16.1923 37.372C14.485 34.1776 13.9382 30.49 14.6449 26.9376C15.3516 23.3852 17.2682 20.1877 20.0681 17.8899C22.868 15.5921 26.378 14.3362 30 14.3362C32.0567 14.3349 34.0934 14.7395 35.9935 15.5267C37.8935 16.3139 39.6196 17.4684 41.0727 18.9238V18.9236ZM32.2977 0.74054L37.7645 4.58324C37.8946 4.67569 38.0373 4.74898 38.1882 4.80085C38.3384 4.8516 38.496 4.87706 38.6545 4.8762L45.3358 4.97663C46.1603 4.98594 46.9619 5.24905 47.6315 5.73015C48.2986 6.21616 48.7977 6.89795 49.0594 7.68074L51.2232 14.0014C51.2739 14.1533 51.3463 14.2971 51.438 14.4283C51.5327 14.5558 51.6457 14.6687 51.7733 14.7632L57.1172 18.7737C57.7803 19.2628 58.2739 19.9471 58.5287 20.7308C58.7835 21.5144 58.7868 22.3581 58.5381 23.1437L56.5724 29.5314C56.4752 29.8363 56.4752 30.1639 56.5724 30.4689L58.5383 36.8557C58.787 37.6414 58.7837 38.4852 58.5289 39.2689C58.274 40.0526 57.7804 40.7369 57.1172 41.226L51.7734 45.236C51.6458 45.3305 51.5328 45.4433 51.4382 45.5709C51.3464 45.7021 51.274 45.8459 51.2233 45.9979L49.0594 52.3185C48.7976 53.1013 48.2986 53.783 47.6315 54.2691C46.9619 54.7502 46.1603 55.0132 45.3358 55.0225L38.6591 55.123C38.4998 55.1301 38.3418 55.1554 38.1882 55.1983C38.0373 55.2502 37.8946 55.3235 37.7645 55.416L32.2977 59.262C31.6277 59.7422 30.8241 60.0004 29.9999 60.0004C29.1756 60.0004 28.372 59.7422 27.7021 59.262L22.2356 55.416C22.1053 55.3235 21.9625 55.2502 21.8114 55.1983C21.6579 55.1554 21.5001 55.1301 21.3409 55.123L14.6638 55.0225C13.8385 55.0173 13.0355 54.7537 12.3678 54.2687C11.7 53.7837 11.2009 53.1017 10.9407 52.3185L8.77733 45.9979C8.72664 45.8459 8.65416 45.702 8.56218 45.5709C8.4677 45.4433 8.35483 45.3305 8.22725 45.236L2.8828 41.226C2.21958 40.7369 1.72599 40.0525 1.47117 39.2688C1.21635 38.4852 1.21307 37.6414 1.46179 36.8557L3.42749 30.469C3.52465 30.1641 3.52465 29.8365 3.42749 29.5315L1.46179 23.1432C1.21325 22.3576 1.21663 21.514 1.47144 20.7305C1.72626 19.947 2.21975 19.2628 2.8828 18.7737L8.22655 14.7638C8.35405 14.6692 8.46691 14.5564 8.56147 14.4289C8.65346 14.2977 8.72593 14.1539 8.77663 14.0019L10.9407 7.68074C11.2024 6.89818 11.7015 6.2166 12.3684 5.73074C13.0379 5.24966 13.8394 4.98655 14.6638 4.97722L21.3455 4.87679C21.5039 4.8777 21.6613 4.85223 21.8114 4.80144C21.9625 4.74963 22.1054 4.67634 22.2356 4.58382L27.7021 0.74054C28.3725 0.261459 29.1759 0.00390625 29.9999 0.00390625C30.8239 0.00390625 31.6273 0.261459 32.2977 0.74054Z" fill="#FED090"/>
</g>
<defs>
<clipPath id="clip0_4048_156">
<rect width="60" height="60" fill="white"/>
</clipPath>
</defs>
</svg>
