<svg width="70" height="70" viewBox="0 0 70 70" fill="none" xmlns="http://www.w3.org/2000/svg">
<g clip-path="url(#clip0_4048_149)">
<path d="M49.8419 42.4707C47.8714 45.2906 45.3122 47.8498 42.4923 49.8204L47.8648 55.1916L55.2145 47.8433L49.8419 42.4707Z" fill="#FED090"/>
<path d="M68.4554 61.0854L58.1126 50.7412L50.7643 58.0909L61.1071 68.4338C66.1821 73.1069 73.1282 66.1593 68.4554 61.0854Z" fill="#FED090"/>
<path d="M25.4817 0.0205078C39.5549 0.0205078 50.9633 11.429 50.9633 25.5022C50.9633 27.9683 50.6118 30.3522 49.9581 32.6077L38.2177 20.8675L26.671 32.4142L14.9313 20.6747H20.2929V16.5756H7.93368V28.9348H12.0328V23.5731L26.6711 38.211L38.2179 26.6643L48.3353 36.7817C44.1743 45.1963 35.5045 50.9839 25.4818 50.9839C11.4086 50.9839 0.000133514 39.5754 0.000133514 25.5022C0.000133514 11.429 11.4086 0.0205078 25.4817 0.0205078Z" fill="#FED090"/>
</g>
<defs>
<clipPath id="clip0_4048_149">
<rect width="70" height="70" fill="white" transform="matrix(-1 0 0 1 70 0)"/>
</clipPath>
</defs>
</svg>
