<svg width="60" height="60" viewBox="0 0 60 60" fill="none" xmlns="http://www.w3.org/2000/svg">
<g clip-path="url(#clip0_4714_233)">
<path d="M30 13.0078C20.6305 13.0078 13.0078 20.6305 13.0078 30C13.0078 39.3695 20.6305 46.9922 30 46.9922C39.3695 46.9922 46.9922 39.3695 46.9922 30C46.9922 20.6305 39.3695 13.0078 30 13.0078ZM41.888 30.8333H38.3723V27.577L30 35.9495L26.25 32.1995L19.9929 38.4566L17.507 35.9707L26.25 27.2277L30 30.9777L35.8864 25.0912H32.6302V21.5756H41.888V30.8333Z" fill="#FFD79F"/>
<path d="M60 33.75V26.25H55.9822C55.6835 24.1621 55.1399 22.1535 54.38 20.2543L57.8558 18.2476L54.1058 11.7524L50.6256 13.7617C49.3411 12.1323 47.8677 10.6589 46.2383 9.37441L48.2476 5.89418L41.7524 2.14418L39.7457 5.61996C37.8465 4.86012 35.8379 4.31648 33.75 4.01777V0H26.25V4.01777C24.1621 4.31648 22.1535 4.86012 20.2543 5.61996L18.2476 2.14418L11.7524 5.89418L13.7617 9.37441C12.1323 10.6589 10.6589 12.1323 9.37441 13.7617L5.89418 11.7524L2.14418 18.2476L5.61996 20.2543C4.86012 22.1535 4.31648 24.1621 4.01777 26.25H0V33.75H4.01777C4.31648 35.8379 4.86012 37.8465 5.61996 39.7457L2.14418 41.7524L5.89418 48.2476L9.37441 46.2383C10.6589 47.8677 12.1323 49.3411 13.7617 50.6256L11.7524 54.1058L18.2476 57.8558L20.2543 54.38C22.1535 55.1399 24.1621 55.6835 26.25 55.9822V60H33.75V55.9822C35.8379 55.6835 37.8465 55.1399 39.7457 54.38L41.7524 57.8558L48.2476 54.1058L46.2383 50.6256C47.8677 49.3411 49.3411 47.8677 50.6256 46.2383L54.1058 48.2476L57.8558 41.7524L54.38 39.7457C55.1399 37.8465 55.6835 35.8379 55.9822 33.75H60ZM30 50.5078C18.692 50.5078 9.49219 41.308 9.49219 30C9.49219 18.692 18.692 9.49219 30 9.49219C41.308 9.49219 50.5078 18.692 50.5078 30C50.5078 41.308 41.308 50.5078 30 50.5078Z" fill="#FFD79F"/>
</g>
<defs>
<clipPath id="clip0_4714_233">
<rect width="60" height="60" fill="white"/>
</clipPath>
</defs>
</svg>
