<svg width="60" height="60" viewBox="0 0 60 60" fill="none" xmlns="http://www.w3.org/2000/svg">
<path fill-rule="evenodd" clip-rule="evenodd" d="M13.9041 51.9031L9.07503 43.3703L16.3873 39.1367C18.0795 38.158 19.7821 37.3899 21.6407 37.9936L21.641 37.9937C24.0191 38.7647 27.8971 40.4091 31.8588 41.1357C32.8103 41.4714 33.4228 42.4217 33.1595 43.4006L33.1594 43.4011C32.9 44.3676 32.0753 44.8373 30.9466 44.7116C28.7677 44.2614 26.7448 43.6001 24.5007 42.997C23.999 42.8621 23.4822 43.16 23.3474 43.6617C23.2126 44.1633 23.5104 44.68 24.0121 44.8149C26.3074 45.4317 28.3759 46.1054 30.6061 46.5633L30.6074 46.5636C30.6201 46.5661 30.6328 46.5685 30.6455 46.5706L31.8724 46.7703C31.8735 46.7704 31.8746 46.7706 31.8756 46.7707C33.6766 47.0574 35.3291 46.8037 36.906 45.8849L46.7919 40.1271C48.8109 38.951 50.2947 38.6031 51.3483 38.8239C52.4951 39.0641 52.9311 40.0871 52.8547 41.0143C52.805 41.6163 52.5564 42.2034 52.0815 42.4959L34.1417 53.5412L34.1408 53.5418C32.7204 54.4184 31.1635 54.6169 29.5517 54.187L16.5396 50.6997C16.2984 50.635 16.0415 50.6689 15.8253 50.7937L13.9041 51.9031ZM6.97303 43.4779C6.97609 43.4834 6.97927 43.4888 6.98232 43.4943L12.7293 53.6491C12.732 53.6539 12.7347 53.6587 12.7375 53.6636L14.001 55.8961C14.1396 56.1436 14.0536 56.4596 13.8075 56.5985L13.8063 56.5992L11.0359 58.1696C10.7884 58.308 10.4726 58.222 10.3336 57.976L10.3333 57.9753L2.17962 43.5679L2.17927 43.5674C2.03962 43.321 2.1255 43.0059 2.3708 42.8673L2.37162 42.8669L5.14679 41.2958C5.39279 41.157 5.70762 41.2458 5.84856 41.4911L5.84927 41.4923L6.97303 43.4779ZM4.77315 43.028C4.14385 43.118 3.70938 43.7023 3.79927 44.3316C3.89291 44.9608 4.47715 45.3991 5.10644 45.3054C5.73574 45.2156 6.17021 44.6274 6.08032 43.9983C5.98668 43.369 5.40244 42.9344 4.77315 43.028ZM26.6459 9.1685L40.559 17.2012V23.5284L44.5936 21.1992V14.872L30.6804 6.83932L35.3256 4.15732C35.5076 4.05226 35.7319 4.05226 35.9139 4.15732L49.2388 11.8505C49.4208 11.9556 49.5329 12.1497 49.5329 12.3599V27.746C49.5329 27.9561 49.4208 28.1504 49.2388 28.2554L35.6197 36.1183L22.0007 28.2554C21.8187 28.1504 21.7066 27.9561 21.7066 27.746V12.3599C21.7066 12.1497 21.8187 11.9556 22.0007 11.8505L26.6459 9.1685ZM48.4921 6.3465C48.3576 6.84814 47.8411 7.14638 47.3394 7.01191C46.8376 6.87756 46.5394 6.36097 46.6739 5.85932L47.5842 2.46191C47.7187 1.96014 48.2351 1.66203 48.7369 1.79638C49.2387 1.93085 49.5368 2.44744 49.4024 2.94909L48.4921 6.3465ZM53.3014 17.3884C52.7997 17.2534 52.502 16.7366 52.6369 16.235C52.7719 15.7333 53.2887 15.4357 53.7903 15.5706L57.1901 16.4851C57.6917 16.62 57.9894 17.1368 57.8544 17.6385C57.7195 18.1401 57.2027 18.4378 56.7011 18.3028L53.3014 17.3884ZM53.182 10.8752C52.7321 11.1348 52.156 10.9805 51.8962 10.5306C51.6366 10.0808 51.7909 9.50473 52.2408 9.24497L55.2923 7.4832C55.7422 7.22344 56.3183 7.37779 56.578 7.82767C56.8377 8.27744 56.6834 8.85356 56.2335 9.11332L53.182 10.8752ZM24.5656 5.85932C24.7001 6.36097 24.4019 6.87756 23.9001 7.01191C23.3983 7.14638 22.8819 6.84814 22.7474 6.3465L21.8371 2.94909C21.7027 2.44744 22.0009 1.93085 22.5026 1.79638C23.0043 1.66203 23.5209 1.96014 23.6553 2.46191L24.5656 5.85932ZM17.4491 15.5706C17.9508 15.4357 18.4676 15.7333 18.6026 16.235C18.7375 16.7366 18.4397 17.2534 17.9382 17.3884L14.5384 18.3028C14.0368 18.4378 13.52 18.1401 13.385 17.6385C13.2501 17.1368 13.5479 16.62 14.0495 16.4851L17.4491 15.5706ZM18.9988 9.24497C19.4486 9.50473 19.603 10.0808 19.3433 10.5306C19.0835 10.9805 18.5074 11.1348 18.0576 10.8752L15.006 9.11332C14.5561 8.85356 14.4017 8.27744 14.6615 7.82767C14.9213 7.37779 15.4973 7.22344 15.9471 7.4832L18.9988 9.24497Z" fill="#FFD79F"/>
</svg>
