<svg width="60" height="60" viewBox="0 0 60 60" fill="none" xmlns="http://www.w3.org/2000/svg">
<path d="M25.9097 59.984C12.355 58.2894 1.70693 47.6413 0.0141386 34.0901C-0.118538 33.0431 0.699437 32.114 1.7585 32.114H8.86465C9.72306 32.114 10.4544 32.7338 10.5987 33.5785C11.9653 41.6719 18.3229 48.0312 26.4214 49.3994C27.2661 49.5436 27.8859 50.2751 27.8859 51.1335V58.2396C27.8858 59.2852 26.9793 60.1113 25.9097 59.984Z" fill="#FFD79F"/>
<path d="M8.86561 28.1292H1.75947C0.699814 28.1292 -0.117457 27.1996 0.0151019 26.1532C1.8762 11.2437 14.6155 0 29.6449 0C36.3219 0 42.652 2.17697 47.9519 6.29579C48.7948 6.95343 48.858 8.18654 48.1167 8.92775L43.0931 13.953C42.4853 14.5625 41.5308 14.6381 40.8303 14.1419C37.5321 11.7914 33.664 10.5485 29.6448 10.5485C20.1866 10.5485 12.1756 17.3267 10.5995 26.6648C10.4554 27.5093 9.72402 28.1292 8.86561 28.1292Z" fill="#FFD79F"/>
<path d="M31.8711 58.2414V51.1352C31.8711 50.2768 32.4909 49.5454 33.3356 49.4012C42.6737 47.8251 49.4519 39.8141 49.4519 30.3559C49.4519 26.3367 48.2089 22.4686 45.8585 19.1704C45.3606 18.4717 45.4396 17.5136 46.0473 16.9076L51.0726 11.884C51.8043 11.1523 53.0413 11.1987 53.7045 12.0488C57.8234 17.3488 60.0003 23.679 60.0003 30.3558C60.0003 45.3852 48.7565 58.1245 33.8472 59.9856C32.766 60.1145 31.8711 59.2748 31.8711 58.2414Z" fill="#FFD79F"/>
<path d="M22.963 22.9722C22.963 22.0013 22.1758 21.2141 21.2049 21.2141H17.6887C16.7178 21.2141 15.9307 22.0013 15.9307 22.9722V37.0368C15.9307 38.0077 16.7178 38.7949 17.6887 38.7949H21.2049C22.1758 38.7949 22.963 38.0077 22.963 37.0368V22.9722Z" fill="#FFD79F"/>
<path d="M33.5118 37.0366V19.4558C33.5118 18.4849 32.7247 17.6978 31.7537 17.6978H28.2376C27.2666 17.6978 26.4795 18.4849 26.4795 19.4558V37.0366C26.4795 38.0075 27.2666 38.7947 28.2376 38.7947H31.7537C32.7248 38.7947 33.5118 38.0075 33.5118 37.0366Z" fill="#FFD79F"/>
<path d="M44.0597 37.0367V30.0044C44.0597 29.0335 43.2725 28.2463 42.3016 28.2463H38.7854C37.8145 28.2463 37.0273 29.0335 37.0273 30.0044V37.0367C37.0273 38.0077 37.8145 38.7948 38.7854 38.7948H42.3016C43.2726 38.7948 44.0597 38.0077 44.0597 37.0367Z" fill="#FFD79F"/>
</svg>
