<svg width="60" height="60" viewBox="0 0 60 60" fill="none" xmlns="http://www.w3.org/2000/svg">
<path fill-rule="evenodd" clip-rule="evenodd" d="M15.1855 21.914L13.1663 19.5199C12.8136 19.1067 12.6165 18.5832 12.6093 18.04C12.602 17.4968 12.785 16.9682 13.1265 16.5457C14.0986 15.3282 15.1986 14.2187 16.4077 13.2363C16.8275 12.891 17.3549 12.7036 17.8984 12.7066C18.4419 12.7096 18.9672 12.9028 19.3831 13.2527L21.7972 15.2508C22.0938 15.4972 22.4524 15.6576 22.8338 15.7146C23.2152 15.7715 23.605 15.7228 23.9606 15.5737C24.3163 15.4246 24.6243 15.1809 24.8511 14.869C25.078 14.5571 25.215 14.189 25.2472 13.8047L25.512 10.6828C25.5556 10.1422 25.7866 9.63369 26.1651 9.24516C26.5435 8.85664 27.0458 8.61242 27.5851 8.55467C29.1331 8.38222 30.6952 8.37672 32.2445 8.53826C32.7846 8.59053 33.2894 8.82999 33.6717 9.2152C34.0539 9.60041 34.2894 10.1071 34.3374 10.6476L34.6269 13.7672C34.6625 14.1508 34.8026 14.5173 35.0318 14.827C35.261 15.1366 35.5707 15.3776 35.9272 15.5237C36.2837 15.6698 36.6734 15.7155 37.054 15.6558C37.4346 15.5962 37.7916 15.4334 38.0863 15.1851L40.4792 13.166C40.8926 12.8132 41.4162 12.616 41.9595 12.6086C42.5029 12.6011 43.0317 12.7837 43.4546 13.125C44.6718 14.0974 45.7812 15.1974 46.764 16.4062C47.109 16.8259 47.2962 17.3531 47.2932 17.8963C47.2902 18.4396 47.0972 18.9646 46.7476 19.3804L44.7495 21.7969C44.5031 22.0935 44.3427 22.452 44.2857 22.8334C44.2288 23.2149 44.2775 23.6046 44.4266 23.9603C44.5757 24.316 44.8194 24.624 45.1313 24.8508C45.4432 25.0776 45.8113 25.2146 46.1956 25.2469L49.3175 25.5117C49.8582 25.5553 50.3666 25.7863 50.7551 26.1647C51.1437 26.5432 51.3879 27.0454 51.4456 27.5847C51.6173 29.1328 51.6232 30.6948 51.4632 32.2441C51.4104 32.7841 51.1706 33.2887 50.7852 33.6707C50.3999 34.0527 49.8931 34.2879 49.3527 34.3359L46.2331 34.6254C45.8493 34.6609 45.4825 34.8009 45.1727 35.0302C44.8628 35.2595 44.6217 35.5693 44.4756 35.926C44.3294 36.2827 44.2838 36.6726 44.3437 37.0534C44.4035 37.4342 44.5666 37.7913 44.8152 38.0859L46.8343 40.4812C47.1872 40.8943 47.3845 41.4177 47.392 41.9609C47.3995 42.5041 47.2167 43.0328 46.8753 43.4555C45.9029 44.6726 44.8029 45.7821 43.5941 46.7648C43.174 47.1098 42.6464 47.297 42.1028 47.294C41.5592 47.291 41.0338 47.098 40.6175 46.7484L38.2034 44.7504C37.9069 44.5036 37.5484 44.3429 37.1669 44.2857C36.7854 44.2286 36.3955 44.2771 36.0396 44.4261C35.6838 44.5751 35.3756 44.8188 35.1486 45.1307C34.9216 45.4427 34.7846 45.8109 34.7523 46.1953L34.4874 49.3172C34.4439 49.8576 34.2131 50.3659 33.8349 50.7545C33.4566 51.143 32.9547 51.3873 32.4156 51.4453C30.8675 51.6177 29.3054 51.6232 27.7562 51.4617C27.2161 51.4094 26.7112 51.17 26.329 50.7848C25.9468 50.3996 25.7113 49.8928 25.6632 49.3523L25.3738 46.2328C25.3381 45.8492 25.1981 45.4827 24.9688 45.173C24.7396 44.8633 24.4299 44.6224 24.0735 44.4763C23.717 44.3301 23.3273 44.2844 22.9467 44.3441C22.566 44.4038 22.209 44.5666 21.9144 44.8148L19.5214 46.834C19.1082 47.1869 18.5845 47.3843 18.0411 47.3918C17.4977 47.3992 16.9688 47.2164 16.546 46.875C15.3286 45.9029 14.2191 44.8028 13.2366 43.5937C12.8916 43.1739 12.7043 42.6465 12.7073 42.1031C12.7103 41.5596 12.9034 41.0343 13.2531 40.6183L15.2511 38.2031C15.4979 37.9065 15.6586 37.5479 15.7157 37.1663C15.7728 36.7847 15.7242 36.3947 15.5751 36.0388C15.4259 35.6829 15.1821 35.3748 14.87 35.1479C14.5579 34.921 14.1895 34.784 13.805 34.7519L10.6831 34.4871C10.1426 34.4438 9.63415 34.213 9.2456 33.8348C8.85706 33.4565 8.6128 32.9544 8.55501 32.4152C8.38217 30.8672 8.37628 29.3051 8.53743 27.7558C8.58992 27.2158 8.82945 26.7111 9.21461 26.3289C9.59978 25.9467 10.1064 25.7111 10.6468 25.6629L13.7663 25.3734C14.1501 25.3379 14.5167 25.198 14.8265 24.9689C15.1364 24.7397 15.3775 24.4301 15.5237 24.0736C15.67 23.7171 15.7158 23.3273 15.6562 22.9466C15.5965 22.5659 15.4337 22.2088 15.1855 21.914ZM49.8413 49.1015C47.2797 51.7806 44.1996 53.9103 40.7886 55.3608C37.3775 56.8114 33.707 57.5525 30.0003 57.539C14.8152 57.539 2.46126 45.1851 2.46126 30C2.45273 24.8163 3.91567 19.7366 6.68001 15.3515L7.47805 18.7207C7.51395 18.872 7.60851 19.0029 7.74092 19.0846C7.87333 19.1662 8.03275 19.1919 8.18411 19.156C8.33547 19.1201 8.46637 19.0256 8.54801 18.8932C8.62966 18.7608 8.65536 18.6013 8.61946 18.45L7.50032 13.7402C7.4644 13.5895 7.37027 13.4592 7.2385 13.3777C7.10673 13.2962 6.94806 13.2702 6.79719 13.3054L2.08509 14.4222C2.00584 14.4348 1.93001 14.4634 1.86229 14.5065C1.79457 14.5495 1.73642 14.606 1.69142 14.6724C1.64643 14.7388 1.61555 14.8138 1.60072 14.8926C1.58588 14.9715 1.58739 15.0525 1.60516 15.1308C1.62293 15.209 1.65658 15.2828 1.70403 15.3475C1.75147 15.4122 1.81169 15.4664 1.88097 15.5069C1.95024 15.5474 2.02709 15.5732 2.10675 15.5828C2.18641 15.5923 2.26719 15.5854 2.34407 15.5625L5.64641 14.7808C1.87376 20.8016 0.467577 28.0074 1.69978 35.0049C2.93199 42.0023 6.71505 48.2944 12.3174 52.6643C17.9198 57.0342 24.9435 59.1715 32.0304 58.663C39.1173 58.1545 45.764 55.0363 50.6851 49.9113C50.7418 49.8566 50.7868 49.791 50.8176 49.7185C50.8483 49.646 50.8641 49.5681 50.8641 49.4893C50.864 49.4106 50.8481 49.3326 50.8172 49.2602C50.7864 49.1877 50.7412 49.1222 50.6845 49.0676C50.6277 49.013 50.5606 48.9703 50.487 48.9423C50.4134 48.9142 50.3349 48.9013 50.2562 48.9042C50.1775 48.9072 50.1002 48.926 50.0289 48.9595C49.9576 48.993 49.8938 49.0405 49.8413 49.0992V49.1015ZM58.3597 44.8722C58.3238 44.7215 58.2296 44.5912 58.0979 44.5097C57.9661 44.4282 57.8074 44.4023 57.6566 44.4375L54.3554 45.2203C58.1305 39.1994 59.5385 31.9924 58.3071 24.9934C57.0756 17.9944 53.2922 11.7008 47.6888 7.33005C42.0853 2.95928 35.06 0.821952 27.9718 1.33151C20.8836 1.84108 14.2362 4.96132 9.31555 10.0887C9.21741 10.2023 9.16664 10.3493 9.17371 10.4992C9.18078 10.6492 9.24517 10.7908 9.35357 10.8947C9.46197 10.9986 9.60613 11.0569 9.75628 11.0576C9.90642 11.0583 10.0511 11.0013 10.1605 10.8984C12.722 8.21949 15.8019 6.08992 19.2127 4.63937C22.6235 3.18881 26.2939 2.44762 30.0003 2.46092C45.1855 2.46092 57.5394 14.8148 57.5394 30C57.55 35.1831 56.0891 40.2628 53.3265 44.6484L52.5273 41.2781C52.5095 41.2032 52.4772 41.1326 52.4321 41.0702C52.387 41.0079 52.3301 40.955 52.2646 40.9146C52.1991 40.8742 52.1263 40.8472 52.0503 40.8349C51.9743 40.8227 51.8967 40.8256 51.8218 40.8433C51.7469 40.8611 51.6763 40.8935 51.6139 40.9385C51.5516 40.9836 51.4987 41.0405 51.4583 41.106C51.4179 41.1715 51.3909 41.2444 51.3786 41.3203C51.3664 41.3963 51.3693 41.4739 51.387 41.5488L52.5003 46.2597C52.5307 46.3883 52.6036 46.5027 52.7072 46.5846C52.8108 46.6665 52.939 46.711 53.071 46.7109C53.1165 46.7112 53.1618 46.7057 53.2058 46.6945L57.9191 45.5777C58.0696 45.5415 58.1996 45.4473 58.2809 45.3156C58.3621 45.1838 58.3879 45.0253 58.3527 44.8746L58.3597 44.8722ZM28.1804 30.8273C28.1411 30.856 28.0964 30.8762 28.0489 30.8867C28.0014 30.8972 27.9523 30.8977 27.9046 30.8882C27.8569 30.8788 27.8117 30.8595 27.7718 30.8317C27.732 30.8038 27.6983 30.768 27.673 30.7265L26.0159 28.0242C25.9376 27.8956 25.8347 27.7837 25.7132 27.6949C25.5916 27.6061 25.4537 27.5421 25.3074 27.5066C25.1611 27.471 25.0092 27.4647 24.8605 27.4878C24.7117 27.511 24.5689 27.5633 24.4404 27.6416C24.3118 27.7199 24.1999 27.8228 24.1111 27.9444C24.0223 28.066 23.9583 28.2038 23.9227 28.3501C23.8872 28.4964 23.8808 28.6483 23.904 28.7971C23.9272 28.9458 23.9794 29.0886 24.0577 29.2172L26.5679 33.3082C26.6509 33.4436 26.7611 33.5603 26.8915 33.651C27.022 33.7416 27.1698 33.8041 27.3257 33.8347C27.4816 33.8652 27.6421 33.863 27.7971 33.8282C27.9521 33.7935 28.0982 33.7269 28.2261 33.6328L35.6452 28.2117C35.8688 28.0243 36.0126 27.7588 36.0474 27.4692C36.0822 27.1795 36.0053 26.8875 35.8324 26.6525C35.6595 26.4176 35.4036 26.2573 35.1168 26.2043C34.8299 26.1512 34.5336 26.2095 34.2882 26.3672L28.1804 30.832V30.8273ZM40.7874 30C40.7874 27.8665 40.1548 25.7809 38.9695 24.007C37.7842 22.2331 36.0995 20.8504 34.1284 20.034C32.1573 19.2175 29.9884 19.0039 27.8959 19.4201C25.8034 19.8364 23.8813 20.8637 22.3727 22.3723C20.8641 23.8809 19.8367 25.803 19.4205 27.8955C19.0043 29.988 19.2179 32.1569 20.0343 34.128C20.8508 36.0991 22.2334 37.7838 24.0073 38.9691C25.7813 40.1544 27.8668 40.7871 30.0003 40.7871C32.8602 40.7837 35.602 39.6461 37.6242 37.6239C39.6464 35.6016 40.784 32.8599 40.7874 30Z" fill="#FFD79F"/>
</svg>
