<svg width="60" height="60" viewBox="0 0 60 60" fill="none" xmlns="http://www.w3.org/2000/svg">
<path d="M54.375 0H5.62499C4.13315 0 2.70241 0.592632 1.64752 1.64752C0.592632 2.70241 0 4.13315 0 5.62499V39.2671C0 40.0057 0.145495 40.7372 0.428177 41.4197C0.71086 42.1021 1.12519 42.7222 1.64752 43.2445C2.16985 43.7669 2.78995 44.1812 3.4724 44.4639C4.15486 44.7466 4.88631 44.8921 5.62499 44.8921H19.0729C19.4178 44.892 19.7594 44.96 20.0781 45.092C20.3968 45.224 20.6864 45.4175 20.9304 45.6614C21.1743 45.9053 21.3678 46.1949 21.4998 46.5136C21.6318 46.8323 21.6998 47.1739 21.6998 47.5189V50.2648C21.6993 50.9032 21.4663 51.5196 21.0442 51.9986C20.6222 52.4776 20.0401 52.7864 19.4068 52.8673C18.5818 52.9743 17.7568 53.0937 16.9319 53.2257C16.2058 53.3449 15.5511 53.733 15.098 54.3127C14.6448 54.8924 14.4264 55.6213 14.486 56.3547C14.5456 57.0881 14.879 57.7722 15.4198 58.2711C15.9606 58.77 16.6694 59.0472 17.4052 59.0475H42.5948C43.3306 59.0472 44.0393 58.77 44.5802 58.2711C45.121 57.7722 45.4543 57.0881 45.514 56.3547C45.5736 55.6213 45.3551 54.8924 44.902 54.3127C44.4488 53.733 43.7942 53.3449 43.0681 53.2257C42.2431 53.0937 41.4182 52.9742 40.5933 52.8674C39.9601 52.7865 39.3779 52.4777 38.9559 51.9986C38.5339 51.5196 38.3008 50.9033 38.3003 50.2648V47.5189C38.3003 47.1739 38.3683 46.8323 38.5003 46.5136C38.6323 46.1949 38.8258 45.9054 39.0698 45.6614C39.3137 45.4175 39.6033 45.224 39.922 45.092C40.2407 44.96 40.5823 44.8921 40.9272 44.8921H54.375C55.1137 44.8921 55.8451 44.7466 56.5276 44.4639C57.2101 44.1812 57.8302 43.7669 58.3525 43.2445C58.8748 42.7222 59.2891 42.1021 59.5718 41.4197C59.8545 40.7372 60 40.0057 60 39.2671V5.62499C60 4.88631 59.8545 4.15485 59.5718 3.4724C59.2891 2.78994 58.8748 2.16985 58.3525 1.64752C57.8301 1.12519 57.21 0.710855 56.5276 0.428173C55.8451 0.145491 55.1137 -1.87601e-06 54.375 0ZM32.6753 49.5031C32.6753 49.8543 32.6062 50.2022 32.4717 50.5267C32.3373 50.8513 32.1402 51.1462 31.8918 51.3946C31.6434 51.643 31.3486 51.84 31.024 51.9744C30.6995 52.1088 30.3516 52.178 30.0003 52.178H29.9997C29.2903 52.178 28.6099 51.8962 28.1083 51.3945C27.6066 50.8929 27.3248 50.2125 27.3248 49.5031V47.5673C27.3248 46.8578 27.6066 46.1773 28.1083 45.6756C28.6101 45.1739 29.2905 44.892 30.0001 44.892C30.7096 44.892 31.3901 45.1739 31.8918 45.6756C32.3935 46.1773 32.6753 46.8578 32.6753 47.5673L32.6753 49.5031ZM56.1893 34.4353C56.1893 34.6904 56.1391 34.943 56.0414 35.1786C55.9438 35.4143 55.8007 35.6285 55.6204 35.8088C55.44 35.9892 55.2258 36.1323 54.9902 36.2299C54.7545 36.3275 54.5019 36.3777 54.2468 36.3777H36.897C36.4369 36.3784 35.9889 36.5262 35.6186 36.7994C35.2483 37.0726 34.975 37.457 34.8386 37.8965C34.5159 38.9266 33.8728 39.8267 33.0029 40.4658C32.133 41.1049 31.0818 41.4496 30.0024 41.4497C28.923 41.4498 27.8717 41.1052 27.0018 40.4663C26.1318 39.8273 25.4885 38.9273 25.1656 37.8973C25.0293 37.4577 24.756 37.0731 24.3857 36.7997C24.0153 36.5263 23.5673 36.3785 23.107 36.3777H5.75316C5.49808 36.3777 5.24549 36.3275 5.00982 36.2299C4.77415 36.1323 4.56002 35.9892 4.37965 35.8088C4.19928 35.6284 4.0562 35.4143 3.95858 35.1786C3.86097 34.943 3.81073 34.6904 3.81074 34.4353V5.75311C3.81074 5.23794 4.01539 4.74388 4.37966 4.37961C4.74394 4.01533 5.238 3.81068 5.75316 3.81068H54.2468C54.5019 3.81068 54.7545 3.86092 54.9902 3.95853C55.2258 4.05614 55.44 4.19922 55.6204 4.37959C55.8007 4.55996 55.9438 4.7741 56.0414 5.00976C56.1391 5.24543 56.1893 5.49802 56.1893 5.75311V34.4353Z" fill="#FED090"/>
<path d="M50.8152 23.1586L44.2708 21.684C43.8503 21.5918 43.4535 21.4131 43.1058 21.1592C42.7581 20.9053 42.4671 20.5818 42.2512 20.2093C41.3221 18.584 40.0813 17.1581 38.6001 16.0132C38.2835 15.7692 38.0663 15.4187 37.9887 15.0266C37.9111 14.6345 37.9784 14.2276 38.1782 13.8815L38.1819 13.8741C38.2967 13.6738 38.4521 13.4998 38.6382 13.3633C38.8243 13.2268 39.037 13.1309 39.2625 13.0816C39.4879 13.0324 39.7212 13.0309 39.9473 13.0774C40.1734 13.1238 40.3872 13.2172 40.575 13.3514C41.5779 14.0814 42.498 14.9189 43.3188 15.8489L44.6442 11.5968C44.72 11.3542 44.711 11.0931 44.6187 10.8563C44.5264 10.6196 44.3564 10.4212 44.1364 10.2939L38.3089 6.93023C38.0883 6.80271 37.8308 6.75429 37.579 6.79299C37.3271 6.83168 37.096 6.95518 36.9239 7.14304L32.4216 12.0224C32.1153 12.3553 31.743 12.6208 31.3284 12.8021C30.9139 12.9833 30.4662 13.0763 30.0137 13.0751H29.9987C28.1595 13.0732 26.3379 13.4335 24.6379 14.1354C24.2671 14.2897 23.8529 14.304 23.4724 14.1755C23.0919 14.0471 22.7711 13.7847 22.5697 13.4373C22.4238 13.184 22.3466 12.897 22.3456 12.6047C22.3433 12.2881 22.4337 11.9777 22.6055 11.7117C22.7773 11.4458 23.0231 11.2358 23.3126 11.1077C24.4463 10.6028 25.6318 10.2235 26.8479 9.97657L23.8277 6.70625C23.6558 6.51934 23.4254 6.39645 23.1744 6.35778C22.9234 6.31911 22.6667 6.36695 22.4464 6.49344L16.6189 9.85713C16.3994 9.98491 16.2298 10.1833 16.1375 10.4199C16.0453 10.6565 16.0361 10.9174 16.1112 11.16L18.1047 17.5624C18.2359 17.9761 18.2791 18.4127 18.2315 18.8441C18.184 19.2756 18.0467 19.6922 17.8285 20.0674C16.8836 21.6781 16.2705 23.4615 16.0253 25.3126C15.9726 25.7087 15.7777 26.0722 15.4768 26.3353C15.176 26.5983 14.7898 26.7431 14.3902 26.7425H14.3864C14.156 26.7433 13.9279 26.6959 13.7168 26.6033C13.5058 26.5106 13.3164 26.3749 13.161 26.2047C13.0056 26.0345 12.8875 25.8336 12.8144 25.6151C12.7413 25.3965 12.7147 25.165 12.7364 24.9356C12.8686 23.701 13.1339 22.4844 13.5278 21.3068L9.18608 22.285C8.93832 22.3405 8.71682 22.4786 8.55804 22.6768C8.39926 22.8749 8.31267 23.1212 8.3125 23.3751V30.1061C8.31209 30.3602 8.39848 30.6067 8.55734 30.805C8.71621 31.0032 8.93803 31.1412 9.18606 31.1962L15.7266 32.6708C16.0584 32.7452 16.3761 32.8725 16.6674 33.0479H24.9589C23.758 32.0182 22.9013 30.6454 22.5041 29.1141C22.1069 27.5829 22.1882 25.9667 22.7372 24.4831C23.2862 22.9995 24.2764 21.7196 25.5746 20.8157C26.8729 19.9118 28.4168 19.4273 29.9988 19.4273C31.5807 19.4273 33.1246 19.9118 34.4229 20.8157C35.7211 21.7196 36.7114 22.9995 37.2603 24.4831C37.8093 25.9667 37.8906 27.5829 37.4934 29.1141C37.0962 30.6454 36.2395 32.0182 35.0386 33.0479H42.8149C43.3996 31.7783 43.7897 30.4279 43.9722 29.0421C44.0296 28.6285 44.2411 28.2517 44.5643 27.9872C44.8876 27.7227 45.2987 27.5899 45.7156 27.6153C46.1325 27.6408 46.5244 27.8226 46.813 28.1245C47.1016 28.4264 47.2657 28.8261 47.2724 29.2437C47.2723 29.3024 47.2686 29.361 47.2612 29.4192C47.1295 30.6538 46.8641 31.8705 46.4697 33.0479L50.8152 32.0698C51.0626 32.0136 51.2837 31.8753 51.4424 31.6773C51.601 31.4793 51.6879 31.2334 51.6887 30.9797V24.2487C51.6884 23.9948 51.6018 23.7486 51.443 23.5505C51.2843 23.3524 51.0629 23.2142 50.8152 23.1586Z" fill="#FED090"/>
<path d="M29.9996 31.4856C32.3779 31.4856 34.3059 29.5576 34.3059 27.1793C34.3059 24.801 32.3779 22.873 29.9996 22.873C27.6213 22.873 25.6934 24.801 25.6934 27.1793C25.6934 29.5576 27.6213 31.4856 29.9996 31.4856Z" fill="#FED090"/>
</svg>
