<svg width="71" height="53" viewBox="0 0 71 53" fill="none" xmlns="http://www.w3.org/2000/svg">
<path d="M38.3496 35.3471L31.6338 24.8018L29.8223 28.2333C29.3214 29.1613 28.4673 29.824 27.4805 30.0743L39.8224 48.6022C50.3087 27.0699 70.751 10.3096 70.751 10.3096C60.1912 13.1372 38.3496 35.3471 38.3496 35.3471Z" fill="#FED090"/>
<path d="M21.4122 10.3088C24.2589 10.3088 26.5666 8.00113 26.5666 5.15442C26.5666 2.30771 24.2589 0 21.4122 0C18.5655 0 16.2578 2.30771 16.2578 5.15442C16.2578 8.00113 18.5655 10.3088 21.4122 10.3088Z" fill="#FED090"/>
<path d="M24.6134 25.477C24.0424 26.5556 24.4538 27.8932 25.5324 28.4642C26.6056 29.0313 27.9453 28.6267 28.5182 27.5452L32.9365 19.199C33.2263 18.6509 33.273 18.008 33.0652 17.4242C32.8581 16.8417 32.415 16.3713 31.8447 16.1297L22.2716 12.0796C22.0874 12.0024 21.8985 11.961 21.7094 11.9353C20.9638 11.5795 20.1389 11.3624 19.2586 11.3501C18.2533 11.3361 17.3175 11.5978 16.4828 12.029C16.2694 12.0999 16.061 12.1944 15.8698 12.3343L8.94166 17.4172L2.49137 16.5884C1.28613 16.4216 0.173591 17.2861 0.0182374 18.4971C-0.137117 19.7081 0.717183 20.8141 1.92759 20.9695L9.25488 21.9115C9.34906 21.9245 9.44325 21.9302 9.53669 21.9302C10.0041 21.9302 10.4629 21.7821 10.8433 21.5016L13.2347 19.7468C13.2248 20.4501 13.0885 29.0846 13.1237 29.7842L10.3341 39.1348C10.0616 40.0481 10.406 41.0347 11.1891 41.5799L15.6596 44.6921L14.582 50.0054C14.3397 51.2006 15.1128 52.3671 16.308 52.6087C17.5082 52.8522 18.671 52.0732 18.9128 50.8827L19.6105 47.442L22.297 49.3122C23.2964 50.0071 24.6728 49.7638 25.3719 48.7614C26.0695 47.7589 25.8228 46.3824 24.8211 45.6849L20.5674 42.7239C20.7055 42.0432 23.3921 29.2773 23.3685 28.583L25.0103 18.176C25.0167 18.1337 25.0162 18.0854 25.0218 18.0416L27.9041 19.2609L24.6134 25.477ZM15.0252 38.8659L16.4023 34.2506C17.1137 34.5101 17.283 34.4826 17.7231 34.5188L16.6168 39.9738L15.0252 38.8659Z" fill="#FED090"/>
</svg>
