<svg width="60" height="61" viewBox="0 0 60 61" fill="none" xmlns="http://www.w3.org/2000/svg">
<path d="M43.8159 12.0079H54.4475L43.2578 1.01758V11.4505C43.2578 11.7577 43.508 12.0079 43.8159 12.0079Z" fill="#FEC77B"/>
<path d="M43.8158 15.5144C41.5749 15.5144 39.7515 13.6914 39.7515 11.4505V0H10.5965C6.98918 0 4.05469 2.9345 4.05469 6.5418V53.3024C4.05469 56.9097 6.98918 59.8442 10.5965 59.8442H48.9415C52.5491 59.8442 55.4833 56.9097 55.4833 53.3024V15.5144H43.8158ZM39.8081 45.3507H17.226C16.2576 45.3507 15.4727 44.5657 15.4727 43.5974C15.4727 42.6291 16.2576 41.8442 17.226 41.8442H39.8081C40.7768 41.8442 41.5614 42.6291 41.5614 43.5974C41.5614 44.5657 40.7768 45.3507 39.8081 45.3507ZM15.4727 36.5844C15.4727 35.6161 16.2576 34.8312 17.226 34.8312H37.3773C38.346 34.8312 39.1306 35.6161 39.1306 36.5844C39.1306 37.5527 38.3453 38.3377 37.3773 38.3377H17.226C16.2576 38.3377 15.4727 37.5527 15.4727 36.5844ZM41.9402 31.3247H17.226C16.2576 31.3247 15.4727 30.5397 15.4727 29.5714C15.4727 28.6031 16.2576 27.8182 17.226 27.8182H41.9402C42.9085 27.8182 43.6934 28.6031 43.6934 29.5714C43.6934 30.5397 42.9085 31.3247 41.9402 31.3247Z" fill="#FEC77B"/>
</svg>
