<svg width="60" height="60" viewBox="0 0 60 60" fill="none" xmlns="http://www.w3.org/2000/svg">
<path d="M36.2428 12.7062L39.7629 9.27494C40.0136 9.03076 40.191 8.72127 40.275 8.3815C40.359 8.04172 40.3462 7.68522 40.2381 7.35234C40.1299 7.01947 39.9308 6.7235 39.6632 6.49794C39.3956 6.27237 39.0702 6.12622 38.7238 6.07601L33.8578 5.36933L31.6826 0.959907C31.5099 0.667513 31.2639 0.425198 30.969 0.256866C30.6741 0.0885331 30.3403 0 30.0007 0C29.6611 0 29.3274 0.0885331 29.0325 0.256866C28.7375 0.425198 28.4916 0.667513 28.3189 0.959907L26.1439 5.36914L21.2779 6.07582C20.9315 6.12603 20.6061 6.27218 20.3385 6.49775C20.0709 6.72331 19.8717 7.01928 19.7636 7.35216C19.6555 7.68504 19.6427 8.04153 19.7266 8.38131C19.8106 8.72108 19.988 9.03057 20.2388 9.27475L23.7589 12.706L22.9275 17.5526C22.8683 17.8975 22.9068 18.2521 23.0386 18.5763C23.1705 18.9004 23.3904 19.1812 23.6735 19.3869C23.9566 19.5926 24.2916 19.7149 24.6407 19.7401C24.9897 19.7652 25.3388 19.6922 25.6485 19.5293L30.0007 17.2407L34.3532 19.5295C34.6629 19.6924 35.012 19.7654 35.361 19.7403C35.71 19.7151 36.0451 19.5928 36.3282 19.3871C36.6113 19.1814 36.8312 18.9006 36.9631 18.5765C37.0949 18.2523 37.1334 17.8977 37.0742 17.5528L36.2428 12.7062Z" fill="#FED090"/>
<path d="M59.9091 12.8948C59.8009 12.562 59.6017 12.2661 59.3341 12.0405C59.0665 11.815 58.7412 11.6688 58.3949 11.6185L53.5296 10.9116L51.3526 6.50256C51.1801 6.21001 50.9343 5.96752 50.6394 5.79906C50.3445 5.6306 50.0108 5.54199 49.6712 5.54199C49.3316 5.54199 48.9979 5.6306 48.703 5.79906C48.4081 5.96752 48.1623 6.21001 47.9898 6.50256L45.8148 10.9116L40.9498 11.6185C40.6035 11.6687 40.2782 11.8147 40.0106 12.0402C39.743 12.2656 39.5439 12.5614 39.4357 12.8942C39.3275 13.2269 39.3145 13.5833 39.3983 13.923C39.4821 14.2627 39.6592 14.5722 39.9097 14.8165L43.4307 18.2477L42.5994 23.0945C42.5401 23.4394 42.5785 23.7939 42.7102 24.1181C42.8419 24.4423 43.0617 24.7231 43.3447 24.9289C43.6277 25.1346 43.9626 25.2571 44.3116 25.2824C44.6606 25.3077 45.0097 25.2349 45.3194 25.0721L49.6709 22.7846L54.0233 25.0721C54.333 25.235 54.6821 25.3081 55.0312 25.2829C55.3802 25.2577 55.7152 25.1354 55.9983 24.9297C56.2815 24.7241 56.5014 24.4433 56.6332 24.1191C56.765 23.795 56.8035 23.4404 56.7443 23.0955L55.9131 18.2486L59.4334 14.8174C59.6843 14.5733 59.8618 14.2638 59.9458 13.924C60.0299 13.5842 60.0172 13.2277 59.9091 12.8948Z" fill="#FED090"/>
<path d="M19.0512 11.6182L14.1861 10.9113L12.0111 6.50227C11.8563 6.18852 11.6168 5.92435 11.3196 5.73964C11.0225 5.55492 10.6796 5.45703 10.3297 5.45703C9.97986 5.45703 9.63697 5.55492 9.33983 5.73964C9.04269 5.92435 8.80317 6.18852 8.64833 6.50227L6.47109 10.9113L1.60586 11.6182C1.25952 11.6684 0.934151 11.8146 0.666565 12.0401C0.39898 12.2657 0.199859 12.5616 0.0917341 12.8945C-0.0163913 13.2273 -0.0292057 13.5838 0.0547407 13.9235C0.138687 14.2633 0.316043 14.5727 0.566743 14.8169L4.0876 18.2483L3.25623 23.0952C3.19702 23.4401 3.2355 23.7947 3.36733 24.1188C3.49916 24.443 3.71908 24.7238 4.0022 24.9295C4.28532 25.1351 4.62035 25.2575 4.96939 25.2826C5.31842 25.3078 5.66753 25.2348 5.97722 25.0718L10.3296 22.7843L14.6811 25.0718C14.9908 25.2348 15.3399 25.3078 15.689 25.2826C16.038 25.2575 16.373 25.1351 16.6561 24.9295C16.9393 24.7238 17.1592 24.443 17.291 24.1188C17.4228 23.7947 17.4613 23.4401 17.4021 23.0952L16.5707 18.2483L20.0918 14.8171C20.3423 14.5728 20.5194 14.2633 20.6032 13.9236C20.687 13.5839 20.674 13.2276 20.5658 12.8948C20.4576 12.5621 20.2584 12.2663 19.9909 12.0408C19.7233 11.8154 19.3974 11.6684 19.0512 11.6182Z" fill="#FED090"/>
<path d="M48.7498 28.0391H11.25C9.75864 28.0407 8.32886 28.6339 7.27433 29.6884C6.21979 30.7429 5.62664 32.1727 5.625 33.664V48.664C5.62664 50.1553 6.21979 51.5851 7.27433 52.6396C8.32886 53.6942 9.75864 54.2873 11.25 54.289H23.5985L28.6743 59.3646C28.8483 59.5387 29.055 59.6769 29.2824 59.7711C29.5099 59.8654 29.7537 59.9139 29.9999 59.9139C30.2461 59.9139 30.4899 59.8654 30.7174 59.7711C30.9448 59.6769 31.1515 59.5387 31.3255 59.3646L36.4013 54.289H48.7498C50.2412 54.2873 51.6709 53.6942 52.7255 52.6396C53.78 51.5851 54.3732 50.1553 54.3748 48.664V33.664C54.3732 32.1727 53.78 30.7429 52.7255 29.6884C51.6709 28.6339 50.2412 28.0407 48.7498 28.0391ZM44.9998 46.789H15C14.5027 46.789 14.0258 46.5914 13.6741 46.2398C13.3225 45.8882 13.125 45.4113 13.125 44.914C13.125 44.4167 13.3225 43.9398 13.6741 43.5882C14.0258 43.2365 14.5027 43.039 15 43.039H44.9998C45.4971 43.039 45.974 43.2365 46.3257 43.5882C46.6773 43.9398 46.8748 44.4167 46.8748 44.914C46.8748 45.4113 46.6773 45.8882 46.3257 46.2398C45.974 46.5914 45.4971 46.789 44.9998 46.789ZM44.9998 39.289H15C14.5027 39.289 14.0258 39.0915 13.6741 38.7398C13.3225 38.3882 13.125 37.9113 13.125 37.414C13.125 36.9167 13.3225 36.4398 13.6741 36.0882C14.0258 35.7366 14.5027 35.539 15 35.539H44.9998C45.4971 35.539 45.974 35.7366 46.3257 36.0882C46.6773 36.4398 46.8748 36.9167 46.8748 37.414C46.8748 37.9113 46.6773 38.3882 46.3257 38.7398C45.974 39.0915 45.4971 39.289 44.9998 39.289Z" fill="#FED090"/>
</svg>
