<svg width="60" height="60" viewBox="0 0 60 60" fill="none" xmlns="http://www.w3.org/2000/svg">
<path fill-rule="evenodd" clip-rule="evenodd" d="M36.758 43.2998H32.0501C30.8947 43.2998 29.957 44.2375 29.957 45.3928C29.957 46.5482 30.8947 47.4858 32.0501 47.4858H36.758C37.9133 47.4858 38.8538 46.5482 38.851 45.3928C38.851 44.2375 37.9133 43.2998 36.758 43.2998Z" fill="#FED090"/>
<path d="M28.6047 30.6976C37.0816 30.6976 43.9535 23.8257 43.9535 15.3488C43.9535 6.8719 37.0816 0 28.6047 0C20.1278 0 13.2559 6.8719 13.2559 15.3488C13.2559 23.8257 20.1278 30.6976 28.6047 30.6976Z" fill="#FED090"/>
<path fill-rule="evenodd" clip-rule="evenodd" d="M38.3195 49.4344L34.9902 52.7665C34.1725 53.5814 34.1725 54.9097 34.9902 55.7246C35.8051 56.5423 37.1335 56.5423 37.9483 55.7246L41.2804 52.3953C42.0953 51.5777 42.0953 50.2521 41.2804 49.4344C40.4628 48.6195 39.1372 48.6195 38.3195 49.4344Z" fill="#FED090"/>
<path fill-rule="evenodd" clip-rule="evenodd" d="M41.2804 38.3361L37.9483 35.0068C37.1335 34.1891 35.8051 34.1891 34.9902 35.0068C34.1725 35.8217 34.1725 37.1501 34.9902 37.9649L38.3195 41.297C39.1372 42.1119 40.4628 42.1119 41.2804 41.297C42.0953 40.4794 42.0953 39.1538 41.2804 38.3361Z" fill="#FED090"/>
<path fill-rule="evenodd" clip-rule="evenodd" d="M32.6121 57.243C31.1218 55.3286 31.2558 52.5519 33.0167 50.7937L33.5581 50.2495H32.7907C30.0949 50.2495 27.9069 48.0616 27.9069 45.3658C27.9069 42.67 30.0949 40.4821 32.7907 40.4821H33.5581L33.0167 39.9379C31.186 38.11 31.1135 35.1826 32.799 33.2654C31.4316 33.1593 30.0307 33.1035 28.6046 33.1035C19.3339 33.1035 11.1265 35.4226 6.03069 38.897C2.14325 41.5482 0 44.9165 0 48.4523V52.4988C0 53.7574 0.499534 54.9658 1.38977 55.8533C2.28 56.7435 3.48558 57.243 4.74418 57.243H32.6121Z" fill="#FED090"/>
<path fill-rule="evenodd" clip-rule="evenodd" d="M45.3487 35.1533C39.8622 35.1533 35.4082 39.6073 35.4082 45.0938C35.4082 50.5803 39.8622 55.037 45.3487 55.037C50.8352 55.037 55.2919 50.5803 55.2919 45.0938C55.2919 39.6073 50.8352 35.1533 45.3487 35.1533ZM45.3487 39.3394C48.5245 39.3394 51.1059 41.918 51.1059 45.0938C51.1059 48.2696 48.5245 50.851 45.3487 50.851C42.1728 50.851 39.5915 48.2696 39.5915 45.0938C39.5915 41.918 42.1728 39.3394 45.3487 39.3394Z" fill="#FED090"/>
<path fill-rule="evenodd" clip-rule="evenodd" d="M47.4419 37.2443V32.5364C47.4419 31.381 46.5042 30.4434 45.3489 30.4434C44.1935 30.4434 43.2559 31.381 43.2559 32.5364V37.2471C43.2559 38.3996 44.1935 39.3401 45.3489 39.3401C46.5042 39.3373 47.4419 38.3996 47.4419 37.2443Z" fill="#FED090"/>
<path fill-rule="evenodd" clip-rule="evenodd" d="M52.3787 41.0256L55.708 37.6935C56.5257 36.8786 56.5257 35.5502 55.708 34.7353C54.8931 33.9177 53.5648 33.9177 52.7499 34.7353L49.4178 38.0646C48.6029 38.8823 48.6029 40.2079 49.4178 41.0256C50.2355 41.8404 51.5611 41.8404 52.3787 41.0256Z" fill="#FED090"/>
<path fill-rule="evenodd" clip-rule="evenodd" d="M53.1957 47.187H57.9064C59.0617 47.187 59.9994 46.2493 59.9994 45.094C59.9994 43.9387 59.0617 43.001 57.9064 43.001H53.1957C52.0432 43.001 51.1055 43.9387 51.1055 45.094C51.1027 46.2493 52.0432 47.187 53.1957 47.187Z" fill="#FED090"/>
<path fill-rule="evenodd" clip-rule="evenodd" d="M49.4178 52.1238L52.7499 55.4531C53.5648 56.2708 54.8931 56.2708 55.708 55.4531C56.5257 54.6383 56.5257 53.3099 55.708 52.495L52.3787 49.1629C51.5611 48.348 50.2355 48.348 49.4178 49.1629C48.6029 49.9806 48.6029 51.3062 49.4178 52.1238Z" fill="#FED090"/>
<path fill-rule="evenodd" clip-rule="evenodd" d="M43.2559 52.9417V57.6523C43.2559 58.8077 44.1935 59.7454 45.3489 59.7454C46.5042 59.7454 47.4419 58.8077 47.4419 57.6523V52.9417C47.4419 51.7891 46.5042 50.8514 45.3489 50.8486C44.1935 50.8486 43.2559 51.7891 43.2559 52.9417Z" fill="#FED090"/>
</svg>
