<svg width="60" height="60" viewBox="0 0 60 60" fill="none" xmlns="http://www.w3.org/2000/svg">
<path d="M55.625 9.99902H42.125C42.375 11.174 42.5 12.399 42.5 13.599V14.999H55V42.499H5V14.999H17.5V13.599C17.5 12.399 17.625 11.174 17.875 9.99902H4.375C1.975 9.99902 0 11.974 0 14.374V48.124C0 50.524 1.975 52.499 4.375 52.499H55.625C58.025 52.499 60 50.524 60 48.124V14.374C60 11.974 58.025 9.99902 55.625 9.99902Z" fill="#FEC77B"/>
<path d="M39.6356 57.864C36.3531 54.5815 36.2531 51.399 36.2506 51.2415C36.2456 50.554 35.6881 49.999 35.0006 49.999H24.9506C24.2606 49.999 23.7006 50.5665 23.7006 51.2565C23.7006 51.3915 23.6556 54.5765 20.3681 57.8665C20.0106 58.224 19.9031 58.7615 20.0981 59.229C20.2881 59.694 20.7456 59.999 21.2506 59.999H38.7506C39.2556 59.999 39.7131 59.694 39.9056 59.2265C40.0981 58.759 39.9906 58.224 39.6356 57.864Z" fill="#FEC77B"/>
<path d="M41.25 32.4713H18.75C18.06 32.4713 17.5 31.9113 17.5 31.2213V28.2938C17.5 26.6238 18.15 25.0538 19.33 23.8738L22.5 20.7038V13.5987C22.5 10.5812 23.5125 7.60375 25.3525 5.21375L29.01 0.46125C29.4825 -0.15375 30.52 -0.15375 30.9925 0.46125L34.65 5.21625C36.4875 7.60375 37.5 10.5812 37.5 13.5987V20.7038L40.67 23.8738C41.85 25.0538 42.5 26.6238 42.5 28.2938V31.2213C42.5 31.9138 41.94 32.4713 41.25 32.4713Z" fill="#FEC77B"/>
<path d="M36.25 37.4717C34.8675 37.4717 33.75 36.3517 33.75 34.9717V31.2217C33.75 29.8417 34.8675 28.7217 36.25 28.7217C37.6325 28.7217 38.75 29.8417 38.75 31.2217V34.9717C38.75 36.3542 37.6325 37.4717 36.25 37.4717Z" fill="#FEC77B"/>
<path d="M23.75 37.4717C22.3675 37.4717 21.25 36.3517 21.25 34.9717V31.2217C21.25 29.8417 22.3675 28.7217 23.75 28.7217C25.1325 28.7217 26.25 29.8417 26.25 31.2217V34.9717C26.25 36.3542 25.1325 37.4717 23.75 37.4717Z" fill="#FEC77B"/>
</svg>
