<svg width="29" height="29" viewBox="0 0 29 29" fill="none" xmlns="http://www.w3.org/2000/svg">
<g clip-path="url(#clip0_14_42)">
<path fill-rule="evenodd" clip-rule="evenodd" d="M20.1883 21.0425L22.5565 23.4115L22.2303 23.7395C21.9947 23.9754 21.9947 24.3579 22.2303 24.5938C22.2303 24.5938 24.8252 27.1884 26.1453 28.5103C26.4595 28.8239 26.8854 29 27.3264 29C27.7705 29 28.1964 28.823 28.5106 28.5097C28.8248 28.1962 29 27.7711 29 27.3277C29 26.8842 28.8248 26.4592 28.5106 26.1456C27.1875 24.8237 24.5926 22.2291 24.5926 22.2291C24.357 21.9932 23.9764 21.9932 23.7408 22.2291L23.4115 22.5572L21.0431 20.1879C22.9825 18.0434 24.1667 15.2005 24.1667 12.0833C24.1667 5.41424 18.7533 0 12.0833 0C5.41333 0 0 5.41424 0 12.0833C0 18.7524 5.41333 24.1667 12.0833 24.1667C15.2008 24.1667 18.0435 22.9837 20.1883 21.0425ZM8.46741 12.9896L9.28302 15.1945L11.4882 16.0104L9.28302 16.8263L8.46741 19.0312L7.65179 16.8263L5.44657 16.0104L7.65179 15.1945L8.46741 12.9896ZM13.8958 5.13542L15.4455 9.32471L19.6354 10.875L15.4455 12.4253L13.8958 16.6146L12.3462 12.4253L8.15625 10.875L12.3462 9.32471L13.8958 5.13542ZM9.0625 6.64583V6.04167C9.0625 5.70817 8.79063 5.4375 8.45833 5.4375C8.12604 5.4375 7.85417 5.70817 7.85417 6.04167V6.64583H7.25C6.91771 6.64583 6.64583 6.9165 6.64583 7.25C6.64583 7.5835 6.91771 7.85417 7.25 7.85417H7.85417V8.45833C7.85417 8.79183 8.12604 9.0625 8.45833 9.0625C8.79063 9.0625 9.0625 8.79183 9.0625 8.45833V7.85417H9.66667C9.99896 7.85417 10.2708 7.5835 10.2708 7.25C10.2708 6.9165 9.99896 6.64583 9.66667 6.64583H9.0625Z" fill="#FB9100"/>
</g>
<defs>
<clipPath id="clip0_14_42">
<rect width="29" height="29" fill="white"/>
</clipPath>
</defs>
</svg>
