<svg width="29" height="29" viewBox="0 0 29 29" fill="none" xmlns="http://www.w3.org/2000/svg">
<path d="M19.7382 26.0773C19.4844 26.4897 19.0449 26.7344 18.5555 26.7344H10.4446C9.95521 26.7344 9.51568 26.4897 9.26193 26.0773C9.01724 25.6741 8.99459 25.1847 9.21209 24.7633L10.0549 23.1094H18.9452L19.788 24.7633C20.0055 25.1847 19.9829 25.6741 19.7382 26.0773Z" fill="#FB9100"/>
<path d="M14.0469 4.53125H4.07812C3.57762 4.53125 3.17188 4.93699 3.17188 5.4375V9.96875C3.17188 10.4693 3.57762 10.875 4.07812 10.875H14.0469C14.5474 10.875 14.9531 10.4693 14.9531 9.96875V5.4375C14.9531 4.93699 14.5474 4.53125 14.0469 4.53125Z" fill="#FB9100"/>
<path d="M7.70312 11.7812H4.07812C3.57762 11.7812 3.17188 12.187 3.17188 12.6875V16.3125C3.17188 16.813 3.57762 17.2188 4.07812 17.2188H7.70312C8.20363 17.2188 8.60938 16.813 8.60938 16.3125V12.6875C8.60938 12.187 8.20363 11.7812 7.70312 11.7812Z" fill="#FB9100"/>
<path d="M14.0469 11.7812H10.4219C9.92137 11.7812 9.51562 12.187 9.51562 12.6875V16.3125C9.51562 16.813 9.92137 17.2188 10.4219 17.2188H14.0469C14.5474 17.2188 14.9531 16.813 14.9531 16.3125V12.6875C14.9531 12.187 14.5474 11.7812 14.0469 11.7812Z" fill="#FB9100"/>
<path d="M25.375 17.2188H18.5781C18.3289 17.2188 18.125 17.0148 18.125 16.7656C18.125 16.5164 18.3289 16.3125 18.5781 16.3125H25.375C25.6242 16.3125 25.8281 16.5164 25.8281 16.7656C25.8281 17.0148 25.6242 17.2188 25.375 17.2188Z" fill="#FB9100"/>
<path d="M25.375 14.9531H18.5781C18.3289 14.9531 18.125 14.7492 18.125 14.5C18.125 14.2508 18.3289 14.0469 18.5781 14.0469H25.375C25.6242 14.0469 25.8281 14.2508 25.8281 14.5C25.8281 14.7492 25.6242 14.9531 25.375 14.9531Z" fill="#FB9100"/>
<path d="M25.375 12.6875H18.5781C18.3289 12.6875 18.125 12.4836 18.125 12.2344C18.125 11.9852 18.3289 11.7812 18.5781 11.7812H25.375C25.6242 11.7812 25.8281 11.9852 25.8281 12.2344C25.8281 12.4836 25.6242 12.6875 25.375 12.6875Z" fill="#FB9100"/>
<path d="M25.8281 2.26562H3.17188C1.92125 2.26562 0.90625 3.28062 0.90625 4.53125V19.9375C0.90625 21.1881 1.92125 22.2031 3.17188 22.2031H25.8281C27.0788 22.2031 28.0938 21.1881 28.0938 19.9375V4.53125C28.0938 3.28062 27.0788 2.26562 25.8281 2.26562ZM1.8125 18.5781V4.53125C1.8125 3.78359 2.42422 3.17188 3.17188 3.17188H15.8594V18.5781H1.8125ZM27.1875 18.5781H16.7656V3.17188H25.8281C26.5758 3.17188 27.1875 3.78359 27.1875 4.53125V18.5781Z" fill="#FB9100"/>
<path d="M24.0156 9.51563C23.9205 9.51563 23.8253 9.48391 23.7438 9.425C23.5444 9.27547 23.5036 8.99 23.6531 8.79063L24.8086 7.25L23.6531 5.70938C23.5036 5.51 23.5444 5.22454 23.7438 5.075C23.9431 4.92547 24.2286 4.96625 24.3781 5.16563L25.7375 6.97813C25.8598 7.14125 25.8598 7.35875 25.7375 7.52188L24.3781 9.33438C24.2875 9.45219 24.1516 9.51563 24.0156 9.51563Z" fill="#FB9100"/>
<path d="M19.4844 9.51563C19.3485 9.51563 19.2125 9.45219 19.1219 9.33438L17.7625 7.52188C17.6402 7.35875 17.6402 7.14125 17.7625 6.97813L19.1219 5.16563C19.2714 4.96625 19.5569 4.92547 19.7563 5.075C19.9557 5.22454 19.9964 5.51 19.8469 5.70938L18.6914 7.25L19.8469 8.79063C19.9964 8.99 19.9557 9.27547 19.7563 9.425C19.6747 9.48391 19.5796 9.51563 19.4844 9.51563Z" fill="#FB9100"/>
<path d="M21.2969 9.51562C21.2606 9.51562 21.2244 9.51561 21.1881 9.50202C20.9434 9.44312 20.7984 9.1939 20.8573 8.95374L21.7636 5.32874C21.8225 5.08405 22.0672 4.93905 22.3119 4.99796C22.5566 5.05687 22.7016 5.30608 22.6426 5.54624L21.7364 9.17124C21.6866 9.37968 21.5008 9.51562 21.2969 9.51562Z" fill="#FB9100"/>
</svg>
