<svg width="29" height="29" viewBox="0 0 29 29" fill="none" xmlns="http://www.w3.org/2000/svg">
<path fill-rule="evenodd" clip-rule="evenodd" d="M23.2012 5.79874C21.9139 4.51147 19.8269 4.51147 18.5395 5.79874L12.1692 12.1692C10.8819 13.4564 10.8819 15.5435 12.1692 16.8307C12.6411 17.3027 12.6411 18.0677 12.1692 18.5395C11.6973 19.0115 10.9322 19.0115 10.4603 18.5395C8.2293 16.3086 8.2293 12.6913 10.4603 10.4603L16.8307 4.0899C19.0618 1.85887 22.679 1.85887 24.91 4.0899C27.1411 6.32092 27.1411 9.93814 24.91 12.1692L23.8482 13.2308C23.3764 13.7028 22.6114 13.7028 22.1394 13.2308C21.6675 12.759 21.6675 11.9939 22.1394 11.5221L23.2012 10.4603C24.4884 9.17306 24.4884 7.086 23.2012 5.79874ZM16.8307 16.8307C18.1181 15.5435 18.1181 13.4564 16.8307 12.1692C16.3589 11.6973 16.3589 10.9322 16.8307 10.4603C17.3027 9.98844 18.0677 9.98844 18.5395 10.4603C20.7706 12.6913 20.7706 16.3086 18.5395 18.5395L12.1692 24.91C9.93814 27.1411 6.32092 27.1411 4.0899 24.91C1.85887 22.679 1.85887 19.0618 4.0899 16.8307L5.15164 15.7691C5.62352 15.2971 6.3886 15.2971 6.86047 15.7691C7.33235 16.2409 7.33235 17.0059 6.86047 17.4779L5.79874 18.5395C4.51147 19.8269 4.51147 21.9139 5.79874 23.2012C7.086 24.4884 9.17306 24.4884 10.4603 23.2012L16.8307 16.8307Z" fill="#FB9100"/>
</svg>
