<svg width="30" height="30" viewBox="0 0 30 30" fill="none" xmlns="http://www.w3.org/2000/svg">
<g clip-path="url(#clip0_5_123)">
<path d="M29.075 12.9642C29.029 12.5542 28.5508 12.2458 28.1373 12.2458C26.801 12.2458 25.6151 11.4615 25.1178 10.2476C24.6101 9.00453 24.9376 7.55511 25.9332 6.64177C26.2468 6.35506 26.285 5.87499 26.0222 5.54174C25.338 4.67317 24.5607 3.88848 23.7119 3.20849C23.3797 2.94209 22.8917 2.97917 22.6035 3.29817C21.7343 4.26084 20.1729 4.61856 18.9663 4.11515C17.7111 3.58702 16.9188 2.31469 16.9967 0.949025C17.0223 0.519786 16.7084 0.146804 16.2807 0.0969801C15.1913 -0.0291553 14.0923 -0.0328132 12.9997 0.0884029C12.5774 0.135073 12.2638 0.499226 12.2778 0.923041C12.3251 2.27534 11.5239 3.52521 10.2808 4.03442C9.08873 4.52143 7.53814 4.16636 6.67071 3.21215C6.38401 2.89782 5.90456 2.85922 5.57018 3.11994C4.69631 3.80574 3.90153 4.59093 3.21107 5.45244C2.94202 5.78733 2.98176 6.2727 3.29798 6.56041C4.31324 7.47981 4.64056 8.94172 4.11344 10.1993C3.61016 11.3982 2.36533 12.1705 0.94038 12.1705C0.477968 12.1556 0.14888 12.4663 0.0977956 12.8869C-0.0303579 13.9821 -0.0317454 15.0986 0.091615 16.2028C0.137654 16.6145 0.629961 16.9203 1.04797 16.9203C2.31816 16.888 3.53688 17.6738 4.04886 18.9184C4.55832 20.1615 4.23037 21.6103 3.23314 22.5249C2.92121 22.8116 2.88135 23.2905 3.14472 23.6234C3.82194 24.4865 4.59995 25.2717 5.45136 25.9575C5.78562 26.2267 6.27175 26.189 6.56148 25.8696C7.43408 24.9047 8.99526 24.5476 10.197 25.052C11.4558 25.5787 12.2477 26.8509 12.1703 28.217C12.145 28.6462 12.4596 29.0203 12.8858 29.069C13.4433 29.1342 14.0037 29.1665 14.5659 29.1665C15.0995 29.1665 15.6331 29.1374 16.1668 29.078C16.5896 29.0313 16.9027 28.6668 16.8884 28.2428C16.8396 26.8912 17.6426 25.6412 18.8841 25.133C20.0842 24.6428 21.6278 25.0015 22.4958 25.9544C22.784 26.2681 23.2605 26.3061 23.5963 26.0464C24.4687 25.3624 25.2619 24.5776 25.9554 23.7138C26.2247 23.3796 26.1865 22.8936 25.8685 22.6053C24.8535 21.6866 24.5244 20.224 25.0515 18.9677C25.547 17.7849 26.7455 16.9908 28.0346 16.9908L28.215 16.9956C28.6335 17.0295 29.0181 16.7072 29.0687 16.2803C29.1975 15.184 29.1989 14.0687 29.075 12.9642ZM14.5834 22.9907C9.94001 22.9907 6.17601 19.2267 6.17601 14.5834C6.17601 9.94008 9.94014 6.17608 14.5834 6.17608C19.2267 6.17608 22.9909 9.94008 22.9909 14.5834C22.9909 16.1594 22.5563 17.6336 21.8017 18.8942L18.1203 15.2127C18.3868 14.5843 18.5276 13.903 18.5274 13.1999C18.5274 11.8232 17.9912 10.5289 17.0176 9.55549C16.0442 8.58211 14.7499 8.04603 13.3734 8.04603C12.914 8.04603 12.4568 8.10708 12.0144 8.22754C11.8207 8.28039 11.6623 8.44008 11.6107 8.6342C11.558 8.83274 11.6174 9.0362 11.7725 9.19147C11.7725 9.19147 13.59 11.023 14.1981 11.6309C14.2618 11.6946 14.2617 11.8466 14.2527 11.9014L14.247 11.9413C14.1857 12.6099 14.0675 13.4123 13.97 13.7207C13.9569 13.7337 13.9446 13.7447 13.9312 13.7581C13.9172 13.7721 13.9043 13.7856 13.8908 13.7994C13.5784 13.8997 12.7636 14.0193 12.0844 14.0801L12.0846 14.0764L12.054 14.0841C12.0486 14.0848 12.0385 14.0855 12.0252 14.0855C11.9517 14.0855 11.8438 14.065 11.7456 13.967C11.1127 13.334 9.36648 11.6003 9.36648 11.6003C9.20982 11.4441 9.04912 11.4113 8.94203 11.4113C8.69241 11.4113 8.4689 11.5917 8.39851 11.8504C7.91781 13.6293 8.4274 15.5428 9.72874 16.8442C10.7024 17.8177 11.9968 18.3538 13.3735 18.3538C14.0766 18.3538 14.7579 18.2132 15.3862 17.9467L19.1075 21.668C17.801 22.504 16.2496 22.9907 14.5834 22.9907Z" fill="#FB9100"/>
</g>
<defs>
<clipPath id="clip0_5_123">
<rect width="29.1667" height="29.1667" fill="white"/>
</clipPath>
</defs>
</svg>
