<svg width="29" height="29" viewBox="0 0 29 29" fill="none" xmlns="http://www.w3.org/2000/svg">
<g clip-path="url(#clip0_14_28)">
<path d="M17.6719 0.906616C11.9214 0.906616 7.2491 5.57889 7.2491 11.3294C7.2491 17.0799 11.9214 21.7486 17.6719 21.7486C23.4223 21.7486 28.0946 17.0799 28.0946 11.3294C28.0946 5.57889 23.4223 0.906616 17.6719 0.906616ZM17.6719 2.63949C22.4648 2.63949 26.3582 6.5364 26.3582 11.3294C26.3582 16.1223 22.4648 20.0158 17.6719 20.0158C12.8789 20.0158 8.9846 16.1223 8.9846 11.3294C8.9846 6.5364 12.8789 2.63949 17.6719 2.63949ZM17.6719 5.43522C15.1747 5.43522 13.1388 7.4702 13.1388 9.96737C13.1388 11.7475 14.23 13.497 15.277 14.8349C16.324 16.1728 17.371 17.1023 17.371 17.1023C17.4539 17.1759 17.5609 17.2166 17.6719 17.2166C17.7828 17.2166 17.8898 17.1759 17.9728 17.1023C17.9728 17.1023 19.0197 16.1728 20.0667 14.8349C21.1137 13.497 22.204 11.7475 22.204 9.96737C22.204 7.4702 20.169 5.43522 17.6719 5.43522ZM17.6719 7.24858C18.9178 7.24858 19.9357 8.27012 19.9357 9.51602C19.9357 10.7619 18.9178 11.7807 17.6719 11.7807C16.426 11.7807 15.4071 10.7619 15.4071 9.51602C15.4071 8.27012 16.426 7.24858 17.6719 7.24858ZM8.72617 18.2723L8.11729 18.8821L10.1165 20.8839L10.7272 20.2724C9.98 19.6915 9.30739 19.0192 8.72617 18.2723ZM6.79066 19.029C6.67252 19.0308 6.55979 19.0788 6.47648 19.1626L1.59919 24.0399C0.674131 24.9649 0.674129 26.4734 1.59919 27.3985C2.52425 28.3235 4.03628 28.3235 4.96135 27.3985L9.83421 22.5247C9.87653 22.4826 9.91012 22.4325 9.93305 22.3774C9.95597 22.3223 9.96776 22.2632 9.96776 22.2035C9.96776 22.1437 9.95597 22.0846 9.93305 22.0295C9.91012 21.9743 9.87653 21.9243 9.83421 21.8822L7.11811 19.1626C7.07527 19.1195 7.02421 19.0855 6.96795 19.0625C6.9117 19.0396 6.85141 19.0281 6.79066 19.029Z" fill="#FB9100"/>
</g>
<defs>
<clipPath id="clip0_14_28">
<rect width="29" height="29" fill="white"/>
</clipPath>
</defs>
</svg>
