<svg width="29" height="29" viewBox="0 0 29 29" fill="none" xmlns="http://www.w3.org/2000/svg">
<g clip-path="url(#clip0_14_71)">
<path d="M22.6942 3.73828C20.2836 1.32766 17.0783 0 13.6691 0C10.2604 0 7.05516 1.32766 4.64453 3.73828C2.23391 6.14891 0.90625 9.3542 0.90625 12.7628C0.90625 16.172 2.23391 19.3773 4.64453 21.788C7.05516 24.1986 10.2604 25.5262 13.6691 25.5262C15.3496 25.5262 16.9809 25.2034 18.4915 24.5871L17.7076 21.6599C16.4762 22.2213 15.1083 22.5339 13.6691 22.5339C8.28199 22.5339 3.89857 18.1505 3.89857 12.7628C3.89857 7.37574 8.28199 2.99232 13.6691 2.99232C19.0567 2.99232 23.4402 7.37574 23.4402 12.7628C23.4402 15.029 22.6642 17.1179 21.3648 18.7775L24.4495 19.6039C25.7409 17.5779 26.4325 15.2233 26.4325 12.7628C26.4325 9.3542 25.1048 6.14891 22.6942 3.73828Z" fill="#FB9100"/>
<path d="M13.6691 4.69153C9.21881 4.69153 5.59778 8.31256 5.59778 12.7628C5.59778 17.2136 9.21881 20.8347 13.6691 20.8347C14.9582 20.8347 16.1782 20.5311 17.2601 19.9913L16.5923 17.4985L19.4351 18.2604L19.5461 18.2898C20.9066 16.8449 21.7409 14.8993 21.7409 12.7628C21.7409 8.31256 18.1199 4.69153 13.6691 4.69153ZM16.6478 15.511C16.4694 15.8401 16.2338 16.1052 15.9409 16.3074C15.6475 16.5096 15.3111 16.6563 14.9305 16.7469C14.7679 16.786 14.6031 16.8166 14.436 16.8381V18.9106H12.7368V16.8024C12.4349 16.7554 12.1409 16.6891 11.8526 16.6042C11.5439 16.5136 11.2448 16.4042 10.9554 16.2774C10.6665 16.1511 10.3992 16.0044 10.1534 15.8378L11.0092 14.1386C11.0409 14.1783 11.144 14.2536 11.3179 14.3646C11.4924 14.4756 11.7082 14.5861 11.9659 14.6971C12.223 14.8081 12.5102 14.9072 12.8274 14.9945C13.144 15.0817 13.4652 15.1247 13.7897 15.1247C14.479 15.1247 14.824 14.9152 14.824 14.4949C14.824 14.3369 14.7719 14.206 14.6693 14.1029C14.5663 13.9998 14.4235 13.907 14.2417 13.8237C14.0593 13.7404 13.8435 13.6634 13.5937 13.592C13.344 13.5207 13.0726 13.4414 12.7798 13.3541C12.3913 13.2352 12.0548 13.1066 11.7699 12.9679C11.4844 12.8297 11.2488 12.6694 11.0625 12.487C10.8761 12.3046 10.7379 12.0945 10.6467 11.8571C10.5555 11.6192 10.5102 11.3423 10.5102 11.0251C10.5102 10.5816 10.5935 10.1891 10.7594 9.84866C10.926 9.50825 11.152 9.22108 11.4369 8.98715C11.7223 8.75323 12.0525 8.57708 12.4292 8.45813C12.53 8.42641 12.6325 8.39866 12.7368 8.37543V6.46438H14.436V8.35334C14.4541 8.35618 14.4728 8.35957 14.4909 8.36297C14.7764 8.41848 15.0494 8.48985 15.3111 8.57707C15.5722 8.6643 15.8163 8.76342 16.0417 8.87387C16.2677 8.98545 16.4756 9.0959 16.6659 9.20692L15.8101 10.8229C15.7863 10.7917 15.703 10.7323 15.5603 10.645C15.4181 10.5578 15.2397 10.4666 15.0256 10.3714C14.8121 10.2763 14.5781 10.193 14.3244 10.1222C14.0712 10.0509 13.8175 10.0152 13.5643 10.0152C12.867 10.0152 12.5181 10.2485 12.5181 10.7164C12.5181 10.8586 12.5561 10.9775 12.6314 11.0727C12.7062 11.1678 12.8172 11.2528 12.9639 11.3281C13.1106 11.4034 13.2947 11.4725 13.5167 11.536C13.7382 11.5994 13.9959 11.6708 14.2887 11.7501C14.6931 11.8611 15.0573 11.9817 15.3824 12.1126C15.707 12.2434 15.9823 12.4054 16.2083 12.5997C16.4337 12.794 16.6082 13.0296 16.7311 13.3066C16.854 13.5841 16.9151 13.9172 16.9151 14.3051C16.9151 14.7804 16.8262 15.1825 16.6478 15.511Z" fill="#FB9100"/>
<path d="M25.2227 23.6701L26.8788 22.0139L18.9956 19.9018L21.1077 27.785L22.7639 26.1289L25.635 29L28.0938 26.5412L25.2227 23.6701Z" fill="#FB9100"/>
</g>
<defs>
<clipPath id="clip0_14_71">
<rect width="29" height="29" fill="white"/>
</clipPath>
</defs>
</svg>
