<svg width="29" height="29" viewBox="0 0 29 29" fill="none" xmlns="http://www.w3.org/2000/svg">
<path d="M18.2852 22.3924V23.0682H5.74554V5.05433H18.2852V10.2096C18.4447 10.134 18.6252 10.0962 18.8099 10.0962H19.7503V2.73698C19.7503 1.83862 18.9946 1.06616 18.0753 1.06616H5.95124C5.03187 1.06616 4.2804 1.81761 4.2804 2.73698V26.263C4.2804 27.1949 5.04025 27.9338 5.95124 27.9338H18.0753C19.0072 27.9338 19.7503 27.1698 19.7503 26.263V22.5603H18.9149C18.684 22.5603 18.4699 22.5015 18.2852 22.3924ZM10.9469 2.64044H13.0796C13.3147 2.64044 13.4994 2.82936 13.4994 3.06025C13.4994 3.29114 13.3147 3.48006 13.0796 3.48006H10.9469C10.716 3.48006 10.5271 3.29114 10.5271 3.06025C10.5271 2.82936 10.716 2.64044 10.9469 2.64044ZM13.4028 26.0782H10.6237C10.3928 26.0782 10.2039 25.8936 10.2039 25.6584C10.2039 25.4275 10.3928 25.2386 10.6237 25.2386H13.4028C13.6379 25.2386 13.8226 25.4275 13.8226 25.6584C13.8226 25.8936 13.6379 26.0782 13.4028 26.0782Z" fill="#FB9100"/>
<path d="M14.6049 11.6437C14.7682 11.8058 15.0343 11.8067 15.1985 11.6408L16.953 9.86999C17.1151 9.70641 17.1151 9.4428 16.953 9.27922L15.1985 7.50837C15.0354 7.34356 14.7697 7.34274 14.6049 7.5055C14.4401 7.66867 14.4389 7.93453 14.602 8.09913L16.0638 9.57461L14.602 11.0501C14.4389 11.2147 14.4401 11.4805 14.6049 11.6437Z" fill="#FB9100"/>
<path d="M9.42335 7.50554C9.25875 7.34196 8.99268 7.34319 8.82972 7.50841L7.07547 9.27926C6.91332 9.44284 6.91332 9.70645 7.07547 9.87003L8.82972 11.6409C8.99278 11.8056 9.25842 11.807 9.42335 11.6438C9.58816 11.4806 9.58939 11.2147 9.42622 11.0501L7.96469 9.57464L9.42622 8.09917C9.58939 7.93457 9.58816 7.6687 9.42335 7.50554Z" fill="#FB9100"/>
<path d="M12.6911 6.31931L10.2269 12.5201C10.1413 12.7355 10.2466 12.9796 10.4621 13.0651C10.6763 13.1506 10.9211 13.0465 11.0071 12.83L13.4712 6.62924C13.5569 6.41379 13.4516 6.16966 13.2361 6.08418C13.0199 5.99748 12.7765 6.10387 12.6911 6.31931Z" fill="#FB9100"/>
<path d="M24.3287 15.3709L23.4066 15.2667C23.3065 14.8661 23.1433 14.4878 22.9356 14.1466V14.1429L23.4809 13.3743C23.6051 13.1992 23.5849 12.96 23.4331 12.8082L22.7727 12.1478C22.6142 11.9893 22.3618 11.9752 22.1866 12.1151L21.4632 12.6927C21.1183 12.4888 20.74 12.333 20.3357 12.2366L20.1787 11.3021C20.143 11.0901 19.9595 10.9348 19.7444 10.9348H18.808C18.584 10.9348 18.3956 11.1031 18.3705 11.3258L18.2662 12.2514C17.8657 12.3553 17.4873 12.5147 17.1461 12.7224L16.3743 12.1742C16.199 12.0496 15.9593 12.07 15.8075 12.2223L15.1497 12.8821C14.9918 13.0405 14.9777 13.2921 15.117 13.4671L15.696 14.1948C15.4883 14.5398 15.3325 14.918 15.2361 15.3223L14.3051 15.4792C14.0932 15.515 13.938 15.6985 13.938 15.9134V16.8466C13.938 17.0706 14.1061 17.2588 14.3287 17.2841L15.2472 17.3882C15.351 17.7887 15.5105 18.167 15.7219 18.5119V18.5156L15.1776 19.2804C15.0529 19.4555 15.0729 19.6951 15.2249 19.8471L15.8854 20.5075C16.0437 20.6658 16.2956 20.6801 16.4708 20.5407L17.1981 19.9621C17.543 20.1661 17.9213 20.3218 18.3218 20.4183L18.4789 21.3527C18.5146 21.5648 18.6981 21.7201 18.9131 21.7201H19.8495C20.0736 21.7201 20.262 21.5518 20.2871 21.3291L20.3914 20.4034C20.7919 20.3033 21.1702 20.1438 21.5114 19.9324L22.2832 20.4807C22.4586 20.6052 22.6982 20.5849 22.85 20.4326L23.508 19.7726C23.6659 19.6142 23.68 19.3627 23.5409 19.1877L22.9653 18.4637C23.1693 18.1151 23.325 17.7368 23.4215 17.3325L24.3525 17.1756C24.5644 17.1398 24.7196 16.9563 24.7196 16.7414V15.8084C24.7196 15.5844 24.5513 15.396 24.3287 15.3709ZM19.3306 18.1373C18.333 18.1373 17.5207 17.3288 17.5207 16.3274C17.5207 15.3297 18.333 14.5175 19.3306 14.5175C20.3283 14.5175 21.1368 15.3297 21.1368 16.3274C21.1368 17.3288 20.3283 18.1373 19.3306 18.1373Z" fill="#FB9100"/>
</svg>
