<svg width="29" height="29" viewBox="0 0 29 29" fill="none" xmlns="http://www.w3.org/2000/svg">
<g clip-path="url(#clip0_14_15)">
<path fill-rule="evenodd" clip-rule="evenodd" d="M7.3174 18.662C10.5085 18.662 13.0959 16.0746 13.0959 12.8835C13.0959 12.7498 13.0908 12.6178 13.0823 12.4864C11.5841 11.4182 10.5233 9.77787 10.2168 7.88437C9.3644 7.38877 8.37432 7.105 7.3174 7.105C4.12627 7.105 1.53893 9.69234 1.53893 12.8835C1.53893 16.0746 4.12627 18.662 7.3174 18.662ZM3.75924 11.724C3.79379 11.6176 3.88158 11.5451 3.9926 11.5315L6.14098 11.2613L7.06195 9.30152C7.10953 9.20014 7.20525 9.13953 7.3174 9.13953C7.42955 9.13953 7.52527 9.20014 7.57285 9.30152L8.49383 11.2613L10.6422 11.5315C10.7532 11.5456 10.841 11.6176 10.8756 11.724C10.9101 11.8305 10.8818 11.9404 10.8002 12.0169L9.22053 13.498L9.62777 15.6249C9.64873 15.7348 9.60682 15.8407 9.51676 15.9064C9.42613 15.9721 9.31285 15.9795 9.21486 15.9251L7.31797 14.8806L5.42107 15.9251C5.32309 15.9789 5.2098 15.9721 5.11918 15.9064C5.02855 15.8407 4.98664 15.7348 5.0076 15.6249L5.41484 13.498L3.83514 12.0169C3.75357 11.9404 3.72525 11.8305 3.7598 11.724H3.75924ZM17.1621 12.8835C20.5385 12.8835 23.2923 10.1296 23.2923 6.75326C23.2923 3.37691 20.5385 0.623047 17.1621 0.623047C13.7858 0.623047 11.0319 3.37691 11.0319 6.75326C11.0319 10.1296 13.7858 12.8835 17.1621 12.8835ZM17.2862 3.34066C17.7042 2.84279 19.234 2.34719 18.7328 6.03223H19.3802C20.8528 5.99484 20.9078 6.31146 20.9955 6.90166C21.076 7.44088 20.6925 9.63231 20.2881 10.0537C19.7449 10.5969 17.609 10.5589 16.8523 10.4213C16.3465 10.329 16.0922 10.1704 15.5059 10.1353L15.4997 6.34432C17.2476 6.08207 16.1352 4.71137 17.2862 3.34123V3.34066ZM13.3179 6.40549C13.3179 6.2367 13.4561 6.09906 13.6243 6.09906H14.5266C14.6954 6.09906 14.833 6.23727 14.833 6.40549V10.1347C14.833 10.3035 14.6948 10.4411 14.5266 10.4411H13.6243C13.4555 10.4411 13.3179 10.3029 13.3179 10.1347V6.40549ZM20.7157 18.5221H26.0796V11.8923H21.9675C20.7095 13.0687 19.0199 13.7897 17.1621 13.7897V18.5221H19.0205V20.6036L20.7157 18.5221ZM23.9924 14.5142C24.3753 14.5142 24.6851 14.8246 24.6851 15.2069C24.6851 15.5892 24.3747 15.8996 23.9924 15.8996C23.6101 15.8996 23.2997 15.5892 23.2997 15.2069C23.2997 14.8246 23.6101 14.5142 23.9924 14.5142ZM21.6214 14.5142C22.0043 14.5142 22.3141 14.8246 22.3141 15.2069C22.3141 15.5892 22.0037 15.8996 21.6214 15.8996C21.2391 15.8996 20.9287 15.5892 20.9287 15.2069C20.9287 14.8246 21.2391 14.5142 21.6214 14.5142ZM18.5572 15.2069C18.5572 14.824 18.8676 14.5142 19.2499 14.5142C19.6322 14.5142 19.9426 14.8246 19.9426 15.2069C19.9426 15.5892 19.6322 15.8996 19.2499 15.8996C18.8676 15.8996 18.5572 15.5892 18.5572 15.2069ZM28.3764 21.302C27.6049 22.3538 25.0686 23.8038 23.8667 24.4591C17.7534 27.7919 14.5408 29.5132 6.66887 27.5438C6.33695 27.4611 5.88779 27.3727 5.20018 27.3076V20.2887C8.20043 19.4855 9.29586 19.993 10.9928 20.3232C12.6496 20.6455 14.5176 20.6857 16.1998 20.7016C17.5088 20.714 18.1012 21.2164 18.1556 21.9539C18.185 22.3538 18.0746 22.6851 17.8599 22.9593C17.6826 23.1688 17.4193 23.3393 17.0998 23.477C16.4394 23.7619 15.5603 23.9063 14.6767 23.9714C13.4652 24.0609 12.2502 24.0003 11.5524 23.9471C11.3304 23.9307 11.1367 24.0972 11.1203 24.3192C11.1038 24.5412 11.2704 24.735 11.4924 24.7514C12.214 24.8069 13.4714 24.8692 14.7334 24.7757C15.6968 24.7044 16.6659 24.5424 17.4181 24.2178C18.2258 23.8695 18.7951 23.3376 18.897 22.5424L25.4186 19.9233C26.8782 19.3399 28.4166 19.7257 28.3758 21.3025L28.3764 21.302ZM4.29393 19.9987V27.4979C4.29393 27.8729 3.98693 28.1798 3.61197 28.1798H1.305C0.930039 28.1798 0.623047 27.8729 0.623047 27.4979V19.9987C0.623047 19.6237 0.930039 19.3167 1.305 19.3167H3.61254C3.9875 19.3167 4.29449 19.6237 4.29449 19.9987H4.29393Z" fill="#FB9100"/>
</g>
<defs>
<clipPath id="clip0_14_15">
<rect width="29" height="29" fill="white"/>
</clipPath>
</defs>
</svg>
