<svg width="29" height="29" viewBox="0 0 29 29" fill="none" xmlns="http://www.w3.org/2000/svg">
<g clip-path="url(#clip0_14_24)">
<path d="M6.51706 18.2229L8.02136 19.7272L10.5904 17.1332C8.12188 14.1908 7.59669 10.3038 8.74413 7.01253L12.1625 10.4309C12.1334 13.8678 14.9316 16.8715 18.5826 16.8715C20.726 16.8715 22.6271 15.8156 23.7938 14.1969L19.9127 10.3157L17.2213 13.0073L7.21222 2.99814V5.26764H5.45691L5.45697 0.00170898H10.7228V1.75696L8.4534 1.75702L17.2213 10.525L19.9127 7.83337L24.6449 12.5655C25.421 10.3467 24.9487 7.73759 23.1226 5.91137C20.7829 3.57177 17.1078 3.42187 14.5976 5.41672L11.7597 2.57874C15.8478 -0.974945 22.0507 -0.813223 25.9489 3.08497C27.9164 5.0525 28.9999 7.66855 28.9999 10.4511C28.9999 16.1953 24.3268 20.8687 18.5826 20.8687C16.0781 20.8687 13.7089 19.9905 11.8257 18.3804L9.26248 20.9685L10.7729 22.4789L4.25598 28.996L0 24.74L6.51706 18.2229Z" fill="#FB9100"/>
<path d="M14.9271 23.7323H28.9695V25.4876H14.9271V23.7323Z" fill="#FB9100"/>
<path d="M9.66113 27.2429H20.193V28.9982H9.66113V27.2429Z" fill="#FB9100"/>
</g>
<defs>
<clipPath id="clip0_14_24">
<rect width="29" height="29" fill="white"/>
</clipPath>
</defs>
</svg>
