<svg width="29" height="29" viewBox="0 0 29 29" fill="none" xmlns="http://www.w3.org/2000/svg">
<path d="M20.3127 11.7151C20.7377 10.846 21.4745 10.1926 22.3907 9.87722C22.7741 9.74491 23.1692 9.69416 23.5625 9.69234V4.53125C23.5625 3.03231 22.3427 1.8125 20.8438 1.8125H6.34375C4.84481 1.8125 3.625 3.03231 3.625 4.53125V22.6562C3.625 24.1552 4.84481 25.375 6.34375 25.375H15.36L15.2622 25.0904C14.8679 23.9404 14.945 22.7115 15.4769 21.6249L20.3127 11.7151ZM7.25 7.25H18.125C18.6262 7.25 19.0312 7.656 19.0312 8.15625C19.0312 8.6565 18.6262 9.0625 18.125 9.0625H7.25C6.74884 9.0625 6.34375 8.6565 6.34375 8.15625C6.34375 7.656 6.74884 7.25 7.25 7.25ZM7.25 10.875H17.2188C17.7199 10.875 18.125 11.281 18.125 11.7812C18.125 12.2815 17.7199 12.6875 17.2188 12.6875H7.25C6.74884 12.6875 6.34375 12.2815 6.34375 11.7812C6.34375 11.281 6.74884 10.875 7.25 10.875ZM13.5938 19.9375H7.25C6.74884 19.9375 6.34375 19.5315 6.34375 19.0312C6.34375 18.531 6.74884 18.125 7.25 18.125H13.5938C14.0949 18.125 14.5 18.531 14.5 19.0312C14.5 19.5315 14.0949 19.9375 13.5938 19.9375ZM7.25 16.3125C6.74884 16.3125 6.34375 15.9065 6.34375 15.4062C6.34375 14.906 6.74884 14.5 7.25 14.5H15.4062C15.9074 14.5 16.3125 14.906 16.3125 15.4062C16.3125 15.9065 15.9074 16.3125 15.4062 16.3125H7.25ZM26.8286 14.8942L21.9911 24.8077C21.6712 25.4611 21.1174 25.9505 20.4314 26.1861L18.7177 26.7752C18.6207 26.8087 18.5201 26.825 18.4232 26.825C18.0471 26.825 17.6954 26.5894 17.5668 26.2133L16.9768 24.4996C16.7402 23.8108 16.7865 23.0731 17.1055 22.4215L21.943 12.5099C22.1542 12.0749 22.5239 11.7486 22.9816 11.5909C23.4383 11.4333 23.9304 11.4622 24.3654 11.6761L25.9949 12.4709C26.4299 12.683 26.7561 13.0527 26.9138 13.5104C27.0715 13.968 27.0416 14.4592 26.8286 14.8942Z" fill="#FB9100"/>
</svg>
