<svg width="32" height="32" viewBox="0 0 32 32" fill="none" xmlns="http://www.w3.org/2000/svg">
<path d="M30 2C28.896 2 28 2.896 28 4C28 4.178 28.031 4.347 28.074 4.512L21.511 11.075C21.348 11.031 21.178 11 21 11C20.785 11 20.583 11.042 20.39 11.105L12.955 4.415C12.984 4.281 13 4.143 13 4C13 2.896 12.104 2 11 2C9.907 2 9.022 2.877 9.004 3.965L3.021 7.289C2.721 7.109 2.375 7 2 7C0.896 7 0 7.896 0 9C0 10.104 0.896 11 2 11C3.093 11 3.978 10.123 3.996 9.035L9.978 5.711C10.279 5.891 10.625 6 11 6C11.215 6 11.417 5.958 11.611 5.895L19.045 12.585C19.016 12.719 19 12.857 19 13C19 14.104 19.896 15 21 15C22.104 15 23 14.104 23 13C23 12.822 22.969 12.653 22.926 12.488L29.489 5.925C29.652 5.969 29.822 6 30 6C31.104 6 32 5.104 32 4C32 2.896 31.104 2 30 2ZM2 13V28C2 29.1 2.9 30 4 30H8C9.1 30 10 29.1 10 28V7.987L5.764 10.341C5.207 11.886 3.721 13 2 13ZM17.026 13.459L12 8.936V28C12 29.1 12.9 30 14 30H18C19.1 30 20 29.1 20 28V16.857C18.424 16.447 17.217 15.112 17.026 13.459ZM22 16.857V28C22 29.1 22.9 30 24 30H28C29.1 30 30 29.1 30 28V8.242L24.992 13.25C24.884 14.998 23.643 16.431 22 16.857Z" fill="black"/>
</svg>
