<svg width="41" height="40" viewBox="0 0 41 40" fill="none" xmlns="http://www.w3.org/2000/svg">
<path fill-rule="evenodd" clip-rule="evenodd" d="M29.7092 26.2788L27.1712 23.7958C26.4597 24.7893 25.6374 25.6968 24.722 26.4993L27.1813 28.9053L29.7092 26.2788ZM14.3895 10.7982C12.3575 10.7982 10.7106 12.4586 10.7106 14.5073C10.7106 16.5559 12.3575 18.2163 14.3895 18.2163C16.4214 18.2163 18.0683 16.5559 18.0683 14.5073C18.0684 12.4586 16.4214 10.7982 14.3895 10.7982ZM14.3895 3.73571C8.4887 3.73571 3.70529 8.55828 3.70529 14.5073C3.70529 20.4564 8.48879 25.2789 14.3895 25.2789C20.2901 25.2789 25.0735 20.4563 25.0735 14.5073C25.0735 8.55819 20.2901 3.73571 14.3895 3.73571ZM21.9116 15.2971C21.9116 15.4425 21.8272 15.5664 21.6927 15.6186L20.6651 16.0174C20.5071 16.687 20.2437 17.3265 19.8858 17.9126L20.333 18.928C20.3915 19.0609 20.3643 19.2087 20.2624 19.3114L19.1545 20.4284C19.0526 20.5311 18.906 20.5586 18.7742 20.4996L17.7675 20.0488C17.1861 20.4098 16.5515 20.6753 15.8872 20.8346L15.4918 21.8703C15.4401 22.006 15.3172 22.091 15.173 22.091H13.6062C13.462 22.091 13.3391 22.006 13.2873 21.8703L12.8918 20.8343C12.2276 20.675 11.5933 20.4095 11.012 20.0485L10.0048 20.4995C9.87305 20.5585 9.72647 20.5311 9.62457 20.4282L8.51663 19.3113C8.41473 19.2086 8.38748 19.0608 8.44599 18.9279L8.89315 17.913C8.53508 17.3268 8.27183 16.687 8.11372 16.0173L7.08642 15.6186C6.95189 15.5664 6.86749 15.4425 6.86749 15.2971V13.7175C6.86749 13.5721 6.95189 13.4483 7.08642 13.396L8.11389 12.9973C8.27191 12.3277 8.53525 11.6881 8.89323 11.102L8.44599 10.0868C8.38748 9.95396 8.41473 9.8061 8.51663 9.70336L9.62449 8.58636C9.72639 8.48362 9.87296 8.45615 10.0048 8.51514L11.0119 8.96604C11.5933 8.60521 12.2276 8.33972 12.8917 8.1804L13.2872 7.14434C13.339 7.00871 13.4619 6.92363 13.6061 6.92363H15.1729C15.3171 6.92363 15.44 7.00871 15.4918 7.14434L15.8873 8.1804C16.5514 8.33972 17.1858 8.60521 17.7671 8.96604L18.7742 8.51514C18.906 8.45615 19.0526 8.48362 19.1545 8.58636L20.2624 9.70328C20.3643 9.80602 20.3916 9.95379 20.3331 10.0867L19.8859 11.1016C20.244 11.6878 20.5073 12.3276 20.6653 12.9973L21.6927 13.396C21.8272 13.4482 21.9116 13.5721 21.9116 13.7175V15.2971ZM37.7792 39.6012C37.2782 40.1218 36.4458 40.1343 35.9295 39.6292L28.0274 31.8987C27.5111 31.3936 27.4986 30.5542 27.9996 30.0338L30.8526 27.0695C31.3535 26.549 32.1862 26.5363 32.7023 27.0415L40.6044 34.7722C41.1207 35.2774 41.1334 36.1164 40.6322 36.637L37.7792 39.6012ZM14.3895 0C6.44238 0 0 6.49512 0 14.5073C0 22.5194 6.44238 29.0146 14.3895 29.0146C22.3364 29.0146 28.7789 22.5195 28.7789 14.5073C28.7789 6.49512 22.3365 0 14.3895 0ZM14.3895 26.6567C7.73447 26.6567 2.33862 21.2168 2.33862 14.5073C2.33862 7.7977 7.73447 2.35785 14.3895 2.35785C21.0444 2.35785 26.4402 7.79788 26.4402 14.5073C26.4402 21.2167 21.0444 26.6567 14.3895 26.6567Z" fill="url(#paint0_linear_1677_1054)"/>
<defs>
<linearGradient id="paint0_linear_1677_1054" x1="20.5" y1="0" x2="20.5" y2="40" gradientUnits="userSpaceOnUse">
<stop stop-color="#FB9100"/>
<stop offset="1" stop-color="#CF7800"/>
</linearGradient>
</defs>
</svg>
