<svg width="41" height="40" viewBox="0 0 41 40" fill="none" xmlns="http://www.w3.org/2000/svg">
<path d="M31.4225 9.28223H9.30651C6.42384 9.28223 4.08789 11.6187 4.08789 14.5009V29.309C4.08789 32.1912 6.42384 34.5276 9.30651 34.5276H13.289V39.9578C13.289 39.992 13.3276 40.0121 13.3555 39.992L21.5085 34.5873L23.5533 34.5491H29.2903L31.4225 34.5276C34.3047 34.5276 36.6411 32.1912 36.6411 29.309V14.5009C36.6411 11.6187 34.3047 9.28223 31.4225 9.28223ZM12.5312 17.127C12.5312 15.6847 13.7004 14.515 15.1432 14.515C16.5855 14.515 17.7547 15.6847 17.7547 17.127C17.7547 18.5698 16.5855 19.739 15.1432 19.739C13.7004 19.739 12.5312 18.5698 12.5312 17.127ZM20.2441 30.1792C16.9329 30.1792 14.1978 27.8589 13.7796 24.8536H26.7091C26.2904 27.8589 23.5557 30.1792 20.2441 30.1792ZM25.6186 19.739C24.1762 19.739 23.0066 18.5698 23.0066 17.127C23.0066 15.6847 24.1762 14.515 25.6186 14.515C27.0614 14.515 28.2306 15.6847 28.2306 17.127C28.2306 18.5698 27.0614 19.739 25.6186 19.739Z" fill="black"/>
<path d="M37.7197 26.7154V17.3677H39.0135C39.9609 17.3677 40.7289 18.1357 40.7289 19.0831V25.0004C40.7289 25.9478 39.9609 26.7159 39.0135 26.7159H37.7197V26.7154Z" fill="black"/>
<path d="M0 25.0004V19.0831C0 18.1357 0.768063 17.3677 1.71544 17.3677H3.00922V26.7159H1.71544C0.768063 26.7154 0 25.9473 0 25.0004Z" fill="black"/>
<path d="M22.7815 2.53725C22.7815 3.68201 22.0198 4.65186 20.9767 4.967V7.16028H19.5109V4.967C18.4678 4.65186 17.7061 3.68201 17.7061 2.53725C17.7061 1.13841 18.8445 0 20.2438 0C21.6431 0 22.7815 1.13841 22.7815 2.53725Z" fill="black"/>
</svg>
