<svg width="30" height="30" viewBox="0 0 30 30" fill="none" xmlns="http://www.w3.org/2000/svg">
<path d="M28.1065 17.8024C27.5195 16.8893 26.9325 16.0088 26.3455 15.0957C26.2151 14.9 26.2151 14.7696 26.3455 14.5739C26.9325 13.6934 27.4869 12.8129 28.0739 11.9324C28.7588 10.8888 28.4 9.87783 27.226 9.45388C26.2477 9.09515 25.2693 8.70381 24.291 8.34509C24.0953 8.27986 23.9975 8.14942 23.9975 7.92113C23.9649 6.84495 23.8996 5.76877 23.8344 4.7252C23.7692 3.58379 22.8887 2.93156 21.7799 3.22506C20.7363 3.48596 19.6927 3.77946 18.6818 4.07297C18.4535 4.13819 18.3231 4.07297 18.16 3.90991C17.5078 3.06201 16.8229 2.24672 16.1707 1.43143C15.4532 0.518301 14.3444 0.518301 13.5944 1.43143C12.9421 2.24672 12.2573 3.06201 11.6377 3.8773C11.4746 4.10558 11.3116 4.13819 11.0507 4.07297C10.0397 3.77946 9.02875 3.51857 8.3113 3.3229C6.909 2.99678 6.0611 3.55118 5.99588 4.7252C5.93065 5.80138 5.86543 6.87757 5.83282 7.98636C5.83282 8.21464 5.73498 8.31247 5.53932 8.41031C4.52835 8.80165 3.5174 9.19299 2.50644 9.58433C1.46287 10.0083 1.13675 11.0192 1.75637 11.965C2.34338 12.8781 2.93039 13.7586 3.51739 14.6717C3.64784 14.8674 3.64784 14.9978 3.51739 15.2261C2.89777 16.1393 2.31077 17.0524 1.72376 17.9981C1.16936 18.8786 1.52808 19.9222 2.50643 20.3135C3.51739 20.7049 4.56096 21.0962 5.57192 21.4876C5.8002 21.5528 5.86542 21.6832 5.86542 21.9115C5.89804 22.9551 6.02848 23.966 6.02848 25.0096C6.02848 26.0532 6.9416 26.9989 8.21345 26.6076C9.22442 26.2815 10.2354 26.0532 11.2463 25.7597C11.442 25.6944 11.5724 25.7271 11.7029 25.9227C12.3877 26.7706 13.04 27.5859 13.7248 28.4338C14.4749 29.3469 15.5511 29.3469 16.2685 28.4338C16.9534 27.5859 17.6056 26.7706 18.2904 25.9227C18.4209 25.7597 18.5187 25.6944 18.747 25.7597C19.7906 26.0532 20.8341 26.3141 21.8777 26.6076C22.9539 26.9011 23.867 26.2488 23.8996 25.1401C23.9648 24.0639 24.0301 22.9877 24.0627 21.8789C24.0627 21.618 24.1931 21.5202 24.3888 21.455C25.3671 21.0962 26.3781 20.7049 27.3565 20.3135C28.4 19.7918 28.7262 18.7482 28.1065 17.8024ZM20.3124 12.4542L13.79 18.9765C13.627 19.1395 13.3987 19.27 13.1704 19.3026C13.1052 19.3026 13.0074 19.3352 12.9422 19.3352C12.6486 19.3352 12.3225 19.2048 12.0942 18.9765L9.4201 16.3023C8.96354 15.8458 8.96354 15.0957 9.4201 14.6391C9.87666 14.1826 10.6267 14.1826 11.0833 14.6391L12.9095 16.4654L18.584 10.791C19.0405 10.3344 19.7906 10.3344 20.2471 10.791C20.7689 11.2475 20.7689 11.9976 20.3124 12.4542Z" fill="#FEDAAA"/>
</svg>
