<svg width="49" height="40" viewBox="0 0 49 40" fill="none" xmlns="http://www.w3.org/2000/svg">
<path d="M15.2127 28.1833H0L0.0547422 27.8091C0.311418 26.1128 1.02067 24.5643 2.10202 23.4798C2.58524 22.9811 3.16338 22.5855 3.80195 22.3165C4.44052 22.0474 5.12642 21.9105 5.81875 21.9139H9.39403C10.0863 21.9105 10.7722 22.0475 11.4108 22.3165C12.0493 22.5855 12.6274 22.9812 13.1107 23.4798C14.1921 24.5643 14.9013 26.1128 15.1578 27.8091L15.2127 28.1833ZM41.4254 20.4812H41.434C42.4248 20.4776 43.374 20.0797 44.0741 19.3746C44.7743 18.6695 45.1686 17.7144 45.1709 16.7179V15.5812C45.1688 14.5836 44.7738 13.6275 44.0723 12.9221C43.3709 12.2166 42.4202 11.8194 41.4283 11.8172C40.4153 11.8104 39.4405 12.2052 38.715 12.9161C38.3636 13.2638 38.0851 13.6787 37.8959 14.1365C37.7068 14.5942 37.6107 15.0854 37.6135 15.5811V16.7179C37.6105 17.2136 37.7064 17.7049 37.8956 18.1627C38.0848 18.6205 38.3634 19.0354 38.715 19.3829C39.4399 20.0929 40.4135 20.4874 41.4254 20.4812ZM39.606 21.9138C38.9132 21.9104 38.2269 22.0473 37.5879 22.3164C36.9489 22.5854 36.3702 22.981 35.8865 23.4797C34.8081 24.5642 34.0959 26.1127 33.8422 27.809L33.7847 28.1832H49L48.9452 27.809C48.6886 26.1127 47.9793 24.5642 46.898 23.4797C46.4144 22.9808 45.8358 22.585 45.1967 22.316C44.5577 22.0469 43.8713 21.9102 43.1785 21.9138H39.606ZM7.63807 20.4812H7.64668C8.63751 20.4776 9.58665 20.0797 10.2868 19.3746C10.9869 18.6695 11.3812 17.7144 11.3835 16.7179V15.5812C11.3815 14.584 10.987 13.6282 10.2862 12.9227C9.5854 12.2173 8.63535 11.8196 7.64381 11.8167C6.62985 11.8095 5.65392 12.2045 4.92766 12.9161C4.57729 13.2643 4.29963 13.6793 4.11098 14.1369C3.92233 14.5945 3.82648 15.0854 3.82908 15.5807V16.7179C3.82615 17.2134 3.92184 17.7044 4.11051 18.1621C4.29918 18.6197 4.57702 19.0348 4.92766 19.3829C5.65257 20.0929 6.6262 20.4874 7.63807 20.4812ZM30.3907 6.26646L29.4882 8.43264L36.3768 6.37378L32.9917 0L32.095 2.15751C23.7504 -1.06133 15.1607 2.42431 12.6232 8.33408C16.8907 5.0544 23.9753 3.39864 30.3907 6.26646ZM18.6097 33.7334L19.5093 31.5645L12.6232 33.6262L16.0083 40L16.905 37.8396C25.2466 41.0612 33.839 37.5728 36.3764 31.663C32.1092 34.9456 25.0219 36.6014 18.6093 33.7334H18.6097ZM31.0511 21.5456C30.8849 22.2601 30.6045 22.9427 30.2207 23.5668L30.6041 24.2134L31.074 25.0049C30.6171 25.6114 30.0796 26.152 29.4766 26.6115L28.6894 26.1389L28.0465 25.7532C27.4259 26.1392 26.7472 26.4212 26.0367 26.5883L25.8522 27.322L25.6273 28.2151C24.8781 28.3167 24.1188 28.3167 23.3696 28.2151L23.1476 27.322L22.9631 26.5883C22.2526 26.4212 21.5739 26.1392 20.9533 25.7532L20.3074 26.1389L19.5203 26.6115C19.2206 26.3814 18.9365 26.1314 18.6698 25.8634C18.4025 25.5947 18.154 25.3079 17.9259 25.0049L18.3959 24.2133L18.7793 23.5667C18.3932 22.9438 18.1126 22.2608 17.949 21.5455L17.2195 21.3599L16.3315 21.1337C16.2276 20.3805 16.2276 19.6164 16.3315 18.8632L17.2195 18.6399L17.949 18.4543C18.1139 17.7394 18.3944 17.0566 18.7793 16.4331L18.3959 15.7835L17.9259 14.9919C18.384 14.3883 18.9202 13.849 19.5204 13.3884L20.3075 13.861L20.9534 14.2466C21.5733 13.8586 22.2522 13.5755 22.9632 13.4086L23.1477 12.6779L23.3697 11.7848C24.1187 11.6804 24.8784 11.6804 25.6274 11.7848L25.8523 12.6779L26.0368 13.4086C26.7478 13.5755 27.4267 13.8586 28.0466 14.2466L28.6895 13.861L29.4767 13.3884C30.0794 13.8471 30.6168 14.3866 31.074 14.9919L30.604 15.7835L30.2206 16.4302C30.6039 17.0556 30.8843 17.7391 31.051 18.4543L31.7805 18.6399L32.6685 18.8632C32.7695 19.6166 32.7695 20.3803 32.6685 21.1337L31.7805 21.3599L31.0511 21.5456ZM28.8221 20C28.8224 19.1399 28.5691 18.299 28.0941 17.5837C27.6191 16.8684 26.9439 16.3109 26.1538 15.9816C25.3637 15.6523 24.4943 15.5661 23.6554 15.7338C22.8166 15.9015 22.0461 16.3157 21.4413 16.9239C20.8366 17.5321 20.4248 18.307 20.258 19.1506C20.0912 19.9942 20.177 20.8686 20.5044 21.6632C20.8318 22.4578 21.3862 23.1369 22.0974 23.6146C22.8086 24.0923 23.6448 24.3471 24.5 24.3468C25.6455 24.3443 26.7434 23.8855 27.5535 23.0709C28.3635 22.2562 28.8196 21.1521 28.8221 20Z" fill="url(#paint0_linear_1757_69)"/>
<defs>
<linearGradient id="paint0_linear_1757_69" x1="24.5" y1="0" x2="24.5" y2="40" gradientUnits="userSpaceOnUse">
<stop stop-color="#FB9100"/>
<stop offset="1" stop-color="#CF7800"/>
</linearGradient>
</defs>
</svg>
