<svg width="60" height="60" viewBox="0 0 60 60" fill="none" xmlns="http://www.w3.org/2000/svg">
<g clip-path="url(#clip0_1649_690)">
<path d="M16.9102 17.0909L18.9102 17.4545C19.092 18.1818 19.4557 19 19.8193 19.7272L18.6375 21.4545C18.3648 21.8181 18.4557 22.2727 18.7284 22.6363L21.5466 25.4545C21.8193 25.8181 22.3648 25.8181 22.7284 25.5454L24.4557 24.3636C25.1829 24.7272 25.9102 25.0909 26.6375 25.2727L27.0011 27.2727C27.092 27.7272 27.4557 28 27.9102 28H31.9102C32.3648 28 32.7284 27.7272 32.8193 27.2727L33.183 25.2727C33.9102 25.0909 34.7284 24.7272 35.3648 24.3636L37.092 25.5454C37.4557 25.8181 37.9102 25.7272 38.2739 25.4545L41.092 22.6363C41.4557 22.3636 41.4557 21.8181 41.183 21.4545L40.0011 19.7272C40.3648 19 40.7284 18.2727 40.9102 17.5454L42.9102 17.1818C43.3648 17.0909 43.6375 16.7272 43.6375 16.2727V12.2727C43.6375 11.8181 43.3648 11.4545 42.9102 11.3636L40.9102 11C40.7284 10.2727 40.3648 9.4545 40.0011 8.72723L41.183 7.09087C41.4557 6.72723 41.3648 6.27268 41.092 5.90905L38.2739 3.09086C38.0011 2.81814 37.4557 2.72723 37.092 2.99996L35.3648 4.18177C34.6375 3.81814 33.9102 3.4545 33.183 3.27268L32.8193 1.27268C32.7284 0.818137 32.3648 0.54541 31.9102 0.54541H27.9102C27.4557 0.54541 27.092 0.909046 27.0011 1.27268L26.6375 3.27268C25.8193 3.4545 25.092 3.81814 24.3648 4.18177L22.7284 2.99996C22.5466 2.72723 22.092 2.72723 21.7284 2.99996L18.9102 5.81814C18.6375 6.09087 18.5466 6.63632 18.8193 6.99996L20.0011 8.72723C19.6375 9.4545 19.2739 10.1818 19.092 10.909L17.092 11.2727C16.6375 11.3636 16.3648 11.7272 16.3648 12.1818V16.1818C16.1829 16.6363 16.5466 17 16.9102 17.0909ZM30.0011 8.09086C33.4557 8.09086 36.183 10.909 36.183 14.2727C36.183 17.7272 33.3648 20.4545 30.0011 20.4545C26.5466 20.4545 23.8193 17.6363 23.8193 14.2727C23.8193 10.8181 26.5466 8.09086 30.0011 8.09086Z" fill="white"/>
<path d="M11.818 34.7273C15.4544 34.7273 18.4544 31.7273 18.4544 28.091C18.4544 24.4546 15.4544 21.4546 11.818 21.4546C8.18164 21.4546 5.18164 24.4546 5.18164 28.091C5.18164 31.7273 8.09073 34.7273 11.818 34.7273Z" fill="white"/>
<path d="M23.0914 47.5453C23.0914 41.2725 18.0005 36.1816 11.8187 36.1816C5.54599 36.1816 0.455078 41.2725 0.455078 47.5453C0.455078 47.9998 0.818714 48.4544 1.36417 48.4544H22.1824C22.7278 48.4544 23.0914 48.0907 23.0914 47.5453Z" fill="white"/>
<path d="M41.5469 28.091C41.5469 31.7273 44.5469 34.7273 48.1832 34.7273C51.8196 34.7273 54.8196 31.7273 54.8196 28.091C54.8196 24.4546 51.8196 21.4546 48.1832 21.4546C44.5469 21.4546 41.5469 24.3637 41.5469 28.091Z" fill="white"/>
<path d="M30.0004 47.3638C23.7276 47.3638 18.6367 52.4547 18.6367 58.6365C18.6367 59.182 19.0004 59.5456 19.5458 59.5456H40.364C40.8185 59.5456 41.2731 59.182 41.2731 58.6365C41.364 52.3638 36.2731 47.3638 30.0004 47.3638Z" fill="white"/>
<path d="M48.182 36.2725C41.9093 36.2725 36.8184 41.3634 36.8184 47.6361C36.8184 48.0906 37.182 48.5452 37.7275 48.5452H58.5456C59.0911 48.5452 59.4547 48.0906 59.4547 47.6361C59.5456 41.3634 54.4547 36.2725 48.182 36.2725Z" fill="white"/>
<path d="M29.9996 32.4546C26.3633 32.4546 23.3633 35.4546 23.3633 39.091C23.3633 42.7273 26.3633 45.7273 29.9996 45.7273C33.636 45.7273 36.636 42.7273 36.636 39.091C36.636 35.4546 33.636 32.4546 29.9996 32.4546Z" fill="white"/>
<path d="M45.0009 6.36359C45.5463 6.36359 45.91 5.99996 45.91 5.4545C45.91 4.90905 45.5463 4.54541 45.0009 4.54541C44.5463 4.54541 44.0918 4.90905 44.0918 5.4545C44.0918 5.90905 44.5463 6.36359 45.0009 6.36359Z" fill="white"/>
<path d="M50.1827 7.36359C50.3645 7.36359 50.5464 7.27268 50.7282 7.18177C51.0009 6.99996 51.0918 6.72723 51.0918 6.4545C51.0918 6.27268 51.0009 6.09086 50.91 5.90905C50.7282 5.63632 50.4555 5.54541 50.1827 5.54541C50.0009 5.54541 49.8191 5.63632 49.6373 5.72723C49.2736 5.99996 49.1827 6.54541 49.4555 6.99996C49.6373 7.18177 49.91 7.36359 50.1827 7.36359Z" fill="white"/>
<path d="M50.6376 12.7274C51.1397 12.7274 51.5467 12.3203 51.5467 11.8183C51.5467 11.3162 51.1397 10.9092 50.6376 10.9092C50.1355 10.9092 49.7285 11.3162 49.7285 11.8183C49.7285 12.3203 50.1355 12.7274 50.6376 12.7274Z" fill="white"/>
<path d="M50.6376 15.4544C51.1397 15.4544 51.5467 15.0474 51.5467 14.5453C51.5467 14.0432 51.1397 13.6362 50.6376 13.6362C50.1355 13.6362 49.7285 14.0432 49.7285 14.5453C49.7285 15.0474 50.1355 15.4544 50.6376 15.4544Z" fill="white"/>
<path d="M47.7275 6.36359C48.2295 6.36359 48.6365 5.95658 48.6365 5.4545C48.6365 4.95242 48.2295 4.54541 47.7275 4.54541C47.2254 4.54541 46.8184 4.95242 46.8184 5.4545C46.8184 5.95658 47.2254 6.36359 47.7275 6.36359Z" fill="white"/>
<path d="M50.6365 19.0908C50.2729 19.0908 49.9093 19.3635 49.8184 19.7272C50.4547 19.8181 51.0002 19.9999 51.5456 20.2726C51.5456 20.1817 51.5456 20.0908 51.5456 19.9999C51.5456 19.5454 51.0911 19.0908 50.6365 19.0908Z" fill="white"/>
<path d="M50.6376 9.99982C51.1397 9.99982 51.5467 9.59281 51.5467 9.09073C51.5467 8.58865 51.1397 8.18164 50.6376 8.18164C50.1355 8.18164 49.7285 8.58865 49.7285 9.09073C49.7285 9.59281 50.1355 9.99982 50.6376 9.99982Z" fill="white"/>
<path d="M50.6376 18.182C51.1397 18.182 51.5467 17.7749 51.5467 17.2729C51.5467 16.7708 51.1397 16.3638 50.6376 16.3638C50.1355 16.3638 49.7285 16.7708 49.7285 17.2729C49.7285 17.7749 50.1355 18.182 50.6376 18.182Z" fill="white"/>
<path d="M9.36417 18.182C9.86625 18.182 10.2733 17.7749 10.2733 17.2729C10.2733 16.7708 9.86625 16.3638 9.36417 16.3638C8.86209 16.3638 8.45508 16.7708 8.45508 17.2729C8.45508 17.7749 8.86209 18.182 9.36417 18.182Z" fill="white"/>
<path d="M9.36417 15.4544C9.86625 15.4544 10.2733 15.0474 10.2733 14.5453C10.2733 14.0432 9.86625 13.6362 9.36417 13.6362C8.86209 13.6362 8.45508 14.0432 8.45508 14.5453C8.45508 15.0474 8.86209 15.4544 9.36417 15.4544Z" fill="white"/>
<path d="M10.2741 19.7272C10.1832 19.3635 9.8196 19.0908 9.45597 19.0908C8.91051 19.0908 8.54688 19.4545 8.54688 19.9999V20.2726C9.09233 19.9999 9.63778 19.909 10.2741 19.7272Z" fill="white"/>
<path d="M9.36417 12.7274C9.86625 12.7274 10.2733 12.3203 10.2733 11.8183C10.2733 11.3162 9.86625 10.9092 9.36417 10.9092C8.86209 10.9092 8.45508 11.3162 8.45508 11.8183C8.45508 12.3203 8.86209 12.7274 9.36417 12.7274Z" fill="white"/>
<path d="M12.2724 6.36359C12.7744 6.36359 13.1815 5.95658 13.1815 5.4545C13.1815 4.95242 12.7744 4.54541 12.2724 4.54541C11.7703 4.54541 11.3633 4.95242 11.3633 5.4545C11.3633 5.95658 11.7703 6.36359 12.2724 6.36359Z" fill="white"/>
<path d="M15.0009 6.36359C15.503 6.36359 15.91 5.95658 15.91 5.4545C15.91 4.95242 15.503 4.54541 15.0009 4.54541C14.4988 4.54541 14.0918 4.95242 14.0918 5.4545C14.0918 5.95658 14.4988 6.36359 15.0009 6.36359Z" fill="white"/>
<path d="M9.81944 7.36359C10.0922 7.36359 10.3649 7.27268 10.5467 6.99996C10.6376 6.81814 10.7285 6.63632 10.7285 6.4545C10.7285 6.18177 10.6376 5.90905 10.3649 5.72723C10.1831 5.63632 10.0013 5.54541 9.81944 5.54541C9.54672 5.54541 9.27399 5.63632 9.09217 5.90905C8.81944 6.36359 8.91035 6.90905 9.27399 7.18177C9.45581 7.27268 9.63762 7.36359 9.81944 7.36359Z" fill="white"/>
<path d="M9.36417 9.99982C9.86625 9.99982 10.2733 9.59281 10.2733 9.09073C10.2733 8.58865 9.86625 8.18164 9.36417 8.18164C8.86209 8.18164 8.45508 8.58865 8.45508 9.09073C8.45508 9.59281 8.86209 9.99982 9.36417 9.99982Z" fill="white"/>
</g>
<defs>
<clipPath id="clip0_1649_690">
<rect width="60" height="60" fill="white"/>
</clipPath>
</defs>
</svg>
