<svg width="40" height="40" viewBox="0 0 40 40" fill="none" xmlns="http://www.w3.org/2000/svg">
<g clip-path="url(#clip0_1677_1003)">
<path d="M11.2728 11.3941L12.6062 11.6365C12.7274 12.1213 12.9698 12.6668 13.2122 13.1516L12.4243 14.3032C12.2425 14.5456 12.3031 14.8486 12.485 15.091L14.3637 16.9698C14.5456 17.2123 14.9092 17.2123 15.1516 17.0304L16.3031 16.2426C16.788 16.485 17.2728 16.7274 17.7577 16.8486L18.0001 18.182C18.0607 18.485 18.3031 18.6668 18.6062 18.6668H21.2728C21.5759 18.6668 21.8183 18.485 21.8789 18.182L22.1213 16.8486C22.6062 16.7274 23.1516 16.485 23.5759 16.2426L24.7274 17.0304C24.9698 17.2123 25.2728 17.1516 25.5153 16.9698L27.394 15.091C27.6365 14.9092 27.6365 14.5456 27.4546 14.3032L26.6668 13.1516C26.9092 12.6668 27.1516 12.182 27.2728 11.6971L28.6062 11.4547C28.9092 11.3941 29.091 11.1516 29.091 10.8486V8.18195C29.091 7.87892 28.9092 7.6365 28.6062 7.57589L27.2728 7.33347C27.1516 6.84862 26.9092 6.30316 26.6668 5.81832L27.4546 4.72741C27.6365 4.48498 27.5759 4.18195 27.394 3.93953L25.5153 2.06074C25.3334 1.87892 24.9698 1.81831 24.7274 2.00013L23.5759 2.78801C23.091 2.54559 22.6062 2.30316 22.1213 2.18195L21.8789 0.848618C21.8183 0.545588 21.5759 0.36377 21.2728 0.36377H18.6062C18.3031 0.36377 18.0607 0.606194 18.0001 0.848618L17.7577 2.18195C17.2122 2.30316 16.7274 2.54559 16.2425 2.78801L15.1516 2.00013C15.0304 1.81831 14.7274 1.81831 14.485 2.00013L12.6062 3.87892C12.4243 4.06074 12.3637 4.42438 12.5456 4.6668L13.3334 5.81832C13.091 6.30316 12.8486 6.78801 12.7274 7.27286L11.394 7.51528C11.091 7.57589 10.9092 7.81831 10.9092 8.12135V10.788C10.788 11.091 11.0304 11.3335 11.2728 11.3941ZM20.0001 5.39407C22.3031 5.39407 24.1213 7.27286 24.1213 9.51528C24.1213 11.8183 22.2425 13.6365 20.0001 13.6365C17.6971 13.6365 15.8789 11.7577 15.8789 9.51528C15.8789 7.21225 17.6971 5.39407 20.0001 5.39407Z" fill="url(#paint0_linear_1677_1003)"/>
<path d="M7.87737 23.1517C10.3016 23.1517 12.3016 21.1517 12.3016 18.7275C12.3016 16.3032 10.3016 14.3032 7.87737 14.3032C5.45313 14.3032 3.45312 16.3032 3.45312 18.7275C3.45312 21.1517 5.39252 23.1517 7.87737 23.1517Z" fill="url(#paint1_linear_1677_1003)"/>
<path d="M15.3936 31.6973C15.3936 27.5155 11.9997 24.1216 7.87849 24.1216C3.69667 24.1216 0.302734 27.5155 0.302734 31.6973C0.302734 32.0004 0.545159 32.3034 0.908795 32.3034H14.7876C15.1512 32.3034 15.3936 32.061 15.3936 31.6973Z" fill="url(#paint2_linear_1677_1003)"/>
<path d="M27.6973 18.7275C27.6973 21.1517 29.6973 23.1517 32.1215 23.1517C34.5458 23.1517 36.5457 21.1517 36.5457 18.7275C36.5457 16.3032 34.5458 14.3032 32.1215 14.3032C29.6973 14.3032 27.6973 16.2426 27.6973 18.7275Z" fill="url(#paint3_linear_1677_1003)"/>
<path d="M19.9996 31.5757C15.8178 31.5757 12.4238 34.9696 12.4238 39.0908C12.4238 39.4545 12.6663 39.6969 13.0299 39.6969H26.9087C27.2117 39.6969 27.5147 39.4545 27.5147 39.0908C27.5753 34.909 24.1814 31.5757 19.9996 31.5757Z" fill="url(#paint4_linear_1677_1003)"/>
<path d="M32.1207 24.1816C27.9389 24.1816 24.5449 27.5756 24.5449 31.7574C24.5449 32.0604 24.7873 32.3635 25.151 32.3635H39.0298C39.3934 32.3635 39.6358 32.0604 39.6358 31.7574C39.6964 27.5756 36.3025 24.1816 32.1207 24.1816Z" fill="url(#paint5_linear_1677_1003)"/>
<path d="M19.9985 21.6367C17.5742 21.6367 15.5742 23.6367 15.5742 26.061C15.5742 28.4852 17.5742 30.4852 19.9985 30.4852C22.4227 30.4852 24.4227 28.4852 24.4227 26.061C24.4227 23.6367 22.4227 21.6367 19.9985 21.6367Z" fill="url(#paint6_linear_1677_1003)"/>
<path d="M30.0006 4.24239C30.3642 4.24239 30.6067 3.99997 30.6067 3.63633C30.6067 3.2727 30.3642 3.03027 30.0006 3.03027C29.6976 3.03027 29.3945 3.2727 29.3945 3.63633C29.3945 3.93936 29.6976 4.24239 30.0006 4.24239Z" fill="url(#paint7_linear_1677_1003)"/>
<path d="M33.4538 4.90939C33.5751 4.90939 33.6963 4.84878 33.8175 4.78817C33.9993 4.66696 34.0599 4.48514 34.0599 4.30333C34.0599 4.18211 33.9993 4.0609 33.9387 3.93969C33.8175 3.75787 33.6357 3.69727 33.4538 3.69727C33.3326 3.69727 33.2114 3.75787 33.0902 3.81848C32.8478 4.0003 32.7872 4.36393 32.969 4.66696C33.0902 4.78817 33.272 4.90939 33.4538 4.90939Z" fill="url(#paint8_linear_1677_1003)"/>
<path d="M33.7584 8.48507C34.0931 8.48507 34.3645 8.21373 34.3645 7.87901C34.3645 7.54429 34.0931 7.27295 33.7584 7.27295C33.4237 7.27295 33.1523 7.54429 33.1523 7.87901C33.1523 8.21373 33.4237 8.48507 33.7584 8.48507Z" fill="url(#paint9_linear_1677_1003)"/>
<path d="M33.7584 10.3029C34.0931 10.3029 34.3645 10.0316 34.3645 9.69688C34.3645 9.36216 34.0931 9.09082 33.7584 9.09082C33.4237 9.09082 33.1523 9.36216 33.1523 9.69688C33.1523 10.0316 33.4237 10.3029 33.7584 10.3029Z" fill="url(#paint10_linear_1677_1003)"/>
<path d="M31.817 4.24239C32.1517 4.24239 32.4231 3.97105 32.4231 3.63633C32.4231 3.30162 32.1517 3.03027 31.817 3.03027C31.4823 3.03027 31.2109 3.30162 31.2109 3.63633C31.2109 3.97105 31.4823 4.24239 31.817 4.24239Z" fill="url(#paint11_linear_1677_1003)"/>
<path d="M33.7564 12.7275C33.514 12.7275 33.2715 12.9094 33.2109 13.1518C33.6352 13.2124 33.9988 13.3336 34.3625 13.5154C34.3625 13.4548 34.3625 13.3942 34.3625 13.3336C34.3625 13.0306 34.0594 12.7275 33.7564 12.7275Z" fill="url(#paint12_linear_1677_1003)"/>
<path d="M33.7584 6.66671C34.0931 6.66671 34.3645 6.39537 34.3645 6.06065C34.3645 5.72593 34.0931 5.45459 33.7584 5.45459C33.4237 5.45459 33.1523 5.72593 33.1523 6.06065C33.1523 6.39537 33.4237 6.66671 33.7584 6.66671Z" fill="url(#paint13_linear_1677_1003)"/>
<path d="M33.7584 12.1213C34.0931 12.1213 34.3645 11.85 34.3645 11.5152C34.3645 11.1805 34.0931 10.9092 33.7584 10.9092C33.4237 10.9092 33.1523 11.1805 33.1523 11.5152C33.1523 11.85 33.4237 12.1213 33.7584 12.1213Z" fill="url(#paint14_linear_1677_1003)"/>
<path d="M6.24278 12.1213C6.5775 12.1213 6.84884 11.85 6.84884 11.5152C6.84884 11.1805 6.5775 10.9092 6.24278 10.9092C5.90806 10.9092 5.63672 11.1805 5.63672 11.5152C5.63672 11.85 5.90806 12.1213 6.24278 12.1213Z" fill="url(#paint15_linear_1677_1003)"/>
<path d="M6.24278 10.3029C6.5775 10.3029 6.84884 10.0316 6.84884 9.69688C6.84884 9.36216 6.5775 9.09082 6.24278 9.09082C5.90806 9.09082 5.63672 9.36216 5.63672 9.69688C5.63672 10.0316 5.90806 10.3029 6.24278 10.3029Z" fill="url(#paint16_linear_1677_1003)"/>
<path d="M6.84878 13.1518C6.78818 12.9094 6.54575 12.7275 6.30333 12.7275C5.93969 12.7275 5.69727 12.97 5.69727 13.3336V13.5154C6.0609 13.3336 6.42454 13.273 6.84878 13.1518Z" fill="url(#paint17_linear_1677_1003)"/>
<path d="M6.24278 8.48507C6.5775 8.48507 6.84884 8.21373 6.84884 7.87901C6.84884 7.54429 6.5775 7.27295 6.24278 7.27295C5.90806 7.27295 5.63672 7.54429 5.63672 7.87901C5.63672 8.21373 5.90806 8.48507 6.24278 8.48507Z" fill="url(#paint18_linear_1677_1003)"/>
<path d="M8.18028 4.24239C8.515 4.24239 8.78634 3.97105 8.78634 3.63633C8.78634 3.30162 8.515 3.03027 8.18028 3.03027C7.84556 3.03027 7.57422 3.30162 7.57422 3.63633C7.57422 3.97105 7.84556 4.24239 8.18028 4.24239Z" fill="url(#paint19_linear_1677_1003)"/>
<path d="M10.0006 4.24239C10.3353 4.24239 10.6067 3.97105 10.6067 3.63633C10.6067 3.30162 10.3353 3.03027 10.0006 3.03027C9.66587 3.03027 9.39453 3.30162 9.39453 3.63633C9.39453 3.97105 9.66587 4.24239 10.0006 4.24239Z" fill="url(#paint20_linear_1677_1003)"/>
<path d="M6.54564 4.90939C6.72746 4.90939 6.90928 4.84878 7.03049 4.66696C7.0911 4.54575 7.1517 4.42454 7.1517 4.30333C7.1517 4.12151 7.0911 3.93969 6.90928 3.81848C6.78807 3.75787 6.66686 3.69727 6.54564 3.69727C6.36383 3.69727 6.18201 3.75787 6.0608 3.93969C5.87898 4.24272 5.93958 4.60636 6.18201 4.78817C6.30322 4.84878 6.42443 4.90939 6.54564 4.90939Z" fill="url(#paint21_linear_1677_1003)"/>
<path d="M6.24278 6.66671C6.5775 6.66671 6.84884 6.39537 6.84884 6.06065C6.84884 5.72593 6.5775 5.45459 6.24278 5.45459C5.90806 5.45459 5.63672 5.72593 5.63672 6.06065C5.63672 6.39537 5.90806 6.66671 6.24278 6.66671Z" fill="url(#paint22_linear_1677_1003)"/>
</g>
<defs>
<linearGradient id="paint0_linear_1677_1003" x1="19.984" y1="0.36377" x2="19.984" y2="18.6668" gradientUnits="userSpaceOnUse">
<stop stop-color="#FB9100"/>
<stop offset="1" stop-color="#CF7800"/>
</linearGradient>
<linearGradient id="paint1_linear_1677_1003" x1="7.87737" y1="14.3032" x2="7.87737" y2="23.1517" gradientUnits="userSpaceOnUse">
<stop stop-color="#FB9100"/>
<stop offset="1" stop-color="#CF7800"/>
</linearGradient>
<linearGradient id="paint2_linear_1677_1003" x1="7.84819" y1="24.1216" x2="7.84819" y2="32.3034" gradientUnits="userSpaceOnUse">
<stop stop-color="#FB9100"/>
<stop offset="1" stop-color="#CF7800"/>
</linearGradient>
<linearGradient id="paint3_linear_1677_1003" x1="32.1215" y1="14.3032" x2="32.1215" y2="23.1517" gradientUnits="userSpaceOnUse">
<stop stop-color="#FB9100"/>
<stop offset="1" stop-color="#CF7800"/>
</linearGradient>
<linearGradient id="paint4_linear_1677_1003" x1="19.9697" y1="31.5757" x2="19.9697" y2="39.6969" gradientUnits="userSpaceOnUse">
<stop stop-color="#FB9100"/>
<stop offset="1" stop-color="#CF7800"/>
</linearGradient>
<linearGradient id="paint5_linear_1677_1003" x1="32.0908" y1="24.1816" x2="32.0908" y2="32.3635" gradientUnits="userSpaceOnUse">
<stop stop-color="#FB9100"/>
<stop offset="1" stop-color="#CF7800"/>
</linearGradient>
<linearGradient id="paint6_linear_1677_1003" x1="19.9985" y1="21.6367" x2="19.9985" y2="30.4852" gradientUnits="userSpaceOnUse">
<stop stop-color="#FB9100"/>
<stop offset="1" stop-color="#CF7800"/>
</linearGradient>
<linearGradient id="paint7_linear_1677_1003" x1="30.0006" y1="3.03027" x2="30.0006" y2="4.24239" gradientUnits="userSpaceOnUse">
<stop stop-color="#FB9100"/>
<stop offset="1" stop-color="#CF7800"/>
</linearGradient>
<linearGradient id="paint8_linear_1677_1003" x1="33.4616" y1="3.69727" x2="33.4616" y2="4.90939" gradientUnits="userSpaceOnUse">
<stop stop-color="#FB9100"/>
<stop offset="1" stop-color="#CF7800"/>
</linearGradient>
<linearGradient id="paint9_linear_1677_1003" x1="33.7584" y1="7.27295" x2="33.7584" y2="8.48507" gradientUnits="userSpaceOnUse">
<stop stop-color="#FB9100"/>
<stop offset="1" stop-color="#CF7800"/>
</linearGradient>
<linearGradient id="paint10_linear_1677_1003" x1="33.7584" y1="9.09082" x2="33.7584" y2="10.3029" gradientUnits="userSpaceOnUse">
<stop stop-color="#FB9100"/>
<stop offset="1" stop-color="#CF7800"/>
</linearGradient>
<linearGradient id="paint11_linear_1677_1003" x1="31.817" y1="3.03027" x2="31.817" y2="4.24239" gradientUnits="userSpaceOnUse">
<stop stop-color="#FB9100"/>
<stop offset="1" stop-color="#CF7800"/>
</linearGradient>
<linearGradient id="paint12_linear_1677_1003" x1="33.7867" y1="12.7275" x2="33.7867" y2="13.5154" gradientUnits="userSpaceOnUse">
<stop stop-color="#FB9100"/>
<stop offset="1" stop-color="#CF7800"/>
</linearGradient>
<linearGradient id="paint13_linear_1677_1003" x1="33.7584" y1="5.45459" x2="33.7584" y2="6.66671" gradientUnits="userSpaceOnUse">
<stop stop-color="#FB9100"/>
<stop offset="1" stop-color="#CF7800"/>
</linearGradient>
<linearGradient id="paint14_linear_1677_1003" x1="33.7584" y1="10.9092" x2="33.7584" y2="12.1213" gradientUnits="userSpaceOnUse">
<stop stop-color="#FB9100"/>
<stop offset="1" stop-color="#CF7800"/>
</linearGradient>
<linearGradient id="paint15_linear_1677_1003" x1="6.24278" y1="10.9092" x2="6.24278" y2="12.1213" gradientUnits="userSpaceOnUse">
<stop stop-color="#FB9100"/>
<stop offset="1" stop-color="#CF7800"/>
</linearGradient>
<linearGradient id="paint16_linear_1677_1003" x1="6.24278" y1="9.09082" x2="6.24278" y2="10.3029" gradientUnits="userSpaceOnUse">
<stop stop-color="#FB9100"/>
<stop offset="1" stop-color="#CF7800"/>
</linearGradient>
<linearGradient id="paint17_linear_1677_1003" x1="6.27302" y1="12.7275" x2="6.27302" y2="13.5154" gradientUnits="userSpaceOnUse">
<stop stop-color="#FB9100"/>
<stop offset="1" stop-color="#CF7800"/>
</linearGradient>
<linearGradient id="paint18_linear_1677_1003" x1="6.24278" y1="7.27295" x2="6.24278" y2="8.48507" gradientUnits="userSpaceOnUse">
<stop stop-color="#FB9100"/>
<stop offset="1" stop-color="#CF7800"/>
</linearGradient>
<linearGradient id="paint19_linear_1677_1003" x1="8.18028" y1="3.03027" x2="8.18028" y2="4.24239" gradientUnits="userSpaceOnUse">
<stop stop-color="#FB9100"/>
<stop offset="1" stop-color="#CF7800"/>
</linearGradient>
<linearGradient id="paint20_linear_1677_1003" x1="10.0006" y1="3.03027" x2="10.0006" y2="4.24239" gradientUnits="userSpaceOnUse">
<stop stop-color="#FB9100"/>
<stop offset="1" stop-color="#CF7800"/>
</linearGradient>
<linearGradient id="paint21_linear_1677_1003" x1="6.55339" y1="3.69727" x2="6.55339" y2="4.90939" gradientUnits="userSpaceOnUse">
<stop stop-color="#FB9100"/>
<stop offset="1" stop-color="#CF7800"/>
</linearGradient>
<linearGradient id="paint22_linear_1677_1003" x1="6.24278" y1="5.45459" x2="6.24278" y2="6.66671" gradientUnits="userSpaceOnUse">
<stop stop-color="#FB9100"/>
<stop offset="1" stop-color="#CF7800"/>
</linearGradient>
<clipPath id="clip0_1677_1003">
<rect width="40" height="40" fill="white"/>
</clipPath>
</defs>
</svg>
