<svg width="60" height="60" viewBox="0 0 60 60" fill="none" xmlns="http://www.w3.org/2000/svg">
<g clip-path="url(#clip0_1649_674)">
<path d="M30.0003 16.8457L36.5953 20.3133L35.3355 12.9694L40.6744 7.76642L33.298 6.69525L30.0003 0L26.7026 6.69525L19.3262 7.76642L24.6651 12.9694L23.4053 20.3133L30.0003 16.8457Z" fill="white"/>
<path d="M52.2807 18.6478L48.983 11.9653L45.6852 18.6478L38.3125 19.7189L43.6477 24.9205L42.388 32.2658L48.983 28.7982L55.5816 32.2658L54.3182 24.9205L59.9991 19.7189L52.2807 18.6478Z" fill="white"/>
<path d="M5.68085 24.9205L4.41742 32.2658L11.0161 28.7982L17.6111 32.2658L16.3513 24.9205L21.6866 19.7189L14.3138 18.6478L11.0161 11.9653L7.71835 18.6478L0 19.7189L5.68085 24.9205Z" fill="white"/>
<path d="M38.7891 33.5156C38.7891 28.6697 34.8459 24.7266 30 24.7266C25.1541 24.7266 21.2109 28.6697 21.2109 33.5156C21.2109 38.3615 25.1541 42.3047 30 42.3047C34.8459 42.3047 38.7891 38.3615 38.7891 33.5156Z" fill="white"/>
<path d="M17.6953 54.6094V60H42.3047V54.6094C42.3047 47.8253 36.7841 42.3047 30 42.3047C23.2159 42.3047 17.6953 47.8253 17.6953 54.6094Z" fill="white"/>
<path d="M56.3676 58.125C56.3676 53.2791 52.4244 49.3359 47.5785 49.3359C46.6694 49.3359 45.8097 49.5145 44.9844 49.7717C45.482 51.3062 45.8207 52.9115 45.8207 54.6094V60H56.3676V58.125Z" fill="white"/>
<path d="M54.6094 42.3047C54.6094 38.427 51.4558 35.2734 47.5781 35.2734C43.7004 35.2734 40.5469 38.427 40.5469 42.3047C40.5469 42.5285 40.5922 42.74 40.6128 42.9584C42.3463 44.5386 43.7444 46.4671 44.6425 48.6731C45.5388 49.0883 46.5271 49.3359 47.5781 49.3359C51.4558 49.3359 54.6094 46.1824 54.6094 42.3047Z" fill="white"/>
<path d="M19.3872 42.9584C19.4078 42.74 19.4531 42.5285 19.4531 42.3047C19.4531 38.427 16.2996 35.2734 12.4219 35.2734C8.54416 35.2734 5.39062 38.427 5.39062 42.3047C5.39062 46.1824 8.54416 49.3359 12.4219 49.3359C13.4729 49.3359 14.4612 49.0883 15.3575 48.6736C16.2556 46.4671 17.6537 44.5386 19.3872 42.9584Z" fill="white"/>
<path d="M3.63281 58.125V60H14.1797V54.6094C14.1797 52.9115 14.5184 51.3062 15.016 49.7717C14.1907 49.5145 13.331 49.3359 12.4219 49.3359C7.57599 49.3359 3.63281 53.2791 3.63281 58.125Z" fill="white"/>
</g>
<defs>
<clipPath id="clip0_1649_674">
<rect width="60" height="60" fill="white"/>
</clipPath>
</defs>
</svg>
