<svg width="40" height="40" viewBox="0 0 40 40" fill="none" xmlns="http://www.w3.org/2000/svg">
<g clip-path="url(#clip0_1757_9)">
<path d="M20.0009 11.2305L24.3975 13.5422L23.5577 8.64624L27.1169 5.17761L22.1993 4.4635L20.0009 0L17.8024 4.4635L12.8848 5.17761L16.444 8.64624L15.6042 13.5422L20.0009 11.2305Z" fill="url(#paint0_linear_1757_9)"/>
<path d="M34.8531 12.432L32.6547 7.97705L30.4562 12.432L25.541 13.1461L29.0978 16.6138L28.258 21.5107L32.6547 19.199L37.0538 21.5107L36.2115 16.6138L39.9987 13.1461L34.8531 12.432Z" fill="url(#paint1_linear_1757_9)"/>
<path d="M3.78723 16.6138L2.94495 21.5107L7.34406 19.199L11.7407 21.5107L10.9009 16.6138L14.4577 13.1461L9.54254 12.432L7.34406 7.97705L5.14557 12.432L0 13.1461L3.78723 16.6138Z" fill="url(#paint2_linear_1757_9)"/>
<path d="M25.8594 22.3438C25.8594 19.1132 23.2306 16.4844 20 16.4844C16.7694 16.4844 14.1406 19.1132 14.1406 22.3438C14.1406 25.5743 16.7694 28.2031 20 28.2031C23.2306 28.2031 25.8594 25.5743 25.8594 22.3438Z" fill="url(#paint3_linear_1757_9)"/>
<path d="M11.7969 36.4062V40H28.2031V36.4062C28.2031 31.8835 24.5227 28.2031 20 28.2031C15.4773 28.2031 11.7969 31.8835 11.7969 36.4062Z" fill="url(#paint4_linear_1757_9)"/>
<path d="M37.579 38.75C37.579 35.5194 34.9503 32.8906 31.7197 32.8906C31.1136 32.8906 30.5405 33.0096 29.9902 33.1812C30.322 34.2041 30.5478 35.2744 30.5478 36.4062V40H37.579V38.75Z" fill="url(#paint5_linear_1757_9)"/>
<path d="M36.4062 28.2031C36.4062 25.618 34.3039 23.5156 31.7188 23.5156C29.1336 23.5156 27.0312 25.618 27.0312 28.2031C27.0312 28.3524 27.0615 28.4933 27.0752 28.6389C28.2309 29.6924 29.1629 30.9781 29.7617 32.4487C30.3592 32.7255 31.0181 32.8906 31.7188 32.8906C34.3039 32.8906 36.4062 30.7883 36.4062 28.2031Z" fill="url(#paint6_linear_1757_9)"/>
<path d="M12.9248 28.6389C12.9385 28.4933 12.9688 28.3524 12.9688 28.2031C12.9688 25.618 10.8664 23.5156 8.28125 23.5156C5.69611 23.5156 3.59375 25.618 3.59375 28.2031C3.59375 30.7883 5.69611 32.8906 8.28125 32.8906C8.98193 32.8906 9.64081 32.7255 10.2383 32.449C10.8371 30.9781 11.7691 29.6924 12.9248 28.6389Z" fill="url(#paint7_linear_1757_9)"/>
<path d="M2.42188 38.75V40H9.45312V36.4062C9.45312 35.2744 9.67896 34.2041 10.0107 33.1812C9.46045 33.0096 8.88733 32.8906 8.28125 32.8906C5.05066 32.8906 2.42188 35.5194 2.42188 38.75Z" fill="url(#paint8_linear_1757_9)"/>
</g>
<defs>
<linearGradient id="paint0_linear_1757_9" x1="20.0009" y1="0" x2="20.0009" y2="13.5422" gradientUnits="userSpaceOnUse">
<stop stop-color="#FB9100"/>
<stop offset="1" stop-color="#CF7800"/>
</linearGradient>
<linearGradient id="paint1_linear_1757_9" x1="32.7699" y1="7.97705" x2="32.7699" y2="21.5107" gradientUnits="userSpaceOnUse">
<stop stop-color="#FB9100"/>
<stop offset="1" stop-color="#CF7800"/>
</linearGradient>
<linearGradient id="paint2_linear_1757_9" x1="7.22885" y1="7.97705" x2="7.22885" y2="21.5107" gradientUnits="userSpaceOnUse">
<stop stop-color="#FB9100"/>
<stop offset="1" stop-color="#CF7800"/>
</linearGradient>
<linearGradient id="paint3_linear_1757_9" x1="20" y1="16.4844" x2="20" y2="28.2031" gradientUnits="userSpaceOnUse">
<stop stop-color="#FB9100"/>
<stop offset="1" stop-color="#CF7800"/>
</linearGradient>
<linearGradient id="paint4_linear_1757_9" x1="20" y1="28.2031" x2="20" y2="40" gradientUnits="userSpaceOnUse">
<stop stop-color="#FB9100"/>
<stop offset="1" stop-color="#CF7800"/>
</linearGradient>
<linearGradient id="paint5_linear_1757_9" x1="33.7846" y1="32.8906" x2="33.7846" y2="40" gradientUnits="userSpaceOnUse">
<stop stop-color="#FB9100"/>
<stop offset="1" stop-color="#CF7800"/>
</linearGradient>
<linearGradient id="paint6_linear_1757_9" x1="31.7188" y1="23.5156" x2="31.7188" y2="32.8906" gradientUnits="userSpaceOnUse">
<stop stop-color="#FB9100"/>
<stop offset="1" stop-color="#CF7800"/>
</linearGradient>
<linearGradient id="paint7_linear_1757_9" x1="8.28125" y1="23.5156" x2="8.28125" y2="32.8906" gradientUnits="userSpaceOnUse">
<stop stop-color="#FB9100"/>
<stop offset="1" stop-color="#CF7800"/>
</linearGradient>
<linearGradient id="paint8_linear_1757_9" x1="6.21628" y1="32.8906" x2="6.21628" y2="40" gradientUnits="userSpaceOnUse">
<stop stop-color="#FB9100"/>
<stop offset="1" stop-color="#CF7800"/>
</linearGradient>
<clipPath id="clip0_1757_9">
<rect width="40" height="40" fill="white"/>
</clipPath>
</defs>
</svg>
