<svg width="40" height="40" viewBox="0 0 40 40" fill="none" xmlns="http://www.w3.org/2000/svg">
<path d="M11.8302 23.0605H0V38.9469H11.8302V23.0605Z" fill="#010002"/>
<path d="M40.0002 18.9786H28.1699V38.9469H40.0002V18.9786Z" fill="#010002"/>
<path d="M25.9177 13.055H14.084V38.947H25.9177V13.055Z" fill="#010002"/>
<path d="M34.1757 6.94244L35.851 10.3411L39.6033 10.8869L36.8912 13.5321L37.5297 17.269L34.1757 15.5044L30.8216 17.269L31.4602 13.5321L28.748 10.8869L32.497 10.3411L34.1757 6.94244Z" fill="#010002"/>
<path d="M20.0644 1.0531L21.7414 4.45354L25.4938 4.99943L22.7816 7.64629L23.4219 11.3797L20.0661 9.61683L16.7103 11.3797L17.3488 7.64629L14.6367 4.99943L18.3873 4.45354L20.0644 1.0531Z" fill="#010002"/>
<path d="M5.70881 10.9059L7.38413 14.3063L11.1365 14.8539L8.42609 17.4973L9.06461 21.2325L5.70881 19.4696L2.35301 21.2342L2.99328 17.4991L0.28125 14.8556L4.03183 14.308L5.70881 10.9059Z" fill="#010002"/>
</svg>
