<svg width="151" height="151" viewBox="0 0 151 151" fill="none" xmlns="http://www.w3.org/2000/svg">
<path d="M35.031 98.2539C32.4582 98.6349 27.1317 101.449 22.8021 105.125C15.268 111.523 13.1414 119.363 14.2033 120.03C15.3902 120.776 21.928 117.053 21.928 117.053C21.928 117.053 10.8133 132.928 12.7125 135.382C13.4986 136.399 19.8143 133.49 19.8143 133.49C19.8143 133.49 13.2169 147.21 15.5393 149.367C19.4255 152.976 39.9584 139.098 39.9584 139.098C39.9584 139.098 35.8553 146.713 37.2433 148.021C38.7315 149.423 48.5962 144.14 55.0816 135.96C58.2719 131.936 62.198 122.608 60.7801 119.532C51.8175 112.63 43.9936 105.155 35.031 98.2539Z" fill="#FFD255"/>
<path d="M41.6846 103.717C39.9318 104.28 37.4589 105.237 34.8027 106.894C31.739 108.805 27.2014 112.812 27.9002 114.02C28.1454 114.443 29.6532 114.4 32.5663 113.537C26.8275 123.463 24.5374 131.513 25.8551 132.737C27.287 134.067 34.3294 130.892 42.4035 126.305C40.5703 131.796 40.824 133.535 41.5254 133.967C42.5148 134.576 48.8859 130.156 52.061 124.373C54.3104 120.277 55.0051 116.259 55.232 113.512C50.7161 110.247 46.2005 106.982 41.6846 103.717Z" fill="#FAA441"/>
<path d="M17.4317 150.547C16.4523 150.547 15.6561 150.327 15.1146 149.824C12.9405 147.804 16.7159 138.746 18.5439 134.735C14.9798 136.239 12.8544 136.586 12.2187 135.764C10.4866 133.526 16.5063 123.937 19.949 118.832C17.5625 120.046 14.8421 121.169 13.8712 120.558C13.5515 120.358 13.3699 119.984 13.3313 119.448C13.1692 117.187 15.7341 110.308 22.3981 104.649C26.5229 101.148 32.0316 98.0673 34.9393 97.6367C35.1075 97.6111 35.2773 97.6558 35.4114 97.7594C39.9054 101.22 44.1788 104.88 48.3113 108.419C52.4315 111.947 56.6924 115.596 61.1608 119.038C61.2404 119.098 61.3046 119.179 61.3468 119.271C62.9953 122.849 58.5244 132.622 55.5704 136.347C49.7903 143.638 41.451 148.629 38.2492 148.861C37.6171 148.904 37.1349 148.777 36.8152 148.475C35.6092 147.339 37.0236 143.655 38.3333 140.916C33.6943 143.91 22.8052 150.547 17.4317 150.547ZM19.8142 132.866C19.9779 132.866 20.1391 132.93 20.259 133.052C20.4434 133.24 20.4905 133.523 20.3764 133.761C17.2997 140.159 14.7381 147.771 15.9636 148.909C18.5305 151.299 31.8289 143.839 39.6088 138.582C39.8473 138.421 40.1645 138.443 40.3766 138.635C40.5898 138.829 40.6439 139.141 40.5074 139.394C38.4791 143.16 37.1272 147.055 37.6708 147.567C37.6712 147.567 37.8011 147.659 38.2748 147.605C41.3141 147.258 49.1818 142.397 54.5922 135.571C57.8322 131.486 61.2965 122.687 60.2679 119.925C55.8218 116.494 51.5919 112.871 47.4992 109.366C43.446 105.896 39.2566 102.307 34.8674 98.9155C32.4334 99.4038 27.4279 102.016 23.2057 105.6C16.0908 111.642 14.2977 118.469 14.5926 119.516C15.3218 119.648 18.4806 118.297 21.619 116.511C21.8729 116.366 22.1926 116.417 22.3892 116.633C22.5854 116.848 22.6061 117.171 22.4387 117.41C17.2205 124.864 12.2065 133.709 13.2058 135C13.6961 135.2 16.6294 134.269 19.5534 132.923C19.6367 132.885 19.7256 132.866 19.8142 132.866Z" fill="#300F0F"/>
<path d="M41.1636 84.356C39.8874 86.1776 38.3834 87.6428 34.835 91.7384C31.644 95.4217 31.3479 95.6925 31.0391 96.7641C29.3407 102.66 37.2238 111.794 42.1399 116.071C47.5227 120.754 58.1033 127.683 63.7655 125.357C65.4866 124.65 66.779 122.936 69.3641 119.51C71.1908 117.089 72.4954 115.671 73.9992 113.498C63.1395 103.731 52.0234 94.1229 41.1636 84.356Z" fill="#38302F"/>
<path d="M61.1988 126.441C54.8906 126.441 46.0464 120.297 41.7295 116.541C37.0174 112.442 28.5932 102.997 30.4386 96.5913C30.7579 95.4832 31.0784 95.1135 33.5746 92.2379L34.3623 91.3296C35.6354 89.8603 36.6457 88.729 37.4772 87.7979C38.9587 86.1385 39.8532 85.1372 40.6514 83.9981C40.7538 83.8515 40.9142 83.7564 41.0917 83.7361C41.268 83.7138 41.4468 83.7723 41.5796 83.8921C47.0042 88.7708 52.5861 93.6917 57.9839 98.451C63.3899 103.217 68.9803 108.145 74.4155 113.034C74.6487 113.243 74.6893 113.594 74.5106 113.853C73.612 115.151 72.7736 116.197 71.8856 117.303C71.2649 118.077 70.6068 118.897 69.861 119.886C67.2116 123.398 65.8817 125.161 64.0017 125.934C63.1519 126.283 62.207 126.441 61.1988 126.441ZM41.2599 85.2826C40.5238 86.2596 39.6769 87.2081 38.4078 88.629C37.58 89.5564 36.5734 90.6833 35.3055 92.1469L34.5171 93.0556C32.0668 95.8788 31.875 96.1128 31.6378 96.9366C30.0877 102.317 37.3135 111.046 42.5484 115.6C48.1343 120.46 58.3333 126.914 63.5272 124.78C65.0911 124.137 66.3521 122.465 68.8649 119.134C69.6189 118.134 70.2851 117.304 70.9123 116.522C71.68 115.565 72.4104 114.655 73.1692 113.592C67.8681 108.83 62.4263 104.031 57.1585 99.3869C51.9288 94.7764 46.5273 90.0138 41.2599 85.2826Z" fill="#300F0F"/>
<path d="M97.2943 105.77C103.564 107.803 105.251 116.273 105.307 120.476C105.574 140.334 72.4473 153.244 68.7406 149.825C65.7601 147.076 72.2885 138.824 75.8362 131.207C80.2178 121.798 81.4286 117.024 82.6907 111.384C86.905 106.596 92.7316 104.29 97.2943 105.77Z" fill="#FB9100"/>
<path d="M89.24 122.392C85.6171 137.174 75.2123 146.35 69.6825 150.264C69.2714 150.167 68.9594 150.026 68.7369 149.824C65.7598 147.075 72.2918 138.826 75.8336 131.202C80.2168 121.797 81.4316 117.022 82.6888 111.388C84.9489 108.824 87.6708 106.964 90.4101 106.021C90.9685 110.162 90.8757 115.714 89.24 122.392Z" fill="#FB9100"/>
<path opacity="0.7" d="M101.633 119.292C101.893 120.771 101.85 122.299 101.592 123.787C101.338 125.278 100.844 126.73 100.168 128.082C99.4777 129.427 98.6129 130.682 97.5695 131.757C96.534 132.834 95.3467 133.759 94.0214 134.408C93.8106 134.511 93.5551 134.424 93.4519 134.213C93.3762 134.059 93.4053 133.878 93.5066 133.753C94.3967 132.662 95.2125 131.58 95.9323 130.455C96.6446 129.327 97.2723 128.169 97.7711 126.962C98.2978 125.767 98.6826 124.521 99.0004 123.255C99.3068 121.984 99.5142 120.687 99.6882 119.351L99.6902 119.335C99.7602 118.797 100.253 118.417 100.792 118.487C101.228 118.544 101.56 118.88 101.633 119.292Z" fill="white"/>
<path d="M70.9196 151C69.7659 151 68.8576 150.782 68.3174 150.284C65.8402 147.998 68.579 143.157 71.7499 137.553C72.9791 135.381 74.2498 133.135 75.271 130.943C79.5648 121.723 80.8021 116.964 82.0825 111.247C82.1053 111.145 82.1532 111.05 82.2231 110.972C86.624 105.972 92.7555 103.642 97.4871 105.176C104.018 107.295 105.868 115.785 105.932 120.468C106.097 132.796 93.8759 142.667 82.3839 147.794C78.3485 149.594 73.8468 151 70.9196 151ZM83.2646 111.677C81.9801 117.402 80.7095 122.22 76.4019 131.47C75.3604 133.707 74.0775 135.975 72.8361 138.167C70.0478 143.097 67.4139 147.752 69.1639 149.367C70.2038 150.323 75.358 149.561 81.8753 146.654C93.0049 141.689 104.841 132.207 104.684 120.484C104.629 116.433 102.974 108.268 97.102 106.364C92.8766 104.993 87.3325 107.127 83.2646 111.677Z" fill="#300F0F"/>
<path d="M49.0312 62.2996C43.14 53.7532 36.6459 53.8034 34.4986 53.9858C15.6073 55.5899 1.52861 86.7201 4.42816 91.4578C5.74262 93.6056 9.43503 92.6986 23.5573 85.3097C33.6972 80.0044 40.0394 79.7638 44.9894 73.2991C47.9733 69.4022 48.7873 65.1445 49.0312 62.2996Z" fill="#FB9100"/>
<path d="M48.3149 66.4622C47.7288 68.6282 46.7302 71.0246 44.9907 73.3018C40.0375 79.7609 33.6953 80.0051 23.5599 85.3126C9.43187 92.6997 5.74354 93.604 4.42839 91.4554C4.20916 91.0916 4.08151 90.573 4.05566 89.9238C7.56263 85.4431 13.0311 79.724 20.9777 74.9829C31.4553 68.7399 41.626 66.9333 48.3149 66.4622Z" fill="#FB9100"/>
<path opacity="0.7" d="M32.0535 59.1838C30.3213 60.1002 28.6424 60.9012 27.0271 61.8706C26.2196 62.3491 25.4135 62.8356 24.6096 63.3502C23.804 63.8633 22.9973 64.3931 22.1196 64.9057L22.1153 64.9082C21.9087 65.029 21.6432 64.9593 21.5223 64.7525C21.4461 64.6217 21.4471 64.4647 21.5097 64.3384C21.9852 63.3979 22.6305 62.5666 23.362 61.8226C24.0964 61.0812 24.9135 60.4158 25.8033 59.8635C26.6879 59.3047 27.6328 58.8381 28.6157 58.4832C29.5984 58.13 30.6184 57.8754 31.6644 57.8037C32.0681 57.7761 32.4174 58.0809 32.4453 58.4845C32.4655 58.7822 32.3011 59.0523 32.0535 59.1838Z" fill="white"/>
<path opacity="0.7" d="M20.6752 66.1267C20.6114 66.6341 20.3903 67.0132 20.1325 67.3574C20.0033 67.5293 19.8492 67.6789 19.6704 67.8045C19.4925 67.9306 19.2929 68.0361 19.0385 68.087C18.8239 68.1299 18.613 67.9838 18.567 67.7607C18.5582 67.7175 18.5567 67.6718 18.5606 67.6303C18.6152 67.1028 18.8522 66.7571 19.1197 66.4368C19.4004 66.1286 19.7179 65.8551 20.1924 65.7102L20.2029 65.7071C20.3954 65.6482 20.6007 65.7632 20.6611 65.9639C20.6774 66.0179 20.6814 66.0745 20.6752 66.1267Z" fill="white"/>
<path d="M6.44993 93.1102C5.19269 93.1102 4.42209 92.6439 3.89563 91.7839C2.41374 89.3624 4.65119 82.5457 7.52601 76.8639C12.9482 66.1482 22.8677 54.3476 34.4458 53.3641C37.6898 53.0899 43.9562 53.8382 49.5449 61.9455C49.627 62.0649 49.6652 62.2087 49.6526 62.3529C49.2756 66.7486 47.8733 70.559 45.4848 73.6787C42.1249 78.0663 38.0818 79.7001 32.9626 81.769C30.3031 82.8434 27.289 84.0617 23.8463 85.8629C14.1502 90.9357 9.1651 93.1102 6.44993 93.1102ZM35.5255 54.5669C35.1749 54.5669 34.8491 54.5824 34.5514 54.6076C23.4843 55.5475 13.9097 67.0119 8.63945 77.4273C5.09234 84.4379 4.0963 89.7211 4.95992 91.1323C6.0693 92.9465 10.6896 91.3371 23.2678 84.7571C26.7645 82.9275 29.8092 81.6971 32.4951 80.6117C37.6309 78.5367 41.3413 77.0369 44.4936 72.9199C46.6953 70.0447 48.0053 66.5301 48.3892 62.4695C43.7181 55.8039 38.6436 54.5669 35.5255 54.5669Z" fill="#300F0F"/>
<path d="M33.7261 84.1728C37.3967 72.498 44.0837 57.3863 54.1213 44.6096C83.2959 7.47339 138.21 -3.84146 144.734 2.1304C151.258 8.10226 144.078 63.5609 113.723 95.1948C98.6655 110.886 85.6519 117.542 74.3833 122.078C71.208 123.357 67.0023 123.887 60.0076 120.518C52.2445 116.78 38.4619 105.268 35.3136 97.8931C32.6321 91.6112 32.5729 87.8406 33.7261 84.1728Z" fill="#F7F2F0"/>
<path d="M113.72 95.1964C98.6642 110.889 85.6562 117.541 74.3876 122.075C71.2109 123.353 67.0024 123.884 60.0104 120.518C56.8266 118.986 52.6313 116.139 48.5684 112.81C58.7496 109.627 67.1445 105.946 73.6277 102.7C86.6184 96.1988 99.0874 89.4417 111.346 76.0488C131.307 54.2415 140.019 22.0634 141.954 0.969482C143.218 1.21931 144.164 1.6112 144.734 2.13149C151.255 8.0992 144.077 63.5644 113.72 95.1964Z" fill="#E0DCDA"/>
<path d="M88.7191 115.203C83.6439 118.115 78.8791 120.261 74.3798 122.076C71.2121 123.361 67.0031 123.884 60.0112 120.519C56.8273 118.986 52.632 116.139 48.561 112.81C42.728 108.032 37.1757 102.247 35.3189 97.8915C32.6345 91.6121 32.5761 87.8372 33.7327 84.173C34.9304 80.3317 36.4665 76.1136 38.3443 71.7275C39.7186 79.4107 51.0243 95.5581 66.6231 106.007C73.342 110.513 80.8549 113.952 88.7191 115.203Z" fill="#C6C3C1"/>
<path d="M88.7187 115.203C83.6435 118.116 78.8787 120.261 74.3794 122.076C71.2117 123.361 67.0027 123.885 60.0107 120.519C56.8269 118.986 52.6316 116.139 48.5605 112.811C55.4025 110.672 61.4402 108.309 66.6227 106.007C73.3416 110.514 80.8545 113.952 88.7187 115.203Z" fill="#AEAAA6"/>
<path d="M142.091 42.6033C139.415 41.6775 136.373 40.471 133.162 38.8897C124.958 34.8377 115.657 28.3583 108.594 17.9825C106.505 14.9074 104.85 11.8509 103.535 8.91823C120.343 2.0479 135.429 -0.33592 141.953 0.969651C143.217 1.21948 144.164 1.61137 144.733 2.13166C148.204 5.30041 147.796 22.4687 142.091 42.6033Z" fill="#C6C3C1"/>
<path d="M142.091 42.6031C139.415 41.6774 136.373 40.4709 133.162 38.8896C138.236 25.2602 140.97 11.6883 141.953 0.969482C143.217 1.21931 144.164 1.6112 144.733 2.13149C148.204 5.30024 147.796 22.4686 142.091 42.6031Z" fill="#AEAAA6"/>
<path d="M108.732 11.1659C108.699 11.1821 108.171 11.4527 108.113 12.0377C108.048 12.695 108.791 13.3748 109.389 13.2723C110.097 13.1507 110.437 12.4409 110.225 11.7685C110.035 11.1638 109.269 10.9021 108.732 11.1659Z" fill="#686663"/>
<path d="M112.92 17.5192C113.707 17.3694 114.371 18.079 114.268 18.7685C114.187 19.3093 113.693 19.8656 113.088 19.753C112.333 19.6124 111.917 18.7404 112.173 18.1549C112.372 17.6994 112.695 17.5621 112.92 17.5192Z" fill="#686663"/>
<path d="M118.49 23.3793C118.19 23.2735 117.666 23.3129 117.385 23.6778C116.993 24.1883 117.093 25.0219 117.697 25.4113C118.169 25.7152 118.887 25.5535 119.15 25.0943C119.499 24.4862 119.203 23.6315 118.49 23.3793Z" fill="#686663"/>
<path d="M124.077 28.6183C123.686 28.5318 123.265 28.7108 123.007 29.1005C122.665 29.6156 122.831 30.3466 123.394 30.6858C123.986 31.0422 124.653 30.7951 124.915 30.298C125.232 29.698 124.835 28.7863 124.077 28.6183Z" fill="#686663"/>
<path d="M129.362 33.3032C129.646 32.9452 130.155 32.8407 130.545 32.9397C131.334 33.1396 131.731 34.1182 131.332 34.7495C131.019 35.2433 130.309 35.5163 129.726 35.1213C129.13 34.718 128.95 33.8217 129.362 33.3032Z" fill="#686663"/>
<path d="M136.256 36.5382C136.774 36.1918 137.497 36.3876 137.825 36.9056C138.23 37.546 137.978 38.3919 137.366 38.6095C136.833 38.7991 136.153 38.504 135.908 37.9427C135.705 37.4758 135.774 36.8608 136.256 36.5382Z" fill="#686663"/>
<path d="M143.747 36.2443C141.023 35.8216 138.09 34.7845 135.125 33.2818C124.628 27.9836 113.722 16.8522 110.19 6.39766C124.233 1.48366 136.297 -0.156347 141.953 0.961738C143.217 1.21989 144.164 1.61179 144.733 2.13206C147.828 4.97043 147.835 18.9477 143.747 36.2443Z" fill="#FB9100"/>
<path d="M143.747 36.2438C141.023 35.8211 138.09 34.7839 135.125 33.2813C138.959 21.5859 141.108 10.2048 141.953 0.961182C143.217 1.21934 144.164 1.61123 144.733 2.13151C147.828 4.96987 147.835 18.9471 143.747 36.2438Z" fill="#FB9100"/>
<path opacity="0.7" d="M129.279 6.58394C128.367 7.01118 127.454 7.35701 126.549 7.70775L123.84 8.70693C122.027 9.32852 120.291 10.0747 118.301 10.2724L118.208 10.2817C117.559 10.3461 116.981 9.8727 116.917 9.22435C116.873 8.78138 117.081 8.37065 117.424 8.13476C118.27 7.55411 119.194 7.13318 120.124 6.73397C121.055 6.33431 122.026 6.04161 123.018 5.8337C124.007 5.6185 125.009 5.45982 126.019 5.36978C127.03 5.28395 128.046 5.25329 129.072 5.35207C129.427 5.38629 129.688 5.70232 129.654 6.0578C129.631 6.29337 129.484 6.48711 129.285 6.58116L129.279 6.58394Z" fill="white"/>
<path d="M69.436 123.692C66.9459 123.692 63.8066 123.041 59.7371 121.08C52.2087 117.454 38.0828 105.969 34.74 98.1379C32.2621 92.3326 31.7961 88.2327 33.1314 83.9856C35.8068 75.4757 42.0276 58.9946 53.6308 44.2241C76.5432 15.0596 115.255 1.7165 134.273 0.157023C138.138 -0.158201 143.162 -0.153736 145.156 1.67019C146.939 3.30198 147.44 7.58434 147.547 10.8893C148.179 30.3781 138.008 70.7876 114.173 95.6267C98.8715 111.572 85.5905 118.239 74.6169 122.656C73.2528 123.206 71.5865 123.692 69.436 123.692ZM137.848 1.24772C136.787 1.24772 135.625 1.29809 134.376 1.40087C115.566 2.94328 77.2793 16.1426 54.6123 44.9951C43.1313 59.6092 36.9718 75.9315 34.3216 84.3602C33.2764 87.6847 33.1428 91.2167 35.888 97.648C39.0199 104.986 52.8874 116.396 60.2782 119.956C67.4228 123.397 71.4452 122.589 74.1506 121.5C85.0015 117.131 98.1346 110.538 113.273 94.7626C136.859 70.1819 146.925 30.2067 146.3 10.9296C146.162 6.65938 145.437 3.62004 144.313 2.59068C143.352 1.71122 141.065 1.24772 137.848 1.24772Z" fill="#300F0F"/>
<path d="M108.891 35.382C99.6878 29.8805 87.8747 31.8643 81.1993 39.8112C73.9455 48.4473 74.8054 61.6887 83.1861 69.3247C92.1512 77.4933 106.478 76.2911 113.966 67.2707C121.786 57.8482 119.775 42.7492 108.891 35.382Z" fill="#38302F"/>
<path d="M107.865 39.5436C115.14 45.0012 116.408 55.9987 110.828 63.0881C104.845 70.6896 92.9254 72.051 86.0375 65.5773C79.9076 59.816 79.7923 49.7559 84.7337 43.1923C89.9657 36.2431 100.589 34.0861 107.865 39.5436Z" fill="#95E1FC"/>
<path opacity="0.7" d="M94.155 40.7928C89.9967 41.5574 86.1914 45.5642 86.8787 47.6608C87.4275 49.3349 90.6343 50.0858 93.1494 49.4895C96.4898 48.6976 100.295 46.2162 100.073 43.2574C99.9858 42.0887 98.2823 40.0338 94.155 40.7928Z" fill="white"/>
<path opacity="0.7" d="M88.2098 51.6491C88.9026 51.2503 89.6242 51.5177 89.7573 51.5671C90.4855 51.837 91.2994 52.6415 91.097 53.4205C90.8911 54.2126 89.7652 54.4746 89.038 54.3986C88.9562 54.39 87.569 54.2257 87.3631 53.2458C87.2252 52.5889 87.6978 51.9438 88.2098 51.6491Z" fill="white"/>
<path d="M97.487 75.4271C91.9681 75.4271 86.7913 73.4549 82.7648 69.7859C74.1562 61.943 73.2398 48.3164 80.7207 39.41C87.6037 31.215 99.8512 29.2521 109.21 34.847C109.219 34.8527 109.23 34.8592 109.239 34.8657C114.583 38.4831 118.173 44.2363 119.086 50.6505C119.969 56.849 118.277 63.052 114.444 67.6695C110.731 72.1436 105.143 74.9506 99.116 75.3702C98.5708 75.4084 98.0273 75.4271 97.487 75.4271ZM97.6438 32.9154C91.6123 32.9154 85.6807 35.4449 81.6762 40.2127C74.6201 48.6129 75.4854 61.4657 83.6049 68.8638C87.7711 72.6599 93.2567 74.5281 99.029 74.1255C104.719 73.7291 109.987 71.0854 113.484 66.8725C117.092 62.5255 118.684 56.6768 117.851 50.8264C116.987 44.766 113.599 39.3296 108.554 35.9088C105.17 33.8899 101.388 32.9154 97.6438 32.9154Z" fill="#300F0F"/>
<path d="M53.1931 86.7893C46.7267 93.8681 31.1606 122.612 34.5661 125.675C37.8171 128.599 62.5675 113.879 71.7074 102.463C77.7033 94.9743 74.5755 87.8563 71.3993 84.9998C65.8799 80.0359 58.4777 81.0041 53.1931 86.7893Z" fill="#FB9100"/>
<path d="M71.7058 102.46C62.5697 113.878 37.8215 128.6 34.5645 125.678C34.2053 125.356 34.0566 124.755 34.0868 123.911C41.3684 120.147 51.3434 113.547 59.8703 102.437C64.8866 95.8996 68.1312 89.4561 70.2567 84.0811C70.6461 84.3523 71.0296 84.6656 71.3978 84.9964C74.5765 87.8552 77.7055 94.9701 71.7058 102.46Z" fill="#FB9100"/>
<path opacity="0.7" d="M54.6594 91.5836C54.0428 93.1091 53.3432 94.503 52.61 95.8478C52.2485 96.5268 51.8631 97.1721 51.4882 97.8308C51.1074 98.4817 50.7026 99.1004 50.3263 99.7559C49.5595 101.049 48.7791 102.323 47.9491 103.539C47.1233 104.76 46.2695 105.948 45.3254 107.038L45.2945 107.073C44.9448 107.477 44.4592 107.416 44.2102 106.938C44.0231 106.578 44.0234 106.084 44.1832 105.689C44.7949 104.184 45.4969 102.776 46.2272 101.402C46.9531 100.022 47.7287 98.701 48.5181 97.3988C49.3109 96.1012 50.2032 94.9342 51.0906 93.7676C51.9864 92.6124 52.9155 91.5063 53.9279 90.5318C54.1906 90.279 54.5269 90.3686 54.6792 90.7323C54.7842 90.983 54.7743 91.2986 54.6718 91.5532L54.6594 91.5836Z" fill="white"/>
<path d="M35.8815 126.675C35.1178 126.675 34.5482 126.499 34.1485 126.139C33.7354 125.768 33.5063 125.175 33.4669 124.376C33.137 117.65 46.6016 93.0795 52.7322 86.3683C58.3413 80.2283 66.1878 79.4736 71.8164 84.5359C75.3318 87.6975 78.3338 95.1849 72.1942 102.853C64.0755 112.992 43.2791 126.089 36.3494 126.656C36.1857 126.669 36.0297 126.675 35.8815 126.675ZM53.6535 87.21C47.7865 93.6323 34.402 117.971 34.7136 124.314C34.7351 124.756 34.831 125.075 34.9829 125.211C35.0987 125.315 35.4184 125.475 36.2475 125.412C42.3058 124.917 62.969 112.378 71.2193 102.073C76.8194 95.0797 74.1457 88.3084 70.9812 85.4637C65.8166 80.8186 58.8531 81.5185 53.6535 87.21Z" fill="#300F0F"/>
</svg>
