<svg width="62" height="60" viewBox="0 0 62 60" fill="none" xmlns="http://www.w3.org/2000/svg">
<path fill-rule="evenodd" clip-rule="evenodd" d="M44.719 39.4182L40.8988 35.6937C39.8278 37.184 38.59 38.5452 37.2121 39.749L40.914 43.358L44.719 39.4182ZM21.6594 16.1974C18.6008 16.1974 16.1218 18.688 16.1218 21.7609C16.1218 24.8338 18.6008 27.3244 21.6594 27.3244C24.718 27.3244 27.197 24.8338 27.197 21.7609C27.1971 18.688 24.718 16.1974 21.6594 16.1974ZM21.6594 5.60356C12.7774 5.60356 5.5773 12.8374 5.5773 21.761C5.5773 30.6846 12.7775 37.9183 21.6594 37.9183C30.5412 37.9183 37.7413 30.6845 37.7413 21.7609C37.7413 12.8373 30.5412 5.60356 21.6594 5.60356ZM32.9819 22.9457C32.9819 23.1637 32.8549 23.3496 32.6524 23.4279L31.1056 24.0261C30.8678 25.0305 30.4714 25.9898 29.9326 26.8689L30.6058 28.392C30.6938 28.5913 30.6528 28.813 30.4994 28.9671L28.8319 30.6426C28.6785 30.7967 28.4579 30.8379 28.2595 30.7494L26.7441 30.0732C25.8689 30.6147 24.9138 31.0129 23.9139 31.2519L23.3187 32.8055C23.2408 33.0089 23.0558 33.1366 22.8388 33.1366H20.4804C20.2634 33.1366 20.0783 33.0089 20.0004 32.8055L19.405 31.2514C18.4052 31.0124 17.4505 30.6142 16.5755 30.0728L15.0596 30.7493C14.8612 30.8378 14.6405 30.7966 14.4872 30.6423L12.8195 28.967C12.6661 28.8129 12.6251 28.5912 12.7131 28.3919L13.3862 26.8694C12.8472 25.9902 12.451 25.0305 12.213 24.0259L10.6667 23.4279C10.4642 23.3496 10.3371 23.1637 10.3371 22.9457V20.5762C10.3371 20.3582 10.4642 20.1724 10.6667 20.094L12.2132 19.4959C12.4511 18.4915 12.8475 17.5321 13.3863 16.653L12.7131 15.1301C12.6251 14.9309 12.6661 14.7092 12.8195 14.555L14.487 12.8795C14.6404 12.7254 14.861 12.6842 15.0594 12.7727L16.5754 13.4491C17.4505 12.9078 18.4052 12.5096 19.4049 12.2706L20.0003 10.7165C20.0782 10.5131 20.2632 10.3854 20.4803 10.3854H22.8386C23.0557 10.3854 23.2407 10.5131 23.3186 10.7165L23.914 12.2706C24.9137 12.5096 25.8686 12.9078 26.7435 13.4491L28.2595 12.7727C28.4579 12.6842 28.6785 12.7254 28.8319 12.8795L30.4996 14.5549C30.6529 14.709 30.694 14.9307 30.6059 15.13L29.9328 16.6524C30.4718 17.5317 30.8682 18.4914 31.106 19.4959L32.6524 20.094C32.8549 20.1723 32.9819 20.3582 32.9819 20.5762V22.9457ZM56.8663 59.4019C56.1121 60.1827 54.8592 60.2015 54.082 59.4438L42.1876 47.848C41.4104 47.0904 41.3916 45.8313 42.1457 45.0507L46.4401 40.6042C47.1942 39.8235 48.4475 39.8045 49.2244 40.5623L61.1188 52.1583C61.8959 52.916 61.9151 54.1746 61.1607 54.9556L56.8663 59.4019ZM21.6594 0C9.69724 0 0 9.74267 0 21.761C0 33.7791 9.69724 43.5219 21.6594 43.5219C33.6214 43.5219 43.3188 33.7792 43.3188 21.761C43.3188 9.74267 33.6215 0 21.6594 0ZM21.6594 39.9851C11.6421 39.9851 3.52015 31.8252 3.52015 21.7609C3.52015 11.6966 11.6421 3.53678 21.6594 3.53678C31.6766 3.53678 39.7985 11.6968 39.7985 21.761C39.7985 31.8251 31.6766 39.9851 21.6594 39.9851Z" fill="white"/>
</svg>
