<svg width="70" height="70" viewBox="0 0 70 70" fill="none" xmlns="http://www.w3.org/2000/svg">
<path fill-rule="evenodd" clip-rule="evenodd" d="M38.2812 53.5938V58.0475C38.2812 58.4369 38.489 58.7978 38.827 58.9936C40.1286 59.7472 41.1884 60.8727 41.86 62.2234C42.0295 62.5647 42.3653 62.7933 42.7448 62.8261C43.1244 62.8589 43.494 62.6926 43.7194 62.3853C44.7158 61.0345 46.3192 60.1562 48.125 60.1562C48.8501 60.1562 49.5436 60.2973 50.1769 60.5544C50.5903 60.7228 51.0639 60.6222 51.3745 60.3017C52.7669 58.8634 54.717 57.9688 56.875 57.9688C60.7294 57.9688 63.922 60.8234 64.4536 64.5312H5.54639C6.07795 60.8234 9.27061 57.9688 13.125 57.9688C15.283 57.9688 17.2331 58.8634 18.6254 60.3017C18.9361 60.6222 19.4097 60.7228 19.8231 60.5544C20.4564 60.2973 21.1498 60.1562 21.875 60.1562C23.6808 60.1562 25.2842 61.0345 26.2806 62.3853C26.5059 62.6926 26.8756 62.8589 27.2551 62.8261C27.6347 62.7933 27.9704 62.5647 28.14 62.2234C28.8115 60.8727 29.8714 59.7472 31.1729 58.9936C31.5109 58.7978 31.7187 58.4369 31.7187 58.0475V53.5938H38.2812Z" fill="#FED090"/>
<path fill-rule="evenodd" clip-rule="evenodd" d="M47.6546 43.0372C46.7916 46.7155 45.8532 49.72 45.2888 51.4065H55.7812V47.3597C55.7812 46.9276 55.5263 46.535 55.1315 46.36L47.6546 43.0372Z" fill="#FED090"/>
<path fill-rule="evenodd" clip-rule="evenodd" d="M26.3921 49.2188H43.7062C43.4076 50.1638 43.1549 50.9086 42.981 51.4062H27.0483C26.8898 50.8998 26.6622 50.1539 26.3921 49.2188Z" fill="#FED090"/>
<path fill-rule="evenodd" clip-rule="evenodd" d="M22.6297 43.3135L14.9067 46.4033C14.4911 46.5685 14.2188 46.971 14.2188 47.4183V51.4061H24.7647C24.2692 49.7633 23.4358 46.8408 22.6297 43.3135Z" fill="#FED090"/>
<path fill-rule="evenodd" clip-rule="evenodd" d="M42.3576 12.0315C39.8715 8.98108 37.0748 6.96201 35.5687 5.99186L35.5644 5.98967C35.2155 5.77858 34.779 5.77858 34.4258 5.99515C32.9175 6.9664 30.1251 8.98436 27.6423 12.0315H42.3576Z" fill="#FED090"/>
<path fill-rule="evenodd" clip-rule="evenodd" d="M43.9522 14.2188H26.0476C24.6202 16.4248 23.4565 19.0389 22.9533 22.0544C21.6802 29.6953 24.0755 40.6591 25.784 47.0312H33.9062V39.375C33.9062 38.7712 34.3962 38.2812 34.9999 38.2812C35.6037 38.2812 36.0937 38.7712 36.0937 39.375V47.0312H44.3679C46.1212 40.9631 48.4651 30.5714 47.0465 22.0544C46.5433 19.0389 45.3796 16.4259 43.9522 14.2188ZM34.9999 18.5938C30.7747 18.5938 27.3437 22.0248 27.3437 26.25C27.3437 30.4752 30.7747 33.9062 34.9999 33.9062C39.2251 33.9062 42.6562 30.4752 42.6562 26.25C42.6562 22.0248 39.2251 18.5938 34.9999 18.5938ZM34.9999 20.7812C38.0187 20.7812 40.4687 23.2312 40.4687 26.25C40.4687 29.2688 38.0187 31.7188 34.9999 31.7188C31.9812 31.7188 29.5312 29.2688 29.5312 26.25C29.5312 23.2312 31.9812 20.7812 34.9999 20.7812Z" fill="#FED090"/>
</svg>
