<svg width="60" height="60" viewBox="0 0 60 60" fill="none" xmlns="http://www.w3.org/2000/svg">
<path d="M52.4719 6.59979H7.52812C6.52666 6.60161 5.56674 7.00025 4.8586 7.70839C4.15045 8.41653 3.75182 9.37645 3.75 10.3779V35.0717H56.25V10.3779C56.2482 9.37645 55.8495 8.41653 55.1414 7.70839C54.4333 7.00025 53.4733 6.60161 52.4719 6.59979ZM18.6094 23.8217C18.5212 28.761 10.8795 28.7801 10.7906 23.831V17.8498C10.7955 17.6044 10.8965 17.3707 11.0718 17.1989C11.2471 17.0271 11.4827 16.9309 11.7282 16.9309C11.9736 16.9309 12.2093 17.0271 12.3845 17.199C12.5598 17.3708 12.6607 17.6045 12.6656 17.8499V23.8311C12.658 26.2877 16.7442 26.2801 16.7344 23.8216V17.8217C16.7344 17.5731 16.8331 17.3346 17.009 17.1588C17.1848 16.983 17.4232 16.8842 17.6719 16.8842C17.9205 16.8842 18.159 16.983 18.3348 17.1588C18.5106 17.3346 18.6094 17.5731 18.6094 17.8217V23.8217ZM27.825 18.3655L24.9188 22.378L27.4219 26.0717C27.5548 26.2781 27.6016 26.5284 27.5522 26.769C27.5028 27.0095 27.3612 27.2211 27.1576 27.3584C26.9541 27.4957 26.7049 27.5478 26.4633 27.5036C26.2218 27.4593 26.0073 27.3222 25.8656 27.1217L23.7469 23.9905L21.4594 27.1499C21.312 27.3504 21.0914 27.4846 20.8456 27.5232C20.5998 27.5619 20.3486 27.5018 20.1469 27.3561C20.0466 27.2839 19.9616 27.1926 19.8968 27.0873C19.8321 26.9821 19.7888 26.865 19.7696 26.7429C19.7505 26.6209 19.7557 26.4962 19.785 26.3761C19.8144 26.2561 19.8673 26.1431 19.9406 26.0436L22.6312 22.3405L19.9219 18.3467C19.7831 18.1403 19.7316 17.8874 19.7787 17.6431C19.8258 17.3989 19.9676 17.1832 20.1733 17.0433C20.3789 16.9033 20.6316 16.8504 20.8761 16.8961C21.1206 16.9419 21.337 17.0825 21.4781 17.2874L23.8031 20.7186L26.3062 17.2686C26.454 17.0733 26.6723 16.9436 26.9145 16.9073C27.1567 16.871 27.4035 16.931 27.602 17.0744C27.8005 17.2177 27.935 17.4331 27.9767 17.6744C28.0184 17.9158 27.9639 18.1638 27.825 18.3655ZM36.675 15.4873L29.8125 29.8592C29.7028 30.0796 29.5109 30.2481 29.2783 30.3285C29.0456 30.4089 28.7906 30.3947 28.5683 30.2891C28.3459 30.1834 28.1739 29.9947 28.0893 29.7635C28.0046 29.5324 28.0141 29.2772 28.1156 29.053L34.9781 14.6811C35.089 14.4626 35.2808 14.2961 35.5126 14.217C35.7445 14.1379 35.998 14.1525 36.2193 14.2576C36.4406 14.3628 36.612 14.5501 36.6971 14.7798C36.7823 15.0095 36.7743 15.2634 36.675 15.4873ZM45.6188 23.8217C45.5305 28.761 37.8889 28.7802 37.8 23.831V17.8498C37.8049 17.6044 37.9059 17.3707 38.0811 17.1989C38.2564 17.0271 38.4921 16.9309 38.7375 16.9309C38.983 16.9309 39.2186 17.0271 39.3939 17.199C39.5692 17.3708 39.6701 17.6045 39.675 17.8499V23.8311C39.6744 26.288 43.7528 26.2792 43.7437 23.8216V17.8217C43.7437 17.5731 43.8425 17.3346 44.0183 17.1588C44.1941 16.983 44.4326 16.8842 44.6812 16.8842C44.9298 16.8842 45.1683 16.983 45.3441 17.1588C45.5199 17.3346 45.6187 17.5731 45.6187 17.8217L45.6188 23.8217ZM49.2094 26.5967C49.2057 26.8429 49.1053 27.0779 48.9299 27.2507C48.7545 27.4235 48.5181 27.5204 48.2719 27.5204C48.0256 27.5204 47.7892 27.4235 47.6138 27.2507C47.4384 27.0778 47.338 26.8429 47.3344 26.5967V17.8217C47.3389 17.576 47.4397 17.342 47.615 17.1699C47.7903 16.9978 48.0262 16.9013 48.2719 16.9014C48.5176 16.9014 48.7535 16.9978 48.9288 17.1699C49.1041 17.342 49.2049 17.5761 49.2094 17.8218V26.5967Z" fill="#FED090"/>
<path d="M5.625 36.9463H3.75V39.4963C3.75182 40.4978 4.15045 41.4577 4.85859 42.1658C5.56674 42.874 6.52666 43.2726 7.52812 43.2744H25.8938C25.9969 45.5057 22.2656 49.4244 19.3031 51.7213C19.1474 51.8402 19.0331 52.005 18.9761 52.1925C18.9191 52.3799 18.9225 52.5805 18.9857 52.766C19.0489 52.9514 19.1687 53.1123 19.3283 53.226C19.4879 53.3396 19.6791 53.4003 19.875 53.3994H40.125C40.3219 53.3944 40.5123 53.3281 40.6697 53.2099C40.8272 53.0917 40.944 52.9273 41.0038 52.7397C41.0635 52.5521 41.0634 52.3505 41.0034 52.1629C40.9433 51.9754 40.8263 51.8112 40.6687 51.6932C40.6031 51.6463 34.8094 47.4744 34.3406 43.2744H52.4719C53.4733 43.2726 54.4333 42.874 55.1414 42.1658C55.8495 41.4577 56.2482 40.4978 56.25 39.4963V36.9463H5.625ZM27.6375 37.9682H32.0813C32.3275 37.9718 32.5624 38.0722 32.7352 38.2476C32.9081 38.423 33.0049 38.6594 33.0049 38.9057C33.0049 39.1519 32.9081 39.3883 32.7352 39.5637C32.5624 39.7391 32.3275 39.8395 32.0813 39.8432H27.6375C27.3914 39.8394 27.1566 39.7389 26.9839 39.5635C26.8112 39.3881 26.7144 39.1518 26.7144 38.9057C26.7144 38.6595 26.8112 38.4232 26.9839 38.2478C27.1566 38.0724 27.3914 37.972 27.6375 37.9682Z" fill="#FED090"/>
</svg>
