<svg width="60" height="60" viewBox="0 0 60 60" fill="none" xmlns="http://www.w3.org/2000/svg">
<g clip-path="url(#clip0_4069_741)">
<path d="M47.9429 52.9688H8.09912C7.12834 52.9688 6.34131 53.7558 6.34131 54.7266V58.2422C6.34131 59.213 7.12834 60 8.09912 60H47.9429C48.9137 60 49.7007 59.213 49.7007 58.2422V54.7266C49.7007 53.7558 48.9137 52.9688 47.9429 52.9688Z" fill="#FED090"/>
<path d="M11.0288 45.9375V49.4531H45.0132V45.9375C45.0132 44.9667 44.2262 44.1797 43.2554 44.1797H12.7866C11.8158 44.1797 11.0288 44.9667 11.0288 45.9375Z" fill="#FED090"/>
<path d="M7.40674 32.9048L10.3935 34.1849C9.86393 27.3509 11.0083 21.0798 13.7265 15.9851C16.569 10.6577 21.0011 6.615 26.9438 3.91406C26.6039 3.93305 26.2651 3.95824 25.9281 3.99258C22.4869 4.34355 19.3766 5.48543 16.6838 7.38645C13.6997 9.49301 11.3104 12.4846 9.58233 16.2782C7.72444 20.3569 6.63471 25.3777 6.3435 31.2014C6.30694 31.9356 6.73104 32.6152 7.40674 32.9048Z" fill="#FED090"/>
<path d="M52.5858 20.4242L42.5776 9.41523L41.4805 1.5162C41.3877 0.847882 40.9204 0.291593 40.2781 0.0847568C39.6358 -0.122079 38.9319 0.0572177 38.4665 0.545772L34.1266 5.10237C25.9364 7.2571 20.118 11.4734 16.8279 17.6399C14.2841 22.4076 13.3052 28.4134 13.9971 35.0084C14.2318 37.2459 14.6181 39.1914 14.9749 40.6641H40.3253V37.1485C40.3253 36.7821 40.2108 36.4248 39.9978 36.1267L35.8023 30.2528C35.2544 29.4859 35.2664 28.4639 35.8318 27.7101C36.4147 26.933 37.4517 26.6424 38.3535 27.003L45.6752 29.9316C47.3649 30.6077 49.2644 30.1068 50.4013 28.6857L52.7536 25.7453C54.02 24.1622 53.9495 21.9243 52.5858 20.4242ZM36.8096 18.8672C35.8388 18.8672 35.0518 18.0802 35.0518 17.1094C35.0518 16.1386 35.8388 15.3516 36.8096 15.3516C37.7804 15.3516 38.5674 16.1386 38.5674 17.1094C38.5674 18.0803 37.7804 18.8672 36.8096 18.8672Z" fill="#FED090"/>
</g>
<defs>
<clipPath id="clip0_4069_741">
<rect width="60" height="60" fill="white"/>
</clipPath>
</defs>
</svg>
