<svg width="70" height="70" viewBox="0 0 70 70" fill="none" xmlns="http://www.w3.org/2000/svg">
<g clip-path="url(#clip0_4069_809)">
<path d="M28.1752 9.8916C18.0935 9.8916 9.89136 18.0938 9.89136 28.1754C9.89136 38.2571 18.0935 46.4592 28.1752 46.4592C38.2568 46.4592 46.459 38.2572 46.459 28.1754C46.459 18.0936 38.2571 9.8916 28.1752 9.8916ZM39.3183 28.1754C39.3183 22.0311 34.3196 17.0323 28.1752 17.0323V12.8737C36.6125 12.8737 43.4769 19.7381 43.4769 28.1754H39.3183Z" fill="#FED090"/>
<path d="M67.899 57.7555L55.1435 44.9997L51.5419 48.6013L49.505 46.5645C53.7687 41.6258 56.3508 35.1966 56.3508 28.1753C56.3508 12.6395 43.7113 0 28.1754 0C12.6395 0 0 12.6395 0 28.1754C0 43.7113 12.6395 56.3507 28.1753 56.3507C35.1965 56.3507 41.6257 53.7687 46.5645 49.5049L48.6013 51.5417L44.9997 55.1433L57.7555 67.8989C59.1102 69.2537 60.9115 69.9999 62.8273 69.9999C64.7432 69.9999 66.5444 69.2538 67.8992 67.899C69.2538 66.5444 70 64.7432 70 62.8273C70 60.9115 69.2538 59.1101 67.899 57.7555ZM28.1753 50.6178C15.8006 50.6178 5.73289 40.5502 5.73289 28.1754C5.73289 15.8006 15.8006 5.73303 28.1753 5.73303C40.55 5.73303 50.6177 15.8007 50.6177 28.1754C50.6177 40.5501 40.5502 50.6178 28.1753 50.6178Z" fill="#FED090"/>
</g>
<defs>
<clipPath id="clip0_4069_809">
<rect width="70" height="70" fill="white"/>
</clipPath>
</defs>
</svg>
