<svg width="60" height="60" viewBox="0 0 60 60" fill="none" xmlns="http://www.w3.org/2000/svg">
<rect width="60" height="60" rx="10" fill="white"/>
<rect x="0.5" y="0.5" width="59" height="59" rx="9.5" stroke="#20808D" stroke-opacity="0.23"/>
<path d="M39.0971 14.3592L30.001 23.5992H39.0971V14.3592ZM39.0971 14.3592V16.8889M29.9799 13V48M39.0971 32.8372L30.001 23.5972M39.0971 32.8372V46.0837L30.001 36.8437M39.0971 32.8372L30 23.5972M39.0971 32.8372L39.0962 36.7903H43V23.5972H30M30.001 23.5972V36.8437M30.001 23.5972L20.9038 32.8372M30.001 36.8437L20.9038 46.0837V32.8372M20.9038 32.8372L20.9029 36.7903H17V23.5972H30M20.9038 32.8372L30 23.5972M30 23.5992L20.9029 14.3592V23.5992H30Z" stroke="#20808D" stroke-miterlimit="10"/>
</svg>
