<svg width="60" height="60" viewBox="0 0 60 60" fill="none" xmlns="http://www.w3.org/2000/svg">
<rect width="60" height="60" rx="10" fill="white"/>
<rect x="0.5" y="0.5" width="59" height="59" rx="9.5" stroke="#5F52B1" stroke-opacity="0.2"/>
<g clip-path="url(#clip0_3582_1335)">
<path d="M45.656 32.6875C45.4823 33.9057 45.1651 35.0773 44.7215 36.1848L46.749 37.3558L44.5615 41.1442L42.5312 39.9726C41.782 40.9228 40.9228 41.782 39.9726 42.5312L41.1442 44.5615L37.3558 46.749L36.1848 44.7215C35.0773 45.1651 33.9057 45.4823 32.6875 45.656V48H28.3125V45.656C27.0943 45.4823 25.9227 45.1651 24.8152 44.7215L23.6442 46.749L19.8558 44.5615L21.0274 42.5312C20.0772 41.782 19.218 40.9228 18.4688 39.9726L16.4385 41.1442L14.251 37.3558L16.2785 36.1848C15.8349 35.0773 15.5177 33.9057 15.344 32.6875H13V28.3125H15.344C15.5177 27.0943 15.8349 25.9227 16.2785 24.8152L14.251 23.6442L16.4385 19.8558L18.4688 21.0274C19.218 20.0772 20.0772 19.218 21.0274 18.4688L19.8558 16.4385L23.6442 14.251L24.8152 16.2785C25.9227 15.8349 27.0943 15.5177 28.3125 15.344V13H32.6875V15.344C33.9057 15.5177 35.0773 15.8349 36.1848 16.2785L37.3558 14.251L41.1442 16.4385L39.9726 18.4688C40.9228 19.218 41.782 20.0772 42.5312 21.0274L44.5615 19.8558L46.749 23.6442L44.7215 24.8152C45.1651 25.9227 45.4823 27.0943 45.656 28.3125H48V32.6875H45.656Z" fill="#5F52B1"/>
<path d="M40.7967 30.5001C40.7967 36.1869 36.1872 40.7964 30.5004 40.7964C24.8136 40.7964 20.2041 36.1869 20.2041 30.5001C20.2041 24.8133 24.8136 20.2031 30.5004 20.2031C36.1872 20.2031 40.7967 24.8133 40.7967 30.5001Z" fill="#EDF2FA"/>
<path d="M30.5004 19.1782C24.2571 19.1782 19.1787 24.2566 19.1787 30.4999C19.1787 36.7432 24.2571 41.8216 30.5004 41.8216C36.7437 41.8216 41.8221 36.7432 41.8221 30.4999C41.8221 24.2566 36.7437 19.1782 30.5004 19.1782ZM30.5004 39.7708C25.3885 39.7708 21.2295 35.6118 21.2295 30.4999C21.2295 25.388 25.3885 21.229 30.5004 21.229C35.6123 21.229 39.7713 25.388 39.7713 30.4999C39.7713 35.6118 35.6123 39.7708 30.5004 39.7708Z" fill="#E2DFF5"/>
<path d="M41.8217 30.4999C41.8217 36.7432 36.7433 41.8216 30.5 41.8216V39.7708C35.6119 39.7708 39.7709 35.6118 39.7709 30.4999C39.7709 25.388 35.6119 21.229 30.5 21.229V19.1782C36.7433 19.1782 41.8217 24.2566 41.8217 30.4999Z" fill="#D5D3EB"/>
<path d="M37.0881 25.8135V30.9575H35.0373V29.3148L30.4996 33.8525L28.4406 31.7929L25.0466 35.1869L23.5967 33.7363L28.4406 28.8931L30.4996 30.952L33.5874 27.8643H31.944V25.8135H37.0881Z" fill="#E84739"/>
</g>
<defs>
<clipPath id="clip0_3582_1335">
<rect width="35" height="35" fill="white" transform="translate(13 13)"/>
</clipPath>
</defs>
</svg>
