<svg width="60" height="60" viewBox="0 0 60 60" fill="none" xmlns="http://www.w3.org/2000/svg">
<rect width="60" height="60" rx="10" fill="white"/>
<rect x="0.5" y="0.5" width="59" height="59" rx="9.5" stroke="black" stroke-opacity="0.24"/>
<path d="M26.0803 34.4665L38.2008 25.5085C38.795 25.0694 39.6443 25.2407 39.9275 25.9228C41.4176 29.5203 40.7519 33.8436 37.787 36.8119C34.8223 39.7801 30.6971 40.4311 26.9266 38.9486L22.8076 40.8579C28.7154 44.9008 35.8894 43.901 40.3723 39.4096C43.9282 35.8494 45.0295 30.9966 43.9998 26.6205L44.0091 26.6298C42.5158 20.2011 44.3762 17.6314 48.1872 12.3769C48.2773 12.2523 48.3676 12.1277 48.4578 12L43.4428 17.0209V17.0054L26.0773 34.4696" fill="black"/>
<path d="M23.5792 36.6437C19.3389 32.5883 20.0699 26.3121 23.688 22.6929C26.3635 20.0142 30.7469 18.9209 34.5734 20.5281L38.6831 18.6281C37.9427 18.0924 36.9938 17.5162 35.9049 17.1113C30.9834 15.0836 25.0911 16.0928 21.0904 20.0952C17.242 23.9481 16.0319 29.8723 18.11 34.9275C19.6624 38.7057 17.1176 41.378 14.5541 44.0754C13.6457 45.0316 12.7342 45.9879 12 47.0001L23.576 36.6468" fill="black"/>
</svg>
