<svg width="60" height="60" viewBox="0 0 60 60" fill="none" xmlns="http://www.w3.org/2000/svg">
<rect width="60" height="60" rx="10" fill="white"/>
<rect x="0.5" y="0.5" width="59" height="59" rx="9.5" stroke="#1F66BE" stroke-opacity="0.2"/>
<g clip-path="url(#clip0_3693_5732)">
<path d="M47.5217 26.115L44.2438 26.0113C43.9566 25.0681 43.5671 24.1684 43.0885 23.3288L44.9139 21.8036C45.1219 21.633 45.1549 21.3253 44.9898 21.1146L43.3526 18.9772C43.1974 18.7732 42.9168 18.723 42.7023 18.8568L40.8174 20.0442C40.7415 20.0944 40.6821 20.1579 40.6458 20.2349C39.9955 19.6228 39.2825 19.0776 38.5167 18.606C38.6685 18.5357 38.7774 18.3852 38.7939 18.2012L39.025 15.5354C39.0448 15.3147 38.9194 15.1106 38.718 15.027L36.5031 14.1239C36.2786 14.0336 36.0244 14.1172 35.899 14.328L34.374 16.8566C34.3608 16.88 34.3476 16.9068 34.3376 16.9336C33.4431 16.7429 32.5155 16.6426 31.5615 16.6426C24.2433 16.6426 18.3115 22.5595 18.3115 29.8579C18.3115 36.5073 23.2299 42.0062 29.6338 42.936L29.4522 45.8761C29.4357 46.1638 29.6602 46.4079 29.9441 46.4079H33.5223C33.793 46.4079 34.0142 46.1838 34.0142 45.9062V42.8491C34.8559 42.6952 35.6712 42.4577 36.447 42.15L38.2757 44.197C38.4407 44.3843 38.718 44.4144 38.9227 44.2706L41.0287 42.7722C41.1937 42.6551 41.2729 42.4477 41.2267 42.2504L40.593 39.5344C41.1046 39.0561 41.5799 38.541 42.0124 37.9891L43.6232 39.5511L42.4151 38.3269C42.3755 38.3001 42.3359 38.27 42.3028 38.2366L39.266 35.1594L40.1572 36.1126C38.2196 38.7517 35.0903 40.4676 31.5615 40.4676C25.6892 40.4676 20.9259 35.718 20.9259 29.8579C20.9259 23.9978 25.6892 19.2482 31.5615 19.2482C37.4339 19.2482 42.2005 23.9978 42.2005 29.8579C42.2005 30.5904 42.1279 31.3028 41.9827 31.9919C41.8737 32.527 41.7252 33.0455 41.5403 33.5438C41.3786 33.982 41.1871 34.4068 40.9693 34.8149L40.2232 34.0824L40.9627 34.8316L42.5768 36.4705L42.5966 36.4505L44.3692 38.2433L42.9036 36.7013C43.1182 36.3468 43.3195 35.9789 43.5011 35.6042L44.8083 36.9422C45.0426 37.1796 45.4421 37.1194 45.5972 36.8184L46.4521 35.1493C46.5677 34.9252 46.4984 34.651 46.2937 34.5105L44.3923 33.1893C44.6003 32.3832 44.7357 31.5437 44.7885 30.684L47.5415 30.4867C47.7989 30.47 48.0003 30.2526 48.0003 29.9883V26.6134C48.0003 26.3458 47.789 26.1251 47.5217 26.115Z" fill="#1F66BE"/>
<path d="M31.8881 14.4316L31.3995 45.1703C31.3863 45.9095 30.7987 46.5015 30.0692 46.5249C29.8976 46.5316 29.7226 46.5316 29.5477 46.5316C27.0753 46.5316 24.7283 45.9831 22.6223 44.9964L15.8058 47.9732C15.5351 48.0903 15.2546 47.8428 15.3272 47.5551L17.113 40.8221C14.5547 37.8719 13 33.9987 13 29.7641C13 20.5057 20.4106 13 29.5477 13C29.9042 13 30.2541 13.01 30.604 13.0334C31.3335 13.0803 31.9013 13.6924 31.8881 14.4316Z" fill="#6634CA"/>
<path d="M34.228 36.3299C37.7885 36.3299 40.6748 33.4053 40.6748 29.7975C40.6748 26.1898 37.7885 23.2651 34.228 23.2651C30.6676 23.2651 27.7812 26.1898 27.7812 29.7975C27.7812 33.4053 30.6676 36.3299 34.228 36.3299Z" fill="white"/>
<path d="M44.7153 38.5943L44.3687 38.2431L42.5961 36.4503L42.5763 36.4704L40.9621 34.8314L39.5163 33.3664C41.4606 30.8277 41.0083 27.1718 38.5029 25.2018C35.9975 23.2283 32.3895 23.6899 30.4453 26.2253C28.501 28.764 28.9533 32.4198 31.4587 34.3933C32.4655 35.186 33.7066 35.6175 34.9841 35.6141C36.2583 35.6141 37.4994 35.1826 38.5062 34.3899L42.3023 38.2364C42.3353 38.2699 42.3749 38.3 42.4145 38.3268L43.6227 39.5509L43.6986 39.6279C43.9792 39.9122 44.4347 39.9122 44.7153 39.6279C44.9959 39.3436 44.9959 38.882 44.7153 38.5943ZM38.0342 32.8881C36.3507 34.5973 33.6175 34.5973 31.9307 32.8881C31.0857 32.0385 30.6631 30.918 30.6631 29.7975C30.6631 28.677 31.0791 27.5766 31.9109 26.727C31.9175 26.7203 31.9241 26.7136 31.9307 26.7036C33.6175 24.9977 36.3507 24.9977 38.0342 26.7036C39.721 28.4128 39.721 31.1823 38.0342 32.8881Z" fill="#1F66BE"/>
</g>
<defs>
<clipPath id="clip0_3693_5732">
<rect width="35" height="35" fill="white" transform="translate(13 13)"/>
</clipPath>
</defs>
</svg>
