<svg width="60" height="60" viewBox="0 0 60 60" fill="none" xmlns="http://www.w3.org/2000/svg">
<rect width="60" height="60" rx="10" fill="white"/>
<rect x="0.5" y="0.5" width="59" height="59" rx="9.5" stroke="#74AA9C" stroke-opacity="0.3"/>
<g clip-path="url(#clip0_3693_5659)">
<path d="M45.4911 27.3253C46.2852 24.9419 46.0117 22.3311 44.7419 20.1633C42.8321 16.8382 38.993 15.1275 35.2435 15.9326C33.5755 14.0534 31.1791 12.9848 28.6667 13.0002C24.8341 12.9914 21.4336 15.459 20.2545 19.1056C17.7924 19.6098 15.6672 21.151 14.4235 23.3352C12.4996 26.6515 12.9382 30.8319 15.5086 33.6757C14.7145 36.0591 14.988 38.6699 16.2578 40.8377C18.1676 44.1628 22.0067 45.8735 25.7562 45.0684C27.4231 46.9476 29.8206 48.0162 32.333 47.9998C36.1678 48.0096 39.5694 45.5398 40.7485 41.8899C43.2106 41.3857 45.3358 39.8446 46.5794 37.6603C48.5012 34.344 48.0616 30.1669 45.4923 27.3231L45.4911 27.3253ZM32.3352 45.7127C30.8007 45.7149 29.3142 45.1779 28.1362 44.1946C28.1898 44.1662 28.2828 44.1148 28.3429 44.0776L35.3125 40.0525C35.669 39.8502 35.8878 39.4706 35.8856 39.0605V29.235L38.8311 30.9358C38.8628 30.9511 38.8836 30.9818 38.888 31.0168V39.1534C38.8836 42.7716 35.9534 45.7051 32.3352 45.7127ZM18.243 39.6937C17.4741 38.3659 17.1974 36.8094 17.4609 35.2989C17.5124 35.3295 17.6031 35.3853 17.6677 35.4225L24.6372 39.4476C24.9905 39.6543 25.428 39.6543 25.7823 39.4476L34.2908 34.5343V37.936C34.293 37.971 34.2766 38.0049 34.2493 38.0267L27.2043 42.0945C24.0662 43.9014 20.0587 42.8273 18.2441 39.6936L18.243 39.6937ZM16.4088 24.4804C17.1744 23.1504 18.383 22.1331 19.8224 21.6048C19.8224 21.665 19.8191 21.7711 19.8191 21.8455V29.8968C19.817 30.3058 20.0357 30.6854 20.3912 30.8877L28.8997 35.7999L25.9541 37.5006C25.9246 37.5203 25.8874 37.5236 25.8546 37.5094L18.8085 33.4384C15.677 31.6249 14.603 27.6184 16.4077 24.4815L16.4088 24.4804ZM40.6096 30.1122L32.1011 25.199L35.0466 23.4993C35.0761 23.4796 35.1133 23.4763 35.1461 23.4905L42.1922 27.5582C45.3292 29.3706 46.4043 33.3837 44.592 36.5206C43.8253 37.8485 42.6177 38.8657 41.1794 39.3951V31.1032C41.1827 30.6941 40.965 30.3157 40.6106 30.1122H40.6096ZM43.5409 25.6999C43.4895 25.6682 43.3987 25.6135 43.3342 25.5763L36.3646 21.5512C36.0114 21.3445 35.5739 21.3445 35.2195 21.5512L26.711 26.4644V23.0628C26.7088 23.0278 26.7252 22.9939 26.7526 22.972L33.7975 18.9076C36.9356 17.0974 40.9475 18.1748 42.7567 21.3139C43.5212 22.6396 43.7979 24.1916 43.5387 25.6999H43.5409ZM25.1097 31.7627L22.1631 30.0619C22.1314 30.0466 22.1106 30.016 22.1062 29.981V21.8444C22.1084 18.2218 25.0474 15.2861 28.67 15.2883C30.2023 15.2883 31.6855 15.8264 32.8635 16.8064C32.8099 16.8349 32.718 16.8863 32.6568 16.9234L25.6872 20.9486C25.3307 21.1509 25.1119 21.5294 25.1141 21.9395L25.1097 31.7605V31.7627ZM26.7099 28.3129L30.4998 26.1243L34.2897 28.3118V32.688L30.4998 34.8756L26.7099 32.688V28.3129Z" fill="#74AA9C"/>
</g>
<defs>
<clipPath id="clip0_3693_5659">
<rect width="35" height="35" fill="white" transform="translate(13 13)"/>
</clipPath>
</defs>
</svg>
