<svg width="65" height="65" viewBox="0 0 65 65" fill="none" xmlns="http://www.w3.org/2000/svg">
<path fill-rule="evenodd" clip-rule="evenodd" d="M21.9836 3.47607V7.27832H31.7996V3.47607H21.9836ZM11.4998 46.743L19.5816 27.3852L11.8045 24.1377L3.72266 43.4968L11.4998 46.743ZM18.2499 52.6818C17.9554 52.9954 17.4603 53.0106 17.1467 52.7161L15.8429 51.491C15.5293 51.1965 15.5141 50.7014 15.8086 50.3878L19.7645 46.1793C20.0552 45.8695 20.5325 45.8479 20.8512 46.1285L22.1918 47.3143C22.3632 47.4653 22.4444 47.6354 22.4546 47.8627C22.4647 48.0899 22.4 48.2664 22.2451 48.4327L18.2499 52.6818ZM22.2223 55.5713L26.0981 51.4478L26.7964 50.7052C26.9525 50.5389 27.0186 50.3624 27.0071 50.1339C26.997 49.9092 26.9132 49.7353 26.7443 49.5854L25.4037 48.401C25.2539 48.2689 25.0698 48.2029 24.8857 48.2029C24.6788 48.2029 24.4719 48.2867 24.317 48.4505L23.3521 49.4763V49.4775L19.3582 53.7254H19.3569L18.8174 54.2992C18.6752 54.4503 18.6003 54.6496 18.6066 54.8591C18.613 55.0686 18.7006 55.2615 18.8517 55.4037L20.1555 56.6288C20.469 56.9233 20.9642 56.9081 21.2587 56.5945L22.2223 55.5713ZM25.7731 58.9089C25.4786 59.2225 24.9835 59.2377 24.6699 58.9432L23.3661 57.7181C23.215 57.5759 23.1287 57.3829 23.1224 57.1734C23.116 56.964 23.1896 56.7659 23.3318 56.6136L27.2077 52.4901C27.4984 52.1816 27.9758 52.1588 28.2944 52.4394L29.6351 53.6251C29.8064 53.7774 29.8877 53.9463 29.8979 54.1735C29.9093 54.4021 29.8433 54.5785 29.6871 54.7448L25.7731 58.9089ZM33.2888 56.8561L31.9469 55.6703C31.6295 55.3885 31.1521 55.4101 30.8602 55.7198L30.8576 55.7173C30.8373 55.7414 30.8183 55.7668 30.7954 55.7896L27.7028 59.0803C27.4083 59.3938 27.4235 59.889 27.7371 60.1848L29.0396 61.4099C29.3532 61.7044 29.8483 61.6904 30.1441 61.3756L33.3396 57.9758C33.4957 57.8095 33.5604 57.633 33.5503 57.4045C33.5414 57.1798 33.4576 57.0046 33.2888 56.8561ZM50.2269 48.5889C50.5493 48.8745 50.5798 49.3684 50.2941 49.6908L49.1097 51.0314C48.824 51.3539 48.3302 51.3844 48.0077 51.0987L39.1045 43.2289C38.7884 42.9496 38.3072 42.9801 38.0292 43.2949C37.7512 43.6098 37.7804 44.0909 38.0952 44.3702L46.9984 52.24C47.1279 52.3543 47.2663 52.4482 47.411 52.5282C47.4529 52.6146 47.5126 52.6945 47.5888 52.7618C47.7437 52.8989 47.8363 53.0894 47.849 53.2988C47.8617 53.5083 47.7932 53.7089 47.6561 53.8638L46.4703 55.2044C46.1847 55.5269 45.6908 55.5573 45.3684 55.2729L44.3159 54.3424L34.7424 45.881C34.4275 45.6017 33.9464 45.6321 33.6671 45.947C33.3891 46.2618 33.4183 46.743 33.7331 47.0223L43.3066 55.485C43.6291 55.7706 43.6596 56.2645 43.3739 56.5869L42.1895 57.9275C41.9038 58.25 41.4087 58.2805 41.0875 57.9961L31.8834 49.8609C31.5686 49.5829 31.0861 49.6121 30.8081 49.927C30.5288 50.2418 30.5593 50.7229 30.8741 51.0022L39.1807 58.3452C39.5031 58.6309 39.5336 59.1247 39.2492 59.4472L38.0647 60.7878C37.7791 61.1103 37.2853 61.1407 36.9628 60.8551L34.6319 58.7946C34.943 58.3719 35.0953 57.8729 35.0699 57.3347C35.0407 56.6974 34.7729 56.1375 34.2942 55.7147L32.9536 54.529C32.5055 54.1329 31.952 53.9438 31.401 53.9488C31.3388 53.3763 31.0785 52.8723 30.6393 52.4838L29.2986 51.298C29.0396 51.0695 28.7451 50.9108 28.4366 50.8169C28.5064 50.577 28.5382 50.3243 28.5255 50.0615C28.4963 49.4242 28.2284 48.8644 27.7498 48.4416L26.4092 47.2559C25.6576 46.5919 24.6064 46.503 23.7774 46.9601C23.6454 46.6643 23.4524 46.3964 23.196 46.1704L21.8554 44.9847C20.9159 44.1544 19.508 44.2191 18.6498 45.1332L17.4272 46.4332L14.2077 44.1988L19.6743 31.1062L25.989 32.3731C25.4735 35.806 24.6839 38.406 23.5921 40.276C23.4296 40.5527 23.2328 41.138 23.7355 41.9365C24.0187 42.3872 24.4439 42.6779 24.967 42.777L26.8649 43.1362C28.052 43.3609 29.1806 43.0854 30.1314 42.3402C31.698 41.1126 32.3112 39.4787 31.9938 37.3637L35.7986 35.8377L50.2269 48.5889ZM45.282 31.341C42.2517 29.9775 38.9001 28.7436 35.3099 27.6683C34.9341 27.8117 34.5608 27.9526 34.1927 28.0923C31.9431 28.9416 29.8128 29.7465 27.7308 30.8764C27.2128 35.3261 26.3025 38.6345 24.9518 40.9793C24.9632 41.0098 24.986 41.0605 25.0305 41.1304C25.0863 41.2205 25.1523 41.2637 25.2552 41.284L27.1531 41.6433C27.906 41.7854 28.5928 41.6179 29.1958 41.1456C30.4412 40.1693 30.8094 38.91 30.3917 37.0615C30.3092 36.6972 30.5034 36.3252 30.8513 36.1868L35.6729 34.2533C35.9408 34.1454 36.2455 34.1987 36.4613 34.3892L49.4728 45.8898L50.948 44.8945L45.282 31.341ZM53.308 24.7534L45.5372 28.0009L53.6267 47.3562L61.3975 44.1074L53.308 24.7534ZM44.66 14.1262V17.9284H54.4747V14.1262H44.66ZM33.3218 14.1262V17.9284H43.1365V14.1262H33.3218ZM21.9836 14.1262V17.9284H31.7996V14.1262H21.9836ZM20.4602 14.1262H10.6454V17.9284H20.4602V14.1262ZM26.1299 12.6027V8.80049H16.3139V12.6027H26.1299ZM37.4668 12.6027V8.80049H27.6521V12.6027H37.4668ZM48.8063 8.80049H38.9915V12.6027H48.8063V8.80049ZM33.3218 3.47607V7.27832H43.1365V3.47607H33.3218Z" fill="#FFD79F"/>
</svg>
