<svg width="65" height="65" viewBox="0 0 65 65" fill="none" xmlns="http://www.w3.org/2000/svg">
<path fill-rule="evenodd" clip-rule="evenodd" d="M39.5906 5.14321L42.1689 11.3534C43.5042 11.9655 44.7798 12.7022 45.9769 13.5526L52.6448 12.6832C53.3192 12.5938 53.9935 12.8484 54.4404 13.3603C56.9185 16.204 58.8225 19.5001 60.0439 23.0697C60.266 23.7115 60.1496 24.4238 59.7352 24.9628L55.6483 30.3009C55.7864 31.7634 55.7864 33.2367 55.6483 34.6993L59.7352 40.0374C60.1496 40.5763 60.266 41.2886 60.0439 41.9305C58.8225 45.5001 56.9185 48.7961 54.4404 51.6399C53.9935 52.1517 53.3192 52.4063 52.6448 52.317C52.6448 52.317 45.9769 51.4476 45.9796 51.4449C44.7825 52.298 43.5042 53.0347 42.1689 53.644L39.5906 59.857C39.3306 60.4826 38.7727 60.9403 38.1064 61.0703C34.4042 61.7961 30.5962 61.7961 26.8939 61.0703C26.2277 60.9403 25.6698 60.4826 25.4098 59.857L22.8314 53.6468C21.4962 53.0347 20.2206 52.298 19.0235 51.4476L12.3556 52.317C11.6812 52.4063 11.0069 52.1517 10.56 51.6399C8.08186 48.7961 6.1779 45.5001 4.95645 41.9305C4.73436 41.2886 4.85082 40.5763 5.2652 40.0374L9.35207 34.6993C9.21395 33.2367 9.21395 31.7634 9.35207 30.3009L5.2652 24.9628C4.85082 24.4238 4.73436 23.7115 4.95645 23.0697C6.1779 19.5001 8.08186 16.204 10.56 13.3603C11.0069 12.8484 11.6812 12.5938 12.3556 12.6832C12.3556 12.6832 19.0235 13.5526 19.0208 13.5553C20.2179 12.7022 21.4962 11.9655 22.8314 11.3561L25.4098 5.14321C25.6698 4.51758 26.2277 4.05987 26.8939 3.92987C30.5962 3.20404 34.4042 3.20404 38.1064 3.92987C38.7727 4.05987 39.3306 4.51758 39.5906 5.14321ZM32.5002 16.9272C23.9039 16.9272 16.9273 23.9038 16.9273 32.5001C16.9273 41.0963 23.9039 48.073 32.5002 48.073C41.0964 48.073 48.0731 41.0963 48.0731 32.5001C48.0731 23.9038 41.0964 16.9272 32.5002 16.9272Z" fill="#FFD79F"/>
<path fill-rule="evenodd" clip-rule="evenodd" d="M24.9702 33.9355C24.1766 33.1446 24.1766 31.8555 24.9702 31.0646C25.761 30.2711 27.0502 30.2711 27.841 31.0646L30.4681 33.689L37.1577 27.0021C37.9485 26.2086 39.2377 26.2086 40.0285 27.0021C40.822 27.793 40.822 29.0821 40.0285 29.873L31.9035 37.998C31.1099 38.7915 29.8262 38.7915 29.0327 37.998L24.9702 33.9355Z" fill="#FFD79F"/>
</svg>
