<svg width="65" height="65" viewBox="0 0 65 65" fill="none" xmlns="http://www.w3.org/2000/svg">
<path fill-rule="evenodd" clip-rule="evenodd" d="M59.0574 22.3438V54.8438C59.0574 56.4606 58.416 58.0105 57.2723 59.152C56.1287 60.2956 54.5787 60.9375 52.9619 60.9375H20.4521C18.8353 60.9375 17.2853 60.2956 16.1417 59.152C14.998 58.0105 14.3566 56.4606 14.3566 54.8438V40.3569C15.3464 40.5336 16.3652 40.625 17.4044 40.625C26.9367 40.625 34.6752 32.888 34.6752 23.3594C34.6752 13.8308 26.9367 6.09375 17.4044 6.09375C16.879 6.09375 16.3594 6.11812 15.8485 6.16281C16.966 4.87702 18.6147 4.0625 20.4521 4.0625H40.7707V16.25C40.7707 17.8669 41.4122 19.4167 42.5559 20.5583C43.6995 21.7019 45.2495 22.3438 46.8663 22.3438H59.0574ZM26.5477 50.7812V48.75C26.5477 47.6287 25.6363 46.7188 24.5159 46.7188C23.3954 46.7188 22.484 47.6287 22.484 48.75V50.7812C22.484 51.9025 23.3954 52.8125 24.5159 52.8125C25.6363 52.8125 26.5477 51.9025 26.5477 50.7812ZM34.6752 50.7812V42.6562C34.6752 41.535 33.7637 40.625 32.6433 40.625C31.5229 40.625 30.6114 41.535 30.6114 42.6562V50.7812C30.6114 51.9025 31.5229 52.8125 32.6433 52.8125C33.7637 52.8125 34.6752 51.9025 34.6752 50.7812ZM42.8026 50.7812V44.6875C42.8026 43.5662 41.8911 42.6562 40.7707 42.6562C39.6503 42.6562 38.7389 43.5662 38.7389 44.6875V50.7812C38.7389 51.9025 39.6503 52.8125 40.7707 52.8125C41.8911 52.8125 42.8026 51.9025 42.8026 50.7812ZM50.93 50.7812V36.5625C50.93 35.4412 50.0186 34.5312 48.8982 34.5312C47.7777 34.5312 46.8663 35.4412 46.8663 36.5625V50.7812C46.8663 51.9025 47.7777 52.8125 48.8982 52.8125C50.0186 52.8125 50.93 51.9025 50.93 50.7812ZM44.8344 4.10109C46.2945 4.26765 47.6558 4.95829 48.6543 6.05719L57.4726 15.7523C58.1315 16.4795 58.6017 17.3469 58.8514 18.2812H46.8663C46.3264 18.2812 45.8097 18.068 45.4295 17.6861C45.0493 17.3063 44.8344 16.7883 44.8344 16.25V4.10109ZM30.4547 25.3906C29.4765 31.7139 24.0021 36.5625 17.4044 36.5625C10.1158 36.5625 4.19727 30.6455 4.19727 23.3594C4.19727 16.7639 9.04758 11.2897 15.3725 10.3127V21.3281C15.3725 23.5727 17.1925 25.3906 19.4362 25.3906H30.4547ZM19.4362 10.3127C25.0993 11.1881 29.581 15.667 30.4547 21.3281H19.4362V10.3127Z" fill="#FFD79F"/>
</svg>
