<svg width="65" height="65" viewBox="0 0 65 65" fill="none" xmlns="http://www.w3.org/2000/svg">
<path d="M45.5284 26.258C46.4811 24.31 48.1325 22.8455 50.1861 22.1386C51.0453 21.842 51.9309 21.7283 52.8125 21.7242V10.1562C52.8125 6.79656 50.0784 4.0625 46.7188 4.0625H14.2188C10.8591 4.0625 8.125 6.79656 8.125 10.1562V50.7812C8.125 54.1409 10.8591 56.875 14.2188 56.875H34.4277L34.2083 56.2372C33.3247 53.6595 33.4973 50.9052 34.6897 48.4697L45.5284 26.258ZM16.25 16.25H40.625C41.7483 16.25 42.6562 17.16 42.6562 18.2812C42.6562 19.4025 41.7483 20.3125 40.625 20.3125H16.25C15.1267 20.3125 14.2188 19.4025 14.2188 18.2812C14.2188 17.16 15.1267 16.25 16.25 16.25ZM16.25 24.375H38.5938C39.717 24.375 40.625 25.285 40.625 26.4062C40.625 27.5275 39.717 28.4375 38.5938 28.4375H16.25C15.1267 28.4375 14.2188 27.5275 14.2188 26.4062C14.2188 25.285 15.1267 24.375 16.25 24.375ZM30.4688 44.6875H16.25C15.1267 44.6875 14.2188 43.7775 14.2188 42.6562C14.2188 41.535 15.1267 40.625 16.25 40.625H30.4688C31.592 40.625 32.5 41.535 32.5 42.6562C32.5 43.7775 31.592 44.6875 30.4688 44.6875ZM16.25 36.5625C15.1267 36.5625 14.2188 35.6525 14.2188 34.5312C14.2188 33.41 15.1267 32.5 16.25 32.5H34.5312C35.6545 32.5 36.5625 33.41 36.5625 34.5312C36.5625 35.6525 35.6545 36.5625 34.5312 36.5625H16.25ZM60.1331 33.3836L49.2903 55.6034C48.5733 57.068 47.3322 58.1648 45.7945 58.693L41.9534 60.0133C41.7361 60.0884 41.5106 60.125 41.2933 60.125C40.4503 60.125 39.6622 59.5969 39.3738 58.7539L38.0514 54.9128C37.5212 53.3691 37.6248 51.7156 38.3398 50.2552L49.1827 28.0394C49.6559 27.0644 50.4847 26.3331 51.5105 25.9797C52.5342 25.6262 53.6372 25.6912 54.6122 26.1706L58.2644 27.952C59.2394 28.4273 59.9706 29.2561 60.3241 30.2819C60.6775 31.3077 60.6105 32.4086 60.1331 33.3836Z" fill="#FFD79F"/>
</svg>
