<svg width="65" height="65" viewBox="0 0 65 65" fill="none" xmlns="http://www.w3.org/2000/svg">
<g clip-path="url(#clip0_5306_2372)">
<path d="M32.5 14.0918C22.3497 14.0918 14.0918 22.3497 14.0918 32.5C14.0918 42.6503 22.3497 50.9082 32.5 50.9082C42.6503 50.9082 50.9082 42.6503 50.9082 32.5C50.9082 22.3497 42.6503 14.0918 32.5 14.0918ZM45.3786 33.4028H41.57V29.8751L32.5 38.9453L28.4375 34.8828L21.659 41.6613L18.9659 38.9683L28.4375 29.4967L32.5 33.5592L38.877 27.1822H35.3493V23.3736H45.3786V33.4028Z" fill="#FFD79F"/>
<path d="M65 36.5625V28.4375H60.6474C60.3238 26.1756 59.7349 23.9996 58.9117 21.9422L62.6771 19.7683L58.6146 12.7317L54.8444 14.9085C53.4529 13.1433 51.8567 11.5471 50.0915 10.1556L52.2683 6.38536L45.2317 2.32286L43.0578 6.08829C41.0004 5.26513 38.8244 4.67619 36.5625 4.35259V0H28.4375V4.35259C26.1756 4.67619 23.9996 5.26513 21.9422 6.08829L19.7683 2.32286L12.7317 6.38536L14.9085 10.1556C13.1433 11.5471 11.5471 13.1433 10.1556 14.9085L6.38536 12.7317L2.32286 19.7683L6.08829 21.9422C5.26513 23.9996 4.67619 26.1756 4.35259 28.4375H0V36.5625H4.35259C4.67619 38.8244 5.26513 41.0004 6.08829 43.0578L2.32286 45.2317L6.38536 52.2683L10.1556 50.0915C11.5471 51.8567 13.1433 53.4529 14.9085 54.8444L12.7317 58.6146L19.7683 62.6771L21.9422 58.9117C23.9996 59.7349 26.1756 60.3238 28.4375 60.6474V65H36.5625V60.6474C38.8244 60.3238 41.0004 59.7349 43.0578 58.9117L45.2317 62.6771L52.2683 58.6146L50.0915 54.8444C51.8567 53.4529 53.4529 51.8567 54.8444 50.0915L58.6146 52.2683L62.6771 45.2317L58.9117 43.0578C59.7349 41.0004 60.3238 38.8244 60.6474 36.5625H65ZM32.5 54.7168C20.2497 54.7168 10.2832 44.7503 10.2832 32.5C10.2832 20.2497 20.2497 10.2832 32.5 10.2832C44.7503 10.2832 54.7168 20.2497 54.7168 32.5C54.7168 44.7503 44.7503 54.7168 32.5 54.7168Z" fill="#FFD79F"/>
</g>
<defs>
<clipPath id="clip0_5306_2372">
<rect width="65" height="65" fill="white"/>
</clipPath>
</defs>
</svg>
