<svg width="50" height="50" viewBox="0 0 50 50" fill="none" xmlns="http://www.w3.org/2000/svg">
<g clip-path="url(#clip0_6229_6936)">
<mask id="mask0_6229_6936" style="mask-type:luminance" maskUnits="userSpaceOnUse" x="0" y="-1" width="50" height="51">
<path d="M0 -0.000118256H50V49.9999H0V-0.000118256Z" fill="white"/>
</mask>
<g mask="url(#mask0_6229_6936)">
<path d="M0.732422 8.49329C0.732422 4.16897 4.26914 0.67063 8.60771 0.73313C12.8104 0.79358 16.2276 4.24016 16.2542 8.44309C16.2691 10.7969 15.2359 12.9094 13.594 14.3422C13.4208 14.4934 13.4458 14.7695 13.6437 14.8865L15.1061 15.7518C15.3424 15.8916 15.2433 16.2541 14.9685 16.254L8.34648 16.2524C4.12803 16.174 0.732422 12.7304 0.732422 8.49329Z" fill="#7ACAA6"/>
<path d="M15.1055 15.7517L13.6431 14.8865C13.4463 14.7699 13.4188 14.4944 13.5913 14.3441C15.2519 12.8959 16.2905 10.7528 16.2528 8.3678C16.1877 4.24231 12.8487 0.855786 8.72441 0.735572C8.13955 0.718579 7.56875 0.766431 7.01855 0.872193C10.5835 1.55559 13.3004 4.69788 13.324 8.44309C13.3354 10.2568 12.7245 11.9273 11.6924 13.254C11.0691 14.0551 11.2717 15.2167 12.1453 15.7336L12.1758 15.7517C12.4097 15.8901 12.3148 16.2455 12.047 16.2532L14.968 16.254C15.2427 16.254 15.3419 15.8916 15.1055 15.7517Z" fill="#57BE92"/>
<path d="M38.5473 28.9028H20.9413C16.544 28.9028 14.1376 23.7782 16.9461 20.3945L17.1023 20.2064C18.3396 18.7158 19.0168 16.8395 19.0168 14.9022V11.507C19.0168 5.55635 23.8408 0.732327 29.7916 0.732327C35.7423 0.732327 40.5664 5.55635 40.5664 11.507V15.0168C40.5664 16.9743 41.2579 18.8689 42.5188 20.3663C45.3624 23.7431 42.9619 28.9028 38.5473 28.9028Z" fill="#C59191"/>
<path d="M47.8023 49.2675V37.6282C47.8023 35.0574 46.2868 32.7282 43.9364 31.6867L36.0508 28.3068C34.551 27.6639 33.5786 26.1892 33.5786 24.5575V23.8431H25.9103V24.5964C25.9103 26.2204 24.947 27.6897 23.4576 28.3373L15.6643 31.7257C13.254 32.7401 11.6865 35.1004 11.6865 37.7155V49.2675" fill="white"/>
<path d="M21.4941 31.9661C23.4839 32.5607 26.4128 33.1949 29.9828 33.1325C33.3326 33.074 36.0823 32.4226 37.9956 31.8116L38.9463 29.5476L36.0512 28.3068C34.5514 27.6639 33.579 26.1892 33.579 24.5575V23.8431H25.9108V24.5963C25.9108 26.2203 24.9474 27.6897 23.458 28.3372L21.1133 29.3567L21.4941 31.9661Z" fill="#FFCEBF"/>
<path d="M43.9373 31.6867L37.9972 29.1407L37.9961 29.1408V49.2675H47.8032V37.6282C47.8032 35.0574 46.2877 32.7282 43.9373 31.6867Z" fill="#8795DE"/>
<path d="M15.5524 31.6867L21.4927 29.1407L21.4937 29.1408V49.2675H11.6865V37.6282C11.6865 35.0574 13.2021 32.7282 15.5524 31.6867Z" fill="#8795DE"/>
<path d="M31.923 22.281H30.2066C29.4254 22.281 28.792 21.6477 28.792 20.8665C28.792 20.0852 29.4254 19.4518 30.2066 19.4518H31.923C32.7043 19.4518 33.3376 20.0852 33.3376 20.8665C33.3376 21.6477 32.7043 22.281 31.923 22.281Z" fill="white"/>
<path d="M31.923 22.281H30.2066C29.4254 22.281 28.792 21.6477 28.792 20.8665C28.792 20.0852 29.4254 19.4518 30.2066 19.4518H31.923C32.7043 19.4518 33.3376 20.0852 33.3376 20.8665C33.3376 21.6477 32.7043 22.281 31.923 22.281Z" stroke="black" stroke-width="1.40625" stroke-miterlimit="10" stroke-linecap="round" stroke-linejoin="round"/>
<path d="M30.4517 37.1812C30.4517 37.5719 30.135 37.8885 29.7443 37.8885C29.3537 37.8885 29.0371 37.5719 29.0371 37.1812C29.0371 36.7906 29.3537 36.4739 29.7443 36.4739C30.135 36.4739 30.4517 36.7906 30.4517 37.1812Z" fill="black"/>
<path d="M32.4031 28.0519C33.2854 28.0519 34.126 27.8747 34.8923 27.555C34.0703 26.7963 33.5792 25.7166 33.5792 24.5574V23.8431H25.911V24.5963C25.911 25.183 25.7847 25.7492 25.5537 26.2641C26.7149 27.3709 28.2858 28.0519 30.0167 28.0519H32.4031Z" fill="#FFB09E"/>
<path d="M37.4094 12.3077V18.6513C37.4094 22.2251 34.5122 25.1223 30.9384 25.1223H28.552C24.9781 25.1223 22.0811 22.2251 22.0811 18.6513V12.3077C22.0811 9.98276 23.9657 8.098 26.2907 8.098H33.1997C35.5246 8.098 37.4094 9.98276 37.4094 12.3077Z" fill="#FFCEBF"/>
<path d="M31.923 22.281H30.2066C29.4254 22.281 28.792 21.6477 28.792 20.8665C28.792 20.0852 29.4254 19.4518 30.2066 19.4518H31.923C32.7043 19.4518 33.3376 20.0852 33.3376 20.8665C33.3376 21.6477 32.7043 22.281 31.923 22.281Z" fill="#685E68"/>
<path d="M31.2747 6.41889C31.439 4.34614 33.4234 2.97055 35.3225 2.25825C38.4643 4.14067 40.5675 7.57807 40.5675 11.507V12.2478C40.3938 12.2842 40.2209 12.3162 40.0501 12.3416C39.0039 12.4979 38.1128 12.4303 37.5042 12.3416C33.5818 11.8191 31.0762 8.92221 31.2747 6.41889Z" fill="#B98080"/>
<path d="M29.7924 0.732302C32.2258 0.732302 34.4704 1.53933 36.2742 2.89978C35.3744 4.4655 33.3083 7.56101 29.4339 9.85281C26.5577 11.5541 23.8457 12.1258 22.1756 12.3417H19.0176V11.507C19.0176 5.55632 23.8416 0.732302 29.7924 0.732302Z" fill="#C59191"/>
<path d="M41.8362 49.2675H18.3904L17.0972 37.0684C17.0054 36.2031 17.6837 35.4491 18.5538 35.4491H41.6727C42.5428 35.4491 43.2211 36.2031 43.1293 37.0684L41.8362 49.2675Z" fill="#EFEDEF"/>
<path d="M41.6729 35.4491H38.7432C39.6133 35.4491 40.2915 36.2031 40.1998 37.0683L38.9066 49.2675H41.8363L43.1295 37.0683C43.2212 36.2031 42.543 35.4491 41.6729 35.4491Z" fill="#E5E1E5"/>
<path d="M49.2676 49.9999H0.732422C0.327832 49.9999 0 49.6719 0 49.2675C0 48.863 0.327832 48.535 0.732422 48.535H49.2676C49.6722 48.535 50 48.863 50 49.2675C50 49.6719 49.6722 49.9999 49.2676 49.9999Z" fill="#C9BFC8"/>
<path d="M32.1641 42.3583C32.1641 43.4909 31.246 44.4091 30.1133 44.4091C28.9807 44.4091 28.0625 43.4909 28.0625 42.3583C28.0625 41.2257 28.9807 40.3075 30.1133 40.3075C31.246 40.3075 32.1641 41.2257 32.1641 42.3583Z" fill="#C9BFC8"/>
<path d="M0.732422 8.49329C0.732422 4.16897 4.26914 0.670631 8.60771 0.733131C12.8104 0.79358 16.2276 4.24016 16.2542 8.44309C16.2691 10.7969 15.2359 12.9094 13.594 14.3422C13.4208 14.4934 13.4458 14.7695 13.6437 14.8865L15.1061 15.7518C15.3424 15.8916 15.2433 16.2541 14.9685 16.254L8.34648 16.2524C4.12803 16.174 0.732422 12.7304 0.732422 8.49329Z" stroke="black" stroke-width="1.40625" stroke-miterlimit="10" stroke-linecap="round" stroke-linejoin="round"/>
<path d="M37.4431 28.9032H38.5477C41.6443 28.9032 43.7497 26.3641 43.7497 23.6835C43.7497 22.5419 43.3679 21.3749 42.5192 20.3661C41.2585 18.869 40.5671 16.9745 40.5671 15.0165V11.5067C40.5671 8.53113 39.361 5.83777 37.4108 3.88855C35.4606 1.93836 32.7673 0.732304 29.7917 0.732304C23.8415 0.732304 19.0173 5.55652 19.0173 11.5067V14.9022C19.0173 16.8397 18.3396 18.7157 17.1023 20.2069L16.946 20.3944C14.1374 23.7782 16.5446 28.9032 20.9412 28.9032H22.155" stroke="black" stroke-width="1.40625" stroke-miterlimit="10" stroke-linecap="round" stroke-linejoin="round"/>
<path d="M11.6865 46.3378V37.7157C11.6865 35.1005 13.2539 32.7401 15.665 31.7255L22.1553 28.9032L23.458 28.3368C24.9473 27.6893 25.9111 26.2206 25.9111 24.5966V24.5604" stroke="black" stroke-width="1.40625" stroke-miterlimit="10" stroke-linecap="round" stroke-linejoin="round"/>
<path d="M33.5791 24.5604C33.5802 26.1913 34.5528 27.6639 36.0509 28.3065L37.4434 28.9032L43.9366 31.6864C46.2872 32.7284 47.8027 35.0575 47.8027 37.6278V49.2675" stroke="black" stroke-width="1.40625" stroke-miterlimit="10" stroke-linecap="round" stroke-linejoin="round"/>
<path d="M37.9951 35.4491V29.1405" stroke="black" stroke-width="1.40625" stroke-miterlimit="10" stroke-linecap="round" stroke-linejoin="round"/>
<path d="M21.4941 35.4491V29.1913" stroke="black" stroke-width="1.40625" stroke-miterlimit="10" stroke-linecap="round" stroke-linejoin="round"/>
<path d="M21.4941 31.9661C23.4839 32.5607 26.4128 33.1949 29.9828 33.1325C33.3326 33.074 36.0823 32.4225 37.9957 31.8116" stroke="black" stroke-width="1.40625" stroke-miterlimit="10" stroke-linecap="round" stroke-linejoin="round"/>
<path d="M37.4092 12.328V18.6512C37.4092 22.2255 34.5117 25.1219 30.9384 25.1219H28.5518C24.9774 25.1219 22.0811 22.2255 22.0811 18.6512V12.3417" stroke="black" stroke-width="1.40625" stroke-miterlimit="10" stroke-linecap="round" stroke-linejoin="round"/>
<path d="M37.409 17.0729C37.1854 17.6414 36.6591 18.7489 35.5157 19.692C34.6938 20.37 33.8711 20.7006 33.3379 20.8665" stroke="black" stroke-width="1.40625" stroke-miterlimit="10" stroke-linecap="round" stroke-linejoin="round"/>
<path d="M31.923 22.281H30.2066C29.4254 22.281 28.792 21.6477 28.792 20.8665C28.792 20.0852 29.4254 19.4518 30.2066 19.4518H31.923C32.7043 19.4518 33.3376 20.0852 33.3376 20.8665C33.3376 21.6477 32.7043 22.281 31.923 22.281Z" stroke="black" stroke-width="1.40625" stroke-miterlimit="10" stroke-linecap="round" stroke-linejoin="round"/>
<path d="M33.5283 10.7283C34.5447 11.5158 35.865 12.1065 37.4096 12.328C37.4407 12.3329 37.4721 12.3377 37.5043 12.3417C38.1126 12.4306 39.0032 12.498 40.0502 12.3417C40.2211 12.3163 40.3939 12.2841 40.5678 12.248" stroke="black" stroke-width="1.40625" stroke-miterlimit="10" stroke-linecap="round" stroke-linejoin="round"/>
<path d="M36.2742 2.89968C35.3744 4.46541 33.3083 7.56091 29.4339 9.85271C26.5577 11.5541 23.8457 12.1258 22.1756 12.3417H19.0176" stroke="black" stroke-width="1.40625" stroke-miterlimit="10" stroke-linecap="round" stroke-linejoin="round"/>
<path d="M18.3904 49.2675L17.0972 37.0684C17.0054 36.2031 17.6837 35.4491 18.5538 35.4491H41.6727C42.5428 35.4491 43.2211 36.2031 43.1293 37.0684L41.8362 49.2675" stroke="black" stroke-width="1.40625" stroke-miterlimit="10" stroke-linecap="round" stroke-linejoin="round"/>
<path d="M0.732422 49.2675H49.2676" stroke="black" stroke-width="1.40625" stroke-miterlimit="10" stroke-linecap="round" stroke-linejoin="round"/>
<path d="M32.1641 42.3583C32.1641 43.4909 31.246 44.4091 30.1133 44.4091C28.9807 44.4091 28.0625 43.4909 28.0625 42.3583C28.0625 41.2257 28.9807 40.3075 30.1133 40.3075C31.246 40.3075 32.1641 41.2257 32.1641 42.3583Z" stroke="black" stroke-width="1.40625" stroke-miterlimit="10" stroke-linecap="round" stroke-linejoin="round"/>
<path d="M6.2959 8.49316C6.2959 8.89766 5.96797 9.22559 5.56348 9.22559C5.15889 9.22559 4.83105 8.89766 4.83105 8.49316C4.83105 8.08867 5.15889 7.76074 5.56348 7.76074C5.96797 7.76074 6.2959 8.08867 6.2959 8.49316Z" fill="black"/>
<path d="M9.22559 8.49316C9.22559 8.89766 8.89766 9.22559 8.49316 9.22559C8.08857 9.22559 7.76074 8.89766 7.76074 8.49316C7.76074 8.08867 8.08857 7.76074 8.49316 7.76074C8.89766 7.76074 9.22559 8.08867 9.22559 8.49316Z" fill="black"/>
<path d="M12.1553 8.49316C12.1553 8.89766 11.8273 9.22559 11.4229 9.22559C11.0183 9.22559 10.6904 8.89766 10.6904 8.49316C10.6904 8.08867 11.0183 7.76074 11.4229 7.76074C11.8273 7.76074 12.1553 8.08867 12.1553 8.49316Z" fill="black"/>
</g>
</g>
<defs>
<clipPath id="clip0_6229_6936">
<rect width="50" height="50" fill="white"/>
</clipPath>
</defs>
</svg>
