<svg width="60" height="60" viewBox="0 0 60 60" fill="none" xmlns="http://www.w3.org/2000/svg">
<path d="M6.60316 30.3538L5.78613 32.6815V39.5431H54.2134V32.6815L53.3964 30.3538H6.60316Z" fill="#D3CED5"/>
<path d="M50.2432 30.3538V39.5431H54.2131V32.6815L53.3961 30.3538H50.2432Z" fill="#C3BEC6"/>
<path d="M52.4625 8.23486H7.53703C6.57012 8.23486 5.78613 9.01873 5.78613 9.98576V32.6816H54.2134V9.98576C54.2134 9.01873 53.4295 8.23486 52.4625 8.23486Z" fill="#BED8FB"/>
<path d="M52.4622 8.23486H48.4922C49.4591 8.23486 50.2431 9.01873 50.2431 9.98576V32.6816H54.213V9.98576C54.213 9.01873 53.4292 8.23486 52.4622 8.23486Z" fill="#80B4FB"/>
<path d="M52.2206 47.4092H7.77883C3.96707 47.4092 0.876953 44.3192 0.876953 40.5073C0.876953 39.9747 1.30867 39.543 1.84129 39.543H58.158C58.6906 39.543 59.1223 39.9747 59.1223 40.5073C59.1223 44.3192 56.0323 47.4092 52.2206 47.4092Z" fill="#EFECEF"/>
<path d="M58.16 39.5432H56.4116C55.6547 42.5263 52.9521 44.7336 49.7334 44.7336H5.26793C3.94664 44.7336 2.71266 44.361 1.66406 43.7161C2.81613 45.9113 5.11617 47.4094 7.76719 47.4094H52.2328C56.038 47.4094 59.1227 44.3247 59.1227 40.5195V40.5059C59.1226 39.9742 58.6917 39.5432 58.16 39.5432Z" fill="#D3CED5"/>
<path d="M42.2627 43.7095C45.9259 43.7095 48.8955 40.7399 48.8955 37.0767C48.8955 33.4135 45.9259 30.4438 42.2627 30.4438C38.5995 30.4438 35.6299 33.4135 35.6299 37.0767C35.6299 40.7399 38.5995 43.7095 42.2627 43.7095Z" fill="#F6E266"/>
<path d="M45.2495 31.155C45.7034 32.053 45.9607 33.0672 45.9607 34.1421C45.9607 37.8053 42.9912 40.775 39.3279 40.775C38.2531 40.775 37.2388 40.5176 36.3408 40.0637C37.4337 42.226 39.6741 43.7094 42.2624 43.7094C45.9256 43.7094 48.8952 40.7398 48.8952 37.0766C48.8952 34.4883 47.4118 32.2479 45.2495 31.155Z" fill="#E6B700"/>
<path d="M37.3809 51.7649C41.0441 51.7649 44.0137 48.7953 44.0137 45.1321C44.0137 41.4689 41.0441 38.4993 37.3809 38.4993C33.7177 38.4993 30.748 41.4689 30.748 45.1321C30.748 48.7953 33.7177 51.7649 37.3809 51.7649Z" fill="#F9EFAF"/>
<path d="M40.3677 39.2107C40.8216 40.1087 41.0789 41.1228 41.0789 42.1978C41.0789 45.861 38.1094 48.8306 34.4461 48.8306C33.3713 48.8306 32.357 48.5733 31.459 48.1194C32.5519 50.2816 34.7923 51.7651 37.3806 51.7651C41.0438 51.7651 44.0134 48.7955 44.0134 45.1323C44.0134 42.544 42.5299 40.3036 40.3677 39.2107Z" fill="#F6E266"/>
<path d="M5.78645 23.2573C6.27102 23.2573 6.66383 22.8646 6.66383 22.3799V9.9857C6.66383 9.50395 7.0557 9.11219 7.53734 9.11219H40.1179C40.6025 9.11219 40.9953 8.71949 40.9953 8.23481C40.9953 7.75012 40.6025 7.35742 40.1179 7.35742H7.53734C6.0882 7.35742 4.90918 8.53645 4.90918 9.98559V22.3798C4.90906 22.8645 5.30187 23.2573 5.78645 23.2573Z" fill="black"/>
<path d="M58.16 38.6658H55.091V9.98583C55.091 8.53669 53.912 7.35767 52.4629 7.35767H44.5985C44.1139 7.35767 43.7211 7.75036 43.7211 8.23505C43.7211 8.71974 44.1139 9.11243 44.5985 9.11243H52.4629C52.9445 9.11243 53.3364 9.50431 53.3364 9.98595V31.8044H47.7177C47.6816 31.8044 47.6461 31.8072 47.6112 31.8115C46.2482 30.4272 44.3543 29.5669 42.2627 29.5669C40.1681 29.5669 38.2719 30.4298 36.9084 31.8176C36.8607 31.8095 36.812 31.8045 36.7621 31.8045H6.66363V26.7499C6.66363 26.2653 6.27082 25.8725 5.78625 25.8725C5.30168 25.8725 4.90887 26.2652 4.90887 26.7499V38.6661H1.83996C0.825352 38.6658 0 39.4913 0 40.5058V40.5194C0 44.8022 3.48434 48.2866 7.76719 48.2866H30.5677C31.762 50.8558 34.3659 52.6424 37.3807 52.6424C40.3955 52.6424 42.9995 50.8559 44.1939 48.2866H52.2328C56.5157 48.2866 60 44.8021 60 40.5194V40.5058C60 39.4913 59.1746 38.6658 58.16 38.6658ZM53.3363 33.5589V38.6658H49.6015C49.7134 38.151 49.7727 37.6191 49.7727 37.0768C49.7727 35.8062 49.4544 34.609 48.8952 33.5589H53.3363ZM42.2627 31.3215C45.4363 31.3215 48.0182 33.9033 48.0182 37.0769C48.0182 39.4513 46.5522 41.568 44.385 42.4277C43.2968 39.6196 40.5684 37.6223 37.3807 37.6223C37.0958 37.6223 36.8149 37.6397 36.5382 37.6708C36.5181 37.4739 36.5072 37.2756 36.5072 37.0769C36.5072 33.9032 39.0891 31.3215 42.2627 31.3215ZM7.76719 46.532C4.45184 46.532 1.75465 43.8349 1.75465 40.5195V40.5059C1.75465 40.4588 1.79297 40.4206 1.83996 40.4206H27.9077C28.3923 40.4206 28.7851 40.0279 28.7851 39.5432C28.7851 39.0586 28.3923 38.6658 27.9077 38.6658H6.66363V33.5589H35.63C35.0707 34.609 34.7525 35.8062 34.7525 37.0768C34.7525 37.4102 34.7771 37.7427 34.8209 38.0719C31.9365 39.121 29.8706 41.8898 29.8706 45.1322C29.8706 45.6107 29.9175 46.0782 30.0034 46.5319H7.76719V46.532ZM37.3807 50.8878C34.2071 50.8878 31.6253 48.3058 31.6253 45.1322C31.6253 41.9587 34.2071 39.3768 37.3807 39.3768C40.5543 39.3768 43.1361 41.9587 43.1361 45.1322C43.1361 48.3059 40.5543 50.8878 37.3807 50.8878ZM58.2454 40.5194C58.2454 43.8347 55.5482 46.5319 52.2328 46.5319H44.7581C44.844 46.0781 44.8909 45.6106 44.8909 45.1322C44.8909 44.7952 44.8664 44.4639 44.8232 44.1386C46.6636 43.4716 48.1371 42.1176 48.9834 40.4205H58.16C58.2071 40.4205 58.2454 40.4588 58.2454 40.5058V40.5194Z" fill="black"/>
<path d="M34.5836 23.2573C35.0052 23.2573 35.3671 22.9575 35.4455 22.5433L37.0027 14.3283C37.0037 14.3233 37.0046 14.3181 37.0055 14.3129C37.058 14.0059 36.9731 13.6931 36.7722 13.4549C36.5714 13.2168 36.2776 13.0802 35.966 13.0802H22.8574L22.6753 12.1157C22.4881 11.1236 21.6196 10.4036 20.6101 10.4036H18.9702C18.4856 10.4036 18.0928 10.7963 18.0928 11.2809C18.0928 11.7656 18.4856 12.1583 18.9702 12.1583H20.6101C20.7767 12.1583 20.92 12.2773 20.951 12.4412L23.5475 26.1934C23.6258 26.6079 23.9878 26.9079 24.4095 26.9079H25.0014C24.7423 27.1976 24.5833 27.5788 24.5833 27.998C24.5833 28.9023 25.3163 29.6353 26.2207 29.6353C27.125 29.6353 27.858 28.9022 27.858 27.998C27.858 27.5787 27.6991 27.1975 27.4399 26.9079H31.0491C30.79 27.1976 30.631 27.5788 30.631 27.998C30.631 28.9023 31.364 29.6353 32.2684 29.6353C33.1727 29.6353 33.9057 28.9022 33.9057 27.998C33.9057 27.5787 33.7468 27.1975 33.4876 26.9079H34.2771C34.7616 26.9079 35.1545 26.5152 35.1545 26.0305C35.1545 25.5459 34.7616 25.1531 34.2771 25.1531H25.1364L24.7784 23.2573H34.5836ZM30.249 19.046L30.0695 21.5025H28.3163L28.1368 19.046H30.249ZM28.0085 17.2914L27.8289 14.835H30.5567L30.3772 17.2914H28.0085ZM31.8288 21.5026L32.0083 19.0461H34.3227L33.857 21.5026H31.8288ZM34.6552 17.2914H32.1365L32.3161 14.835H35.1209L34.6552 17.2914ZM26.0696 14.835L26.2491 17.2914H23.6524L23.1886 14.835H26.0696ZM23.9837 19.046H26.3773L26.5569 21.5025H24.4474L23.9837 19.046Z" fill="black"/>
<path d="M40.0187 46.4283C39.6476 46.1169 39.0943 46.1651 38.7828 46.5361C38.7406 46.5864 38.6956 46.6329 38.6487 46.6747C38.4085 46.8886 38.0985 46.997 37.7271 46.997C37.0158 46.997 36.3967 46.5965 36.0823 46.0093H37.2198C37.7044 46.0093 38.0972 45.6166 38.0972 45.1319C38.0972 44.6473 37.7044 44.2545 37.2198 44.2545H36.0823C36.3967 43.6674 37.0158 43.2669 37.7271 43.2669C38.101 43.2669 38.4613 43.3769 38.7693 43.5849C39.1709 43.856 39.7162 43.7505 39.9873 43.349C40.2586 42.9475 40.1529 42.4021 39.7514 42.131C39.1523 41.7262 38.4523 41.5122 37.727 41.5122C36.0337 41.5122 34.6087 42.6813 34.2154 44.2545H33.9311C33.4465 44.2545 33.0537 44.6472 33.0537 45.1319C33.0537 45.6165 33.4465 46.0093 33.9311 46.0093H34.2154C34.6086 47.5826 36.0336 48.7517 37.727 48.7517C38.5302 48.7517 39.2525 48.4865 39.8154 47.9852C39.9254 47.8873 40.0301 47.7793 40.1267 47.6643C40.4382 47.2933 40.3899 46.7398 40.0187 46.4283Z" fill="black"/>
</svg>
