<svg width="50" height="50" viewBox="0 0 50 50" fill="none" xmlns="http://www.w3.org/2000/svg">
<g clip-path="url(#clip0_6229_7030)">
<path d="M47.4318 10.7045L45.303 10.1818C45.0984 9.31817 44.7575 8.50756 44.303 7.77271L45.4393 5.89392C45.5833 5.6515 45.5454 5.34089 45.3484 5.14392L44.2727 4.06817C44.0757 3.8712 43.7651 3.83332 43.5227 3.97726L41.6439 5.11362C40.909 4.65908 40.0984 4.31817 39.2348 4.11362L38.7121 1.97726C38.6439 1.70453 38.4015 1.51514 38.1136 1.51514H36.5908C36.3105 1.51514 36.0605 1.70453 35.9999 1.97726L35.4772 4.10605C34.6136 4.31059 33.803 4.6515 33.0681 5.10605L31.1893 3.96968C30.9469 3.82574 30.6363 3.86362 30.4393 4.06059L29.3636 5.13635C29.1666 5.33332 29.1287 5.64392 29.2727 5.88635L30.409 7.76514C29.9545 8.49999 29.6136 9.31059 29.409 10.1742L27.2727 10.7045C26.9999 10.7727 26.8105 11.0151 26.8105 11.2954V12.8182C26.8105 13.0985 26.9999 13.3485 27.2727 13.4091L29.4015 13.9318C29.606 14.7954 29.9469 15.606 30.4015 16.3333L29.2651 18.2121C29.1212 18.4545 29.159 18.7651 29.356 18.9621L30.4318 20.0379C30.6287 20.2348 30.9393 20.2727 31.1818 20.1288L33.0605 18.9924C33.7954 19.447 34.606 19.7879 35.4696 19.9924L35.9924 22.1212C36.0605 22.3939 36.303 22.5833 36.5833 22.5833H38.106C38.3863 22.5833 38.6363 22.3939 38.6969 22.1212L39.2196 19.9924C40.0833 19.7879 40.8939 19.447 41.6287 18.9924L43.5075 20.1288C43.7499 20.2727 44.0605 20.2348 44.2575 20.0379L45.3333 18.9621C45.5302 18.7651 45.5681 18.4545 45.4242 18.2121L44.2878 16.3333C44.7424 15.5985 45.0833 14.7879 45.2878 13.9318L47.4166 13.4091C47.6893 13.3409 47.8787 13.0985 47.8787 12.8182V11.2954C47.9015 11.0151 47.7121 10.7727 47.4318 10.7045ZM37.356 16.4773C34.9166 16.4773 32.9393 14.5 32.9393 12.0606C32.9393 9.6212 34.9166 7.64392 37.356 7.64392C39.7954 7.64392 41.7727 9.6212 41.7727 12.0606C41.7727 14.5 39.7954 16.4773 37.356 16.4773Z" fill="#5D5B68"/>
<path d="M38.9548 15.0152C38.9548 14.1743 38.2729 13.4924 37.432 13.4924H3.06081C2.2199 13.4924 1.53809 14.1743 1.53809 15.0152V35.75H38.9548V15.0152Z" fill="#009AFF"/>
<g opacity="0.35">
<path d="M37.4324 13.4924H16.6143C16.6143 15.1667 17.9703 16.5227 19.6446 16.5227H35.9249V20.5833C35.9249 22.2576 37.2809 23.6136 38.9552 23.6136V15.0152C38.9552 14.1743 38.2733 13.4924 37.4324 13.4924Z" fill="white"/>
</g>
<path d="M1.53809 35.75V40.7576C1.53809 41.5985 2.2199 42.2803 3.06081 42.2803H37.432C38.2729 42.2803 38.9548 41.5985 38.9548 40.7576V35.75H1.53809Z" fill="#E6E9EE"/>
<g opacity="0.1">
<path d="M30.3184 37.7804C16.8714 37.7804 5.97748 26.8788 5.97748 13.4395H3.06081C2.2199 13.4395 1.53809 14.1213 1.53809 14.9622V40.697C1.53809 41.5379 2.2199 42.2198 3.06081 42.2198H37.4245C38.2654 42.2198 38.9472 41.5379 38.9472 40.697V37.7804H30.3184Z" fill="black"/>
</g>
<path d="M14.6748 42.2803H25.8187V45.4394H14.6748V42.2803Z" fill="#AAB2BD"/>
<path d="M28.9394 45.4395H11.553C10.7121 45.4395 10.0303 46.1213 10.0303 46.9622V48.4849H30.4697V46.9622C30.4621 46.1213 29.7803 45.4395 28.9394 45.4395Z" fill="#E6E9EE"/>
<path d="M46.9395 22.3333H24.6819C23.841 22.3333 23.1592 23.0151 23.1592 23.856V27.356H48.4622V23.856C48.4622 23.0151 47.7804 22.3333 46.9395 22.3333Z" fill="#FF4823"/>
<g opacity="0.1">
<path d="M28.2578 25.6514C26.4245 25.6514 24.9397 24.1666 24.9397 22.3333H24.7503C23.9094 22.3333 23.2275 23.0151 23.2275 23.856V27.356H48.5306V25.6439H28.2578V25.6514Z" fill="black"/>
</g>
<path d="M23.1592 27.3635V46.962C23.1592 47.8029 23.841 48.4847 24.6819 48.4847H46.9395C47.7804 48.4847 48.4622 47.8029 48.4622 46.962V27.3635H23.1592Z" fill="#FEC200"/>
<path d="M44.6596 30.4092H26.9627C26.546 30.4092 26.2051 30.7501 26.2051 31.1668V38.1971C26.2051 38.6137 26.546 38.9546 26.9627 38.9546H44.6596C45.0763 38.9546 45.4172 38.6137 45.4172 38.1971V31.1668C45.4172 30.7425 45.0763 30.4092 44.6596 30.4092Z" fill="#E6E9EE"/>
<g opacity="0.1">
<path d="M44.288 44.5075C34.8183 44.5075 27.1365 36.8257 27.1365 27.356H23.1592V46.9544C23.1592 47.7953 23.841 48.4772 24.6819 48.4772H46.9395C47.7804 48.4772 48.4622 47.7953 48.4622 46.9544V44.4999H44.288V44.5075Z" fill="black"/>
</g>
<path d="M23.1591 36.3183H1.53791C1.2273 36.3183 0.969727 36.0607 0.969727 35.7501V15.0152C0.969727 13.8637 1.90912 12.9243 3.06064 12.9243H37.4319C38.5834 12.9243 39.5228 13.8637 39.5228 15.0152V22.3334C39.5228 22.644 39.2652 22.9016 38.9546 22.9016C38.644 22.9016 38.3864 22.644 38.3864 22.3334V15.0152C38.3864 14.4849 37.9546 14.0607 37.4319 14.0607H3.06064C2.53791 14.0607 2.10609 14.4925 2.10609 15.0152V35.1743H23.1591C23.4697 35.1743 23.7273 35.4319 23.7273 35.7425C23.7273 36.0531 23.4773 36.3183 23.1591 36.3183Z" fill="#211E27"/>
<path d="M23.1591 42.8486H3.06064C1.90912 42.8486 0.969727 41.9092 0.969727 40.7576V35.7501C0.969727 35.4395 1.2273 35.1819 1.53791 35.1819C1.84851 35.1819 2.10609 35.4395 2.10609 35.7501V40.7576C2.10609 41.2804 2.53791 41.7122 3.06064 41.7122H23.1591C23.4697 41.7122 23.7273 41.9698 23.7273 42.2804C23.7273 42.591 23.4773 42.8486 23.1591 42.8486Z" fill="#211E27"/>
<path d="M20.2427 39.7803C20.6653 39.7803 21.0078 39.4377 21.0078 39.0152C21.0078 38.5926 20.6653 38.25 20.2427 38.25C19.8201 38.25 19.4775 38.5926 19.4775 39.0152C19.4775 39.4377 19.8201 39.7803 20.2427 39.7803Z" fill="#211E27"/>
<path d="M14.6746 46.0076C14.364 46.0076 14.1064 45.75 14.1064 45.4394V42.2803C14.1064 41.9697 14.364 41.7122 14.6746 41.7122C14.9852 41.7122 15.2428 41.9697 15.2428 42.2803V45.4394C15.2428 45.75 14.9852 46.0076 14.6746 46.0076Z" fill="#211E27"/>
<path d="M48.462 27.9318H23.159C22.8484 27.9318 22.5908 27.6742 22.5908 27.3636V23.8636C22.5908 22.7121 23.5302 21.7727 24.6817 21.7727H46.9393C48.0908 21.7727 49.0302 22.7121 49.0302 23.8636V27.3636C49.0302 27.6742 48.7726 27.9318 48.462 27.9318ZM23.7272 26.7954H47.8939V23.8636C47.8939 23.3333 47.4696 22.9091 46.9393 22.9091H24.6817C24.159 22.9091 23.7272 23.3409 23.7272 23.8636V26.7954Z" fill="#211E27"/>
<path d="M7.92421 26.1136C7.78027 26.1136 7.63633 26.0606 7.5227 25.947L4.94694 23.3712C4.84088 23.2651 4.78027 23.1212 4.78027 22.9697C4.78027 22.8182 4.84088 22.6742 4.94694 22.5682L7.5227 19.9924C7.7424 19.7727 8.10603 19.7727 8.32573 19.9924C8.54543 20.2121 8.54543 20.5757 8.32573 20.7954L6.15149 22.9697L8.32573 25.1439C8.54543 25.3636 8.54543 25.7273 8.32573 25.947C8.21967 26.0606 8.06815 26.1136 7.92421 26.1136Z" fill="#211E27"/>
<path d="M15.7196 26.1136C15.5757 26.1136 15.4317 26.0606 15.3181 25.947C15.0984 25.7273 15.0984 25.3636 15.3181 25.1439L17.4923 22.9697L15.3181 20.7954C15.0984 20.5757 15.0984 20.2121 15.3181 19.9924C15.5378 19.7727 15.9014 19.7727 16.1211 19.9924L18.6969 22.5682C18.8029 22.6742 18.8635 22.8182 18.8635 22.9697C18.8635 23.1212 18.8029 23.2651 18.6969 23.3712L16.1211 25.947C16.0075 26.0606 15.8635 26.1136 15.7196 26.1136Z" fill="#211E27"/>
<path d="M9.53791 28.447C9.45458 28.447 9.37882 28.4318 9.29549 28.3939C9.00761 28.2652 8.88639 27.9242 9.02276 27.6364L13.5985 17.8258C13.7273 17.5379 14.0682 17.4167 14.3561 17.553C14.644 17.6894 14.7652 18.0227 14.6288 18.3106L10.0531 28.1212C9.95458 28.3258 9.75003 28.447 9.53791 28.447Z" fill="#211E27"/>
<path d="M46.9393 49.053H24.6817C23.5302 49.053 22.5908 48.1136 22.5908 46.9621V27.3636C22.5908 27.053 22.8484 26.7954 23.159 26.7954H48.462C48.7726 26.7954 49.0302 27.053 49.0302 27.3636V46.9697C49.0302 48.1136 48.0908 49.053 46.9393 49.053ZM23.7272 27.9318V46.9697C23.7272 47.4924 24.1514 47.9242 24.6817 47.9242H46.9393C47.462 47.9242 47.8939 47.4924 47.8939 46.9697V27.9318H23.7272Z" fill="#211E27"/>
<path d="M33.5079 42.7653H26.2049C25.8943 42.7653 25.6367 42.5077 25.6367 42.1971C25.6367 41.8865 25.8943 41.6289 26.2049 41.6289H33.5079C33.8185 41.6289 34.0761 41.8865 34.0761 42.1971C34.0761 42.5077 33.8185 42.7653 33.5079 42.7653Z" fill="#211E27"/>
<path d="M29.6973 46.0077H26.2049C25.8943 46.0077 25.6367 45.7501 25.6367 45.4395C25.6367 45.1289 25.8943 44.8713 26.2049 44.8713H29.6973C30.0079 44.8713 30.2655 45.1289 30.2655 45.4395C30.2655 45.7501 30.0079 46.0077 29.6973 46.0077Z" fill="#211E27"/>
<path d="M45.4171 42.7653H38.1141C37.8035 42.7653 37.5459 42.5077 37.5459 42.1971C37.5459 41.8865 37.8035 41.6289 38.1141 41.6289H45.4171C45.7277 41.6289 45.9853 41.8865 45.9853 42.1971C45.9853 42.5077 45.7277 42.7653 45.4171 42.7653Z" fill="#211E27"/>
<path d="M41.6065 46.0077H38.1141C37.8035 46.0077 37.5459 45.7501 37.5459 45.4395C37.5459 45.1289 37.8035 44.8713 38.1141 44.8713H41.6065C41.9171 44.8713 42.1747 45.1289 42.1747 45.4395C42.1747 45.7501 41.9171 46.0077 41.6065 46.0077Z" fill="#211E27"/>
<path d="M45.417 39.5229H26.2049C25.8943 39.5229 25.6367 39.2653 25.6367 38.9547V30.4092C25.6367 30.0986 25.8943 29.8411 26.2049 29.8411H45.417C45.7276 29.8411 45.9852 30.0986 45.9852 30.4092V38.9547C45.9852 39.2653 45.7276 39.5229 45.417 39.5229ZM26.7731 38.3865H44.8488V30.9774H26.7731V38.3865Z" fill="#211E27"/>
<path d="M26.2045 39.5227C25.9848 39.5227 25.7803 39.394 25.6818 39.1818C25.553 38.894 25.6818 38.5606 25.9697 38.4318L45.1818 29.8864C45.4697 29.7576 45.803 29.8864 45.9318 30.1743C46.0606 30.4621 45.9318 30.7955 45.6439 30.9243L26.4394 39.4697C26.3636 39.5076 26.2803 39.5227 26.2045 39.5227Z" fill="#211E27"/>
<path d="M45.4169 39.5227C45.3411 39.5227 45.2578 39.5076 45.1896 39.4773L25.9775 30.9243C25.6896 30.7955 25.5608 30.4621 25.6896 30.1743C25.8184 29.8864 26.1517 29.7576 26.4396 29.8864L45.6517 38.4318C45.9396 38.5606 46.0684 38.894 45.9396 39.1818C45.8411 39.394 45.6366 39.5227 45.4169 39.5227Z" fill="#211E27"/>
<path d="M26.4087 25.6138C26.8313 25.6138 27.1739 25.2712 27.1739 24.8486C27.1739 24.4261 26.8313 24.0835 26.4087 24.0835C25.9861 24.0835 25.6436 24.4261 25.6436 24.8486C25.6436 25.2712 25.9861 25.6138 26.4087 25.6138Z" fill="#211E27"/>
<path d="M29.1519 25.6138C29.5745 25.6138 29.917 25.2712 29.917 24.8486C29.917 24.4261 29.5745 24.0835 29.1519 24.0835C28.7293 24.0835 28.3867 24.4261 28.3867 24.8486C28.3867 25.2712 28.7293 25.6138 29.1519 25.6138Z" fill="#211E27"/>
<path d="M31.8941 25.6138C32.3166 25.6138 32.6592 25.2712 32.6592 24.8486C32.6592 24.4261 32.3166 24.0835 31.8941 24.0835C31.4715 24.0835 31.1289 24.4261 31.1289 24.8486C31.1289 25.2712 31.4715 25.6138 31.8941 25.6138Z" fill="#211E27"/>
<path d="M43.8407 20.8031C43.6286 20.8031 43.4164 20.75 43.227 20.6288L41.6361 19.6667C40.924 20.0682 40.1589 20.3713 39.3634 20.5531C39.0604 20.6213 38.7498 20.4319 38.6816 20.1288C38.6134 19.8258 38.7952 19.5152 39.1058 19.447C39.8937 19.2652 40.6437 18.947 41.3407 18.5228C41.5225 18.4091 41.7498 18.4091 41.9316 18.5228L43.8104 19.6591L44.9467 18.5758L43.8179 16.644C43.7043 16.4622 43.7119 16.2349 43.8179 16.0531C44.2498 15.3561 44.5604 14.6061 44.7422 13.8182C44.7876 13.6137 44.9543 13.447 45.1589 13.394L47.2876 12.8713L47.3179 11.3031L45.1513 10.7349C44.9467 10.6819 44.7801 10.5228 44.7346 10.3107C44.5452 9.52277 44.2346 8.7652 43.8028 8.0758C43.6892 7.89398 43.6892 7.66671 43.8028 7.48489L44.9392 5.60611L43.8558 4.46974L41.924 5.59853C41.7422 5.71217 41.5149 5.71217 41.3331 5.59853C40.6361 5.16671 39.8861 4.85611 39.0983 4.66671C38.8937 4.62126 38.727 4.45459 38.674 4.25004L38.1513 2.12126L36.5907 2.08338L36.0225 4.25004C35.9695 4.45459 35.8104 4.62126 35.5983 4.66671C34.8104 4.85611 34.0528 5.16671 33.3634 5.59853C33.1816 5.71217 32.9543 5.71217 32.7725 5.59853L30.8937 4.46217L29.7573 5.5455L30.8861 7.47732C30.9998 7.65914 30.9922 7.88641 30.8861 8.06823C30.4543 8.7652 30.1437 9.5152 29.9543 10.3031C29.9089 10.5076 29.7422 10.6743 29.5376 10.7273L27.4089 11.25L27.3786 12.8182C27.6816 12.894 27.8861 13.2273 27.8104 13.5303C27.7346 13.8334 27.4467 14.0455 27.1361 13.9697C26.6058 13.841 26.2422 13.3713 26.2422 12.8258V11.3031C26.2422 10.7576 26.6134 10.2879 27.1361 10.1591L28.9392 9.71217C29.1286 9.03792 29.3937 8.39398 29.7422 7.78035L28.7801 6.18944C28.4998 5.71974 28.5679 5.12883 28.9543 4.74247L30.0301 3.66671C30.4164 3.28035 31.0073 3.21217 31.477 3.49247L33.0679 4.45459C33.6816 4.11368 34.3255 3.84095 34.9998 3.65156L35.4467 1.84853C35.5755 1.31823 36.0452 0.95459 36.5907 0.95459H38.1134C38.6589 0.95459 39.1286 1.3258 39.2573 1.84853L39.7043 3.65156C40.3786 3.84095 41.0225 4.10611 41.6361 4.45459L43.227 3.49247C43.6892 3.21217 44.2876 3.28035 44.674 3.66671L45.7498 4.75004C46.1361 5.13641 46.2043 5.72732 45.924 6.19701L44.9619 7.78792C45.3104 8.40156 45.5755 9.0455 45.7649 9.71974L47.5679 10.1667C48.0983 10.2955 48.4695 10.7728 48.4695 11.3107V12.8334C48.4695 13.3788 48.0982 13.8485 47.5755 13.9773L45.7725 14.4243C45.5831 15.0985 45.3179 15.7425 44.9695 16.3561L45.9316 17.947C46.2119 18.4167 46.1437 19.0076 45.7573 19.394L44.6816 20.4697C44.4467 20.6894 44.1437 20.8031 43.8407 20.8031Z" fill="#211E27"/>
<path d="M38.9544 16.7424C38.7272 16.7424 38.515 16.606 38.4241 16.3787C38.3105 16.0833 38.4544 15.7575 38.7499 15.6439C40.2423 15.0605 41.2044 13.659 41.2044 12.0605C41.2044 9.93932 39.4772 8.21205 37.3559 8.21205C35.2347 8.21205 33.5075 9.93932 33.5075 12.0605C33.5075 12.4772 33.5756 12.9014 33.7196 13.3105C33.8181 13.606 33.6665 13.9317 33.3635 14.0302C33.0681 14.1287 32.7423 13.9696 32.6438 13.6742C32.462 13.1439 32.3711 12.606 32.3711 12.0605C32.3711 9.31053 34.6059 7.07568 37.3559 7.07568C40.1059 7.07568 42.3408 9.31053 42.3408 12.0605C42.3408 14.1287 41.0908 15.9545 39.159 16.7045C39.0908 16.7348 39.0226 16.7424 38.9544 16.7424Z" fill="#211E27"/>
<path d="M24.6816 49.0532H10.0301C9.71949 49.0532 9.46191 48.7956 9.46191 48.485V46.9622C9.46191 45.8107 10.4013 44.8713 11.5528 44.8713H23.1665C23.4771 44.8713 23.7346 45.1289 23.7346 45.4395C23.7346 45.7501 23.4771 46.0077 23.1665 46.0077H11.5528C11.0301 46.0077 10.5983 46.4395 10.5983 46.9622V47.9168H24.6892C24.9998 47.9168 25.2574 48.1744 25.2574 48.485C25.2574 48.7956 24.9998 49.0532 24.6816 49.0532Z" fill="#211E27"/>
</g>
<defs>
<clipPath id="clip0_6229_7030">
<rect width="50" height="50" fill="white"/>
</clipPath>
</defs>
</svg>
