<svg width="60" height="60" viewBox="0 0 60 60" fill="none" xmlns="http://www.w3.org/2000/svg">
<path fill-rule="evenodd" clip-rule="evenodd" d="M34.3258 11.8713C36.2456 12.3282 38.078 13.0878 39.7565 14.1222L43.2855 12.5566L47.4432 16.7144L45.8777 20.2433C46.912 21.9218 47.6717 23.7543 48.1285 25.674L51.7293 27.0599V32.9424L48.1285 34.3284C47.6717 36.2456 46.912 38.078 45.8777 39.7565L47.4432 43.2855L43.2855 47.4458L39.7565 45.8777C38.078 46.912 36.2456 47.6743 34.3258 48.1311L32.9399 51.7293H27.0574L25.6714 48.1285C23.7543 47.6717 21.9218 46.912 20.2433 45.8777L16.7144 47.4458L12.554 43.2855L14.1222 39.7591C13.0878 38.078 12.3256 36.2456 11.8687 34.3284L8.27051 32.9424V27.0599L11.8687 25.674C12.3256 23.7543 13.0878 21.9218 14.1222 20.2433L12.554 16.7144L16.7144 12.5566L20.2407 14.1222C21.9218 13.0878 23.7543 12.3282 25.6714 11.8713L27.0574 8.27051H32.9399L34.3258 11.8713Z" fill="#FFE177"/>
<path fill-rule="evenodd" clip-rule="evenodd" d="M42.1001 13.0827L43.2858 12.5566L47.4435 16.7144L45.878 20.2433C46.9124 21.9218 47.672 23.7543 48.1288 25.674L51.7297 27.0599V32.9424L48.1288 34.3284C47.672 36.2456 46.9124 38.078 45.878 39.7565L47.4435 43.2855L43.2858 47.4458L42.1001 46.9197L45.7342 43.2855L44.1661 39.7565C45.2005 38.078 45.9601 36.2456 46.4169 34.3284L50.0178 32.9424V27.0599L46.4169 25.674C45.9601 23.7543 45.2005 21.9218 44.1661 20.2433L45.7342 16.7144L42.1001 13.0827ZM16.1885 13.0827L16.7147 12.5566L20.2411 14.1222C19.9921 14.2607 19.7458 14.4045 19.5045 14.5559L16.1885 13.0827ZM34.3261 11.8713C36.2459 12.3282 38.0784 13.0878 39.7568 14.1222L38.7841 14.5559C37.1056 13.5216 34.534 12.3282 32.6142 11.8713L31.2284 8.27051H32.9402L34.3261 11.8713ZM20.2437 45.8777L16.7147 47.4458L16.1885 46.9197L19.5045 45.4465C19.7458 45.5953 19.9921 45.7391 20.2437 45.8777ZM39.7568 45.8777C38.0784 46.912 36.2459 47.6743 34.3261 48.1311L32.9402 51.7293H31.2284L32.6142 48.1311C34.534 47.6743 37.1056 46.4809 38.7867 45.4465L39.7568 45.8777Z" fill="#FFD064"/>
<path fill-rule="evenodd" clip-rule="evenodd" d="M29.9983 17.5999C36.8476 17.5999 42.3996 23.1519 42.3996 30.0011C42.3996 36.8479 36.8476 42.3999 29.9983 42.3999C23.1516 42.3999 17.5996 36.8479 17.5996 30.0011C17.5996 23.1519 23.1516 17.5999 29.9983 17.5999Z" fill="#ECEFF1"/>
<path fill-rule="evenodd" clip-rule="evenodd" d="M29.9983 17.5999C30.2804 17.5999 30.5601 17.61 30.8397 17.6301C24.3834 18.0608 19.2773 23.434 19.2773 30.0011C19.2773 36.5657 24.3834 41.9389 30.8397 42.3721C30.5601 42.3897 30.2804 42.3999 29.9983 42.3999C23.1516 42.3999 17.5996 36.8479 17.5996 30.0011C17.5996 23.1519 23.1516 17.5999 29.9983 17.5999Z" fill="#D1D1D6"/>
<path fill-rule="evenodd" clip-rule="evenodd" d="M13.5838 5.68587C13.7661 5.58564 13.9876 5.58905 14.1666 5.69493C14.3457 5.80081 14.4556 5.99328 14.4556 6.20128V53.7987C14.4556 54.0067 14.3457 54.1992 14.1666 54.305C13.9876 54.4109 13.7661 54.4143 13.5838 54.3141C11.0323 52.9105 3.65971 48.8546 2.06935 47.9796C1.88135 47.8763 1.76465 47.6788 1.76465 47.4643C1.76465 44.0143 1.76465 15.9856 1.76465 12.5356C1.76465 12.3212 1.88135 12.1236 2.06935 12.0203C3.65971 11.1454 11.0323 7.08952 13.5838 5.68587Z" fill="#9FACBA"/>
<path fill-rule="evenodd" clip-rule="evenodd" d="M13.4686 5.74928L13.5838 5.68587C13.7661 5.58564 13.9876 5.58905 14.1666 5.69493C14.3457 5.80081 14.4556 5.99328 14.4556 6.20128V53.7987C14.4556 54.0067 14.3457 54.1992 14.1666 54.305C13.9876 54.4109 13.7661 54.4143 13.5838 54.3141L2.06935 47.9796C1.88135 47.8763 1.76465 47.6788 1.76465 47.4643V46.7995L12.5969 52.7586C12.7791 52.8588 13.0006 52.8554 13.1797 52.7495C13.3588 52.6438 13.4686 52.4512 13.4686 52.2432V5.74928Z" fill="#8D9CA8"/>
<path fill-rule="evenodd" clip-rule="evenodd" d="M46.4157 5.68587C46.2335 5.58564 46.0119 5.58905 45.8329 5.69493C45.6538 5.80081 45.5439 5.99328 45.5439 6.20128V53.7987C45.5439 54.0067 45.6538 54.1992 45.8329 54.305C46.0119 54.4109 46.2335 54.4143 46.4157 54.3141C48.9672 52.9105 56.3398 48.8546 57.9302 47.9796C58.1182 47.8763 58.2349 47.6788 58.2349 47.4643C58.2349 44.0143 58.2349 15.9856 58.2349 12.5356C58.2349 12.3212 58.1182 12.1236 57.9302 12.0203C56.3398 11.1454 48.9672 7.08952 46.4157 5.68587Z" fill="#9FACBA"/>
<path fill-rule="evenodd" clip-rule="evenodd" d="M46.6094 5.79246V52.2225C46.6094 52.4305 46.7192 52.6229 46.8983 52.7288C47.0774 52.8347 47.299 52.8381 47.4812 52.7379L58.2349 46.8219V47.4643C58.2349 47.6788 58.1182 47.8763 57.9302 47.9796L46.4157 54.3141C46.2335 54.4143 46.0119 54.4109 45.8329 54.305C45.6538 54.1992 45.5439 54.0067 45.5439 53.7987V6.20128C45.5439 5.99328 45.6538 5.80081 45.8329 5.69493C46.0119 5.58905 46.2335 5.58564 46.4157 5.68587L46.6094 5.79246Z" fill="#8D9CA8"/>
<path fill-rule="evenodd" clip-rule="evenodd" d="M15.3965 47.4553V54.7936C15.3965 55.1265 15.2208 55.4345 14.9343 55.6039C14.6478 55.7732 14.2932 55.7787 14.0017 55.6183L1.31077 48.6367C1.01007 48.4713 0.823242 48.1553 0.823242 47.8121V12.1879C0.823242 11.8447 1.01007 11.5287 1.31077 11.3633L14.0017 4.38163C14.2932 4.22128 14.6478 4.22681 14.9343 4.3961C15.2208 4.56552 15.3965 4.87352 15.3965 5.20634V12.5447L16.0485 11.8926C16.3239 11.6172 16.7405 11.5399 17.0964 11.6981C17.0964 11.6981 20.1787 13.0686 20.1785 13.0686C21.6818 12.1947 23.291 11.5281 24.9694 11.0834L26.185 7.93281C26.3251 7.56987 26.6741 7.33046 27.0631 7.33046H32.9422C33.3317 7.33046 33.681 7.57046 33.8208 7.9341L35.0309 11.0836C36.709 11.5282 38.3178 12.1948 39.8208 13.0686L42.903 11.6981C43.2589 11.5399 43.6755 11.6172 43.9509 11.8926L44.6029 12.5447V5.20634C44.6029 4.87352 44.7787 4.56552 45.0651 4.3961C45.3516 4.22681 45.7062 4.22128 45.9977 4.38163L58.6887 11.3633C58.9894 11.5287 59.1762 11.8447 59.1762 12.1879V47.8121C59.1762 48.1553 58.9894 48.4713 58.6887 48.6367L45.9977 55.6183C45.7062 55.7787 45.3516 55.7732 45.0651 55.6039C44.7787 55.4345 44.6029 55.1265 44.6029 54.7936V47.4553L43.9509 48.1074C43.6758 48.3825 43.2598 48.46 42.9042 48.3023C42.9042 48.3023 39.8222 46.9372 39.8223 46.9372C38.3228 47.8109 36.7096 48.4777 35.0307 48.9223L33.8205 52.0663C33.6808 52.4297 33.3316 52.6695 32.9422 52.6695H27.0631C26.6738 52.6695 26.3247 52.4297 26.1848 52.0663C26.1848 52.0663 24.9748 48.9226 24.9749 48.9227C23.2919 48.4773 21.6823 47.8067 20.1791 46.9363L17.0952 48.3023C16.7396 48.46 16.3236 48.3825 16.0485 48.1074L15.3965 47.4553ZM15.3965 15.2067V44.7933L16.9231 46.3199L19.8615 45.0183C20.1443 44.893 20.4707 44.9147 20.7344 45.0763C22.3309 46.0545 24.0677 46.78 25.8947 47.2128C26.197 47.2845 26.4445 47.5007 26.5561 47.7906L27.7094 50.7872H32.2959L33.4492 47.7906C33.5608 47.5008 33.8079 47.2847 34.11 47.2129C35.9302 46.7803 37.6718 46.0615 39.2617 45.0783C39.5259 44.9149 39.8538 44.8925 40.1379 45.0183L43.0763 46.3199L44.6029 44.7933V15.2067C44.0982 14.702 43.077 13.6808 43.077 13.6808L40.1391 14.987C39.8552 15.1133 39.5275 15.0913 39.263 14.9283C37.6671 13.9449 35.9307 13.2256 34.11 12.7929C33.8078 12.721 33.5605 12.5048 33.449 12.2148L32.2956 9.21281H27.7088L26.5498 12.2161C26.4382 12.5054 26.1911 12.7212 25.8895 12.7929C24.0688 13.2256 22.3323 13.9449 20.7364 14.9283C20.4719 15.0913 20.1442 15.1133 19.8603 14.987L16.9224 13.6808L15.3965 15.2067ZM46.4852 6.79822V53.2017L57.2938 47.2556V12.7443L46.4852 6.79822ZM29.9991 16.6606C37.3692 16.6606 43.3451 22.6293 43.3451 29.9994C43.3451 37.3693 37.369 43.3454 29.9991 43.3454C22.629 43.3454 16.6603 37.3695 16.6603 29.9994C16.6603 22.6292 22.6289 16.6606 29.9991 16.6606ZM29.9991 18.5429C23.6689 18.5429 18.5427 23.6692 18.5427 29.9994C18.5427 36.3296 23.6688 41.463 29.9991 41.463C36.3296 41.463 41.4628 36.3299 41.4628 29.9994C41.4628 23.669 36.3294 18.5429 29.9991 18.5429ZM24.5969 32.911C24.9022 33.3313 24.8089 33.9205 24.3887 34.2257C23.9684 34.531 23.3794 34.4377 23.0741 34.0175L20.557 30.5532C20.3174 30.2233 20.3174 29.7767 20.557 29.4468L23.0741 25.9825C23.3794 25.5622 23.9684 25.4689 24.3887 25.7742C24.8089 26.0795 24.9022 26.6687 24.5969 27.0889L22.4818 30L24.5969 32.911ZM29.2088 33.8981C28.9694 34.3592 28.4007 34.5389 27.9397 34.2995C27.4788 34.0601 27.2989 33.4914 27.5383 33.0305L30.7907 26.769C31.0301 26.3081 31.5988 26.1282 32.0597 26.3678C32.5207 26.6072 32.7005 27.1757 32.4611 27.6368L29.2088 33.8981ZM36.9254 34.0175C36.6201 34.4377 36.031 34.531 35.6108 34.2257C35.1905 33.9205 35.0972 33.3313 35.4025 32.911L37.5176 30L35.4025 27.0889C35.0972 26.6687 35.1905 26.0795 35.6108 25.7742C36.031 25.4689 36.6201 25.5622 36.9254 25.9825L39.4424 29.4468C39.6821 29.7767 39.6821 30.2233 39.4424 30.5532L36.9254 34.0175ZM13.5142 6.79822L2.7056 12.7443V47.2556L13.5142 53.2017V6.79822Z" fill="black"/>
</svg>
