<svg width="60" height="60" viewBox="0 0 60 60" fill="none" xmlns="http://www.w3.org/2000/svg">
<path d="M36.5625 46.875H51.5625V50.625H36.5625V46.875Z" fill="#FCBE5B"/>
<path d="M15.9375 59.0626C10.2512 59.0626 5.625 57.801 5.625 56.2501V48.7501V48.9323L5.69321 49.1016C6.31577 50.6415 11.3905 51.5626 15.9375 51.5626C21.1496 51.5626 25.5487 50.506 26.1699 49.1044L26.2463 48.9323L26.2505 48.7437L26.25 56.2501C26.25 57.801 21.6238 59.0626 15.9375 59.0626Z" fill="#4FA0F7"/>
<path d="M15.9375 51.5626C10.2512 51.5626 5.625 50.301 5.625 48.7501V41.2501V41.4323L5.69321 41.6016C6.31577 43.1415 11.3905 44.0626 15.9375 44.0626C21.1496 44.0626 25.5487 43.006 26.1699 41.6044L26.2463 41.4323L26.2505 41.2437L26.25 48.7501C26.25 50.301 21.6238 51.5626 15.9375 51.5626Z" fill="#63B0F7"/>
<path d="M15.9375 33.75C10.2512 33.75 5.625 29.1238 5.625 23.4375C5.625 19.3863 8.00995 15.694 11.7009 14.0314L12.3395 13.7439L12.2447 13.0499C12.2067 12.7707 12.1875 12.4805 12.1875 12.1875C12.1875 8.56934 15.1314 5.625 18.75 5.625C19.449 5.625 20.1334 5.73303 20.7843 5.94727L21.3895 6.14594L21.7973 5.65613C24.294 2.65778 27.9671 0.9375 31.875 0.9375C39.1122 0.9375 45 6.82526 45 14.0625C45 14.1824 44.9977 14.3033 44.9945 14.4232L44.9739 15.1538L45.677 15.3525C49.6944 16.4859 52.5 20.1965 52.5 24.375C52.5 29.5441 48.2945 33.75 43.125 33.75H15.9375Z" fill="#DEEFFC"/>
<path d="M15.9375 44.0625C21.6329 44.0625 26.25 42.8033 26.25 41.25C26.25 39.6967 21.6329 38.4375 15.9375 38.4375C10.2421 38.4375 5.625 39.6967 5.625 41.25C5.625 42.8033 10.2421 44.0625 15.9375 44.0625Z" fill="#4FA0F7"/>
<path d="M53.4375 39.375H34.6875C34.1697 39.375 33.75 39.7947 33.75 40.3125V45.9375C33.75 46.4553 34.1697 46.875 34.6875 46.875H53.4375C53.9553 46.875 54.375 46.4553 54.375 45.9375V40.3125C54.375 39.7947 53.9553 39.375 53.4375 39.375Z" fill="#FFD278"/>
<path d="M53.4375 50.625H34.6875C34.1697 50.625 33.75 51.0447 33.75 51.5625V57.1875C33.75 57.7053 34.1697 58.125 34.6875 58.125H53.4375C53.9553 58.125 54.375 57.7053 54.375 57.1875V51.5625C54.375 51.0447 53.9553 50.625 53.4375 50.625Z" fill="#FFD278"/>
<path d="M15 48.75C15.5178 48.75 15.9375 48.3303 15.9375 47.8125C15.9375 47.2947 15.5178 46.875 15 46.875C14.4822 46.875 14.0625 47.2947 14.0625 47.8125C14.0625 48.3303 14.4822 48.75 15 48.75Z" fill="#24262D"/>
<path d="M11.25 48.75C11.7678 48.75 12.1875 48.3303 12.1875 47.8125C12.1875 47.2947 11.7678 46.875 11.25 46.875C10.7322 46.875 10.3125 47.2947 10.3125 47.8125C10.3125 48.3303 10.7322 48.75 11.25 48.75Z" fill="#24262D"/>
<path d="M15 56.25C15.5178 56.25 15.9375 55.8303 15.9375 55.3125C15.9375 54.7947 15.5178 54.375 15 54.375C14.4822 54.375 14.0625 54.7947 14.0625 55.3125C14.0625 55.8303 14.4822 56.25 15 56.25Z" fill="#24262D"/>
<path d="M11.25 56.25C11.7678 56.25 12.1875 55.8303 12.1875 55.3125C12.1875 54.7947 11.7678 54.375 11.25 54.375C10.7322 54.375 10.3125 54.7947 10.3125 55.3125C10.3125 55.8303 10.7322 56.25 11.25 56.25Z" fill="#24262D"/>
<path d="M53.4375 47.8125C54.4716 47.8125 55.3125 46.9711 55.3125 45.9375V40.3125C55.3125 39.2789 54.4716 38.4375 53.4375 38.4375H42.0044L39.3231 34.6875H43.125C48.8113 34.6875 53.4375 30.0613 53.4375 24.375C53.4375 19.7415 50.3265 15.6903 45.9315 14.4498C45.9352 14.3207 45.9375 14.1916 45.9375 14.0625C45.9375 6.30798 39.6291 0 31.875 0C27.6562 0 23.7598 1.8338 21.0768 5.05646C20.3297 4.8111 19.5502 4.6875 18.75 4.6875C14.6146 4.6875 11.25 8.05206 11.25 12.1875C11.25 12.5235 11.272 12.854 11.3159 13.1763C7.3201 14.9762 4.6875 19.0027 4.6875 23.4375C4.6875 29.6411 9.73434 34.6875 15.9375 34.6875H18.8032L16.7865 37.5108C16.4935 37.5038 16.2089 37.5 15.9375 37.5C11.759 37.5 4.6875 38.2901 4.6875 41.25V56.25C4.6875 59.2099 11.759 60 15.9375 60C20.116 60 27.1875 59.2099 27.1875 56.25V51.5625H32.8125V57.1875C32.8125 58.2211 33.6534 59.0625 34.6875 59.0625H53.4375C54.4716 59.0625 55.3125 58.2211 55.3125 57.1875V51.5625C55.3125 50.5289 54.4716 49.6875 53.4375 49.6875H52.5V47.8125H53.4375ZM53.4389 45.9375H34.6875V40.3125H53.4375L53.4389 45.9375ZM15.9375 32.8125C10.768 32.8125 6.5625 28.6066 6.5625 23.4375C6.5625 19.5163 9.03168 15.9778 12.7066 14.6338C13.1612 14.4672 13.4143 13.9819 13.2907 13.5132C13.1808 13.0975 13.125 12.6517 13.125 12.1875C13.125 9.08569 15.6482 6.5625 18.75 6.5625C19.5364 6.5625 20.295 6.7218 21.0054 7.03583C21.4059 7.21252 21.871 7.08893 22.1333 6.74194C24.4624 3.64929 28.0133 1.875 31.875 1.875C38.5954 1.875 44.0625 7.34253 44.0625 14.0625C44.0625 14.4141 44.0446 14.7647 44.0186 15.1071C43.9824 15.5804 44.3056 16.0062 44.7711 16.0977C48.7065 16.8777 51.5625 20.3586 51.5625 24.375C51.5625 29.0277 47.7773 32.8125 43.125 32.8125H22.4468L26.0756 27.7322C26.3763 27.3111 26.2788 26.7252 25.8572 26.4249C25.4366 26.1227 24.8502 26.2207 24.5494 26.6428L20.1425 32.8125H15.9375ZM15.4502 39.3816L15.1744 39.7678C14.8737 40.1889 14.9712 40.7748 15.3928 41.0751C15.5576 41.1932 15.748 41.25 15.9366 41.25C16.2291 41.25 16.5175 41.1136 16.7006 40.8572L17.7272 39.42C22.2227 39.6401 24.9641 40.6496 25.2992 41.25C24.9216 41.9266 21.4938 43.125 15.9375 43.125C10.2938 43.125 6.8486 41.8893 6.5625 41.2969V41.281C6.84013 40.6306 10.0997 39.4509 15.4502 39.3816ZM25.3142 43.4782L25.318 48.7115C25.0584 49.379 21.6083 50.625 15.9375 50.625C10.2667 50.625 6.81656 49.379 6.5625 48.75V43.4789C8.95002 44.6344 13.1054 45 15.9375 45C18.7702 45 22.9269 44.6342 25.3142 43.4782ZM15.9375 58.125C10.2667 58.125 6.81656 56.879 6.5625 56.25V50.9789C8.95002 52.1344 13.1054 52.5 15.9375 52.5C18.7702 52.5 22.9269 52.1342 25.3142 50.9782L25.318 56.2115C25.0584 56.879 21.6083 58.125 15.9375 58.125ZM27.1875 49.6875V41.25C27.1875 38.9399 22.882 37.9547 19.0043 37.632L21.1075 34.6875H37.0175L39.6988 38.4375H34.6875C33.6534 38.4375 32.8125 39.2789 32.8125 40.3125V45.9375C32.8125 46.9711 33.6534 47.8125 34.6875 47.8125H35.625V49.6875H27.1875ZM53.4389 57.1875H34.6875V51.5625H53.4375L53.4389 57.1875ZM50.625 49.6875H37.5V47.8125H50.625V49.6875Z" fill="#24262D"/>
<path d="M37.5 44.0625C38.0178 44.0625 38.4375 43.6428 38.4375 43.125C38.4375 42.6072 38.0178 42.1875 37.5 42.1875C36.9822 42.1875 36.5625 42.6072 36.5625 43.125C36.5625 43.6428 36.9822 44.0625 37.5 44.0625Z" fill="#24262D"/>
<path d="M41.25 44.0625C41.7678 44.0625 42.1875 43.6428 42.1875 43.125C42.1875 42.6072 41.7678 42.1875 41.25 42.1875C40.7322 42.1875 40.3125 42.6072 40.3125 43.125C40.3125 43.6428 40.7322 44.0625 41.25 44.0625Z" fill="#24262D"/>
<path d="M37.5 55.3125C38.0178 55.3125 38.4375 54.8928 38.4375 54.375C38.4375 53.8572 38.0178 53.4375 37.5 53.4375C36.9822 53.4375 36.5625 53.8572 36.5625 54.375C36.5625 54.8928 36.9822 55.3125 37.5 55.3125Z" fill="#24262D"/>
<path d="M41.25 55.3125C41.7678 55.3125 42.1875 54.8928 42.1875 54.375C42.1875 53.8572 41.7678 53.4375 41.25 53.4375C40.7322 53.4375 40.3125 53.8572 40.3125 54.375C40.3125 54.8928 40.7322 55.3125 41.25 55.3125Z" fill="#24262D"/>
</svg>
