<svg width="60" height="60" viewBox="0 0 60 60" fill="none" xmlns="http://www.w3.org/2000/svg">
<g clip-path="url(#clip0_6229_7251)">
<path d="M35.2613 55.321C33.3104 55.321 31.7537 53.6275 31.9724 51.626C32.1402 50.0891 33.3802 48.8565 34.9133 48.6989C35.6918 48.6188 36.4216 48.811 37.0221 49.1905V37.0449H28.0186C27.5521 37.0449 27.243 37.5134 27.409 37.9494C27.6142 38.4884 27.7091 39.082 27.6657 39.7029C27.5244 41.7239 25.8908 43.3598 23.8759 43.497C21.4903 43.6597 19.5048 41.7665 19.5048 39.4081C19.5048 38.8925 19.6001 38.3994 19.7735 37.945C19.9392 37.5111 19.6274 37.0449 19.1627 37.0449H15.6285C15.2652 37.0449 14.9707 37.3394 14.9707 37.7027V56.6077C14.9707 58.0211 16.1128 59.1669 17.5218 59.1669H37.0221V54.8116C36.5121 55.1339 35.9086 55.321 35.2613 55.321Z" fill="#7A6D79"/>
<path d="M52.3253 37.0449C52.8987 36.2078 53.2351 35.1945 53.2351 34.102C53.2352 31.2288 50.8669 28.874 48.0031 28.8984C45.1591 28.9226 42.861 31.243 42.861 34.1019C42.861 35.1944 43.1974 36.2077 43.7708 37.0449H37.0224V49.1906C36.4219 48.8111 35.6921 48.6189 34.9136 48.699C33.3805 48.8566 32.1406 50.089 31.9727 51.6261C31.754 53.6276 33.3107 55.3211 35.2616 55.3211C35.9089 55.3211 36.5123 55.134 37.0224 54.8117V59.167H56.5228C57.9316 59.167 59.0738 58.0212 59.0738 56.6078V37.0449H52.3253Z" fill="#FFD15B"/>
<path d="M54.386 37.0449V56.6077C54.386 58.0211 53.2439 59.1669 51.835 59.1669H56.5225C57.9313 59.1669 59.0735 58.0211 59.0735 56.6077V37.0449H54.386Z" fill="#FFC344"/>
<path d="M20.7962 7.92703C21.247 7.90043 21.6829 7.94766 22.0934 8.05734C22.5144 8.16996 22.9303 7.86551 22.9303 7.42957V1.53668C22.9303 1.1734 22.6358 0.878906 22.2725 0.878906H3.42996C2.02102 0.878906 0.878906 2.02465 0.878906 3.43805V22.3431C0.878906 22.7064 1.1734 23.0009 1.53668 23.0009H6.16148C5.63848 23.7428 5.35383 24.666 5.42332 25.6588C5.56465 27.6798 7.19824 29.3156 9.21317 29.453C11.5988 29.6155 13.5843 27.7223 13.5843 25.3641C13.5843 24.4837 13.3066 23.6688 12.8358 23.0009H22.2727C22.6359 23.0009 22.9304 22.7064 22.9304 22.3431V16.6117C22.9304 16.1783 22.5191 15.865 22.1007 15.9777C21.7631 16.0686 21.4083 16.1173 21.0421 16.1173C18.6929 16.1173 16.8069 14.1284 16.9658 11.7375C17.1013 9.69586 18.7602 8.04727 20.7962 7.92703Z" fill="#C8EFFE"/>
<path d="M20.7962 7.92703C21.247 7.90043 21.6828 7.94766 22.0933 8.05734C22.5145 8.16996 22.9303 7.86551 22.9303 7.42957V1.53668C22.9303 1.1734 22.6358 0.878906 22.2725 0.878906H17.585C17.9483 0.878906 18.2426 1.1734 18.2426 1.53668V7.42969C18.2426 7.86563 17.8269 8.17008 17.4057 8.05746C16.9952 7.94777 16.5594 7.90055 16.1085 7.92715C14.0725 8.04738 12.4136 9.69598 12.2779 11.7375C12.119 14.1284 14.005 16.1173 16.3542 16.1173C16.7204 16.1173 17.0752 16.0686 17.4128 15.9777C17.8313 15.865 18.2425 16.1783 18.2425 16.6117V22.3431C18.2425 22.7064 17.948 23.0009 17.5849 23.0009H22.2724C22.6356 23.0009 22.9301 22.7064 22.9301 22.3431V16.6117C22.9301 16.1783 22.5188 15.865 22.1005 15.9777C21.7628 16.0686 21.408 16.1173 21.0418 16.1173C18.6926 16.1173 16.8066 14.1284 16.9655 11.7375C17.1012 9.69586 18.7601 8.04727 20.7962 7.92703Z" fill="#99E6FC"/>
<path d="M37.0229 15.5806V22.4281C36.3906 22.0967 35.6617 21.9254 34.8888 21.9711C32.8528 22.0913 31.1939 23.7399 31.0582 25.7814C30.8993 28.1723 32.7853 30.1612 35.1344 30.1612C35.8159 30.1612 36.458 29.9929 37.0228 29.6969V37.0449H43.7712C43.1978 36.2079 42.8614 35.1945 42.8614 34.102C42.8613 31.2288 45.2296 28.874 48.0935 28.8984C50.9375 28.9227 53.2356 31.2431 53.2356 34.1019C53.2356 35.1944 52.8994 36.2077 52.3258 37.0449H59.0742V17.482C59.0742 16.0686 57.9321 14.9229 56.5231 14.9229H37.6807C37.3174 14.9229 37.0229 15.2173 37.0229 15.5806Z" fill="#FD8087"/>
<path d="M56.5225 14.9229H51.835C53.2438 14.9229 54.386 16.0686 54.386 17.482V37.0447H59.0735V17.482C59.0735 16.0686 57.9314 14.9229 56.5225 14.9229Z" fill="#FE646F"/>
<path d="M19.043 31.4757C20.2787 31.4757 21.2804 30.474 21.2804 29.2383C21.2804 28.0027 20.2787 27.001 19.043 27.001C17.8074 27.001 16.8057 28.0027 16.8057 29.2383C16.8057 30.474 17.8074 31.4757 19.043 31.4757Z" fill="#6FD7A3"/>
<path d="M53.3936 9.86458C54.6292 9.86458 55.6309 8.86289 55.6309 7.62724C55.6309 6.39159 54.6292 5.38989 53.3936 5.38989C52.1579 5.38989 51.1562 6.39159 51.1562 7.62724C51.1562 8.86289 52.1579 9.86458 53.3936 9.86458Z" fill="#6FD7A3"/>
<path d="M28.9346 5.35359C30.1703 5.35359 31.172 4.3519 31.172 3.11625C31.172 1.8806 30.1703 0.878906 28.9346 0.878906C27.699 0.878906 26.6973 1.8806 26.6973 3.11625C26.6973 4.3519 27.699 5.35359 28.9346 5.35359Z" fill="#FFD15B"/>
<path d="M0.878906 10.5437V22.3431C0.878906 22.7064 1.1734 23.0009 1.53668 23.0009H6.16148C5.63848 23.7428 5.35383 24.666 5.42332 25.6588C5.56465 27.6798 7.19824 29.3157 9.21316 29.453C11.5988 29.6155 13.5843 27.7225 13.5843 25.3641C13.5843 24.4837 13.3066 23.6688 12.8358 23.0009H22.2727C22.6359 23.0009 22.9304 22.7064 22.9304 22.3431V16.6117C22.9304 16.1783 22.5191 15.865 22.1007 15.9777C21.7631 16.0686 21.4083 16.1173 21.0421 16.1173C18.6929 16.1173 16.8069 14.1284 16.9658 11.7375C17.1015 9.69598 18.7604 8.04738 20.7964 7.92715C21.2473 7.90055 21.6831 7.94777 22.0936 8.05746C22.5148 8.17008 22.9305 7.86562 22.9305 7.42969V1.53668C22.9305 1.1734 22.6361 0.878906 22.2728 0.878906H3.42996C2.02102 0.878906 0.878906 2.02465 0.878906 3.43805V7.03418" stroke="black" stroke-width="2.02148" stroke-miterlimit="10" stroke-linecap="round" stroke-linejoin="round"/>
<path d="M35.3091 55.2752C33.3583 55.2752 31.8016 53.5818 32.0202 51.5802C32.188 50.0433 33.428 48.8107 34.9612 48.6531C35.7396 48.573 36.4695 48.7652 37.07 49.1447V36.999H28.0664C27.5999 36.999 27.2909 37.4675 27.4568 37.9035C27.662 38.4425 27.757 39.0361 27.7136 39.657C27.5723 41.678 25.9387 43.3139 23.9238 43.4511C21.5382 43.6138 19.5527 41.7206 19.5527 39.3622C19.5527 38.8466 19.6479 38.3535 19.8214 37.8991C19.9871 37.4652 19.6752 36.999 19.2106 36.999H15.6763C15.313 36.999 15.0186 37.2935 15.0186 37.6568V56.5618C15.0186 57.9752 16.1607 59.121 17.5696 59.121H37.07V54.7657C36.56 55.088 35.9564 55.2752 35.3091 55.2752Z" stroke="black" stroke-width="2.02148" stroke-miterlimit="10" stroke-linecap="round" stroke-linejoin="round"/>
<path d="M59.1206 48.1223V36.9992H52.3722C52.9456 36.1622 53.2818 35.1487 53.2819 34.0563C53.2819 31.1831 50.9138 28.8284 48.05 28.8527C45.2059 28.877 42.9079 31.1973 42.9079 34.0562C42.9079 35.1487 43.2442 36.1621 43.8176 36.9992H37.0693V49.1449C36.4688 48.7655 35.739 48.5734 34.9605 48.6533C33.4273 48.8108 32.1875 50.0434 32.0195 51.5804C31.801 53.582 33.3576 55.2755 35.3084 55.2755C35.9558 55.2755 36.5591 55.0883 37.0693 54.766V59.1211H56.5696C57.9784 59.1211 59.1207 57.9753 59.1207 56.5619V51.6299" stroke="black" stroke-width="2.02148" stroke-miterlimit="10" stroke-linecap="round" stroke-linejoin="round"/>
<path d="M37.0698 15.5349V22.3824C36.4374 22.0509 35.7085 21.8796 34.9357 21.9253C32.8997 22.0456 31.2408 23.6942 31.1051 25.7357C30.9462 28.1265 32.8322 30.1154 35.1813 30.1154C35.8628 30.1154 36.5048 29.9472 37.0697 29.6511V36.9991H43.818C43.2446 36.1621 42.9083 35.1488 42.9083 34.0562C42.9082 31.183 45.2764 28.8283 48.1404 28.8526C50.9844 28.8769 53.2824 31.1973 53.2824 34.0561C53.2824 35.1486 52.9462 36.162 52.3727 36.9991H59.1212V17.4363C59.1212 16.0229 57.9791 14.8772 56.5701 14.8772H37.7276C37.3643 14.8771 37.0698 15.1716 37.0698 15.5349Z" stroke="black" stroke-width="2.02148" stroke-miterlimit="10" stroke-linecap="round" stroke-linejoin="round"/>
<path d="M32.9297 17.3047V13.2497L38.5522 7.6272H51.0938" stroke="black" stroke-width="2.02148" stroke-miterlimit="10" stroke-linecap="round" stroke-linejoin="round"/>
<path d="M53.3936 9.86458C54.6292 9.86458 55.6309 8.86289 55.6309 7.62724C55.6309 6.39159 54.6292 5.38989 53.3936 5.38989C52.1579 5.38989 51.1562 6.39159 51.1562 7.62724C51.1562 8.86289 52.1579 9.86458 53.3936 9.86458Z" stroke="black" stroke-width="2.02148" stroke-miterlimit="10" stroke-linecap="round" stroke-linejoin="round"/>
<path d="M28.9346 18.7109V5.35156" stroke="black" stroke-width="2.02148" stroke-miterlimit="10" stroke-linecap="round" stroke-linejoin="round"/>
<path d="M28.9346 5.35359C30.1703 5.35359 31.172 4.3519 31.172 3.11625C31.172 1.8806 30.1703 0.878906 28.9346 0.878906C27.699 0.878906 26.6973 1.8806 26.6973 3.11625C26.6973 4.3519 27.699 5.35359 28.9346 5.35359Z" stroke="black" stroke-width="2.02148" stroke-miterlimit="10" stroke-linecap="round" stroke-linejoin="round"/>
<path d="M23.5547 38.4375V33.75L20.625 30.8203" stroke="black" stroke-width="2.02148" stroke-miterlimit="10" stroke-linecap="round" stroke-linejoin="round"/>
<path d="M19.043 31.4757C20.2787 31.4757 21.2804 30.474 21.2804 29.2383C21.2804 28.0027 20.2787 27.001 19.043 27.001C17.8074 27.001 16.8057 28.0027 16.8057 29.2383C16.8057 30.474 17.8074 31.4757 19.043 31.4757Z" stroke="black" stroke-width="2.02148" stroke-miterlimit="10" stroke-linecap="round" stroke-linejoin="round"/>
</g>
<defs>
<clipPath id="clip0_6229_7251">
<rect width="60" height="60" fill="white"/>
</clipPath>
</defs>
</svg>
