<svg width="60" height="60" viewBox="0 0 60 60" fill="none" xmlns="http://www.w3.org/2000/svg">
<g clip-path="url(#clip0_6229_7114)">
<path d="M59.0916 38.6681H0.908203V4.19529C0.908203 2.36366 2.39296 0.878906 4.22459 0.878906H55.7753C57.6069 0.878906 59.0917 2.36366 59.0917 4.19529L59.0916 38.6681Z" fill="#EFFBFF"/>
<path d="M59.0911 4.19541V38.6686H56.7521V4.19541C56.7521 2.36331 55.2665 0.878906 53.4355 0.878906H55.7746C57.6067 0.878906 59.0911 2.36331 59.0911 4.19541Z" fill="#D6F6FD"/>
<path d="M55.7753 47.7964H4.22459C2.39296 47.7964 0.908203 46.3116 0.908203 44.48V38.6682H59.0916V44.4801C59.0917 46.3116 57.6069 47.7964 55.7753 47.7964Z" fill="#A8CFEE"/>
<path d="M59.0915 38.6685V44.4798C59.0915 46.3119 57.6071 47.7963 55.775 47.7963H53.4336C55.2657 47.7963 56.7501 46.3119 56.7501 44.4798V38.6685H59.0915Z" fill="#88BDE7"/>
<path d="M36.3002 47.7964H23.6992V59.1213H36.3002V47.7964Z" fill="#A8CFEE"/>
<path d="M36.3002 47.7964H34.0234V59.1213H36.3002V47.7964Z" fill="#88BDE7"/>
<path d="M18.6132 32.9413C25.8857 32.9413 31.7812 27.0458 31.7812 19.7734C31.7812 12.501 25.8857 6.60547 18.6132 6.60547C11.3408 6.60547 5.44531 12.501 5.44531 19.7734C5.44531 27.0458 11.3408 32.9413 18.6132 32.9413Z" fill="#FFE54C"/>
<path d="M31.7814 19.7735C31.7814 27.0458 25.8858 32.9414 18.6134 32.9414C16.9815 32.9414 15.4199 32.6452 13.9775 32.1008C14.7384 32.2378 15.5217 32.3091 16.3213 32.3091C23.5935 32.3091 29.4891 26.4136 29.4891 19.1413C29.4891 13.5009 25.942 8.68825 20.9572 6.81396C27.1115 7.91915 31.7814 13.3007 31.7814 19.7735Z" fill="#FFD500"/>
<path d="M41.3867 32.9413C48.6591 32.9413 54.5546 27.0458 54.5546 19.7734C54.5546 12.501 48.6591 6.60547 41.3867 6.60547C34.1142 6.60547 28.2188 12.501 28.2188 19.7734C28.2188 27.0458 34.1142 32.9413 41.3867 32.9413Z" fill="#00D6A0"/>
<path d="M54.5539 19.7736C54.5539 27.0458 48.6584 32.9414 41.3861 32.9414C39.7542 32.9414 38.1914 32.6441 36.749 32.0996C37.5099 32.2378 38.2944 32.3092 39.0951 32.3092C46.3674 32.3092 52.263 26.4136 52.263 19.1414C52.263 13.5009 48.7171 8.68947 43.7322 6.81519C49.8853 7.92037 54.5539 13.3019 54.5539 19.7736Z" fill="#00C376"/>
<path d="M59.0916 38.6681H0.908203V4.19529C0.908203 2.36366 2.39296 0.878906 4.22459 0.878906H55.7753C57.6069 0.878906 59.0917 2.36366 59.0917 4.19529L59.0916 38.6681Z" stroke="black" stroke-width="1.87499" stroke-miterlimit="10" stroke-linecap="round" stroke-linejoin="round"/>
<path d="M55.7753 47.7964H4.22459C2.39296 47.7964 0.908203 46.3116 0.908203 44.48V38.6682H59.0916V44.4801C59.0917 46.3116 57.6069 47.7964 55.7753 47.7964Z" stroke="black" stroke-width="1.87499" stroke-miterlimit="10" stroke-linecap="round" stroke-linejoin="round"/>
<path d="M36.3002 55.207V59.1213H23.6992V47.7964H36.3002V51.0794" stroke="black" stroke-width="1.87499" stroke-miterlimit="10" stroke-linecap="round" stroke-linejoin="round"/>
<path d="M19.4287 59.103H40.5704" stroke="black" stroke-width="1.87499" stroke-miterlimit="10" stroke-linecap="round" stroke-linejoin="round"/>
<path d="M28.2451 43.2322H31.7541" stroke="black" stroke-width="1.87499" stroke-miterlimit="10" stroke-linecap="round" stroke-linejoin="round"/>
<path d="M29.8062 26.713C27.4832 30.452 23.3389 32.9414 18.6132 32.9414C11.3407 32.9414 5.44531 27.0459 5.44531 19.7734C5.44531 16.8039 6.42828 14.0641 8.08647 11.8613" stroke="black" stroke-width="1.87499" stroke-miterlimit="10" stroke-linecap="round" stroke-linejoin="round"/>
<path d="M10.9951 9.0316C13.1455 7.50371 15.7745 6.60547 18.6132 6.60547C23.4009 6.60547 27.5918 9.16051 29.8968 12.9815" stroke="black" stroke-width="1.87499" stroke-miterlimit="10" stroke-linecap="round" stroke-linejoin="round"/>
<path d="M23.4287 15.8491V23.6982" stroke="black" stroke-width="1.87499" stroke-miterlimit="10" stroke-linecap="round" stroke-linejoin="round"/>
<path d="M13.7979 15.849V21.25C13.7979 22.1699 14.2541 22.7891 15.0293 23.2843C15.4067 23.5255 15.8836 23.6973 16.4761 23.6981C16.9892 23.6988 17.418 23.58 17.7726 23.4014C18.6759 22.9465 19.2519 22.2558 19.2519 21.2443V15.8489" stroke="black" stroke-width="1.87499" stroke-miterlimit="10" stroke-linecap="round" stroke-linejoin="round"/>
<path d="M41.3867 32.9413C48.6591 32.9413 54.5546 27.0458 54.5546 19.7734C54.5546 12.501 48.6591 6.60547 41.3867 6.60547C34.1142 6.60547 28.2188 12.501 28.2188 19.7734C28.2188 27.0458 34.1142 32.9413 41.3867 32.9413Z" stroke="black" stroke-width="1.87499" stroke-miterlimit="10" stroke-linecap="round" stroke-linejoin="round"/>
<path d="M43.2275 15.8491L48.7493 23.6982" stroke="black" stroke-width="1.87499" stroke-miterlimit="10" stroke-linecap="round" stroke-linejoin="round"/>
<path d="M48.3605 15.8491L42.8311 23.6982" stroke="black" stroke-width="1.87499" stroke-miterlimit="10" stroke-linecap="round" stroke-linejoin="round"/>
<path d="M34.0234 15.8492V21.2503C34.0234 22.1701 34.4796 22.7893 35.2548 23.2845C35.6323 23.5257 36.1091 23.6975 36.7016 23.6983C37.2148 23.699 37.6436 23.5802 37.9982 23.4016C38.9015 22.9467 39.4775 22.256 39.4775 21.2446V15.8491" stroke="black" stroke-width="1.87499" stroke-miterlimit="10" stroke-linecap="round" stroke-linejoin="round"/>
</g>
<defs>
<clipPath id="clip0_6229_7114">
<rect width="60" height="60" fill="white"/>
</clipPath>
</defs>
</svg>
