<svg width="50" height="50" viewBox="0 0 50 50" fill="none" xmlns="http://www.w3.org/2000/svg">
<g clip-path="url(#clip0_6148_2581)">
<path d="M33.8867 23.6328H1.46484C0.655176 23.6328 0 24.288 0 25.0977V45.6055C0 48.0287 1.97129 50 4.39453 50H30.957C33.3803 50 35.3516 48.0287 35.3516 45.6055V25.0977C35.3516 24.288 34.6964 23.6328 33.8867 23.6328ZM26.3672 32.4219C26.3672 37.2685 22.4247 41.2109 17.5781 41.2109C12.7315 41.2109 8.78906 37.2685 8.78906 32.4219V30.957C8.78906 30.1474 9.44424 29.4922 10.2539 29.4922C11.0636 29.4922 11.7188 30.1474 11.7188 30.957V32.4219C11.7188 35.6534 14.3466 38.2812 17.5781 38.2812C20.8097 38.2812 23.4375 35.6534 23.4375 32.4219V30.957C23.4375 30.1474 24.0927 29.4922 24.9023 29.4922C25.712 29.4922 26.3672 30.1474 26.3672 30.957V32.4219Z" fill="black"/>
<path d="M48.5352 11.9141H41.0156V8.78906C41.0156 3.94248 37.0731 0 32.2266 0C27.38 0 23.4375 3.94248 23.4375 8.78906V11.9141H15.918C15.1083 11.9141 14.4531 12.5692 14.4531 13.3789V20.7031H33.8867C36.31 20.7031 38.2812 22.6744 38.2812 25.0977V45.6055C38.2812 47.2605 37.7085 48.7721 36.779 50H45.6055C48.0287 50 50 48.0287 50 45.6055V13.3789C50 12.5692 49.3448 11.9141 48.5352 11.9141ZM38.0859 11.9141H26.3672V8.78906C26.3672 5.55752 28.995 2.92969 32.2266 2.92969C35.4581 2.92969 38.0859 5.55752 38.0859 8.78906V11.9141Z" fill="black"/>
</g>
<defs>
<clipPath id="clip0_6148_2581">
<rect width="50" height="50" fill="white"/>
</clipPath>
</defs>
</svg>
