<svg width="59" height="59" viewBox="0 0 59 59" fill="none" xmlns="http://www.w3.org/2000/svg">
<path fill-rule="evenodd" clip-rule="evenodd" d="M32.7348 47.7617V52.2155C32.7348 52.6049 32.9427 52.9658 33.2806 53.1616C34.5822 53.9152 35.642 55.0406 36.3136 56.3914C36.4831 56.7327 36.8189 56.9612 37.1984 56.9941C37.578 57.0269 37.9477 56.8606 38.173 56.5533C39.1694 55.2025 40.7728 54.3242 42.5786 54.3242C43.3037 54.3242 43.9972 54.4653 44.6305 54.7223C45.0439 54.8908 45.5175 54.7902 45.8281 54.4697C47.2205 53.0314 49.1706 52.1367 51.3286 52.1367C55.183 52.1367 58.3756 54.9914 58.9072 58.6992H0C0.531563 54.9914 3.72422 52.1367 7.57859 52.1367C9.73656 52.1367 11.6867 53.0314 13.0791 54.4697C13.3897 54.7902 13.8633 54.8908 14.2767 54.7223C14.91 54.4653 15.6034 54.3242 16.3286 54.3242C18.1344 54.3242 19.7378 55.2025 20.7342 56.5533C20.9595 56.8606 21.3292 57.0269 21.7087 56.9941C22.0883 56.9612 22.4241 56.7327 22.5936 56.3914C23.2652 55.0406 24.325 53.9152 25.6266 53.1616C25.9645 52.9658 26.1723 52.6049 26.1723 52.2155V47.7617H32.7348Z" fill="#FED090"/>
<path fill-rule="evenodd" clip-rule="evenodd" d="M42.108 37.2051C41.245 40.8834 40.3066 43.8879 39.7422 45.5744H50.2345V41.5276C50.2345 41.0955 49.9797 40.7029 49.5848 40.5279L42.108 37.2051Z" fill="#FED090"/>
<path fill-rule="evenodd" clip-rule="evenodd" d="M20.8457 43.3867H38.1598C37.8612 44.3317 37.6085 45.0766 37.4346 45.5742H21.502C21.3434 45.0678 21.1159 44.3219 20.8457 43.3867Z" fill="#FED090"/>
<path fill-rule="evenodd" clip-rule="evenodd" d="M17.0828 37.4814L9.35984 40.5713C8.94422 40.7364 8.67188 41.139 8.67188 41.5863V45.5741H19.2178C18.7223 43.9313 17.8889 41.0088 17.0828 37.4814Z" fill="#FED090"/>
<path fill-rule="evenodd" clip-rule="evenodd" d="M36.811 6.19952C34.3249 3.14905 31.5282 1.12998 30.0221 0.159827L30.0177 0.157641C29.6688 -0.0534531 29.2324 -0.0534478 28.8791 0.163115C27.3709 1.13436 24.5785 3.15233 22.0957 6.19952H36.811Z" fill="#FED090"/>
<path fill-rule="evenodd" clip-rule="evenodd" d="M38.4063 8.38672H20.5017C19.0743 10.5928 17.9106 13.2069 17.4074 16.2223C16.1343 23.8633 18.5296 34.827 20.2381 41.1992H28.3603V33.543C28.3603 32.9392 28.8503 32.4492 29.454 32.4492C30.0578 32.4492 30.5478 32.9392 30.5478 33.543V41.1992H38.822C40.5753 35.1311 42.9192 24.7394 41.5006 16.2223C40.9974 13.2069 39.8337 10.5939 38.4063 8.38672ZM29.454 12.7617C25.2288 12.7617 21.7978 16.1928 21.7978 20.418C21.7978 24.6431 25.2288 28.0742 29.454 28.0742C33.6792 28.0742 37.1103 24.6431 37.1103 20.418C37.1103 16.1928 33.6792 12.7617 29.454 12.7617ZM29.454 14.9492C32.4728 14.9492 34.9228 17.3992 34.9228 20.418C34.9228 23.4367 32.4728 25.8867 29.454 25.8867C26.4353 25.8867 23.9853 23.4367 23.9853 20.418C23.9853 17.3992 26.4353 14.9492 29.454 14.9492Z" fill="#FED090"/>
</svg>
