<svg width="48" height="60" viewBox="0 0 48 60" fill="none" xmlns="http://www.w3.org/2000/svg">
<path d="M41.6016 52.9686H1.75781C0.787031 52.9686 0 53.7557 0 54.7264V58.2421C0 59.2128 0.787031 59.9999 1.75781 59.9999H41.6016C42.5723 59.9999 43.3594 59.2128 43.3594 58.2421V54.7264C43.3594 53.7557 42.5723 52.9686 41.6016 52.9686Z" fill="#FED090"/>
<path d="M4.6875 45.9374V49.453H38.6719V45.9374C38.6719 44.9666 37.8848 44.1796 36.9141 44.1796H6.44531C5.47453 44.1796 4.6875 44.9666 4.6875 45.9374Z" fill="#FED090"/>
<path d="M1.06543 32.9047L4.05219 34.1848C3.52262 27.3507 4.66696 21.0797 7.38524 15.985C10.2277 10.6576 14.6598 6.61488 20.6025 3.91394C20.2626 3.93292 19.9238 3.95812 19.5868 3.99246C16.1456 4.34343 13.0353 5.48531 10.3425 7.38632C7.3584 9.49289 4.96906 12.4844 3.24102 16.278C1.38313 20.3568 0.293401 25.3775 0.00218969 31.2013C-0.0343728 31.9355 0.389729 32.615 1.06543 32.9047Z" fill="#FED090"/>
<path d="M46.244 20.424L36.2358 9.4151L35.1387 1.51608C35.0459 0.84776 34.5786 0.291471 33.9363 0.0846347C33.294 -0.122201 32.5901 0.0570956 32.1247 0.54565L27.7848 5.10225C19.5946 7.25698 13.7762 11.4733 10.4861 17.6398C7.94228 22.4074 6.96341 28.4133 7.65529 35.0083C7.89001 37.2457 8.27626 39.1913 8.6331 40.664H33.9835V37.1483C33.9835 36.782 33.869 36.4247 33.656 36.1266L29.4605 30.2527C28.9126 29.4858 28.9246 28.4638 29.49 27.7099C30.0729 26.9329 31.1099 26.6423 32.0117 27.0028L39.3334 29.9315C41.0231 30.6075 42.9226 30.1067 44.0595 28.6855L46.4118 25.7452C47.6782 24.1621 47.6077 21.9242 46.244 20.424ZM30.4678 18.8671C29.497 18.8671 28.71 18.0801 28.71 17.1093C28.71 16.1385 29.497 15.3515 30.4678 15.3515C31.4386 15.3515 32.2256 16.1385 32.2256 17.1093C32.2256 18.0802 31.4386 18.8671 30.4678 18.8671Z" fill="#FED090"/>
</svg>
