<svg width="53" height="47" viewBox="0 0 53 47" fill="none" xmlns="http://www.w3.org/2000/svg">
<path d="M48.7219 0H3.77812C2.77666 0.00181904 1.81674 0.400454 1.1086 1.1086C0.400454 1.81674 0.00181904 2.77666 0 3.77812V28.4719H52.5V3.77812C52.4982 2.77666 52.0995 1.81674 51.3914 1.1086C50.6833 0.400454 49.7233 0.00181904 48.7219 0ZM14.8594 17.2219C14.7712 22.1612 7.12953 22.1803 7.04063 17.2312V11.25C7.04554 11.0046 7.14648 10.7709 7.32177 10.5991C7.49705 10.4273 7.73271 10.3311 7.97816 10.3311C8.2236 10.3311 8.45926 10.4273 8.63453 10.5992C8.8098 10.771 8.91073 11.0047 8.91563 11.2501V17.2313C8.90796 19.6879 12.9942 19.6803 12.9844 17.2218V11.2219C12.9844 10.9733 13.0831 10.7348 13.259 10.559C13.4348 10.3832 13.6732 10.2844 13.9219 10.2844C14.1705 10.2844 14.409 10.3832 14.5848 10.559C14.7606 10.7348 14.8594 10.9733 14.8594 11.2219V17.2219ZM24.075 11.7657L21.1688 15.7782L23.6719 19.4719C23.8048 19.6783 23.8516 19.9286 23.8022 20.1692C23.7528 20.4097 23.6112 20.6213 23.4076 20.7586C23.2041 20.8959 22.9549 20.9481 22.7133 20.9038C22.4718 20.8595 22.2573 20.7224 22.1156 20.5219L19.9969 17.3907L17.7094 20.5501C17.562 20.7506 17.3414 20.8848 17.0956 20.9234C16.8498 20.9621 16.5986 20.902 16.3969 20.7563C16.2966 20.6842 16.2116 20.5928 16.1468 20.4875C16.0821 20.3823 16.0388 20.2652 16.0196 20.1431C16.0005 20.0211 16.0057 19.8964 16.035 19.7764C16.0644 19.6563 16.1173 19.5433 16.1906 19.4438L18.8812 15.7407L16.1719 11.7469C16.0331 11.5405 15.9816 11.2876 16.0287 11.0434C16.0758 10.7991 16.2176 10.5835 16.4233 10.4435C16.6289 10.3035 16.8816 10.2506 17.1261 10.2964C17.3706 10.3421 17.587 10.4827 17.7281 10.6876L20.0531 14.1188L22.5562 10.6688C22.704 10.4735 22.9223 10.3438 23.1645 10.3075C23.4067 10.2712 23.6535 10.3312 23.852 10.4746C24.0505 10.6179 24.185 10.8333 24.2267 11.0747C24.2684 11.316 24.2139 11.564 24.075 11.7657ZM32.925 8.88755L26.0625 23.2594C25.9528 23.4798 25.7609 23.6483 25.5283 23.7287C25.2956 23.8091 25.0406 23.7949 24.8183 23.6893C24.5959 23.5836 24.4239 23.3949 24.3393 23.1638C24.2546 22.9326 24.2641 22.6774 24.3656 22.4532L31.2281 8.0813C31.339 7.86286 31.5308 7.69635 31.7626 7.61725C31.9945 7.53815 32.248 7.55272 32.4693 7.65785C32.6906 7.76297 32.862 7.95035 32.9471 8.18005C33.0323 8.40975 33.0243 8.66362 32.925 8.88755ZM41.8688 17.2219C41.7805 22.1612 34.1389 22.1804 34.05 17.2312V11.25C34.0549 11.0046 34.1559 10.7709 34.3311 10.5991C34.5064 10.4273 34.7421 10.3311 34.9875 10.3311C35.233 10.3311 35.4686 10.4273 35.6439 10.5992C35.8192 10.771 35.9201 11.0047 35.925 11.2501V17.2313C35.9244 19.6882 40.0028 19.6794 39.9937 17.2218V11.2219C39.9937 10.9733 40.0925 10.7348 40.2683 10.559C40.4441 10.3832 40.6826 10.2844 40.9312 10.2844C41.1798 10.2844 41.4183 10.3832 41.5941 10.559C41.7699 10.7348 41.8687 10.9733 41.8687 11.2219L41.8688 17.2219ZM45.4594 19.9969C45.4557 20.2432 45.3553 20.4781 45.1799 20.6509C45.0045 20.8237 44.7681 20.9206 44.5219 20.9206C44.2756 20.9206 44.0392 20.8237 43.8638 20.6509C43.6884 20.478 43.588 20.2431 43.5844 19.9969V11.2219C43.5889 10.9763 43.6897 10.7422 43.865 10.5701C44.0403 10.398 44.2762 10.3016 44.5219 10.3016C44.7676 10.3016 45.0035 10.398 45.1788 10.5701C45.3541 10.7423 45.4549 10.9763 45.4594 11.222V19.9969Z" fill="#FED090"/>
<path d="M1.875 30.3467H0V32.8967C0.00181657 33.8981 0.400451 34.8581 1.10859 35.5662C1.81674 36.2744 2.77666 36.673 3.77812 36.6748H22.1438C22.2469 38.9061 18.5156 42.8248 15.5531 45.1217C15.3974 45.2406 15.2831 45.4054 15.2261 45.5929C15.1691 45.7803 15.1725 45.9809 15.2357 46.1664C15.2989 46.3518 15.4187 46.5127 15.5783 46.6264C15.7379 46.74 15.9291 46.8007 16.125 46.7998H36.375C36.5719 46.7948 36.7623 46.7285 36.9197 46.6103C37.0772 46.492 37.194 46.3277 37.2538 46.1401C37.3135 45.9524 37.3134 45.7509 37.2534 45.5633C37.1933 45.3758 37.0763 45.2116 36.9187 45.0936C36.8531 45.0467 31.0594 40.8748 30.5906 36.6748H48.7219C49.7233 36.673 50.6833 36.2744 51.3914 35.5662C52.0995 34.8581 52.4982 33.8981 52.5 32.8967V30.3467H1.875ZM23.8875 31.3686H28.3313C28.5775 31.3722 28.8124 31.4726 28.9852 31.648C29.1581 31.8234 29.2549 32.0598 29.2549 32.3061C29.2549 32.5523 29.1581 32.7887 28.9852 32.9641C28.8124 33.1395 28.5775 33.2399 28.3313 33.2436H23.8875C23.6414 33.2397 23.4066 33.1393 23.2339 32.9639C23.0612 32.7885 22.9644 32.5522 22.9644 32.3061C22.9644 32.0599 23.0612 31.8236 23.2339 31.6482C23.4066 31.4728 23.6414 31.3724 23.8875 31.3686Z" fill="#FED090"/>
</svg>
