<svg width="60" height="60" viewBox="0 0 60 60" fill="none" xmlns="http://www.w3.org/2000/svg">
<path d="M26.0489 56.5997C23.8264 55.1886 23.1561 54.9769 21.251 54.9769C20.863 54.9769 19.099 55.0475 18.711 55.0475C15.5359 55.0475 14.6892 53.7069 13.3486 51.1316C11.9728 48.4857 11.5494 48.0976 8.90355 46.6865C5.37569 44.8167 4.84652 43.97 5.02291 39.9835C5.12874 36.9849 5.02291 36.4204 3.43537 33.9509C1.2481 30.5642 1.2481 29.4353 3.43537 26.0485C4.95235 23.6849 5.16402 23.1204 5.02291 20.0159C4.84652 16.0647 5.37569 15.1827 8.90355 13.313C11.5494 11.9371 11.9375 11.5138 13.3486 8.86788C14.7245 6.22199 15.5359 4.95197 18.7463 4.95197C19.1343 4.95197 20.8982 5.02252 21.2863 5.02252C23.1914 5.02252 23.8616 4.81085 26.0842 3.39971C29.4709 1.24772 30.5293 1.21244 33.9866 3.39971C36.2091 4.81085 36.8441 5.02252 38.7845 5.02252C39.1372 5.02252 40.9365 4.95197 41.3245 4.95197C44.5349 4.95197 45.311 6.22199 46.7221 8.86788C48.098 11.5138 48.5213 11.9018 51.1672 13.313C54.6951 15.1827 55.2243 16.0294 55.0479 20.0159C54.942 23.0146 55.0479 23.579 56.6354 26.0485C58.8227 29.4353 58.8227 30.5642 56.6354 33.9509C55.1184 36.3146 54.9067 36.879 55.0479 39.9835C55.2243 43.9347 54.6951 44.8167 51.1672 46.6865C48.5213 48.0623 48.1333 48.4857 46.7221 51.1316C45.3463 53.7775 44.5349 55.0475 41.3598 55.0475C40.9717 55.0475 39.2078 54.9769 38.855 54.9769C36.8794 54.9769 36.2444 55.1886 34.0219 56.5997C30.6351 58.7517 29.5768 58.787 26.1195 56.5997H26.0489Z" fill="url(#paint0_linear_3693_5143)"/>
<path d="M25.0963 58.0817C22.909 56.7058 22.7326 56.6706 20.0867 56.7411C15.43 56.9528 13.913 56.0708 11.761 51.908C10.5615 49.6149 10.3851 49.4385 8.09204 48.239C3.92917 46.0517 3.08248 44.57 3.25888 39.9133C3.36471 37.2674 3.29416 37.0557 1.91829 34.9037C-0.621761 30.9172 -0.65704 29.118 1.91829 25.0963C3.29416 22.9443 3.32943 22.7326 3.25888 20.0867C3.08248 15.4652 3.89389 13.9483 8.09204 11.761C10.3851 10.5615 10.5615 10.3851 11.761 8.09204C13.913 3.96445 15.3947 3.04721 20.0867 3.25888C22.7326 3.36471 22.9443 3.29416 25.0963 1.91829C29.0828 -0.621761 30.882 -0.65704 34.9037 1.91829C37.091 3.32943 37.2674 3.32943 39.9133 3.25888C44.4289 3.08248 46.0165 3.78805 48.239 8.09204C49.4385 10.3851 49.6149 10.5615 51.908 11.761C56.0708 13.9483 56.9175 15.43 56.7411 20.0867C56.6353 22.7326 56.7058 22.9443 58.0817 25.0963C60.6218 29.0828 60.657 30.882 58.0817 34.9037C56.7058 37.0557 56.6706 37.2674 56.7411 39.9133C56.9175 44.5348 56.1061 46.0517 51.908 48.239C49.6149 49.4385 49.4385 49.6149 48.239 51.908C46.0517 56.1061 44.57 56.9175 39.9133 56.7411C37.2674 56.6353 37.0557 56.7058 34.9037 58.0817C30.9172 60.6218 29.118 60.657 25.0963 58.0817ZM27.0013 55.1183C29.8236 56.9175 30.2117 56.9175 33.034 55.1183C35.7857 53.3544 36.6676 53.1074 40.0897 53.2486C43.3706 53.3897 43.6175 53.2133 45.1345 50.3204C46.6868 47.357 47.357 46.6868 50.3204 45.1345C53.2486 43.6175 53.3897 43.3353 53.2486 40.0897C53.1074 36.6676 53.3897 35.7857 55.1183 33.034C56.9175 30.2117 56.9175 29.8236 55.1183 27.0013C53.3897 24.2496 53.1074 23.3676 53.2486 19.9456C53.3897 16.6647 53.2486 16.4178 50.3204 14.9008C47.357 13.3485 46.6868 12.6782 45.1345 9.71485C43.6175 6.78673 43.3353 6.64562 40.0897 6.78673C36.7029 6.89257 35.821 6.68089 33.034 4.91697C30.2117 3.11776 29.8236 3.11776 27.0013 4.91697C24.2849 6.64562 23.3676 6.92784 19.9456 6.78673C16.6647 6.64562 16.4178 6.78673 14.9008 9.71485C13.3485 12.6782 12.6782 13.3485 9.71485 14.9008C6.78673 16.4178 6.64562 16.7 6.78673 19.9456C6.92784 23.3676 6.64562 24.2496 4.91697 27.0013C3.11776 29.8236 3.11776 30.2117 4.91697 33.034C6.64562 35.7857 6.92784 36.6676 6.78673 40.0897C6.64562 43.3706 6.78673 43.6175 9.71485 45.1345C12.6782 46.6868 13.3485 47.357 14.9008 50.3204C16.4178 53.2486 16.7 53.3897 19.9456 53.2486C23.3676 53.1074 24.2496 53.3897 27.0013 55.1183Z" fill="black"/>
<path d="M23.9334 38.1842L18.0771 31.1285C17.4421 30.3877 17.5479 29.2587 18.2888 28.659C19.0296 28.024 20.1586 28.1298 20.7583 28.8707L26.6145 35.9264C27.3554 36.8084 28.7312 36.7731 29.4015 35.8206L39.1031 21.9561C39.6676 21.1447 40.7612 20.9683 41.5726 21.5328C42.384 22.0972 42.5604 23.1908 41.996 24.0022L32.2944 37.8667C30.3188 40.7243 26.1559 40.9007 23.8981 38.2195L23.9334 38.1842Z" fill="white"/>
<defs>
<linearGradient id="paint0_linear_3693_5143" x1="30.0354" y1="1.77246" x2="30.0354" y2="58.227" gradientUnits="userSpaceOnUse">
<stop stop-color="#FEDAAA"/>
<stop offset="1" stop-color="#FB9100"/>
</linearGradient>
</defs>
</svg>
