<svg width="60" height="60" viewBox="0 0 60 60" fill="none" xmlns="http://www.w3.org/2000/svg">
<path d="M58.9453 17.8711V49.7543C58.9453 51.7512 57.293 53.4961 55.2973 53.4961H42.7734H16.9922H4.70156C2.70469 53.4961 1.05469 51.7512 1.05469 49.7543V17.8711H58.9453ZM15.423 37.0793V29.8512H8.19492V37.0793H15.423Z" fill="#FFF8F0"/>
<path d="M8.19531 29.8511H15.4234V37.0792H8.19531V29.8511Z" fill="url(#paint0_linear_3693_4990)"/>
<path d="M58.9453 10.0008V17.8711H1.05469V10.0008C1.05469 8.00391 2.70469 6.50391 4.70156 6.50391H55.2973C57.293 6.50391 58.9453 8.00391 58.9453 10.0008Z" fill="url(#paint1_linear_3693_4990)"/>
<path d="M55.2973 54.4336H4.70156C2.2166 54.4336 0.117188 52.2908 0.117188 49.7543V10.0008C0.117188 7.51418 2.13094 5.56641 4.70156 5.56641H55.2973C57.8686 5.56641 59.8828 7.51418 59.8828 10.0008V49.7543C59.8828 52.2908 57.7829 54.4336 55.2973 54.4336ZM4.70156 7.44141C3.18234 7.44141 1.99219 8.56559 1.99219 10.0008V49.7543C1.99219 51.2482 3.25828 52.5586 4.70156 52.5586H55.2973C56.7411 52.5586 58.0078 51.2482 58.0078 49.7543V10.0008C58.0078 8.56559 56.8172 7.44141 55.2973 7.44141H4.70156Z" fill="black"/>
<path d="M58.9453 18.8086H1.05469C0.536953 18.8086 0.117188 18.3888 0.117188 17.8711C0.117188 17.3534 0.536953 16.9336 1.05469 16.9336H58.9453C59.463 16.9336 59.8828 17.3534 59.8828 17.8711C59.8828 18.3888 59.463 18.8086 58.9453 18.8086Z" fill="black"/>
<path d="M22.9688 13.5352H7.14844C6.6307 13.5352 6.21094 13.1154 6.21094 12.5977C6.21094 12.0799 6.6307 11.6602 7.14844 11.6602H22.9688C23.4865 11.6602 23.9062 12.0799 23.9062 12.5977C23.9062 13.1154 23.4865 13.5352 22.9688 13.5352Z" fill="black"/>
<path d="M38.7891 13.5352H37.0312C36.5135 13.5352 36.0938 13.1154 36.0938 12.5977C36.0938 12.0799 36.5135 11.6602 37.0312 11.6602H38.7891C39.3068 11.6602 39.7266 12.0799 39.7266 12.5977C39.7266 13.1154 39.3068 13.5352 38.7891 13.5352Z" fill="black"/>
<path d="M45.8203 13.5352H44.0625C43.5448 13.5352 43.125 13.1154 43.125 12.5977C43.125 12.0799 43.5448 11.6602 44.0625 11.6602H45.8203C46.338 11.6602 46.7578 12.0799 46.7578 12.5977C46.7578 13.1154 46.338 13.5352 45.8203 13.5352Z" fill="black"/>
<path d="M52.8516 13.5352H51.0938C50.576 13.5352 50.1562 13.1154 50.1562 12.5977C50.1562 12.0799 50.576 11.6602 51.0938 11.6602H52.8516C53.3693 11.6602 53.7891 12.0799 53.7891 12.5977C53.7891 13.1154 53.3693 13.5352 52.8516 13.5352Z" fill="black"/>
<path d="M22.6172 47.2852C22.0995 47.2852 21.6797 46.8654 21.6797 46.3477V39.082C21.6797 38.5643 22.0995 38.1445 22.6172 38.1445C23.1349 38.1445 23.5547 38.5643 23.5547 39.082V46.3477C23.5547 46.8654 23.1349 47.2852 22.6172 47.2852Z" fill="black"/>
<path d="M29.8828 47.2852C29.3651 47.2852 28.9453 46.8654 28.9453 46.3477V42.7148C28.9453 42.1971 29.3651 41.7773 29.8828 41.7773C30.4005 41.7773 30.8203 42.1971 30.8203 42.7148V46.3477C30.8203 46.8654 30.4005 47.2852 29.8828 47.2852Z" fill="black"/>
<path d="M37.1484 47.2852C36.6307 47.2852 36.2109 46.8654 36.2109 46.3477V39.082C36.2109 38.5643 36.6307 38.1445 37.1484 38.1445C37.6662 38.1445 38.0859 38.5643 38.0859 39.082V46.3477C38.0859 46.8654 37.6662 47.2852 37.1484 47.2852Z" fill="black"/>
<path d="M44.2969 47.2852C43.7791 47.2852 43.3594 46.8654 43.3594 46.3477V35.4492C43.3594 34.9315 43.7791 34.5117 44.2969 34.5117C44.8146 34.5117 45.2344 34.9315 45.2344 35.4492V46.3477C45.2344 46.8654 44.8146 47.2852 44.2969 47.2852Z" fill="black"/>
<path d="M51.5625 47.2852C51.0448 47.2852 50.625 46.8654 50.625 46.3477V30.0586C50.625 29.5409 51.0448 29.1211 51.5625 29.1211C52.0802 29.1211 52.5 29.5409 52.5 30.0586V46.3477C52.5 46.8654 52.0802 47.2852 51.5625 47.2852Z" fill="black"/>
<path d="M15.4234 38.0167H8.19531C7.67758 38.0167 7.25781 37.5969 7.25781 37.0792V29.8511C7.25781 29.3333 7.67758 28.9136 8.19531 28.9136H15.4234C15.9412 28.9136 16.3609 29.3333 16.3609 29.8511V37.0792C16.3609 37.5969 15.9412 38.0167 15.4234 38.0167ZM9.13281 36.1417H14.4859V30.7885H9.13281V36.1417Z" fill="black"/>
<path d="M29.8794 36.3681C29.6307 36.3681 29.3923 36.2693 29.2165 36.0935L25.8769 32.754H22.6172C22.0995 32.754 21.6797 32.3343 21.6797 31.8165C21.6797 31.2988 22.0995 30.879 22.6172 30.879H26.2652C26.5139 30.879 26.7524 30.9778 26.9282 31.1536L29.8793 34.1047L32.8291 31.1537C33.005 30.9778 33.2435 30.879 33.4922 30.879H36.7164L40.0556 27.5203C40.128 27.4474 40.2121 27.387 40.3042 27.3413L43.7814 25.6185L47.2871 22.1285C47.4628 21.9537 47.7006 21.8555 47.9486 21.8555H51.5625C52.0802 21.8555 52.5 22.2752 52.5 22.793C52.5 23.3107 52.0802 23.7305 51.5625 23.7305H48.3355L44.9958 27.0551C44.9242 27.1264 44.8413 27.1859 44.7506 27.2307L41.2758 28.9525L37.7711 32.4776C37.5952 32.6545 37.3559 32.754 37.1063 32.754H33.8807L30.5425 36.0934C30.3666 36.2692 30.1281 36.3681 29.8794 36.3681Z" fill="black"/>
<path d="M15.4688 45.4102H8.20312C7.68539 45.4102 7.26562 44.9904 7.26562 44.4727C7.26562 43.9549 7.68539 43.5352 8.20312 43.5352H15.4688C15.9865 43.5352 16.4062 43.9549 16.4062 44.4727C16.4062 44.9904 15.9865 45.4102 15.4688 45.4102Z" fill="black"/>
<defs>
<linearGradient id="paint0_linear_3693_4990" x1="8.05595" y1="36.9731" x2="15.5235" y2="30.0061" gradientUnits="userSpaceOnUse">
<stop stop-color="#FB9100"/>
<stop offset="1" stop-color="#FEDAAA"/>
</linearGradient>
<linearGradient id="paint1_linear_3693_4990" x1="12.1644" y1="29.8362" x2="47.7122" y2="-3.32879" gradientUnits="userSpaceOnUse">
<stop stop-color="#FB9100"/>
<stop offset="1" stop-color="#FEDAAA"/>
</linearGradient>
</defs>
</svg>
