<svg width="60" height="60" viewBox="0 0 60 60" fill="none" xmlns="http://www.w3.org/2000/svg">
<g clip-path="url(#clip0_3693_4918)">
<path d="M0.963525 30.3001C14.6024 53.2415 45.3973 53.2415 59.0361 30.3001C59.1457 30.1156 59.1457 29.8843 59.0361 29.6999C45.3973 6.75855 14.6024 6.75855 0.963525 29.6999C0.853955 29.8843 0.853955 30.1157 0.963525 30.3001Z" fill="#FFF8F0"/>
<path d="M59.0365 30.2997C51.6256 42.7653 39.1505 48.4577 27.1138 47.3759C37.2301 46.4691 47.0362 40.7766 53.2642 30.2997C53.3746 30.1164 53.3746 29.8839 53.2642 29.7006C47.0361 19.2237 37.23 13.5313 27.1138 12.6245C39.1507 11.5426 51.6256 17.2351 59.0366 29.7006C59.1457 29.8839 59.1457 30.1164 59.0365 30.2997Z" fill="#FFF8F0"/>
<path d="M30 47.1573C39.4757 47.1573 47.1573 39.4757 47.1573 30C47.1573 20.5243 39.4757 12.8428 30 12.8428C20.5243 12.8428 12.8428 20.5243 12.8428 30C12.8428 39.4757 20.5243 47.1573 30 47.1573Z" fill="#FEDAAA"/>
<path d="M47.157 30C47.157 39.4762 39.4759 47.1573 29.9997 47.1573C29.0413 47.1573 28.1003 47.0786 27.1841 46.927C35.321 45.5844 41.5268 38.5176 41.5268 30C41.5268 21.4825 35.321 14.4157 27.1841 13.073C28.1004 12.9215 29.0413 12.8428 29.9997 12.8428C39.4759 12.8428 47.157 20.5239 47.157 30Z" fill="#FB9100"/>
<path d="M59.7937 29.2498C58.968 27.8609 58.06 26.5226 57.095 25.2724C56.7975 24.8871 56.2445 24.8162 55.8591 25.1133C55.474 25.4107 55.4028 25.9639 55.7001 26.3491C56.5871 27.4981 57.4239 28.7258 58.1894 30.0002C54.9771 35.3502 50.7721 39.5352 45.6895 42.4398C43.8898 43.4683 42.0009 44.3145 40.0535 44.9704C44.8666 41.7276 48.0386 36.2274 48.0386 30.0002C48.0386 23.7766 44.8703 18.2791 40.0621 15.0356C44.2215 16.4415 48.1197 18.7195 51.503 21.792C51.863 22.1192 52.4205 22.0924 52.7474 21.7321C53.0746 21.372 53.0478 20.8147 52.6875 20.4876C45.0943 13.5915 35.0356 10.4902 25.0909 11.9784C20.1207 12.7222 15.4642 14.5434 11.2505 17.3915C6.81974 20.3862 3.10385 24.3759 0.206162 29.2502C-0.0687596 29.7127 -0.0687596 30.2876 0.206396 30.7504C3.58737 36.4375 8.03849 40.885 13.4364 43.9697C18.4936 46.8598 24.2212 48.3873 30.0001 48.3873C35.7789 48.3873 41.5066 46.8598 46.5638 43.9697C51.9616 40.885 56.4128 36.4375 59.7937 30.7505C60.0688 30.2876 60.0688 29.7126 59.7937 29.2498ZM1.81069 30.0002C4.56143 25.4192 8.06873 21.6687 12.2373 18.8512C14.6607 17.2133 17.239 15.9362 19.943 15.0256C17.3087 16.7976 15.1862 19.2262 13.7902 22.0774C13.5763 22.5144 13.757 23.0421 14.194 23.256C14.6309 23.4699 15.1588 23.2892 15.3727 22.8522C16.693 20.1555 18.7324 17.8759 21.2706 16.2597C23.8766 14.6004 26.8952 13.7232 30.0001 13.7232C38.975 13.7232 46.2767 21.0249 46.2767 29.9999C46.2767 38.975 38.9751 46.2769 30 46.2769C21.0248 46.2769 13.7232 38.9752 13.7232 30.0002C13.7232 29.5652 13.7405 29.126 13.7748 28.6946C13.8134 28.2096 13.4513 27.7852 12.9663 27.7467C12.4814 27.7079 12.0568 28.0702 12.0184 28.5551C11.9806 29.0327 11.9613 29.519 11.9613 30.0002C11.9613 36.2275 15.1334 41.7276 19.9464 44.9704C17.9991 44.3145 16.1101 43.4682 14.3106 42.44C9.22747 39.5351 5.02291 35.3505 1.81069 30.0002Z" fill="black"/>
<path d="M29.6559 36.45C32.8432 36.45 35.427 33.8661 35.427 30.6788C35.427 27.4915 32.8432 24.9077 29.6559 24.9077C26.4686 24.9077 23.8848 27.4915 23.8848 30.6788C23.8848 33.8661 26.4686 36.45 29.6559 36.45Z" fill="#5C6D7D"/>
<path d="M35.428 30.6788C35.428 33.8669 32.8436 36.4511 29.6557 36.4511C29.1506 36.4511 28.6607 36.3865 28.1943 36.2643C30.6752 35.6171 32.5054 33.3617 32.5054 30.6788C32.5054 27.9959 30.6753 25.7405 28.1943 25.0933C28.6606 24.9712 29.1505 24.9065 29.6557 24.9065C32.8436 24.9064 35.428 27.4907 35.428 30.6788Z" fill="#53616D"/>
<path d="M32.9035 29.9735C34.6775 29.9735 36.1156 28.5354 36.1156 26.7614C36.1156 24.9874 34.6775 23.5493 32.9035 23.5493C31.1295 23.5493 29.6914 24.9874 29.6914 26.7614C29.6914 28.5354 31.1295 29.9735 32.9035 29.9735Z" fill="#EDEBED"/>
<path d="M36.1161 26.7615C36.1161 28.5357 34.6778 29.974 32.9036 29.974C32.6225 29.974 32.3499 29.938 32.0903 29.87C33.471 29.5099 34.4896 28.2546 34.4896 26.7615C34.4896 25.2684 33.471 24.0133 32.0903 23.653C32.3498 23.585 32.6225 23.5491 32.9036 23.5491C34.6777 23.5491 36.1161 24.9872 36.1161 26.7615Z" fill="#EDEBED"/>
<path d="M36.997 26.7616C36.997 24.5045 35.1609 22.6685 32.9038 22.6685C31.6955 22.6685 30.6083 23.1951 29.8584 24.0304C29.791 24.0283 29.7235 24.0262 29.6557 24.0262C25.9872 24.0262 23.0029 27.0106 23.0029 30.6789C23.0029 34.3472 25.9873 37.3316 29.6557 37.3316C33.324 37.3316 36.3084 34.3472 36.3084 30.6789C36.3084 30.1877 36.254 29.7091 36.152 29.2482C36.6814 28.5583 36.997 27.6963 36.997 26.7616ZM32.9038 24.4305C34.1892 24.4305 35.2349 25.4761 35.2349 26.7616C35.2349 28.0469 34.1893 29.0927 32.9038 29.0927C31.6184 29.0927 30.5726 28.047 30.5726 26.7616C30.5726 25.4761 31.6184 24.4305 32.9038 24.4305ZM29.6557 35.5696C26.9589 35.5696 24.765 33.3755 24.765 30.6789C24.765 28.2341 26.5688 26.2053 28.9149 25.8472C28.8475 26.1414 28.8106 26.4473 28.8106 26.7617C28.8106 29.0186 30.6468 30.8548 32.9038 30.8548C33.4859 30.8548 34.0394 30.732 34.5412 30.512C34.5431 30.5676 34.5463 30.6229 34.5463 30.6789C34.5465 33.3756 32.3524 35.5696 29.6557 35.5696Z" fill="black"/>
<path d="M30.0002 5.12864C29.5135 5.12864 29.1191 4.73419 29.1191 4.24763V1.01431C29.1191 0.527753 29.5135 0.133301 30.0002 0.133301C30.4868 0.133301 30.8812 0.527753 30.8812 1.01431V4.24763C30.8812 4.73419 30.4868 5.12864 30.0002 5.12864Z" fill="black"/>
<path d="M30.0002 59.8667C29.5135 59.8667 29.1191 59.4722 29.1191 58.9857V55.7524C29.1191 55.2658 29.5135 54.8713 30.0002 54.8713C30.4868 54.8713 30.8812 55.2658 30.8812 55.7524V58.9857C30.8812 59.4723 30.4868 59.8667 30.0002 59.8667Z" fill="black"/>
<path d="M17.1247 8.57892C16.8202 8.57892 16.5242 8.42096 16.3609 8.1383L14.7442 5.33823C14.5009 4.91682 14.6452 4.37799 15.0667 4.13483C15.4879 3.89143 16.0268 4.03592 16.27 4.45733L17.8868 7.2574C18.13 7.67881 17.9857 8.21764 17.5643 8.4608C17.4256 8.54072 17.2741 8.57892 17.1247 8.57892Z" fill="black"/>
<path d="M44.4938 55.9836C44.1894 55.9836 43.8934 55.8256 43.73 55.543L42.1133 52.7428C41.87 52.3214 42.0144 51.7826 42.4358 51.5394C42.8571 51.296 43.3959 51.4404 43.6392 51.8619L45.2559 54.662C45.4992 55.0834 45.3548 55.6222 44.9334 55.8654C44.7949 55.9455 44.6434 55.9836 44.4938 55.9836Z" fill="black"/>
<path d="M7.6971 18.0049C7.54769 18.0049 7.39617 17.9668 7.25742 17.8868L4.45723 16.27C4.03582 16.0268 3.89156 15.4879 4.13473 15.0667C4.37789 14.6452 4.91648 14.5009 5.33812 14.7442L8.13831 16.3609C8.55972 16.6041 8.70398 17.143 8.46081 17.5643C8.29769 17.8468 8.00155 18.0049 7.6971 18.0049Z" fill="black"/>
<path d="M55.1014 45.374C54.952 45.374 54.8005 45.3359 54.6617 45.2559L51.8615 43.6392C51.4401 43.3959 51.2959 42.8571 51.539 42.4358C51.7822 42.0144 52.3208 41.87 52.7424 42.1133L55.5426 43.73C55.964 43.9733 56.1084 44.5121 55.8651 44.9334C55.702 45.2159 55.4059 45.374 55.1014 45.374Z" fill="black"/>
<path d="M4.89861 45.3739C4.59415 45.3739 4.29802 45.2159 4.13478 44.9332C3.8915 44.5118 4.03587 43.973 4.45728 43.7298L7.25747 42.1131C7.67864 41.8697 8.21782 42.0141 8.46086 42.4356C8.70414 42.857 8.55977 43.3959 8.13836 43.639L5.33817 45.2557C5.19954 45.3359 5.04802 45.3739 4.89861 45.3739Z" fill="black"/>
<path d="M52.3029 18.0049C51.9985 18.0049 51.7023 17.8469 51.5391 17.5643C51.2958 17.1429 51.4402 16.604 51.8616 16.3609L54.6618 14.7442C55.0829 14.5009 55.622 14.6452 55.8652 15.0667C56.1084 15.4881 55.9641 16.0269 55.5427 16.27L52.7425 17.8866C52.604 17.9668 52.4523 18.0049 52.3029 18.0049Z" fill="black"/>
<path d="M15.5063 55.9835C15.3569 55.9835 15.2054 55.9454 15.0666 55.8654C14.6452 55.6221 14.5009 55.0833 14.7441 54.662L16.3607 51.8618C16.6039 51.4404 17.1426 51.296 17.5641 51.5393C17.9855 51.7826 18.1298 52.3214 17.8866 52.7427L16.2699 55.5428C16.1069 55.8256 15.8106 55.9835 15.5063 55.9835Z" fill="black"/>
<path d="M42.8755 8.57914C42.7261 8.57914 42.5745 8.54105 42.4358 8.46102C42.0144 8.21774 41.87 7.67891 42.1133 7.25762L43.73 4.45755C43.9732 4.03602 44.5119 3.89177 44.9334 4.13505C45.3548 4.37833 45.4992 4.91716 45.2559 5.33844L43.6392 8.13852C43.4761 8.42106 43.1799 8.57914 42.8755 8.57914Z" fill="black"/>
</g>
<defs>
<clipPath id="clip0_3693_4918">
<rect width="60" height="60" fill="white"/>
</clipPath>
</defs>
</svg>
