<svg width="56" height="56" viewBox="0 0 56 56" fill="none" xmlns="http://www.w3.org/2000/svg">
<path d="M8.76916 40.4167V52.7629C8.76916 53.686 7.96146 54.4937 7.03839 54.4937H2.53839C1.61531 54.4937 0.807617 53.686 0.807617 52.7629V40.4167H0.923002C1.03839 40.6475 1.15377 40.7629 1.38454 40.7629C3.923 40.7629 6.34608 40.7629 8.76916 40.4167Z" fill="#FEDAAA"/>
<path d="M0.922852 51.4937V52.8783C0.922852 53.8013 1.73054 54.609 2.65362 54.609H7.15362C8.0767 54.609 8.88439 53.8013 8.88439 52.8783V51.4937H0.922852Z" fill="#FB9100"/>
<path d="M22.3842 37.0706V52.8783C22.3842 53.8013 21.5765 54.609 20.6535 54.609H16.2689C15.3458 54.609 14.5381 53.8013 14.5381 52.8783V39.4936C17.1919 38.9167 19.8458 38.109 22.3842 37.0706Z" fill="#FEDAAA"/>
<path d="M14.5381 51.4937V52.8783C14.5381 53.8013 15.3458 54.609 16.2689 54.609H20.7689C21.6919 54.609 22.4996 53.8013 22.4996 52.8783V51.4937H14.5381Z" fill="#FB9100"/>
<path d="M36.1149 29.5706V52.7629C36.1149 53.6859 35.3072 54.4936 34.3841 54.4936H29.8841C28.961 54.4936 28.1533 53.6859 28.1533 52.7629V34.4167C30.8072 33.0321 33.461 31.4167 36.1149 29.5706Z" fill="#FEDAAA"/>
<path d="M28.1533 51.4937V52.8783C28.1533 53.8013 28.961 54.609 29.8841 54.609H34.3841C35.3072 54.609 36.1149 53.8013 36.1149 52.8783V51.4937H28.1533Z" fill="#FB9100"/>
<path d="M49.7301 17.2246V52.8785C49.7301 53.8015 48.9224 54.6092 47.9993 54.6092H43.4993C42.5762 54.6092 41.7686 53.8015 41.7686 52.8785V25.1861C44.5378 22.6477 47.1916 19.9938 49.7301 17.2246Z" fill="#FEDAAA"/>
<path d="M41.7686 51.4937V52.8783C41.7686 53.8013 42.5762 54.609 43.4993 54.609H47.9993C48.9224 54.609 49.7301 53.8013 49.7301 52.8783V51.4937H41.7686Z" fill="#FB9100"/>
<path d="M53.9997 17.2245L50.3074 14.3399C50.0766 14.1091 49.6151 14.2245 49.3843 14.4553C37.0382 28.763 23.192 37.4168 7.03819 37.9937C5.88434 38.4553 2.19203 39.0322 1.15357 39.4937C0.576648 39.7245 0.692032 40.6476 1.38434 40.763C19.269 41.5707 36.8074 32.2245 50.3074 16.5322L52.269 18.1476C53.192 18.8399 54.4613 18.1476 54.4613 17.1091L53.9997 17.2245Z" fill="#EFEFEF"/>
<path d="M0 52.8783C0 54.263 1.15385 55.4168 2.53846 55.4168H7.03846C8.42308 55.4168 9.69231 54.263 9.69231 52.763V41.2245C11.0769 41.1091 12.3462 40.763 13.7308 40.5322V52.8783C13.7308 54.263 14.8846 55.5322 16.3846 55.5322H20.7692C22.1538 55.5322 23.4231 54.3783 23.4231 52.8783V37.5322C24.8077 36.9553 26.0769 36.3784 27.4615 35.8014V52.8783C27.4615 54.263 28.6154 55.5322 30.1154 55.5322H34.6154C36 55.5322 37.2692 54.3783 37.2692 52.8783V30.0322C38.6538 29.1091 39.9231 28.0707 41.3077 26.9168V52.763C41.3077 54.1476 42.4615 55.4168 43.9615 55.4168H48.4615C49.8462 55.4168 51.1154 54.263 51.1154 52.763V17.686L52.3846 18.7245C53.8846 19.8784 55.9615 18.8399 55.9615 16.9937V2.22451C55.9615 0.839891 54.6923 -0.19857 53.3077 0.0321989L39.4615 3.26297C37.7308 3.72451 37.1538 5.91681 38.5385 7.07066L40.3846 8.57066C28.8462 26.2245 12.6923 34.6476 1.03846 38.8014C0.346154 39.0322 0 39.7245 0 40.4168V52.8783ZM21.5769 52.8783C21.5769 53.3399 21.2308 53.8014 20.6538 53.8014H16.2692C15.8077 53.8014 15.3462 53.4553 15.3462 52.8783V40.186C15.4615 40.186 15.9231 40.0707 16.0385 39.9553C17.8846 39.4937 19.6154 38.9168 21.4615 38.3399V52.8783H21.5769ZM35.1923 52.8783C35.1923 53.3399 34.8462 53.8014 34.2692 53.8014H29.7692C29.3077 53.8014 28.8462 53.4553 28.8462 52.8783V34.9937C30.8077 33.9553 34.1538 31.8784 35.0769 31.3014V52.8783H35.1923ZM48.8077 52.8783C48.8077 53.3399 48.4615 53.8014 47.8846 53.8014H43.3846C42.9231 53.8014 42.4615 53.4553 42.4615 52.8783V25.5322C42.5769 25.4168 44.7692 23.4553 45.3462 22.8784C45.9231 22.3014 48.3462 19.8784 48.6923 19.5322V52.8783H48.8077ZM41.6538 8.91681C41.8846 8.57066 41.7692 8.10912 41.4231 7.76297L39.1154 5.80143C38.7692 5.57066 38.8846 5.10912 39.3462 4.99374L53.1923 1.76297C53.5385 1.64758 53.7692 1.87835 53.7692 2.22451V16.8784C53.7692 17.2245 53.3077 17.4553 52.9615 17.2245L51 15.6091C50.6538 15.3784 50.0769 15.3784 49.8462 15.7245C37.9615 29.5707 21.3462 39.8399 3.23077 39.7245C15 35.4553 30.9231 26.5707 41.6538 8.91681ZM1.73077 41.5707C3.46154 41.686 6.34615 41.5707 7.96154 41.4553V52.8783C7.96154 53.3399 7.61539 53.8014 7.03846 53.8014H2.53846C2.07692 53.8014 1.61538 53.4553 1.61538 52.8783V41.5707H1.73077Z" fill="black"/>
</svg>
