<svg width="60" height="60" viewBox="0 0 60 60" fill="none" xmlns="http://www.w3.org/2000/svg">
<path d="M30 37.6911V14.8086C29.3512 14.8686 28.71 14.9698 28.0575 14.9998H9.375C8.34 14.9998 7.5 15.8398 7.5 16.8748V18.7498H1.875C0.84 18.7498 0 19.5898 0 20.6248V31.8748C0 32.9098 0.84 33.7498 1.875 33.7498H7.5V35.6248C7.5 36.6598 8.34 37.4998 9.375 37.4998H10.5112L18.0487 57.5923C18.51 58.7961 19.5412 59.6698 20.8088 59.9248C21.06 59.9773 21.3112 60.0036 21.5587 60.0036C22.56 60.0036 23.5125 59.6061 24.195 58.8936L28.6987 54.4273C29.85 53.2761 30.1237 51.4798 29.3888 50.0886L23.0963 37.4998H28.0763C28.7213 37.5298 29.3587 37.6311 30 37.6911Z" fill="#FB9100"/>
<path d="M59.6925 0.9075C59.655 0.84375 59.6213 0.79125 59.5725 0.73125C59.3663 0.46875 59.1075 0.255 58.7887 0.13125C58.7775 0.1275 58.77 0.1125 58.7588 0.10875C58.7213 0.0975 58.6875 0.11625 58.65 0.105C58.4813 0.05625 58.3125 0 58.125 0C57.9975 0 57.885 0.04875 57.7612 0.075C57.69 0.09 57.6225 0.09375 57.5513 0.11625C57.2288 0.22125 56.9513 0.40125 56.73 0.64875C56.715 0.66375 56.6925 0.6675 56.6775 0.6825C50.8313 7.78125 42.6788 12.5288 33.75 14.2688V38.235C42.6788 39.975 50.8313 44.7188 56.6775 51.8175C56.6925 51.8363 56.7188 51.8438 56.7375 51.8663C56.8687 52.0125 57.03 52.1287 57.2025 52.2262C57.2588 52.26 57.3038 52.3088 57.36 52.335C57.5963 52.4363 57.8512 52.5 58.125 52.5C58.3388 52.5 58.5488 52.4625 58.7588 52.3913C58.77 52.3875 58.7775 52.3725 58.7887 52.3688C59.1075 52.245 59.3663 52.035 59.5725 51.7688C59.6175 51.7088 59.6513 51.6562 59.6925 51.5925C59.8725 51.3038 60 50.985 60 50.625V1.875C60 1.515 59.8725 1.19625 59.6925 0.9075Z" fill="#FB9100"/>
</svg>
