<svg width="60" height="60" viewBox="0 0 60 60" fill="none" xmlns="http://www.w3.org/2000/svg">
<g clip-path="url(#clip0_5940_459)">
<path d="M30 12.7119C13.7838 12.7119 1.06029 27.6669 0.561331 28.4146C-0.18711 29.4116 -0.18711 30.6579 0.561331 31.6549C1.06029 32.4026 13.7838 47.3576 30 47.3576C46.2162 47.3576 58.6902 32.4026 59.4387 31.6549C60.1871 30.6579 60.1871 29.4116 59.4387 28.4146C58.6902 27.6669 46.2162 12.7119 30 12.7119ZM30 41.8741C23.5135 41.8741 18.0249 36.3906 18.0249 29.9101C18.0249 23.1804 23.5135 17.9462 30 17.9462C36.736 17.9462 41.975 23.1804 41.975 29.9101C41.975 36.3906 36.736 41.8741 30 41.8741Z" fill="#FB9100"/>
<path d="M30.0003 24.1772H29.7508C30.0003 24.6757 30.0003 25.4235 30.0003 25.922C30.0003 28.913 27.5055 31.4055 24.5117 31.6547C25.2602 34.1472 27.755 35.6427 30.0003 35.6427C33.2435 35.6427 35.7383 33.1502 35.7383 29.91C35.7383 26.6697 33.2435 24.1772 30.0003 24.1772Z" fill="#FB9100"/>
<path d="M2.5573 43.8682C1.06042 43.8682 0.0625 44.8652 0.0625 46.3607V57.3276C0.0625 58.8231 1.06042 59.8201 2.5573 59.8201H13.5344C15.0313 59.8201 16.0292 58.8231 16.0292 57.3276C16.0292 55.8321 15.0313 54.8351 13.5344 54.8351H5.05211V46.3607C5.05211 44.8652 4.05418 43.8682 2.5573 43.8682Z" fill="#FB9100"/>
<path d="M2.5573 15.952C4.05418 15.952 5.05211 14.955 5.05211 13.4595V4.98499H13.5344C15.0313 4.98499 16.0292 3.98799 16.0292 2.4925C16.0292 0.996998 15.0313 0 13.5344 0H2.5573C1.06042 0 0.0625 0.996998 0.0625 2.4925V13.4595C0.0625 14.955 1.06042 15.952 2.5573 15.952Z" fill="#FB9100"/>
<path d="M57.4426 15.952C58.9395 15.952 59.9374 14.955 59.9374 13.4595V2.4925C59.9374 0.996998 58.9395 0 57.4426 0H46.4655C44.9686 0 43.9707 0.996998 43.9707 2.4925C43.9707 3.98799 44.9686 4.98499 46.4655 4.98499H54.9478V13.4595C54.9478 14.955 55.9458 15.952 57.4426 15.952Z" fill="#FB9100"/>
<path d="M57.4426 59.8201C58.9395 59.8201 59.9374 58.8231 59.9374 57.3276V46.3607C59.9374 44.8652 58.9395 43.8682 57.4426 43.8682C55.9458 43.8682 54.9478 44.8652 54.9478 46.3607V54.8351H46.4655C44.9686 54.8351 43.9707 55.8321 43.9707 57.3276C43.9707 58.8231 44.9686 59.8201 46.4655 59.8201H57.4426Z" fill="#FB9100"/>
</g>
<defs>
<clipPath id="clip0_5940_459">
<rect width="60" height="60" fill="white"/>
</clipPath>
</defs>
</svg>
