<svg width="60" height="60" viewBox="0 0 60 60" fill="none" xmlns="http://www.w3.org/2000/svg">
<path d="M5.94971 41.8286C8.5843 41.8286 10.794 39.6857 10.794 36.9429C10.794 36.5143 10.709 36.1714 10.624 35.7429C10.709 35.7429 10.794 35.6572 10.8789 35.5714L18.9527 30.0857C19.0377 30 19.1227 29.9143 19.2076 29.9143C19.9725 30.5143 20.9924 30.8571 22.0122 30.8571C24.6468 30.8571 26.8565 28.7143 26.8565 25.9714C26.8565 25.8 26.8565 25.7143 26.8565 25.5429C26.9414 25.5429 27.0264 25.4571 27.1114 25.4571L34.5053 21.9429C34.5903 21.8571 34.6752 21.8571 34.7602 21.7714C35.6101 22.6286 36.7999 23.1429 38.1597 23.1429C40.7943 23.1429 43.0039 21 43.0039 18.2571C43.0039 17.6571 42.919 17.1429 42.749 16.6286C42.834 16.5429 42.919 16.5429 43.0039 16.4571L51.6726 9.08572C51.7576 9 51.8426 8.91429 51.8426 8.82857C52.5225 9.25714 53.3723 9.51429 54.2222 9.51429C56.8568 9.51429 59.0664 7.37143 59.0664 4.62857C58.8965 2.14286 56.7718 0 54.0522 0C51.3327 0 49.208 2.14286 49.208 4.88572C49.208 5.48572 49.293 6 49.4629 6.51429C49.378 6.6 49.293 6.6 49.208 6.68572L40.5393 14.0571C40.4543 14.1429 40.3694 14.2286 40.3694 14.3143C39.6895 13.8857 38.8396 13.7143 37.9897 13.7143C35.3551 13.7143 33.1455 15.8571 33.1455 18.6V19.0286C33.0605 19.0286 32.9755 19.1143 32.8905 19.1143L25.4967 22.6286C25.4117 22.7143 25.3267 22.7143 25.2417 22.8C24.3918 21.9429 23.202 21.4286 21.8422 21.4286C19.2077 21.4286 16.998 23.5714 16.998 26.3143C16.998 26.7429 17.083 27.0857 17.168 27.5143C17.083 27.6 16.913 27.6 16.828 27.6857L8.83927 33.1714C8.75428 33.2572 8.66929 33.2572 8.5843 33.3429C7.81942 32.7429 6.79958 32.4 5.77974 32.4C3.23014 32.1429 1.10547 34.2857 1.10547 36.9429C1.10547 39.6 3.23014 41.8286 5.94971 41.8286Z" fill="#FB9100"/>
<path d="M10.1134 49.7141H1.69974C0.764881 49.7141 0 50.4855 0 51.4284V58.2855C0 59.2284 0.764881 59.9998 1.69974 59.9998H10.1134C11.0483 59.9998 11.8132 59.2284 11.8132 58.2855V51.4284C11.8132 50.4855 11.0483 49.7141 10.1134 49.7141Z" fill="#FB9100"/>
<path d="M26.1759 37.6284H17.7622C16.8274 37.6284 16.0625 38.3998 16.0625 39.3427V58.2856C16.0625 59.2284 16.8274 59.9998 17.7622 59.9998H26.1759C27.1108 59.9998 27.8757 59.2284 27.8757 58.2856V39.3427C27.8757 38.3998 27.1108 37.6284 26.1759 37.6284Z" fill="#FB9100"/>
<path d="M42.2384 30H33.8247C32.8899 30 32.125 30.7714 32.125 31.7143V58.2857C32.125 59.2286 32.8899 60 33.8247 60H42.2384C43.1733 60 43.9382 59.2286 43.9382 58.2857V31.7143C43.9382 30.7714 43.1733 30 42.2384 30Z" fill="#FB9100"/>
<path d="M58.3009 16.457H49.8872C48.9524 16.457 48.1875 17.2285 48.1875 18.1713V58.2856C48.1875 59.2285 48.9524 59.9999 49.8872 59.9999H58.3009C59.2358 59.9999 60.0007 59.2285 60.0007 58.2856V18.1713C60.0007 17.2285 59.2358 16.457 58.3009 16.457Z" fill="#FB9100"/>
</svg>
