<svg width="49" height="60" viewBox="0 0 49 60" fill="none" xmlns="http://www.w3.org/2000/svg">
<path d="M16.0473 9.76744H32.7915C32.9765 9.76744 33.154 9.69394 33.2848 9.5631C33.4156 9.43226 33.4891 9.2548 33.4891 9.06977V0H15.3496V9.06977C15.3496 9.2548 15.4231 9.43226 15.554 9.5631C15.6848 9.69394 15.8622 9.76744 16.0473 9.76744Z" fill="#FB9100"/>
<path d="M42.5581 0H37.6744V9.06977C37.6671 10.3628 37.1502 11.6007 36.2359 12.515C35.3216 13.4293 34.0837 13.9462 32.7907 13.9535H16.0465C14.7535 13.9462 13.5156 13.4293 12.6013 12.515C11.687 11.6007 11.1701 10.3628 11.1628 9.06977V0H6.27907C4.61376 0 3.01665 0.661543 1.8391 1.8391C0.661543 3.01665 0 4.61376 0 6.27907V53.7209C0 55.3862 0.661543 56.9833 1.8391 58.1609C3.01665 59.3385 4.61376 60 6.27907 60H42.5581C44.2234 60 45.8206 59.3385 46.9981 58.1609C48.1757 56.9833 48.8372 55.3862 48.8372 53.7209V6.27907C48.8372 4.61376 48.1757 3.01665 46.9981 1.8391C45.8206 0.661543 44.2234 0 42.5581 0ZM35.5814 48.8372H13.2558C12.7007 48.8372 12.1683 48.6167 11.7758 48.2242C11.3833 47.8317 11.1628 47.2993 11.1628 46.7442C11.1628 46.1891 11.3833 45.6567 11.7758 45.2642C12.1683 44.8717 12.7007 44.6512 13.2558 44.6512H35.5814C36.1365 44.6512 36.6689 44.8717 37.0614 45.2642C37.4539 45.6567 37.6744 46.1891 37.6744 46.7442C37.6744 47.2993 37.4539 47.8317 37.0614 48.2242C36.6689 48.6167 36.1365 48.8372 35.5814 48.8372ZM35.5814 37.6744H13.2558C12.7007 37.6744 12.1683 37.4539 11.7758 37.0614C11.3833 36.6689 11.1628 36.1365 11.1628 35.5814C11.1628 35.0263 11.3833 34.4939 11.7758 34.1014C12.1683 33.7089 12.7007 33.4884 13.2558 33.4884H35.5814C36.1365 33.4884 36.6689 33.7089 37.0614 34.1014C37.4539 34.4939 37.6744 35.0263 37.6744 35.5814C37.6744 36.1365 37.4539 36.6689 37.0614 37.0614C36.6689 37.4539 36.1365 37.6744 35.5814 37.6744ZM35.5814 26.5116H13.2558C12.7007 26.5116 12.1683 26.2911 11.7758 25.8986C11.3833 25.5061 11.1628 24.9737 11.1628 24.4186C11.1628 23.8635 11.3833 23.3311 11.7758 22.9386C12.1683 22.5461 12.7007 22.3256 13.2558 22.3256H35.5814C36.1365 22.3256 36.6689 22.5461 37.0614 22.9386C37.4539 23.3311 37.6744 23.8635 37.6744 24.4186C37.6744 24.9737 37.4539 25.5061 37.0614 25.8986C36.6689 26.2911 36.1365 26.5116 35.5814 26.5116Z" fill="#FB9100"/>
</svg>
