<svg width="60" height="60" viewBox="0 0 60 60" fill="none" xmlns="http://www.w3.org/2000/svg">
<path d="M15.6239 45.7511C11.6213 45.7511 8.0612 43.1886 6.76867 39.3735L6.68117 39.086C6.37617 38.076 6.24866 37.226 6.24866 36.3759V19.3306L0.183532 39.576C-0.596485 42.5536 1.18105 45.6411 4.16362 46.4637L42.822 56.8164C43.3045 56.9414 43.787 57.0014 44.262 57.0014C46.752 57.0014 49.0271 55.3488 49.6646 52.9138L51.9172 45.7511H15.6239Z" fill="#FB9100"/>
<path d="M22.4982 19.5002C25.2557 19.5002 27.4983 17.2577 27.4983 14.5001C27.4983 11.7425 25.2557 9.5 22.4982 9.5C19.7406 9.5 17.498 11.7425 17.498 14.5001C17.498 17.2577 19.7406 19.5002 22.4982 19.5002Z" fill="#FB9100"/>
<path d="M53.749 2H16.2482C12.8031 2 9.99805 4.80506 9.99805 8.25014V35.7507C9.99805 39.1958 12.8031 42.0009 16.2482 42.0009H53.749C57.1941 42.0009 59.9991 39.1958 59.9991 35.7507V8.25014C59.9991 4.80506 57.1941 2 53.749 2ZM16.2482 7.00011H53.749C54.439 7.00011 54.999 7.56012 54.999 8.25014V25.998L47.1013 16.7828C46.2638 15.8003 45.0513 15.2753 43.7488 15.2453C42.4537 15.2528 41.2387 15.8278 40.4087 16.8228L31.1235 27.9681L28.0984 24.9505C26.3884 23.2405 23.6058 23.2405 21.8983 24.9505L14.9982 31.8481V8.25014C14.9982 7.56012 15.5582 7.00011 16.2482 7.00011Z" fill="#FB9100"/>
</svg>
