<svg width="60" height="60" viewBox="0 0 60 60" fill="none" xmlns="http://www.w3.org/2000/svg">
<path d="M43.8462 54.2307V55.3846C43.8426 56.6075 43.3552 57.7794 42.4904 58.6442C41.6256 59.509 40.4537 59.9964 39.2308 59.9999H4.61539C3.39241 59.9964 2.22055 59.509 1.35577 58.6442C0.490992 57.7794 0.00358009 56.6075 3.09307e-07 55.3846V54.2307C-0.000541199 51.0074 0.709944 47.8237 2.08082 44.9064C3.45169 41.9891 5.44919 39.4102 7.93096 37.3534C8.18334 37.1519 8.47446 37.0045 8.78624 36.9203C9.09801 36.8361 9.42377 36.8169 9.74326 36.864C10.0628 36.9111 10.3691 37.0234 10.6434 37.1939C10.9176 37.3645 11.1539 37.5896 11.3374 37.8553C12.5516 39.5251 14.1437 40.8839 15.9834 41.8208C17.8232 42.7577 19.8585 43.2461 21.9231 43.2461C23.9877 43.2461 26.023 42.7577 27.8627 41.8208C29.7025 40.8839 31.2945 39.5251 32.5088 37.8553C32.6923 37.5896 32.9285 37.3645 33.2028 37.1939C33.477 37.0234 33.7834 36.9111 34.1029 36.864C34.4224 36.8169 34.7481 36.8361 35.0599 36.9203C35.3717 37.0045 35.6628 37.1519 35.9152 37.3534C38.397 39.4102 40.3945 41.9891 41.7653 44.9064C43.1362 47.8237 43.8467 51.0074 43.8462 54.2307Z" fill="#FB9100"/>
<path d="M46.1548 0C43.4162 0 40.7392 0.812062 38.4622 2.3335C36.1853 3.85493 34.4106 6.0174 33.3626 8.54745C32.3146 11.0775 32.0404 13.8615 32.5746 16.5474C33.1089 19.2333 34.4276 21.7004 36.364 23.6368C38.3005 25.5733 40.7676 26.892 43.4535 27.4262C46.1394 27.9605 48.9234 27.6863 51.4534 26.6383C53.9835 25.5903 56.146 23.8156 57.6674 21.5387C59.1888 19.2617 60.0009 16.5847 60.0009 13.8461C59.9969 10.1752 58.5368 6.65566 55.941 4.05988C53.3452 1.46409 49.8258 0.00401315 46.1548 0ZM52.9786 12.0161L46.0555 18.9392C45.8413 19.1536 45.5869 19.3236 45.307 19.4396C45.027 19.5556 44.727 19.6153 44.4239 19.6153C44.1209 19.6153 43.8208 19.5556 43.5408 19.4396C43.2609 19.3236 43.0065 19.1536 42.7923 18.9392L39.3308 15.4777C38.9026 15.044 38.6633 14.4586 38.6652 13.8491C38.6671 13.2397 38.9101 12.6557 39.3411 12.2248C39.772 11.7938 40.356 11.5509 40.9654 11.549C41.5749 11.5471 42.1603 11.7864 42.594 12.2146L44.424 14.0446L49.7155 8.75307C50.1496 8.32682 50.7344 8.08922 51.3427 8.09197C51.9511 8.09473 52.5337 8.33761 52.9639 8.76778C53.3941 9.19795 53.6369 9.78059 53.6397 10.3889C53.6425 10.9973 53.4049 11.5821 52.9786 12.0161Z" fill="#FB9100"/>
<path d="M21.9223 36.9231C29.5693 36.9231 35.7685 30.2074 35.7685 21.9231C35.7685 13.6388 29.5693 6.9231 21.9223 6.9231C14.2753 6.9231 8.07617 13.6388 8.07617 21.9231C8.07617 30.2074 14.2753 36.9231 21.9223 36.9231Z" fill="#FB9100"/>
</svg>
