<svg width="60" height="60" viewBox="0 0 60 60" fill="none" xmlns="http://www.w3.org/2000/svg">
<path d="M49.7697 15.0547H48.4536V25.2803C48.4536 32.8562 42.2871 39.0197 34.7074 39.0197H15.0625V40.3356C15.0625 45.9739 19.652 50.5607 25.2931 50.5607H46.309L57.1172 59.5633C57.439 59.8314 57.8391 59.9705 58.2429 59.9705C59.2092 59.9705 60.0002 59.1867 60.0002 58.2135V25.2803C60.0002 19.6333 55.4295 15.0547 49.7697 15.0547Z" fill="#FB9100"/>
<path d="M44.9377 25.2805V10.2256C44.9377 4.56854 40.3573 0 34.7072 0H10.2306C4.57077 0 0 4.57815 0 10.2256V43.1588C0 44.1316 0.791015 44.9158 1.75735 44.9158C2.1611 44.9158 2.56119 44.7767 2.88299 44.5081L13.6912 35.506H34.7072C40.3482 35.506 44.9377 30.9192 44.9377 25.2805ZM22.4689 27.9786C21.4984 27.9786 20.7111 27.1916 20.7111 26.2216C20.7111 25.2516 21.4984 24.4647 22.4689 24.4647C23.4389 24.4647 24.2267 25.2516 24.2267 26.2216C24.2267 27.1916 23.4389 27.9786 22.4689 27.9786ZM24.2267 20.2082V20.576C24.2267 21.546 23.4393 22.333 22.4689 22.333C21.4979 22.333 20.7111 21.546 20.7111 20.576V18.6942C20.7111 17.7237 21.4979 16.9372 22.4689 16.9372C24.0948 16.9372 25.4178 15.6145 25.4178 13.9893C25.4178 12.3636 24.0948 11.0414 22.4689 11.0414C21.6797 11.0414 20.9395 11.3479 20.3828 11.9043C19.8262 12.4606 19.5195 13.2005 19.5195 13.987C19.5195 14.9574 18.7326 15.7453 17.7617 15.7453C16.7908 15.7453 16.0039 14.9593 16.0039 13.9893V13.987C16.0039 12.2621 16.6763 10.6396 17.8967 9.41984C19.1176 8.19958 20.7403 7.52745 22.4666 7.52745C26.0335 7.52745 28.9334 10.4264 28.9334 13.9893C28.9334 16.9436 26.9398 19.4413 24.2267 20.2082Z" fill="#FB9100"/>
</svg>
