<svg width="60" height="60" viewBox="0 0 60 60" fill="none" xmlns="http://www.w3.org/2000/svg">
<path d="M58.5874 5.79051L56.1422 4.37875C54.7917 3.59903 53.0648 4.06181 52.2853 5.4123L48.7559 11.5254L56.0915 15.7607L59.6209 9.64759C60.4005 8.29709 59.9379 6.57023 58.5874 5.79051Z" fill="#FB9100"/>
<path d="M34.8101 35.6795C34.7071 35.8579 34.6307 36.0505 34.5833 36.2511L32.563 44.7969C32.1764 46.4324 34.1506 47.5722 35.3736 46.4196L41.7643 40.3972C41.9143 40.2558 42.0429 40.0934 42.1459 39.9148L53.9737 19.4284L46.6379 15.1931L34.8101 35.6795Z" fill="#FB9100"/>
<path d="M44.6691 43.4797L38.2788 49.5019C37.1692 50.5475 35.73 51.1234 34.2272 51.1234C34.2268 51.1234 34.2266 51.1234 34.2263 51.1234C32.4201 51.1231 30.6704 50.2744 29.5461 48.8529C29.0875 48.2732 28.7514 47.6236 28.5403 46.9375H10.5882C9.41871 46.9375 8.47057 45.9894 8.47057 44.8199C8.47057 43.6504 9.41871 42.7022 10.5882 42.7022H28.7066L30.462 35.2769C30.6042 34.6755 30.833 34.099 31.1419 33.5632L41.3522 15.8786H11.2294L3.29237 10.5872C1.88513 9.64908 0 10.6579 0 12.3492V49.055C0 53.3434 3.47632 56.8197 7.76469 56.8197H39.9529C44.2412 56.8197 47.7176 53.3434 47.7176 49.055V38.7356L45.8142 42.0324C45.5043 42.569 45.1192 43.0556 44.6691 43.4797ZM10.5882 25.761H25.8352C27.0047 25.761 27.9529 26.7091 27.9529 27.8786C27.9529 29.0481 27.0047 29.9962 25.8352 29.9962H10.5882C9.41871 29.9962 8.47057 29.0481 8.47057 27.8786C8.47057 26.7091 9.41871 25.761 10.5882 25.761ZM10.5882 34.2315H25.8352C27.0047 34.2315 27.9529 35.1797 27.9529 36.3492C27.9529 37.5187 27.0047 38.4668 25.8352 38.4668H10.5882C9.41871 38.4668 8.47057 37.5187 8.47057 36.3492C8.47057 35.1797 9.41871 34.2315 10.5882 34.2315Z" fill="#FB9100"/>
</svg>
