<svg width="60" height="60" viewBox="0 0 60 60" fill="none" xmlns="http://www.w3.org/2000/svg">
<g clip-path="url(#clip0_5940_363)">
<path d="M15.1507 37.3914L11.2598 41.2825L18.7176 48.7403L22.6087 44.8492C19.65 42.8897 17.1102 40.3499 15.1507 37.3914Z" fill="#FB9100"/>
<path d="M8.77412 43.7683L1.54459 50.9978C-0.514863 53.0573 -0.514863 56.3962 1.54459 58.4555C3.60404 60.515 6.94295 60.515 9.0024 58.4555L16.2319 51.2261L8.77412 43.7683Z" fill="#FB9100"/>
<path d="M42.4219 21.0938C41.4526 21.0938 40.6641 21.8823 40.6641 22.8516C40.6641 23.8208 41.4526 24.6094 42.4219 24.6094C43.3911 24.6094 44.1797 23.8208 44.1797 22.8516C44.1797 21.8823 43.3911 21.0938 42.4219 21.0938Z" fill="#FB9100"/>
<path d="M37.1484 8.78906C29.3944 8.78906 23.0859 15.0975 23.0859 22.8516C23.0859 30.6056 29.3944 36.9141 37.1484 36.9141C44.9025 36.9141 51.2109 30.6056 51.2109 22.8516C51.2109 15.0975 44.9026 8.78906 37.1484 8.78906ZM42.4219 28.125C40.1303 28.125 38.1764 26.6554 37.4508 24.6094H33.6328V28.125H30.1172V24.6094H26.6016V21.0938H37.4508C38.1764 19.0478 40.1303 17.5781 42.4219 17.5781C45.3296 17.5781 47.6953 19.9438 47.6953 22.8516C47.6953 25.7593 45.3296 28.125 42.4219 28.125Z" fill="#FB9100"/>
<path d="M37.1484 0C24.5279 0 14.2969 10.2311 14.2969 22.8516C14.2969 35.4721 24.5278 45.7031 37.1484 45.7031C49.7691 45.7031 60 35.4721 60 22.8516C60 10.2311 49.7692 0 37.1484 0ZM37.1484 40.4297C27.4559 40.4297 19.5703 32.5441 19.5703 22.8516C19.5703 13.159 27.4559 5.27344 37.1484 5.27344C46.841 5.27344 54.7266 13.159 54.7266 22.8516C54.7266 32.5441 46.8411 40.4297 37.1484 40.4297Z" fill="#FB9100"/>
</g>
<defs>
<clipPath id="clip0_5940_363">
<rect width="60" height="60" fill="white"/>
</clipPath>
</defs>
</svg>
