<svg width="60" height="60" viewBox="0 0 60 60" fill="none" xmlns="http://www.w3.org/2000/svg">
<path d="M47.6903 10.0136C47.6979 9.53004 48.096 9.14426 48.5795 9.15176L54.4375 9.2618C54.9209 9.26941 55.3068 9.6675 55.2993 10.151L55.1891 16.0089C55.1816 16.4924 54.7834 16.8782 54.2999 16.8707C53.8165 16.863 53.4306 16.465 53.4381 15.9814L53.5083 12.247C49.0026 16.5466 42.4476 21.5378 35.3556 26.2022C27.5813 31.3154 19.1499 36.0436 12.0592 39.042C11.6137 39.2297 11.1002 39.0206 10.9125 38.5751C10.7249 38.1295 10.934 37.616 11.3794 37.4284C18.3728 34.4713 26.7033 29.7981 34.3943 24.7397C41.4066 20.1277 47.8771 15.2019 52.3047 10.9732L48.552 10.9027C48.0686 10.8953 47.6828 10.4971 47.6903 10.0136ZM14.3373 47.3745H9.10141C8.7141 47.3745 8.39828 47.6903 8.39828 48.0776V58.292C8.39828 58.6793 8.7141 58.9951 9.10141 58.9951H14.3373C14.7246 58.9951 15.0405 58.6793 15.0405 58.292V48.0776C15.0404 47.6903 14.7245 47.3745 14.3373 47.3745ZM11.2925 24.2033H2.00488C2.14961 27.9428 3.21344 31.4466 4.97711 34.4947L13.0114 29.8561C12.0375 28.1733 11.4286 26.2529 11.2925 24.2033ZM12.5985 17.5668L4.5543 12.9224C3.04504 15.7856 2.1393 19.0163 2.00652 22.4455H11.2935C11.4092 20.7036 11.8664 19.0554 12.5985 17.5668ZM23.4459 10.293V1.00605C20.016 1.13906 16.7848 2.04445 13.9213 3.55465L18.5656 11.5989C20.0547 10.8661 21.7035 10.4089 23.4459 10.293ZM17.0505 12.4748L12.4062 4.43086C9.59559 6.20742 7.20895 8.59371 5.43227 11.4042L13.4764 16.0485C14.4241 14.638 15.6396 13.4224 17.0505 12.4748ZM25.0759 40.8132C23.3307 40.8132 21.5854 40.8132 19.8401 40.8132C19.4528 40.8132 19.137 41.1291 19.137 41.5164V58.292C19.137 58.6793 19.4528 58.9951 19.8401 58.9951H25.0759C25.4632 58.9951 25.7791 58.6793 25.7791 58.292C25.7791 52.7 25.7791 47.1082 25.7791 41.5164C25.7791 41.1291 25.4632 40.8132 25.0759 40.8132ZM46.5534 27.6907C44.8081 27.6907 43.0628 27.6907 41.3175 27.6907C40.9302 27.6907 40.6144 28.0065 40.6144 28.3938V58.292C40.6144 58.6793 40.9302 58.9951 41.3175 58.9951H46.5534C46.9407 58.9951 47.2565 58.6793 47.2565 58.292C47.2565 48.3259 47.2565 38.3599 47.2565 28.3938C47.2565 28.0065 46.9407 27.6907 46.5534 27.6907ZM35.6383 16.7926C35.6383 16.7926 38.3164 15.2464 43.6725 12.154C41.8577 9.01711 39.3016 6.36281 36.244 4.43004L31.5992 12.4751C33.2523 13.5855 34.6379 15.0636 35.6383 16.7926ZM57.2921 21.1295H52.0561C51.6688 21.1295 51.353 21.4453 51.353 21.8326V58.292C51.353 58.6793 51.6688 58.9951 52.0561 58.9951H57.2921C57.6794 58.9951 57.9952 58.6793 57.9952 58.292V21.8326C57.9952 21.4453 57.6794 21.1295 57.2921 21.1295ZM35.8147 34.252C34.0693 34.252 32.3241 34.252 30.5787 34.252C30.1914 34.252 29.8756 34.5678 29.8756 34.9552V58.292C29.8756 58.6793 30.1914 58.9951 30.5787 58.9951H35.8147C36.202 58.9951 36.5178 58.6793 36.5178 58.292C36.5178 50.513 36.5178 42.7341 36.5178 34.9552C36.5178 34.5678 36.202 34.252 35.8147 34.252ZM24.3248 19.8683C24.6525 19.8683 24.9696 19.9139 25.27 19.9992L30.1588 16.8423C30.3464 16.7211 30.5867 16.7467 30.7446 16.9046C30.9026 17.0626 30.9282 17.3027 30.807 17.4904L27.6501 22.3792C27.7354 22.6796 27.7809 22.9966 27.7809 23.3244C27.7809 25.2332 26.2336 26.7804 24.3249 26.7804C22.4161 26.7804 20.8689 25.233 20.8689 23.3244C20.8688 21.4157 22.4161 19.8683 24.3248 19.8683ZM23.1646 23.3244C23.1646 23.9652 23.6841 24.4847 24.3248 24.4847C24.9655 24.4847 25.485 23.9652 25.485 23.3244C25.485 22.6836 24.9655 22.1641 24.3248 22.1641C23.6841 22.1641 23.1646 22.6836 23.1646 23.3244ZM34.729 3.55348C31.8653 2.04328 28.6336 1.13766 25.2037 1.00488V10.2921C26.9461 10.4079 28.5951 10.8655 30.0842 11.5984L34.729 3.55348Z" fill="#FFD79F"/>
</svg>
