<svg width="70" height="70" viewBox="0 0 70 70" fill="none" xmlns="http://www.w3.org/2000/svg">
<path d="M52.3948 43.4883L50.9096 44.9736L48.5186 42.5829C51.4544 38.4602 53.1998 33.4332 53.1998 27.9964C53.1998 14.1085 41.9018 2.79639 27.9998 2.79639C14.0977 2.79639 2.7998 14.1085 2.7998 27.9964C2.7998 41.8985 14.0977 53.2104 27.9998 53.2104C33.4363 53.2104 38.461 51.4631 42.5811 48.5249L44.9701 50.9135L43.4855 52.3983L56.4444 65.3565C58.9031 67.818 62.8909 67.8207 65.3537 65.3565C67.8103 62.9012 67.8205 58.9162 65.3537 56.4479L52.3948 43.4883ZM27.9998 46.196C17.9643 46.196 9.80083 38.0326 9.80083 28.0101C9.80083 17.9746 17.9643 9.81108 27.9998 9.81108C38.0352 9.81108 46.1988 17.9746 46.1988 28.0101C46.1988 38.0326 38.0352 46.196 27.9998 46.196Z" fill="#FFD79F"/>
<path d="M15.3701 28.0044H19.5701V37.8058H15.3701V28.0044Z" fill="#FFD79F"/>
<path d="M29.3652 25.1973H33.5652V37.8057H29.3652V25.1973Z" fill="#FFD79F"/>
<path d="M22.3652 20.9971H26.5652V37.8055H22.3652V20.9971Z" fill="#FFD79F"/>
<path d="M36.3652 18.1958H40.5652V37.7986H36.3652V18.1958Z" fill="#FFD79F"/>
</svg>
