<svg width="60" height="60" viewBox="0 0 60 60" fill="none" xmlns="http://www.w3.org/2000/svg">
<path fill-rule="evenodd" clip-rule="evenodd" d="M46.4072 13.0401L42.6113 9.24554C42.2571 8.89135 42.1268 8.37153 42.272 7.89246C42.4172 7.4134 42.8135 7.05378 43.3048 6.95471L56.8761 4.24044C57.3213 4.15222 57.7814 4.29064 58.1016 4.61228C58.4233 4.93255 58.5617 5.39265 58.4735 5.83779L55.7592 19.4092C55.6601 19.9004 55.3005 20.2967 54.8214 20.4419C54.3424 20.5871 53.8226 20.4568 53.4684 20.1026L49.7172 16.3515L47.0505 18.8242C42.6357 22.9173 37.5383 26.0917 31.9998 28.1436C26.5414 30.1671 20.7071 31.1701 14.7764 30.9461C14.7764 30.9461 2.46719 30.482 2.44955 30.482C2.18355 30.482 1.96777 30.2662 1.96777 30.0002C1.96777 29.7342 2.18355 29.5184 2.44955 29.5184C2.46719 29.5184 14.7764 29.0543 14.7764 29.0543C20.3719 28.8426 25.7909 27.4977 30.7825 25.2055C35.698 22.9485 40.1413 19.7077 43.8897 15.6634L46.4072 13.0401Z" fill="#FFD79F"/>
<path fill-rule="evenodd" clip-rule="evenodd" d="M9.64282 35.4289V54.4288C9.64282 54.7885 9.50032 55.1345 9.24518 55.3883C8.9914 55.6434 8.64532 55.786 8.28568 55.786H2.85714C2.4975 55.786 2.15142 55.6434 1.89764 55.3883C1.64249 55.1345 1.5 54.7885 1.5 54.4288V35.4289C1.5 35.0693 1.64249 34.7232 1.89764 34.4694C2.15142 34.2143 2.4975 34.0718 2.85714 34.0718H8.28568C8.64532 34.0718 8.9914 34.2143 9.24518 34.4694C9.50032 34.7232 9.64282 35.0693 9.64282 35.4289Z" fill="#FFD79F"/>
<path fill-rule="evenodd" clip-rule="evenodd" d="M25.928 35.4289V54.4288C25.928 54.7885 25.7855 55.1345 25.5303 55.3883C25.2766 55.6434 24.9305 55.786 24.5708 55.786H19.1423C18.7827 55.786 18.4366 55.6434 18.1828 55.3883C17.9277 55.1345 17.7852 54.7885 17.7852 54.4288V35.4289C17.7852 35.0693 17.9277 34.7232 18.1828 34.4694C18.4366 34.2143 18.7827 34.0718 19.1423 34.0718H24.5708C24.9305 34.0718 25.2766 34.2143 25.5303 34.4694C25.7855 34.7232 25.928 35.0693 25.928 35.4289Z" fill="#FFD79F"/>
<path fill-rule="evenodd" clip-rule="evenodd" d="M42.2141 32.7136V54.4278C42.2141 54.7881 42.0716 55.1335 41.8165 55.3868C41.5627 55.6416 41.2166 55.7849 40.857 55.7849H35.4284C35.0688 55.7849 34.7227 55.6416 34.4689 55.3868C34.2138 55.1335 34.0713 54.7881 34.0713 54.4278V32.7136C34.0713 32.3532 34.2138 32.0079 34.4689 31.7545C34.7227 31.4997 35.0688 31.3564 35.4284 31.3564H40.857C41.2166 31.3564 41.5627 31.4997 41.8165 31.7545C42.0716 32.0079 42.2141 32.3532 42.2141 32.7136Z" fill="#FFD79F"/>
<path fill-rule="evenodd" clip-rule="evenodd" d="M58.4993 24.5704V54.4258C58.4993 55.1766 57.8913 55.7843 57.1421 55.7843H51.7136C50.9644 55.7843 50.3564 55.1766 50.3564 54.4258V24.5704C50.3564 23.8197 50.9644 23.2119 51.7136 23.2119H57.1421C57.8913 23.2119 58.4993 23.8197 58.4993 24.5704Z" fill="#FFD79F"/>
</svg>
