<svg width="60" height="60" viewBox="0 0 60 60" fill="none" xmlns="http://www.w3.org/2000/svg">
<path d="M57.4605 53.7072L41.1688 37.4154C42.2788 36.0037 43.2229 34.479 43.9605 32.836C44.5588 31.5019 43.9605 29.9348 42.6264 29.3366C41.2905 28.7437 39.727 29.3366 39.1288 30.6707C38.2958 32.5307 37.1347 34.2125 35.6805 35.6684C25.1505 46.1913 7.05877 38.6984 7.05877 23.8113C7.05877 14.2448 14.9982 6.71306 24.4799 7.07659C29.0029 7.21248 33.0794 9.07953 35.9594 12.3319C36.9299 13.426 38.6011 13.5301 39.6952 12.5595C40.7894 11.5907 40.8917 9.91777 39.9229 8.82365C36.0635 4.46659 30.637 1.966 24.6405 1.786C12.0229 1.40483 1.76465 11.3384 1.76465 23.8113C1.76465 36.0848 11.7035 45.8595 23.8235 45.8595C28.6394 45.8595 33.4464 44.2837 37.4276 41.1601L53.7176 57.4501C54.7517 58.4842 56.4264 58.4842 57.4605 57.4501C58.4929 56.416 58.4929 54.7413 57.4605 53.7072Z" fill="#FFD79F"/>
<path d="M50.2939 13.2246C46.8456 13.2246 43.9321 15.4481 42.838 18.5258H32.7156C32.6927 18.5258 32.6697 18.5187 32.6468 18.5187C32.6239 18.5187 32.6009 18.5258 32.578 18.5258H25.6568C25.6339 18.5258 25.6127 18.5187 25.588 18.5187C25.565 18.5187 25.5421 18.5258 25.5192 18.5258H22.0621C20.6009 18.5258 19.415 19.7117 19.415 21.1728C19.415 22.634 20.6009 23.8199 22.0621 23.8199H22.9409V26.4599C22.9409 27.9211 24.1268 29.107 25.588 29.107C27.0492 29.107 28.235 27.9211 28.235 26.4599V23.8199H29.9997V28.2246C29.9997 29.6858 31.1856 30.8717 32.6468 30.8717C34.108 30.8717 35.2939 29.6858 35.2939 28.2246V23.8199H42.8433C43.9409 26.8905 46.8509 29.107 50.2939 29.107C54.6721 29.107 58.235 25.5458 58.235 21.1658C58.235 16.7876 54.6721 13.2246 50.2939 13.2246ZM50.2939 23.8128C48.8415 23.8128 47.6609 22.6358 47.6486 21.187C47.6486 21.1817 47.6503 21.1781 47.6503 21.1728C47.6503 21.1658 47.6486 21.1587 47.6486 21.1517C47.6556 19.6976 48.8397 18.5187 50.2939 18.5187C51.7533 18.5187 52.9409 19.7064 52.9409 21.1658C52.9409 22.6252 51.7533 23.8128 50.2939 23.8128Z" fill="#FFD79F"/>
</svg>
