<svg width="60" height="60" viewBox="0 0 60 60" fill="none" xmlns="http://www.w3.org/2000/svg">
<g clip-path="url(#clip0_6835_3110)">
<g clip-path="url(#clip1_6835_3110)">
<path d="M5.3441 21.2168C5.3441 20.246 4.55707 19.459 3.58629 19.459H1.75781C0.787031 19.459 0 20.246 0 21.2168C0 22.1876 0.787031 22.9746 1.75781 22.9746H3.58629C4.55707 22.9746 5.3441 22.1876 5.3441 21.2168Z" fill="#FB9100"/>
<path d="M6.26018 7.10636C7.84221 7.10636 8.63041 5.15507 7.45936 4.063L6.12213 2.81589C5.41209 2.1539 4.29975 2.19281 3.63776 2.90261C2.97565 3.61265 3.01455 4.72488 3.72448 5.38699C4.80495 6.26894 5.18756 7.10636 6.26018 7.10636Z" fill="#FB9100"/>
<path d="M5.06164 35.5533L3.72441 36.8003C3.01437 37.4624 2.97558 38.5747 3.63758 39.2846C4.29992 39.9948 5.41203 40.0335 6.12207 39.3715L7.4593 38.1245C8.16933 37.4624 8.20812 36.35 7.54613 35.6401C6.8839 34.9301 5.77168 34.8912 5.06164 35.5533Z" fill="#FB9100"/>
<path d="M58.2422 19.2129H56.4137C55.4429 19.2129 54.6559 19.9999 54.6559 20.9707C54.6559 21.9415 55.4429 22.7285 56.4137 22.7285H58.2422C59.213 22.7285 60 21.9415 60 20.9707C60 19.9999 59.213 19.2129 58.2422 19.2129Z" fill="#FB9100"/>
<path d="M54.9384 35.5531C54.2283 34.8913 53.1161 34.9301 52.4539 35.64C51.7919 36.35 51.8307 37.4622 52.5407 38.1243L53.8779 39.3713C54.5895 40.0347 55.7016 39.993 56.3624 39.2845C57.0244 38.5745 56.9856 37.4622 56.2756 36.8001L54.9384 35.5531Z" fill="#FB9100"/>
<path d="M54.9383 6.63411L56.2756 5.38712C56.9856 4.72501 57.0244 3.61267 56.3623 2.90274C55.7002 2.19282 54.5878 2.1538 53.8779 2.81603L52.5407 4.06302C51.8306 4.72513 51.7919 5.83747 52.454 6.54739C53.1162 7.25743 54.2285 7.2961 54.9383 6.63411Z" fill="#FB9100"/>
<path d="M20.0391 47.6367C20.0391 49.8232 21.3779 51.7024 23.2786 52.5H36.7214C38.6221 51.7024 39.9609 49.8232 39.9609 47.6367V45.1172H20.0391V47.6367Z" fill="#FB9100"/>
<path d="M23.5547 58.2422C23.5547 59.2125 24.3422 60 25.3125 60H34.6875C35.6578 60 36.4453 59.2125 36.4453 58.2422V56.0156H23.5547V58.2422Z" fill="#FB9100"/>
<path d="M50.3377 21.0937C55.3393 15.988 52.4494 7.37659 45.4501 6.26178C43.693 0.419866 36.6329 -1.9056 31.7578 1.76213V42.2461H37.0313C40.9991 42.2461 44.3846 39.6399 45.4676 35.9229C52.4288 34.8001 55.3487 26.2091 50.3377 21.0937ZM35.2734 10.664C35.2734 9.69326 36.0605 8.90623 37.0313 8.90623C38.002 8.90623 38.7891 9.69326 38.7891 10.664C38.7891 12.4642 39.4714 12.7939 40.8308 13.4508C42.1178 14.0726 44.0625 15.0122 44.0625 17.6953C44.0625 18.6661 43.2755 19.4531 42.3047 19.4531C41.3339 19.4531 40.5469 18.6661 40.5469 17.6953C40.5469 17.3096 40.5469 17.218 39.3014 16.6162C37.795 15.8884 35.2734 14.6701 35.2734 10.664ZM45.6997 27.248C43.676 30.0522 40.5498 31.2159 39.6596 31.2159C38.8948 31.2159 38.1912 30.713 37.9704 29.941C37.7034 29.0076 38.2438 28.0346 39.1772 27.7677C40.6303 27.3521 41.9438 26.4449 42.8489 25.1906C43.417 24.4033 44.5158 24.2258 45.3029 24.7938C46.0902 25.3621 46.2679 26.4607 45.6997 27.248Z" fill="#FB9100"/>
<path d="M28.2421 42.2461V1.76213C23.3673 -1.90549 16.3071 0.419631 14.5499 6.26178C7.54671 7.37729 4.66284 15.9902 9.66241 21.0937C4.6496 26.2107 7.5746 34.8006 14.5325 35.9229C15.6189 39.6521 19.0115 42.2461 22.9688 42.2461H28.2421ZM19.1691 13.4508C20.5285 12.7939 21.2109 12.4643 21.2109 10.664C21.2109 9.69326 21.9979 8.90623 22.9687 8.90623C23.9395 8.90623 24.7265 9.69326 24.7265 10.664C24.7265 14.6701 22.205 15.8884 20.6985 16.6162C19.4531 17.218 19.4531 17.3096 19.4531 17.6953C19.4531 18.6661 18.666 19.4531 17.6953 19.4531C16.7245 19.4531 15.9374 18.6661 15.9374 17.6953C15.9374 15.0122 17.8822 14.0726 19.1691 13.4508ZM22.0296 29.941C21.8089 30.7128 21.1052 31.2159 20.3403 31.2159C19.4232 31.2159 16.5012 30.0614 14.5553 27.5865C13.9552 26.8233 14.0875 25.7182 14.8507 25.1182C15.614 24.5181 16.719 24.6504 17.319 25.4135C18.1945 26.527 19.4279 27.3688 20.8228 27.7676C21.7563 28.0346 22.2965 29.0076 22.0296 29.941Z" fill="#FB9100"/>
</g>
</g>
<defs>
<clipPath id="clip0_6835_3110">
<rect width="60" height="60" fill="white"/>
</clipPath>
<clipPath id="clip1_6835_3110">
<rect width="60" height="60" fill="white"/>
</clipPath>
</defs>
</svg>
