<svg width="60" height="60" viewBox="0 0 60 60" fill="none" xmlns="http://www.w3.org/2000/svg">
<path fill-rule="evenodd" clip-rule="evenodd" d="M50.6719 18.0768C51.3896 19.596 51.9479 21.1872 52.3377 22.8311L57.0646 24.6483V32.3595L52.3377 34.1767C51.7391 36.6929 50.7362 39.0924 49.3835 41.2979L51.4359 45.9262L45.9782 51.3777L41.3446 49.3276C39.1445 50.6865 36.7344 51.6805 34.2155 52.2785L32.3962 57H24.6761L22.857 52.2785C20.3302 51.6805 17.9279 50.6788 15.72 49.3276L11.0864 51.3777L5.62875 45.9262L7.689 41.2979C6.32837 39.1001 5.33325 36.6929 4.72687 34.1767L0 32.3595V24.6483L4.72687 22.8311C5.33325 20.3072 6.32837 17.9076 7.689 15.7021L5.62875 11.0739L11.0864 5.6223L15.72 7.68022C17.9279 6.32125 20.3302 5.32725 22.8491 4.72931L24.6761 3.55633e-05H32.3962L34.2155 4.72931C36.7344 5.32725 39.1366 6.32125 41.3446 7.68022L45.9782 5.6223L47.2787 6.92145L38.732 16.5073C35.9826 14.1729 32.4197 12.7647 28.5277 12.7647C19.8261 12.7647 12.7792 19.8036 12.7792 28.4955C12.7792 37.1873 19.8261 44.2353 28.5277 44.2353C37.2295 44.2353 44.2854 37.1873 44.2854 28.4955C44.2854 27.4884 44.1906 26.5034 44.0096 25.5491L50.6719 18.0768ZM55.9195 9.18277C55.8907 9.21797 55.8612 9.25281 55.8307 9.28702L39.5137 27.5878C38.487 28.7394 36.75 28.9173 35.5106 27.9978L30.9989 24.6509L24.1169 31.5251C22.9536 32.687 21.0647 32.687 19.9015 31.5251C18.7382 30.363 18.7382 28.4764 19.9015 27.3145L28.6027 18.623C29.6479 17.579 31.3011 17.4578 32.4876 18.338L36.8756 21.5932L51.3789 5.32663C51.3991 5.30403 51.4195 5.28168 51.4404 5.25971L49.2807 3.36835C49.1072 3.21627 49.0331 2.98016 49.0889 2.75641C49.1446 2.53267 49.3209 2.35874 49.5455 2.3058L59.2415 0.0165169C59.4356 -0.0293062 59.6399 0.0215111 59.7898 0.152862C59.9398 0.284214 60.017 0.479867 59.9968 0.678018L58.9917 10.5793C58.9683 10.8087 58.8189 11.0058 58.604 11.0902C58.3892 11.1748 58.1452 11.1323 57.9716 10.9802L55.9195 9.18277Z" fill="#FB9100"/>
</svg>
