<svg width="60" height="60" viewBox="0 0 60 60" fill="none" xmlns="http://www.w3.org/2000/svg">
<path d="M3.00726 21.9667C2.46944 21.3677 2.51552 20.4427 3.11008 19.9009L17.1465 7.10908C17.6983 6.6062 18.5382 6.6051 19.091 7.1064L27.0614 14.3308L37.3892 3.92516H37.0009C36.1992 3.92516 35.5493 3.27029 35.5493 2.46258C35.5493 1.65487 36.1992 1 37.0009 1H40.8937C41.6954 1 42.3454 1.65487 42.3454 2.46258V6.38133C42.3454 7.18904 41.6954 7.84391 40.8937 7.84391C40.0921 7.84391 39.4421 7.18904 39.4421 6.38133V5.99362L28.1407 17.3803C27.5949 17.9302 26.7174 17.9538 26.1434 17.4335L18.1228 10.1634L5.05754 22.0702C4.7798 22.3234 4.43141 22.4482 4.08423 22.4482C3.68831 22.4482 3.29383 22.2858 3.00726 21.9667ZM55.4543 44.3124H44.0503V32.8187C44.0503 32.4149 43.7252 32.0874 43.3245 32.0874C36.234 32.0874 30.4654 37.8996 30.4654 45.0437C30.4654 52.1878 36.234 58 43.3245 58C50.415 58 56.1801 52.1878 56.1801 45.0437C56.1801 44.6399 55.855 44.3124 55.4543 44.3124ZM47.1444 28.2386C46.7436 28.2386 46.4186 28.5661 46.4186 28.9699V41.1949C46.4186 41.5987 46.7436 41.9262 47.1444 41.9262H59.2742C59.675 41.9262 60 41.5987 60 41.1949C60 34.0508 54.233 28.2386 47.1444 28.2386ZM34.8235 15.5938C34.4227 15.5938 34.0977 15.9213 34.0977 16.3251V32.1757C36.259 30.598 38.8312 29.5589 41.6196 29.2554V16.3251C41.6196 15.9213 41.2945 15.5938 40.8937 15.5938H34.8235ZM31.3718 34.7022V25.0196C31.3718 24.6158 31.0467 24.2883 30.646 24.2883H24.5758C24.175 24.2883 23.85 24.6158 23.85 25.0196V43.581H21.1241V20.4991C21.1241 20.0952 20.7991 19.7679 20.3983 19.7679H14.328C13.9273 19.7679 13.6022 20.0952 13.6022 20.4991V43.581H10.8763V29.694C10.8763 29.2902 10.5513 28.9627 10.1505 28.9627H4.08387C3.6831 28.9627 3.35806 29.2902 3.35806 29.694V43.581H1.45161C0.64996 43.581 0 44.2359 0 45.0436C0 45.8513 0.64996 46.5062 1.45161 46.5062H27.6295C27.5857 46.0244 27.562 45.5367 27.562 45.0436C27.562 41.0972 28.9986 37.4828 31.3718 34.7022Z" fill="#FB9100"/>
</svg>
