<svg width="60" height="60" viewBox="0 0 60 60" fill="none" xmlns="http://www.w3.org/2000/svg">
<g clip-path="url(#clip0_6835_3043)">
<path d="M0 22.5433V29.5281C0 31.4537 1.41655 33.0204 3.15782 33.0204H3.6841V19.0508H3.15782C1.41655 19.0509 0 20.6175 0 22.5433Z" fill="#FB9100"/>
<path d="M5.78906 18.469V33.6028C5.78906 36.1704 7.67787 38.2593 9.99957 38.2593H18.9469V13.8125H9.99957C7.67787 13.8125 5.78906 15.9014 5.78906 18.469Z" fill="#FB9100"/>
<path d="M16.8412 39.8008H10.5254C10.1327 39.8008 9.81445 40.1529 9.81445 40.5871V55.7208C9.81445 58.08 11.5501 59.9995 13.6834 59.9995C15.8166 59.9995 17.5523 58.0802 17.5523 55.7208V40.5871C17.5523 40.1529 17.2339 39.8008 16.8412 39.8008Z" fill="#FB9100"/>
<path d="M52.6309 16.7979V35.2733C56.7788 34.6983 59.9992 30.7764 59.9992 26.0357C59.9992 21.2949 56.7788 17.3729 52.6309 16.7979Z" fill="#FB9100"/>
<path d="M21.0508 38.6711L43.1559 49.6721V2.40039L21.0508 13.4014V38.6711Z" fill="#FB9100"/>
<path d="M49.5628 0.378294C48.9512 -0.0589788 48.2197 -0.12015 47.5558 0.210331L45.2617 1.35198V50.719L47.5558 51.8607C48.2196 52.191 48.9512 52.1299 49.5628 51.6927C50.1742 51.2555 50.5249 50.5428 50.5249 49.7376V2.33358C50.5249 1.52824 50.1743 0.815566 49.5628 0.378294Z" fill="#FB9100"/>
<path d="M27.9479 44.1722C27.895 44.0139 27.7869 43.8856 27.6478 43.8166L25.7282 42.8613C25.6525 42.8236 25.5732 42.8057 25.4952 42.8057C25.2825 42.8057 25.0788 42.9382 24.9814 43.1641C23.8251 45.846 21.5429 47.6683 18.8767 48.0391C18.5923 48.0786 18.3789 48.3461 18.3789 48.6632V51.0048C18.3789 51.1827 18.4469 51.352 18.5661 51.4713C18.6711 51.5764 18.8072 51.6338 18.9476 51.6338C18.9665 51.6338 18.9853 51.6328 19.0043 51.6307C22.8582 51.2035 26.2778 48.5318 27.9288 44.6584C27.9938 44.5056 28.0006 44.3304 27.9479 44.1722Z" fill="#FB9100"/>
</g>
<defs>
<clipPath id="clip0_6835_3043">
<rect width="60" height="60" fill="white"/>
</clipPath>
</defs>
</svg>
