<svg width="60" height="60" viewBox="0 0 60 60" fill="none" xmlns="http://www.w3.org/2000/svg">
<g clip-path="url(#clip0_6835_3126)">
<path d="M57.8571 0H47.1429C45.9643 0 45 0.964286 45 2.14286C45 3.32143 45.9643 4.28571 47.1429 4.28571H55.7143V12.8571C55.7143 14.0357 56.6786 15 57.8571 15C59.0357 15 60 14.0357 60 12.8571V2.14286C60 0.964286 59.0357 0 57.8571 0Z" fill="#FB9100"/>
<path d="M2.14286 15C3.32143 15 4.28571 14.0357 4.28571 12.8571V4.28571H12.8571C14.0357 4.28571 15 3.32143 15 2.14286C15 0.964286 14.0357 0 12.8571 0H2.14286C0.964286 0 0 0.964286 0 2.14286V12.8571C0 14.0357 0.964286 15 2.14286 15Z" fill="#FB9100"/>
<path d="M57.8571 45C56.6786 45 55.7143 45.9643 55.7143 47.1429V55.7143H47.1429C45.9643 55.7143 45 56.6786 45 57.8571C45 59.0357 45.9643 60 47.1429 60H57.8571C59.0357 60 60 59.0357 60 57.8571V47.1429C60 45.9643 59.0357 45 57.8571 45Z" fill="#FB9100"/>
<path d="M12.8571 55.7143H4.28571V47.1429C4.28571 45.9643 3.32143 45 2.14286 45C0.964286 45 0 45.9643 0 47.1429V57.8571C0 59.0357 0.964286 60 2.14286 60H12.8571C14.0357 60 15 59.0357 15 57.8571C15 56.6786 14.0357 55.7143 12.8571 55.7143Z" fill="#FB9100"/>
<path d="M47.7536 18.6218C47.7536 14.8397 44.7 11.7861 40.9286 11.7861C39.7393 11.7861 38.6143 12.0861 37.6393 12.6433C39.8571 14.7004 41.25 17.6361 41.25 20.8933C41.25 22.5004 40.9071 24.0326 40.2964 25.4147C40.5 25.4361 40.7143 25.4468 40.9286 25.4468C44.7 25.4468 47.7536 22.3933 47.7536 18.6218Z" fill="#FB9100"/>
<path d="M50.4856 39.107V31.8749C50.4856 28.3284 47.6141 25.4463 44.057 25.4463H40.2748C39.7498 26.6356 39.032 27.707 38.1427 28.6284C42.0963 30.2141 44.8927 34.0713 44.8927 38.5713V39.107H50.4856Z" fill="#FB9100"/>
<path d="M18.75 20.8933C18.75 17.6254 20.1429 14.6897 22.3715 12.6326C21.3965 12.0968 20.2715 11.7861 19.0715 11.7861C15.3 11.7861 12.2465 14.8397 12.2465 18.6111C12.2465 22.3826 15.3 25.4468 19.0715 25.4468C19.2857 25.4468 19.5 25.4361 19.7036 25.4147C19.0929 24.0326 18.75 22.5004 18.75 20.8933Z" fill="#FB9100"/>
<path d="M21.8575 28.6284C20.9683 27.707 20.2504 26.6356 19.7254 25.4463H15.9433C12.3861 25.4463 9.50397 28.3284 9.50397 31.8749V39.107H15.1075V38.5713C15.1075 34.0713 17.904 30.2141 21.8575 28.6284Z" fill="#FB9100"/>
<path d="M29.9997 30.0004C35.0294 30.0004 39.1068 25.923 39.1068 20.8933C39.1068 15.8635 35.0294 11.7861 29.9997 11.7861C24.9699 11.7861 20.8925 15.8635 20.8925 20.8933C20.8925 25.923 24.9699 30.0004 29.9997 30.0004Z" fill="#FB9100"/>
<path d="M34.1787 30H25.8216C21.0858 30 17.2501 33.8357 17.2501 38.5714V48.2143H42.7501V38.5714C42.7501 33.8357 38.9144 30 34.1787 30Z" fill="#FB9100"/>
</g>
<defs>
<clipPath id="clip0_6835_3126">
<rect width="60" height="60" fill="white"/>
</clipPath>
</defs>
</svg>
