<svg width="60" height="60" viewBox="0 0 60 60" fill="none" xmlns="http://www.w3.org/2000/svg">
<g clip-path="url(#clip0_6835_3138)">
<path fill-rule="evenodd" clip-rule="evenodd" d="M55.9811 14.9973C53.6875 11.0274 50.515 7.63579 46.7069 5.08263C42.8988 2.52948 38.5565 0.882659 34.013 0.268551V14.6621C36.0413 15.1948 37.9439 16.124 39.6112 17.3959C41.2784 18.6678 42.6773 20.2573 43.7271 22.0727L55.9811 14.9978V14.9973ZM29.9981 14.148C26.8554 14.1479 23.7836 15.0819 21.173 16.8316C18.5624 18.5812 16.5309 21.0675 15.3365 23.9744C14.1422 26.8813 13.839 30.0777 14.4654 33.1573C15.0918 36.237 16.6196 39.0609 18.8546 41.2703L11.6572 53.7367C9.2628 51.8837 7.16093 49.6809 5.42212 47.2023L9.26696 43.3575C7.66559 40.8659 6.52447 38.1071 5.89792 35.2123H0.452613C-0.150871 31.7628 -0.150871 28.2347 0.452613 24.7852H5.89792C6.52445 21.8905 7.66556 19.1317 9.26696 16.6401L5.42212 12.7951C7.43332 9.92835 9.92813 7.43351 12.7949 5.42228L16.6434 9.26991C19.1324 7.66464 21.8902 6.5207 24.7847 5.89287V0.452715C26.5061 0.151413 28.2504 -5.9269e-05 29.998 1.73968e-08V14.148H29.9981ZM29.9981 18.1629C32.339 18.1629 34.6273 18.857 36.5737 20.1576C38.5201 21.4581 40.0371 23.3067 40.933 25.4694C41.8288 27.6321 42.0632 30.012 41.6065 32.3079C41.1498 34.6039 40.0226 36.7128 38.3673 38.3681C36.712 40.0234 34.6031 41.1507 32.3072 41.6073C30.0112 42.064 27.6315 41.8297 25.4687 40.9338C23.306 40.038 21.4575 38.5209 20.157 36.5745C18.8565 34.6281 18.1623 32.3398 18.1623 29.9988C18.1623 28.4445 18.4684 26.9054 19.0632 25.4694C19.658 24.0334 20.5298 22.7286 21.6289 21.6295C22.728 20.5304 24.0327 19.6586 25.4687 19.0638C26.9047 18.469 28.4438 18.1629 29.9981 18.1629ZM34.2891 27.2262C34.2891 27.5029 34.1792 27.7683 33.9835 27.964C33.7879 28.1597 33.5225 28.2696 33.2457 28.2696C32.969 28.2696 32.7036 28.1597 32.5079 27.964C32.3122 27.7683 32.2023 27.5029 32.2023 27.2262C32.2023 25.6772 29.7487 24.8857 28.3773 26.0564C27.073 27.17 28.0961 28.9553 29.9976 28.9553C32.2331 28.9553 34.2886 30.5479 34.2886 32.7713C34.2886 34.6365 32.8229 36.0756 31.041 36.473V37.7941C31.041 38.0709 30.9311 38.3363 30.7354 38.5319C30.5397 38.7276 30.2743 38.8375 29.9976 38.8375C29.7209 38.8375 29.4555 38.7276 29.2598 38.5319C29.0641 38.3363 28.9542 38.0709 28.9542 37.7941V36.473C27.1718 36.0756 25.7066 34.637 25.7066 32.7713C25.7066 32.4946 25.8165 32.2292 26.0122 32.0335C26.2078 31.8378 26.4732 31.7279 26.75 31.7279C27.0267 31.7279 27.2921 31.8378 27.4878 32.0335C27.6835 32.2292 27.7934 32.4946 27.7934 32.7713C27.7934 34.3202 30.2471 35.1117 31.6184 33.9411C32.9227 32.8277 31.8999 31.0421 29.9982 31.0421C27.7626 31.0421 25.7072 29.4495 25.7072 27.2262C25.7072 25.3611 27.1731 23.9219 28.9555 23.5245V22.2034C28.9555 22.0664 28.9825 21.9307 29.0349 21.8041C29.0873 21.6775 29.1642 21.5625 29.2611 21.4656C29.358 21.3687 29.473 21.2918 29.5996 21.2394C29.7262 21.187 29.8619 21.16 29.9989 21.16C30.1359 21.16 30.2716 21.187 30.3982 21.2394C30.5248 21.2918 30.6398 21.3687 30.7367 21.4656C30.8336 21.5625 30.9104 21.6775 30.9629 21.8041C31.0153 21.9307 31.0423 22.0664 31.0423 22.2034V23.5245C32.8247 23.9221 34.2899 25.3605 34.2899 27.2262H34.2891ZM14.997 55.9816C20.1209 58.9398 26.0051 60.3166 31.9095 59.9388C37.8139 59.561 43.4747 57.4455 48.1798 53.8585L38.0029 43.6823C35.5876 45.0949 32.8416 45.8433 30.0435 45.8514C27.2455 45.8595 24.4952 45.1271 22.0717 43.7286L14.997 55.9816ZM51.21 51.2107L41.2063 41.2069C43.1853 39.2287 44.6054 36.7619 45.3223 34.0571C46.0391 31.3523 46.0272 28.506 45.2877 25.8073L57.7574 18.6076C60.0017 24.0822 60.5775 30.0981 59.4126 35.8991C58.2476 41.7 55.3939 47.0272 51.21 51.2108V51.2107Z" fill="#FB9100"/>
</g>
<defs>
<clipPath id="clip0_6835_3138">
<rect width="60" height="60" fill="white"/>
</clipPath>
</defs>
</svg>
