<svg width="208" height="32" viewBox="0 0 208 32" fill="none" xmlns="http://www.w3.org/2000/svg">
<path d="M200.839 24.4613H197.898V8.79965H200.711V11.3565H200.839C201.137 10.5254 201.75 9.81754 202.677 9.231C203.604 8.64532 204.515 8.35205 205.41 8.35205C206.262 8.35205 206.986 8.4799 207.583 8.73558L206.688 11.58C206.326 11.4314 205.75 11.3562 204.962 11.3562C203.854 11.3562 202.89 11.8035 202.07 12.6984C201.249 13.5936 200.839 14.6377 200.839 15.8307V24.4613Z" fill="#777677"/>
<path d="M186.979 24.9995C184.678 24.9995 182.781 24.2117 181.29 22.6343C179.798 21.0575 179.053 19.0655 179.053 16.6573C179.053 14.271 179.777 12.2842 181.226 10.6963C182.675 9.10919 184.529 8.31537 186.788 8.31537C189.11 8.31537 190.958 9.06648 192.333 10.5687C193.707 12.0709 194.394 14.1756 194.394 16.8811L194.362 17.2008H182.057C182.1 18.7349 182.611 19.9709 183.591 20.9083C184.571 21.8461 185.743 22.3148 187.107 22.3148C188.982 22.3148 190.452 21.3775 191.518 19.502L194.139 20.7807C193.436 22.1021 192.461 23.1351 191.214 23.8808C189.968 24.6265 188.556 24.9995 186.979 24.9995ZM182.281 14.7715H191.262C191.177 13.6847 190.735 12.785 189.936 12.0709C189.136 11.3571 188.066 11.0001 186.723 11.0001C185.616 11.0001 184.662 11.3414 183.863 12.0228C183.064 12.7053 182.537 13.621 182.281 14.7715Z" fill="#777677"/>
<path d="M108.769 15.2191V24.4884H105.828V1.60352H113.627C115.609 1.60352 117.292 2.26436 118.677 3.58521C120.083 4.90663 120.786 6.51534 120.786 8.41162C120.786 10.3509 120.083 11.9704 118.677 13.2699C117.313 14.57 115.63 15.2194 113.627 15.2194L108.769 15.2191ZM108.769 4.41576V12.4063H113.691C114.862 12.4063 115.832 12.0123 116.599 11.2236C117.387 10.4357 117.782 9.49756 117.782 8.41104C117.782 7.34588 117.388 6.41881 116.599 5.63041C115.832 4.82093 114.862 4.41576 113.691 4.41576H108.769Z" fill="#777677"/>
<path d="M128.652 8.31537C130.826 8.31537 132.541 8.89621 133.798 10.057C135.055 11.2187 135.684 12.8115 135.684 14.8353V24.4881H132.871V22.3148H132.744C131.529 24.1046 129.909 24.9995 127.885 24.9995C126.159 24.9995 124.716 24.4881 123.554 23.4654C122.393 22.4426 121.812 21.1639 121.812 19.6298C121.812 18.0109 122.425 16.7211 123.65 15.7624C124.876 14.8034 126.511 14.324 128.557 14.324C130.304 14.324 131.742 14.6437 132.871 15.2829V14.6115C132.871 13.5891 132.467 12.7207 131.657 12.0068C130.847 11.293 129.899 10.936 128.812 10.936C127.171 10.936 125.872 11.6287 124.913 13.0136L122.324 11.3836C123.751 9.33811 125.861 8.31537 128.652 8.31537ZM124.849 19.6939C124.849 20.461 125.173 21.1004 125.824 21.6115C126.474 22.1232 127.235 22.3786 128.109 22.3786C129.345 22.3786 130.447 21.9207 131.417 21.0042C132.387 20.0882 132.871 19.012 132.871 17.7757C131.955 17.0516 130.676 16.6889 129.036 16.6889C127.842 16.6889 126.846 16.9768 126.047 17.5519C125.249 18.1276 124.849 18.842 124.849 19.6939Z" fill="#777677"/>
<path d="M139.002 8.82659H141.815V11.3834H141.943C142.816 9.38096 144.617 8.37901 147.344 8.37901L147.952 8.44279V11.5113L146.641 11.3834C145.277 11.3834 144.153 11.8043 143.269 12.6462C142.385 13.4881 141.943 14.5587 141.943 15.8582V24.488H139.002V8.82659ZM157.348 24.7437C156.07 24.7437 155.01 24.3496 154.168 23.5612C153.326 22.7731 152.895 21.6755 152.874 20.2689V11.5113H150.125V8.82632H152.874V4.0318H155.814V8.82632H159.65V11.5113H155.814V19.3102C155.814 20.3543 156.016 21.063 156.422 21.4357C156.826 21.809 157.285 21.9949 157.796 21.9949C158.03 21.9949 158.259 21.9684 158.483 21.9149C158.707 21.862 158.915 21.7928 159.106 21.7073L160.034 24.3283C159.266 24.605 158.371 24.7437 157.348 24.7437Z" fill="#777677"/>
<path d="M162.624 8.82673H165.436V11.0001H165.564C166.012 10.233 166.699 9.59379 167.626 9.08242C168.552 8.57105 169.516 8.31537 170.518 8.31537C172.436 8.31537 173.911 8.86404 174.945 9.96137C175.978 11.059 176.495 12.6199 176.495 14.644V24.4881H173.554V14.8353C173.491 12.2785 172.201 10.9998 169.687 10.9998C168.515 10.9998 167.535 11.4741 166.746 12.4223C165.958 13.3707 165.564 14.5053 165.564 15.8262V24.4881H162.623V8.82673H162.624Z" fill="#777677"/>
<path d="M12.4979 11.2054V14.5697H20.549C20.2889 16.6931 19.4074 18.3453 17.9055 19.5267C16.4428 20.689 14.6405 21.2691 12.4974 21.2691C10.0142 21.2691 7.92103 20.3977 6.21897 18.6553C4.51643 16.9335 3.66564 14.8202 3.66564 12.3167C3.66564 9.81375 4.51643 7.7009 6.21897 5.97818C7.92103 4.23578 10.0142 3.36434 12.4974 3.36434C14.8204 3.36434 16.8435 4.16572 18.5662 5.768L20.9391 3.39458C18.5557 1.13201 15.7422 0 12.4974 0C10.2944 0 8.21135 0.56097 6.24873 1.68242C4.30578 2.78419 2.77358 4.29577 1.65263 6.21907C0.550398 8.10159 0 10.1343 0 12.3172C0 14.5208 0.550398 16.5635 1.65263 18.4461C2.75391 20.3487 4.2861 21.8512 6.24873 22.952C8.21135 24.0739 10.2944 24.6344 12.4974 24.6344C15.8219 24.6344 18.5758 23.5931 20.7592 21.51C22.9224 19.4471 24.0035 16.7137 24.0035 13.3081C24.0035 12.5072 23.9435 11.8062 23.8236 11.2054H12.4979Z" fill="#487CBE"/>
<path d="M33.1703 8.77148C30.9068 8.77148 29.0143 9.53303 27.4922 11.0547C25.97 12.5567 25.209 14.4397 25.209 16.7027C25.209 18.9259 25.9796 20.8085 27.5219 22.3507C29.044 23.8734 30.927 24.6344 33.1703 24.6344C35.4127 24.6344 37.2957 23.8734 38.8183 22.3507C40.36 20.8089 41.1312 18.9259 41.1312 16.7027C41.1312 14.4401 40.36 12.5571 38.8183 11.0547C37.2957 9.53303 35.4132 8.77148 33.1703 8.77148ZM36.3249 20.1275C35.4636 21.0489 34.4122 21.5095 33.1708 21.5095C31.9088 21.5095 30.8473 21.0489 29.986 20.1275C29.1246 19.2067 28.6942 18.0651 28.6942 16.7027C28.6942 15.301 29.1246 14.1594 29.986 13.2779C30.8473 12.357 31.9088 11.8964 33.1708 11.8964C34.4324 11.8964 35.4933 12.3575 36.3551 13.2779C37.216 14.1594 37.6469 15.301 37.6469 16.7027C37.6464 18.0444 37.2059 19.1865 36.3249 20.1275Z" fill="#EE372C"/>
<path d="M81.0238 0.840149H77.5391V24.153H81.0238V0.840149Z" fill="#00AB4E"/>
<path d="M50.539 8.77148C48.276 8.77148 46.3829 9.53303 44.8613 11.0547C43.3387 12.5567 42.5781 14.4397 42.5781 16.7027C42.5781 18.9259 43.3488 20.8085 44.891 22.3507C46.4132 23.8734 48.2956 24.6344 50.539 24.6344C52.7818 24.6344 54.6648 23.8734 56.1869 22.3507C57.7292 20.8089 58.5003 18.9259 58.5003 16.7027C58.5003 14.4401 57.7292 12.5571 56.1869 11.0547C54.6648 9.53303 52.7823 8.77148 50.539 8.77148ZM53.6936 20.1275C52.8322 21.0489 51.7809 21.5095 50.5395 21.5095C49.2779 21.5095 48.216 21.0489 47.3551 20.1275C46.4938 19.2067 46.0633 18.0651 46.0633 16.7027C46.0633 15.301 46.4938 14.1594 47.3551 13.2779C48.216 12.357 49.2779 11.8964 50.5395 11.8964C51.801 11.8964 52.8625 12.3575 53.7238 13.2779C54.5852 14.1594 55.0161 15.301 55.0161 16.7027C55.0156 18.0444 54.5746 19.1865 53.6936 20.1275Z" fill="#FCB514"/>
<path d="M90.5782 21.5095C88.8358 21.5095 87.5536 20.7082 86.7326 19.1059L97.3375 14.7199L96.9771 13.8187C96.6964 13.0778 96.3312 12.3969 95.8806 11.7754C95.43 11.155 94.9142 10.619 94.3335 10.1684C93.7519 9.7173 93.1113 9.37227 92.4107 9.13186C91.7097 8.89145 90.9688 8.77148 90.1876 8.77148C88.0647 8.77148 86.2825 9.52247 84.84 11.0245C83.4177 12.5471 82.707 14.4397 82.707 16.7022C82.707 18.9456 83.4585 20.8286 84.96 22.3503C86.4619 23.8729 88.3348 24.6339 90.5782 24.6339C93.382 24.6339 95.5845 23.4621 97.1872 21.1189L94.4833 19.3165C93.5019 20.7787 92.2006 21.5095 90.5782 21.5095ZM87.3636 13.1579C88.2446 12.2769 89.2264 11.8364 90.308 11.8364C90.9884 11.8364 91.5998 11.9914 92.1406 12.3019C92.6809 12.6123 93.0514 13.0183 93.2519 13.5183L86.162 16.4623C86.1217 15.1206 86.5229 14.0188 87.3636 13.1579Z" fill="#EE372C"/>
<path d="M71.8322 10.5436H71.7122C70.7103 9.3622 69.3192 8.77148 67.5365 8.77148C65.4933 8.77148 63.7106 9.55222 62.189 11.1147C60.687 12.6766 59.9355 14.55 59.9355 16.7325C59.9355 18.8957 60.687 20.7581 62.189 22.3205C63.7308 23.8628 65.5129 24.6339 67.5365 24.6339C69.3187 24.6339 70.7103 24.0332 71.7122 22.8316H71.8322V23.6425C71.8322 26.9671 70.4205 28.6293 67.5965 28.6293C66.6953 28.6293 65.894 28.3692 65.1929 27.8486C64.4918 27.3274 63.9611 26.647 63.6007 25.8053L60.5666 27.0669C60.8669 27.768 61.2475 28.4038 61.7081 28.9748C62.1688 29.5459 62.7043 30.0363 63.3157 30.447C63.926 30.8573 64.5921 31.1774 65.3133 31.4082C66.0341 31.6381 66.7951 31.7532 67.5965 31.7532C69.9593 31.7532 71.8068 31.0368 73.1389 29.6054C74.4709 28.1734 75.1365 26.1354 75.1365 23.4919V9.25183H71.8317V10.5436H71.8322ZM70.8408 20.1573C70.0193 21.0585 69.0183 21.5095 67.8369 21.5095C66.5945 21.5095 65.5432 21.0489 64.6828 20.1275C63.8416 19.2067 63.4208 18.0747 63.4208 16.7329C63.4208 15.3716 63.8512 14.23 64.713 13.3081C65.594 12.3671 66.6358 11.8964 67.8374 11.8964C69.0385 11.8964 70.0399 12.3575 70.8413 13.2779C71.6623 14.2199 72.0731 15.3711 72.0731 16.7325C72.0726 18.0747 71.6618 19.2163 70.8408 20.1573Z" fill="#487CBE"/>
</svg>
