<svg width="131" height="40" viewBox="0 0 131 40" fill="none" xmlns="http://www.w3.org/2000/svg">
<path d="M84.371 9.13629C78.6452 9.16379 73.9808 13.87 74.0071 19.7298C74.0334 25.5895 78.7444 30.2515 84.4703 30.2252C90.1961 30.1989 94.8617 25.4915 94.8342 19.6341C94.8067 13.7768 90.0969 9.11119 84.3686 9.13868L84.371 9.13629ZM84.4499 25.9278C82.8266 25.9374 81.2666 25.3002 80.1131 24.1586C78.9595 23.0171 78.32 21.4619 78.3021 19.8385C78.2842 18.2152 78.9297 16.6552 80.0713 15.5017C81.2128 14.3482 82.768 13.7086 84.3914 13.6907C86.0147 13.6728 87.5746 14.3183 88.7282 15.4599C89.8817 16.6014 90.5213 18.1566 90.5392 19.78C90.5559 23.0374 87.7061 25.9111 84.4499 25.9278ZM107.569 14.1031C104.574 14.1174 102.242 16.6014 102.256 19.5959L102.304 29.6191L97.7473 29.6407L97.6553 9.72203L102.212 9.70051L102.228 12.824C102.228 12.824 104.164 9.69215 108.071 9.67421L109.374 9.66704L109.395 14.0923L107.569 14.1031ZM62.1131 9.89177L65.5629 23.5454L69.1443 9.8583L73.7011 9.83798L68.0637 29.7949L63.6384 29.8152L60.0594 15.9033L56.6095 29.8475L52.183 29.8678L46.2324 9.97664L50.6577 9.95632L54.6264 23.6076L57.818 9.92285L62.1131 9.89177ZM122.689 18.7209C125.803 16.8847 128.002 13.4887 127.984 9.58337L123.428 9.60488C123.444 12.9902 120.721 15.7372 117.468 15.7491L116.816 15.7515L116.744 0L112.188 0.0215164L112.327 29.5713L116.882 29.551L116.839 20.1792L117.359 20.1768C117.88 20.1744 118.402 20.4326 118.535 20.8223L124.954 29.5127L130.292 29.4888L122.689 18.7209Z" fill="#4B4B4B"/>
<path d="M35.6821 9.36586C30.7368 9.38977 26.9762 12.6615 25.5692 17.8746C23.2083 14.2406 21.3662 10.0843 20.3095 6.57465L15.1036 6.59855L15.1682 20.3968C15.1739 21.7087 14.6585 22.9692 13.7352 23.9013C12.8119 24.8333 11.5563 25.3606 10.2444 25.3672C8.9325 25.3729 7.672 24.8575 6.73997 23.9342C5.80795 23.0109 5.28066 21.7554 5.27402 20.4434L5.20827 6.64517L0 6.66908L0.064551 20.4674C0.0920447 26.1932 4.66676 30.7309 10.2659 30.7034C15.8651 30.6759 20.4004 26.0988 20.3741 20.3717L20.3621 18.0288C21.4117 20.1052 22.7242 22.3118 24.167 24.2591L20.9837 39.5038L26.3199 39.4799L28.615 28.4035C30.7033 29.6969 33.0379 30.4655 35.7825 30.4524C41.5108 30.4249 46.1763 25.7187 46.1465 19.7298C46.1247 16.9705 45.0122 14.332 43.0519 12.39C41.0916 10.4481 38.4426 9.36047 35.6833 9.36466L35.6821 9.36586ZM35.7562 25.1174C33.6739 25.1269 31.5879 24.2256 29.8893 22.8007L30.3997 20.7172V20.5977C30.7822 18.3814 31.9322 14.6016 35.8387 14.5849C37.2161 14.5826 38.5387 15.1244 39.5186 16.0925C40.4985 17.0605 41.0564 18.3764 41.0709 19.7537C40.9537 22.7481 38.4924 25.103 35.7574 25.1162L35.7562 25.1174Z" fill="#6FDA44"/>
</svg>
