<svg width="60" height="60" viewBox="0 0 60 60" fill="none" xmlns="http://www.w3.org/2000/svg">
<path d="M49.9841 3.79728C49.6948 3.7039 49.3835 3.74967 49.14 3.92728C48.8947 4.10307 48.75 4.38505 48.75 4.68717V11.6745C45.6079 13.5971 42.5171 13.5971 39.375 11.6745V4.68717C39.375 4.38505 39.2303 4.10307 38.985 3.92728C38.7415 3.74967 38.4265 3.7039 38.1409 3.79728C34.3927 5.04789 31.875 8.54154 31.875 12.5296C31.875 12.7566 31.886 13.8772 31.9025 14.1281C32.1881 18.107 34.6069 20.3976 36.936 22.1133C38.4631 23.2376 39.375 25.043 39.375 26.9436V51.5622C39.375 54.1476 41.4771 56.2497 44.0625 56.2497C46.6479 56.2497 48.75 54.1476 48.75 51.5622V26.9436C48.75 25.0448 49.6619 23.2394 51.1908 22.1115C53.5181 20.3976 55.9369 18.1088 56.2225 14.1263C56.239 13.8772 56.25 12.7566 56.25 12.4911C56.25 8.53971 53.7323 5.04606 49.9841 3.79728Z" fill="#FB9100"/>
<path d="M36.859 31.6613L33.3218 30.4823C33.0104 29.2733 32.534 28.1335 31.9125 27.085L33.5811 23.7477C33.7616 23.3868 33.6908 22.9509 33.4054 22.6656L31.7094 20.9696C31.4241 20.6842 30.9882 20.6134 30.6273 20.7939L27.29 22.4625C26.2415 21.841 25.1017 21.3646 23.8927 21.0532L22.7137 17.516C22.5861 17.1332 22.2279 16.875 21.8243 16.875H19.4257C19.0221 16.875 18.6639 17.1332 18.5363 17.516L17.3573 21.0532C16.1483 21.3646 15.0085 21.841 13.96 22.4625L10.6227 20.7939C10.2618 20.6134 9.8259 20.6842 9.5406 20.9696L7.84458 22.6656C7.55917 22.9509 7.48844 23.3868 7.66891 23.7477L9.33746 27.085C8.71605 28.1335 8.23963 29.2733 7.92824 30.4823L4.39098 31.6613C4.00818 31.7889 3.75 32.1471 3.75 32.5507V34.9493C3.75 35.3529 4.00818 35.7111 4.39098 35.8387L7.92824 37.0177C8.23963 38.2267 8.71605 39.3665 9.33746 40.415L7.66891 43.7523C7.48844 44.1132 7.55917 44.5491 7.84458 44.8344L9.5406 46.5304C9.8259 46.8158 10.2618 46.8866 10.6227 46.7061L13.96 45.0375C15.0085 45.659 16.1483 46.1354 17.3573 46.4468L18.5363 49.9839C18.6639 50.3667 19.0221 50.625 19.4257 50.625H21.8243C22.2279 50.625 22.5861 50.3667 22.7137 49.9839L23.8927 46.4468C25.1017 46.1354 26.2415 45.659 27.29 45.0375L30.6273 46.7061C30.9882 46.8866 31.4241 46.8158 31.7094 46.5304L33.4054 44.8344C33.6908 44.5491 33.7616 44.1132 33.5811 43.7523L31.9125 40.415C32.534 39.3665 33.0104 38.2267 33.3218 37.0177L36.859 35.8387C37.2418 35.7111 37.5 35.3529 37.5 34.9493V32.5507C37.5 32.1471 37.2418 31.7889 36.859 31.6613ZM16.4999 35.8118C16.9137 36.123 16.9979 36.7108 16.6885 37.1246C16.5035 37.37 16.2215 37.5 15.9377 37.5C15.7418 37.5 15.5441 37.4396 15.3756 37.3132L11.6256 34.5007C11.3894 34.3231 11.2502 34.0448 11.2502 33.75C11.2502 33.4552 11.3894 33.1769 11.6256 32.9993L15.3756 30.1868C15.7876 29.8773 16.3754 29.9597 16.6885 30.3754C16.9979 30.7892 16.9137 31.377 16.4999 31.6882L13.7496 33.75L16.4999 35.8118ZM22.452 31.2331L20.577 36.8581C20.4452 37.2499 20.079 37.499 19.6872 37.499C19.5883 37.499 19.4894 37.4843 19.3905 37.4514C18.8998 37.2866 18.6343 36.7556 18.7973 36.2648L20.6723 30.6398C20.8371 30.1491 21.3717 29.8873 21.8588 30.0466C22.3495 30.2114 22.615 30.7424 22.452 31.2331ZM29.6246 34.501L25.8746 37.3135C25.7062 37.4398 25.5084 37.5002 25.3125 37.5002C25.0287 37.5002 24.7467 37.3702 24.5618 37.1249C24.2523 36.711 24.3365 36.1233 24.7504 35.812L27.5006 33.7502L24.7504 31.6885C24.3365 31.3772 24.2523 30.7894 24.5618 30.3756C24.8749 29.9599 25.4626 29.8775 25.8746 30.187L29.6246 32.9995C29.8608 33.1771 30 33.4554 30 33.7502C30 34.045 29.8608 34.3233 29.6246 34.501Z" fill="#FB9100"/>
</svg>
