<svg width="60" height="60" viewBox="0 0 60 60" fill="none" xmlns="http://www.w3.org/2000/svg">
<g clip-path="url(#clip0_6545_10023)">
<path d="M47.1094 49.9219C45.1461 49.9219 43.462 51.1355 42.7651 52.8516H38.6719V56.3672H42.7651C43.462 58.0833 45.1461 59.2969 47.1094 59.2969C49.6941 59.2969 51.7969 57.1941 51.7969 54.6094C51.7969 52.0247 49.6941 49.9219 47.1094 49.9219Z" fill="#FB9100"/>
<path d="M55.3125 39.9609C54.542 39.9609 53.8151 40.1489 53.1731 40.4797L48.8207 36.8527C48.5047 36.5895 48.1065 36.4453 47.6953 36.4453H38.6719V39.9609H47.0589L50.8751 43.1412C50.7138 43.6145 50.625 44.1211 50.625 44.6484C50.625 47.2331 52.7278 49.3359 55.3125 49.3359C57.8972 49.3359 60 47.2331 60 44.6484C60 42.0638 57.8972 39.9609 55.3125 39.9609Z" fill="#FB9100"/>
<path d="M55.3125 25.3125C53.3493 25.3125 51.6652 26.5261 50.9682 28.2422H38.6719V31.7578H50.9682C51.6652 33.4739 53.3493 34.6875 55.3125 34.6875C57.8972 34.6875 60 32.5847 60 30C60 27.4153 57.8972 25.3125 55.3125 25.3125Z" fill="#FB9100"/>
<path d="M48.8207 23.1472L53.1731 19.5202C53.8151 19.8511 54.542 20.0391 55.3125 20.0391C57.8972 20.0391 60 17.9362 60 15.3516C60 12.7669 57.8972 10.6641 55.3125 10.6641C52.7278 10.6641 50.625 12.7669 50.625 15.3516C50.625 15.8789 50.7138 16.3855 50.8751 16.8588L47.0589 20.0391H38.6719V23.5547H47.6953C48.1065 23.5547 48.5047 23.4105 48.8207 23.1472Z" fill="#FB9100"/>
<path d="M47.1094 10.0781C49.6941 10.0781 51.7969 7.97531 51.7969 5.39062C51.7969 2.80594 49.6941 0.703125 47.1094 0.703125C45.1461 0.703125 43.462 1.91672 42.7651 3.63281H38.6719V7.14844H42.7651C43.462 8.86453 45.1461 10.0781 47.1094 10.0781Z" fill="#FB9100"/>
<path d="M17.5781 30C17.5781 36.7848 23.098 42.3047 29.8828 42.3047C31.7689 42.3047 33.557 41.8775 35.1562 41.1158V18.8842C33.557 18.1225 31.7689 17.6953 29.8828 17.6953C23.098 17.6953 17.5781 23.2152 17.5781 30Z" fill="#FB9100"/>
<path d="M33.3984 0.117188H26.3672C25.3964 0.117188 24.6094 0.904219 24.6094 1.875V4.16309C21.3109 4.83504 18.1543 6.14273 15.3427 8.00203L13.7243 6.38379C13.0378 5.6973 11.9249 5.6973 11.2384 6.38379L6.2666 11.3556C5.58012 12.042 5.58012 13.155 6.2666 13.8415L7.88484 15.4598C6.02555 18.2715 4.71785 21.4281 4.0459 24.7266H1.75781C0.787031 24.7266 0 25.5136 0 26.4844V33.5156C0 34.4864 0.787031 35.2734 1.75781 35.2734H4.0459C4.71785 38.5719 6.02555 41.7285 7.88484 44.5403L6.26648 46.1586C5.93684 46.4883 5.75168 46.9354 5.75168 47.4015C5.75168 47.8677 5.93684 48.3146 6.26648 48.6443L11.2384 53.6162C11.9249 54.3027 13.0378 54.3027 13.7243 53.6162L15.3427 51.998C18.1543 53.8573 21.3109 55.1648 24.6094 55.8369V58.125C24.6094 59.0958 25.3964 59.8828 26.3672 59.8828H33.3984C34.3692 59.8828 35.1562 59.0958 35.1562 58.125V44.9154C33.506 45.5006 31.7312 45.8203 29.8828 45.8203C21.1595 45.8203 14.0625 38.7233 14.0625 30C14.0625 21.2767 21.1595 14.1797 29.8828 14.1797C31.7312 14.1797 33.506 14.4994 35.1562 15.0846V1.875C35.1562 0.904219 34.3692 0.117188 33.3984 0.117188Z" fill="#FB9100"/>
</g>
<defs>
<clipPath id="clip0_6545_10023">
<rect width="60" height="60" fill="white"/>
</clipPath>
</defs>
</svg>
