<svg width="60" height="60" viewBox="0 0 60 60" fill="none" xmlns="http://www.w3.org/2000/svg">
<path fill-rule="evenodd" clip-rule="evenodd" d="M28.125 37.4998C28.125 36.0073 27.5325 34.5767 26.4769 33.5229C25.4231 32.4673 23.9925 31.8748 22.5 31.8748C18.7762 31.8748 13.0987 31.8748 9.375 31.8748C7.8825 31.8748 6.45187 32.4673 5.39812 33.5229C4.3425 34.5767 3.75 36.0073 3.75 37.4998V50.6248C3.75 52.1173 4.3425 53.5479 5.39812 54.6017C6.45187 55.6573 7.8825 56.2498 9.375 56.2498H22.5C23.9925 56.2498 25.4231 55.6573 26.4769 54.6017C27.5325 53.5479 28.125 52.1173 28.125 50.6248V37.4998ZM56.25 37.4998C56.25 36.0073 55.6575 34.5767 54.6019 33.5229C53.5481 32.4673 52.1175 31.8748 50.625 31.8748C46.9012 31.8748 41.2237 31.8748 37.5 31.8748C36.0075 31.8748 34.5769 32.4673 33.5231 33.5229C32.4675 34.5767 31.875 36.0073 31.875 37.4998V50.6248C31.875 52.1173 32.4675 53.5479 33.5231 54.6017C34.5769 55.6573 36.0075 56.2498 37.5 56.2498H50.625C52.1175 56.2498 53.5481 55.6573 54.6019 54.6017C55.6575 53.5479 56.25 52.1173 56.25 50.6248V37.4998ZM48.0394 27.7367L55.8619 19.9142C58.0575 17.7186 58.0575 14.156 55.8619 11.9604L48.0394 4.13793C45.8438 1.9423 42.2812 1.9423 40.0856 4.13793L32.2631 11.9604C30.0675 14.156 30.0675 17.7186 32.2631 19.9142L40.0856 27.7367C42.2812 29.9323 45.8438 29.9323 48.0394 27.7367ZM28.125 9.3748C28.125 7.8823 27.5325 6.45167 26.4769 5.39792C25.4231 4.3423 23.9925 3.7498 22.5 3.7498C18.7762 3.7498 13.0987 3.7498 9.375 3.7498C7.8825 3.7498 6.45187 4.3423 5.39812 5.39792C4.3425 6.45167 3.75 7.8823 3.75 9.3748V22.4998C3.75 23.9923 4.3425 25.4229 5.39812 26.4767C6.45187 27.5323 7.8825 28.1248 9.375 28.1248H22.5C23.9925 28.1248 25.4231 27.5323 26.4769 26.4767C27.5325 25.4229 28.125 23.9923 28.125 22.4998V9.3748Z" fill="#FB9100"/>
</svg>
