<svg width="60" height="60" viewBox="0 0 60 60" fill="none" xmlns="http://www.w3.org/2000/svg">
<path d="M16.875 26.25C17.9105 26.25 18.75 27.0894 18.75 28.125V39.375C18.75 42.4817 21.2683 45 24.375 45C27.4817 45 30 42.4817 30 39.375V28.125C30 27.0894 30.8394 26.25 31.875 26.25C32.9106 26.25 33.75 27.0894 33.75 28.125V39.375C33.75 44.5526 29.5526 48.75 24.375 48.75C19.1974 48.75 15 44.5526 15 39.375V28.125C15 27.0894 15.8395 26.25 16.875 26.25Z" fill="#FB9100"/>
<path d="M43.125 30C44.1606 30 45 29.1606 45 28.125C45 27.0894 44.1606 26.25 43.125 26.25H39.375C38.3394 26.25 37.5 27.0894 37.5 28.125C37.5 29.1606 38.3394 30 39.375 30V45C38.3394 45 37.5 45.8394 37.5 46.875C37.5 47.9106 38.3394 48.75 39.375 48.75H43.125C44.1606 48.75 45 47.9106 45 46.875C45 45.8394 44.1606 45 43.125 45V30Z" fill="#FB9100"/>
<path fill-rule="evenodd" clip-rule="evenodd" d="M0.000115163 7.46363C0.0196839 4.37376 2.53054 1.875 5.625 1.875H54.375C57.4817 1.875 60 4.39341 60 7.5V52.5C60 55.6067 57.4817 58.125 54.375 58.125H5.625C2.51841 58.125 0 55.6067 0 52.5V7.5L0.000115163 7.46363ZM3.75 20.625V52.5C3.75 53.5356 4.58948 54.375 5.625 54.375H54.375C55.4106 54.375 56.25 53.5356 56.25 52.5V20.625H3.75ZM11.25 11.25C11.25 12.2855 10.4105 13.125 9.375 13.125C8.33947 13.125 7.5 12.2855 7.5 11.25C7.5 10.2145 8.33947 9.375 9.375 9.375C10.4105 9.375 11.25 10.2145 11.25 11.25ZM15 13.125C16.0355 13.125 16.875 12.2855 16.875 11.25C16.875 10.2145 16.0355 9.375 15 9.375C13.9645 9.375 13.125 10.2145 13.125 11.25C13.125 12.2855 13.9645 13.125 15 13.125ZM22.5 11.25C22.5 12.2855 21.6606 13.125 20.625 13.125C19.5894 13.125 18.75 12.2855 18.75 11.25C18.75 10.2145 19.5894 9.375 20.625 9.375C21.6606 9.375 22.5 10.2145 22.5 11.25Z" fill="#FB9100"/>
</svg>
