<svg width="60" height="60" viewBox="0 0 60 60" fill="none" xmlns="http://www.w3.org/2000/svg">
<path d="M31.875 3.75H9.375C6.27319 3.75 3.75 6.27319 3.75 9.375V50.625C3.75 53.7268 6.27319 56.25 9.375 56.25H31.875C34.9768 56.25 37.5 53.7268 37.5 50.625V46.875H35.625V50.625C35.625 52.6932 33.9432 54.375 31.875 54.375H9.375C7.30682 54.375 5.625 52.6932 5.625 50.625V9.375C5.625 7.30682 7.30682 5.625 9.375 5.625H31.875C33.9432 5.625 35.625 7.30682 35.625 9.375V11.25H37.5V9.375C37.5 6.27319 34.9768 3.75 31.875 3.75Z" fill="#FB9100"/>
<path d="M37.5 21.5625C37.5 18.9771 39.6021 16.875 42.1875 16.875C44.7729 16.875 46.875 18.9771 46.875 21.5625V22.3957C48.0319 21.2125 48.75 19.598 48.75 17.8125C48.75 14.1882 45.8118 11.25 42.1875 11.25C38.5632 11.25 35.625 14.1882 35.625 17.8125C35.625 19.598 36.3431 21.2125 37.5 22.3957V21.5625Z" fill="#FB9100"/>
<path d="M53.4375 30.9375C51.8842 30.9375 50.625 32.1967 50.625 33.75V31.875C50.625 30.3217 49.3658 29.0625 47.8125 29.0625C46.2592 29.0625 45 30.3217 45 31.875V21.5625C45 20.0092 43.7408 18.75 42.1875 18.75C40.6342 18.75 39.375 20.0092 39.375 21.5625V30.9375L36.1741 34.1383C35.8225 34.49 35.625 34.9669 35.625 35.4641V39.8698C35.625 40.161 35.6927 40.448 35.823 40.7084L39.573 47.7135C39.8906 48.3488 40.5398 48.75 41.25 48.75H50.4037C50.9938 48.75 51.5496 48.4721 51.9036 48L55.875 40.8125C56.1184 40.4879 56.25 40.0931 56.25 39.6874V33.75C56.25 32.1967 54.9908 30.9375 53.4375 30.9375Z" fill="#FB9100"/>
<path d="M15.9375 41.25C15.6976 41.25 15.4578 41.1584 15.2747 40.9753L13.3997 39.1003C13.0334 38.7341 13.0334 38.1409 13.3997 37.7747C13.7659 37.4084 14.3591 37.4084 14.7253 37.7747L15.9375 38.9868L19.4991 35.4252C18.6388 34.4094 17.3704 33.75 15.9375 33.75C13.3521 33.75 11.25 35.8521 11.25 38.4375C11.25 41.0229 13.3521 43.125 15.9375 43.125C18.5229 43.125 20.625 41.0229 20.625 38.4375C20.625 37.9888 20.5417 37.5633 20.4235 37.1522L16.6003 40.9753C16.4172 41.1584 16.1774 41.25 15.9375 41.25Z" fill="#FB9100"/>
<path d="M15.9375 24.375C15.6976 24.375 15.4578 24.2834 15.2747 24.1003L13.3997 22.2253C13.0334 21.8591 13.0334 21.2659 13.3997 20.8997C13.7659 20.5334 14.3591 20.5334 14.7253 20.8997L15.9375 22.1118L19.4991 18.5502C18.6388 17.5344 17.3704 16.875 15.9375 16.875C13.3521 16.875 11.25 18.9771 11.25 21.5625C11.25 24.1479 13.3521 26.25 15.9375 26.25C18.5229 26.25 20.625 24.1479 20.625 21.5625C20.625 21.1138 20.5417 20.6883 20.4235 20.2772L16.6003 24.1003C16.4172 24.2834 16.1774 24.375 15.9375 24.375Z" fill="#FB9100"/>
<path d="M31.875 7.5H24.375C24.375 9.57104 22.696 11.25 20.625 11.25C18.554 11.25 16.875 9.57104 16.875 7.5H9.375C8.33954 7.5 7.5 8.33942 7.5 9.375V50.625C7.5 51.6606 8.33954 52.5 9.375 52.5H31.875C32.9106 52.5 33.75 51.6606 33.75 50.625V9.375C33.75 8.33942 32.9106 7.5 31.875 7.5ZM22.5 38.4375C22.5 42.0557 19.5557 45 15.9375 45C12.3193 45 9.375 42.0557 9.375 38.4375C9.375 34.8193 12.3193 31.875 15.9375 31.875C17.8867 31.875 19.6209 32.7465 20.8239 34.1004L20.8997 34.0247C21.2659 33.6584 21.8591 33.6584 22.2253 34.0247C22.5916 34.3909 22.5916 34.9841 22.2253 35.3503L21.8801 35.6956C22.2681 36.5327 22.5 37.4558 22.5 38.4375ZM22.5 21.5625C22.5 25.1807 19.5557 28.125 15.9375 28.125C12.3193 28.125 9.375 25.1807 9.375 21.5625C9.375 17.9443 12.3193 15 15.9375 15C17.8867 15 19.6209 15.8715 20.8239 17.2254L20.8997 17.1497C21.2659 16.7834 21.8591 16.7834 22.2253 17.1497C22.5916 17.5159 22.5916 18.1091 22.2253 18.4753L21.8801 18.8206C22.2681 19.6577 22.5 20.5808 22.5 21.5625Z" fill="#FB9100"/>
</svg>
