<svg width="60" height="60" viewBox="0 0 60 60" fill="none" xmlns="http://www.w3.org/2000/svg">
<path d="M56.6248 48.9249C56.8163 49.6447 56.8154 50.4021 56.622 51.1213C56.4286 51.8406 56.0496 52.4964 55.5229 53.023C54.9963 53.5497 54.3405 53.9287 53.6212 54.1221C52.902 54.3155 52.1446 54.3164 51.4248 54.1249L46.5498 52.8249C43.7498 54.2615 40.6468 55.0072 37.4998 54.9999C36.4956 54.9996 35.4928 54.9244 34.4998 54.7749C30.6401 54.1636 27.0477 52.4239 24.1748 49.7749C24.8748 49.7749 25.5498 49.7749 26.2498 49.6249C29.8671 49.0857 33.3219 47.7594 36.3708 45.7396C39.4197 43.7198 41.9883 41.0556 43.8954 37.9351C45.8026 34.8145 47.0018 31.3135 47.4086 27.6789C47.8154 24.0444 47.4199 20.3649 46.2498 16.8999C49.1846 18.3064 51.7319 20.4077 53.6706 23.0217C55.6093 25.6356 56.8808 28.6832 57.3748 31.8999C58.0066 36.0217 57.3244 40.2378 55.4248 43.9499L56.6248 48.9249ZM36.6248 10.8499C34.0078 8.23838 30.7181 6.40336 27.1212 5.54864C23.5242 4.69392 19.7607 4.85296 16.2486 6.0081C12.7366 7.16324 9.61346 9.26927 7.22612 12.0923C4.83877 14.9153 3.28065 18.3448 2.7248 21.9999C2.09299 26.1217 2.77526 30.3378 4.6748 34.0499L3.3748 39.0499C3.1721 39.769 3.1673 40.5296 3.36091 41.2512C3.55452 41.9728 3.93935 42.6288 4.4748 43.1499C4.9959 43.6854 5.65188 44.0702 6.37351 44.2638C7.09515 44.4574 7.85567 44.4526 8.5748 44.2499L13.4498 42.9499C16.2605 44.3432 19.363 45.046 22.4998 44.9999C26.4577 45.003 30.3276 43.8317 33.6194 41.6343C36.9113 39.4369 39.4772 36.3122 40.9923 32.6557C42.5073 28.9993 42.9034 24.9755 42.1304 21.0938C41.3574 17.2121 39.45 13.647 36.6498 10.8499H36.6248Z" fill="#FB9100"/>
</svg>
