<svg width="60" height="60" viewBox="0 0 60 60" fill="none" xmlns="http://www.w3.org/2000/svg">
<path d="M52.5 3.125H37.5C35.0838 3.125 33.125 5.08375 33.125 7.5V22.5C33.125 24.9162 35.0838 26.875 37.5 26.875H52.5C54.9162 26.875 56.875 24.9162 56.875 22.5V7.5C56.875 5.08375 54.9162 3.125 52.5 3.125Z" fill="#FED090"/>
<path d="M56.8337 41.907L48.0934 33.1667C47.2721 32.3483 46.1598 31.8887 45.0002 31.8887C43.8406 31.8887 42.7283 32.3483 41.9069 33.1667L33.1667 41.907C32.3477 42.7281 31.8877 43.8405 31.8877 45.0002C31.8877 46.16 32.3477 47.2724 33.1667 48.0935L41.9069 56.8337C42.7279 57.653 43.8404 58.113 45.0002 58.113C46.16 58.113 47.2724 57.653 48.0934 56.8337L56.8337 48.0935C57.6533 47.2727 58.1136 46.1602 58.1136 45.0002C58.1136 43.8403 57.6533 42.7278 56.8337 41.907Z" fill="#FED090"/>
<path d="M22.5 3.125H7.5C5.08375 3.125 3.125 5.08375 3.125 7.5V22.5C3.125 24.9162 5.08375 26.875 7.5 26.875H22.5C24.9162 26.875 26.875 24.9162 26.875 22.5V7.5C26.875 5.08375 24.9162 3.125 22.5 3.125Z" fill="#FED090"/>
<path d="M22.5 33.125H7.5C5.08375 33.125 3.125 35.0838 3.125 37.5V52.5C3.125 54.9162 5.08375 56.875 7.5 56.875H22.5C24.9162 56.875 26.875 54.9162 26.875 52.5V37.5C26.875 35.0838 24.9162 33.125 22.5 33.125Z" fill="#FED090"/>
</svg>
