<svg width="284" height="259" viewBox="0 0 284 259" fill="none" xmlns="http://www.w3.org/2000/svg">
<g clip-path="url(#clip0_11_747)">
<path d="M193.083 25.8112C193.083 43.1916 176.029 55.8036 159.368 50.3891C154.269 52.5793 148.517 53.2987 143.063 52.369C142.764 52.314 142.521 52.1698 142.356 51.9706C141.925 51.4727 141.969 50.6433 142.61 50.2011C143.96 49.2721 145.176 48.1655 146.216 46.9051V46.8939C147.101 45.8542 147.853 44.7149 148.472 43.4983C140.485 35.0332 139.441 22.6642 144.678 13.3012C148.627 6.18889 155.861 1.11141 164.257 0.171288C179.864 -1.59902 193.083 10.5684 193.083 25.8112Z" fill="white"/>
<path d="M53.0685 189.078C56.1056 200.475 62.9095 211.31 65.9466 222.707C87.2118 223.459 105.429 221.821 126.644 220.2C129.59 204.479 134.154 190.261 137.1 174.54C107.827 172.311 78.4463 171.488 49.0937 172.073C50.9684 177.903 51.4902 183.161 53.0677 189.078L53.0685 189.078Z" fill="#FB9100"/>
<path d="M140.121 155.694C140.012 182.858 140.349 182.776 139.092 184.198C137.942 185.504 132.29 184.232 130.608 184.221C124.601 184.205 97.4424 184.069 70.1692 183.944C64.5061 183.922 59.0303 186.898 55.7566 191.521C55.4355 191.974 55.0706 192.484 54.5289 192.55C52.9482 192.736 50.6752 188.008 46.3211 186.223C36.8131 182.313 12.1643 183.337 0.659675 198.225C-0.258143 186.909 -0.778399 168.813 3.01557 158.116C6.43029 148.555 7.48435 146.782 16.9199 143.184C23.3773 140.703 24.0322 139.968 29.8283 137.963C34.9719 136.171 42.2499 134.257 47.3274 132.355C49.3518 131.58 57.3269 129.379 61.0436 127.598C61.3456 127.447 61.6961 127.424 61.9503 127.487C61.9614 127.499 61.9726 127.499 61.9837 127.499C62.3813 127.587 62.7813 127.885 62.9573 128.339C63.0338 128.492 63.2449 129.508 63.2449 129.888C63.2449 142.1 93.47 142.065 91.8272 128.749C91.7069 127.824 92.5044 127.068 93.376 127.156C102.369 128.295 111.185 130.474 119.879 132.996C124.071 134.213 129.403 135.12 133.429 137.531C139.92 141.383 140.158 148.075 140.121 155.694Z" fill="#FB9100"/>
<path d="M254.396 133.88L157.454 126.625C155.452 126.469 153.561 127.565 152.687 129.368C121.457 194.164 141.358 152.878 113.076 211.553C112.269 213.223 110.576 214.296 108.718 214.307L78.8638 214.54C37.315 214.855 67.3982 214.628 38.2249 214.85C34.497 214.883 32.1746 218.898 33.9991 222.139L37.0186 227.515C37.8815 229.042 39.4741 229.993 41.211 230.015L207.628 232.614C209.476 232.648 211.201 231.63 212.053 229.993L258.366 141.016C259.993 137.908 257.902 134.146 254.396 133.88ZM189.244 192.206C179.831 192.206 172.198 186.886 172.198 180.315C172.198 173.745 179.831 168.424 189.244 168.424C198.657 168.424 206.279 173.756 206.279 180.315C206.279 186.875 198.646 192.206 189.244 192.206Z" fill="#7259FF"/>
<path d="M212.503 55.5056L194.046 96.5158L220.674 97.8336C221.615 102.484 222.545 107.134 223.475 111.773C227.549 107.377 231.624 102.982 235.687 98.5865L263.965 99.9927L279.41 61.0412L212.503 55.5056ZM246.515 85.6988C242.939 88.1017 239.906 90.2273 235.952 91.9435C233.716 90.3492 229.298 86.1529 227.804 83.8496C223.745 77.6432 226.705 71.2248 231.546 70.4966C234.27 70.0983 237.259 72.0909 237.513 74.826C238.786 71.4487 244.344 70.6408 247.667 72.047C251.206 73.5457 255.125 79.9075 246.515 85.6988Z" fill="#FFDA24"/>
<path d="M148.474 43.4927C140.509 35.069 139.423 22.6913 144.676 13.2996C136.786 23.3143 137.485 37.6592 146.215 46.8915C147.101 45.851 147.854 44.7101 148.474 43.4927Z" fill="black"/>
<path d="M159.369 50.3908C154.264 52.5825 148.518 53.3028 143.06 52.3722C142.761 52.3172 142.518 52.173 142.352 51.9739C141.721 52.5714 141.045 53.1036 140.337 53.5904C139.44 54.2102 139.728 55.583 140.802 55.7607C146.26 56.7016 152.007 55.971 157.111 53.7896C168.517 57.4911 181.481 52.7714 187.603 41.6994C180.872 50.3462 169.511 53.6796 159.37 50.3908H159.369Z" fill="black"/>
<path d="M128.02 120.519C122.202 111.161 120.256 106.813 121.04 96.3159C123.411 63.7421 126.079 54.3289 118.739 40.0693C116.792 34.3393 113.419 30.5453 107.346 28.7758C105.455 28.2341 103.453 27.725 101.584 28.0349C103.763 23.5103 107.28 19.1085 110.3 17.3501C110.698 17.1286 110.83 16.6195 110.61 16.222C110.377 15.8236 109.869 15.6914 109.47 15.9232C106.44 17.6712 103.088 21.6643 100.754 26.0001C100.898 20.6573 100.013 15.6029 98.1993 11.6201C98.0113 11.2003 97.5245 11.0226 97.1046 11.2106C96.6839 11.3986 96.4959 11.8854 96.6951 12.3053C98.4431 16.1439 99.2502 21.066 99.0733 26.2646C90.4568 9.35188 62.9247 13.1458 51.2775 24.4058C42.6235 33.0654 39.8868 36.5685 31.3006 53.3426C26.843 62.0475 23.0602 68.3527 24.1883 78.6726C25.1946 87.8317 28.6682 96.5366 30.3382 105.607C32.0081 114.667 31.5659 124.853 25.6813 131.955C22.5877 135.69 18.1866 138.323 16.9207 143.183C23.378 140.703 24.0329 139.967 29.8291 137.962C34.9727 136.17 42.2507 134.256 47.3281 132.354C49.3526 131.579 57.3277 129.378 61.0444 127.597C61.3464 127.446 61.6969 127.423 61.9511 127.487C61.9622 127.498 61.9734 127.498 61.9845 127.498C62.3821 127.586 62.782 127.884 62.9581 128.338C62.9804 128.383 63.0131 128.504 63.0577 128.671C63.4115 128.671 63.7652 128.471 63.8648 128.018C64.4066 125.596 66.0215 121.138 66.3976 111.669C68.6762 113.107 73.5098 114.612 78.322 114.612C81.5965 114.612 84.8368 113.992 87.9009 112.82C88.1997 118.428 90.9978 127.288 91.7945 131.026C91.9164 130.318 91.9275 129.555 91.8279 128.748C91.7108 127.846 92.4605 127.064 93.3768 127.155C102.369 128.295 111.186 130.474 119.88 132.995C124.072 134.212 129.403 135.119 133.429 137.53C134.336 131.38 131.316 125.805 128.02 120.518V120.519ZM51.111 46.341C61.9065 42.7128 71.5635 35.1026 77.6137 25.4464C77.8567 25.0591 78.377 24.9372 78.7642 25.181C79.1514 25.424 79.2621 25.9443 79.0183 26.3315C72.6916 36.453 62.9573 44.1182 51.6416 47.9233C50.5166 48.2046 50.1286 46.694 51.111 46.3418V46.341ZM100.599 100.044C93.7186 111.536 79.7043 116.105 68.0125 110.674C63.2673 108.461 51.9069 93.4286 47.2174 81.638L46.2111 79.1052C45.9108 78.3531 44.8519 78.4312 44.6408 79.1713C43.7118 79.7912 39.3538 80.9193 38.5905 81.0293C29.5247 82.21 27.3975 74.552 29.465 67.07C31.4663 59.7625 36.4641 58.3436 40.0175 60.9751C44.3891 64.2704 44.7245 66.7872 45.4598 69.9454L45.283 75.0228C45.2718 75.4762 45.6256 75.8634 46.09 75.8745H46.1124C46.5545 75.8745 46.9306 75.5208 46.9417 75.0778L47.1298 69.6801C49.4689 66.1291 52.8574 63.9875 56.9413 62.9327C71.6527 59.1395 84.734 49.708 93.9632 38.6862C94.6268 37.9006 95.8992 38.2432 96.0537 39.2726C96.8393 44.4496 102.027 51.2297 104.195 53.9513C107.701 58.3978 106.96 57.225 107.911 59.3275C104.161 57.182 99.2613 57.1485 95.5446 59.4383C94.6045 60.0135 95.4785 61.4293 96.4075 60.854C100.091 58.5866 105.334 59.0072 108.608 61.8276C108.73 61.9272 108.863 61.971 109.007 61.9933C109.781 64.1508 110.268 66.2629 110.511 68.3535C109.626 79.1052 107.082 89.2044 100.6 100.045L100.599 100.044ZM114.691 53.9624C114.36 53.9624 114.039 53.7633 113.917 53.4318C112.08 48.587 109.415 43.6975 106.096 39.3283C105.82 38.9634 105.886 38.4432 106.251 38.1667C106.616 37.8903 107.147 37.9564 107.424 38.3221C110.886 42.8905 113.607 47.9456 115.465 52.8454C115.664 53.3545 115.299 53.9624 114.691 53.9624H114.691Z" fill="black"/>
<path d="M126.703 183.281L125.697 185.36C125.465 185.249 125.288 185.018 125.244 184.74C124.381 179.021 123.651 173.115 123.065 167.164C123.02 166.699 123.352 166.301 123.817 166.246C124.27 166.202 124.68 166.545 124.724 166.998C125.254 172.496 125.929 177.971 126.703 183.281Z" fill="black"/>
<path d="M78.8638 214.539C76.4354 214.557 86.7027 214.479 59.9044 214.682C58.5221 211.242 57.1947 207.702 55.9001 204.274C53.2096 197.11 50.7126 190.594 47.8476 184.286C47.474 183.45 48.5121 182.702 49.1861 183.346C49.5072 183.489 49.9382 183.799 50.5246 184.308C59.7275 192.361 70.2577 205.712 78.8638 214.539Z" fill="black"/>
<path d="M37.3333 69.8178C36.6171 69.5469 35.7821 69.59 35.0404 69.9349C32.4184 71.1579 33.0375 74.6746 35.3766 75.4219C36.4378 75.7645 36.9151 74.1703 35.8825 73.8405C34.9257 73.5337 34.5329 72.0032 35.7423 71.4399C36.0801 71.2822 36.445 71.2567 36.7446 71.3706C37.7707 71.7602 38.3619 70.2074 37.3333 69.817V69.8178Z" fill="black"/>
<path d="M84.0146 137.395C78.7953 139.269 72.831 138.695 68.0635 135.857C67.1202 135.293 66.2709 136.723 67.2142 137.284C72.4024 140.373 78.8917 140.998 84.5754 138.958C85.6088 138.587 85.0487 137.025 84.0138 137.395H84.0146Z" fill="black"/>
<path d="M86.6692 88.1989C88.7479 88.5893 91.0599 88.6602 92.2622 86.9186C93.18 85.5889 92.8788 83.9699 92.4167 82.4179C91.3388 78.8 90.1023 75.1814 88.7415 71.6639C88.3455 70.6409 86.7959 71.2368 87.1927 72.263C88.5383 75.7399 89.7597 79.3155 90.8257 82.892C91.7539 86.0064 90.95 87.3106 86.976 86.5664C85.898 86.3617 85.5889 87.9966 86.67 88.1989H86.6692Z" fill="black"/>
<path d="M76.7175 64.6942C75.3384 64.734 74.2827 66.937 74.36 69.6147C74.4373 72.2925 75.618 74.4309 76.9979 74.391C78.377 74.3512 79.4327 72.1483 79.3554 69.4705C79.2781 66.7928 78.0974 64.6544 76.7175 64.6942Z" fill="black"/>
<path d="M101.195 73.0135C102.575 72.9737 103.631 70.7707 103.553 68.093C103.476 65.4152 102.295 63.2768 100.915 63.3166C99.5362 63.3565 98.4806 65.5594 98.5571 68.2372C98.6344 70.9149 99.8151 73.0533 101.195 73.0135Z" fill="black"/>
<path d="M70.4458 62.1072C73.0741 60.0103 76.8314 59.353 80.0167 60.4294C81.054 60.7831 81.5918 59.2096 80.5489 58.8566C76.841 57.6026 72.4702 58.3699 69.41 60.8094C68.5456 61.4994 69.5981 62.7845 70.4458 62.108V62.1072Z" fill="black"/>
<path d="M79.9187 91.154C79.9968 90.7022 79.6932 90.2728 79.2415 90.1947C76.994 89.8131 78.0536 97.5285 83.6139 98.6455C84.6982 98.8686 85.0113 97.2321 83.9413 97.0178C81.3966 96.5063 79.4797 93.7114 79.9195 91.154H79.9187Z" fill="black"/>
<path d="M88.0555 258.287H8.82364C7.72019 258.287 7.72895 256.627 8.82364 256.627H24.3429C20.0454 244.027 12.996 218.678 7.79508 201.31C5.32844 200.679 2.93909 199.75 0.715454 198.522C0.870017 198.179 1.04768 197.847 1.24607 197.516C2.88332 195.558 4.74126 193.855 6.76572 192.372C7.56562 193.331 20.3983 239.922 25.9347 256.152C25.9897 256.306 25.9682 256.473 25.9347 256.627H88.0547C89.1494 256.627 89.1582 258.287 88.0547 258.287H88.0555Z" fill="black"/>
<path d="M266.836 140.151L159.179 132.077C158.833 132.053 158.518 132.237 158.369 132.544L116.22 220.002L34.9161 220.624C34.2843 220.629 33.8892 221.311 34.1991 221.862L42.6634 236.913C42.8084 237.171 43.0785 237.332 43.3741 237.336C252.432 240.54 190.115 239.929 251.513 240.001C252.61 240.001 252.613 238.341 251.513 238.341H217.018L267.51 141.362C267.785 140.833 267.428 140.194 266.836 140.15V140.151ZM215.137 238.359L43.876 235.684L36.3351 222.275L116.749 221.659C117.066 221.657 117.354 221.475 117.491 221.19L159.619 133.777L265.455 141.714L215.137 238.36V238.359Z" fill="black"/>
<path d="M283.239 63.5405L214.936 57.7628C214.581 57.7301 214.249 57.9301 214.106 58.2559L195.267 101.062C195.033 101.593 195.404 102.196 195.985 102.226L222.521 103.57C223.441 108.216 224.35 112.851 225.258 117.485C225.39 118.156 226.233 118.388 226.688 117.883C230.759 113.39 234.829 108.898 238.887 104.406L267.365 105.857C267.716 105.875 268.051 105.661 268.181 105.328L283.943 64.6679C284.145 64.1484 283.787 63.5868 283.239 63.5405ZM266.849 104.168L238.578 102.728C238.332 102.707 238.087 102.815 237.92 103C234.144 107.181 230.358 111.362 226.57 115.542C225.725 111.237 224.88 106.93 224.023 102.613C223.949 102.24 223.631 101.965 223.251 101.945L197.273 100.629L215.387 59.4693L281.994 65.1029L266.849 104.169V104.168Z" fill="black"/>
<path d="M156.337 26.647H165.496V36.6736C165.496 37.7707 167.156 37.7731 167.156 36.6736V26.647H176.722C177.181 26.647 177.552 26.2757 177.552 25.8168C177.552 25.3579 177.181 24.9866 176.722 24.9866H167.156V15.2603C167.156 14.8014 166.785 14.4301 166.326 14.4301C165.867 14.4301 165.496 14.8014 165.496 15.2603V24.9866H156.337C155.24 24.9866 155.238 26.647 156.337 26.647Z" fill="black"/>
</g>
<line x1="1" y1="257" x2="283" y2="257" stroke="black" stroke-width="2" stroke-linecap="round"/>
<defs>
<clipPath id="clip0_11_747">
<rect width="284" height="258.287" fill="white"/>
</clipPath>
</defs>
</svg>
