<svg width="30" height="30" viewBox="0 0 30 30" fill="none" xmlns="http://www.w3.org/2000/svg">
<path d="M8.10039 10.7766L9.49258 10.8281C9.62383 11.2547 9.80195 11.6672 10.0223 12.0562L9.09883 13.0125C9.00977 13.1016 8.96289 13.2234 8.96758 13.35C8.96758 13.4766 9.01914 13.5937 9.11289 13.6781L11.1098 15.5906C11.2879 15.7594 11.5645 15.7641 11.7426 15.6L12.7691 14.6953C13.191 14.9156 13.6316 15.0891 14.091 15.2203L14.1426 16.5234C14.1566 16.7766 14.3629 16.9734 14.6113 16.9734H17.4426C17.6957 16.9734 17.902 16.7766 17.9113 16.5234L17.9629 15.2203C18.4223 15.0891 18.8629 14.9156 19.2848 14.6953L20.3113 15.6C20.4941 15.7641 20.7707 15.7594 20.9441 15.5906L22.9457 13.6781C23.0348 13.5937 23.0863 13.4766 23.091 13.35C23.091 13.2234 23.0441 13.1062 22.9598 13.0125L22.0316 12.0562C22.252 11.6672 22.4301 11.2547 22.566 10.8281L23.9535 10.7766C24.2066 10.7672 24.4082 10.5609 24.4082 10.3078V7.60781C24.4082 7.35469 24.2066 7.14844 23.9535 7.13906L22.566 7.0875C22.4301 6.66094 22.252 6.24844 22.0316 5.85469L22.9598 4.89844C23.0441 4.80937 23.091 4.6875 23.091 4.56094C23.0863 4.43906 23.0348 4.31719 22.9457 4.23281L20.9441 2.325C20.7707 2.15625 20.4941 2.15156 20.3113 2.31094L19.2848 3.21562C18.8629 2.99531 18.4223 2.82187 17.9629 2.69062L17.9113 1.3875C17.902 1.13437 17.6957 0.9375 17.4426 0.9375H14.6113C14.3629 0.9375 14.1566 1.13437 14.1426 1.3875L14.091 2.69062C13.6316 2.82187 13.191 2.99531 12.7691 3.21562L11.7426 2.31094C11.5645 2.15156 11.2879 2.15625 11.1098 2.325L9.11289 4.23281C9.01914 4.31719 8.96758 4.43906 8.96758 4.56094C8.96289 4.6875 9.00977 4.80937 9.09883 4.89844L10.0223 5.85469C9.80195 6.24844 9.62383 6.66094 9.49258 7.0875L8.10039 7.13906C7.84727 7.14844 7.65039 7.35469 7.65039 7.60781V10.3078C7.65039 10.5609 7.84727 10.7672 8.10039 10.7766ZM12.3473 8.95781C12.3473 6.9375 13.9973 5.29688 16.027 5.29688C18.0566 5.29688 19.7066 6.9375 19.7066 8.95781C19.7066 10.9781 18.0566 12.6141 16.027 12.6141C13.9973 12.6141 12.3473 10.9734 12.3473 8.95781Z" fill="black"/>
<path d="M25.5426 19.7019C23.4285 18.6847 19.6973 20.8035 16.702 22.505C15.5066 23.1847 14.377 23.8269 13.8801 23.93C13.4441 24.0144 13.0973 23.9628 12.8066 23.7613C12.4504 23.5222 12.2535 23.1097 12.1504 22.8144C12.366 22.7488 12.6285 22.6972 12.9426 22.6878C15.8676 22.58 17.7004 21.516 17.7238 19.9128C17.7379 19.1675 17.4426 18.7503 17.1941 18.5347C16.6176 18.0332 15.8301 18.141 15.7504 18.155C15.7223 18.155 13.2051 18.5113 11.677 18.3144L11.541 18.3003C10.0363 18.1035 8.61602 17.9253 7.22383 19.88C6.14102 21.3941 4.3457 21.1691 4.2707 21.1597C4.13477 21.141 3.99883 21.1785 3.8957 21.2675C3.79258 21.3566 3.73633 21.4878 3.73633 21.6238V27.7082C3.73633 27.9472 3.91445 28.1488 4.15352 28.1769L11.7941 29.0207C12.0566 29.0488 12.3145 29.0628 12.5723 29.0628C13.9457 29.0628 15.3051 28.6644 16.4629 27.9144L25.6691 21.9566C26.0629 21.6988 26.2926 21.2488 26.2645 20.7753C26.2316 20.3066 25.9645 19.9035 25.5426 19.7019Z" fill="black"/>
</svg>
