<svg width="30" height="30" viewBox="0 0 30 30" fill="none" xmlns="http://www.w3.org/2000/svg">
<path d="M23.9717 26.4844H4.0498C3.56441 26.4844 3.1709 26.8779 3.1709 27.3633V29.1211C3.1709 29.6065 3.56441 30 4.0498 30H23.9717C24.4571 30 24.8506 29.6065 24.8506 29.1211V27.3633C24.8506 26.8779 24.4571 26.4844 23.9717 26.4844Z" fill="black"/>
<path d="M5.51465 22.9688V24.7266H22.5068V22.9688C22.5068 22.4834 22.1133 22.0898 21.6279 22.0898H6.39355C5.90816 22.0898 5.51465 22.4834 5.51465 22.9688Z" fill="black"/>
<path d="M3.70361 16.4524L5.19699 17.0924C4.93221 13.6754 5.50438 10.5399 6.86352 7.99254C8.28477 5.32887 10.5008 3.3075 13.4721 1.95703C13.3022 1.96652 13.1328 1.97912 12.9643 1.99629C11.2437 2.17178 9.68856 2.74271 8.34213 3.69322C6.8501 4.7465 5.65543 6.24228 4.79141 8.13908C3.86246 10.1784 3.3176 12.6888 3.17199 15.6007C3.15371 15.9678 3.36576 16.3076 3.70361 16.4524Z" fill="black"/>
<path d="M26.2939 10.212L21.2898 4.70755L20.7412 0.75804C20.6948 0.42388 20.4612 0.145735 20.14 0.0423173C19.8189 -0.0611006 19.4669 0.0285478 19.2342 0.272825L17.0643 2.55113C12.9692 3.62849 10.06 5.73663 8.41491 8.8199C7.14301 11.2037 6.65358 14.2067 6.99952 17.5041C7.11688 18.6229 7.31001 19.5956 7.48843 20.332H20.1636V18.5742C20.1636 18.391 20.1064 18.2124 19.9999 18.0633L17.9021 15.1263C17.6282 14.7429 17.6342 14.2319 17.9169 13.855C18.2083 13.4664 18.7268 13.3211 19.1777 13.5014L22.8386 14.9657C23.6834 15.3038 24.6332 15.0533 25.2016 14.3428L26.3778 12.8726C27.011 12.081 26.9757 10.9621 26.2939 10.212ZM18.4058 9.43355C17.9204 9.43355 17.5269 9.04003 17.5269 8.55464C17.5269 8.06925 17.9204 7.67574 18.4058 7.67574C18.8912 7.67574 19.2847 8.06925 19.2847 8.55464C19.2847 9.04009 18.8912 9.43355 18.4058 9.43355Z" fill="black"/>
</svg>
