<svg width="60" height="60" viewBox="0 0 60 60" fill="none" xmlns="http://www.w3.org/2000/svg">
<path fill-rule="evenodd" clip-rule="evenodd" d="M49.4568 20.1787C50.1323 21.6101 50.6577 23.1094 51.0247 24.6584L55.4735 26.3706V33.6365L51.0247 35.3487C50.4613 37.7196 49.5174 39.9805 48.2442 42.0586L50.1759 46.4196L45.0393 51.5563L40.6782 49.6245C38.6075 50.905 36.3392 51.8416 33.9684 52.405L32.2562 56.8538H24.9902L23.2781 52.405C20.9 51.8416 18.6389 50.8977 16.5609 49.6245L12.1999 51.5563L7.06327 46.4196L9.00233 42.0586C7.72174 39.9878 6.78515 37.7196 6.21445 35.3487L1.76562 33.6365V26.3706L6.21445 24.6584C6.78515 22.2803 7.72174 20.0193 9.00233 17.9412L7.06327 13.5803L12.1999 8.44356L16.5609 10.3826C18.6389 9.10215 20.9 8.16556 23.2707 7.60215L24.9902 3.14603H32.2562L33.9684 7.60215C36.3392 8.16556 38.6001 9.10215 40.6782 10.3826L45.0393 8.44356L46.2633 9.66768L38.2193 18.6999C35.6316 16.5003 32.2783 15.1734 28.6153 15.1734C20.4255 15.1734 13.7932 21.8058 13.7932 29.9957C13.7932 38.1854 20.4255 44.8264 28.6153 44.8264C36.8052 44.8264 43.446 38.1854 43.446 29.9957C43.446 29.0467 43.3568 28.1186 43.1864 27.2194L49.4568 20.1787ZM54.3957 11.7984C54.3687 11.8316 54.3409 11.8644 54.3122 11.8966L38.955 29.1404C37.9887 30.2254 36.3539 30.3931 35.1874 29.5267L30.941 26.3731L24.4639 32.8503C23.369 33.9451 21.5913 33.9451 20.4964 32.8503C19.4016 31.7553 19.4016 29.9777 20.4964 28.8829L28.6859 20.6933C29.6695 19.7097 31.2255 19.5954 32.3422 20.4249L36.4721 23.492L50.1222 8.16497C50.1413 8.14368 50.1604 8.12262 50.1801 8.10191L48.1475 6.31979C47.9842 6.1765 47.9144 5.95403 47.9669 5.74321C48.0194 5.53238 48.1853 5.3685 48.3967 5.31862L57.5223 3.16156C57.705 3.11838 57.8973 3.16626 58.0384 3.29003C58.1796 3.41379 58.2522 3.59815 58.2333 3.78485L57.2873 13.1143C57.2653 13.3304 57.1246 13.5161 56.9223 13.5957C56.7202 13.6753 56.4906 13.6353 56.3272 13.492L54.3957 11.7984Z" fill="#FB9100"/>
</svg>
