<svg width="60" height="60" viewBox="0 0 60 60" fill="none" xmlns="http://www.w3.org/2000/svg">
<path d="M20.0975 13.0541C20.4728 11.7308 20.5814 10.3261 20.4112 8.95851C20.1281 6.68097 19.1201 4.61883 17.4962 2.99496C17.072 2.57074 16.6059 2.18027 16.111 1.8348C14.3925 0.634922 12.37 0.000351756 10.2625 1.93168e-07C9.65953 -0.000116994 9.05273 0.0530861 8.45824 0.15832C7.83246 0.26918 7.33019 0.693047 7.11504 1.29187C6.89894 1.89293 7.01672 2.54191 7.43004 3.02789L10.7082 6.88277L6.88289 10.7081L3.02812 7.42992C2.54191 7.01648 1.89281 6.89882 1.29176 7.11504C0.692812 7.33054 0.269063 7.83281 0.15832 8.45824C0.0530861 9.05214 -0.000116994 9.65917 1.93168e-07 10.2623C0.000468943 12.37 0.634922 14.3925 1.8348 16.111C2.17992 16.6055 2.57027 17.0714 2.99496 17.4962C4.61883 19.1201 6.68097 20.1281 8.95851 20.4112C10.3261 20.5813 11.7307 20.4728 13.0541 20.0975L20.8849 27.9283L27.9283 20.8849L20.0975 13.0541Z" fill="#FB9100"/>
<path d="M39.9011 46.946C39.5259 48.2693 39.4173 49.674 39.5874 51.0416C39.8705 53.3191 40.8786 55.3813 42.5025 57.0052C42.9273 57.43 43.3932 57.8202 43.8876 58.1653C45.6063 59.3652 47.6287 59.9998 49.7363 60.0001C50.3395 60.0002 50.9465 59.947 51.5404 59.8418C52.1658 59.7309 52.6682 59.3073 52.8836 58.7084C53.0999 58.1073 52.9822 57.4583 52.5687 56.9721L49.2905 53.1174L53.1159 49.292L56.9708 52.5702C57.4567 52.9835 58.1058 53.1014 58.7068 52.8852C59.3056 52.6699 59.7296 52.1677 59.8403 51.5419C59.9456 50.9475 59.9989 50.3406 59.9987 49.7378C59.9983 47.6302 59.3637 45.6077 58.1639 43.8891C57.8184 43.3942 57.4279 42.9283 57.0037 42.5039C55.3798 40.8801 53.3177 39.872 51.0401 39.5889C49.6726 39.4188 48.268 39.5274 46.9446 39.9026L39.1137 32.0718L32.0703 39.1152L39.9011 46.946Z" fill="#FB9100"/>
<path d="M59.4833 4.49248L55.5086 0.517714C54.9215 -0.0693954 54.0222 -0.168067 53.3219 0.277714L45.1179 5.4983C44.7159 5.75423 44.4316 6.16896 44.338 6.63654L43.6351 10.151L22.1523 31.6338L28.3671 37.8486L49.85 16.3658L53.3645 15.6629C53.832 15.5694 54.2467 15.2851 54.5026 14.8829L59.7231 6.67931C60.1691 5.97888 60.0706 5.07959 59.4833 4.49248Z" fill="#FB9100"/>
<path d="M29.4019 43.8561L16.1437 30.5979C15.4572 29.9114 14.3442 29.9114 13.6578 30.5979C12.9713 31.2844 12.9713 32.3973 13.6578 33.0838L14.0721 33.4981L2.57018 45.0001C-0.856728 48.427 -0.856728 54.0028 2.57018 57.4297C5.9971 60.8566 11.5729 60.8566 14.9998 57.4297L26.5017 45.9277L26.9161 46.3421C27.6026 47.0286 28.7155 47.0286 29.402 46.3421C30.0883 45.6556 30.0883 44.5426 29.4019 43.8561ZM17.6838 44.8019L8.73881 53.747C8.05233 54.4334 6.9394 54.4334 6.25292 53.747C5.56643 53.0605 5.56643 51.9475 6.25292 51.2611L15.198 42.316C15.8844 41.6295 16.9974 41.6295 17.6838 42.316C18.3702 43.0024 18.3702 44.1154 17.6838 44.8019Z" fill="#FB9100"/>
</svg>
