<svg width="60" height="60" viewBox="0 0 60 60" fill="none" xmlns="http://www.w3.org/2000/svg">
<g clip-path="url(#clip0_6174_4424)">
<path d="M55.3715 4.62823C49.2005 -1.54274 39.1609 -1.54274 32.9898 4.62823L23.7942 13.8238C22.1896 15.4285 20.8894 17.4757 20.0514 19.9752C20.0373 19.9799 20.0237 19.9871 20.0097 19.9917C18.1037 25.7254 19.5492 31.9603 23.7942 36.2053C25.0626 37.4737 26.5548 38.518 28.1711 39.289L28.7679 38.6922C30.8321 36.628 30.8321 33.2958 28.7679 31.2316C25.3361 27.7997 25.3361 22.2291 28.7679 18.7974L37.9635 9.60179C41.3953 6.16995 46.9658 6.16995 50.3977 9.60179C53.8295 13.0336 53.8295 18.6041 50.3977 22.036L43.4154 29.0182C44.3465 31.8969 44.5437 34.9453 44.0931 37.9124C44.8285 37.3998 45.536 36.8451 46.1758 36.2053L55.3713 27.0098C61.5424 20.8388 61.5424 10.7991 55.3715 4.62823Z" fill="#FB9100"/>
<path d="M36.2283 23.7709C34.96 22.5025 33.468 21.458 31.8268 20.7119L31.2546 21.284C29.1906 23.348 29.1905 26.6804 31.2546 28.7446C34.6865 32.1765 34.6865 37.7471 31.2546 41.1788C28.3498 44.0837 24.8058 47.6282 22.0362 50.3978C18.6044 53.8297 13.0339 53.8297 9.60202 50.3978C6.17019 46.966 6.17019 41.3955 9.60202 37.9637L16.6071 30.958C15.6761 28.0793 15.479 25.0307 15.9296 22.0637C15.1941 22.5765 14.4865 23.1311 13.8467 23.7709L4.62823 32.9899C-1.54274 39.1609 -1.54274 49.2004 4.62823 55.3715C10.7992 61.5426 20.8388 61.5425 27.0099 55.3715L36.2283 46.1525C37.833 44.5477 39.1332 42.5006 39.9712 40.0011C39.9852 39.9964 39.9988 39.9893 40.0129 39.9846C41.9188 34.2508 40.4733 28.0159 36.2283 23.7709Z" fill="#FB9100"/>
<path d="M51.1493 48.6395L48.6625 46.1527C47.9752 45.4654 46.8628 45.4654 46.1756 46.1527C45.4883 46.84 45.4883 47.9523 46.1756 48.6395L48.6625 51.1264C49.3498 51.8137 50.4621 51.8137 51.1493 51.1264C51.8365 50.4391 51.8365 49.3268 51.1493 48.6395Z" fill="#FB9100"/>
<path d="M13.8486 11.3368L11.3617 8.84995C10.6744 8.16265 9.56204 8.16265 8.87485 8.84995C8.18755 9.53726 8.18755 10.6496 8.87485 11.3368L11.3617 13.8236C12.049 14.5109 13.1613 14.5109 13.8486 13.8236C14.5359 13.1363 14.5359 12.024 13.8486 11.3368Z" fill="#FB9100"/>
<path d="M57.643 35.5713L54.2454 34.6605C53.3067 34.4091 52.3426 34.9653 52.0913 35.904C51.8398 36.8484 52.4024 37.8086 53.3347 38.0582L56.7324 38.9689C57.671 39.2203 58.6351 38.6641 58.8865 37.7254C59.1353 36.7867 58.5816 35.8178 57.643 35.5713Z" fill="#FB9100"/>
<path d="M6.68995 21.9184L3.29233 21.0077C2.35366 20.7563 1.38956 21.3125 1.13819 22.2511C0.886586 23.1953 1.4492 24.1557 2.38166 24.4053L5.77928 25.3161C6.71795 25.5674 7.68206 25.0113 7.93342 24.0726C8.1835 23.1327 7.62499 22.1636 6.68995 21.9184Z" fill="#FB9100"/>
<path d="M38.9937 56.7095L38.083 53.3119C37.8305 52.3696 36.8675 51.8171 35.9289 52.0684C34.9902 52.3198 34.434 53.2839 34.6854 54.2226L35.5962 57.6202C35.8458 58.5527 36.8061 59.1152 37.7503 58.8637C38.689 58.6123 39.245 57.6482 38.9937 56.7095Z" fill="#FB9100"/>
<path d="M25.3375 5.75362L24.4268 2.356C24.1766 1.4137 23.2113 0.863621 22.2726 1.11253C21.3339 1.36389 20.7778 2.328 21.0291 3.26667L21.9399 6.66428C22.0224 6.97272 22.1829 7.23991 22.394 7.4512C22.8239 7.88104 23.465 8.07534 24.0939 7.90776C25.0327 7.65651 25.5889 6.69229 25.3375 5.75362Z" fill="#FB9100"/>
</g>
<defs>
<clipPath id="clip0_6174_4424">
<rect width="60" height="60" fill="white"/>
</clipPath>
</defs>
</svg>
