<svg width="61" height="60" viewBox="0 0 61 60" fill="none" xmlns="http://www.w3.org/2000/svg">
<path d="M25.9626 0C11.6561 0 0 11.6406 0 25.947C-7.9837e-08 40.2535 11.6561 51.8901 25.9626 51.8901C32.397 51.8901 38.2794 49.5253 42.8188 45.6334L45.0837 47.8983L43.6725 49.3095C43.2984 49.6838 43.0882 50.1914 43.0882 50.7206C43.0882 51.2499 43.2984 51.7575 43.6725 52.1318L49.6564 58.1196C50.9655 59.4295 52.6497 60.0655 54.2135 59.9947C55.7773 59.9268 57.1723 59.2239 58.2015 58.1976C59.2306 57.1712 59.9327 55.7811 60.0064 54.2174C60.0801 52.6536 59.4443 50.9664 58.1352 49.6564L52.1435 43.6608C51.955 43.4722 51.7305 43.3233 51.4835 43.2229C51.2364 43.1224 50.9717 43.0725 50.705 43.0761C50.1852 43.0834 49.6887 43.2931 49.3212 43.6608L47.9061 45.0759L45.6412 42.811C49.5382 38.2714 51.9096 32.3854 51.9096 25.947C51.9096 11.6406 40.2691 0 25.9626 0ZM29.9389 15.9557H37.9265C38.1899 15.9547 38.4509 16.0058 38.6944 16.1062C38.938 16.2065 39.1593 16.3541 39.3455 16.5403C39.5318 16.7266 39.6794 16.9479 39.7797 17.1914C39.88 17.435 39.9312 17.696 39.9302 17.9594V25.947C39.9361 26.2128 39.8888 26.4772 39.7911 26.7245C39.6935 26.9718 39.5474 27.1971 39.3615 27.3872C39.1756 27.5773 38.9535 27.7283 38.7085 27.8315C38.4634 27.9346 38.2001 27.9877 37.9343 27.9877C37.6684 27.9877 37.4051 27.9346 37.16 27.8315C36.915 27.7283 36.6929 27.5773 36.507 27.3872C36.3211 27.1971 36.175 26.9718 36.0774 26.7245C35.9797 26.4772 35.9324 26.2128 35.9383 25.947V22.7738L27.3621 31.3383C26.5836 32.112 25.326 32.112 24.5475 31.3383L21.9708 28.7577L15.3982 35.3302C13.5235 37.34 10.5681 34.4009 12.5681 32.5156L20.5557 24.5319C21.3342 23.7583 22.5917 23.7583 23.3702 24.5319L25.947 27.1243L33.1238 19.9475H29.9389C29.673 19.9535 29.4086 19.9063 29.1612 19.8087C28.9138 19.7111 28.6884 19.565 28.4983 19.3791C28.3081 19.1931 28.1571 18.9711 28.0539 18.726C27.9508 18.4808 27.8976 18.2176 27.8976 17.9516C27.8976 17.6857 27.9508 17.4224 28.0539 17.1773C28.1571 16.9322 28.3081 16.7101 28.4983 16.5242C28.6884 16.3383 28.9138 16.1922 29.1612 16.0946C29.4086 15.9969 29.673 15.9497 29.9389 15.9557Z" fill="#FB9100"/>
</svg>
