<svg width="62" height="60" viewBox="0 0 62 60" fill="none" xmlns="http://www.w3.org/2000/svg">
<g clip-path="url(#clip0_6174_4467)">
<path d="M18.8334 15.2794L11.7046 37.521C11.6623 37.6446 11.65 37.7765 11.6685 37.9058C11.6871 38.0351 11.7361 38.1582 11.8115 38.2649C11.8869 38.3716 11.9865 38.4589 12.1022 38.5196C12.2179 38.5803 12.3463 38.6127 12.4769 38.6141H14.473C14.6511 38.6136 14.8243 38.5554 14.9667 38.4484C15.1091 38.3413 15.2131 38.191 15.2631 38.02L16.3799 34.4557H26.1403L26.0037 34.2359L27.2274 38.02C27.2774 38.191 27.3814 38.3413 27.5238 38.4484C27.6662 38.5554 27.8394 38.6136 28.0175 38.6141H30.0136C30.1443 38.6149 30.2734 38.5846 30.3901 38.5257C30.5069 38.4669 30.608 38.3811 30.6851 38.2756C30.7623 38.17 30.8132 38.0476 30.8338 37.9185C30.8545 37.7894 30.8441 37.6572 30.8037 37.5329L23.6749 15.2913C23.6241 15.1208 23.5199 14.9711 23.3777 14.8642C23.2355 14.7572 23.0628 14.6987 22.8848 14.6973H19.6056C19.432 14.7008 19.264 14.7589 19.1253 14.8635C18.9867 14.968 18.8845 15.1135 18.8334 15.2794ZM17.568 30.8913L21.2452 19.4438L24.9522 30.8913H17.568Z" fill="#FB9100"/>
<path d="M38.971 14.7031H37.07C36.6106 14.7031 36.2383 15.0755 36.2383 15.5348V37.7764C36.2383 38.2357 36.6106 38.6081 37.07 38.6081H38.971C39.4303 38.6081 39.8026 38.2357 39.8026 37.7764V15.5348C39.8026 15.0755 39.4303 14.7031 38.971 14.7031Z" fill="#FB9100"/>
<path d="M29.2627 47.5246H11.9756C10.69 47.5246 9.45699 47.0139 8.5479 46.1048C7.63881 45.1957 7.12809 43.9628 7.12809 42.6771V11.9761C7.12809 10.6905 7.63881 9.45749 8.5479 8.5484C9.45699 7.63932 10.69 7.1286 11.9756 7.1286H42.6766C43.9622 7.1286 45.1952 7.63932 46.1043 8.5484C47.0134 9.45749 47.5241 10.6905 47.5241 11.9761V27.3266C47.535 27.6507 47.6734 27.9574 47.9093 28.1799C48.1452 28.4024 48.4594 28.5227 48.7835 28.5147C49.7951 28.5117 50.7936 28.7435 51.7004 29.192C51.8886 29.2885 52.0986 29.3346 52.31 29.3258C52.5213 29.317 52.7268 29.2536 52.9063 29.1417C53.0859 29.0298 53.2333 28.8732 53.3343 28.6873C53.4353 28.5015 53.4864 28.2926 53.4825 28.0811V11.9761C53.4826 10.5579 53.2029 9.1536 52.6597 7.84357C52.1164 6.53353 51.3201 5.34346 50.3165 4.34146C49.3128 3.33946 48.1214 2.54518 46.8105 2.00408C45.4996 1.46297 44.0948 1.18566 42.6766 1.188H11.9756C9.11443 1.188 6.37043 2.32461 4.34727 4.34777C2.3241 6.37093 1.1875 9.11493 1.1875 11.9761V42.6771C1.1875 45.5383 2.3241 48.2823 4.34727 50.3055C6.37043 52.3286 9.11443 53.4652 11.9756 53.4652H31.7578C32.0009 53.4655 32.2386 53.3938 32.4409 53.2591C32.6432 53.1243 32.8011 52.9327 32.8945 52.7083C32.988 52.4839 33.0128 52.2368 32.9659 51.9983C32.919 51.7598 32.8025 51.5405 32.6311 51.3682C31.7067 50.5201 30.9579 49.4988 30.4271 48.3623C30.342 48.1203 30.1848 47.9102 29.9766 47.7604C29.7684 47.6107 29.5192 47.5284 29.2627 47.5246Z" fill="#FB9100"/>
<path d="M55.68 49.7821L61.0622 47.6613C61.173 47.6176 61.2681 47.5415 61.3351 47.4429C61.4021 47.3444 61.4379 47.228 61.4379 47.1089C61.4379 46.9897 61.4021 46.8733 61.3351 46.7748C61.2681 46.6763 61.173 46.6002 61.0622 46.5564L55.68 44.4356C54.7273 44.0589 53.8619 43.4907 53.1375 42.7663C52.413 42.0418 51.8449 41.1765 51.4682 40.2237L49.3474 34.8772C49.3033 34.7667 49.2271 34.6719 49.1286 34.6052C49.0301 34.5384 48.9139 34.5028 48.7949 34.5029C48.6759 34.5028 48.5596 34.5384 48.4611 34.6052C48.3626 34.6719 48.2864 34.7667 48.2424 34.8772L46.1216 40.2237C45.7458 41.177 45.178 42.0429 44.4534 42.7674C43.7289 43.492 42.863 44.0598 41.9097 44.4356L36.5632 46.5564C36.4524 46.6002 36.3573 46.6763 36.2903 46.7748C36.2233 46.8733 36.1875 46.9897 36.1875 47.1089C36.1875 47.228 36.2233 47.3444 36.2903 47.4429C36.3573 47.5415 36.4524 47.6176 36.5632 47.6613L41.9097 49.7821C42.863 50.1579 43.7289 50.7257 44.4534 51.4503C45.178 52.1749 45.7458 53.0407 46.1216 53.994L48.2424 59.3406C48.2855 59.4522 48.3613 59.5482 48.4599 59.6161C48.5585 59.6839 48.6752 59.7204 48.7949 59.7207C48.9146 59.7204 49.0313 59.6839 49.1299 59.6161C49.2285 59.5482 49.3043 59.4522 49.3474 59.3406L51.4682 53.994C51.8449 53.0413 52.413 52.1759 53.1375 51.4514C53.8619 50.727 54.7273 50.1589 55.68 49.7821Z" fill="#FB9100"/>
</g>
<defs>
<clipPath id="clip0_6174_4467">
<rect width="61.7822" height="60" fill="white"/>
</clipPath>
</defs>
</svg>
