<svg width="60" height="60" viewBox="0 0 60 60" fill="none" xmlns="http://www.w3.org/2000/svg">
<g clip-path="url(#clip0_6174_4399)">
<path d="M37.1197 14.0625C32.0386 14.1294 27.8362 18.6047 25.1445 22.8516C28.8284 28.6623 32.9483 31.7248 37.1231 31.6406C41.3185 31.5857 45.5585 28.4752 49.1428 22.8516C45.5654 17.2365 41.3219 14.1243 37.1197 14.0625ZM37.1471 28.125C34.2392 28.125 31.8737 25.7595 31.8737 22.8516C31.8737 19.9437 34.2392 17.5781 37.1471 17.5781C40.055 17.5781 42.4205 19.9437 42.4205 22.8516C42.4205 25.7595 40.055 28.125 37.1471 28.125Z" fill="#FB9100"/>
<path d="M37.1484 24.6094C38.1193 24.6094 38.9062 23.8224 38.9062 22.8516C38.9062 21.8807 38.1193 21.0938 37.1484 21.0938C36.1776 21.0938 35.3906 21.8807 35.3906 22.8516C35.3906 23.8224 36.1776 24.6094 37.1484 24.6094Z" fill="#FB9100"/>
<path d="M37.1484 0C24.5484 0 14.2969 10.2516 14.2969 22.8516C14.2969 28.5205 16.3845 33.7025 19.8149 37.7009L16.5701 40.9451L15.3268 39.7018L0 55.0287L4.97133 60L20.2982 44.6732L19.0557 43.4307L22.3005 40.1865C26.2987 43.6164 31.4804 45.7031 37.1484 45.7031C49.7484 45.7031 60 35.4516 60 22.8516C60 10.2516 49.7484 0 37.1484 0ZM37.1725 35.1562C37.121 35.1562 37.0661 35.158 37.0145 35.158C27.1993 35.158 21.3824 23.2063 21.0362 22.8516C21.4029 22.4793 27.0605 10.5769 37.1759 10.5469C46.4113 10.6835 51.4935 20.779 53.2571 22.8516C52.953 23.2089 47.079 35.0275 37.1725 35.1562Z" fill="#FB9100"/>
</g>
<defs>
<clipPath id="clip0_6174_4399">
<rect width="60" height="60" fill="white"/>
</clipPath>
</defs>
</svg>
