<svg width="206" height="31" viewBox="0 0 206 31" fill="none" xmlns="http://www.w3.org/2000/svg">
<path d="M44.838 22.6228C46.927 17.4766 49.067 12.3304 51.1561 7.13332C51.5127 7.13332 51.8694 7.13332 52.2261 7.13332C54.3151 12.2795 56.3532 17.4257 58.4422 22.5719C58.0856 22.5719 57.7289 22.5719 57.4232 22.5719C56.7608 20.9414 56.0984 19.26 55.4361 17.5785C52.9394 17.5785 50.3918 17.5785 47.8951 17.5785C47.2328 19.26 46.5704 20.8904 45.908 22.5719H44.838V22.6228ZM48.2008 16.8142C50.4937 16.8142 52.8375 16.8142 55.1304 16.8142C54.0094 13.859 52.8375 10.9547 51.7166 7.99951C50.5447 10.9547 49.3727 13.91 48.2008 16.8142ZM119.993 7.13332C120.961 7.13332 121.929 7.13332 122.897 7.13332C124.935 12.2795 126.922 17.4257 128.96 22.6228H126.056C125.546 21.2471 125.088 19.8714 124.578 18.4957H118.311C117.802 19.8714 117.292 21.2471 116.834 22.6228H113.98C115.967 17.4257 118.005 12.2795 119.993 7.13332ZM121.419 9.73188C120.604 11.9738 119.789 14.2157 119.024 16.4576C120.655 16.4576 122.234 16.4576 123.814 16.4576C122.999 14.2157 122.285 11.9228 121.419 9.73188ZM155.048 22.6228V7.13332H157.544V22.6228H155.048ZM178.944 7.13332H181.441C181.441 7.8976 181.441 8.66188 181.441 9.47712C180.626 9.47712 179.76 9.47712 178.944 9.47712C178.944 8.66188 178.944 7.8976 178.944 7.13332ZM172.422 7.99951H174.97V11.3624H177.212V13.2476H174.97V19.4638C174.97 19.9223 174.97 20.4828 175.48 20.6866C176.04 20.8395 176.652 20.8395 177.263 20.7885C177.263 21.4 177.263 22.0114 177.263 22.6228C175.989 22.7247 174.613 22.9285 173.442 22.3171C172.728 21.7566 172.372 20.8904 172.473 19.9733C172.473 17.7314 172.473 15.4895 172.473 13.2476H170.537C170.537 12.6362 170.537 12.0247 170.537 11.4133H172.473L172.422 7.99951ZM60.888 12.0757C63.0789 10.3433 66.8494 11.1076 67.9194 13.8081C67.8684 12.9928 67.9194 12.2285 67.9194 11.4133H68.7856V22.0623C68.8875 23.5399 68.276 25.0176 67.1041 25.9857C65.4227 26.9537 63.4356 27.1066 61.6522 26.4442C60.3275 25.9347 59.4613 24.7118 59.4613 23.2852H60.3275C60.4294 24.3552 61.1427 25.3233 62.1618 25.7818C63.9451 26.4442 66.4418 26.1895 67.4608 24.4061C68.276 22.9285 67.8684 21.2471 67.9703 19.6166C66.9003 22.1133 63.5884 22.8776 61.2956 21.5528C59.9199 20.6866 59.0537 19.1581 58.9518 17.4766C58.5442 15.4895 59.3084 13.4514 60.888 12.0757ZM62.4675 12.1266C59.767 13.0947 59.2065 16.6104 60.1237 19.0052C60.9389 21.0433 63.2318 22.0114 65.2699 21.2471C66.6965 20.6357 67.6646 19.3109 67.8175 17.7823C68.1232 16.1519 67.7156 14.5214 66.7475 13.1966C65.6265 12.0247 63.9451 11.6171 62.4675 12.1266ZM71.9446 13.0947C73.626 10.9038 76.7341 10.5471 78.9251 12.1776C79.0779 12.2795 79.1798 12.3814 79.3327 12.4833C80.4027 13.7571 80.9632 15.4385 80.8612 17.069C77.8041 17.069 74.747 17.069 71.6389 17.069C71.6389 18.2919 71.9956 19.4638 72.607 20.4828C73.9827 22.2661 76.5813 22.6228 78.3646 21.2471C78.7213 20.9923 79.027 20.6866 79.2308 20.33C79.4855 19.8204 79.7403 19.3109 79.8932 18.8014C80.097 18.8014 80.5046 18.8014 80.7593 18.8014C80.5555 19.8204 80.097 20.7885 79.3836 21.5528C78.0079 22.7247 76.1736 23.1833 74.3903 22.6738C72.8108 22.2661 71.537 20.9923 71.0784 19.4128C70.416 17.3238 70.7217 14.98 71.9446 13.0947ZM73.1675 12.9419C72.2503 13.859 71.6898 15.1328 71.6389 16.4066C74.4413 16.4066 77.1927 16.4066 79.9951 16.4066C79.9441 15.1328 79.4346 13.91 78.6194 12.9928C77.0908 11.5662 74.696 11.5662 73.1675 12.9419ZM83.5617 13.91C84.5808 11.5662 87.2812 10.4962 89.625 11.5152C89.7779 11.5662 89.9817 11.6681 90.1346 11.77C91.1536 12.5852 91.765 13.8081 91.6631 15.1328C91.6631 17.6295 91.6631 20.0752 91.6631 22.5719H90.7969C90.7969 20.0752 90.7969 17.6295 90.7969 15.1328C90.8479 14.0119 90.3384 12.8909 89.3703 12.2795C87.7908 11.5152 85.9055 11.8719 84.7336 13.0947C83.9693 14.0119 83.5617 15.2347 83.6127 16.4066C83.6127 18.4447 83.6127 20.4828 83.6127 22.5209H82.7465V11.4643H83.6127C83.6127 12.2795 83.6127 13.0947 83.5617 13.91ZM95.1279 12.6362C96.9112 10.9547 99.5607 10.649 101.701 11.8719C102.72 12.5343 103.382 13.6552 103.535 14.8781H102.669C102.567 14.0119 102.108 13.2476 101.446 12.6871C99.6626 11.4133 97.2169 11.6681 95.6884 13.2476C94.2107 15.1838 93.956 17.8333 95.0769 20.0242C96.2488 22.0114 98.7964 22.7247 100.835 21.5528C100.987 21.4509 101.14 21.349 101.293 21.2471C102.057 20.5847 102.567 19.6676 102.72 18.6995C103.025 18.6995 103.28 18.6995 103.586 18.6995C103.433 19.7185 102.975 20.6866 102.261 21.4509C100.172 23.438 96.9112 23.3361 94.9241 21.298C94.8222 21.1961 94.7203 21.0942 94.6693 20.9923C93.0388 18.4447 93.1917 15.0309 95.1279 12.6362ZM132.425 13.0947C133.036 12.1266 134.004 11.4133 135.125 11.1585C136.552 10.8528 138.081 11.2095 139.151 12.1776C139.813 12.9419 140.119 13.91 140.068 14.929C140.068 17.4766 140.068 20.0752 140.068 22.6228H137.571C137.571 20.228 137.571 17.8333 137.571 15.4385C137.571 14.4704 137.214 13.2985 136.094 13.0438C134.871 12.6871 133.546 13.2476 132.934 14.3685C132.731 14.7252 132.629 15.1328 132.578 15.5404C132.527 17.8842 132.578 20.228 132.578 22.5719H130.081V11.3624H132.476C132.425 11.9228 132.425 12.5343 132.425 13.0947ZM144.704 11.5152C146.284 11.0057 147.965 10.9547 149.545 11.3624C150.87 11.6171 151.838 12.7381 151.991 14.0628C152.042 16.2028 151.94 18.3428 152.042 20.4828C151.991 21.1452 152.755 20.9923 153.213 21.0433C153.213 21.6038 153.213 22.1133 153.213 22.6738C151.991 23.0814 150.105 23.1833 149.698 21.6547C148.475 22.5719 146.946 23.0304 145.367 22.9285C144.195 22.8776 143.074 22.3171 142.361 21.4C141.393 19.8714 141.8 17.8333 143.329 16.8652C143.38 16.8142 143.431 16.8142 143.482 16.7633C145.163 15.999 147.048 16.1519 148.832 15.6933C149.953 15.4385 149.851 13.7062 148.883 13.2985C147.405 12.6871 145.061 12.8909 144.704 14.8271C143.889 14.8271 143.023 14.8271 142.208 14.8271C142.361 13.2985 143.329 12.0247 144.704 11.5152ZM145.316 17.9861C144.552 18.3428 144.246 19.26 144.603 20.0242C144.704 20.228 144.857 20.4319 145.061 20.5847C146.539 21.4509 148.424 21.0433 149.392 19.6676C149.596 18.8014 149.647 17.8842 149.545 17.0181C148.22 17.6295 146.641 17.3747 145.316 17.9861ZM184.804 13.1966C186.434 10.9038 189.797 10.5471 192.192 11.719C193.466 12.3814 194.332 13.6552 194.485 15.1328C193.67 15.1328 192.803 15.1328 191.988 15.1328C191.835 14.5723 191.581 14.0119 191.122 13.6043C189.797 12.6362 187.963 12.8909 186.944 14.1647C186.842 14.2666 186.791 14.4195 186.689 14.5214C185.925 16.2028 185.976 18.0881 186.791 19.7185C187.199 20.4319 187.912 20.8904 188.727 20.9923C189.542 21.0942 190.358 20.8904 190.969 20.3809C191.479 19.8204 191.784 19.1581 191.937 18.4447H194.434C194.23 19.8714 193.517 21.1961 192.345 22.0623C189.848 23.7438 185.823 23.0814 184.345 20.279C183.785 19.1581 183.53 17.9352 183.581 16.6614C183.734 15.4385 184.091 14.2157 184.804 13.1966ZM205.949 19.6676C205.643 21.1961 204.421 22.368 202.892 22.6228C200.854 23.2342 198.663 22.8776 196.981 21.7057C196.268 20.9923 195.81 20.0242 195.759 19.0052C196.574 19.0052 197.44 19.0052 198.255 19.0052C198.459 19.6166 198.714 20.3809 199.376 20.6357C200.548 21.1452 201.924 21.0942 203.045 20.4319C203.554 19.9733 203.554 19.209 203.096 18.6995C202.994 18.5976 202.841 18.4957 202.688 18.3938C200.956 17.5785 198.918 17.7314 197.287 16.7123C196.013 15.8462 195.657 14.1138 196.472 12.789C197.389 11.6681 198.765 11.0566 200.191 11.0566C201.771 10.8528 203.401 11.2605 204.624 12.2795C205.185 12.8909 205.541 13.6552 205.694 14.4195C204.828 14.4195 203.962 14.4195 203.045 14.4195C202.586 12.789 200.446 12.5852 199.121 13.2476C198.612 13.5023 198.459 14.1138 198.714 14.6233C198.816 14.8271 199.02 14.98 199.223 15.0819C200.956 15.9481 202.994 15.7442 204.675 16.7633C205.389 17.2219 205.847 17.9352 206 18.8014C206 19.1071 206 19.4128 205.949 19.6676ZM104.146 11.4643H105.165C106.541 14.8781 107.968 18.2409 109.344 21.6547C110.617 18.2409 111.942 14.8781 113.216 11.4643H114.133C112.503 15.5914 110.872 19.7695 109.242 23.8966C108.834 24.8138 108.477 25.9347 107.458 26.3933C106.745 26.5461 106.032 26.648 105.318 26.5971V25.8837C106.235 25.9857 107.102 25.629 107.764 25.0176C108.223 24.2023 108.579 23.3871 108.834 22.5209C107.305 18.8523 105.726 15.1328 104.146 11.4643ZM158.767 11.3624C159.684 11.3624 160.652 11.3624 161.57 11.3624C162.538 14.1647 163.557 16.9671 164.525 19.7695C165.493 16.9671 166.461 14.1647 167.378 11.3114H170.028L165.595 23.0304C165.085 24.2533 164.729 25.629 163.557 26.4442C162.436 27.2085 161.009 27.0047 159.786 26.9028V24.8138C160.5 25.0176 161.213 25.0176 161.926 24.7628C162.64 24.2533 162.742 23.2852 163.047 22.5209C161.621 18.8523 160.194 15.1328 158.767 11.3624ZM178.944 11.3624H181.441V22.5719H178.944V11.3624ZM15.4895 0H15.6933C18.6995 0 21.6547 0.866188 24.1514 2.49666C26.9028 4.27999 29.0428 6.8276 30.2147 9.88474C30.4185 10.4452 30.6223 11.0057 30.7752 11.5662C31.9471 11.719 33.1699 11.8719 34.3418 11.9738C34.6985 11.9738 35.0042 12.0757 35.3609 12.1776C35.6666 12.3814 35.8704 12.6871 35.8704 13.0438C35.7685 13.4004 35.6666 13.7571 35.5137 14.1138C34.3928 16.7633 33.2209 19.3619 32.0999 22.0114C31.998 22.2661 31.8452 22.5209 31.6414 22.6738C31.2337 22.9795 30.6223 22.8776 30.3166 22.4699C30.1637 22.2152 30.0109 21.9604 29.858 21.7057C29.5523 22.3171 29.2466 22.8776 28.8899 23.438C29.3995 24.8138 29.9599 26.1385 30.4695 27.5142C30.5714 27.718 30.5714 27.9728 30.5714 28.1766C30.5204 28.4823 30.3166 28.7371 30.0109 28.839C29.858 28.8899 29.6542 28.9409 29.5014 28.9409H23.2342C23.0304 28.9409 22.8776 28.788 22.6738 28.9409C20.5847 29.9599 18.2919 30.5204 15.999 30.5714H15.2857C12.9419 30.5204 10.649 29.9599 8.55998 28.9409C8.40712 28.839 8.25427 28.9409 8.05046 28.9409H1.78333C1.42666 28.9409 1.12095 28.839 0.866189 28.5842C0.764284 28.4314 0.662379 28.2276 0.662379 28.0237C0.713332 27.6671 0.815236 27.3104 1.01905 27.0047C1.47762 25.8328 1.93619 24.6609 2.39476 23.489C0.866188 21.1452 0.0509523 18.4447 0 15.6423V15.1838C0 12.4833 0.764284 9.88474 2.14 7.59189C3.77047 4.89142 6.16523 2.80237 9.01855 1.47762C11.0566 0.509523 13.2476 0 15.4895 0ZM12.0247 1.68142L1.63047 28.0237H8.15236C9.93569 27.0047 11.77 25.9857 13.5533 24.9666C14.0628 25.8328 14.5214 26.648 15.0309 27.4633C19.8714 24.8138 24.6609 22.0114 29.5014 19.3109C30.0109 20.1771 30.5204 21.0433 31.0299 21.9095C32.3037 18.9033 33.6285 15.9481 34.9023 12.9419L25.0176 11.77C25.5271 12.6362 26.0366 13.5023 26.5461 14.4195C23.3871 16.2028 20.279 17.9861 17.12 19.7185C16.6104 18.8523 16.1009 18.0371 15.5914 17.1709C14.0628 18.0371 12.5343 18.9033 11.0057 19.7695C12.3814 15.5914 14.0628 11.4643 15.5404 7.28617C16.8142 10.649 18.0371 14.0628 19.3109 17.4766C20.9923 16.5595 22.6228 15.5914 24.3042 14.6743C22.5719 10.3433 20.8904 6.01237 19.1581 1.68142C16.8142 1.68142 14.4195 1.68142 12.0247 1.68142ZM21.8585 24.7118C22.2661 25.8328 22.7247 26.9028 23.1323 28.0237H29.6542C28.839 25.9347 27.9728 23.8457 27.1576 21.7057L21.8585 24.7118Z" fill="#0072EE"/>
</svg>
