<svg width="104" height="46" viewBox="0 0 104 46" fill="none" xmlns="http://www.w3.org/2000/svg">
<path d="M3.91438 35.6385V45.4591H0.798828V21.213H9.06163C11.1612 21.213 12.9443 21.9131 14.4119 23.3125C15.9021 24.7125 16.6469 26.4169 16.6469 28.426C16.6469 30.4807 15.9021 32.1965 14.4119 33.5733C12.9669 34.9507 11.1835 35.6388 9.06163 35.6388L3.91438 35.6385ZM3.91438 24.1925V32.6584H9.1292C10.3705 32.6584 11.398 32.2409 12.211 31.4052C13.0457 30.5705 13.4638 29.5766 13.4638 28.4254C13.4638 27.2969 13.046 26.3147 12.211 25.4794C11.3983 24.6217 10.3705 24.1925 9.1292 24.1925H3.91438Z" fill="#777677"/>
<path d="M24.9792 28.324C27.2821 28.324 29.0993 28.9394 30.4315 30.1693C31.7633 31.4001 32.4294 33.0876 32.4294 35.2318V45.4588H29.4492V43.1562H29.3138C28.0269 45.0525 26.3111 46.0006 24.1666 46.0006C22.3379 46.0006 20.8082 45.4588 19.578 44.3752C18.3472 43.2917 17.7324 41.9369 17.7324 40.3115C17.7324 38.5963 18.381 37.2297 19.6796 36.214C20.9777 35.198 22.7104 34.69 24.8779 34.69C26.7289 34.69 28.2526 35.0288 29.4492 35.706V34.9947C29.4492 33.9114 29.0203 32.9914 28.1627 32.2351C27.3044 31.4788 26.2999 31.1005 25.1488 31.1005C23.41 31.1005 22.0332 31.8345 21.0175 33.3018L18.2745 31.5748C19.7867 29.4076 22.0217 28.324 24.9792 28.324ZM20.9496 40.3794C20.9496 41.1921 21.2932 41.8696 21.9825 42.4111C22.6709 42.9532 23.4776 43.2238 24.4037 43.2238C25.7126 43.2238 26.8809 42.7387 27.9084 41.7677C28.9355 40.7972 29.4489 39.6569 29.4489 38.3471C28.4779 37.58 27.1234 37.1956 25.3853 37.1956C24.1207 37.1956 23.0655 37.5006 22.2193 38.11C21.3729 38.72 20.9496 39.4768 20.9496 40.3794Z" fill="#777677"/>
<path d="M7.85677 7.04414V9.1591H12.918C12.7545 10.494 12.2004 11.5326 11.2562 12.2753C10.3367 13.0059 9.20368 13.3706 7.85646 13.3706C6.29537 13.3706 4.97952 12.8228 3.90953 11.7275C2.83924 10.6451 2.30439 9.31657 2.30439 7.74279C2.30439 6.16932 2.83924 4.84109 3.90953 3.75812C4.97952 2.66278 6.29537 2.11496 7.85646 2.11496C9.31681 2.11496 10.5886 2.61874 11.6716 3.62599L13.1633 2.13397C11.6649 0.711625 9.8963 0 7.85646 0C6.47154 0 5.16203 0.352648 3.92824 1.05764C2.70681 1.75025 1.7436 2.70049 1.03892 3.90956C0.346006 5.09298 0 6.37083 0 7.74309C0 9.12833 0.346006 10.4125 1.03892 11.5959C1.73123 12.792 2.69444 13.7365 3.92824 14.4286C5.16203 15.1338 6.47154 15.4862 7.85646 15.4862C9.94637 15.4862 11.6776 14.8316 13.0502 13.5221C14.4101 12.2252 15.0897 10.5069 15.0897 8.36603C15.0897 7.86255 15.052 7.42182 14.9766 7.04414H7.85677Z" fill="#487CBE"/>
<path d="M20.8525 5.51416C19.4296 5.51416 18.2398 5.9929 17.283 6.94947C16.3261 7.89368 15.8477 9.07741 15.8477 10.5001C15.8477 11.8977 16.3321 13.0811 17.3017 14.0506C18.2585 15.0078 19.4422 15.4862 20.8525 15.4862C22.2622 15.4862 23.4459 15.0078 24.4031 14.0506C25.3723 13.0814 25.8571 11.8977 25.8571 10.5001C25.8571 9.07771 25.3723 7.89398 24.4031 6.94947C23.4459 5.9929 22.2625 5.51416 20.8525 5.51416ZM22.8356 12.653C22.2942 13.2322 21.6332 13.5218 20.8528 13.5218C20.0594 13.5218 19.3922 13.2322 18.8507 12.653C18.3092 12.0741 18.0386 11.3565 18.0386 10.5001C18.0386 9.61889 18.3092 8.90123 18.8507 8.34708C19.3922 7.76819 20.0594 7.47859 20.8528 7.47859C21.6459 7.47859 22.3129 7.76849 22.8546 8.34708C23.3958 8.90123 23.6667 9.61889 23.6667 10.5001C23.6664 11.3435 23.3895 12.0615 22.8356 12.653Z" fill="#EE372C"/>
<path d="M96.3695 45.4304H93.2539V28.8371H96.234V31.5461H96.3695C96.6853 30.6655 97.3345 29.9156 98.3167 29.2942C99.2989 28.6736 100.264 28.3629 101.212 28.3629C102.115 28.3629 102.883 28.4984 103.515 28.7693L102.566 31.7829C102.182 31.6254 101.573 31.5458 100.738 31.5458C99.5638 31.5458 98.542 32.0197 97.6732 32.9678C96.8039 33.9162 96.3695 35.0224 96.3695 36.2864V45.4304Z" fill="#777677"/>
<path d="M35.9492 28.8658H38.9293V31.5748H39.0648C39.9903 29.4532 41.898 28.3916 44.7879 28.3916L45.4313 28.4592V31.7102L44.0428 31.5748C42.5978 31.5748 41.4069 32.0206 40.4702 32.9127C39.5333 33.8047 39.0648 34.9389 39.0648 36.3157V45.4588H35.9492V28.8658ZM55.3871 45.7297C54.0326 45.7297 52.9092 45.3122 52.0178 44.4769C51.1255 43.6419 50.6685 42.479 50.6462 40.9888V31.7102H47.7339V28.8655H50.6462V23.7858H53.7617V28.8655H57.8254V31.7102H53.7617V39.9731C53.7617 41.0793 53.9759 41.8301 54.4052 42.225C54.8335 42.6205 55.3195 42.8175 55.8613 42.8175C56.1095 42.8175 56.3524 42.7894 56.5895 42.7327C56.8266 42.6766 57.0465 42.6033 57.2498 42.5128L58.232 45.2896C57.4187 45.5828 56.4706 45.7297 55.3871 45.7297Z" fill="#777677"/>
<path d="M60.9713 28.8658H63.9514V31.1684H64.0866C64.5608 30.3557 65.2887 29.6785 66.2709 29.1367C67.2528 28.5949 68.2742 28.324 69.3355 28.324C71.3672 28.324 72.9304 28.9053 74.0254 30.068C75.1201 31.2309 75.6679 32.8846 75.6679 35.0291V45.4588H72.5524V35.2318C72.4848 32.5229 71.1183 31.1681 68.4549 31.1681C67.2133 31.1681 66.1744 31.6707 65.3394 32.6752C64.5041 33.6801 64.0863 34.8822 64.0863 36.2816V45.4588H60.9707V28.8658H60.9713Z" fill="#777677"/>
<path d="M86.7772 46.0006C84.3388 46.0006 82.3292 45.1659 80.7494 43.4947C79.169 41.8241 78.3789 39.7136 78.3789 37.1622C78.3789 34.6339 79.146 32.5289 80.6815 30.8465C82.2166 29.1651 84.1805 28.324 86.5738 28.324C89.0342 28.324 90.9929 29.1198 92.449 30.7114C93.9051 32.303 94.6333 34.5329 94.6333 37.3993L94.5992 37.738H81.5617C81.607 39.3634 82.1485 40.6729 83.1874 41.666C84.2254 42.6597 85.4674 43.1562 86.9123 43.1562C88.8987 43.1562 90.4565 42.1631 91.5856 40.1761L94.3624 41.5308C93.6176 42.9309 92.5847 44.0253 91.2641 44.8154C89.9431 45.6054 88.4472 46.0006 86.7772 46.0006ZM81.7988 35.1642H91.3147C91.2243 34.0128 90.7561 33.0595 89.9093 32.303C89.0625 31.5467 87.9283 31.1684 86.506 31.1684C85.3322 31.1684 84.3219 31.5301 83.4752 32.252C82.6287 32.9751 82.07 33.9452 81.7988 35.1642Z" fill="#777677"/>
<path d="M50.9348 0.528198H48.7441V15.1836H50.9348V0.528198Z" fill="#00AB4E"/>
<path d="M31.7682 5.51416C30.3456 5.51416 29.1555 5.9929 28.199 6.94947C27.2418 7.89368 26.7637 9.07741 26.7637 10.5001C26.7637 11.8977 27.2481 13.0811 28.2177 14.0506C29.1746 15.0078 30.358 15.4862 31.7682 15.4862C33.1782 15.4862 34.3619 15.0078 35.3188 14.0506C36.2883 13.0814 36.7731 11.8977 36.7731 10.5001C36.7731 9.07771 36.2883 7.89398 35.3188 6.94947C34.3619 5.9929 33.1785 5.51416 31.7682 5.51416ZM33.7514 12.653C33.2099 13.2322 32.5489 13.5218 31.7685 13.5218C30.9755 13.5218 30.3079 13.2322 29.7667 12.653C29.2252 12.0741 28.9546 11.3565 28.9546 10.5001C28.9546 9.61889 29.2252 8.90123 29.7667 8.34708C30.3079 7.76819 30.9755 7.47859 31.7685 7.47859C32.5616 7.47859 33.2289 7.76849 33.7704 8.34708C34.3118 8.90123 34.5827 9.61889 34.5827 10.5001C34.5824 11.3435 34.3052 12.0615 33.7514 12.653Z" fill="#FCB514"/>
<path d="M56.9403 13.5218C55.845 13.5218 55.039 13.018 54.5228 12.0108L61.1895 9.25358L60.963 8.68706C60.7865 8.22129 60.557 7.79322 60.2737 7.40257C59.9904 7.01252 59.6661 6.67556 59.3011 6.3923C58.9355 6.10874 58.5328 5.89184 58.0924 5.74071C57.6517 5.58957 57.1859 5.51416 56.6948 5.51416C55.3602 5.51416 54.2399 5.98626 53.3331 6.93047C52.4389 7.88764 51.9922 9.0774 51.9922 10.4997C51.9922 11.91 52.4646 13.0938 53.4085 14.0503C54.3527 15.0075 55.5301 15.4859 56.9403 15.4859C58.7029 15.4859 60.0876 14.7493 61.0951 13.2763L59.3953 12.1432C58.7784 13.0624 57.9603 13.5218 56.9403 13.5218ZM54.9195 8.27166C55.4734 7.71781 56.0906 7.44088 56.7705 7.44088C57.1983 7.44088 57.5826 7.53832 57.9225 7.73349C58.2622 7.92867 58.4951 8.18388 58.6212 8.49821L54.1642 10.3489C54.1388 9.50546 54.391 8.81285 54.9195 8.27166Z" fill="#EE372C"/>
<path d="M45.1565 6.6282H45.0811C44.4512 5.88551 43.5767 5.51416 42.456 5.51416C41.1716 5.51416 40.0509 6.00496 39.0943 6.98718C38.1501 7.96909 37.6777 9.14679 37.6777 10.5188C37.6777 11.8787 38.1501 13.0494 39.0943 14.0316C40.0636 15.0012 41.1839 15.4859 42.456 15.4859C43.5764 15.4859 44.4512 15.1083 45.0811 14.3529H45.1565V14.8627C45.1565 16.9526 44.269 17.9976 42.4938 17.9976C41.9272 17.9976 41.4235 17.8341 40.9827 17.5068C40.542 17.1792 40.2084 16.7514 39.9818 16.2223L38.0744 17.0154C38.2633 17.4561 38.5025 17.8558 38.7921 18.2148C39.0817 18.5738 39.4183 18.8821 39.8026 19.1403C40.1863 19.3982 40.6051 19.5994 41.0584 19.7445C41.5115 19.889 41.99 19.9614 42.4938 19.9614C43.9791 19.9614 45.1405 19.511 45.9779 18.6112C46.8153 17.711 47.2338 16.4298 47.2338 14.768V5.81612H45.1562V6.6282H45.1565ZM44.5333 12.6717C44.0168 13.2382 43.3876 13.5218 42.6449 13.5218C41.8639 13.5218 41.2029 13.2322 40.6621 12.653C40.1333 12.0741 39.8687 11.3625 39.8687 10.5191C39.8687 9.66324 40.1393 8.94558 40.6811 8.36608C41.2349 7.77452 41.8898 7.47859 42.6452 7.47859C43.4002 7.47859 44.0298 7.76849 44.5336 8.34708C45.0497 8.93924 45.308 9.66293 45.308 10.5188C45.3077 11.3625 45.0494 12.0802 44.5333 12.6717Z" fill="#487CBE"/>
</svg>
