<svg width="200" height="27" viewBox="0 0 200 27" fill="none" xmlns="http://www.w3.org/2000/svg">
<g clip-path="url(#clip0_2111_1304)">
<path d="M138.084 10.4562C138.084 7.17582 136.034 4.81805 132.241 4.81805H119.734V21.835H123.835V15.9918H128.653L133.368 21.835H137.981V21.4249L133.368 15.8893C136.341 15.2742 138.084 13.1215 138.084 10.4562ZM131.728 12.5064H123.835V8.30345H131.728C133.163 8.30345 134.086 9.12354 134.086 10.4562C134.189 11.7888 133.266 12.5064 131.728 12.5064Z" fill="black"/>
<path d="M200.001 4.71558H196.208V11.1738H185.854V4.71558H181.754V21.7325H185.854V15.0692H196.208V21.7325H200.001V4.71558Z" fill="black"/>
<path d="M108.765 4.71558L104.255 18.9647H104.05L99.4365 4.71558H92.1582V21.7325H96.0536V7.79092H96.2587L100.769 21.7325H107.022L111.635 7.79092H111.84V21.7325H115.838V4.71558H108.765Z" fill="black"/>
<path d="M64.1726 11.6863C62.7374 11.5838 60.0721 11.2763 58.5345 11.1738C57.0993 11.0712 56.2792 10.5587 56.2792 9.63608C56.2792 8.71348 57.2018 7.9959 60.6872 7.9959C63.7625 7.9959 66.6329 8.71348 69.1957 9.8411V6.04818C66.7354 4.81804 63.9676 4.30548 60.4822 4.30548C55.6641 4.30548 52.2812 6.35571 52.2812 9.73859C52.2812 12.6089 54.229 14.2491 58.2269 14.6591C59.6621 14.8642 62.1224 15.0692 63.7625 15.1717C65.6078 15.2742 66.1203 15.8893 66.1203 16.7094C66.1203 17.837 64.7877 18.5546 61.6098 18.5546C58.3294 18.5546 54.9466 17.427 52.4863 15.9918V19.8872C54.434 21.2199 57.7144 22.245 61.5073 22.245C66.7354 22.245 70.1183 20.1948 70.1183 16.6069C70.1183 13.8391 68.3756 12.0964 64.1726 11.6863Z" fill="black"/>
<path d="M72.8848 4.71558V21.7325H88.6715V18.2471H76.7802V14.7617H88.4665V11.2763H76.7802V8.20097H88.6715V4.71558H72.8848Z" fill="black"/>
<path d="M173.245 11.6863C171.81 11.5838 169.144 11.2763 167.607 11.1738C166.172 11.0712 165.351 10.5587 165.351 9.63608C165.351 8.71348 166.274 7.9959 169.759 7.9959C172.835 7.9959 175.705 8.61097 178.268 9.8411V6.04818C175.808 4.81804 173.04 4.30548 169.554 4.30548C164.736 4.30548 161.354 6.35571 161.354 9.73859C161.354 12.6089 163.301 14.2491 167.299 14.6591C168.734 14.8642 171.195 15.0692 172.835 15.1717C174.68 15.2742 175.193 15.8893 175.193 16.7094C175.193 17.837 173.86 18.5546 170.682 18.5546C167.402 18.5546 164.019 17.427 161.559 15.9918V19.8872C163.506 21.2199 166.787 22.245 170.58 22.245C175.808 22.245 179.191 20.1948 179.191 16.6069C179.191 13.8391 177.345 12.0964 173.245 11.6863Z" fill="black"/>
<path d="M154.486 4.71558V13.4291C154.486 16.7094 152.436 18.5546 149.463 18.5546C146.388 18.5546 144.44 16.8119 144.44 13.4291V4.71558H140.34V13.019C140.34 19.1697 144.235 22.245 149.463 22.245C154.589 22.245 158.484 19.2722 158.484 13.224V4.71558H154.486Z" fill="black"/>
<path d="M38.3393 13.1214C38.3393 13.9415 37.9293 14.044 36.9042 14.044C35.7765 14.044 35.5715 13.839 35.469 13.0189C35.264 10.8662 33.8288 9.02095 31.3685 8.91844C30.6509 8.81593 30.4459 8.61091 30.4459 7.58579C30.4459 6.66319 30.5484 6.25314 31.266 6.25314C35.3665 6.35565 38.3393 9.73853 38.3393 13.1214ZM44.3875 13.1214C44.3875 6.7657 40.082 -6.10352e-05 30.0359 -6.10352e-05H10.2512C9.84111 -6.10352e-05 9.53357 0.204962 9.53357 0.615008C9.53357 0.820031 9.63608 1.02505 9.84111 1.12757C10.5587 1.74263 11.5838 2.3577 13.019 3.07528C14.3516 3.79287 15.4792 4.20291 16.5044 4.61296C16.9144 4.81798 17.1194 5.023 17.1194 5.22803C17.1194 5.53556 16.9144 5.8431 16.4018 5.8431H0.717581C0.205023 5.74058 0 6.04812 0 6.35565C0 6.66319 0.102512 6.86821 0.307535 7.07323C1.53767 8.40588 3.5879 10.0461 6.56074 11.8913C9.12353 13.5315 12.4039 15.2742 14.9667 16.5043C15.3767 16.7093 15.5818 16.9143 15.5818 17.2219C15.5818 17.5294 15.3767 17.7344 14.8642 17.7344H7.58585C7.17581 17.7344 6.97078 17.9395 6.97078 18.247C6.97078 18.452 7.0733 18.657 7.27832 18.8621C8.9185 20.3997 11.5838 21.9374 15.0692 23.4751C19.7847 25.4228 24.5003 26.6529 29.8309 26.6529C39.9795 26.6529 44.3875 19.0671 44.3875 13.1214ZM31.1635 22.2449C26.243 22.2449 22.04 18.247 22.04 13.1214C22.04 8.20086 26.1404 4.20291 31.1635 4.20291C36.2891 4.20291 40.287 8.20086 40.287 13.1214C40.287 18.1445 36.2891 22.2449 31.1635 22.2449Z" fill="#FF642D"/>
</g>
<defs>
<clipPath id="clip0_2111_1304">
<rect width="200" height="26.653" fill="white"/>
</clipPath>
</defs>
</svg>
