<svg width="123" height="37" viewBox="0 0 123 37" fill="none" xmlns="http://www.w3.org/2000/svg">
<path d="M79.0222 8.55724C73.6592 8.58299 69.2905 12.9909 69.3151 18.4793C69.3397 23.9677 73.7521 28.3342 79.1151 28.3095C84.4781 28.2849 88.848 23.8758 88.8222 18.3897C88.7965 12.9036 84.3852 8.53373 79.02 8.55948L79.0222 8.55724ZM79.0961 24.2845C77.5756 24.2935 76.1145 23.6967 75.0341 22.6275C73.9537 21.5582 73.3547 20.1016 73.3379 18.5812C73.3211 17.0607 73.9257 15.5996 74.9949 14.5192C76.0642 13.4388 77.5208 12.8398 79.0412 12.823C80.5617 12.8062 82.0228 13.4108 83.1032 14.48C84.1836 15.5493 84.7826 17.0059 84.7994 18.5263C84.8151 21.5773 82.1459 24.2688 79.0961 24.2845ZM100.749 13.2093C97.9449 13.2227 95.7605 15.5493 95.7739 18.3539L95.8187 27.7419L91.5507 27.762L91.4645 9.10585L95.7325 9.0857L95.747 12.0113C95.747 12.0113 97.5608 9.07786 101.22 9.06107L102.44 9.05435L102.46 13.1992L100.749 13.2093ZM58.1749 9.26484L61.4061 22.0531L64.7605 9.23349L69.0285 9.21445L63.7484 27.9065L59.6035 27.9255L56.2514 14.8954L53.0202 27.9557L48.8742 27.9748L43.3008 9.34433L47.4456 9.3253L51.1627 22.1113L54.1521 9.29395L58.1749 9.26484ZM114.912 17.5343C117.828 15.8146 119.888 12.6338 119.871 8.97598L115.603 8.99613C115.619 12.1669 113.069 14.7398 110.021 14.751L109.411 14.7532L109.344 0L105.076 0.0201527L105.207 27.6971L109.472 27.6781L109.432 18.9003L109.919 18.898C110.407 18.8958 110.897 19.1376 111.021 19.5026L117.033 27.6422L122.032 27.6199L114.912 17.5343Z" fill="#4B4B4B"/>
<path d="M33.4206 8.7722C28.7887 8.7946 25.2664 11.859 23.9486 16.7416C21.7374 13.338 20.012 9.4451 19.0223 6.1579L14.1464 6.18029L14.2068 19.104C14.2122 20.3328 13.7294 21.5134 12.8647 22.3864C11.9999 23.2593 10.8239 23.7532 9.59512 23.7594C8.36636 23.7648 7.18576 23.282 6.3128 22.4172C5.43984 21.5525 4.94598 20.3765 4.93975 19.1477L4.87817 6.22396L0 6.24635L0.0604598 19.1701C0.086211 24.5331 4.37099 28.7831 9.61528 28.7574C14.8596 28.7316 19.1074 24.4446 19.0828 19.0805L19.0716 16.8861C20.0546 18.8309 21.2839 20.8977 22.6353 22.7215L19.6538 37L24.6517 36.9776L26.8014 26.6032C28.7574 27.8147 30.944 28.5346 33.5146 28.5223C38.8798 28.4965 43.2497 24.0886 43.2217 18.4793C43.2013 15.8949 42.1594 13.4236 40.3233 11.6047C38.4872 9.78582 36.0062 8.76716 33.4217 8.77109L33.4206 8.7722ZM33.49 23.5254C31.5396 23.5344 29.5859 22.6902 27.9949 21.3556L28.473 19.4041V19.2921C28.8313 17.2164 29.9084 13.6761 33.5673 13.6605C34.8574 13.6583 36.0961 14.1658 37.0139 15.0725C37.9317 15.9792 38.4543 17.2116 38.4678 18.5017C38.3581 21.3063 36.0528 23.512 33.4911 23.5243L33.49 23.5254Z" fill="#6FDA44"/>
</svg>
