<svg width="40" height="40" viewBox="0 0 40 40" fill="none" xmlns="http://www.w3.org/2000/svg">
<path d="M34 32.0603L28.7272 27.5755C31.4545 22.6664 30.7272 16.424 26.5454 12.2422C26.2424 11.9391 25.8788 11.6361 25.5757 11.3331C25.2121 12.6058 24.7272 13.7573 24.0606 14.8482C27.6363 18.4846 27.5757 24.3028 24 27.8785C20.3636 31.5149 14.4848 31.5149 10.9091 27.8785C7.2727 24.2422 7.2727 18.424 10.8485 14.7876C10.2424 13.6967 9.69694 12.4846 9.3333 11.2725C8.96967 11.5755 8.66664 11.8785 8.303 12.1816C3.2727 17.2119 3.2727 25.3937 8.303 30.424C12.4242 34.5452 18.7272 35.3331 23.6363 32.6058L28.1212 37.8785C29.6969 39.7573 32.5454 39.8785 34.2424 38.121C35.9394 36.424 35.8788 33.6361 34 32.0603Z" fill="black"/>
<path d="M17.3939 20.8484C17.3939 20.8484 24.7878 14.9696 24.7878 7.93929C24.7878 3.93929 21.5151 0.605957 17.4545 0.605957C13.3333 0.605957 10.0605 3.93929 10.0605 7.9999C10.0605 14.8484 17.3939 20.8484 17.3939 20.8484ZM13.9393 7.9999C13.9393 6.0605 15.5151 4.54535 17.3939 4.54535C19.3333 4.54535 20.8484 6.12111 20.8484 7.9999C20.8484 9.87868 19.2727 11.4544 17.3939 11.4544C15.5151 11.4544 13.9393 9.87868 13.9393 7.9999Z" fill="black"/>
</svg>
