<svg width="40" height="40" viewBox="0 0 40 40" fill="none" xmlns="http://www.w3.org/2000/svg">
<path d="M16.4844 40V29.8601L4.76562 20.4851V16.4062H35.2344V20.4851L23.5156 29.8601V37.1138L16.4844 40Z" fill="black"/>
<path d="M15.3125 14.0625C12.0816 14.0625 9.45312 11.434 9.45312 8.20312C9.45312 4.97227 12.0816 2.34375 15.3125 2.34375C18.5434 2.34375 21.1719 4.97227 21.1719 8.20312C21.1719 11.434 18.5434 14.0625 15.3125 14.0625Z" fill="black"/>
<path d="M27.0312 7.03125C25.0927 7.03125 23.5156 5.45414 23.5156 3.51562C23.5156 1.57711 25.0927 0 27.0312 0C28.9698 0 30.5469 1.57711 30.5469 3.51562C30.5469 5.45414 28.9698 7.03125 27.0312 7.03125Z" fill="black"/>
</svg>
