<svg width="40" height="40" viewBox="0 0 40 40" fill="none" xmlns="http://www.w3.org/2000/svg">
<g clip-path="url(#clip0_4048_181)">
<path d="M39.9999 16.4062C39.9999 19.2554 39.2577 22.0627 37.8536 24.5242C37.426 25.2737 36.4718 25.5346 35.7222 25.1074C34.9727 24.6795 34.7115 23.7253 35.1394 22.9757C36.2746 20.9851 36.8749 18.7134 36.8749 16.4062C36.8749 9.08294 30.917 3.125 23.5937 3.125C16.2704 3.125 10.3124 9.08294 10.3124 16.4062C10.3124 23.7295 16.2704 29.6875 23.5937 29.6875C25.8727 29.6875 28.1203 29.1009 30.0933 27.9913C30.8455 27.5686 31.7983 27.8351 32.2213 28.5873C32.6442 29.3396 32.3775 30.292 31.6253 30.715C29.1854 32.0874 26.4083 32.8125 23.5937 32.8125C19.6502 32.8125 16.0274 31.4135 13.1948 29.0863L2.6635 39.5462C2.35894 39.8486 1.96069 40 1.56243 40C1.16082 40 0.75921 39.8462 0.453729 39.5385C-0.154181 38.9264 -0.150824 37.937 0.461358 37.3288L10.9786 26.8832C8.6126 24.0393 7.18743 20.3863 7.18743 16.4062C7.18743 7.35992 14.5473 0 23.5937 0C32.64 0 39.9999 7.35992 39.9999 16.4062ZM25.8593 22.6562V19.5312H21.1718V22.6562C21.1718 23.5193 20.4723 24.2187 19.6093 24.2187C18.7463 24.2187 18.0468 23.5193 18.0468 22.6562V12.6562C18.0468 9.6408 20.5001 7.18749 23.5155 7.18749C26.531 7.18749 28.9843 9.6408 28.9843 12.6562V22.6562C28.9843 23.5193 28.2848 24.2187 27.4218 24.2187C26.5587 24.2187 25.8593 23.5193 25.8593 22.6562ZM25.8593 16.4062V12.6562C25.8593 11.3638 24.808 10.3125 23.5155 10.3125C22.2231 10.3125 21.1718 11.3638 21.1718 12.6562V16.4062H25.8593Z" fill="black"/>
</g>
<defs>
<clipPath id="clip0_4048_181">
<rect width="40" height="40" fill="white"/>
</clipPath>
</defs>
</svg>
