<svg width="40" height="40" viewBox="0 0 40 40" fill="none" xmlns="http://www.w3.org/2000/svg">
<path fill-rule="evenodd" clip-rule="evenodd" d="M3.43359 23.4332V26.2983C3.43375 26.4057 3.47066 26.5097 3.53819 26.5932C3.60572 26.6767 3.69979 26.7345 3.80477 26.7571L7.26812 27.4945C7.4956 28.2068 7.78257 28.8987 8.12602 29.563L6.1982 32.5352C6.13964 32.6252 6.11382 32.7326 6.12509 32.8395C6.13636 32.9463 6.18402 33.046 6.26008 33.1218L10.3118 37.1734C10.3876 37.2494 10.4872 37.297 10.5939 37.3081C10.7006 37.3193 10.8079 37.2934 10.8977 37.2348L13.8694 35.3076C14.5339 35.6511 15.2262 35.9381 15.939 36.1654L16.6763 39.6288C16.6988 39.7339 16.7567 39.828 16.8402 39.8956C16.9237 39.9631 17.0279 40 17.1353 40H22.8648C22.9722 39.9999 23.0764 39.9631 23.1599 39.8955C23.2434 39.828 23.3012 39.7338 23.3237 39.6288L24.0609 36.1654C24.7737 35.9382 25.4661 35.6512 26.1306 35.3076L29.1023 37.2348C29.1923 37.2935 29.2997 37.3194 29.4065 37.3082C29.5133 37.297 29.613 37.2494 29.6889 37.1734L33.7405 33.1218C33.8164 33.0458 33.8639 32.9461 33.8751 32.8393C33.8863 32.7326 33.8604 32.6252 33.802 32.5352L31.8735 29.563C32.2174 28.8989 32.5046 28.2069 32.732 27.4945L36.1954 26.7571C36.3004 26.7345 36.3944 26.6767 36.462 26.5932C36.5295 26.5097 36.5664 26.4057 36.5666 26.2983V23.4332C36.5664 23.309 36.517 23.1899 36.4291 23.102C36.3412 23.0142 36.2221 22.9649 36.0978 22.9649H28.4437C28.3194 22.9649 28.2003 23.0142 28.1124 23.102C28.0245 23.1899 27.975 23.309 27.9749 23.4332C27.9749 25.5482 27.1347 27.5766 25.6392 29.0722C24.1436 30.5677 22.1153 31.4079 20.0002 31.4079C17.8852 31.4079 15.8568 30.5677 14.3613 29.0722C12.8657 27.5766 12.0255 25.5482 12.0255 23.4332C12.0254 23.309 11.976 23.1899 11.8881 23.102C11.8002 23.0142 11.681 22.9649 11.5568 22.9649H3.90242C3.84089 22.9649 3.77994 22.9769 3.72307 23.0004C3.66621 23.0239 3.61453 23.0584 3.57099 23.1019C3.52746 23.1454 3.49293 23.197 3.46936 23.2539C3.4458 23.3107 3.43359 23.3717 3.43359 23.4332ZM17.6923 3.73742C17.6097 3.69464 17.5163 3.67753 17.4239 3.68828C17.3315 3.69902 17.2444 3.73714 17.1738 3.79773L11.8027 8.37352C11.4086 8.08786 10.9236 7.95657 10.4393 8.0045C9.95496 8.05243 9.50503 8.27625 9.17465 8.6336C8.84427 8.99095 8.65637 9.45702 8.6465 9.94359C8.63664 10.4302 8.80551 10.9035 9.12114 11.2739C9.43677 11.6443 9.87726 11.8862 10.3592 11.9537C10.8412 12.0212 11.3312 11.9097 11.7364 11.6403C12.1417 11.3708 12.4341 10.9621 12.5583 10.4916C12.6826 10.021 12.6299 9.52125 12.4105 9.08687L17.5416 4.71531L22.8751 7.47266C22.9594 7.51624 23.055 7.53317 23.1492 7.52121C23.2434 7.50926 23.3318 7.46898 23.4026 7.4057L29.9448 1.56508V2.92969C29.9448 3.05401 29.9942 3.17324 30.0821 3.26114C30.17 3.34905 30.2892 3.39844 30.4135 3.39844C30.5378 3.39844 30.6571 3.34905 30.745 3.26114C30.8329 3.17324 30.8823 3.05401 30.8823 2.92969V0.46875C30.8823 0.34443 30.8329 0.225201 30.745 0.137294C30.6571 0.049386 30.5378 0 30.4135 0L27.9526 0C27.8283 0 27.709 0.049386 27.6211 0.137294C27.5332 0.225201 27.4838 0.34443 27.4838 0.46875C27.4838 0.59307 27.5332 0.712299 27.6211 0.800206C27.709 0.888114 27.8283 0.9375 27.9526 0.9375H29.2391L23.0189 6.49141L17.6923 3.73742ZM8.13219 12.557C8.13219 12.4954 8.14432 12.4345 8.16788 12.3776C8.19144 12.3208 8.22598 12.2692 8.26951 12.2257C8.31304 12.1822 8.36472 12.1477 8.42159 12.1242C8.47846 12.1007 8.5394 12.0886 8.60094 12.0887H12.6744C12.7986 12.0887 12.9178 12.138 13.0057 12.2258C13.0936 12.3136 13.143 12.4327 13.1431 12.557V20.9375H14.3735V8.01016C14.3735 7.88584 14.4229 7.76661 14.5108 7.6787C14.5987 7.59079 14.7179 7.54141 14.8423 7.54141H18.9157C19.04 7.54141 19.1593 7.59079 19.2472 7.6787C19.3351 7.76661 19.3845 7.88584 19.3845 8.01016V20.9375H20.6152V10.2835C20.6154 10.1593 20.6648 10.0402 20.7527 9.95236C20.8406 9.86456 20.9597 9.81523 21.084 9.81523H25.1574C25.2817 9.81523 25.4008 9.86456 25.4887 9.95236C25.5766 10.0402 25.626 10.1593 25.6262 10.2835V20.9375H26.8563V5.7368C26.8565 5.61256 26.9059 5.49345 26.9938 5.40564C27.0817 5.31784 27.2008 5.26852 27.3251 5.26852H31.3985C31.4601 5.26841 31.521 5.28045 31.5779 5.30394C31.6348 5.32743 31.6865 5.36192 31.73 5.40541C31.7736 5.44891 31.8081 5.50057 31.8317 5.55744C31.8552 5.6143 31.8673 5.67525 31.8673 5.7368V20.9375H33.547C33.6713 20.9375 33.7905 20.9869 33.8784 21.0748C33.9663 21.1627 34.0157 21.2819 34.0157 21.4062C34.0157 21.5306 33.9663 21.6498 33.8784 21.7377C33.7905 21.8256 33.6713 21.875 33.547 21.875H6.45437C6.33005 21.875 6.21083 21.8256 6.12292 21.7377C6.03501 21.6498 5.98562 21.5306 5.98562 21.4062C5.98562 21.2819 6.03501 21.1627 6.12292 21.0748C6.21083 20.9869 6.33005 20.9375 6.45437 20.9375H8.13219V12.557Z" fill="black"/>
</svg>
