<svg width="40" height="40" viewBox="0 0 40 40" fill="none" xmlns="http://www.w3.org/2000/svg">
<g clip-path="url(#clip0_4069_1912)">
<path d="M13.3984 8.70273C13.6485 7.82055 13.7209 6.88406 13.6075 5.97234C13.4187 4.45398 12.7467 3.07922 11.6641 1.99664C11.3813 1.71383 11.0706 1.45352 10.7407 1.2232C9.595 0.423281 8.24664 0.000234504 6.84164 1.28779e-07C6.43969 -7.79962e-05 6.03516 0.0353908 5.63883 0.105547C5.22164 0.179453 4.8868 0.462031 4.74336 0.86125C4.5993 1.26195 4.67781 1.69461 4.95336 2.01859L7.13883 4.58852L4.58859 7.13875L2.01875 4.95328C1.69461 4.67766 1.26188 4.59922 0.861172 4.74336C0.461875 4.88703 0.179375 5.22188 0.105547 5.63883C0.0353908 6.03477 -7.79962e-05 6.43945 1.28779e-07 6.84156C0.000312629 8.24664 0.423281 9.595 1.2232 10.7407C1.45328 11.0703 1.71352 11.3809 1.99664 11.6641C3.07922 12.7467 4.45398 13.4187 5.97234 13.6075C6.88406 13.7209 7.82047 13.6485 8.70273 13.3984L13.9233 18.6189L18.6189 13.9233L13.3984 8.70273Z" fill="black"/>
<path d="M26.6017 31.297C26.3515 32.1792 26.2791 33.1157 26.3925 34.0274C26.5813 35.5458 27.2533 36.9205 28.3359 38.0031C28.6191 38.2863 28.9297 38.5465 29.2593 38.7766C30.4051 39.5765 31.7534 39.9995 33.1584 39.9998C33.5606 39.9998 33.9652 39.9644 34.3612 39.8942C34.7781 39.8203 35.1131 39.5379 35.2566 39.1386C35.4009 38.7379 35.3224 38.3052 35.0467 37.9811L32.8613 35.4112L35.4115 32.861L37.9814 35.0465C38.3054 35.322 38.7381 35.4006 39.1388 35.2565C39.538 35.113 39.8206 34.7781 39.8945 34.3609C39.9646 33.9647 40.0002 33.5601 40 33.1582C39.9998 31.7531 39.5767 30.4048 38.7768 29.2591C38.5465 28.9291 38.2862 28.6185 38.0034 28.3356C36.9208 27.253 35.546 26.581 34.0277 26.3923C33.1159 26.2789 32.1795 26.3512 31.2973 26.6014L26.0767 21.3809L21.3811 26.0765L26.6017 31.297Z" fill="black"/>
<path d="M39.6547 2.99499L37.0048 0.345143C36.6134 -0.0462636 36.0139 -0.112045 35.547 0.185143L30.0777 3.66553C29.8097 3.83616 29.6201 4.11264 29.5578 4.42436L29.0892 6.76733L14.7673 21.0892L18.9105 25.2324L33.2324 10.9105L35.5755 10.4419C35.8871 10.3796 36.1636 10.1901 36.3342 9.92194L39.8145 4.45288C40.1119 3.98592 40.0462 3.38639 39.6547 2.99499Z" fill="black"/>
<path d="M19.6013 29.2372L10.7624 20.3984C10.3048 19.9408 9.56283 19.9408 9.10517 20.3984C8.64752 20.8561 8.64752 21.598 9.10517 22.0557L9.38143 22.3319L1.71346 29.9999C-0.571152 32.2845 -0.571152 36.0017 1.71346 38.2863C3.99807 40.5709 7.71525 40.5709 9.99986 38.2863L17.6678 30.6183L17.9441 30.8946C18.4017 31.3522 19.1437 31.3522 19.6013 30.8946C20.0588 30.4369 20.0588 29.6949 19.6013 29.2372ZM11.7892 29.8678L5.82588 35.8312C5.36822 36.2888 4.62627 36.2888 4.16861 35.8312C3.71096 35.3735 3.71096 34.6315 4.16861 34.1739L10.132 28.2105C10.5896 27.7529 11.3316 27.7529 11.7892 28.2105C12.2468 28.6681 12.2468 29.4101 11.7892 29.8678Z" fill="black"/>
</g>
<defs>
<clipPath id="clip0_4069_1912">
<rect width="40" height="40" fill="white"/>
</clipPath>
</defs>
</svg>
