<svg width="40" height="40" viewBox="0 0 40 40" fill="none" xmlns="http://www.w3.org/2000/svg">
<path d="M2.5 26.0125H37.5V5.0725C37.5 3.65375 36.3456 2.5 34.9275 2.5H5.0725C3.65375 2.5 2.5 3.65438 2.5 5.0725V26.0125ZM24.7944 9.80438C24.7944 9.45938 25.0744 9.17938 25.4194 9.17938C25.7644 9.17938 26.0444 9.45938 26.0444 9.80438V19.1431C26.0444 19.4881 25.7644 19.7681 25.4194 19.7681C25.0744 19.7681 24.7944 19.4881 24.7944 19.1431V9.80438ZM13.0681 18.88L17.4075 9.54125C17.51 9.32062 17.7313 9.17938 17.9744 9.17938C18.2175 9.17938 18.4388 9.32062 18.5413 9.54125L22.8806 18.88C23.0263 19.1931 22.8906 19.565 22.5775 19.71C22.4925 19.7494 22.4025 19.7681 22.3144 19.7681C22.0787 19.7681 21.8531 19.6344 21.7475 19.4062L20.5769 16.8869H15.3731L14.2025 19.4062C14.0569 19.7187 13.6844 19.855 13.3725 19.7094C13.0594 19.5644 12.9237 19.1925 13.0694 18.8794L13.0681 18.88Z" fill="black"/>
<path d="M27.9544 37.1115C27.9544 36.2434 27.2507 35.5371 26.3857 35.5371H13.6144C12.7494 35.5371 12.0457 36.2434 12.0457 37.1115V37.5002H27.9544V37.1115Z" fill="black"/>
<path d="M15.8407 32.2129L15.1938 34.2866H24.807L24.1595 32.2129H15.8407Z" fill="black"/>
<path d="M17.9744 11.2876L15.9531 15.6376H19.995L17.9744 11.2876Z" fill="black"/>
<path d="M37.5 28.3908V27.2627H2.5V28.3908C2.5 29.8096 3.65375 30.9633 5.0725 30.9633H15.3756C15.3756 30.9633 15.3794 30.9627 15.3813 30.9627H24.6187C24.6187 30.9627 24.6225 30.9633 24.6244 30.9633H34.9275C36.3462 30.9633 37.5 29.8096 37.5 28.3908ZM16.7844 29.7189H16.2269C15.8819 29.7189 15.6019 29.4389 15.6019 29.0939C15.6019 28.7489 15.8819 28.4689 16.2269 28.4689H16.7844C17.1294 28.4689 17.4094 28.7489 17.4094 29.0939C17.4094 29.4389 17.1294 29.7189 16.7844 29.7189ZM20.2513 29.7189H19.6938C19.3488 29.7189 19.0688 29.4389 19.0688 29.0939C19.0688 28.7489 19.3488 28.4689 19.6938 28.4689H20.2513C20.5963 28.4689 20.8763 28.7489 20.8763 29.0939C20.8763 29.4389 20.5963 29.7189 20.2513 29.7189ZM23.7181 29.7189H23.1612C22.8162 29.7189 22.5362 29.4389 22.5362 29.0939C22.5362 28.7489 22.8162 28.4689 23.1612 28.4689H23.7181C24.0631 28.4689 24.3431 28.7489 24.3431 29.0939C24.3431 29.4389 24.0631 29.7189 23.7181 29.7189Z" fill="black"/>
</svg>
