<svg width="45" height="40" viewBox="0 0 45 40" fill="none" xmlns="http://www.w3.org/2000/svg">
<path d="M13.665 33.6197C12.8053 33.6197 12.0813 33.0315 11.855 32.217L4.43422 4.25317C4.34372 3.98167 4.11748 3.80068 3.84598 3.80068H0.226074V1.99072H3.84598C4.93196 1.99072 5.88218 2.7147 6.19893 3.75543L8.32562 11.8097H42.4885C43.0768 11.8097 43.6197 12.0812 43.9817 12.5337C44.3437 12.9862 44.4795 13.5744 44.3437 14.1174L40.0451 32.217C39.8641 33.0315 39.0949 33.6649 38.2351 33.6649H13.665V33.6197ZM15.9727 27.7373H35.7917V25.0224H15.9727V27.7373ZM13.9817 20.7238H37.7374V18.0088H13.9817V20.7238Z" fill="black"/>
<path d="M3.84615 2.21714C4.84163 2.21714 5.70136 2.85062 5.97285 3.8461L8.0543 11.7194L8.1448 12.0361H8.50679H42.4887C42.9864 12.0361 43.4842 12.2624 43.8009 12.6696C44.1177 13.0769 44.2081 13.5746 44.1176 14.0723L39.819 32.1719C39.638 32.8959 39.0045 33.4389 38.2353 33.4389H13.6652C12.9412 33.4389 12.2624 32.9411 12.0814 32.2171L4.66063 4.20809C4.57014 3.8461 4.25339 3.61985 3.84615 3.61985H0.452489V2.26239H3.84615M13.7557 20.9502H14.2081H37.5113H37.9638V20.4977V18.2352V17.7827H37.5113H14.2081H13.7557V18.2352V20.4977V20.9502ZM15.7466 27.9637H16.1991H35.5656H36.0181V27.5113V25.2488V24.7963H35.5656H16.1991H15.7466V25.2488V27.5113V27.9637ZM3.84615 1.76465H0V4.02709H3.84615C4.02715 4.02709 4.1629 4.16284 4.20815 4.29858L11.629 32.3076C11.8552 33.2126 12.7149 33.8461 13.6652 33.8461H38.19C39.1403 33.8461 40 33.1674 40.2262 32.2171L44.5249 14.1176C44.6606 13.4841 44.5249 12.8506 44.1629 12.3529C43.7557 11.8551 43.1674 11.5384 42.5339 11.5384H8.50679L6.42534 3.71035C6.1086 2.53388 5.06787 1.76465 3.84615 1.76465ZM14.2081 20.4977V18.2352H37.5113V20.4977H14.2081ZM16.1991 27.5113V25.2488H35.5656V27.5113H16.1991Z" fill="black"/>
<path d="M17.3761 39.7741C18.6506 39.7741 19.6837 38.7409 19.6837 37.4664C19.6837 36.1919 18.6506 35.1587 17.3761 35.1587C16.1015 35.1587 15.0684 36.1919 15.0684 37.4664C15.0684 38.7409 16.1015 39.7741 17.3761 39.7741Z" fill="black"/>
<path d="M17.3757 35.3846C18.507 35.3846 19.4572 36.3348 19.4572 37.4661C19.4572 38.5973 18.507 39.5475 17.3757 39.5475C16.2445 39.5475 15.2943 38.5973 15.2943 37.4661C15.2943 36.3348 16.1993 35.3846 17.3757 35.3846ZM17.3757 34.9321C15.973 34.9321 14.8418 36.0633 14.8418 37.4661C14.8418 38.8688 15.973 40 17.3757 40C18.7784 40 19.9097 38.8688 19.9097 37.4661C19.9097 36.0633 18.7784 34.9321 17.3757 34.9321Z" fill="black"/>
<path d="M35.0225 39.7741C36.297 39.7741 37.3302 38.7409 37.3302 37.4664C37.3302 36.1919 36.297 35.1587 35.0225 35.1587C33.748 35.1587 32.7148 36.1919 32.7148 37.4664C32.7148 38.7409 33.748 39.7741 35.0225 39.7741Z" fill="black"/>
<path d="M35.0222 35.3846C36.1534 35.3846 37.1037 36.3348 37.1037 37.4661C37.1037 38.5973 36.1534 39.5475 35.0222 39.5475C33.891 39.5475 32.9408 38.5973 32.9408 37.4661C32.9408 36.3348 33.891 35.3846 35.0222 35.3846ZM35.0222 34.9321C33.6195 34.9321 32.4883 36.0633 32.4883 37.4661C32.4883 38.8688 33.6195 40 35.0222 40C36.4249 40 37.5562 38.8688 37.5562 37.4661C37.5562 36.0633 36.4249 34.9321 35.0222 34.9321Z" fill="black"/>
<path d="M31.6737 10.5431C31.6737 10.4979 31.6737 10.4979 31.6737 10.4526C31.6737 7.64722 29.366 5.33952 26.5606 5.33952C23.7551 5.33952 21.4474 7.64722 21.4474 10.4526V10.5431H16.2891V8.82369H18.28L18.3253 8.64269C18.5515 7.64722 18.9135 6.74224 19.4565 5.88251L19.547 5.74676L18.1443 4.34405L20.452 2.03636L21.8547 3.43907L21.9904 3.34857C22.8501 2.80559 23.7551 2.4436 24.7506 2.21735L24.9316 2.1721V0.181152H28.1895V2.21735L28.3705 2.2626C29.366 2.48884 30.271 2.85084 31.1307 3.39382L31.2664 3.48432L32.6692 2.03636L34.9768 4.34405L33.5741 5.74676L33.6646 5.88251C34.2076 6.74224 34.5696 7.64722 34.7958 8.64269L34.8411 8.82369H36.7868V10.5431H31.6737Z" fill="black"/>
<path d="M27.918 0.452489V2.08145V2.44344L28.28 2.53394C29.2302 2.76018 30.1352 3.12217 30.9497 3.61991L31.2664 3.80091L31.5379 3.52941L32.6692 2.39819L34.6149 4.34389L33.4836 5.47511L33.2121 5.74661L33.3931 6.06335C33.9361 6.87783 34.2981 7.78281 34.4791 8.73303L34.5696 9.09502H34.9769H36.5606V10.362H31.8999C31.8094 7.46606 29.4565 5.15837 26.5606 5.15837C23.6646 5.15837 21.3117 7.46606 21.2212 10.362H16.5153V9.09502H18.099H18.461L18.5515 8.73303C18.7778 7.78281 19.1398 6.87783 19.6375 6.06335L19.8185 5.74661L19.5922 5.47511L18.461 4.34389L20.4067 2.39819L21.5379 3.52941L21.8094 3.80091L22.1262 3.61991C22.9407 3.07692 23.8456 2.71493 24.7959 2.53394L25.1579 2.44344V2.08145V0.497738H27.918M28.3705 0H24.6601V2.0362C23.6646 2.26244 22.7144 2.66968 21.8547 3.21267L20.4067 1.76471L17.7823 4.38914L19.2302 5.83711C18.6873 6.69683 18.28 7.64706 18.0538 8.64254H16.0176V10.8145H21.6284C21.6284 10.724 21.6284 10.5882 21.6284 10.4977C21.6284 7.78281 23.8004 5.61086 26.5153 5.61086C29.2303 5.61086 31.4474 7.78281 31.4474 10.4525V10.7692H37.0583V8.59729H34.9769C34.7506 7.60181 34.3434 6.65158 33.8004 5.79186L35.2483 4.34389L32.6239 1.71946L31.176 3.21267C30.3162 2.66968 29.366 2.26244 28.3705 2.0362V0Z" fill="black"/>
</svg>
