<svg width="40" height="40" viewBox="0 0 40 40" fill="none" xmlns="http://www.w3.org/2000/svg">
<g clip-path="url(#clip0_3693_5422)">
<path fill-rule="evenodd" clip-rule="evenodd" d="M27.8459 29.0242L31.1125 32.2917L30.6625 32.7442C30.3375 33.0696 30.3375 33.5971 30.6625 33.9225C30.6625 33.9225 34.2417 37.5012 36.0625 39.3246C36.4959 39.7571 37.0833 40 37.6917 40C38.3041 40 38.8916 39.7558 39.325 39.3238C39.7583 38.8913 40 38.305 40 37.6933C40 37.0817 39.7583 36.4954 39.325 36.0629C37.5 34.2396 33.9208 30.6608 33.9208 30.6608C33.5958 30.3354 33.0709 30.3354 32.7459 30.6608L32.2917 31.1133L29.025 27.8454C31.7 24.8875 33.3333 20.9662 33.3333 16.6667C33.3333 7.46792 25.8667 0 16.6667 0C7.46667 0 0 7.46792 0 16.6667C0 25.8654 7.46667 33.3333 16.6667 33.3333C20.9667 33.3333 24.8875 31.7017 27.8459 29.0242ZM11.6792 17.9167L12.8042 20.9579L15.8458 22.0833L12.8042 23.2087L11.6792 26.25L10.5542 23.2087L7.51251 22.0833L10.5542 20.9579L11.6792 17.9167ZM19.1667 7.08333L21.3041 12.8617L27.0833 15L21.3041 17.1383L19.1667 22.9167L17.0292 17.1383L11.25 15L17.0292 12.8617L19.1667 7.08333ZM12.5 9.16667V8.33333C12.5 7.87333 12.125 7.5 11.6667 7.5C11.2083 7.5 10.8333 7.87333 10.8333 8.33333V9.16667H10C9.54167 9.16667 9.16667 9.54 9.16667 10C9.16667 10.46 9.54167 10.8333 10 10.8333H10.8333V11.6667C10.8333 12.1267 11.2083 12.5 11.6667 12.5C12.125 12.5 12.5 12.1267 12.5 11.6667V10.8333H13.3333C13.7917 10.8333 14.1667 10.46 14.1667 10C14.1667 9.54 13.7917 9.16667 13.3333 9.16667H12.5Z" fill="black"/>
</g>
<defs>
<clipPath id="clip0_3693_5422">
<rect width="40" height="40" fill="white"/>
</clipPath>
</defs>
</svg>
