<svg width="40" height="40" viewBox="0 0 40 40" fill="none" xmlns="http://www.w3.org/2000/svg">
<g clip-path="url(#clip0_3693_5456)">
<path fill-rule="evenodd" clip-rule="evenodd" d="M7.35031 4.05029V39.9999H4.67188V4.05039C5.06182 4.28928 5.52033 4.42705 6.01105 4.42705C6.50176 4.42705 6.96036 4.28919 7.35031 4.05029Z" fill="black"/>
<path fill-rule="evenodd" clip-rule="evenodd" d="M6.01127 0C7.03818 0 7.87068 0.832495 7.87068 1.85941C7.87068 2.88633 7.03818 3.71882 6.01127 3.71882C4.98435 3.71882 4.15186 2.88633 4.15186 1.85941C4.15186 0.832495 4.98435 0 6.01127 0Z" fill="black"/>
<path d="M8.05859 5.40112C17.3216 -0.911066 26.5846 10.6873 35.8475 3.43799V20.7841C26.5846 28.0334 17.3216 16.4351 8.05859 22.7472V5.40112Z" fill="black"/>
</g>
<defs>
<clipPath id="clip0_3693_5456">
<rect width="40" height="40" fill="white"/>
</clipPath>
</defs>
</svg>
